<svg width="37" height="29" viewBox="0 0 37 29" fill="none" xmlns="http://www.w3.org/2000/svg">
<path d="M11.9375 24.8124C11.9375 25.5086 11.661 26.1762 11.1687 26.6685C10.6764 27.1608 10.0087 27.4374 9.31253 27.4374C8.61634 27.4374 7.94866 27.1608 7.45638 26.6685C6.96409 26.1762 6.68753 25.5086 6.68753 24.8124M11.9375 24.8124C11.9375 24.1162 11.661 23.4485 11.1687 22.9562C10.6764 22.4639 10.0087 22.1874 9.31253 22.1874C8.61634 22.1874 7.94866 22.4639 7.45638 22.9562C6.96409 23.4485 6.68753 24.1162 6.68753 24.8124M11.9375 24.8124H22.4375M6.68753 24.8124H3.40628C2.88414 24.8124 2.38338 24.6049 2.01417 24.2357C1.64495 23.8665 1.43753 23.3658 1.43753 22.8436V16.9374M22.4375 24.8124H26.375M22.4375 24.8124V16.9374M1.43753 16.9374V3.57611C1.43475 3.09691 1.60984 2.63371 1.92891 2.27617C2.24799 1.91863 2.68835 1.69216 3.16478 1.64061C8.99761 1.03516 14.8775 1.03516 20.7103 1.64061C21.699 1.74211 22.4375 2.58211 22.4375 3.57611V5.25261M1.43753 16.9374H22.4375M31.625 24.8124C31.625 25.5086 31.3485 26.1762 30.8562 26.6685C30.3639 27.1608 29.6962 27.4374 29 27.4374C28.3038 27.4374 27.6362 27.1608 27.1439 26.6685C26.6516 26.1762 26.375 25.5086 26.375 24.8124M31.625 24.8124C31.625 24.1162 31.3485 23.4485 30.8562 22.9562C30.3639 22.4639 29.6962 22.1874 29 22.1874C28.3038 22.1874 27.6362 22.4639 27.1439 22.9562C26.6516 23.4485 26.375 24.1162 26.375 24.8124M31.625 24.8124H33.5938C34.6805 24.8124 35.5695 23.9304 35.5013 22.8454C35.1496 17.0662 33.2034 11.4976 29.8785 6.75761C29.5619 6.3136 29.1484 5.94739 28.6694 5.68666C28.1904 5.42594 27.6583 5.27751 27.1135 5.25261H22.4375M22.4375 5.25261V16.9374" stroke="#D6BB8F" stroke-width="2" stroke-linecap="round" stroke-linejoin="round"/>
</svg>
