<svg width="38" height="38" viewBox="0 0 38 38" fill="none" xmlns="http://www.w3.org/2000/svg">
<path d="M15.1727 25.832L13.75 30.8125L12.3273 25.832C11.9595 24.5455 11.2701 23.3739 10.324 22.4278C9.37783 21.4817 8.20625 20.7922 6.91975 20.4245L1.9375 19L6.918 17.5773C8.2045 17.2095 9.37608 16.5201 10.3222 15.574C11.2683 14.6278 11.9578 13.4562 12.3255 12.1698L13.75 7.1875L15.1727 12.168C15.5405 13.4545 16.2299 14.6261 17.176 15.5722C18.1222 16.5183 19.2938 17.2078 20.5802 17.5755L25.5625 19L20.582 20.4227C19.2955 20.7905 18.1239 21.4799 17.1778 22.426C16.2317 23.3722 15.5422 24.5438 15.1745 25.8302L15.1727 25.832ZM29.9533 13.2513L29.5 15.0625L29.0467 13.2513C28.7873 12.2128 28.2505 11.2643 27.4938 10.5073C26.7371 9.75027 25.7889 9.21311 24.7505 8.95325L22.9375 8.5L24.7505 8.04675C25.7889 7.78689 26.7371 7.24973 27.4938 6.4927C28.2505 5.73566 28.7873 4.78722 29.0467 3.74875L29.5 1.9375L29.9533 3.74875C30.2128 4.78744 30.7499 5.73603 31.5069 6.49308C32.264 7.25013 33.2126 7.78717 34.2513 8.04675L36.0625 8.5L34.2513 8.95325C33.2126 9.21283 32.264 9.74987 31.5069 10.5069C30.7499 11.264 30.2128 12.2126 29.9533 13.2513ZM27.5645 33.9922L26.875 36.0625L26.1855 33.9922C25.9922 33.4124 25.6665 32.8854 25.2343 32.4532C24.8021 32.021 24.2751 31.6953 23.6952 31.502L21.625 30.8125L23.6952 30.123C24.2751 29.9297 24.8021 29.604 25.2343 29.1718C25.6665 28.7396 25.9922 28.2126 26.1855 27.6328L26.875 25.5625L27.5645 27.6328C27.7578 28.2126 28.0835 28.7396 28.5157 29.1718C28.9479 29.604 29.4749 29.9297 30.0547 30.123L32.125 30.8125L30.0547 31.502C29.4749 31.6953 28.9479 32.021 28.5157 32.4532C28.0835 32.8854 27.7578 33.4124 27.5645 33.9922Z" stroke="#D6BB8F" stroke-width="2" stroke-linecap="round" stroke-linejoin="round"/>
</svg>
