<svg width="37" height="32" viewBox="0 0 37 32" fill="none" xmlns="http://www.w3.org/2000/svg">
<path d="M1.4375 26.8125C10.7748 26.8049 20.0715 28.0414 29.0823 30.4892C30.3545 30.8357 31.625 29.8907 31.625 28.5712V26.8125M4.0625 1.875V3.1875C4.0625 3.5356 3.92422 3.86944 3.67808 4.11558C3.43194 4.36172 3.0981 4.5 2.75 4.5H1.4375M1.4375 4.5V3.84375C1.4375 2.757 2.3195 1.875 3.40625 1.875H32.9375M1.4375 4.5V20.25M32.9375 1.875V3.1875C32.9375 3.912 33.5255 4.5 34.25 4.5H35.5625M32.9375 1.875H33.5938C34.6805 1.875 35.5625 2.757 35.5625 3.84375V20.9062C35.5625 21.993 34.6805 22.875 33.5938 22.875H32.9375M1.4375 20.25V20.9062C1.4375 21.4284 1.64492 21.9292 2.01413 22.2984C2.38335 22.6676 2.88411 22.875 3.40625 22.875H4.0625M1.4375 20.25H2.75C3.0981 20.25 3.43194 20.3883 3.67808 20.6344C3.92422 20.8806 4.0625 21.2144 4.0625 21.5625V22.875M32.9375 22.875V21.5625C32.9375 21.2144 33.0758 20.8806 33.3219 20.6344C33.5681 20.3883 33.9019 20.25 34.25 20.25H35.5625M32.9375 22.875H4.0625M23.75 12.375C23.75 13.7674 23.1969 15.1027 22.2123 16.0873C21.2277 17.0719 19.8924 17.625 18.5 17.625C17.1076 17.625 15.7723 17.0719 14.7877 16.0873C13.8031 15.1027 13.25 13.7674 13.25 12.375C13.25 10.9826 13.8031 9.64725 14.7877 8.66269C15.7723 7.67812 17.1076 7.125 18.5 7.125C19.8924 7.125 21.2277 7.67812 22.2123 8.66269C23.1969 9.64725 23.75 10.9826 23.75 12.375ZM29 12.375H29.014V12.389H29V12.375ZM8 12.375H8.014V12.389H8V12.375Z" stroke="#D6BB8F" stroke-width="2" stroke-linecap="round" stroke-linejoin="round"/>
</svg>
