<svg width="35" height="32" viewBox="0 0 35 32" fill="none" xmlns="http://www.w3.org/2000/svg">
<path d="M24.537 11.3595H33.273L27.7063 5.78926C25.9141 3.99703 23.6816 2.70819 21.2334 2.05232C18.7851 1.39644 16.2074 1.39663 13.7592 2.05287C11.3111 2.70911 9.07884 3.99828 7.2869 5.79077C5.49496 7.58327 4.20649 9.81591 3.551 12.2643M1.7205 29.3775V20.6415M1.7205 20.6415H10.4565M1.7205 20.6415L7.2855 26.2118C9.0777 28.004 11.3101 29.2928 13.7584 29.9487C16.2066 30.6046 18.7844 30.6044 21.2325 29.9481C23.6807 29.2919 25.9129 28.0027 27.7049 26.2102C29.4968 24.4177 30.7853 22.1851 31.4408 19.7368M33.273 2.62351V11.356" stroke="#D6BB8F" stroke-width="2" stroke-linecap="round" stroke-linejoin="round"/>
</svg>
