<svg width="24" height="24" viewBox="0 0 24 24" fill="none" xmlns="http://www.w3.org/2000/svg">
<path d="M12.7888 21.3358C13.5911 21.8515 14.5461 22.0776 15.495 21.9764C16.4439 21.8752 17.3296 21.4529 18.0047 20.7796L18.5928 20.1925C18.8537 19.9292 19 19.5739 19 19.2036C19 18.8334 18.8537 18.478 18.5928 18.2148L16.1164 15.7582C15.8554 15.4987 15.502 15.3531 15.1336 15.3531C14.7652 15.3531 14.4119 15.4987 14.1508 15.7582C13.8871 16.0186 13.5312 16.1647 13.1602 16.1647C12.7893 16.1647 12.4334 16.0186 12.1697 15.7582L8.22295 11.8184C7.96209 11.5551 7.81577 11.1998 7.81577 10.8295C7.81577 10.4593 7.96209 10.1039 8.22295 9.84072C8.48287 9.58013 8.62879 9.22736 8.62879 8.85963C8.62879 8.49189 8.48287 8.13913 8.22295 7.87853L5.83943 5.40647C5.57575 5.14606 5.2198 5 4.84888 5C4.47796 5 4.12201 5.14606 3.85833 5.40647L3.27019 5.99359C2.58362 6.65801 2.14608 7.53738 2.0306 8.48496C1.91511 9.43253 2.12866 10.391 2.63561 11.2004C5.33445 15.2001 8.78203 18.6417 12.7888 21.3358Z" stroke="#333335" stroke-width="1.5" stroke-linecap="round" stroke-linejoin="round"/>
<path d="M12.7888 21.3358C13.5911 21.8515 14.5461 22.0776 15.495 21.9764C16.4439 21.8752 17.3296 21.4529 18.0047 20.7796L18.5928 20.1925C18.8537 19.9292 19 19.5739 19 19.2036C19 18.8334 18.8537 18.478 18.5928 18.2148L16.1164 15.7582C15.8554 15.4987 15.502 15.3531 15.1336 15.3531C14.7652 15.3531 14.4119 15.4987 14.1508 15.7582C13.8871 16.0186 13.5312 16.1647 13.1602 16.1647C12.7893 16.1647 12.4334 16.0186 12.1697 15.7582L8.22295 11.8184C7.96209 11.5551 7.81577 11.1998 7.81577 10.8295C7.81577 10.4593 7.96209 10.1039 8.22295 9.84072C8.48287 9.58013 8.62879 9.22736 8.62879 8.85963C8.62879 8.49189 8.48287 8.13913 8.22295 7.87853L5.83943 5.40647C5.57575 5.14606 5.2198 5 4.84888 5C4.47796 5 4.12201 5.14606 3.85833 5.40647L3.27019 5.99359C2.58362 6.65801 2.14608 7.53738 2.0306 8.48496C1.91511 9.43253 2.12866 10.391 2.63561 11.2004C5.33445 15.2001 8.78203 18.6417 12.7888 21.3358Z" stroke="black" stroke-opacity="0.2" stroke-width="1.5" stroke-linecap="round" stroke-linejoin="round"/>
<path d="M12.7888 21.3358C13.5911 21.8515 14.5461 22.0776 15.495 21.9764C16.4439 21.8752 17.3296 21.4529 18.0047 20.7796L18.5928 20.1925C18.8537 19.9292 19 19.5739 19 19.2036C19 18.8334 18.8537 18.478 18.5928 18.2148L16.1164 15.7582C15.8554 15.4987 15.502 15.3531 15.1336 15.3531C14.7652 15.3531 14.4119 15.4987 14.1508 15.7582C13.8871 16.0186 13.5312 16.1647 13.1602 16.1647C12.7893 16.1647 12.4334 16.0186 12.1697 15.7582L8.22295 11.8184C7.96209 11.5551 7.81577 11.1998 7.81577 10.8295C7.81577 10.4593 7.96209 10.1039 8.22295 9.84072C8.48287 9.58013 8.62879 9.22736 8.62879 8.85963C8.62879 8.49189 8.48287 8.13913 8.22295 7.87853L5.83943 5.40647C5.57575 5.14606 5.2198 5 4.84888 5C4.47796 5 4.12201 5.14606 3.85833 5.40647L3.27019 5.99359C2.58362 6.65801 2.14608 7.53738 2.0306 8.48496C1.91511 9.43253 2.12866 10.391 2.63561 11.2004C5.33445 15.2001 8.78203 18.6417 12.7888 21.3358Z" stroke="black" stroke-opacity="0.2" stroke-width="1.5" stroke-linecap="round" stroke-linejoin="round"/>
<path d="M12.7888 21.3358C13.5911 21.8515 14.5461 22.0776 15.495 21.9764C16.4439 21.8752 17.3296 21.4529 18.0047 20.7796L18.5928 20.1925C18.8537 19.9292 19 19.5739 19 19.2036C19 18.8334 18.8537 18.478 18.5928 18.2148L16.1164 15.7582C15.8554 15.4987 15.502 15.3531 15.1336 15.3531C14.7652 15.3531 14.4119 15.4987 14.1508 15.7582C13.8871 16.0186 13.5312 16.1647 13.1602 16.1647C12.7893 16.1647 12.4334 16.0186 12.1697 15.7582L8.22295 11.8184C7.96209 11.5551 7.81577 11.1998 7.81577 10.8295C7.81577 10.4593 7.96209 10.1039 8.22295 9.84072C8.48287 9.58013 8.62879 9.22736 8.62879 8.85963C8.62879 8.49189 8.48287 8.13913 8.22295 7.87853L5.83943 5.40647C5.57575 5.14606 5.2198 5 4.84888 5C4.47796 5 4.12201 5.14606 3.85833 5.40647L3.27019 5.99359C2.58362 6.65801 2.14608 7.53738 2.0306 8.48496C1.91511 9.43253 2.12866 10.391 2.63561 11.2004C5.33445 15.2001 8.78203 18.6417 12.7888 21.3358Z" stroke="black" stroke-opacity="0.2" stroke-width="1.5" stroke-linecap="round" stroke-linejoin="round"/>
<path d="M12.7888 21.3358C13.5911 21.8515 14.5461 22.0776 15.495 21.9764C16.4439 21.8752 17.3296 21.4529 18.0047 20.7796L18.5928 20.1925C18.8537 19.9292 19 19.5739 19 19.2036C19 18.8334 18.8537 18.478 18.5928 18.2148L16.1164 15.7582C15.8554 15.4987 15.502 15.3531 15.1336 15.3531C14.7652 15.3531 14.4119 15.4987 14.1508 15.7582C13.8871 16.0186 13.5312 16.1647 13.1602 16.1647C12.7893 16.1647 12.4334 16.0186 12.1697 15.7582L8.22295 11.8184C7.96209 11.5551 7.81577 11.1998 7.81577 10.8295C7.81577 10.4593 7.96209 10.1039 8.22295 9.84072C8.48287 9.58013 8.62879 9.22736 8.62879 8.85963C8.62879 8.49189 8.48287 8.13913 8.22295 7.87853L5.83943 5.40647C5.57575 5.14606 5.2198 5 4.84888 5C4.47796 5 4.12201 5.14606 3.85833 5.40647L3.27019 5.99359C2.58362 6.65801 2.14608 7.53738 2.0306 8.48496C1.91511 9.43253 2.12866 10.391 2.63561 11.2004C5.33445 15.2001 8.78203 18.6417 12.7888 21.3358Z" stroke="black" stroke-opacity="0.2" stroke-width="1.5" stroke-linecap="round" stroke-linejoin="round"/>
<path d="M12.7888 21.3358C13.5911 21.8515 14.5461 22.0776 15.495 21.9764C16.4439 21.8752 17.3296 21.4529 18.0047 20.7796L18.5928 20.1925C18.8537 19.9292 19 19.5739 19 19.2036C19 18.8334 18.8537 18.478 18.5928 18.2148L16.1164 15.7582C15.8554 15.4987 15.502 15.3531 15.1336 15.3531C14.7652 15.3531 14.4119 15.4987 14.1508 15.7582C13.8871 16.0186 13.5312 16.1647 13.1602 16.1647C12.7893 16.1647 12.4334 16.0186 12.1697 15.7582L8.22295 11.8184C7.96209 11.5551 7.81577 11.1998 7.81577 10.8295C7.81577 10.4593 7.96209 10.1039 8.22295 9.84072C8.48287 9.58013 8.62879 9.22736 8.62879 8.85963C8.62879 8.49189 8.48287 8.13913 8.22295 7.87853L5.83943 5.40647C5.57575 5.14606 5.2198 5 4.84888 5C4.47796 5 4.12201 5.14606 3.85833 5.40647L3.27019 5.99359C2.58362 6.65801 2.14608 7.53738 2.0306 8.48496C1.91511 9.43253 2.12866 10.391 2.63561 11.2004C5.33445 15.2001 8.78203 18.6417 12.7888 21.3358Z" stroke="black" stroke-opacity="0.2" stroke-width="1.5" stroke-linecap="round" stroke-linejoin="round"/>
<path d="M12.7888 21.3358C13.5911 21.8515 14.5461 22.0776 15.495 21.9764C16.4439 21.8752 17.3296 21.4529 18.0047 20.7796L18.5928 20.1925C18.8537 19.9292 19 19.5739 19 19.2036C19 18.8334 18.8537 18.478 18.5928 18.2148L16.1164 15.7582C15.8554 15.4987 15.502 15.3531 15.1336 15.3531C14.7652 15.3531 14.4119 15.4987 14.1508 15.7582C13.8871 16.0186 13.5312 16.1647 13.1602 16.1647C12.7893 16.1647 12.4334 16.0186 12.1697 15.7582L8.22295 11.8184C7.96209 11.5551 7.81577 11.1998 7.81577 10.8295C7.81577 10.4593 7.96209 10.1039 8.22295 9.84072C8.48287 9.58013 8.62879 9.22736 8.62879 8.85963C8.62879 8.49189 8.48287 8.13913 8.22295 7.87853L5.83943 5.40647C5.57575 5.14606 5.2198 5 4.84888 5C4.47796 5 4.12201 5.14606 3.85833 5.40647L3.27019 5.99359C2.58362 6.65801 2.14608 7.53738 2.0306 8.48496C1.91511 9.43253 2.12866 10.391 2.63561 11.2004C5.33445 15.2001 8.78203 18.6417 12.7888 21.3358Z" stroke="black" stroke-opacity="0.2" stroke-width="1.5" stroke-linecap="round" stroke-linejoin="round"/>
<path d="M12.7888 21.3358C13.5911 21.8515 14.5461 22.0776 15.495 21.9764C16.4439 21.8752 17.3296 21.4529 18.0047 20.7796L18.5928 20.1925C18.8537 19.9292 19 19.5739 19 19.2036C19 18.8334 18.8537 18.478 18.5928 18.2148L16.1164 15.7582C15.8554 15.4987 15.502 15.3531 15.1336 15.3531C14.7652 15.3531 14.4119 15.4987 14.1508 15.7582C13.8871 16.0186 13.5312 16.1647 13.1602 16.1647C12.7893 16.1647 12.4334 16.0186 12.1697 15.7582L8.22295 11.8184C7.96209 11.5551 7.81577 11.1998 7.81577 10.8295C7.81577 10.4593 7.96209 10.1039 8.22295 9.84072C8.48287 9.58013 8.62879 9.22736 8.62879 8.85963C8.62879 8.49189 8.48287 8.13913 8.22295 7.87853L5.83943 5.40647C5.57575 5.14606 5.2198 5 4.84888 5C4.47796 5 4.12201 5.14606 3.85833 5.40647L3.27019 5.99359C2.58362 6.65801 2.14608 7.53738 2.0306 8.48496C1.91511 9.43253 2.12866 10.391 2.63561 11.2004C5.33445 15.2001 8.78203 18.6417 12.7888 21.3358Z" stroke="black" stroke-opacity="0.2" stroke-width="1.5" stroke-linecap="round" stroke-linejoin="round"/>
<path d="M12.7888 21.3358C13.5911 21.8515 14.5461 22.0776 15.495 21.9764C16.4439 21.8752 17.3296 21.4529 18.0047 20.7796L18.5928 20.1925C18.8537 19.9292 19 19.5739 19 19.2036C19 18.8334 18.8537 18.478 18.5928 18.2148L16.1164 15.7582C15.8554 15.4987 15.502 15.3531 15.1336 15.3531C14.7652 15.3531 14.4119 15.4987 14.1508 15.7582C13.8871 16.0186 13.5312 16.1647 13.1602 16.1647C12.7893 16.1647 12.4334 16.0186 12.1697 15.7582L8.22295 11.8184C7.96209 11.5551 7.81577 11.1998 7.81577 10.8295C7.81577 10.4593 7.96209 10.1039 8.22295 9.84072C8.48287 9.58013 8.62879 9.22736 8.62879 8.85963C8.62879 8.49189 8.48287 8.13913 8.22295 7.87853L5.83943 5.40647C5.57575 5.14606 5.2198 5 4.84888 5C4.47796 5 4.12201 5.14606 3.85833 5.40647L3.27019 5.99359C2.58362 6.65801 2.14608 7.53738 2.0306 8.48496C1.91511 9.43253 2.12866 10.391 2.63561 11.2004C5.33445 15.2001 8.78203 18.6417 12.7888 21.3358Z" stroke="black" stroke-opacity="0.2" stroke-width="1.5" stroke-linecap="round" stroke-linejoin="round"/>
<path d="M12 2C13.3132 2 14.6136 2.25866 15.8269 2.76121C17.0401 3.26376 18.1425 4.00036 19.0711 4.92895C19.9997 5.85755 20.7363 6.95995 21.2389 8.17321C21.7414 9.38648 22.0001 10.6868 22.0001 12.0001" stroke="#333335" stroke-width="1.5" stroke-linecap="round" stroke-linejoin="round"/>
<path d="M12 2C13.3132 2 14.6136 2.25866 15.8269 2.76121C17.0401 3.26376 18.1425 4.00036 19.0711 4.92895C19.9997 5.85755 20.7363 6.95995 21.2389 8.17321C21.7414 9.38648 22.0001 10.6868 22.0001 12.0001" stroke="black" stroke-opacity="0.2" stroke-width="1.5" stroke-linecap="round" stroke-linejoin="round"/>
<path d="M12 2C13.3132 2 14.6136 2.25866 15.8269 2.76121C17.0401 3.26376 18.1425 4.00036 19.0711 4.92895C19.9997 5.85755 20.7363 6.95995 21.2389 8.17321C21.7414 9.38648 22.0001 10.6868 22.0001 12.0001" stroke="black" stroke-opacity="0.2" stroke-width="1.5" stroke-linecap="round" stroke-linejoin="round"/>
<path d="M12 2C13.3132 2 14.6136 2.25866 15.8269 2.76121C17.0401 3.26376 18.1425 4.00036 19.0711 4.92895C19.9997 5.85755 20.7363 6.95995 21.2389 8.17321C21.7414 9.38648 22.0001 10.6868 22.0001 12.0001" stroke="black" stroke-opacity="0.2" stroke-width="1.5" stroke-linecap="round" stroke-linejoin="round"/>
<path d="M12 2C13.3132 2 14.6136 2.25866 15.8269 2.76121C17.0401 3.26376 18.1425 4.00036 19.0711 4.92895C19.9997 5.85755 20.7363 6.95995 21.2389 8.17321C21.7414 9.38648 22.0001 10.6868 22.0001 12.0001" stroke="black" stroke-opacity="0.2" stroke-width="1.5" stroke-linecap="round" stroke-linejoin="round"/>
<path d="M12 2C13.3132 2 14.6136 2.25866 15.8269 2.76121C17.0401 3.26376 18.1425 4.00036 19.0711 4.92895C19.9997 5.85755 20.7363 6.95995 21.2389 8.17321C21.7414 9.38648 22.0001 10.6868 22.0001 12.0001" stroke="black" stroke-opacity="0.2" stroke-width="1.5" stroke-linecap="round" stroke-linejoin="round"/>
<path d="M12 2C13.3132 2 14.6136 2.25866 15.8269 2.76121C17.0401 3.26376 18.1425 4.00036 19.0711 4.92895C19.9997 5.85755 20.7363 6.95995 21.2389 8.17321C21.7414 9.38648 22.0001 10.6868 22.0001 12.0001" stroke="black" stroke-opacity="0.2" stroke-width="1.5" stroke-linecap="round" stroke-linejoin="round"/>
<path d="M12 2C13.3132 2 14.6136 2.25866 15.8269 2.76121C17.0401 3.26376 18.1425 4.00036 19.0711 4.92895C19.9997 5.85755 20.7363 6.95995 21.2389 8.17321C21.7414 9.38648 22.0001 10.6868 22.0001 12.0001" stroke="black" stroke-opacity="0.2" stroke-width="1.5" stroke-linecap="round" stroke-linejoin="round"/>
<path d="M12 2C13.3132 2 14.6136 2.25866 15.8269 2.76121C17.0401 3.26376 18.1425 4.00036 19.0711 4.92895C19.9997 5.85755 20.7363 6.95995 21.2389 8.17321C21.7414 9.38648 22.0001 10.6868 22.0001 12.0001" stroke="black" stroke-opacity="0.2" stroke-width="1.5" stroke-linecap="round" stroke-linejoin="round"/>
<path d="M12 6C13.5913 6 15.1174 6.63214 16.2426 7.75736C17.3679 8.88258 18 10.4087 18 12" stroke="#333335" stroke-width="1.5" stroke-linecap="round" stroke-linejoin="round"/>
<path d="M12 6C13.5913 6 15.1174 6.63214 16.2426 7.75736C17.3679 8.88258 18 10.4087 18 12" stroke="black" stroke-opacity="0.2" stroke-width="1.5" stroke-linecap="round" stroke-linejoin="round"/>
<path d="M12 6C13.5913 6 15.1174 6.63214 16.2426 7.75736C17.3679 8.88258 18 10.4087 18 12" stroke="black" stroke-opacity="0.2" stroke-width="1.5" stroke-linecap="round" stroke-linejoin="round"/>
<path d="M12 6C13.5913 6 15.1174 6.63214 16.2426 7.75736C17.3679 8.88258 18 10.4087 18 12" stroke="black" stroke-opacity="0.2" stroke-width="1.5" stroke-linecap="round" stroke-linejoin="round"/>
<path d="M12 6C13.5913 6 15.1174 6.63214 16.2426 7.75736C17.3679 8.88258 18 10.4087 18 12" stroke="black" stroke-opacity="0.2" stroke-width="1.5" stroke-linecap="round" stroke-linejoin="round"/>
<path d="M12 6C13.5913 6 15.1174 6.63214 16.2426 7.75736C17.3679 8.88258 18 10.4087 18 12" stroke="black" stroke-opacity="0.2" stroke-width="1.5" stroke-linecap="round" stroke-linejoin="round"/>
<path d="M12 6C13.5913 6 15.1174 6.63214 16.2426 7.75736C17.3679 8.88258 18 10.4087 18 12" stroke="black" stroke-opacity="0.2" stroke-width="1.5" stroke-linecap="round" stroke-linejoin="round"/>
<path d="M12 6C13.5913 6 15.1174 6.63214 16.2426 7.75736C17.3679 8.88258 18 10.4087 18 12" stroke="black" stroke-opacity="0.2" stroke-width="1.5" stroke-linecap="round" stroke-linejoin="round"/>
<path d="M12 6C13.5913 6 15.1174 6.63214 16.2426 7.75736C17.3679 8.88258 18 10.4087 18 12" stroke="black" stroke-opacity="0.2" stroke-width="1.5" stroke-linecap="round" stroke-linejoin="round"/>
</svg>
