  <svg width="24" height="24" viewBox="0 0 24 24" fill="none" xmlns="http://www.w3.org/2000/svg">
            <path d="M3 9V18C3 19.657 4.343 21 6 21H18C19.657 21 21 19.657 21 18V9.235" stroke="#1D1F1E" stroke-width="1.5" stroke-linecap="round" stroke-linejoin="round" />
            <path fill-rule="evenodd" clip-rule="evenodd" d="M4.399 6.766L10.262 2.562C11.308 1.812 12.715 1.813 13.76 2.563L19.598 6.755C21.467 8.097 21.467 10.293 19.596 11.634L13.744 15.83C12.698 16.58 11.291 16.579 10.246 15.829L4.397 11.628C2.534 10.291 2.534 8.103 4.399 6.766Z" stroke="#1D1F1E" stroke-width="1.5" stroke-linecap="round" stroke-linejoin="round" />
            <path d="M9.21582 8L12.0048 6L14.7838 7.996" stroke="#1D1F1E" stroke-width="1.5" stroke-linecap="round" stroke-linejoin="round" />
            <path d="M12 6V12" stroke="#1D1F1E" stroke-width="1.5" stroke-linecap="round" stroke-linejoin="round" />
          </svg>