<svg width="127" height="25" viewBox="0 0 127 25" fill="none" xmlns="http://www.w3.org/2000/svg">
<path d="M16 13.5H18C19.105 13.5 20 14.395 20 15.5V15.5C20 16.605 19.105 17.5 18 17.5H6C4.895 17.5 4 18.395 4 19.5V19.5C4 20.605 4.895 21.5 6 21.5H10" stroke="#1D1F1E" stroke-width="2" stroke-linecap="round" stroke-linejoin="round"/>
<path fill-rule="evenodd" clip-rule="evenodd" d="M11 13.5C11 13.5 15 10.306 15 7.389C15 5.241 13.209 3.5 11 3.5C8.791 3.5 7 5.241 7 7.389C7 10.306 11 13.5 11 13.5Z" stroke="#1D1F1E" stroke-width="2" stroke-linecap="round" stroke-linejoin="round"/>
<path d="M11.0015 7.22201C11.1595 7.22201 11.2865 7.34701 11.2865 7.50001C11.2865 7.65301 11.1585 7.77701 11.0005 7.77701C10.8425 7.77701 10.7155 7.65301 10.7155 7.49901C10.7145 7.34701 10.8425 7.22201 11.0015 7.22201" stroke="#1D1F1E" stroke-width="2" stroke-linecap="round" stroke-linejoin="round"/>
<path d="M35.964 18.668C35.2267 18.668 34.5407 18.5327 33.906 18.262C33.2807 17.9913 32.73 17.618 32.254 17.142C31.7873 16.6567 31.4233 16.0873 31.162 15.434C30.9007 14.7807 30.77 14.062 30.77 13.278C30.77 12.5033 30.896 11.7893 31.148 11.136C31.4093 10.4733 31.7733 9.904 32.24 9.428C32.7067 8.94267 33.2527 8.56933 33.878 8.308C34.5033 8.03733 35.1893 7.902 35.936 7.902C36.6733 7.902 37.3313 8.028 37.91 8.28C38.498 8.532 38.9927 8.86333 39.394 9.274C39.7953 9.67533 40.0847 10.114 40.262 10.59L38.792 11.304C38.5773 10.7347 38.2227 10.2773 37.728 9.932C37.2333 9.57733 36.636 9.4 35.936 9.4C35.2453 9.4 34.634 9.56333 34.102 9.89C33.57 10.2167 33.1547 10.6693 32.856 11.248C32.5667 11.8267 32.422 12.5033 32.422 13.278C32.422 14.0527 32.5713 14.734 32.87 15.322C33.178 15.9007 33.598 16.3533 34.13 16.68C34.662 16.9973 35.2733 17.156 35.964 17.156C36.5427 17.156 37.07 17.0393 37.546 16.806C38.0313 16.5633 38.4187 16.2273 38.708 15.798C38.9973 15.3593 39.142 14.8507 39.142 14.272V13.558L39.884 14.23H35.936V12.83H40.78V13.81C40.78 14.5753 40.6493 15.2613 40.388 15.868C40.1267 16.4653 39.772 16.974 39.324 17.394C38.876 17.814 38.3627 18.1313 37.784 18.346C37.2053 18.5607 36.5987 18.668 35.964 18.668ZM45.8687 18.668C45.1127 18.668 44.4407 18.4953 43.8527 18.15C43.274 17.7953 42.8213 17.3193 42.4947 16.722C42.168 16.1153 42.0047 15.4387 42.0047 14.692C42.0047 13.9267 42.168 13.25 42.4947 12.662C42.8307 12.074 43.2787 11.612 43.8387 11.276C44.3987 10.9307 45.0333 10.758 45.7427 10.758C46.312 10.758 46.8207 10.856 47.2687 11.052C47.7167 11.248 48.0947 11.5187 48.4027 11.864C48.7107 12.2 48.944 12.5873 49.1027 13.026C49.2707 13.4647 49.3547 13.9313 49.3547 14.426C49.3547 14.5473 49.35 14.6733 49.3407 14.804C49.3313 14.9347 49.3127 15.056 49.2847 15.168H43.2507V13.908H48.3887L47.6327 14.482C47.726 14.0247 47.6933 13.6187 47.5347 13.264C47.3853 12.9 47.152 12.6153 46.8347 12.41C46.5267 12.1953 46.1627 12.088 45.7427 12.088C45.3227 12.088 44.9493 12.1953 44.6227 12.41C44.296 12.6153 44.044 12.914 43.8667 13.306C43.6893 13.6887 43.6193 14.1553 43.6567 14.706C43.61 15.2193 43.68 15.6673 43.8667 16.05C44.0627 16.4327 44.3333 16.7313 44.6787 16.946C45.0333 17.1607 45.4347 17.268 45.8827 17.268C46.34 17.268 46.7273 17.1653 47.0447 16.96C47.3713 16.7547 47.628 16.4887 47.8147 16.162L49.1027 16.792C48.9533 17.1467 48.72 17.4687 48.4027 17.758C48.0947 18.038 47.7213 18.262 47.2827 18.43C46.8533 18.5887 46.382 18.668 45.8687 18.668ZM54.1746 18.584C53.3813 18.584 52.7653 18.36 52.3266 17.912C51.8879 17.464 51.6686 16.834 51.6686 16.022V12.354H50.3386V10.926H50.5486C50.9033 10.926 51.1786 10.8233 51.3746 10.618C51.5706 10.4127 51.6686 10.1327 51.6686 9.778V9.19H53.2506V10.926H54.9726V12.354H53.2506V15.952C53.2506 16.2133 53.2926 16.4373 53.3766 16.624C53.4606 16.8013 53.5959 16.9413 53.7826 17.044C53.9693 17.1373 54.2119 17.184 54.5106 17.184C54.5853 17.184 54.6693 17.1793 54.7626 17.17C54.8559 17.1607 54.9446 17.1513 55.0286 17.142V18.5C54.8979 18.5187 54.7533 18.5373 54.5946 18.556C54.4359 18.5747 54.2959 18.584 54.1746 18.584ZM62.5197 18.668C61.7917 18.668 61.1384 18.4953 60.5597 18.15C59.9904 17.7953 59.5377 17.3193 59.2017 16.722C58.875 16.1247 58.7117 15.4527 58.7117 14.706C58.7117 13.9593 58.8797 13.2873 59.2157 12.69C59.5517 12.0927 60.0044 11.6213 60.5737 11.276C61.143 10.9307 61.787 10.758 62.5057 10.758C63.1124 10.758 63.649 10.8793 64.1157 11.122C64.5824 11.3647 64.951 11.7007 65.2217 12.13L64.9837 12.494V7.902H66.5517V18.5H65.0537V16.96L65.2357 17.254C64.9744 17.7113 64.601 18.0613 64.1157 18.304C63.6304 18.5467 63.0984 18.668 62.5197 18.668ZM62.6737 17.198C63.1124 17.198 63.5044 17.0907 63.8497 16.876C64.2044 16.6613 64.4797 16.3673 64.6757 15.994C64.881 15.6113 64.9837 15.182 64.9837 14.706C64.9837 14.23 64.881 13.8053 64.6757 13.432C64.4797 13.0587 64.2044 12.7647 63.8497 12.55C63.5044 12.3353 63.1124 12.228 62.6737 12.228C62.235 12.228 61.8384 12.3353 61.4837 12.55C61.129 12.7647 60.8537 13.0587 60.6577 13.432C60.4617 13.8053 60.3637 14.23 60.3637 14.706C60.3637 15.182 60.4617 15.6113 60.6577 15.994C60.8537 16.3673 61.1244 16.6613 61.4697 16.876C61.8244 17.0907 62.2257 17.198 62.6737 17.198ZM68.3986 18.5V10.926H69.9806V18.5H68.3986ZM68.3986 9.89V8.07H69.9806V9.89H68.3986ZM71.8302 18.5V10.926H73.3423V12.452L73.2023 12.228C73.3703 11.7333 73.6409 11.3787 74.0143 11.164C74.3876 10.94 74.8356 10.828 75.3583 10.828H75.8203V12.27H75.1623C74.6396 12.27 74.2149 12.4333 73.8883 12.76C73.5709 13.0773 73.4123 13.5347 73.4123 14.132V18.5H71.8302ZM80.4585 18.668C79.7025 18.668 79.0305 18.4953 78.4425 18.15C77.8638 17.7953 77.4112 17.3193 77.0845 16.722C76.7578 16.1153 76.5945 15.4387 76.5945 14.692C76.5945 13.9267 76.7578 13.25 77.0845 12.662C77.4205 12.074 77.8685 11.612 78.4285 11.276C78.9885 10.9307 79.6232 10.758 80.3325 10.758C80.9018 10.758 81.4105 10.856 81.8585 11.052C82.3065 11.248 82.6845 11.5187 82.9925 11.864C83.3005 12.2 83.5338 12.5873 83.6925 13.026C83.8605 13.4647 83.9445 13.9313 83.9445 14.426C83.9445 14.5473 83.9398 14.6733 83.9305 14.804C83.9212 14.9347 83.9025 15.056 83.8745 15.168H77.8405V13.908H82.9785L82.2225 14.482C82.3158 14.0247 82.2832 13.6187 82.1245 13.264C81.9752 12.9 81.7418 12.6153 81.4245 12.41C81.1165 12.1953 80.7525 12.088 80.3325 12.088C79.9125 12.088 79.5392 12.1953 79.2125 12.41C78.8858 12.6153 78.6338 12.914 78.4565 13.306C78.2792 13.6887 78.2092 14.1553 78.2465 14.706C78.1998 15.2193 78.2698 15.6673 78.4565 16.05C78.6525 16.4327 78.9232 16.7313 79.2685 16.946C79.6232 17.1607 80.0245 17.268 80.4725 17.268C80.9298 17.268 81.3172 17.1653 81.6345 16.96C81.9612 16.7547 82.2178 16.4887 82.4045 16.162L83.6925 16.792C83.5432 17.1467 83.3098 17.4687 82.9925 17.758C82.6845 18.038 82.3112 18.262 81.8725 18.43C81.4432 18.5887 80.9718 18.668 80.4585 18.668ZM89.0865 18.668C88.3305 18.668 87.6585 18.4953 87.0705 18.15C86.4918 17.7953 86.0298 17.3193 85.6845 16.722C85.3485 16.1247 85.1805 15.448 85.1805 14.692C85.1805 13.9453 85.3485 13.2733 85.6845 12.676C86.0205 12.0787 86.4825 11.612 87.0705 11.276C87.6585 10.9307 88.3305 10.758 89.0865 10.758C89.5998 10.758 90.0805 10.8513 90.5285 11.038C90.9765 11.2153 91.3638 11.4627 91.6905 11.78C92.0265 12.0973 92.2738 12.466 92.4325 12.886L91.0465 13.53C90.8878 13.138 90.6311 12.8253 90.2765 12.592C89.9311 12.3493 89.5345 12.228 89.0865 12.228C88.6571 12.228 88.2698 12.3353 87.9245 12.55C87.5885 12.7553 87.3225 13.0493 87.1265 13.432C86.9305 13.8053 86.8325 14.23 86.8325 14.706C86.8325 15.182 86.9305 15.6113 87.1265 15.994C87.3225 16.3673 87.5885 16.6613 87.9245 16.876C88.2698 17.0907 88.6571 17.198 89.0865 17.198C89.5438 17.198 89.9405 17.0813 90.2765 16.848C90.6218 16.6053 90.8785 16.2833 91.0465 15.882L92.4325 16.54C92.2831 16.9413 92.0405 17.3053 91.7045 17.632C91.3778 17.9493 90.9905 18.2013 90.5425 18.388C90.0945 18.5747 89.6091 18.668 89.0865 18.668ZM97.2547 18.584C96.4614 18.584 95.8454 18.36 95.4067 17.912C94.968 17.464 94.7487 16.834 94.7487 16.022V12.354H93.4187V10.926H93.6287C93.9834 10.926 94.2587 10.8233 94.4547 10.618C94.6507 10.4127 94.7487 10.1327 94.7487 9.778V9.19H96.3307V10.926H98.0527V12.354H96.3307V15.952C96.3307 16.2133 96.3727 16.4373 96.4567 16.624C96.5407 16.8013 96.676 16.9413 96.8627 17.044C97.0494 17.1373 97.292 17.184 97.5907 17.184C97.6654 17.184 97.7494 17.1793 97.8427 17.17C97.936 17.1607 98.0247 17.1513 98.1087 17.142V18.5C97.978 18.5187 97.8334 18.5373 97.6747 18.556C97.516 18.5747 97.376 18.584 97.2547 18.584ZM99.6525 18.5V10.926H101.235V18.5H99.6525ZM99.6525 9.89V8.07H101.235V9.89H99.6525ZM106.738 18.668C106.01 18.668 105.343 18.4953 104.736 18.15C104.139 17.8047 103.663 17.3333 103.308 16.736C102.953 16.1387 102.776 15.462 102.776 14.706C102.776 13.9407 102.953 13.264 103.308 12.676C103.663 12.0787 104.139 11.612 104.736 11.276C105.333 10.9307 106.001 10.758 106.738 10.758C107.485 10.758 108.152 10.9307 108.74 11.276C109.337 11.612 109.809 12.0787 110.154 12.676C110.509 13.264 110.686 13.9407 110.686 14.706C110.686 15.4713 110.509 16.1527 110.154 16.75C109.799 17.3473 109.323 17.8187 108.726 18.164C108.129 18.5 107.466 18.668 106.738 18.668ZM106.738 17.198C107.186 17.198 107.583 17.0907 107.928 16.876C108.273 16.6613 108.544 16.3673 108.74 15.994C108.945 15.6113 109.048 15.182 109.048 14.706C109.048 14.23 108.945 13.8053 108.74 13.432C108.544 13.0587 108.273 12.7647 107.928 12.55C107.583 12.3353 107.186 12.228 106.738 12.228C106.299 12.228 105.903 12.3353 105.548 12.55C105.203 12.7647 104.927 13.0587 104.722 13.432C104.526 13.8053 104.428 14.23 104.428 14.706C104.428 15.182 104.526 15.6113 104.722 15.994C104.927 16.3673 105.203 16.6613 105.548 16.876C105.903 17.0907 106.299 17.198 106.738 17.198ZM112.231 18.5V10.926H113.743V12.41L113.561 12.214C113.747 11.738 114.046 11.3787 114.457 11.136C114.867 10.884 115.343 10.758 115.885 10.758C116.445 10.758 116.939 10.8793 117.369 11.122C117.798 11.3647 118.134 11.7007 118.377 12.13C118.619 12.5593 118.741 13.054 118.741 13.614V18.5H117.173V14.034C117.173 13.6513 117.103 13.3293 116.963 13.068C116.823 12.7973 116.622 12.592 116.361 12.452C116.109 12.3027 115.819 12.228 115.493 12.228C115.166 12.228 114.872 12.3027 114.611 12.452C114.359 12.592 114.163 12.7973 114.023 13.068C113.883 13.3387 113.813 13.6607 113.813 14.034V18.5H112.231ZM123.234 18.668C122.459 18.668 121.778 18.4767 121.19 18.094C120.611 17.7113 120.205 17.198 119.972 16.554L121.19 15.98C121.395 16.4093 121.675 16.75 122.03 17.002C122.394 17.254 122.795 17.38 123.234 17.38C123.607 17.38 123.91 17.296 124.144 17.128C124.377 16.96 124.494 16.7313 124.494 16.442C124.494 16.2553 124.442 16.106 124.34 15.994C124.237 15.8727 124.106 15.7747 123.948 15.7C123.798 15.6253 123.644 15.5693 123.486 15.532L122.296 15.196C121.642 15.0093 121.152 14.7293 120.826 14.356C120.508 13.9733 120.35 13.53 120.35 13.026C120.35 12.5687 120.466 12.172 120.7 11.836C120.933 11.4907 121.255 11.2247 121.666 11.038C122.076 10.8513 122.538 10.758 123.052 10.758C123.742 10.758 124.358 10.9307 124.9 11.276C125.441 11.612 125.824 12.0833 126.048 12.69L124.83 13.264C124.68 12.9 124.442 12.6107 124.116 12.396C123.798 12.1813 123.439 12.074 123.038 12.074C122.692 12.074 122.417 12.158 122.212 12.326C122.006 12.4847 121.904 12.6947 121.904 12.956C121.904 13.1333 121.95 13.2827 122.044 13.404C122.137 13.516 122.258 13.6093 122.408 13.684C122.557 13.7493 122.711 13.8053 122.87 13.852L124.102 14.216C124.727 14.3933 125.208 14.6733 125.544 15.056C125.88 15.4293 126.048 15.8773 126.048 16.4C126.048 16.848 125.926 17.2447 125.684 17.59C125.45 17.926 125.124 18.192 124.704 18.388C124.284 18.5747 123.794 18.668 123.234 18.668Z" fill="#1D1F1E"/>
<path d="M30 20.95H126.678V21.51H30V20.95Z" fill="#1D1F1E"/>
</svg>
