<svg width="141" height="40" viewBox="0 0 141 40" fill="none" xmlns="http://www.w3.org/2000/svg">
<g clip-path="url(#clip0_1_36)">
<mask id="mask0_1_36" style="mask-type:luminance" maskUnits="userSpaceOnUse" x="0" y="0" width="141" height="40">
<path d="M141 0H0V40H141V0Z" fill="white"/>
</mask>
<g mask="url(#mask0_1_36)">
<path d="M3.32129 15.5326C5.27451 15.4757 5.58274 15.1507 5.58274 14.2126V3.83002C5.58274 2.91204 5.27451 2.56696 3.32129 2.50665V2.35254H8.74207C12.4575 2.35254 14.0288 3.90373 14.0288 5.95411C14.0288 7.88723 12.4575 9.70979 8.60806 9.70979H7.21098V14.2126C7.21098 15.1909 7.57617 15.4757 9.58634 15.5326V15.7035H3.32129V15.5326ZM8.70187 9.42167C11.5764 9.42167 12.1694 8.1184 12.1694 5.97421C12.1694 4.05784 11.5362 2.64066 8.75882 2.64066H7.20763V9.42167H8.70187Z" fill="#DADEE0"/>
<path d="M18.0323 14.2291C18.0323 15.1672 18.2802 15.4754 20.1966 15.5324V15.7033H14.1426V15.5324C16.0958 15.4754 16.404 15.1505 16.404 14.2124V3.82981C16.404 2.91183 16.0958 2.56674 14.1426 2.50644V2.35233H19.7175C23.242 2.35233 25.2153 3.61539 25.2153 5.60881C25.2153 7.33422 24.0293 8.55708 21.1916 8.99932V9.05627C23.969 9.3444 24.562 10.3964 24.8501 12.4669L24.964 13.291C25.2723 15.0902 25.5972 15.4754 27.4165 15.4754V15.6296C26.7832 15.7435 26.0763 15.8004 25.4431 15.8004C23.7579 15.8004 23.4129 14.9762 23.2018 13.2542L22.9907 11.5288C22.7595 9.61242 22.1866 9.17353 19.9051 9.17353H18.0289V14.2291H18.0323ZM19.8515 8.88541C22.726 8.88541 23.3559 7.77311 23.3559 5.62892C23.3559 3.61874 22.4379 2.64045 19.6203 2.64045H18.0289V8.88541H19.8515Z" fill="#DADEE0"/>
<path d="M26.6523 9.05996C26.6523 4.82518 29.8117 2.03104 32.9911 2.03104C36.2677 2.03104 39.293 4.73138 39.293 9.00301C39.293 13.2177 36.1337 16.0319 32.971 16.0319C29.6777 16.0319 26.6523 13.3115 26.6523 9.05996ZM37.4001 9.03986C37.4001 3.81004 35.4268 2.29571 32.9174 2.29571C30.4281 2.29571 28.5486 3.81004 28.5486 9.01976C28.5486 14.2295 30.5219 15.7639 33.0313 15.7639C35.5206 15.7639 37.4001 14.2295 37.4001 9.03986Z" fill="#DADEE0"/>
<path d="M39.7559 15.5324C41.7091 15.4754 42.0173 15.1505 42.0173 14.2124V3.82981C42.0173 2.91183 41.7091 2.5835 39.7559 2.52654V2.35233H50.3294L50.5003 6.37603L50.3294 6.39613C49.2372 3.54168 48.5303 2.64045 46.634 2.64045H43.6456V8.78825H45.3509C46.7479 8.78825 47.227 8.28905 47.7262 6.18172H47.8971V11.6997H47.7262C47.227 9.59232 46.7479 9.07637 45.3509 9.07637H43.6456V14.209C43.6456 15.1672 44.0107 15.4721 45.9439 15.529V15.6999H39.7559V15.5324Z" fill="#DADEE0"/>
<path d="M50.7504 15.5326C52.7036 15.4757 53.0119 15.1507 53.0119 14.2126V3.83002C53.0119 2.91204 52.7036 2.56696 50.7504 2.50665V2.35254H61.4948L61.5518 6.27909L61.3809 6.29919C60.3658 3.54189 59.7158 2.64066 57.8765 2.64066H54.6401V8.61759H56.4593C57.8564 8.61759 58.3556 8.10165 58.8548 5.99431H59.0257V11.5491H58.8548C58.3556 9.44177 57.8598 8.90572 56.4593 8.90572H54.6401V15.4187H58.2015C60.2117 15.4187 60.9219 14.4605 61.9739 11.529L62.1448 11.5491L62.0476 15.7068H50.7471V15.5326H50.7504Z" fill="#DADEE0"/>
<path d="M63.0882 11.3379H63.259C64.311 14.4235 65.5205 15.6866 67.8188 15.6866C69.8692 15.6866 70.8073 14.3632 70.8073 12.8523C70.8073 11.1671 69.8491 10.44 67.3196 9.65272C64.9811 8.92571 63.373 8.19534 63.373 5.97409C63.373 3.57863 65.3831 2.0844 67.7015 2.0844C68.8875 2.0844 69.963 2.39263 70.6699 2.6975L71.3031 1.97049H71.4572V6.16506H71.3031C70.2679 3.38766 69.1757 2.35242 67.4704 2.35242C65.8991 2.35242 64.7499 3.34746 64.7499 5.01591C64.7499 6.74131 65.8019 7.31421 68.1773 8.06133C70.4555 8.77159 72.0837 9.55556 72.0837 11.817C72.0837 13.8272 70.6464 15.9747 67.6781 15.9747C66.472 15.9747 65.1888 15.5727 64.2675 15.0936L63.2322 16.0518H63.0781V11.3379H63.0882Z" fill="#DADEE0"/>
<path d="M73.0677 11.338H73.2385C74.2905 14.4236 75.5 15.6867 77.7983 15.6867C79.8487 15.6867 80.7867 14.3633 80.7867 12.8523C80.7867 11.1671 79.8286 10.4401 77.2991 9.65278C74.9606 8.92577 73.3524 8.1954 73.3524 5.97416C73.3524 3.57869 75.3626 2.08446 77.681 2.08446C78.867 2.08446 79.9425 2.39269 80.6494 2.69757L81.2826 1.97055H81.4367V6.16512H81.2826C80.2474 3.38773 79.1552 2.35248 77.4499 2.35248C75.8786 2.35248 74.7294 3.34752 74.7294 5.01597C74.7294 6.74137 75.7814 7.31427 78.1568 8.06139C80.435 8.77165 82.0632 9.55562 82.0632 11.8171C82.0632 13.8273 80.6259 15.9748 77.6576 15.9748C76.4515 15.9748 75.1683 15.5728 74.247 15.0937L73.2117 16.0518H73.0576V11.338H73.0677Z" fill="#DADEE0"/>
<path d="M82.5117 15.5324C84.5219 15.4754 84.8502 15.1672 84.8502 14.2124V3.82981C84.8502 2.89172 84.5252 2.56674 82.5117 2.50644V2.35233H88.7935V2.50644C86.7834 2.56339 86.455 2.88837 86.455 3.82981V14.2124C86.455 15.1706 86.78 15.4754 88.7935 15.5324V15.7033H82.5117V15.5324Z" fill="#DADEE0"/>
<path d="M89.293 9.05975C89.293 4.82497 92.4523 2.03082 95.6317 2.03082C98.9083 2.03082 101.934 4.73116 101.934 9.00279C101.934 13.2175 98.7743 16.0317 95.6116 16.0317C92.3216 16.0317 89.293 13.3113 89.293 9.05975ZM100.041 9.03964C100.041 3.80983 98.0674 2.2955 95.558 2.2955C93.0688 2.2955 91.1892 3.80983 91.1892 9.01954C91.1892 14.2293 93.1626 15.7637 95.6719 15.7637C98.1612 15.7637 100.041 14.2293 100.041 9.03964Z" fill="#DADEE0"/>
<path d="M105.079 3.98078H105.042V13.308C105.042 14.7821 105.367 15.2612 107.418 15.5293V15.7001H102.379V15.5293C104.312 15.2612 104.697 14.7821 104.697 13.308V4.38617C104.697 3.35093 104.181 2.62391 102.379 2.51V2.35254H105.98L113.907 13.1003H113.927V4.7279C113.927 3.25377 113.505 2.77468 111.495 2.50665V2.35254H116.477V2.50665C114.581 2.79478 114.272 3.27387 114.272 4.7279V16.0285H114.004L105.079 3.98078Z" fill="#DADEE0"/>
<path d="M123.794 10.5137H119.024L118.24 12.5641C117.359 14.8423 117.57 15.3415 119.503 15.5324V15.7033H115.117V15.5324C116.441 15.3013 116.936 14.7853 117.838 12.5239L122.052 1.93024H122.32L126.649 13.462C127.262 15.1103 127.493 15.3951 129.004 15.5291V15.7H123.315V15.5291C125.289 15.452 125.443 15.05 125.001 13.8238L123.794 10.5137ZM123.697 10.2088L121.533 4.21179H121.476L119.141 10.2088H123.697Z" fill="#DADEE0"/>
<path d="M128.123 15.5324C130.076 15.4754 130.384 15.1505 130.384 14.2124V3.82981C130.384 2.91183 130.08 2.56674 128.123 2.50644V2.35233H134.234V2.50644C132.241 2.56339 132.013 2.87162 132.013 3.82981V15.4185H134.77C136.743 15.4185 137.511 14.7082 138.66 11.6259L138.831 11.646L138.64 15.7066H128.123V15.5324Z" fill="#DADEE0"/>
<path d="M3.7168 33.5807C3.7168 32.579 4.36005 31.8587 5.23448 31.8587C6.05865 31.8587 6.62485 32.4751 6.62485 33.2993C6.62485 34.0699 6.10891 34.8438 5.05692 34.9711C5.62312 35.6411 6.65166 36.1537 7.78406 36.1537C9.9182 36.1537 10.8194 34.6629 10.8194 31.9089V20.1795C10.8194 18.9701 10.538 18.4809 7.707 18.4039V18.1995H16.0392V18.4039C13.4427 18.4809 13.0038 18.9433 13.0038 20.203V31.1082C13.0038 34.3479 11.5364 36.5591 8.11574 36.5591C5.33834 36.5625 3.7168 35.0984 3.7168 33.5807Z" fill="#DADEE0"/>
<path d="M16.5752 35.8958C19.1985 35.8187 19.6106 35.3798 19.6106 34.1201V20.1795C19.6106 18.9466 19.1985 18.4809 16.5752 18.4039V18.1995H31.0049L31.082 23.4729L30.8508 23.4997C29.4872 19.7976 28.6128 18.5881 26.1436 18.5881H21.795V26.6121H24.2373C26.1135 26.6121 26.7836 25.9186 27.4536 23.0876H27.6848V30.5453H27.4536C26.7836 27.7177 26.1168 26.9974 24.2373 26.9974H21.795V35.7416H26.5792C29.2795 35.7416 30.231 34.4551 31.6448 30.5219L31.876 30.5487L31.7487 36.1303H16.5752V35.8958Z" fill="#DADEE0"/>
<path d="M44.9666 21.1846C44.1692 18.7154 43.7571 18.5111 41.9044 18.4072V18.2028H49.1042V18.4072C46.7389 18.5111 46.5077 18.8964 47.0974 20.6955L51.0842 33.0916H51.1613L54.6322 22.1595C55.5569 19.228 55.1481 18.635 52.6019 18.4039V18.1995H58.7229V18.4039C56.7697 18.6082 56.0226 19.5597 55.0979 22.4175L50.4946 36.6663H50.1361L45.6634 23.2149L40.6983 36.6663H40.3398L35.4517 21.1846C34.7582 18.9734 34.3461 18.6116 32.3125 18.4072V18.2028H39.6698V18.4072C37.3044 18.5111 37.2274 19.1778 37.6897 20.6955L41.3684 33.1686H41.4454L45.4055 22.5448L44.9666 21.1846Z" fill="#DADEE0"/>
<path d="M58.4404 35.8958C61.0637 35.8187 61.4758 35.3798 61.4758 34.1201V20.1795C61.4758 18.9466 61.0637 18.4809 58.4404 18.4039V18.1995H72.8702L72.9472 23.4729L72.716 23.4997C71.3525 19.7976 70.478 18.5881 68.0089 18.5881H63.6635V26.6121H66.1059C67.9821 26.6121 68.6521 25.9186 69.3222 23.0876H69.5534V30.5453H69.3222C68.6521 27.7177 67.9854 26.9974 66.1059 26.9974H63.6635V35.7416H68.4478C71.1481 35.7416 72.0996 34.4551 73.5134 30.5219L73.7446 30.5487L73.6173 36.1303H58.4438V35.8958H58.4404Z" fill="#DADEE0"/>
<path d="M74.9775 35.8958C77.6008 35.8187 78.0129 35.3798 78.0129 34.1201V20.1795C78.0129 18.9466 77.6008 18.4809 74.9775 18.4039V18.1995H83.1824V18.4039C80.5089 18.4809 80.1973 18.893 80.1973 20.1795V35.7383H83.8994C86.5495 35.7383 87.578 34.7868 89.1191 30.6458L89.3503 30.6727L89.0923 36.1236H74.9775V35.8958Z" fill="#DADEE0"/>
<path d="M90.0205 35.8958C92.6438 35.8187 93.0559 35.3798 93.0559 34.1201V20.1795C93.0559 18.9466 92.6438 18.4809 90.0205 18.4039V18.1995H98.2254V18.4039C95.5518 18.4809 95.2403 18.893 95.2403 20.1795V35.7383H98.9423C101.592 35.7383 102.621 34.7868 104.162 30.6458L104.393 30.6727L104.135 36.1236H90.0205V35.8958Z" fill="#DADEE0"/>
<path d="M105.063 35.8958C107.687 35.8187 108.099 35.3798 108.099 34.1201V20.1795C108.099 18.9466 107.687 18.4809 105.063 18.4039V18.1995H119.493L119.57 23.4729L119.339 23.4997C117.976 19.7976 117.101 18.5881 114.632 18.5881H110.287V26.6121H112.729C114.605 26.6121 115.275 25.9186 115.945 23.0876H116.176V30.5453H115.945C115.275 27.7177 114.608 26.9974 112.729 26.9974H110.287V35.7416H115.071C117.771 35.7416 118.723 34.4551 120.136 30.5219L120.368 30.5487L120.24 36.1303H105.063V35.8958Z" fill="#DADEE0"/>
<path d="M126.797 34.1469C126.797 35.4066 127.132 35.8187 129.702 35.8958V36.1269H121.574V35.8958C124.198 35.8187 124.61 35.3798 124.61 34.1201V20.1795C124.61 18.9466 124.198 18.4809 121.574 18.4039V18.1995H129.059C133.793 18.1995 136.439 19.8981 136.439 22.5716C136.439 24.8867 134.845 26.5317 131.039 27.1247V27.2017C134.768 27.587 135.565 29.0009 135.95 31.7782L136.104 32.8838C136.517 35.3028 136.952 35.8154 139.398 35.8154V36.0197C138.55 36.1738 137.599 36.2509 136.748 36.2509C134.483 36.2509 134.021 35.1453 133.739 32.8302L133.458 30.5152C133.149 27.9422 132.379 27.3525 129.317 27.3525H126.797V34.1469ZM129.24 26.9706C133.096 26.9706 133.947 25.4797 133.947 22.5984C133.947 19.8981 132.711 18.5848 128.931 18.5848H126.797V26.9706H129.24Z" fill="#DADEE0"/>
</g>
</g>
<defs>
<clipPath id="clip0_1_36">
<rect width="141" height="40" fill="white"/>
</clipPath>
</defs>
</svg>
