<svg width="178" height="40" viewBox="0 0 178 40" fill="none" xmlns="http://www.w3.org/2000/svg">
<mask id="mask0_1_61" style="mask-type:luminance" maskUnits="userSpaceOnUse" x="1" y="2" width="176" height="35">
<path d="M176.372 2.19043H1V36.408H176.372V2.19043Z" fill="white"/>
</mask>
<g mask="url(#mask0_1_61)">
<path d="M24.9586 12.6617C24.0067 12.6617 23.1605 12.9261 22.473 13.3757C21.6797 10.5727 19.2469 9.01254 15.5448 9.01254H9.7273V11.0487H15.7035C18.7709 11.0487 20.569 12.7146 20.569 15.5969C20.569 18.4792 18.7709 20.1452 15.7035 20.1452H15.6506L15.9944 19.6427C16.7348 18.5321 17.4223 17.448 17.4223 16.4167C17.4223 14.3012 16.0737 12.6882 13.4294 12.6882C11.1552 12.6882 9.40998 14.4334 9.40998 16.496H11.5783C11.5783 15.4647 12.2659 14.6978 13.4029 14.6978C14.6457 14.6978 15.2275 15.4118 15.2275 16.4695C15.2275 17.2628 14.6986 18.0826 14.1433 18.9023L13.2707 20.1716H9.7273V22.2077H11.9221L8.11426 27.7608H17.2636V25.7247H11.8428L14.2755 22.1813H15.5448C15.7564 22.1813 15.9679 22.1813 16.1795 22.1549L22.5787 30.4845H25.3288L23.2134 27.7608L27.2328 21.8904C28.264 20.436 29.4804 18.8759 29.4804 17.0513C29.4275 14.645 27.603 12.6617 24.9586 12.6617ZM21.8648 26.0156L18.5594 21.7582C19.7757 21.3616 20.7541 20.7269 21.4681 19.8543C22.2614 20.8591 23.5042 21.4938 24.9851 21.4938H25.0908L21.8648 26.0156ZM24.9586 19.4576C23.5836 19.4576 22.6845 18.3999 22.6845 17.0777C22.6845 16.972 22.6845 16.8662 22.711 16.7604V16.7075C22.8696 15.5705 23.7158 14.6978 24.9586 14.6978C26.3337 14.6978 27.2328 15.7556 27.2328 17.0777C27.2592 18.3999 26.3601 19.4576 24.9586 19.4576Z" fill="#DADEE0"/>
<path d="M18.1098 2.19043C8.66953 2.19043 1.00098 9.85898 1.00098 19.2992C1.00098 28.7395 8.66953 36.408 18.1098 36.408C27.55 36.408 35.2186 28.7395 35.2186 19.2728C35.2186 9.85898 27.55 2.19043 18.1098 2.19043ZM18.1098 34.3719C9.78015 34.3719 3.03711 27.6024 3.03711 19.2992C3.03711 10.996 9.80659 4.22656 18.1098 4.22656C26.413 4.22656 33.1825 10.996 33.1825 19.2992C33.1825 27.6289 26.4394 34.3719 18.1098 34.3719ZM55.6592 19.1935C56.479 18.4266 57.0079 17.316 57.0079 16.0996C57.0079 14.8832 56.479 13.7726 55.6592 13.0057C54.9188 12.2918 53.914 11.8687 52.3538 11.8687H46.8272V27.0471H49.7624V20.3305H50.8201L56.241 27.0471H59.8373L54.152 20.0661C54.7073 19.9074 55.2362 19.5901 55.6592 19.1935ZM53.6496 17.2631C53.3851 17.5275 53.0149 17.7126 52.1687 17.7126H49.736V14.4601H52.1687C53.0149 14.4601 53.3851 14.6717 53.6496 14.9361C54.2313 15.6236 54.2313 16.602 53.6496 17.2631ZM64.7557 20.1983H69.4098V17.6069H64.7557V14.4601H70.917V11.8687H61.8205V27.0471H71.1286V24.4557H64.7557V20.1983ZM74.9628 27.0207H77.898V20.1983H82.5521V17.6069H77.898V14.4601H84.0593V11.8687H74.9628V27.0207ZM87.1268 11.8687H90.062V27.0471H87.1268V11.8687ZM104.764 21.7585L96.3026 11.8687H94.24V27.0471H97.1752V17.1573L105.637 27.0471H107.7V11.8687H104.764V21.7585ZM115.077 20.1983H119.731V17.6069H115.077V14.4601H121.239V11.8687H112.142V27.0471H121.45V24.4557H115.077V20.1983ZM134.116 19.1935C134.936 18.4266 135.465 17.316 135.465 16.0996C135.465 14.8832 134.936 13.7726 134.116 13.0057C133.376 12.2918 132.371 11.8687 130.811 11.8687H125.284V27.0471H128.22V20.3305H129.277L134.645 27.0471H138.268L132.583 20.0925C133.165 19.881 133.667 19.5901 134.116 19.1935ZM132.08 17.2631C131.816 17.5275 131.446 17.7126 130.6 17.7126H128.193V14.4601H130.626C131.472 14.4601 131.842 14.6717 132.107 14.9361C132.371 15.2534 132.53 15.6765 132.53 16.0996C132.53 16.5491 132.371 16.9458 132.08 17.2631ZM144.35 17.1838L140.992 11.8422H137.66L142.869 20.1719V27.0207H145.804V20.1719L150.987 11.8687H147.655L144.35 17.1838ZM161.036 20.5421C162.093 19.167 162.675 17.9771 162.675 16.0996C162.675 13.3231 160.322 11.3134 157.73 11.3134H157.625C155.033 11.3134 152.838 13.2437 152.68 16.0467H155.615C155.641 14.9097 156.567 14.0106 157.704 13.9577C158.841 13.9841 159.766 14.9097 159.793 16.0467C159.793 16.84 159.687 17.6862 158.603 19.0612L152.098 26.9942H163.283V24.3499H157.915L161.036 20.5421ZM170.82 11.3398C167.832 11.3662 165.425 13.799 165.452 16.7607C165.399 19.6694 167.726 22.0493 170.635 22.1022C170.688 22.1022 170.714 22.1022 170.767 22.1022H170.978L168.096 27.0471H171.296L174.866 20.9123C175.659 19.5372 176.373 18.1886 176.373 16.6549C176.373 13.4024 173.649 11.3398 170.82 11.3398ZM170.899 19.4843C169.392 19.4843 168.175 18.2679 168.175 16.7607C168.175 15.2534 169.392 14.037 170.899 14.037C172.406 14.037 173.623 15.2534 173.623 16.7607C173.623 18.2679 172.38 19.4843 170.899 19.4843Z" fill="#DADEE0"/>
</g>
</svg>
