<svg width="88" height="40" viewBox="0 0 88 40" fill="none" xmlns="http://www.w3.org/2000/svg">
<mask id="mask0_1_2" style="mask-type:luminance" maskUnits="userSpaceOnUse" x="0" y="1" width="88" height="37">
<path d="M88 1.29199H0V37.3066H88V1.29199Z" fill="white"/>
</mask>
<g mask="url(#mask0_1_2)">
<path fill-rule="evenodd" clip-rule="evenodd" d="M3.23163 36.1671H0.584961V36.6806H15.2404V27.437H14.8059C14.8059 27.437 14.8059 32.7699 13.0283 34.508C11.5272 36.0091 9.94707 36.1276 7.3794 36.1276V19.102C7.3794 19.102 9.15702 18.9835 10.0261 19.8525C11.3692 21.1956 11.5272 22.9337 11.5272 25.3434H12.0012V12.3075H11.5272C11.5272 14.7172 11.4087 16.4553 10.0261 17.7984C9.15702 18.6674 7.3794 18.5489 7.3794 18.5489V2.39238C9.94707 2.39238 11.1717 2.55039 12.6727 4.01198C14.4109 5.7501 14.4504 11.0829 14.4504 11.0829H14.8849V1.87885H0.584961V2.39238H3.23163V36.1671Z" fill="#DADEE0"/>
<path fill-rule="evenodd" clip-rule="evenodd" d="M31.8706 2.39238V36.1671C34.4383 36.1671 36.0184 36.0091 37.5195 34.5475C39.2576 32.8094 39.2971 27.4765 39.2971 27.4765H39.7316V36.7201H25.0762V36.2066H27.7228V2.35288H25.0762V1.87885H34.2803V2.39238H31.8706Z" fill="#DADEE0"/>
<path fill-rule="evenodd" clip-rule="evenodd" d="M55.4146 2.39238V36.1671C57.9822 36.1671 59.5623 36.0091 61.0634 34.5475C62.8015 32.8094 62.841 27.4765 62.841 27.4765H63.2756V36.7201H48.6201V36.2066H51.2668V2.35288H48.6201V1.87885H57.8242V2.39238H55.4146Z" fill="#DADEE0"/>
<path fill-rule="evenodd" clip-rule="evenodd" d="M75.4035 36.1671H72.7568V36.6806H87.4123V27.437H86.9778C86.9778 27.437 86.9778 32.7699 85.2001 34.508C83.699 36.0091 82.1189 36.1276 79.5513 36.1276V19.102C79.5513 19.102 81.3289 18.9835 82.198 19.8525C83.541 21.1956 83.699 22.9337 83.699 25.3434H84.1731V12.3075H83.699C83.699 14.7172 83.5805 16.4553 82.198 17.7984C81.3289 18.6674 79.5513 18.5489 79.5513 18.5489V2.39238C82.1189 2.39238 83.3435 2.55039 84.8446 4.01198C86.5827 5.7501 86.6222 11.0829 86.6222 11.0829H87.0568V1.87885H72.7568V2.39238H75.4035V36.1671Z" fill="#DADEE0"/>
</g>
</svg>
