<svg width="12" height="16" viewBox="0 0 12 16" fill="none" xmlns="http://www.w3.org/2000/svg">
<path d="M8.77197 3.95703C7.96347 4.79853 6.69072 4.99803 6.07422 4.99803" stroke="#1D1F1E" stroke-width="1.5" stroke-linecap="round" stroke-linejoin="round"/>
<path d="M6.07548 4.99984C6.07548 4.99984 5.70498 2.66284 6.61623 1.71484" stroke="#1D1F1E" stroke-width="1.5" stroke-linecap="round" stroke-linejoin="round"/>
<path d="M8.77148 3.95863C9.36698 3.33913 9.36698 2.33412 8.77148 1.71462C8.17598 1.09513 7.21073 1.09513 6.61523 1.71462" stroke="#1D1F1E" stroke-width="1.5" stroke-linecap="round" stroke-linejoin="round"/>
<path d="M3.22852 3.95703C4.03702 4.79853 5.30977 4.99803 5.92627 4.99803" stroke="#1D1F1E" stroke-width="1.5" stroke-linecap="round" stroke-linejoin="round"/>
<path d="M5.92452 4.99984C5.92452 4.99984 6.29502 2.66284 5.38377 1.71484" stroke="#1D1F1E" stroke-width="1.5" stroke-linecap="round" stroke-linejoin="round"/>
<path d="M3.22787 3.95863C2.63237 3.33913 2.63237 2.33412 3.22787 1.71462C3.82337 1.09513 4.78862 1.09513 5.38412 1.71462" stroke="#1D1F1E" stroke-width="1.5" stroke-linecap="round" stroke-linejoin="round"/>
<path d="M11.25 8V14C11.25 14.414 10.914 14.75 10.5 14.75H1.5C1.086 14.75 0.75 14.414 0.75 14V8" stroke="#1D1F1E" stroke-width="1.5" stroke-linecap="round" stroke-linejoin="round"/>
</svg>
