<svg width="24" height="25" viewBox="0 0 24 25" fill="none" xmlns="http://www.w3.org/2000/svg">
<path d="M16 13.5H18C19.105 13.5 20 14.395 20 15.5V15.5C20 16.605 19.105 17.5 18 17.5H6C4.895 17.5 4 18.395 4 19.5V19.5C4 20.605 4.895 21.5 6 21.5H10" stroke="#1D1F1E" stroke-width="2" stroke-linecap="round" stroke-linejoin="round"/>
<path fill-rule="evenodd" clip-rule="evenodd" d="M11 13.5C11 13.5 15 10.306 15 7.389C15 5.241 13.209 3.5 11 3.5C8.791 3.5 7 5.241 7 7.389C7 10.306 11 13.5 11 13.5Z" stroke="#1D1F1E" stroke-width="2" stroke-linecap="round" stroke-linejoin="round"/>
<path d="M11.0015 7.22201C11.1595 7.22201 11.2865 7.34701 11.2865 7.50001C11.2865 7.65301 11.1585 7.77701 11.0005 7.77701C10.8425 7.77701 10.7155 7.65301 10.7155 7.49901C10.7145 7.34701 10.8425 7.22201 11.0015 7.22201" stroke="#1D1F1E" stroke-width="2" stroke-linecap="round" stroke-linejoin="round"/>
</svg>
