<svg width="32" height="32" viewBox="0 0 32 32" fill="none" xmlns="http://www.w3.org/2000/svg">
<g clip-path="url(#clip0_103169_5626)">
<path d="M16.2312 32.3669C25.1954 32.3669 32.4624 25.1213 32.4624 16.1835C32.4624 7.24558 25.1954 0 16.2312 0C7.26696 0 0 7.24558 0 16.1835C0 25.1213 7.26696 32.3669 16.2312 32.3669Z" fill="black" stroke="white" stroke-miterlimit="10"/>
<path d="M6.23249 6.80725L13.9908 17.1502L6.18359 25.5595H7.94082L14.7762 18.1968L20.2988 25.5595H26.2783L18.0833 14.6349L25.3503 6.80725H23.593L17.2982 13.5879L12.212 6.80725H6.23249ZM8.81657 8.09768H11.5635L23.6939 24.269H20.9469L8.81657 8.09768Z" fill="white"/>
</g>
<defs>
<clipPath id="clip0_103169_5626">
<rect width="32" height="32" fill="white"/>
</clipPath>
</defs>
</svg>
