<svg width="20" height="20" viewBox="0 0 20 20" fill="none" xmlns="http://www.w3.org/2000/svg">
              <path fill-rule="evenodd" clip-rule="evenodd" d="M17.0861 2.90651C15.2061 1.03279 12.7061 0.00110577 10.0422 0C4.55278 0 0.0855556 4.44518 0.0833333 9.90988C0.0822222 11.6564 0.541111 13.3615 1.41278 14.8643L0 20L5.27889 18.6222C6.73333 19.4123 8.37111 19.8275 10.0378 19.8281H10.0422C15.5306 19.8281 19.9983 15.3823 20 9.91817C20.0011 7.26986 18.9661 4.78023 17.0861 2.90706V2.90651ZM10.0422 18.1539H10.0389C8.55389 18.1539 7.09722 17.7564 5.82611 17.0056L5.52389 16.827L2.39111 17.6447L3.22722 14.605L3.03056 14.2931C2.20222 12.9817 1.76444 11.4657 1.765 9.90933C1.76667 5.36794 5.48 1.67302 10.0456 1.67302C12.2561 1.67413 14.3344 2.53165 15.8972 4.08912C17.46 5.64604 18.32 7.71604 18.3189 9.91651C18.3167 14.4585 14.6039 18.1534 10.0422 18.1534V18.1539ZM14.5822 11.9854C14.3333 11.8616 13.11 11.2628 12.8817 11.1799C12.6533 11.0969 12.4878 11.056 12.3222 11.3037C12.1567 11.5519 11.6794 12.1098 11.5344 12.2746C11.3894 12.4399 11.2439 12.4603 10.9956 12.3365C10.7467 12.2126 9.945 11.9511 8.99444 11.1074C8.255 10.4506 7.75556 9.64007 7.61 9.39183C7.465 9.14358 7.59444 9.00979 7.71889 8.88649C7.83056 8.77536 7.96778 8.59734 8.09222 8.45248C8.21667 8.30818 8.25778 8.20424 8.34111 8.03948C8.42444 7.87416 8.38278 7.72986 8.32056 7.60546C8.25833 7.48162 7.76111 6.26251 7.55333 5.76713C7.35111 5.28446 7.14611 5.3497 6.99389 5.34196C6.84889 5.33477 6.68278 5.33367 6.51667 5.33367C6.35056 5.33367 6.08111 5.39559 5.85278 5.64328C5.62444 5.89152 4.98167 6.4903 4.98167 7.70885C4.98167 8.92741 5.87333 10.105 5.99778 10.2709C6.12222 10.4362 7.75278 12.9375 10.2483 14.0101C10.8417 14.2655 11.3056 14.4175 11.6672 14.532C12.2633 14.7205 12.8056 14.694 13.2344 14.6304C13.7122 14.5591 14.7067 14.0311 14.9139 13.4528C15.1211 12.8744 15.1211 12.3785 15.0589 12.2751C14.9967 12.1717 14.8306 12.1098 14.5817 11.986V11.9849L14.5822 11.9854Z" fill="#1D1F1E" />
            </svg>