<svg width="512" height="342" viewBox="0 0 512 342" fill="none" xmlns="http://www.w3.org/2000/svg">
<path d="M17.3 1.29999C11.1 3.59999 5.4 8.6 2.7 14.1L0 19.4V170.9C0 316.6 0.1 322.7 1.9 326.6C4.2 331.7 9.4 337 14.6 339.6C18.4 341.5 23.1 341.5 256 341.5C488.9 341.5 493.6 341.5 497.4 339.6C502.6 337 507.8 331.7 510.1 326.6C511.9 322.7 512 316.6 512 171C512 25.4 511.9 19.3 510.1 15.4C507.8 10.3 502.6 4.99999 497.4 2.39999C493.6 0.499995 488.7 0.499995 257 0.299995C77.7 0.199995 19.7 0.399995 17.3 1.29999ZM473 21.4C468.9 25.2 270 173.6 267 175.1C265.1 176 261.5 177.1 259 177.4C248.7 178.9 252.4 181.4 142 98.6C85.6 56.3 39.1 21.3 38.6 20.9C38 20.4 133.8 20 256 20C441.5 20 474.2 20.2 473 21.4ZM125.3 112.2C189.5 160.5 232.1 191.8 236.4 194C243.3 197.4 243.6 197.5 255.9 197.5C267.9 197.5 268.8 197.4 275 194.4C279.3 192.4 318 164 386.5 112.6L491.5 33.9L491.8 101.9C491.9 139.4 491.9 200.6 491.8 237.9L491.5 305.8L436.2 237.5C397 189.1 380 168.8 377.9 168C375.6 167 374 167 371 167.9C364.2 169.9 361.9 177.7 366.3 184.1C367.6 186 393 217.6 422.9 254.5L477.1 321.5L366.6 321.8C305.8 321.9 206.2 321.9 145.4 321.8L34.9 321.5L89.1 254.5C119 217.6 144.4 186 145.7 184.1C150.1 177.7 147.8 169.9 141 167.9C138 167 136.4 167 134.1 168C132 168.8 115.2 188.8 76.8 236.3C46.9 273.2 22 304 21.3 304.9C20.3 306.2 20.1 277.6 20 170.2C20 95.3 20.2 34 20.5 34C20.8 34 67.9 69.2 125.3 112.2Z" fill="#151515"/>
</svg>
