<svg width="292" height="513" viewBox="0 0 292 513" fill="none" xmlns="http://www.w3.org/2000/svg">
<path d="M173 1.60013C126.4 11.6001 92.1 42.7001 79.7 86.5001C74.2 106.1 73 116.8 73 148.5V172H48.2C18.5 172 15.1 172.7 7.9 179.9C0.2 187.6 0 188.7 0 236.6C0 261.8 0.4 279.8 1.1 282.7C2.5 289.2 6.6 294.8 12.5 298.5L17.3 301.5L45.1 301.8L73 302.1L73.2 398.3L73.5 494.5L75.7 498.6C78.2 503.4 84 508.7 88.6 510.6C93.5 512.6 185.5 512.6 190.4 510.6C195 508.7 200.8 503.4 203.3 498.6L205.5 494.5L205.8 398.2L206 302H237.3C256.4 302 270 301.6 272.4 300.9C277.2 299.6 284.7 292.7 287.1 287.5C288.8 283.8 289 279.9 289 237V190.5L286 185.2C282.3 178.8 276.6 174.5 269.9 173.1C267 172.4 252.6 172 235.4 172H205.8L206.2 150.7C206.4 139.1 206.9 128.8 207.4 127.9C209.1 124.1 212.6 123.6 244 123C272.8 122.5 274.7 122.4 278.5 120.3C282.7 118.1 286.3 114.5 289.6 109.5C291.4 106.7 291.5 104 291.8 63.5001C292 39.8001 291.8 19.1001 291.5 17.4001C290.7 12.8001 285.9 6.20013 281 2.90013L276.7 0.00012818L228.1 0.100128C190.5 0.100128 178 0.500128 173 1.60013ZM261 61.0001V92.0001H239.1C214.1 92.0001 205 93.2001 195.3 98.0001C184.7 103.2 178.1 113.1 176 126.8C175.3 130.8 175 145.8 175.2 163.1L175.5 192.7L178.2 196.2C183.3 202.9 183.8 203 222.9 203H258V237V270.9L222.2 271.2L186.3 271.5L182.7 274C180.6 275.4 178.1 278.3 177 280.6C175 284.5 175 286.9 175 382.8V481H139.5H104V383.1C104 316.4 103.7 284.2 102.9 282.3C101.4 278.1 96.1 273.1 92 272C90.1 271.5 75.6 271 59.8 271H31V237V203H61.1C94.7 203 95.7 202.8 100.8 196.2L103.5 192.7L104.1 154.1C104.7 112.9 105.2 108.5 110.6 92.2001C116.6 74.2001 127 59.4001 140.8 49.1001C153.9 39.5001 169.5 33.3001 188 30.6001C189.4 30.4001 206.4 30.2001 225.8 30.1001L261 30.0001V61.0001Z" fill="#151515"/>
</svg>
