<svg width="416" height="416" viewBox="0 0 416 416" fill="none" xmlns="http://www.w3.org/2000/svg">
<path d="M307.5 0.600069C299.4 1.90007 287.2 5.30007 280.8 8.00007C266.6 14.1001 259.3 20.1001 227.8 51.7001C202 77.6001 198.1 82.0001 197.5 85.3001C195.9 93.7001 199.3 100.9 206.4 104.1C216.9 108.9 218.6 107.7 253 73.6001C285.5 41.4001 288.6 39.1001 304.6 35.0001C332.8 27.8001 363.3 41.5001 375.9 67.1001C385.3 86.2001 385.3 105.7 375.9 125C371.8 133.4 371.3 134 319.6 185.6C267.6 237.7 267.5 237.8 259 241.8C248.2 247 236.2 249.5 226.4 248.7C212.4 247.5 198 241.2 187.3 231.7C181.9 226.9 179.4 225.8 173.9 225.8C164.4 225.8 158 232.3 158 241.9C158 248.8 159.8 252 167.1 258.2C191.9 279 222.5 286.3 253.9 278.9C262.9 276.8 277.7 270.3 285.7 265C288.3 263.2 313.8 238.5 342.3 210.1C397.2 155.4 401.4 150.7 408 135.2C413.5 122.2 415.4 112.2 415.4 96.0001C415.4 84.4001 415 79.7001 413.2 72.7001C404.4 37.4001 378.7 11.6001 343.8 2.90007C335.7 0.900069 314.3 -0.399931 307.5 0.600069Z" fill="#151515"/>
<path d="M172.502 135C158.802 136.8 142.002 143.2 130.302 151C127.702 152.8 102.202 177.5 73.7016 205.9C18.8016 260.6 14.6016 265.3 8.00156 280.8C2.50156 293.8 0.601562 303.8 0.601562 320C0.601562 331.6 1.00156 336.3 2.80156 343.3C11.7016 379 37.0016 404.2 73.0016 413.3C85.2016 416.4 106.902 416.3 119.302 413.2C143.202 407.2 150.902 401.8 188.202 364.3C214.002 338.4 217.902 334 218.502 330.7C220.102 322.3 216.702 315.1 209.602 311.9C199.102 307.1 197.402 308.3 163.002 342.4C134.802 370.4 133.102 371.9 125.002 375.9C99.5016 388.3 70.8016 383.9 51.5016 364.5C32.1016 345.2 27.7016 316.5 40.1016 291C44.2016 282.6 44.7016 282 96.4016 230.4C148.402 178.3 148.502 178.2 157.002 174.2C167.802 169 179.802 166.5 189.602 167.3C203.602 168.5 218.002 174.8 228.702 184.3C234.102 189.1 236.602 190.2 242.102 190.2C251.602 190.2 258.002 183.7 258.002 174.1C258.002 167.2 256.202 164 248.902 157.8C227.002 139.4 200.102 131.4 172.502 135Z" fill="#151515"/>
</svg>
