<svg width="502" height="512" viewBox="0 0 502 512" fill="none" xmlns="http://www.w3.org/2000/svg">
<path d="M0.60049 1.19999C1.00049 1.79999 44.9005 65.8 98.2005 143.3C151.4 220.8 195 284.4 195 284.6C195 284.8 15.1005 494.3 1.20049 510.2C-0.19951 511.9 0.90049 512 22.6005 512H45.6005L130.6 413.1L215.7 314.3L283.6 413.1L351.5 512H426.8C486.8 512 502 511.7 501.3 510.7C500.9 510.1 455.7 444.1 400.8 364.2C345.8 284.3 300.7 218.4 300.4 217.7C300 216.5 324.3 188 452.7 38.7L486.1 -7.62939e-06H463.1H440.1L359.8 93.4C315.6 144.7 279.2 186.6 278.9 186.4C278.6 186.3 249.6 144.2 214.4 93.1L150.5 -7.62939e-06H75.2005C17.1005 -7.62939e-06 0.10049 0.299992 0.60049 1.19999ZM280.5 251.7C364.1 371.4 434.2 471.7 436.3 474.7L440.1 480H406.8L373.5 479.9L221.5 262.4C137.9 142.7 67.8005 42.4 65.7005 39.4L61.8005 34H95.2005L128.5 34.1L280.5 251.7Z" fill="#151515"/>
</svg>
