<svg width="407" height="412" viewBox="0 0 407 412" fill="none" xmlns="http://www.w3.org/2000/svg">
<path d="M170 1.59997C69.9 16.1 -2.1 102.3 1.3 203.5C2.3 232 6.9 253.6 17.6 278.7C21.4 287.6 27.8 300.1 31.9 306.6C33.1 308.4 31.4 313.7 16.6 353.6C7.5 378.3 0 400 0 401.7C0 403.9 1 406 2.8 408.1C7.8 413.7 8.8 413.3 56 393.2C79.4 383.2 99.1 375 99.8 375C100.6 375 104.2 376.8 107.9 378.9C120.9 386.5 140.2 394.2 156.8 398.4C172.3 402.4 184.4 404.1 201.5 404.7C278.7 407.5 348.1 367.9 383.9 300.9C421.5 230.4 412 140 360.2 76.7C352.9 67.9 336.8 51.9 328 44.8C299.1 21.8 262.9 6.29997 226.2 1.49997C212.2 -0.400031 183 -0.300031 170 1.59997ZM227.5 23C266.3 29.3 299.4 45.9 327.9 73.5C345 90.1 356 105 366.3 125.5C401.3 195.3 388.3 278.6 334.1 332.7C297.6 369.2 246.5 388.1 195.5 384C166.1 381.6 142.2 374.1 115.4 358.9C108.8 355.1 102.4 352 101.1 352C99.9 352 83.6 358.5 64.8 366.5C46 374.5 30.3 380.9 29.9 380.8C29.5 380.6 35 365 42.1 346C50.2 324.2 54.9 310.1 55 307.6C55 304.6 53.7 301.5 49.6 294.6C29.8 261.2 21 228.2 22.3 192C23.4 161.6 30.8 135 45.2 109.8C72.2 62.4 118 31.1 172.5 22.6C186.4 20.4 213.1 20.6 227.5 23Z" fill="#151515"/>
<path d="M133.4 81.4C123.7 84.5 112.5 92.8 103 103.6C92.1 116 88 126.8 88 142.6C88 191.8 126.9 253.2 181.3 289.8C218.5 315 261.7 326.1 285 316.6C307 307.6 327.5 283.4 327.3 266.5C327.2 255.2 324.2 251.2 309 242.2C303.8 239.1 295.7 234.2 291.1 231.2C270.8 218.1 261 215.9 251.5 222.2C248.9 223.9 242.9 230 238.3 235.7L229.8 245.9L226.1 244.4C206.8 236.4 176.1 206.6 165.4 185.5L161.9 178.5L165.7 175.2C179.3 163.3 185.3 157.3 187 153.9C191.1 146 188.9 136.7 179.5 121.4C176.4 116.5 170.8 107.3 167 101C159.5 88.5 156.5 84.8 152 82.5C147.8 80.3 138.3 79.7 133.4 81.4ZM144.3 104.7C145.7 106.8 148.7 111.9 151.2 116C153.7 120.1 158.6 128.2 162.1 133.8L168.4 144.2L163.9 148.3C161.4 150.6 155.8 155.6 151.6 159.4C147.3 163.2 143.1 167.8 142.4 169.6C137 182.5 148.4 205 172.9 230.3C194.6 252.7 217.2 266.9 231 267C237.8 267 242.4 263.7 252.7 251.5C257.8 245.4 262.5 240.4 263.3 240.2C264 240.1 268.2 242.1 272.5 244.8C276.9 247.5 285.9 253 292.5 257C299.1 261 305.1 264.8 305.8 265.4C309.6 269 292.1 289.9 280.5 295.6C274.9 298.3 273.7 298.5 263.5 298.4C246.1 298.4 227.2 292.3 205.1 279.6C152.2 249.4 109 187.8 109 142.7C109 135.1 109.3 133.6 112.5 127.2C115.2 121.9 118.1 118.3 124 112.7C130.7 106.4 138.6 101 141.2 101C141.6 101 143 102.7 144.3 104.7Z" fill="#151515"/>
</svg>
