<svg width="75" height="75" viewBox="0 0 75 75" fill="none" xmlns="http://www.w3.org/2000/svg">
<path d="M74.6372 9.5802C74.6372 9.49569 74.5527 9.41117 74.5527 9.41117C74.5527 9.41117 74.5527 9.32665 74.4682 9.32665C74.4682 9.32665 74.4682 9.32665 74.3837 9.24213C74.3837 9.24213 74.3837 9.24213 74.3837 9.15761L65.9318 0.705706C65.9318 0.705706 65.9318 0.705706 65.8472 0.705706C65.8472 0.705706 65.8472 0.705706 65.7627 0.621187C65.7627 0.621187 65.6782 0.621187 65.6782 0.536667C65.5937 0.536667 65.5937 0.452148 65.5092 0.452148C65.4246 0.452148 65.3401 0.452148 65.3401 0.452148C65.2556 0.452148 65.2556 0.452148 65.1711 0.452148H10.2337C10.1492 0.452148 10.1492 0.452148 10.0647 0.452148C9.98015 0.452148 9.89563 0.452148 9.89563 0.452148C9.81112 0.452148 9.7266 0.536667 9.7266 0.536667C9.7266 0.536667 9.64208 0.536667 9.64208 0.621187C9.64208 0.621187 9.64208 0.621187 9.55756 0.705706C9.55756 0.705706 9.55756 0.705706 9.47304 0.705706L1.02114 9.15761C1.02114 9.15761 1.02114 9.15761 1.02114 9.24213C1.02114 9.24213 1.02114 9.24213 0.936616 9.32665C0.936616 9.32665 0.936616 9.41117 0.852097 9.41117C0.852097 9.49569 0.767578 9.49569 0.767578 9.5802C0.767578 9.66472 0.767578 9.74924 0.767578 9.74924C0.767578 9.83376 0.767578 9.83376 0.767578 9.91828V64.8557C0.767578 64.9402 0.767578 64.9402 0.767578 65.0247C0.767578 65.1092 0.767578 65.1937 0.767578 65.1937C0.767578 65.2783 0.852097 65.3628 0.852097 65.3628C0.852097 65.3628 0.852097 65.4473 0.936616 65.4473L1.02114 65.5318L9.47304 73.9837C9.47304 73.9837 9.47304 73.9837 9.55756 73.9837C9.55756 73.9837 9.55756 73.9837 9.64208 74.0682C9.7266 74.0682 9.7266 74.1527 9.81112 74.1527L9.89563 74.2373C9.98015 74.3218 10.1492 74.3218 10.2337 74.3218H65.1711C65.2556 74.3218 65.4246 74.3218 65.5092 74.2373C65.5092 74.2373 65.5937 74.2373 65.5937 74.1527C65.6782 74.1527 65.6782 74.0682 65.7627 74.0682C65.7627 74.0682 65.7627 74.0682 65.8472 73.9837C65.8472 73.9837 65.8472 73.9837 65.9318 73.9837L74.3837 65.5318C74.3837 65.5318 74.4682 65.5318 74.4682 65.4473C74.4682 65.4473 74.4682 65.3628 74.5527 65.3628C74.5527 65.2783 74.6372 65.2783 74.6372 65.1937C74.6372 65.1092 74.6372 65.0247 74.6372 65.0247C74.6372 64.9402 74.6372 64.9402 74.6372 64.8557V9.91828C74.6372 9.83376 74.6372 9.83376 74.6372 9.74924C74.6372 9.74924 74.6372 9.66472 74.6372 9.5802ZM65.2556 3.07224L72.0171 9.83376L67.1995 13.6371L61.5368 7.97434L65.2556 3.07224ZM51.8171 20.3986L55.1133 16.1727L59.0012 20.0606L54.7752 23.3568L51.8171 20.3986ZM53.592 25.1317V49.6422L49.9577 53.2766H25.4471L21.8128 49.6422V25.1317L25.4471 21.4974H49.9577L53.592 25.1317ZM49.8731 19.4689H25.5317L22.2354 15.243H53.1694L49.8731 19.4689ZM23.5877 20.3986L20.7141 23.2723L16.4881 19.976L20.376 16.0882L23.5877 20.3986ZM19.7844 25.2162V49.5577L15.5584 52.854V21.92L19.7844 25.2162ZM20.7141 51.5017L23.5877 54.3753L20.2915 58.6013L16.4036 54.7134L20.7141 51.5017ZM25.5317 55.3895H49.8731L53.1694 59.6155H22.2354L25.5317 55.3895ZM51.8171 54.3753L54.6907 51.5017L58.9167 54.7979L55.0288 58.6858L51.8171 54.3753ZM55.705 49.5577V25.2162L59.9309 21.92V52.854L55.705 49.5577ZM56.3811 14.4823L60.1845 9.66472L65.5092 14.9894L60.6916 18.7928L56.3811 14.4823ZM54.7752 13.13C54.6907 13.13 54.6907 13.13 54.6062 13.13H20.7986C20.7141 13.13 20.7141 13.13 20.6296 13.13L17.3333 8.90405H58.0715L54.7752 13.13ZM19.0237 14.4823L14.7977 18.7083L9.38852 14.4823L14.7977 9.07309L19.0237 14.4823ZM13.4454 20.3141C13.4454 20.3986 13.4454 20.3986 13.4454 20.4832V54.2908C13.4454 54.3753 13.4454 54.3753 13.4454 54.4598L9.21948 57.7561V17.0179L13.4454 20.3141ZM14.7977 56.0657L19.0237 60.2916L14.7977 65.7008L9.38852 60.2916L14.7977 56.0657ZM20.6296 61.6439C20.7141 61.6439 20.7141 61.6439 20.7986 61.6439H54.6062C54.6907 61.6439 54.6907 61.6439 54.7752 61.6439L58.0715 65.8699H17.3333L20.6296 61.6439ZM56.3811 60.2916L60.6071 56.0657L66.0163 60.2916L60.6071 65.7008L56.3811 60.2916ZM61.9594 54.4598C61.9594 54.3753 61.9594 54.3753 61.9594 54.2908V20.4832C61.9594 20.3986 61.9594 20.3986 61.9594 20.3141L66.1853 17.0179V57.7561L61.9594 54.4598ZM62.9736 2.56512L59.6773 6.79108H15.6429L12.3467 2.56512H62.9736ZM10.1492 3.07224L13.4454 7.29819L7.61362 13.13L3.38767 9.83376L10.1492 3.07224ZM2.88055 12.1158L7.10651 15.412V59.4464L2.88055 62.7427V12.1158ZM10.1492 71.7017L3.38767 64.9402L7.61362 61.6439L13.4454 67.4757L10.1492 71.7017ZM12.4312 72.2933L15.7274 68.0674H59.7619L63.0581 72.2933H12.4312ZM65.2556 71.7017L61.9594 67.4757L67.7912 61.6439L72.0171 64.9402L65.2556 71.7017ZM72.6088 62.6582L68.3828 59.3619V15.3275L72.6088 12.0313V62.6582Z" fill="#957127"/>
</svg>
