<svg width="60" height="67" viewBox="0 0 60 67" fill="none" xmlns="http://www.w3.org/2000/svg">
<path d="M59.2783 32.3213L59.0649 31.8958V14.8042C59.0649 6.93218 52.5892 0.478516 44.6903 0.478516H29.5329H14.3756C6.47666 0.478516 0.000976562 6.93218 0.000976562 14.8042V33.456V52.1078C0.000976562 59.9799 6.47666 66.4336 14.3756 66.4336H44.6903C52.5892 66.4336 59.0649 59.9799 59.0649 52.1078V33.6688L59.2783 33.1724C59.4207 32.8887 59.3495 32.605 59.2783 32.3213ZM2.13582 38.4913L6.97478 49.342H2.13582V38.4913ZM2.13582 17.4992H6.90362L2.13582 28.3498V17.4992ZM33.5179 51.5405H41.915V56.363L33.5179 51.5405ZM17.0797 56.363V51.5405H25.4767L17.0797 56.363ZM29.5329 51.6823L40.8476 58.136L29.5329 64.1641L18.2183 58.136L29.5329 51.6823ZM29.5329 49.4129H17.0797V33.6688L17.1509 33.527C17.2932 33.2433 17.2932 32.9596 17.1509 32.6759L17.0797 32.5341V17.4992H41.915V33.456V49.4129H29.5329ZM8.54033 19.0594L14.9448 32.9596V33.2433L8.54033 47.7818L2.20698 33.456L8.54033 19.0594ZM10.177 17.4992H14.9448V27.8534L10.177 17.4992ZM14.9448 38.4913V49.342H10.1059L14.9448 38.4913ZM25.5479 15.3716H17.0797V10.4782L25.5479 15.3716ZM41.915 10.5491V15.4425H33.5179L41.915 10.5491ZM29.5329 15.2298L18.2183 8.70517L29.5329 2.74794L40.8476 8.70517L29.5329 15.2298ZM44.0498 38.4913L48.8888 49.342H44.0498V38.4913ZM44.0498 17.4992H48.8176L44.0498 28.3498V17.4992ZM49.7427 15.3716H44.0498V9.5562L52.518 7.92505L49.7427 15.3716ZM33.8026 2.6061H41.915V6.93218L33.8026 2.6061ZM17.0797 6.93218V2.6061H25.2632L17.0797 6.93218ZM14.9448 15.3716H9.25195L6.54782 7.92505L14.9448 9.5562V15.3716ZM14.9448 51.5405V57.3559L6.54782 58.987L9.25195 51.5405H14.9448ZM25.2632 64.306H17.0797V59.9799L25.2632 64.306ZM41.915 59.9799V64.306H33.8026L41.915 59.9799ZM44.0498 51.5405H49.7427L52.4469 58.987L44.0498 57.3559V51.5405ZM50.5255 47.7818L44.1921 33.456L50.5255 19.0594L56.93 32.3922V33.2433L50.5255 47.7818ZM52.1622 17.4992H56.8589V27.4279L52.1622 17.4992ZM56.93 15.3716H52.0199L54.7952 7.92505C56.1472 9.9108 56.93 12.2511 56.93 14.8042V15.3716ZM52.8027 5.72655L44.0498 7.42862V2.6061H44.6191C47.8214 2.6061 50.5967 3.81173 52.8027 5.72655ZM14.9448 2.6061V7.3577L6.19201 5.65563C8.32685 3.74081 11.1733 2.53518 14.3044 2.53518H14.9448V2.6061ZM4.27065 7.92505L7.04595 15.3716H2.13582V14.8042C2.13582 12.2511 2.91859 9.9108 4.27065 7.92505ZM2.13582 51.5405H6.97478L4.27065 58.987C2.91859 57.0013 2.13582 54.6609 2.13582 52.1078V51.5405ZM6.19201 61.1855L14.9448 59.4835V64.306H14.3756C11.2445 64.306 8.32685 63.1003 6.19201 61.1855ZM44.0498 64.306V59.4835L52.8027 61.1855C50.5967 63.1003 47.7502 64.306 44.6191 64.306H44.0498ZM54.7952 58.987L52.0199 51.5405H56.8589V52.1078C56.93 54.6609 56.1472 57.0013 54.7952 58.987ZM56.93 49.4129H52.091L56.93 38.5622V49.4129Z" fill="#957127"/>
</svg>
