<svg width="55" height="84" viewBox="0 0 55 84" fill="none" xmlns="http://www.w3.org/2000/svg">
<path d="M54.5695 10.6093C54.5695 10.5142 54.4752 10.4191 54.381 10.324C54.381 10.324 54.2868 10.2289 54.2868 10.1338L44.8646 0.625453L44.7704 0.530369C44.6762 0.435285 44.582 0.435285 44.4878 0.340201C44.3935 0.340201 44.3935 0.340201 44.2993 0.340201C44.2051 0.340201 44.1109 0.245117 44.0167 0.245117H11.0391C10.9449 0.245117 10.8507 0.245117 10.8507 0.245117C10.7565 0.245117 10.6622 0.245117 10.6622 0.245117C10.568 0.245117 10.4738 0.340201 10.3796 0.435285L10.2854 0.530369L0.863214 10.0388C0.863214 10.0388 0.768993 10.1338 0.768993 10.2289C0.674771 10.324 0.674771 10.4191 0.58055 10.4191C0.58055 10.5142 0.58055 10.5142 0.58055 10.6093C0.58055 10.7043 0.486328 10.7994 0.486328 10.8945V72.6991C0.486328 72.7941 0.486328 72.8892 0.58055 72.9843C0.58055 73.0794 0.58055 73.0794 0.58055 73.1745C0.674771 73.2696 0.674771 73.3647 0.768993 73.4597L10.1911 82.9681L10.2854 83.0632C10.3796 83.1583 10.4738 83.1583 10.568 83.2534C10.7565 83.3485 10.8507 83.3485 11.0391 83.3485H44.0167C44.2051 83.3485 44.2993 83.3485 44.4878 83.2534C44.582 83.2534 44.6762 83.1583 44.7704 83.0632L44.8646 82.9681L54.2868 73.4597C54.381 73.3647 54.4752 73.2696 54.4752 73.1745C54.4752 73.0794 54.4752 73.0794 54.4752 72.9843C54.4752 72.8892 54.5695 72.7941 54.5695 72.6991V10.8945C54.5695 10.7994 54.5695 10.7043 54.5695 10.6093C54.5695 10.7994 54.5695 10.7043 54.5695 10.6093ZM44.4878 3.66814L51.3659 10.6093L46.6549 12.5109L42.6033 8.42233L44.4878 3.66814ZM41.9438 69.5613L44.2993 70.5121L41.6611 73.1745L40.7189 70.7974L41.9438 69.5613ZM40.7189 13.1765L41.6611 10.7994L44.2993 13.4618L41.9438 14.4126L40.7189 13.1765ZM42.886 67.3744V16.5996L45.2415 15.6487V68.2301L42.886 67.3744ZM42.3207 2.81238L40.4362 7.56658H14.6195L12.7351 2.81238H42.3207ZM38.8345 69.3711H16.2213L14.6195 67.6596V16.3143L16.3155 14.6028H38.9287L40.6247 16.3143V67.6596L38.8345 69.3711ZM39.494 74.1253H15.5618L16.504 71.7482H38.4576L39.494 74.1253ZM15.5618 9.94368H39.3998L38.4576 12.3208H16.504L15.5618 9.94368ZM13.112 69.5613L14.3369 70.7974L13.3947 73.1745L10.7565 70.5121L13.112 69.5613ZM9.90848 68.3252V15.6487L12.264 16.5996V67.2793L9.90848 68.3252ZM13.112 14.4126L10.7565 13.4618L13.3947 10.7994L14.3369 13.1765L13.112 14.4126ZM10.568 3.66814L12.4525 8.42233L8.40093 12.5109L3.68986 10.6093L10.568 3.66814ZM2.84187 12.7962L7.55294 14.6979V69.181L2.84187 71.0826V12.7962ZM10.568 80.3058L3.68986 73.3647L8.40093 71.463L12.4525 75.5516L10.568 80.3058ZM12.7351 81.2566L14.6195 76.5024H40.342L42.2264 81.2566H12.7351ZM44.4878 80.3058L42.6033 75.5516L46.6549 71.463L51.3659 73.3647L44.4878 80.3058ZM52.3081 71.1777L47.5971 69.276V14.6979L52.3081 12.7962V71.1777Z" fill="#957127"/>
</svg>
