<svg width="75" height="70" viewBox="0 0 75 70" fill="none" xmlns="http://www.w3.org/2000/svg">
<path d="M73.8928 17.6528C72.6256 7.7259 64.1777 0.0898438 53.9557 0.0898438C47.3663 0.0898438 39.2564 4.84117 37.0599 6.28353C34.8634 4.84117 26.7535 0.0898438 20.1641 0.0898438C9.09735 0.0898438 0.142578 9.08342 0.142578 20.1981C0.142578 21.3011 0.227057 22.6586 0.396015 24.1858C0.649452 26.5615 1.07185 28.9372 1.57872 31.228C5.63371 48.0273 17.3763 61.0086 36.553 69.9173C36.553 69.9173 36.553 69.9173 36.6375 69.9173C36.722 69.9173 36.8065 70.0022 36.8909 70.0022H36.9754C37.1444 70.0022 37.3133 70.0022 37.4823 69.9173C59.1934 59.8208 71.4429 44.4638 73.7238 24.1858C73.8927 22.6586 73.9772 21.3011 73.9772 20.1981C74.0617 19.3497 73.9772 18.5012 73.8928 17.6528ZM71.4429 16.2953L57.9262 11.2894L63.9242 5.26539C67.7258 7.81075 70.4291 11.7136 71.4429 16.2953ZM57.1659 21.895V13.2408L71.0205 18.3315L62.4036 27.1554L57.1659 21.895ZM60.7985 28.5978L55.3918 32.6704L56.7435 24.6101L60.7985 28.5978ZM53.9557 2.21097C56.9125 2.21097 59.6158 2.97458 62.0657 4.16241L56.0677 10.1864L49.4783 2.80489C50.9989 2.46551 52.5196 2.21097 53.9557 2.21097ZM54.3781 11.4591L44.0717 17.2285L38.834 15.4468L47.7043 3.99272L54.3781 11.4591ZM38.1581 8.06528C39.1719 7.47136 41.5373 6.029 44.4096 4.67148L38.1581 12.8166V8.06528ZM38.1581 17.3982L41.6218 18.5861L38.1581 20.5375V17.3982ZM36.6375 23.2525C36.6375 23.2525 36.6375 23.3374 36.6375 23.2525C36.8065 23.3374 36.9754 23.3374 37.0599 23.3374C37.1444 23.3374 37.3133 23.3374 37.3978 23.2525H37.4823H37.5668L44.3251 19.5194L54.885 23.0829L52.942 34.6218L44.7475 44.888L37.0599 50.6575L29.3723 44.888L21.1779 34.6218L19.2348 23.0829L29.7947 19.5194L36.6375 23.2525C36.553 23.2525 36.553 23.2525 36.6375 23.2525ZM54.8005 42.6821L48.2111 44.0396L53.5333 37.4217L54.8005 42.6821ZM43.9027 48.197L42.6355 54.5604L38.834 52.015L43.9027 48.197ZM35.2014 51.9302L31.3998 54.4755L30.1326 48.1122L35.2014 51.9302ZM25.9932 44.0396L19.3193 42.6821L20.671 37.3368L25.9932 44.0396ZM32.5825 18.5861L36.0462 17.3982V20.4527L32.5825 18.5861ZM36.0462 8.06528V12.9015L29.6258 4.67148C32.5825 5.94415 35.0324 7.47136 36.0462 8.06528ZM35.2858 15.4468L30.0481 17.2285L19.7417 11.4591L26.4155 3.99272L35.2858 15.4468ZM20.1641 2.21097C21.6002 2.21097 23.0364 2.46551 24.557 2.88973L17.9676 10.2713L11.9696 4.24725C14.504 2.88973 17.2073 2.21097 20.1641 2.21097ZM17.3763 24.5252L18.728 32.5855L13.3213 28.5129L17.3763 24.5252ZM11.7162 27.1554L3.18382 18.3315L16.9539 13.2408V21.895L11.7162 27.1554ZM10.1111 5.26539L16.1091 11.2894L2.59247 16.2953C3.6907 11.7136 6.39402 7.81075 10.1111 5.26539ZM2.42351 23.9313C2.25455 22.5738 2.17007 21.3011 2.17007 20.3678L9.60423 28.0887L3.35278 29.7008C3.01486 27.8342 2.67695 25.8827 2.42351 23.9313ZM3.94413 31.7371L9.68871 30.2947L5.88715 37.5914C5.12684 35.7248 4.45101 33.7733 3.94413 31.7371ZM7.74569 41.7488L15.9402 44.0396L11.7162 48.197C10.2801 46.1607 8.92839 44.0396 7.74569 41.7488ZM13.1523 49.8939L17.2073 45.9062L17.8832 55.0695C16.1091 53.3726 14.5885 51.6756 13.1523 49.8939ZM17.2918 42.173L7.32329 39.3731L12.0541 30.2098L18.9814 35.3854L17.2918 42.173ZM19.1504 13.4954L27.3448 18.077L19.1504 20.792V13.4954ZM28.0206 62.8752C25.7397 61.4328 23.6277 59.9905 21.6847 58.3784L29.3723 57.53L28.0206 62.8752ZM20.0796 56.427L19.2348 44.8032L27.7672 46.5001L29.4568 55.324L20.0796 56.427ZM29.8792 64.063L31.0619 59.3117L34.6945 66.6932C33.0049 65.8448 31.3998 64.9115 29.8792 64.063ZM37.0599 66.6084L32.0756 56.5967L37.0599 53.2877L42.0442 56.5967L37.0599 66.6084ZM39.3408 66.6932L43.1424 59.2269L44.4096 63.9782C42.8045 64.9115 41.1149 65.8448 39.3408 66.6932ZM46.2681 62.7904L44.832 57.53L52.3506 58.4633C50.4921 59.9905 48.4646 61.4328 46.2681 62.7904ZM53.9557 56.5118L44.663 55.324L46.4371 46.5001L54.9695 44.8032L53.9557 56.5118ZM55.0539 20.8769L46.775 18.077L54.9695 13.4954V20.8769H55.0539ZM56.1522 55.1543L56.9125 45.9062L60.9675 49.8939C59.5313 51.7605 57.9262 53.4574 56.1522 55.1543ZM62.3191 48.197L58.0952 44.0396L66.3741 41.6639C65.1914 43.9547 63.8397 46.1607 62.3191 48.197ZM56.828 42.173L55.1384 35.4702L62.0657 30.2947L66.712 39.458L56.828 42.173ZM68.2327 37.6762L64.4311 30.2947L70.1757 31.7371C69.6688 33.7733 68.993 35.8096 68.2327 37.6762ZM71.6963 23.9313C71.4429 25.8827 71.1894 27.8342 70.767 29.7008L64.5156 28.0887L71.9497 20.3678C71.8652 21.386 71.7808 22.5738 71.6963 23.9313Z" fill="#957127"/>
</svg>
