<svg width="39" height="68" viewBox="0 0 39 68" fill="none" xmlns="http://www.w3.org/2000/svg">
<path d="M31.3078 55.0965C31.3803 55.0242 31.3803 55.0242 31.3078 55.0965C33.1191 52.4924 34.8579 49.4542 36.162 46.1267C36.2344 46.0543 36.3069 45.9096 36.3069 45.765C37.7559 42.1481 38.6978 38.1695 38.6978 34.0462C38.6978 29.7783 37.6835 25.6551 36.162 21.9658C36.162 21.8212 36.0895 21.7488 36.0171 21.6041C34.713 18.4213 33.0466 15.5278 31.3803 13.0683V12.996L31.3078 12.9236C30.6558 11.9832 30.0761 11.1152 29.4241 10.3195C28.4098 8.94504 27.323 7.7153 26.3087 6.63023C23.0484 2.941 20.2953 0.770869 20.1504 0.626193C20.1504 0.626193 20.1504 0.626193 20.078 0.553855C20.078 0.553855 20.0055 0.553855 20.0055 0.481517C20.0055 0.481517 19.9331 0.481517 19.9331 0.40918C19.9331 0.40918 19.9331 0.40918 19.8606 0.40918H19.7882C19.7157 0.40918 19.7157 0.40918 19.6433 0.40918H19.5708H19.4984H19.4259C19.3535 0.40918 19.3535 0.40918 19.281 0.40918C19.281 0.40918 19.281 0.40918 19.2086 0.40918C19.1361 0.40918 19.1361 0.40918 19.1361 0.481517C19.1361 0.481517 19.0637 0.481517 19.0637 0.553855C19.0637 0.553855 18.9912 0.553855 18.9912 0.626193C18.8463 0.770869 16.0932 3.01334 12.688 6.7749C11.7461 7.85997 10.7318 9.01738 9.78998 10.3195C9.21037 11.1152 8.55832 11.9832 7.90626 12.9236C7.83381 12.996 7.83381 13.0683 7.76136 13.1406C6.02254 15.6725 4.28373 18.7106 2.97962 21.9658C2.90717 22.0382 2.83472 22.1829 2.83472 22.3275C1.38571 25.9444 0.443848 29.923 0.443848 34.0462C0.443848 38.3142 1.45816 42.4374 2.97962 46.1267C2.97962 46.2713 3.05207 46.3437 3.12452 46.4883C4.42863 49.6712 6.095 52.5647 7.76136 55.0242C7.76136 55.0242 7.76136 55.0965 7.83381 55.0965C7.83381 55.0965 7.83381 55.0965 7.90626 55.1689C8.55832 56.1093 9.13792 56.9773 9.78998 57.773C14.3544 63.7047 18.8463 67.3216 18.9912 67.4663C19.0637 67.5386 19.1361 67.5386 19.2086 67.611C19.281 67.611 19.4259 67.6833 19.5708 67.6833C19.7157 67.6833 19.7882 67.6833 19.9331 67.611C20.0055 67.611 20.078 67.5386 20.1504 67.5386C20.2953 67.394 23.0484 65.1515 26.4536 61.3176C27.3955 60.2325 28.4098 59.0751 29.3516 57.773C30.0761 56.905 30.6558 56.0369 31.3078 55.0965ZM26.2363 58.2071L25.5842 55.5306H28.3373C27.6128 56.471 26.9608 57.339 26.2363 58.2071ZM10.6594 55.5306H13.4125L12.8329 58.2794C12.1084 57.4114 11.3839 56.5433 10.6594 55.5306ZM2.68982 37.4461L6.60215 42.3651L4.35618 44.1735C3.55922 42.0034 2.97962 39.7609 2.68982 37.4461ZM4.28373 24.2083L6.60215 25.7997L2.76227 30.6464C2.97962 28.4762 3.55922 26.3061 4.28373 24.2083ZM12.7605 9.88543L13.4125 12.5619H10.6594C11.3839 11.6215 12.0359 10.7535 12.7605 9.88543ZM28.3373 12.5619H25.5842L26.1638 9.81309C26.8883 10.6811 27.6128 11.5492 28.3373 12.5619ZM36.3069 30.6464L32.3946 25.7274L34.6405 23.919C35.4375 26.0891 36.0171 28.3316 36.3069 30.6464ZM34.713 43.8842L32.3946 42.2928L36.2344 37.4461C36.0171 39.6163 35.4375 41.7864 34.713 43.8842ZM19.4984 46.9224L14.8615 43.4502L12.688 33.9739L14.8615 24.4977L19.4984 21.0254L24.1352 24.4977L26.3087 33.9739L24.1352 43.4502L19.4984 46.9224ZM12.3982 42.5821L9.57262 41.7864L11.239 37.6631L12.3982 42.5821ZM11.3114 30.4294L9.64507 26.3061L12.4706 25.5104L11.3114 30.4294ZM12.9054 23.1232L9.28282 24.136L9.57262 14.7321H13.6299L12.9054 23.1232ZM7.83381 27.6805L10.3696 34.0462L7.83381 40.3396L2.76227 34.0462L7.83381 27.6805ZM9.28282 43.9565L12.9054 44.9693L13.6299 53.3604H9.64507L9.28282 43.9565ZM26.5985 25.5104L29.4241 26.3061L27.6853 30.4294L26.5985 25.5104ZM27.6853 37.6631L29.3516 41.7864L26.5261 42.5821L27.6853 37.6631ZM31.1629 40.412L28.6271 34.0462L31.1629 27.7529L36.2344 34.0462L31.1629 40.412ZM29.7139 24.136L26.0914 23.1232L25.3669 14.7321H29.3516L29.7139 24.136ZM26.0914 44.9693L29.7139 43.9565L29.4241 53.3604H25.4393L26.0914 44.9693ZM31.8874 44.5352L33.916 45.982C33.264 47.5011 32.467 49.0202 31.6701 50.4669L31.8874 44.5352ZM31.8874 23.4126L31.6701 17.6979C32.467 19.0723 33.1915 20.4467 33.7711 21.8935L31.8874 23.4126ZM23.3382 16.5405L23.7729 21.6765L21.0198 19.5787L23.3382 16.5405ZM19.4984 17.9873L16.0207 13.43L19.4984 4.53243L22.976 13.5023L19.4984 17.9873ZM17.9769 19.5787L15.2238 21.6765L15.6585 16.5405L17.9769 19.5787ZM7.1093 23.5573L5.08069 22.1105C5.73274 20.5914 6.5297 19.0723 7.32666 17.6256L7.1093 23.5573ZM7.1093 44.6799L7.32666 50.3946C6.5297 49.0202 5.80519 47.6458 5.22559 46.199L7.1093 44.6799ZM15.6585 51.552L15.1513 46.416L17.9044 48.5138L15.6585 51.552ZM19.4984 50.1052L22.976 54.6625L19.4984 63.5601L16.0207 54.5902L19.4984 50.1052ZM21.0198 48.5138L23.7729 46.416L23.3382 51.552L21.0198 48.5138ZM24.3525 7.7153L23.9178 9.81309L22.179 5.40049C22.8311 6.12386 23.628 6.91958 24.3525 7.7153ZM16.8177 5.47282L15.0789 10.0301L14.5717 7.85997C15.2962 6.99192 16.0932 6.1962 16.8177 5.47282ZM14.6442 60.3772L15.0789 58.2794L16.8177 62.692C16.1656 61.9686 15.3687 61.1729 14.6442 60.3772ZM22.179 62.6197L23.9178 58.0624L24.425 60.2325C23.7005 61.1006 22.9035 61.8963 22.179 62.6197Z" fill="#957127"/>
</svg>
