<svg width="48" height="67" viewBox="0 0 48 67" fill="none" xmlns="http://www.w3.org/2000/svg">
<path d="M45.38 45.7976C45.4535 45.7267 45.4535 45.5848 45.4535 45.443C46.4827 41.6843 47.0709 37.6419 47.0709 33.3867C47.0709 28.9188 46.4092 24.7345 45.3064 20.834C45.3064 20.763 45.233 20.6212 45.233 20.5503C44.1302 16.7916 42.5128 13.3874 40.5279 10.4797V10.4088V10.3379C40.5279 10.267 40.4544 10.267 40.4544 10.267C40.4544 10.267 40.4543 10.1961 40.3808 10.1961C40.3073 10.1251 40.3073 10.1251 40.2338 10.0542C38.1754 7.0756 35.6758 4.66434 32.8821 3.0332C32.8086 2.89136 32.7351 2.82044 32.5881 2.82044C29.9415 1.26021 27.0008 0.40918 23.9866 0.40918C20.8254 0.40918 17.7377 1.33113 15.0176 3.0332C14.8705 3.10412 14.797 3.17504 14.65 3.24596C12.0769 4.8771 9.65084 7.21744 7.66589 10.0542L7.59237 10.1251L7.51885 10.1961C7.51885 10.1961 7.51885 10.267 7.44533 10.267L7.37183 10.3379V10.4088V10.4797C5.31336 13.4583 3.69599 17.0043 2.59324 20.9758C2.51973 21.0467 2.51972 21.1886 2.51972 21.3304C1.49049 25.0891 0.902344 29.1315 0.902344 33.3867C0.902344 37.8546 1.56399 42.0389 2.66674 45.9394C2.66674 46.0104 2.74026 46.1522 2.74026 46.2231C3.84301 49.9818 5.46038 53.386 7.44533 56.2937C7.44533 56.3646 7.51885 56.4355 7.59237 56.5064C7.59237 56.5064 7.59237 56.5064 7.59237 56.5773C7.66589 56.6483 7.6659 56.7192 7.73941 56.7192C9.79788 59.6978 12.2975 62.1091 15.0911 63.7402C15.1646 63.8111 15.3116 63.882 15.4587 63.953C18.1053 65.5132 21.0459 66.3642 24.1336 66.3642C27.2949 66.3642 30.3826 65.4423 33.1762 63.7402C33.3232 63.6693 33.3967 63.5984 33.5438 63.5274C36.1169 61.8963 38.5429 59.556 40.5279 56.7192C40.6749 56.5773 40.7484 56.4355 40.8219 56.2937C42.5863 53.315 44.2037 49.6982 45.38 45.7976ZM4.2106 23.0325L8.32754 25.3728L3.03432 30.6918C3.18136 27.9968 3.62246 25.4437 4.2106 23.0325ZM43.6156 43.7409L39.4987 41.4006L44.7918 36.0816C44.6448 38.7766 44.2037 41.3297 43.6156 43.7409ZM40.2338 52.7477L39.1311 43.67L43.1009 45.8685C42.2923 48.3507 41.3366 50.6201 40.2338 52.7477ZM28.7652 50.9038L25.604 47.5706L29.3533 45.3012L28.7652 50.9038ZM19.061 15.8696L22.2222 19.2028L18.4728 21.4722L19.061 15.8696ZM38.0283 39.8404L34.7936 33.3867L38.0283 26.933L44.4242 33.3867L38.0283 39.8404ZM33.8379 30.4081L32.294 24.9473L36.1169 25.7983L33.8379 30.4081ZM29.7944 42.6062L23.9131 46.1522L18.0318 42.6062L15.3851 33.3867L18.0318 24.1672L23.9131 20.6212L29.7944 24.1672L32.441 33.3867L29.7944 42.6062ZM28.8387 15.8696L29.4269 21.4722L25.604 19.2028L28.8387 15.8696ZM23.9131 17.8554L19.5021 13.1747L23.9131 4.02607L28.3241 13.2456L23.9131 17.8554ZM13.9883 30.4081L11.7093 25.8692L15.5322 25.0182L13.9883 30.4081ZM9.79787 26.933L13.0326 33.3867L9.79787 39.8404L3.40191 33.3867L9.79787 26.933ZM13.9883 36.3653L15.5322 41.8261L11.7093 40.9751L13.9883 36.3653ZM18.9875 50.9038L18.3993 45.3012L22.1487 47.5706L18.9875 50.9038ZM23.9131 48.918L28.3241 53.5987L23.9131 62.7473L19.5021 53.5278L23.9131 48.918ZM33.8379 36.3653L36.1169 40.9042L32.294 41.7552L33.8379 36.3653ZM44.7918 30.6208L39.4251 25.231L43.5421 22.607C44.2037 25.16 44.6448 27.855 44.7918 30.6208ZM39.1311 22.9615L40.2338 14.0257C41.3366 16.0114 42.2187 18.139 42.9539 20.4794L39.1311 22.9615ZM36.7785 23.8126L31.7059 22.6779L30.8236 14.2385L38.1753 12.3236L36.7785 23.8126ZM25.6775 2.6786C27.5154 2.89136 29.2798 3.45871 30.8972 4.30975L29.3533 10.1961L25.6775 2.6786ZM18.3993 10.4088L16.5614 4.52251C18.3258 3.52963 20.2372 2.89136 22.1487 2.6786L18.3993 10.4088ZM16.0468 22.6779L11.0477 23.8126L9.57733 12.2527L17.0025 14.1675L16.0468 22.6779ZM7.59237 14.0257L8.69512 23.1034L4.79874 20.9049C5.53391 18.4227 6.48962 16.1533 7.59237 14.0257ZM3.03432 36.1526L8.40106 41.5424L4.28412 44.1665C3.62247 41.6134 3.18136 38.9184 3.03432 36.1526ZM8.69512 43.8119L7.59237 52.7477C6.48962 50.762 5.60741 48.6344 4.87224 46.294L8.69512 43.8119ZM11.0477 42.9608L16.1203 44.0955L17.0025 52.5349L9.65083 54.4498L11.0477 42.9608ZM22.1487 64.0948C20.3108 63.882 18.5464 63.3147 16.929 62.4637L18.4728 56.5773L22.1487 64.0948ZM29.4269 56.3646L31.2648 62.2509C29.5004 63.1728 27.6625 63.8111 25.751 64.0948L29.4269 56.3646ZM31.7794 44.0955L36.7785 42.9608L38.2489 54.5207L30.8236 52.6059L31.7794 44.0955ZM37.7342 10.1961L31.1912 11.8981L32.8821 5.51538C34.6465 6.72101 36.2639 8.35215 37.7342 10.1961ZM14.7235 5.72813L16.6349 11.8981L10.1655 10.1961C11.4888 8.42307 13.0326 6.86284 14.7235 5.72813ZM10.0919 56.5773L16.6349 54.8753L14.944 61.258C13.1796 60.0524 11.5623 58.4212 10.0919 56.5773ZM33.1027 61.0453L31.2648 54.9462L37.7342 56.6483C36.3374 58.3503 34.7936 59.9106 33.1027 61.0453Z" fill="#957127"/>
</svg>
