<svg width="53" height="74" viewBox="0 0 53 74" fill="none" xmlns="http://www.w3.org/2000/svg">
<path d="M27.1141 0.770229C27.0297 0.687314 26.9453 0.687314 26.8609 0.604399H26.7765C26.692 0.604399 26.5232 0.521484 26.4388 0.521484C26.3543 0.521484 26.1855 0.521484 26.1011 0.604399H26.0167C25.9322 0.604399 25.8478 0.687314 25.7634 0.687314C25.7634 0.687314 25.7634 0.687314 25.679 0.687314C24.6659 1.51646 0.0146484 22.1623 0.0146484 41.896C0.0146484 50.9338 2.37847 57.8986 6.09304 62.8735C6.09304 63.0393 6.17746 63.1222 6.26188 63.2881C6.34631 63.4539 6.51515 63.5368 6.59957 63.6197C9.13224 66.8534 12.3403 69.2579 15.8016 70.7504C15.886 70.8333 15.9704 70.8333 16.0548 70.9162C16.1393 70.9162 16.2237 70.9162 16.3081 70.9992C19.5162 72.4087 22.9775 73.072 26.4388 73.072C29.9001 73.072 33.3614 72.4087 36.5694 70.9992C36.6538 70.9992 36.7383 70.9992 36.8227 70.9162C36.9071 70.9162 36.9915 70.8333 37.076 70.7504C40.6217 69.175 43.8297 66.7705 46.3624 63.371L46.4468 63.2881C46.4468 63.2052 46.5312 63.2052 46.5312 63.1222C50.3302 58.0644 52.7785 51.0996 52.7785 41.896C52.8629 22.3281 28.1272 1.68229 27.1141 0.770229ZM50.4991 39.0769L45.3493 32.0292L47.7131 29.7904C49.1483 32.8583 50.077 36.0091 50.4991 39.0769ZM41.4659 43.0568L44.3363 34.1849L49.9925 41.9789L43.6609 49.9388L41.4659 43.0568ZM42.0569 51.5971L38.1734 53.5041L40.4528 46.5393L42.0569 51.5971ZM46.7845 27.8005L44.5895 29.8734L42.9011 21.3331C44.3362 23.406 45.687 25.5618 46.7845 27.8005ZM40.3684 39.6573L36.8227 28.7955L42.7322 32.3608L40.3684 39.6573ZM42.479 29.7904L35.8096 25.8105L34.1212 17.519L40.284 19.0115L42.479 29.7904ZM35.3875 11.7979C36.7383 13.2904 38.1734 14.9487 39.5242 16.6899L34.1212 15.3633L35.3875 11.7979ZM33.6991 10.0567L32.6016 13.2075L29.3091 5.66221C30.5754 6.82302 32.095 8.31549 33.6991 10.0567ZM33.3614 24.0693L28.2961 20.504L32.095 17.8507L33.3614 24.0693ZM26.4388 4.25266L31.5041 15.7778L26.4388 19.3432L21.3734 15.7778L26.4388 4.25266ZM24.6659 20.5869L19.6006 24.1522L20.8669 17.9336L24.6659 20.5869ZM23.5684 5.66221L20.276 13.2075L19.1785 10.0567C20.7825 8.31549 22.3021 6.82302 23.5684 5.66221ZM26.4388 21.8306L33.9523 27.1372L39.1865 43.1397L35.4719 54.7478L26.4388 59.1423L17.5744 54.8307L13.8599 42.4764L18.9252 27.1372L26.4388 21.8306ZM34.6277 57.484L33.0237 62.376L28.8026 60.3031L34.6277 57.484ZM24.0749 60.3031L19.8538 62.376L18.4187 57.5669L24.0749 60.3031ZM12.678 45.9589L14.9574 53.587L10.8207 51.5971L12.678 45.9589ZM9.13224 49.9388L2.80058 41.9789L9.04781 34.102L11.5805 42.3935L9.13224 49.9388ZM17.49 11.7979L18.6719 15.3633L13.3533 16.6899C14.7885 14.9487 16.1393 13.2904 17.49 11.7979ZM12.5935 19.0115L18.7564 17.519L17.0679 25.8105L10.9895 29.7075L12.5935 19.0115ZM16.0548 28.9613L12.7624 38.994L10.7363 32.4437L16.0548 28.9613ZM10.1453 21.0844L8.79455 29.9563L6.09304 27.8005C7.27495 25.4789 8.71012 23.2402 10.1453 21.0844ZM5.1644 29.7904L8.11917 32.1121L2.37847 39.3257C2.71616 36.092 3.72922 32.8583 5.1644 29.7904ZM2.20962 44.6322L7.95033 51.8458L3.89807 53.9187C2.96942 51.0167 2.46289 47.9488 2.20962 44.6322ZM6.68399 59.9715C5.9242 58.6448 5.24882 57.3182 4.65786 55.8257L8.03475 54.0845L6.68399 59.9715ZM15.9704 68.6775C13.691 67.5167 11.5805 65.9413 9.80761 64.0343L17.6589 64.6976L15.9704 68.6775ZM8.45686 61.8785L10.3141 53.6699L15.8016 56.3232L17.7433 62.6247L8.45686 61.8785ZM17.8277 69.5067L19.4317 65.6926L23.9905 70.9162C21.88 70.7504 19.7694 70.2529 17.8277 69.5067ZM20.8669 64.1172L26.4388 61.4639L32.0106 64.1172L26.4388 70.5017L20.8669 64.1172ZM28.8026 70.9162L33.3614 65.6926L35.0498 69.5067C33.1081 70.2529 30.9976 70.7504 28.8026 70.9162ZM36.9915 68.6775L35.3031 64.6976L43.2388 64.0343C41.3815 65.9413 39.2709 67.5167 36.9915 68.6775ZM35.2187 62.6247L37.2448 56.2403L42.5634 53.6699L44.3363 61.8785L35.2187 62.6247ZM46.1091 60.0544L44.8428 54.0016L48.2197 55.7428C47.6287 57.3182 46.9533 58.7277 46.1091 60.0544ZM44.9272 51.7629L50.6679 44.5493C50.4991 47.8659 49.9081 51.0167 48.9795 53.8358L44.9272 51.7629Z" fill="#957127"/>
</svg>
