<svg width="69" height="67" viewBox="0 0 69 67" fill="none" xmlns="http://www.w3.org/2000/svg">
<path d="M0.834961 0.478516V66.4336H68.1091V0.478516H0.834961ZM57.3308 19.1303L50.1693 17.9956L49.0119 10.9746L64.7816 3.74081L57.3308 19.1303ZM11.6133 47.8527L18.7747 48.9874L19.9321 56.0084L4.1625 63.2422L11.6133 47.8527ZM56.3904 45.8669L50.6034 46.7889L52.1948 37.0729L56.3904 45.8669ZM50.531 33.6688L48.2886 47.0726L34.5444 49.2711L34.472 49.2001L34.3274 49.2711L20.6555 47.0726L18.4131 33.5979L18.4854 33.456L18.4131 33.3142L20.6555 19.8395L34.3274 17.641L34.472 17.7119L34.6167 17.641L48.3609 19.8395L50.6034 33.2433L50.4587 33.527L50.531 33.6688ZM12.5537 21.1161L18.3407 20.1941L16.7493 29.9101L12.5537 21.1161ZM38.0889 16.0808L46.9865 11.9675L47.9269 17.641L38.0889 16.0808ZM34.472 15.4425L25.9362 11.471H43.0802L34.472 15.4425ZM30.8551 16.0808L21.0172 17.641L21.9576 11.9675L30.8551 16.0808ZM18.7024 18.0665L11.541 19.2012L4.1625 3.74081L19.8598 10.9746L18.7024 18.0665ZM16.0982 33.456L12.0473 41.8245V25.1585L16.0982 33.456ZM16.7493 37.002L18.3407 46.647L12.5537 45.7251L16.7493 37.002ZM20.9449 49.342L30.8551 50.9022L21.9576 55.0155L20.9449 49.342ZM34.472 51.4696L43.0079 55.4411H25.9362L34.472 51.4696ZM38.0889 50.9022L47.9269 49.342L46.9865 55.0155L38.0889 50.9022ZM50.2417 48.9874L57.4031 47.8527L64.7816 63.2422L49.0843 55.9375L50.2417 48.9874ZM52.8458 33.456L56.8967 25.0875V41.8954L52.8458 33.456ZM52.1948 29.9101L50.6034 20.265L56.3904 21.187L52.1948 29.9101ZM47.6375 9.34344H21.3066L6.76667 2.6061H62.1774L47.6375 9.34344ZM9.87718 20.5487V46.3634L3.00509 60.6182V6.29391L9.87718 20.5487ZM21.3066 57.6396H47.6375L62.1774 64.3769H6.76667L21.3066 57.6396ZM59.0669 46.4343V20.5487L65.939 6.29391V60.6182L59.0669 46.4343Z" fill="#957127"/>
</svg>
