<svg width="67" height="67" viewBox="0 0 67 67" fill="none" xmlns="http://www.w3.org/2000/svg">
<path d="M66.478 8.93785L56.6806 0.622396C56.6096 0.551324 56.4676 0.480252 56.3966 0.480252C56.3966 0.480252 56.3966 0.480252 56.3256 0.480252C56.1836 0.40918 56.1126 0.40918 55.9706 0.40918H11.5983C11.4563 0.40918 11.3853 0.40918 11.2433 0.480252C11.2433 0.480252 11.2433 0.480252 11.1723 0.480252C11.1013 0.551324 10.9593 0.551324 10.8883 0.622396L1.16191 9.00892L1.09092 9.07999L1.01992 9.15106C1.01992 9.22214 0.948925 9.22214 0.948925 9.29321V9.36428C0.948925 9.43535 0.87793 9.43535 0.87793 9.50643C0.87793 9.50643 0.87793 9.50643 0.87793 9.5775C0.87793 9.64857 0.87793 9.71964 0.87793 9.79072V56.9827C0.87793 57.0538 0.87793 57.1248 0.87793 57.1959C0.87793 57.1959 0.87793 57.1959 0.87793 57.267C0.87793 57.338 0.87793 57.4091 0.948925 57.4091V57.4802C0.948925 57.5513 1.01992 57.5513 1.01992 57.6223C1.01992 57.6223 1.01992 57.6934 1.09092 57.6934L1.16191 57.7645L10.8883 66.151C10.9593 66.2221 11.1013 66.2931 11.1723 66.2931C11.1723 66.2931 11.1723 66.2931 11.2433 66.2931C11.3853 66.3642 11.4563 66.3642 11.5983 66.3642H55.9706C56.1126 66.3642 56.1836 66.3642 56.3256 66.2931C56.3256 66.2931 56.3256 66.2931 56.3966 66.2931C56.4676 66.2221 56.6096 66.2221 56.6806 66.151L66.478 57.8356C66.691 57.6223 66.833 57.338 66.833 57.0538V9.79072C66.833 9.43535 66.691 9.15106 66.478 8.93785ZM47.2381 17.5376C44.2563 17.5376 41.2745 17.1112 38.1507 16.1161C41.6295 15.1922 45.1083 13.3443 48.5871 10.5014C47.8771 13.06 47.4511 15.4054 47.2381 17.5376ZM19.6918 17.5376C19.6208 15.4054 19.2658 13.1311 18.6979 10.6436C22.1057 13.5575 25.5844 15.4054 29.1342 16.1872C25.8684 17.2533 22.7446 17.6797 19.6918 17.5376ZM15.0771 30.0463C14.6511 25.7109 13.2312 21.5887 10.9593 17.964C13.1602 18.7458 15.3611 19.3144 17.6329 19.5276C17.5619 23.9341 16.497 27.4166 15.0771 30.0463ZM15.0061 36.5849C16.497 39.2857 17.7039 42.7682 17.8459 47.2458C15.3611 47.5301 12.8762 48.0987 10.4624 49.0226C12.9472 45.1847 14.4381 40.9204 15.0061 36.5849ZM29.5602 50.6572C26.0814 51.5812 22.6026 53.4291 19.0528 56.272C19.6208 53.7134 19.9048 51.368 19.9758 49.2358C23.0996 49.0937 26.2944 49.5912 29.5602 50.6572ZM33.82 49.9465C29.0632 47.9565 24.4485 47.0326 20.0468 47.1036C19.8338 40.9914 17.7749 36.5139 15.574 33.3867C17.7749 30.3306 19.6918 25.853 19.8338 19.6698C20.1178 19.6698 20.4728 19.6698 20.7567 19.6698C25.0165 19.6698 29.4182 18.7458 33.8909 16.8269C38.3637 18.7458 42.7654 19.6698 47.0252 19.6698H47.0962C46.7412 25.2845 47.8061 29.8331 50.291 33.3867C47.8771 36.8692 46.8832 41.4179 47.3091 47.1036C42.9784 47.0326 38.4347 47.9565 33.82 49.9465ZM47.5221 49.2358C47.8061 51.368 48.2321 53.6423 48.871 56.1298C45.4632 53.2869 41.9845 51.368 38.4347 50.5862C41.5585 49.5912 44.6113 49.1647 47.5221 49.2358ZM50.7879 36.7982C51.4269 40.7782 53.2018 44.6872 56.0416 48.5962C53.9117 47.8854 51.7109 47.3879 49.439 47.1747C49.084 43.0525 49.581 39.6411 50.7879 36.7982ZM50.7879 30.0463C49.439 27.2034 48.871 23.6498 49.155 19.5987C51.4979 19.3855 53.8408 18.888 56.1126 18.1062C53.2018 22.0151 51.4269 25.9952 50.7879 30.0463ZM49.368 17.4665C49.652 14.979 50.22 12.2072 51.0719 9.29321L57.8875 15.1211C55.1187 16.4004 52.2788 17.1822 49.368 17.4665ZM33.039 14.6236C28.4953 14.5526 23.9515 12.4204 19.4078 8.44034H47.7351C42.6944 12.6336 37.7957 14.7658 33.039 14.6236ZM17.5619 17.3954C14.8641 17.0401 12.3082 16.3294 9.7524 15.1211L16.213 9.29321C16.994 12.2782 17.4199 14.979 17.5619 17.3954ZM8.90045 18.6747C11.4563 22.7259 12.9472 27.2745 13.0892 32.1074C13.3022 37.5089 11.8113 42.7682 8.90045 47.459V18.6747ZM17.8459 49.378C17.7749 51.7944 17.3489 54.4952 16.497 57.4802L9.7524 51.6523C12.4502 50.444 15.1481 49.6622 17.8459 49.378ZM34.6009 52.1498C39.1446 52.2208 43.6884 54.353 48.2321 58.3331H19.9048C24.9455 54.1398 29.8442 52.0787 34.6009 52.1498ZM49.652 49.378C52.4208 49.6622 55.1897 50.444 57.8875 51.6523L51.4979 57.4802C50.6459 54.4952 50.007 51.7944 49.652 49.378ZM58.7395 48.5962C54.7637 43.6211 52.7048 38.575 52.7048 33.5288C52.7048 28.4116 54.7637 23.2944 58.7395 18.2483V48.5962ZM59.7334 13.9129L52.1368 7.37426C53.4858 6.02389 54.8347 4.53137 56.1836 2.96778L64.1351 9.79072C62.5022 11.1411 61.0113 12.4915 59.7334 13.9129ZM50.078 6.30818H17.2069C16.071 5.17102 14.9351 3.89172 13.7992 2.47027H53.6988C52.4918 3.89172 51.2849 5.17102 50.078 6.30818ZM11.4563 2.96778C12.6632 4.60244 13.9411 6.02389 15.2191 7.37426L7.9775 13.9129C6.69958 12.4204 5.20867 11.07 3.57577 9.79072L11.4563 2.96778ZM2.93681 11.9229C4.35672 13.06 5.63464 14.3393 6.77058 15.7608V50.5151C5.63464 51.9366 4.35672 53.358 2.93681 54.6373V11.9229ZM7.76452 52.7183L15.574 59.4702C14.2251 60.8206 12.8762 62.3131 11.5273 63.8767L3.50477 56.9827C5.06668 55.6323 6.48659 54.2109 7.76452 52.7183ZM17.5619 60.4652H50.433C51.5689 61.6024 52.7048 62.8817 53.8407 64.3031H13.9411C15.1481 62.8817 16.355 61.6024 17.5619 60.4652ZM56.1836 63.8056C54.9767 62.242 53.6988 60.7495 52.4918 59.3991L59.7334 52.8605C61.0823 54.2109 62.5732 55.6323 64.1351 56.9827L56.1836 63.8056ZM60.8693 51.0126V15.8319C62.0053 14.5526 63.2832 13.3443 64.7031 12.065V54.7084C63.2832 53.5001 62.0053 52.2919 60.8693 51.0126Z" fill="#957127"/>
</svg>
