<svg width="67" height="67" viewBox="0 0 67 67" fill="none" xmlns="http://www.w3.org/2000/svg">
<path d="M66.2617 33.4206C66.2617 28.8866 65.3397 24.5652 63.7086 20.6688V20.598V20.5271C62.0774 16.7016 59.7371 13.2303 56.8294 10.3257L56.7585 10.2549L56.6876 10.184L56.6166 10.1132L56.5457 10.0424C53.4962 7.06694 49.8793 4.65827 45.9078 2.95803C45.8369 2.95803 45.8369 2.88719 45.766 2.88719C45.6951 2.88719 45.6951 2.88719 45.6241 2.88719C41.7236 1.32863 37.6102 0.478516 33.2842 0.478516C28.7453 0.478516 24.4192 1.39948 20.5187 3.02887H20.4477H20.3768C16.5472 4.65827 13.0721 6.99609 10.1644 9.90066L10.0935 9.97151C10.0935 9.97151 10.0226 9.97151 10.0226 10.0424L9.95168 10.1132L9.88076 10.184C6.90214 13.2303 4.49089 16.8433 2.78882 20.8105C2.78882 20.8814 2.7179 20.8814 2.7179 20.9522C2.7179 21.0231 2.7179 21.0231 2.7179 21.0939C1.15767 24.9903 0.306641 29.0992 0.306641 33.4206C0.306641 37.9546 1.2286 42.276 2.85974 46.1724V46.2432C2.85974 46.2432 2.85974 46.2432 2.85974 46.3141C4.49089 50.1396 6.83123 53.6109 9.73892 56.5863C9.80984 56.6572 9.88076 56.728 9.95168 56.7989C9.95168 56.7989 9.95168 56.7989 10.0226 56.7989C10.0226 56.7989 10.0226 56.7989 10.0935 56.8697C13.1431 59.8451 16.7599 62.2538 20.7314 63.954C20.8023 63.954 20.8023 64.0249 20.8733 64.0249H20.9442C24.7738 65.5834 28.8872 66.4336 33.2132 66.4336C37.7521 66.4336 42.0782 65.5126 46.0497 63.8124H46.1206H46.1915C50.0211 62.183 53.4962 59.8451 56.4039 56.9406C56.5457 56.8697 56.6166 56.7989 56.6876 56.6572C59.6662 53.6109 62.1484 49.9979 63.7795 45.9599C63.7795 45.9599 63.7795 45.889 63.8504 45.889C63.8504 45.8182 63.8504 45.8182 63.8504 45.7473C65.4107 41.851 66.2617 37.7421 66.2617 33.4206ZM62.2193 44.0471L55.4819 41.4259L63.9923 35.4751C63.8504 38.4505 63.2122 41.3551 62.2193 44.0471ZM46.2624 61.4037L43.3547 54.8153L53.5671 56.6572C51.3686 58.57 48.8864 60.1285 46.2624 61.4037ZM13.0012 56.6572L23.2845 54.8153L20.6605 61.6162C17.8946 60.2702 15.3415 58.6408 13.0012 56.6572ZM2.50515 35.4751L11.0864 41.4259L4.41997 44.4013C3.4271 41.6384 2.7179 38.663 2.50515 35.4751ZM4.34904 22.7941L11.0864 25.4153L2.57606 31.3662C2.7179 28.3907 3.35617 25.4862 4.34904 22.7941ZM20.3059 5.43754L23.2136 12.026L13.0012 10.184C15.1997 8.34211 17.6819 6.71272 20.3059 5.43754ZM53.5671 10.184L43.2838 12.026L45.9078 5.22501C48.6737 6.57103 51.2268 8.20043 53.5671 10.184ZM64.0632 31.3662L55.4819 25.4153L62.1484 22.4399C63.1412 25.2028 63.8504 28.1782 64.0632 31.3662ZM33.2842 46.2432L24.2065 42.4885L20.4477 33.4206L24.2065 24.3527L33.2842 20.598L42.3618 24.3527L46.1206 33.4206L42.3618 42.4885L33.2842 46.2432ZM19.0294 31.2953L15.1288 25.9821L21.6534 24.9903L19.0294 31.2953ZM21.7243 41.9218L15.1997 40.8592L19.1003 35.5459L21.7243 41.9218ZM47.539 35.5459L51.4395 40.8592L44.844 41.9218L47.539 35.5459ZM44.844 24.9194L51.3686 25.9821L47.539 31.2953L44.844 24.9194ZM52.4324 23.9276L44.0639 22.5816L42.7874 14.2929L54.56 12.1676L52.4324 23.9276ZM40.8016 15.3556L41.7945 21.8732L35.4117 19.252L40.8016 15.3556ZM33.2842 18.1893L26.4759 13.2303L33.2842 3.38309L40.0924 13.1595L33.2842 18.1893ZM31.1566 19.1811L24.7738 21.8023L25.8376 15.2847L31.1566 19.1811ZM22.5044 22.6524L14.1359 23.9276L12.0083 12.1676L23.781 14.2929L22.5044 22.6524ZM13.0721 26.6197L18.0365 33.4206L13.0721 40.2216L3.21434 33.4206L13.0721 26.6197ZM14.1359 42.9136L22.5044 44.2596L23.781 52.5483L12.0083 54.6736L14.1359 42.9136ZM25.7667 51.4856L24.7738 44.9681L31.1566 47.5893L25.7667 51.4856ZM33.2842 48.6519L40.0924 53.6109L33.2842 63.4581L26.4759 53.6818L33.2842 48.6519ZM35.4117 47.6601L41.7945 45.0389L40.7307 51.5565L35.4117 47.6601ZM44.0639 44.1888L52.4324 42.9136L54.56 54.6736L42.7874 52.5483L44.0639 44.1888ZM53.4962 40.2216L48.5318 33.4206L53.4962 26.6197L63.354 33.4206L53.4962 40.2216ZM54.7018 23.3609L56.5457 13.1595C58.4606 15.3556 60.0208 17.7643 61.2973 20.4563L54.7018 23.3609ZM41.2981 11.1758L35.3408 2.67466C38.3194 2.88719 41.1562 3.52477 43.8511 4.44574L41.2981 11.1758ZM25.1994 11.2467L22.2207 4.58742C25.0575 3.52477 28.0361 2.81634 31.1566 2.60381L25.1994 11.2467ZM10.0226 13.1595L11.8665 23.4317L5.05824 20.8105C6.40571 18.0476 8.03685 15.4973 10.0226 13.1595ZM11.8665 43.4804L10.0226 53.6818C8.10777 51.4856 6.54755 49.077 5.271 46.3849L11.8665 43.4804ZM25.2703 55.6654L31.2275 64.1666C28.2489 63.954 25.4121 63.3165 22.7172 62.3955L25.2703 55.6654ZM41.369 55.5945L44.3476 62.2538C41.5108 63.3165 38.5322 64.0249 35.4117 64.2374L41.369 55.5945ZM56.5457 53.6818L54.7018 43.4095L61.5101 46.0307C60.1626 48.7936 58.5315 51.344 56.5457 53.6818Z" fill="#957127"/>
</svg>
