<svg width="29" height="28" viewBox="0 0 29 28" fill="none" xmlns="http://www.w3.org/2000/svg">
<g id="Heart">
<g id="Group">
<path id="Vector" d="M25.489 4.2314C24.0597 2.80617 22.1233 2.00589 20.1048 2.00589C18.0862 2.00589 16.15 2.80617 14.7205 4.2314C12.7968 2.30732 9.99273 1.55559 7.36452 2.25937C4.73626 2.96316 2.68336 5.01565 1.97871 7.64366C1.27412 10.2715 2.02509 13.0756 3.94876 14.9996L14.5666 25.9244H14.8734L25.4883 15.0027C26.9164 13.5741 27.7188 11.6367 27.7188 9.61685C27.7188 7.59688 26.9165 5.65951 25.4883 4.23104L25.489 4.2314ZM23.6082 7.61261L20.2555 6.39648L19.0876 4.04671L23.8127 3.58076L23.6082 7.61261ZM11.5128 15.4775L12.422 19.1058L8.20539 18.6882L8.20559 14.2756L11.5128 15.4775ZM9.12319 10.7949L6.04027 7.99344L9.12319 6.87108V10.7949ZM10.8025 4.11226L13.9023 4.61508L9.77091 6.17786L10.8025 4.11226ZM18.6389 4.11226L19.6703 6.17785L15.539 4.61507L18.6389 4.11226ZM17.582 15.1934L14.7206 17.7221L11.8595 15.1651L9.54954 11.2214L9.54934 6.71506L14.7205 4.77713L19.8917 6.71485V11.2212L17.582 15.1934ZM16.6075 19.0092L15.0675 17.9835L17.3747 15.932L16.6075 19.0092ZM12.8342 19.0092L12.067 15.9321L14.3742 17.9836L12.8342 19.0092ZM9.3506 11.7182L11.2117 14.9089L8.28789 13.8492L9.3506 11.7182ZM14.7207 18.2532L16.488 19.4323L14.7207 25.0723L12.9534 19.4409L14.7207 18.2532ZM17.9285 15.4688L21.2357 14.2754V18.688L17.0193 19.1056L17.9285 15.4688ZM18.2297 14.9006L20.0908 11.7181L21.1535 13.8434L18.2297 14.9006ZM23.4009 7.97944L20.318 10.795V6.87113L23.4009 7.97944ZM18.5707 3.67764L15.3487 4.22881H15.3485C16.3094 3.37855 17.481 2.80262 18.741 2.56081L18.5707 3.67764ZM10.8708 3.67764L10.7003 2.54122V2.54102C11.9602 2.78282 13.132 3.35876 14.0928 4.20882L10.8708 3.67764ZM9.18593 6.38257L5.83328 7.5987L5.62854 3.58089L10.3537 4.04684L9.18593 6.38257ZM9.07514 11.3122L7.90162 13.7072L2.62237 11.7184L5.65415 8.21786L9.07514 11.3122ZM7.77955 18.3247L4.71367 15.1736L7.77955 14.2558V18.3247ZM12.3483 19.5323L11.0698 21.7087L8.58643 19.1516L12.3483 19.5323ZM12.6325 19.8732L14.2379 24.9876L11.3768 22.0242L12.6325 19.8732ZM16.7865 19.8732L18.0538 22.024L15.1926 24.9762L16.7865 19.8732ZM17.0707 19.5323L20.8326 19.1544L18.3493 21.7114L17.0707 19.5323ZM21.6623 14.2561L24.7281 15.1739L21.6623 18.325V14.2561ZM20.3667 11.3268L23.7762 8.21831L26.8191 11.7186L21.554 13.7075L20.3667 11.3268ZM27.0833 11.3581L24.1508 7.98802L26.7079 6.78894H26.7081C27.3207 8.23238 27.4493 9.83538 27.0746 11.3579L27.0833 11.3581ZM26.5377 6.40288L24.0373 7.57066L24.2277 3.73205L24.2275 3.73185C24.5708 3.97008 24.8921 4.23804 25.188 4.53294C25.7338 5.08096 26.1893 5.71199 26.5375 6.40273L26.5377 6.40288ZM23.3382 3.19473L19.0109 3.63512L19.1813 2.4987H19.1815C20.6053 2.3118 22.0527 2.5542 23.3382 3.19477L23.3382 3.19473ZM9.33614 2.43052C9.64512 2.43131 9.95352 2.45232 10.2595 2.49295L10.43 3.62938L6.1028 3.19474C7.10644 2.69192 8.21359 2.43012 9.33616 2.43053L9.33614 2.43052ZM4.25324 4.53314V4.53294C4.54914 4.23803 4.87041 3.97006 5.2137 3.73185L5.40417 7.57046L2.90376 6.40268C3.25199 5.71199 3.70745 5.08091 4.25328 4.53289L4.25324 4.53314ZM2.72456 6.78919L5.28164 7.98828L2.35808 11.358C1.9833 9.83543 2.11193 8.23243 2.72455 6.78899L2.72456 6.78919ZM2.60802 12.1537L7.33317 13.9466L4.37831 14.8444L4.25325 14.7165C3.52725 13.9904 2.96619 13.1161 2.60824 12.1537L2.60802 12.1537ZM25.1853 14.7108L25.0632 14.8444L22.1083 13.9465L26.8278 12.1537C26.4686 13.1107 25.9085 13.9796 25.1853 14.7022L25.1853 14.7108Z" fill="black"/>
</g>
</g>
</svg>
