<svg width="64" height="64" viewBox="0 0 64 64" fill="none" xmlns="http://www.w3.org/2000/svg">
<path d="M61.3647 15.3902C61.3037 15.2683 61.2428 15.1769 61.1513 15.0855L48.8694 2.80358C48.778 2.71215 48.6866 2.6512 48.5647 2.59025C48.4428 2.5293 48.3208 2.5293 48.1989 2.5293H15.7113C15.5894 2.5293 15.4675 2.55977 15.3456 2.59025C15.2237 2.62073 15.1323 2.71215 15.0408 2.80358L2.78942 15.0855C2.69799 15.1769 2.63704 15.2683 2.57609 15.3902C2.54561 15.5122 2.51514 15.6341 2.51514 15.756V48.2741C2.51514 48.396 2.54561 48.5179 2.57609 48.6398C2.63704 48.7617 2.69799 48.8531 2.78942 48.9445L15.0713 61.2264C15.1628 61.3179 15.2542 61.3788 15.3761 61.4398C15.498 61.5007 15.6199 61.5007 15.7418 61.5007H48.2294C48.3513 61.5007 48.4732 61.4702 48.5951 61.4398C48.717 61.4093 48.8085 61.3179 48.8999 61.2264L61.1818 48.9445C61.2732 48.8531 61.3342 48.7617 61.3951 48.6398C61.4561 48.5179 61.4561 48.396 61.4561 48.2741V15.756C61.4256 15.6341 61.3951 15.5122 61.3647 15.3902ZM48.5647 3.50453L60.4199 15.3902L57.2808 16.7617L47.2542 6.67406L48.5647 3.50453ZM44.0542 14.476L45.3647 11.3064L52.6789 18.6207L49.5094 19.9312L44.0542 14.476ZM49.0828 20.4798V43.5198L43.5056 49.0969H20.4351L14.858 43.5198V20.4798L20.4351 14.9026H43.4751L49.0828 20.4798ZM43.3837 14.1712H20.5266L19.2161 11.0017H44.6942L43.3837 14.1712ZM19.8866 14.4455L14.4313 19.9007L11.2618 18.5902L18.5761 11.276L19.8866 14.4455ZM14.157 20.5712V43.4283L10.9875 44.7388V19.2607L14.157 20.5712ZM14.4313 44.0988L19.8866 49.5236L18.5761 52.7236L11.2618 45.4093L14.4313 44.0988ZM20.557 49.8283H43.4142L44.7247 52.9979H19.2161L20.557 49.8283ZM44.0542 49.5236L49.5094 44.0683L52.6789 45.3788L45.3647 52.6931L44.0542 49.5236ZM49.7837 43.4283V20.5712L52.9532 19.2607V44.7388L49.7837 43.4283ZM45.6694 10.575L46.9799 7.40549L56.5189 16.9445L53.3799 18.2855L45.6694 10.575ZM44.9989 10.3007H18.9113L17.6618 7.16168H46.3704L44.9989 10.3007ZM18.2713 10.575L10.5304 18.316L7.36085 17.0055L16.8999 7.43596L18.2713 10.575ZM10.2866 18.956V45.0436L7.14752 46.3541V17.676L10.2866 18.956ZM10.5304 45.6836L18.2713 53.4245L16.9609 56.5941L7.4218 47.0245L10.5304 45.6836ZM18.9113 53.6988H44.9989L46.3094 56.8379H17.6618L18.9113 53.6988ZM45.6694 53.4245L53.4104 45.6836L56.5799 46.9941L47.0104 56.5636L45.6694 53.4245ZM53.6542 45.0436V18.956L56.7932 17.676V46.3845L53.6542 45.0436ZM47.9247 3.26073L46.6142 6.43025H17.3266L16.0161 3.26073H47.9247ZM15.3456 3.53501L16.717 6.67406L6.62942 16.7312L3.49037 15.3598L15.3456 3.53501ZM3.21609 16.0607L6.38561 17.3712V46.6283L3.21609 47.9388V16.0607ZM15.3456 60.4645L3.49037 48.6093L6.62942 47.2988L16.717 57.3255L15.3456 60.4645ZM16.0161 60.7388L17.3266 57.5693H46.6142L47.9247 60.7388H16.0161ZM48.5647 60.4645L47.2542 57.3255L57.2808 47.2988L60.4504 48.6093L48.5647 60.4645ZM60.7247 47.9388L57.5551 46.6588V17.3407L60.7247 16.0302V47.9388Z" fill="#1D1F1F" stroke="#1D1F1E" stroke-width="0.5"/>
</svg>
