<svg width="64" height="64" viewBox="0 0 64 64" fill="none" xmlns="http://www.w3.org/2000/svg">
<path d="M31.9393 2.4375C15.1774 2.4375 7.00977 12.0985 7.00977 31.9994C7.00977 51.9004 15.1774 61.5613 31.9393 61.5613C48.7317 61.5613 56.8688 51.9004 56.8688 31.9994C56.8688 12.0985 48.7317 2.4375 31.9393 2.4375ZM54.6136 18.9251C55.6193 22.6127 56.1374 26.4223 56.1983 30.2318V30.7804L48.7012 18.4985L54.5831 18.8032L54.6136 18.9251ZM31.9393 50.8642L20.7241 46.3842L17.6764 31.9994V31.9689L20.6936 17.6451L31.9393 13.1346L43.185 17.6451V17.7365L46.2021 32.0604V32.0908L43.185 46.4146L43.1241 46.4451L31.9393 50.8642ZM42.9107 47.1766L39.4974 56.0756L32.6707 51.2908L42.9107 47.1766ZM31.2383 51.3518L24.4117 56.0756L20.9679 47.1766L31.2383 51.3518ZM17.006 31.9994L15.5736 44.8299L7.74119 31.9994L15.5736 19.1994L17.006 31.9994ZM16.2136 18.4375L20.0231 17.7975L17.8898 27.8546L17.646 28.9518L17.4326 29.8965L17.3412 28.9518L17.2193 27.7327L16.2136 18.4375ZM17.2802 35.687L17.3412 35.0775L17.4326 34.1327L17.646 35.0775L17.8593 36.0832L19.9926 46.2318L16.2136 45.5918L17.2802 35.687ZM20.9983 16.8223L24.4117 7.92321L31.2383 12.708L20.9983 16.8223ZM32.6707 12.647L39.4974 7.92321L42.9412 16.8223L32.6707 12.647ZM46.5679 28.9518L46.4764 29.8965L46.2936 28.9823L46.0498 27.7632L43.9469 17.828L47.7564 18.468L46.6898 28.0375L46.5679 28.9518ZM45.9583 36.4794L46.2631 35.047L46.446 34.1327L46.5374 35.0775L46.6593 36.2965L47.6955 45.6223L43.886 46.2623L45.9583 36.4794ZM46.9031 31.9994L48.3355 19.1994L56.1679 31.9994L48.305 44.7994L46.9031 31.9994ZM49.4021 9.38607C51.6574 11.8242 53.364 14.7804 54.3393 17.9194L54.4002 18.1327L48.4574 17.8585L49.1279 9.11179L49.4021 9.38607ZM47.7869 17.767L43.7336 17.0661L40.1679 7.77083L48.5183 8.59369L47.7869 17.767ZM42.4536 4.81464C44.2212 5.48512 45.8669 6.39941 47.3298 7.52702L47.7564 7.86226L40.2898 7.10036L42.3317 4.78417L42.4536 4.81464ZM33.7983 3.13845C36.3888 3.22988 38.9793 3.65655 41.4783 4.44893L41.6917 4.50988L39.5888 6.94798L33.2193 3.13845H33.7983ZM39.0402 7.40512L31.9698 12.3727L24.8688 7.40512L31.9393 3.16893L39.0402 7.40512ZM22.4307 4.4794C24.9298 3.68702 27.4898 3.26036 30.1107 3.16893L30.6898 3.13845L24.3202 6.94798L22.2174 4.54036L22.4307 4.4794ZM16.5488 7.52702C18.0421 6.39941 19.6879 5.48512 21.425 4.81464L21.5164 4.78417L23.5583 7.13083L16.0917 7.86226L16.5488 7.52702ZM23.7412 7.80131L20.1755 17.0965L16.1221 17.7975L15.3907 8.62417L23.7412 7.80131ZM9.60024 17.9194C10.5755 14.7499 12.2821 11.7937 14.5374 9.3556L14.7812 9.11179L15.4821 17.8585L9.56977 18.1632L9.60024 17.9194ZM7.71072 30.2318C7.77167 26.4223 8.28977 22.6127 9.29548 18.9251L9.32596 18.8337L15.2079 18.5289L7.68024 30.7804L7.71072 30.2318ZM9.29548 45.0737C8.28977 41.3861 7.77167 37.5765 7.71072 33.767V33.2185L15.2079 45.5004L10.9717 45.1956H9.35643L9.29548 45.0737ZM14.5069 54.6432C12.2517 52.2051 10.545 49.2489 9.56977 46.0794L9.50881 45.8661L15.4212 46.1708L14.7202 54.9175L14.5069 54.6432ZM16.0917 46.2318L20.145 46.9327L23.7107 56.228L15.3602 55.4051L16.0917 46.2318ZM21.4555 59.1537C19.6879 58.4832 18.0421 57.5994 16.5793 56.4413L16.1526 56.1061L23.6193 56.868L21.5774 59.1842L21.4555 59.1537ZM30.1107 60.8604C27.5202 60.7689 24.9298 60.3423 22.4307 59.5499L22.2174 59.4889L24.3202 57.0508L30.6898 60.8604H30.1107ZM24.8688 56.5937L31.9393 51.6261L39.0098 56.5937L31.9393 60.8299L24.8688 56.5937ZM41.4783 59.5194C38.9793 60.2813 36.4193 60.7385 33.7983 60.8299L33.2193 60.8604L39.5888 57.0508L41.6917 59.4585L41.4783 59.5194ZM47.3602 56.4718C45.8669 57.5994 44.2212 58.5137 42.484 59.1842L42.3926 59.2146L40.3507 56.868L47.8174 56.1365L47.3602 56.4718ZM40.1679 56.1975L43.764 46.8718L47.8479 46.1708L48.5488 55.3442L40.1679 56.1975ZM54.3088 46.0489C53.364 49.2185 51.6574 52.2051 49.3717 54.6432L49.1279 54.887L48.4574 46.1404L54.3698 45.8356L54.3088 46.0489ZM56.1983 33.767C56.1679 37.5765 55.6193 41.3861 54.6136 45.0737L54.5831 45.1651L48.7012 45.4699L56.1983 33.2185V33.767Z" fill="#1D1F1F" stroke="#1D1F1E" stroke-width="0.5"/>
<path d="M17.8593 36.0526L17.646 35.0469L17.8593 36.0526Z" fill="white" stroke="#1D1F1E" stroke-width="0.15"/>
</svg>
