<svg width="64" height="64" viewBox="0 0 64 64" fill="none" xmlns="http://www.w3.org/2000/svg">
<path d="M53.1793 52.7537V11.2451L53.0574 10.9708L44.6154 2.5594L44.3716 2.4375H19.7773L19.4726 2.5594L11.1526 10.9099L11.0916 10.9708L10.9697 11.1232V11.3061V52.7537L11.0916 53.028L19.5031 61.4394L19.7773 61.5613H44.3716L44.6459 61.4394L53.0574 53.028L53.1793 52.7537ZM44.4631 3.35179L52.204 11.0927L50.6193 11.7632L43.7926 4.96702L44.4631 3.35179ZM41.9031 9.5994L42.5735 7.95369L47.6021 13.0127L45.9564 13.6832L41.9031 9.5994ZM45.5602 14.2318V49.767L41.3545 53.9423H22.764L18.5278 49.7365V14.2318L22.7335 10.0261H41.324L45.5602 14.2318ZM41.2326 9.3556H22.8554L22.185 7.70988H41.964L41.2326 9.3556ZM22.185 9.5994L18.1012 13.7137L16.4554 13.0432L21.484 7.98417L22.185 9.5994ZM17.8573 14.3232V49.6756L16.2116 50.3461V13.6527L17.8573 14.3232ZM18.1012 50.2851L22.185 54.3994L21.5145 56.0146L16.4554 50.9556L18.1012 50.2851ZM22.8554 54.6432H41.2326L41.9031 56.2585H22.1545L22.8554 54.6432ZM41.9031 54.3994L45.9869 50.3156L47.6326 50.9861L42.604 56.0451L41.9031 54.3994ZM46.2612 49.6756V14.3232L47.9069 13.6527V50.3765L46.2612 49.6756ZM42.8783 7.28321L43.5488 5.66798L49.9488 12.068L48.3031 12.708L42.8783 7.28321ZM42.2078 7.06988H21.8802L21.2097 5.42417H42.9088L42.2078 7.06988ZM21.2707 7.31369L15.8459 12.7385L14.2002 12.068L20.6002 5.66798L21.2707 7.31369ZM15.5716 13.3785V50.6508L13.9259 51.3213V12.6775L15.5716 13.3785ZM15.8459 51.2604L21.3012 56.6851L20.6307 58.3308L14.2002 51.9308L15.8459 51.2604ZM21.9107 56.9289H42.2383L42.9088 58.5746H21.2097L21.9107 56.9289ZM42.8783 56.6851L48.2726 51.2604L49.9183 51.9308L43.5183 58.3308L42.8783 56.6851ZM48.5774 50.6204V13.3785L50.1926 12.708V51.3213L48.5774 50.6204ZM43.8535 3.13845L43.1831 4.75369H20.905L20.2345 3.13845H43.8535ZM19.625 3.35179L20.3259 4.9975L13.4993 11.7937L11.9145 11.1232L19.625 3.35179ZM11.6707 11.7327L13.2859 12.4032V51.5651L11.6707 52.2356V11.7327ZM19.625 60.647L11.884 52.9061L13.5297 52.2356L20.3259 59.0318L19.625 60.647ZM20.265 60.8604L20.9354 59.2451H43.2135L43.884 60.8604H20.265ZM44.4935 60.647L43.7926 59.0013L50.6193 52.2051L52.265 52.8756L44.4935 60.647ZM52.4478 52.2661L50.8326 51.5956V12.4032L52.4478 11.7327V52.2661Z" fill="#1D1F1F" stroke="#1D1F1E" stroke-width="0.5"/>
</svg>
