<svg width="64" height="64" viewBox="0 0 64 64" fill="none" xmlns="http://www.w3.org/2000/svg">
<path d="M57.021 9.78366C53.76 6.5227 49.4324 4.72461 44.8305 4.72461C40.2286 4.72461 35.9009 6.5227 32.64 9.78366L32.5181 9.87509L32.3962 9.78366C29.1352 6.49223 24.6857 4.72461 20.1752 4.72461C18.6819 4.72461 17.1886 4.90747 15.7257 5.30366C9.78285 6.88842 5.12 11.5513 3.53523 17.4941C1.92 23.437 3.65714 29.837 7.98476 34.1646L32 58.8808C32.2438 59.1551 32.7009 59.1551 32.9752 58.8808L56.9905 34.1646C60.2514 30.9037 62.0495 26.576 62.0495 21.9741C62.0495 17.3722 60.2819 13.0446 57.021 9.78366ZM54.0952 8.25985L54.3086 8.41223C55.1009 8.9608 55.8324 9.57032 56.5333 10.2713C57.7829 11.5513 58.8495 12.9837 59.6419 14.5989L59.7029 14.7513L53.6076 17.5856L54.0952 8.25985ZM45.0438 14.7513L42.24 9.11318L53.4248 8.01604L52.9371 17.616L45.0438 14.7513ZM52.6324 18.1951L45.1352 25.0218V15.4827L52.6324 18.1951ZM47.421 31.7265L40.1676 34.3475L44.8 26.4541L47.421 31.7265ZM44.1295 14.3856L33.7981 10.4846L41.5695 9.23509L44.1295 14.3856ZM42.5752 5.57794H42.6971C45.9886 5.15128 49.3105 5.69985 52.2971 7.19318L52.7543 7.43699L42.1486 8.50366L42.5752 5.57794ZM33.8286 9.53985C36.0533 7.58937 38.7352 6.24842 41.6609 5.69985L41.8743 5.66937L41.4476 8.53413L33.4629 9.90556L33.8286 9.53985ZM32.5181 10.7589L44.4648 15.2389V25.6922L44.4343 25.7227L39.1314 34.8351L32.4876 40.6865L25.8438 34.7437L20.5409 25.6922V15.2389L32.5181 10.7589ZM38.8267 35.9627L36.9067 43.6732L33.0362 41.0827L38.8267 35.9627ZM31.9695 41.1132L28.099 43.7037L26.179 35.9627L31.9695 41.1132ZM20.2057 26.4541L24.8076 34.3475L17.5543 31.7265L20.2057 26.4541ZM19.8705 25.0218L12.3733 18.2256L19.8705 15.5132V25.0218ZM20.8762 14.3856L23.4667 9.20461L31.2381 10.4541L20.8762 14.3856ZM23.3448 5.66937C26.24 6.21794 28.9524 7.5589 31.1771 9.50937L31.5733 9.87509L23.5581 8.53413L23.1314 5.60842L23.3448 5.66937ZM12.739 7.1627C15.0248 6.00461 17.6152 5.39509 20.2057 5.39509C20.9067 5.39509 21.6381 5.45604 22.339 5.54747H22.4609L22.8876 8.4427L12.2819 7.37604L12.739 7.1627ZM22.7657 9.11318L19.9619 14.7208L12.0381 17.5856L11.5505 8.01604L22.7657 9.11318ZM5.36381 14.5684C6.15619 12.9837 7.22285 11.5208 8.47238 10.2713C9.14285 9.6008 9.90476 8.9608 10.6971 8.41223L10.9105 8.25985L11.3676 17.5551L5.27238 14.7208L5.36381 14.5684ZM4.11428 25.997C3.26095 22.5227 3.56571 18.7741 4.96761 15.4522L5.02857 15.2998L11.1848 18.1951L4.17523 26.2713L4.11428 25.997ZM8.47238 33.7379C6.82666 32.0922 5.48571 30.0198 4.69333 27.8256L4.57142 27.5208L16.0914 31.9094L8.80761 34.1037L8.47238 33.7379ZM16.7924 42.2713L9.35619 34.6217L16.7924 32.397V42.2713ZM4.6019 26.8503L11.7638 18.5608L19.779 25.8141L16.9752 31.5132L4.6019 26.8503ZM17.4629 32.397L25.2952 35.2617L27.4286 43.856L17.4324 42.8808V32.397H17.4629ZM18.0724 43.5817L27.3371 44.5265L24.1981 49.8903L18.0724 43.5817ZM31.299 57.2351L30.1714 56.0465L24.6857 50.3779L27.7943 45.0751L31.2076 55.9856L31.5733 57.1132L31.7562 57.7227L31.299 57.2351ZM28.2819 44.3741L32.4876 41.5398L36.6933 44.3437L36.6629 44.4656L32.4876 57.8141L28.2819 44.3741ZM34.4381 56.4122L33.6762 57.1741L33.219 57.6313L33.4019 57.0218L33.7981 55.7722L37.1505 45.0446L40.2895 50.3475L34.4381 56.4122ZM40.7771 49.8903L37.6381 44.5265L46.9029 43.6122L40.7771 49.8903ZM47.5429 42.8503L37.5467 43.8256L39.68 35.2313L47.5124 32.397V42.8503H47.5429ZM45.2267 25.8446L53.2114 18.5608L60.4038 26.8503L48.0305 31.5132L45.2267 25.8446ZM48.2133 42.2713V32.397L55.6495 34.6217L48.2133 42.2713ZM60.3124 27.8256C59.4895 30.0198 58.2095 32.0008 56.5638 33.677L56.5333 33.7379L56.1981 34.1037L48.9143 31.9094L60.4343 27.5208L60.3124 27.8256ZM60.8305 26.2713L53.821 18.1951L59.9771 15.2998L60.0381 15.4522C61.44 18.7741 61.7448 22.4922 60.8914 25.997L60.8305 26.2713Z" fill="#1D1F1F" stroke="#1D1F1E" stroke-width="0.5"/>
</svg>
