<svg width="64" height="64" viewBox="0 0 64 64" fill="none" xmlns="http://www.w3.org/2000/svg">
<path d="M32.1517 2.4375H31.664C22.5517 9.72131 16.9136 21.0585 16.9136 31.9994C16.9136 42.9404 22.5517 54.2775 31.664 61.5613H32.1517C41.264 54.2775 46.9021 42.9404 46.9021 31.9994C46.9021 21.0585 41.264 9.72131 32.1517 2.4375ZM45.104 23.6794C45.6221 25.5994 45.9574 27.6413 46.1402 29.7442L46.1707 30.5061L43.184 24.4718L45.0431 23.527L45.104 23.6794ZM43.245 18.2546C43.946 19.9613 44.4641 21.3632 44.8298 22.7346L44.8602 22.8565L43.0317 23.7708L42.9098 17.5232L43.245 18.2546ZM31.9079 49.3099L27.5802 45.7137V45.6832L23.7707 31.9994L27.5802 18.2851L31.9079 14.6585L36.2355 18.2851V18.3156L40.0145 31.9689L36.205 45.6832L31.9079 49.3099ZM36.0526 46.7499L34.8336 52.8146L32.3345 49.7975L36.0526 46.7499ZM31.4507 49.767L28.9821 52.8146L27.7631 46.7499L31.4507 49.767ZM26.6355 44.7689L21.485 39.6185L23.4355 33.2185L26.6355 44.7689ZM21.5155 24.3804L26.6355 19.2299L23.4355 30.7804L21.5155 24.3804ZM27.7936 17.2185L29.0126 11.1537L31.4507 14.2013L27.7936 17.2185ZM32.3345 14.2013L34.8031 11.1842L36.0526 17.2489L32.3345 14.2013ZM40.4107 33.2185L42.3307 39.6185L37.2107 44.7689L40.4107 33.2185ZM37.2107 19.2299L42.3612 24.3804L40.4107 30.7804L37.2107 19.2299ZM42.3307 23.4661L36.8145 17.9194V17.8889L35.4431 11.1537L42.2088 16.1213L42.3307 23.4661ZM37.6374 8.89845C38.9479 10.5137 40.1669 12.3118 41.2336 14.2013L41.5688 14.8108L35.565 10.3613L37.546 8.77655L37.6374 8.89845ZM33.1879 4.20512C34.7117 5.57655 35.9307 6.85655 36.9974 8.10607L37.0888 8.22798L35.1079 9.78226L32.7002 3.7175L33.1879 4.20512ZM31.9079 3.56512L34.6202 10.3004L31.9079 13.7137L29.1955 10.3308L31.9079 3.56512ZM26.7879 8.10607C28.1288 6.55179 29.3783 5.30226 30.5974 4.20512L31.085 3.74798L28.6164 9.81274L26.6964 8.22798L26.7879 8.10607ZM26.1783 8.86798L26.2698 8.74607L28.2202 10.3613L22.1555 14.8413L22.5821 14.1404C23.6488 12.3423 24.8069 10.6051 26.1783 8.86798ZM21.546 16.0908L28.3117 11.1232L26.9402 17.9194L21.4545 23.4356L21.546 16.0908ZM18.925 22.7042C19.3212 21.3023 19.8698 19.8089 20.5098 18.2546L20.8145 17.5232L20.7536 23.7708L18.8945 22.7956L18.925 22.7042ZM18.6812 23.6794L18.7117 23.4965L20.6012 24.4718L17.5841 30.4756L17.645 29.7137C17.7974 27.7632 18.1326 25.7823 18.6812 23.6794ZM18.6812 40.3194C18.1631 38.3994 17.8279 36.3575 17.645 34.2546L17.5841 33.4927L20.6012 39.588L18.7117 40.5023L18.6812 40.3194ZM20.5402 45.8051C19.8393 44.0985 19.3212 42.6966 18.9555 41.3251L18.925 41.2032L20.7536 40.2889L20.8755 46.567L20.5402 45.8051ZM17.5841 31.9994L20.9974 25.2032L23.0393 31.9994L20.9974 38.7956L17.5841 31.9994ZM21.4545 40.5327L26.9707 46.0794L28.3421 52.8451L21.5764 47.8775L21.4545 40.5327ZM26.1479 55.1004C24.8374 53.4851 23.6183 51.687 22.5517 49.7975L22.2164 49.188L28.2202 53.6375L26.2393 55.2223L26.1479 55.1004ZM30.5974 59.7632C29.3174 58.6356 28.0679 57.3556 26.7879 55.8318L26.6964 55.7099L28.6469 54.0946L31.0545 60.1289L30.5974 59.7632ZM31.9079 60.4337L29.1955 53.6985L31.9079 50.2851L34.6202 53.668L31.9079 60.4337ZM36.9669 55.8623C35.8698 57.2032 34.6202 58.4832 33.2183 59.7632L32.7307 60.2204L35.1079 54.1251L37.0583 55.7099L36.9669 55.8623ZM37.6374 55.1308L37.546 55.2527L35.5955 53.668L41.5688 49.2185L41.2031 49.8585C40.1669 51.6566 39.0088 53.3937 37.6374 55.1308ZM42.3002 47.908L35.5345 52.8756L36.906 46.0794L42.4221 40.5632L42.3002 47.908ZM40.7764 31.9994L42.8183 25.1727L46.2012 31.9994L42.7879 38.8261L40.7764 31.9994ZM44.8602 41.2946C44.464 42.6965 43.9155 44.1899 43.2755 45.7442L42.9707 46.5061L43.0317 40.2585L44.8907 41.1727L44.8602 41.2946ZM45.104 40.3194L45.0736 40.5023L43.184 39.5575L46.2012 33.5537L46.1402 34.3156C45.9879 36.2356 45.6526 38.2775 45.104 40.3194Z" fill="#1D1F1F" stroke="#1D1F1E" stroke-width="0.5"/>
</svg>
