<svg width="64" height="64" viewBox="0 0 64 64" fill="none" xmlns="http://www.w3.org/2000/svg">
<path d="M32.153 2.4375C20.7244 2.4375 11.4292 15.6946 11.4292 31.9994C11.4292 48.3042 20.7244 61.5613 32.153 61.5613C43.5816 61.5613 52.8768 48.3042 52.8768 31.9994C52.8768 15.6946 43.5816 2.4375 32.153 2.4375ZM50.8959 21.7899C51.6578 24.7156 52.0844 27.7023 52.1759 30.6889V31.1156L46.5073 24.7461L50.8349 21.5765L50.8959 21.7899ZM32.153 46.2318L24.9302 42.727L24.8997 42.6661L21.7911 31.9994L24.8997 21.2718L32.153 17.767L39.3759 21.2718L39.4063 21.3327L42.5149 31.9994V32.0299L39.4063 42.727L32.153 46.2318ZM39.2235 43.5194L38.2482 50.5899L32.793 46.6585L39.2235 43.5194ZM31.4825 46.6889L26.0273 50.5899L25.0521 43.5499L31.4825 46.6889ZM21.0901 31.9994L18.1644 38.7042L12.2216 31.9994L18.1644 25.2946L21.0901 31.9994ZM18.713 24.8375L24.1073 21.7289L21.4254 30.9937L18.713 24.8375ZM21.3949 32.9746L24.0768 42.2394L18.6825 39.1308L21.3949 32.9746ZM25.0521 20.4794L26.0273 13.4089L31.4825 17.3404L25.0521 20.4794ZM32.793 17.3099L38.2482 13.4089L39.2235 20.4489L32.793 17.3099ZM40.1987 21.7289L45.593 24.8375L42.8806 31.0242L40.1987 21.7289ZM42.9111 32.9746L45.6235 39.1613L40.2292 42.2699L42.9111 32.9746ZM43.2159 31.9994L46.1416 25.2946L52.0844 31.9994L46.1416 38.7042L43.2159 31.9994ZM47.7263 13.8356C48.9454 16.0299 49.9206 18.3461 50.6216 20.7537L50.6521 20.8451L46.4463 23.9537L47.513 13.3785L47.7263 13.8356ZM45.7454 24.1365L39.9549 20.8146L38.8882 13.1346L46.873 12.7385L45.7454 24.1365ZM40.3206 5.6375C42.7892 7.28321 44.8616 9.38607 46.4768 11.8851L46.6292 12.0985L38.8578 12.4642L40.1073 5.5156L40.3206 5.6375ZM33.0673 3.13845C35.2921 3.29083 37.4863 3.99179 39.4368 5.1194L39.5282 5.18036L38.3397 11.9156L32.7625 3.10798L33.0673 3.13845ZM38.0654 12.7385L32.153 16.9746L26.2406 12.7385L32.153 3.41274L38.0654 12.7385ZM24.8692 5.08893C26.7892 3.96131 29.014 3.29083 31.2387 3.10798L31.5435 3.0775L25.9663 11.9156L24.7778 5.14988L24.8692 5.08893ZM17.7682 11.8546C19.3835 9.3556 21.4863 7.28321 23.9549 5.60702L24.1378 5.48512L25.3568 12.4337L17.6159 12.068L17.7682 11.8546ZM25.3873 13.1346L24.3206 20.8146L18.5302 24.1365L17.3721 12.7385L25.3873 13.1346ZM13.6844 20.7842C14.3854 18.3765 15.3606 16.0604 16.5797 13.8661L16.8235 13.4394L17.8902 23.9842L13.654 20.8756L13.6844 20.7842ZM12.1302 30.6889C12.2216 27.7023 12.6787 24.6851 13.4406 21.7899L13.5016 21.5765L17.8292 24.7461L12.1302 31.1156V30.6889ZM13.4102 42.2089C12.6482 39.2832 12.1911 36.2966 12.0997 33.3099V32.8832L17.7987 39.2527L13.4711 42.4223L13.4102 42.2089ZM16.5797 50.1632C15.3606 47.9689 14.3854 45.6527 13.6844 43.2451L13.654 43.1537L17.8597 40.0451L16.8235 50.5899L16.5797 50.1632ZM18.5606 39.8623L24.3511 43.1842L25.4178 50.8642L17.433 51.2604L18.5606 39.8623ZM23.9549 58.3613C21.4863 56.7156 19.414 54.6127 17.7682 52.1137L17.6159 51.9004L25.3568 51.5346L24.1378 58.4832L23.9549 58.3613ZM31.2387 60.8604C29.014 60.708 26.8197 60.007 24.8692 58.8794L24.7778 58.8185L25.9663 52.0832L31.5435 60.8604H31.2387ZM32.153 60.5861L26.2406 51.2604L32.153 47.0242L38.0654 51.2604L32.153 60.5861ZM39.4368 58.9099C37.5168 60.0375 35.2921 60.708 33.0673 60.8908L32.7625 60.9213L38.3397 52.1137L39.5282 58.8794L39.4368 58.9099ZM46.5073 52.1442C44.8921 54.6432 42.7892 56.7156 40.3206 58.3918L40.1378 58.5137L38.9187 51.5651L46.6597 51.9308L46.5073 52.1442ZM38.8882 50.8642L39.9549 43.1842L45.7454 39.8623L46.9035 51.2604L38.8882 50.8642ZM50.5911 43.2146C49.8901 45.6223 48.9149 47.9385 47.6959 50.1327L47.4521 50.5594L46.3854 40.0146L50.5911 43.1232V43.2146ZM50.8654 42.2089L50.8044 42.4223L46.5073 39.2527L52.1759 32.8832V33.3099C52.0844 36.2966 51.6273 39.3137 50.8654 42.2089Z" fill="#1D1F1F" stroke="#1D1F1E" stroke-width="0.5"/>
</svg>
