<svg width="64" height="64" viewBox="0 0 64 64" fill="none" xmlns="http://www.w3.org/2000/svg">
<path d="M33.1582 2.62036C33.0363 2.49845 32.8839 2.4375 32.7011 2.4375C32.5182 2.4375 32.3658 2.49845 32.2134 2.62036C28.7696 5.6375 11.5811 21.6375 11.5811 40.4108C11.5811 54.247 18.8953 61.5613 32.7011 61.5613C46.5372 61.5613 53.8211 54.247 53.8211 40.4108C53.8211 20.9366 35.2611 4.41845 33.1582 2.62036ZM51.8401 31.3289C52.3887 33.2794 52.7849 35.2604 52.9982 37.2718V37.3023C52.9982 37.3327 52.9982 37.3632 52.9982 37.4242C52.9982 37.4546 52.9982 37.4851 52.9982 37.5156C52.9982 37.607 53.0287 37.6985 53.0287 37.8204C53.0592 38.2165 53.1201 38.7956 53.1506 39.2223L52.8458 38.7346L52.3277 37.9423L48.6401 32.1213L51.8096 31.1765L51.8401 31.3289ZM48.4572 22.9175C48.4572 22.9175 48.5487 23.1004 48.7315 23.4356C48.762 23.4965 48.7925 23.5575 48.823 23.6185C49.9201 25.8127 50.8649 28.0985 51.5658 30.4146L51.6268 30.567L48.4572 31.5118V22.9175ZM53.1201 40.4108L48.2134 48.1518L45.0439 39.6794L48.183 32.6699L53.1201 40.4108ZM32.7011 51.6261L24.4725 48.6394L24.442 48.5785L21.0896 39.6489V39.588L24.503 25.9651L24.5334 25.9346L32.6706 18.5289L40.8382 25.9651V25.9956L44.2515 39.6185L40.8687 48.6089L32.7011 51.6261ZM40.6249 49.4623L38.7049 54.5823L33.5849 52.0223L40.6249 49.4623ZM31.8782 52.0527L26.7582 54.6127L24.8382 49.4927L31.8782 52.0527ZM20.7849 40.6242L23.7715 48.548H17.7982L20.7849 40.6242ZM20.6934 38.6432L17.7372 32.0299L23.6801 26.7575L20.6934 38.6432ZM24.7772 24.868L26.7582 14.8108L32.1525 18.1632L24.7772 24.868ZM33.2801 18.1632L38.6439 14.8108L40.6553 24.868L33.2801 18.1632ZM41.7525 26.7575L47.6953 32.0299L44.7392 38.6432L41.7525 26.7575ZM44.6477 40.6242L47.6344 48.548H41.6611L44.6477 40.6242ZM47.7868 31.207L41.5087 25.5994V25.5385L39.4058 15.0242L47.7868 21.5765V31.207ZM41.7525 12.6775C43.3372 14.6585 44.8611 16.7613 46.202 18.9251C46.202 18.9556 46.2325 18.9556 46.2325 18.9861C46.2325 19.0165 46.263 19.047 46.2934 19.047C46.3544 19.1385 46.4153 19.2604 46.5068 19.3823C46.5677 19.4737 46.5982 19.5651 46.6592 19.6261C46.7201 19.7175 46.7506 19.7785 46.8115 19.8699V19.9004C46.842 19.9308 46.842 19.9613 46.842 19.9613C46.903 20.0527 46.9334 20.1137 46.9334 20.1442L46.263 19.6261L45.4401 18.9861L39.4058 14.2927L41.6306 12.5861L41.7525 12.6775ZM33.8896 4.14417C33.9201 4.17464 33.9811 4.20512 34.0115 4.26607C34.042 4.29655 34.0725 4.32702 34.0725 4.32702C34.2249 4.44893 34.4077 4.63179 34.5601 4.81464C34.6211 4.8756 34.682 4.93655 34.743 4.9975C34.7734 5.02798 34.8039 5.05845 34.8039 5.05845C34.8344 5.08893 34.8649 5.1194 34.8649 5.1194C37.0592 7.25274 39.162 9.50798 41.1125 11.8851L41.2039 12.007L38.9182 13.7137L34.6515 5.6375L34.2858 4.96702L33.8896 4.14417ZM32.7315 3.38226L38.4611 14.1099L32.7315 17.7061L27.002 14.1099L32.7315 3.38226ZM24.2896 11.9156C26.2706 9.50798 28.3734 7.19179 30.6592 5.02798C31.2687 4.41845 31.5125 4.2356 31.543 4.20512L31.1163 4.9975L30.6592 5.88131L26.4839 13.7442L24.1982 12.0375L24.2896 11.9156ZM18.9563 19.3213C19.1087 19.0775 19.2306 18.8946 19.2915 18.8032C20.6325 16.7004 22.0953 14.628 23.6496 12.6775L23.7411 12.5556L25.9658 14.2623L19.8706 19.0165L19.1392 19.5956L18.4382 20.1442C18.4687 20.0832 18.743 19.687 18.9563 19.3213ZM17.6458 21.607L26.0572 15.0546L23.9239 25.5994L17.6458 31.207V21.607ZM20.3887 39.6794L17.2192 48.1823L12.3125 40.4108L17.2496 32.6699L20.3887 39.6794ZM13.8668 30.4146C14.5982 28.1289 15.5125 25.8737 16.5792 23.7099C16.823 23.1918 17.0058 22.8565 17.0058 22.8565V24.228V31.5118L13.8363 30.567L13.8668 30.4146ZM12.3125 38.5213C12.3125 38.4908 12.3125 38.4604 12.3125 38.4299C12.3125 38.3994 12.3125 38.3689 12.3125 38.3385C12.3125 38.247 12.3125 38.1556 12.343 38.0946C12.5258 35.8089 12.922 33.5537 13.5925 31.3594L13.623 31.207L16.7925 32.1518L13.1658 37.8813L12.5868 38.7651L12.282 39.2527C12.2515 39.2527 12.282 38.887 12.3125 38.5213ZM18.8039 56.868C14.8115 53.7289 12.6477 48.7918 12.3125 42.2089L12.282 41.6299L17.0058 49.0661L19.1696 57.1423L18.8039 56.868ZM17.7372 49.2489H23.9849L26.1182 54.887L19.9315 57.447L17.7372 49.2489ZM31.5125 60.8908C27.1849 60.7385 23.5582 59.8242 20.6934 58.1175L20.4192 57.9651L26.4839 55.4661L31.9087 60.8908H31.5125ZM27.1239 55.1613L32.7315 52.3575L38.3392 55.1613L32.7011 60.7385L27.1239 55.1613ZM44.7392 58.087C41.8744 59.7632 38.2172 60.708 33.9201 60.8604L33.5239 60.8908L38.9487 55.4661L39.0401 55.4966L45.0134 57.9346L44.7392 58.087ZM39.3144 54.887L41.4477 49.2489H47.7258L45.5011 57.447L39.3144 54.887ZM53.1201 42.2089C52.7849 48.7918 50.6211 53.7289 46.6287 56.868L46.263 57.1423L48.4268 49.0356L53.1506 41.6299L53.1201 42.2089Z" fill="#1D1F1F" stroke="#1D1F1E" stroke-width="0.5"/>
</svg>
