<svg width="64" height="64" viewBox="0 0 64 64" fill="none" xmlns="http://www.w3.org/2000/svg">
<path d="M61.2264 2.77311C61.0741 2.62073 60.8912 2.5293 60.6779 2.5293H3.32168C3.10834 2.5293 2.92549 2.62073 2.77311 2.77311C2.62073 2.92549 2.5293 3.10834 2.5293 3.32168V60.6474C2.5293 60.8607 2.62073 61.0436 2.77311 61.196C2.92549 61.3483 3.10834 61.4398 3.32168 61.4398H60.6474C60.8607 61.4398 61.0436 61.3483 61.196 61.196C61.3483 61.0436 61.4398 60.8607 61.4398 60.6474V3.32168C61.4702 3.10834 61.3788 2.92549 61.2264 2.77311ZM60.7388 4.96739V19.0169H55.7712L59.5198 8.38073L60.2207 6.39977L60.7388 4.96739ZM44.9522 3.26073H59.3064L58.0874 3.74834L56.8074 4.26644L44.9522 9.14263V3.26073ZM44.9522 9.93501L60.495 3.53501L55.0093 18.9864L44.9522 19.0474V9.93501ZM53.7902 44.2512H45.1045L49.4626 33.0055L53.7902 44.2512ZM45.135 19.7483H53.7902L49.4931 31.0245L45.135 19.7483ZM53.4855 41.3864L52.9369 39.9541L49.8893 31.9998L49.9198 31.9083L52.8455 24.2893L53.4855 22.6131L53.9731 21.3026V42.6664L53.4855 41.3864ZM19.7483 3.26073H44.2512V9.35596H19.7483V3.26073ZM44.2512 10.2093V18.8645L32.975 14.5369L44.2512 10.2093ZM31.9998 14.1712L24.015 11.0931L22.5826 10.5445L21.3026 10.0569H42.6969L41.3864 10.5445L40.2283 10.9712L31.9998 14.1712ZM19.7483 10.2093L30.9941 14.5369L19.7483 18.8645V10.2093ZM19.0474 3.26073V9.17311L6.67406 4.08358L5.91215 3.77882L4.69311 3.2912H19.0474V3.26073ZM19.0474 9.99596V19.0779H8.99025L3.50453 3.62644L19.0474 9.99596ZM14.5674 32.975L18.895 44.2512H10.2093L14.5674 32.975ZM10.0569 42.6969V21.3026L10.5445 22.6131L11.1541 24.1674L14.1712 31.9998L11.0017 40.2283L10.5445 41.3864L10.0569 42.6969ZM14.5369 31.0245L10.2398 19.7483H18.895L14.5369 31.0245ZM3.26073 4.96739L3.77882 6.39977L4.23596 7.67977L8.22834 19.0474H3.26073V4.96739ZM3.26073 19.7483H9.32549V44.2512H3.26073V19.7483ZM3.26073 59.0322V44.9826H8.22834L4.29692 56.076L3.74834 57.5998L3.26073 59.0322ZM19.0474 60.7388H4.69311L5.91215 60.2512L6.76549 59.916L19.0474 54.8569V60.7388ZM19.0474 54.0645L3.50453 60.4645L8.99025 45.0131L19.0474 44.9826V54.0645ZM44.2512 60.7388H19.7483V54.6436H44.2512V60.7388ZM19.7483 53.7902L19.7788 45.135L31.0245 49.4626L19.7483 53.7902ZM31.9998 49.8588L32.0912 49.8893L39.9541 52.9064L41.4169 53.455L42.7274 53.9426H39.6188H24.2588H21.3026L22.6131 53.455L23.9541 52.9369L31.9998 49.8588ZM44.2512 53.7902L32.975 49.4626L44.2512 45.135V53.7902ZM31.9998 49.0664L19.6874 44.3122L14.9331 31.9998L19.6874 19.6569L31.9998 14.9331L44.3426 19.6874L49.0664 31.9998L49.036 32.0912L44.3121 44.3426L31.9998 49.0664ZM44.9522 60.7388V54.8569L56.5026 59.6112L58.0874 60.2512L59.3064 60.7388H44.9522ZM44.9522 54.0645V44.9826H55.0093L55.0702 45.1655L60.495 60.4645L44.9522 54.0645ZM60.7388 59.0322L60.2207 57.5998L59.6112 55.8322L55.7712 44.9522H60.7388V59.0322ZM60.7388 20.0226V44.2512H54.6741V19.7483H60.7388V20.0226Z" fill="#1D1F1F" stroke="#1D1F1E" stroke-width="0.5"/>
<path d="M56.5024 59.5801L58.0872 60.2506L56.5024 59.5801Z" fill="white" stroke="#1D1F1E" stroke-width="0.15"/>
</svg>
