<svg width="64" height="64" viewBox="0 0 64 64" fill="none" xmlns="http://www.w3.org/2000/svg">
<path d="M61.2732 13.2569L50.698 2.68168L50.3628 2.5293H13.578L13.2428 2.68168L2.66752 13.2569L2.51514 13.6226V50.4074L2.66752 50.7426L13.2428 61.3179L13.578 61.4702H50.3628L50.698 61.3179L61.2732 50.7426L61.4256 50.4074V13.6226L61.2732 13.2569ZM50.5151 3.47406L60.4199 13.4093L55.3304 15.5426L48.3818 8.59406L50.5151 3.47406ZM16.2294 54.796V46.9941L30.5837 50.4683L16.2294 54.796ZM19.978 54.3998L21.5932 53.9121L31.9247 50.8036L41.5856 53.7293L43.8713 54.4302L45.5475 54.9483H18.3018L19.978 54.3998ZM33.2656 50.4683L47.6199 46.9941V54.796L33.2656 50.4683ZM31.9551 50.0722L31.8942 50.0417L16.2294 46.2322L13.8523 31.9693V31.9388L16.2294 17.7064L31.9551 13.8969H32.0161L47.6809 17.7064L47.7113 17.8893L50.058 31.9998V32.0302L47.6809 46.2626L31.9551 50.0722ZM9.00657 18.316L9.52466 19.9922L9.92085 21.3026L13.1209 31.9693L9.92085 42.6055L9.52466 43.916L9.00657 45.5922V18.316ZM15.498 17.7064L13.7913 28.0379L13.578 29.3179L13.3951 30.415L13.0904 29.3483L12.4809 27.3674L9.15895 16.4264L15.498 17.7064ZM9.37228 15.756L15.5589 9.5693V17.0055L9.37228 15.756ZM12.5723 36.236L13.0599 34.6207L13.3647 33.5541L13.5475 34.6512L13.7609 36.0226L15.4675 46.2931L9.15895 47.5426L12.5723 36.236ZM15.5589 46.9636V54.3998L9.37228 48.1826L15.5589 46.9636ZM47.6504 9.14263V16.9445L33.2961 13.4702L47.6504 9.14263ZM43.9323 9.53882L42.4389 9.99596L31.9551 13.1655L21.6237 10.0264L20.0085 9.53882L18.3323 9.02072H45.6085L43.9323 9.53882ZM30.6142 13.4702L16.2599 16.975V9.14263L30.6142 13.4702ZM50.5151 30.415L50.3323 29.3179L49.8142 26.1483L48.4123 17.676L54.7513 16.396L51.5818 26.9102L50.8504 29.3483L50.5151 30.415ZM48.3209 16.975V9.53882L54.5075 15.756L48.3209 16.975ZM48.3209 46.9636L54.5075 48.2131L48.3209 54.3998V46.9636ZM48.3818 46.2626L50.0275 36.4493L50.3323 34.6207L50.5151 33.5236L50.8199 34.5902L51.3685 36.4493L54.7209 47.5426L48.3818 46.2626ZM54.3856 43.9464L53.837 42.0874L50.7894 31.9693L53.9285 21.5769L54.3856 20.0226L54.9037 18.3464V45.6226L54.3856 43.9464ZM49.8447 3.19977L47.7113 8.31977H16.138L14.0351 3.19977H49.8447ZM13.3647 3.47406L15.498 8.59406L8.54942 15.5426L3.4599 13.4093L13.3647 3.47406ZM3.18561 14.0798L8.30561 16.1826V47.7864L3.18561 49.8893V14.0798ZM13.3647 60.4645L3.42942 50.5293L8.54942 48.4264L15.498 55.375L13.3647 60.4645ZM14.0351 60.7388L16.138 55.6188H47.7418L49.8751 60.7388H14.0351ZM50.5151 60.4645L48.4123 55.3445L55.3609 48.396L60.4809 50.4988L50.5151 60.4645ZM60.7247 49.8893L55.6047 47.7864V16.1826L60.7247 14.0798V49.8893Z" fill="#1D1F1F" stroke="#1D1F1E" stroke-width="0.5"/>
</svg>
