<svg width="64" height="64" viewBox="0 0 64 64" fill="none" xmlns="http://www.w3.org/2000/svg">
<path d="M61.2877 28.4036C61.0743 26.8798 60.7086 25.0207 60.3429 23.8322C57.2343 13.1045 48.4877 5.15025 37.5467 3.04739C35.901 2.74263 34.1639 2.55977 32.3962 2.5293C32.2743 2.5293 32.1829 2.5293 32.061 2.5293C30.4153 2.5293 28.7696 2.6512 27.2153 2.92549C20.9067 3.96168 15.421 6.82644 10.9105 11.4283C9.38671 12.9826 8.381 14.2322 7.25338 15.9693C4.26671 20.6017 2.68195 25.7217 2.52957 31.2074C2.37719 37.1502 3.96195 42.8798 7.101 47.8169C11.3372 54.4302 18.0724 59.1541 25.6 60.7998C26.7277 61.0436 28.7696 61.3483 29.7448 61.4398H29.7753C30.9029 61.5312 34.4686 61.4398 35.5658 61.2874C42.2705 60.4036 48.061 57.5693 52.8153 52.8455C57.4781 48.1826 60.3124 42.3922 61.2572 35.596C61.501 33.9807 61.501 30.0188 61.2877 28.4036ZM53.4248 12.8302C54.6439 14.2017 55.8629 15.8169 56.7467 17.2798C57.021 17.7369 57.4172 18.4379 57.7829 19.1693C58.1181 19.8093 58.362 20.3579 58.4534 20.6017L58.5753 20.9064L58.2705 20.9369C58.1486 20.9979 57.9658 21.0588 57.722 21.1502C57.2648 21.3331 56.6248 21.6074 55.9848 21.8817C54.7658 22.3998 53.7905 22.796 53.4248 22.9483L53.0591 23.1007V20.9064C53.0591 19.5045 53.0286 16.8836 52.9981 15.055L52.9677 12.3122L53.4248 12.8302ZM52.3581 20.0531C52.3581 21.0588 52.3886 21.8817 52.3886 22.4912C52.3886 22.5826 52.3886 22.6436 52.3886 22.7045V23.1312L52.0534 23.0093C51.8096 22.9483 51.5353 22.8264 51.1696 22.7045C50.3162 22.4302 49.2191 22.0341 48.122 21.6683C47.0248 21.3026 45.9277 20.9064 45.1048 20.6322C44.6781 20.4798 44.3429 20.3579 44.0991 20.2664L43.7943 20.1445L43.7334 19.9922C43.6724 19.8398 43.6115 19.6264 43.5201 19.3826C43.3372 18.8645 43.1239 18.1636 42.88 17.4322C42.301 15.6341 41.8743 14.2322 41.5696 13.2569C41.4477 12.8912 41.3867 12.6474 41.3258 12.4341L41.2039 12.0074H41.5391C41.8134 12.0074 42.1791 12.0074 42.6362 12.0074C43.6724 12.0074 45.1048 12.0074 46.6896 12.0074H52.3581V14.2626C52.2972 15.5731 52.3277 18.1941 52.3581 20.0531ZM38.5524 44.7693C36.0534 45.8055 33.4934 46.8722 32.8229 47.1464L31.7258 47.6036L28.9524 46.476C25.6 45.1045 23.2839 44.1598 21.9734 43.6112C21.3639 43.3674 20.9677 43.1845 20.7239 43.0931C20.6324 43.0626 20.5715 43.0322 20.5105 43.0017L20.4191 42.9712L20.3886 42.8798C20.3886 42.8493 20.3581 42.8493 20.3581 42.7883C20.2972 42.6664 20.2362 42.4836 20.1143 42.2702C19.9315 41.8436 19.6572 41.2341 19.4134 40.5941C18.8648 39.3141 17.8286 36.8455 17.1277 35.1083C16.762 34.2245 16.4267 33.4322 16.1829 32.8531C16.061 32.5483 15.9696 32.3045 15.9086 32.1522L15.8172 31.9388L15.9696 31.5426C16.0915 31.2379 16.2743 30.8417 16.4877 30.3236C16.9143 29.2874 17.5239 27.8855 18.1943 26.3617L20.5715 20.8455L21.3639 20.5103C23.6496 19.5655 29.1658 17.3407 29.8972 17.0055C30.72 16.6702 31.2077 16.4569 31.5124 16.3655C31.6343 16.3045 31.6953 16.3045 31.7562 16.2741L31.8477 16.2436L32.0915 16.335C32.1524 16.3655 32.2439 16.396 32.3048 16.4264C32.6096 16.5483 33.0362 16.7007 33.5543 16.9141C34.621 17.3407 36.0534 17.8893 37.6077 18.5293L43.2153 20.7541L45.3181 25.935C46.5067 28.8302 47.5429 31.3598 47.6039 31.5731L47.7258 31.8779L47.421 32.5483C47.2381 32.975 46.1715 35.4741 45.0439 38.156L43.0324 42.9102L38.5524 44.7693ZM42.7581 43.8245L42.6058 44.3426C42.1791 45.7445 40.9905 49.8283 40.7162 50.8036C40.6248 51.1388 40.5334 51.3826 40.4724 51.6264L40.381 51.9007L40.1067 51.7788C39.8629 51.6569 39.5886 51.535 39.2229 51.3521C38.4305 50.956 37.3943 50.4379 36.3581 49.9198C35.322 49.4017 34.2858 48.8836 33.5239 48.4874L32.64 48.0302L33.4629 47.695C34.1943 47.3902 35.2001 46.9636 36.2972 46.5064C37.0896 46.1712 38.1867 45.7141 38.7353 45.5007L41.4477 44.3731C41.7524 44.2512 41.9353 44.1902 42.1181 44.0988L42.7581 43.8245ZM30.9029 48.0302L30.3848 48.2741C29.8972 48.4874 29.0439 48.9141 28.3124 49.2798C27.5201 49.6455 26.5143 50.1636 26.0267 50.3769C25.5696 50.5902 24.6858 51.0169 24.1067 51.2912C23.8629 51.4131 23.68 51.5045 23.4972 51.596L23.2229 51.7179L22.9181 50.7426C22.6743 49.9807 22.3696 48.9445 22.0039 47.8169C21.6381 46.6893 20.9981 44.6169 20.9677 44.4645L20.8153 43.9464L21.3029 44.1293C21.3029 44.1293 22.4915 44.5864 23.2229 44.8912C24.5334 45.4093 26.4534 46.2017 27.5201 46.6588C27.7639 46.7502 28.6477 47.116 29.5924 47.5121C29.8362 47.6036 30.0191 47.695 30.2324 47.756L30.9029 48.0302ZM15.1467 33.3407L15.3905 32.8531L15.6039 33.3407C15.7562 33.6455 15.8781 33.9807 16.061 34.4379C16.5486 35.596 17.1886 37.1198 17.7981 38.5522C18.042 39.1007 18.5296 40.3198 18.9258 41.2341C19.0781 41.5693 19.1696 41.8741 19.2915 42.1483L19.5048 42.6969L18.9562 42.5141C18.4991 42.3617 16.6705 41.7217 14.8724 41.0817C13.9581 40.7769 13.1353 40.4722 12.5562 40.2588L11.7943 39.9845L11.9162 39.7102C12.0077 39.5274 12.0991 39.3141 12.2515 39.0398C12.5867 38.3388 13.0743 37.3636 13.6229 36.3274C14.1715 35.2302 15.1467 33.3407 15.1467 33.3407ZM15.0553 30.4455C14.6896 29.7445 14.1105 28.6169 13.2877 27.0626C12.861 26.2398 12.3124 25.1426 12.0381 24.6855C11.9772 24.5331 11.9162 24.4417 11.8553 24.3198L11.7029 24.015L11.9772 23.9236C12.221 23.8322 12.4953 23.7407 12.861 23.6188C13.6534 23.3445 14.72 22.9483 15.7867 22.5826C16.8534 22.2169 17.92 21.8512 18.7124 21.5769C18.8648 21.516 19.1086 21.455 19.1086 21.455L19.6572 21.2722L19.322 22.095C18.9258 23.0093 18.2248 24.655 16.8839 27.7636C16.4267 28.7998 16.0305 29.7445 15.7258 30.415L15.3905 31.1769L15.0553 30.4455ZM20.8458 19.9617L21.0896 19.1998C21.3029 18.5293 21.5772 17.6455 21.882 16.6398C22.5524 14.476 23.0705 12.8302 23.101 12.7388L23.2839 12.1598L23.5581 12.2817C23.741 12.3731 23.9543 12.4645 24.2286 12.5864C26.6667 13.7445 28.4343 14.5979 29.562 15.1464C29.8972 15.2988 30.141 15.4207 30.3543 15.5426L30.9639 15.8474L25.5086 18.0722C24.1372 18.6207 22.8877 19.1388 21.9734 19.5045L20.8458 19.9617ZM32.701 15.8474L33.2496 15.6036C33.7067 15.3902 34.4381 15.0245 35.3524 14.5979C37.0286 13.8055 38.3696 13.1655 39.2839 12.7388L39.4058 12.6779C39.7105 12.5255 39.802 12.495 40.0153 12.4036L40.4724 12.1902L40.7772 13.135C40.9905 13.836 41.2953 14.7502 41.6 15.7255C42.1181 17.4017 42.5753 18.8341 42.7581 19.4436L42.9105 19.9617L37.9429 17.9807C36.48 17.4017 35.1086 16.8531 34.1029 16.4569L32.701 15.8474ZM45.4705 38.9179C46.3543 36.815 47.3601 34.4683 47.8781 33.2493C47.8781 33.2188 47.9086 33.2188 47.9086 33.1883L48.122 32.7617L48.3658 33.1579C48.3658 33.1579 49.6153 35.3826 50.1639 36.3579C50.7124 37.3331 51.2305 38.3083 51.6267 39.0093C51.7791 39.3141 51.901 39.5274 52.0229 39.7407L52.1753 40.015L51.6267 40.1979C51.1391 40.3502 50.4686 40.5636 49.7372 40.8074C48.3048 41.2645 46.3848 41.9045 45.3791 42.2398L45.3181 42.2702C44.9524 42.3922 44.6781 42.4836 44.3734 42.575L43.8248 42.7579L45.4705 38.9179ZM48.1524 31.0855L47.9391 30.5369C47.7258 30.0188 47.421 29.2569 47.0858 28.4341C46.4153 26.7883 44.3429 21.6379 44.3429 21.6379L44.1296 21.1198L45.1048 21.4245C45.9277 21.6988 46.9943 22.0341 48.0915 22.3998C49.1581 22.7655 50.2553 23.1312 51.0781 23.4055C51.4439 23.5274 51.7181 23.6188 51.9315 23.7102L52.2362 23.8017L52.0229 24.1674C51.84 24.5331 51.5658 25.0207 51.261 25.5388C50.7124 26.5141 49.981 27.855 49.4629 28.7693C49.2496 29.135 48.8534 29.836 48.5486 30.3845L48.1524 31.0855ZM43.6115 5.66834L43.9772 5.82073C44.282 5.94263 44.8305 6.21692 45.6229 6.64358C47.6953 7.7712 49.8896 9.32549 51.5353 10.8493L52.0229 11.3064H41.2343L41.4172 10.9102C41.8743 9.87406 42.4229 8.56358 42.88 7.52739C43.0934 7.0093 43.52 5.94263 43.5505 5.91215L43.6115 5.66834ZM33.5543 3.2912C35.7791 3.41311 38.0953 3.8093 40.1067 4.38834C40.5943 4.54073 41.3562 4.78453 41.9962 5.02834C42.301 5.11977 42.5448 5.24168 42.7277 5.30263L42.9715 5.39406L42.88 5.63787C42.8191 5.79025 42.7581 5.94263 42.6972 6.15596C42.4534 6.70454 42.1486 7.46644 41.8134 8.25882C41.4477 9.08168 41.1429 9.81311 40.8991 10.3617L40.6248 11.0017L40.0762 10.4836C39.6191 10.0264 38.9791 9.41692 38.2477 8.68549C37.3029 7.74073 33.4324 3.8093 33.3715 3.77882L32.9143 3.2912H33.5543ZM36.0534 7.43596C37.2115 8.59406 38.2477 9.66073 39.0096 10.4531C39.3448 10.7883 39.6191 11.0626 39.802 11.276L40.0458 11.5198L39.6191 11.7331C39.4972 11.7941 39.3448 11.855 39.162 11.9464C38.4915 12.2817 37.5467 12.7388 36.5105 13.2264C34.4381 14.2017 32.5181 15.116 32.2439 15.2683L31.8172 15.4512L31.1467 15.1464C30.1715 14.6893 28.4343 13.836 26.0877 12.7083C25.1429 12.2512 24.32 11.855 23.9848 11.7026L23.7105 11.5807L23.9239 11.276C24.1981 11.0017 24.5334 10.636 24.9601 10.2398C25.7524 9.44739 27.7029 7.55787 29.2877 6.00358L32 3.35215L36.0534 7.43596ZM21.0591 5.39406C21.2724 5.27215 21.6077 5.15025 22.0039 4.99787C22.8572 4.69311 23.9239 4.35787 24.8381 4.11406C26.6972 3.62644 28.4343 3.38263 30.4458 3.26073L31.1467 3.23025L30.6591 3.71787C30.6591 3.71787 26.7581 7.55787 25.7524 8.56358C25.082 9.23406 24.5943 9.6912 24.2591 10.0264C23.9239 10.3617 23.68 10.575 23.4972 10.7274L23.2229 10.9712L22.8572 10.1179C22.6134 9.5693 22.3086 8.86834 22.0343 8.19787C21.7296 7.49692 21.4248 6.79596 21.2115 6.27787C21.12 6.03406 21.0286 5.8512 20.9677 5.69882L20.8762 5.48549L21.0591 5.39406ZM12.4953 10.8493C13.8362 9.63025 15.421 8.4112 16.8839 7.52739C17.3715 7.22263 18.1639 6.76549 18.9258 6.3693H18.9562C19.2915 6.18644 19.4439 6.09501 19.6877 6.00358L20.1753 5.75977L20.2667 6.00358C20.2667 6.00358 21.12 7.95406 21.5467 8.95977L22.5524 11.276H22.0343C21.9429 11.276 21.882 11.276 21.7296 11.276C20.9981 11.276 19.84 11.3064 17.8591 11.3064H17.1886H12.0381L12.4953 10.8493ZM11.5505 11.9769H17.0972C18.682 11.9769 20.1143 11.9769 21.181 11.9769C21.6381 11.9769 21.9734 11.9769 22.2477 11.9769H22.5829L22.4915 12.3122C22.4001 12.6474 22.2477 13.0741 22.1258 13.5617C21.821 14.5369 21.4858 15.6341 21.3639 15.9693C21.0286 17.0969 20.6934 18.1941 20.4191 18.9864C20.2972 19.3826 20.1753 19.6874 20.1143 19.9312C20.0839 20.0226 20.0534 20.0836 20.0229 20.1445L19.9924 20.236L19.901 20.2969C19.84 20.3274 19.7181 20.3579 19.5048 20.4493C19.0477 20.6017 18.2553 20.9064 16.4877 21.516C15.2077 21.9731 13.5315 22.5522 12.7696 22.8264C12.4343 22.9483 12.16 23.0398 11.9162 23.1312L11.581 23.2836V22.9179C11.581 22.6436 11.581 22.3083 11.581 21.8207C11.581 20.7541 11.581 19.2912 11.581 17.6455V11.9769H11.5505ZM5.57719 20.6017C5.821 19.9617 6.73529 18.2245 7.25338 17.3102C8.04576 15.9693 9.11243 14.5064 10.3924 13.0131L10.8496 12.495V17.7369C10.8496 19.3522 10.8496 20.7845 10.8496 21.8512C10.8496 22.2779 10.8496 22.5522 10.8496 22.8264V23.2226L10.4534 23.0398C10.0267 22.8569 9.41719 22.5826 8.77719 22.2779C7.46671 21.6683 6.18671 21.0893 5.85148 20.9674L5.48576 20.815L5.57719 20.6017ZM3.261 30.4455C3.38291 28.5864 3.62671 26.7883 4.02291 25.2341C4.17529 24.655 4.48005 23.6188 4.75433 22.8264C4.90671 22.3998 5.02862 22.0341 5.12005 21.7598L5.21148 21.516L5.45529 21.6074L5.94291 21.8207C6.49148 22.0645 7.19243 22.3693 7.89338 22.7045C8.59433 23.0398 9.32576 23.3445 9.87433 23.5883L10.5448 23.8931L10.2096 24.2588C10.1181 24.3502 10.0267 24.4417 9.87433 24.6245C9.20386 25.295 8.04576 26.4226 5.66862 28.7693C4.75433 29.6836 4.11433 30.2626 3.71814 30.6893L3.23052 31.1464L3.261 30.4455ZM5.39433 42.9407L5.27243 42.6664C5.21148 42.5141 5.15052 42.3617 5.0591 42.1179C4.81529 41.4779 4.57148 40.6855 4.35814 40.015C3.7791 38.1255 3.41338 35.9007 3.261 33.4626L3.23052 32.7922L4.48005 34.0112C6.461 35.9312 8.53338 37.9731 9.7829 39.1617C10.0572 39.4055 10.2705 39.6493 10.4534 39.8321L10.6972 40.076L10.3924 40.2588C10.2096 40.3502 10.0267 40.4722 9.60005 40.6855C8.65529 41.2036 8.44195 41.3255 6.58291 42.3312C6.21719 42.5141 5.88195 42.6969 5.63814 42.8188L5.39433 42.9407ZM10.9105 46.1712C10.88 47.756 10.88 49.2188 10.8496 50.255L10.8191 51.4741L10.362 50.956C10.0877 50.6512 9.72195 50.2245 9.44767 49.8588C8.74671 49.0055 7.92386 47.8169 7.28386 46.7502C7.00957 46.2931 6.58291 45.4702 6.24767 44.8607C6.06481 44.5255 5.91243 44.1902 5.79052 43.9464L5.63814 43.6417L5.85148 43.5198C5.97338 43.4588 10.362 41.0512 10.5448 40.9598L10.941 40.7464L10.9105 46.1712ZM11.1848 39.5274L10.6972 39.0702C10.2705 38.6741 9.661 38.095 8.96005 37.4245C7.46671 35.9617 5.66862 34.2245 4.17529 32.7617L3.38291 31.9998L4.75433 30.6283C7.31433 28.0988 8.92957 26.5141 9.90481 25.5388C10.362 25.1122 10.6362 24.8379 10.8496 24.6245L11.0934 24.3807L11.3067 24.7464C11.4896 25.1122 11.7639 25.5998 12.0381 26.1483C12.6172 27.2455 13.5315 29.0131 14.08 30.0798L15.0248 31.9083L13.1048 35.8093C12.5562 36.876 12.0381 37.8817 11.6724 38.5826C11.52 38.8569 11.4286 39.0398 11.3372 39.2226L11.1848 39.5274ZM11.6115 46.2322C11.6115 44.6169 11.642 43.1541 11.6724 42.1179C11.6724 41.6607 11.6724 41.3255 11.6724 41.0207V40.655L12.0381 40.7769C12.221 40.8379 12.4039 40.8988 12.6781 40.9902C13.44 41.2645 14.4762 41.5998 15.5124 41.9655C16.5486 42.3312 17.5848 42.6969 18.4077 42.9712C18.8039 43.1236 19.1391 43.2455 19.3829 43.3369C19.5048 43.3979 19.5962 43.4283 19.6877 43.4588L19.8096 43.4893L19.8705 43.5807C19.9315 43.6721 19.9924 43.8855 20.1143 44.1598C20.3277 44.7693 20.6934 45.8969 21.2724 47.7255C21.6381 48.8836 21.9734 49.9807 22.2172 50.7426L22.522 51.7788H22.1867C21.9429 51.7788 21.6686 51.7788 21.3029 51.7788H21.12C20.0839 51.7788 18.6515 51.8093 17.0667 51.8093H11.5505L11.6115 46.2322ZM20.1448 58.2093L19.901 58.0874C19.7486 58.0264 19.5962 57.9655 19.4439 57.8741C16.701 56.5026 14.3239 54.8569 12.3734 52.9979L11.9162 52.5407H17.0972C19.4134 52.5407 20.7848 52.5407 21.6381 52.5712C21.7905 52.5712 21.882 52.5712 21.9429 52.5712L22.461 52.6017L22.3086 52.9369C21.821 54.095 20.3277 57.7217 20.2362 57.9655L20.1448 58.2093ZM30.2934 60.7083C30.0496 60.7083 29.8058 60.6779 29.0439 60.6169C27.3067 60.4645 25.2343 60.0379 23.4972 59.4893C23.1315 59.3674 22.461 59.1541 21.821 58.9102C21.5467 58.8188 21.2724 58.7274 21.0896 58.636L20.8458 58.5445L20.9372 58.3007C20.9981 58.1483 21.0591 57.996 21.12 57.7826C21.3334 57.2341 21.6381 56.4721 21.9429 55.7407C22.2477 54.9788 22.9791 53.2417 22.9791 53.2417L23.1315 52.9064L23.4058 53.1502C23.6191 53.3331 23.8629 53.6074 24.2286 53.9121C25.0515 54.7045 26.1181 55.7407 27.2762 56.8988L31.1772 60.7693L30.2934 60.7083ZM27.7943 56.4722C26.6058 55.2836 25.5086 54.1864 24.7162 53.4245C24.3505 53.0588 24.0762 52.7845 23.8629 52.5712L23.6191 52.3274L24.1372 52.0531C24.6248 51.8093 25.2648 51.5045 25.9962 51.1388C27.4591 50.4379 29.3181 49.5541 30.1715 49.1274C30.5981 48.9141 30.9943 48.7312 31.2991 48.6093C31.4515 48.5483 31.5734 48.4874 31.6648 48.4569L31.7562 48.4264L31.8477 48.4874C31.9086 48.5179 32.0001 48.5483 32.0915 48.6093C32.3353 48.7312 32.6705 48.8836 33.0667 49.0969C33.8896 49.4931 34.9258 50.0112 35.9924 50.5293C37.0286 51.0474 38.0953 51.5655 38.8572 51.9617C39.162 52.1141 39.4058 52.236 39.6191 52.3579L39.9239 52.5102L39.3753 53.0893C38.9181 53.5464 38.3086 54.2169 37.6077 54.9179C36.2362 56.3198 34.3467 58.2398 33.4629 59.1541L31.9696 60.6779L27.7943 56.4722ZM42.2096 58.9102C39.5886 59.916 36.9067 60.495 34.042 60.7083C33.8896 60.7083 33.8286 60.7388 33.7372 60.7388L32.8839 60.7998L33.341 60.3121C34.0115 59.6112 35.5962 57.9655 37.3029 56.2588C38.1867 55.375 39.0401 54.4912 39.6496 53.8817C39.8934 53.6379 40.0762 53.455 40.2286 53.3026L40.5029 53.0283L40.6553 53.3636C40.6553 53.3636 41.2953 54.796 41.7829 55.8931C42.301 57.0207 42.7886 58.1179 42.9105 58.3617L43.0324 58.6055L42.2096 58.9102ZM51.4743 53.1502C49.5848 54.9483 46.9639 56.7464 44.4648 57.935L44.4039 57.9655C44.221 58.0569 44.0991 58.1179 43.9467 58.1788L43.7029 58.3007L43.4286 57.7522C43.2153 57.3255 42.941 56.716 42.6362 56.076C42.1486 55.0093 41.6305 53.8512 41.2648 53.0588L41.1124 52.6931H51.901L51.4743 53.1502ZM46.7505 52.0226C45.1048 52.0226 43.642 52.0226 42.5448 51.9922C42.1181 51.9922 41.8134 51.9922 41.5391 51.9922H41.082L41.2039 51.6264C41.2953 51.2607 41.4477 50.7426 41.6305 50.2245C41.9353 49.1274 42.5143 47.1769 42.9105 45.8664L43.581 43.6112L48.061 42.1483C49.3105 41.7522 50.4686 41.356 51.322 41.1121L52.4191 40.7769V41.1121C52.4191 41.356 52.4496 42.3007 52.4496 42.8798V43.215C52.4496 44.1598 52.4496 44.6169 52.48 45.8055L52.541 52.0226H46.7505ZM52.8153 39.6188L52.6629 39.3445C52.541 39.1312 52.4191 38.9179 52.2667 38.6436C51.84 37.9122 51.2915 36.9369 50.7429 35.9312C50.1943 34.956 49.6458 33.9502 49.2191 33.1883C49.0058 32.8226 48.8229 32.4874 48.701 32.2741C48.6705 32.1826 48.64 32.1217 48.6096 32.0912L48.5486 31.9693L48.6096 31.8169C49.0667 30.9026 49.7067 29.775 50.4686 28.3731C50.9258 27.5502 51.6877 26.2093 52.1143 25.4474C52.3277 25.0817 52.48 24.7769 52.6324 24.5331L52.7848 24.2588L53.821 25.2645C54.5524 25.996 55.5886 27.0017 56.7162 28.0988L60.6172 31.9693L56.7162 35.8093C55.5886 36.9064 54.5829 37.9122 53.821 38.6131C53.4858 38.9483 53.242 39.1922 53.0286 39.375L52.8153 39.6188ZM58.2705 43.7636C58.2096 43.8855 58.1486 44.0379 58.0572 44.1902C57.8134 44.6779 57.5086 45.2874 57.2648 45.7445C56.6248 46.9026 55.4667 48.7007 54.5829 49.7979C54.2781 50.1636 53.882 50.6512 53.5772 50.9864L53.12 51.5045V49.5541C53.12 48.1826 53.0286 41.295 53.0286 41.2341V40.8074L53.4248 41.0207C53.4248 41.0207 55.4972 42.1179 56.5639 42.6664C57.1124 42.9407 57.6001 43.1845 57.9353 43.3674L58.362 43.5807L58.2705 43.7636ZM60.7391 33.4931C60.5258 36.6322 60.0381 39.0702 58.9715 41.996C58.88 42.2702 58.7886 42.4836 58.7277 42.636L58.6362 42.8798L58.3924 42.7579C58.2705 42.6969 58.1791 42.6664 58.0572 42.575C57.6915 42.3617 56.442 41.7217 55.2534 41.1121C54.6743 40.8074 54.1258 40.5331 53.76 40.3198L53.3639 40.1064L53.6381 39.8017C53.9429 39.4664 54.3696 39.0702 54.8267 38.6131C58.0572 35.4436 59.7639 33.7674 60.3124 33.2493L60.8 32.7922L60.7391 33.4931ZM59.9467 30.2626C59.2153 29.5312 58.2096 28.556 57.1124 27.4588L53.3334 23.7407L53.6991 23.5883C53.9734 23.4664 54.3696 23.2836 54.8267 23.1007C55.3753 22.8569 56.5334 22.3998 57.3562 22.0341C57.7829 21.8512 58.1486 21.6988 58.4534 21.5769L58.8191 21.4245L58.941 21.6683C59.0324 21.9122 59.1239 22.2474 59.3067 22.796C60.1296 25.2645 60.5867 27.5198 60.7696 30.3845L60.8 31.055L59.9467 30.2626Z" fill="#1D1F1F" stroke="#1D1F1E" stroke-width="0.5"/>
</svg>
