<svg width="80" height="80" viewBox="0 0 80 80" fill="none" xmlns="http://www.w3.org/2000/svg">
<path d="M64.7704 29.5079L64.7662 29.5032L64.7646 29.4979L56.5884 15.3368C56.5396 15.2519 56.4485 15.1992 56.3501 15.1992H23.6483C23.55 15.1992 23.4589 15.2519 23.4101 15.3368L15.2342 29.4979L15.2327 29.5032L15.2285 29.5079L15.2281 29.5082C15.2223 29.5259 15.2185 29.5444 15.2166 29.5632C15.1935 29.6082 15.1935 29.6612 15.2162 29.7065C15.2192 29.7296 15.2254 29.7519 15.2342 29.7734C15.2362 29.7768 15.24 29.778 15.2419 29.7811C15.2442 29.7845 15.2435 29.7891 15.2458 29.7926L39.7726 65.122C39.7757 65.1262 39.7807 65.1278 39.7838 65.1316L39.7895 65.1381H39.7891C39.8076 65.1639 39.8322 65.1846 39.8602 65.1989C39.8671 65.2027 39.8725 65.2081 39.8794 65.2115L39.8875 65.2169L39.896 65.2188V65.2185C39.9617 65.2477 40.0362 65.2477 40.1019 65.2185L40.1104 65.2165L40.1185 65.2112C40.1254 65.2077 40.1308 65.2027 40.1377 65.1985V65.1989C40.1657 65.1846 40.1903 65.1639 40.2088 65.1381L40.2145 65.1316C40.2176 65.1278 40.2226 65.1262 40.2253 65.122L64.7521 29.7926C64.7544 29.7891 64.7541 29.7845 64.756 29.7811C64.7579 29.778 64.7617 29.7765 64.7637 29.7734H64.7641C64.7729 29.7519 64.779 29.7296 64.7821 29.7065C64.8052 29.6612 64.8048 29.6081 64.7817 29.5632C64.7798 29.5444 64.776 29.5259 64.7702 29.5082L64.7704 29.5079ZM55.8729 15.7501L48.175 29.0848L40.4764 15.7501H55.8729ZM47.6977 29.3603H32.3001L39.9987 16.0256L47.6977 29.3603ZM39.5219 15.7501L31.8232 29.0848L24.1254 15.7501H39.5219ZM23.6481 16.0256L31.3459 29.3604H15.9493L23.6481 16.0256ZM15.999 29.9103H31.6043L38.9989 61.8664L39.407 63.6291L15.999 29.9103ZM39.9986 63.7424L32.1693 29.9103H47.8277L39.9986 63.7424ZM40.5904 63.6291L40.9985 61.8664L48.3935 29.9103H63.9987L40.5904 63.6291ZM48.6517 29.3601L56.3496 16.0254L64.0482 29.3601H48.6517Z" fill="#1D1F1E" stroke="#1D1F1E" stroke-width="0.6"/>
<path opacity="0.2" d="M32 29.6016H16L39.6 64.0016L32 29.6016Z" fill="#2A3E52" stroke="#2A3E52"/>
</svg>
