<svg width="80" height="80" viewBox="0 0 80 80" fill="none" xmlns="http://www.w3.org/2000/svg">
<path fill-rule="evenodd" clip-rule="evenodd" d="M54.3974 11.5001C54.5617 11.2895 54.5243 10.9856 54.3138 10.8212C54.1032 10.6568 53.7993 10.6942 53.6349 10.9048L46.3206 20.2729C45.4713 20.0542 44.6042 19.8797 43.722 19.7519L46.4793 11.5479C46.5644 11.2947 46.4281 11.0205 46.1749 10.9354C45.9217 10.8503 45.6475 10.9866 45.5624 11.2397L42.7425 19.63C41.8933 19.5415 41.0312 19.4961 40.1585 19.4961C39.281 19.4961 38.4141 19.542 37.5603 19.6315L34.7399 11.2397C34.6549 10.9866 34.3806 10.8503 34.1274 10.9354C33.8742 11.0205 33.738 11.2947 33.8231 11.5479L36.581 19.7539C35.7207 19.879 34.8749 20.0486 34.0458 20.2602L26.8268 11.0142C26.6624 10.8036 26.3585 10.7662 26.1479 10.9306C25.9374 11.095 25.9 11.3989 26.0643 11.6094L33.0376 20.5406C22.9001 23.5956 15.5166 33.0046 15.5166 44.138C15.5166 57.7474 26.5492 68.7799 40.1585 68.7799C53.7678 68.7799 64.8004 57.7474 64.8004 44.138C64.8004 33.0221 57.4402 23.6253 47.3274 20.5552L54.3974 11.5001ZM42.9165 20.6305C42.9058 20.6269 42.8953 20.623 42.885 20.6187C41.9904 20.5161 41.0806 20.4634 40.1585 20.4634C39.2294 20.4634 38.3127 20.5169 37.4115 20.6211C37.4031 20.6244 37.3945 20.6276 37.3858 20.6305C37.3119 20.6554 37.2361 20.6613 37.1638 20.651C25.5025 22.123 16.4839 32.0773 16.4839 44.138C16.4839 57.2131 27.0834 67.8126 40.1585 67.8126C53.2336 67.8126 63.8331 57.2131 63.8331 44.138C63.8331 32.0745 54.8104 22.1184 43.1452 20.65C43.0709 20.6617 42.9927 20.6561 42.9165 20.6305ZM20.3159 44.1371C20.3159 33.1789 29.1994 24.2954 40.1576 24.2954C51.1159 24.2954 59.9993 33.1789 59.9993 44.1371C59.9993 55.0954 51.1159 63.9788 40.1576 63.9788C29.1994 63.9788 20.3159 55.0954 20.3159 44.1371ZM40.1576 23.3281C28.6651 23.3281 19.3486 32.6446 19.3486 44.1371C19.3486 55.6296 28.6651 64.9461 40.1576 64.9461C51.6501 64.9461 60.9666 55.6296 60.9666 44.1371C60.9666 32.6446 51.6501 23.3281 40.1576 23.3281Z" fill="#1D1F1E"/>
<path opacity="0.2" d="M40.0016 66.4016C52.3727 66.4016 62.4016 56.3727 62.4016 44.0016C62.4016 31.6304 52.3727 21.6016 40.0016 21.6016C27.6304 21.6016 17.6016 31.6304 17.6016 44.0016C17.6016 56.3727 27.6304 66.4016 40.0016 66.4016Z" stroke="#2A3E52" stroke-width="3.36"/>
</svg>
