<svg width="80" height="80" viewBox="0 0 80 80" fill="none" xmlns="http://www.w3.org/2000/svg">
<path d="M26.3644 25.1172C26.2927 25.1162 26.2214 25.1295 26.155 25.1565C26.0885 25.1834 26.0281 25.2234 25.9773 25.2742C25.9266 25.3249 25.8866 25.3853 25.8596 25.4518C25.8327 25.5183 25.8193 25.5895 25.8204 25.6612V31.8132C25.8111 31.8897 25.8181 31.9672 25.841 32.0407C25.8639 32.1143 25.9021 32.1821 25.9531 32.2397C26.0042 32.2974 26.0669 32.3435 26.1371 32.3751C26.2073 32.4068 26.2834 32.4231 26.3604 32.4231C26.4374 32.4231 26.5135 32.4068 26.5837 32.3751C26.6539 32.3435 26.7166 32.2974 26.7677 32.2397C26.8187 32.1821 26.857 32.1143 26.8798 32.0407C26.9027 31.9672 26.9097 31.8897 26.9004 31.8132V25.6612C26.9015 25.5902 26.8884 25.5196 26.8619 25.4537C26.8355 25.3877 26.7962 25.3277 26.7463 25.2771C26.6964 25.2264 26.6369 25.1862 26.5714 25.1588C26.5058 25.1314 26.4355 25.1172 26.3644 25.1172Z" fill="#1D1F1E"/>
<path d="M19.4579 26.7421C19.4317 26.6759 19.3918 26.616 19.3408 26.5664C19.2898 26.5167 19.2288 26.4784 19.1619 26.4541C19.0983 26.4286 19.0305 26.415 18.9619 26.4141C18.8873 26.4146 18.8137 26.431 18.7459 26.4621C18.6149 26.52 18.512 26.6272 18.4596 26.7605C18.4072 26.8938 18.4095 27.0424 18.4659 27.1741L20.5859 32.0301C20.6292 32.1276 20.6999 32.2105 20.7893 32.2687C20.8788 32.3269 20.9832 32.358 21.0899 32.3581C21.1645 32.3575 21.2381 32.3411 21.3059 32.3101C21.4371 32.2491 21.5401 32.1404 21.5939 32.0061C21.6458 31.8722 21.6458 31.7239 21.5939 31.5901L19.4579 26.7421Z" fill="#1D1F1E"/>
<path d="M10.0329 29.8145L14.5849 33.3505C14.6993 33.4233 14.8367 33.4508 14.9703 33.4276C15.1039 33.4044 15.224 33.3322 15.307 33.2251C15.3901 33.118 15.4302 32.9837 15.4195 32.8485C15.4087 32.7134 15.3479 32.5871 15.2489 32.4945L10.6969 28.9505C10.6411 28.9063 10.5768 28.8742 10.5079 28.8563C10.439 28.8384 10.3672 28.8351 10.2969 28.8465C10.2266 28.854 10.1585 28.8756 10.0966 28.9099C10.0348 28.9443 9.98048 28.9907 9.93694 29.0465C9.89239 29.103 9.85952 29.1679 9.84022 29.2372C9.82092 29.3066 9.81558 29.3791 9.82451 29.4505C9.83344 29.522 9.85646 29.5909 9.89224 29.6534C9.92802 29.7159 9.97584 29.7706 10.0329 29.8145Z" fill="#1D1F1E"/>
<path d="M33.9711 26.4622C33.9033 26.4311 33.8297 26.4147 33.7551 26.4142C33.6479 26.4122 33.5426 26.4424 33.4528 26.5008C33.3629 26.5593 33.2927 26.6434 33.2511 26.7422L31.1631 31.5902C31.1354 31.656 31.1211 31.7267 31.1211 31.7982C31.1211 31.8696 31.1354 31.9403 31.1631 32.0062C31.187 32.0743 31.225 32.1366 31.2746 32.1889C31.3242 32.2413 31.3844 32.2826 31.4511 32.3102C31.5187 32.342 31.5924 32.3584 31.6671 32.3582C31.7729 32.3586 31.8765 32.3276 31.9648 32.2692C32.053 32.2109 32.122 32.1277 32.1631 32.0302L34.2511 27.1582C34.3027 27.0284 34.3024 26.8837 34.2503 26.7542C34.1981 26.6246 34.0982 26.5201 33.9711 26.4622Z" fill="#1D1F1E"/>
<path d="M37.2593 32.8519C37.2489 32.9227 37.2536 32.9949 37.2729 33.0638C37.2922 33.1327 37.3257 33.1968 37.3713 33.2519C37.4205 33.3176 37.4846 33.3707 37.5583 33.4068C37.632 33.443 37.7132 33.4612 37.7953 33.4599C37.9163 33.4594 38.0341 33.4201 38.1313 33.3479L42.6833 29.8119C42.7955 29.719 42.8696 29.588 42.8913 29.4439C42.9066 29.3012 42.8665 29.158 42.7793 29.0439C42.6893 28.9322 42.561 28.858 42.4193 28.8359H42.3633C42.2446 28.8365 42.1295 28.8758 42.0353 28.9479L37.4833 32.4919C37.4224 32.5325 37.3709 32.5856 37.3322 32.6477C37.2936 32.7098 37.2687 32.7794 37.2593 32.8519Z" fill="#1D1F1E"/>
<path d="M2.40234 54.0687V67.3007C2.40446 68.4161 2.84848 69.4852 3.63717 70.2738C4.42587 71.0625 5.49496 71.5066 6.61034 71.5087H46.1063C47.2217 71.5066 48.2908 71.0625 49.0795 70.2738C49.8682 69.4852 50.3122 68.4161 50.3143 67.3007V54.5727H50.3623L62.4423 57.7167C62.79 57.8061 63.1474 57.8518 63.5063 57.8527C64.2551 57.8512 64.9897 57.6495 65.6343 57.2687C66.1124 56.99 66.53 56.6185 66.8624 56.1762C67.1949 55.7338 67.4356 55.2294 67.5703 54.6927L77.4823 16.4607C77.7596 15.3797 77.5969 14.233 77.0301 13.2717C76.4632 12.3105 75.5384 11.6132 74.4583 11.3327L61.6583 8.02068C61.5883 8.00273 61.5153 7.99914 61.4438 8.01014C61.3723 8.02114 61.3038 8.04649 61.2423 8.08468C61.18 8.11844 61.1255 8.16519 61.0828 8.22177C61.04 8.27835 61.0098 8.34345 60.9943 8.41268L49.6903 52.0207L49.6423 51.9567C49.2298 51.3109 48.7104 50.7401 48.1063 50.2687C46.7543 49.1887 42.8023 46.8287 35.4423 48.1487H35.3543L35.4023 48.0687L40.3783 40.7007C40.4324 40.6504 40.4758 40.5898 40.5061 40.5225C40.5363 40.4552 40.5527 40.3825 40.5543 40.3087C40.554 40.2249 40.5344 40.1423 40.4969 40.0674C40.4594 39.9925 40.4052 39.9272 40.3383 39.8767L35.7703 34.6047C35.7204 34.545 35.658 34.4968 35.5875 34.4637C35.5171 34.4305 35.4402 34.4131 35.3623 34.4127H17.3543C17.2765 34.4131 17.1996 34.4305 17.1292 34.4637C17.0587 34.4968 16.9963 34.545 16.9463 34.6047L12.3143 39.9567C12.3106 39.9725 12.3106 39.9889 12.3143 40.0047C12.2923 40.0485 12.2736 40.094 12.2583 40.1407C12.2424 40.201 12.2424 40.2644 12.2583 40.3247V40.3727V40.4367L17.3303 47.9647H17.2503C16.3584 47.857 15.4608 47.8036 14.5623 47.8047C9.96234 47.8047 6.12234 49.2607 4.16234 50.9247C3.64701 51.2781 3.22012 51.7457 2.91487 52.291C2.60963 52.8363 2.43424 53.4446 2.40234 54.0687ZM50.4423 53.4367L61.9063 9.20468L74.1463 12.4047C74.5429 12.505 74.9155 12.6833 75.2424 12.9291C75.5693 13.175 75.844 13.4835 76.0503 13.8367C76.2644 14.1937 76.4045 14.5902 76.4622 15.0025C76.52 15.4148 76.4941 15.8346 76.3863 16.2367L66.5143 54.4207C66.3421 55.0895 65.9523 55.6821 65.4063 56.105C64.8602 56.5279 64.189 56.7572 63.4983 56.7567C63.2287 56.7585 62.9599 56.7263 62.6983 56.6607L50.4183 53.4607L50.4423 53.4367ZM49.2263 67.2927C49.2263 68.1209 48.8979 68.9153 48.313 69.5017C47.7281 70.0881 46.9346 70.4186 46.1063 70.4207H6.61034C5.78213 70.4186 4.98857 70.0881 4.40368 69.5017C3.8188 68.9153 3.49034 68.1209 3.49034 67.2927V54.6127H49.2263V67.2927ZM21.2263 40.8527H31.4983V40.9007L27.8183 53.5567H24.8903L21.2263 40.8527ZM47.4343 51.1007C48.2458 51.6982 48.8455 52.5389 49.1463 53.5007V53.5567H31.7223L34.4823 49.4687C39.8023 48.2527 44.6343 48.8767 47.4343 51.1007ZM30.4103 53.5567H28.9463V53.5007L32.6183 40.8847H38.9543L30.4103 53.5567ZM35.1143 35.5327L38.7943 39.7807H32.5783L30.7303 35.5407L35.1143 35.5327ZM29.5143 35.5327L31.3623 39.7727H21.3223V39.7167L23.1623 35.5007L29.5143 35.5327ZM13.9703 39.7007L17.6023 35.5007H21.9863V35.5567L20.1623 39.7647H13.9143L13.9703 39.7007ZM13.7463 40.8527H20.0823L23.7623 53.5567H22.2823L13.7463 40.8527ZM4.83434 51.9087C7.17834 49.9727 12.3383 48.3487 18.1543 49.3567L20.9943 53.5567H3.58634V53.5007C3.85907 52.8719 4.28882 52.3237 4.83434 51.9087Z" fill="#1D1F1E"/>
<path opacity="0.2" d="M22.0008 53.9975H2.80078C3.33411 52.9309 5.60078 50.4775 10.4008 49.1975C15.2008 47.9175 17.7341 48.3975 18.4008 48.7975L22.0008 53.9975Z" fill="#2A3E52"/>
<path opacity="0.2" d="M31.2016 53.9976L49.6016 53.9975C49.0682 52.9309 48.8016 50.4775 44.0016 49.1975C39.2016 47.9175 35.4682 48.3976 34.8016 48.7976L31.2016 53.9976Z" fill="#2A3E52"/>
</svg>
