<svg width="410" height="174" viewBox="0 0 410 174" fill="none" xmlns="http://www.w3.org/2000/svg">
<rect width="410" height="174" fill="#F8F8F8"/>
<path fill-rule="evenodd" clip-rule="evenodd" d="M95.0004 51.3721C95.2058 51.109 95.1591 50.7291 94.8959 50.5236C94.6327 50.3181 94.2528 50.3649 94.0473 50.628L84.903 62.34C83.8422 62.0668 82.7593 61.8486 81.6575 61.6888L85.1037 51.4349C85.2101 51.1184 85.0398 50.7756 84.7233 50.6692C84.4068 50.5629 84.064 50.7332 83.9576 51.0497L80.4332 61.5362C79.3696 61.4251 78.2899 61.3682 77.1969 61.3682C76.1024 61.3682 75.0211 61.4253 73.9561 61.5366L70.4315 51.0497C70.3252 50.7332 69.9824 50.5629 69.6659 50.6692C69.3494 50.7756 69.179 51.1184 69.2854 51.4349L72.7318 61.6895C71.6563 61.8456 70.5987 62.0574 69.5622 62.3217L60.5381 50.7638C60.3326 50.5006 59.9527 50.4538 59.6895 50.6593C59.4264 50.8648 59.3796 51.2447 59.5851 51.5079L68.3017 62.6721C55.6268 66.4889 46.3945 78.2516 46.3945 92.1706C46.3945 109.182 60.1852 122.973 77.1969 122.973C94.2086 122.973 107.999 109.182 107.999 92.1706C107.999 78.2769 98.8007 66.5318 86.1614 62.693L95.0004 51.3721ZM80.6502 62.7881C80.6354 62.7831 80.6209 62.7776 80.6067 62.7716C79.4879 62.6433 78.3501 62.5773 77.1969 62.5773C76.0415 62.5773 74.9016 62.6435 73.7807 62.7724C73.767 62.7781 73.7531 62.7833 73.7389 62.7881C73.6428 62.8204 73.5444 62.8272 73.4508 62.8122C58.8755 64.6533 47.6037 77.0956 47.6037 92.1706C47.6037 108.514 60.853 121.764 77.1969 121.764C93.5408 121.764 106.79 108.514 106.79 92.1706C106.79 77.0947 95.5169 64.6518 80.9404 62.8118C80.8462 62.8273 80.747 62.8206 80.6502 62.7881ZM52.4005 92.1704C52.4005 78.4726 63.5048 67.3683 77.2026 67.3683C90.9005 67.3683 102.005 78.4726 102.005 92.1704C102.005 105.868 90.9005 116.973 77.2026 116.973C63.5048 116.973 52.4005 105.868 52.4005 92.1704ZM77.2026 66.1592C62.837 66.1592 51.1914 77.8048 51.1914 92.1704C51.1914 106.536 62.837 118.182 77.2026 118.182C91.5682 118.182 103.214 106.536 103.214 92.1704C103.214 77.8048 91.5682 66.1592 77.2026 66.1592Z" fill="#1D1F1E"/>
<path opacity="0.2" d="M77 120C92.464 120 105 107.464 105 92C105 76.536 92.464 64 77 64C61.536 64 49 76.536 49 92C49 107.464 61.536 120 77 120Z" stroke="#2A3E52" stroke-width="4.2"/>
<path d="M148.408 58.192C147.661 58.192 146.968 58.0533 146.328 57.776C145.688 57.488 145.144 57.0987 144.696 56.608C144.248 56.1173 143.917 55.552 143.704 54.912L145.304 54.24C145.592 54.976 146.013 55.5413 146.568 55.936C147.123 56.3307 147.763 56.528 148.488 56.528C148.915 56.528 149.288 56.464 149.608 56.336C149.928 56.1973 150.173 56.0053 150.344 55.76C150.525 55.5147 150.616 55.232 150.616 54.912C150.616 54.4747 150.493 54.128 150.248 53.872C150.003 53.616 149.64 53.4133 149.16 53.264L146.92 52.56C146.024 52.2827 145.341 51.8613 144.872 51.296C144.403 50.72 144.168 50.048 144.168 49.28C144.168 48.608 144.333 48.0213 144.664 47.52C144.995 47.008 145.448 46.608 146.024 46.32C146.611 46.032 147.277 45.888 148.024 45.888C148.739 45.888 149.389 46.016 149.976 46.272C150.563 46.5173 151.064 46.8587 151.48 47.296C151.907 47.7333 152.216 48.24 152.408 48.816L150.84 49.504C150.605 48.8747 150.237 48.3893 149.736 48.048C149.245 47.7067 148.675 47.536 148.024 47.536C147.629 47.536 147.283 47.6053 146.984 47.744C146.685 47.872 146.451 48.064 146.28 48.32C146.12 48.5653 146.04 48.8533 146.04 49.184C146.04 49.568 146.163 49.9093 146.408 50.208C146.653 50.5067 147.027 50.7307 147.528 50.88L149.608 51.536C150.557 51.824 151.272 52.24 151.752 52.784C152.232 53.3173 152.472 53.984 152.472 54.784C152.472 55.4453 152.296 56.032 151.944 56.544C151.603 57.056 151.128 57.4613 150.52 57.76C149.912 58.048 149.208 58.192 148.408 58.192ZM158.479 58.192C157.615 58.192 156.847 57.9947 156.175 57.6C155.514 57.1947 154.997 56.6507 154.623 55.968C154.25 55.2747 154.063 54.5013 154.063 53.648C154.063 52.7733 154.25 52 154.623 51.328C155.007 50.656 155.519 50.128 156.159 49.744C156.799 49.3493 157.525 49.152 158.335 49.152C158.986 49.152 159.567 49.264 160.079 49.488C160.591 49.712 161.023 50.0213 161.375 50.416C161.727 50.8 161.994 51.2427 162.175 51.744C162.367 52.2453 162.463 52.7787 162.463 53.344C162.463 53.4827 162.458 53.6267 162.447 53.776C162.437 53.9253 162.415 54.064 162.383 54.192H155.487V52.752H161.359L160.495 53.408C160.602 52.8853 160.565 52.4213 160.383 52.016C160.213 51.6 159.946 51.2747 159.583 51.04C159.231 50.7947 158.815 50.672 158.335 50.672C157.855 50.672 157.429 50.7947 157.055 51.04C156.682 51.2747 156.394 51.616 156.191 52.064C155.989 52.5013 155.909 53.0347 155.951 53.664C155.898 54.2507 155.978 54.7627 156.191 55.2C156.415 55.6373 156.725 55.9787 157.119 56.224C157.525 56.4693 157.983 56.592 158.495 56.592C159.018 56.592 159.461 56.4747 159.823 56.24C160.197 56.0053 160.49 55.7013 160.703 55.328L162.175 56.048C162.005 56.4533 161.738 56.8213 161.375 57.152C161.023 57.472 160.597 57.728 160.095 57.92C159.605 58.1013 159.066 58.192 158.479 58.192ZM164.228 58V45.888H166.036V58H164.228ZM172.214 58.192C171.35 58.192 170.582 57.9947 169.91 57.6C169.248 57.1947 168.731 56.6507 168.358 55.968C167.984 55.2747 167.798 54.5013 167.798 53.648C167.798 52.7733 167.984 52 168.358 51.328C168.742 50.656 169.254 50.128 169.894 49.744C170.534 49.3493 171.259 49.152 172.07 49.152C172.72 49.152 173.302 49.264 173.814 49.488C174.326 49.712 174.758 50.0213 175.11 50.416C175.462 50.8 175.728 51.2427 175.91 51.744C176.102 52.2453 176.198 52.7787 176.198 53.344C176.198 53.4827 176.192 53.6267 176.182 53.776C176.171 53.9253 176.15 54.064 176.118 54.192H169.222V52.752H175.094L174.23 53.408C174.336 52.8853 174.299 52.4213 174.118 52.016C173.947 51.6 173.68 51.2747 173.318 51.04C172.966 50.7947 172.55 50.672 172.07 50.672C171.59 50.672 171.163 50.7947 170.79 51.04C170.416 51.2747 170.128 51.616 169.926 52.064C169.723 52.5013 169.643 53.0347 169.686 53.664C169.632 54.2507 169.712 54.7627 169.926 55.2C170.15 55.6373 170.459 55.9787 170.854 56.224C171.259 56.4693 171.718 56.592 172.23 56.592C172.752 56.592 173.195 56.4747 173.558 56.24C173.931 56.0053 174.224 55.7013 174.438 55.328L175.91 56.048C175.739 56.4533 175.472 56.8213 175.11 57.152C174.758 57.472 174.331 57.728 173.83 57.92C173.339 58.1013 172.8 58.192 172.214 58.192ZM182.074 58.192C181.21 58.192 180.442 57.9947 179.77 57.6C179.109 57.1947 178.581 56.6507 178.186 55.968C177.802 55.2853 177.61 54.512 177.61 53.648C177.61 52.7947 177.802 52.0267 178.186 51.344C178.57 50.6613 179.098 50.128 179.77 49.744C180.442 49.3493 181.21 49.152 182.074 49.152C182.661 49.152 183.21 49.2587 183.722 49.472C184.234 49.6747 184.677 49.9573 185.05 50.32C185.434 50.6827 185.717 51.104 185.898 51.584L184.314 52.32C184.133 51.872 183.84 51.5147 183.434 51.248C183.04 50.9707 182.586 50.832 182.074 50.832C181.584 50.832 181.141 50.9547 180.746 51.2C180.362 51.4347 180.058 51.7707 179.834 52.208C179.61 52.6347 179.498 53.12 179.498 53.664C179.498 54.208 179.61 54.6987 179.834 55.136C180.058 55.5627 180.362 55.8987 180.746 56.144C181.141 56.3893 181.584 56.512 182.074 56.512C182.597 56.512 183.05 56.3787 183.434 56.112C183.829 55.8347 184.122 55.4667 184.314 55.008L185.898 55.76C185.728 56.2187 185.45 56.6347 185.066 57.008C184.693 57.3707 184.25 57.6587 183.738 57.872C183.226 58.0853 182.672 58.192 182.074 58.192ZM191.409 58.096C190.503 58.096 189.799 57.84 189.297 57.328C188.796 56.816 188.545 56.096 188.545 55.168V50.976H187.025V49.344H187.265C187.671 49.344 187.985 49.2267 188.209 48.992C188.433 48.7573 188.545 48.4373 188.545 48.032V47.36H190.353V49.344H192.321V50.976H190.353V55.088C190.353 55.3867 190.401 55.6427 190.497 55.856C190.593 56.0587 190.748 56.2187 190.961 56.336C191.175 56.4427 191.452 56.496 191.793 56.496C191.879 56.496 191.975 56.4907 192.081 56.48C192.188 56.4693 192.289 56.4587 192.385 56.448V58C192.236 58.0213 192.071 58.0427 191.889 58.064C191.708 58.0853 191.548 58.096 191.409 58.096ZM197.715 61.536C197.501 61.536 197.288 61.5147 197.075 61.472C196.872 61.44 196.685 61.3867 196.515 61.312V59.76C196.643 59.792 196.797 59.8187 196.979 59.84C197.16 59.872 197.336 59.888 197.507 59.888C198.008 59.888 198.376 59.776 198.611 59.552C198.856 59.3387 199.075 59.0027 199.267 58.544L199.843 57.232L199.811 58.752L196.067 49.344H198.003L200.771 56.56H200.115L202.867 49.344H204.819L200.995 58.944C200.792 59.456 200.536 59.904 200.227 60.288C199.928 60.6827 199.571 60.9867 199.155 61.2C198.749 61.424 198.269 61.536 197.715 61.536ZM210.076 58.192C209.244 58.192 208.481 57.9947 207.788 57.6C207.105 57.2053 206.561 56.6667 206.156 55.984C205.75 55.3013 205.548 54.528 205.548 53.664C205.548 52.7893 205.75 52.016 206.156 51.344C206.561 50.6613 207.105 50.128 207.788 49.744C208.47 49.3493 209.233 49.152 210.076 49.152C210.929 49.152 211.692 49.3493 212.364 49.744C213.046 50.128 213.585 50.6613 213.98 51.344C214.385 52.016 214.588 52.7893 214.588 53.664C214.588 54.5387 214.385 55.3173 213.98 56C213.574 56.6827 213.03 57.2213 212.348 57.616C211.665 58 210.908 58.192 210.076 58.192ZM210.076 56.512C210.588 56.512 211.041 56.3893 211.436 56.144C211.83 55.8987 212.14 55.5627 212.364 55.136C212.598 54.6987 212.716 54.208 212.716 53.664C212.716 53.12 212.598 52.6347 212.364 52.208C212.14 51.7813 211.83 51.4453 211.436 51.2C211.041 50.9547 210.588 50.832 210.076 50.832C209.574 50.832 209.121 50.9547 208.716 51.2C208.321 51.4453 208.006 51.7813 207.772 52.208C207.548 52.6347 207.436 53.12 207.436 53.664C207.436 54.208 207.548 54.6987 207.772 55.136C208.006 55.5627 208.321 55.8987 208.716 56.144C209.121 56.3893 209.574 56.512 210.076 56.512ZM219.441 58.192C218.79 58.192 218.22 58.048 217.729 57.76C217.238 57.4613 216.854 57.0507 216.577 56.528C216.31 55.9947 216.177 55.3813 216.177 54.688V49.344H217.985V54.528C217.985 54.9227 218.065 55.2693 218.225 55.568C218.385 55.8667 218.609 56.1013 218.897 56.272C219.185 56.432 219.516 56.512 219.889 56.512C220.273 56.512 220.609 56.4267 220.897 56.256C221.185 56.0853 221.409 55.8453 221.569 55.536C221.74 55.2267 221.825 54.864 221.825 54.448V49.344H223.617V58H221.905V56.304L222.097 56.528C221.894 57.0613 221.558 57.472 221.089 57.76C220.62 58.048 220.07 58.192 219.441 58.192ZM225.728 58V49.344H227.456V51.088L227.296 50.832C227.488 50.2667 227.797 49.8613 228.224 49.616C228.651 49.36 229.163 49.232 229.76 49.232H230.288V50.88H229.536C228.939 50.88 228.453 51.0667 228.08 51.44C227.717 51.8027 227.536 52.3253 227.536 53.008V58H225.728ZM237.522 58.192C236.636 58.192 235.858 57.9733 235.186 57.536C234.524 57.0987 234.06 56.512 233.794 55.776L235.186 55.12C235.42 55.6107 235.74 56 236.146 56.288C236.562 56.576 237.02 56.72 237.522 56.72C237.948 56.72 238.295 56.624 238.562 56.432C238.828 56.24 238.962 55.9787 238.962 55.648C238.962 55.4347 238.903 55.264 238.786 55.136C238.668 54.9973 238.519 54.8853 238.338 54.8C238.167 54.7147 237.991 54.6507 237.81 54.608L236.45 54.224C235.703 54.0107 235.143 53.6907 234.77 53.264C234.407 52.8267 234.226 52.32 234.226 51.744C234.226 51.2213 234.359 50.768 234.626 50.384C234.892 49.9893 235.26 49.6853 235.73 49.472C236.199 49.2587 236.727 49.152 237.314 49.152C238.103 49.152 238.807 49.3493 239.426 49.744C240.044 50.128 240.482 50.6667 240.738 51.36L239.346 52.016C239.175 51.6 238.903 51.2693 238.53 51.024C238.167 50.7787 237.756 50.656 237.298 50.656C236.903 50.656 236.588 50.752 236.354 50.944C236.119 51.1253 236.002 51.3653 236.002 51.664C236.002 51.8667 236.055 52.0373 236.162 52.176C236.268 52.304 236.407 52.4107 236.578 52.496C236.748 52.5707 236.924 52.6347 237.106 52.688L238.514 53.104C239.228 53.3067 239.778 53.6267 240.162 54.064C240.546 54.4907 240.738 55.0027 240.738 55.6C240.738 56.112 240.599 56.5653 240.322 56.96C240.055 57.344 239.682 57.648 239.202 57.872C238.722 58.0853 238.162 58.192 237.522 58.192ZM246.573 58.192C245.709 58.192 244.941 57.9947 244.269 57.6C243.608 57.1947 243.09 56.6507 242.717 55.968C242.344 55.2747 242.157 54.5013 242.157 53.648C242.157 52.7733 242.344 52 242.717 51.328C243.101 50.656 243.613 50.128 244.253 49.744C244.893 49.3493 245.618 49.152 246.429 49.152C247.08 49.152 247.661 49.264 248.173 49.488C248.685 49.712 249.117 50.0213 249.469 50.416C249.821 50.8 250.088 51.2427 250.269 51.744C250.461 52.2453 250.557 52.7787 250.557 53.344C250.557 53.4827 250.552 53.6267 250.541 53.776C250.53 53.9253 250.509 54.064 250.477 54.192H243.581V52.752H249.453L248.589 53.408C248.696 52.8853 248.658 52.4213 248.477 52.016C248.306 51.6 248.04 51.2747 247.677 51.04C247.325 50.7947 246.909 50.672 246.429 50.672C245.949 50.672 245.522 50.7947 245.149 51.04C244.776 51.2747 244.488 51.616 244.285 52.064C244.082 52.5013 244.002 53.0347 244.045 53.664C243.992 54.2507 244.072 54.7627 244.285 55.2C244.509 55.6373 244.818 55.9787 245.213 56.224C245.618 56.4693 246.077 56.592 246.589 56.592C247.112 56.592 247.554 56.4747 247.917 56.24C248.29 56.0053 248.584 55.7013 248.797 55.328L250.269 56.048C250.098 56.4533 249.832 56.8213 249.469 57.152C249.117 57.472 248.69 57.728 248.189 57.92C247.698 58.1013 247.16 58.192 246.573 58.192ZM256.066 58.096C255.159 58.096 254.455 57.84 253.954 57.328C253.452 56.816 253.202 56.096 253.202 55.168V50.976H251.682V49.344H251.922C252.327 49.344 252.642 49.2267 252.866 48.992C253.09 48.7573 253.202 48.4373 253.202 48.032V47.36H255.01V49.344H256.978V50.976H255.01V55.088C255.01 55.3867 255.058 55.6427 255.154 55.856C255.25 56.0587 255.404 56.2187 255.618 56.336C255.831 56.4427 256.108 56.496 256.45 56.496C256.535 56.496 256.631 56.4907 256.738 56.48C256.844 56.4693 256.946 56.4587 257.042 56.448V58C256.892 58.0213 256.727 58.0427 256.546 58.064C256.364 58.0853 256.204 58.096 256.066 58.096ZM262.55 58.096C261.643 58.096 260.939 57.84 260.438 57.328C259.937 56.816 259.686 56.096 259.686 55.168V50.976H258.166V49.344H258.406C258.811 49.344 259.126 49.2267 259.35 48.992C259.574 48.7573 259.686 48.4373 259.686 48.032V47.36H261.494V49.344H263.462V50.976H261.494V55.088C261.494 55.3867 261.542 55.6427 261.638 55.856C261.734 56.0587 261.889 56.2187 262.102 56.336C262.315 56.4427 262.593 56.496 262.934 56.496C263.019 56.496 263.115 56.4907 263.222 56.48C263.329 56.4693 263.43 56.4587 263.526 56.448V58C263.377 58.0213 263.211 58.0427 263.03 58.064C262.849 58.0853 262.689 58.096 262.55 58.096ZM265.29 58V49.344H267.098V58H265.29ZM265.29 48.16V46.08H267.098V48.16H265.29ZM269.212 58V49.344H270.94V51.04L270.732 50.816C270.946 50.272 271.287 49.8613 271.756 49.584C272.226 49.296 272.77 49.152 273.388 49.152C274.028 49.152 274.594 49.2907 275.084 49.568C275.575 49.8453 275.959 50.2293 276.236 50.72C276.514 51.2107 276.652 51.776 276.652 52.416V58H274.86V52.896C274.86 52.4587 274.78 52.0907 274.62 51.792C274.46 51.4827 274.231 51.248 273.932 51.088C273.644 50.9173 273.314 50.832 272.94 50.832C272.567 50.832 272.231 50.9173 271.932 51.088C271.644 51.248 271.42 51.4827 271.26 51.792C271.1 52.1013 271.02 52.4693 271.02 52.896V58H269.212ZM282.763 61.52C282.134 61.52 281.553 61.4187 281.019 61.216C280.486 61.0133 280.027 60.7307 279.643 60.368C279.259 60.016 278.971 59.6 278.779 59.12L280.443 58.432C280.593 58.8373 280.865 59.1733 281.259 59.44C281.665 59.7067 282.161 59.84 282.747 59.84C283.206 59.84 283.617 59.7493 283.979 59.568C284.342 59.3973 284.63 59.1413 284.843 58.8C285.057 58.4693 285.163 58.0693 285.163 57.6V55.648L285.483 56.016C285.185 56.5707 284.769 56.992 284.235 57.28C283.713 57.568 283.121 57.712 282.459 57.712C281.659 57.712 280.939 57.5253 280.299 57.152C279.659 56.7787 279.153 56.2667 278.779 55.616C278.417 54.9653 278.235 54.2347 278.235 53.424C278.235 52.6027 278.417 51.872 278.779 51.232C279.153 50.592 279.654 50.0853 280.283 49.712C280.913 49.3387 281.633 49.152 282.443 49.152C283.105 49.152 283.691 49.296 284.203 49.584C284.726 49.8613 285.153 50.2667 285.483 50.8L285.243 51.248V49.344H286.955V57.6C286.955 58.3467 286.774 59.0133 286.411 59.6C286.059 60.1973 285.569 60.6667 284.939 61.008C284.31 61.3493 283.585 61.52 282.763 61.52ZM282.667 56.032C283.147 56.032 283.574 55.92 283.947 55.696C284.321 55.4613 284.614 55.152 284.827 54.768C285.051 54.3733 285.163 53.9307 285.163 53.44C285.163 52.9493 285.051 52.5067 284.827 52.112C284.603 51.7173 284.305 51.408 283.931 51.184C283.558 50.9493 283.137 50.832 282.667 50.832C282.177 50.832 281.739 50.9493 281.355 51.184C280.971 51.408 280.667 51.7173 280.443 52.112C280.23 52.496 280.123 52.9387 280.123 53.44C280.123 53.92 280.23 54.3573 280.443 54.752C280.667 55.1467 280.971 55.4613 281.355 55.696C281.739 55.92 282.177 56.032 282.667 56.032Z" fill="#1D1F1E"/>
<path d="M149.146 89.168C148.418 89.168 147.737 89.0373 147.102 88.776C146.477 88.5053 145.926 88.132 145.45 87.656C144.974 87.1707 144.601 86.6013 144.33 85.948C144.059 85.2853 143.924 84.562 143.924 83.778C143.924 82.994 144.059 82.2753 144.33 81.622C144.601 80.9593 144.974 80.39 145.45 79.914C145.926 79.4287 146.477 79.0553 147.102 78.794C147.737 78.5327 148.418 78.402 149.146 78.402C149.874 78.402 150.551 78.5373 151.176 78.808C151.811 79.0693 152.366 79.4427 152.842 79.928C153.318 80.404 153.691 80.9687 153.962 81.622C154.233 82.2753 154.368 82.994 154.368 83.778C154.368 84.562 154.233 85.2853 153.962 85.948C153.691 86.6013 153.318 87.1707 152.842 87.656C152.366 88.132 151.811 88.5053 151.176 88.776C150.551 89.0373 149.874 89.168 149.146 89.168ZM149.146 88.118C149.753 88.118 150.303 88.006 150.798 87.782C151.302 87.558 151.736 87.2453 152.1 86.844C152.464 86.4427 152.744 85.9807 152.94 85.458C153.145 84.9353 153.248 84.3753 153.248 83.778C153.248 83.19 153.145 82.6347 152.94 82.112C152.744 81.5893 152.464 81.1273 152.1 80.726C151.736 80.3247 151.302 80.012 150.798 79.788C150.303 79.564 149.753 79.452 149.146 79.452C148.539 79.452 147.984 79.564 147.48 79.788C146.985 80.012 146.556 80.3247 146.192 80.726C145.828 81.1273 145.543 81.5893 145.338 82.112C145.142 82.6347 145.044 83.19 145.044 83.778C145.044 84.3753 145.142 84.9353 145.338 85.458C145.543 85.9807 145.828 86.4427 146.192 86.844C146.556 87.2453 146.99 87.558 147.494 87.782C147.998 88.006 148.549 88.118 149.146 88.118ZM159.029 89.168C158.506 89.168 158.03 89.0467 157.601 88.804C157.172 88.552 156.831 88.2067 156.579 87.768C156.336 87.32 156.215 86.8067 156.215 86.228V81.496H157.265V86.102C157.265 86.5033 157.344 86.858 157.503 87.166C157.671 87.4647 157.9 87.698 158.189 87.866C158.488 88.034 158.828 88.118 159.211 88.118C159.594 88.118 159.934 88.034 160.233 87.866C160.532 87.6887 160.765 87.4413 160.933 87.124C161.101 86.7973 161.185 86.41 161.185 85.962V81.496H162.235V89H161.185V87.544L161.423 87.6C161.246 88.0853 160.942 88.468 160.513 88.748C160.084 89.028 159.589 89.168 159.029 89.168ZM164.394 89V81.496H165.444V82.728L165.304 82.546C165.482 82.1913 165.748 81.9113 166.102 81.706C166.466 81.5007 166.905 81.398 167.418 81.398H167.894V82.448H167.236C166.695 82.448 166.261 82.616 165.934 82.952C165.608 83.288 165.444 83.764 165.444 84.38V89H164.394ZM171.504 89V81.496H172.554V82.728L172.414 82.546C172.591 82.1913 172.857 81.9113 173.212 81.706C173.576 81.5007 174.014 81.398 174.528 81.398H175.004V82.448H174.346C173.804 82.448 173.37 82.616 173.044 82.952C172.717 83.288 172.554 83.764 172.554 84.38V89H171.504ZM176.234 89V81.496H177.284V89H176.234ZM176.234 80.11V78.57H177.284V80.11H176.234ZM179.433 89V81.496H180.483V82.952L180.245 82.896C180.432 82.4107 180.735 82.028 181.155 81.748C181.585 81.468 182.079 81.328 182.639 81.328C183.171 81.328 183.647 81.4493 184.067 81.692C184.497 81.9347 184.833 82.2707 185.075 82.7C185.327 83.12 185.453 83.596 185.453 84.128V89H184.403V84.534C184.403 84.0767 184.319 83.6893 184.151 83.372C183.993 83.0547 183.764 82.812 183.465 82.644C183.176 82.4667 182.84 82.378 182.457 82.378C182.075 82.378 181.734 82.4667 181.435 82.644C181.137 82.812 180.903 83.0593 180.735 83.386C180.567 83.7033 180.483 84.086 180.483 84.534V89H179.433ZM191.015 92.08C190.502 92.08 190.026 92.0007 189.587 91.842C189.158 91.6833 188.784 91.464 188.467 91.184C188.159 90.9133 187.921 90.596 187.753 90.232L188.719 89.714C188.868 90.0687 189.134 90.3767 189.517 90.638C189.9 90.8993 190.39 91.03 190.987 91.03C191.444 91.03 191.864 90.9413 192.247 90.764C192.63 90.5867 192.938 90.3253 193.171 89.98C193.404 89.6347 193.521 89.21 193.521 88.706V87.04L193.689 87.194C193.428 87.7353 193.04 88.1553 192.527 88.454C192.014 88.7433 191.454 88.888 190.847 88.888C190.147 88.888 189.517 88.72 188.957 88.384C188.397 88.048 187.954 87.5953 187.627 87.026C187.31 86.4473 187.151 85.808 187.151 85.108C187.151 84.3987 187.31 83.7593 187.627 83.19C187.954 82.6207 188.392 82.168 188.943 81.832C189.503 81.496 190.138 81.328 190.847 81.328C191.454 81.328 192.004 81.468 192.499 81.748C193.003 82.028 193.4 82.406 193.689 82.882L193.521 83.176V81.496H194.571V88.706C194.571 89.35 194.417 89.924 194.109 90.428C193.81 90.9413 193.39 91.3427 192.849 91.632C192.317 91.9307 191.706 92.08 191.015 92.08ZM190.903 87.838C191.388 87.838 191.827 87.7167 192.219 87.474C192.611 87.222 192.924 86.8907 193.157 86.48C193.4 86.06 193.521 85.6027 193.521 85.108C193.521 84.6133 193.4 84.1607 193.157 83.75C192.924 83.33 192.611 82.9987 192.219 82.756C191.827 82.504 191.388 82.378 190.903 82.378C190.408 82.378 189.96 82.504 189.559 82.756C189.158 82.9987 188.84 83.3253 188.607 83.736C188.383 84.1467 188.271 84.604 188.271 85.108C188.271 85.6027 188.383 86.06 188.607 86.48C188.84 86.8907 189.153 87.222 189.545 87.474C189.946 87.7167 190.399 87.838 190.903 87.838ZM199.332 89.168C198.614 89.168 197.984 88.986 197.442 88.622C196.901 88.258 196.509 87.7633 196.266 87.138L197.148 86.718C197.363 87.1753 197.662 87.5393 198.044 87.81C198.436 88.0807 198.866 88.216 199.332 88.216C199.78 88.216 200.158 88.1087 200.466 87.894C200.774 87.67 200.928 87.3807 200.928 87.026C200.928 86.7647 200.854 86.5593 200.704 86.41C200.555 86.2513 200.382 86.13 200.186 86.046C199.99 85.962 199.818 85.9013 199.668 85.864L198.59 85.556C197.9 85.36 197.4 85.0847 197.092 84.73C196.784 84.3753 196.63 83.9647 196.63 83.498C196.63 83.0593 196.742 82.6767 196.966 82.35C197.19 82.0233 197.494 81.7713 197.876 81.594C198.259 81.4167 198.684 81.328 199.15 81.328C199.785 81.328 200.359 81.496 200.872 81.832C201.395 82.1587 201.764 82.616 201.978 83.204L201.082 83.624C200.896 83.204 200.625 82.8773 200.27 82.644C199.925 82.4013 199.538 82.28 199.108 82.28C198.688 82.28 198.352 82.3873 198.1 82.602C197.848 82.8167 197.722 83.0873 197.722 83.414C197.722 83.666 197.788 83.8667 197.918 84.016C198.049 84.1653 198.198 84.2773 198.366 84.352C198.544 84.4267 198.698 84.4827 198.828 84.52L200.074 84.884C200.681 85.0613 201.152 85.3367 201.488 85.71C201.834 86.0833 202.006 86.522 202.006 87.026C202.006 87.4367 201.89 87.8053 201.656 88.132C201.432 88.4587 201.12 88.7153 200.718 88.902C200.317 89.0793 199.855 89.168 199.332 89.168ZM209.66 89.168C208.923 89.168 208.274 88.9953 207.714 88.65C207.154 88.3047 206.716 87.838 206.398 87.25C206.081 86.6527 205.922 85.9807 205.922 85.234C205.922 84.4873 206.081 83.82 206.398 83.232C206.716 82.644 207.154 82.182 207.714 81.846C208.274 81.5007 208.923 81.328 209.66 81.328C210.127 81.328 210.566 81.412 210.976 81.58C211.387 81.748 211.751 81.9767 212.068 82.266C212.386 82.546 212.624 82.8727 212.782 83.246L211.83 83.736C211.644 83.3347 211.359 83.008 210.976 82.756C210.594 82.504 210.155 82.378 209.66 82.378C209.166 82.378 208.718 82.504 208.316 82.756C207.924 82.9987 207.612 83.3393 207.378 83.778C207.154 84.2073 207.042 84.6973 207.042 85.248C207.042 85.7893 207.154 86.2793 207.378 86.718C207.612 87.1473 207.924 87.488 208.316 87.74C208.718 87.992 209.166 88.118 209.66 88.118C210.155 88.118 210.589 87.992 210.962 87.74C211.345 87.488 211.634 87.152 211.83 86.732L212.782 87.25C212.624 87.614 212.386 87.9407 212.068 88.23C211.751 88.5193 211.387 88.748 210.976 88.916C210.566 89.084 210.127 89.168 209.66 89.168ZM218.139 89.168C217.43 89.168 216.786 89 216.207 88.664C215.628 88.3187 215.166 87.852 214.821 87.264C214.485 86.6667 214.317 85.99 214.317 85.234C214.317 84.4873 214.485 83.82 214.821 83.232C215.157 82.644 215.61 82.182 216.179 81.846C216.758 81.5007 217.411 81.328 218.139 81.328C218.867 81.328 219.516 81.496 220.085 81.832C220.664 82.168 221.116 82.63 221.443 83.218C221.779 83.806 221.947 84.478 221.947 85.234C221.947 85.9993 221.774 86.6807 221.429 87.278C221.084 87.866 220.622 88.328 220.043 88.664C219.474 89 218.839 89.168 218.139 89.168ZM218.139 88.118C218.643 88.118 219.096 87.992 219.497 87.74C219.908 87.488 220.23 87.1427 220.463 86.704C220.706 86.2653 220.827 85.7753 220.827 85.234C220.827 84.6927 220.706 84.2073 220.463 83.778C220.23 83.3487 219.908 83.008 219.497 82.756C219.096 82.504 218.643 82.378 218.139 82.378C217.635 82.378 217.178 82.504 216.767 82.756C216.366 83.008 216.044 83.3487 215.801 83.778C215.558 84.2073 215.437 84.6927 215.437 85.234C215.437 85.7753 215.558 86.2653 215.801 86.704C216.044 87.1427 216.366 87.488 216.767 87.74C217.178 87.992 217.635 88.118 218.139 88.118ZM223.799 89V81.496H224.849V82.924L224.681 82.714C224.886 82.2753 225.189 81.9347 225.591 81.692C226.001 81.4493 226.449 81.328 226.935 81.328C227.513 81.328 228.036 81.4913 228.503 81.818C228.969 82.1447 229.301 82.5693 229.497 83.092L229.203 83.106C229.389 82.5273 229.711 82.0887 230.169 81.79C230.635 81.482 231.149 81.328 231.709 81.328C232.213 81.328 232.675 81.4493 233.095 81.692C233.524 81.9347 233.865 82.2707 234.117 82.7C234.378 83.12 234.509 83.596 234.509 84.128V89H233.459V84.534C233.459 84.0767 233.375 83.6893 233.207 83.372C233.048 83.0547 232.829 82.812 232.549 82.644C232.269 82.4667 231.947 82.378 231.583 82.378C231.228 82.378 230.906 82.4667 230.617 82.644C230.327 82.812 230.099 83.0593 229.931 83.386C229.763 83.7033 229.679 84.086 229.679 84.534V89H228.629V84.534C228.629 84.0767 228.545 83.6893 228.377 83.372C228.218 83.0547 227.999 82.812 227.719 82.644C227.439 82.4667 227.117 82.378 226.753 82.378C226.389 82.378 226.062 82.4667 225.773 82.644C225.493 82.812 225.269 83.0593 225.101 83.386C224.933 83.7033 224.849 84.086 224.849 84.534V89H223.799ZM239.93 89.168C239.23 89.168 238.595 89 238.026 88.664C237.466 88.3187 237.022 87.8473 236.696 87.25C236.369 86.6527 236.206 85.976 236.206 85.22C236.206 84.464 236.364 83.7967 236.682 83.218C236.999 82.63 237.428 82.168 237.97 81.832C238.52 81.496 239.136 81.328 239.818 81.328C240.359 81.328 240.84 81.4307 241.26 81.636C241.689 81.832 242.053 82.1027 242.352 82.448C242.65 82.784 242.879 83.1667 243.038 83.596C243.196 84.016 243.276 84.45 243.276 84.898C243.276 84.9913 243.271 85.0987 243.262 85.22C243.252 85.332 243.238 85.4487 243.22 85.57H236.878V84.59H242.618L242.114 85.01C242.198 84.4967 242.137 84.0393 241.932 83.638C241.736 83.2273 241.451 82.9053 241.078 82.672C240.704 82.4293 240.284 82.308 239.818 82.308C239.351 82.308 238.917 82.4293 238.516 82.672C238.124 82.9147 237.816 83.2553 237.592 83.694C237.368 84.1233 237.279 84.6367 237.326 85.234C237.279 85.8313 237.372 86.354 237.606 86.802C237.848 87.2407 238.175 87.5813 238.586 87.824C239.006 88.0667 239.454 88.188 239.93 88.188C240.48 88.188 240.942 88.0573 241.316 87.796C241.689 87.5347 241.992 87.208 242.226 86.816L243.122 87.292C242.972 87.628 242.744 87.9407 242.436 88.23C242.128 88.51 241.759 88.7387 241.33 88.916C240.91 89.084 240.443 89.168 239.93 89.168ZM247.506 89V81.496H248.556V89H247.506ZM247.506 80.11V78.57H248.556V80.11H247.506ZM250.705 89V81.496H251.755V82.952L251.517 82.896C251.704 82.4107 252.007 82.028 252.427 81.748C252.856 81.468 253.351 81.328 253.911 81.328C254.443 81.328 254.919 81.4493 255.339 81.692C255.768 81.9347 256.104 82.2707 256.347 82.7C256.599 83.12 256.725 83.596 256.725 84.128V89H255.675V84.534C255.675 84.0767 255.591 83.6893 255.423 83.372C255.264 83.0547 255.036 82.812 254.737 82.644C254.448 82.4667 254.112 82.378 253.729 82.378C253.346 82.378 253.006 82.4667 252.707 82.644C252.408 82.812 252.175 83.0593 252.007 83.386C251.839 83.7033 251.755 84.086 251.755 84.534V89H250.705ZM263.279 89.168C262.803 89.168 262.379 89.0793 262.005 88.902C261.632 88.7153 261.338 88.4633 261.123 88.146C260.909 87.8287 260.801 87.4647 260.801 87.054C260.801 86.662 260.885 86.3073 261.053 85.99C261.221 85.6633 261.483 85.388 261.837 85.164C262.192 84.94 262.645 84.7813 263.195 84.688L266.135 84.198V85.15L263.447 85.598C262.906 85.6913 262.514 85.864 262.271 86.116C262.038 86.368 261.921 86.6667 261.921 87.012C261.921 87.348 262.052 87.6327 262.313 87.866C262.584 88.0993 262.929 88.216 263.349 88.216C263.863 88.216 264.311 88.1087 264.693 87.894C265.076 87.67 265.375 87.3713 265.589 86.998C265.804 86.6247 265.911 86.2093 265.911 85.752V83.848C265.911 83.4 265.748 83.036 265.421 82.756C265.095 82.476 264.67 82.336 264.147 82.336C263.69 82.336 263.289 82.4527 262.943 82.686C262.598 82.91 262.341 83.204 262.173 83.568L261.221 83.05C261.361 82.7327 261.581 82.4433 261.879 82.182C262.187 81.9207 262.537 81.7153 262.929 81.566C263.321 81.4073 263.727 81.328 264.147 81.328C264.698 81.328 265.183 81.4353 265.603 81.65C266.033 81.8647 266.364 82.1633 266.597 82.546C266.84 82.9193 266.961 83.3533 266.961 83.848V89H265.911V87.502L266.065 87.656C265.935 87.936 265.729 88.1927 265.449 88.426C265.179 88.65 264.857 88.832 264.483 88.972C264.119 89.1027 263.718 89.168 263.279 89.168ZM271.5 89V81.496H272.55V82.728L272.41 82.546C272.587 82.1913 272.853 81.9113 273.208 81.706C273.572 81.5007 274.011 81.398 274.524 81.398H275V82.448H274.342C273.801 82.448 273.367 82.616 273.04 82.952C272.713 83.288 272.55 83.764 272.55 84.38V89H271.5ZM278.4 89.168C277.924 89.168 277.5 89.0793 277.126 88.902C276.753 88.7153 276.459 88.4633 276.244 88.146C276.03 87.8287 275.922 87.4647 275.922 87.054C275.922 86.662 276.006 86.3073 276.174 85.99C276.342 85.6633 276.604 85.388 276.958 85.164C277.313 84.94 277.766 84.7813 278.316 84.688L281.256 84.198V85.15L278.568 85.598C278.027 85.6913 277.635 85.864 277.392 86.116C277.159 86.368 277.042 86.6667 277.042 87.012C277.042 87.348 277.173 87.6327 277.434 87.866C277.705 88.0993 278.05 88.216 278.47 88.216C278.984 88.216 279.432 88.1087 279.814 87.894C280.197 87.67 280.496 87.3713 280.71 86.998C280.925 86.6247 281.032 86.2093 281.032 85.752V83.848C281.032 83.4 280.869 83.036 280.542 82.756C280.216 82.476 279.791 82.336 279.268 82.336C278.811 82.336 278.41 82.4527 278.064 82.686C277.719 82.91 277.462 83.204 277.294 83.568L276.342 83.05C276.482 82.7327 276.702 82.4433 277 82.182C277.308 81.9207 277.658 81.7153 278.05 81.566C278.442 81.4073 278.848 81.328 279.268 81.328C279.819 81.328 280.304 81.4353 280.724 81.65C281.154 81.8647 281.485 82.1633 281.718 82.546C281.961 82.9193 282.082 83.3533 282.082 83.848V89H281.032V87.502L281.186 87.656C281.056 87.936 280.85 88.1927 280.57 88.426C280.3 88.65 279.978 88.832 279.604 88.972C279.24 89.1027 278.839 89.168 278.4 89.168ZM284.242 89V81.496H285.292V82.952L285.054 82.896C285.241 82.4107 285.544 82.028 285.964 81.748C286.393 81.468 286.888 81.328 287.448 81.328C287.98 81.328 288.456 81.4493 288.876 81.692C289.305 81.9347 289.641 82.2707 289.884 82.7C290.136 83.12 290.262 83.596 290.262 84.128V89H289.212V84.534C289.212 84.0767 289.128 83.6893 288.96 83.372C288.801 83.0547 288.573 82.812 288.274 82.644C287.985 82.4667 287.649 82.378 287.266 82.378C286.883 82.378 286.543 82.4667 286.244 82.644C285.945 82.812 285.712 83.0593 285.544 83.386C285.376 83.7033 285.292 84.086 285.292 84.534V89H284.242ZM295.823 92.08C295.31 92.08 294.834 92.0007 294.395 91.842C293.966 91.6833 293.593 91.464 293.275 91.184C292.967 90.9133 292.729 90.596 292.561 90.232L293.527 89.714C293.677 90.0687 293.943 90.3767 294.325 90.638C294.708 90.8993 295.198 91.03 295.795 91.03C296.253 91.03 296.673 90.9413 297.055 90.764C297.438 90.5867 297.746 90.3253 297.979 89.98C298.213 89.6347 298.329 89.21 298.329 88.706V87.04L298.497 87.194C298.236 87.7353 297.849 88.1553 297.335 88.454C296.822 88.7433 296.262 88.888 295.655 88.888C294.955 88.888 294.325 88.72 293.765 88.384C293.205 88.048 292.762 87.5953 292.435 87.026C292.118 86.4473 291.959 85.808 291.959 85.108C291.959 84.3987 292.118 83.7593 292.435 83.19C292.762 82.6207 293.201 82.168 293.751 81.832C294.311 81.496 294.946 81.328 295.655 81.328C296.262 81.328 296.813 81.468 297.307 81.748C297.811 82.028 298.208 82.406 298.497 82.882L298.329 83.176V81.496H299.379V88.706C299.379 89.35 299.225 89.924 298.917 90.428C298.619 90.9413 298.199 91.3427 297.657 91.632C297.125 91.9307 296.514 92.08 295.823 92.08ZM295.711 87.838C296.197 87.838 296.635 87.7167 297.027 87.474C297.419 87.222 297.732 86.8907 297.965 86.48C298.208 86.06 298.329 85.6027 298.329 85.108C298.329 84.6133 298.208 84.1607 297.965 83.75C297.732 83.33 297.419 82.9987 297.027 82.756C296.635 82.504 296.197 82.378 295.711 82.378C295.217 82.378 294.769 82.504 294.367 82.756C293.966 82.9987 293.649 83.3253 293.415 83.736C293.191 84.1467 293.079 84.604 293.079 85.108C293.079 85.6027 293.191 86.06 293.415 86.48C293.649 86.8907 293.961 87.222 294.353 87.474C294.755 87.7167 295.207 87.838 295.711 87.838ZM304.953 89.168C304.253 89.168 303.618 89 303.049 88.664C302.489 88.3187 302.046 87.8473 301.719 87.25C301.392 86.6527 301.229 85.976 301.229 85.22C301.229 84.464 301.388 83.7967 301.705 83.218C302.022 82.63 302.452 82.168 302.993 81.832C303.544 81.496 304.16 81.328 304.841 81.328C305.382 81.328 305.863 81.4307 306.283 81.636C306.712 81.832 307.076 82.1027 307.375 82.448C307.674 82.784 307.902 83.1667 308.061 83.596C308.22 84.016 308.299 84.45 308.299 84.898C308.299 84.9913 308.294 85.0987 308.285 85.22C308.276 85.332 308.262 85.4487 308.243 85.57H301.901V84.59H307.641L307.137 85.01C307.221 84.4967 307.16 84.0393 306.955 83.638C306.759 83.2273 306.474 82.9053 306.101 82.672C305.728 82.4293 305.308 82.308 304.841 82.308C304.374 82.308 303.94 82.4293 303.539 82.672C303.147 82.9147 302.839 83.2553 302.615 83.694C302.391 84.1233 302.302 84.6367 302.349 85.234C302.302 85.8313 302.396 86.354 302.629 86.802C302.872 87.2407 303.198 87.5813 303.609 87.824C304.029 88.0667 304.477 88.188 304.953 88.188C305.504 88.188 305.966 88.0573 306.339 87.796C306.712 87.5347 307.016 87.208 307.249 86.816L308.145 87.292C307.996 87.628 307.767 87.9407 307.459 88.23C307.151 88.51 306.782 88.7387 306.353 88.916C305.933 89.084 305.466 89.168 304.953 89.168ZM316.043 89.168C315.334 89.168 314.69 89 314.111 88.664C313.533 88.3187 313.071 87.852 312.725 87.264C312.389 86.6667 312.221 85.99 312.221 85.234C312.221 84.4873 312.389 83.82 312.725 83.232C313.061 82.644 313.514 82.182 314.083 81.846C314.662 81.5007 315.315 81.328 316.043 81.328C316.771 81.328 317.42 81.496 317.989 81.832C318.568 82.168 319.021 82.63 319.347 83.218C319.683 83.806 319.851 84.478 319.851 85.234C319.851 85.9993 319.679 86.6807 319.333 87.278C318.988 87.866 318.526 88.328 317.947 88.664C317.378 89 316.743 89.168 316.043 89.168ZM316.043 88.118C316.547 88.118 317 87.992 317.401 87.74C317.812 87.488 318.134 87.1427 318.367 86.704C318.61 86.2653 318.731 85.7753 318.731 85.234C318.731 84.6927 318.61 84.2073 318.367 83.778C318.134 83.3487 317.812 83.008 317.401 82.756C317 82.504 316.547 82.378 316.043 82.378C315.539 82.378 315.082 82.504 314.671 82.756C314.27 83.008 313.948 83.3487 313.705 83.778C313.463 84.2073 313.341 84.6927 313.341 85.234C313.341 85.7753 313.463 86.2653 313.705 86.704C313.948 87.1427 314.27 87.488 314.671 87.74C315.082 87.992 315.539 88.118 316.043 88.118ZM322.2 89V82.546H320.702V81.496H322.2V80.824C322.2 80.3013 322.316 79.8627 322.55 79.508C322.783 79.144 323.091 78.8687 323.474 78.682C323.856 78.4953 324.267 78.402 324.706 78.402C324.799 78.402 324.906 78.4113 325.028 78.43C325.149 78.4393 325.247 78.4533 325.322 78.472V79.424C325.256 79.4053 325.168 79.396 325.056 79.396C324.944 79.3867 324.864 79.382 324.818 79.382C324.37 79.382 323.996 79.4893 323.698 79.704C323.399 79.9187 323.25 80.292 323.25 80.824V81.496H325.084V82.546H323.25V89H322.2ZM144.078 111.8V101.496H145.128V103.176L144.96 102.882C145.259 102.406 145.655 102.028 146.15 101.748C146.654 101.468 147.228 101.328 147.872 101.328C148.581 101.328 149.211 101.501 149.762 101.846C150.322 102.182 150.761 102.644 151.078 103.232C151.405 103.82 151.568 104.492 151.568 105.248C151.568 105.995 151.405 106.667 151.078 107.264C150.761 107.852 150.322 108.319 149.762 108.664C149.211 109 148.581 109.168 147.872 109.168C147.228 109.168 146.645 109.023 146.122 108.734C145.609 108.435 145.221 108.015 144.96 107.474L145.128 107.32V111.8H144.078ZM147.816 108.118C148.32 108.118 148.768 107.992 149.16 107.74C149.561 107.488 149.874 107.147 150.098 106.718C150.331 106.279 150.448 105.789 150.448 105.248C150.448 104.697 150.331 104.207 150.098 103.778C149.874 103.349 149.561 103.008 149.16 102.756C148.768 102.504 148.32 102.378 147.816 102.378C147.312 102.378 146.855 102.504 146.444 102.756C146.043 103.008 145.721 103.353 145.478 103.792C145.245 104.221 145.128 104.707 145.128 105.248C145.128 105.789 145.245 106.279 145.478 106.718C145.721 107.147 146.043 107.488 146.444 107.74C146.855 107.992 147.312 108.118 147.816 108.118ZM153.416 109V101.496H154.466V102.728L154.326 102.546C154.503 102.191 154.769 101.911 155.124 101.706C155.488 101.501 155.927 101.398 156.44 101.398H156.916V102.448H156.258C155.717 102.448 155.283 102.616 154.956 102.952C154.629 103.288 154.466 103.764 154.466 104.38V109H153.416ZM161.562 109.168C160.862 109.168 160.228 109 159.658 108.664C159.098 108.319 158.655 107.847 158.328 107.25C158.002 106.653 157.838 105.976 157.838 105.22C157.838 104.464 157.997 103.797 158.314 103.218C158.632 102.63 159.061 102.168 159.602 101.832C160.153 101.496 160.769 101.328 161.45 101.328C161.992 101.328 162.472 101.431 162.892 101.636C163.322 101.832 163.686 102.103 163.984 102.448C164.283 102.784 164.512 103.167 164.67 103.596C164.829 104.016 164.908 104.45 164.908 104.898C164.908 104.991 164.904 105.099 164.894 105.22C164.885 105.332 164.871 105.449 164.852 105.57H158.51V104.59H164.25L163.746 105.01C163.83 104.497 163.77 104.039 163.564 103.638C163.368 103.227 163.084 102.905 162.71 102.672C162.337 102.429 161.917 102.308 161.45 102.308C160.984 102.308 160.55 102.429 160.148 102.672C159.756 102.915 159.448 103.255 159.224 103.694C159 104.123 158.912 104.637 158.958 105.234C158.912 105.831 159.005 106.354 159.238 106.802C159.481 107.241 159.808 107.581 160.218 107.824C160.638 108.067 161.086 108.188 161.562 108.188C162.113 108.188 162.575 108.057 162.948 107.796C163.322 107.535 163.625 107.208 163.858 106.816L164.754 107.292C164.605 107.628 164.376 107.941 164.068 108.23C163.76 108.51 163.392 108.739 162.962 108.916C162.542 109.084 162.076 109.168 161.562 109.168ZM170.19 109.168C169.452 109.168 168.804 108.995 168.244 108.65C167.684 108.305 167.245 107.838 166.928 107.25C166.61 106.653 166.452 105.981 166.452 105.234C166.452 104.487 166.61 103.82 166.928 103.232C167.245 102.644 167.684 102.182 168.244 101.846C168.804 101.501 169.452 101.328 170.19 101.328C170.656 101.328 171.095 101.412 171.506 101.58C171.916 101.748 172.28 101.977 172.598 102.266C172.915 102.546 173.153 102.873 173.312 103.246L172.36 103.736C172.173 103.335 171.888 103.008 171.506 102.756C171.123 102.504 170.684 102.378 170.19 102.378C169.695 102.378 169.247 102.504 168.846 102.756C168.454 102.999 168.141 103.339 167.908 103.778C167.684 104.207 167.572 104.697 167.572 105.248C167.572 105.789 167.684 106.279 167.908 106.718C168.141 107.147 168.454 107.488 168.846 107.74C169.247 107.992 169.695 108.118 170.19 108.118C170.684 108.118 171.118 107.992 171.492 107.74C171.874 107.488 172.164 107.152 172.36 106.732L173.312 107.25C173.153 107.614 172.915 107.941 172.598 108.23C172.28 108.519 171.916 108.748 171.506 108.916C171.095 109.084 170.656 109.168 170.19 109.168ZM175.154 109V101.496H176.204V109H175.154ZM175.154 100.11V98.57H176.204V100.11H175.154ZM181.867 109.168C181.158 109.168 180.514 109 179.935 108.664C179.357 108.319 178.895 107.852 178.549 107.264C178.213 106.667 178.045 105.99 178.045 105.234C178.045 104.487 178.213 103.82 178.549 103.232C178.885 102.644 179.338 102.182 179.907 101.846C180.486 101.501 181.139 101.328 181.867 101.328C182.595 101.328 183.244 101.496 183.813 101.832C184.392 102.168 184.845 102.63 185.171 103.218C185.507 103.806 185.675 104.478 185.675 105.234C185.675 105.999 185.503 106.681 185.157 107.278C184.812 107.866 184.35 108.328 183.771 108.664C183.202 109 182.567 109.168 181.867 109.168ZM181.867 108.118C182.371 108.118 182.824 107.992 183.225 107.74C183.636 107.488 183.958 107.143 184.191 106.704C184.434 106.265 184.555 105.775 184.555 105.234C184.555 104.693 184.434 104.207 184.191 103.778C183.958 103.349 183.636 103.008 183.225 102.756C182.824 102.504 182.371 102.378 181.867 102.378C181.363 102.378 180.906 102.504 180.495 102.756C180.094 103.008 179.772 103.349 179.529 103.778C179.287 104.207 179.165 104.693 179.165 105.234C179.165 105.775 179.287 106.265 179.529 106.704C179.772 107.143 180.094 107.488 180.495 107.74C180.906 107.992 181.363 108.118 181.867 108.118ZM190.187 109.168C189.665 109.168 189.189 109.047 188.759 108.804C188.33 108.552 187.989 108.207 187.737 107.768C187.495 107.32 187.373 106.807 187.373 106.228V101.496H188.423V106.102C188.423 106.503 188.503 106.858 188.661 107.166C188.829 107.465 189.058 107.698 189.347 107.866C189.646 108.034 189.987 108.118 190.369 108.118C190.752 108.118 191.093 108.034 191.391 107.866C191.69 107.689 191.923 107.441 192.091 107.124C192.259 106.797 192.343 106.41 192.343 105.962V101.496H193.393V109H192.343V107.544L192.581 107.6C192.404 108.085 192.101 108.468 191.671 108.748C191.242 109.028 190.747 109.168 190.187 109.168ZM198.157 109.168C197.438 109.168 196.808 108.986 196.267 108.622C195.725 108.258 195.333 107.763 195.091 107.138L195.973 106.718C196.187 107.175 196.486 107.539 196.869 107.81C197.261 108.081 197.69 108.216 198.157 108.216C198.605 108.216 198.983 108.109 199.291 107.894C199.599 107.67 199.753 107.381 199.753 107.026C199.753 106.765 199.678 106.559 199.529 106.41C199.379 106.251 199.207 106.13 199.011 106.046C198.815 105.962 198.642 105.901 198.493 105.864L197.415 105.556C196.724 105.36 196.225 105.085 195.917 104.73C195.609 104.375 195.455 103.965 195.455 103.498C195.455 103.059 195.567 102.677 195.791 102.35C196.015 102.023 196.318 101.771 196.701 101.594C197.083 101.417 197.508 101.328 197.975 101.328C198.609 101.328 199.183 101.496 199.697 101.832C200.219 102.159 200.588 102.616 200.803 103.204L199.907 103.624C199.72 103.204 199.449 102.877 199.095 102.644C198.749 102.401 198.362 102.28 197.933 102.28C197.513 102.28 197.177 102.387 196.925 102.602C196.673 102.817 196.547 103.087 196.547 103.414C196.547 103.666 196.612 103.867 196.743 104.016C196.873 104.165 197.023 104.277 197.191 104.352C197.368 104.427 197.522 104.483 197.653 104.52L198.899 104.884C199.505 105.061 199.977 105.337 200.313 105.71C200.658 106.083 200.831 106.522 200.831 107.026C200.831 107.437 200.714 107.805 200.481 108.132C200.257 108.459 199.944 108.715 199.543 108.902C199.141 109.079 198.679 109.168 198.157 109.168ZM205.055 109V101.496H206.105V102.924L205.937 102.714C206.142 102.275 206.445 101.935 206.847 101.692C207.257 101.449 207.705 101.328 208.191 101.328C208.769 101.328 209.292 101.491 209.759 101.818C210.225 102.145 210.557 102.569 210.753 103.092L210.459 103.106C210.645 102.527 210.967 102.089 211.425 101.79C211.891 101.482 212.405 101.328 212.965 101.328C213.469 101.328 213.931 101.449 214.351 101.692C214.78 101.935 215.121 102.271 215.373 102.7C215.634 103.12 215.765 103.596 215.765 104.128V109H214.715V104.534C214.715 104.077 214.631 103.689 214.463 103.372C214.304 103.055 214.085 102.812 213.805 102.644C213.525 102.467 213.203 102.378 212.839 102.378C212.484 102.378 212.162 102.467 211.873 102.644C211.583 102.812 211.355 103.059 211.187 103.386C211.019 103.703 210.935 104.086 210.935 104.534V109H209.885V104.534C209.885 104.077 209.801 103.689 209.633 103.372C209.474 103.055 209.255 102.812 208.975 102.644C208.695 102.467 208.373 102.378 208.009 102.378C207.645 102.378 207.318 102.467 207.029 102.644C206.749 102.812 206.525 103.059 206.357 103.386C206.189 103.703 206.105 104.086 206.105 104.534V109H205.055ZM221.185 109.168C220.485 109.168 219.851 109 219.281 108.664C218.721 108.319 218.278 107.847 217.951 107.25C217.625 106.653 217.461 105.976 217.461 105.22C217.461 104.464 217.62 103.797 217.937 103.218C218.255 102.63 218.684 102.168 219.225 101.832C219.776 101.496 220.392 101.328 221.073 101.328C221.615 101.328 222.095 101.431 222.515 101.636C222.945 101.832 223.309 102.103 223.607 102.448C223.906 102.784 224.135 103.167 224.293 103.596C224.452 104.016 224.531 104.45 224.531 104.898C224.531 104.991 224.527 105.099 224.517 105.22C224.508 105.332 224.494 105.449 224.475 105.57H218.133V104.59H223.873L223.369 105.01C223.453 104.497 223.393 104.039 223.187 103.638C222.991 103.227 222.707 102.905 222.333 102.672C221.96 102.429 221.54 102.308 221.073 102.308C220.607 102.308 220.173 102.429 219.771 102.672C219.379 102.915 219.071 103.255 218.847 103.694C218.623 104.123 218.535 104.637 218.581 105.234C218.535 105.831 218.628 106.354 218.861 106.802C219.104 107.241 219.431 107.581 219.841 107.824C220.261 108.067 220.709 108.188 221.185 108.188C221.736 108.188 222.198 108.057 222.571 107.796C222.945 107.535 223.248 107.208 223.481 106.816L224.377 107.292C224.228 107.628 223.999 107.941 223.691 108.23C223.383 108.51 223.015 108.739 222.585 108.916C222.165 109.084 221.699 109.168 221.185 109.168ZM229.253 109.084C228.581 109.084 228.063 108.888 227.699 108.496C227.335 108.104 227.153 107.544 227.153 106.816V102.546H225.767V101.496H226.117C226.434 101.496 226.686 101.393 226.873 101.188C227.059 100.973 227.153 100.707 227.153 100.39V99.76H228.203V101.496H229.855V102.546H228.203V106.816C228.203 107.068 228.24 107.292 228.315 107.488C228.389 107.675 228.515 107.824 228.693 107.936C228.879 108.048 229.127 108.104 229.435 108.104C229.509 108.104 229.598 108.099 229.701 108.09C229.803 108.081 229.892 108.071 229.967 108.062V109C229.855 109.028 229.729 109.047 229.589 109.056C229.449 109.075 229.337 109.084 229.253 109.084ZM233.844 109.168C233.368 109.168 232.943 109.079 232.57 108.902C232.196 108.715 231.902 108.463 231.688 108.146C231.473 107.829 231.366 107.465 231.366 107.054C231.366 106.662 231.45 106.307 231.618 105.99C231.786 105.663 232.047 105.388 232.402 105.164C232.756 104.94 233.209 104.781 233.76 104.688L236.7 104.198V105.15L234.012 105.598C233.47 105.691 233.078 105.864 232.836 106.116C232.602 106.368 232.486 106.667 232.486 107.012C232.486 107.348 232.616 107.633 232.878 107.866C233.148 108.099 233.494 108.216 233.914 108.216C234.427 108.216 234.875 108.109 235.258 107.894C235.64 107.67 235.939 107.371 236.154 106.998C236.368 106.625 236.476 106.209 236.476 105.752V103.848C236.476 103.4 236.312 103.036 235.986 102.756C235.659 102.476 235.234 102.336 234.712 102.336C234.254 102.336 233.853 102.453 233.508 102.686C233.162 102.91 232.906 103.204 232.738 103.568L231.786 103.05C231.926 102.733 232.145 102.443 232.444 102.182C232.752 101.921 233.102 101.715 233.494 101.566C233.886 101.407 234.292 101.328 234.712 101.328C235.262 101.328 235.748 101.435 236.168 101.65C236.597 101.865 236.928 102.163 237.162 102.546C237.404 102.919 237.526 103.353 237.526 103.848V109H236.476V107.502L236.63 107.656C236.499 107.936 236.294 108.193 236.014 108.426C235.743 108.65 235.421 108.832 235.048 108.972C234.684 109.103 234.282 109.168 233.844 109.168ZM239.685 109V98.402H240.735V109H239.685ZM245.489 109.168C244.77 109.168 244.14 108.986 243.599 108.622C243.057 108.258 242.665 107.763 242.423 107.138L243.305 106.718C243.519 107.175 243.818 107.539 244.201 107.81C244.593 108.081 245.022 108.216 245.489 108.216C245.937 108.216 246.315 108.109 246.623 107.894C246.931 107.67 247.085 107.381 247.085 107.026C247.085 106.765 247.01 106.559 246.861 106.41C246.711 106.251 246.539 106.13 246.343 106.046C246.147 105.962 245.974 105.901 245.825 105.864L244.747 105.556C244.056 105.36 243.557 105.085 243.249 104.73C242.941 104.375 242.787 103.965 242.787 103.498C242.787 103.059 242.899 102.677 243.123 102.35C243.347 102.023 243.65 101.771 244.033 101.594C244.415 101.417 244.84 101.328 245.307 101.328C245.941 101.328 246.515 101.496 247.029 101.832C247.551 102.159 247.92 102.616 248.135 103.204L247.239 103.624C247.052 103.204 246.781 102.877 246.427 102.644C246.081 102.401 245.694 102.28 245.265 102.28C244.845 102.28 244.509 102.387 244.257 102.602C244.005 102.817 243.879 103.087 243.879 103.414C243.879 103.666 243.944 103.867 244.075 104.016C244.205 104.165 244.355 104.277 244.523 104.352C244.7 104.427 244.854 104.483 244.985 104.52L246.231 104.884C246.837 105.061 247.309 105.337 247.645 105.71C247.99 106.083 248.163 106.522 248.163 107.026C248.163 107.437 248.046 107.805 247.813 108.132C247.589 108.459 247.276 108.715 246.875 108.902C246.473 109.079 246.011 109.168 245.489 109.168ZM254.557 109.168C254.081 109.168 253.656 109.079 253.283 108.902C252.909 108.715 252.615 108.463 252.401 108.146C252.186 107.829 252.079 107.465 252.079 107.054C252.079 106.662 252.163 106.307 252.331 105.99C252.499 105.663 252.76 105.388 253.115 105.164C253.469 104.94 253.922 104.781 254.473 104.688L257.413 104.198V105.15L254.725 105.598C254.183 105.691 253.791 105.864 253.549 106.116C253.315 106.368 253.199 106.667 253.199 107.012C253.199 107.348 253.329 107.633 253.591 107.866C253.861 108.099 254.207 108.216 254.627 108.216C255.14 108.216 255.588 108.109 255.971 107.894C256.353 107.67 256.652 107.371 256.867 106.998C257.081 106.625 257.189 106.209 257.189 105.752V103.848C257.189 103.4 257.025 103.036 256.699 102.756C256.372 102.476 255.947 102.336 255.425 102.336C254.967 102.336 254.566 102.453 254.221 102.686C253.875 102.91 253.619 103.204 253.451 103.568L252.499 103.05C252.639 102.733 252.858 102.443 253.157 102.182C253.465 101.921 253.815 101.715 254.207 101.566C254.599 101.407 255.005 101.328 255.425 101.328C255.975 101.328 256.461 101.435 256.881 101.65C257.31 101.865 257.641 102.163 257.875 102.546C258.117 102.919 258.239 103.353 258.239 103.848V109H257.189V107.502L257.343 107.656C257.212 107.936 257.007 108.193 256.727 108.426C256.456 108.65 256.134 108.832 255.761 108.972C255.397 109.103 254.995 109.168 254.557 109.168ZM260.398 109V101.496H261.448V102.952L261.21 102.896C261.397 102.411 261.7 102.028 262.12 101.748C262.55 101.468 263.044 101.328 263.604 101.328C264.136 101.328 264.612 101.449 265.032 101.692C265.462 101.935 265.798 102.271 266.04 102.7C266.292 103.12 266.418 103.596 266.418 104.128V109H265.368V104.534C265.368 104.077 265.284 103.689 265.116 103.372C264.958 103.055 264.729 102.812 264.43 102.644C264.141 102.467 263.805 102.378 263.422 102.378C263.04 102.378 262.699 102.467 262.4 102.644C262.102 102.812 261.868 103.059 261.7 103.386C261.532 103.703 261.448 104.086 261.448 104.534V109H260.398ZM271.812 109.168C271.112 109.168 270.482 109 269.922 108.664C269.362 108.319 268.918 107.852 268.592 107.264C268.274 106.667 268.116 105.995 268.116 105.248C268.116 104.492 268.274 103.82 268.592 103.232C268.918 102.644 269.357 102.182 269.908 101.846C270.468 101.501 271.102 101.328 271.812 101.328C272.456 101.328 273.03 101.468 273.534 101.748C274.038 102.028 274.434 102.406 274.724 102.882L274.556 103.176V98.402H275.606V109H274.556V107.32L274.724 107.474C274.462 108.015 274.07 108.435 273.548 108.734C273.034 109.023 272.456 109.168 271.812 109.168ZM271.868 108.118C272.372 108.118 272.824 107.992 273.226 107.74C273.636 107.488 273.958 107.147 274.192 106.718C274.434 106.279 274.556 105.789 274.556 105.248C274.556 104.707 274.434 104.221 274.192 103.792C273.958 103.353 273.636 103.008 273.226 102.756C272.824 102.504 272.372 102.378 271.868 102.378C271.373 102.378 270.925 102.504 270.524 102.756C270.122 103.008 269.805 103.349 269.572 103.778C269.348 104.207 269.236 104.697 269.236 105.248C269.236 105.789 269.348 106.279 269.572 106.718C269.805 107.147 270.118 107.488 270.51 107.74C270.911 107.992 271.364 108.118 271.868 108.118ZM282.745 109.168C282.026 109.168 281.396 108.986 280.855 108.622C280.313 108.258 279.921 107.763 279.679 107.138L280.561 106.718C280.775 107.175 281.074 107.539 281.457 107.81C281.849 108.081 282.278 108.216 282.745 108.216C283.193 108.216 283.571 108.109 283.879 107.894C284.187 107.67 284.341 107.381 284.341 107.026C284.341 106.765 284.266 106.559 284.117 106.41C283.967 106.251 283.795 106.13 283.599 106.046C283.403 105.962 283.23 105.901 283.081 105.864L282.003 105.556C281.312 105.36 280.813 105.085 280.505 104.73C280.197 104.375 280.043 103.965 280.043 103.498C280.043 103.059 280.155 102.677 280.379 102.35C280.603 102.023 280.906 101.771 281.289 101.594C281.671 101.417 282.096 101.328 282.562 101.328C283.197 101.328 283.771 101.496 284.285 101.832C284.807 102.159 285.176 102.616 285.391 103.204L284.495 103.624C284.308 103.204 284.037 102.877 283.683 102.644C283.337 102.401 282.95 102.28 282.521 102.28C282.101 102.28 281.765 102.387 281.513 102.602C281.261 102.817 281.135 103.087 281.135 103.414C281.135 103.666 281.2 103.867 281.331 104.016C281.461 104.165 281.611 104.277 281.779 104.352C281.956 104.427 282.11 104.483 282.241 104.52L283.487 104.884C284.093 105.061 284.565 105.337 284.901 105.71C285.246 106.083 285.419 106.522 285.419 107.026C285.419 107.437 285.302 107.805 285.069 108.132C284.845 108.459 284.532 108.715 284.131 108.902C283.729 109.079 283.267 109.168 282.745 109.168ZM290.134 109.084C289.462 109.084 288.944 108.888 288.58 108.496C288.216 108.104 288.034 107.544 288.034 106.816V102.546H286.648V101.496H286.998C287.315 101.496 287.567 101.393 287.754 101.188C287.94 100.973 288.034 100.707 288.034 100.39V99.76H289.084V101.496H290.736V102.546H289.084V106.816C289.084 107.068 289.121 107.292 289.196 107.488C289.27 107.675 289.396 107.824 289.574 107.936C289.76 108.048 290.008 108.104 290.316 108.104C290.39 108.104 290.479 108.099 290.582 108.09C290.684 108.081 290.773 108.071 290.848 108.062V109C290.736 109.028 290.61 109.047 290.47 109.056C290.33 109.075 290.218 109.084 290.134 109.084ZM292.845 112.08C292.696 112.08 292.542 112.066 292.383 112.038C292.234 112.019 292.085 111.982 291.935 111.926V110.946C292.029 110.955 292.145 110.969 292.285 110.988C292.435 111.016 292.584 111.03 292.733 111.03C293.191 111.03 293.541 110.932 293.783 110.736C294.026 110.549 294.264 110.185 294.497 109.644L294.973 108.524L294.945 109.448L291.767 101.496H292.901L295.505 108.062H295.211L297.801 101.496H298.963L295.533 109.952C295.384 110.316 295.193 110.661 294.959 110.988C294.735 111.315 294.451 111.576 294.105 111.772C293.76 111.977 293.34 112.08 292.845 112.08ZM300.197 109V98.402H301.247V109H300.197ZM306.812 109.168C306.112 109.168 305.478 109 304.908 108.664C304.348 108.319 303.905 107.847 303.578 107.25C303.252 106.653 303.088 105.976 303.088 105.22C303.088 104.464 303.247 103.797 303.564 103.218C303.882 102.63 304.311 102.168 304.852 101.832C305.403 101.496 306.019 101.328 306.7 101.328C307.242 101.328 307.722 101.431 308.142 101.636C308.572 101.832 308.936 102.103 309.234 102.448C309.533 102.784 309.762 103.167 309.92 103.596C310.079 104.016 310.158 104.45 310.158 104.898C310.158 104.991 310.154 105.099 310.144 105.22C310.135 105.332 310.121 105.449 310.102 105.57H303.76V104.59H309.5L308.996 105.01C309.08 104.497 309.02 104.039 308.814 103.638C308.618 103.227 308.334 102.905 307.96 102.672C307.587 102.429 307.167 102.308 306.7 102.308C306.234 102.308 305.8 102.429 305.398 102.672C305.006 102.915 304.698 103.255 304.474 103.694C304.25 104.123 304.162 104.637 304.208 105.234C304.162 105.831 304.255 106.354 304.488 106.802C304.731 107.241 305.058 107.581 305.468 107.824C305.888 108.067 306.336 108.188 306.812 108.188C307.363 108.188 307.825 108.057 308.198 107.796C308.572 107.535 308.875 107.208 309.108 106.816L310.004 107.292C309.855 107.628 309.626 107.941 309.318 108.23C309.01 108.51 308.642 108.739 308.212 108.916C307.792 109.084 307.326 109.168 306.812 109.168ZM314.614 109.168C313.895 109.168 313.265 108.986 312.724 108.622C312.182 108.258 311.79 107.763 311.548 107.138L312.43 106.718C312.644 107.175 312.943 107.539 313.326 107.81C313.718 108.081 314.147 108.216 314.614 108.216C315.062 108.216 315.44 108.109 315.748 107.894C316.056 107.67 316.21 107.381 316.21 107.026C316.21 106.765 316.135 106.559 315.986 106.41C315.836 106.251 315.664 106.13 315.468 106.046C315.272 105.962 315.099 105.901 314.95 105.864L313.872 105.556C313.181 105.36 312.682 105.085 312.374 104.73C312.066 104.375 311.912 103.965 311.912 103.498C311.912 103.059 312.024 102.677 312.248 102.35C312.472 102.023 312.775 101.771 313.158 101.594C313.54 101.417 313.965 101.328 314.432 101.328C315.066 101.328 315.64 101.496 316.154 101.832C316.676 102.159 317.045 102.616 317.26 103.204L316.364 103.624C316.177 103.204 315.906 102.877 315.552 102.644C315.206 102.401 314.819 102.28 314.39 102.28C313.97 102.28 313.634 102.387 313.382 102.602C313.13 102.817 313.004 103.087 313.004 103.414C313.004 103.666 313.069 103.867 313.2 104.016C313.33 104.165 313.48 104.277 313.648 104.352C313.825 104.427 313.979 104.483 314.11 104.52L315.356 104.884C315.962 105.061 316.434 105.337 316.77 105.71C317.115 106.083 317.288 106.522 317.288 107.026C317.288 107.437 317.171 107.805 316.938 108.132C316.714 108.459 316.401 108.715 316 108.902C315.598 109.079 315.136 109.168 314.614 109.168ZM324.382 109.084C323.71 109.084 323.192 108.888 322.828 108.496C322.464 108.104 322.282 107.544 322.282 106.816V102.546H320.896V101.496H321.246C321.563 101.496 321.815 101.393 322.002 101.188C322.188 100.973 322.282 100.707 322.282 100.39V99.76H323.332V101.496H324.984V102.546H323.332V106.816C323.332 107.068 323.369 107.292 323.444 107.488C323.518 107.675 323.644 107.824 323.822 107.936C324.008 108.048 324.256 108.104 324.564 108.104C324.638 108.104 324.727 108.099 324.83 108.09C324.932 108.081 325.021 108.071 325.096 108.062V109C324.984 109.028 324.858 109.047 324.718 109.056C324.578 109.075 324.466 109.084 324.382 109.084ZM330.18 109.168C329.471 109.168 328.827 109 328.248 108.664C327.669 108.319 327.207 107.852 326.862 107.264C326.526 106.667 326.358 105.99 326.358 105.234C326.358 104.487 326.526 103.82 326.862 103.232C327.198 102.644 327.651 102.182 328.22 101.846C328.799 101.501 329.452 101.328 330.18 101.328C330.908 101.328 331.557 101.496 332.126 101.832C332.705 102.168 333.157 102.63 333.484 103.218C333.82 103.806 333.988 104.478 333.988 105.234C333.988 105.999 333.815 106.681 333.47 107.278C333.125 107.866 332.663 108.328 332.084 108.664C331.515 109 330.88 109.168 330.18 109.168ZM330.18 108.118C330.684 108.118 331.137 107.992 331.538 107.74C331.949 107.488 332.271 107.143 332.504 106.704C332.747 106.265 332.868 105.775 332.868 105.234C332.868 104.693 332.747 104.207 332.504 103.778C332.271 103.349 331.949 103.008 331.538 102.756C331.137 102.504 330.684 102.378 330.18 102.378C329.676 102.378 329.219 102.504 328.808 102.756C328.407 103.008 328.085 103.349 327.842 103.778C327.599 104.207 327.478 104.693 327.478 105.234C327.478 105.775 327.599 106.265 327.842 106.704C328.085 107.143 328.407 107.488 328.808 107.74C329.219 107.992 329.676 108.118 330.18 108.118ZM340.823 109.168C340.104 109.168 339.474 108.986 338.933 108.622C338.391 108.258 337.999 107.763 337.757 107.138L338.639 106.718C338.853 107.175 339.152 107.539 339.535 107.81C339.927 108.081 340.356 108.216 340.823 108.216C341.271 108.216 341.649 108.109 341.957 107.894C342.265 107.67 342.419 107.381 342.419 107.026C342.419 106.765 342.344 106.559 342.195 106.41C342.045 106.251 341.873 106.13 341.677 106.046C341.481 105.962 341.308 105.901 341.159 105.864L340.081 105.556C339.39 105.36 338.891 105.085 338.583 104.73C338.275 104.375 338.121 103.965 338.121 103.498C338.121 103.059 338.233 102.677 338.457 102.35C338.681 102.023 338.984 101.771 339.367 101.594C339.749 101.417 340.174 101.328 340.641 101.328C341.275 101.328 341.849 101.496 342.363 101.832C342.885 102.159 343.254 102.616 343.469 103.204L342.573 103.624C342.386 103.204 342.115 102.877 341.761 102.644C341.415 102.401 341.028 102.28 340.599 102.28C340.179 102.28 339.843 102.387 339.591 102.602C339.339 102.817 339.213 103.087 339.213 103.414C339.213 103.666 339.278 103.867 339.409 104.016C339.539 104.165 339.689 104.277 339.857 104.352C340.034 104.427 340.188 104.483 340.319 104.52L341.565 104.884C342.171 105.061 342.643 105.337 342.979 105.71C343.324 106.083 343.497 106.522 343.497 107.026C343.497 107.437 343.38 107.805 343.147 108.132C342.923 108.459 342.61 108.715 342.209 108.902C341.807 109.079 341.345 109.168 340.823 109.168ZM348.002 109.168C347.479 109.168 347.003 109.047 346.574 108.804C346.144 108.552 345.804 108.207 345.552 107.768C345.309 107.32 345.188 106.807 345.188 106.228V101.496H346.238V106.102C346.238 106.503 346.317 106.858 346.476 107.166C346.644 107.465 346.872 107.698 347.162 107.866C347.46 108.034 347.801 108.118 348.184 108.118C348.566 108.118 348.907 108.034 349.206 107.866C349.504 107.689 349.738 107.441 349.906 107.124C350.074 106.797 350.158 106.41 350.158 105.962V101.496H351.208V109H350.158V107.544L350.396 107.6C350.218 108.085 349.915 108.468 349.486 108.748C349.056 109.028 348.562 109.168 348.002 109.168ZM353.367 109V101.496H354.417V109H353.367ZM353.367 100.11V98.57H354.417V100.11H353.367ZM359.436 109.084C358.764 109.084 358.246 108.888 357.882 108.496C357.518 108.104 357.336 107.544 357.336 106.816V102.546H355.95V101.496H356.3C356.618 101.496 356.87 101.393 357.056 101.188C357.243 100.973 357.336 100.707 357.336 100.39V99.76H358.386V101.496H360.038V102.546H358.386V106.816C358.386 107.068 358.424 107.292 358.498 107.488C358.573 107.675 358.699 107.824 358.876 107.936C359.063 108.048 359.31 108.104 359.618 108.104C359.693 108.104 359.782 108.099 359.884 108.09C359.987 108.081 360.076 108.071 360.15 108.062V109C360.038 109.028 359.912 109.047 359.772 109.056C359.632 109.075 359.52 109.084 359.436 109.084ZM147.494 129.168C146.794 129.168 146.159 129 145.59 128.664C145.03 128.319 144.587 127.847 144.26 127.25C143.933 126.653 143.77 125.976 143.77 125.22C143.77 124.464 143.929 123.797 144.246 123.218C144.563 122.63 144.993 122.168 145.534 121.832C146.085 121.496 146.701 121.328 147.382 121.328C147.923 121.328 148.404 121.431 148.824 121.636C149.253 121.832 149.617 122.103 149.916 122.448C150.215 122.784 150.443 123.167 150.602 123.596C150.761 124.016 150.84 124.45 150.84 124.898C150.84 124.991 150.835 125.099 150.826 125.22C150.817 125.332 150.803 125.449 150.784 125.57H144.442V124.59H150.182L149.678 125.01C149.762 124.497 149.701 124.039 149.496 123.638C149.3 123.227 149.015 122.905 148.642 122.672C148.269 122.429 147.849 122.308 147.382 122.308C146.915 122.308 146.481 122.429 146.08 122.672C145.688 122.915 145.38 123.255 145.156 123.694C144.932 124.123 144.843 124.637 144.89 125.234C144.843 125.831 144.937 126.354 145.17 126.802C145.413 127.241 145.739 127.581 146.15 127.824C146.57 128.067 147.018 128.188 147.494 128.188C148.045 128.188 148.507 128.057 148.88 127.796C149.253 127.535 149.557 127.208 149.79 126.816L150.686 127.292C150.537 127.628 150.308 127.941 150 128.23C149.692 128.51 149.323 128.739 148.894 128.916C148.474 129.084 148.007 129.168 147.494 129.168ZM154.557 129L151.631 121.496H152.807L155.271 128.076H154.893L157.371 121.496H158.561L155.607 129H154.557ZM163.066 129.168C162.366 129.168 161.732 129 161.162 128.664C160.602 128.319 160.159 127.847 159.832 127.25C159.506 126.653 159.342 125.976 159.342 125.22C159.342 124.464 159.501 123.797 159.818 123.218C160.136 122.63 160.565 122.168 161.106 121.832C161.657 121.496 162.273 121.328 162.954 121.328C163.496 121.328 163.976 121.431 164.396 121.636C164.826 121.832 165.19 122.103 165.488 122.448C165.787 122.784 166.016 123.167 166.174 123.596C166.333 124.016 166.412 124.45 166.412 124.898C166.412 124.991 166.408 125.099 166.398 125.22C166.389 125.332 166.375 125.449 166.356 125.57H160.014V124.59H165.754L165.25 125.01C165.334 124.497 165.274 124.039 165.068 123.638C164.872 123.227 164.588 122.905 164.214 122.672C163.841 122.429 163.421 122.308 162.954 122.308C162.488 122.308 162.054 122.429 161.652 122.672C161.26 122.915 160.952 123.255 160.728 123.694C160.504 124.123 160.416 124.637 160.462 125.234C160.416 125.831 160.509 126.354 160.742 126.802C160.985 127.241 161.312 127.581 161.722 127.824C162.142 128.067 162.59 128.188 163.066 128.188C163.617 128.188 164.079 128.057 164.452 127.796C164.826 127.535 165.129 127.208 165.362 126.816L166.258 127.292C166.109 127.628 165.88 127.941 165.572 128.23C165.264 128.51 164.896 128.739 164.466 128.916C164.046 129.084 163.58 129.168 163.066 129.168ZM168.264 129V121.496H169.314V122.728L169.174 122.546C169.351 122.191 169.617 121.911 169.972 121.706C170.336 121.501 170.774 121.398 171.288 121.398H171.764V122.448H171.106C170.564 122.448 170.13 122.616 169.804 122.952C169.477 123.288 169.314 123.764 169.314 124.38V129H168.264ZM173.148 132.08C172.999 132.08 172.845 132.066 172.686 132.038C172.537 132.019 172.387 131.982 172.238 131.926V130.946C172.331 130.955 172.448 130.969 172.588 130.988C172.737 131.016 172.887 131.03 173.036 131.03C173.493 131.03 173.843 130.932 174.086 130.736C174.329 130.549 174.567 130.185 174.8 129.644L175.276 128.524L175.248 129.448L172.07 121.496H173.204L175.808 128.062H175.514L178.104 121.496H179.266L175.836 129.952C175.687 130.316 175.495 130.661 175.262 130.988C175.038 131.315 174.753 131.576 174.408 131.772C174.063 131.977 173.643 132.08 173.148 132.08ZM185.749 129.084C185.077 129.084 184.559 128.888 184.195 128.496C183.831 128.104 183.649 127.544 183.649 126.816V122.546H182.263V121.496H182.613C182.93 121.496 183.182 121.393 183.369 121.188C183.555 120.973 183.649 120.707 183.649 120.39V119.76H184.699V121.496H186.351V122.546H184.699V126.816C184.699 127.068 184.736 127.292 184.811 127.488C184.885 127.675 185.011 127.824 185.189 127.936C185.375 128.048 185.623 128.104 185.931 128.104C186.005 128.104 186.094 128.099 186.197 128.09C186.299 128.081 186.388 128.071 186.463 128.062V129C186.351 129.028 186.225 129.047 186.085 129.056C185.945 129.075 185.833 129.084 185.749 129.084ZM190.34 129.168C189.864 129.168 189.439 129.079 189.066 128.902C188.692 128.715 188.398 128.463 188.184 128.146C187.969 127.829 187.862 127.465 187.862 127.054C187.862 126.662 187.946 126.307 188.114 125.99C188.282 125.663 188.543 125.388 188.898 125.164C189.252 124.94 189.705 124.781 190.256 124.688L193.196 124.198V125.15L190.508 125.598C189.966 125.691 189.574 125.864 189.332 126.116C189.098 126.368 188.982 126.667 188.982 127.012C188.982 127.348 189.112 127.633 189.374 127.866C189.644 128.099 189.99 128.216 190.41 128.216C190.923 128.216 191.371 128.109 191.754 127.894C192.136 127.67 192.435 127.371 192.65 126.998C192.864 126.625 192.972 126.209 192.972 125.752V123.848C192.972 123.4 192.808 123.036 192.482 122.756C192.155 122.476 191.73 122.336 191.208 122.336C190.75 122.336 190.349 122.453 190.004 122.686C189.658 122.91 189.402 123.204 189.234 123.568L188.282 123.05C188.422 122.733 188.641 122.443 188.94 122.182C189.248 121.921 189.598 121.715 189.99 121.566C190.382 121.407 190.788 121.328 191.208 121.328C191.758 121.328 192.244 121.435 192.664 121.65C193.093 121.865 193.424 122.163 193.658 122.546C193.9 122.919 194.022 123.353 194.022 123.848V129H192.972V127.502L193.126 127.656C192.995 127.936 192.79 128.193 192.51 128.426C192.239 128.65 191.917 128.832 191.544 128.972C191.18 129.103 190.778 129.168 190.34 129.168ZM198.786 129.168C198.067 129.168 197.437 128.986 196.896 128.622C196.354 128.258 195.962 127.763 195.72 127.138L196.602 126.718C196.816 127.175 197.115 127.539 197.498 127.81C197.89 128.081 198.319 128.216 198.786 128.216C199.234 128.216 199.612 128.109 199.92 127.894C200.228 127.67 200.382 127.381 200.382 127.026C200.382 126.765 200.307 126.559 200.158 126.41C200.008 126.251 199.836 126.13 199.64 126.046C199.444 125.962 199.271 125.901 199.122 125.864L198.044 125.556C197.353 125.36 196.854 125.085 196.546 124.73C196.238 124.375 196.084 123.965 196.084 123.498C196.084 123.059 196.196 122.677 196.42 122.35C196.644 122.023 196.947 121.771 197.33 121.594C197.712 121.417 198.137 121.328 198.604 121.328C199.238 121.328 199.812 121.496 200.326 121.832C200.848 122.159 201.217 122.616 201.432 123.204L200.536 123.624C200.349 123.204 200.078 122.877 199.724 122.644C199.378 122.401 198.991 122.28 198.562 122.28C198.142 122.28 197.806 122.387 197.554 122.602C197.302 122.817 197.176 123.087 197.176 123.414C197.176 123.666 197.241 123.867 197.372 124.016C197.502 124.165 197.652 124.277 197.82 124.352C197.997 124.427 198.151 124.483 198.282 124.52L199.528 124.884C200.134 125.061 200.606 125.337 200.942 125.71C201.287 126.083 201.46 126.522 201.46 127.026C201.46 127.437 201.343 127.805 201.11 128.132C200.886 128.459 200.573 128.715 200.172 128.902C199.77 129.079 199.308 129.168 198.786 129.168ZM206.175 129.084C205.503 129.084 204.985 128.888 204.621 128.496C204.257 128.104 204.075 127.544 204.075 126.816V122.546H202.689V121.496H203.039C203.356 121.496 203.608 121.393 203.795 121.188C203.981 120.973 204.075 120.707 204.075 120.39V119.76H205.125V121.496H206.777V122.546H205.125V126.816C205.125 127.068 205.162 127.292 205.237 127.488C205.311 127.675 205.437 127.824 205.615 127.936C205.801 128.048 206.049 128.104 206.357 128.104C206.431 128.104 206.52 128.099 206.623 128.09C206.725 128.081 206.814 128.071 206.889 128.062V129C206.777 129.028 206.651 129.047 206.511 129.056C206.371 129.075 206.259 129.084 206.175 129.084ZM211.875 129.168C211.175 129.168 210.54 129 209.971 128.664C209.411 128.319 208.968 127.847 208.641 127.25C208.314 126.653 208.151 125.976 208.151 125.22C208.151 124.464 208.31 123.797 208.627 123.218C208.944 122.63 209.374 122.168 209.915 121.832C210.466 121.496 211.082 121.328 211.763 121.328C212.304 121.328 212.785 121.431 213.205 121.636C213.634 121.832 213.998 122.103 214.297 122.448C214.596 122.784 214.824 123.167 214.983 123.596C215.142 124.016 215.221 124.45 215.221 124.898C215.221 124.991 215.216 125.099 215.207 125.22C215.198 125.332 215.184 125.449 215.165 125.57H208.823V124.59H214.563L214.059 125.01C214.143 124.497 214.082 124.039 213.877 123.638C213.681 123.227 213.396 122.905 213.023 122.672C212.65 122.429 212.23 122.308 211.763 122.308C211.296 122.308 210.862 122.429 210.461 122.672C210.069 122.915 209.761 123.255 209.537 123.694C209.313 124.123 209.224 124.637 209.271 125.234C209.224 125.831 209.318 126.354 209.551 126.802C209.794 127.241 210.12 127.581 210.531 127.824C210.951 128.067 211.399 128.188 211.875 128.188C212.426 128.188 212.888 128.057 213.261 127.796C213.634 127.535 213.938 127.208 214.171 126.816L215.067 127.292C214.918 127.628 214.689 127.941 214.381 128.23C214.073 128.51 213.704 128.739 213.275 128.916C212.855 129.084 212.388 129.168 211.875 129.168ZM217.436 129V127.46H218.556V129H217.436Z" fill="#1D1F1E"/>
</svg>
