<svg width="410" height="174" viewBox="0 0 410 174" fill="none" xmlns="http://www.w3.org/2000/svg">
<rect width="410" height="174" fill="#F8F8F8"/>
<path d="M107.964 73.8858L107.959 73.88L107.957 73.8733L97.7365 56.172C97.6755 56.0658 97.5616 56 97.4387 56H56.5614C56.4384 56 56.3246 56.0658 56.2636 56.172L46.0438 73.8733L46.0419 73.88L46.0366 73.8858L46.0361 73.8863C46.0289 73.9084 46.0241 73.9314 46.0217 73.955C45.9929 74.0112 45.9929 74.0775 46.0212 74.1341C46.025 74.163 46.0327 74.1908 46.0438 74.2177C46.0462 74.222 46.051 74.2235 46.0534 74.2273C46.0563 74.2316 46.0553 74.2374 46.0582 74.2417L76.7167 118.403C76.7206 118.409 76.7268 118.411 76.7307 118.415L76.7379 118.424H76.7374C76.7605 118.456 76.7912 118.482 76.8263 118.5C76.8349 118.504 76.8416 118.511 76.8503 118.515L76.8604 118.522L76.8709 118.525V118.524C76.9531 118.561 77.0463 118.561 77.1284 118.524L77.139 118.522L77.1491 118.515C77.1577 118.511 77.1644 118.504 77.1731 118.499V118.5C77.2081 118.482 77.2389 118.456 77.2619 118.424L77.2691 118.415C77.273 118.411 77.2792 118.409 77.2826 118.403L107.941 74.2417C107.944 74.2374 107.944 74.2316 107.946 74.2273C107.948 74.2235 107.953 74.2216 107.956 74.2177H107.956C107.967 74.1908 107.975 74.163 107.979 74.1341C108.007 74.0774 108.007 74.0112 107.978 73.955C107.976 73.9314 107.971 73.9084 107.964 73.8863L107.964 73.8858ZM96.8421 56.6886L87.2198 73.357L77.5965 56.6886H96.8421ZM86.6231 73.7013H67.3761L76.9994 57.0329L86.6231 73.7013ZM76.4033 56.6886L66.78 73.357L57.1577 56.6886H76.4033ZM56.5611 57.033L66.1834 73.7014H46.9376L56.5611 57.033ZM46.9998 74.3888H66.5063L75.7496 114.334L76.2597 116.537L46.9998 74.3888ZM76.9992 116.679L67.2126 74.3888H86.7856L76.9992 116.679ZM77.739 116.537L78.2491 114.334L87.4929 74.3888H106.999L77.739 116.537ZM87.8156 73.7012L97.4379 57.0327L107.061 73.7012H87.8156Z" fill="#1D1F1E" stroke="#1D1F1E" stroke-width="0.6"/>
<path opacity="0.2" d="M67 74H47L76.5 117L67 74Z" fill="#2A3E52" stroke="#2A3E52"/>
<path d="M149.784 58.192C148.941 58.192 148.157 58.0373 147.432 57.728C146.717 57.4187 146.093 56.992 145.56 56.448C145.037 55.8933 144.627 55.2427 144.328 54.496C144.029 53.7493 143.88 52.928 143.88 52.032C143.88 51.1467 144.024 50.3307 144.312 49.584C144.611 48.8267 145.027 48.176 145.56 47.632C146.093 47.0773 146.717 46.6507 147.432 46.352C148.147 46.0427 148.931 45.888 149.784 45.888C150.627 45.888 151.379 46.032 152.04 46.32C152.712 46.608 153.277 46.9867 153.736 47.456C154.195 47.9147 154.525 48.416 154.728 48.96L153.032 49.76C152.776 49.12 152.365 48.6027 151.8 48.208C151.245 47.8027 150.573 47.6 149.784 47.6C148.995 47.6 148.296 47.7867 147.688 48.16C147.08 48.5333 146.605 49.0507 146.264 49.712C145.933 50.3733 145.768 51.1467 145.768 52.032C145.768 52.9173 145.933 53.696 146.264 54.368C146.605 55.0293 147.08 55.5467 147.688 55.92C148.296 56.2827 148.995 56.464 149.784 56.464C150.573 56.464 151.245 56.2667 151.8 55.872C152.365 55.4773 152.776 54.96 153.032 54.32L154.728 55.12C154.525 55.6533 154.195 56.1547 153.736 56.624C153.277 57.0933 152.712 57.472 152.04 57.76C151.379 58.048 150.627 58.192 149.784 58.192ZM156.493 58V45.888H158.302V51.04L158.014 50.816C158.227 50.272 158.568 49.8613 159.038 49.584C159.507 49.296 160.051 49.152 160.67 49.152C161.31 49.152 161.875 49.2907 162.366 49.568C162.856 49.8453 163.24 50.2293 163.517 50.72C163.795 51.2107 163.934 51.7707 163.934 52.4V58H162.142V52.896C162.142 52.4587 162.056 52.0907 161.886 51.792C161.726 51.4827 161.502 51.248 161.214 51.088C160.926 50.9173 160.595 50.832 160.222 50.832C159.859 50.832 159.528 50.9173 159.23 51.088C158.942 51.248 158.712 51.4827 158.542 51.792C158.382 52.1013 158.302 52.4693 158.302 52.896V58H156.493ZM170.045 58.192C169.213 58.192 168.45 57.9947 167.757 57.6C167.074 57.2053 166.53 56.6667 166.125 55.984C165.719 55.3013 165.517 54.528 165.517 53.664C165.517 52.7893 165.719 52.016 166.125 51.344C166.53 50.6613 167.074 50.128 167.757 49.744C168.439 49.3493 169.202 49.152 170.045 49.152C170.898 49.152 171.661 49.3493 172.333 49.744C173.015 50.128 173.554 50.6613 173.949 51.344C174.354 52.016 174.557 52.7893 174.557 53.664C174.557 54.5387 174.354 55.3173 173.949 56C173.543 56.6827 172.999 57.2213 172.317 57.616C171.634 58 170.877 58.192 170.045 58.192ZM170.045 56.512C170.557 56.512 171.01 56.3893 171.405 56.144C171.799 55.8987 172.109 55.5627 172.333 55.136C172.567 54.6987 172.685 54.208 172.685 53.664C172.685 53.12 172.567 52.6347 172.333 52.208C172.109 51.7813 171.799 51.4453 171.405 51.2C171.01 50.9547 170.557 50.832 170.045 50.832C169.543 50.832 169.09 50.9547 168.685 51.2C168.29 51.4453 167.975 51.7813 167.741 52.208C167.517 52.6347 167.405 53.12 167.405 53.664C167.405 54.208 167.517 54.6987 167.741 55.136C167.975 55.5627 168.29 55.8987 168.685 56.144C169.09 56.3893 169.543 56.512 170.045 56.512ZM180.498 58.192C179.666 58.192 178.903 57.9947 178.21 57.6C177.527 57.2053 176.983 56.6667 176.578 55.984C176.172 55.3013 175.97 54.528 175.97 53.664C175.97 52.7893 176.172 52.016 176.578 51.344C176.983 50.6613 177.527 50.128 178.21 49.744C178.892 49.3493 179.655 49.152 180.498 49.152C181.351 49.152 182.114 49.3493 182.786 49.744C183.468 50.128 184.007 50.6613 184.402 51.344C184.807 52.016 185.01 52.7893 185.01 53.664C185.01 54.5387 184.807 55.3173 184.402 56C183.996 56.6827 183.452 57.2213 182.77 57.616C182.087 58 181.33 58.192 180.498 58.192ZM180.498 56.512C181.01 56.512 181.463 56.3893 181.858 56.144C182.252 55.8987 182.562 55.5627 182.786 55.136C183.02 54.6987 183.138 54.208 183.138 53.664C183.138 53.12 183.02 52.6347 182.786 52.208C182.562 51.7813 182.252 51.4453 181.858 51.2C181.463 50.9547 181.01 50.832 180.498 50.832C179.996 50.832 179.543 50.9547 179.138 51.2C178.743 51.4453 178.428 51.7813 178.194 52.208C177.97 52.6347 177.858 53.12 177.858 53.664C177.858 54.208 177.97 54.6987 178.194 55.136C178.428 55.5627 178.743 55.8987 179.138 56.144C179.543 56.3893 179.996 56.512 180.498 56.512ZM189.975 58.192C189.089 58.192 188.311 57.9733 187.639 57.536C186.977 57.0987 186.513 56.512 186.247 55.776L187.639 55.12C187.873 55.6107 188.193 56 188.599 56.288C189.015 56.576 189.473 56.72 189.975 56.72C190.401 56.72 190.748 56.624 191.015 56.432C191.281 56.24 191.415 55.9787 191.415 55.648C191.415 55.4347 191.356 55.264 191.239 55.136C191.121 54.9973 190.972 54.8853 190.791 54.8C190.62 54.7147 190.444 54.6507 190.263 54.608L188.903 54.224C188.156 54.0107 187.596 53.6907 187.223 53.264C186.86 52.8267 186.679 52.32 186.679 51.744C186.679 51.2213 186.812 50.768 187.079 50.384C187.345 49.9893 187.713 49.6853 188.183 49.472C188.652 49.2587 189.18 49.152 189.767 49.152C190.556 49.152 191.26 49.3493 191.879 49.744C192.497 50.128 192.935 50.6667 193.191 51.36L191.799 52.016C191.628 51.6 191.356 51.2693 190.983 51.024C190.62 50.7787 190.209 50.656 189.751 50.656C189.356 50.656 189.041 50.752 188.807 50.944C188.572 51.1253 188.455 51.3653 188.455 51.664C188.455 51.8667 188.508 52.0373 188.615 52.176C188.721 52.304 188.86 52.4107 189.031 52.496C189.201 52.5707 189.377 52.6347 189.559 52.688L190.967 53.104C191.681 53.3067 192.231 53.6267 192.615 54.064C192.999 54.4907 193.191 55.0027 193.191 55.6C193.191 56.112 193.052 56.5653 192.775 56.96C192.508 57.344 192.135 57.648 191.655 57.872C191.175 58.0853 190.615 58.192 189.975 58.192ZM199.026 58.192C198.162 58.192 197.394 57.9947 196.722 57.6C196.061 57.1947 195.544 56.6507 195.17 55.968C194.797 55.2747 194.61 54.5013 194.61 53.648C194.61 52.7733 194.797 52 195.17 51.328C195.554 50.656 196.066 50.128 196.706 49.744C197.346 49.3493 198.072 49.152 198.882 49.152C199.533 49.152 200.114 49.264 200.626 49.488C201.138 49.712 201.57 50.0213 201.922 50.416C202.274 50.8 202.541 51.2427 202.722 51.744C202.914 52.2453 203.01 52.7787 203.01 53.344C203.01 53.4827 203.005 53.6267 202.994 53.776C202.984 53.9253 202.962 54.064 202.93 54.192H196.034V52.752H201.906L201.042 53.408C201.149 52.8853 201.112 52.4213 200.93 52.016C200.76 51.6 200.493 51.2747 200.13 51.04C199.778 50.7947 199.362 50.672 198.882 50.672C198.402 50.672 197.976 50.7947 197.602 51.04C197.229 51.2747 196.941 51.616 196.738 52.064C196.536 52.5013 196.456 53.0347 196.498 53.664C196.445 54.2507 196.525 54.7627 196.738 55.2C196.962 55.6373 197.272 55.9787 197.666 56.224C198.072 56.4693 198.53 56.592 199.042 56.592C199.565 56.592 200.008 56.4747 200.37 56.24C200.744 56.0053 201.037 55.7013 201.25 55.328L202.722 56.048C202.552 56.4533 202.285 56.8213 201.922 57.152C201.57 57.472 201.144 57.728 200.642 57.92C200.152 58.1013 199.613 58.192 199.026 58.192ZM208.34 61.536C208.126 61.536 207.913 61.5147 207.7 61.472C207.497 61.44 207.31 61.3867 207.14 61.312V59.76C207.268 59.792 207.422 59.8187 207.604 59.84C207.785 59.872 207.961 59.888 208.132 59.888C208.633 59.888 209.001 59.776 209.236 59.552C209.481 59.3387 209.7 59.0027 209.892 58.544L210.468 57.232L210.436 58.752L206.692 49.344H208.628L211.396 56.56H210.74L213.492 49.344H215.444L211.62 58.944C211.417 59.456 211.161 59.904 210.852 60.288C210.553 60.6827 210.196 60.9867 209.78 61.2C209.374 61.424 208.894 61.536 208.34 61.536ZM220.701 58.192C219.869 58.192 219.106 57.9947 218.413 57.6C217.73 57.2053 217.186 56.6667 216.781 55.984C216.375 55.3013 216.173 54.528 216.173 53.664C216.173 52.7893 216.375 52.016 216.781 51.344C217.186 50.6613 217.73 50.128 218.413 49.744C219.095 49.3493 219.858 49.152 220.701 49.152C221.554 49.152 222.317 49.3493 222.989 49.744C223.671 50.128 224.21 50.6613 224.605 51.344C225.01 52.016 225.213 52.7893 225.213 53.664C225.213 54.5387 225.01 55.3173 224.605 56C224.199 56.6827 223.655 57.2213 222.973 57.616C222.29 58 221.533 58.192 220.701 58.192ZM220.701 56.512C221.213 56.512 221.666 56.3893 222.061 56.144C222.455 55.8987 222.765 55.5627 222.989 55.136C223.223 54.6987 223.341 54.208 223.341 53.664C223.341 53.12 223.223 52.6347 222.989 52.208C222.765 51.7813 222.455 51.4453 222.061 51.2C221.666 50.9547 221.213 50.832 220.701 50.832C220.199 50.832 219.746 50.9547 219.341 51.2C218.946 51.4453 218.631 51.7813 218.397 52.208C218.173 52.6347 218.061 53.12 218.061 53.664C218.061 54.208 218.173 54.6987 218.397 55.136C218.631 55.5627 218.946 55.8987 219.341 56.144C219.746 56.3893 220.199 56.512 220.701 56.512ZM230.066 58.192C229.415 58.192 228.845 58.048 228.354 57.76C227.863 57.4613 227.479 57.0507 227.202 56.528C226.935 55.9947 226.802 55.3813 226.802 54.688V49.344H228.61V54.528C228.61 54.9227 228.69 55.2693 228.85 55.568C229.01 55.8667 229.234 56.1013 229.522 56.272C229.81 56.432 230.141 56.512 230.514 56.512C230.898 56.512 231.234 56.4267 231.522 56.256C231.81 56.0853 232.034 55.8453 232.194 55.536C232.365 55.2267 232.45 54.864 232.45 54.448V49.344H234.242V58H232.53V56.304L232.722 56.528C232.519 57.0613 232.183 57.472 231.714 57.76C231.245 58.048 230.695 58.192 230.066 58.192ZM236.353 58V49.344H238.081V51.088L237.921 50.832C238.113 50.2667 238.422 49.8613 238.849 49.616C239.276 49.36 239.788 49.232 240.385 49.232H240.913V50.88H240.161C239.564 50.88 239.078 51.0667 238.705 51.44C238.342 51.8027 238.161 52.3253 238.161 53.008V58H236.353ZM248.947 58.192C248.115 58.192 247.368 57.9947 246.707 57.6C246.056 57.1947 245.539 56.6507 245.155 55.968C244.781 55.2853 244.595 54.5173 244.595 53.664C244.595 52.8107 244.787 52.0427 245.171 51.36C245.555 50.6773 246.072 50.1387 246.723 49.744C247.373 49.3493 248.109 49.152 248.931 49.152C249.624 49.152 250.237 49.2907 250.771 49.568C251.304 49.8453 251.725 50.2293 252.035 50.72L251.763 51.136V45.888H253.555V58H251.843V56.24L252.051 56.576C251.752 57.0987 251.325 57.4987 250.771 57.776C250.216 58.0533 249.608 58.192 248.947 58.192ZM249.123 56.512C249.624 56.512 250.072 56.3893 250.467 56.144C250.872 55.8987 251.187 55.5627 251.411 55.136C251.645 54.6987 251.763 54.208 251.763 53.664C251.763 53.12 251.645 52.6347 251.411 52.208C251.187 51.7813 250.872 51.4453 250.467 51.2C250.072 50.9547 249.624 50.832 249.123 50.832C248.621 50.832 248.168 50.9547 247.763 51.2C247.357 51.4453 247.043 51.7813 246.819 52.208C246.595 52.6347 246.483 53.12 246.483 53.664C246.483 54.208 246.595 54.6987 246.819 55.136C247.043 55.5627 247.352 55.8987 247.747 56.144C248.152 56.3893 248.611 56.512 249.123 56.512ZM255.665 58V49.344H257.473V58H255.665ZM255.665 48.16V46.08H257.473V48.16H255.665ZM262.179 58.192C261.593 58.192 261.075 58.0907 260.627 57.888C260.19 57.6747 259.849 57.3867 259.603 57.024C259.358 56.6507 259.235 56.2133 259.235 55.712C259.235 55.2427 259.337 54.8213 259.539 54.448C259.753 54.0747 260.078 53.76 260.515 53.504C260.953 53.248 261.502 53.0667 262.163 52.96L265.171 52.464V53.888L262.515 54.352C262.035 54.4373 261.683 54.592 261.459 54.816C261.235 55.0293 261.123 55.3067 261.123 55.648C261.123 55.9787 261.246 56.2507 261.491 56.464C261.747 56.6667 262.073 56.768 262.467 56.768C262.958 56.768 263.385 56.6613 263.747 56.448C264.121 56.2347 264.409 55.952 264.611 55.6C264.814 55.2373 264.915 54.8373 264.915 54.4V52.176C264.915 51.7493 264.755 51.4027 264.435 51.136C264.126 50.8587 263.71 50.72 263.187 50.72C262.707 50.72 262.286 50.848 261.923 51.104C261.571 51.3493 261.31 51.6693 261.139 52.064L259.635 51.312C259.795 50.8853 260.057 50.512 260.419 50.192C260.782 49.8613 261.203 49.6053 261.683 49.424C262.174 49.2427 262.691 49.152 263.235 49.152C263.918 49.152 264.521 49.28 265.043 49.536C265.577 49.792 265.987 50.1493 266.275 50.608C266.574 51.056 266.723 51.5787 266.723 52.176V58H264.995V56.432L265.363 56.48C265.161 56.832 264.899 57.136 264.579 57.392C264.27 57.648 263.913 57.8453 263.507 57.984C263.113 58.1227 262.67 58.192 262.179 58.192ZM268.837 58V49.344H270.565V51.216L270.341 50.928C270.523 50.3413 270.853 49.8987 271.333 49.6C271.813 49.3013 272.363 49.152 272.981 49.152C273.675 49.152 274.288 49.3387 274.821 49.712C275.365 50.0747 275.728 50.56 275.909 51.168L275.397 51.216C275.653 50.5227 276.043 50.0053 276.565 49.664C277.099 49.3227 277.707 49.152 278.389 49.152C278.987 49.152 279.525 49.2907 280.005 49.568C280.496 49.8453 280.885 50.2293 281.173 50.72C281.461 51.2107 281.605 51.7707 281.605 52.4V58H279.797V52.896C279.797 52.4587 279.717 52.0907 279.557 51.792C279.408 51.4827 279.195 51.248 278.917 51.088C278.651 50.9173 278.336 50.832 277.973 50.832C277.611 50.832 277.291 50.9173 277.013 51.088C276.736 51.248 276.517 51.4827 276.357 51.792C276.197 52.1013 276.117 52.4693 276.117 52.896V58H274.325V52.896C274.325 52.4587 274.245 52.0907 274.085 51.792C273.936 51.4827 273.723 51.248 273.445 51.088C273.179 50.9173 272.859 50.832 272.485 50.832C272.123 50.832 271.803 50.9173 271.525 51.088C271.248 51.248 271.029 51.4827 270.869 51.792C270.72 52.1013 270.645 52.4693 270.645 52.896V58H268.837ZM287.716 58.192C286.884 58.192 286.122 57.9947 285.428 57.6C284.746 57.2053 284.202 56.6667 283.796 55.984C283.391 55.3013 283.188 54.528 283.188 53.664C283.188 52.7893 283.391 52.016 283.796 51.344C284.202 50.6613 284.746 50.128 285.428 49.744C286.111 49.3493 286.874 49.152 287.716 49.152C288.57 49.152 289.332 49.3493 290.004 49.744C290.687 50.128 291.226 50.6613 291.62 51.344C292.026 52.016 292.228 52.7893 292.228 53.664C292.228 54.5387 292.026 55.3173 291.62 56C291.215 56.6827 290.671 57.2213 289.988 57.616C289.306 58 288.548 58.192 287.716 58.192ZM287.716 56.512C288.228 56.512 288.682 56.3893 289.076 56.144C289.471 55.8987 289.78 55.5627 290.004 55.136C290.239 54.6987 290.356 54.208 290.356 53.664C290.356 53.12 290.239 52.6347 290.004 52.208C289.78 51.7813 289.471 51.4453 289.076 51.2C288.682 50.9547 288.228 50.832 287.716 50.832C287.215 50.832 286.762 50.9547 286.356 51.2C285.962 51.4453 285.647 51.7813 285.412 52.208C285.188 52.6347 285.076 53.12 285.076 53.664C285.076 54.208 285.188 54.6987 285.412 55.136C285.647 55.5627 285.962 55.8987 286.356 56.144C286.762 56.3893 287.215 56.512 287.716 56.512ZM293.993 58V49.344H295.722V51.04L295.514 50.816C295.727 50.272 296.068 49.8613 296.538 49.584C297.007 49.296 297.551 49.152 298.17 49.152C298.81 49.152 299.375 49.2907 299.866 49.568C300.356 49.8453 300.74 50.2293 301.017 50.72C301.295 51.2107 301.434 51.776 301.434 52.416V58H299.642V52.896C299.642 52.4587 299.562 52.0907 299.402 51.792C299.242 51.4827 299.012 51.248 298.714 51.088C298.426 50.9173 298.095 50.832 297.722 50.832C297.348 50.832 297.012 50.9173 296.714 51.088C296.426 51.248 296.202 51.4827 296.042 51.792C295.882 52.1013 295.802 52.4693 295.802 52.896V58H293.993ZM307.369 58.192C306.537 58.192 305.79 57.9947 305.129 57.6C304.478 57.1947 303.961 56.6507 303.577 55.968C303.203 55.2853 303.017 54.5173 303.017 53.664C303.017 52.8107 303.209 52.0427 303.593 51.36C303.977 50.6773 304.494 50.1387 305.145 49.744C305.795 49.3493 306.531 49.152 307.353 49.152C308.046 49.152 308.659 49.2907 309.193 49.568C309.726 49.8453 310.147 50.2293 310.457 50.72L310.185 51.136V45.888H311.977V58H310.265V56.24L310.473 56.576C310.174 57.0987 309.747 57.4987 309.193 57.776C308.638 58.0533 308.03 58.192 307.369 58.192ZM307.545 56.512C308.046 56.512 308.494 56.3893 308.889 56.144C309.294 55.8987 309.609 55.5627 309.833 55.136C310.067 54.6987 310.185 54.208 310.185 53.664C310.185 53.12 310.067 52.6347 309.833 52.208C309.609 51.7813 309.294 51.4453 308.889 51.2C308.494 50.9547 308.046 50.832 307.545 50.832C307.043 50.832 306.59 50.9547 306.185 51.2C305.779 51.4453 305.465 51.7813 305.241 52.208C305.017 52.6347 304.905 53.12 304.905 53.664C304.905 54.208 305.017 54.6987 305.241 55.136C305.465 55.5627 305.774 55.8987 306.169 56.144C306.574 56.3893 307.033 56.512 307.545 56.512Z" fill="#1D1F1E"/>
<path d="M144.232 89V78.57H145.352V87.95H149.972V89H144.232ZM153.686 89.168C153.21 89.168 152.785 89.0793 152.412 88.902C152.038 88.7153 151.744 88.4633 151.53 88.146C151.315 87.8287 151.208 87.4647 151.208 87.054C151.208 86.662 151.292 86.3073 151.46 85.99C151.628 85.6633 151.889 85.388 152.244 85.164C152.598 84.94 153.051 84.7813 153.602 84.688L156.542 84.198V85.15L153.854 85.598C153.312 85.6913 152.92 85.864 152.678 86.116C152.444 86.368 152.328 86.6667 152.328 87.012C152.328 87.348 152.458 87.6327 152.72 87.866C152.99 88.0993 153.336 88.216 153.756 88.216C154.269 88.216 154.717 88.1087 155.1 87.894C155.482 87.67 155.781 87.3713 155.996 86.998C156.21 86.6247 156.318 86.2093 156.318 85.752V83.848C156.318 83.4 156.154 83.036 155.828 82.756C155.501 82.476 155.076 82.336 154.553 82.336C154.096 82.336 153.695 82.4527 153.35 82.686C153.004 82.91 152.748 83.204 152.58 83.568L151.628 83.05C151.768 82.7327 151.987 82.4433 152.285 82.182C152.594 81.9207 152.944 81.7153 153.336 81.566C153.728 81.4073 154.134 81.328 154.553 81.328C155.104 81.328 155.59 81.4353 156.01 81.65C156.439 81.8647 156.77 82.1633 157.004 82.546C157.246 82.9193 157.368 83.3533 157.368 83.848V89H156.318V87.502L156.472 87.656C156.341 87.936 156.136 88.1927 155.856 88.426C155.585 88.65 155.263 88.832 154.89 88.972C154.526 89.1027 154.124 89.168 153.686 89.168ZM163.321 89.168C162.677 89.168 162.094 89.0233 161.571 88.734C161.058 88.4353 160.671 88.0153 160.409 87.474L160.577 87.32V89H159.527V78.402H160.577V83.176L160.409 82.882C160.708 82.406 161.105 82.028 161.599 81.748C162.103 81.468 162.677 81.328 163.321 81.328C164.031 81.328 164.661 81.5007 165.211 81.846C165.771 82.182 166.21 82.644 166.527 83.232C166.854 83.82 167.017 84.492 167.017 85.248C167.017 85.9947 166.854 86.6667 166.527 87.264C166.21 87.852 165.771 88.3187 165.211 88.664C164.661 89 164.031 89.168 163.321 89.168ZM163.265 88.118C163.769 88.118 164.217 87.992 164.609 87.74C165.011 87.488 165.323 87.1473 165.547 86.718C165.781 86.2793 165.897 85.7893 165.897 85.248C165.897 84.6973 165.781 84.2073 165.547 83.778C165.323 83.3487 165.011 83.008 164.609 82.756C164.217 82.504 163.769 82.378 163.265 82.378C162.761 82.378 162.304 82.504 161.893 82.756C161.492 83.008 161.17 83.3533 160.927 83.792C160.694 84.2213 160.577 84.7067 160.577 85.248C160.577 85.7893 160.694 86.2793 160.927 86.718C161.17 87.1473 161.492 87.488 161.893 87.74C162.304 87.992 162.761 88.118 163.265 88.118ZM174.8 92.08C174.287 92.08 173.811 92.0007 173.372 91.842C172.943 91.6833 172.569 91.464 172.252 91.184C171.944 90.9133 171.706 90.596 171.538 90.232L172.504 89.714C172.653 90.0687 172.919 90.3767 173.302 90.638C173.685 90.8993 174.175 91.03 174.772 91.03C175.229 91.03 175.649 90.9413 176.032 90.764C176.415 90.5867 176.723 90.3253 176.956 89.98C177.189 89.6347 177.306 89.21 177.306 88.706V87.04L177.474 87.194C177.213 87.7353 176.825 88.1553 176.312 88.454C175.799 88.7433 175.239 88.888 174.632 88.888C173.932 88.888 173.302 88.72 172.742 88.384C172.182 88.048 171.739 87.5953 171.412 87.026C171.095 86.4473 170.936 85.808 170.936 85.108C170.936 84.3987 171.095 83.7593 171.412 83.19C171.739 82.6207 172.177 82.168 172.728 81.832C173.288 81.496 173.923 81.328 174.632 81.328C175.239 81.328 175.789 81.468 176.284 81.748C176.788 82.028 177.185 82.406 177.474 82.882L177.306 83.176V81.496H178.356V88.706C178.356 89.35 178.202 89.924 177.894 90.428C177.595 90.9413 177.175 91.3427 176.634 91.632C176.102 91.9307 175.491 92.08 174.8 92.08ZM174.688 87.838C175.173 87.838 175.612 87.7167 176.004 87.474C176.396 87.222 176.709 86.8907 176.942 86.48C177.185 86.06 177.306 85.6027 177.306 85.108C177.306 84.6133 177.185 84.1607 176.942 83.75C176.709 83.33 176.396 82.9987 176.004 82.756C175.612 82.504 175.173 82.378 174.688 82.378C174.193 82.378 173.745 82.504 173.344 82.756C172.943 82.9987 172.625 83.3253 172.392 83.736C172.168 84.1467 172.056 84.604 172.056 85.108C172.056 85.6027 172.168 86.06 172.392 86.48C172.625 86.8907 172.938 87.222 173.33 87.474C173.731 87.7167 174.184 87.838 174.688 87.838ZM180.514 89V81.496H181.564V82.728L181.424 82.546C181.601 82.1913 181.867 81.9113 182.222 81.706C182.586 81.5007 183.024 81.398 183.538 81.398H184.014V82.448H183.356C182.814 82.448 182.38 82.616 182.054 82.952C181.727 83.288 181.564 83.764 181.564 84.38V89H180.514ZM188.758 89.168C188.049 89.168 187.405 89 186.826 88.664C186.247 88.3187 185.785 87.852 185.44 87.264C185.104 86.6667 184.936 85.99 184.936 85.234C184.936 84.4873 185.104 83.82 185.44 83.232C185.776 82.644 186.229 82.182 186.798 81.846C187.377 81.5007 188.03 81.328 188.758 81.328C189.486 81.328 190.135 81.496 190.704 81.832C191.283 82.168 191.735 82.63 192.062 83.218C192.398 83.806 192.566 84.478 192.566 85.234C192.566 85.9993 192.393 86.6807 192.048 87.278C191.703 87.866 191.241 88.328 190.662 88.664C190.093 89 189.458 89.168 188.758 89.168ZM188.758 88.118C189.262 88.118 189.715 87.992 190.116 87.74C190.527 87.488 190.849 87.1427 191.082 86.704C191.325 86.2653 191.446 85.7753 191.446 85.234C191.446 84.6927 191.325 84.2073 191.082 83.778C190.849 83.3487 190.527 83.008 190.116 82.756C189.715 82.504 189.262 82.378 188.758 82.378C188.254 82.378 187.797 82.504 187.386 82.756C186.985 83.008 186.663 83.3487 186.42 83.778C186.177 84.2073 186.056 84.6927 186.056 85.234C186.056 85.7753 186.177 86.2653 186.42 86.704C186.663 87.1427 186.985 87.488 187.386 87.74C187.797 87.992 188.254 88.118 188.758 88.118ZM195.933 89L193.357 81.496H194.547L196.675 88.062H196.255L198.257 81.496H199.307L201.309 88.062H200.889L203.031 81.496H204.207L201.631 89H200.581L198.635 82.574H198.929L196.983 89H195.933ZM205.437 89V81.496H206.487V82.952L206.249 82.896C206.436 82.4107 206.739 82.028 207.159 81.748C207.589 81.468 208.083 81.328 208.643 81.328C209.175 81.328 209.651 81.4493 210.071 81.692C210.501 81.9347 210.837 82.2707 211.079 82.7C211.331 83.12 211.457 83.596 211.457 84.128V89H210.407V84.534C210.407 84.0767 210.323 83.6893 210.155 83.372C209.997 83.0547 209.768 82.812 209.469 82.644C209.18 82.4667 208.844 82.378 208.461 82.378C208.079 82.378 207.738 82.4667 207.439 82.644C207.141 82.812 206.907 83.0593 206.739 83.386C206.571 83.7033 206.487 84.086 206.487 84.534V89H205.437ZM219.356 89.168C218.646 89.168 218.002 89 217.424 88.664C216.845 88.3187 216.383 87.852 216.038 87.264C215.702 86.6667 215.534 85.99 215.534 85.234C215.534 84.4873 215.702 83.82 216.038 83.232C216.374 82.644 216.826 82.182 217.396 81.846C217.974 81.5007 218.628 81.328 219.356 81.328C220.084 81.328 220.732 81.496 221.302 81.832C221.88 82.168 222.333 82.63 222.66 83.218C222.996 83.806 223.164 84.478 223.164 85.234C223.164 85.9993 222.991 86.6807 222.646 87.278C222.3 87.866 221.838 88.328 221.26 88.664C220.69 89 220.056 89.168 219.356 89.168ZM219.356 88.118C219.86 88.118 220.312 87.992 220.714 87.74C221.124 87.488 221.446 87.1427 221.68 86.704C221.922 86.2653 222.044 85.7753 222.044 85.234C222.044 84.6927 221.922 84.2073 221.68 83.778C221.446 83.3487 221.124 83.008 220.714 82.756C220.312 82.504 219.86 82.378 219.356 82.378C218.852 82.378 218.394 82.504 217.984 82.756C217.582 83.008 217.26 83.3487 217.018 83.778C216.775 84.2073 216.654 84.6927 216.654 85.234C216.654 85.7753 216.775 86.2653 217.018 86.704C217.26 87.1427 217.582 87.488 217.984 87.74C218.394 87.992 218.852 88.118 219.356 88.118ZM225.016 89V81.496H226.066V82.728L225.926 82.546C226.103 82.1913 226.369 81.9113 226.724 81.706C227.088 81.5007 227.526 81.398 228.04 81.398H228.516V82.448H227.858C227.316 82.448 226.882 82.616 226.556 82.952C226.229 83.288 226.066 83.764 226.066 84.38V89H225.016ZM232.125 89V81.496H233.175V82.952L232.937 82.896C233.124 82.4107 233.427 82.028 233.847 81.748C234.276 81.468 234.771 81.328 235.331 81.328C235.863 81.328 236.339 81.4493 236.759 81.692C237.188 81.9347 237.524 82.2707 237.767 82.7C238.019 83.12 238.145 83.596 238.145 84.128V89H237.095V84.534C237.095 84.0767 237.011 83.6893 236.843 83.372C236.684 83.0547 236.456 82.812 236.157 82.644C235.868 82.4667 235.532 82.378 235.149 82.378C234.766 82.378 234.426 82.4667 234.127 82.644C233.828 82.812 233.595 83.0593 233.427 83.386C233.259 83.7033 233.175 84.086 233.175 84.534V89H232.125ZM242.32 89.168C241.844 89.168 241.42 89.0793 241.046 88.902C240.673 88.7153 240.379 88.4633 240.164 88.146C239.95 87.8287 239.842 87.4647 239.842 87.054C239.842 86.662 239.926 86.3073 240.094 85.99C240.262 85.6633 240.524 85.388 240.878 85.164C241.233 84.94 241.686 84.7813 242.236 84.688L245.176 84.198V85.15L242.488 85.598C241.947 85.6913 241.555 85.864 241.312 86.116C241.079 86.368 240.962 86.6667 240.962 87.012C240.962 87.348 241.093 87.6327 241.354 87.866C241.625 88.0993 241.97 88.216 242.39 88.216C242.904 88.216 243.352 88.1087 243.734 87.894C244.117 87.67 244.416 87.3713 244.63 86.998C244.845 86.6247 244.952 86.2093 244.952 85.752V83.848C244.952 83.4 244.789 83.036 244.462 82.756C244.136 82.476 243.711 82.336 243.188 82.336C242.731 82.336 242.33 82.4527 241.984 82.686C241.639 82.91 241.382 83.204 241.214 83.568L240.262 83.05C240.402 82.7327 240.622 82.4433 240.92 82.182C241.228 81.9207 241.578 81.7153 241.97 81.566C242.362 81.4073 242.768 81.328 243.188 81.328C243.739 81.328 244.224 81.4353 244.644 81.65C245.074 81.8647 245.405 82.1633 245.638 82.546C245.881 82.9193 246.002 83.3533 246.002 83.848V89H244.952V87.502L245.106 87.656C244.976 87.936 244.77 88.1927 244.49 88.426C244.22 88.65 243.898 88.832 243.524 88.972C243.16 89.1027 242.759 89.168 242.32 89.168ZM250.895 89.084C250.223 89.084 249.705 88.888 249.341 88.496C248.977 88.104 248.795 87.544 248.795 86.816V82.546H247.409V81.496H247.759C248.077 81.496 248.329 81.3933 248.515 81.188C248.702 80.9733 248.795 80.7073 248.795 80.39V79.76H249.845V81.496H251.497V82.546H249.845V86.816C249.845 87.068 249.883 87.292 249.957 87.488C250.032 87.6747 250.158 87.824 250.335 87.936C250.522 88.048 250.769 88.104 251.077 88.104C251.152 88.104 251.241 88.0993 251.343 88.09C251.446 88.0807 251.535 88.0713 251.609 88.062V89C251.497 89.028 251.371 89.0467 251.231 89.056C251.091 89.0747 250.979 89.084 250.895 89.084ZM256.113 89.168C255.59 89.168 255.114 89.0467 254.685 88.804C254.256 88.552 253.915 88.2067 253.663 87.768C253.42 87.32 253.299 86.8067 253.299 86.228V81.496H254.349V86.102C254.349 86.5033 254.428 86.858 254.587 87.166C254.755 87.4647 254.984 87.698 255.273 87.866C255.572 88.034 255.912 88.118 256.295 88.118C256.678 88.118 257.018 88.034 257.317 87.866C257.616 87.6887 257.849 87.4413 258.017 87.124C258.185 86.7973 258.269 86.41 258.269 85.962V81.496H259.319V89H258.269V87.544L258.507 87.6C258.33 88.0853 258.026 88.468 257.597 88.748C257.168 89.028 256.673 89.168 256.113 89.168ZM261.478 89V81.496H262.528V82.728L262.388 82.546C262.566 82.1913 262.832 81.9113 263.186 81.706C263.55 81.5007 263.989 81.398 264.502 81.398H264.978V82.448H264.32C263.779 82.448 263.345 82.616 263.018 82.952C262.692 83.288 262.528 83.764 262.528 84.38V89H261.478ZM268.379 89.168C267.903 89.168 267.478 89.0793 267.105 88.902C266.732 88.7153 266.438 88.4633 266.223 88.146C266.008 87.8287 265.901 87.4647 265.901 87.054C265.901 86.662 265.985 86.3073 266.153 85.99C266.321 85.6633 266.582 85.388 266.937 85.164C267.292 84.94 267.744 84.7813 268.295 84.688L271.235 84.198V85.15L268.547 85.598C268.006 85.6913 267.614 85.864 267.371 86.116C267.138 86.368 267.021 86.6667 267.021 87.012C267.021 87.348 267.152 87.6327 267.413 87.866C267.684 88.0993 268.029 88.216 268.449 88.216C268.962 88.216 269.41 88.1087 269.793 87.894C270.176 87.67 270.474 87.3713 270.689 86.998C270.904 86.6247 271.011 86.2093 271.011 85.752V83.848C271.011 83.4 270.848 83.036 270.521 82.756C270.194 82.476 269.77 82.336 269.247 82.336C268.79 82.336 268.388 82.4527 268.043 82.686C267.698 82.91 267.441 83.204 267.273 83.568L266.321 83.05C266.461 82.7327 266.68 82.4433 266.979 82.182C267.287 81.9207 267.637 81.7153 268.029 81.566C268.421 81.4073 268.827 81.328 269.247 81.328C269.798 81.328 270.283 81.4353 270.703 81.65C271.132 81.8647 271.464 82.1633 271.697 82.546C271.94 82.9193 272.061 83.3533 272.061 83.848V89H271.011V87.502L271.165 87.656C271.034 87.936 270.829 88.1927 270.549 88.426C270.278 88.65 269.956 88.832 269.583 88.972C269.219 89.1027 268.818 89.168 268.379 89.168ZM274.221 89V78.402H275.271V89H274.221ZM277.462 90.82V90.33C277.742 90.2553 277.947 90.1107 278.078 89.896C278.208 89.6813 278.274 89.3827 278.274 89H277.742V87.46H278.862V88.636C278.862 89.2427 278.745 89.728 278.512 90.092C278.278 90.4653 277.928 90.708 277.462 90.82ZM284.342 89V82.546H282.844V81.496H284.342V80.824C284.342 80.3013 284.459 79.8627 284.692 79.508C284.925 79.144 285.233 78.8687 285.616 78.682C285.999 78.4953 286.409 78.402 286.848 78.402C286.941 78.402 287.049 78.4113 287.17 78.43C287.291 78.4393 287.389 78.4533 287.464 78.472V79.424C287.399 79.4053 287.31 79.396 287.198 79.396C287.086 79.3867 287.007 79.382 286.96 79.382C286.512 79.382 286.139 79.4893 285.84 79.704C285.541 79.9187 285.392 80.292 285.392 80.824V81.496H289.606V82.546H285.392V89H284.342ZM288.724 89V81.496H289.774V89H288.724ZM291.721 89V81.496H292.771V82.952L292.533 82.896C292.719 82.4107 293.023 82.028 293.443 81.748C293.872 81.468 294.367 81.328 294.927 81.328C295.459 81.328 295.935 81.4493 296.355 81.692C296.784 81.9347 297.12 82.2707 297.363 82.7C297.615 83.12 297.741 83.596 297.741 84.128V89H296.691V84.534C296.691 84.0767 296.607 83.6893 296.439 83.372C296.28 83.0547 296.051 82.812 295.753 82.644C295.463 82.4667 295.127 82.378 294.745 82.378C294.362 82.378 294.021 82.4667 293.723 82.644C293.424 82.812 293.191 83.0593 293.023 83.386C292.855 83.7033 292.771 84.086 292.771 84.534V89H291.721ZM303.134 89.168C302.434 89.168 301.804 89 301.244 88.664C300.684 88.3187 300.241 87.852 299.914 87.264C299.597 86.6667 299.438 85.9947 299.438 85.248C299.438 84.492 299.597 83.82 299.914 83.232C300.241 82.644 300.679 82.182 301.23 81.846C301.79 81.5007 302.425 81.328 303.134 81.328C303.778 81.328 304.352 81.468 304.856 81.748C305.36 82.028 305.757 82.406 306.046 82.882L305.878 83.176V78.402H306.928V89H305.878V87.32L306.046 87.474C305.785 88.0153 305.393 88.4353 304.87 88.734C304.357 89.0233 303.778 89.168 303.134 89.168ZM303.19 88.118C303.694 88.118 304.147 87.992 304.548 87.74C304.959 87.488 305.281 87.1473 305.514 86.718C305.757 86.2793 305.878 85.7893 305.878 85.248C305.878 84.7067 305.757 84.2213 305.514 83.792C305.281 83.3533 304.959 83.008 304.548 82.756C304.147 82.504 303.694 82.378 303.19 82.378C302.695 82.378 302.247 82.504 301.846 82.756C301.445 83.008 301.127 83.3487 300.894 83.778C300.67 84.2073 300.558 84.6973 300.558 85.248C300.558 85.7893 300.67 86.2793 300.894 86.718C301.127 87.1473 301.44 87.488 301.832 87.74C302.233 87.992 302.686 88.118 303.19 88.118ZM314.333 89.084C313.661 89.084 313.143 88.888 312.779 88.496C312.415 88.104 312.233 87.544 312.233 86.816V82.546H310.847V81.496H311.197C311.514 81.496 311.766 81.3933 311.953 81.188C312.139 80.9733 312.233 80.7073 312.233 80.39V79.76H313.283V81.496H314.935V82.546H313.283V86.816C313.283 87.068 313.32 87.292 313.395 87.488C313.469 87.6747 313.595 87.824 313.773 87.936C313.959 88.048 314.207 88.104 314.515 88.104C314.589 88.104 314.678 88.0993 314.781 88.09C314.883 88.0807 314.972 88.0713 315.047 88.062V89C314.935 89.028 314.809 89.0467 314.669 89.056C314.529 89.0747 314.417 89.084 314.333 89.084ZM316.891 89V78.402H317.941V82.952L317.703 82.896C317.889 82.4107 318.193 82.028 318.613 81.748C319.042 81.468 319.537 81.328 320.097 81.328C320.629 81.328 321.105 81.4493 321.525 81.692C321.954 81.9347 322.29 82.2707 322.533 82.7C322.785 83.12 322.911 83.596 322.911 84.128V89H321.861V84.534C321.861 84.0767 321.777 83.6893 321.609 83.372C321.441 83.0547 321.207 82.812 320.909 82.644C320.619 82.4667 320.288 82.378 319.915 82.378C319.541 82.378 319.205 82.4667 318.907 82.644C318.608 82.812 318.37 83.0593 318.193 83.386C318.025 83.7033 317.941 84.086 317.941 84.534V89H316.891ZM328.332 89.168C327.632 89.168 326.997 89 326.428 88.664C325.868 88.3187 325.425 87.8473 325.098 87.25C324.771 86.6527 324.608 85.976 324.608 85.22C324.608 84.464 324.767 83.7967 325.084 83.218C325.401 82.63 325.831 82.168 326.372 81.832C326.923 81.496 327.539 81.328 328.22 81.328C328.761 81.328 329.242 81.4307 329.662 81.636C330.091 81.832 330.455 82.1027 330.754 82.448C331.053 82.784 331.281 83.1667 331.44 83.596C331.599 84.016 331.678 84.45 331.678 84.898C331.678 84.9913 331.673 85.0987 331.664 85.22C331.655 85.332 331.641 85.4487 331.622 85.57H325.28V84.59H331.02L330.516 85.01C330.6 84.4967 330.539 84.0393 330.334 83.638C330.138 83.2273 329.853 82.9053 329.48 82.672C329.107 82.4293 328.687 82.308 328.22 82.308C327.753 82.308 327.319 82.4293 326.918 82.672C326.526 82.9147 326.218 83.2553 325.994 83.694C325.77 84.1233 325.681 84.6367 325.728 85.234C325.681 85.8313 325.775 86.354 326.008 86.802C326.251 87.2407 326.577 87.5813 326.988 87.824C327.408 88.0667 327.856 88.188 328.332 88.188C328.883 88.188 329.345 88.0573 329.718 87.796C330.091 87.5347 330.395 87.208 330.628 86.816L331.524 87.292C331.375 87.628 331.146 87.9407 330.838 88.23C330.53 88.51 330.161 88.7387 329.732 88.916C329.312 89.084 328.845 89.168 328.332 89.168ZM144.078 111.8V101.496H145.128V103.176L144.96 102.882C145.259 102.406 145.655 102.028 146.15 101.748C146.654 101.468 147.228 101.328 147.872 101.328C148.581 101.328 149.211 101.501 149.762 101.846C150.322 102.182 150.761 102.644 151.078 103.232C151.405 103.82 151.568 104.492 151.568 105.248C151.568 105.995 151.405 106.667 151.078 107.264C150.761 107.852 150.322 108.319 149.762 108.664C149.211 109 148.581 109.168 147.872 109.168C147.228 109.168 146.645 109.023 146.122 108.734C145.609 108.435 145.221 108.015 144.96 107.474L145.128 107.32V111.8H144.078ZM147.816 108.118C148.32 108.118 148.768 107.992 149.16 107.74C149.561 107.488 149.874 107.147 150.098 106.718C150.331 106.279 150.448 105.789 150.448 105.248C150.448 104.697 150.331 104.207 150.098 103.778C149.874 103.349 149.561 103.008 149.16 102.756C148.768 102.504 148.32 102.378 147.816 102.378C147.312 102.378 146.855 102.504 146.444 102.756C146.043 103.008 145.721 103.353 145.478 103.792C145.245 104.221 145.128 104.707 145.128 105.248C145.128 105.789 145.245 106.279 145.478 106.718C145.721 107.147 146.043 107.488 146.444 107.74C146.855 107.992 147.312 108.118 147.816 108.118ZM156.832 109.168C156.132 109.168 155.497 109 154.928 108.664C154.368 108.319 153.925 107.847 153.598 107.25C153.271 106.653 153.108 105.976 153.108 105.22C153.108 104.464 153.267 103.797 153.584 103.218C153.901 102.63 154.331 102.168 154.872 101.832C155.423 101.496 156.039 101.328 156.72 101.328C157.261 101.328 157.742 101.431 158.162 101.636C158.591 101.832 158.955 102.103 159.254 102.448C159.553 102.784 159.781 103.167 159.94 103.596C160.099 104.016 160.178 104.45 160.178 104.898C160.178 104.991 160.173 105.099 160.164 105.22C160.155 105.332 160.141 105.449 160.122 105.57H153.78V104.59H159.52L159.016 105.01C159.1 104.497 159.039 104.039 158.834 103.638C158.638 103.227 158.353 102.905 157.98 102.672C157.607 102.429 157.187 102.308 156.72 102.308C156.253 102.308 155.819 102.429 155.418 102.672C155.026 102.915 154.718 103.255 154.494 103.694C154.27 104.123 154.181 104.637 154.228 105.234C154.181 105.831 154.275 106.354 154.508 106.802C154.751 107.241 155.077 107.581 155.488 107.824C155.908 108.067 156.356 108.188 156.832 108.188C157.383 108.188 157.845 108.057 158.218 107.796C158.591 107.535 158.895 107.208 159.128 106.816L160.024 107.292C159.875 107.628 159.646 107.941 159.338 108.23C159.03 108.51 158.661 108.739 158.232 108.916C157.812 109.084 157.345 109.168 156.832 109.168ZM162.029 109V101.496H163.079V102.728L162.939 102.546C163.117 102.191 163.383 101.911 163.737 101.706C164.101 101.501 164.54 101.398 165.053 101.398H165.529V102.448H164.871C164.33 102.448 163.896 102.616 163.569 102.952C163.243 103.288 163.079 103.764 163.079 104.38V109H162.029ZM167.53 109V102.546H166.032V101.496H167.53V100.824C167.53 100.301 167.646 99.8627 167.88 99.508C168.113 99.144 168.421 98.8687 168.804 98.682C169.186 98.4953 169.597 98.402 170.036 98.402C170.129 98.402 170.236 98.4113 170.358 98.43C170.479 98.4393 170.577 98.4533 170.652 98.472V99.424C170.586 99.4053 170.498 99.396 170.386 99.396C170.274 99.3867 170.194 99.382 170.148 99.382C169.7 99.382 169.326 99.4893 169.028 99.704C168.729 99.9187 168.58 100.292 168.58 100.824V101.496H170.414V102.546H168.58V109H167.53ZM175.248 109.168C174.548 109.168 173.913 109 173.344 108.664C172.784 108.319 172.341 107.847 172.014 107.25C171.687 106.653 171.524 105.976 171.524 105.22C171.524 104.464 171.683 103.797 172 103.218C172.317 102.63 172.747 102.168 173.288 101.832C173.839 101.496 174.455 101.328 175.136 101.328C175.677 101.328 176.158 101.431 176.578 101.636C177.007 101.832 177.371 102.103 177.67 102.448C177.969 102.784 178.197 103.167 178.356 103.596C178.515 104.016 178.594 104.45 178.594 104.898C178.594 104.991 178.589 105.099 178.58 105.22C178.571 105.332 178.557 105.449 178.538 105.57H172.196V104.59H177.936L177.432 105.01C177.516 104.497 177.455 104.039 177.25 103.638C177.054 103.227 176.769 102.905 176.396 102.672C176.023 102.429 175.603 102.308 175.136 102.308C174.669 102.308 174.235 102.429 173.834 102.672C173.442 102.915 173.134 103.255 172.91 103.694C172.686 104.123 172.597 104.637 172.644 105.234C172.597 105.831 172.691 106.354 172.924 106.802C173.167 107.241 173.493 107.581 173.904 107.824C174.324 108.067 174.772 108.188 175.248 108.188C175.799 108.188 176.261 108.057 176.634 107.796C177.007 107.535 177.311 107.208 177.544 106.816L178.44 107.292C178.291 107.628 178.062 107.941 177.754 108.23C177.446 108.51 177.077 108.739 176.648 108.916C176.228 109.084 175.761 109.168 175.248 109.168ZM183.875 109.168C183.138 109.168 182.489 108.995 181.929 108.65C181.369 108.305 180.931 107.838 180.613 107.25C180.296 106.653 180.137 105.981 180.137 105.234C180.137 104.487 180.296 103.82 180.613 103.232C180.931 102.644 181.369 102.182 181.929 101.846C182.489 101.501 183.138 101.328 183.875 101.328C184.342 101.328 184.781 101.412 185.191 101.58C185.602 101.748 185.966 101.977 186.283 102.266C186.601 102.546 186.839 102.873 186.997 103.246L186.045 103.736C185.859 103.335 185.574 103.008 185.191 102.756C184.809 102.504 184.37 102.378 183.875 102.378C183.381 102.378 182.933 102.504 182.531 102.756C182.139 102.999 181.827 103.339 181.593 103.778C181.369 104.207 181.257 104.697 181.257 105.248C181.257 105.789 181.369 106.279 181.593 106.718C181.827 107.147 182.139 107.488 182.531 107.74C182.933 107.992 183.381 108.118 183.875 108.118C184.37 108.118 184.804 107.992 185.177 107.74C185.56 107.488 185.849 107.152 186.045 106.732L186.997 107.25C186.839 107.614 186.601 107.941 186.283 108.23C185.966 108.519 185.602 108.748 185.191 108.916C184.781 109.084 184.342 109.168 183.875 109.168ZM191.71 109.084C191.038 109.084 190.52 108.888 190.156 108.496C189.792 108.104 189.61 107.544 189.61 106.816V102.546H188.224V101.496H188.574C188.891 101.496 189.143 101.393 189.33 101.188C189.516 100.973 189.61 100.707 189.61 100.39V99.76H190.66V101.496H192.312V102.546H190.66V106.816C190.66 107.068 190.697 107.292 190.772 107.488C190.846 107.675 190.972 107.824 191.15 107.936C191.336 108.048 191.584 108.104 191.892 108.104C191.966 108.104 192.055 108.099 192.158 108.09C192.26 108.081 192.349 108.071 192.424 108.062V109C192.312 109.028 192.186 109.047 192.046 109.056C191.906 109.075 191.794 109.084 191.71 109.084ZM199.25 109.168C198.532 109.168 197.902 108.986 197.36 108.622C196.819 108.258 196.427 107.763 196.184 107.138L197.066 106.718C197.281 107.175 197.58 107.539 197.962 107.81C198.354 108.081 198.784 108.216 199.25 108.216C199.698 108.216 200.076 108.109 200.384 107.894C200.692 107.67 200.846 107.381 200.846 107.026C200.846 106.765 200.772 106.559 200.622 106.41C200.473 106.251 200.3 106.13 200.104 106.046C199.908 105.962 199.736 105.901 199.586 105.864L198.508 105.556C197.818 105.36 197.318 105.085 197.01 104.73C196.702 104.375 196.548 103.965 196.548 103.498C196.548 103.059 196.66 102.677 196.884 102.35C197.108 102.023 197.412 101.771 197.794 101.594C198.177 101.417 198.602 101.328 199.068 101.328C199.703 101.328 200.277 101.496 200.79 101.832C201.313 102.159 201.682 102.616 201.896 103.204L201 103.624C200.814 103.204 200.543 102.877 200.188 102.644C199.843 102.401 199.456 102.28 199.026 102.28C198.606 102.28 198.27 102.387 198.018 102.602C197.766 102.817 197.64 103.087 197.64 103.414C197.64 103.666 197.706 103.867 197.836 104.016C197.967 104.165 198.116 104.277 198.284 104.352C198.462 104.427 198.616 104.483 198.746 104.52L199.992 104.884C200.599 105.061 201.07 105.337 201.406 105.71C201.752 106.083 201.924 106.522 201.924 107.026C201.924 107.437 201.808 107.805 201.574 108.132C201.35 108.459 201.038 108.715 200.636 108.902C200.235 109.079 199.773 109.168 199.25 109.168ZM206.639 109.084C205.967 109.084 205.449 108.888 205.085 108.496C204.721 108.104 204.539 107.544 204.539 106.816V102.546H203.153V101.496H203.503C203.821 101.496 204.073 101.393 204.259 101.188C204.446 100.973 204.539 100.707 204.539 100.39V99.76H205.589V101.496H207.241V102.546H205.589V106.816C205.589 107.068 205.627 107.292 205.701 107.488C205.776 107.675 205.902 107.824 206.079 107.936C206.266 108.048 206.513 108.104 206.821 108.104C206.896 108.104 206.985 108.099 207.087 108.09C207.19 108.081 207.279 108.071 207.353 108.062V109C207.241 109.028 207.115 109.047 206.975 109.056C206.835 109.075 206.723 109.084 206.639 109.084ZM212.438 109.168C211.728 109.168 211.084 109 210.506 108.664C209.927 108.319 209.465 107.852 209.12 107.264C208.784 106.667 208.616 105.99 208.616 105.234C208.616 104.487 208.784 103.82 209.12 103.232C209.456 102.644 209.908 102.182 210.478 101.846C211.056 101.501 211.71 101.328 212.438 101.328C213.166 101.328 213.814 101.496 214.384 101.832C214.962 102.168 215.415 102.63 215.742 103.218C216.078 103.806 216.246 104.478 216.246 105.234C216.246 105.999 216.073 106.681 215.728 107.278C215.382 107.866 214.92 108.328 214.342 108.664C213.772 109 213.138 109.168 212.438 109.168ZM212.438 108.118C212.942 108.118 213.394 107.992 213.796 107.74C214.206 107.488 214.528 107.143 214.762 106.704C215.004 106.265 215.126 105.775 215.126 105.234C215.126 104.693 215.004 104.207 214.762 103.778C214.528 103.349 214.206 103.008 213.796 102.756C213.394 102.504 212.942 102.378 212.438 102.378C211.934 102.378 211.476 102.504 211.066 102.756C210.664 103.008 210.342 103.349 210.1 103.778C209.857 104.207 209.736 104.693 209.736 105.234C209.736 105.775 209.857 106.265 210.1 106.704C210.342 107.143 210.664 107.488 211.066 107.74C211.476 107.992 211.934 108.118 212.438 108.118ZM218.098 109V101.496H219.148V102.952L218.91 102.896C219.096 102.411 219.4 102.028 219.82 101.748C220.249 101.468 220.744 101.328 221.304 101.328C221.836 101.328 222.312 101.449 222.732 101.692C223.161 101.935 223.497 102.271 223.74 102.7C223.992 103.12 224.118 103.596 224.118 104.128V109H223.068V104.534C223.068 104.077 222.984 103.689 222.816 103.372C222.657 103.055 222.428 102.812 222.13 102.644C221.84 102.467 221.504 102.378 221.122 102.378C220.739 102.378 220.398 102.467 220.1 102.644C219.801 102.812 219.568 103.059 219.4 103.386C219.232 103.703 219.148 104.086 219.148 104.534V109H218.098ZM229.539 109.168C228.839 109.168 228.204 109 227.635 108.664C227.075 108.319 226.632 107.847 226.305 107.25C225.978 106.653 225.815 105.976 225.815 105.22C225.815 104.464 225.974 103.797 226.291 103.218C226.608 102.63 227.038 102.168 227.579 101.832C228.13 101.496 228.746 101.328 229.427 101.328C229.968 101.328 230.449 101.431 230.869 101.636C231.298 101.832 231.662 102.103 231.961 102.448C232.26 102.784 232.488 103.167 232.647 103.596C232.806 104.016 232.885 104.45 232.885 104.898C232.885 104.991 232.88 105.099 232.871 105.22C232.862 105.332 232.848 105.449 232.829 105.57H226.487V104.59H232.227L231.723 105.01C231.807 104.497 231.746 104.039 231.541 103.638C231.345 103.227 231.06 102.905 230.687 102.672C230.314 102.429 229.894 102.308 229.427 102.308C228.96 102.308 228.526 102.429 228.125 102.672C227.733 102.915 227.425 103.255 227.201 103.694C226.977 104.123 226.888 104.637 226.935 105.234C226.888 105.831 226.982 106.354 227.215 106.802C227.458 107.241 227.784 107.581 228.195 107.824C228.615 108.067 229.063 108.188 229.539 108.188C230.09 108.188 230.552 108.057 230.925 107.796C231.298 107.535 231.602 107.208 231.835 106.816L232.731 107.292C232.582 107.628 232.353 107.941 232.045 108.23C231.737 108.51 231.368 108.739 230.939 108.916C230.519 109.084 230.052 109.168 229.539 109.168ZM239.985 109.084C239.313 109.084 238.795 108.888 238.431 108.496C238.067 108.104 237.885 107.544 237.885 106.816V102.546H236.499V101.496H236.849C237.166 101.496 237.418 101.393 237.605 101.188C237.792 100.973 237.885 100.707 237.885 100.39V99.76H238.935V101.496H240.587V102.546H238.935V106.816C238.935 107.068 238.972 107.292 239.047 107.488C239.122 107.675 239.248 107.824 239.425 107.936C239.612 108.048 239.859 108.104 240.167 108.104C240.242 108.104 240.33 108.099 240.433 108.09C240.536 108.081 240.624 108.071 240.699 108.062V109C240.587 109.028 240.461 109.047 240.321 109.056C240.181 109.075 240.069 109.084 239.985 109.084ZM245.783 109.168C245.074 109.168 244.43 109 243.851 108.664C243.273 108.319 242.811 107.852 242.465 107.264C242.129 106.667 241.961 105.99 241.961 105.234C241.961 104.487 242.129 103.82 242.465 103.232C242.801 102.644 243.254 102.182 243.823 101.846C244.402 101.501 245.055 101.328 245.783 101.328C246.511 101.328 247.16 101.496 247.729 101.832C248.308 102.168 248.761 102.63 249.087 103.218C249.423 103.806 249.591 104.478 249.591 105.234C249.591 105.999 249.419 106.681 249.073 107.278C248.728 107.866 248.266 108.328 247.687 108.664C247.118 109 246.483 109.168 245.783 109.168ZM245.783 108.118C246.287 108.118 246.74 107.992 247.141 107.74C247.552 107.488 247.874 107.143 248.107 106.704C248.35 106.265 248.471 105.775 248.471 105.234C248.471 104.693 248.35 104.207 248.107 103.778C247.874 103.349 247.552 103.008 247.141 102.756C246.74 102.504 246.287 102.378 245.783 102.378C245.279 102.378 244.822 102.504 244.411 102.756C244.01 103.008 243.688 103.349 243.445 103.778C243.203 104.207 243.081 104.693 243.081 105.234C243.081 105.775 243.203 106.265 243.445 106.704C243.688 107.143 244.01 107.488 244.411 107.74C244.822 107.992 245.279 108.118 245.783 108.118ZM254.592 109V102.546H253.094V101.496H254.592V100.824C254.592 100.301 254.709 99.8627 254.942 99.508C255.175 99.144 255.483 98.8687 255.866 98.682C256.249 98.4953 256.659 98.402 257.098 98.402C257.191 98.402 257.299 98.4113 257.42 98.43C257.541 98.4393 257.639 98.4533 257.714 98.472V99.424C257.649 99.4053 257.56 99.396 257.448 99.396C257.336 99.3867 257.257 99.382 257.21 99.382C256.762 99.382 256.389 99.4893 256.09 99.704C255.791 99.9187 255.642 100.292 255.642 100.824V101.496H259.856V102.546H255.642V109H254.592ZM258.974 109V101.496H260.024V109H258.974ZM264.841 109.084C264.169 109.084 263.651 108.888 263.287 108.496C262.923 108.104 262.741 107.544 262.741 106.816V102.546H261.355V101.496H261.705C262.022 101.496 262.274 101.393 262.461 101.188C262.647 100.973 262.741 100.707 262.741 100.39V99.76H263.791V101.496H265.443V102.546H263.791V106.816C263.791 107.068 263.828 107.292 263.903 107.488C263.977 107.675 264.103 107.824 264.281 107.936C264.467 108.048 264.715 108.104 265.023 108.104C265.097 108.104 265.186 108.099 265.289 108.09C265.391 108.081 265.48 108.071 265.555 108.062V109C265.443 109.028 265.317 109.047 265.177 109.056C265.037 109.075 264.925 109.084 264.841 109.084ZM269.931 112.08C269.782 112.08 269.628 112.066 269.469 112.038C269.32 112.019 269.171 111.982 269.021 111.926V110.946C269.115 110.955 269.231 110.969 269.371 110.988C269.521 111.016 269.67 111.03 269.819 111.03C270.277 111.03 270.627 110.932 270.869 110.736C271.112 110.549 271.35 110.185 271.583 109.644L272.059 108.524L272.031 109.448L268.853 101.496H269.987L272.591 108.062H272.297L274.887 101.496H276.049L272.619 109.952C272.47 110.316 272.279 110.661 272.045 110.988C271.821 111.315 271.537 111.576 271.191 111.772C270.846 111.977 270.426 112.08 269.931 112.08ZM280.66 109.168C279.951 109.168 279.307 109 278.728 108.664C278.15 108.319 277.688 107.852 277.342 107.264C277.006 106.667 276.838 105.99 276.838 105.234C276.838 104.487 277.006 103.82 277.342 103.232C277.678 102.644 278.131 102.182 278.7 101.846C279.279 101.501 279.932 101.328 280.66 101.328C281.388 101.328 282.037 101.496 282.606 101.832C283.185 102.168 283.638 102.63 283.964 103.218C284.3 103.806 284.468 104.478 284.468 105.234C284.468 105.999 284.296 106.681 283.95 107.278C283.605 107.866 283.143 108.328 282.564 108.664C281.995 109 281.36 109.168 280.66 109.168ZM280.66 108.118C281.164 108.118 281.617 107.992 282.018 107.74C282.429 107.488 282.751 107.143 282.984 106.704C283.227 106.265 283.348 105.775 283.348 105.234C283.348 104.693 283.227 104.207 282.984 103.778C282.751 103.349 282.429 103.008 282.018 102.756C281.617 102.504 281.164 102.378 280.66 102.378C280.156 102.378 279.699 102.504 279.288 102.756C278.887 103.008 278.565 103.349 278.322 103.778C278.08 104.207 277.958 104.693 277.958 105.234C277.958 105.775 278.08 106.265 278.322 106.704C278.565 107.143 278.887 107.488 279.288 107.74C279.699 107.992 280.156 108.118 280.66 108.118ZM288.98 109.168C288.458 109.168 287.982 109.047 287.552 108.804C287.123 108.552 286.782 108.207 286.53 107.768C286.288 107.32 286.166 106.807 286.166 106.228V101.496H287.216V106.102C287.216 106.503 287.296 106.858 287.454 107.166C287.622 107.465 287.851 107.698 288.14 107.866C288.439 108.034 288.78 108.118 289.162 108.118C289.545 108.118 289.886 108.034 290.184 107.866C290.483 107.689 290.716 107.441 290.884 107.124C291.052 106.797 291.136 106.41 291.136 105.962V101.496H292.186V109H291.136V107.544L291.374 107.6C291.197 108.085 290.894 108.468 290.464 108.748C290.035 109.028 289.54 109.168 288.98 109.168ZM294.346 109V101.496H295.396V102.728L295.256 102.546C295.433 102.191 295.699 101.911 296.054 101.706C296.418 101.501 296.856 101.398 297.37 101.398H297.846V102.448H297.188C296.646 102.448 296.212 102.616 295.886 102.952C295.559 103.288 295.396 103.764 295.396 104.38V109H294.346ZM144.078 131.8V121.496H145.128V123.176L144.96 122.882C145.259 122.406 145.655 122.028 146.15 121.748C146.654 121.468 147.228 121.328 147.872 121.328C148.581 121.328 149.211 121.501 149.762 121.846C150.322 122.182 150.761 122.644 151.078 123.232C151.405 123.82 151.568 124.492 151.568 125.248C151.568 125.995 151.405 126.667 151.078 127.264C150.761 127.852 150.322 128.319 149.762 128.664C149.211 129 148.581 129.168 147.872 129.168C147.228 129.168 146.645 129.023 146.122 128.734C145.609 128.435 145.221 128.015 144.96 127.474L145.128 127.32V131.8H144.078ZM147.816 128.118C148.32 128.118 148.768 127.992 149.16 127.74C149.561 127.488 149.874 127.147 150.098 126.718C150.331 126.279 150.448 125.789 150.448 125.248C150.448 124.697 150.331 124.207 150.098 123.778C149.874 123.349 149.561 123.008 149.16 122.756C148.768 122.504 148.32 122.378 147.816 122.378C147.312 122.378 146.855 122.504 146.444 122.756C146.043 123.008 145.721 123.353 145.478 123.792C145.245 124.221 145.128 124.707 145.128 125.248C145.128 125.789 145.245 126.279 145.478 126.718C145.721 127.147 146.043 127.488 146.444 127.74C146.855 127.992 147.312 128.118 147.816 128.118ZM153.416 129V121.496H154.466V122.728L154.326 122.546C154.503 122.191 154.769 121.911 155.124 121.706C155.488 121.501 155.927 121.398 156.44 121.398H156.916V122.448H156.258C155.717 122.448 155.283 122.616 154.956 122.952C154.629 123.288 154.466 123.764 154.466 124.38V129H153.416ZM161.562 129.168C160.862 129.168 160.228 129 159.658 128.664C159.098 128.319 158.655 127.847 158.328 127.25C158.002 126.653 157.838 125.976 157.838 125.22C157.838 124.464 157.997 123.797 158.314 123.218C158.632 122.63 159.061 122.168 159.602 121.832C160.153 121.496 160.769 121.328 161.45 121.328C161.992 121.328 162.472 121.431 162.892 121.636C163.322 121.832 163.686 122.103 163.984 122.448C164.283 122.784 164.512 123.167 164.67 123.596C164.829 124.016 164.908 124.45 164.908 124.898C164.908 124.991 164.904 125.099 164.894 125.22C164.885 125.332 164.871 125.449 164.852 125.57H158.51V124.59H164.25L163.746 125.01C163.83 124.497 163.77 124.039 163.564 123.638C163.368 123.227 163.084 122.905 162.71 122.672C162.337 122.429 161.917 122.308 161.45 122.308C160.984 122.308 160.55 122.429 160.148 122.672C159.756 122.915 159.448 123.255 159.224 123.694C159 124.123 158.912 124.637 158.958 125.234C158.912 125.831 159.005 126.354 159.238 126.802C159.481 127.241 159.808 127.581 160.218 127.824C160.638 128.067 161.086 128.188 161.562 128.188C162.113 128.188 162.575 128.057 162.948 127.796C163.322 127.535 163.625 127.208 163.858 126.816L164.754 127.292C164.605 127.628 164.376 127.941 164.068 128.23C163.76 128.51 163.392 128.739 162.962 128.916C162.542 129.084 162.076 129.168 161.562 129.168ZM167.53 129V122.546H166.032V121.496H167.53V120.824C167.53 120.301 167.646 119.863 167.88 119.508C168.113 119.144 168.421 118.869 168.804 118.682C169.186 118.495 169.597 118.402 170.036 118.402C170.129 118.402 170.236 118.411 170.358 118.43C170.479 118.439 170.577 118.453 170.652 118.472V119.424C170.586 119.405 170.498 119.396 170.386 119.396C170.274 119.387 170.194 119.382 170.148 119.382C169.7 119.382 169.326 119.489 169.028 119.704C168.729 119.919 168.58 120.292 168.58 120.824V121.496H170.414V122.546H168.58V129H167.53ZM175.248 129.168C174.548 129.168 173.913 129 173.344 128.664C172.784 128.319 172.341 127.847 172.014 127.25C171.687 126.653 171.524 125.976 171.524 125.22C171.524 124.464 171.683 123.797 172 123.218C172.317 122.63 172.747 122.168 173.288 121.832C173.839 121.496 174.455 121.328 175.136 121.328C175.677 121.328 176.158 121.431 176.578 121.636C177.007 121.832 177.371 122.103 177.67 122.448C177.969 122.784 178.197 123.167 178.356 123.596C178.515 124.016 178.594 124.45 178.594 124.898C178.594 124.991 178.589 125.099 178.58 125.22C178.571 125.332 178.557 125.449 178.538 125.57H172.196V124.59H177.936L177.432 125.01C177.516 124.497 177.455 124.039 177.25 123.638C177.054 123.227 176.769 122.905 176.396 122.672C176.023 122.429 175.603 122.308 175.136 122.308C174.669 122.308 174.235 122.429 173.834 122.672C173.442 122.915 173.134 123.255 172.91 123.694C172.686 124.123 172.597 124.637 172.644 125.234C172.597 125.831 172.691 126.354 172.924 126.802C173.167 127.241 173.493 127.581 173.904 127.824C174.324 128.067 174.772 128.188 175.248 128.188C175.799 128.188 176.261 128.057 176.634 127.796C177.007 127.535 177.311 127.208 177.544 126.816L178.44 127.292C178.291 127.628 178.062 127.941 177.754 128.23C177.446 128.51 177.077 128.739 176.648 128.916C176.228 129.084 175.761 129.168 175.248 129.168ZM180.445 129V121.496H181.495V122.728L181.355 122.546C181.533 122.191 181.799 121.911 182.153 121.706C182.517 121.501 182.956 121.398 183.469 121.398H183.945V122.448H183.287C182.746 122.448 182.312 122.616 181.985 122.952C181.659 123.288 181.495 123.764 181.495 124.38V129H180.445ZM188.592 129.168C187.892 129.168 187.257 129 186.688 128.664C186.128 128.319 185.684 127.847 185.358 127.25C185.031 126.653 184.868 125.976 184.868 125.22C184.868 124.464 185.026 123.797 185.344 123.218C185.661 122.63 186.09 122.168 186.632 121.832C187.182 121.496 187.798 121.328 188.48 121.328C189.021 121.328 189.502 121.431 189.922 121.636C190.351 121.832 190.715 122.103 191.014 122.448C191.312 122.784 191.541 123.167 191.7 123.596C191.858 124.016 191.938 124.45 191.938 124.898C191.938 124.991 191.933 125.099 191.924 125.22C191.914 125.332 191.9 125.449 191.882 125.57H185.54V124.59H191.28L190.776 125.01C190.86 124.497 190.799 124.039 190.594 123.638C190.398 123.227 190.113 122.905 189.74 122.672C189.366 122.429 188.946 122.308 188.48 122.308C188.013 122.308 187.579 122.429 187.178 122.672C186.786 122.915 186.478 123.255 186.254 123.694C186.03 124.123 185.941 124.637 185.988 125.234C185.941 125.831 186.034 126.354 186.268 126.802C186.51 127.241 186.837 127.581 187.248 127.824C187.668 128.067 188.116 128.188 188.592 128.188C189.142 128.188 189.604 128.057 189.978 127.796C190.351 127.535 190.654 127.208 190.888 126.816L191.784 127.292C191.634 127.628 191.406 127.941 191.098 128.23C190.79 128.51 190.421 128.739 189.992 128.916C189.572 129.084 189.105 129.168 188.592 129.168ZM193.789 129V121.496H194.839V122.952L194.601 122.896C194.788 122.411 195.091 122.028 195.511 121.748C195.94 121.468 196.435 121.328 196.995 121.328C197.527 121.328 198.003 121.449 198.423 121.692C198.852 121.935 199.188 122.271 199.431 122.7C199.683 123.12 199.809 123.596 199.809 124.128V129H198.759V124.534C198.759 124.077 198.675 123.689 198.507 123.372C198.348 123.055 198.12 122.812 197.821 122.644C197.532 122.467 197.196 122.378 196.813 122.378C196.43 122.378 196.09 122.467 195.791 122.644C195.492 122.812 195.259 123.059 195.091 123.386C194.923 123.703 194.839 124.086 194.839 124.534V129H193.789ZM205.244 129.168C204.507 129.168 203.858 128.995 203.298 128.65C202.738 128.305 202.3 127.838 201.982 127.25C201.665 126.653 201.506 125.981 201.506 125.234C201.506 124.487 201.665 123.82 201.982 123.232C202.3 122.644 202.738 122.182 203.298 121.846C203.858 121.501 204.507 121.328 205.244 121.328C205.711 121.328 206.15 121.412 206.56 121.58C206.971 121.748 207.335 121.977 207.652 122.266C207.97 122.546 208.208 122.873 208.366 123.246L207.414 123.736C207.228 123.335 206.943 123.008 206.56 122.756C206.178 122.504 205.739 122.378 205.244 122.378C204.75 122.378 204.302 122.504 203.9 122.756C203.508 122.999 203.196 123.339 202.962 123.778C202.738 124.207 202.626 124.697 202.626 125.248C202.626 125.789 202.738 126.279 202.962 126.718C203.196 127.147 203.508 127.488 203.9 127.74C204.302 127.992 204.75 128.118 205.244 128.118C205.739 128.118 206.173 127.992 206.546 127.74C206.929 127.488 207.218 127.152 207.414 126.732L208.366 127.25C208.208 127.614 207.97 127.941 207.652 128.23C207.335 128.519 206.971 128.748 206.56 128.916C206.15 129.084 205.711 129.168 205.244 129.168ZM213.625 129.168C212.925 129.168 212.29 129 211.721 128.664C211.161 128.319 210.718 127.847 210.391 127.25C210.064 126.653 209.901 125.976 209.901 125.22C209.901 124.464 210.06 123.797 210.377 123.218C210.694 122.63 211.124 122.168 211.665 121.832C212.216 121.496 212.832 121.328 213.513 121.328C214.054 121.328 214.535 121.431 214.955 121.636C215.384 121.832 215.748 122.103 216.047 122.448C216.346 122.784 216.574 123.167 216.733 123.596C216.892 124.016 216.971 124.45 216.971 124.898C216.971 124.991 216.966 125.099 216.957 125.22C216.948 125.332 216.934 125.449 216.915 125.57H210.573V124.59H216.313L215.809 125.01C215.893 124.497 215.832 124.039 215.627 123.638C215.431 123.227 215.146 122.905 214.773 122.672C214.4 122.429 213.98 122.308 213.513 122.308C213.046 122.308 212.612 122.429 212.211 122.672C211.819 122.915 211.511 123.255 211.287 123.694C211.063 124.123 210.974 124.637 211.021 125.234C210.974 125.831 211.068 126.354 211.301 126.802C211.544 127.241 211.87 127.581 212.281 127.824C212.701 128.067 213.149 128.188 213.625 128.188C214.176 128.188 214.638 128.057 215.011 127.796C215.384 127.535 215.688 127.208 215.921 126.816L216.817 127.292C216.668 127.628 216.439 127.941 216.131 128.23C215.823 128.51 215.454 128.739 215.025 128.916C214.605 129.084 214.138 129.168 213.625 129.168ZM223.371 129.168C222.895 129.168 222.47 129.079 222.097 128.902C221.724 128.715 221.43 128.463 221.215 128.146C221 127.829 220.893 127.465 220.893 127.054C220.893 126.662 220.977 126.307 221.145 125.99C221.313 125.663 221.574 125.388 221.929 125.164C222.284 124.94 222.736 124.781 223.287 124.688L226.227 124.198V125.15L223.539 125.598C222.998 125.691 222.606 125.864 222.363 126.116C222.13 126.368 222.013 126.667 222.013 127.012C222.013 127.348 222.144 127.633 222.405 127.866C222.676 128.099 223.021 128.216 223.441 128.216C223.954 128.216 224.402 128.109 224.785 127.894C225.168 127.67 225.466 127.371 225.681 126.998C225.896 126.625 226.003 126.209 226.003 125.752V123.848C226.003 123.4 225.84 123.036 225.513 122.756C225.186 122.476 224.762 122.336 224.239 122.336C223.782 122.336 223.38 122.453 223.035 122.686C222.69 122.91 222.433 123.204 222.265 123.568L221.313 123.05C221.453 122.733 221.672 122.443 221.971 122.182C222.279 121.921 222.629 121.715 223.021 121.566C223.413 121.407 223.819 121.328 224.239 121.328C224.79 121.328 225.275 121.435 225.695 121.65C226.124 121.865 226.456 122.163 226.689 122.546C226.932 122.919 227.053 123.353 227.053 123.848V129H226.003V127.502L226.157 127.656C226.026 127.936 225.821 128.193 225.541 128.426C225.27 128.65 224.948 128.832 224.575 128.972C224.211 129.103 223.81 129.168 223.371 129.168ZM229.213 129V121.496H230.263V122.952L230.025 122.896C230.211 122.411 230.515 122.028 230.935 121.748C231.364 121.468 231.859 121.328 232.419 121.328C232.951 121.328 233.427 121.449 233.847 121.692C234.276 121.935 234.612 122.271 234.855 122.7C235.107 123.12 235.233 123.596 235.233 124.128V129H234.183V124.534C234.183 124.077 234.099 123.689 233.931 123.372C233.772 123.055 233.543 122.812 233.245 122.644C232.955 122.467 232.619 122.378 232.237 122.378C231.854 122.378 231.513 122.467 231.215 122.644C230.916 122.812 230.683 123.059 230.515 123.386C230.347 123.703 230.263 124.086 230.263 124.534V129H229.213ZM240.626 129.168C239.926 129.168 239.296 129 238.736 128.664C238.176 128.319 237.733 127.852 237.406 127.264C237.089 126.667 236.93 125.995 236.93 125.248C236.93 124.492 237.089 123.82 237.406 123.232C237.733 122.644 238.171 122.182 238.722 121.846C239.282 121.501 239.917 121.328 240.626 121.328C241.27 121.328 241.844 121.468 242.348 121.748C242.852 122.028 243.249 122.406 243.538 122.882L243.37 123.176V118.402H244.42V129H243.37V127.32L243.538 127.474C243.277 128.015 242.885 128.435 242.362 128.734C241.849 129.023 241.27 129.168 240.626 129.168ZM240.682 128.118C241.186 128.118 241.639 127.992 242.04 127.74C242.451 127.488 242.773 127.147 243.006 126.718C243.249 126.279 243.37 125.789 243.37 125.248C243.37 124.707 243.249 124.221 243.006 123.792C242.773 123.353 242.451 123.008 242.04 122.756C241.639 122.504 241.186 122.378 240.682 122.378C240.187 122.378 239.739 122.504 239.338 122.756C238.937 123.008 238.619 123.349 238.386 123.778C238.162 124.207 238.05 124.697 238.05 125.248C238.05 125.789 238.162 126.279 238.386 126.718C238.619 127.147 238.932 127.488 239.324 127.74C239.725 127.992 240.178 128.118 240.682 128.118ZM252.749 129.168C252.105 129.168 251.522 129.023 250.999 128.734C250.486 128.435 250.098 128.015 249.837 127.474L250.005 127.32V129H248.955V118.402H250.005V123.176L249.837 122.882C250.136 122.406 250.532 122.028 251.027 121.748C251.531 121.468 252.105 121.328 252.749 121.328C253.458 121.328 254.088 121.501 254.639 121.846C255.199 122.182 255.638 122.644 255.955 123.232C256.282 123.82 256.445 124.492 256.445 125.248C256.445 125.995 256.282 126.667 255.955 127.264C255.638 127.852 255.199 128.319 254.639 128.664C254.088 129 253.458 129.168 252.749 129.168ZM252.693 128.118C253.197 128.118 253.645 127.992 254.037 127.74C254.438 127.488 254.751 127.147 254.975 126.718C255.208 126.279 255.325 125.789 255.325 125.248C255.325 124.697 255.208 124.207 254.975 123.778C254.751 123.349 254.438 123.008 254.037 122.756C253.645 122.504 253.197 122.378 252.693 122.378C252.189 122.378 251.732 122.504 251.321 122.756C250.92 123.008 250.598 123.353 250.355 123.792C250.122 124.221 250.005 124.707 250.005 125.248C250.005 125.789 250.122 126.279 250.355 126.718C250.598 127.147 250.92 127.488 251.321 127.74C251.732 127.992 252.189 128.118 252.693 128.118ZM260.953 129.168C260.43 129.168 259.954 129.047 259.525 128.804C259.096 128.552 258.755 128.207 258.503 127.768C258.26 127.32 258.139 126.807 258.139 126.228V121.496H259.189V126.102C259.189 126.503 259.268 126.858 259.427 127.166C259.595 127.465 259.824 127.698 260.113 127.866C260.412 128.034 260.752 128.118 261.135 128.118C261.518 128.118 261.858 128.034 262.157 127.866C262.456 127.689 262.689 127.441 262.857 127.124C263.025 126.797 263.109 126.41 263.109 125.962V121.496H264.159V129H263.109V127.544L263.347 127.6C263.17 128.085 262.866 128.468 262.437 128.748C262.008 129.028 261.513 129.168 260.953 129.168ZM269.706 129.168C269.006 129.168 268.376 129 267.816 128.664C267.256 128.319 266.813 127.852 266.486 127.264C266.169 126.667 266.01 125.995 266.01 125.248C266.01 124.492 266.169 123.82 266.486 123.232C266.813 122.644 267.252 122.182 267.802 121.846C268.362 121.501 268.997 121.328 269.706 121.328C270.35 121.328 270.924 121.468 271.428 121.748C271.932 122.028 272.329 122.406 272.618 122.882L272.45 123.176V118.402H273.5V129H272.45V127.32L272.618 127.474C272.357 128.015 271.965 128.435 271.442 128.734C270.929 129.023 270.35 129.168 269.706 129.168ZM269.762 128.118C270.266 128.118 270.719 127.992 271.12 127.74C271.531 127.488 271.853 127.147 272.086 126.718C272.329 126.279 272.45 125.789 272.45 125.248C272.45 124.707 272.329 124.221 272.086 123.792C271.853 123.353 271.531 123.008 271.12 122.756C270.719 122.504 270.266 122.378 269.762 122.378C269.268 122.378 268.82 122.504 268.418 122.756C268.017 123.008 267.7 123.349 267.466 123.778C267.242 124.207 267.13 124.697 267.13 125.248C267.13 125.789 267.242 126.279 267.466 126.718C267.7 127.147 268.012 127.488 268.404 127.74C268.806 127.992 269.258 128.118 269.762 128.118ZM279.212 132.08C278.699 132.08 278.223 132.001 277.784 131.842C277.355 131.683 276.981 131.464 276.664 131.184C276.356 130.913 276.118 130.596 275.95 130.232L276.916 129.714C277.065 130.069 277.331 130.377 277.714 130.638C278.097 130.899 278.587 131.03 279.184 131.03C279.641 131.03 280.061 130.941 280.444 130.764C280.827 130.587 281.135 130.325 281.368 129.98C281.601 129.635 281.718 129.21 281.718 128.706V127.04L281.886 127.194C281.625 127.735 281.237 128.155 280.724 128.454C280.211 128.743 279.651 128.888 279.044 128.888C278.344 128.888 277.714 128.72 277.154 128.384C276.594 128.048 276.151 127.595 275.824 127.026C275.507 126.447 275.348 125.808 275.348 125.108C275.348 124.399 275.507 123.759 275.824 123.19C276.151 122.621 276.589 122.168 277.14 121.832C277.7 121.496 278.335 121.328 279.044 121.328C279.651 121.328 280.201 121.468 280.696 121.748C281.2 122.028 281.597 122.406 281.886 122.882L281.718 123.176V121.496H282.768V128.706C282.768 129.35 282.614 129.924 282.306 130.428C282.007 130.941 281.587 131.343 281.046 131.632C280.514 131.931 279.903 132.08 279.212 132.08ZM279.1 127.838C279.585 127.838 280.024 127.717 280.416 127.474C280.808 127.222 281.121 126.891 281.354 126.48C281.597 126.06 281.718 125.603 281.718 125.108C281.718 124.613 281.597 124.161 281.354 123.75C281.121 123.33 280.808 122.999 280.416 122.756C280.024 122.504 279.585 122.378 279.1 122.378C278.605 122.378 278.157 122.504 277.756 122.756C277.355 122.999 277.037 123.325 276.804 123.736C276.58 124.147 276.468 124.604 276.468 125.108C276.468 125.603 276.58 126.06 276.804 126.48C277.037 126.891 277.35 127.222 277.742 127.474C278.143 127.717 278.596 127.838 279.1 127.838ZM288.342 129.168C287.642 129.168 287.007 129 286.438 128.664C285.878 128.319 285.434 127.847 285.108 127.25C284.781 126.653 284.618 125.976 284.618 125.22C284.618 124.464 284.776 123.797 285.094 123.218C285.411 122.63 285.84 122.168 286.382 121.832C286.932 121.496 287.548 121.328 288.23 121.328C288.771 121.328 289.252 121.431 289.672 121.636C290.101 121.832 290.465 122.103 290.764 122.448C291.062 122.784 291.291 123.167 291.45 123.596C291.608 124.016 291.688 124.45 291.688 124.898C291.688 124.991 291.683 125.099 291.674 125.22C291.664 125.332 291.65 125.449 291.632 125.57H285.29V124.59H291.03L290.526 125.01C290.61 124.497 290.549 124.039 290.344 123.638C290.148 123.227 289.863 122.905 289.49 122.672C289.116 122.429 288.696 122.308 288.23 122.308C287.763 122.308 287.329 122.429 286.928 122.672C286.536 122.915 286.228 123.255 286.004 123.694C285.78 124.123 285.691 124.637 285.738 125.234C285.691 125.831 285.784 126.354 286.018 126.802C286.26 127.241 286.587 127.581 286.998 127.824C287.418 128.067 287.866 128.188 288.342 128.188C288.892 128.188 289.354 128.057 289.728 127.796C290.101 127.535 290.404 127.208 290.638 126.816L291.534 127.292C291.384 127.628 291.156 127.941 290.848 128.23C290.54 128.51 290.171 128.739 289.742 128.916C289.322 129.084 288.855 129.168 288.342 129.168ZM296.409 129.084C295.737 129.084 295.219 128.888 294.855 128.496C294.491 128.104 294.309 127.544 294.309 126.816V122.546H292.923V121.496H293.273C293.59 121.496 293.842 121.393 294.029 121.188C294.216 120.973 294.309 120.707 294.309 120.39V119.76H295.359V121.496H297.011V122.546H295.359V126.816C295.359 127.068 295.396 127.292 295.471 127.488C295.546 127.675 295.672 127.824 295.849 127.936C296.036 128.048 296.283 128.104 296.591 128.104C296.666 128.104 296.754 128.099 296.857 128.09C296.96 128.081 297.048 128.071 297.123 128.062V129C297.011 129.028 296.885 129.047 296.745 129.056C296.605 129.075 296.493 129.084 296.409 129.084ZM299.331 129V127.46H300.451V129H299.331Z" fill="#1D1F1E"/>
</svg>
