<svg width="410" height="174" viewBox="0 0 410 174" fill="none" xmlns="http://www.w3.org/2000/svg">
<rect width="410" height="174" fill="#F8F8F8"/>
<path d="M59.9506 68.3995C59.861 68.3981 59.7719 68.4148 59.6888 68.4485C59.6057 68.4822 59.5302 68.5322 59.4668 68.5957C59.4034 68.6591 59.3533 68.7346 59.3196 68.8177C59.2859 68.9008 59.2693 68.9898 59.2706 69.0795V76.7695C59.259 76.865 59.2677 76.962 59.2963 77.0539C59.3249 77.1458 59.3727 77.2305 59.4365 77.3026C59.5003 77.3747 59.5787 77.4323 59.6665 77.4719C59.7542 77.5114 59.8494 77.5318 59.9456 77.5318C60.0419 77.5318 60.137 77.5114 60.2248 77.4719C60.3125 77.4323 60.3909 77.3747 60.4547 77.3026C60.5185 77.2305 60.5663 77.1458 60.5949 77.0539C60.6235 76.962 60.6323 76.865 60.6206 76.7695V69.0795C60.622 68.9907 60.6056 68.9025 60.5725 68.82C60.5394 68.7376 60.4903 68.6625 60.428 68.5993C60.3656 68.536 60.2913 68.4857 60.2094 68.4514C60.1274 68.4171 60.0395 68.3995 59.9506 68.3995Z" fill="#1D1F1E"/>
<path d="M51.3185 70.4295C51.2858 70.3468 51.2358 70.2719 51.1721 70.2099C51.1083 70.1478 51.0321 70.1 50.9485 70.0695C50.8689 70.0377 50.7842 70.0208 50.6985 70.0195C50.6053 70.0202 50.5133 70.0407 50.4285 70.0795C50.2647 70.1519 50.1361 70.286 50.0706 70.4526C50.0051 70.6192 50.0079 70.805 50.0785 70.9695L52.7285 77.0395C52.7826 77.1615 52.871 77.2651 52.9828 77.3378C53.0946 77.4106 53.2251 77.4494 53.3585 77.4495C53.4517 77.4488 53.5438 77.4284 53.6285 77.3895C53.7925 77.3133 53.9213 77.1774 53.9885 77.0095C54.0533 76.8422 54.0533 76.6568 53.9885 76.4895L51.3185 70.4295Z" fill="#1D1F1E"/>
<path d="M39.5392 74.27L45.2292 78.69C45.3721 78.7811 45.5439 78.8155 45.7109 78.7865C45.8779 78.7575 46.028 78.6672 46.1319 78.5333C46.2357 78.3994 46.2859 78.2315 46.2724 78.0626C46.259 77.8937 46.1829 77.7358 46.0592 77.62L40.3692 73.19C40.2995 73.1348 40.219 73.0947 40.1329 73.0724C40.0468 73.05 39.957 73.0458 39.8692 73.06C39.7813 73.0694 39.6961 73.0964 39.6188 73.1394C39.5415 73.1823 39.4737 73.2404 39.4192 73.31C39.3635 73.3807 39.3224 73.4618 39.2983 73.5485C39.2742 73.6352 39.2675 73.7258 39.2787 73.8151C39.2899 73.9044 39.3186 73.9906 39.3633 74.0687C39.4081 74.1468 39.4678 74.2152 39.5392 74.27Z" fill="#1D1F1E"/>
<path d="M69.4609 70.0796C69.3762 70.0408 69.2842 70.0204 69.1909 70.0196C69.057 70.0172 68.9253 70.0549 68.813 70.128C68.7007 70.2011 68.6129 70.3061 68.5609 70.4296L65.9509 76.4896C65.9163 76.5719 65.8984 76.6603 65.8984 76.7496C65.8984 76.8389 65.9163 76.9273 65.9509 77.0096C65.9808 77.0948 66.0283 77.1726 66.0903 77.2381C66.1524 77.3036 66.2275 77.3553 66.3109 77.3896C66.3954 77.4294 66.4876 77.4499 66.5809 77.4496C66.7132 77.4501 66.8427 77.4115 66.953 77.3385C67.0633 77.2655 67.1496 77.1616 67.2009 77.0396L69.8109 70.9496C69.8754 70.7874 69.8751 70.6066 69.8099 70.4447C69.7447 70.2827 69.6198 70.152 69.4609 70.0796Z" fill="#1D1F1E"/>
<path d="M73.5692 78.0698C73.5563 78.1583 73.5621 78.2485 73.5862 78.3346C73.6103 78.4208 73.6522 78.5009 73.7092 78.5698C73.7707 78.6519 73.8509 78.7183 73.943 78.7634C74.0351 78.8086 74.1366 78.8314 74.2392 78.8298C74.3905 78.8291 74.5377 78.78 74.6592 78.6898L80.3492 74.2698C80.4895 74.1537 80.5821 73.9899 80.6092 73.8098C80.6283 73.6314 80.5782 73.4524 80.4692 73.3098C80.3568 73.1701 80.1963 73.0774 80.0192 73.0498H79.9492C79.8009 73.0505 79.6569 73.0997 79.5392 73.1898L73.8492 77.6198C73.7731 77.6705 73.7087 77.7368 73.6604 77.8145C73.6121 77.8921 73.581 77.9791 73.5692 78.0698Z" fill="#1D1F1E"/>
<path d="M30 104.59V121.13C30.0026 122.524 30.5577 123.86 31.5435 124.846C32.5294 125.832 33.8658 126.387 35.26 126.39H84.63C86.0242 126.387 87.3606 125.832 88.3465 124.846C89.3323 123.86 89.8874 122.524 89.89 121.13V105.22H89.95L105.05 109.15C105.485 109.262 105.931 109.319 106.38 109.32C107.316 109.318 108.234 109.066 109.04 108.59C109.638 108.241 110.16 107.777 110.575 107.224C110.991 106.671 111.292 106.041 111.46 105.37L123.85 57.5798C124.197 56.2286 123.993 54.7951 123.285 53.5936C122.576 52.392 121.42 51.5204 120.07 51.1698L104.07 47.0298C103.982 47.0073 103.891 47.0028 103.802 47.0166C103.712 47.0303 103.627 47.062 103.55 47.1098C103.472 47.152 103.404 47.2104 103.351 47.2811C103.297 47.3518 103.259 47.4332 103.24 47.5198L89.11 102.03L89.05 101.95C88.5344 101.143 87.8851 100.429 87.13 99.8398C85.44 98.4898 80.5 95.5398 71.3 97.1898H71.19L71.25 97.0898L77.47 87.8798C77.5376 87.8169 77.5919 87.7412 77.6296 87.657C77.6674 87.5729 77.688 87.482 77.69 87.3898C77.6896 87.285 77.6651 87.1818 77.6182 87.0882C77.5714 86.9945 77.5035 86.9129 77.42 86.8498L71.71 80.2598C71.6475 80.1851 71.5695 80.125 71.4815 80.0835C71.3934 80.0421 71.2973 80.0203 71.2 80.0198H48.69C48.5927 80.0203 48.4966 80.0421 48.4085 80.0835C48.3205 80.125 48.2425 80.1851 48.18 80.2598L42.39 86.9498C42.3853 86.9695 42.3853 86.99 42.39 87.0098C42.3624 87.0646 42.339 87.1214 42.32 87.1798C42.3001 87.2551 42.3001 87.3344 42.32 87.4098V87.4698V87.5498L48.66 96.9598H48.56C47.4451 96.8252 46.323 96.7584 45.2 96.7598C39.45 96.7598 34.65 98.5798 32.2 100.66C31.5558 101.102 31.0222 101.686 30.6407 102.368C30.2591 103.049 30.0399 103.81 30 104.59ZM90.05 103.8L104.38 48.5098L119.68 52.5098C120.176 52.6351 120.641 52.858 121.05 53.1653C121.459 53.4727 121.802 53.8583 122.06 54.2998C122.328 54.7461 122.503 55.2417 122.575 55.7571C122.647 56.2725 122.615 56.7971 122.48 57.2998L110.14 105.03C109.925 105.866 109.437 106.607 108.755 107.135C108.072 107.664 107.233 107.95 106.37 107.95C106.033 107.952 105.697 107.912 105.37 107.83L90.02 103.83L90.05 103.8ZM88.53 121.12C88.53 122.155 88.1194 123.148 87.3883 123.881C86.6572 124.614 85.6653 125.027 84.63 125.03H35.26C34.2247 125.027 33.2328 124.614 32.5017 123.881C31.7706 123.148 31.36 122.155 31.36 121.12V105.27H88.53V121.12ZM53.53 88.0698H66.37V88.1298L61.77 103.95H58.11L53.53 88.0698ZM86.29 100.88C87.3043 101.627 88.054 102.678 88.43 103.88V103.95H66.65L70.1 98.8398C76.75 97.3198 82.79 98.0998 86.29 100.88ZM65.01 103.95H63.18V103.88L67.77 88.1098H75.69L65.01 103.95ZM70.89 81.4198L75.49 86.7298H67.72L65.41 81.4298L70.89 81.4198ZM63.89 81.4198L66.2 86.7198H53.65V86.6498L55.95 81.3798L63.89 81.4198ZM44.46 86.6298L49 81.3798H54.48V81.4498L52.2 86.7098H44.39L44.46 86.6298ZM44.18 88.0698H52.1L56.7 103.95H54.85L44.18 88.0698ZM33.04 101.89C35.97 99.4698 42.42 97.4398 49.69 98.6998L53.24 103.95H31.48V103.88C31.8209 103.094 32.3581 102.408 33.04 101.89Z" fill="#1D1F1E"/>
<path opacity="0.2" d="M54.5 104.5H30.5C31.1667 103.167 34 100.1 40 98.4999C46 96.8999 49.1667 97.4999 50 97.9999L54.5 104.5Z" fill="#2A3E52"/>
<path opacity="0.2" d="M66 104.5L89 104.5C88.3333 103.167 88 100.1 82 98.4998C76 96.8998 71.3333 97.4999 70.5 97.9999L66 104.5Z" fill="#2A3E52"/>
<path d="M147.256 58V52.624L143.176 46.08H145.304L148.568 51.376H147.816L151.064 46.08H153.192L149.128 52.624V58H147.256ZM157.091 58.192C156.259 58.192 155.497 57.9947 154.803 57.6C154.121 57.2053 153.577 56.6667 153.171 55.984C152.766 55.3013 152.563 54.528 152.563 53.664C152.563 52.7893 152.766 52.016 153.171 51.344C153.577 50.6613 154.121 50.128 154.803 49.744C155.486 49.3493 156.249 49.152 157.091 49.152C157.945 49.152 158.707 49.3493 159.379 49.744C160.062 50.128 160.601 50.6613 160.995 51.344C161.401 52.016 161.603 52.7893 161.603 53.664C161.603 54.5387 161.401 55.3173 160.995 56C160.59 56.6827 160.046 57.2213 159.363 57.616C158.681 58 157.923 58.192 157.091 58.192ZM157.091 56.512C157.603 56.512 158.057 56.3893 158.451 56.144C158.846 55.8987 159.155 55.5627 159.379 55.136C159.614 54.6987 159.731 54.208 159.731 53.664C159.731 53.12 159.614 52.6347 159.379 52.208C159.155 51.7813 158.846 51.4453 158.451 51.2C158.057 50.9547 157.603 50.832 157.091 50.832C156.59 50.832 156.137 50.9547 155.731 51.2C155.337 51.4453 155.022 51.7813 154.787 52.208C154.563 52.6347 154.451 53.12 154.451 53.664C154.451 54.208 154.563 54.6987 154.787 55.136C155.022 55.5627 155.337 55.8987 155.731 56.144C156.137 56.3893 156.59 56.512 157.091 56.512ZM166.457 58.192C165.806 58.192 165.235 58.048 164.745 57.76C164.254 57.4613 163.87 57.0507 163.593 56.528C163.326 55.9947 163.193 55.3813 163.193 54.688V49.344H165.001V54.528C165.001 54.9227 165.081 55.2693 165.241 55.568C165.401 55.8667 165.625 56.1013 165.913 56.272C166.201 56.432 166.531 56.512 166.905 56.512C167.289 56.512 167.625 56.4267 167.913 56.256C168.201 56.0853 168.425 55.8453 168.585 55.536C168.755 55.2267 168.841 54.864 168.841 54.448V49.344H170.633V58H168.921V56.304L169.113 56.528C168.91 57.0613 168.574 57.472 168.105 57.76C167.635 58.048 167.086 58.192 166.457 58.192ZM172.743 58V49.344H174.472V51.088L174.312 50.832C174.504 50.2667 174.813 49.8613 175.24 49.616C175.666 49.36 176.178 49.232 176.776 49.232H177.304V50.88H176.552C175.954 50.88 175.469 51.0667 175.096 51.44C174.733 51.8027 174.552 52.3253 174.552 53.008V58H172.743ZM185.337 58.192C184.505 58.192 183.759 57.9947 183.097 57.6C182.447 57.1947 181.929 56.6507 181.545 55.968C181.172 55.2853 180.985 54.5173 180.985 53.664C180.985 52.8107 181.177 52.0427 181.561 51.36C181.945 50.6773 182.463 50.1387 183.113 49.744C183.764 49.3493 184.5 49.152 185.321 49.152C186.015 49.152 186.628 49.2907 187.161 49.568C187.695 49.8453 188.116 50.2293 188.425 50.72L188.153 51.136V45.888H189.945V58H188.233V56.24L188.441 56.576C188.143 57.0987 187.716 57.4987 187.161 57.776C186.607 58.0533 185.999 58.192 185.337 58.192ZM185.513 56.512C186.015 56.512 186.463 56.3893 186.857 56.144C187.263 55.8987 187.577 55.5627 187.801 55.136C188.036 54.6987 188.153 54.208 188.153 53.664C188.153 53.12 188.036 52.6347 187.801 52.208C187.577 51.7813 187.263 51.4453 186.857 51.2C186.463 50.9547 186.015 50.832 185.513 50.832C185.012 50.832 184.559 50.9547 184.153 51.2C183.748 51.4453 183.433 51.7813 183.209 52.208C182.985 52.6347 182.873 53.12 182.873 53.664C182.873 54.208 182.985 54.6987 183.209 55.136C183.433 55.5627 183.743 55.8987 184.137 56.144C184.543 56.3893 185.001 56.512 185.513 56.512ZM192.056 58V49.344H193.784V51.088L193.624 50.832C193.816 50.2667 194.125 49.8613 194.552 49.616C194.979 49.36 195.491 49.232 196.088 49.232H196.616V50.88H195.864C195.267 50.88 194.781 51.0667 194.408 51.44C194.045 51.8027 193.864 52.3253 193.864 53.008V58H192.056ZM201.917 58.192C201.053 58.192 200.285 57.9947 199.613 57.6C198.952 57.1947 198.434 56.6507 198.061 55.968C197.688 55.2747 197.501 54.5013 197.501 53.648C197.501 52.7733 197.688 52 198.061 51.328C198.445 50.656 198.957 50.128 199.597 49.744C200.237 49.3493 200.962 49.152 201.773 49.152C202.424 49.152 203.005 49.264 203.517 49.488C204.029 49.712 204.461 50.0213 204.813 50.416C205.165 50.8 205.432 51.2427 205.613 51.744C205.805 52.2453 205.901 52.7787 205.901 53.344C205.901 53.4827 205.896 53.6267 205.885 53.776C205.874 53.9253 205.853 54.064 205.821 54.192H198.925V52.752H204.797L203.933 53.408C204.04 52.8853 204.002 52.4213 203.821 52.016C203.65 51.6 203.384 51.2747 203.021 51.04C202.669 50.7947 202.253 50.672 201.773 50.672C201.293 50.672 200.866 50.7947 200.493 51.04C200.12 51.2747 199.832 51.616 199.629 52.064C199.426 52.5013 199.346 53.0347 199.389 53.664C199.336 54.2507 199.416 54.7627 199.629 55.2C199.853 55.6373 200.162 55.9787 200.557 56.224C200.962 56.4693 201.421 56.592 201.933 56.592C202.456 56.592 202.898 56.4747 203.261 56.24C203.634 56.0053 203.928 55.7013 204.141 55.328L205.613 56.048C205.442 56.4533 205.176 56.8213 204.813 57.152C204.461 57.472 204.034 57.728 203.533 57.92C203.042 58.1013 202.504 58.192 201.917 58.192ZM210.179 58.192C209.593 58.192 209.075 58.0907 208.627 57.888C208.19 57.6747 207.849 57.3867 207.603 57.024C207.358 56.6507 207.235 56.2133 207.235 55.712C207.235 55.2427 207.337 54.8213 207.539 54.448C207.753 54.0747 208.078 53.76 208.515 53.504C208.953 53.248 209.502 53.0667 210.163 52.96L213.171 52.464V53.888L210.515 54.352C210.035 54.4373 209.683 54.592 209.459 54.816C209.235 55.0293 209.123 55.3067 209.123 55.648C209.123 55.9787 209.246 56.2507 209.491 56.464C209.747 56.6667 210.073 56.768 210.467 56.768C210.958 56.768 211.385 56.6613 211.747 56.448C212.121 56.2347 212.409 55.952 212.611 55.6C212.814 55.2373 212.915 54.8373 212.915 54.4V52.176C212.915 51.7493 212.755 51.4027 212.435 51.136C212.126 50.8587 211.71 50.72 211.187 50.72C210.707 50.72 210.286 50.848 209.923 51.104C209.571 51.3493 209.31 51.6693 209.139 52.064L207.635 51.312C207.795 50.8853 208.057 50.512 208.419 50.192C208.782 49.8613 209.203 49.6053 209.683 49.424C210.174 49.2427 210.691 49.152 211.235 49.152C211.918 49.152 212.521 49.28 213.043 49.536C213.577 49.792 213.987 50.1493 214.275 50.608C214.574 51.056 214.723 51.5787 214.723 52.176V58H212.995V56.432L213.363 56.48C213.161 56.832 212.899 57.136 212.579 57.392C212.27 57.648 211.913 57.8453 211.507 57.984C211.113 58.1227 210.67 58.192 210.179 58.192ZM216.837 58V49.344H218.565V51.216L218.341 50.928C218.523 50.3413 218.853 49.8987 219.333 49.6C219.813 49.3013 220.363 49.152 220.981 49.152C221.675 49.152 222.288 49.3387 222.821 49.712C223.365 50.0747 223.728 50.56 223.909 51.168L223.397 51.216C223.653 50.5227 224.043 50.0053 224.565 49.664C225.099 49.3227 225.707 49.152 226.389 49.152C226.987 49.152 227.525 49.2907 228.005 49.568C228.496 49.8453 228.885 50.2293 229.173 50.72C229.461 51.2107 229.605 51.7707 229.605 52.4V58H227.797V52.896C227.797 52.4587 227.717 52.0907 227.557 51.792C227.408 51.4827 227.195 51.248 226.917 51.088C226.651 50.9173 226.336 50.832 225.973 50.832C225.611 50.832 225.291 50.9173 225.013 51.088C224.736 51.248 224.517 51.4827 224.357 51.792C224.197 52.1013 224.117 52.4693 224.117 52.896V58H222.325V52.896C222.325 52.4587 222.245 52.0907 222.085 51.792C221.936 51.4827 221.723 51.248 221.445 51.088C221.179 50.9173 220.859 50.832 220.485 50.832C220.123 50.832 219.803 50.9173 219.525 51.088C219.248 51.248 219.029 51.4827 218.869 51.792C218.72 52.1013 218.645 52.4693 218.645 52.896V58H216.837ZM238.337 58.192C237.505 58.192 236.759 57.9947 236.097 57.6C235.447 57.1947 234.929 56.6507 234.545 55.968C234.172 55.2853 233.985 54.5173 233.985 53.664C233.985 52.8107 234.177 52.0427 234.561 51.36C234.945 50.6773 235.463 50.1387 236.113 49.744C236.764 49.3493 237.5 49.152 238.321 49.152C239.015 49.152 239.628 49.2907 240.161 49.568C240.695 49.8453 241.116 50.2293 241.425 50.72L241.153 51.136V45.888H242.945V58H241.233V56.24L241.441 56.576C241.143 57.0987 240.716 57.4987 240.161 57.776C239.607 58.0533 238.999 58.192 238.337 58.192ZM238.513 56.512C239.015 56.512 239.463 56.3893 239.857 56.144C240.263 55.8987 240.577 55.5627 240.801 55.136C241.036 54.6987 241.153 54.208 241.153 53.664C241.153 53.12 241.036 52.6347 240.801 52.208C240.577 51.7813 240.263 51.4453 239.857 51.2C239.463 50.9547 239.015 50.832 238.513 50.832C238.012 50.832 237.559 50.9547 237.153 51.2C236.748 51.4453 236.433 51.7813 236.209 52.208C235.985 52.6347 235.873 53.12 235.873 53.664C235.873 54.208 235.985 54.6987 236.209 55.136C236.433 55.5627 236.743 55.8987 237.137 56.144C237.543 56.3893 238.001 56.512 238.513 56.512ZM249.12 58.192C248.256 58.192 247.488 57.9947 246.816 57.6C246.155 57.1947 245.637 56.6507 245.264 55.968C244.891 55.2747 244.704 54.5013 244.704 53.648C244.704 52.7733 244.891 52 245.264 51.328C245.648 50.656 246.16 50.128 246.8 49.744C247.44 49.3493 248.165 49.152 248.976 49.152C249.627 49.152 250.208 49.264 250.72 49.488C251.232 49.712 251.664 50.0213 252.016 50.416C252.368 50.8 252.635 51.2427 252.816 51.744C253.008 52.2453 253.104 52.7787 253.104 53.344C253.104 53.4827 253.099 53.6267 253.088 53.776C253.077 53.9253 253.056 54.064 253.024 54.192H246.128V52.752H252L251.136 53.408C251.243 52.8853 251.205 52.4213 251.024 52.016C250.853 51.6 250.587 51.2747 250.224 51.04C249.872 50.7947 249.456 50.672 248.976 50.672C248.496 50.672 248.069 50.7947 247.696 51.04C247.323 51.2747 247.035 51.616 246.832 52.064C246.629 52.5013 246.549 53.0347 246.592 53.664C246.539 54.2507 246.619 54.7627 246.832 55.2C247.056 55.6373 247.365 55.9787 247.76 56.224C248.165 56.4693 248.624 56.592 249.136 56.592C249.659 56.592 250.101 56.4747 250.464 56.24C250.837 56.0053 251.131 55.7013 251.344 55.328L252.816 56.048C252.645 56.4533 252.379 56.8213 252.016 57.152C251.664 57.472 251.237 57.728 250.736 57.92C250.245 58.1013 249.707 58.192 249.12 58.192ZM258.069 58.192C257.183 58.192 256.405 57.9733 255.733 57.536C255.071 57.0987 254.607 56.512 254.34 55.776L255.733 55.12C255.967 55.6107 256.287 56 256.693 56.288C257.109 56.576 257.567 56.72 258.069 56.72C258.495 56.72 258.842 56.624 259.109 56.432C259.375 56.24 259.509 55.9787 259.509 55.648C259.509 55.4347 259.45 55.264 259.333 55.136C259.215 54.9973 259.066 54.8853 258.885 54.8C258.714 54.7147 258.538 54.6507 258.357 54.608L256.997 54.224C256.25 54.0107 255.69 53.6907 255.317 53.264C254.954 52.8267 254.773 52.32 254.773 51.744C254.773 51.2213 254.906 50.768 255.173 50.384C255.439 49.9893 255.807 49.6853 256.277 49.472C256.746 49.2587 257.274 49.152 257.861 49.152C258.65 49.152 259.354 49.3493 259.973 49.744C260.591 50.128 261.029 50.6667 261.285 51.36L259.893 52.016C259.722 51.6 259.45 51.2693 259.077 51.024C258.714 50.7787 258.303 50.656 257.845 50.656C257.45 50.656 257.135 50.752 256.901 50.944C256.666 51.1253 256.549 51.3653 256.549 51.664C256.549 51.8667 256.602 52.0373 256.709 52.176C256.815 52.304 256.954 52.4107 257.125 52.496C257.295 52.5707 257.471 52.6347 257.653 52.688L259.061 53.104C259.775 53.3067 260.325 53.6267 260.709 54.064C261.093 54.4907 261.285 55.0027 261.285 55.6C261.285 56.112 261.146 56.5653 260.869 56.96C260.602 57.344 260.229 57.648 259.749 57.872C259.269 58.0853 258.709 58.192 258.069 58.192ZM263.056 58V49.344H264.864V58H263.056ZM263.056 48.16V46.08H264.864V48.16H263.056ZM271.154 61.52C270.525 61.52 269.943 61.4187 269.41 61.216C268.877 61.0133 268.418 60.7307 268.034 60.368C267.65 60.016 267.362 59.6 267.17 59.12L268.834 58.432C268.983 58.8373 269.255 59.1733 269.65 59.44C270.055 59.7067 270.551 59.84 271.138 59.84C271.597 59.84 272.007 59.7493 272.37 59.568C272.733 59.3973 273.021 59.1413 273.234 58.8C273.447 58.4693 273.554 58.0693 273.554 57.6V55.648L273.874 56.016C273.575 56.5707 273.159 56.992 272.626 57.28C272.103 57.568 271.511 57.712 270.85 57.712C270.05 57.712 269.33 57.5253 268.69 57.152C268.05 56.7787 267.543 56.2667 267.17 55.616C266.807 54.9653 266.626 54.2347 266.626 53.424C266.626 52.6027 266.807 51.872 267.17 51.232C267.543 50.592 268.045 50.0853 268.674 49.712C269.303 49.3387 270.023 49.152 270.834 49.152C271.495 49.152 272.082 49.296 272.594 49.584C273.117 49.8613 273.543 50.2667 273.874 50.8L273.634 51.248V49.344H275.346V57.6C275.346 58.3467 275.165 59.0133 274.802 59.6C274.45 60.1973 273.959 60.6667 273.33 61.008C272.701 61.3493 271.975 61.52 271.154 61.52ZM271.058 56.032C271.538 56.032 271.965 55.92 272.338 55.696C272.711 55.4613 273.005 55.152 273.218 54.768C273.442 54.3733 273.554 53.9307 273.554 53.44C273.554 52.9493 273.442 52.5067 273.218 52.112C272.994 51.7173 272.695 51.408 272.322 51.184C271.949 50.9493 271.527 50.832 271.058 50.832C270.567 50.832 270.13 50.9493 269.746 51.184C269.362 51.408 269.058 51.7173 268.834 52.112C268.621 52.496 268.514 52.9387 268.514 53.44C268.514 53.92 268.621 54.3573 268.834 54.752C269.058 55.1467 269.362 55.4613 269.746 55.696C270.13 55.92 270.567 56.032 271.058 56.032ZM277.462 58V49.344H279.19V51.04L278.982 50.816C279.196 50.272 279.537 49.8613 280.006 49.584C280.476 49.296 281.02 49.152 281.638 49.152C282.278 49.152 282.844 49.2907 283.334 49.568C283.825 49.8453 284.209 50.2293 284.486 50.72C284.764 51.2107 284.902 51.776 284.902 52.416V58H283.11V52.896C283.11 52.4587 283.03 52.0907 282.87 51.792C282.71 51.4827 282.481 51.248 282.182 51.088C281.894 50.9173 281.564 50.832 281.19 50.832C280.817 50.832 280.481 50.9173 280.182 51.088C279.894 51.248 279.67 51.4827 279.51 51.792C279.35 52.1013 279.27 52.4693 279.27 52.896V58H277.462Z" fill="#1D1F1E"/>
<path d="M146.808 89V84.156L143.154 78.57H144.4L147.592 83.428H147.144L150.322 78.57H151.568L147.928 84.156V89H146.808ZM154.92 89.168C154.211 89.168 153.567 89 152.988 88.664C152.409 88.3187 151.947 87.852 151.602 87.264C151.266 86.6667 151.098 85.99 151.098 85.234C151.098 84.4873 151.266 83.82 151.602 83.232C151.938 82.644 152.391 82.182 152.96 81.846C153.539 81.5007 154.192 81.328 154.92 81.328C155.648 81.328 156.297 81.496 156.866 81.832C157.445 82.168 157.897 82.63 158.224 83.218C158.56 83.806 158.728 84.478 158.728 85.234C158.728 85.9993 158.555 86.6807 158.21 87.278C157.865 87.866 157.403 88.328 156.824 88.664C156.255 89 155.62 89.168 154.92 89.168ZM154.92 88.118C155.424 88.118 155.877 87.992 156.278 87.74C156.689 87.488 157.011 87.1427 157.244 86.704C157.487 86.2653 157.608 85.7753 157.608 85.234C157.608 84.6927 157.487 84.2073 157.244 83.778C157.011 83.3487 156.689 83.008 156.278 82.756C155.877 82.504 155.424 82.378 154.92 82.378C154.416 82.378 153.959 82.504 153.548 82.756C153.147 83.008 152.825 83.3487 152.582 83.778C152.339 84.2073 152.218 84.6927 152.218 85.234C152.218 85.7753 152.339 86.2653 152.582 86.704C152.825 87.1427 153.147 87.488 153.548 87.74C153.959 87.992 154.416 88.118 154.92 88.118ZM163.24 89.168C162.717 89.168 162.241 89.0467 161.812 88.804C161.383 88.552 161.042 88.2067 160.79 87.768C160.547 87.32 160.426 86.8067 160.426 86.228V81.496H161.476V86.102C161.476 86.5033 161.555 86.858 161.714 87.166C161.882 87.4647 162.111 87.698 162.4 87.866C162.699 88.034 163.039 88.118 163.422 88.118C163.805 88.118 164.145 88.034 164.444 87.866C164.743 87.6887 164.976 87.4413 165.144 87.124C165.312 86.7973 165.396 86.41 165.396 85.962V81.496H166.446V89H165.396V87.544L165.634 87.6C165.457 88.0853 165.153 88.468 164.724 88.748C164.295 89.028 163.8 89.168 163.24 89.168ZM168.605 89V81.496H169.655V82.728L169.515 82.546C169.693 82.1913 169.959 81.9113 170.313 81.706C170.677 81.5007 171.116 81.398 171.629 81.398H172.105V82.448H171.447C170.906 82.448 170.472 82.616 170.145 82.952C169.819 83.288 169.655 83.764 169.655 84.38V89H168.605ZM175.715 91.8V81.496H176.765V83.176L176.597 82.882C176.895 82.406 177.292 82.028 177.787 81.748C178.291 81.468 178.865 81.328 179.509 81.328C180.218 81.328 180.848 81.5007 181.399 81.846C181.959 82.182 182.397 82.644 182.715 83.232C183.041 83.82 183.205 84.492 183.205 85.248C183.205 85.9947 183.041 86.6667 182.715 87.264C182.397 87.852 181.959 88.3187 181.399 88.664C180.848 89 180.218 89.168 179.509 89.168C178.865 89.168 178.281 89.0233 177.759 88.734C177.245 88.4353 176.858 88.0153 176.597 87.474L176.765 87.32V91.8H175.715ZM179.453 88.118C179.957 88.118 180.405 87.992 180.797 87.74C181.198 87.488 181.511 87.1473 181.735 86.718C181.968 86.2793 182.085 85.7893 182.085 85.248C182.085 84.6973 181.968 84.2073 181.735 83.778C181.511 83.3487 181.198 83.008 180.797 82.756C180.405 82.504 179.957 82.378 179.453 82.378C178.949 82.378 178.491 82.504 178.081 82.756C177.679 83.008 177.357 83.3533 177.115 83.792C176.881 84.2213 176.765 84.7067 176.765 85.248C176.765 85.7893 176.881 86.2793 177.115 86.718C177.357 87.1473 177.679 87.488 178.081 87.74C178.491 87.992 178.949 88.118 179.453 88.118ZM188.469 89.168C187.769 89.168 187.134 89 186.565 88.664C186.005 88.3187 185.561 87.8473 185.235 87.25C184.908 86.6527 184.745 85.976 184.745 85.22C184.745 84.464 184.903 83.7967 185.221 83.218C185.538 82.63 185.967 82.168 186.509 81.832C187.059 81.496 187.675 81.328 188.357 81.328C188.898 81.328 189.379 81.4307 189.799 81.636C190.228 81.832 190.592 82.1027 190.891 82.448C191.189 82.784 191.418 83.1667 191.577 83.596C191.735 84.016 191.815 84.45 191.815 84.898C191.815 84.9913 191.81 85.0987 191.801 85.22C191.791 85.332 191.777 85.4487 191.759 85.57H185.417V84.59H191.157L190.653 85.01C190.737 84.4967 190.676 84.0393 190.471 83.638C190.275 83.2273 189.99 82.9053 189.617 82.672C189.243 82.4293 188.823 82.308 188.357 82.308C187.89 82.308 187.456 82.4293 187.055 82.672C186.663 82.9147 186.355 83.2553 186.131 83.694C185.907 84.1233 185.818 84.6367 185.865 85.234C185.818 85.8313 185.911 86.354 186.145 86.802C186.387 87.2407 186.714 87.5813 187.125 87.824C187.545 88.0667 187.993 88.188 188.469 88.188C189.019 88.188 189.481 88.0573 189.855 87.796C190.228 87.5347 190.531 87.208 190.765 86.816L191.661 87.292C191.511 87.628 191.283 87.9407 190.975 88.23C190.667 88.51 190.298 88.7387 189.869 88.916C189.449 89.084 188.982 89.168 188.469 89.168ZM193.666 89V81.496H194.716V82.728L194.576 82.546C194.753 82.1913 195.019 81.9113 195.374 81.706C195.738 81.5007 196.177 81.398 196.69 81.398H197.166V82.448H196.508C195.967 82.448 195.533 82.616 195.206 82.952C194.879 83.288 194.716 83.764 194.716 84.38V89H193.666ZM199.166 89V82.546H197.668V81.496H199.166V80.824C199.166 80.3013 199.283 79.8627 199.516 79.508C199.75 79.144 200.058 78.8687 200.44 78.682C200.823 78.4953 201.234 78.402 201.672 78.402C201.766 78.402 201.873 78.4113 201.994 78.43C202.116 78.4393 202.214 78.4533 202.288 78.472V79.424C202.223 79.4053 202.134 79.396 202.022 79.396C201.91 79.3867 201.831 79.382 201.784 79.382C201.336 79.382 200.963 79.4893 200.664 79.704C200.366 79.9187 200.216 80.292 200.216 80.824V81.496H202.05V82.546H200.216V89H199.166ZM206.885 89.168C206.185 89.168 205.55 89 204.981 88.664C204.421 88.3187 203.977 87.8473 203.651 87.25C203.324 86.6527 203.161 85.976 203.161 85.22C203.161 84.464 203.319 83.7967 203.637 83.218C203.954 82.63 204.383 82.168 204.925 81.832C205.475 81.496 206.091 81.328 206.773 81.328C207.314 81.328 207.795 81.4307 208.215 81.636C208.644 81.832 209.008 82.1027 209.307 82.448C209.605 82.784 209.834 83.1667 209.993 83.596C210.151 84.016 210.231 84.45 210.231 84.898C210.231 84.9913 210.226 85.0987 210.217 85.22C210.207 85.332 210.193 85.4487 210.175 85.57H203.833V84.59H209.573L209.069 85.01C209.153 84.4967 209.092 84.0393 208.887 83.638C208.691 83.2273 208.406 82.9053 208.033 82.672C207.659 82.4293 207.239 82.308 206.773 82.308C206.306 82.308 205.872 82.4293 205.471 82.672C205.079 82.9147 204.771 83.2553 204.547 83.694C204.323 84.1233 204.234 84.6367 204.281 85.234C204.234 85.8313 204.327 86.354 204.561 86.802C204.803 87.2407 205.13 87.5813 205.541 87.824C205.961 88.0667 206.409 88.188 206.885 88.188C207.435 88.188 207.897 88.0573 208.271 87.796C208.644 87.5347 208.947 87.208 209.181 86.816L210.077 87.292C209.927 87.628 209.699 87.9407 209.391 88.23C209.083 88.51 208.714 88.7387 208.285 88.916C207.865 89.084 207.398 89.168 206.885 89.168ZM215.512 89.168C214.775 89.168 214.126 88.9953 213.566 88.65C213.006 88.3047 212.567 87.838 212.25 87.25C211.933 86.6527 211.774 85.9807 211.774 85.234C211.774 84.4873 211.933 83.82 212.25 83.232C212.567 82.644 213.006 82.182 213.566 81.846C214.126 81.5007 214.775 81.328 215.512 81.328C215.979 81.328 216.417 81.412 216.828 81.58C217.239 81.748 217.603 81.9767 217.92 82.266C218.237 82.546 218.475 82.8727 218.634 83.246L217.682 83.736C217.495 83.3347 217.211 83.008 216.828 82.756C216.445 82.504 216.007 82.378 215.512 82.378C215.017 82.378 214.569 82.504 214.168 82.756C213.776 82.9987 213.463 83.3393 213.23 83.778C213.006 84.2073 212.894 84.6973 212.894 85.248C212.894 85.7893 213.006 86.2793 213.23 86.718C213.463 87.1473 213.776 87.488 214.168 87.74C214.569 87.992 215.017 88.118 215.512 88.118C216.007 88.118 216.441 87.992 216.814 87.74C217.197 87.488 217.486 87.152 217.682 86.732L218.634 87.25C218.475 87.614 218.237 87.9407 217.92 88.23C217.603 88.5193 217.239 88.748 216.828 88.916C216.417 89.084 215.979 89.168 215.512 89.168ZM223.346 89.084C222.674 89.084 222.156 88.888 221.792 88.496C221.428 88.104 221.246 87.544 221.246 86.816V82.546H219.86V81.496H220.21C220.528 81.496 220.78 81.3933 220.966 81.188C221.153 80.9733 221.246 80.7073 221.246 80.39V79.76H222.296V81.496H223.948V82.546H222.296V86.816C222.296 87.068 222.334 87.292 222.408 87.488C222.483 87.6747 222.609 87.824 222.786 87.936C222.973 88.048 223.22 88.104 223.528 88.104C223.603 88.104 223.692 88.0993 223.794 88.09C223.897 88.0807 223.986 88.0713 224.06 88.062V89C223.948 89.028 223.822 89.0467 223.682 89.056C223.542 89.0747 223.43 89.084 223.346 89.084ZM225.946 90.82V90.33C226.226 90.2553 226.432 90.1107 226.562 89.896C226.693 89.6813 226.758 89.3827 226.758 89H226.226V87.46H227.346V88.636C227.346 89.2427 227.23 89.728 226.996 90.092C226.763 90.4653 226.413 90.708 225.946 90.82ZM235.571 89.168C234.861 89.168 234.217 89 233.639 88.664C233.06 88.3187 232.598 87.852 232.253 87.264C231.917 86.6667 231.749 85.99 231.749 85.234C231.749 84.4873 231.917 83.82 232.253 83.232C232.589 82.644 233.041 82.182 233.611 81.846C234.189 81.5007 234.843 81.328 235.571 81.328C236.299 81.328 236.947 81.496 237.517 81.832C238.095 82.168 238.548 82.63 238.875 83.218C239.211 83.806 239.379 84.478 239.379 85.234C239.379 85.9993 239.206 86.6807 238.861 87.278C238.515 87.866 238.053 88.328 237.475 88.664C236.905 89 236.271 89.168 235.571 89.168ZM235.571 88.118C236.075 88.118 236.527 87.992 236.929 87.74C237.339 87.488 237.661 87.1427 237.895 86.704C238.137 86.2653 238.259 85.7753 238.259 85.234C238.259 84.6927 238.137 84.2073 237.895 83.778C237.661 83.3487 237.339 83.008 236.929 82.756C236.527 82.504 236.075 82.378 235.571 82.378C235.067 82.378 234.609 82.504 234.199 82.756C233.797 83.008 233.475 83.3487 233.233 83.778C232.99 84.2073 232.869 84.6927 232.869 85.234C232.869 85.7753 232.99 86.2653 233.233 86.704C233.475 87.1427 233.797 87.488 234.199 87.74C234.609 87.992 235.067 88.118 235.571 88.118ZM241.23 89V81.496H242.28V82.952L242.042 82.896C242.229 82.4107 242.532 82.028 242.952 81.748C243.382 81.468 243.876 81.328 244.436 81.328C244.968 81.328 245.444 81.4493 245.864 81.692C246.294 81.9347 246.63 82.2707 246.872 82.7C247.124 83.12 247.25 83.596 247.25 84.128V89H246.2V84.534C246.2 84.0767 246.116 83.6893 245.948 83.372C245.79 83.0547 245.561 82.812 245.262 82.644C244.973 82.4667 244.637 82.378 244.254 82.378C243.872 82.378 243.531 82.4667 243.232 82.644C242.934 82.812 242.7 83.0593 242.532 83.386C242.364 83.7033 242.28 84.086 242.28 84.534V89H241.23ZM252.672 89.168C251.972 89.168 251.337 89 250.768 88.664C250.208 88.3187 249.764 87.8473 249.438 87.25C249.111 86.6527 248.948 85.976 248.948 85.22C248.948 84.464 249.106 83.7967 249.424 83.218C249.741 82.63 250.17 82.168 250.712 81.832C251.262 81.496 251.878 81.328 252.56 81.328C253.101 81.328 253.582 81.4307 254.002 81.636C254.431 81.832 254.795 82.1027 255.094 82.448C255.392 82.784 255.621 83.1667 255.78 83.596C255.938 84.016 256.018 84.45 256.018 84.898C256.018 84.9913 256.013 85.0987 256.004 85.22C255.994 85.332 255.98 85.4487 255.962 85.57H249.62V84.59H255.36L254.856 85.01C254.94 84.4967 254.879 84.0393 254.674 83.638C254.478 83.2273 254.193 82.9053 253.82 82.672C253.446 82.4293 253.026 82.308 252.56 82.308C252.093 82.308 251.659 82.4293 251.258 82.672C250.866 82.9147 250.558 83.2553 250.334 83.694C250.11 84.1233 250.021 84.6367 250.068 85.234C250.021 85.8313 250.114 86.354 250.348 86.802C250.59 87.2407 250.917 87.5813 251.328 87.824C251.748 88.0667 252.196 88.188 252.672 88.188C253.222 88.188 253.684 88.0573 254.058 87.796C254.431 87.5347 254.734 87.208 254.968 86.816L255.864 87.292C255.714 87.628 255.486 87.9407 255.178 88.23C254.87 88.51 254.501 88.7387 254.072 88.916C253.652 89.084 253.185 89.168 252.672 89.168ZM257.827 85.738V84.758H262.727V85.738H257.827ZM268.356 89.168C267.646 89.168 267.002 89 266.424 88.664C265.845 88.3187 265.383 87.852 265.038 87.264C264.702 86.6667 264.534 85.99 264.534 85.234C264.534 84.4873 264.702 83.82 265.038 83.232C265.374 82.644 265.826 82.182 266.396 81.846C266.974 81.5007 267.628 81.328 268.356 81.328C269.084 81.328 269.732 81.496 270.302 81.832C270.88 82.168 271.333 82.63 271.66 83.218C271.996 83.806 272.164 84.478 272.164 85.234C272.164 85.9993 271.991 86.6807 271.646 87.278C271.3 87.866 270.838 88.328 270.26 88.664C269.69 89 269.056 89.168 268.356 89.168ZM268.356 88.118C268.86 88.118 269.312 87.992 269.714 87.74C270.124 87.488 270.446 87.1427 270.68 86.704C270.922 86.2653 271.044 85.7753 271.044 85.234C271.044 84.6927 270.922 84.2073 270.68 83.778C270.446 83.3487 270.124 83.008 269.714 82.756C269.312 82.504 268.86 82.378 268.356 82.378C267.852 82.378 267.394 82.504 266.984 82.756C266.582 83.008 266.26 83.3487 266.018 83.778C265.775 84.2073 265.654 84.6927 265.654 85.234C265.654 85.7753 265.775 86.2653 266.018 86.704C266.26 87.1427 266.582 87.488 266.984 87.74C267.394 87.992 267.852 88.118 268.356 88.118ZM274.512 89V82.546H273.014V81.496H274.512V80.824C274.512 80.3013 274.629 79.8627 274.862 79.508C275.095 79.144 275.403 78.8687 275.786 78.682C276.169 78.4953 276.579 78.402 277.018 78.402C277.111 78.402 277.219 78.4113 277.34 78.43C277.461 78.4393 277.559 78.4533 277.634 78.472V79.424C277.569 79.4053 277.48 79.396 277.368 79.396C277.256 79.3867 277.177 79.382 277.13 79.382C276.682 79.382 276.309 79.4893 276.01 79.704C275.711 79.9187 275.562 80.292 275.562 80.824V81.496H277.396V82.546H275.562V89H274.512ZM279.196 85.738V84.758H284.096V85.738H279.196ZM288.381 89.168C287.905 89.168 287.48 89.0793 287.107 88.902C286.733 88.7153 286.439 88.4633 286.225 88.146C286.01 87.8287 285.903 87.4647 285.903 87.054C285.903 86.662 285.987 86.3073 286.155 85.99C286.323 85.6633 286.584 85.388 286.939 85.164C287.293 84.94 287.746 84.7813 288.297 84.688L291.237 84.198V85.15L288.549 85.598C288.007 85.6913 287.615 85.864 287.373 86.116C287.139 86.368 287.023 86.6667 287.023 87.012C287.023 87.348 287.153 87.6327 287.415 87.866C287.685 88.0993 288.031 88.216 288.451 88.216C288.964 88.216 289.412 88.1087 289.795 87.894C290.177 87.67 290.476 87.3713 290.691 86.998C290.905 86.6247 291.013 86.2093 291.013 85.752V83.848C291.013 83.4 290.849 83.036 290.523 82.756C290.196 82.476 289.771 82.336 289.249 82.336C288.791 82.336 288.39 82.4527 288.045 82.686C287.699 82.91 287.443 83.204 287.275 83.568L286.323 83.05C286.463 82.7327 286.682 82.4433 286.981 82.182C287.289 81.9207 287.639 81.7153 288.031 81.566C288.423 81.4073 288.829 81.328 289.249 81.328C289.799 81.328 290.285 81.4353 290.705 81.65C291.134 81.8647 291.465 82.1633 291.699 82.546C291.941 82.9193 292.063 83.3533 292.063 83.848V89H291.013V87.502L291.167 87.656C291.036 87.936 290.831 88.1927 290.551 88.426C290.28 88.65 289.958 88.832 289.585 88.972C289.221 89.1027 288.819 89.168 288.381 89.168ZM294.181 85.738V84.758H299.081V85.738H294.181ZM301.195 89V78.402H302.245V85.822L301.797 85.752L306.011 81.496H307.369L304.429 84.506L307.635 89H306.375L303.365 84.842L304.037 84.898L301.895 87.11L302.245 86.242V89H301.195ZM308.865 89V81.496H309.915V89H308.865ZM308.865 80.11V78.57H309.915V80.11H308.865ZM312.064 89V81.496H313.114V82.952L312.876 82.896C313.063 82.4107 313.366 82.028 313.786 81.748C314.216 81.468 314.71 81.328 315.27 81.328C315.802 81.328 316.278 81.4493 316.698 81.692C317.128 81.9347 317.464 82.2707 317.706 82.7C317.958 83.12 318.084 83.596 318.084 84.128V89H317.034V84.534C317.034 84.0767 316.95 83.6893 316.782 83.372C316.624 83.0547 316.395 82.812 316.096 82.644C315.807 82.4667 315.471 82.378 315.088 82.378C314.706 82.378 314.365 82.4667 314.066 82.644C313.768 82.812 313.534 83.0593 313.366 83.386C313.198 83.7033 313.114 84.086 313.114 84.534V89H312.064ZM323.478 89.168C322.778 89.168 322.148 89 321.588 88.664C321.028 88.3187 320.584 87.852 320.258 87.264C319.94 86.6667 319.782 85.9947 319.782 85.248C319.782 84.492 319.94 83.82 320.258 83.232C320.584 82.644 321.023 82.182 321.574 81.846C322.134 81.5007 322.768 81.328 323.478 81.328C324.122 81.328 324.696 81.468 325.2 81.748C325.704 82.028 326.1 82.406 326.39 82.882L326.222 83.176V78.402H327.272V89H326.222V87.32L326.39 87.474C326.128 88.0153 325.736 88.4353 325.214 88.734C324.7 89.0233 324.122 89.168 323.478 89.168ZM323.534 88.118C324.038 88.118 324.49 87.992 324.892 87.74C325.302 87.488 325.624 87.1473 325.858 86.718C326.1 86.2793 326.222 85.7893 326.222 85.248C326.222 84.7067 326.1 84.2213 325.858 83.792C325.624 83.3533 325.302 83.008 324.892 82.756C324.49 82.504 324.038 82.378 323.534 82.378C323.039 82.378 322.591 82.504 322.19 82.756C321.788 83.008 321.471 83.3487 321.238 83.778C321.014 84.2073 320.902 84.6973 320.902 85.248C320.902 85.7893 321.014 86.2793 321.238 86.718C321.471 87.1473 321.784 87.488 322.176 87.74C322.577 87.992 323.03 88.118 323.534 88.118ZM331.807 89V81.496H332.857V82.728L332.717 82.546C332.894 82.1913 333.16 81.9113 333.515 81.706C333.879 81.5007 334.317 81.398 334.831 81.398H335.307V82.448H334.649C334.107 82.448 333.673 82.616 333.347 82.952C333.02 83.288 332.857 83.764 332.857 84.38V89H331.807ZM336.537 89V81.496H337.587V89H336.537ZM336.537 80.11V78.57H337.587V80.11H336.537ZM339.736 89V81.496H340.786V82.952L340.548 82.896C340.735 82.4107 341.038 82.028 341.458 81.748C341.888 81.468 342.382 81.328 342.942 81.328C343.474 81.328 343.95 81.4493 344.37 81.692C344.8 81.9347 345.136 82.2707 345.378 82.7C345.63 83.12 345.756 83.596 345.756 84.128V89H344.706V84.534C344.706 84.0767 344.622 83.6893 344.454 83.372C344.296 83.0547 344.067 82.812 343.768 82.644C343.479 82.4667 343.143 82.378 342.76 82.378C342.378 82.378 342.037 82.4667 341.738 82.644C341.44 82.812 341.206 83.0593 341.038 83.386C340.87 83.7033 340.786 84.086 340.786 84.534V89H339.736ZM351.318 92.08C350.804 92.08 350.328 92.0007 349.89 91.842C349.46 91.6833 349.087 91.464 348.77 91.184C348.462 90.9133 348.224 90.596 348.056 90.232L349.022 89.714C349.171 90.0687 349.437 90.3767 349.82 90.638C350.202 90.8993 350.692 91.03 351.29 91.03C351.747 91.03 352.167 90.9413 352.55 90.764C352.932 90.5867 353.24 90.3253 353.474 89.98C353.707 89.6347 353.824 89.21 353.824 88.706V87.04L353.992 87.194C353.73 87.7353 353.343 88.1553 352.83 88.454C352.316 88.7433 351.756 88.888 351.15 88.888C350.45 88.888 349.82 88.72 349.26 88.384C348.7 88.048 348.256 87.5953 347.93 87.026C347.612 86.4473 347.454 85.808 347.454 85.108C347.454 84.3987 347.612 83.7593 347.93 83.19C348.256 82.6207 348.695 82.168 349.246 81.832C349.806 81.496 350.44 81.328 351.15 81.328C351.756 81.328 352.307 81.468 352.802 81.748C353.306 82.028 353.702 82.406 353.992 82.882L353.824 83.176V81.496H354.874V88.706C354.874 89.35 354.72 89.924 354.412 90.428C354.113 90.9413 353.693 91.3427 353.152 91.632C352.62 91.9307 352.008 92.08 351.318 92.08ZM351.206 87.838C351.691 87.838 352.13 87.7167 352.522 87.474C352.914 87.222 353.226 86.8907 353.46 86.48C353.702 86.06 353.824 85.6027 353.824 85.108C353.824 84.6133 353.702 84.1607 353.46 83.75C353.226 83.33 352.914 82.9987 352.522 82.756C352.13 82.504 351.691 82.378 351.206 82.378C350.711 82.378 350.263 82.504 349.862 82.756C349.46 82.9987 349.143 83.3253 348.91 83.736C348.686 84.1467 348.574 84.604 348.574 85.108C348.574 85.6027 348.686 86.06 348.91 86.48C349.143 86.8907 349.456 87.222 349.848 87.474C350.249 87.7167 350.702 87.838 351.206 87.838ZM359.41 89V81.496H360.46V89H359.41ZM359.41 80.11V78.57H360.46V80.11H359.41ZM365.213 89.168C364.495 89.168 363.865 88.986 363.323 88.622C362.782 88.258 362.39 87.7633 362.147 87.138L363.029 86.718C363.244 87.1753 363.543 87.5393 363.925 87.81C364.317 88.0807 364.747 88.216 365.213 88.216C365.661 88.216 366.039 88.1087 366.347 87.894C366.655 87.67 366.809 87.3807 366.809 87.026C366.809 86.7647 366.735 86.5593 366.585 86.41C366.436 86.2513 366.263 86.13 366.067 86.046C365.871 85.962 365.699 85.9013 365.549 85.864L364.471 85.556C363.781 85.36 363.281 85.0847 362.973 84.73C362.665 84.3753 362.511 83.9647 362.511 83.498C362.511 83.0593 362.623 82.6767 362.847 82.35C363.071 82.0233 363.375 81.7713 363.757 81.594C364.14 81.4167 364.565 81.328 365.031 81.328C365.666 81.328 366.24 81.496 366.753 81.832C367.276 82.1587 367.645 82.616 367.859 83.204L366.963 83.624C366.777 83.204 366.506 82.8773 366.151 82.644C365.806 82.4013 365.419 82.28 364.989 82.28C364.569 82.28 364.233 82.3873 363.981 82.602C363.729 82.8167 363.603 83.0873 363.603 83.414C363.603 83.666 363.669 83.8667 363.799 84.016C363.93 84.1653 364.079 84.2773 364.247 84.352C364.425 84.4267 364.579 84.4827 364.709 84.52L365.955 84.884C366.562 85.0613 367.033 85.3367 367.369 85.71C367.715 86.0833 367.887 86.522 367.887 87.026C367.887 87.4367 367.771 87.8053 367.537 88.132C367.313 88.4587 367.001 88.7153 366.599 88.902C366.198 89.0793 365.736 89.168 365.213 89.168ZM144.078 109V101.496H145.128V102.728L144.988 102.546C145.165 102.191 145.431 101.911 145.786 101.706C146.15 101.501 146.589 101.398 147.102 101.398H147.578V102.448H146.92C146.379 102.448 145.945 102.616 145.618 102.952C145.291 103.288 145.128 103.764 145.128 104.38V109H144.078ZM152.224 109.168C151.524 109.168 150.89 109 150.32 108.664C149.76 108.319 149.317 107.847 148.99 107.25C148.664 106.653 148.5 105.976 148.5 105.22C148.5 104.464 148.659 103.797 148.976 103.218C149.294 102.63 149.723 102.168 150.264 101.832C150.815 101.496 151.431 101.328 152.112 101.328C152.654 101.328 153.134 101.431 153.554 101.636C153.984 101.832 154.348 102.103 154.646 102.448C154.945 102.784 155.174 103.167 155.332 103.596C155.491 104.016 155.57 104.45 155.57 104.898C155.57 104.991 155.566 105.099 155.556 105.22C155.547 105.332 155.533 105.449 155.514 105.57H149.172V104.59H154.912L154.408 105.01C154.492 104.497 154.432 104.039 154.226 103.638C154.03 103.227 153.746 102.905 153.372 102.672C152.999 102.429 152.579 102.308 152.112 102.308C151.646 102.308 151.212 102.429 150.81 102.672C150.418 102.915 150.11 103.255 149.886 103.694C149.662 104.123 149.574 104.637 149.62 105.234C149.574 105.831 149.667 106.354 149.9 106.802C150.143 107.241 150.47 107.581 150.88 107.824C151.3 108.067 151.748 108.188 152.224 108.188C152.775 108.188 153.237 108.057 153.61 107.796C153.984 107.535 154.287 107.208 154.52 106.816L155.416 107.292C155.267 107.628 155.038 107.941 154.73 108.23C154.422 108.51 154.054 108.739 153.624 108.916C153.204 109.084 152.738 109.168 152.224 109.168ZM159.455 109.168C158.979 109.168 158.554 109.079 158.181 108.902C157.808 108.715 157.514 108.463 157.299 108.146C157.084 107.829 156.977 107.465 156.977 107.054C156.977 106.662 157.061 106.307 157.229 105.99C157.397 105.663 157.658 105.388 158.013 105.164C158.368 104.94 158.82 104.781 159.371 104.688L162.311 104.198V105.15L159.623 105.598C159.082 105.691 158.69 105.864 158.447 106.116C158.214 106.368 158.097 106.667 158.097 107.012C158.097 107.348 158.228 107.633 158.489 107.866C158.76 108.099 159.105 108.216 159.525 108.216C160.038 108.216 160.486 108.109 160.869 107.894C161.252 107.67 161.55 107.371 161.765 106.998C161.98 106.625 162.087 106.209 162.087 105.752V103.848C162.087 103.4 161.924 103.036 161.597 102.756C161.27 102.476 160.846 102.336 160.323 102.336C159.866 102.336 159.464 102.453 159.119 102.686C158.774 102.91 158.517 103.204 158.349 103.568L157.397 103.05C157.537 102.733 157.756 102.443 158.055 102.182C158.363 101.921 158.713 101.715 159.105 101.566C159.497 101.407 159.903 101.328 160.323 101.328C160.874 101.328 161.359 101.435 161.779 101.65C162.208 101.865 162.54 102.163 162.773 102.546C163.016 102.919 163.137 103.353 163.137 103.848V109H162.087V107.502L162.241 107.656C162.11 107.936 161.905 108.193 161.625 108.426C161.354 108.65 161.032 108.832 160.659 108.972C160.295 109.103 159.894 109.168 159.455 109.168ZM168.685 109.168C167.985 109.168 167.355 109 166.795 108.664C166.235 108.319 165.791 107.852 165.465 107.264C165.147 106.667 164.989 105.995 164.989 105.248C164.989 104.492 165.147 103.82 165.465 103.232C165.791 102.644 166.23 102.182 166.781 101.846C167.341 101.501 167.975 101.328 168.685 101.328C169.329 101.328 169.903 101.468 170.407 101.748C170.911 102.028 171.307 102.406 171.597 102.882L171.429 103.176V98.402H172.479V109H171.429V107.32L171.597 107.474C171.335 108.015 170.943 108.435 170.421 108.734C169.907 109.023 169.329 109.168 168.685 109.168ZM168.741 108.118C169.245 108.118 169.697 107.992 170.099 107.74C170.509 107.488 170.831 107.147 171.065 106.718C171.307 106.279 171.429 105.789 171.429 105.248C171.429 104.707 171.307 104.221 171.065 103.792C170.831 103.353 170.509 103.008 170.099 102.756C169.697 102.504 169.245 102.378 168.741 102.378C168.246 102.378 167.798 102.504 167.397 102.756C166.995 103.008 166.678 103.349 166.445 103.778C166.221 104.207 166.109 104.697 166.109 105.248C166.109 105.789 166.221 106.279 166.445 106.718C166.678 107.147 166.991 107.488 167.383 107.74C167.784 107.992 168.237 108.118 168.741 108.118ZM174.789 112.08C174.639 112.08 174.485 112.066 174.327 112.038C174.177 112.019 174.028 111.982 173.879 111.926V110.946C173.972 110.955 174.089 110.969 174.229 110.988C174.378 111.016 174.527 111.03 174.677 111.03C175.134 111.03 175.484 110.932 175.727 110.736C175.969 110.549 176.207 110.185 176.441 109.644L176.917 108.524L176.889 109.448L173.711 101.496H174.845L177.449 108.062H177.155L179.745 101.496H180.907L177.477 109.952C177.327 110.316 177.136 110.661 176.903 110.988C176.679 111.315 176.394 111.576 176.049 111.772C175.703 111.977 175.283 112.08 174.789 112.08ZM187.389 109.084C186.717 109.084 186.199 108.888 185.835 108.496C185.471 108.104 185.289 107.544 185.289 106.816V102.546H183.903V101.496H184.253C184.571 101.496 184.823 101.393 185.009 101.188C185.196 100.973 185.289 100.707 185.289 100.39V99.76H186.339V101.496H187.991V102.546H186.339V106.816C186.339 107.068 186.377 107.292 186.451 107.488C186.526 107.675 186.652 107.824 186.829 107.936C187.016 108.048 187.263 108.104 187.571 108.104C187.646 108.104 187.735 108.099 187.837 108.09C187.94 108.081 188.029 108.071 188.103 108.062V109C187.991 109.028 187.865 109.047 187.725 109.056C187.585 109.075 187.473 109.084 187.389 109.084ZM193.188 109.168C192.478 109.168 191.834 109 191.256 108.664C190.677 108.319 190.215 107.852 189.87 107.264C189.534 106.667 189.366 105.99 189.366 105.234C189.366 104.487 189.534 103.82 189.87 103.232C190.206 102.644 190.658 102.182 191.228 101.846C191.806 101.501 192.46 101.328 193.188 101.328C193.916 101.328 194.564 101.496 195.134 101.832C195.712 102.168 196.165 102.63 196.492 103.218C196.828 103.806 196.996 104.478 196.996 105.234C196.996 105.999 196.823 106.681 196.478 107.278C196.132 107.866 195.67 108.328 195.092 108.664C194.522 109 193.888 109.168 193.188 109.168ZM193.188 108.118C193.692 108.118 194.144 107.992 194.546 107.74C194.956 107.488 195.278 107.143 195.512 106.704C195.754 106.265 195.876 105.775 195.876 105.234C195.876 104.693 195.754 104.207 195.512 103.778C195.278 103.349 194.956 103.008 194.546 102.756C194.144 102.504 193.692 102.378 193.188 102.378C192.684 102.378 192.226 102.504 191.816 102.756C191.414 103.008 191.092 103.349 190.85 103.778C190.607 104.207 190.486 104.693 190.486 105.234C190.486 105.775 190.607 106.265 190.85 106.704C191.092 107.143 191.414 107.488 191.816 107.74C192.226 107.992 192.684 108.118 193.188 108.118ZM205.02 109.168C204.376 109.168 203.793 109.023 203.27 108.734C202.757 108.435 202.37 108.015 202.108 107.474L202.276 107.32V109H201.226V98.402H202.276V103.176L202.108 102.882C202.407 102.406 202.804 102.028 203.298 101.748C203.802 101.468 204.376 101.328 205.02 101.328C205.73 101.328 206.36 101.501 206.91 101.846C207.47 102.182 207.909 102.644 208.226 103.232C208.553 103.82 208.716 104.492 208.716 105.248C208.716 105.995 208.553 106.667 208.226 107.264C207.909 107.852 207.47 108.319 206.91 108.664C206.36 109 205.73 109.168 205.02 109.168ZM204.964 108.118C205.468 108.118 205.916 107.992 206.308 107.74C206.71 107.488 207.022 107.147 207.246 106.718C207.48 106.279 207.596 105.789 207.596 105.248C207.596 104.697 207.48 104.207 207.246 103.778C207.022 103.349 206.71 103.008 206.308 102.756C205.916 102.504 205.468 102.378 204.964 102.378C204.46 102.378 204.003 102.504 203.592 102.756C203.191 103.008 202.869 103.353 202.626 103.792C202.393 104.221 202.276 104.707 202.276 105.248C202.276 105.789 202.393 106.279 202.626 106.718C202.869 107.147 203.191 107.488 203.592 107.74C204.003 107.992 204.46 108.118 204.964 108.118ZM213.98 109.168C213.28 109.168 212.646 109 212.076 108.664C211.516 108.319 211.073 107.847 210.746 107.25C210.42 106.653 210.256 105.976 210.256 105.22C210.256 104.464 210.415 103.797 210.732 103.218C211.05 102.63 211.479 102.168 212.02 101.832C212.571 101.496 213.187 101.328 213.868 101.328C214.41 101.328 214.89 101.431 215.31 101.636C215.74 101.832 216.104 102.103 216.402 102.448C216.701 102.784 216.93 103.167 217.088 103.596C217.247 104.016 217.326 104.45 217.326 104.898C217.326 104.991 217.322 105.099 217.312 105.22C217.303 105.332 217.289 105.449 217.27 105.57H210.928V104.59H216.668L216.164 105.01C216.248 104.497 216.188 104.039 215.982 103.638C215.786 103.227 215.502 102.905 215.128 102.672C214.755 102.429 214.335 102.308 213.868 102.308C213.402 102.308 212.968 102.429 212.566 102.672C212.174 102.915 211.866 103.255 211.642 103.694C211.418 104.123 211.33 104.637 211.376 105.234C211.33 105.831 211.423 106.354 211.656 106.802C211.899 107.241 212.226 107.581 212.636 107.824C213.056 108.067 213.504 108.188 213.98 108.188C214.531 108.188 214.993 108.057 215.366 107.796C215.74 107.535 216.043 107.208 216.276 106.816L217.172 107.292C217.023 107.628 216.794 107.941 216.486 108.23C216.178 108.51 215.81 108.739 215.38 108.916C214.96 109.084 214.494 109.168 213.98 109.168ZM225.071 109.168C224.361 109.168 223.717 109 223.139 108.664C222.56 108.319 222.098 107.852 221.753 107.264C221.417 106.667 221.249 105.99 221.249 105.234C221.249 104.487 221.417 103.82 221.753 103.232C222.089 102.644 222.541 102.182 223.111 101.846C223.689 101.501 224.343 101.328 225.071 101.328C225.799 101.328 226.447 101.496 227.017 101.832C227.595 102.168 228.048 102.63 228.375 103.218C228.711 103.806 228.879 104.478 228.879 105.234C228.879 105.999 228.706 106.681 228.361 107.278C228.015 107.866 227.553 108.328 226.975 108.664C226.405 109 225.771 109.168 225.071 109.168ZM225.071 108.118C225.575 108.118 226.027 107.992 226.429 107.74C226.839 107.488 227.161 107.143 227.395 106.704C227.637 106.265 227.759 105.775 227.759 105.234C227.759 104.693 227.637 104.207 227.395 103.778C227.161 103.349 226.839 103.008 226.429 102.756C226.027 102.504 225.575 102.378 225.071 102.378C224.567 102.378 224.109 102.504 223.699 102.756C223.297 103.008 222.975 103.349 222.733 103.778C222.49 104.207 222.369 104.693 222.369 105.234C222.369 105.775 222.49 106.265 222.733 106.704C222.975 107.143 223.297 107.488 223.699 107.74C224.109 107.992 224.567 108.118 225.071 108.118ZM230.73 109V101.496H231.78V102.728L231.64 102.546C231.818 102.191 232.084 101.911 232.438 101.706C232.802 101.501 233.241 101.398 233.754 101.398H234.23V102.448H233.572C233.031 102.448 232.597 102.616 232.27 102.952C231.944 103.288 231.78 103.764 231.78 104.38V109H230.73ZM238.849 109.168C238.149 109.168 237.519 109 236.959 108.664C236.399 108.319 235.955 107.852 235.629 107.264C235.311 106.667 235.153 105.995 235.153 105.248C235.153 104.492 235.311 103.82 235.629 103.232C235.955 102.644 236.394 102.182 236.945 101.846C237.505 101.501 238.139 101.328 238.849 101.328C239.493 101.328 240.067 101.468 240.571 101.748C241.075 102.028 241.471 102.406 241.761 102.882L241.593 103.176V98.402H242.643V109H241.593V107.32L241.761 107.474C241.499 108.015 241.107 108.435 240.585 108.734C240.071 109.023 239.493 109.168 238.849 109.168ZM238.905 108.118C239.409 108.118 239.861 107.992 240.263 107.74C240.673 107.488 240.995 107.147 241.229 106.718C241.471 106.279 241.593 105.789 241.593 105.248C241.593 104.707 241.471 104.221 241.229 103.792C240.995 103.353 240.673 103.008 240.263 102.756C239.861 102.504 239.409 102.378 238.905 102.378C238.41 102.378 237.962 102.504 237.561 102.756C237.159 103.008 236.842 103.349 236.609 103.778C236.385 104.207 236.273 104.697 236.273 105.248C236.273 105.789 236.385 106.279 236.609 106.718C236.842 107.147 237.155 107.488 237.547 107.74C237.948 107.992 238.401 108.118 238.905 108.118ZM248.215 109.168C247.515 109.168 246.88 109 246.311 108.664C245.751 108.319 245.307 107.847 244.981 107.25C244.654 106.653 244.491 105.976 244.491 105.22C244.491 104.464 244.649 103.797 244.967 103.218C245.284 102.63 245.713 102.168 246.255 101.832C246.805 101.496 247.421 101.328 248.103 101.328C248.644 101.328 249.125 101.431 249.545 101.636C249.974 101.832 250.338 102.103 250.637 102.448C250.935 102.784 251.164 103.167 251.323 103.596C251.481 104.016 251.561 104.45 251.561 104.898C251.561 104.991 251.556 105.099 251.547 105.22C251.537 105.332 251.523 105.449 251.505 105.57H245.163V104.59H250.903L250.399 105.01C250.483 104.497 250.422 104.039 250.217 103.638C250.021 103.227 249.736 102.905 249.363 102.672C248.989 102.429 248.569 102.308 248.103 102.308C247.636 102.308 247.202 102.429 246.801 102.672C246.409 102.915 246.101 103.255 245.877 103.694C245.653 104.123 245.564 104.637 245.611 105.234C245.564 105.831 245.657 106.354 245.891 106.802C246.133 107.241 246.46 107.581 246.871 107.824C247.291 108.067 247.739 108.188 248.215 108.188C248.765 108.188 249.227 108.057 249.601 107.796C249.974 107.535 250.277 107.208 250.511 106.816L251.407 107.292C251.257 107.628 251.029 107.941 250.721 108.23C250.413 108.51 250.044 108.739 249.615 108.916C249.195 109.084 248.728 109.168 248.215 109.168ZM253.412 109V101.496H254.462V102.728L254.322 102.546C254.499 102.191 254.765 101.911 255.12 101.706C255.484 101.501 255.923 101.398 256.436 101.398H256.912V102.448H256.254C255.713 102.448 255.279 102.616 254.952 102.952C254.625 103.288 254.462 103.764 254.462 104.38V109H253.412ZM261.558 109.168C260.858 109.168 260.224 109 259.654 108.664C259.094 108.319 258.651 107.847 258.324 107.25C257.998 106.653 257.834 105.976 257.834 105.22C257.834 104.464 257.993 103.797 258.31 103.218C258.628 102.63 259.057 102.168 259.598 101.832C260.149 101.496 260.765 101.328 261.446 101.328C261.988 101.328 262.468 101.431 262.888 101.636C263.318 101.832 263.682 102.103 263.98 102.448C264.279 102.784 264.508 103.167 264.666 103.596C264.825 104.016 264.904 104.45 264.904 104.898C264.904 104.991 264.9 105.099 264.89 105.22C264.881 105.332 264.867 105.449 264.848 105.57H258.506V104.59H264.246L263.742 105.01C263.826 104.497 263.766 104.039 263.56 103.638C263.364 103.227 263.08 102.905 262.706 102.672C262.333 102.429 261.913 102.308 261.446 102.308C260.98 102.308 260.546 102.429 260.144 102.672C259.752 102.915 259.444 103.255 259.22 103.694C258.996 104.123 258.908 104.637 258.954 105.234C258.908 105.831 259.001 106.354 259.234 106.802C259.477 107.241 259.804 107.581 260.214 107.824C260.634 108.067 261.082 108.188 261.558 108.188C262.109 108.188 262.571 108.057 262.944 107.796C263.318 107.535 263.621 107.208 263.854 106.816L264.75 107.292C264.601 107.628 264.372 107.941 264.064 108.23C263.756 108.51 263.388 108.739 262.958 108.916C262.538 109.084 262.072 109.168 261.558 109.168ZM270.144 109.168C269.444 109.168 268.814 109 268.254 108.664C267.694 108.319 267.25 107.852 266.924 107.264C266.606 106.667 266.448 105.995 266.448 105.248C266.448 104.492 266.606 103.82 266.924 103.232C267.25 102.644 267.689 102.182 268.24 101.846C268.8 101.501 269.434 101.328 270.144 101.328C270.788 101.328 271.362 101.468 271.866 101.748C272.37 102.028 272.766 102.406 273.056 102.882L272.888 103.176V98.402H273.938V109H272.888V107.32L273.056 107.474C272.794 108.015 272.402 108.435 271.88 108.734C271.366 109.023 270.788 109.168 270.144 109.168ZM270.2 108.118C270.704 108.118 271.156 107.992 271.558 107.74C271.968 107.488 272.29 107.147 272.524 106.718C272.766 106.279 272.888 105.789 272.888 105.248C272.888 104.707 272.766 104.221 272.524 103.792C272.29 103.353 271.968 103.008 271.558 102.756C271.156 102.504 270.704 102.378 270.2 102.378C269.705 102.378 269.257 102.504 268.856 102.756C268.454 103.008 268.137 103.349 267.904 103.778C267.68 104.207 267.568 104.697 267.568 105.248C267.568 105.789 267.68 106.279 267.904 106.718C268.137 107.147 268.45 107.488 268.842 107.74C269.243 107.992 269.696 108.118 270.2 108.118ZM280.643 109.168C280.167 109.168 279.742 109.079 279.369 108.902C278.995 108.715 278.701 108.463 278.487 108.146C278.272 107.829 278.165 107.465 278.165 107.054C278.165 106.662 278.249 106.307 278.417 105.99C278.585 105.663 278.846 105.388 279.201 105.164C279.555 104.94 280.008 104.781 280.559 104.688L283.499 104.198V105.15L280.811 105.598C280.269 105.691 279.877 105.864 279.635 106.116C279.401 106.368 279.285 106.667 279.285 107.012C279.285 107.348 279.415 107.633 279.677 107.866C279.947 108.099 280.293 108.216 280.713 108.216C281.226 108.216 281.674 108.109 282.057 107.894C282.439 107.67 282.738 107.371 282.953 106.998C283.167 106.625 283.275 106.209 283.275 105.752V103.848C283.275 103.4 283.111 103.036 282.785 102.756C282.458 102.476 282.033 102.336 281.511 102.336C281.053 102.336 280.652 102.453 280.307 102.686C279.961 102.91 279.705 103.204 279.537 103.568L278.585 103.05C278.725 102.733 278.944 102.443 279.243 102.182C279.551 101.921 279.901 101.715 280.293 101.566C280.685 101.407 281.091 101.328 281.511 101.328C282.061 101.328 282.547 101.435 282.967 101.65C283.396 101.865 283.727 102.163 283.961 102.546C284.203 102.919 284.325 103.353 284.325 103.848V109H283.275V107.502L283.429 107.656C283.298 107.936 283.093 108.193 282.813 108.426C282.542 108.65 282.22 108.832 281.847 108.972C281.483 109.103 281.081 109.168 280.643 109.168ZM286.484 109V101.496H287.534V102.952L287.296 102.896C287.483 102.411 287.786 102.028 288.206 101.748C288.636 101.468 289.13 101.328 289.69 101.328C290.222 101.328 290.698 101.449 291.118 101.692C291.548 101.935 291.884 102.271 292.126 102.7C292.378 103.12 292.504 103.596 292.504 104.128V109H291.454V104.534C291.454 104.077 291.37 103.689 291.202 103.372C291.044 103.055 290.815 102.812 290.516 102.644C290.227 102.467 289.891 102.378 289.508 102.378C289.126 102.378 288.785 102.467 288.486 102.644C288.188 102.812 287.954 103.059 287.786 103.386C287.618 103.703 287.534 104.086 287.534 104.534V109H286.484ZM297.898 109.168C297.198 109.168 296.568 109 296.008 108.664C295.448 108.319 295.004 107.852 294.678 107.264C294.36 106.667 294.202 105.995 294.202 105.248C294.202 104.492 294.36 103.82 294.678 103.232C295.004 102.644 295.443 102.182 295.994 101.846C296.554 101.501 297.188 101.328 297.898 101.328C298.542 101.328 299.116 101.468 299.62 101.748C300.124 102.028 300.52 102.406 300.81 102.882L300.642 103.176V98.402H301.692V109H300.642V107.32L300.81 107.474C300.548 108.015 300.156 108.435 299.634 108.734C299.12 109.023 298.542 109.168 297.898 109.168ZM297.954 108.118C298.458 108.118 298.91 107.992 299.312 107.74C299.722 107.488 300.044 107.147 300.278 106.718C300.52 106.279 300.642 105.789 300.642 105.248C300.642 104.707 300.52 104.221 300.278 103.792C300.044 103.353 299.722 103.008 299.312 102.756C298.91 102.504 298.458 102.378 297.954 102.378C297.459 102.378 297.011 102.504 296.61 102.756C296.208 103.008 295.891 103.349 295.658 103.778C295.434 104.207 295.322 104.697 295.322 105.248C295.322 105.789 295.434 106.279 295.658 106.718C295.891 107.147 296.204 107.488 296.596 107.74C296.997 107.992 297.45 108.118 297.954 108.118ZM307.878 109L305.302 101.496H306.492L308.62 108.062H308.2L310.202 101.496H311.252L313.254 108.062H312.834L314.976 101.496H316.152L313.576 109H312.526L310.58 102.574H310.874L308.928 109H307.878ZM317.383 109V101.496H318.433V109H317.383ZM317.383 100.11V98.57H318.433V100.11H317.383ZM320.582 109V98.402H321.632V109H320.582ZM323.781 109V98.402H324.831V109H323.781ZM333.153 109.168C332.509 109.168 331.926 109.023 331.403 108.734C330.89 108.435 330.503 108.015 330.241 107.474L330.409 107.32V109H329.359V98.402H330.409V103.176L330.241 102.882C330.54 102.406 330.937 102.028 331.431 101.748C331.935 101.468 332.509 101.328 333.153 101.328C333.863 101.328 334.493 101.501 335.043 101.846C335.603 102.182 336.042 102.644 336.359 103.232C336.686 103.82 336.849 104.492 336.849 105.248C336.849 105.995 336.686 106.667 336.359 107.264C336.042 107.852 335.603 108.319 335.043 108.664C334.493 109 333.863 109.168 333.153 109.168ZM333.097 108.118C333.601 108.118 334.049 107.992 334.441 107.74C334.843 107.488 335.155 107.147 335.379 106.718C335.613 106.279 335.729 105.789 335.729 105.248C335.729 104.697 335.613 104.207 335.379 103.778C335.155 103.349 334.843 103.008 334.441 102.756C334.049 102.504 333.601 102.378 333.097 102.378C332.593 102.378 332.136 102.504 331.725 102.756C331.324 103.008 331.002 103.353 330.759 103.792C330.526 104.221 330.409 104.707 330.409 105.248C330.409 105.789 330.526 106.279 330.759 106.718C331.002 107.147 331.324 107.488 331.725 107.74C332.136 107.992 332.593 108.118 333.097 108.118ZM342.113 109.168C341.413 109.168 340.778 109 340.209 108.664C339.649 108.319 339.206 107.847 338.879 107.25C338.552 106.653 338.389 105.976 338.389 105.22C338.389 104.464 338.548 103.797 338.865 103.218C339.182 102.63 339.612 102.168 340.153 101.832C340.704 101.496 341.32 101.328 342.001 101.328C342.542 101.328 343.023 101.431 343.443 101.636C343.872 101.832 344.236 102.103 344.535 102.448C344.834 102.784 345.062 103.167 345.221 103.596C345.38 104.016 345.459 104.45 345.459 104.898C345.459 104.991 345.454 105.099 345.445 105.22C345.436 105.332 345.422 105.449 345.403 105.57H339.061V104.59H344.801L344.297 105.01C344.381 104.497 344.32 104.039 344.115 103.638C343.919 103.227 343.634 102.905 343.261 102.672C342.888 102.429 342.468 102.308 342.001 102.308C341.534 102.308 341.1 102.429 340.699 102.672C340.307 102.915 339.999 103.255 339.775 103.694C339.551 104.123 339.462 104.637 339.509 105.234C339.462 105.831 339.556 106.354 339.789 106.802C340.032 107.241 340.358 107.581 340.769 107.824C341.189 108.067 341.637 108.188 342.113 108.188C342.664 108.188 343.126 108.057 343.499 107.796C343.872 107.535 344.176 107.208 344.409 106.816L345.305 107.292C345.156 107.628 344.927 107.941 344.619 108.23C344.311 108.51 343.942 108.739 343.513 108.916C343.093 109.084 342.626 109.168 342.113 109.168ZM351.341 109L348.765 101.496H349.955L352.083 108.062H351.663L353.665 101.496H354.715L356.717 108.062H356.297L358.439 101.496H359.615L357.039 109H355.989L354.043 102.574H354.337L352.391 109H351.341ZM360.846 109V101.496H361.896V109H360.846ZM360.846 100.11V98.57H361.896V100.11H360.846ZM366.915 109.084C366.243 109.084 365.725 108.888 365.361 108.496C364.997 108.104 364.815 107.544 364.815 106.816V102.546H363.429V101.496H363.779C364.096 101.496 364.348 101.393 364.535 101.188C364.721 100.973 364.815 100.707 364.815 100.39V99.76H365.865V101.496H367.517V102.546H365.865V106.816C365.865 107.068 365.902 107.292 365.977 107.488C366.051 107.675 366.177 107.824 366.355 107.936C366.541 108.048 366.789 108.104 367.097 108.104C367.171 108.104 367.26 108.099 367.363 108.09C367.465 108.081 367.554 108.071 367.629 108.062V109C367.517 109.028 367.391 109.047 367.251 109.056C367.111 109.075 366.999 109.084 366.915 109.084ZM369.473 109V98.402H370.523V102.952L370.285 102.896C370.471 102.411 370.775 102.028 371.195 101.748C371.624 101.468 372.119 101.328 372.679 101.328C373.211 101.328 373.687 101.449 374.107 101.692C374.536 101.935 374.872 102.271 375.115 102.7C375.367 103.12 375.493 103.596 375.493 104.128V109H374.443V104.534C374.443 104.077 374.359 103.689 374.191 103.372C374.023 103.055 373.789 102.812 373.491 102.644C373.201 102.467 372.87 102.378 372.497 102.378C372.123 102.378 371.787 102.467 371.489 102.644C371.19 102.812 370.952 103.059 370.775 103.386C370.607 103.703 370.523 104.086 370.523 104.534V109H369.473ZM144.232 132.08C144.083 132.08 143.929 132.066 143.77 132.038C143.621 132.019 143.471 131.982 143.322 131.926V130.946C143.415 130.955 143.532 130.969 143.672 130.988C143.821 131.016 143.971 131.03 144.12 131.03C144.577 131.03 144.927 130.932 145.17 130.736C145.413 130.549 145.651 130.185 145.884 129.644L146.36 128.524L146.332 129.448L143.154 121.496H144.288L146.892 128.062H146.598L149.188 121.496H150.35L146.92 129.952C146.771 130.316 146.579 130.661 146.346 130.988C146.122 131.315 145.837 131.576 145.492 131.772C145.147 131.977 144.727 132.08 144.232 132.08ZM154.961 129.168C154.252 129.168 153.608 129 153.029 128.664C152.45 128.319 151.988 127.852 151.643 127.264C151.307 126.667 151.139 125.99 151.139 125.234C151.139 124.487 151.307 123.82 151.643 123.232C151.979 122.644 152.432 122.182 153.001 121.846C153.58 121.501 154.233 121.328 154.961 121.328C155.689 121.328 156.338 121.496 156.907 121.832C157.486 122.168 157.938 122.63 158.265 123.218C158.601 123.806 158.769 124.478 158.769 125.234C158.769 125.999 158.596 126.681 158.251 127.278C157.906 127.866 157.444 128.328 156.865 128.664C156.296 129 155.661 129.168 154.961 129.168ZM154.961 128.118C155.465 128.118 155.918 127.992 156.319 127.74C156.73 127.488 157.052 127.143 157.285 126.704C157.528 126.265 157.649 125.775 157.649 125.234C157.649 124.693 157.528 124.207 157.285 123.778C157.052 123.349 156.73 123.008 156.319 122.756C155.918 122.504 155.465 122.378 154.961 122.378C154.457 122.378 154 122.504 153.589 122.756C153.188 123.008 152.866 123.349 152.623 123.778C152.38 124.207 152.259 124.693 152.259 125.234C152.259 125.775 152.38 126.265 152.623 126.704C152.866 127.143 153.188 127.488 153.589 127.74C154 127.992 154.457 128.118 154.961 128.118ZM163.281 129.168C162.758 129.168 162.282 129.047 161.853 128.804C161.424 128.552 161.083 128.207 160.831 127.768C160.588 127.32 160.467 126.807 160.467 126.228V121.496H161.517V126.102C161.517 126.503 161.596 126.858 161.755 127.166C161.923 127.465 162.152 127.698 162.441 127.866C162.74 128.034 163.08 128.118 163.463 128.118C163.846 128.118 164.186 128.034 164.485 127.866C164.784 127.689 165.017 127.441 165.185 127.124C165.353 126.797 165.437 126.41 165.437 125.962V121.496H166.487V129H165.437V127.544L165.675 127.6C165.498 128.085 165.194 128.468 164.765 128.748C164.336 129.028 163.841 129.168 163.281 129.168ZM171.025 129V121.496H172.075V129H171.025ZM171.025 120.11V118.57H172.075V120.11H171.025ZM174.224 129V121.496H175.274V122.952L175.036 122.896C175.223 122.411 175.526 122.028 175.946 121.748C176.376 121.468 176.87 121.328 177.43 121.328C177.962 121.328 178.438 121.449 178.858 121.692C179.288 121.935 179.624 122.271 179.866 122.7C180.118 123.12 180.244 123.596 180.244 124.128V129H179.194V124.534C179.194 124.077 179.11 123.689 178.942 123.372C178.784 123.055 178.555 122.812 178.256 122.644C177.967 122.467 177.631 122.378 177.248 122.378C176.866 122.378 176.525 122.467 176.226 122.644C175.928 122.812 175.694 123.059 175.526 123.386C175.358 123.703 175.274 124.086 175.274 124.534V129H174.224ZM184.363 129V128.3L187.275 125.094C187.844 124.469 188.306 123.951 188.661 123.54C189.025 123.129 189.295 122.756 189.473 122.42C189.65 122.084 189.739 121.72 189.739 121.328C189.739 120.703 189.557 120.222 189.193 119.886C188.829 119.55 188.343 119.382 187.737 119.382C187.111 119.382 186.584 119.559 186.155 119.914C185.735 120.269 185.45 120.763 185.301 121.398L184.279 121.174C184.4 120.605 184.619 120.115 184.937 119.704C185.254 119.293 185.651 118.976 186.127 118.752C186.603 118.519 187.135 118.402 187.723 118.402C188.348 118.402 188.894 118.528 189.361 118.78C189.827 119.032 190.191 119.377 190.453 119.816C190.723 120.255 190.859 120.759 190.859 121.328C190.859 121.72 190.775 122.098 190.607 122.462C190.448 122.826 190.205 123.218 189.879 123.638C189.552 124.058 189.132 124.548 188.619 125.108L185.973 128.02H191.139V129H184.363ZM192.981 125.738V124.758H198.861V125.738H192.981ZM204.018 129.168C203.477 129.168 202.978 129.075 202.52 128.888C202.063 128.701 201.662 128.435 201.316 128.09C200.98 127.745 200.724 127.334 200.546 126.858L201.442 126.438C201.657 126.979 201.993 127.409 202.45 127.726C202.908 128.034 203.43 128.188 204.018 128.188C204.485 128.188 204.9 128.099 205.264 127.922C205.628 127.735 205.913 127.469 206.118 127.124C206.324 126.779 206.426 126.359 206.426 125.864C206.426 125.369 206.319 124.949 206.104 124.604C205.899 124.259 205.614 123.997 205.25 123.82C204.886 123.643 204.471 123.554 204.004 123.554C203.883 123.554 203.748 123.559 203.598 123.568C203.458 123.577 203.342 123.591 203.248 123.61L203.024 123.12L205.838 119.55H201.036V118.57H207.098V119.55L204.466 122.868L204.326 122.686C204.952 122.705 205.507 122.854 205.992 123.134C206.478 123.405 206.856 123.773 207.126 124.24C207.406 124.707 207.546 125.248 207.546 125.864C207.546 126.48 207.397 127.04 207.098 127.544C206.8 128.039 206.384 128.435 205.852 128.734C205.32 129.023 204.709 129.168 204.018 129.168ZM213.543 129L210.967 121.496H212.157L214.285 128.062H213.865L215.867 121.496H216.917L218.919 128.062H218.499L220.641 121.496H221.817L219.241 129H218.191L216.245 122.574H216.539L214.593 129H213.543ZM226.326 129.168C225.626 129.168 224.991 129 224.422 128.664C223.862 128.319 223.419 127.847 223.092 127.25C222.765 126.653 222.602 125.976 222.602 125.22C222.602 124.464 222.761 123.797 223.078 123.218C223.395 122.63 223.825 122.168 224.366 121.832C224.917 121.496 225.533 121.328 226.214 121.328C226.755 121.328 227.236 121.431 227.656 121.636C228.085 121.832 228.449 122.103 228.748 122.448C229.047 122.784 229.275 123.167 229.434 123.596C229.593 124.016 229.672 124.45 229.672 124.898C229.672 124.991 229.667 125.099 229.658 125.22C229.649 125.332 229.635 125.449 229.616 125.57H223.274V124.59H229.014L228.51 125.01C228.594 124.497 228.533 124.039 228.328 123.638C228.132 123.227 227.847 122.905 227.474 122.672C227.101 122.429 226.681 122.308 226.214 122.308C225.747 122.308 225.313 122.429 224.912 122.672C224.52 122.915 224.212 123.255 223.988 123.694C223.764 124.123 223.675 124.637 223.722 125.234C223.675 125.831 223.769 126.354 224.002 126.802C224.245 127.241 224.571 127.581 224.982 127.824C225.402 128.067 225.85 128.188 226.326 128.188C226.877 128.188 227.339 128.057 227.712 127.796C228.085 127.535 228.389 127.208 228.622 126.816L229.518 127.292C229.369 127.628 229.14 127.941 228.832 128.23C228.524 128.51 228.155 128.739 227.726 128.916C227.306 129.084 226.839 129.168 226.326 129.168ZM234.939 129.168C234.239 129.168 233.605 129 233.035 128.664C232.475 128.319 232.032 127.847 231.705 127.25C231.379 126.653 231.215 125.976 231.215 125.22C231.215 124.464 231.374 123.797 231.691 123.218C232.009 122.63 232.438 122.168 232.979 121.832C233.53 121.496 234.146 121.328 234.827 121.328C235.369 121.328 235.849 121.431 236.269 121.636C236.699 121.832 237.063 122.103 237.361 122.448C237.66 122.784 237.889 123.167 238.047 123.596C238.206 124.016 238.285 124.45 238.285 124.898C238.285 124.991 238.281 125.099 238.271 125.22C238.262 125.332 238.248 125.449 238.229 125.57H231.887V124.59H237.627L237.123 125.01C237.207 124.497 237.147 124.039 236.941 123.638C236.745 123.227 236.461 122.905 236.087 122.672C235.714 122.429 235.294 122.308 234.827 122.308C234.361 122.308 233.927 122.429 233.525 122.672C233.133 122.915 232.825 123.255 232.601 123.694C232.377 124.123 232.289 124.637 232.335 125.234C232.289 125.831 232.382 126.354 232.615 126.802C232.858 127.241 233.185 127.581 233.595 127.824C234.015 128.067 234.463 128.188 234.939 128.188C235.49 128.188 235.952 128.057 236.325 127.796C236.699 127.535 237.002 127.208 237.235 126.816L238.131 127.292C237.982 127.628 237.753 127.941 237.445 128.23C237.137 128.51 236.769 128.739 236.339 128.916C235.919 129.084 235.453 129.168 234.939 129.168ZM240.137 129V118.402H241.187V125.822L240.739 125.752L244.953 121.496H246.311L243.371 124.506L246.577 129H245.317L242.307 124.842L242.979 124.898L240.837 127.11L241.187 126.242V129H240.137ZM250.411 129.168C249.692 129.168 249.062 128.986 248.521 128.622C247.979 128.258 247.587 127.763 247.345 127.138L248.227 126.718C248.441 127.175 248.74 127.539 249.123 127.81C249.515 128.081 249.944 128.216 250.411 128.216C250.859 128.216 251.237 128.109 251.545 127.894C251.853 127.67 252.007 127.381 252.007 127.026C252.007 126.765 251.932 126.559 251.783 126.41C251.633 126.251 251.461 126.13 251.265 126.046C251.069 125.962 250.896 125.901 250.747 125.864L249.669 125.556C248.978 125.36 248.479 125.085 248.171 124.73C247.863 124.375 247.709 123.965 247.709 123.498C247.709 123.059 247.821 122.677 248.045 122.35C248.269 122.023 248.572 121.771 248.955 121.594C249.337 121.417 249.762 121.328 250.229 121.328C250.863 121.328 251.437 121.496 251.951 121.832C252.473 122.159 252.842 122.616 253.057 123.204L252.161 123.624C251.974 123.204 251.703 122.877 251.349 122.644C251.003 122.401 250.616 122.28 250.187 122.28C249.767 122.28 249.431 122.387 249.179 122.602C248.927 122.817 248.801 123.087 248.801 123.414C248.801 123.666 248.866 123.867 248.997 124.016C249.127 124.165 249.277 124.277 249.445 124.352C249.622 124.427 249.776 124.483 249.907 124.52L251.153 124.884C251.759 125.061 252.231 125.337 252.567 125.71C252.912 126.083 253.085 126.522 253.085 127.026C253.085 127.437 252.968 127.805 252.735 128.132C252.511 128.459 252.198 128.715 251.797 128.902C251.395 129.079 250.933 129.168 250.411 129.168ZM255.294 129V127.46H256.414V129H255.294Z" fill="#1D1F1E"/>
</svg>
