<svg width="53" height="22" viewBox="0 0 53 22" fill="none" xmlns="http://www.w3.org/2000/svg">
<path d="M25.1814 0H25.3569V22H25.1814V0ZM12.9508 16.9937V5.75118H11.3364L11.6347 5.11024H13.6176V16.9937H12.9508ZM14.5476 16.9937L18.9169 12.3512C19.8996 11.2772 20.5489 10.5323 20.8647 9.99528C21.1806 9.44095 21.3561 8.86929 21.3561 8.26299C21.3561 7.48347 21.0578 6.80787 20.4611 6.23622C19.8821 5.68189 19.1626 5.40472 18.3203 5.40472C17.4254 5.40472 16.6884 5.69921 16.0918 6.28819C15.5653 6.8252 15.2495 7.51811 15.1267 8.43622H14.4949C14.5651 7.39685 14.9336 6.58268 15.618 5.88976C16.355 5.14488 17.2499 4.79843 18.3554 4.79843C19.4434 4.79843 20.2857 5.12756 20.9525 5.82047C21.6193 6.51339 21.9527 7.31024 21.9527 8.22835C21.9527 8.88661 21.7948 9.51024 21.4789 10.0819C21.1455 10.6709 20.4962 11.5024 19.5311 12.5417L15.9338 16.3874H22.1457V16.9937H14.5476ZM2.80823 5.09291H1.93085L6.61606 15.2961L7.05475 14.3606L2.80823 5.09291ZM5.9668 5.09291H5.10697L8.19535 11.8142L8.61649 10.8614L5.9668 5.09291ZM4.38752 5.09291H3.52768L7.40571 13.5638L7.8444 12.611L4.38752 5.09291ZM0.351562 5.09291L5.79132 17.1323L6.26511 16.0929L1.2114 5.09291H0.351562ZM8.05497 5.09291H7.19513L6.94947 5.62992L7.37061 6.58268L8.05497 5.09291ZM9.63425 5.09291H8.75687L7.73911 7.36221L8.1778 8.31496L9.63425 5.09291ZM8.52875 9.12913L8.96744 10.0819L11.2135 5.09291H10.3537L8.52875 9.12913ZM29.814 7.44882H31.095C31.6214 7.44882 31.9022 7.24095 31.9022 6.70394C31.9022 6.18425 31.6214 5.95906 31.095 5.95906H29.814V7.44882ZM28.6383 5.07559H31.5161C32.4813 5.07559 33.0779 5.73386 33.0779 6.53071C33.0779 7.15433 32.8322 7.60472 32.2356 7.84724V7.86457C32.8147 8.00315 32.9726 8.5748 33.0077 9.09449C33.0252 9.42362 33.0252 10.0472 33.2358 10.3417H32.0601C31.9197 10.0126 31.9373 9.49291 31.8671 9.07717C31.7794 8.52283 31.5688 8.28032 30.9722 8.28032H29.814V10.3417H28.6383V5.07559ZM36.5172 8.02047C36.4295 7.48346 36.1838 7.22362 35.6749 7.22362C35.0081 7.22362 34.7975 7.72598 34.78 8.02047H36.5172ZM34.78 8.67874C34.8151 9.33701 35.1485 9.64882 35.7276 9.64882C36.1487 9.64882 36.4997 9.38898 36.5698 9.16378H37.4999C37.2016 10.0646 36.5698 10.4457 35.6925 10.4457C34.4817 10.4457 33.7271 9.61417 33.7271 8.43622C33.7271 7.29291 34.5168 6.42677 35.6925 6.42677C37.0085 6.42677 37.6578 7.50079 37.5701 8.67874H34.78ZM39.5529 6.53071H40.3426V7.24094H39.5529V9.12913C39.5529 9.47559 39.6407 9.56221 40.0092 9.56221C40.132 9.56221 40.2198 9.56221 40.3426 9.52756V10.3591C40.1671 10.3937 39.939 10.3937 39.7109 10.3937C39.0616 10.3937 38.4825 10.2378 38.4825 9.47559V7.24094H37.8508V6.53071H38.4825V5.3874H39.5529V6.53071ZM43.2379 8.47087C43.0625 8.62677 42.6764 8.62677 42.343 8.69606C42.0096 8.76536 41.7289 8.86929 41.7289 9.25039C41.7289 9.64882 42.0272 9.73543 42.3606 9.73543C43.1853 9.73543 43.2204 9.09449 43.2204 8.85197V8.47087H43.2379ZM40.7988 7.69134C40.8515 6.72126 41.7464 6.42677 42.6062 6.42677C43.3783 6.42677 44.3083 6.6 44.3083 7.50079V9.49291C44.3083 9.83937 44.3434 10.1858 44.4487 10.3417H43.3608C43.3257 10.2205 43.2906 10.0992 43.2906 9.97795C42.9572 10.3244 42.4483 10.463 41.9921 10.463C41.2726 10.463 40.676 10.0992 40.676 9.31968C40.676 8.45354 41.3428 8.24567 41.9921 8.15905C42.6413 8.05512 43.2555 8.08976 43.2555 7.65669C43.2555 7.22362 42.9396 7.15433 42.5711 7.15433C42.1675 7.15433 41.9219 7.32756 41.8868 7.72598H40.7988V7.69134ZM45.1682 6.53071H46.221V10.3417H45.1682V6.53071ZM46.2035 5.94173H45.1506V5.07559H46.2035V5.94173ZM47.0809 5.07559H48.1513V10.3417H47.0809V5.07559ZM28.6559 11.6929H32.0426V12.126H29.1648V14.0315H31.7267V14.4646H29.1648V16.9764H28.6559V11.6929ZM32.5865 13.1654H33.0603V16.9764H32.5865V13.1654ZM32.5865 11.6929H33.0603V12.4378H32.5865V11.6929ZM33.9553 13.1654H34.429V13.8236H34.4466C34.6045 13.3559 35.1134 13.0441 35.6749 13.0441C36.7629 13.0441 37.0963 13.6157 37.0963 14.5165V16.9764H36.6225V14.6032C36.6225 13.9449 36.4119 13.4425 35.6398 13.4425C34.8853 13.4425 34.4466 14.0142 34.429 14.7417V16.9764H33.9553V13.1654ZM40.4479 14.8803H40.4303C40.3777 15.0016 40.1671 15.0362 40.0267 15.0535C39.2195 15.1921 38.2193 15.1921 38.2193 15.937C38.2193 16.4047 38.6405 16.6819 39.0792 16.6819C39.7986 16.6819 40.4303 16.2315 40.4303 15.4866V14.8803H40.4479ZM37.9386 14.3433C37.9912 13.4425 38.6054 13.0614 39.5003 13.0614C40.1847 13.0614 40.9217 13.2693 40.9217 14.2913V16.3008C40.9217 16.474 41.0094 16.578 41.2024 16.578C41.2551 16.578 41.3077 16.5606 41.3428 16.5433V16.9417C41.2375 16.9591 41.1673 16.9764 41.0269 16.9764C40.5532 16.9764 40.483 16.7165 40.483 16.3181H40.4654C40.132 16.8032 39.7986 17.0976 39.0441 17.0976C38.3246 17.0976 37.7631 16.7512 37.7631 15.989C37.7631 14.915 38.7984 14.8803 39.8337 14.7591C40.2198 14.7071 40.4479 14.6551 40.4479 14.2567C40.4479 13.6331 39.9916 13.4598 39.4301 13.4598C38.851 13.4598 38.4123 13.7197 38.3948 14.3606H37.9386V14.3433ZM41.8517 13.1654H42.3079V13.8236H42.3255C42.5009 13.3559 43.0098 13.0441 43.5714 13.0441C44.6593 13.0441 44.9927 13.6157 44.9927 14.5165V16.9764H44.5189V14.6032C44.5189 13.9449 44.3083 13.4425 43.5363 13.4425C42.7817 13.4425 42.343 14.0142 42.3255 14.7417V16.9764H41.8692V13.1654H41.8517ZM48.59 14.3606C48.4671 13.789 48.1162 13.4425 47.502 13.4425C46.5895 13.4425 46.1508 14.2567 46.1508 15.0535C46.1508 15.8677 46.6071 16.6819 47.502 16.6819C48.0811 16.6819 48.5724 16.2315 48.6251 15.5906H49.0988C48.976 16.5087 48.3619 17.063 47.502 17.063C46.3088 17.063 45.6771 16.1449 45.6771 15.0362C45.6771 13.9449 46.3263 13.0268 47.502 13.0268C48.3268 13.0268 48.9585 13.4598 49.0638 14.3433H48.59V14.3606ZM52.5206 14.7937C52.5031 14.1008 52.0644 13.4425 51.2923 13.4425C50.5202 13.4425 50.0991 14.1181 50.0113 14.7937H52.5206ZM50.0113 15.1921C50.0113 15.885 50.3798 16.6992 51.2923 16.6992C51.9767 16.6992 52.3627 16.3008 52.5031 15.7291H52.9769C52.7838 16.5953 52.275 17.0976 51.2923 17.0976C50.064 17.0976 49.5375 16.1622 49.5375 15.0709C49.5375 14.0835 50.064 13.0614 51.2923 13.0614C52.5382 13.0614 53.0295 14.1354 52.9944 15.1921H50.0113Z" fill="#333335"/>
<path d="M25.1814 0H25.3569V22H25.1814V0ZM12.9508 16.9937V5.75118H11.3364L11.6347 5.11024H13.6176V16.9937H12.9508ZM14.5476 16.9937L18.9169 12.3512C19.8996 11.2772 20.5489 10.5323 20.8647 9.99528C21.1806 9.44095 21.3561 8.86929 21.3561 8.26299C21.3561 7.48347 21.0578 6.80787 20.4611 6.23622C19.8821 5.68189 19.1626 5.40472 18.3203 5.40472C17.4254 5.40472 16.6884 5.69921 16.0918 6.28819C15.5653 6.8252 15.2495 7.51811 15.1267 8.43622H14.4949C14.5651 7.39685 14.9336 6.58268 15.618 5.88976C16.355 5.14488 17.2499 4.79843 18.3554 4.79843C19.4434 4.79843 20.2857 5.12756 20.9525 5.82047C21.6193 6.51339 21.9527 7.31024 21.9527 8.22835C21.9527 8.88661 21.7948 9.51024 21.4789 10.0819C21.1455 10.6709 20.4962 11.5024 19.5311 12.5417L15.9338 16.3874H22.1457V16.9937H14.5476ZM2.80823 5.09291H1.93085L6.61606 15.2961L7.05475 14.3606L2.80823 5.09291ZM5.9668 5.09291H5.10697L8.19535 11.8142L8.61649 10.8614L5.9668 5.09291ZM4.38752 5.09291H3.52768L7.40571 13.5638L7.8444 12.611L4.38752 5.09291ZM0.351562 5.09291L5.79132 17.1323L6.26511 16.0929L1.2114 5.09291H0.351562ZM8.05497 5.09291H7.19513L6.94947 5.62992L7.37061 6.58268L8.05497 5.09291ZM9.63425 5.09291H8.75687L7.73911 7.36221L8.1778 8.31496L9.63425 5.09291ZM8.52875 9.12913L8.96744 10.0819L11.2135 5.09291H10.3537L8.52875 9.12913ZM29.814 7.44882H31.095C31.6214 7.44882 31.9022 7.24095 31.9022 6.70394C31.9022 6.18425 31.6214 5.95906 31.095 5.95906H29.814V7.44882ZM28.6383 5.07559H31.5161C32.4813 5.07559 33.0779 5.73386 33.0779 6.53071C33.0779 7.15433 32.8322 7.60472 32.2356 7.84724V7.86457C32.8147 8.00315 32.9726 8.5748 33.0077 9.09449C33.0252 9.42362 33.0252 10.0472 33.2358 10.3417H32.0601C31.9197 10.0126 31.9373 9.49291 31.8671 9.07717C31.7794 8.52283 31.5688 8.28032 30.9722 8.28032H29.814V10.3417H28.6383V5.07559ZM36.5172 8.02047C36.4295 7.48346 36.1838 7.22362 35.6749 7.22362C35.0081 7.22362 34.7975 7.72598 34.78 8.02047H36.5172ZM34.78 8.67874C34.8151 9.33701 35.1485 9.64882 35.7276 9.64882C36.1487 9.64882 36.4997 9.38898 36.5698 9.16378H37.4999C37.2016 10.0646 36.5698 10.4457 35.6925 10.4457C34.4817 10.4457 33.7271 9.61417 33.7271 8.43622C33.7271 7.29291 34.5168 6.42677 35.6925 6.42677C37.0085 6.42677 37.6578 7.50079 37.5701 8.67874H34.78ZM39.5529 6.53071H40.3426V7.24094H39.5529V9.12913C39.5529 9.47559 39.6407 9.56221 40.0092 9.56221C40.132 9.56221 40.2198 9.56221 40.3426 9.52756V10.3591C40.1671 10.3937 39.939 10.3937 39.7109 10.3937C39.0616 10.3937 38.4825 10.2378 38.4825 9.47559V7.24094H37.8508V6.53071H38.4825V5.3874H39.5529V6.53071ZM43.2379 8.47087C43.0625 8.62677 42.6764 8.62677 42.343 8.69606C42.0096 8.76536 41.7289 8.86929 41.7289 9.25039C41.7289 9.64882 42.0272 9.73543 42.3606 9.73543C43.1853 9.73543 43.2204 9.09449 43.2204 8.85197V8.47087H43.2379ZM40.7988 7.69134C40.8515 6.72126 41.7464 6.42677 42.6062 6.42677C43.3783 6.42677 44.3083 6.6 44.3083 7.50079V9.49291C44.3083 9.83937 44.3434 10.1858 44.4487 10.3417H43.3608C43.3257 10.2205 43.2906 10.0992 43.2906 9.97795C42.9572 10.3244 42.4483 10.463 41.9921 10.463C41.2726 10.463 40.676 10.0992 40.676 9.31968C40.676 8.45354 41.3428 8.24567 41.9921 8.15905C42.6413 8.05512 43.2555 8.08976 43.2555 7.65669C43.2555 7.22362 42.9396 7.15433 42.5711 7.15433C42.1675 7.15433 41.9219 7.32756 41.8868 7.72598H40.7988V7.69134ZM45.1682 6.53071H46.221V10.3417H45.1682V6.53071ZM46.2035 5.94173H45.1506V5.07559H46.2035V5.94173ZM47.0809 5.07559H48.1513V10.3417H47.0809V5.07559ZM28.6559 11.6929H32.0426V12.126H29.1648V14.0315H31.7267V14.4646H29.1648V16.9764H28.6559V11.6929ZM32.5865 13.1654H33.0603V16.9764H32.5865V13.1654ZM32.5865 11.6929H33.0603V12.4378H32.5865V11.6929ZM33.9553 13.1654H34.429V13.8236H34.4466C34.6045 13.3559 35.1134 13.0441 35.6749 13.0441C36.7629 13.0441 37.0963 13.6157 37.0963 14.5165V16.9764H36.6225V14.6032C36.6225 13.9449 36.4119 13.4425 35.6398 13.4425C34.8853 13.4425 34.4466 14.0142 34.429 14.7417V16.9764H33.9553V13.1654ZM40.4479 14.8803H40.4303C40.3777 15.0016 40.1671 15.0362 40.0267 15.0535C39.2195 15.1921 38.2193 15.1921 38.2193 15.937C38.2193 16.4047 38.6405 16.6819 39.0792 16.6819C39.7986 16.6819 40.4303 16.2315 40.4303 15.4866V14.8803H40.4479ZM37.9386 14.3433C37.9912 13.4425 38.6054 13.0614 39.5003 13.0614C40.1847 13.0614 40.9217 13.2693 40.9217 14.2913V16.3008C40.9217 16.474 41.0094 16.578 41.2024 16.578C41.2551 16.578 41.3077 16.5606 41.3428 16.5433V16.9417C41.2375 16.9591 41.1673 16.9764 41.0269 16.9764C40.5532 16.9764 40.483 16.7165 40.483 16.3181H40.4654C40.132 16.8032 39.7986 17.0976 39.0441 17.0976C38.3246 17.0976 37.7631 16.7512 37.7631 15.989C37.7631 14.915 38.7984 14.8803 39.8337 14.7591C40.2198 14.7071 40.4479 14.6551 40.4479 14.2567C40.4479 13.6331 39.9916 13.4598 39.4301 13.4598C38.851 13.4598 38.4123 13.7197 38.3948 14.3606H37.9386V14.3433ZM41.8517 13.1654H42.3079V13.8236H42.3255C42.5009 13.3559 43.0098 13.0441 43.5714 13.0441C44.6593 13.0441 44.9927 13.6157 44.9927 14.5165V16.9764H44.5189V14.6032C44.5189 13.9449 44.3083 13.4425 43.5363 13.4425C42.7817 13.4425 42.343 14.0142 42.3255 14.7417V16.9764H41.8692V13.1654H41.8517ZM48.59 14.3606C48.4671 13.789 48.1162 13.4425 47.502 13.4425C46.5895 13.4425 46.1508 14.2567 46.1508 15.0535C46.1508 15.8677 46.6071 16.6819 47.502 16.6819C48.0811 16.6819 48.5724 16.2315 48.6251 15.5906H49.0988C48.976 16.5087 48.3619 17.063 47.502 17.063C46.3088 17.063 45.6771 16.1449 45.6771 15.0362C45.6771 13.9449 46.3263 13.0268 47.502 13.0268C48.3268 13.0268 48.9585 13.4598 49.0638 14.3433H48.59V14.3606ZM52.5206 14.7937C52.5031 14.1008 52.0644 13.4425 51.2923 13.4425C50.5202 13.4425 50.0991 14.1181 50.0113 14.7937H52.5206ZM50.0113 15.1921C50.0113 15.885 50.3798 16.6992 51.2923 16.6992C51.9767 16.6992 52.3627 16.3008 52.5031 15.7291H52.9769C52.7838 16.5953 52.275 17.0976 51.2923 17.0976C50.064 17.0976 49.5375 16.1622 49.5375 15.0709C49.5375 14.0835 50.064 13.0614 51.2923 13.0614C52.5382 13.0614 53.0295 14.1354 52.9944 15.1921H50.0113Z" fill="black" fill-opacity="0.2"/>
<path d="M25.1814 0H25.3569V22H25.1814V0ZM12.9508 16.9937V5.75118H11.3364L11.6347 5.11024H13.6176V16.9937H12.9508ZM14.5476 16.9937L18.9169 12.3512C19.8996 11.2772 20.5489 10.5323 20.8647 9.99528C21.1806 9.44095 21.3561 8.86929 21.3561 8.26299C21.3561 7.48347 21.0578 6.80787 20.4611 6.23622C19.8821 5.68189 19.1626 5.40472 18.3203 5.40472C17.4254 5.40472 16.6884 5.69921 16.0918 6.28819C15.5653 6.8252 15.2495 7.51811 15.1267 8.43622H14.4949C14.5651 7.39685 14.9336 6.58268 15.618 5.88976C16.355 5.14488 17.2499 4.79843 18.3554 4.79843C19.4434 4.79843 20.2857 5.12756 20.9525 5.82047C21.6193 6.51339 21.9527 7.31024 21.9527 8.22835C21.9527 8.88661 21.7948 9.51024 21.4789 10.0819C21.1455 10.6709 20.4962 11.5024 19.5311 12.5417L15.9338 16.3874H22.1457V16.9937H14.5476ZM2.80823 5.09291H1.93085L6.61606 15.2961L7.05475 14.3606L2.80823 5.09291ZM5.9668 5.09291H5.10697L8.19535 11.8142L8.61649 10.8614L5.9668 5.09291ZM4.38752 5.09291H3.52768L7.40571 13.5638L7.8444 12.611L4.38752 5.09291ZM0.351562 5.09291L5.79132 17.1323L6.26511 16.0929L1.2114 5.09291H0.351562ZM8.05497 5.09291H7.19513L6.94947 5.62992L7.37061 6.58268L8.05497 5.09291ZM9.63425 5.09291H8.75687L7.73911 7.36221L8.1778 8.31496L9.63425 5.09291ZM8.52875 9.12913L8.96744 10.0819L11.2135 5.09291H10.3537L8.52875 9.12913ZM29.814 7.44882H31.095C31.6214 7.44882 31.9022 7.24095 31.9022 6.70394C31.9022 6.18425 31.6214 5.95906 31.095 5.95906H29.814V7.44882ZM28.6383 5.07559H31.5161C32.4813 5.07559 33.0779 5.73386 33.0779 6.53071C33.0779 7.15433 32.8322 7.60472 32.2356 7.84724V7.86457C32.8147 8.00315 32.9726 8.5748 33.0077 9.09449C33.0252 9.42362 33.0252 10.0472 33.2358 10.3417H32.0601C31.9197 10.0126 31.9373 9.49291 31.8671 9.07717C31.7794 8.52283 31.5688 8.28032 30.9722 8.28032H29.814V10.3417H28.6383V5.07559ZM36.5172 8.02047C36.4295 7.48346 36.1838 7.22362 35.6749 7.22362C35.0081 7.22362 34.7975 7.72598 34.78 8.02047H36.5172ZM34.78 8.67874C34.8151 9.33701 35.1485 9.64882 35.7276 9.64882C36.1487 9.64882 36.4997 9.38898 36.5698 9.16378H37.4999C37.2016 10.0646 36.5698 10.4457 35.6925 10.4457C34.4817 10.4457 33.7271 9.61417 33.7271 8.43622C33.7271 7.29291 34.5168 6.42677 35.6925 6.42677C37.0085 6.42677 37.6578 7.50079 37.5701 8.67874H34.78ZM39.5529 6.53071H40.3426V7.24094H39.5529V9.12913C39.5529 9.47559 39.6407 9.56221 40.0092 9.56221C40.132 9.56221 40.2198 9.56221 40.3426 9.52756V10.3591C40.1671 10.3937 39.939 10.3937 39.7109 10.3937C39.0616 10.3937 38.4825 10.2378 38.4825 9.47559V7.24094H37.8508V6.53071H38.4825V5.3874H39.5529V6.53071ZM43.2379 8.47087C43.0625 8.62677 42.6764 8.62677 42.343 8.69606C42.0096 8.76536 41.7289 8.86929 41.7289 9.25039C41.7289 9.64882 42.0272 9.73543 42.3606 9.73543C43.1853 9.73543 43.2204 9.09449 43.2204 8.85197V8.47087H43.2379ZM40.7988 7.69134C40.8515 6.72126 41.7464 6.42677 42.6062 6.42677C43.3783 6.42677 44.3083 6.6 44.3083 7.50079V9.49291C44.3083 9.83937 44.3434 10.1858 44.4487 10.3417H43.3608C43.3257 10.2205 43.2906 10.0992 43.2906 9.97795C42.9572 10.3244 42.4483 10.463 41.9921 10.463C41.2726 10.463 40.676 10.0992 40.676 9.31968C40.676 8.45354 41.3428 8.24567 41.9921 8.15905C42.6413 8.05512 43.2555 8.08976 43.2555 7.65669C43.2555 7.22362 42.9396 7.15433 42.5711 7.15433C42.1675 7.15433 41.9219 7.32756 41.8868 7.72598H40.7988V7.69134ZM45.1682 6.53071H46.221V10.3417H45.1682V6.53071ZM46.2035 5.94173H45.1506V5.07559H46.2035V5.94173ZM47.0809 5.07559H48.1513V10.3417H47.0809V5.07559ZM28.6559 11.6929H32.0426V12.126H29.1648V14.0315H31.7267V14.4646H29.1648V16.9764H28.6559V11.6929ZM32.5865 13.1654H33.0603V16.9764H32.5865V13.1654ZM32.5865 11.6929H33.0603V12.4378H32.5865V11.6929ZM33.9553 13.1654H34.429V13.8236H34.4466C34.6045 13.3559 35.1134 13.0441 35.6749 13.0441C36.7629 13.0441 37.0963 13.6157 37.0963 14.5165V16.9764H36.6225V14.6032C36.6225 13.9449 36.4119 13.4425 35.6398 13.4425C34.8853 13.4425 34.4466 14.0142 34.429 14.7417V16.9764H33.9553V13.1654ZM40.4479 14.8803H40.4303C40.3777 15.0016 40.1671 15.0362 40.0267 15.0535C39.2195 15.1921 38.2193 15.1921 38.2193 15.937C38.2193 16.4047 38.6405 16.6819 39.0792 16.6819C39.7986 16.6819 40.4303 16.2315 40.4303 15.4866V14.8803H40.4479ZM37.9386 14.3433C37.9912 13.4425 38.6054 13.0614 39.5003 13.0614C40.1847 13.0614 40.9217 13.2693 40.9217 14.2913V16.3008C40.9217 16.474 41.0094 16.578 41.2024 16.578C41.2551 16.578 41.3077 16.5606 41.3428 16.5433V16.9417C41.2375 16.9591 41.1673 16.9764 41.0269 16.9764C40.5532 16.9764 40.483 16.7165 40.483 16.3181H40.4654C40.132 16.8032 39.7986 17.0976 39.0441 17.0976C38.3246 17.0976 37.7631 16.7512 37.7631 15.989C37.7631 14.915 38.7984 14.8803 39.8337 14.7591C40.2198 14.7071 40.4479 14.6551 40.4479 14.2567C40.4479 13.6331 39.9916 13.4598 39.4301 13.4598C38.851 13.4598 38.4123 13.7197 38.3948 14.3606H37.9386V14.3433ZM41.8517 13.1654H42.3079V13.8236H42.3255C42.5009 13.3559 43.0098 13.0441 43.5714 13.0441C44.6593 13.0441 44.9927 13.6157 44.9927 14.5165V16.9764H44.5189V14.6032C44.5189 13.9449 44.3083 13.4425 43.5363 13.4425C42.7817 13.4425 42.343 14.0142 42.3255 14.7417V16.9764H41.8692V13.1654H41.8517ZM48.59 14.3606C48.4671 13.789 48.1162 13.4425 47.502 13.4425C46.5895 13.4425 46.1508 14.2567 46.1508 15.0535C46.1508 15.8677 46.6071 16.6819 47.502 16.6819C48.0811 16.6819 48.5724 16.2315 48.6251 15.5906H49.0988C48.976 16.5087 48.3619 17.063 47.502 17.063C46.3088 17.063 45.6771 16.1449 45.6771 15.0362C45.6771 13.9449 46.3263 13.0268 47.502 13.0268C48.3268 13.0268 48.9585 13.4598 49.0638 14.3433H48.59V14.3606ZM52.5206 14.7937C52.5031 14.1008 52.0644 13.4425 51.2923 13.4425C50.5202 13.4425 50.0991 14.1181 50.0113 14.7937H52.5206ZM50.0113 15.1921C50.0113 15.885 50.3798 16.6992 51.2923 16.6992C51.9767 16.6992 52.3627 16.3008 52.5031 15.7291H52.9769C52.7838 16.5953 52.275 17.0976 51.2923 17.0976C50.064 17.0976 49.5375 16.1622 49.5375 15.0709C49.5375 14.0835 50.064 13.0614 51.2923 13.0614C52.5382 13.0614 53.0295 14.1354 52.9944 15.1921H50.0113Z" fill="black" fill-opacity="0.2"/>
<path d="M25.1814 0H25.3569V22H25.1814V0ZM12.9508 16.9937V5.75118H11.3364L11.6347 5.11024H13.6176V16.9937H12.9508ZM14.5476 16.9937L18.9169 12.3512C19.8996 11.2772 20.5489 10.5323 20.8647 9.99528C21.1806 9.44095 21.3561 8.86929 21.3561 8.26299C21.3561 7.48347 21.0578 6.80787 20.4611 6.23622C19.8821 5.68189 19.1626 5.40472 18.3203 5.40472C17.4254 5.40472 16.6884 5.69921 16.0918 6.28819C15.5653 6.8252 15.2495 7.51811 15.1267 8.43622H14.4949C14.5651 7.39685 14.9336 6.58268 15.618 5.88976C16.355 5.14488 17.2499 4.79843 18.3554 4.79843C19.4434 4.79843 20.2857 5.12756 20.9525 5.82047C21.6193 6.51339 21.9527 7.31024 21.9527 8.22835C21.9527 8.88661 21.7948 9.51024 21.4789 10.0819C21.1455 10.6709 20.4962 11.5024 19.5311 12.5417L15.9338 16.3874H22.1457V16.9937H14.5476ZM2.80823 5.09291H1.93085L6.61606 15.2961L7.05475 14.3606L2.80823 5.09291ZM5.9668 5.09291H5.10697L8.19535 11.8142L8.61649 10.8614L5.9668 5.09291ZM4.38752 5.09291H3.52768L7.40571 13.5638L7.8444 12.611L4.38752 5.09291ZM0.351562 5.09291L5.79132 17.1323L6.26511 16.0929L1.2114 5.09291H0.351562ZM8.05497 5.09291H7.19513L6.94947 5.62992L7.37061 6.58268L8.05497 5.09291ZM9.63425 5.09291H8.75687L7.73911 7.36221L8.1778 8.31496L9.63425 5.09291ZM8.52875 9.12913L8.96744 10.0819L11.2135 5.09291H10.3537L8.52875 9.12913ZM29.814 7.44882H31.095C31.6214 7.44882 31.9022 7.24095 31.9022 6.70394C31.9022 6.18425 31.6214 5.95906 31.095 5.95906H29.814V7.44882ZM28.6383 5.07559H31.5161C32.4813 5.07559 33.0779 5.73386 33.0779 6.53071C33.0779 7.15433 32.8322 7.60472 32.2356 7.84724V7.86457C32.8147 8.00315 32.9726 8.5748 33.0077 9.09449C33.0252 9.42362 33.0252 10.0472 33.2358 10.3417H32.0601C31.9197 10.0126 31.9373 9.49291 31.8671 9.07717C31.7794 8.52283 31.5688 8.28032 30.9722 8.28032H29.814V10.3417H28.6383V5.07559ZM36.5172 8.02047C36.4295 7.48346 36.1838 7.22362 35.6749 7.22362C35.0081 7.22362 34.7975 7.72598 34.78 8.02047H36.5172ZM34.78 8.67874C34.8151 9.33701 35.1485 9.64882 35.7276 9.64882C36.1487 9.64882 36.4997 9.38898 36.5698 9.16378H37.4999C37.2016 10.0646 36.5698 10.4457 35.6925 10.4457C34.4817 10.4457 33.7271 9.61417 33.7271 8.43622C33.7271 7.29291 34.5168 6.42677 35.6925 6.42677C37.0085 6.42677 37.6578 7.50079 37.5701 8.67874H34.78ZM39.5529 6.53071H40.3426V7.24094H39.5529V9.12913C39.5529 9.47559 39.6407 9.56221 40.0092 9.56221C40.132 9.56221 40.2198 9.56221 40.3426 9.52756V10.3591C40.1671 10.3937 39.939 10.3937 39.7109 10.3937C39.0616 10.3937 38.4825 10.2378 38.4825 9.47559V7.24094H37.8508V6.53071H38.4825V5.3874H39.5529V6.53071ZM43.2379 8.47087C43.0625 8.62677 42.6764 8.62677 42.343 8.69606C42.0096 8.76536 41.7289 8.86929 41.7289 9.25039C41.7289 9.64882 42.0272 9.73543 42.3606 9.73543C43.1853 9.73543 43.2204 9.09449 43.2204 8.85197V8.47087H43.2379ZM40.7988 7.69134C40.8515 6.72126 41.7464 6.42677 42.6062 6.42677C43.3783 6.42677 44.3083 6.6 44.3083 7.50079V9.49291C44.3083 9.83937 44.3434 10.1858 44.4487 10.3417H43.3608C43.3257 10.2205 43.2906 10.0992 43.2906 9.97795C42.9572 10.3244 42.4483 10.463 41.9921 10.463C41.2726 10.463 40.676 10.0992 40.676 9.31968C40.676 8.45354 41.3428 8.24567 41.9921 8.15905C42.6413 8.05512 43.2555 8.08976 43.2555 7.65669C43.2555 7.22362 42.9396 7.15433 42.5711 7.15433C42.1675 7.15433 41.9219 7.32756 41.8868 7.72598H40.7988V7.69134ZM45.1682 6.53071H46.221V10.3417H45.1682V6.53071ZM46.2035 5.94173H45.1506V5.07559H46.2035V5.94173ZM47.0809 5.07559H48.1513V10.3417H47.0809V5.07559ZM28.6559 11.6929H32.0426V12.126H29.1648V14.0315H31.7267V14.4646H29.1648V16.9764H28.6559V11.6929ZM32.5865 13.1654H33.0603V16.9764H32.5865V13.1654ZM32.5865 11.6929H33.0603V12.4378H32.5865V11.6929ZM33.9553 13.1654H34.429V13.8236H34.4466C34.6045 13.3559 35.1134 13.0441 35.6749 13.0441C36.7629 13.0441 37.0963 13.6157 37.0963 14.5165V16.9764H36.6225V14.6032C36.6225 13.9449 36.4119 13.4425 35.6398 13.4425C34.8853 13.4425 34.4466 14.0142 34.429 14.7417V16.9764H33.9553V13.1654ZM40.4479 14.8803H40.4303C40.3777 15.0016 40.1671 15.0362 40.0267 15.0535C39.2195 15.1921 38.2193 15.1921 38.2193 15.937C38.2193 16.4047 38.6405 16.6819 39.0792 16.6819C39.7986 16.6819 40.4303 16.2315 40.4303 15.4866V14.8803H40.4479ZM37.9386 14.3433C37.9912 13.4425 38.6054 13.0614 39.5003 13.0614C40.1847 13.0614 40.9217 13.2693 40.9217 14.2913V16.3008C40.9217 16.474 41.0094 16.578 41.2024 16.578C41.2551 16.578 41.3077 16.5606 41.3428 16.5433V16.9417C41.2375 16.9591 41.1673 16.9764 41.0269 16.9764C40.5532 16.9764 40.483 16.7165 40.483 16.3181H40.4654C40.132 16.8032 39.7986 17.0976 39.0441 17.0976C38.3246 17.0976 37.7631 16.7512 37.7631 15.989C37.7631 14.915 38.7984 14.8803 39.8337 14.7591C40.2198 14.7071 40.4479 14.6551 40.4479 14.2567C40.4479 13.6331 39.9916 13.4598 39.4301 13.4598C38.851 13.4598 38.4123 13.7197 38.3948 14.3606H37.9386V14.3433ZM41.8517 13.1654H42.3079V13.8236H42.3255C42.5009 13.3559 43.0098 13.0441 43.5714 13.0441C44.6593 13.0441 44.9927 13.6157 44.9927 14.5165V16.9764H44.5189V14.6032C44.5189 13.9449 44.3083 13.4425 43.5363 13.4425C42.7817 13.4425 42.343 14.0142 42.3255 14.7417V16.9764H41.8692V13.1654H41.8517ZM48.59 14.3606C48.4671 13.789 48.1162 13.4425 47.502 13.4425C46.5895 13.4425 46.1508 14.2567 46.1508 15.0535C46.1508 15.8677 46.6071 16.6819 47.502 16.6819C48.0811 16.6819 48.5724 16.2315 48.6251 15.5906H49.0988C48.976 16.5087 48.3619 17.063 47.502 17.063C46.3088 17.063 45.6771 16.1449 45.6771 15.0362C45.6771 13.9449 46.3263 13.0268 47.502 13.0268C48.3268 13.0268 48.9585 13.4598 49.0638 14.3433H48.59V14.3606ZM52.5206 14.7937C52.5031 14.1008 52.0644 13.4425 51.2923 13.4425C50.5202 13.4425 50.0991 14.1181 50.0113 14.7937H52.5206ZM50.0113 15.1921C50.0113 15.885 50.3798 16.6992 51.2923 16.6992C51.9767 16.6992 52.3627 16.3008 52.5031 15.7291H52.9769C52.7838 16.5953 52.275 17.0976 51.2923 17.0976C50.064 17.0976 49.5375 16.1622 49.5375 15.0709C49.5375 14.0835 50.064 13.0614 51.2923 13.0614C52.5382 13.0614 53.0295 14.1354 52.9944 15.1921H50.0113Z" fill="black" fill-opacity="0.2"/>
<path d="M25.1814 0H25.3569V22H25.1814V0ZM12.9508 16.9937V5.75118H11.3364L11.6347 5.11024H13.6176V16.9937H12.9508ZM14.5476 16.9937L18.9169 12.3512C19.8996 11.2772 20.5489 10.5323 20.8647 9.99528C21.1806 9.44095 21.3561 8.86929 21.3561 8.26299C21.3561 7.48347 21.0578 6.80787 20.4611 6.23622C19.8821 5.68189 19.1626 5.40472 18.3203 5.40472C17.4254 5.40472 16.6884 5.69921 16.0918 6.28819C15.5653 6.8252 15.2495 7.51811 15.1267 8.43622H14.4949C14.5651 7.39685 14.9336 6.58268 15.618 5.88976C16.355 5.14488 17.2499 4.79843 18.3554 4.79843C19.4434 4.79843 20.2857 5.12756 20.9525 5.82047C21.6193 6.51339 21.9527 7.31024 21.9527 8.22835C21.9527 8.88661 21.7948 9.51024 21.4789 10.0819C21.1455 10.6709 20.4962 11.5024 19.5311 12.5417L15.9338 16.3874H22.1457V16.9937H14.5476ZM2.80823 5.09291H1.93085L6.61606 15.2961L7.05475 14.3606L2.80823 5.09291ZM5.9668 5.09291H5.10697L8.19535 11.8142L8.61649 10.8614L5.9668 5.09291ZM4.38752 5.09291H3.52768L7.40571 13.5638L7.8444 12.611L4.38752 5.09291ZM0.351562 5.09291L5.79132 17.1323L6.26511 16.0929L1.2114 5.09291H0.351562ZM8.05497 5.09291H7.19513L6.94947 5.62992L7.37061 6.58268L8.05497 5.09291ZM9.63425 5.09291H8.75687L7.73911 7.36221L8.1778 8.31496L9.63425 5.09291ZM8.52875 9.12913L8.96744 10.0819L11.2135 5.09291H10.3537L8.52875 9.12913ZM29.814 7.44882H31.095C31.6214 7.44882 31.9022 7.24095 31.9022 6.70394C31.9022 6.18425 31.6214 5.95906 31.095 5.95906H29.814V7.44882ZM28.6383 5.07559H31.5161C32.4813 5.07559 33.0779 5.73386 33.0779 6.53071C33.0779 7.15433 32.8322 7.60472 32.2356 7.84724V7.86457C32.8147 8.00315 32.9726 8.5748 33.0077 9.09449C33.0252 9.42362 33.0252 10.0472 33.2358 10.3417H32.0601C31.9197 10.0126 31.9373 9.49291 31.8671 9.07717C31.7794 8.52283 31.5688 8.28032 30.9722 8.28032H29.814V10.3417H28.6383V5.07559ZM36.5172 8.02047C36.4295 7.48346 36.1838 7.22362 35.6749 7.22362C35.0081 7.22362 34.7975 7.72598 34.78 8.02047H36.5172ZM34.78 8.67874C34.8151 9.33701 35.1485 9.64882 35.7276 9.64882C36.1487 9.64882 36.4997 9.38898 36.5698 9.16378H37.4999C37.2016 10.0646 36.5698 10.4457 35.6925 10.4457C34.4817 10.4457 33.7271 9.61417 33.7271 8.43622C33.7271 7.29291 34.5168 6.42677 35.6925 6.42677C37.0085 6.42677 37.6578 7.50079 37.5701 8.67874H34.78ZM39.5529 6.53071H40.3426V7.24094H39.5529V9.12913C39.5529 9.47559 39.6407 9.56221 40.0092 9.56221C40.132 9.56221 40.2198 9.56221 40.3426 9.52756V10.3591C40.1671 10.3937 39.939 10.3937 39.7109 10.3937C39.0616 10.3937 38.4825 10.2378 38.4825 9.47559V7.24094H37.8508V6.53071H38.4825V5.3874H39.5529V6.53071ZM43.2379 8.47087C43.0625 8.62677 42.6764 8.62677 42.343 8.69606C42.0096 8.76536 41.7289 8.86929 41.7289 9.25039C41.7289 9.64882 42.0272 9.73543 42.3606 9.73543C43.1853 9.73543 43.2204 9.09449 43.2204 8.85197V8.47087H43.2379ZM40.7988 7.69134C40.8515 6.72126 41.7464 6.42677 42.6062 6.42677C43.3783 6.42677 44.3083 6.6 44.3083 7.50079V9.49291C44.3083 9.83937 44.3434 10.1858 44.4487 10.3417H43.3608C43.3257 10.2205 43.2906 10.0992 43.2906 9.97795C42.9572 10.3244 42.4483 10.463 41.9921 10.463C41.2726 10.463 40.676 10.0992 40.676 9.31968C40.676 8.45354 41.3428 8.24567 41.9921 8.15905C42.6413 8.05512 43.2555 8.08976 43.2555 7.65669C43.2555 7.22362 42.9396 7.15433 42.5711 7.15433C42.1675 7.15433 41.9219 7.32756 41.8868 7.72598H40.7988V7.69134ZM45.1682 6.53071H46.221V10.3417H45.1682V6.53071ZM46.2035 5.94173H45.1506V5.07559H46.2035V5.94173ZM47.0809 5.07559H48.1513V10.3417H47.0809V5.07559ZM28.6559 11.6929H32.0426V12.126H29.1648V14.0315H31.7267V14.4646H29.1648V16.9764H28.6559V11.6929ZM32.5865 13.1654H33.0603V16.9764H32.5865V13.1654ZM32.5865 11.6929H33.0603V12.4378H32.5865V11.6929ZM33.9553 13.1654H34.429V13.8236H34.4466C34.6045 13.3559 35.1134 13.0441 35.6749 13.0441C36.7629 13.0441 37.0963 13.6157 37.0963 14.5165V16.9764H36.6225V14.6032C36.6225 13.9449 36.4119 13.4425 35.6398 13.4425C34.8853 13.4425 34.4466 14.0142 34.429 14.7417V16.9764H33.9553V13.1654ZM40.4479 14.8803H40.4303C40.3777 15.0016 40.1671 15.0362 40.0267 15.0535C39.2195 15.1921 38.2193 15.1921 38.2193 15.937C38.2193 16.4047 38.6405 16.6819 39.0792 16.6819C39.7986 16.6819 40.4303 16.2315 40.4303 15.4866V14.8803H40.4479ZM37.9386 14.3433C37.9912 13.4425 38.6054 13.0614 39.5003 13.0614C40.1847 13.0614 40.9217 13.2693 40.9217 14.2913V16.3008C40.9217 16.474 41.0094 16.578 41.2024 16.578C41.2551 16.578 41.3077 16.5606 41.3428 16.5433V16.9417C41.2375 16.9591 41.1673 16.9764 41.0269 16.9764C40.5532 16.9764 40.483 16.7165 40.483 16.3181H40.4654C40.132 16.8032 39.7986 17.0976 39.0441 17.0976C38.3246 17.0976 37.7631 16.7512 37.7631 15.989C37.7631 14.915 38.7984 14.8803 39.8337 14.7591C40.2198 14.7071 40.4479 14.6551 40.4479 14.2567C40.4479 13.6331 39.9916 13.4598 39.4301 13.4598C38.851 13.4598 38.4123 13.7197 38.3948 14.3606H37.9386V14.3433ZM41.8517 13.1654H42.3079V13.8236H42.3255C42.5009 13.3559 43.0098 13.0441 43.5714 13.0441C44.6593 13.0441 44.9927 13.6157 44.9927 14.5165V16.9764H44.5189V14.6032C44.5189 13.9449 44.3083 13.4425 43.5363 13.4425C42.7817 13.4425 42.343 14.0142 42.3255 14.7417V16.9764H41.8692V13.1654H41.8517ZM48.59 14.3606C48.4671 13.789 48.1162 13.4425 47.502 13.4425C46.5895 13.4425 46.1508 14.2567 46.1508 15.0535C46.1508 15.8677 46.6071 16.6819 47.502 16.6819C48.0811 16.6819 48.5724 16.2315 48.6251 15.5906H49.0988C48.976 16.5087 48.3619 17.063 47.502 17.063C46.3088 17.063 45.6771 16.1449 45.6771 15.0362C45.6771 13.9449 46.3263 13.0268 47.502 13.0268C48.3268 13.0268 48.9585 13.4598 49.0638 14.3433H48.59V14.3606ZM52.5206 14.7937C52.5031 14.1008 52.0644 13.4425 51.2923 13.4425C50.5202 13.4425 50.0991 14.1181 50.0113 14.7937H52.5206ZM50.0113 15.1921C50.0113 15.885 50.3798 16.6992 51.2923 16.6992C51.9767 16.6992 52.3627 16.3008 52.5031 15.7291H52.9769C52.7838 16.5953 52.275 17.0976 51.2923 17.0976C50.064 17.0976 49.5375 16.1622 49.5375 15.0709C49.5375 14.0835 50.064 13.0614 51.2923 13.0614C52.5382 13.0614 53.0295 14.1354 52.9944 15.1921H50.0113Z" fill="black" fill-opacity="0.2"/>
<path d="M25.1814 0H25.3569V22H25.1814V0ZM12.9508 16.9937V5.75118H11.3364L11.6347 5.11024H13.6176V16.9937H12.9508ZM14.5476 16.9937L18.9169 12.3512C19.8996 11.2772 20.5489 10.5323 20.8647 9.99528C21.1806 9.44095 21.3561 8.86929 21.3561 8.26299C21.3561 7.48347 21.0578 6.80787 20.4611 6.23622C19.8821 5.68189 19.1626 5.40472 18.3203 5.40472C17.4254 5.40472 16.6884 5.69921 16.0918 6.28819C15.5653 6.8252 15.2495 7.51811 15.1267 8.43622H14.4949C14.5651 7.39685 14.9336 6.58268 15.618 5.88976C16.355 5.14488 17.2499 4.79843 18.3554 4.79843C19.4434 4.79843 20.2857 5.12756 20.9525 5.82047C21.6193 6.51339 21.9527 7.31024 21.9527 8.22835C21.9527 8.88661 21.7948 9.51024 21.4789 10.0819C21.1455 10.6709 20.4962 11.5024 19.5311 12.5417L15.9338 16.3874H22.1457V16.9937H14.5476ZM2.80823 5.09291H1.93085L6.61606 15.2961L7.05475 14.3606L2.80823 5.09291ZM5.9668 5.09291H5.10697L8.19535 11.8142L8.61649 10.8614L5.9668 5.09291ZM4.38752 5.09291H3.52768L7.40571 13.5638L7.8444 12.611L4.38752 5.09291ZM0.351562 5.09291L5.79132 17.1323L6.26511 16.0929L1.2114 5.09291H0.351562ZM8.05497 5.09291H7.19513L6.94947 5.62992L7.37061 6.58268L8.05497 5.09291ZM9.63425 5.09291H8.75687L7.73911 7.36221L8.1778 8.31496L9.63425 5.09291ZM8.52875 9.12913L8.96744 10.0819L11.2135 5.09291H10.3537L8.52875 9.12913ZM29.814 7.44882H31.095C31.6214 7.44882 31.9022 7.24095 31.9022 6.70394C31.9022 6.18425 31.6214 5.95906 31.095 5.95906H29.814V7.44882ZM28.6383 5.07559H31.5161C32.4813 5.07559 33.0779 5.73386 33.0779 6.53071C33.0779 7.15433 32.8322 7.60472 32.2356 7.84724V7.86457C32.8147 8.00315 32.9726 8.5748 33.0077 9.09449C33.0252 9.42362 33.0252 10.0472 33.2358 10.3417H32.0601C31.9197 10.0126 31.9373 9.49291 31.8671 9.07717C31.7794 8.52283 31.5688 8.28032 30.9722 8.28032H29.814V10.3417H28.6383V5.07559ZM36.5172 8.02047C36.4295 7.48346 36.1838 7.22362 35.6749 7.22362C35.0081 7.22362 34.7975 7.72598 34.78 8.02047H36.5172ZM34.78 8.67874C34.8151 9.33701 35.1485 9.64882 35.7276 9.64882C36.1487 9.64882 36.4997 9.38898 36.5698 9.16378H37.4999C37.2016 10.0646 36.5698 10.4457 35.6925 10.4457C34.4817 10.4457 33.7271 9.61417 33.7271 8.43622C33.7271 7.29291 34.5168 6.42677 35.6925 6.42677C37.0085 6.42677 37.6578 7.50079 37.5701 8.67874H34.78ZM39.5529 6.53071H40.3426V7.24094H39.5529V9.12913C39.5529 9.47559 39.6407 9.56221 40.0092 9.56221C40.132 9.56221 40.2198 9.56221 40.3426 9.52756V10.3591C40.1671 10.3937 39.939 10.3937 39.7109 10.3937C39.0616 10.3937 38.4825 10.2378 38.4825 9.47559V7.24094H37.8508V6.53071H38.4825V5.3874H39.5529V6.53071ZM43.2379 8.47087C43.0625 8.62677 42.6764 8.62677 42.343 8.69606C42.0096 8.76536 41.7289 8.86929 41.7289 9.25039C41.7289 9.64882 42.0272 9.73543 42.3606 9.73543C43.1853 9.73543 43.2204 9.09449 43.2204 8.85197V8.47087H43.2379ZM40.7988 7.69134C40.8515 6.72126 41.7464 6.42677 42.6062 6.42677C43.3783 6.42677 44.3083 6.6 44.3083 7.50079V9.49291C44.3083 9.83937 44.3434 10.1858 44.4487 10.3417H43.3608C43.3257 10.2205 43.2906 10.0992 43.2906 9.97795C42.9572 10.3244 42.4483 10.463 41.9921 10.463C41.2726 10.463 40.676 10.0992 40.676 9.31968C40.676 8.45354 41.3428 8.24567 41.9921 8.15905C42.6413 8.05512 43.2555 8.08976 43.2555 7.65669C43.2555 7.22362 42.9396 7.15433 42.5711 7.15433C42.1675 7.15433 41.9219 7.32756 41.8868 7.72598H40.7988V7.69134ZM45.1682 6.53071H46.221V10.3417H45.1682V6.53071ZM46.2035 5.94173H45.1506V5.07559H46.2035V5.94173ZM47.0809 5.07559H48.1513V10.3417H47.0809V5.07559ZM28.6559 11.6929H32.0426V12.126H29.1648V14.0315H31.7267V14.4646H29.1648V16.9764H28.6559V11.6929ZM32.5865 13.1654H33.0603V16.9764H32.5865V13.1654ZM32.5865 11.6929H33.0603V12.4378H32.5865V11.6929ZM33.9553 13.1654H34.429V13.8236H34.4466C34.6045 13.3559 35.1134 13.0441 35.6749 13.0441C36.7629 13.0441 37.0963 13.6157 37.0963 14.5165V16.9764H36.6225V14.6032C36.6225 13.9449 36.4119 13.4425 35.6398 13.4425C34.8853 13.4425 34.4466 14.0142 34.429 14.7417V16.9764H33.9553V13.1654ZM40.4479 14.8803H40.4303C40.3777 15.0016 40.1671 15.0362 40.0267 15.0535C39.2195 15.1921 38.2193 15.1921 38.2193 15.937C38.2193 16.4047 38.6405 16.6819 39.0792 16.6819C39.7986 16.6819 40.4303 16.2315 40.4303 15.4866V14.8803H40.4479ZM37.9386 14.3433C37.9912 13.4425 38.6054 13.0614 39.5003 13.0614C40.1847 13.0614 40.9217 13.2693 40.9217 14.2913V16.3008C40.9217 16.474 41.0094 16.578 41.2024 16.578C41.2551 16.578 41.3077 16.5606 41.3428 16.5433V16.9417C41.2375 16.9591 41.1673 16.9764 41.0269 16.9764C40.5532 16.9764 40.483 16.7165 40.483 16.3181H40.4654C40.132 16.8032 39.7986 17.0976 39.0441 17.0976C38.3246 17.0976 37.7631 16.7512 37.7631 15.989C37.7631 14.915 38.7984 14.8803 39.8337 14.7591C40.2198 14.7071 40.4479 14.6551 40.4479 14.2567C40.4479 13.6331 39.9916 13.4598 39.4301 13.4598C38.851 13.4598 38.4123 13.7197 38.3948 14.3606H37.9386V14.3433ZM41.8517 13.1654H42.3079V13.8236H42.3255C42.5009 13.3559 43.0098 13.0441 43.5714 13.0441C44.6593 13.0441 44.9927 13.6157 44.9927 14.5165V16.9764H44.5189V14.6032C44.5189 13.9449 44.3083 13.4425 43.5363 13.4425C42.7817 13.4425 42.343 14.0142 42.3255 14.7417V16.9764H41.8692V13.1654H41.8517ZM48.59 14.3606C48.4671 13.789 48.1162 13.4425 47.502 13.4425C46.5895 13.4425 46.1508 14.2567 46.1508 15.0535C46.1508 15.8677 46.6071 16.6819 47.502 16.6819C48.0811 16.6819 48.5724 16.2315 48.6251 15.5906H49.0988C48.976 16.5087 48.3619 17.063 47.502 17.063C46.3088 17.063 45.6771 16.1449 45.6771 15.0362C45.6771 13.9449 46.3263 13.0268 47.502 13.0268C48.3268 13.0268 48.9585 13.4598 49.0638 14.3433H48.59V14.3606ZM52.5206 14.7937C52.5031 14.1008 52.0644 13.4425 51.2923 13.4425C50.5202 13.4425 50.0991 14.1181 50.0113 14.7937H52.5206ZM50.0113 15.1921C50.0113 15.885 50.3798 16.6992 51.2923 16.6992C51.9767 16.6992 52.3627 16.3008 52.5031 15.7291H52.9769C52.7838 16.5953 52.275 17.0976 51.2923 17.0976C50.064 17.0976 49.5375 16.1622 49.5375 15.0709C49.5375 14.0835 50.064 13.0614 51.2923 13.0614C52.5382 13.0614 53.0295 14.1354 52.9944 15.1921H50.0113Z" fill="black" fill-opacity="0.2"/>
<path d="M25.1814 0H25.3569V22H25.1814V0ZM12.9508 16.9937V5.75118H11.3364L11.6347 5.11024H13.6176V16.9937H12.9508ZM14.5476 16.9937L18.9169 12.3512C19.8996 11.2772 20.5489 10.5323 20.8647 9.99528C21.1806 9.44095 21.3561 8.86929 21.3561 8.26299C21.3561 7.48347 21.0578 6.80787 20.4611 6.23622C19.8821 5.68189 19.1626 5.40472 18.3203 5.40472C17.4254 5.40472 16.6884 5.69921 16.0918 6.28819C15.5653 6.8252 15.2495 7.51811 15.1267 8.43622H14.4949C14.5651 7.39685 14.9336 6.58268 15.618 5.88976C16.355 5.14488 17.2499 4.79843 18.3554 4.79843C19.4434 4.79843 20.2857 5.12756 20.9525 5.82047C21.6193 6.51339 21.9527 7.31024 21.9527 8.22835C21.9527 8.88661 21.7948 9.51024 21.4789 10.0819C21.1455 10.6709 20.4962 11.5024 19.5311 12.5417L15.9338 16.3874H22.1457V16.9937H14.5476ZM2.80823 5.09291H1.93085L6.61606 15.2961L7.05475 14.3606L2.80823 5.09291ZM5.9668 5.09291H5.10697L8.19535 11.8142L8.61649 10.8614L5.9668 5.09291ZM4.38752 5.09291H3.52768L7.40571 13.5638L7.8444 12.611L4.38752 5.09291ZM0.351562 5.09291L5.79132 17.1323L6.26511 16.0929L1.2114 5.09291H0.351562ZM8.05497 5.09291H7.19513L6.94947 5.62992L7.37061 6.58268L8.05497 5.09291ZM9.63425 5.09291H8.75687L7.73911 7.36221L8.1778 8.31496L9.63425 5.09291ZM8.52875 9.12913L8.96744 10.0819L11.2135 5.09291H10.3537L8.52875 9.12913ZM29.814 7.44882H31.095C31.6214 7.44882 31.9022 7.24095 31.9022 6.70394C31.9022 6.18425 31.6214 5.95906 31.095 5.95906H29.814V7.44882ZM28.6383 5.07559H31.5161C32.4813 5.07559 33.0779 5.73386 33.0779 6.53071C33.0779 7.15433 32.8322 7.60472 32.2356 7.84724V7.86457C32.8147 8.00315 32.9726 8.5748 33.0077 9.09449C33.0252 9.42362 33.0252 10.0472 33.2358 10.3417H32.0601C31.9197 10.0126 31.9373 9.49291 31.8671 9.07717C31.7794 8.52283 31.5688 8.28032 30.9722 8.28032H29.814V10.3417H28.6383V5.07559ZM36.5172 8.02047C36.4295 7.48346 36.1838 7.22362 35.6749 7.22362C35.0081 7.22362 34.7975 7.72598 34.78 8.02047H36.5172ZM34.78 8.67874C34.8151 9.33701 35.1485 9.64882 35.7276 9.64882C36.1487 9.64882 36.4997 9.38898 36.5698 9.16378H37.4999C37.2016 10.0646 36.5698 10.4457 35.6925 10.4457C34.4817 10.4457 33.7271 9.61417 33.7271 8.43622C33.7271 7.29291 34.5168 6.42677 35.6925 6.42677C37.0085 6.42677 37.6578 7.50079 37.5701 8.67874H34.78ZM39.5529 6.53071H40.3426V7.24094H39.5529V9.12913C39.5529 9.47559 39.6407 9.56221 40.0092 9.56221C40.132 9.56221 40.2198 9.56221 40.3426 9.52756V10.3591C40.1671 10.3937 39.939 10.3937 39.7109 10.3937C39.0616 10.3937 38.4825 10.2378 38.4825 9.47559V7.24094H37.8508V6.53071H38.4825V5.3874H39.5529V6.53071ZM43.2379 8.47087C43.0625 8.62677 42.6764 8.62677 42.343 8.69606C42.0096 8.76536 41.7289 8.86929 41.7289 9.25039C41.7289 9.64882 42.0272 9.73543 42.3606 9.73543C43.1853 9.73543 43.2204 9.09449 43.2204 8.85197V8.47087H43.2379ZM40.7988 7.69134C40.8515 6.72126 41.7464 6.42677 42.6062 6.42677C43.3783 6.42677 44.3083 6.6 44.3083 7.50079V9.49291C44.3083 9.83937 44.3434 10.1858 44.4487 10.3417H43.3608C43.3257 10.2205 43.2906 10.0992 43.2906 9.97795C42.9572 10.3244 42.4483 10.463 41.9921 10.463C41.2726 10.463 40.676 10.0992 40.676 9.31968C40.676 8.45354 41.3428 8.24567 41.9921 8.15905C42.6413 8.05512 43.2555 8.08976 43.2555 7.65669C43.2555 7.22362 42.9396 7.15433 42.5711 7.15433C42.1675 7.15433 41.9219 7.32756 41.8868 7.72598H40.7988V7.69134ZM45.1682 6.53071H46.221V10.3417H45.1682V6.53071ZM46.2035 5.94173H45.1506V5.07559H46.2035V5.94173ZM47.0809 5.07559H48.1513V10.3417H47.0809V5.07559ZM28.6559 11.6929H32.0426V12.126H29.1648V14.0315H31.7267V14.4646H29.1648V16.9764H28.6559V11.6929ZM32.5865 13.1654H33.0603V16.9764H32.5865V13.1654ZM32.5865 11.6929H33.0603V12.4378H32.5865V11.6929ZM33.9553 13.1654H34.429V13.8236H34.4466C34.6045 13.3559 35.1134 13.0441 35.6749 13.0441C36.7629 13.0441 37.0963 13.6157 37.0963 14.5165V16.9764H36.6225V14.6032C36.6225 13.9449 36.4119 13.4425 35.6398 13.4425C34.8853 13.4425 34.4466 14.0142 34.429 14.7417V16.9764H33.9553V13.1654ZM40.4479 14.8803H40.4303C40.3777 15.0016 40.1671 15.0362 40.0267 15.0535C39.2195 15.1921 38.2193 15.1921 38.2193 15.937C38.2193 16.4047 38.6405 16.6819 39.0792 16.6819C39.7986 16.6819 40.4303 16.2315 40.4303 15.4866V14.8803H40.4479ZM37.9386 14.3433C37.9912 13.4425 38.6054 13.0614 39.5003 13.0614C40.1847 13.0614 40.9217 13.2693 40.9217 14.2913V16.3008C40.9217 16.474 41.0094 16.578 41.2024 16.578C41.2551 16.578 41.3077 16.5606 41.3428 16.5433V16.9417C41.2375 16.9591 41.1673 16.9764 41.0269 16.9764C40.5532 16.9764 40.483 16.7165 40.483 16.3181H40.4654C40.132 16.8032 39.7986 17.0976 39.0441 17.0976C38.3246 17.0976 37.7631 16.7512 37.7631 15.989C37.7631 14.915 38.7984 14.8803 39.8337 14.7591C40.2198 14.7071 40.4479 14.6551 40.4479 14.2567C40.4479 13.6331 39.9916 13.4598 39.4301 13.4598C38.851 13.4598 38.4123 13.7197 38.3948 14.3606H37.9386V14.3433ZM41.8517 13.1654H42.3079V13.8236H42.3255C42.5009 13.3559 43.0098 13.0441 43.5714 13.0441C44.6593 13.0441 44.9927 13.6157 44.9927 14.5165V16.9764H44.5189V14.6032C44.5189 13.9449 44.3083 13.4425 43.5363 13.4425C42.7817 13.4425 42.343 14.0142 42.3255 14.7417V16.9764H41.8692V13.1654H41.8517ZM48.59 14.3606C48.4671 13.789 48.1162 13.4425 47.502 13.4425C46.5895 13.4425 46.1508 14.2567 46.1508 15.0535C46.1508 15.8677 46.6071 16.6819 47.502 16.6819C48.0811 16.6819 48.5724 16.2315 48.6251 15.5906H49.0988C48.976 16.5087 48.3619 17.063 47.502 17.063C46.3088 17.063 45.6771 16.1449 45.6771 15.0362C45.6771 13.9449 46.3263 13.0268 47.502 13.0268C48.3268 13.0268 48.9585 13.4598 49.0638 14.3433H48.59V14.3606ZM52.5206 14.7937C52.5031 14.1008 52.0644 13.4425 51.2923 13.4425C50.5202 13.4425 50.0991 14.1181 50.0113 14.7937H52.5206ZM50.0113 15.1921C50.0113 15.885 50.3798 16.6992 51.2923 16.6992C51.9767 16.6992 52.3627 16.3008 52.5031 15.7291H52.9769C52.7838 16.5953 52.275 17.0976 51.2923 17.0976C50.064 17.0976 49.5375 16.1622 49.5375 15.0709C49.5375 14.0835 50.064 13.0614 51.2923 13.0614C52.5382 13.0614 53.0295 14.1354 52.9944 15.1921H50.0113Z" fill="black" fill-opacity="0.2"/>
<path d="M25.1814 0H25.3569V22H25.1814V0ZM12.9508 16.9937V5.75118H11.3364L11.6347 5.11024H13.6176V16.9937H12.9508ZM14.5476 16.9937L18.9169 12.3512C19.8996 11.2772 20.5489 10.5323 20.8647 9.99528C21.1806 9.44095 21.3561 8.86929 21.3561 8.26299C21.3561 7.48347 21.0578 6.80787 20.4611 6.23622C19.8821 5.68189 19.1626 5.40472 18.3203 5.40472C17.4254 5.40472 16.6884 5.69921 16.0918 6.28819C15.5653 6.8252 15.2495 7.51811 15.1267 8.43622H14.4949C14.5651 7.39685 14.9336 6.58268 15.618 5.88976C16.355 5.14488 17.2499 4.79843 18.3554 4.79843C19.4434 4.79843 20.2857 5.12756 20.9525 5.82047C21.6193 6.51339 21.9527 7.31024 21.9527 8.22835C21.9527 8.88661 21.7948 9.51024 21.4789 10.0819C21.1455 10.6709 20.4962 11.5024 19.5311 12.5417L15.9338 16.3874H22.1457V16.9937H14.5476ZM2.80823 5.09291H1.93085L6.61606 15.2961L7.05475 14.3606L2.80823 5.09291ZM5.9668 5.09291H5.10697L8.19535 11.8142L8.61649 10.8614L5.9668 5.09291ZM4.38752 5.09291H3.52768L7.40571 13.5638L7.8444 12.611L4.38752 5.09291ZM0.351562 5.09291L5.79132 17.1323L6.26511 16.0929L1.2114 5.09291H0.351562ZM8.05497 5.09291H7.19513L6.94947 5.62992L7.37061 6.58268L8.05497 5.09291ZM9.63425 5.09291H8.75687L7.73911 7.36221L8.1778 8.31496L9.63425 5.09291ZM8.52875 9.12913L8.96744 10.0819L11.2135 5.09291H10.3537L8.52875 9.12913ZM29.814 7.44882H31.095C31.6214 7.44882 31.9022 7.24095 31.9022 6.70394C31.9022 6.18425 31.6214 5.95906 31.095 5.95906H29.814V7.44882ZM28.6383 5.07559H31.5161C32.4813 5.07559 33.0779 5.73386 33.0779 6.53071C33.0779 7.15433 32.8322 7.60472 32.2356 7.84724V7.86457C32.8147 8.00315 32.9726 8.5748 33.0077 9.09449C33.0252 9.42362 33.0252 10.0472 33.2358 10.3417H32.0601C31.9197 10.0126 31.9373 9.49291 31.8671 9.07717C31.7794 8.52283 31.5688 8.28032 30.9722 8.28032H29.814V10.3417H28.6383V5.07559ZM36.5172 8.02047C36.4295 7.48346 36.1838 7.22362 35.6749 7.22362C35.0081 7.22362 34.7975 7.72598 34.78 8.02047H36.5172ZM34.78 8.67874C34.8151 9.33701 35.1485 9.64882 35.7276 9.64882C36.1487 9.64882 36.4997 9.38898 36.5698 9.16378H37.4999C37.2016 10.0646 36.5698 10.4457 35.6925 10.4457C34.4817 10.4457 33.7271 9.61417 33.7271 8.43622C33.7271 7.29291 34.5168 6.42677 35.6925 6.42677C37.0085 6.42677 37.6578 7.50079 37.5701 8.67874H34.78ZM39.5529 6.53071H40.3426V7.24094H39.5529V9.12913C39.5529 9.47559 39.6407 9.56221 40.0092 9.56221C40.132 9.56221 40.2198 9.56221 40.3426 9.52756V10.3591C40.1671 10.3937 39.939 10.3937 39.7109 10.3937C39.0616 10.3937 38.4825 10.2378 38.4825 9.47559V7.24094H37.8508V6.53071H38.4825V5.3874H39.5529V6.53071ZM43.2379 8.47087C43.0625 8.62677 42.6764 8.62677 42.343 8.69606C42.0096 8.76536 41.7289 8.86929 41.7289 9.25039C41.7289 9.64882 42.0272 9.73543 42.3606 9.73543C43.1853 9.73543 43.2204 9.09449 43.2204 8.85197V8.47087H43.2379ZM40.7988 7.69134C40.8515 6.72126 41.7464 6.42677 42.6062 6.42677C43.3783 6.42677 44.3083 6.6 44.3083 7.50079V9.49291C44.3083 9.83937 44.3434 10.1858 44.4487 10.3417H43.3608C43.3257 10.2205 43.2906 10.0992 43.2906 9.97795C42.9572 10.3244 42.4483 10.463 41.9921 10.463C41.2726 10.463 40.676 10.0992 40.676 9.31968C40.676 8.45354 41.3428 8.24567 41.9921 8.15905C42.6413 8.05512 43.2555 8.08976 43.2555 7.65669C43.2555 7.22362 42.9396 7.15433 42.5711 7.15433C42.1675 7.15433 41.9219 7.32756 41.8868 7.72598H40.7988V7.69134ZM45.1682 6.53071H46.221V10.3417H45.1682V6.53071ZM46.2035 5.94173H45.1506V5.07559H46.2035V5.94173ZM47.0809 5.07559H48.1513V10.3417H47.0809V5.07559ZM28.6559 11.6929H32.0426V12.126H29.1648V14.0315H31.7267V14.4646H29.1648V16.9764H28.6559V11.6929ZM32.5865 13.1654H33.0603V16.9764H32.5865V13.1654ZM32.5865 11.6929H33.0603V12.4378H32.5865V11.6929ZM33.9553 13.1654H34.429V13.8236H34.4466C34.6045 13.3559 35.1134 13.0441 35.6749 13.0441C36.7629 13.0441 37.0963 13.6157 37.0963 14.5165V16.9764H36.6225V14.6032C36.6225 13.9449 36.4119 13.4425 35.6398 13.4425C34.8853 13.4425 34.4466 14.0142 34.429 14.7417V16.9764H33.9553V13.1654ZM40.4479 14.8803H40.4303C40.3777 15.0016 40.1671 15.0362 40.0267 15.0535C39.2195 15.1921 38.2193 15.1921 38.2193 15.937C38.2193 16.4047 38.6405 16.6819 39.0792 16.6819C39.7986 16.6819 40.4303 16.2315 40.4303 15.4866V14.8803H40.4479ZM37.9386 14.3433C37.9912 13.4425 38.6054 13.0614 39.5003 13.0614C40.1847 13.0614 40.9217 13.2693 40.9217 14.2913V16.3008C40.9217 16.474 41.0094 16.578 41.2024 16.578C41.2551 16.578 41.3077 16.5606 41.3428 16.5433V16.9417C41.2375 16.9591 41.1673 16.9764 41.0269 16.9764C40.5532 16.9764 40.483 16.7165 40.483 16.3181H40.4654C40.132 16.8032 39.7986 17.0976 39.0441 17.0976C38.3246 17.0976 37.7631 16.7512 37.7631 15.989C37.7631 14.915 38.7984 14.8803 39.8337 14.7591C40.2198 14.7071 40.4479 14.6551 40.4479 14.2567C40.4479 13.6331 39.9916 13.4598 39.4301 13.4598C38.851 13.4598 38.4123 13.7197 38.3948 14.3606H37.9386V14.3433ZM41.8517 13.1654H42.3079V13.8236H42.3255C42.5009 13.3559 43.0098 13.0441 43.5714 13.0441C44.6593 13.0441 44.9927 13.6157 44.9927 14.5165V16.9764H44.5189V14.6032C44.5189 13.9449 44.3083 13.4425 43.5363 13.4425C42.7817 13.4425 42.343 14.0142 42.3255 14.7417V16.9764H41.8692V13.1654H41.8517ZM48.59 14.3606C48.4671 13.789 48.1162 13.4425 47.502 13.4425C46.5895 13.4425 46.1508 14.2567 46.1508 15.0535C46.1508 15.8677 46.6071 16.6819 47.502 16.6819C48.0811 16.6819 48.5724 16.2315 48.6251 15.5906H49.0988C48.976 16.5087 48.3619 17.063 47.502 17.063C46.3088 17.063 45.6771 16.1449 45.6771 15.0362C45.6771 13.9449 46.3263 13.0268 47.502 13.0268C48.3268 13.0268 48.9585 13.4598 49.0638 14.3433H48.59V14.3606ZM52.5206 14.7937C52.5031 14.1008 52.0644 13.4425 51.2923 13.4425C50.5202 13.4425 50.0991 14.1181 50.0113 14.7937H52.5206ZM50.0113 15.1921C50.0113 15.885 50.3798 16.6992 51.2923 16.6992C51.9767 16.6992 52.3627 16.3008 52.5031 15.7291H52.9769C52.7838 16.5953 52.275 17.0976 51.2923 17.0976C50.064 17.0976 49.5375 16.1622 49.5375 15.0709C49.5375 14.0835 50.064 13.0614 51.2923 13.0614C52.5382 13.0614 53.0295 14.1354 52.9944 15.1921H50.0113Z" fill="black" fill-opacity="0.2"/>
<path d="M25.1814 0H25.3569V22H25.1814V0ZM12.9508 16.9937V5.75118H11.3364L11.6347 5.11024H13.6176V16.9937H12.9508ZM14.5476 16.9937L18.9169 12.3512C19.8996 11.2772 20.5489 10.5323 20.8647 9.99528C21.1806 9.44095 21.3561 8.86929 21.3561 8.26299C21.3561 7.48347 21.0578 6.80787 20.4611 6.23622C19.8821 5.68189 19.1626 5.40472 18.3203 5.40472C17.4254 5.40472 16.6884 5.69921 16.0918 6.28819C15.5653 6.8252 15.2495 7.51811 15.1267 8.43622H14.4949C14.5651 7.39685 14.9336 6.58268 15.618 5.88976C16.355 5.14488 17.2499 4.79843 18.3554 4.79843C19.4434 4.79843 20.2857 5.12756 20.9525 5.82047C21.6193 6.51339 21.9527 7.31024 21.9527 8.22835C21.9527 8.88661 21.7948 9.51024 21.4789 10.0819C21.1455 10.6709 20.4962 11.5024 19.5311 12.5417L15.9338 16.3874H22.1457V16.9937H14.5476ZM2.80823 5.09291H1.93085L6.61606 15.2961L7.05475 14.3606L2.80823 5.09291ZM5.9668 5.09291H5.10697L8.19535 11.8142L8.61649 10.8614L5.9668 5.09291ZM4.38752 5.09291H3.52768L7.40571 13.5638L7.8444 12.611L4.38752 5.09291ZM0.351562 5.09291L5.79132 17.1323L6.26511 16.0929L1.2114 5.09291H0.351562ZM8.05497 5.09291H7.19513L6.94947 5.62992L7.37061 6.58268L8.05497 5.09291ZM9.63425 5.09291H8.75687L7.73911 7.36221L8.1778 8.31496L9.63425 5.09291ZM8.52875 9.12913L8.96744 10.0819L11.2135 5.09291H10.3537L8.52875 9.12913ZM29.814 7.44882H31.095C31.6214 7.44882 31.9022 7.24095 31.9022 6.70394C31.9022 6.18425 31.6214 5.95906 31.095 5.95906H29.814V7.44882ZM28.6383 5.07559H31.5161C32.4813 5.07559 33.0779 5.73386 33.0779 6.53071C33.0779 7.15433 32.8322 7.60472 32.2356 7.84724V7.86457C32.8147 8.00315 32.9726 8.5748 33.0077 9.09449C33.0252 9.42362 33.0252 10.0472 33.2358 10.3417H32.0601C31.9197 10.0126 31.9373 9.49291 31.8671 9.07717C31.7794 8.52283 31.5688 8.28032 30.9722 8.28032H29.814V10.3417H28.6383V5.07559ZM36.5172 8.02047C36.4295 7.48346 36.1838 7.22362 35.6749 7.22362C35.0081 7.22362 34.7975 7.72598 34.78 8.02047H36.5172ZM34.78 8.67874C34.8151 9.33701 35.1485 9.64882 35.7276 9.64882C36.1487 9.64882 36.4997 9.38898 36.5698 9.16378H37.4999C37.2016 10.0646 36.5698 10.4457 35.6925 10.4457C34.4817 10.4457 33.7271 9.61417 33.7271 8.43622C33.7271 7.29291 34.5168 6.42677 35.6925 6.42677C37.0085 6.42677 37.6578 7.50079 37.5701 8.67874H34.78ZM39.5529 6.53071H40.3426V7.24094H39.5529V9.12913C39.5529 9.47559 39.6407 9.56221 40.0092 9.56221C40.132 9.56221 40.2198 9.56221 40.3426 9.52756V10.3591C40.1671 10.3937 39.939 10.3937 39.7109 10.3937C39.0616 10.3937 38.4825 10.2378 38.4825 9.47559V7.24094H37.8508V6.53071H38.4825V5.3874H39.5529V6.53071ZM43.2379 8.47087C43.0625 8.62677 42.6764 8.62677 42.343 8.69606C42.0096 8.76536 41.7289 8.86929 41.7289 9.25039C41.7289 9.64882 42.0272 9.73543 42.3606 9.73543C43.1853 9.73543 43.2204 9.09449 43.2204 8.85197V8.47087H43.2379ZM40.7988 7.69134C40.8515 6.72126 41.7464 6.42677 42.6062 6.42677C43.3783 6.42677 44.3083 6.6 44.3083 7.50079V9.49291C44.3083 9.83937 44.3434 10.1858 44.4487 10.3417H43.3608C43.3257 10.2205 43.2906 10.0992 43.2906 9.97795C42.9572 10.3244 42.4483 10.463 41.9921 10.463C41.2726 10.463 40.676 10.0992 40.676 9.31968C40.676 8.45354 41.3428 8.24567 41.9921 8.15905C42.6413 8.05512 43.2555 8.08976 43.2555 7.65669C43.2555 7.22362 42.9396 7.15433 42.5711 7.15433C42.1675 7.15433 41.9219 7.32756 41.8868 7.72598H40.7988V7.69134ZM45.1682 6.53071H46.221V10.3417H45.1682V6.53071ZM46.2035 5.94173H45.1506V5.07559H46.2035V5.94173ZM47.0809 5.07559H48.1513V10.3417H47.0809V5.07559ZM28.6559 11.6929H32.0426V12.126H29.1648V14.0315H31.7267V14.4646H29.1648V16.9764H28.6559V11.6929ZM32.5865 13.1654H33.0603V16.9764H32.5865V13.1654ZM32.5865 11.6929H33.0603V12.4378H32.5865V11.6929ZM33.9553 13.1654H34.429V13.8236H34.4466C34.6045 13.3559 35.1134 13.0441 35.6749 13.0441C36.7629 13.0441 37.0963 13.6157 37.0963 14.5165V16.9764H36.6225V14.6032C36.6225 13.9449 36.4119 13.4425 35.6398 13.4425C34.8853 13.4425 34.4466 14.0142 34.429 14.7417V16.9764H33.9553V13.1654ZM40.4479 14.8803H40.4303C40.3777 15.0016 40.1671 15.0362 40.0267 15.0535C39.2195 15.1921 38.2193 15.1921 38.2193 15.937C38.2193 16.4047 38.6405 16.6819 39.0792 16.6819C39.7986 16.6819 40.4303 16.2315 40.4303 15.4866V14.8803H40.4479ZM37.9386 14.3433C37.9912 13.4425 38.6054 13.0614 39.5003 13.0614C40.1847 13.0614 40.9217 13.2693 40.9217 14.2913V16.3008C40.9217 16.474 41.0094 16.578 41.2024 16.578C41.2551 16.578 41.3077 16.5606 41.3428 16.5433V16.9417C41.2375 16.9591 41.1673 16.9764 41.0269 16.9764C40.5532 16.9764 40.483 16.7165 40.483 16.3181H40.4654C40.132 16.8032 39.7986 17.0976 39.0441 17.0976C38.3246 17.0976 37.7631 16.7512 37.7631 15.989C37.7631 14.915 38.7984 14.8803 39.8337 14.7591C40.2198 14.7071 40.4479 14.6551 40.4479 14.2567C40.4479 13.6331 39.9916 13.4598 39.4301 13.4598C38.851 13.4598 38.4123 13.7197 38.3948 14.3606H37.9386V14.3433ZM41.8517 13.1654H42.3079V13.8236H42.3255C42.5009 13.3559 43.0098 13.0441 43.5714 13.0441C44.6593 13.0441 44.9927 13.6157 44.9927 14.5165V16.9764H44.5189V14.6032C44.5189 13.9449 44.3083 13.4425 43.5363 13.4425C42.7817 13.4425 42.343 14.0142 42.3255 14.7417V16.9764H41.8692V13.1654H41.8517ZM48.59 14.3606C48.4671 13.789 48.1162 13.4425 47.502 13.4425C46.5895 13.4425 46.1508 14.2567 46.1508 15.0535C46.1508 15.8677 46.6071 16.6819 47.502 16.6819C48.0811 16.6819 48.5724 16.2315 48.6251 15.5906H49.0988C48.976 16.5087 48.3619 17.063 47.502 17.063C46.3088 17.063 45.6771 16.1449 45.6771 15.0362C45.6771 13.9449 46.3263 13.0268 47.502 13.0268C48.3268 13.0268 48.9585 13.4598 49.0638 14.3433H48.59V14.3606ZM52.5206 14.7937C52.5031 14.1008 52.0644 13.4425 51.2923 13.4425C50.5202 13.4425 50.0991 14.1181 50.0113 14.7937H52.5206ZM50.0113 15.1921C50.0113 15.885 50.3798 16.6992 51.2923 16.6992C51.9767 16.6992 52.3627 16.3008 52.5031 15.7291H52.9769C52.7838 16.5953 52.275 17.0976 51.2923 17.0976C50.064 17.0976 49.5375 16.1622 49.5375 15.0709C49.5375 14.0835 50.064 13.0614 51.2923 13.0614C52.5382 13.0614 53.0295 14.1354 52.9944 15.1921H50.0113Z" fill="black" fill-opacity="0.2"/>
</svg>
