<svg width="18" height="18" viewBox="0 0 18 18" fill="none" xmlns="http://www.w3.org/2000/svg">
<path d="M9.48347 14.068L9 16L8.51653 14.068C8.2398 12.9603 7.66724 11.9486 6.86007 11.1411C6.0529 10.3336 5.04146 9.76065 3.93387 9.48347L2 9L3.93387 8.51653C5.04146 8.23935 6.0529 7.66638 6.86007 6.85888C7.66724 6.05138 8.2398 5.0397 8.51653 3.932L9 2L9.48347 3.932C9.76036 5.03993 10.3332 6.05176 11.1407 6.85929C11.9482 7.66681 12.9601 8.23964 14.068 8.51653L16 9L14.068 9.48347C12.9601 9.76036 11.9482 10.3332 11.1407 11.1407C10.3332 11.9482 9.76036 12.9601 9.48347 14.068Z" stroke="#D6BB8F" stroke-width="2" stroke-linecap="round" stroke-linejoin="round"/>
</svg>
