<svg width="116" height="100" viewBox="0 0 116 100" fill="none" xmlns="http://www.w3.org/2000/svg">
<g clip-path="url(#clip0_14660_531100)">
<path d="M115.597 30.231L115.529 29.7965C115.507 29.7279 115.507 29.6593 115.484 29.5907L107.382 9.76446V0H8.48258V9.76446L0.493001 29.5907C0.470432 29.6593 0.470432 29.7507 0.447862 29.8193L0.380154 30.231C0.267307 30.9399 0.222168 31.6716 0.222168 32.4034C0.222168 37.7087 3.13363 42.3051 7.44439 44.6604V100H108.555V44.6604C112.844 42.3051 115.778 37.6858 115.778 32.4034C115.778 31.6716 115.71 30.9399 115.597 30.231ZM110.158 29.2705H92.4635L90.3419 14.7953H104.335L110.158 29.2705ZM13.2899 4.8708H102.575V9.7416H13.2899V4.8708ZM88.3333 34.1413L88.6041 35.9021L87.1822 37.823C85.4669 40.1326 82.8715 41.459 80.0277 41.459C77.184 41.459 74.5885 40.1326 72.8732 37.823L71.4288 35.8564L71.3385 34.1185H88.3333V34.1413ZM71.0902 29.2705L70.3906 14.7953H85.4895L87.6111 29.2705H71.0902ZM66.4861 34.1413L66.5763 35.9021L65.1545 37.823C63.4392 40.1326 60.8437 41.459 57.9999 41.459C55.1562 41.459 52.5607 40.1326 50.8454 37.823L49.3784 35.8564L49.4687 34.1413H66.4861ZM49.717 29.2705L50.4392 14.7953H65.5607L66.2604 29.2705H49.717ZM28.4114 29.2705L30.5104 14.7953H45.6093L44.8871 29.2705H28.4114ZM44.6388 34.1413L44.5486 35.925L43.1492 37.823C41.434 40.1326 38.8385 41.459 35.9947 41.459C33.151 41.459 30.5555 40.1326 28.8402 37.823L27.4409 35.9479L27.7118 34.1413H44.6388ZM11.6423 14.7953H25.6354L23.5364 29.2705H5.81939L11.6423 14.7953ZM5.21001 34.1413H22.8593L22.4756 36.0393L21.144 37.8459C19.4288 40.1555 16.8333 41.4818 13.9895 41.4818C9.63363 41.459 5.99995 38.3032 5.21001 34.1413ZM94.1111 95.1292H74.8593V78.0471H77.2742C78.6058 78.0471 79.6892 76.9495 79.6892 75.6003C79.6892 74.2511 78.6058 73.1535 77.2742 73.1535H74.8593V56.0714H94.1111V95.1292ZM103.748 95.1292H98.9409V51.2234H70.052V95.1292H12.2743V46.2383C12.8385 46.3069 13.4027 46.3526 13.9895 46.3526C18.4808 46.3526 22.4982 44.1573 25.0034 40.7729C27.5086 44.1573 31.5034 46.3526 36.0173 46.3526C40.5312 46.3526 44.5034 44.1573 47.0312 40.7729C49.5364 44.1573 53.5312 46.3526 58.0451 46.3526C62.559 46.3526 66.5312 44.1573 69.059 40.7729C71.5642 44.1573 75.559 46.3526 80.0729 46.3526C84.5867 46.3526 88.559 44.1573 91.0867 40.7729C93.5919 44.1573 97.5867 46.3526 102.101 46.3526C102.687 46.3526 103.252 46.3069 103.816 46.2383L103.748 95.1292ZM102.01 41.459C99.1666 41.459 96.5711 40.1326 94.8558 37.823L93.4565 35.9479L93.1857 34.1413H110.79C109.977 38.3032 106.366 41.459 102.01 41.459Z" fill="#957127"/>
</g>
<path d="M23.4727 78.0203H23.7025C24.6217 78.0203 25.1675 76.4672 25.1675 75.5798V51.8678C25.1675 51.0358 24.6504 49.566 23.7025 49.566H23.4727V49.0945H32.3777C42.1446 49.0945 47.9472 56.222 47.9472 63.9041C47.9472 71.1147 42.518 78.464 31.7745 78.464H23.4727V78.0203ZM30.6254 50.6476H28.2699V76.911H30.7116C37.3473 76.911 44.8161 73.0006 44.8161 64.5974C44.8161 56.9708 38.7836 50.6476 30.6254 50.6476Z" fill="#957127"/>
<path d="M46.7993 92.7034V93.1418H40.2477V92.7034H40.4736C41.4526 92.7034 41.9797 91.2422 41.9797 90.329V66.5119C41.9797 65.6718 41.4902 64.2106 40.4736 64.2106H40.2477V63.7722H57.8694V67.9001H57.4175C57.4175 66.5119 56.5139 65.3065 54.4806 65.3065H45.0673V76.5575H52.6732C54.1041 76.5575 55.1584 75.5712 55.1584 74.4753H55.6102V80.0643H55.1584C55.1584 79.0049 54.1417 78.0917 52.6732 78.0917H45.0673V90.329C45.0673 91.2057 45.6321 92.7034 46.5734 92.7034H46.7993Z" fill="#957127"/>
<defs>
<clipPath id="clip0_14660_531100">
<rect width="115.556" height="100" fill="white" transform="translate(0.222168)"/>
</clipPath>
</defs>
</svg>
