<svg width="102" height="100" viewBox="0 0 102 100" fill="none" xmlns="http://www.w3.org/2000/svg">
<rect width="102" height="100" fill="#F5F5F5"/>
<g id="Desktop / FAQ Page" clip-path="url(#clip0_1434_12018)">
<rect width="1440" height="3402" transform="translate(-537 -528)" fill="white"/>
<g id="stack">
<g id="Body Copy">
<g id="Frame 26269">
<g id="Frame 26263">
<g id="Group 26090">
<g id="Group">
<g id="Group_2">
<g id="Group_3">
<path id="Vector" d="M7.09745 99.9979C7.93839 99.9979 8.79152 99.9979 9.63246 99.9979C11.9237 99.9979 14.215 99.9979 16.5062 99.9979C19.8578 99.9979 23.2094 99.9979 26.561 99.9979C30.6316 99.9979 34.7145 99.9979 38.7851 99.9979C43.197 99.9979 47.6211 99.9979 52.033 99.9979C56.3961 99.9979 60.7715 99.9979 65.1346 99.9979C69.1321 99.9979 73.1175 99.9979 77.115 99.9979C80.3447 99.9979 83.5744 99.9979 86.8041 99.9979C88.8882 99.9979 90.9844 99.9979 93.0685 99.9979C94.9088 99.9979 96.7248 100.095 98.3457 98.9652C100.137 97.7139 101.137 95.8065 101.137 93.6197C101.137 93.1824 101.137 92.745 101.137 92.3198C101.137 90.3638 101.137 88.3957 101.137 86.4397C101.137 83.3053 101.137 80.183 101.137 77.0486C101.137 73.1245 101.137 69.1882 101.137 65.2641C101.137 60.9026 101.137 56.5533 101.137 52.1918C101.137 47.7939 101.137 43.396 101.137 38.9981C101.137 34.8918 101.137 30.7733 101.137 26.6669C101.137 23.2288 101.137 19.7906 101.137 16.3525C101.137 13.9713 101.137 11.5779 101.137 9.19675C101.137 8.21268 101.149 7.21647 101.137 6.22026C101.076 2.80641 98.3457 0.0607447 94.921 0C94.6894 0 94.4457 0 94.2141 0C92.5688 0 90.9357 0 89.2904 0C86.4141 0 83.5256 0 80.6494 0C76.8712 0 73.0931 0 69.3027 0C65.0005 0 60.7105 0 56.4083 0C51.9842 0 47.548 0 43.1239 0C38.8948 0 34.6657 0 30.4366 0C26.7925 0 23.1485 0 19.5044 0C16.8231 0 14.154 0 11.4728 0C10.1078 0 8.74277 0 7.36558 0C5.74463 0 4.29431 0.485958 3.039 1.50647C1.57649 2.69706 0.869609 4.5437 0.857422 6.40249C0.857422 7.67813 0.857422 8.94162 0.857422 10.2173C0.857422 12.8293 0.857422 15.4535 0.857422 18.0655C0.857422 21.6494 0.857422 25.2455 0.857422 28.8294C0.857422 33.0208 0.857422 37.2243 0.857422 41.4157C0.857422 45.8258 0.857422 50.2359 0.857422 54.6581C0.857422 58.9588 0.857422 63.2717 0.857422 67.5724C0.857422 71.375 0.857422 75.1898 0.857422 78.9924C0.857422 81.9203 0.857422 84.8603 0.857422 87.7882C0.857422 89.5012 0.857422 91.2142 0.857422 92.9394C0.857422 93.2188 0.857422 93.4982 0.857422 93.7776C0.942735 97.2036 3.67275 99.925 7.09745 99.9979C8.37715 100.022 9.5959 98.8559 9.53496 97.5681C9.47403 96.2317 8.46246 95.1626 7.09745 95.1383C7.01214 95.1383 6.92683 95.1262 6.84151 95.1262C6.51245 95.1383 7.30464 95.2598 6.99995 95.1505C6.86589 95.1019 6.67089 95.0411 6.53682 95.029C6.2687 94.9925 6.78058 95.0776 6.74401 95.1262C6.74401 95.1383 6.50026 95.0047 6.4637 94.9804C6.40276 94.9439 6.32964 94.8832 6.25651 94.8589C6.02495 94.7617 6.52464 95.1505 6.3662 94.9561C6.25651 94.8225 6.09807 94.701 5.9762 94.5795C5.68369 94.2879 6.1712 94.9439 5.9762 94.5673C5.92745 94.4823 5.86651 94.3851 5.81776 94.2879C5.6837 94.0692 5.85432 94.2029 5.80557 94.2879C5.79338 94.3243 5.8787 94.543 5.81776 94.2758C5.79338 94.1786 5.76901 94.0692 5.73244 93.9599C5.61057 93.559 5.76901 94.0571 5.74463 94.1178C5.76901 94.0692 5.73244 93.9234 5.73244 93.8748C5.73244 93.8384 5.73244 93.8141 5.73244 93.7898C5.73244 93.7776 5.73244 93.7776 5.73244 93.7655C5.73244 93.729 5.73244 93.7048 5.73244 93.6683C5.73244 93.2795 5.73244 92.8908 5.73244 92.502C5.73244 90.6311 5.73244 88.748 5.73244 86.8771C5.73244 83.852 5.73244 80.8269 5.73244 77.8018C5.73244 73.9627 5.73244 70.1115 5.73244 66.2725C5.73244 61.996 5.73244 57.7196 5.73244 53.4553C5.73244 49.0939 5.73244 44.7202 5.73244 40.3588C5.73244 36.2403 5.73244 32.1096 5.73244 27.9912C5.73244 24.5044 5.73244 21.0177 5.73244 17.5188C5.73244 15.0039 5.73244 12.477 5.73244 9.96213C5.73244 8.75938 5.73244 7.55664 5.73244 6.36604C5.73244 6.2567 5.73244 6.15951 5.73244 6.05017C5.61057 6.46323 5.73244 5.61281 5.73244 6.05017C5.75682 5.95298 5.79338 5.84364 5.81776 5.7343C5.8787 5.46702 5.79338 5.69785 5.80557 5.72215C5.85432 5.81934 5.6837 5.94083 5.81776 5.72215C5.86651 5.63711 5.92745 5.53992 5.9762 5.44272C6.11026 5.1876 5.96401 5.44272 5.96401 5.43058C5.85432 5.57636 5.82995 5.58851 5.91526 5.49132C5.95182 5.45487 5.98838 5.40628 6.02495 5.36983C6.0737 5.32124 6.39057 4.96892 6.42714 4.99321C6.47589 5.02966 6.00057 5.24834 6.25651 5.139C6.32964 5.1147 6.39057 5.05396 6.4637 5.01751C6.50026 4.99321 6.74401 4.87172 6.74401 4.87172C6.76839 4.92032 6.25651 5.00536 6.53682 4.96892C6.58557 4.95677 7.08526 4.81098 7.08526 4.82313C7.09745 4.87172 6.43932 4.84742 6.92683 4.85957H7.09745C7.10964 4.85957 7.10964 4.85957 7.12183 4.85957C7.15839 4.85957 7.19495 4.85957 7.23151 4.85957C7.37777 4.85957 7.52402 4.85957 7.68245 4.85957C9.21809 4.85957 10.7659 4.85957 12.3015 4.85957C15.1047 4.85957 17.8956 4.85957 20.6988 4.85957C24.3794 4.85957 28.0479 4.85957 31.7285 4.85957C35.9332 4.85957 40.1501 4.85957 44.3548 4.85957C48.7667 4.85957 53.1786 4.85957 57.5905 4.85957C61.8074 4.85957 66.0121 4.85957 70.229 4.85957C73.9096 4.85957 77.5903 4.85957 81.2831 4.85957C84.0863 4.85957 86.9016 4.85957 89.7047 4.85957C91.2525 4.85957 92.8126 4.85957 94.3604 4.85957C94.5554 4.85957 95.1282 4.94462 95.2988 4.87172C95.2623 4.88387 94.8235 4.75023 95.0551 4.84743C95.1282 4.87172 95.2135 4.88387 95.2866 4.89602C95.2623 4.88387 95.5913 4.98106 95.5913 4.99321C95.5791 5.02966 95.1526 4.75023 95.3719 4.90817C95.4816 4.98106 95.6523 5.0904 95.7863 5.139C96.0666 5.24834 95.4694 4.82313 95.6766 5.04181C95.7498 5.1147 95.8351 5.17545 95.9082 5.24834C95.9691 5.30909 96.0179 5.36983 96.0666 5.41843C96.3348 5.6857 95.9204 5.33338 95.9813 5.29694C95.9935 5.28479 96.2007 5.67355 96.2251 5.69785C96.3591 5.91653 96.1885 5.79504 96.2373 5.69785C96.2129 5.64926 96.2007 5.60066 96.1763 5.55206C96.2007 5.62496 96.2251 5.69785 96.2494 5.78289C96.2616 5.85579 96.286 5.94083 96.3104 6.01372C96.4323 6.40249 96.2738 5.84364 96.2982 5.85579C96.3226 5.85579 96.3104 6.2324 96.3104 6.3296C96.3104 7.52019 96.3104 8.69864 96.3104 9.88924C96.3104 12.4041 96.3104 14.9067 96.3104 17.4216C96.3104 20.9205 96.3104 24.4194 96.3104 27.9183C96.3104 32.0246 96.3104 36.1188 96.3104 40.2251C96.3104 44.5866 96.3104 48.9602 96.3104 53.3217C96.3104 57.6224 96.3104 61.911 96.3104 66.2117C96.3104 70.0386 96.3104 73.8777 96.3104 77.7046C96.3104 80.7418 96.3104 83.7669 96.3104 86.8042C96.3104 88.6872 96.3104 90.5825 96.3104 92.4656C96.3104 92.8543 96.3104 93.2552 96.3104 93.644C96.3104 93.6805 96.3104 93.7169 96.3104 93.7533C96.3104 93.7655 96.3104 93.7655 96.3104 93.7776C96.3104 93.8019 96.3104 93.7898 96.3104 93.8627C96.2982 94.4215 96.3226 93.7898 96.3469 93.7898C96.3591 93.7898 96.2373 94.215 96.2373 94.2636C96.1519 94.6402 96.2129 94.0692 96.3104 94.13C96.3104 94.13 96.2129 94.3243 96.2007 94.3365C96.1641 94.3972 96.1154 94.4701 96.0788 94.543C95.9448 94.7982 96.091 94.543 96.091 94.5552C96.0544 94.4701 96.2616 94.3851 96.0301 94.6159C95.9569 94.6888 95.8838 94.7617 95.8107 94.8346C95.7985 94.8468 95.6401 94.9925 95.6279 94.9925C95.5913 94.9561 96.1641 94.6767 95.7376 94.8832C95.701 94.8954 95.3354 95.1262 95.3232 95.114C95.2866 95.0533 95.8107 95.0047 95.5304 95.0168C95.4573 95.0168 95.3719 95.0654 95.2988 95.0897C95.3232 95.0776 94.9819 95.1626 94.9819 95.1626C94.9819 95.1262 95.5548 95.1383 95.1404 95.1262C94.2629 95.114 93.3976 95.1262 92.5201 95.1262C90.2897 95.1262 88.0594 95.1262 85.8291 95.1262C82.5384 95.1262 79.2478 95.1262 75.9572 95.1262C71.9474 95.1262 67.9256 95.1262 63.9158 95.1262C59.5649 95.1262 55.2139 95.1262 50.8752 95.1262C46.5364 95.1262 42.1854 95.1262 37.8467 95.1262C33.8491 95.1262 29.8394 95.1262 25.8419 95.1262C22.5757 95.1262 19.3094 95.1262 16.0431 95.1262C13.8494 95.1262 11.6556 95.1262 9.44965 95.1262C8.68183 95.1262 7.90183 95.1262 7.13401 95.1262C5.85432 95.1262 4.63556 96.2439 4.6965 97.556C4.72088 98.8802 5.73245 99.9979 7.09745 99.9979Z" fill="#957127"/>
</g>
</g>
<g id="Group_4">
<g id="Group_5">
<path id="Vector_2" d="M39.9307 36.9692C43.721 34.8553 47.5235 32.7535 51.3139 30.6396C51.8501 30.3359 52.3864 30.0443 52.9226 29.7406C52.1061 29.7406 51.2773 29.7406 50.4607 29.7406C54.0683 31.8424 57.6636 33.9563 61.2711 36.058C61.783 36.3618 62.2949 36.6533 62.8068 36.9571C64.4033 37.8925 66.4752 36.7019 66.4752 34.8553C66.4752 31.1863 66.4752 27.5052 66.4752 23.8362C66.4752 18.029 66.4752 12.234 66.4752 6.42679C66.4752 5.0904 66.4752 3.76617 66.4752 2.42979C66.4752 1.1177 65.354 0 64.0377 0C61.1736 0 58.3095 0 55.4455 0C50.9117 0 46.3657 0 41.8319 0C40.7838 0 39.7479 0 38.6997 0C37.3835 0 36.2622 1.1177 36.2622 2.42979C36.2622 6.09877 36.2622 9.77989 36.2622 13.4489C36.2622 19.2561 36.2622 25.0511 36.2622 30.8583C36.2622 32.1947 36.2622 33.5189 36.2622 34.8553C36.2622 36.1309 37.3835 37.3458 38.6997 37.2851C40.016 37.2243 41.1372 36.216 41.1372 34.8553C41.1372 31.1863 41.1372 27.5052 41.1372 23.8362C41.1372 18.029 41.1372 12.234 41.1372 6.42679C41.1372 5.0904 41.1372 3.76617 41.1372 2.42979C40.3207 3.24377 39.5163 4.0456 38.6997 4.85957C41.5638 4.85957 44.4279 4.85957 47.292 4.85957C51.8257 4.85957 56.3717 4.85957 60.9055 4.85957C61.9536 4.85957 62.9896 4.85957 64.0377 4.85957C63.2211 4.0456 62.4167 3.24377 61.6002 2.42979C61.6002 6.09877 61.6002 9.77989 61.6002 13.4489C61.6002 19.2561 61.6002 25.0511 61.6002 30.8583C61.6002 32.1947 61.6002 33.5189 61.6002 34.8553C62.8189 34.1507 64.0499 33.4582 65.2686 32.7535C61.5636 30.591 57.8586 28.4164 54.1536 26.2539C53.5808 25.9137 52.9958 25.5006 52.3498 25.2941C51.2651 24.9418 50.2657 25.6464 49.3639 26.1567C47.1457 27.3837 44.9276 28.6229 42.7094 29.8499C40.9666 30.8219 39.2238 31.7938 37.4688 32.7535C36.3597 33.3731 35.8966 34.9889 36.5913 36.0823C37.3225 37.2243 38.7363 37.6374 39.9307 36.9692Z" fill="#957127"/>
</g>
</g>
</g>
<g id="Group_6">
<g id="Group_7">
<path id="Vector_3" d="M47.9739 78.2894C42.0263 78.2894 36.0788 78.2894 30.1191 78.2894C27.6084 78.2894 25.0734 78.2043 22.5628 78.2894C22.514 78.2894 22.4287 78.2772 22.38 78.2894C22.38 78.2894 22.965 78.4352 22.5506 78.3015C22.6481 78.338 22.7578 78.3866 22.8553 78.423C23.1356 78.666 23.1844 78.7024 23.0015 78.5202C23.1722 78.6781 23.2697 78.8604 23.3306 79.0791C23.2697 78.8239 23.2697 78.8847 23.3428 79.2613C23.4281 79.1155 23.3428 78.6538 23.3428 78.4838C23.3428 76.8923 23.3428 75.3129 23.3428 73.7214C23.3428 71.814 23.3428 69.9188 23.3428 68.0114C23.3428 67.3067 23.3428 66.5899 23.3428 65.8853C23.3428 65.6666 23.4525 65.1321 23.3428 64.9377V64.9255C23.3306 65.0349 23.3062 65.1442 23.294 65.2657C23.3672 65.0106 23.3428 65.0713 23.2209 65.4236C23.1478 65.5087 23.0869 65.5937 23.0137 65.6788C23.1965 65.4965 23.1478 65.533 22.8675 65.776C22.77 65.8124 22.6603 65.861 22.5628 65.8974C22.8187 65.8367 22.7578 65.8367 22.38 65.9096C22.4043 65.9217 22.4775 65.9096 22.5018 65.9096C22.7944 65.9339 23.099 65.9096 23.4037 65.9096C24.6834 65.9096 25.9753 65.9096 27.255 65.9096C33.9704 65.9096 40.6857 65.9096 47.4011 65.9096C47.5473 65.9096 47.8154 65.9703 47.9617 65.9096C47.9617 65.9096 47.3767 65.7638 47.7911 65.8974C47.6936 65.861 47.5839 65.8124 47.4864 65.776C47.2061 65.533 47.1573 65.4965 47.3401 65.6788C47.267 65.5937 47.2061 65.5087 47.1329 65.4236C46.9989 65.0713 46.9745 65.0106 47.0598 65.2657C46.9379 64.7068 47.0111 64.9255 47.0111 65.1199C46.9623 66.3956 47.0111 67.6955 47.0111 68.9711C47.0111 72.2999 47.0111 75.6409 47.0111 78.9697C47.0111 79.0305 46.9745 79.1884 47.0111 79.2491V79.2613C47.0233 79.152 47.0476 79.0426 47.0598 78.9211C46.9867 79.1763 47.0111 79.1155 47.1329 78.7632C47.2061 78.6781 47.267 78.5931 47.3401 78.5081C47.1573 78.6903 47.2061 78.6538 47.4864 78.4109C47.5839 78.3744 47.6936 78.3258 47.7911 78.2894C47.5229 78.3623 47.5961 78.3623 47.9739 78.2894C46.7064 78.3623 45.4754 79.3585 45.5364 80.7192C45.5973 81.9705 46.6089 83.2218 47.9739 83.149C50.1676 83.0275 51.8008 81.436 51.8739 79.2248C51.8861 78.8482 51.8739 78.4716 51.8739 78.095C51.8739 76.297 51.8739 74.4989 51.8739 72.7009C51.8739 70.7692 51.8739 68.8496 51.8739 66.918C51.8739 65.2293 52.0567 63.492 50.7283 62.1799C49.5948 61.05 48.2054 61.0379 46.7551 61.0379C45.3292 61.0379 43.9154 61.0379 42.4895 61.0379C38.4432 61.0379 34.3969 61.0379 30.3385 61.0379C27.7303 61.0379 25.11 61.0014 22.5018 61.0379C21.0881 61.0622 19.8084 61.6939 19.0528 62.8967C18.5774 63.6499 18.4799 64.5003 18.4799 65.3629C18.4799 66.8815 18.4799 68.4123 18.4799 69.9309C18.4799 73.0289 18.3581 76.1512 18.4799 79.2491C18.5653 81.4238 20.2106 83.0639 22.3922 83.1368C22.5872 83.149 22.7944 83.1368 23.0015 83.1368C24.1959 83.1368 25.4025 83.1368 26.5969 83.1368C30.57 83.1368 34.531 83.1368 38.5041 83.1368C41.5023 83.1368 44.5004 83.1368 47.5108 83.1368C47.6692 83.1368 47.8276 83.1368 47.9861 83.1368C49.2658 83.1368 50.4845 82.0191 50.4236 80.707C50.3505 79.3949 49.3389 78.2894 47.9739 78.2894Z" fill="#957127"/>
</g>
</g>
<g id="Group_8">
<g id="Group_9">
<path id="Vector_4" d="M81.1249 74.705C75.7137 74.705 70.2902 74.705 64.8789 74.705C64.1233 74.705 63.3555 74.705 62.5999 74.705C61.3202 74.705 60.1014 75.8227 60.1623 77.1348C60.2233 78.4469 61.2349 79.5646 62.5999 79.5646C68.0111 79.5646 73.4346 79.5646 78.8459 79.5646C79.6015 79.5646 80.3693 79.5646 81.1249 79.5646C82.4046 79.5646 83.6234 78.4469 83.5624 77.1348C83.5015 75.8106 82.4899 74.705 81.1249 74.705Z" fill="#957127"/>
</g>
</g>
<g id="Group_10">
<g id="Group_11">
<path id="Vector_5" d="M73.203 64.6213C70.1074 64.6213 67.0239 64.6213 63.9283 64.6213C63.4896 64.6213 63.0386 64.6213 62.5999 64.6213C61.3202 64.6213 60.1014 65.739 60.1623 67.0511C60.2233 68.3632 61.2349 69.4809 62.5999 69.4809C65.6955 69.4809 68.7789 69.4809 71.8746 69.4809C72.3133 69.4809 72.7643 69.4809 73.203 69.4809C74.4827 69.4809 75.7015 68.3632 75.6405 67.0511C75.5796 65.7269 74.568 64.6213 73.203 64.6213Z" fill="#957127"/>
</g>
</g>
</g>
</g>
</g>
</g>
</g>
</g>
<defs>
<clipPath id="clip0_1434_12018">
<rect width="1440" height="3402" fill="white" transform="translate(-537 -528)"/>
</clipPath>
</defs>
</svg>
