<svg width="72" height="100" viewBox="0 0 72 100" fill="none" xmlns="http://www.w3.org/2000/svg">
<path d="M42.7379 0H9.04992C4.40081 0.0055 0.633488 3.73317 0.62793 8.33333V68.3333C0.633488 72.9335 4.40081 76.6612 9.04992 76.6667H24.2095V81.055C24.2225 91.5127 32.7871 99.9872 43.356 100H69.6882C70.6185 100 71.3726 99.2538 71.3726 98.3333V55.8467C71.3672 51.6845 69.9362 47.6472 67.3132 44.3933L51.1598 24.4133V8.33333C51.1543 3.73317 47.387 0.0055 42.7379 0ZM42.7379 3.33333C45.5287 3.33333 47.7911 5.57183 47.7911 8.33333V52.0467L41.0535 44.9633V3.33333H42.7379ZM37.6847 41.4217L34.8027 38.3917C34.1767 37.746 33.442 37.2132 32.6315 36.8167V3.33333H37.6847V41.4217ZM3.99672 68.3333V8.33333C3.99672 5.57183 6.25904 3.33333 9.04992 3.33333H29.2627V35.97H29.2475C27.1339 35.9008 25.0898 36.7208 23.6216 38.2267C20.779 41.07 20.5894 45.5863 23.1837 48.6533L29.2627 55.7617V73.3333H9.04992C6.25904 73.3333 3.99672 71.0947 3.99672 68.3333ZM37.8531 73.3333H32.6315V59.7017L37.6847 65.61V70.76C37.6897 71.6202 37.746 72.4795 37.8531 73.3333ZM64.6805 46.4767C66.8284 49.1377 68.0001 52.4412 68.0038 55.8467V96.6667H43.356C34.6465 96.6565 27.5886 89.6728 27.5783 81.055V76.6667H38.5184C40.2746 82.9152 44.6778 88.0687 50.5386 90.8368C51.4398 91.2625 52.5197 90.8507 52.8692 89.925C53.1666 89.137 52.8367 88.2247 52.0672 87.8672C45.4041 84.771 41.0759 78.13 41.0535 70.76V64.997C41.0535 64.6038 40.9126 64.2233 40.6559 63.9233L25.7558 46.5C24.2829 44.7593 24.3902 42.1958 26.0034 40.5817C26.8409 39.7287 28.0024 39.264 29.2037 39.3017C30.4 39.3148 31.5386 39.8117 32.3552 40.6767L53.8367 63.2622C54.4746 63.9328 55.5413 63.965 56.2193 63.3337C56.8976 62.7022 56.9296 61.646 56.2909 60.9752L51.1598 55.5883V29.755L64.6805 46.4767Z" fill="#957127"/>
<path d="M10.7342 8.33337C11.6645 8.33337 12.4186 9.07954 12.4186 10V28.3334C12.4186 29.2539 11.6645 30 10.7342 30C9.80391 30 9.0498 29.2539 9.0498 28.3334V10C9.0498 9.07954 9.80391 8.33337 10.7342 8.33337Z" fill="#957127"/>
<path d="M19.1561 8.33337C20.0864 8.33337 20.8405 9.07954 20.8405 10V20C20.8405 20.9205 20.0864 21.6667 19.1561 21.6667C18.2258 21.6667 17.4717 20.9205 17.4717 20V10C17.4717 9.07954 18.2258 8.33337 19.1561 8.33337Z" fill="#957127"/>
<path d="M20.8406 55H10.7342C9.80391 55 9.0498 55.7462 9.0498 56.6667V66.6667C9.0498 67.5872 9.80391 68.3333 10.7342 68.3333H20.8406C21.7709 68.3333 22.525 67.5872 22.525 66.6667V56.6667C22.525 55.7462 21.7709 55 20.8406 55ZM19.1562 65H12.4186V58.3333H19.1562V65Z" fill="#957127"/>
</svg>
