<svg width="72" height="100" viewBox="0 0 72 100" fill="none" xmlns="http://www.w3.org/2000/svg">
<path d="M42.7374 0H9.04943C4.40032 0.0055 0.633 3.73317 0.627441 8.33333V68.3333C0.633 72.9335 4.40032 76.6612 9.04943 76.6667H24.209V81.055C24.222 91.5127 32.7866 99.9872 43.3555 100H69.6877C70.618 100 71.3721 99.2538 71.3721 98.3333V55.8467C71.3667 51.6845 69.9357 47.6472 67.3127 44.3933L51.1594 24.4133V8.33333C51.1538 3.73317 47.3865 0.0055 42.7374 0ZM42.7374 3.33333C45.5283 3.33333 47.7906 5.57183 47.7906 8.33333V52.0467L41.053 44.9633V3.33333H42.7374ZM37.6842 41.4217L34.8022 38.3917C34.1763 37.746 33.4415 37.2132 32.631 36.8167V3.33333H37.6842V41.4217ZM3.99624 68.3333V8.33333C3.99624 5.57183 6.25855 3.33333 9.04943 3.33333H29.2622V35.97H29.247C27.1335 35.9008 25.0893 36.7208 23.6211 38.2267C20.7786 41.07 20.5889 45.5863 23.1832 48.6533L29.2622 55.7617V73.3333H9.04943C6.25855 73.3333 3.99624 71.0947 3.99624 68.3333ZM37.8526 73.3333H32.631V59.7017L37.6842 65.61V70.76C37.6892 71.6202 37.7455 72.4795 37.8526 73.3333ZM64.68 46.4767C66.828 49.1377 67.9996 52.4412 68.0033 55.8467V96.6667H43.3555C34.646 96.6565 27.5881 89.6728 27.5778 81.055V76.6667H38.518C40.2741 82.9152 44.6773 88.0687 50.5382 90.8368C51.4393 91.2625 52.5192 90.8507 52.8687 89.925C53.1661 89.137 52.8362 88.2247 52.0667 87.8672C45.4036 84.771 41.0754 78.13 41.053 70.76V64.997C41.053 64.6038 40.9122 64.2233 40.6555 63.9233L25.7553 46.5C24.2824 44.7593 24.3897 42.1958 26.0029 40.5817C26.8404 39.7287 28.0019 39.264 29.2032 39.3017C30.3995 39.3148 31.5382 39.8117 32.3547 40.6767L53.8362 63.2622C54.4741 63.9328 55.5408 63.965 56.2188 63.3337C56.8971 62.7022 56.9291 61.646 56.2904 60.9752L51.1594 55.5883V29.755L64.68 46.4767Z" fill="#957127"/>
<path d="M10.7337 8.33337C11.664 8.33337 12.4181 9.07954 12.4181 10V28.3334C12.4181 29.2539 11.664 30 10.7337 30C9.80342 30 9.04932 29.2539 9.04932 28.3334V10C9.04932 9.07954 9.80342 8.33337 10.7337 8.33337Z" fill="#957127"/>
<path d="M19.1561 8.33337C20.0864 8.33337 20.8405 9.07954 20.8405 10V20C20.8405 20.9205 20.0864 21.6667 19.1561 21.6667C18.2258 21.6667 17.4717 20.9205 17.4717 20V10C17.4717 9.07954 18.2258 8.33337 19.1561 8.33337Z" fill="#957127"/>
<path d="M20.8401 55H10.7337C9.80342 55 9.04932 55.7462 9.04932 56.6667V66.6667C9.04932 67.5872 9.80342 68.3333 10.7337 68.3333H20.8401C21.7704 68.3333 22.5245 67.5872 22.5245 66.6667V56.6667C22.5245 55.7462 21.7704 55 20.8401 55ZM19.1557 65H12.4181V58.3333H19.1557V65Z" fill="#957127"/>
</svg>
