<svg width="140" height="100" viewBox="0 0 140 100" fill="none" xmlns="http://www.w3.org/2000/svg">
<path d="M41.0443 56.3464C42.175 56.4695 43.1826 56.4695 44.3133 56.4695C45.1932 56.4695 46.1985 56.4695 46.9531 56.4695H47.2038C48.0838 56.4695 49.0891 56.4695 49.969 56.4695H51.3527C52.4834 56.4695 53.491 55.4823 53.491 54.3696C53.491 53.2571 52.6111 52.2698 51.3527 52.2698H49.969C48.9637 52.2698 48.0838 52.2698 47.0762 52.2698C45.0633 52.2698 43.178 52.2698 41.2928 52.1467C39.0291 52.0236 37.8984 50.4185 37.52 48.9365C37.0162 47.5776 37.3946 45.6032 39.1545 44.3674C40.0344 43.7496 41.1674 43.6265 42.4235 43.6265H51.8542L50.2198 45.2316C49.716 45.6009 49.4652 46.2188 49.5906 46.8367C49.5906 47.3314 49.8413 47.947 50.2198 48.3186C50.5959 48.688 51.0997 48.9365 51.7289 48.9365C52.2327 48.9365 52.8596 48.6902 53.238 48.3186L58.3922 43.0086C58.7706 42.637 59.0214 42.0214 59.0214 41.5266C59.1468 41.0319 58.896 40.4163 58.5176 40.0447L53.1103 34.7346C52.7342 34.3653 52.105 34.1168 51.6012 34.1168C51.0974 34.1168 50.4705 34.363 50.0921 34.7346C49.716 35.104 49.4629 35.7219 49.4629 36.2166C49.4629 36.7113 49.7137 37.327 50.0921 37.6986L52.105 39.3037H42.6742C40.9143 39.3037 38.9014 39.5499 37.0162 40.7856C33.8726 42.8855 32.4889 46.465 33.4965 50.0469C34.3787 53.6309 37.3969 56.1001 41.0443 56.3464Z" fill="#957127"/>
<path d="M118.373 26.7458C118.141 26.0481 117.21 25.583 116.513 25.583H93.2563V11.6292C93.2563 10.2338 92.326 9.30353 90.9306 9.30353H2.55659C1.16121 9.30353 0.230957 10.2338 0.230957 11.6292V86.0494C0.230957 87.4448 1.16121 88.3751 2.55659 88.3751H19.0686C20.2314 96.0496 27.4409 101.166 35.1155 99.7707C40.9295 98.8404 45.5808 94.1891 46.5111 88.3751H98.1401C99.3029 96.0496 106.512 101.166 114.187 99.7707C120.001 98.8404 124.652 94.1891 125.583 88.3751H137.443C138.839 88.3751 139.769 87.4448 139.769 86.0494V60.4675C139.769 60.0023 139.536 59.5372 139.304 59.3046L118.373 26.7458ZM121.164 39.5368L131.629 55.8162H102.559V39.5368H121.164ZM32.7898 95.352C27.6734 95.352 23.4873 91.1658 23.4873 86.0494C23.4873 80.933 27.6734 76.7469 32.7898 76.7469C37.9062 76.7469 42.0924 80.933 42.0924 86.0494C42.0924 91.1658 37.9062 95.352 32.7898 95.352ZM32.7898 72.0956C26.0455 72.0956 20.2314 76.9794 19.0686 83.7238H4.88222V79.0725H14.1848C15.5801 79.0725 16.5104 78.1423 16.5104 76.7469C16.5104 75.3515 15.5801 74.4212 14.1848 74.4212H4.88222V13.9548H88.605V18.6061H11.8591C10.4637 18.6061 9.53349 19.5363 9.53349 20.9317C9.53349 22.3271 10.4637 23.2573 11.8591 23.2573H88.605V74.4212H51.3949C49.9995 74.4212 49.0693 75.3515 49.0693 76.7469C49.0693 78.1423 49.9995 79.0725 51.3949 79.0725H88.605V83.7238H46.5111C45.3482 76.9794 39.5342 72.0956 32.7898 72.0956ZM111.861 95.352C106.745 95.352 102.559 91.1658 102.559 86.0494C102.559 80.933 106.745 76.7469 111.861 76.7469C116.978 76.7469 121.164 80.933 121.164 86.0494C121.164 91.1658 116.978 95.352 111.861 95.352ZM125.583 83.7238C124.42 76.0492 117.21 70.9328 109.536 72.3282C103.722 73.2584 99.0704 77.9097 98.1401 83.7238H93.2563V30.2342H115.35L118.373 34.8855H100.233C98.8378 34.8855 97.9075 35.8157 97.9075 37.2111V58.1418C97.9075 59.5372 98.8378 60.4675 100.233 60.4675H134.653L135.118 61.1651V74.4212H130.466C129.071 74.4212 128.141 75.3515 128.141 76.7469C128.141 78.1423 129.071 79.0725 130.466 79.0725H135.118V83.7238H125.583Z" fill="#957127"/>
<path d="M32.79 83.7209C34.1854 83.7209 35.1156 84.6511 35.1156 86.0465C35.1156 87.4419 34.1854 88.3722 32.79 88.3722C31.3946 88.3722 30.4644 87.4419 30.4644 86.0465C30.4644 84.6511 31.3946 83.7209 32.79 83.7209Z" fill="#957127"/>
<path d="M111.861 83.7209C113.256 83.7209 114.186 84.6511 114.186 86.0465C114.186 87.4419 113.256 88.3722 111.861 88.3722C110.465 88.3722 109.535 87.4419 109.535 86.0465C109.535 84.6511 110.465 83.7209 111.861 83.7209Z" fill="#957127"/>
<path d="M11.8598 0H39.7674C41.1628 0 42.093 0.930253 42.093 2.32563C42.093 3.72101 41.1628 4.65127 39.7674 4.65127H11.8598C10.4644 4.65127 9.53418 3.72101 9.53418 2.32563C9.53418 0.930253 10.4644 0 11.8598 0Z" fill="#957127"/>
<path d="M2.55659 0C3.95197 0 4.88222 0.930253 4.88222 2.32563C4.88222 3.72101 3.95197 4.65127 2.55659 4.65127C1.16121 4.65127 0.230957 3.72101 0.230957 2.32563C0.230957 0.930253 1.16121 0 2.55659 0Z" fill="#957127"/>
</svg>
