<svg width="140" height="100" viewBox="0 0 140 100" fill="none" xmlns="http://www.w3.org/2000/svg">
<path d="M41.0443 56.3464C42.175 56.4695 43.1826 56.4695 44.3133 56.4695C45.1932 56.4695 46.1985 56.4695 46.9531 56.4695H47.2038C48.0838 56.4695 49.0891 56.4695 49.969 56.4695H51.3527C52.4834 56.4695 53.491 55.4823 53.491 54.3696C53.491 53.2571 52.6111 52.2698 51.3527 52.2698H49.969C48.9637 52.2698 48.0838 52.2698 47.0762 52.2698C45.0633 52.2698 43.178 52.2698 41.2928 52.1467C39.0291 52.0236 37.8984 50.4185 37.52 48.9365C37.0162 47.5776 37.3946 45.6032 39.1545 44.3674C40.0344 43.7496 41.1674 43.6265 42.4235 43.6265H51.8542L50.2198 45.2316C49.716 45.6009 49.4652 46.2188 49.5906 46.8367C49.5906 47.3314 49.8413 47.947 50.2198 48.3186C50.5959 48.688 51.0997 48.9365 51.7289 48.9365C52.2327 48.9365 52.8596 48.6902 53.238 48.3186L58.3922 43.0086C58.7706 42.637 59.0214 42.0214 59.0214 41.5266C59.1468 41.0319 58.896 40.4163 58.5176 40.0447L53.1103 34.7346C52.7342 34.3653 52.105 34.1168 51.6012 34.1168C51.0974 34.1168 50.4705 34.363 50.0921 34.7346C49.716 35.104 49.4629 35.7219 49.4629 36.2166C49.4629 36.7113 49.7137 37.327 50.0921 37.6986L52.105 39.3037H42.6742C40.9143 39.3037 38.9014 39.5499 37.0162 40.7856C33.8726 42.8855 32.4889 46.465 33.4965 50.0469C34.3787 53.6309 37.3969 56.1001 41.0443 56.3464Z" fill="#957127"/>
<path d="M118.374 26.7458C118.141 26.0481 117.211 25.583 116.513 25.583H93.2568V11.6292C93.2568 10.2338 92.3265 9.30353 90.9311 9.30353H2.55708C1.1617 9.30353 0.231445 10.2338 0.231445 11.6292V86.0494C0.231445 87.4448 1.1617 88.3751 2.55708 88.3751H19.0691C20.2319 96.0496 27.4414 101.166 35.1159 99.7707C40.93 98.8404 45.5813 94.1891 46.5115 88.3751H98.1406C99.3034 96.0496 106.513 101.166 114.187 99.7707C120.002 98.8404 124.653 94.1891 125.583 88.3751H137.444C138.839 88.3751 139.769 87.4448 139.769 86.0494V60.4675C139.769 60.0023 139.537 59.5372 139.304 59.3046L118.374 26.7458ZM121.164 39.5368L131.63 55.8162H102.559V39.5368H121.164ZM32.7903 95.352C27.6739 95.352 23.4878 91.1658 23.4878 86.0494C23.4878 80.933 27.6739 76.7469 32.7903 76.7469C37.9067 76.7469 42.0928 80.933 42.0928 86.0494C42.0928 91.1658 37.9067 95.352 32.7903 95.352ZM32.7903 72.0956C26.046 72.0956 20.2319 76.9794 19.0691 83.7238H4.88271V79.0725H14.1852C15.5806 79.0725 16.5109 78.1423 16.5109 76.7469C16.5109 75.3515 15.5806 74.4212 14.1852 74.4212H4.88271V13.9548H88.6055V18.6061H11.8596C10.4642 18.6061 9.53398 19.5363 9.53398 20.9317C9.53398 22.3271 10.4642 23.2573 11.8596 23.2573H88.6055V74.4212H51.3954C50 74.4212 49.0697 75.3515 49.0697 76.7469C49.0697 78.1423 50 79.0725 51.3954 79.0725H88.6055V83.7238H46.5115C45.3487 76.9794 39.5346 72.0956 32.7903 72.0956ZM111.862 95.352C106.745 95.352 102.559 91.1658 102.559 86.0494C102.559 80.933 106.745 76.7469 111.862 76.7469C116.978 76.7469 121.164 80.933 121.164 86.0494C121.164 91.1658 116.978 95.352 111.862 95.352ZM125.583 83.7238C124.42 76.0492 117.211 70.9328 109.536 72.3282C103.722 73.2584 99.0708 77.9097 98.1406 83.7238H93.2568V30.2342H115.35L118.374 34.8855H100.234C98.8383 34.8855 97.908 35.8157 97.908 37.2111V58.1418C97.908 59.5372 98.8383 60.4675 100.234 60.4675H134.653L135.118 61.1651V74.4212H130.467C129.072 74.4212 128.141 75.3515 128.141 76.7469C128.141 78.1423 129.072 79.0725 130.467 79.0725H135.118V83.7238H125.583Z" fill="#957127"/>
<path d="M32.7905 83.7209C34.1859 83.7209 35.1161 84.6511 35.1161 86.0465C35.1161 87.4419 34.1859 88.3722 32.7905 88.3722C31.3951 88.3722 30.4648 87.4419 30.4648 86.0465C30.4648 84.6511 31.3951 83.7209 32.7905 83.7209Z" fill="#957127"/>
<path d="M111.862 83.7209C113.257 83.7209 114.187 84.6511 114.187 86.0465C114.187 87.4419 113.257 88.3722 111.862 88.3722C110.466 88.3722 109.536 87.4419 109.536 86.0465C109.536 84.6511 110.466 83.7209 111.862 83.7209Z" fill="#957127"/>
<path d="M11.8608 0H39.7684C41.1638 0 42.094 0.930253 42.094 2.32563C42.094 3.72101 41.1638 4.65127 39.7684 4.65127H11.8608C10.4654 4.65127 9.53516 3.72101 9.53516 2.32563C9.53516 0.930253 10.4654 0 11.8608 0Z" fill="#957127"/>
<path d="M2.55708 0C3.95246 0 4.88271 0.930253 4.88271 2.32563C4.88271 3.72101 3.95246 4.65127 2.55708 4.65127C1.1617 4.65127 0.231445 3.72101 0.231445 2.32563C0.231445 0.930253 1.1617 0 2.55708 0Z" fill="#957127"/>
</svg>
