<svg xmlns="http://www.w3.org/2000/svg" xmlns:xlink="http://www.w3.org/1999/xlink">
  <defs>
    <symbol viewBox="0 0 22 22" id="pinterest">
      <path
        d="M10.9998 0.5C8.56549 0.516578 6.21257 1.37849 4.34356 2.93828C2.47455 4.49807 1.20559 6.65882 0.753754 9.05089C0.301919 11.443 0.695288 13.9177 1.86657 16.0518C3.03785 18.1858 4.91426 19.8466 7.1748 20.75C7.02287 19.7558 7.02287 18.7442 7.1748 17.75L8.4123 12.5C8.21646 12.0245 8.11949 11.5142 8.1273 11C8.1273 9.545 8.9748 8.45 10.0248 8.45C10.215 8.44714 10.4036 8.48543 10.5776 8.56224C10.7517 8.63906 10.9071 8.75258 11.0331 8.89504C11.1592 9.0375 11.253 9.20553 11.3081 9.38761C11.3632 9.5697 11.3783 9.76154 11.3523 9.95C11.3523 10.85 10.7823 12.2 10.4823 13.445C10.4177 13.6772 10.4101 13.9215 10.4599 14.1573C10.5098 14.3931 10.6157 14.6133 10.7688 14.7995C10.9218 14.9857 11.1175 15.1322 11.3391 15.2267C11.5608 15.3212 11.802 15.361 12.0423 15.3425C13.9023 15.3425 15.3423 13.37 15.3423 10.535C15.361 9.95891 15.2594 9.38525 15.044 8.85061C14.8287 8.31598 14.5042 7.8321 14.0914 7.42986C13.6786 7.02762 13.1864 6.71584 12.6464 6.51442C12.1063 6.31299 11.5302 6.22634 10.9548 6.26C10.3405 6.23361 9.72718 6.33216 9.15204 6.54966C8.5769 6.76717 8.05188 7.09912 7.60875 7.52542C7.16563 7.95172 6.81361 8.46351 6.57401 9.0298C6.33441 9.59609 6.21221 10.2051 6.2148 10.82C6.20646 11.6766 6.46895 12.5139 6.9648 13.2125C7.00086 13.2526 7.02654 13.3009 7.03962 13.3532C7.05269 13.4055 7.05275 13.4602 7.0398 13.5125C6.9573 13.8425 6.7773 14.5625 6.7473 14.705C6.7173 14.8475 6.5898 14.9375 6.3948 14.8475C5.0823 14.2325 4.2648 12.32 4.2648 10.775C4.2648 7.4675 6.6723 4.4225 11.2023 4.4225C14.8398 4.4225 17.6748 7.0175 17.6748 10.49C17.6748 14.105 15.4248 17.015 12.2223 17.015C11.7528 17.0313 11.2867 16.9301 10.8662 16.7206C10.4458 16.511 10.0844 16.1997 9.8148 15.815L9.1623 18.3125C8.84951 19.2831 8.41077 20.2085 7.8573 21.065C8.87714 21.3664 9.93644 21.513 10.9998 21.5C13.7846 21.5 16.4553 20.3938 18.4244 18.4246C20.3936 16.4555 21.4998 13.7848 21.4998 11C21.4998 8.21523 20.3936 5.54451 18.4244 3.57538C16.4553 1.60625 13.7846 0.5 10.9998 0.5Z"
        fill="white" />
    </symbol>

    <symbol viewBox="0 0 32 32" id="instagram_icon">
      <path
        d="M16 2.88125C20.275 2.88125 20.7813 2.9 22.4625 2.975C24.025 3.04375 24.8688 3.30625 25.4313 3.525C26.175 3.8125 26.7125 4.1625 27.2688 4.71875C27.8313 5.28125 28.175 5.8125 28.4625 6.55625C28.6813 7.11875 28.9438 7.96875 29.0125 9.525C29.0875 11.2125 29.1063 11.7188 29.1063 15.9875C29.1063 20.2625 29.0875 20.7688 29.0125 22.45C28.9438 24.0125 28.6813 24.8563 28.4625 25.4188C28.175 26.1625 27.825 26.7 27.2688 27.2563C26.7063 27.8188 26.175 28.1625 25.4313 28.45C24.8688 28.6688 24.0188 28.9313 22.4625 29C20.775 29.075 20.2688 29.0938 16 29.0938C11.725 29.0938 11.2188 29.075 9.5375 29C7.975 28.9313 7.13125 28.6688 6.56875 28.45C5.825 28.1625 5.2875 27.8125 4.73125 27.2563C4.16875 26.6938 3.825 26.1625 3.5375 25.4188C3.31875 24.8563 3.05625 24.0063 2.9875 22.45C2.9125 20.7625 2.89375 20.2563 2.89375 15.9875C2.89375 11.7125 2.9125 11.2063 2.9875 9.525C3.05625 7.9625 3.31875 7.11875 3.5375 6.55625C3.825 5.8125 4.175 5.275 4.73125 4.71875C5.29375 4.15625 5.825 3.8125 6.56875 3.525C7.13125 3.30625 7.98125 3.04375 9.5375 2.975C11.2188 2.9 11.725 2.88125 16 2.88125ZM16 0C11.6563 0 11.1125 0.01875 9.40625 0.09375C7.70625 0.16875 6.5375 0.44375 5.525 0.8375C4.46875 1.25 3.575 1.79375 2.6875 2.6875C1.79375 3.575 1.25 4.46875 0.8375 5.51875C0.44375 6.5375 0.16875 7.7 0.09375 9.4C0.01875 11.1125 0 11.6562 0 16C0 20.3438 0.01875 20.8875 0.09375 22.5938C0.16875 24.2938 0.44375 25.4625 0.8375 26.475C1.25 27.5313 1.79375 28.425 2.6875 29.3125C3.575 30.2 4.46875 30.75 5.51875 31.1562C6.5375 31.55 7.7 31.825 9.4 31.9C11.1063 31.975 11.65 31.9937 15.9938 31.9937C20.3375 31.9937 20.8813 31.975 22.5875 31.9C24.2875 31.825 25.4563 31.55 26.4688 31.1562C27.5188 30.75 28.4125 30.2 29.3 29.3125C30.1875 28.425 30.7375 27.5313 31.1438 26.4813C31.5375 25.4625 31.8125 24.3 31.8875 22.6C31.9625 20.8938 31.9813 20.35 31.9813 16.0063C31.9813 11.6625 31.9625 11.1188 31.8875 9.4125C31.8125 7.7125 31.5375 6.54375 31.1438 5.53125C30.75 4.46875 30.2063 3.575 29.3125 2.6875C28.425 1.8 27.5313 1.25 26.4813 0.84375C25.4625 0.45 24.3 0.175 22.6 0.1C20.8875 0.01875 20.3438 0 16 0Z"
        fill="#1D1F1E" />
      <path
        d="M16 7.78125C11.4625 7.78125 7.78125 11.4625 7.78125 16C7.78125 20.5375 11.4625 24.2188 16 24.2188C20.5375 24.2188 24.2188 20.5375 24.2188 16C24.2188 11.4625 20.5375 7.78125 16 7.78125ZM16 21.3312C13.0563 21.3312 10.6687 18.9438 10.6687 16C10.6687 13.0563 13.0563 10.6687 16 10.6687C18.9438 10.6687 21.3312 13.0563 21.3312 16C21.3312 18.9438 18.9438 21.3312 16 21.3312Z"
        fill="#1D1F1E" />
      <path
        d="M26.4625 7.45611C26.4625 8.51861 25.6 9.37486 24.5438 9.37486C23.4813 9.37486 22.625 8.51236 22.625 7.45611C22.625 6.3936 23.4875 5.53735 24.5438 5.53735C25.6 5.53735 26.4625 6.39985 26.4625 7.45611Z"
        fill="#1D1F1E" />
    </symbol>

    <symbol viewBox="0 0 32 32" id="facebook_icon">
      <path
        d="M32 16C32 7.16344 24.8366 0 16 0C7.16344 0 0 7.16344 0 16C0 23.9859 5.85094 30.6053 13.5 31.8056V20.625H9.4375V16H13.5V12.475C13.5 8.465 15.8888 6.25 19.5434 6.25C21.2934 6.25 23.125 6.5625 23.125 6.5625V10.5H21.1075C19.12 10.5 18.5 11.7334 18.5 13V16H22.9375L22.2281 20.625H18.5V31.8056C26.1491 30.6053 32 23.9859 32 16Z"
        fill="#1D1F1E" />
    </symbol>

    <symbol viewBox="0 0 24 24" id="twitter_icon">
      <path d="M12.1734 24.2752C18.8966 24.2752 24.3468 18.841 24.3468 12.1376C24.3468 5.43419 18.8966 0 12.1734 0C5.45022 0 0 5.43419 0 12.1376C0 18.841 5.45022 24.2752 12.1734 24.2752Z" fill="black" stroke="white" stroke-miterlimit="10"/>
      <path d="M4.67461 5.10547L10.4934 12.8627L4.63794 19.1696H5.95586L11.0824 13.6477L15.2243 19.1696H19.7089L13.5627 10.9762L19.0129 5.10547H17.695L12.9739 10.1909L9.15924 5.10547H4.67461ZM6.61267 6.07329H8.67289L17.7706 18.2018H15.7104L6.61267 6.07329Z" fill="white"/>
    </symbol>

    <symbol viewBox="0 0 26 26" id="pear_shape">
      <path
        d="M9.31326 26C15.4061 26 18.625 22.7785 18.625 16.6796C18.625 7.63265 9.54093 0.0736877 9.44997 -8.02107e-07L9.16529 -8.26994e-07C9.08569 0.0825816 0.00143784 7.64129 0.00143705 16.6796C0.00163488 22.7785 3.22037 26 9.31318 26L9.31326 26ZM9.31326 7.20271L12.828 10.3986L14.3134 16.338L12.8563 20.2283L9.31321 21.5176L5.77009 20.2255L4.31298 16.338L5.79845 10.3986L9.31326 7.20271ZM13.2151 10.1709L12.3329 5.75114L15.8391 8.48886L15.8389 12.5047L13.2151 10.1709ZM14.5384 16.964L15.7449 20.1799L13.3288 20.1799L14.5384 16.964ZM14.5953 15.706L13.3943 10.9022L15.7934 13.0338L14.5953 15.706ZM11.8604 5.58013L12.6829 9.68959L9.66626 6.94612L11.8604 5.58013ZM6.73776 22.801L5.97231 20.7632L8.77274 21.7765L6.73776 22.801ZM9.31331 21.9843L11.6499 23.1482L9.31331 25.4847L6.97677 23.1482L9.31331 21.9843ZM11.8916 22.7924L9.85384 21.7765L12.6571 20.7547L11.8916 22.7924ZM4.03129 15.7005L2.83326 13.0338L5.23232 10.9022L4.03129 15.7005ZM4.08827 16.9641L5.29783 20.18L2.8817 20.18L4.08827 16.9641ZM5.94381 9.68969L6.75215 5.58023L8.96063 6.94622L5.94381 9.68969ZM5.41157 10.1707L2.78758 12.5044L2.78758 8.48885L6.29396 5.75113L5.41157 10.1707ZM3.8578 16.3575L2.52022 19.9292L0.465363 16.6793L2.54004 13.4292L3.8578 16.3575ZM5.45726 20.6065L6.34523 22.9714L3.76693 24.0386L2.8506 20.6065L5.45726 20.6065ZM6.56716 23.3414L8.78972 25.564C6.91137 25.5015 5.32919 25.0975 4.08252 24.3632L6.56716 23.3414ZM12.0598 23.3414L14.5444 24.3632C13.2978 25.0975 11.7156 25.5014 9.83722 25.5642L12.0598 23.3414ZM12.2817 22.9714L13.1697 20.6065L15.7852 20.6065L14.8603 24.0386L12.2817 22.9714ZM16.1039 19.9178L14.7691 16.3577L16.0869 13.4292L18.1586 16.6792L16.1039 19.9178ZM16.3886 13.0876L17.6293 12.7148C17.9269 13.7555 18.1121 14.8249 18.1814 15.905L16.3886 13.0876ZM16.2663 12.695L16.2663 9.27993L16.2661 9.27973C16.7632 10.2588 17.1783 11.2772 17.5069 12.325L16.2663 12.695ZM12.3617 5.23308L13.2156 4.58411L13.2154 4.58411C13.9663 5.51773 14.6592 6.49662 15.29 7.51541L12.3617 5.23308ZM9.31356 6.66158L6.90022 5.15324L9.31356 0.625289L11.7269 5.15325L9.31356 6.66158ZM3.33713 7.51541C3.96445 6.49703 4.65347 5.51813 5.40052 4.58411L6.25435 5.23308L3.33713 7.51541ZM2.36103 12.695L1.12031 12.3222C1.44905 11.2756 1.86416 10.258 2.36103 9.27993L2.36103 12.695ZM2.24152 13.1047L0.448543 15.9222C0.518024 14.8421 0.70304 13.7727 1.0008 12.7321L2.24152 13.1047ZM0.448542 17.4562L2.37513 20.4813L3.26585 23.8196C1.54412 22.4621 0.590634 20.322 0.448338 17.4534L0.448542 17.4562ZM15.3611 23.8193L16.2519 20.4811L18.1785 17.4529C18.0361 20.3217 17.0828 22.4617 15.3609 23.8191L15.3611 23.8193ZM12.9564 4.25112L12.0799 4.90862L10.0878 1.14637L10.0876 1.14637C11.1086 2.11947 12.0668 3.15655 12.9564 4.25117L12.9564 4.25112ZM8.55367 1.14612L6.56157 4.90837L5.68513 4.25086L5.68513 4.25106C6.57468 3.15645 7.53269 2.11942 8.55367 1.14626L8.55367 1.14612Z"
        fill="black" />
    </symbol>

    <symbol viewBox="0 0 26 26" id="grey_diamond">
      <path
        d="M19.9307 5.96663L17.138 0.386004C17.08 0.269999 16.9909 0.172525 16.8806 0.104326C16.7702 0.0362822 16.6432 1.5578e-07 16.5134 1.5578e-07H4.41166C4.17821 -0.000155584 3.9602 0.116472 3.83081 0.310642L0.107221 5.89127C0.107221 5.89781 0.107221 5.90528 0.100676 5.91167C0.0941302 5.91821 0.0765198 5.94141 0.0671693 5.95916H0.0670135C0.052676 6.00478 0.0430134 6.05196 0.0381819 6.09961C0.0169871 6.15956 0.00405186 6.22215 0 6.28553C0.00451944 6.34641 0.0166756 6.40652 0.0363121 6.46413C0.0422343 6.51395 0.0534549 6.56285 0.0698184 6.61018C0.080104 6.62965 0.0967794 6.64553 0.108935 6.66406C0.121091 6.68259 0.108936 6.67994 0.117351 6.68633L9.42634 19.7079C9.42634 19.7079 9.43569 19.7145 9.43943 19.7201C9.49569 19.792 9.56566 19.852 9.64514 19.8968C9.66571 19.9097 9.68722 19.9213 9.70935 19.9312C9.88826 20.0229 10.1004 20.0229 10.2791 19.9312C10.3012 19.9213 10.3227 19.9097 10.3433 19.8968C10.4228 19.852 10.4928 19.792 10.549 19.7201C10.549 19.7145 10.5584 19.7126 10.5621 19.7079L19.8711 6.68633C19.8711 6.67979 19.8711 6.67138 19.8795 6.66499C19.8879 6.65845 19.8926 6.65472 19.8971 6.64818V6.64833C19.9333 6.57749 19.9568 6.50103 19.9669 6.4224C19.9799 6.3897 19.9902 6.35606 19.9978 6.32181C20.0076 6.19958 19.9844 6.07688 19.9306 5.96664L19.9307 5.96663ZM18.177 5.58063H14.2243L12.828 1.39516H16.0862L18.177 5.58063ZM7.19878 6.97579H12.7954L9.99706 16.7602L7.19878 6.97579ZM11.3552 1.39516L12.7515 5.58063H7.24227L8.63864 1.39516H11.3552ZM4.78386 1.39516H7.16611L5.76974 5.58063H1.99113L4.78386 1.39516ZM5.74544 6.97579L8.21322 15.6062L2.04527 6.97579H5.74544ZM11.7785 15.6062L14.2474 6.97579H17.9487L11.7785 15.6062Z"
        fill="#A4AAAE" />
    </symbol>

    <symbol viewBox="0 0 26 26" id="black_diamond">
      <path
        d="M19.9307 5.96663L17.138 0.386004C17.08 0.269999 16.9909 0.172525 16.8806 0.104326C16.7702 0.0362822 16.6432 1.5578e-07 16.5134 1.5578e-07H4.41166C4.17821 -0.000155584 3.9602 0.116472 3.83081 0.310642L0.107221 5.89127C0.107221 5.89781 0.107221 5.90528 0.100676 5.91167C0.0941302 5.91821 0.0765198 5.94141 0.0671693 5.95916H0.0670135C0.052676 6.00478 0.0430134 6.05196 0.0381819 6.09961C0.0169871 6.15956 0.00405186 6.22215 0 6.28553C0.00451944 6.34641 0.0166756 6.40652 0.0363121 6.46413C0.0422343 6.51395 0.0534549 6.56285 0.0698184 6.61018C0.080104 6.62965 0.0967794 6.64553 0.108935 6.66406C0.121091 6.68259 0.108936 6.67994 0.117351 6.68633L9.42634 19.7079C9.42634 19.7079 9.43569 19.7145 9.43943 19.7201C9.49569 19.792 9.56566 19.852 9.64514 19.8968C9.66571 19.9097 9.68722 19.9213 9.70935 19.9312C9.88826 20.0229 10.1004 20.0229 10.2791 19.9312C10.3012 19.9213 10.3227 19.9097 10.3433 19.8968C10.4228 19.852 10.4928 19.792 10.549 19.7201C10.549 19.7145 10.5584 19.7126 10.5621 19.7079L19.8711 6.68633C19.8711 6.67979 19.8711 6.67138 19.8795 6.66499C19.8879 6.65845 19.8926 6.65472 19.8971 6.64818V6.64833C19.9333 6.57749 19.9568 6.50103 19.9669 6.4224C19.9799 6.3897 19.9902 6.35606 19.9978 6.32181C20.0076 6.19958 19.9844 6.07688 19.9306 5.96664L19.9307 5.96663ZM18.177 5.58063H14.2243L12.828 1.39516H16.0862L18.177 5.58063ZM7.19878 6.97579H12.7954L9.99706 16.7602L7.19878 6.97579ZM11.3552 1.39516L12.7515 5.58063H7.24227L8.63864 1.39516H11.3552ZM4.78386 1.39516H7.16611L5.76974 5.58063H1.99113L4.78386 1.39516ZM5.74544 6.97579L8.21322 15.6062L2.04527 6.97579H5.74544ZM11.7785 15.6062L14.2474 6.97579H17.9487L11.7785 15.6062Z"
        fill="black" />
    </symbol>

    <symbol viewBox="0 0 26 26" id="green_diamond">
      <path
        d="M19.9307 5.96663L17.138 0.386004C17.08 0.269999 16.9909 0.172525 16.8806 0.104326C16.7702 0.0362822 16.6432 1.5578e-07 16.5134 1.5578e-07H4.41166C4.17821 -0.000155584 3.9602 0.116472 3.83081 0.310642L0.107221 5.89127C0.107221 5.89781 0.107221 5.90528 0.100676 5.91167C0.0941302 5.91821 0.0765198 5.94141 0.0671693 5.95916H0.0670135C0.052676 6.00478 0.0430134 6.05196 0.0381819 6.09961C0.0169871 6.15956 0.00405186 6.22215 0 6.28553C0.00451944 6.34641 0.0166756 6.40652 0.0363121 6.46413C0.0422343 6.51395 0.0534549 6.56285 0.0698184 6.61018C0.080104 6.62965 0.0967794 6.64553 0.108935 6.66406C0.121091 6.68259 0.108936 6.67994 0.117351 6.68633L9.42634 19.7079C9.42634 19.7079 9.43569 19.7145 9.43943 19.7201C9.49569 19.792 9.56566 19.852 9.64514 19.8968C9.66571 19.9097 9.68722 19.9213 9.70935 19.9312C9.88826 20.0229 10.1004 20.0229 10.2791 19.9312C10.3012 19.9213 10.3227 19.9097 10.3433 19.8968C10.4228 19.852 10.4928 19.792 10.549 19.7201C10.549 19.7145 10.5584 19.7126 10.5621 19.7079L19.8711 6.68633C19.8711 6.67979 19.8711 6.67138 19.8795 6.66499C19.8879 6.65845 19.8926 6.65472 19.8971 6.64818V6.64833C19.9333 6.57749 19.9568 6.50103 19.9669 6.4224C19.9799 6.3897 19.9902 6.35606 19.9978 6.32181C20.0076 6.19958 19.9844 6.07688 19.9306 5.96664L19.9307 5.96663ZM18.177 5.58063H14.2243L12.828 1.39516H16.0862L18.177 5.58063ZM7.19878 6.97579H12.7954L9.99706 16.7602L7.19878 6.97579ZM11.3552 1.39516L12.7515 5.58063H7.24227L8.63864 1.39516H11.3552ZM4.78386 1.39516H7.16611L5.76974 5.58063H1.99113L4.78386 1.39516ZM5.74544 6.97579L8.21322 15.6062L2.04527 6.97579H5.74544ZM11.7785 15.6062L14.2474 6.97579H17.9487L11.7785 15.6062Z"
        fill="#9FCCA3" />
    </symbol>

    <symbol viewBox="0 0 88 40" id="ELLE_icon">
      <path fill-rule="evenodd" clip-rule="evenodd"
        d="M3.23163 36.1671H0.584961V36.6806H15.2404V27.437H14.8059C14.8059 27.437 14.8059 32.7699 13.0283 34.508C11.5272 36.0091 9.94707 36.1276 7.3794 36.1276V19.102C7.3794 19.102 9.15702 18.9835 10.0261 19.8525C11.3692 21.1956 11.5272 22.9337 11.5272 25.3434H12.0012V12.3075H11.5272C11.5272 14.7172 11.4087 16.4553 10.0261 17.7984C9.15702 18.6674 7.3794 18.5489 7.3794 18.5489V2.39238C9.94707 2.39238 11.1717 2.55039 12.6727 4.01198C14.4109 5.7501 14.4504 11.0829 14.4504 11.0829H14.8849V1.87885H0.584961V2.39238H3.23163V36.1671Z"
        fill="#DADEE0" />
      <path fill-rule="evenodd" clip-rule="evenodd"
        d="M31.8706 2.39238V36.1671C34.4383 36.1671 36.0184 36.0091 37.5195 34.5475C39.2576 32.8094 39.2971 27.4765 39.2971 27.4765H39.7316V36.7201H25.0762V36.2066H27.7228V2.35288H25.0762V1.87885H34.2803V2.39238H31.8706Z"
        fill="#DADEE0" />
      <path fill-rule="evenodd" clip-rule="evenodd"
        d="M55.4146 2.39238V36.1671C57.9822 36.1671 59.5623 36.0091 61.0634 34.5475C62.8015 32.8094 62.841 27.4765 62.841 27.4765H63.2756V36.7201H48.6201V36.2066H51.2668V2.35288H48.6201V1.87885H57.8242V2.39238H55.4146Z"
        fill="#DADEE0" />
      <path fill-rule="evenodd" clip-rule="evenodd"
        d="M75.4035 36.1671H72.7568V36.6806H87.4123V27.437H86.9778C86.9778 27.437 86.9778 32.7699 85.2001 34.508C83.699 36.0091 82.1189 36.1276 79.5513 36.1276V19.102C79.5513 19.102 81.3289 18.9835 82.198 19.8525C83.541 21.1956 83.699 22.9337 83.699 25.3434H84.1731V12.3075H83.699C83.699 14.7172 83.5805 16.4553 82.198 17.7984C81.3289 18.6674 79.5513 18.5489 79.5513 18.5489V2.39238C82.1189 2.39238 83.3435 2.55039 84.8446 4.01198C86.5827 5.7501 86.6222 11.0829 86.6222 11.0829H87.0568V1.87885H72.7568V2.39238H75.4035V36.1671Z"
        fill="#DADEE0" />
    </symbol>

    <symbol viewBox="0 0 141 40" id="PJ_icon">
      <path
        d="M3.32129 15.5326C5.27451 15.4757 5.58274 15.1507 5.58274 14.2126V3.83002C5.58274 2.91204 5.27451 2.56696 3.32129 2.50665V2.35254H8.74207C12.4575 2.35254 14.0288 3.90373 14.0288 5.95411C14.0288 7.88723 12.4575 9.70979 8.60806 9.70979H7.21098V14.2126C7.21098 15.1909 7.57617 15.4757 9.58634 15.5326V15.7035H3.32129V15.5326ZM8.70187 9.42167C11.5764 9.42167 12.1694 8.1184 12.1694 5.97421C12.1694 4.05784 11.5362 2.64066 8.75882 2.64066H7.20763V9.42167H8.70187Z"
        fill="#DADEE0" />
      <path
        d="M18.0323 14.2291C18.0323 15.1672 18.2802 15.4754 20.1966 15.5324V15.7033H14.1426V15.5324C16.0958 15.4754 16.404 15.1505 16.404 14.2124V3.82981C16.404 2.91183 16.0958 2.56674 14.1426 2.50644V2.35233H19.7175C23.242 2.35233 25.2153 3.61539 25.2153 5.60881C25.2153 7.33422 24.0293 8.55708 21.1916 8.99932V9.05627C23.969 9.3444 24.562 10.3964 24.8501 12.4669L24.964 13.291C25.2723 15.0902 25.5972 15.4754 27.4165 15.4754V15.6296C26.7832 15.7435 26.0763 15.8004 25.4431 15.8004C23.7579 15.8004 23.4129 14.9762 23.2018 13.2542L22.9907 11.5288C22.7595 9.61242 22.1866 9.17353 19.9051 9.17353H18.0289V14.2291H18.0323ZM19.8515 8.88541C22.726 8.88541 23.3559 7.77311 23.3559 5.62892C23.3559 3.61874 22.4379 2.64045 19.6203 2.64045H18.0289V8.88541H19.8515Z"
        fill="#DADEE0" />
      <path
        d="M26.6523 9.05996C26.6523 4.82518 29.8117 2.03104 32.9911 2.03104C36.2677 2.03104 39.293 4.73138 39.293 9.00301C39.293 13.2177 36.1337 16.0319 32.971 16.0319C29.6777 16.0319 26.6523 13.3115 26.6523 9.05996ZM37.4001 9.03986C37.4001 3.81004 35.4268 2.29571 32.9174 2.29571C30.4281 2.29571 28.5486 3.81004 28.5486 9.01976C28.5486 14.2295 30.5219 15.7639 33.0313 15.7639C35.5206 15.7639 37.4001 14.2295 37.4001 9.03986Z"
        fill="#DADEE0" />
      <path
        d="M39.7559 15.5324C41.7091 15.4754 42.0173 15.1505 42.0173 14.2124V3.82981C42.0173 2.91183 41.7091 2.5835 39.7559 2.52654V2.35233H50.3294L50.5003 6.37603L50.3294 6.39613C49.2372 3.54168 48.5303 2.64045 46.634 2.64045H43.6456V8.78825H45.3509C46.7479 8.78825 47.227 8.28905 47.7262 6.18172H47.8971V11.6997H47.7262C47.227 9.59232 46.7479 9.07637 45.3509 9.07637H43.6456V14.209C43.6456 15.1672 44.0107 15.4721 45.9439 15.529V15.6999H39.7559V15.5324Z"
        fill="#DADEE0" />
      <path
        d="M50.7504 15.5326C52.7036 15.4757 53.0119 15.1507 53.0119 14.2126V3.83002C53.0119 2.91204 52.7036 2.56696 50.7504 2.50665V2.35254H61.4948L61.5518 6.27909L61.3809 6.29919C60.3658 3.54189 59.7158 2.64066 57.8765 2.64066H54.6401V8.61759H56.4593C57.8564 8.61759 58.3556 8.10165 58.8548 5.99431H59.0257V11.5491H58.8548C58.3556 9.44177 57.8598 8.90572 56.4593 8.90572H54.6401V15.4187H58.2015C60.2117 15.4187 60.9219 14.4605 61.9739 11.529L62.1448 11.5491L62.0476 15.7068H50.7471V15.5326H50.7504Z"
        fill="#DADEE0" />
      <path
        d="M63.0882 11.3379H63.259C64.311 14.4235 65.5205 15.6866 67.8188 15.6866C69.8692 15.6866 70.8073 14.3632 70.8073 12.8523C70.8073 11.1671 69.8491 10.44 67.3196 9.65272C64.9811 8.92571 63.373 8.19534 63.373 5.97409C63.373 3.57863 65.3831 2.0844 67.7015 2.0844C68.8875 2.0844 69.963 2.39263 70.6699 2.6975L71.3031 1.97049H71.4572V6.16506H71.3031C70.2679 3.38766 69.1757 2.35242 67.4704 2.35242C65.8991 2.35242 64.7499 3.34746 64.7499 5.01591C64.7499 6.74131 65.8019 7.31421 68.1773 8.06133C70.4555 8.77159 72.0837 9.55556 72.0837 11.817C72.0837 13.8272 70.6464 15.9747 67.6781 15.9747C66.472 15.9747 65.1888 15.5727 64.2675 15.0936L63.2322 16.0518H63.0781V11.3379H63.0882Z"
        fill="#DADEE0" />
      <path
        d="M73.0677 11.338H73.2385C74.2905 14.4236 75.5 15.6867 77.7983 15.6867C79.8487 15.6867 80.7867 14.3633 80.7867 12.8523C80.7867 11.1671 79.8286 10.4401 77.2991 9.65278C74.9606 8.92577 73.3524 8.1954 73.3524 5.97416C73.3524 3.57869 75.3626 2.08446 77.681 2.08446C78.867 2.08446 79.9425 2.39269 80.6494 2.69757L81.2826 1.97055H81.4367V6.16512H81.2826C80.2474 3.38773 79.1552 2.35248 77.4499 2.35248C75.8786 2.35248 74.7294 3.34752 74.7294 5.01597C74.7294 6.74137 75.7814 7.31427 78.1568 8.06139C80.435 8.77165 82.0632 9.55562 82.0632 11.8171C82.0632 13.8273 80.6259 15.9748 77.6576 15.9748C76.4515 15.9748 75.1683 15.5728 74.247 15.0937L73.2117 16.0518H73.0576V11.338H73.0677Z"
        fill="#DADEE0" />
      <path
        d="M82.5117 15.5324C84.5219 15.4754 84.8502 15.1672 84.8502 14.2124V3.82981C84.8502 2.89172 84.5252 2.56674 82.5117 2.50644V2.35233H88.7935V2.50644C86.7834 2.56339 86.455 2.88837 86.455 3.82981V14.2124C86.455 15.1706 86.78 15.4754 88.7935 15.5324V15.7033H82.5117V15.5324Z"
        fill="#DADEE0" />
      <path
        d="M89.293 9.05975C89.293 4.82497 92.4523 2.03082 95.6317 2.03082C98.9083 2.03082 101.934 4.73116 101.934 9.00279C101.934 13.2175 98.7743 16.0317 95.6116 16.0317C92.3216 16.0317 89.293 13.3113 89.293 9.05975ZM100.041 9.03964C100.041 3.80983 98.0674 2.2955 95.558 2.2955C93.0688 2.2955 91.1892 3.80983 91.1892 9.01954C91.1892 14.2293 93.1626 15.7637 95.6719 15.7637C98.1612 15.7637 100.041 14.2293 100.041 9.03964Z"
        fill="#DADEE0" />
      <path
        d="M105.079 3.98078H105.042V13.308C105.042 14.7821 105.367 15.2612 107.418 15.5293V15.7001H102.379V15.5293C104.312 15.2612 104.697 14.7821 104.697 13.308V4.38617C104.697 3.35093 104.181 2.62391 102.379 2.51V2.35254H105.98L113.907 13.1003H113.927V4.7279C113.927 3.25377 113.505 2.77468 111.495 2.50665V2.35254H116.477V2.50665C114.581 2.79478 114.272 3.27387 114.272 4.7279V16.0285H114.004L105.079 3.98078Z"
        fill="#DADEE0" />
      <path
        d="M123.794 10.5137H119.024L118.24 12.5641C117.359 14.8423 117.57 15.3415 119.503 15.5324V15.7033H115.117V15.5324C116.441 15.3013 116.936 14.7853 117.838 12.5239L122.052 1.93024H122.32L126.649 13.462C127.262 15.1103 127.493 15.3951 129.004 15.5291V15.7H123.315V15.5291C125.289 15.452 125.443 15.05 125.001 13.8238L123.794 10.5137ZM123.697 10.2088L121.533 4.21179H121.476L119.141 10.2088H123.697Z"
        fill="#DADEE0" />
      <path
        d="M128.123 15.5324C130.076 15.4754 130.384 15.1505 130.384 14.2124V3.82981C130.384 2.91183 130.08 2.56674 128.123 2.50644V2.35233H134.234V2.50644C132.241 2.56339 132.013 2.87162 132.013 3.82981V15.4185H134.77C136.743 15.4185 137.511 14.7082 138.66 11.6259L138.831 11.646L138.64 15.7066H128.123V15.5324Z"
        fill="#DADEE0" />
      <path
        d="M3.7168 33.5807C3.7168 32.579 4.36005 31.8587 5.23448 31.8587C6.05865 31.8587 6.62485 32.4751 6.62485 33.2993C6.62485 34.0699 6.10891 34.8438 5.05692 34.9711C5.62312 35.6411 6.65166 36.1537 7.78406 36.1537C9.9182 36.1537 10.8194 34.6629 10.8194 31.9089V20.1795C10.8194 18.9701 10.538 18.4809 7.707 18.4039V18.1995H16.0392V18.4039C13.4427 18.4809 13.0038 18.9433 13.0038 20.203V31.1082C13.0038 34.3479 11.5364 36.5591 8.11574 36.5591C5.33834 36.5625 3.7168 35.0984 3.7168 33.5807Z"
        fill="#DADEE0" />
      <path
        d="M16.5752 35.8958C19.1985 35.8187 19.6106 35.3798 19.6106 34.1201V20.1795C19.6106 18.9466 19.1985 18.4809 16.5752 18.4039V18.1995H31.0049L31.082 23.4729L30.8508 23.4997C29.4872 19.7976 28.6128 18.5881 26.1436 18.5881H21.795V26.6121H24.2373C26.1135 26.6121 26.7836 25.9186 27.4536 23.0876H27.6848V30.5453H27.4536C26.7836 27.7177 26.1168 26.9974 24.2373 26.9974H21.795V35.7416H26.5792C29.2795 35.7416 30.231 34.4551 31.6448 30.5219L31.876 30.5487L31.7487 36.1303H16.5752V35.8958Z"
        fill="#DADEE0" />
      <path
        d="M44.9666 21.1846C44.1692 18.7154 43.7571 18.5111 41.9044 18.4072V18.2028H49.1042V18.4072C46.7389 18.5111 46.5077 18.8964 47.0974 20.6955L51.0842 33.0916H51.1613L54.6322 22.1595C55.5569 19.228 55.1481 18.635 52.6019 18.4039V18.1995H58.7229V18.4039C56.7697 18.6082 56.0226 19.5597 55.0979 22.4175L50.4946 36.6663H50.1361L45.6634 23.2149L40.6983 36.6663H40.3398L35.4517 21.1846C34.7582 18.9734 34.3461 18.6116 32.3125 18.4072V18.2028H39.6698V18.4072C37.3044 18.5111 37.2274 19.1778 37.6897 20.6955L41.3684 33.1686H41.4454L45.4055 22.5448L44.9666 21.1846Z"
        fill="#DADEE0" />
      <path
        d="M58.4404 35.8958C61.0637 35.8187 61.4758 35.3798 61.4758 34.1201V20.1795C61.4758 18.9466 61.0637 18.4809 58.4404 18.4039V18.1995H72.8702L72.9472 23.4729L72.716 23.4997C71.3525 19.7976 70.478 18.5881 68.0089 18.5881H63.6635V26.6121H66.1059C67.9821 26.6121 68.6521 25.9186 69.3222 23.0876H69.5534V30.5453H69.3222C68.6521 27.7177 67.9854 26.9974 66.1059 26.9974H63.6635V35.7416H68.4478C71.1481 35.7416 72.0996 34.4551 73.5134 30.5219L73.7446 30.5487L73.6173 36.1303H58.4438V35.8958H58.4404Z"
        fill="#DADEE0" />
      <path
        d="M74.9775 35.8958C77.6008 35.8187 78.0129 35.3798 78.0129 34.1201V20.1795C78.0129 18.9466 77.6008 18.4809 74.9775 18.4039V18.1995H83.1824V18.4039C80.5089 18.4809 80.1973 18.893 80.1973 20.1795V35.7383H83.8994C86.5495 35.7383 87.578 34.7868 89.1191 30.6458L89.3503 30.6727L89.0923 36.1236H74.9775V35.8958Z"
        fill="#DADEE0" />
      <path
        d="M90.0205 35.8958C92.6438 35.8187 93.0559 35.3798 93.0559 34.1201V20.1795C93.0559 18.9466 92.6438 18.4809 90.0205 18.4039V18.1995H98.2254V18.4039C95.5518 18.4809 95.2403 18.893 95.2403 20.1795V35.7383H98.9423C101.592 35.7383 102.621 34.7868 104.162 30.6458L104.393 30.6727L104.135 36.1236H90.0205V35.8958Z"
        fill="#DADEE0" />
      <path
        d="M105.063 35.8958C107.687 35.8187 108.099 35.3798 108.099 34.1201V20.1795C108.099 18.9466 107.687 18.4809 105.063 18.4039V18.1995H119.493L119.57 23.4729L119.339 23.4997C117.976 19.7976 117.101 18.5881 114.632 18.5881H110.287V26.6121H112.729C114.605 26.6121 115.275 25.9186 115.945 23.0876H116.176V30.5453H115.945C115.275 27.7177 114.608 26.9974 112.729 26.9974H110.287V35.7416H115.071C117.771 35.7416 118.723 34.4551 120.136 30.5219L120.368 30.5487L120.24 36.1303H105.063V35.8958Z"
        fill="#DADEE0" />
      <path
        d="M126.797 34.1469C126.797 35.4066 127.132 35.8187 129.702 35.8958V36.1269H121.574V35.8958C124.198 35.8187 124.61 35.3798 124.61 34.1201V20.1795C124.61 18.9466 124.198 18.4809 121.574 18.4039V18.1995H129.059C133.793 18.1995 136.439 19.8981 136.439 22.5716C136.439 24.8867 134.845 26.5317 131.039 27.1247V27.2017C134.768 27.587 135.565 29.0009 135.95 31.7782L136.104 32.8838C136.517 35.3028 136.952 35.8154 139.398 35.8154V36.0197C138.55 36.1738 137.599 36.2509 136.748 36.2509C134.483 36.2509 134.021 35.1453 133.739 32.8302L133.458 30.5152C133.149 27.9422 132.379 27.3525 129.317 27.3525H126.797V34.1469ZM129.24 26.9706C133.096 26.9706 133.947 25.4797 133.947 22.5984C133.947 19.8981 132.711 18.5848 128.931 18.5848H126.797V26.9706H129.24Z"
        fill="#DADEE0" />
    </symbol>

    <symbol viewBox="0 0 178 40" id="refinery_icon">
      <path
        d="M24.9586 12.6617C24.0067 12.6617 23.1605 12.9261 22.473 13.3757C21.6797 10.5727 19.2469 9.01254 15.5448 9.01254H9.7273V11.0487H15.7035C18.7709 11.0487 20.569 12.7146 20.569 15.5969C20.569 18.4792 18.7709 20.1452 15.7035 20.1452H15.6506L15.9944 19.6427C16.7348 18.5321 17.4223 17.448 17.4223 16.4167C17.4223 14.3012 16.0737 12.6882 13.4294 12.6882C11.1552 12.6882 9.40998 14.4334 9.40998 16.496H11.5783C11.5783 15.4647 12.2659 14.6978 13.4029 14.6978C14.6457 14.6978 15.2275 15.4118 15.2275 16.4695C15.2275 17.2628 14.6986 18.0826 14.1433 18.9023L13.2707 20.1716H9.7273V22.2077H11.9221L8.11426 27.7608H17.2636V25.7247H11.8428L14.2755 22.1813H15.5448C15.7564 22.1813 15.9679 22.1813 16.1795 22.1549L22.5787 30.4845H25.3288L23.2134 27.7608L27.2328 21.8904C28.264 20.436 29.4804 18.8759 29.4804 17.0513C29.4275 14.645 27.603 12.6617 24.9586 12.6617ZM21.8648 26.0156L18.5594 21.7582C19.7757 21.3616 20.7541 20.7269 21.4681 19.8543C22.2614 20.8591 23.5042 21.4938 24.9851 21.4938H25.0908L21.8648 26.0156ZM24.9586 19.4576C23.5836 19.4576 22.6845 18.3999 22.6845 17.0777C22.6845 16.972 22.6845 16.8662 22.711 16.7604V16.7075C22.8696 15.5705 23.7158 14.6978 24.9586 14.6978C26.3337 14.6978 27.2328 15.7556 27.2328 17.0777C27.2592 18.3999 26.3601 19.4576 24.9586 19.4576Z"
        fill="#DADEE0" />
      <path
        d="M18.1098 2.19043C8.66953 2.19043 1.00098 9.85898 1.00098 19.2992C1.00098 28.7395 8.66953 36.408 18.1098 36.408C27.55 36.408 35.2186 28.7395 35.2186 19.2728C35.2186 9.85898 27.55 2.19043 18.1098 2.19043ZM18.1098 34.3719C9.78015 34.3719 3.03711 27.6024 3.03711 19.2992C3.03711 10.996 9.80659 4.22656 18.1098 4.22656C26.413 4.22656 33.1825 10.996 33.1825 19.2992C33.1825 27.6289 26.4394 34.3719 18.1098 34.3719ZM55.6592 19.1935C56.479 18.4266 57.0079 17.316 57.0079 16.0996C57.0079 14.8832 56.479 13.7726 55.6592 13.0057C54.9188 12.2918 53.914 11.8687 52.3538 11.8687H46.8272V27.0471H49.7624V20.3305H50.8201L56.241 27.0471H59.8373L54.152 20.0661C54.7073 19.9074 55.2362 19.5901 55.6592 19.1935ZM53.6496 17.2631C53.3851 17.5275 53.0149 17.7126 52.1687 17.7126H49.736V14.4601H52.1687C53.0149 14.4601 53.3851 14.6717 53.6496 14.9361C54.2313 15.6236 54.2313 16.602 53.6496 17.2631ZM64.7557 20.1983H69.4098V17.6069H64.7557V14.4601H70.917V11.8687H61.8205V27.0471H71.1286V24.4557H64.7557V20.1983ZM74.9628 27.0207H77.898V20.1983H82.5521V17.6069H77.898V14.4601H84.0593V11.8687H74.9628V27.0207ZM87.1268 11.8687H90.062V27.0471H87.1268V11.8687ZM104.764 21.7585L96.3026 11.8687H94.24V27.0471H97.1752V17.1573L105.637 27.0471H107.7V11.8687H104.764V21.7585ZM115.077 20.1983H119.731V17.6069H115.077V14.4601H121.239V11.8687H112.142V27.0471H121.45V24.4557H115.077V20.1983ZM134.116 19.1935C134.936 18.4266 135.465 17.316 135.465 16.0996C135.465 14.8832 134.936 13.7726 134.116 13.0057C133.376 12.2918 132.371 11.8687 130.811 11.8687H125.284V27.0471H128.22V20.3305H129.277L134.645 27.0471H138.268L132.583 20.0925C133.165 19.881 133.667 19.5901 134.116 19.1935ZM132.08 17.2631C131.816 17.5275 131.446 17.7126 130.6 17.7126H128.193V14.4601H130.626C131.472 14.4601 131.842 14.6717 132.107 14.9361C132.371 15.2534 132.53 15.6765 132.53 16.0996C132.53 16.5491 132.371 16.9458 132.08 17.2631ZM144.35 17.1838L140.992 11.8422H137.66L142.869 20.1719V27.0207H145.804V20.1719L150.987 11.8687H147.655L144.35 17.1838ZM161.036 20.5421C162.093 19.167 162.675 17.9771 162.675 16.0996C162.675 13.3231 160.322 11.3134 157.73 11.3134H157.625C155.033 11.3134 152.838 13.2437 152.68 16.0467H155.615C155.641 14.9097 156.567 14.0106 157.704 13.9577C158.841 13.9841 159.766 14.9097 159.793 16.0467C159.793 16.84 159.687 17.6862 158.603 19.0612L152.098 26.9942H163.283V24.3499H157.915L161.036 20.5421ZM170.82 11.3398C167.832 11.3662 165.425 13.799 165.452 16.7607C165.399 19.6694 167.726 22.0493 170.635 22.1022C170.688 22.1022 170.714 22.1022 170.767 22.1022H170.978L168.096 27.0471H171.296L174.866 20.9123C175.659 19.5372 176.373 18.1886 176.373 16.6549C176.373 13.4024 173.649 11.3398 170.82 11.3398ZM170.899 19.4843C169.392 19.4843 168.175 18.2679 168.175 16.7607C168.175 15.2534 169.392 14.037 170.899 14.037C172.406 14.037 173.623 15.2534 173.623 16.7607C173.623 18.2679 172.38 19.4843 170.899 19.4843Z"
        fill="#DADEE0" />
    </symbol>

    <symbol viewBox="0 0 24 24" id="location_icon" fill="none">
      <path d="M15 10.5C15 11.2956 14.6839 12.0587 14.1213 12.6213C13.5587 13.1839 12.7956 13.5 12 13.5C11.2044 13.5 10.4413 13.1839 9.87868 12.6213C9.31607 12.0587 9 11.2956 9 10.5C9 9.70435 9.31607 8.94129 9.87868 8.37868C10.4413 7.81607 11.2044 7.5 12 7.5C12.7956 7.5 13.5587 7.81607 14.1213 8.37868C14.6839 8.94129 15 9.70435 15 10.5Z" stroke="#333335" stroke-width="1.5" stroke-linecap="round" stroke-linejoin="round"/>
      <path d="M19.5 10.5C19.5 17.642 12 21.75 12 21.75C12 21.75 4.5 17.642 4.5 10.5C4.5 8.51088 5.29018 6.60322 6.6967 5.1967C8.10322 3.79018 10.0109 3 12 3C13.9891 3 15.8968 3.79018 17.3033 5.1967C18.7098 6.60322 19.5 8.51088 19.5 10.5Z" stroke="#333335" stroke-width="1.5" stroke-linecap="round" stroke-linejoin="round"/>
    </symbol>


    <symbol viewBox="0 0 24 24" id="telephone_icon" fill="none">
      <path d="M12.7888 21.3358C13.5911 21.8515 14.5461 22.0776 15.495 21.9764C16.4439 21.8752 17.3296 21.4529 18.0047 20.7796L18.5928 20.1925C18.8537 19.9292 19 19.5739 19 19.2036C19 18.8334 18.8537 18.478 18.5928 18.2148L16.1164 15.7582C15.8554 15.4987 15.502 15.3531 15.1336 15.3531C14.7652 15.3531 14.4119 15.4987 14.1508 15.7582C13.8871 16.0186 13.5312 16.1647 13.1602 16.1647C12.7893 16.1647 12.4334 16.0186 12.1697 15.7582L8.22295 11.8184C7.96209 11.5551 7.81577 11.1998 7.81577 10.8295C7.81577 10.4593 7.96209 10.1039 8.22295 9.84072C8.48287 9.58013 8.62879 9.22736 8.62879 8.85963C8.62879 8.49189 8.48287 8.13913 8.22295 7.87853L5.83943 5.40647C5.57575 5.14606 5.2198 5 4.84888 5C4.47796 5 4.12201 5.14606 3.85833 5.40647L3.27019 5.99359C2.58362 6.65801 2.14608 7.53738 2.0306 8.48496C1.91511 9.43253 2.12866 10.391 2.63561 11.2004C5.33445 15.2001 8.78203 18.6417 12.7888 21.3358Z" stroke="#333335" stroke-width="1.5" stroke-linecap="round" stroke-linejoin="round"/>
      <path d="M12.002 2C13.3152 2 14.6156 2.25866 15.8288 2.76121C17.0421 3.26376 18.1445 4.00036 19.0731 4.92895C20.0017 5.85755 20.7383 6.95995 21.2408 8.17321C21.7434 9.38648 22.002 10.6868 22.002 12.0001" stroke="#333335" stroke-width="1.5" stroke-linecap="round" stroke-linejoin="round"/>
      <path d="M12.002 6C13.5933 6 15.1194 6.63214 16.2446 7.75736C17.3698 8.88258 18.002 10.4087 18.002 12" stroke="#333335" stroke-width="1.5" stroke-linecap="round" stroke-linejoin="round"/>
    </symbol>

    <symbol viewBox="0 0 24 24" fill="none" id="mail_icon"> 
      <path id="Path" d="M3 9V18C3 19.657 4.343 21 6 21H18C19.657 21 21 19.657 21 18V9.235" stroke="#1D1F1E" stroke-width="2" stroke-linecap="round" stroke-linejoin="round"/>
      <path id="Path_2" fill-rule="evenodd" clip-rule="evenodd" d="M4.399 6.766L10.262 2.562C11.308 1.812 12.715 1.813 13.76 2.563L19.598 6.755C21.467 8.097 21.467 10.293 19.596 11.634L13.744 15.83C12.698 16.58 11.291 16.579 10.246 15.829L4.397 11.628C2.534 10.291 2.534 8.103 4.399 6.766Z" stroke="#1D1F1E" stroke-width="2" stroke-linecap="round" stroke-linejoin="round"/>
      <path id="Path_3" d="M9.21582 8L12.0048 6L14.7838 7.996" stroke="#1D1F1E" stroke-width="2" stroke-linecap="round" stroke-linejoin="round"/>
      <path id="Path_4" d="M12 6V12" stroke="#1D1F1E" stroke-width="2" stroke-linecap="round" stroke-linejoin="round"/>
    </symbol>

    <symbol viewBox="0 0 24 24" fill="none" id="phone_call">
    <path fill-rule="evenodd" clip-rule="evenodd" d="M10.8561 13.144C9.68615 11.974 8.80415 10.664 8.21815 9.33499C8.09415 9.05399 8.16715 8.72499 8.38415 8.50799L9.20315 7.68999C9.87415 7.01899 9.87415 6.06999 9.28815 5.48399L8.11415 4.30999C7.33315 3.52899 6.06715 3.52899 5.28615 4.30999L4.63415 4.96199C3.89315 5.70299 3.58415 6.77199 3.78415 7.83199C4.27815 10.445 5.79615 13.306 8.24515 15.755C10.6941 18.204 13.5551 19.722 16.1681 20.216C17.2281 20.416 18.2971 20.107 19.0381 19.366L19.6891 18.715C20.4701 17.934 20.4701 16.668 19.6891 15.887L18.5161 14.714C17.9301 14.128 16.9801 14.128 16.3951 14.714L15.4921 15.618C15.2751 15.835 14.9461 15.908 14.6651 15.784C13.3361 15.197 12.0261 14.314 10.8561 13.144Z" stroke="#1D1F1E" stroke-width="2" stroke-linecap="round" stroke-linejoin="round"/>
    </symbol>

    <symbol viewBox="0 0 24 24" id="cart_icon" fill="none">
      <path xmlns="http://www.w3.org/2000/svg" d="M15.7512 10.5V6C15.7512 5.00544 15.3561 4.05161 14.6529 3.34835C13.9496 2.64509 12.9958 2.25 12.0012 2.25C11.0066 2.25 10.0528 2.64509 9.34956 3.34835C8.64629 4.05161 8.25121 5.00544 8.25121 6V10.5M19.6072 8.507L20.8702 20.507C20.9402 21.172 20.4202 21.75 19.7512 21.75H4.25121C4.09341 21.7502 3.93735 21.7171 3.79315 21.6531C3.64896 21.589 3.51985 21.4953 3.41423 21.3781C3.3086 21.2608 3.22882 21.1227 3.18006 20.9726C3.1313 20.8226 3.11466 20.6639 3.13121 20.507L4.39521 8.507C4.42436 8.23056 4.55483 7.9747 4.76146 7.78876C4.96808 7.60281 5.23623 7.49995 5.51421 7.5H18.4882C19.0642 7.5 19.5472 7.935 19.6072 8.507ZM8.62621 10.5C8.62621 10.5995 8.5867 10.6948 8.51637 10.7652C8.44604 10.8355 8.35066 10.875 8.25121 10.875C8.15175 10.875 8.05637 10.8355 7.98604 10.7652C7.91571 10.6948 7.87621 10.5995 7.87621 10.5C7.87621 10.4005 7.91571 10.3052 7.98604 10.2348C8.05637 10.1645 8.15175 10.125 8.25121 10.125C8.35066 10.125 8.44604 10.1645 8.51637 10.2348C8.5867 10.3052 8.62621 10.4005 8.62621 10.5ZM16.1262 10.5C16.1262 10.5995 16.0867 10.6948 16.0164 10.7652C15.946 10.8355 15.8507 10.875 15.7512 10.875C15.6517 10.875 15.5564 10.8355 15.486 10.7652C15.4157 10.6948 15.3762 10.5995 15.3762 10.5C15.3762 10.4005 15.4157 10.3052 15.486 10.2348C15.5564 10.1645 15.6517 10.125 15.7512 10.125C15.8507 10.125 15.946 10.1645 16.0164 10.2348C16.0867 10.3052 16.1262 10.4005 16.1262 10.5Z" stroke="#333335" stroke-width="1.5" stroke-linecap="round" stroke-linejoin="round"/>
    </symbol>

    <symbol viewBox="0 0 26 26" id="round_shape">
      <path
        d="M13.1746 0.000983811C12.4028 -0.00828591 11.6292 0.0479364 10.8895 0.170252C8.10938 0.630106 5.68793 1.89239 3.69563 3.91982C3.01736 4.61001 2.58408 5.14806 2.08512 5.91986C0.765625 7.96096 0.0671848 10.2199 0.00450628 12.6479C-0.063202 15.2778 0.633046 17.7999 2.02889 19.9758C3.90899 22.907 6.86097 24.9786 10.1967 25.7046C10.693 25.8126 11.5843 25.9501 12.0292 25.9859H12.0294H12.046C12.5387 26.0232 14.1034 25.9815 14.5889 25.9186H14.5891C17.5471 25.5317 20.1032 24.2785 22.1972 22.1878C24.2638 20.1247 25.51 17.5794 25.9252 14.5813C26.0243 13.8663 26.0247 12.1258 25.926 11.408C25.8327 10.7279 25.6686 9.92491 25.5119 9.38665C24.1428 4.68271 20.2582 1.14661 15.4482 0.22578C14.7159 0.085525 13.9457 0.0107647 13.1737 0.00129326L13.1746 0.000983811ZM13.6742 0.548067C14.6215 0.604694 15.6387 0.773359 16.5123 1.02605C16.7416 1.09235 17.0673 1.20218 17.3349 1.29991C17.46 1.34545 17.568 1.38717 17.6514 1.42142C17.6277 1.48309 17.6027 1.54797 17.5652 1.64007C17.4683 1.87826 17.3306 2.20392 17.1771 2.55796C17.0231 2.91262 16.8805 3.23685 16.7747 3.4726C16.7497 3.52822 16.735 3.55945 16.7146 3.60439C16.6753 3.56631 16.6473 3.53991 16.5973 3.49114C16.3976 3.29587 16.1189 3.0194 15.8008 2.70139C15.1642 2.06522 14.3692 1.26159 13.7256 0.600603L13.6744 0.54801L13.6742 0.548067ZM12.319 0.551089L11.8458 1.018C11.3697 1.48792 10.615 2.23148 10.1692 2.67039C9.59513 3.23563 9.33601 3.48975 9.18827 3.62434C9.15905 3.55804 9.12862 3.48812 9.08832 3.39602C8.98574 3.16046 8.85355 2.85498 8.72257 2.55066C8.59159 2.24638 8.46181 1.94333 8.36408 1.7134C8.32076 1.61164 8.2869 1.53124 8.25889 1.46454C8.35118 1.4204 8.49103 1.36297 8.6599 1.30111C9.00448 1.17516 9.46311 1.03108 9.88669 0.923271C10.7151 0.71229 11.4587 0.601857 12.3188 0.55128L12.319 0.551089ZM13.0007 0.633309L14.6894 2.33832C15.1934 2.84734 15.6514 3.31286 15.9831 3.65261C16.131 3.80395 16.2424 3.91941 16.3327 4.01332C16.2608 4.04939 16.1947 4.08304 16.0931 4.13281C15.7955 4.27911 15.3838 4.4776 14.9314 4.693C14.0252 5.12444 13.1814 5.52567 13.0635 5.58108L12.9313 5.64314L12.6881 5.52727C12.2619 5.32394 11.4966 4.95496 10.4785 4.46246C10.065 4.26236 9.70834 4.09308 9.55904 4.02598C9.56025 4.02417 9.56106 4.02397 9.56247 4.02215C9.67612 3.90588 9.83431 3.74769 10.0082 3.57701C10.358 3.23384 11.2072 2.39855 11.8958 1.7207L13.0005 0.633133L13.0007 0.633309ZM18.1605 1.63844C18.175 1.64368 18.1734 1.64146 18.1915 1.64891C18.3253 1.70413 18.556 1.8204 18.9049 2.00801C19.8058 2.49265 20.7696 3.18002 21.4697 3.83028L19.4443 3.83149L17.2079 3.8327L17.2145 3.81698C17.411 3.35632 17.6557 2.79029 17.8545 2.33384C17.9539 2.10573 18.0419 1.90502 18.1066 1.7589C18.129 1.70832 18.1443 1.67427 18.1606 1.6382L18.1605 1.63844ZM7.76151 1.67269C7.76574 1.68156 7.76937 1.68579 7.7732 1.69506C7.82116 1.80993 8.06458 2.37256 8.32069 2.96096C8.44866 3.25517 8.56734 3.5278 8.65521 3.72992C8.67737 3.7809 8.67435 3.77425 8.69289 3.81657C8.63001 3.81859 8.59616 3.82181 8.50206 3.82342C8.13168 3.83007 7.50782 3.83209 6.51492 3.83148L4.54733 3.83027C5.11963 3.30532 5.80213 2.78182 6.44398 2.38805C6.6725 2.248 7.02615 2.05071 7.3286 1.89112C7.47974 1.81132 7.61858 1.74039 7.72175 1.69082C7.73848 1.68276 7.74694 1.67953 7.76165 1.67268L7.76151 1.67269ZM4.16634 4.35807H6.48292C7.17651 4.35807 7.80727 4.36069 8.26387 4.36411C8.46216 4.36593 8.60986 4.36754 8.73299 4.36976C8.68946 4.51344 8.63102 4.70306 8.56594 4.91225C8.43213 5.34248 8.28503 5.81766 8.23827 5.97159C8.0821 6.48364 7.93621 6.95036 7.82618 7.29212C7.77117 7.46301 7.72502 7.60306 7.69157 7.70079C7.67726 7.74251 7.66658 7.77193 7.65731 7.79651C7.63011 7.80881 7.58497 7.82795 7.49328 7.862C7.28935 7.93778 6.90307 8.07339 6.17517 8.3279C5.61777 8.52276 4.88368 8.7807 4.54311 8.90119C4.40164 8.95116 4.28215 8.99287 4.17595 9.02955C4.17434 8.90381 4.17252 8.7557 4.17131 8.55519C4.16829 8.08788 4.16628 7.44266 4.16628 6.73292L4.16634 4.35807ZM19.4336 4.35807H21.7687V5.23C21.7687 5.82588 21.7798 6.97045 21.7931 7.77831C21.8004 8.21599 21.8032 8.58152 21.8016 8.83523C21.8012 8.89124 21.8 8.91885 21.799 8.96339C21.6932 8.92913 21.5699 8.88883 21.4119 8.83603C21.0449 8.71351 20.5629 8.55008 20.0829 8.38585C19.6029 8.22162 19.1245 8.05638 18.7644 7.93003C18.5844 7.86695 18.4339 7.81335 18.3283 7.77486C18.29 7.76096 18.2652 7.75149 18.24 7.74202C18.2366 7.73315 18.235 7.72912 18.2312 7.71884C18.208 7.65577 18.1761 7.56408 18.1385 7.45264C18.0631 7.22937 17.9646 6.92568 17.8614 6.59722C17.6133 5.80747 17.4203 5.18987 17.2891 4.76727C17.2351 4.59296 17.1986 4.47346 17.1661 4.36747C17.2905 4.36565 17.4392 4.36404 17.6391 4.36283C18.0992 4.35981 18.7345 4.3582 19.4334 4.3582L19.4336 4.35807ZM9.2611 4.47474C9.34392 4.51243 9.43662 4.55535 9.54806 4.60855C10.612 5.11677 11.381 5.48553 11.8866 5.72954C12.0621 5.81418 12.1653 5.86476 12.2784 5.91997C12.0303 6.02154 11.2154 6.35484 10.131 6.79814C9.53494 7.04177 8.98925 7.26323 8.59027 7.42384C8.47078 7.47201 8.39562 7.50163 8.30514 7.5377C8.31763 7.4984 8.32509 7.47543 8.33919 7.4309C8.43048 7.14132 8.55401 6.74618 8.68801 6.3147C8.98081 5.37102 9.1396 4.85999 9.22627 4.5839C9.24441 4.52626 9.24864 4.51357 9.26113 4.47468L9.2611 4.47474ZM16.637 4.47656C16.6632 4.55817 16.6913 4.64542 16.7293 4.76533C16.8255 5.0684 16.9538 5.47527 17.0848 5.89096C17.3159 6.62469 17.5128 7.25539 17.5948 7.52344C17.3117 7.40999 16.709 7.16858 15.6418 6.74138C14.9986 6.48384 14.4053 6.24586 13.968 6.07033C13.8117 6.00746 13.7035 5.96413 13.5918 5.91899C13.7966 5.82247 14.1159 5.67073 14.5119 5.48131C15.2471 5.12967 15.8298 4.85297 16.2294 4.66561C16.4076 4.58218 16.5353 4.52314 16.6373 4.47679L16.637 4.47656ZM22.2962 4.68573C22.8008 5.25056 23.3332 5.95503 23.7311 6.61762C23.8508 6.81712 24.0241 7.1369 24.1751 7.43213C24.3143 7.70437 24.4235 7.94075 24.4646 8.04432C24.4634 8.04452 24.4634 8.04452 24.4616 8.04512C24.3977 8.07092 24.3117 8.10618 24.2089 8.1487C24.0034 8.23354 23.7313 8.34699 23.4422 8.4687C22.916 8.69037 22.4781 8.87253 22.3296 8.93319V8.14003C22.3296 7.53285 22.3204 6.38426 22.3091 5.58342L22.2962 4.68573ZM3.64015 4.76653L3.64055 6.55357H3.64035V6.76072C3.64055 7.46298 3.63995 8.10137 3.63834 8.56365C3.63793 8.74622 3.63713 8.87499 3.63632 8.99569C3.62705 8.99146 3.62302 8.98965 3.61355 8.98541C3.42413 8.89957 3.16377 8.78128 2.87864 8.6513C2.30757 8.39095 1.73949 8.13522 1.59582 8.07399L1.54161 8.05102C1.64499 7.79127 2.02927 7.03681 2.27312 6.62633C2.63846 6.01131 3.11461 5.37575 3.64039 4.76656L3.64015 4.76653ZM12.9223 6.23316C12.9281 6.23518 12.9315 6.23659 12.939 6.23921C12.9742 6.25231 13.026 6.27205 13.0921 6.29744C13.2239 6.34822 13.4121 6.42178 13.642 6.51226C14.1019 6.69322 14.7288 6.94249 15.4117 7.21596L17.8148 8.17817L18.7167 10.3954C19.231 11.6597 19.6846 12.7759 19.718 12.8593L19.7525 12.9457L19.6443 13.1988C19.5657 13.3828 19.0976 14.4839 18.6031 15.6481L17.7367 17.6871L15.83 18.4817C14.7387 18.9365 13.6118 19.4052 13.3285 19.5219L12.8892 19.7031L11.7174 19.2247C10.1282 18.576 9.19763 18.1953 8.66061 17.9726C8.3922 17.8612 8.22192 17.7893 8.11894 17.7439C8.07683 17.7252 8.05264 17.7143 8.03209 17.7044C8.02705 17.6944 8.02343 17.6871 8.01698 17.673C7.99179 17.6194 7.95652 17.5418 7.91461 17.4471C7.83098 17.2579 7.72095 17.0006 7.60468 16.7227C7.37113 16.1645 6.91852 15.0858 6.59852 14.3249C6.43872 13.945 6.29363 13.5954 6.18865 13.3389C6.13605 13.2107 6.09374 13.1055 6.06472 13.0324C6.05686 13.0124 6.05283 13.0022 6.04719 12.9873C6.06049 12.9542 6.07741 12.9133 6.10079 12.8569C6.15379 12.7289 6.23076 12.5453 6.32608 12.3203C6.51651 11.8701 6.77908 11.2539 7.06806 10.5806L8.08573 8.20918L8.3894 8.08545C9.35548 7.69169 11.7906 6.69564 12.1255 6.55717C12.4946 6.40463 12.707 6.31778 12.8279 6.27204C12.9394 6.22972 12.9488 6.23516 12.9224 6.23314L12.9223 6.23316ZM18.4968 8.42645C18.5641 8.44821 18.6116 8.46312 18.6928 8.48952C19.0473 8.60479 19.5194 8.76015 19.9922 8.91673C20.4648 9.07351 20.9379 9.23149 21.2944 9.35179C21.4502 9.40439 21.5707 9.4459 21.6716 9.48076C21.663 9.49648 21.6589 9.50454 21.6495 9.52187C21.5652 9.67683 21.4473 9.89104 21.3162 10.128C21.0538 10.6022 20.7378 11.1684 20.5286 11.5364C20.4408 11.691 20.2638 12.0096 20.1331 12.2484C20.1147 12.2818 20.1022 12.3024 20.0847 12.3336C20.0821 12.3276 20.0809 12.3255 20.0784 12.3191C19.9795 12.0849 19.8453 11.7605 19.7004 11.4038C19.4098 10.6887 18.9838 9.64037 18.7537 9.07415C18.6517 8.82326 18.5665 8.60664 18.4967 8.42626L18.4968 8.42645ZM7.389 8.47158C7.36804 8.52196 7.36381 8.53466 7.33661 8.59935C7.15766 9.02454 6.83605 9.77497 6.27566 11.0769C6.08161 11.5279 5.90367 11.9394 5.77369 12.2385C5.75354 12.2848 5.74326 12.308 5.72553 12.3487C5.70901 12.3173 5.70276 12.3066 5.68382 12.2709C5.52059 11.9606 5.26991 11.4757 4.91708 10.7882C4.72927 10.4222 4.48564 9.95273 4.3736 9.74112C4.33632 9.67059 4.30932 9.61578 4.28091 9.55896C4.38126 9.52208 4.507 9.47674 4.66579 9.42032C5.01542 9.29578 5.47933 9.13256 5.94279 8.97054C6.40627 8.80872 6.86914 8.64832 7.21673 8.52963C7.28787 8.50524 7.32817 8.49214 7.38862 8.47159L7.389 8.47158ZM24.6687 8.53466C24.7041 8.64227 24.7531 8.78857 24.8355 9.03119C25.2001 10.1048 25.3865 11.0822 25.4664 12.3187C25.4106 12.2641 25.3739 12.2288 25.3068 12.1629C24.9874 11.8496 24.5493 11.4173 24.0694 10.9415L22.5407 9.42637C22.662 9.37398 22.8347 9.30002 23.0318 9.2172C23.2754 9.11503 23.7717 8.90586 24.1355 8.75211C24.316 8.67574 24.4851 8.60642 24.6108 8.55664C24.6348 8.54717 24.6479 8.54233 24.6685 8.53448L24.6687 8.53466ZM1.34658 8.54957C1.40925 8.57678 1.47373 8.60479 1.563 8.64408C1.79757 8.74746 2.10849 8.8859 2.41961 9.02534C2.73073 9.16479 3.04268 9.30524 3.27864 9.41285C3.34172 9.44167 3.38141 9.46 3.4322 9.48338C3.37658 9.54021 3.3391 9.5797 3.24197 9.67643C2.92459 9.99301 2.36339 10.5454 1.40092 11.4904C0.998098 11.886 0.725645 12.1492 0.543903 12.3239C0.593475 11.5376 0.704711 10.744 0.867329 10.0639C0.924158 9.82652 1.05655 9.39208 1.17867 9.0255C1.23973 8.84212 1.29877 8.67447 1.34391 8.55597C1.34512 8.55295 1.34552 8.55215 1.34653 8.54953L1.34658 8.54957ZM22.1301 9.78504C22.2205 9.87229 22.3348 9.98333 22.4831 10.1282C22.8092 10.447 23.2563 10.8871 23.7456 11.3712L25.3759 12.9843L23.7471 14.5801C23.258 15.0591 22.8109 15.4946 22.4846 15.8101C22.3379 15.952 22.2256 16.0596 22.1353 16.1457C22.0852 16.059 22.0301 15.9637 21.9566 15.8343C21.7746 15.5139 21.5338 15.0849 21.2932 14.6536C21.0526 14.2224 20.812 13.7885 20.6307 13.4578C20.54 13.2926 20.4642 13.153 20.4108 13.053C20.3894 13.0131 20.3749 12.9847 20.3614 12.9587C20.3618 12.9587 20.3618 12.9587 20.3622 12.9543C20.3856 12.9021 20.4287 12.816 20.4936 12.6941C20.6234 12.4501 20.8406 12.0595 21.1778 11.4623C21.3841 11.0969 21.7092 10.5204 21.9004 10.1804C21.9877 10.0253 22.0661 9.89044 22.1297 9.78323L22.1301 9.78504ZM3.83051 9.86C3.83756 9.87269 3.84099 9.87834 3.84844 9.89224C3.93348 10.0488 4.04814 10.2671 4.17106 10.5066C4.41832 10.9889 4.81833 11.7649 5.06033 12.2318L5.45106 12.986L4.62726 14.6153C4.38787 15.0888 4.16761 15.5194 4.00558 15.831C3.94553 15.9462 3.90382 16.025 3.86211 16.1036C3.82543 16.0692 3.79964 16.045 3.75309 16.0008C3.56649 15.8235 3.30432 15.572 2.99904 15.2778C2.38866 14.6892 1.60577 13.929 0.905935 13.2435L0.640343 12.9831L1.16447 12.4677C2.2754 11.3753 2.98452 10.6792 3.41837 10.2571C3.61303 10.0676 3.73575 9.94955 3.83026 9.85968L3.83051 9.86ZM20.0722 13.564C20.1146 13.6386 20.1504 13.7017 20.2044 13.798C20.3846 14.119 20.6214 14.5438 20.8566 14.9678C21.0917 15.3915 21.3253 15.8145 21.499 16.1317C21.5703 16.2619 21.6229 16.3588 21.6699 16.4458C21.6302 16.4589 21.6029 16.4678 21.5542 16.4841C21.3426 16.5536 21.0516 16.6484 20.7326 16.7517C20.1045 16.9555 19.2624 17.2303 18.8279 17.3732H18.8271L18.7955 17.3839C18.6395 17.4353 18.5141 17.4756 18.3898 17.5155C18.4216 17.4401 18.4493 17.3748 18.4912 17.2759C18.6258 16.9581 18.8069 16.5313 19.0012 16.0736C19.3899 15.1588 19.8316 14.1214 20.0583 13.5924C20.0636 13.5799 20.0668 13.5753 20.0718 13.5642L20.0722 13.564ZM0.542851 13.6301C0.637761 13.7222 0.731872 13.8143 0.885622 13.964C1.75213 14.8076 2.66435 15.6946 3.19776 16.2127C3.31223 16.3239 3.41036 16.4215 3.49097 16.5031C3.40754 16.5496 3.32673 16.5944 3.14033 16.6939C2.72521 16.9156 2.62869 16.9682 1.82367 17.4095C1.6673 17.4951 1.52442 17.5727 1.41762 17.6295C1.39001 17.5618 1.3614 17.4913 1.32533 17.3928C1.23102 17.1344 1.11676 16.7941 1.02205 16.4787C0.773384 15.6513 0.611771 14.6767 0.542649 13.6303L0.542851 13.6301ZM5.7284 13.6345C5.78724 13.7724 5.8479 13.9146 5.92991 14.1085C6.14513 14.6167 6.42422 15.2803 6.68598 15.906C6.78794 16.1498 7.01041 16.6792 7.18049 17.083C7.24356 17.2329 7.29354 17.3549 7.3425 17.4744C7.14542 17.4038 6.34604 17.1225 5.55671 16.846C5.16174 16.7078 4.80142 16.5806 4.53925 16.4875C4.44797 16.4553 4.38691 16.4331 4.32222 16.41C4.36172 16.3289 4.40525 16.2401 4.46671 16.1159C4.61905 15.8094 4.83104 15.3875 5.06579 14.925C5.30055 14.4625 5.51536 14.0434 5.67215 13.7413C5.69572 13.696 5.70741 13.6744 5.72817 13.6345L5.7284 13.6345ZM25.4647 13.6493C25.378 15.0058 25.1616 16.0614 24.7033 17.3327C24.6647 17.4401 24.6276 17.5298 24.5951 17.6051C24.549 17.5824 24.5036 17.5602 24.4498 17.5312C24.2818 17.4409 23.7336 17.1566 23.2216 16.8938C22.9667 16.763 22.7347 16.6417 22.5677 16.5523C22.5507 16.5434 22.5437 16.539 22.5282 16.5305C22.5397 16.5186 22.5449 16.5132 22.5576 16.5003C22.6884 16.3679 22.8697 16.1871 23.0692 15.9908C24.4109 14.6715 25.2121 13.8905 25.4646 13.649L25.4647 13.6493ZM4.21432 16.9486C4.30197 16.9782 4.38863 17.0075 4.51195 17.05C4.84969 17.1659 5.30067 17.3226 5.7551 17.4812C6.20951 17.64 6.66716 17.8006 7.01816 17.9254C7.19368 17.9876 7.3424 18.041 7.45041 18.0801C7.50441 18.0997 7.54814 18.1158 7.57938 18.1275C7.59147 18.1321 7.58683 18.1319 7.5959 18.1339C7.61283 18.1662 7.64446 18.2417 7.6898 18.3697C7.78008 18.6254 7.9286 19.0927 8.18936 19.927C8.34936 20.4391 8.49485 20.9076 8.60044 21.2498C8.64054 21.3801 8.66855 21.4716 8.69576 21.5605C8.57385 21.5649 8.42775 21.5659 8.23107 21.5679C7.77787 21.5732 7.15135 21.576 6.46261 21.576H4.16434L4.18752 19.2308C4.19457 18.5285 4.20183 17.8891 4.20767 17.4248C4.21029 17.2241 4.2123 17.0746 4.21432 16.9487L4.21432 16.9486ZM21.7937 16.9788C21.7957 17.1066 21.7981 17.2614 21.8008 17.4671C21.8068 17.9348 21.8141 18.5793 21.8211 19.2866L21.8447 21.6501H19.4539C18.7396 21.6501 18.0899 21.6457 17.62 21.6421C17.4096 21.6421 17.2504 21.6374 17.1228 21.6346C17.1254 21.6257 17.1263 21.6219 17.1289 21.6128C17.1752 21.4514 17.2391 21.232 17.3094 20.9942C17.4507 20.5168 17.7016 19.6606 17.8674 19.0905L18.138 18.1597L20.0421 17.5415C20.594 17.3622 21.0966 17.2004 21.4616 17.0841C21.6016 17.0395 21.6994 17.0089 21.7937 16.9793L21.7937 16.9788ZM3.67833 17.0099L3.65656 19.1928C3.64971 19.8893 3.64246 20.5236 3.63641 20.9843C3.6352 21.0849 3.6344 21.1399 3.63299 21.2227C3.49535 21.0651 3.3424 20.8878 3.23177 20.7502C2.93213 20.3768 2.57744 19.8637 2.29794 19.3982C2.18973 19.2179 2.00414 18.8728 1.84897 18.5704C1.77139 18.4193 1.70066 18.2778 1.65068 18.1724C1.64202 18.1545 1.63839 18.1452 1.63114 18.1293C1.67688 18.1011 1.71657 18.0757 1.81995 18.0176C2.10812 17.8558 2.64556 17.5654 3.62613 17.0377L3.67852 17.0097L3.67833 17.0099ZM22.3235 17.0286L22.4345 17.0873C22.6683 17.2108 23.238 17.5058 23.7047 17.745C23.9376 17.8643 24.1504 17.9737 24.3056 18.0537C24.343 18.0733 24.3646 18.0843 24.3948 18.1001C24.3696 18.1557 24.3445 18.2113 24.3082 18.2865C24.2086 18.4924 24.0772 18.7512 23.964 18.9595C23.6926 19.4597 23.1789 20.2371 22.8041 20.7151C22.6786 20.8751 22.5065 21.0738 22.3692 21.2287L22.3684 20.6734C22.3676 20.0708 22.3557 18.9276 22.3422 18.1287L22.3237 17.0284L22.3235 17.0286ZM17.5271 18.3604C17.3457 18.9758 16.8204 20.765 16.6989 21.1818C16.6585 21.3198 16.6223 21.4365 16.5908 21.534C16.4905 21.4854 16.3643 21.4238 16.2068 21.346C15.8622 21.1761 15.4072 20.9502 14.9542 20.7239C14.5012 20.4978 14.0504 20.2717 13.7136 20.1012C13.6427 20.0652 13.6028 20.0446 13.543 20.0142C13.5923 19.9934 13.6224 19.9803 13.6796 19.956C14.0022 19.8197 14.4435 19.6353 14.925 19.4363C15.2697 19.2936 15.7506 19.0941 15.9942 18.9925C16.2374 18.8912 16.7725 18.6679 17.1833 18.4966C17.3474 18.4281 17.424 18.4003 17.5271 18.3604L17.5271 18.3604ZM8.27233 18.4072C8.4948 18.4922 8.7882 18.6068 9.11346 18.736C9.78894 19.0046 10.5728 19.3239 10.9875 19.5032C11.0889 19.5469 11.4885 19.7111 11.8943 19.876C12.0275 19.9302 12.1295 19.9723 12.2387 20.0172C12.0301 20.1158 11.6513 20.2973 11.3293 20.4535C10.9851 20.6204 10.5373 20.8362 10.336 20.9323C10.1331 21.029 9.75525 21.2098 9.49592 21.3341C9.39254 21.3837 9.3073 21.4242 9.22851 21.4613C9.2009 21.3752 9.17108 21.2821 9.12956 21.1509C9.02579 20.8225 8.88372 20.3691 8.72856 19.8701C8.57339 19.371 8.43052 18.9122 8.32513 18.575C8.30316 18.5049 8.29087 18.4656 8.27233 18.4068L8.27233 18.4072ZM12.8989 20.3127C12.9275 20.3254 12.9634 20.3419 13.0111 20.3645C13.1177 20.4144 13.2666 20.486 13.4428 20.5712C13.795 20.7421 14.2569 20.969 14.7157 21.1963C15.1746 21.4236 15.6308 21.6515 15.9714 21.824C16.1088 21.8935 16.2098 21.9455 16.3016 21.9933C16.2573 22.04 16.2208 22.0787 16.1616 22.1406C15.9637 22.3469 15.6903 22.6291 15.3892 22.936C14.7864 23.5506 13.9697 24.3826 13.5748 24.7846L13.0017 25.3678L11.2429 23.6272C10.7187 23.1085 10.2423 22.6343 9.89735 22.2883C9.74159 22.1322 9.6233 22.0123 9.52899 21.9166C9.56244 21.8994 9.58239 21.8891 9.62209 21.869C9.82924 21.7652 10.1164 21.625 10.432 21.4734C11.0651 21.1697 11.8879 20.7748 12.2605 20.5954C12.4442 20.5071 12.6188 20.4277 12.7489 20.3725C12.8116 20.3457 12.8628 20.3256 12.8987 20.3125L12.8989 20.3127ZM6.4773 22.1027C7.46994 22.1027 8.09383 22.1027 8.46444 22.1108C8.56116 22.1108 8.59703 22.1154 8.66071 22.1176C8.45074 22.6272 7.79523 24.2122 7.75087 24.3169C7.69183 24.2901 7.62694 24.2605 7.55137 24.2228C6.36383 23.6298 5.32687 22.91 4.48997 22.1035H6.47727L6.4773 22.1027ZM17.1719 22.1753H21.4379C20.6223 22.9462 19.4886 23.7241 18.4005 24.25H18.3966C18.3128 24.2903 18.2411 24.3234 18.1758 24.3532C18.1546 24.3099 18.1367 24.2738 18.1089 24.2156C18.0178 24.0247 17.8955 23.7632 17.7655 23.4829C17.5372 22.99 17.3145 22.4971 17.1718 22.1712L17.1719 22.1753ZM9.14642 22.3344C9.24012 22.4219 9.35237 22.5279 9.50189 22.672C9.84587 23.0031 10.3176 23.4647 10.8333 23.976L11.1862 24.3256L12.3261 25.4556C12.1873 25.4484 12.1147 25.4488 11.7153 25.4109C10.9647 25.3398 10.0581 25.1556 9.30724 24.9214C9.13515 24.8676 8.83369 24.762 8.57475 24.6669C8.45264 24.622 8.34301 24.5805 8.25696 24.5466C8.28074 24.4817 8.30593 24.4134 8.3424 24.3185C8.43651 24.0741 8.56548 23.7478 8.69727 23.4208C8.82906 23.0937 8.96367 22.7653 9.06866 22.5158C9.09989 22.4414 9.12145 22.3927 9.14644 22.3346L9.14642 22.3344ZM16.6864 22.3864C16.7511 22.5329 16.9653 23.0079 17.185 23.4924C17.4082 23.9845 17.6263 24.4649 17.6756 24.5745L17.432 24.667C16.2915 25.1003 15.1418 25.3544 13.8907 25.4493C13.7897 25.4567 13.7587 25.4573 13.6648 25.4632C13.9664 25.148 14.678 24.4196 15.3986 23.6874C15.7838 23.2959 16.154 22.9211 16.4287 22.6444C16.5359 22.5366 16.6131 22.4594 16.6862 22.3865L16.6864 22.3864Z"
        fill="black" />

    </symbol>

    <symbol viewBox="0 0 26 26" id="emerald_shape">
    <path
      d="M19.1519 3.76499L15.4578 0.070957L15.3157 0H4.53211L4.38147 0.0624374L0.687437 3.75647L0.625 3.90711V22.0929L0.687437 22.2435L4.38147 25.9376L4.53211 26H15.3157L15.4664 25.9376L19.1604 22.2435L19.2228 22.0929V3.90711L19.1519 3.76499ZM16.0261 4.91855L14.3013 3.19095L14.5429 2.60844L16.6086 4.67717L16.0261 4.91855ZM13.9603 22.536L5.8762 22.5362L4.07188 20.7347V5.25648L5.8762 3.45496H13.9578L15.7621 5.25648V20.7428L13.9603 22.536ZM13.8949 3.02894H5.93866L5.69704 2.44642H14.145L13.8949 3.02894ZM5.52663 3.19087L3.80183 4.91847L3.21931 4.67685L5.28505 2.60812L5.52663 3.19087ZM3.63712 5.3107V20.6889L3.05461 20.9306L3.05481 5.06926L3.63712 5.3107ZM3.80183 21.0812L5.52664 22.8088L5.28502 23.377L3.21928 21.3083L3.80183 21.0812ZM5.93891 22.9707H13.8952L14.1368 23.5389H5.68885L5.93891 22.9707ZM14.3072 22.8088L16.032 21.0812L16.6145 21.3228L14.5488 23.3915L14.3072 22.8088ZM16.1967 20.6889V5.31068L16.7792 5.06907V20.9304L16.1967 20.6889ZM17.0492 4.49222L14.7333 2.17633L14.975 1.60807L17.6345 4.26485L17.0492 4.49222ZM14.3213 2.02014H5.51253L5.27092 1.43484H14.5627L14.3213 2.02014ZM5.11776 2.18208L2.81318 4.49797L2.22788 4.25636L4.88745 1.59958L5.11776 2.18208ZM2.63716 4.893V21.107L2.05465 21.3486L2.05445 4.65155L2.63716 4.893ZM2.81317 21.5017L5.12907 23.8176L4.88745 24.4001L2.21637 21.7434L2.81317 21.5017ZM5.52409 23.9795H14.3328L14.5744 24.5648L5.27098 24.565L5.52409 23.9795ZM14.7276 23.8176L17.0207 21.5017L17.606 21.7433L14.9464 24.4001L14.7276 23.8176ZM17.2082 21.1067V4.89272L17.7765 4.65111V21.3476L17.2082 21.1067ZM18.0607 4.08035L15.1339 1.17362L15.3756 0.588318L18.6262 3.83892L18.0607 4.08035ZM14.7474 1.00871H5.08624L4.84463 0.440457H14.9803L14.7474 1.00871ZM4.70822 1.17342L1.78997 4.08036L1.22172 3.83874L4.45827 0.588135L4.70822 1.17342ZM1.62805 4.47538V21.5245L1.0598 21.7662V4.23394L1.62805 4.47538ZM1.78999 21.9198L4.69971 24.8267L4.4581 25.4121L1.20749 22.1614L1.78999 21.9198ZM5.08621 24.9915H14.7474L14.989 25.5597H4.85339L5.08621 24.9915ZM15.1254 24.8267L18.0437 21.9198L18.6262 22.1614L15.3756 25.412L15.1254 24.8267ZM18.2056 21.5248V4.47563L18.7738 4.23401V21.7662L18.2056 21.5248Z"
      fill="black" />
    </symbol>

    <symbol viewBox="0 0 26 26" id="cushion_shape">
    <path
      d="M10.9795 0C3.59149 0 0 4.2623 0 13C0 21.7377 3.59154 26 10.9795 26C18.3674 26 21.9589 21.7492 21.9589 13C21.9589 4.25078 18.3674 0 10.9795 0ZM20.834 18.7029L18.4386 18.8249L21.5245 13.7728V13.7726C21.5041 15.4386 21.272 17.0952 20.834 18.7027V18.7029ZM0.434856 13.7726L3.52076 18.8249L1.1254 18.7028V18.7026C0.687356 17.0951 0.455254 15.4385 0.434856 13.7726V13.7726ZM1.1254 7.29695L3.52076 7.17485L0.434856 12.227V12.2272C0.455271 10.5612 0.687376 8.90463 1.1254 7.29714V7.29695ZM21.5245 12.227L18.4386 7.17486L20.834 7.29696V7.29716C21.272 8.90465 21.5041 10.5613 21.5245 12.2272V12.227ZM17.5861 13L18.1885 7.60109L21.4932 13L18.183 18.3989L17.5861 13ZM15.8415 19.2514L10.9796 21.1837L6.11776 19.2514L4.80503 13L6.11776 6.76284L10.9796 4.81644L15.8415 6.76284L17.1542 13.0142L15.8415 19.2514ZM7.7147 23.4369L6.29394 19.7715L10.5221 21.4765L7.7147 23.4369ZM10.9796 21.6723L13.9548 23.7551L10.9796 25.5398L8.00449 23.7553L10.9796 21.6723ZM14.2445 23.4369L11.4258 21.465L15.654 19.76L14.2445 23.4369ZM3.77096 18.4131L0.466214 13L3.77096 7.60109L4.37332 13L3.77096 18.4131ZM4.65179 11.6559L4.16023 7.12082L5.67197 6.86791L4.65179 11.6559ZM4.65179 14.344L5.66048 19.1319L4.16025 18.879L4.65179 14.344ZM14.2445 2.56281L15.6653 6.22828L11.4371 4.52326L14.2445 2.56281ZM10.9796 4.32745L8.00444 2.24466L10.9796 0.459973L13.9547 2.24445L10.9796 4.32745ZM7.71465 2.56281L10.5334 4.53478L6.3052 6.2398L7.71465 2.56281ZM17.3074 11.6557L16.2987 6.86778L17.8104 7.12069L17.3074 11.6557ZM17.3074 14.3438L17.8102 18.8904L16.2985 19.1433L17.3074 14.3438ZM17.853 6.69454L16.1821 6.41031L14.6734 2.48636L18.1571 2.82728L17.853 6.69454ZM14.7757 2.06001L15.5514 1.17639C16.3126 1.46162 17.0277 1.85704 17.6741 2.35L14.7757 2.06001ZM14.3011 1.95773L11.7835 0.445988V0.446187C12.9171 0.483648 14.0401 0.674919 15.1223 1.01444L14.3011 1.95773ZM7.65754 1.95773L6.83634 1.02003C7.91855 0.680496 9.04162 0.489423 10.1752 0.451773L7.65754 1.95773ZM7.18302 2.06001L4.28461 2.34424C4.93096 1.8513 5.64611 1.45586 6.40724 1.17064L7.18302 2.06001ZM7.2853 2.48635L5.77655 6.41624L4.10563 6.70048L3.80157 2.82747L7.2853 2.48635ZM4.10563 19.3052L5.77655 19.5894L7.2853 23.5134L3.80158 23.1724L4.10563 19.3052ZM7.183 23.9397L6.40721 24.8233C5.64609 24.5381 4.93094 24.1427 4.28459 23.6497L7.183 23.9397ZM7.65752 24.042L10.1752 25.5537V25.5535C9.0416 25.5161 7.91853 25.3248 6.83632 24.9853L7.65752 24.042ZM14.3011 24.042L15.1223 24.9797C14.0401 25.3192 12.917 25.5103 11.7835 25.5479L14.3011 24.042ZM14.7756 23.9397L17.674 23.6555C17.0277 24.1484 16.3125 24.5439 15.5514 24.8291L14.7756 23.9397ZM14.6734 23.5134L16.1879 19.5749L17.8588 19.2907L18.1571 23.1722L14.6734 23.5134ZM20.7004 6.86199L18.2765 6.74842L18.5608 3.14815H18.5606C19.5461 4.20799 20.2777 5.4779 20.7002 6.86198L20.7004 6.86199ZM3.39857 3.13964L3.68281 6.73991L1.25888 6.862C1.68027 5.47493 2.41188 4.20202 3.39855 3.13965L3.39857 3.13964ZM1.2589 19.1375L3.68283 19.2595L3.39859 22.8598C2.41192 21.7974 1.68033 20.5245 1.25892 19.1375L1.2589 19.1375ZM18.5608 22.8598L18.2765 19.251L20.7005 19.1289H20.7003C20.2801 20.519 19.5483 21.795 18.5606 22.8598L18.5608 22.8598Z"
      fill="black" />
    </symbol>

    <symbol viewBox="0 0 26 26" id="marquise_shape">
    <path
      d="M6.9828 0H6.71468C2.70825 3.20519 0.21875 8.187 0.21875 13C0.21875 17.813 2.7081 22.7951 6.71468 26H6.9828C10.9892 22.7948 13.4787 17.813 13.4787 13C13.4787 8.187 10.9894 3.20494 6.9828 0ZM6.84874 20.4884L5.00944 18.9572L3.35554 13.0005L5.00944 7.04383L6.84874 5.51265L8.68804 7.04383L10.3419 13.0005L8.68804 18.9572L6.84874 20.4884ZM6.5635 5.20407L5.16339 6.37025L5.62824 4.03764L6.5635 5.20407ZM4.62455 6.81525L2.34326 9.09654L2.38603 6.08826L5.1805 4.0409L4.62455 6.81525ZM3.1417 13.7705L4.41354 18.3529L2.37753 16.3169L3.1417 13.7705ZM3.1417 12.2307L2.37748 9.68431L4.41349 7.64831L3.1417 12.2307ZM2.91076 13.0007L2.07236 15.8009L0.672247 13.0005L2.07236 10.2003L2.91076 13.0007ZM4.62179 19.1855L5.17795 21.9573L2.38348 19.91L2.3435 16.9017L4.62179 19.1855ZM5.61413 21.9629L5.14928 19.6303L6.5635 20.7964L5.61413 21.9629ZM10.5699 13.7703L11.3341 16.3167L9.29813 18.3527L10.5699 13.7703ZM10.5699 12.2305L9.29808 7.6481L11.3341 9.68411L10.5699 12.2305ZM9.07296 6.8126L8.5168 4.0408L11.3113 6.08816L11.354 9.09644L9.07296 6.8126ZM8.08062 4.03524L8.55979 6.37041L7.13402 5.20423L8.08062 4.03524ZM8.55979 19.6302L8.09494 21.9628L7.13402 20.7966L8.55979 19.6302ZM9.08728 19.1854L11.3686 16.9041L11.3258 19.9124L8.53133 21.9597L9.08728 19.1854ZM10.7983 13.0006L11.6367 10.2004L13.0253 13.0006L11.6252 15.8008L10.7983 13.0006ZM11.8762 9.71841L12.5519 9.37052C12.7801 10.2366 12.9298 11.1211 12.9997 12.014L11.8762 9.71841ZM11.7849 9.29354L11.7507 7.01225C12.0216 7.64596 12.2541 8.29539 12.4465 8.95716L11.7849 9.29354ZM8.55979 3.53647L9.3069 2.93199C9.88831 3.65659 10.4118 4.4262 10.8723 5.23314L8.55979 3.53647ZM6.84876 4.89106L5.74241 3.50805L6.84876 0.73905L7.95511 3.5023L6.84876 4.89106ZM2.83378 5.23318C3.29426 4.42619 3.81777 3.65663 4.39918 2.93203L5.13773 3.53651L2.83378 5.23318ZM1.91263 9.29368L1.25107 8.95156C1.44382 8.29178 1.67614 7.64412 1.94685 7.0124L1.91263 9.29368ZM1.83287 9.73287L0.692351 12.0142C0.763757 11.1213 0.915525 10.2365 1.14566 9.37067L1.83287 9.73287ZM1.83287 16.2914L1.14564 16.6308C0.917496 15.7647 0.767718 14.8802 0.697901 13.9873L1.83287 16.2914ZM1.91263 16.7306L1.94684 19.0119V19.0117C1.67593 18.3782 1.44341 17.7288 1.25106 17.067L1.91263 16.7306ZM5.13773 22.4648L4.39062 23.0693C3.80921 22.3447 3.2857 21.575 2.82523 20.7681L5.13773 22.4648ZM6.84876 21.1102L7.95511 22.4932L6.84876 25.2622L5.74241 22.4989L6.84876 21.1102ZM10.8637 20.7681C10.4033 21.5751 9.87975 22.3446 9.29834 23.0692L8.55979 22.4647L10.8637 20.7681ZM11.7849 16.7217L12.4465 17.0497C12.2537 17.7094 12.0214 18.3571 11.7507 18.9888L11.7849 16.7217ZM11.8647 16.2825L13.0052 14.0012V14.0014C12.9328 14.8895 12.7812 15.7695 12.5519 16.6306L11.8647 16.2825ZM9.01311 2.59505L8.28031 3.19097L7.37072 0.895579L7.37052 0.895778C7.96109 1.42489 8.51363 1.99454 9.02441 2.601L9.01311 2.59505ZM6.31549 0.88402L5.39434 3.18517L4.66154 2.58925V2.58944C5.1765 1.98675 5.73306 1.42067 6.327 0.895727L6.31549 0.88402ZM4.66159 23.3883L5.39439 22.7924L6.31554 25.0936V25.0938C5.72955 24.5678 5.18057 24.002 4.67315 23.3998L4.66159 23.3883ZM7.35921 25.0994L8.28036 22.7982L9.01316 23.3941V23.3943C8.50614 24.0022 7.95737 24.5739 7.37056 25.1052L7.35921 25.0994Z"
      fill="black" />
    </symbol>

    <symbol viewBox="0 0 26 26" id="oval_shape">
      <path
        d="M9.12994 0C4.09485 0 0 5.83072 0 13C0 20.1693 4.0948 26 9.12994 26C14.1651 26 18.2599 20.1693 18.2599 13C18.2599 5.83072 14.1651 0 9.12994 0ZM15.2646 15.8075L14.0428 13.0001L15.2646 10.1927L17.7625 13.0001L15.2646 15.8075ZM12.2383 17.6459L9.12979 19.1576L6.02105 17.6459L4.67142 13.0001L6.02125 8.3542L9.12979 6.84246L12.2385 8.3542L13.5881 13.0001L12.2383 17.6459ZM6.50705 21.0133L6.10925 18.1717L8.71493 19.4391L6.50705 21.0133ZM9.12979 19.6549L11.6274 21.4479L9.12979 25.3891L6.63213 21.4479L9.12979 19.6549ZM11.7525 21.0133L9.54465 19.4278L12.1503 18.1604L11.7525 21.0133ZM2.99502 15.8077L0.497166 13.0003L2.99482 10.1928L4.21658 13.0003L2.99502 15.8077ZM4.41579 12.3751L3.33317 9.89451L5.49268 8.65271L4.41579 12.3751ZM4.41579 13.6254L5.49268 17.3478L3.32743 16.106L4.41579 13.6254ZM11.7525 4.98719L12.1503 7.82872L9.54464 6.56135L11.7525 4.98719ZM9.12963 6.34534L6.63198 4.55233L9.12963 0.611132L11.6273 4.55233L9.12963 6.34534ZM6.5069 4.98699L8.71477 6.57246L6.10909 7.83983L6.5069 4.98699ZM13.8492 12.375L12.7666 8.65261L14.9318 9.89441L13.8492 12.375ZM13.8492 13.6253L14.9318 16.1059L12.7666 17.3477L13.8492 13.6253ZM15.5171 9.83753L17.2675 8.54737C17.5995 9.81708 17.7865 11.1201 17.8245 12.4319L15.5171 9.83753ZM15.4632 9.34597L15.8894 5.08368C16.4216 6.03787 16.8439 7.0491 17.1482 8.09844L15.4632 9.34597ZM15.0228 9.45399L12.6132 8.07306L12.1585 4.81093L15.5059 4.649L15.0228 9.45399ZM11.8005 4.02921L9.52724 0.440407C10.4987 0.511963 11.4412 0.803524 12.2835 1.29292L11.8005 4.02921ZM6.45843 4.02921L5.9754 1.28419V1.28439C6.81781 0.79501 7.76029 0.503423 8.73168 0.431877L6.45843 4.02921ZM5.64576 8.07271L3.23614 9.45364L2.7531 4.64866L6.10048 4.8106L5.64576 8.07271ZM2.80422 9.34581L1.11925 8.10701V8.10681C1.4235 7.05747 1.84587 6.04624 2.3781 5.09205L2.80422 9.34581ZM2.75031 9.83737L0.434414 12.4317C0.476434 11.1206 0.66711 9.81835 1.00267 8.55021L2.75031 9.83737ZM2.75031 16.1628L0.999929 17.453C0.664954 16.1836 0.475261 14.8806 0.434414 13.5685L2.75031 16.1628ZM2.80422 16.6544L2.37808 20.9167C1.8459 19.9625 1.42352 18.9513 1.11923 17.9019L2.80422 16.6544ZM3.24465 16.5464L5.65426 17.9273L6.10896 21.1894L2.76158 21.3514L3.24465 16.5464ZM6.45842 21.9711L8.73169 25.5599C7.76024 25.4884 6.81777 25.1968 5.97541 24.7074L6.45842 21.9711ZM11.8005 21.9711L12.2835 24.7162V24.716C11.4411 25.2053 10.4986 25.4969 9.52724 25.5685L11.8005 21.9711ZM12.6132 17.9276L15.0228 16.5467L15.5058 21.3517L12.1585 21.1898L12.6132 17.9276ZM15.4547 16.6545L17.1397 17.8933V17.8935C16.8354 18.9429 16.4131 19.9541 15.8808 20.9083L15.4547 16.6545ZM15.5086 16.163L17.8245 13.5686C17.7825 14.8798 17.5918 16.182 17.2563 17.4501L15.5086 16.163ZM15.3495 4.22855L12.164 4.38196L12.6754 1.52059H12.6756C13.742 2.23453 14.6541 3.15544 15.3582 4.22852L15.3495 4.22855ZM5.58322 1.52062L6.08608 4.382L2.90067 4.22858C3.60471 3.1555 4.51689 2.23459 5.58323 1.52066L5.58322 1.52062ZM2.90086 21.7721L6.08627 21.6187L5.58341 24.4801L5.58321 24.4799C4.51683 23.7659 3.60469 22.845 2.90065 21.7719L2.90086 21.7721ZM12.6757 24.48L12.1729 21.6187L15.3583 21.7721L15.3581 21.7719C14.654 22.845 13.7419 23.7659 12.6755 24.4798L12.6757 24.48Z"
        fill="black" />
    </symbol>

    <symbol viewBox="0 0 18 14" id="diamond_icon">
      <path
        d="M80.964 36.8858L80.9587 36.88L80.9568 36.8733L70.7365 19.172C70.6755 19.0658 70.5616 19 70.4387 19H29.5614C29.4384 19 29.3246 19.0658 29.2636 19.172L19.0438 36.8733L19.0419 36.88L19.0366 36.8858L19.0361 36.8863C19.0289 36.9084 19.0241 36.9314 19.0217 36.955C18.9929 37.0112 18.9929 37.0775 19.0212 37.1341C19.025 37.163 19.0327 37.1908 19.0438 37.2177C19.0462 37.222 19.051 37.2235 19.0534 37.2273C19.0563 37.2316 19.0553 37.2374 19.0582 37.2417L49.7167 81.4035C49.7206 81.4088 49.7268 81.4107 49.7307 81.4155L49.7379 81.4237H49.7374C49.7605 81.4558 49.7912 81.4818 49.8263 81.4996C49.8349 81.5044 49.8416 81.5111 49.8503 81.5154L49.8604 81.5221L49.8709 81.5245V81.5241C49.9531 81.5606 50.0463 81.5606 50.1284 81.5241L50.139 81.5217L50.1491 81.5149C50.1577 81.5106 50.1644 81.5044 50.1731 81.4991V81.4996C50.2081 81.4818 50.2389 81.4558 50.2619 81.4237L50.2691 81.4155C50.273 81.4107 50.2792 81.4088 50.2826 81.4035L80.9412 37.2417C80.944 37.2374 80.9436 37.2316 80.946 37.2273C80.9484 37.2235 80.9532 37.2216 80.9556 37.2177H80.956C80.9671 37.1908 80.9748 37.163 80.9786 37.1341C81.0074 37.0774 81.007 37.0112 80.9781 36.955C80.9757 36.9314 80.9709 36.9084 80.9637 36.8863L80.964 36.8858ZM69.8421 19.6886L60.2198 36.357L50.5965 19.6886H69.8421ZM59.6231 36.7013H40.3761L49.9994 20.0329L59.6231 36.7013ZM49.4033 19.6886L39.78 36.357L30.1577 19.6886H49.4033ZM29.5611 20.033L39.1834 36.7014H19.9376L29.5611 20.033ZM19.9998 37.3888H39.5063L48.7496 77.334L49.2597 79.5373L19.9998 37.3888ZM49.9992 79.679L40.2126 37.3888H59.7856L49.9992 79.679ZM50.739 79.5373L51.2491 77.334L60.4929 37.3888H79.9994L50.739 79.5373ZM60.8156 36.7012L70.4379 20.0327L80.0612 36.7012H60.8156Z"
        fill="#1D1F1E" stroke="#1D1F1E" stroke-width="0.6" />
      <path opacity="0.2" d="M40 37H20L49.5 80L40 37Z" fill="#2A3E52" stroke="#2A3E52" />
    </symbol>

    <symbol viewBox="0 0 18 14" id="light-brown-ellipse">
      <path
        d="M11.7564 2.22703C14.3925 4.86307 14.3925 9.13693 11.7564 11.773C9.12037 14.409 4.84651 14.409 2.21047 11.773C-0.425568 9.13693 -0.425568 4.86307 2.21047 2.22703C4.84651 -0.40901 9.12037 -0.40901 11.7564 2.22703Z"
        fill="#EFEEE7" />
      <path
        d="M11.7564 2.22703C14.3925 4.86307 14.3925 9.13693 11.7564 11.773C9.12037 14.409 4.84651 14.409 2.21047 11.773C-0.425568 9.13693 -0.425568 4.86307 2.21047 2.22703C4.84651 -0.40901 9.12037 -0.40901 11.7564 2.22703Z"
        fill="url(#paint0_angular_15136_7832)" />
      <defs>
        <radialGradient id="paint0_angular_15136_7832" cx="0" cy="0" r="1"
          gradientUnits="userSpaceOnUse"
          gradientTransform="translate(6.98344 7) rotate(45) scale(6.75)">
          <stop offset="0.043574" stop-color="#C0BBAF" />
          <stop offset="0.255208" stop-color="white" />
          <stop offset="0.562355" stop-color="#C0BBAF" stop-opacity="0.236842" />
          <stop offset="0.75" stop-color="white" stop-opacity="0.5" />
          <stop offset="0.97267" stop-color="#C0BBAF" />
        </radialGradient>
      </defs>
    </symbol>

    <symbol viewBox="0 0 18 14" id="princess-icon">
      <path d="M17.1822 0.644531H0.813355L0.640625 0.817261V17.1861L0.813355 17.3588H17.1822L17.3549 17.1861V0.817261L17.1822 0.644531ZM17.0095 12.3739H15.4476V5.62914H17.0117L17.0095 12.3739ZM0.98615 5.62914H2.54796V12.3739H0.98615V5.62914ZM5.62564 2.9802L8.51657 4.09048L5.62564 5.20303V2.9802ZM3.90267 9.00138L2.896 11.6182V6.38473L3.90267 9.00138ZM2.98135 5.62906H5.20419L4.08699 8.51999L2.98135 5.62906ZM4.09164 9.48281L5.20419 12.3737H2.9767L4.09164 9.48281ZM5.63029 12.7999L8.52122 13.9124L5.62577 15.0227L5.63029 12.7999ZM5.59109 12.413L4.27353 9.00141L5.5866 5.58985L8.998 4.27693L12.4096 5.59001L13.7225 9.00141L12.4094 12.413L8.998 13.7259L5.59109 12.413ZM12.3749 5.20302L9.47943 4.09047L12.3704 2.98019L12.3749 5.20302ZM12.3749 12.8046V15.0274L9.47943 13.9125L12.3749 12.8046ZM13.9135 9.48749L15.0238 12.3784H12.7963L13.9135 9.48749ZM14.0978 9.0061L15.1045 6.38928V11.6182L14.0978 9.0061ZM13.9135 8.52471L12.7963 5.62925H15.0192L13.9135 8.52471ZM8.99804 3.90619L6.38123 2.89952H11.6147L8.99804 3.90619ZM5.28024 5.28838L2.57358 5.28822L1.10626 1.14192L5.28011 2.86037L5.28024 5.28838ZM5.28024 12.7242V15.1589L1.10638 16.8774L2.57371 12.7311L5.28024 12.7242ZM8.99804 14.1063L11.6149 15.113L6.38139 15.1127L8.99804 14.1063ZM12.7158 12.7242H15.4225L16.8898 16.8704L12.716 15.1589L12.7158 12.7242ZM12.7158 5.28838V2.84428L16.8897 1.12583L15.4224 5.27213L12.7158 5.28838ZM12.7158 2.47342V0.990048H16.3093L12.7158 2.47342ZM12.3704 2.55858H5.62566V0.989854H12.3704V2.55858ZM5.28014 2.47342L1.68672 0.994531H5.28014V2.47342ZM2.20731 5.28369H0.986458V1.82844L2.20731 5.28369ZM0.986458 12.7195H2.20731L0.986458 16.1747V12.7195ZM5.28001 15.5344V17.0133H1.6866L5.28001 15.5344ZM5.62547 15.4493H12.3702V17.0133L5.62547 17.0131V15.4493ZM12.7157 15.5344L16.3091 17.0133H12.7157V15.5344ZM15.7886 12.7195H17.0094V16.1747L15.7886 12.7195ZM17.0094 5.28369H15.7886L17.0094 1.82844V5.28369Z" fill="black"/>
    </symbol>

    <symbol viewBox="0 0 26 26" id="favorite-icon-grey">
      <path xmlns="http://www.w3.org/2000/svg" d="M20.7913 2.61183C20.2805 2.10083 19.6741 1.69547 19.0066 1.41891C18.3392 1.14235 17.6238 1 16.9013 1C16.1788 1 15.4634 1.14235 14.7959 1.41891C14.1285 1.69547 13.522 2.10083 13.0113 2.61183L11.9513 3.67183L10.8913 2.61183C9.8596 1.58013 8.46032 1.00053 7.00129 1.00053C5.54226 1.00053 4.14298 1.58013 3.11129 2.61183C2.0796 3.64352 1.5 5.04279 1.5 6.50183C1.5 7.96086 2.0796 9.36013 3.11129 10.3918L4.17129 11.4518L11.9513 19.2318L19.7313 11.4518L20.7913 10.3918C21.3023 9.88107 21.7076 9.27464 21.9842 8.60718C22.2608 7.93972 22.4031 7.22431 22.4031 6.50183C22.4031 5.77934 22.2608 5.06393 21.9842 4.39647C21.7076 3.72901 21.3023 3.12258 20.7913 2.61183V2.61183Z" stroke="#A4AAAE" stroke-width="2" stroke-linecap="round" stroke-linejoin="round" fill="none"/>
    </symbol>

    <symbol viewBox="0 0 26 26" id="browse-icon">
      <path d="M1.27927 10.2564L9.35366 2.18198C11.111 0.424622 13.9603 0.424621 15.7176 2.18198V2.18198C17.475 3.93934 17.475 6.78858 15.7176 8.54594L7.73742 16.5261C6.48216 17.7814 4.44699 17.7814 3.19173 16.5261V16.5261C1.93648 15.2709 1.93648 13.2357 3.19173 11.9805L11.1747 3.99753C11.9278 3.24437 13.1489 3.24437 13.9021 3.99752V3.99752C14.6552 4.75068 14.6552 5.97178 13.9021 6.72494L5.82496 14.8021" stroke="#1D1F1E" stroke-width="1.5" stroke-linecap="round" fill="none"/>
    </symbol>

    <symbol viewBox="0 0 26 26" id="compare_products_icon">
      <path fill-rule="evenodd" clip-rule="evenodd" d="M21.4182 13.1794C21.5554 13.4017 21.6204 13.661 21.6045 13.9218C21.4874 16.0661 19.7526 17.7663 17.6064 17.8402C15.4588 17.7682 13.7221 16.0674 13.6053 13.9218C13.5879 13.6587 13.6523 13.3967 13.7897 13.1717L17.6025 6.71875C17.6025 6.71875 20.6057 11.8089 21.4182 13.1794Z" stroke="#1D1F1E" stroke-width="2" stroke-linecap="round" stroke-linejoin="round"/>
      <path d="M21.5658 13.5212H13.6396" stroke="#1D1F1E" stroke-width="2" stroke-linecap="round" stroke-linejoin="round"/>
      <path fill-rule="evenodd" clip-rule="evenodd" d="M10.2135 16.4606C10.3497 16.6842 10.4135 16.9446 10.3959 17.2059C10.2802 19.3505 8.54521 21.0513 6.39874 21.1243C4.25149 21.0529 2.51451 19.353 2.39676 17.2078C2.38112 16.9436 2.44826 16.681 2.58884 16.4568L6.40162 10L10.2135 16.4606Z" stroke="#1D1F1E" stroke-width="2" stroke-linecap="round" stroke-linejoin="round"/>
      <path d="M10.3608 16.8025H2.43457" stroke="#1D1F1E" stroke-width="2" stroke-linecap="round" stroke-linejoin="round"/>
      <path d="M17.6025 6.71875L6.39844 10.0004" stroke="#1D1F1E" stroke-width="2" stroke-linecap="round" stroke-linejoin="round"/>
      <path d="M11.1999 4.79688V8.59334" stroke="#1D1F1E" stroke-width="2" stroke-linecap="round" stroke-linejoin="round"/>
    </symbol>

    <symbol viewBox="0 0 18 18" id="list_view_off">
      <path d="M14.25 2.25C15.0784 2.25 15.75 2.92157 15.75 3.75V6.75C15.75 7.57843 15.0784 8.25 14.25 8.25L3.75 8.25C2.92157 8.25 2.25 7.57843 2.25 6.75L2.25 3.75C2.25 2.92157 2.92157 2.25 3.75 2.25L14.25 2.25ZM14.25 6.75V3.75L3.75 3.75L3.75 6.75L14.25 6.75Z" fill="#A4AAAE"/>
      <path d="M14.25 9.75C15.0784 9.75 15.75 10.4216 15.75 11.25V14.25C15.75 15.0784 15.0784 15.75 14.25 15.75H3.75C2.92157 15.75 2.25 15.0784 2.25 14.25L2.25 11.25C2.25 10.4216 2.92157 9.75 3.75 9.75L14.25 9.75ZM14.25 14.25V11.25L3.75 11.25L3.75 14.25H14.25Z" fill="#A4AAAE"/>
    </symbol>

    <symbol viewBox="0 0 18 18" id="grid_view_off">
      <path d="M0.25 1.75C0.25 0.921573 0.921573 0.25 1.75 0.25H4.75C5.57843 0.25 6.25 0.921573 6.25 1.75V4.75C6.25 5.57843 5.57843 6.25 4.75 6.25H1.75C0.921573 6.25 0.25 5.57843 0.25 4.75V1.75ZM4.75 1.75H1.75V4.75H4.75V1.75ZM7.75 1.75C7.75 0.921573 8.42157 0.25 9.25 0.25H12.25C13.0784 0.25 13.75 0.921573 13.75 1.75V4.75C13.75 5.57843 13.0784 6.25 12.25 6.25H9.25C8.42157 6.25 7.75 5.57843 7.75 4.75V1.75ZM12.25 1.75H9.25V4.75H12.25V1.75ZM0.25 9.25C0.25 8.42157 0.921573 7.75 1.75 7.75H4.75C5.57843 7.75 6.25 8.42157 6.25 9.25V12.25C6.25 13.0784 5.57843 13.75 4.75 13.75H1.75C0.921573 13.75 0.25 13.0784 0.25 12.25V9.25ZM4.75 9.25H1.75V12.25H4.75V9.25ZM7.75 9.25C7.75 8.42157 8.42157 7.75 9.25 7.75H12.25C13.0784 7.75 13.75 8.42157 13.75 9.25V12.25C13.75 13.0784 13.0784 13.75 12.25 13.75H9.25C8.42157 13.75 7.75 13.0784 7.75 12.25V9.25ZM12.25 9.25H9.25V12.25H12.25V9.25Z" fill="#A4AAAE"/>
    </symbol>

    <symbol viewBox="0 0 18 18" id="list_view_on">
      <path d="M14.25 2.25C15.0784 2.25 15.75 2.92157 15.75 3.75V6.75C15.75 7.57843 15.0784 8.25 14.25 8.25L3.75 8.25C2.92157 8.25 2.25 7.57843 2.25 6.75L2.25 3.75C2.25 2.92157 2.92157 2.25 3.75 2.25L14.25 2.25Z" fill="#2A3E52"/>
      <path d="M14.25 9.75C15.0784 9.75 15.75 10.4216 15.75 11.25V14.25C15.75 15.0784 15.0784 15.75 14.25 15.75H3.75C2.92157 15.75 2.25 15.0784 2.25 14.25L2.25 11.25C2.25 10.4216 2.92157 9.75 3.75 9.75L14.25 9.75Z" fill="#2A3E52"/>
    </symbol>

    <symbol viewBox="0 0 18 18" id="grid_view_on">
      <path d="M0.25 1.75C0.25 0.921573 0.921573 0.25 1.75 0.25H4.75C5.57843 0.25 6.25 0.921573 6.25 1.75V4.75C6.25 5.57843 5.57843 6.25 4.75 6.25H1.75C0.921573 6.25 0.25 5.57843 0.25 4.75V1.75ZM7.75 1.75C7.75 0.921573 8.42157 0.25 9.25 0.25H12.25C13.0784 0.25 13.75 0.921573 13.75 1.75V4.75C13.75 5.57843 13.0784 6.25 12.25 6.25H9.25C8.42157 6.25 7.75 5.57843 7.75 4.75V1.75ZM0.25 9.25C0.25 8.42157 0.921573 7.75 1.75 7.75H4.75C5.57843 7.75 6.25 8.42157 6.25 9.25V12.25C6.25 13.0784 5.57843 13.75 4.75 13.75H1.75C0.921573 13.75 0.25 13.0784 0.25 12.25V9.25ZM7.75 9.25C7.75 8.42157 8.42157 7.75 9.25 7.75H12.25C13.0784 7.75 13.75 8.42157 13.75 9.25V12.25C13.75 13.0784 13.0784 13.75 12.25 13.75H9.25C8.42157 13.75 7.75 13.0784 7.75 12.25V9.25Z" fill="#2A3E52"/>
    </symbol>

    <symbol viewBox="0 0 24 24" id="shopping_cart">
      <path id="Vector" d="M23.5101 8.68178C23.4263 8.58199 23.3222 8.50188 23.2051 8.44695C23.0879 8.39203 22.9605 8.36359 22.8315 8.3636H17.4744V4.72726C17.4744 4.00394 17.1922 3.31026 16.6899 2.7988C16.1875 2.28734 15.5062 2 14.7958 2H9.43868C8.72828 2 8.04698 2.28734 7.54465 2.7988C7.04232 3.31026 6.76011 4.00394 6.76011 4.72726V8.3636H1.40297C1.27354 8.36211 1.14535 8.38928 1.02727 8.44324C0.909182 8.4972 0.804033 8.57666 0.719102 8.6761C0.634172 8.77555 0.571492 8.89261 0.535405 9.01916C0.499318 9.14572 0.490688 9.27876 0.510111 9.40905L2.18868 20.4544C2.25326 20.888 2.46955 21.2832 2.7977 21.5672C3.12585 21.8512 3.54375 22.0048 3.9744 21.9999H20.278C20.7086 22.0048 21.1265 21.8512 21.4547 21.5672C21.7828 21.2832 21.9991 20.888 22.0637 20.4544L23.7244 9.40905C23.7423 9.27926 23.7324 9.14707 23.6954 9.02154C23.6584 8.89601 23.5952 8.78011 23.5101 8.68178ZM8.54583 4.72726C8.54583 4.48615 8.63989 4.25492 8.80734 4.08444C8.97478 3.91395 9.20188 3.81817 9.43868 3.81817H14.7958C15.0326 3.81817 15.2597 3.91395 15.4272 4.08444C15.5946 4.25492 15.6887 4.48615 15.6887 4.72726V8.3636H8.54583V4.72726ZM20.278 20.1817H3.95654L2.44761 10.1818H21.7869L20.278 20.1817Z" fill="#1D1F1E"/>
    </symbol>

    <symbol viewBox="0 0 24 24" id="search_svg">
        <path id="Icon" d="M10 4C6.68629 4 4 6.68629 4 10C4 13.3137 6.68629 16 10 16C13.3137 16 16 13.3137 16 10C16 6.68629 13.3137 4 10 4ZM2 10C2 5.58172 5.58172 2 10 2C14.4183 2 18 5.58172 18 10C18 11.8487 17.3729 13.551 16.3199 14.9056L21.7071 20.2929C22.0976 20.6834 22.0976 21.3166 21.7071 21.7071C21.3166 22.0976 20.6834 22.0976 20.2929 21.7071L14.9056 16.3199C13.551 17.3729 11.8487 18 10 18C5.58172 18 2 14.4183 2 10Z" fill="#0D0D0D"/>
    </symbol>

    <symbol viewBox="0 0 24 24" id="profile_svg">
        <path id="Vector" d="M17 19V17C17 15.9391 16.5786 14.9217 15.8284 14.1716C15.0783 13.4214 14.0609 13 13 13H5C3.93913 13 2.92172 13.4214 2.17157 14.1716C1.42143 14.9217 1 15.9391 1 17V19" stroke="#1D1F1E" stroke-width="2" stroke-linecap="round" stroke-linejoin="round" fill="none"/>
        <path id="Vector_2" d="M9 9C11.2091 9 13 7.20914 13 5C13 2.79086 11.2091 1 9 1C6.79086 1 5 2.79086 5 5C5 7.20914 6.79086 9 9 9Z" stroke="#1D1F1E" stroke-width="2" stroke-linecap="round" stroke-linejoin="round" fill="none"/>
    </symbol>

    <symbol viewBox="0 0 24 24" id="favourite_svg">
        <path id="Vector" d="M21.2913 4.61183C20.7805 4.10083 20.1741 3.69547 19.5066 3.41891C18.8392 3.14235 18.1238 3 17.4013 3C16.6788 3 15.9634 3.14235 15.2959 3.41891C14.6285 3.69547 14.022 4.10083 13.5113 4.61183L12.4513 5.67183L11.3913 4.61183C10.3596 3.58013 8.96032 3.00053 7.50129 3.00053C6.04226 3.00053 4.64298 3.58013 3.61129 4.61183C2.5796 5.64352 2 7.04279 2 8.50183C2 9.96086 2.5796 11.3601 3.61129 12.3918L4.67129 13.4518L12.4513 21.2318L20.2313 13.4518L21.2913 12.3918C21.8023 11.8811 22.2076 11.2746 22.4842 10.6072C22.7608 9.93972 22.9031 9.22431 22.9031 8.50183C22.9031 7.77934 22.7608 7.06393 22.4842 6.39647C22.2076 5.72901 21.8023 5.12258 21.2913 4.61183V4.61183Z" stroke="#1D1F1E" stroke-width="2" stroke-linecap="round" stroke-linejoin="round" fill="none"/>
    </symbol>

    <symbol viewBox="0 0 24 24" id="book_appointment_svg" fill="none">
      <path id="Path" d="M16 2V6" stroke="#1D1F1E" stroke-width="2" stroke-linecap="round" stroke-linejoin="round"/>
      <path id="Path_2" d="M8 2V6" stroke="#1D1F1E" stroke-width="2" stroke-linecap="round" stroke-linejoin="round"/>
      <path id="Path_3" d="M3 9H21" stroke="#1D1F1E" stroke-width="2" stroke-linecap="round" stroke-linejoin="round"/>
      <path id="Path_4" fill-rule="evenodd" clip-rule="evenodd" d="M19 4H5C3.895 4 3 4.895 3 6V19C3 20.105 3.895 21 5 21H19C20.105 21 21 20.105 21 19V6C21 4.895 20.105 4 19 4Z" stroke="#1D1F1E" stroke-width="2" stroke-linecap="round" stroke-linejoin="round"/>
      <path id="Path_5" d="M7.01268 12.729C6.87468 12.729 6.76268 12.841 6.76368 12.979C6.76368 13.117 6.87568 13.229 7.01368 13.229C7.15168 13.229 7.26368 13.117 7.26368 12.979C7.26368 12.841 7.15168 12.729 7.01268 12.729" stroke="#1D1F1E" stroke-width="2" stroke-linecap="round" stroke-linejoin="round"/>
      <path id="Path_6" d="M12.0127 12.729C11.8747 12.729 11.7627 12.841 11.7637 12.979C11.7637 13.117 11.8757 13.229 12.0137 13.229C12.1517 13.229 12.2637 13.117 12.2637 12.979C12.2637 12.841 12.1517 12.729 12.0127 12.729" stroke="#1D1F1E" stroke-width="2" stroke-linecap="round" stroke-linejoin="round"/>
      <path id="Path_7" d="M17.0127 12.729C16.8747 12.729 16.7627 12.841 16.7637 12.979C16.7637 13.117 16.8757 13.229 17.0137 13.229C17.1517 13.229 17.2637 13.117 17.2637 12.979C17.2637 12.841 17.1517 12.729 17.0127 12.729" stroke="#1D1F1E" stroke-width="2" stroke-linecap="round" stroke-linejoin="round"/>
      <path id="Path_8" d="M7.01268 16.729C6.87468 16.729 6.76268 16.841 6.76368 16.979C6.76368 17.117 6.87568 17.229 7.01368 17.229C7.15168 17.229 7.26368 17.117 7.26368 16.979C7.26368 16.841 7.15168 16.729 7.01268 16.729" stroke="#1D1F1E" stroke-width="2" stroke-linecap="round" stroke-linejoin="round"/>
      <path id="Path_9" d="M12.0127 16.729C11.8747 16.729 11.7627 16.841 11.7637 16.979C11.7637 17.117 11.8757 17.229 12.0137 17.229C12.1517 17.229 12.2637 17.117 12.2637 16.979C12.2637 16.841 12.1517 16.729 12.0127 16.729" stroke="#1D1F1E" stroke-width="2" stroke-linecap="round" stroke-linejoin="round"/>
    </symbol>

    <symbol viewBox="0 0 24 24" id="telephone_svg" fill="none">
      <path xmlns="http://www.w3.org/2000/svg" fill-rule="evenodd" clip-rule="evenodd" d="M10.856 13.1439C9.68599 11.9739 8.80399 10.6639 8.21799 9.33487C8.09399 9.05387 8.16699 8.72487 8.38399 8.50787L9.20299 7.68987C9.87399 7.01887 9.87399 6.06987 9.28799 5.48387L8.11399 4.30987C7.33299 3.52887 6.06699 3.52887 5.28599 4.30987L4.63399 4.96187C3.89299 5.70287 3.58399 6.77187 3.78399 7.83187C4.27799 10.4449 5.79599 13.3059 8.24499 15.7549C10.694 18.2039 13.555 19.7219 16.168 20.2159C17.228 20.4159 18.297 20.1069 19.038 19.3659L19.689 18.7149C20.47 17.9339 20.47 16.6679 19.689 15.8869L18.516 14.7139C17.93 14.1279 16.98 14.1279 16.395 14.7139L15.492 15.6179C15.275 15.8349 14.946 15.9079 14.665 15.7839C13.336 15.1969 12.026 14.3139 10.856 13.1439Z" stroke="#1D1F1E" stroke-width="2" stroke-linecap="round" stroke-linejoin="round"/>    
    </symbol>

    <symbol viewBox="0 0 24 24" id="location_svg" fill="none">
      <path fill-rule="evenodd" clip-rule="evenodd" d="M12 13V13C10.343 13 9 11.657 9 10V10C9 8.343 10.343 7 12 7V7C13.657 7 15 8.343 15 10V10C15 11.657 13.657 13 12 13Z" stroke="#1D1F1E" stroke-width="2" stroke-linecap="round" stroke-linejoin="round"/>
      <path fill-rule="evenodd" clip-rule="evenodd" d="M12 22C12 22 4 15.6111 4 9.77778C4 5.48222 7.58171 2 12 2C16.4183 2 20 5.48222 20 9.77778C20 15.6111 12 22 12 22Z" stroke="#1D1F1E" stroke-width="2" stroke-linecap="round" stroke-linejoin="round"/>    
    </symbol>

  </defs>
</svg>