<svg width="42" height="36" viewBox="0 0 42 36" fill="none" xmlns="http://www.w3.org/2000/svg">
<g id="ring icons">
<path id="Vector" d="M36.6059 15.4863H5.39456C4.00846 15.4863 2.88086 16.6142 2.88086 18C2.88086 19.3858 4.00846 20.5137 5.39456 20.5137H36.6059C37.9919 20.5137 39.1199 19.3858 39.1199 18C39.1199 16.6142 37.9919 15.4863 36.6059 15.4863ZM28.3319 16.6801L28.8409 16.7719L28.7589 17.3072L28.2229 17.3888L28.1329 16.8886C28.1949 16.8137 28.2589 16.7424 28.3319 16.6801ZM30.5719 19.3141L30.0579 19.2213L30.1389 18.6861L30.6749 18.6044L30.7679 19.1166C30.7069 19.1878 30.6419 19.2534 30.5719 19.3141ZM29.4489 18.8176L28.8679 18.5772L28.6269 17.9966L28.8679 17.416L29.4489 17.1756L30.0299 17.416L30.2709 17.9966L30.0299 18.5772L29.4489 18.8176ZM29.9939 18.7405L29.9259 19.1578L29.5849 18.9083L29.9939 18.7405ZM29.3129 18.9038L28.9679 19.1533L28.9039 18.736L29.3129 18.9038ZM28.7279 19.5761C28.6359 19.5337 28.5469 19.4856 28.4639 19.4282L28.8089 19.3664L28.7279 19.5761ZM28.3259 19.3142C28.2559 19.2536 28.1909 19.1882 28.1299 19.1171L28.2229 18.6045L28.7589 18.6907L28.8409 19.2214L28.3259 19.3142ZM27.7129 17.9978C27.7129 17.9484 27.7289 17.9013 27.7329 17.8522L28.1549 17.5612L28.4729 17.9966L28.1549 18.4321L27.7269 18.1364C27.7229 18.0899 27.7129 18.0453 27.7129 17.9978ZM28.5369 17.8606L28.2869 17.5204L28.7039 17.4569L28.5369 17.8606ZM28.5409 18.1327L28.7089 18.5409L28.2909 18.4729L28.5409 18.1327ZM28.0169 18.9789C27.9629 18.9004 27.9189 18.8155 27.8789 18.7285L28.0779 18.6407L28.0169 18.9789ZM28.9039 17.2527L28.9719 16.8354L29.3129 17.0849L28.9039 17.2527ZM29.5849 17.0894L29.9309 16.84L29.9939 17.2573L29.5849 17.0894ZM30.1889 17.4523L30.6069 17.5203L30.3619 17.8605L30.1889 17.4523ZM30.6119 18.4729L30.1889 18.5409L30.3619 18.1327L30.6119 18.4729ZM30.8209 18.6362L31.0269 18.7157C30.9849 18.8073 30.9379 18.8962 30.8819 18.9785L30.8209 18.6362ZM30.7429 18.4321L30.4259 17.9966L30.7429 17.5612L31.1659 17.8526C31.1699 17.9016 31.1859 17.9484 31.1859 17.9978C31.1859 18.0451 31.1759 18.0896 31.1729 18.136L30.7429 18.4321ZM31.1399 17.6708L30.8699 17.4841L31.0629 17.3984C31.0969 17.4874 31.1209 17.5771 31.1399 17.6708ZM30.9189 17.0823C30.9559 17.1412 30.9749 17.2087 31.0049 17.2714L30.8209 17.3526L30.8789 17.0326C30.8899 17.0505 30.9069 17.0638 30.9189 17.0823ZM30.7649 16.8928L30.6749 17.3887L30.1389 17.3025L30.0579 16.7718L30.5609 16.681C30.6359 16.7447 30.7009 16.8167 30.7649 16.8928ZM30.0899 16.6267L30.1649 16.4318C30.2499 16.4712 30.3309 16.5169 30.4089 16.5695L30.0899 16.6267ZM29.9619 16.5723L29.7749 16.3051C29.8649 16.3227 29.9499 16.3486 30.0349 16.3798L29.9619 16.5723ZM29.8849 16.6994L29.4489 17.0214L29.0129 16.7039L29.3059 16.2806C29.3539 16.2767 29.3989 16.2627 29.4469 16.2627C29.4979 16.2627 29.5449 16.2774 29.5939 16.2817L29.8849 16.6994ZM28.9319 16.5769L28.8449 16.3835C28.9349 16.3502 29.0249 16.3224 29.1199 16.3043L28.9319 16.5769ZM28.8039 16.6267L28.4839 16.5688C28.5589 16.5176 28.6369 16.4722 28.7189 16.4336L28.8039 16.6267ZM28.0779 17.3571L27.8869 17.2834C27.9179 17.215 27.9379 17.1424 27.9789 17.0779C27.9899 17.0595 28.0069 17.0464 28.0189 17.0286L28.0779 17.3571ZM28.0279 17.484L27.7589 17.6723C27.7759 17.5817 27.7989 17.4942 27.8309 17.4073L28.0279 17.484ZM27.7439 18.3125L28.0279 18.5092L27.8259 18.5994C27.7909 18.5066 27.7629 18.4118 27.7439 18.3125ZM28.9359 19.4209L29.1359 19.7057C29.0399 19.6881 28.9479 19.6598 28.8579 19.627L28.9359 19.4209ZM29.0129 19.2939L29.4489 18.9719L29.8849 19.2894L29.5849 19.7235C29.5389 19.7272 29.4949 19.7374 29.4469 19.7374C29.4009 19.7374 29.3579 19.7273 29.3129 19.7238L29.0129 19.2939ZM29.9669 19.4164L30.0579 19.6208C29.9649 19.6562 29.8679 19.6861 29.7679 19.7049L29.9669 19.4164ZM30.0939 19.3665L30.4339 19.4278C30.3549 19.4822 30.2699 19.5271 30.1829 19.5682L30.0939 19.3665ZM30.8699 18.5092L31.1549 18.3103C31.1369 18.4068 31.1089 18.4989 31.0759 18.5891L30.8699 18.5092ZM35.1429 17.0823C35.1809 17.1413 35.1989 17.2087 35.2289 17.2713L35.0439 17.3526L35.1019 17.0323C35.1139 17.0503 35.1319 17.0637 35.1429 17.0823ZM35.4099 17.9978C35.4099 18.0451 35.3999 18.0897 35.3959 18.1361L34.9669 18.4321L34.6499 17.9966L34.9669 17.5612L35.3899 17.8525C35.3939 17.9015 35.4099 17.9482 35.4099 17.9978ZM34.7949 19.3141L34.2819 19.2214L34.3629 18.6862L34.8989 18.6045L34.9919 19.1166C34.9319 19.1878 34.8659 19.2534 34.7949 19.3141ZM32.5559 16.6801L33.0649 16.7719L32.9829 17.3072L32.4469 17.3888L32.3569 16.8883C32.4189 16.8136 32.4829 16.7423 32.5559 16.6801ZM34.4129 17.4523L34.8309 17.5203L34.5859 17.8605L34.4129 17.4523ZM34.8359 18.4729L34.4129 18.5409L34.5859 18.1327L34.8359 18.4729ZM34.4949 17.9966L34.2539 18.5772L33.6729 18.8176L33.0919 18.5772L32.8509 17.9966L33.0919 17.416L33.6729 17.1756L34.2539 17.416L34.4949 17.9966ZM34.2179 18.7405L34.1499 19.1578L33.8099 18.9083L34.2179 18.7405ZM33.5369 18.9038L33.1919 19.1533L33.1279 18.736L33.5369 18.9038ZM32.9519 19.5761C32.8599 19.5337 32.7709 19.4857 32.6879 19.4283L33.0329 19.3665L32.9519 19.5761ZM32.5499 19.3142C32.4799 19.2536 32.4149 19.1882 32.3549 19.1171L32.4469 18.6044L32.9829 18.6906L33.0649 19.2213L32.5499 19.3142ZM31.9359 17.9978C31.9359 17.9484 31.9529 17.9013 31.9569 17.8523L32.3789 17.5612L32.6969 17.9966L32.3789 18.4321L31.9499 18.1363C31.9469 18.0899 31.9359 18.0452 31.9359 17.9978ZM32.7599 17.8606L32.5109 17.5204L32.9279 17.4569L32.7599 17.8606ZM32.7649 18.1327L32.9329 18.5409L32.5149 18.4729L32.7649 18.1327ZM32.2409 18.9791C32.1869 18.9006 32.1429 18.8156 32.1019 18.7286L32.3019 18.6408L32.2409 18.9791ZM33.1279 17.2527L33.1959 16.8354L33.5369 17.0849L33.1279 17.2527ZM33.8099 17.0894L34.1549 16.84L34.2179 17.2573L33.8099 17.0894ZM34.1859 16.5723L33.9989 16.3051C34.0889 16.3227 34.1739 16.3486 34.2589 16.3798L34.1859 16.5723ZM34.1089 16.6994L33.6729 17.0214L33.2369 16.7039L33.5299 16.2807C33.5779 16.2768 33.6229 16.2628 33.6719 16.2628C33.7219 16.2628 33.7689 16.2775 33.8179 16.2818L34.1089 16.6994ZM33.1559 16.5769L33.0689 16.3836C33.1589 16.3503 33.2489 16.3225 33.3429 16.3043L33.1559 16.5769ZM33.0279 16.6267L32.7079 16.5689C32.7829 16.5177 32.8609 16.4723 32.9429 16.4338L33.0279 16.6267ZM32.3019 17.3571L32.1099 17.2833C32.1419 17.215 32.1619 17.1424 32.2019 17.0779C32.2139 17.0594 32.2309 17.0461 32.2429 17.0281L32.3019 17.3571ZM32.2519 17.484L31.9819 17.6725C31.9999 17.5818 32.0229 17.4942 32.0549 17.4073L32.2519 17.484ZM31.9679 18.3124L32.2519 18.5092L32.0499 18.5995C32.0149 18.5067 31.9859 18.4118 31.9679 18.3124ZM33.1599 19.4209L33.3599 19.7057C33.2639 19.6881 33.1719 19.6598 33.0819 19.627L33.1599 19.4209ZM33.2369 19.2939L33.6729 18.9719L34.1089 19.2894L33.8089 19.7235C33.7629 19.7272 33.7189 19.7374 33.6719 19.7374C33.6259 19.7374 33.5819 19.7273 33.5369 19.7237L33.2369 19.2939ZM34.1909 19.4164L34.2819 19.6208C34.1889 19.6562 34.0929 19.686 33.9919 19.7049L34.1909 19.4164ZM34.3179 19.3665L34.6579 19.4277C34.5789 19.4821 34.4939 19.5271 34.4069 19.5682L34.3179 19.3665ZM35.0439 18.6362L35.2509 18.7157C35.2089 18.8073 35.1619 18.8961 35.1059 18.9784L35.0439 18.6362ZM34.9889 16.8926L34.8989 17.3888L34.3629 17.3026L34.2819 16.7719L34.7849 16.6811C34.8599 16.7446 34.9249 16.8165 34.9889 16.8926ZM34.3139 16.6267L34.3889 16.4317C34.4749 16.4711 34.5549 16.5168 34.6329 16.5694L34.3139 16.6267ZM35.0939 18.5092L35.3789 18.3104C35.3609 18.4069 35.3329 18.4988 35.2999 18.5891L35.0939 18.5092ZM35.3639 17.6708L35.0949 17.4841L35.2869 17.3983C35.3209 17.4873 35.3449 17.5772 35.3639 17.6708ZM31.5669 16.6809C31.5639 16.6851 31.5619 16.6897 31.5599 16.6939C31.5579 16.6906 31.5559 16.687 31.5539 16.6838C31.4519 16.5181 31.3269 16.3711 31.1899 16.2363H31.9279C31.7939 16.37 31.6689 16.5154 31.5669 16.6809ZM27.3429 16.6809C27.3399 16.6858 27.3379 16.6913 27.3339 16.6963C27.3319 16.6923 27.3299 16.6878 27.3279 16.6838C27.2259 16.5181 27.0999 16.3711 26.9639 16.2363H27.7039C27.5699 16.37 27.4459 16.5154 27.3429 16.6809ZM6.59016 17.9978C6.59016 17.9484 6.60666 17.9013 6.61066 17.8522L7.03256 17.5612L7.35046 17.9966L7.03256 18.4321L6.60406 18.1365C6.60046 18.0899 6.59016 18.0453 6.59016 17.9978ZM6.89646 17.0285L6.95546 17.357L6.76416 17.2833C6.79566 17.2149 6.81576 17.1423 6.85646 17.0778C6.86776 17.0595 6.88456 17.0464 6.89646 17.0285ZM7.20976 16.6801L7.71826 16.7719L7.63656 17.3072L7.10066 17.3888L7.01016 16.8886C7.07286 16.8138 7.13676 16.7425 7.20976 16.6801ZM9.44916 19.3141L8.93516 19.2213L9.01696 18.6861L9.55276 18.6044L9.64546 19.1167C9.58506 19.1878 9.52006 19.2534 9.44916 19.3141ZM8.32676 18.8176L7.74556 18.5772L7.50496 17.9966L7.74556 17.416L8.32676 17.1756L8.90796 17.416L9.14876 17.9966L8.90796 18.5772L8.32676 18.8176ZM8.87166 18.7405L8.80356 19.1578L8.46296 18.9083L8.87166 18.7405ZM8.19046 18.9038L7.84546 19.1533L7.78176 18.736L8.19046 18.9038ZM7.41856 18.1327L7.58666 18.5409L7.16886 18.4729L7.41856 18.1327ZM7.41416 17.8606L7.16436 17.5204L7.58206 17.4569L7.41416 17.8606ZM7.78186 17.2527L7.84996 16.8354L8.19056 17.0849L7.78186 17.2527ZM8.46296 17.0894L8.80816 16.84L8.87166 17.2573L8.46296 17.0894ZM9.06686 17.4523L9.48466 17.5203L9.23946 17.8605L9.06686 17.4523ZM9.48926 18.4729L9.06686 18.5409L9.23956 18.1327L9.48926 18.4729ZM9.69816 18.6362L9.90466 18.7157C9.86276 18.8073 9.81586 18.8962 9.75946 18.9785L9.69816 18.6362ZM9.62096 18.4321L9.30306 17.9966L9.62096 17.5612L10.0434 17.8526C10.0476 17.9016 10.0641 17.9484 10.0641 17.9978C10.0641 18.0451 10.0538 18.0896 10.0502 18.136L9.62096 18.4321ZM10.0174 17.6708L9.74806 17.4841L9.94036 17.3984C9.97416 17.4874 9.99886 17.5771 10.0174 17.6708ZM9.79636 17.0823C9.83406 17.1412 9.85236 17.2087 9.88246 17.2714L9.69826 17.3526L9.75616 17.0326C9.76796 17.0505 9.78496 17.0638 9.79636 17.0823ZM9.64256 16.8928L9.55286 17.3888L9.01706 17.3026L8.93526 16.7719L9.43826 16.6811C9.51326 16.7447 9.57886 16.8167 9.64256 16.8928ZM8.96706 16.6267L9.04236 16.4318C9.12806 16.4711 9.20806 16.5169 9.28626 16.5695L8.96706 16.6267ZM8.83976 16.5723L8.65266 16.3051C8.74236 16.3227 8.82766 16.3486 8.91286 16.3798L8.83976 16.5723ZM8.76276 16.6994L8.32676 17.0214L7.89096 16.7039L8.18356 16.2806C8.23116 16.2767 8.27636 16.2627 8.32496 16.2627C8.37516 16.2627 8.42236 16.2774 8.47186 16.2817L8.76276 16.6994ZM7.80906 16.5769L7.72266 16.3835C7.81206 16.3502 7.90206 16.3224 7.99716 16.3043L7.80906 16.5769ZM7.68206 16.6267L7.36126 16.5688C7.43686 16.5176 7.51416 16.4722 7.59696 16.4336L7.68206 16.6267ZM6.89426 18.9789C6.84066 18.9004 6.79646 18.8155 6.75606 18.7285L6.95546 18.6407L6.89426 18.9789ZM7.00806 19.117L7.10076 18.6044L7.63666 18.6906L7.71836 19.2213L7.20386 19.3142C7.13306 19.2536 7.06806 19.1881 7.00806 19.117ZM7.68656 19.3665L7.60566 19.5761C7.51336 19.5337 7.42436 19.4856 7.34166 19.4282L7.68656 19.3665ZM7.81366 19.4209L8.01326 19.7057C7.91716 19.6881 7.82536 19.6598 7.73546 19.627L7.81366 19.4209ZM7.89096 19.2939L8.32676 18.9719L8.76276 19.2894L8.46266 19.7235C8.41656 19.7272 8.37216 19.7374 8.32496 19.7374C8.27886 19.7374 8.23546 19.7273 8.19016 19.7238L7.89096 19.2939ZM8.84436 19.4164L8.93576 19.6208C8.84216 19.6562 8.74606 19.6861 8.64556 19.7049L8.84436 19.4164ZM8.97166 19.3665L9.31136 19.4278C9.23276 19.4822 9.14786 19.5272 9.06066 19.5682L8.97166 19.3665ZM9.74796 18.5092L10.0325 18.3103C10.0147 18.4068 9.98646 18.4989 9.95356 18.5892L9.74796 18.5092ZM6.90546 17.484L6.63626 17.6723C6.65386 17.5817 6.67636 17.4943 6.70836 17.4074L6.90546 17.484ZM6.62186 18.3125L6.90546 18.5092L6.70336 18.5994C6.66906 18.5066 6.64016 18.4118 6.62186 18.3125ZM11.4339 16.6801L11.9424 16.7719L11.8607 17.3072L11.3248 17.3888L11.2343 16.8883C11.2969 16.8136 11.3608 16.7423 11.4339 16.6801ZM13.6731 19.3141L13.1593 19.2214L13.241 18.6862L13.7769 18.6045L13.8696 19.1166C13.8091 19.1878 13.744 19.2534 13.6731 19.3141ZM12.5508 18.8176L11.9696 18.5772L11.7288 17.9966L11.9696 17.416L12.5508 17.1756L13.132 17.416L13.3728 17.9966L13.132 18.5772L12.5508 18.8176ZM13.0958 18.7405L13.0277 19.1578L12.6871 18.9083L13.0958 18.7405ZM12.4146 18.9038L12.0694 19.1533L12.0059 18.736L12.4146 18.9038ZM11.8298 19.5761C11.7375 19.5337 11.6483 19.4857 11.5656 19.4283L11.9106 19.3665L11.8298 19.5761ZM11.4279 19.3142C11.3572 19.2536 11.2922 19.1882 11.2322 19.1171L11.3249 18.6044L11.8608 18.6906L11.9425 19.2213L11.4279 19.3142ZM10.8141 17.9978C10.8141 17.9484 10.8306 17.9013 10.8346 17.8523L11.2568 17.5612L11.5745 17.9966L11.2568 18.4321L10.828 18.1363C10.8243 18.0899 10.8141 18.0452 10.8141 17.9978ZM11.6381 17.8606L11.3883 17.5204L11.8061 17.4569L11.6381 17.8606ZM11.6426 18.1327L11.8107 18.5409L11.3929 18.4729L11.6426 18.1327ZM11.1184 18.9791C11.0646 18.9006 11.0206 18.8156 10.98 18.7286L11.1796 18.6408L11.1184 18.9791ZM12.0059 17.2527L12.074 16.8354L12.4146 17.0849L12.0059 17.2527ZM12.6871 17.0894L13.0323 16.84L13.0958 17.2573L12.6871 17.0894ZM13.2909 17.4523L13.7087 17.5203L13.4635 17.8605L13.2909 17.4523ZM13.7134 18.4729L13.291 18.5409L13.4637 18.1327L13.7134 18.4729ZM13.9221 18.6362L14.1286 18.7157C14.0869 18.8073 14.04 18.8961 13.9836 18.9784L13.9221 18.6362ZM13.845 18.4321L13.5271 17.9966L13.845 17.5612L14.2672 17.8525C14.2714 17.9015 14.2879 17.9482 14.2879 17.9978C14.2879 18.0451 14.2776 18.0897 14.274 18.1361L13.845 18.4321ZM14.2415 17.6708L13.9722 17.4841L14.1645 17.3983C14.1982 17.4873 14.223 17.5771 14.2415 17.6708ZM14.0206 17.0823C14.0583 17.1413 14.0766 17.2087 14.1067 17.2713L13.9221 17.3526L13.98 17.0323C13.9921 17.0503 14.0093 17.0637 14.0206 17.0823ZM13.8666 16.8926L13.7769 17.3888L13.241 17.3026L13.1593 16.7719L13.6625 16.6811C13.7375 16.7446 13.8029 16.8165 13.8666 16.8926ZM13.1912 16.6267L13.2663 16.4317C13.3522 16.4711 13.4324 16.5168 13.5106 16.5694L13.1912 16.6267ZM13.0639 16.5723L12.8766 16.3051C12.9663 16.3227 13.0516 16.3486 13.137 16.3798L13.0639 16.5723ZM12.9868 16.6994L12.5508 17.0214L12.1148 16.7039L12.4074 16.2807C12.4554 16.2768 12.5006 16.2628 12.5491 16.2628C12.5991 16.2628 12.6465 16.2775 12.6958 16.2818L12.9868 16.6994ZM12.0332 16.5769L11.9468 16.3836C12.0362 16.3503 12.1262 16.3225 12.2211 16.3043L12.0332 16.5769ZM11.9061 16.6267L11.5853 16.5689C11.6607 16.5177 11.7382 16.4723 11.8208 16.4338L11.9061 16.6267ZM11.1796 17.3571L10.9879 17.2833C11.0194 17.215 11.0395 17.1424 11.08 17.0779C11.0915 17.0594 11.1084 17.0461 11.1205 17.0281L11.1796 17.3571ZM11.1296 17.484L10.8601 17.6725C10.8779 17.5818 10.9004 17.4942 10.9324 17.4073L11.1296 17.484ZM10.8458 18.3124L11.1296 18.5092L10.9275 18.5994C10.893 18.5066 10.8641 18.4118 10.8458 18.3124ZM12.0378 19.4209L12.2374 19.7057C12.1413 19.6881 12.0495 19.6598 11.9596 19.627L12.0378 19.4209ZM12.1149 19.2939L12.5509 18.9719L12.9869 19.2894L12.6868 19.7235C12.6407 19.7272 12.5963 19.7374 12.5493 19.7374C12.5032 19.7374 12.4596 19.7273 12.4144 19.7237L12.1149 19.2939ZM13.0685 19.4164L13.1601 19.6208C13.0663 19.6562 12.9702 19.686 12.8697 19.7049L13.0685 19.4164ZM13.1956 19.3665L13.5354 19.4277C13.4568 19.4821 13.3719 19.5271 13.2847 19.5682L13.1956 19.3665ZM13.9721 18.5092L14.2565 18.3104C14.2387 18.4069 14.2105 18.4988 14.1776 18.5891L13.9721 18.5092ZM15.658 16.6801L16.1665 16.7719L16.0847 17.3072L15.5489 17.3888L15.4584 16.8886C15.521 16.8138 15.5849 16.7425 15.658 16.6801ZM17.8972 19.3141L17.3834 19.2213L17.4651 18.6861L18.001 18.6044L18.0937 19.1167C18.0332 19.1879 17.968 19.2534 17.8972 19.3141ZM16.7749 18.8176L16.1937 18.5772L15.9529 17.9966L16.1937 17.416L16.7749 17.1756L17.3561 17.416L17.5967 17.9966L17.3561 18.5772L16.7749 18.8176ZM17.3198 18.7405L17.2517 19.1578L16.9111 18.9083L17.3198 18.7405ZM16.6387 18.9038L16.2935 19.1533L16.23 18.736L16.6387 18.9038ZM16.0536 19.5762C15.9613 19.5337 15.8721 19.4857 15.7894 19.4283L16.1346 19.3665L16.0536 19.5762ZM15.6517 19.3142C15.581 19.2536 15.5162 19.1883 15.4561 19.1173L15.5488 18.6044L16.0846 18.6906L16.1664 19.2213L15.6517 19.3142ZM15.038 17.9978C15.038 17.9484 15.0545 17.9013 15.0587 17.8524L15.4808 17.5612L15.7987 17.9966L15.4808 18.4321L15.052 18.1362C15.0482 18.0898 15.038 18.0452 15.038 17.9978ZM15.8621 17.8606L15.6123 17.5204L16.0301 17.4569L15.8621 17.8606ZM15.8667 18.1327L16.0348 18.5409L15.617 18.4729L15.8667 18.1327ZM15.3423 18.9792C15.2887 18.9006 15.2445 18.8157 15.2039 18.7286L15.4035 18.6407L15.3423 18.9792ZM16.23 17.2527L16.2981 16.8354L16.6387 17.0849L16.23 17.2527ZM16.9111 17.0894L17.2561 16.84L17.3198 17.2573L16.9111 17.0894ZM17.515 17.4523L17.9328 17.5203L17.6874 17.8605L17.515 17.4523ZM17.9373 18.4729L17.5151 18.5409L17.6876 18.1327L17.9373 18.4729ZM18.1462 18.6362L18.3529 18.7158C18.311 18.8074 18.2641 18.8963 18.2077 18.9786L18.1462 18.6362ZM18.0691 18.4321L17.7512 17.9966L18.0691 17.5612L18.4915 17.8527C18.4957 17.9017 18.5122 17.9484 18.5122 17.9979C18.5122 18.0452 18.5019 18.0896 18.4983 18.136L18.0691 18.4321ZM18.4655 17.6708L18.1962 17.484L18.3885 17.3982C18.4223 17.4874 18.447 17.5771 18.4655 17.6708ZM18.2445 17.0823C18.2822 17.1412 18.3005 17.2087 18.3306 17.2714L18.1462 17.3526L18.2041 17.0325C18.2161 17.0504 18.2331 17.0638 18.2445 17.0823ZM18.0907 16.8928L18.001 17.3888L17.4651 17.3026L17.3834 16.7719L17.8864 16.6811C17.9614 16.7446 18.027 16.8166 18.0907 16.8928ZM17.415 16.6267L17.4903 16.4318C17.576 16.4712 17.6562 16.5169 17.7344 16.5695L17.415 16.6267ZM17.288 16.5723L17.1009 16.3051C17.1906 16.3226 17.2758 16.3486 17.3611 16.3798L17.288 16.5723ZM17.2107 16.6994L16.7749 17.0214L16.3389 16.7039L16.6315 16.2806C16.6793 16.2767 16.7245 16.2627 16.773 16.2627C16.823 16.2627 16.8704 16.2774 16.9199 16.2817L17.2107 16.6994ZM16.2573 16.5769L16.1707 16.3835C16.2602 16.3502 16.3501 16.3224 16.4452 16.3042L16.2573 16.5769ZM16.13 16.6267L15.8092 16.5688C15.8848 16.5176 15.9621 16.4722 16.0449 16.4336L16.13 16.6267ZM15.4034 17.3571L15.2122 17.2834C15.2437 17.215 15.2638 17.1425 15.3045 17.0779C15.3159 17.0595 15.3325 17.0465 15.3444 17.0286L15.4034 17.3571ZM15.3536 17.484L15.0841 17.6724C15.1019 17.5818 15.1244 17.4942 15.1566 17.4074L15.3536 17.484ZM15.0696 18.3123L15.3536 18.5092L15.1513 18.5995C15.1169 18.5067 15.0878 18.4117 15.0696 18.3123ZM16.2618 19.4209L16.4614 19.7057C16.3651 19.6881 16.2735 19.6598 16.1834 19.627L16.2618 19.4209ZM16.3389 19.2939L16.7749 18.9719L17.2107 19.2894L16.9108 19.7235C16.8645 19.7272 16.8202 19.7374 16.7731 19.7374C16.727 19.7374 16.6836 19.7273 16.6383 19.7238L16.3389 19.2939ZM17.2925 19.4164L17.3839 19.6208C17.2903 19.6562 17.1942 19.686 17.0937 19.7049L17.2925 19.4164ZM17.4196 19.3665L17.7594 19.4278C17.6808 19.4822 17.5959 19.5272 17.5087 19.5682L17.4196 19.3665ZM18.1962 18.5092L18.4807 18.3103C18.4629 18.4068 18.4347 18.4989 18.4018 18.5892L18.1962 18.5092ZM19.8818 16.6801L20.3905 16.7719L20.3087 17.3072L19.7729 17.3888L19.6823 16.8884C19.7449 16.8137 19.8088 16.7424 19.8818 16.6801ZM22.1209 19.3141L21.6069 19.2214L21.6889 18.6862L22.2249 18.6045L22.3179 19.1167C22.2569 19.1878 22.1919 19.2534 22.1209 19.3141ZM20.9989 18.8176L20.4176 18.5772L20.177 17.9966L20.4176 17.416L20.9989 17.1756L21.5799 17.416L21.8209 17.9966L21.5799 18.5772L20.9989 18.8176ZM21.5439 18.7405L21.4759 19.1578L21.1349 18.9083L21.5439 18.7405ZM20.8629 18.9038L20.5175 19.1533L20.454 18.736L20.8629 18.9038ZM20.2777 19.5761C20.1854 19.5336 20.0964 19.4856 20.0137 19.4282L20.3587 19.3664L20.2777 19.5761ZM19.8758 19.3142C19.8053 19.2536 19.7403 19.1882 19.6801 19.1171L19.7729 18.6044L20.3087 18.6906L20.3905 19.2213L19.8758 19.3142ZM19.2622 17.9978C19.2622 17.9484 19.2787 17.9013 19.2827 17.8523L19.7048 17.5612L20.0227 17.9966L19.7048 18.4321L19.2762 18.1364C19.2725 18.0899 19.2622 18.0453 19.2622 17.9978ZM20.0862 17.8606L19.8364 17.5204L20.2542 17.4569L20.0862 17.8606ZM20.0908 18.1327L20.2587 18.5409L19.841 18.4729L20.0908 18.1327ZM19.5663 18.979C19.5127 18.9005 19.4687 18.8156 19.4281 18.7286L19.6275 18.6408L19.5663 18.979ZM20.454 17.2527L20.5221 16.8354L20.8629 17.0849L20.454 17.2527ZM21.1349 17.0894L21.4799 16.84L21.5439 17.2573L21.1349 17.0894ZM21.7389 17.4523L22.1569 17.5203L21.9119 17.8605L21.7389 17.4523ZM22.1609 18.4729L21.7389 18.5409L21.9119 18.1327L22.1609 18.4729ZM22.3699 18.6362L22.5769 18.7157C22.5349 18.8073 22.4879 18.8961 22.4319 18.9784L22.3699 18.6362ZM22.2929 18.4321L21.9749 17.9966L22.2929 17.5612L22.7149 17.8526C22.7199 17.9016 22.7359 17.9482 22.7359 17.9978C22.7359 18.0451 22.7259 18.0896 22.7219 18.136L22.2929 18.4321ZM22.6899 17.6709L22.4199 17.4841L22.6129 17.3983C22.6459 17.4873 22.6709 17.5772 22.6899 17.6709ZM22.4689 17.0823C22.5069 17.1413 22.5249 17.2086 22.5549 17.2713L22.3699 17.3526L22.4279 17.0323C22.4399 17.0503 22.4579 17.0637 22.4689 17.0823ZM22.3149 16.8926L22.2249 17.3888L21.6889 17.3026L21.6069 16.7719L22.1099 16.6811C22.1859 16.7446 22.2509 16.8166 22.3149 16.8926ZM21.6389 16.6267L21.7149 16.4318C21.7999 16.4712 21.8799 16.5169 21.9589 16.5695L21.6389 16.6267ZM21.5119 16.5723L21.3249 16.3051C21.4139 16.3227 21.4999 16.3486 21.5849 16.3798L21.5119 16.5723ZM21.4349 16.6994L20.9989 17.0214L20.5629 16.7039L20.8559 16.2806C20.9029 16.2767 20.9479 16.2627 20.9969 16.2627C21.0469 16.2627 21.0939 16.2774 21.1439 16.2817L21.4349 16.6994ZM20.4813 16.5769L20.3947 16.3835C20.4842 16.3502 20.5739 16.3224 20.6689 16.3042L20.4813 16.5769ZM20.3541 16.6267L20.0335 16.5688C20.1089 16.5176 20.1862 16.4722 20.269 16.4337L20.3541 16.6267ZM19.6275 17.3571L19.436 17.2833C19.4675 17.2149 19.4876 17.1424 19.5281 17.0779C19.5396 17.0594 19.5563 17.0462 19.5686 17.0282L19.6275 17.3571ZM19.5775 17.484L19.3083 17.6724C19.3259 17.5817 19.3484 17.4942 19.3804 17.4073L19.5775 17.484ZM19.2939 18.3125L19.5775 18.5092L19.3755 18.5994C19.3411 18.5067 19.3122 18.4118 19.2939 18.3125ZM20.4857 19.4209L20.6849 19.7057C20.5889 19.6881 20.4974 19.6598 20.4075 19.627L20.4857 19.4209ZM20.5629 19.2939L20.9989 18.9719L21.4349 19.2894L21.1349 19.7235C21.0889 19.7272 21.0439 19.7374 20.9969 19.7374C20.9509 19.7374 20.9079 19.7273 20.8619 19.7238L20.5629 19.2939ZM21.5169 19.4164L21.6079 19.6208C21.5139 19.6562 21.4179 19.6861 21.3179 19.7049L21.5169 19.4164ZM21.6439 19.3665L21.9839 19.4277C21.9049 19.4821 21.8199 19.527 21.7329 19.5681L21.6439 19.3665ZM22.4199 18.5092L22.7049 18.3104C22.6869 18.4069 22.6589 18.4989 22.6259 18.5892L22.4199 18.5092ZM24.1059 16.6801L24.6139 16.7719L24.5329 17.3072L23.9969 17.3888L23.9059 16.8882C23.9689 16.8136 24.0329 16.7424 24.1059 16.6801ZM26.6929 17.0823C26.7299 17.1412 26.7489 17.2087 26.7789 17.2713L26.5939 17.3526L26.6519 17.0324C26.6639 17.0503 26.6809 17.0637 26.6929 17.0823ZM26.9599 17.9978C26.9599 18.0451 26.9499 18.0895 26.9459 18.1359L26.5169 18.4321L26.1989 17.9966L26.5169 17.5612L26.9399 17.8527C26.9439 17.9016 26.9599 17.9484 26.9599 17.9978ZM26.3449 19.3141L25.8309 19.2213L25.9129 18.6861L26.4489 18.6044L26.5419 19.1168C26.4809 19.1879 26.4159 19.2535 26.3449 19.3141ZM25.2229 18.8176L24.6419 18.5772L24.4009 17.9966L24.6419 17.416L25.2229 17.1756L25.8039 17.416L26.0449 17.9966L25.8039 18.5772L25.2229 18.8176ZM25.7679 18.7405L25.6999 19.1578L25.3589 18.9083L25.7679 18.7405ZM25.0869 18.9038L24.7419 19.1533L24.6779 18.736L25.0869 18.9038ZM24.5019 19.5761C24.4099 19.5337 24.3199 19.4856 24.2379 19.4282L24.5829 19.3664L24.5019 19.5761ZM24.0999 19.3142C24.0289 19.2536 23.9639 19.1882 23.9039 19.1172L23.9969 18.6044L24.5329 18.6906L24.6139 19.2213L24.0999 19.3142ZM23.4859 17.9978C23.4859 17.9484 23.5029 17.9013 23.5069 17.8524L23.9289 17.5612L24.2469 17.9966L23.9289 18.4321L23.4999 18.1363C23.4959 18.0898 23.4859 18.0452 23.4859 17.9978ZM24.3099 17.8606L24.0599 17.5204L24.4779 17.4569L24.3099 17.8606ZM24.3149 18.1327L24.4829 18.5409L24.0649 18.4729L24.3149 18.1327ZM23.7899 18.9791C23.7369 18.9006 23.6929 18.8156 23.6519 18.7286L23.8519 18.6407L23.7899 18.9791ZM24.6779 17.2527L24.7459 16.8354L25.0869 17.0849L24.6779 17.2527ZM25.3589 17.0894L25.7039 16.84L25.7679 17.2573L25.3589 17.0894ZM25.9629 17.4523L26.3809 17.5203L26.1359 17.8605L25.9629 17.4523ZM26.3849 18.4729L25.9629 18.5409L26.1359 18.1327L26.3849 18.4729ZM26.5939 18.6362L26.8009 18.7158C26.7589 18.8075 26.7119 18.8963 26.6559 18.9786L26.5939 18.6362ZM26.5389 16.8927L26.4489 17.3888L25.9129 17.3026L25.8309 16.7719L26.3349 16.6811C26.4099 16.7446 26.4749 16.8166 26.5389 16.8927ZM25.8629 16.6267L25.9389 16.4318C26.0239 16.4712 26.1049 16.5169 26.1829 16.5695L25.8629 16.6267ZM25.7359 16.5723L25.5489 16.3051C25.6389 16.3227 25.7239 16.3486 25.8089 16.3798L25.7359 16.5723ZM25.6589 16.6994L25.2229 17.0214L24.7869 16.7039L25.0799 16.2807C25.1269 16.2768 25.1729 16.2628 25.2209 16.2628C25.2709 16.2628 25.3189 16.2775 25.3679 16.2818L25.6589 16.6994ZM24.7049 16.5769L24.6189 16.3836C24.7079 16.3503 24.7979 16.3224 24.8929 16.3043L24.7049 16.5769ZM24.5779 16.6267L24.2569 16.5688C24.3329 16.5176 24.4099 16.4722 24.4929 16.4337L24.5779 16.6267ZM23.8519 17.3571L23.6599 17.2833C23.6909 17.215 23.7119 17.1425 23.7519 17.0779C23.7639 17.0594 23.7799 17.0461 23.7929 17.0281L23.8519 17.3571ZM23.8019 17.484L23.5319 17.6725C23.5499 17.5819 23.5719 17.4942 23.6039 17.4073L23.8019 17.484ZM23.5179 18.3123L23.8019 18.5091L23.5999 18.5994C23.5649 18.5067 23.5359 18.4117 23.5179 18.3123ZM24.7099 19.4209L24.9089 19.7057C24.8129 19.6881 24.7219 19.6598 24.6319 19.627L24.7099 19.4209ZM24.7869 19.2939L25.2229 18.9719L25.6589 19.2894L25.3589 19.7235C25.3129 19.7272 25.2679 19.7374 25.2209 19.7374C25.1749 19.7374 25.1319 19.7273 25.0859 19.7237L24.7869 19.2939ZM25.7409 19.4164L25.8319 19.6208C25.7379 19.6562 25.6429 19.6861 25.5419 19.7049L25.7409 19.4164ZM25.8679 19.3665L26.2079 19.4278C26.1289 19.4822 26.0439 19.5272 25.9569 19.5683L25.8679 19.3665ZM26.6439 18.5092L26.9289 18.3102C26.9109 18.4068 26.8829 18.4989 26.8499 18.5893L26.6439 18.5092ZM26.9139 17.6709L26.6439 17.484L26.8369 17.3982C26.8699 17.4874 26.8949 17.5772 26.9139 17.6709ZM23.1159 16.6809C23.1139 16.6851 23.1119 16.6897 23.1089 16.6939C23.1069 16.6906 23.1059 16.687 23.1039 16.6838C23.0019 16.5181 22.8759 16.3711 22.7399 16.2363H23.4779C23.3439 16.37 23.2189 16.5154 23.1159 16.6809ZM18.8923 16.6809C18.8896 16.6852 18.8879 16.69 18.8852 16.6943C18.8832 16.691 18.8817 16.6872 18.8795 16.6839C18.7777 16.5182 18.6523 16.3712 18.516 16.2364H19.2539C19.1199 16.37 18.9952 16.5154 18.8923 16.6809ZM14.6685 16.6809C14.6658 16.6852 14.6641 16.69 14.6614 16.6943C14.6594 16.691 14.6579 16.6872 14.6557 16.6839C14.5539 16.5182 14.4285 16.3712 14.2922 16.2364H15.0297C14.8959 16.37 14.7714 16.5154 14.6685 16.6809ZM10.4442 16.6809C10.4416 16.6851 10.4398 16.6897 10.4372 16.6939C10.4352 16.6906 10.4337 16.687 10.4317 16.6838C10.3299 16.5181 10.2043 16.3711 10.0681 16.2363H10.8058C10.6718 16.37 10.5471 16.5154 10.4442 16.6809ZM10.4387 19.296C10.5429 19.4651 10.6604 19.6245 10.8005 19.7637H10.0765C10.2168 19.6245 10.3345 19.4651 10.4387 19.296ZM14.6626 19.296C14.7668 19.4651 14.8843 19.6245 15.0244 19.7637H14.3004C14.4407 19.6245 14.5584 19.4651 14.6626 19.296ZM18.8868 19.296C18.9908 19.4651 19.1085 19.6244 19.2486 19.7637H18.5246C18.6649 19.6245 18.7826 19.4651 18.8868 19.296ZM23.1109 19.296C23.2149 19.4651 23.3319 19.6245 23.4729 19.7637H22.7489C22.8889 19.6245 23.0069 19.4651 23.1109 19.296ZM27.3359 19.294C27.4409 19.4638 27.5579 19.624 27.6989 19.7637H26.9729C27.1139 19.6239 27.2319 19.4638 27.3359 19.294ZM31.5609 19.296C31.6649 19.4651 31.7829 19.6245 31.9229 19.7637H31.1989C31.3389 19.6245 31.4569 19.4651 31.5609 19.296ZM3.63086 18C3.63086 17.0273 4.42186 16.2363 5.39456 16.2363H6.58166C6.44776 16.37 6.32326 16.5154 6.22036 16.6809C5.97166 17.0764 5.84026 17.532 5.84026 17.9978C5.84026 18.6877 6.12256 19.3123 6.57676 19.7637H5.39466C4.42186 19.7637 3.63086 18.9727 3.63086 18ZM36.6059 19.7637H35.4229C35.8779 19.3123 36.1599 18.6877 36.1599 17.9978C36.1599 17.5283 36.0269 17.072 35.7779 16.6838C35.6759 16.5181 35.5509 16.3711 35.4149 16.2363H36.6059C37.5789 16.2363 38.3699 17.0273 38.3699 18C38.3699 18.9727 37.5789 19.7637 36.6059 19.7637Z" fill="black"/>
</g>
</svg>
