<svg width="24" height="25" viewBox="0 0 24 25" fill="none" xmlns="http://www.w3.org/2000/svg">
<path d="M17.9825 19.2249C17.2838 18.2998 16.3798 17.5496 15.3417 17.0333C14.3036 16.5171 13.1599 16.2489 12.0005 16.2499C10.8411 16.2489 9.69739 16.5171 8.65932 17.0333C7.62125 17.5496 6.71724 18.2998 6.0185 19.2249M17.9825 19.2249C19.346 18.0121 20.3076 16.4135 20.7417 14.641C21.1758 12.8686 21.0608 11.006 20.412 9.30043C19.7632 7.59482 18.6112 6.12673 17.1089 5.09085C15.6066 4.05497 13.8248 3.50024 12 3.50024C10.1752 3.50024 8.39343 4.05497 6.89111 5.09085C5.38878 6.12673 4.23683 7.59482 3.58804 9.30043C2.93924 11.006 2.82425 12.8686 3.25832 14.641C3.69239 16.4135 4.655 18.0121 6.0185 19.2249M17.9825 19.2249C16.3365 20.6931 14.2061 21.5031 12.0005 21.4999C9.79453 21.5033 7.66474 20.6934 6.0185 19.2249M15.0005 10.2499C15.0005 11.0456 14.6844 11.8087 14.1218 12.3713C13.5592 12.9339 12.7962 13.2499 12.0005 13.2499C11.2049 13.2499 10.4418 12.9339 9.87918 12.3713C9.31657 11.8087 9.0005 11.0456 9.0005 10.2499C9.0005 9.4543 9.31657 8.69124 9.87918 8.12863C10.4418 7.56602 11.2049 7.24995 12.0005 7.24995C12.7962 7.24995 13.5592 7.56602 14.1218 8.12863C14.6844 8.69124 15.0005 9.4543 15.0005 10.2499Z" stroke="#333335" stroke-width="1.5" stroke-linecap="round" stroke-linejoin="round"/>
</svg>
