<svg width="100" height="100" viewBox="0 0 100 100" fill="none" xmlns="http://www.w3.org/2000/svg">
<path d="M89 59C89 63.9296 82.5 71 76.5 74.5C75.5 78.5 74.6322 82.6293 74 85C71.5 82.5 67.7434 76 61.5 76C46.3122 76 35.5 68.5 35.5 62.5C39 62.5 54.5432 64.5747 59.5 61.5C62 56 60 47.5 61.5 42C76.6878 42 89 49.6112 89 59Z" fill="#CCD0D4"/>
<path d="M61.4076 40.0889V40.284L61.6027 40.2842C65.218 40.2888 68.7261 40.7584 72.0313 41.6798C75.2558 42.5791 78.153 43.8683 80.645 45.5105C83.1569 47.166 85.1318 49.0985 86.521 51.2516L86.5211 51.2522L86.5422 51.2849C88.0089 53.5706 88.7497 56.0013 88.7497 58.5124C88.7497 60.1329 88.4346 61.7399 87.8125 63.2894C87.2156 64.777 86.3348 66.2117 85.1944 67.5527C83.1002 70.015 80.1393 72.1377 76.6003 73.7106L76.4985 73.7558L76.4857 73.8665L75.1329 85.4894C75.0926 85.8326 74.8557 86.1204 74.5266 86.2256L74.5264 86.2257C74.4379 86.2541 74.3485 86.2675 74.2587 86.2675C74.0137 86.2675 73.7754 86.1654 73.6059 85.9776L73.4609 86.1085L73.6059 85.9776L65.1884 76.6567L65.1235 76.5848L65.0269 76.593C63.8777 76.6903 62.7108 76.7399 61.5498 76.7399C58.372 76.7399 55.2605 76.3781 52.3015 75.6648C49.4305 74.9722 46.7725 73.967 44.3999 72.6781C42.0247 71.3871 40.0092 69.8528 38.4064 68.1174L38.2629 68.2499L38.4064 68.1174C36.9451 66.5354 35.8658 64.8284 35.1881 63.0345L35.1404 62.9083H35.0054H15.5644C13.1554 62.9083 11.1953 60.948 11.1953 58.5392V30.6231C11.1953 28.2141 13.1556 26.254 15.5644 26.254H19.6143H19.7368L19.7901 26.1437L25.8117 13.692C25.9588 13.388 26.2665 13.1953 26.6036 13.1953C26.9409 13.1953 27.249 13.3882 27.3954 13.6917L27.3955 13.6919L33.4176 26.143L33.471 26.2533H33.5934H57.0385C59.4475 26.2533 61.4076 28.2136 61.4076 30.6224V40.0889ZM26.7807 16.4586L26.6049 16.0951L26.4291 16.4586L21.0807 27.5162C20.9335 27.8201 20.6259 28.0128 20.2887 28.0128H15.565C14.1259 28.0128 12.9553 29.1835 12.9553 30.6225V58.5386C12.9553 59.9776 14.1259 61.1483 15.565 61.1483L35.7722 61.1466H57.0389C58.478 61.1466 59.6486 59.9759 59.6486 58.5369V30.6225C59.6486 29.1834 58.478 28.0128 57.0389 28.0128L32.9203 28.0122C32.583 28.0122 32.2749 27.8193 32.1285 27.5157L32.1284 27.5155L26.7807 16.4586ZM75.3442 72.3369L75.7525 72.1653L75.7479 72.1632C82.7613 69.0939 86.9906 64.0275 86.9919 58.5115C86.9919 54.1653 84.3734 50.0739 79.6781 46.9792C74.8546 43.8002 68.4367 42.0527 61.6029 42.0435L61.4073 42.0432V42.2388V58.5385C61.4073 60.9474 59.447 62.9076 57.0382 62.9076H37.3336H37.0292L37.156 63.1843C38.7501 66.6616 42.0388 69.6098 46.324 71.6872C50.6114 73.7656 55.9105 74.9797 61.5512 74.9797C62.8367 74.9797 64.1301 74.9164 65.3954 74.7918C65.4259 74.789 65.455 74.7875 65.4824 74.7875C65.7301 74.7875 65.9679 74.8917 66.1352 75.0773L66.1353 75.0774L73.3226 83.0357L73.6117 83.3557L73.6616 82.9273L74.8117 73.0461L74.8117 73.046C74.8482 72.7309 75.0517 72.4598 75.3442 72.3369Z" fill="#1D1F1E" stroke="white" stroke-width="0.390589"/>
<mask id="path-3-inside-1_7189_170715" fill="white">
<path d="M25.9544 42.864C26.9346 43.8436 26.9346 45.4319 25.9544 46.4115C24.9749 47.391 23.3865 47.391 22.407 46.4115C21.4268 45.4319 21.4268 43.8436 22.407 42.864C23.3865 41.8839 24.9749 41.8839 25.9544 42.864Z"/>
</mask>
<path d="M25.9544 42.864C26.9346 43.8436 26.9346 45.4319 25.9544 46.4115C24.9749 47.391 23.3865 47.391 22.407 46.4115C21.4268 45.4319 21.4268 43.8436 22.407 42.864C23.3865 41.8839 24.9749 41.8839 25.9544 42.864Z" fill="#1D1F1E"/>
<path d="M25.9544 46.4115L25.6783 46.1352L25.6782 46.1353L25.9544 46.4115ZM22.407 46.4115L22.6832 46.1353L22.6831 46.1352L22.407 46.4115ZM22.407 42.864L22.6831 43.1403L22.6833 43.1401L22.407 42.864ZM25.6783 43.1403C26.5058 43.9673 26.5058 45.3082 25.6783 46.1352L26.2305 46.6877C27.3634 45.5557 27.3634 43.7198 26.2305 42.5878L25.6783 43.1403ZM25.6782 46.1353C24.8512 46.9623 23.5102 46.9623 22.6832 46.1353L22.1308 46.6876C23.2629 47.8197 25.0986 47.8197 26.2306 46.6876L25.6782 46.1353ZM22.6831 46.1352C21.8556 45.3082 21.8556 43.9673 22.6831 43.1403L22.1309 42.5878C20.9981 43.7198 20.9981 45.5557 22.1309 46.6877L22.6831 46.1352ZM22.6833 43.1401C23.5103 42.3126 24.8512 42.3126 25.6781 43.1401L26.2307 42.5879C25.0986 41.4551 23.2628 41.4551 22.1307 42.5879L22.6833 43.1401Z" fill="white" mask="url(#path-3-inside-1_7189_170715)"/>
<mask id="path-5-inside-2_7189_170715" fill="white">
<path d="M38.0716 42.8635C39.0518 43.8431 39.0518 45.4314 38.0716 46.411C37.0921 47.3911 35.5037 47.3911 34.5242 46.411C33.544 45.4314 33.544 43.8431 34.5242 42.8635C35.5037 41.884 37.0921 41.884 38.0716 42.8635Z"/>
</mask>
<path d="M38.0716 42.8635C39.0518 43.8431 39.0518 45.4314 38.0716 46.411C37.0921 47.3911 35.5037 47.3911 34.5242 46.411C33.544 45.4314 33.544 43.8431 34.5242 42.8635C35.5037 41.884 37.0921 41.884 38.0716 42.8635Z" fill="#1D1F1E"/>
<path d="M38.0716 46.411L37.7955 46.1347L37.7953 46.1349L38.0716 46.411ZM34.5242 46.411L34.8005 46.1349L34.8003 46.1347L34.5242 46.411ZM34.5242 42.8635L34.8003 43.1398L34.8004 43.1397L34.5242 42.8635ZM37.7955 43.1398C38.623 43.9668 38.623 45.3077 37.7955 46.1347L38.3477 46.6872C39.4805 45.5552 39.4805 43.7193 38.3477 42.5873L37.7955 43.1398ZM37.7953 46.1349C36.9684 46.9624 35.6274 46.9624 34.8005 46.1349L34.2479 46.6871C35.38 47.8199 37.2158 47.8199 38.3479 46.6871L37.7953 46.1349ZM34.8003 46.1347C33.9728 45.3077 33.9728 43.9668 34.8003 43.1398L34.2481 42.5873C33.1153 43.7193 33.1153 45.5552 34.2481 46.6872L34.8003 46.1347ZM34.8004 43.1397C35.6274 42.3127 36.9684 42.3127 37.7954 43.1397L38.3478 42.5874C37.2157 41.4553 35.3801 41.4553 34.248 42.5874L34.8004 43.1397Z" fill="white" mask="url(#path-5-inside-2_7189_170715)"/>
<path d="M50.0586 46.2736C50.962 45.3696 50.9619 43.9049 50.0587 43.0017C49.1548 42.0983 47.69 42.0984 46.7868 43.0016C45.8836 43.9049 45.8835 45.3696 46.7868 46.2735C46.7868 46.2736 46.7868 46.2736 46.7868 46.2736M50.0586 46.2736L50.1968 46.4116C49.2166 47.3912 47.6282 47.3912 46.6487 46.4116L46.7868 46.2736M50.0586 46.2736C49.1547 47.1768 47.69 47.1767 46.7868 46.2736M50.0586 46.2736L46.7868 46.2736" fill="#1D1F1E" stroke="white" stroke-width="0.390589"/>
</svg>
