<svg width="20" height="20" viewBox="0 0 20 20" fill="none" xmlns="http://www.w3.org/2000/svg">
<g id="Clip path group">
<mask id="mask0_7029_30744" style="mask-type:luminance" maskUnits="userSpaceOnUse" x="0" y="0" width="20" height="20">
<g id="clip126_925_2485">
<path id="Vector" d="M20 0H0V20H20V0Z" fill="white"/>
</g>
</mask>
<g mask="url(#mask0_7029_30744)">
<g id="Group">
<path id="Vector_2" d="M10 20C15.5228 20 20 15.5228 20 10C20 4.47715 15.5228 0 10 0C4.47715 0 0 4.47715 0 10C0 15.5228 4.47715 20 10 20Z" fill="#6843A2"/>
<path id="Vector_3" d="M3.1377 7.36876L4.25991 9.99985L5.97436 6.31543L3.1377 7.36876Z" fill="#542D8C"/>
<path id="Vector_4" d="M2.60938 3.26446L7.22158 3.40226L6.18603 0.757812C4.81048 1.32337 3.59382 2.18557 2.60938 3.26446Z" fill="#542D8C"/>
<path id="Vector_5" d="M6.09473 13.8477L7.45807 16.641L10.0581 15.5054L6.09473 13.8477Z" fill="#542D8C"/>
<path id="Vector_6" d="M3.01758 12.5489L6.09534 13.8478L4.2598 10L3.01758 12.5489Z" fill="#9A5AF2"/>
<path id="Vector_7" d="M2.60938 3.26465L3.13826 7.36913L5.97492 6.3158L7.22158 3.40245L2.60938 3.26465Z" fill="#3B1075"/>
<path id="Vector_8" d="M0 9.9998C0 10.0731 -2.44162e-06 10.1498 0.004442 10.2231L3.13778 7.36871L0.726666 6.25977C0.257777 7.41643 0 8.67535 0 9.9998Z" fill="#53377D"/>
<path id="Vector_9" d="M0.722656 6.26019L3.13822 7.36913L2.60933 3.26465C1.81377 4.13465 1.17377 5.15019 0.722656 6.26019Z" fill="#6843A2"/>
<path id="Vector_10" d="M0.00488281 10.2236L3.01822 12.5491L4.26044 10.0002L3.13822 7.36914L0.00488281 10.2236Z" fill="#6843A2"/>
<path id="Vector_11" d="M0.816406 13.9588C1.29752 15.0688 1.97308 16.0799 2.80196 16.9366L3.02196 12.5488L0.816406 13.9588Z" fill="#53377D"/>
<path id="Vector_12" d="M10.0576 15.5056L12.8987 16.5166L13.8832 13.9033L10.0576 15.5056Z" fill="#542D8C"/>
<path id="Vector_13" d="M0.00488281 10.2222C0.0304384 11.5466 0.318219 12.8099 0.817108 13.9588L3.02266 12.5488L0.00488281 10.2222Z" fill="#6843A2"/>
<path id="Vector_14" d="M10.0576 4.61423L13.9043 6.23424L12.8987 3.52197L10.0576 4.61423Z" fill="#FD8EFF"/>
<path id="Vector_15" d="M5.97461 6.31569L10.0579 4.61457L7.22127 3.40234L5.97461 6.31569Z" fill="#9A5AF2"/>
<path id="Vector_16" d="M14.0469 13.7923L16.9224 12.6733L15.5046 10L14.0469 13.7923Z" fill="#9A5AF2"/>
<path id="Vector_17" d="M13.9053 6.2334L15.5042 10.0001L16.7464 7.36899L13.9053 6.2334Z" fill="#9A5AF2"/>
<path id="Vector_18" d="M16.9219 12.6733L17.2019 16.9411C18.0308 16.08 18.7063 15.0734 19.1874 13.9634L16.9219 12.6733Z" fill="#53377D"/>
<path id="Vector_19" d="M16.7471 7.3688L20.0004 9.99989C20.0004 8.72767 19.7637 7.51103 19.326 6.3877L16.7471 7.3688Z" fill="#6843A2"/>
<path id="Vector_20" d="M16.9219 12.6733L19.183 13.9589C19.7074 12.7467 19.9997 11.4056 19.9997 10L16.9219 12.6733Z" fill="#6843A2"/>
<path id="Vector_21" d="M15.5049 10.0002L16.9227 12.6736L20.0004 10.0002L16.7471 7.36914L15.5049 10.0002Z" fill="#3B1075"/>
<path id="Vector_22" d="M12.8984 16.5167L17.2018 16.9367L16.9218 12.6689L14.0418 13.7879L14.0207 13.8434L13.8784 13.9034L12.8984 16.5167Z" fill="#6843A2"/>
<path id="Vector_23" d="M2.79785 16.9367C2.79785 16.9411 2.79785 16.9411 2.79785 16.9367C3.70896 17.8833 4.80562 18.65 6.02673 19.1822L7.45339 16.6411C7.45784 16.6411 2.87563 16.8722 2.79785 16.9367Z" fill="#6843A2"/>
<path id="Vector_24" d="M6.18066 0.754462L7.22065 3.40224L10.0018 0C8.64733 0 7.35844 0.270018 6.18066 0.754462Z" fill="#3B1075"/>
<path id="Vector_25" d="M6.0293 19.1778C7.24596 19.7045 8.59152 19.9956 10.0015 19.9956L7.45708 16.6367L6.0293 19.1778Z" fill="#140035"/>
<path id="Vector_26" d="M10.002 19.9999C11.4764 19.9999 12.8731 19.6833 14.1331 19.1088L12.8986 16.5166L10.002 19.9999Z" fill="#140035"/>
<path id="Vector_27" d="M12.8984 16.5166L14.1329 19.1088C15.2884 18.5822 16.3284 17.8444 17.2018 16.9411L12.8984 16.5166Z" fill="#6843A2"/>
<path id="Vector_28" d="M12.8984 3.52245L17.3907 3.26468C16.4195 2.20245 15.224 1.35027 13.8784 0.780273L12.8984 3.52245Z" fill="#9A5AF2"/>
<path id="Vector_29" d="M12.8984 3.52242L13.9051 6.23469L16.7462 7.36913L17.3907 3.26465L12.8984 3.52242Z" fill="#542D8C"/>
<path id="Vector_30" d="M10.002 0L12.9031 3.5222L13.8831 0.780029C12.6886 0.278918 11.3775 0 10.002 0Z" fill="#3B1075"/>
<path id="Vector_31" d="M16.7471 7.36913L19.3293 6.38802C18.8782 5.22691 18.2204 4.16909 17.396 3.26465L16.7471 7.36913Z" fill="#6843A2"/>
<path id="Vector_32" d="M7.2207 3.40224L10.0574 4.61446L12.8985 3.5222L10.0018 0L7.2207 3.40224Z" fill="#53377D"/>
<path id="Vector_33" d="M13.8838 13.9036L14.026 13.848L14.0471 13.7925L13.906 13.848L13.8838 13.9036Z" fill="#53377D"/>
<path id="Vector_34" d="M2.79785 16.9366C2.87563 16.8766 7.45339 16.641 7.45339 16.641L6.09117 13.8477L3.01341 12.5532L2.79785 16.9366Z" fill="#3B1075"/>
<path id="Vector_35" d="M7.45801 16.6409L10.0024 19.9998L12.8991 16.5165L10.058 15.5054L7.45801 16.6409Z" fill="#3B1075"/>
</g>
</g>
</g>
</svg>
