<svg width="20" height="20" viewBox="0 0 20 20" fill="none" xmlns="http://www.w3.org/2000/svg">
<g id="Group">
<path id="Vector" d="M10 20C15.5228 20 20 15.5228 20 10C20 4.47715 15.5228 0 10 0C4.47715 0 0 4.47715 0 10C0 15.5228 4.47715 20 10 20Z" fill="#B8E4F2"/>
<path id="Vector_2" d="M3.1377 7.36943L4.25993 10.0001L5.97437 6.31543L3.1377 7.36943Z" fill="#7CCDE8"/>
<path id="Vector_3" d="M2.6084 3.26475L7.22062 3.40186L6.18506 0.758301C4.8095 1.32386 3.59284 2.18508 2.6084 3.26475Z" fill="#7CCDE8"/>
<path id="Vector_4" d="M6.09473 13.8477L7.45808 16.6411L10.0581 15.5058L6.09473 13.8477Z" fill="#7CCDE8"/>
<path id="Vector_5" d="M3.01758 12.5493L6.09534 13.8474L4.25981 10L3.01758 12.5493Z" fill="#5BB9DF"/>
<path id="Vector_6" d="M2.6084 3.26465L3.1373 7.36909L5.97398 6.3152L7.22062 3.40165L2.6084 3.26465Z" fill="#B8E4F1"/>
<path id="Vector_7" d="M0 10.0001C0 10.073 -2.44162e-06 10.1501 0.004442 10.2229L3.13778 7.36943L0.726657 6.25977C0.257769 7.41654 0 8.67621 0 10.0001Z" fill="#C9E7F2"/>
<path id="Vector_8" d="M0.722656 6.25943L3.13822 7.36909L2.60932 3.26465C1.81377 4.13432 1.17377 5.14976 0.722656 6.25943Z" fill="#7CD4EC"/>
<path id="Vector_9" d="M0.00488281 10.2227L3.01822 12.5491L4.26046 9.99992L3.13822 7.36914L0.00488281 10.2227Z" fill="#7CD4EC"/>
<path id="Vector_10" d="M0.816406 13.9589C1.29752 15.0687 1.97309 16.0798 2.80198 16.9367L3.02198 12.5493L0.816406 13.9589Z" fill="#C9E7F2"/>
<path id="Vector_11" d="M10.0576 15.5058L12.8987 16.5169L13.8832 13.9033L10.0576 15.5058Z" fill="#7CCDE8"/>
<path id="Vector_12" d="M0.00488281 10.2227C0.0304384 11.5467 0.318202 12.8105 0.817091 13.9588L3.02266 12.5492L0.00488281 10.2227Z" fill="#7CD4EC"/>
<path id="Vector_13" d="M10.0576 4.61453L13.9043 6.23408L12.8987 3.52197L10.0576 4.61453Z" fill="white"/>
<path id="Vector_14" d="M5.97461 6.3153L10.0579 4.6143L7.22125 3.40186L5.97461 6.3153Z" fill="#5BB9DF"/>
<path id="Vector_15" d="M14.0469 13.7918L16.9224 12.6736L15.5047 10L14.0469 13.7918Z" fill="#5BB9DF"/>
<path id="Vector_16" d="M13.9053 6.23389L15.5042 9.99989L16.7464 7.36922L13.9053 6.23389Z" fill="#5BB9DF"/>
<path id="Vector_17" d="M16.9219 12.6733L17.2019 16.9407C18.0307 16.0796 18.7063 15.0727 19.1874 13.963L16.9219 12.6733Z" fill="#C9E7F2"/>
<path id="Vector_18" d="M16.7471 7.3693L20.0004 9.99996C20.0004 8.72752 19.7638 7.51074 19.326 6.38818L16.7471 7.3693Z" fill="#7CD4EC"/>
<path id="Vector_19" d="M16.9219 12.6736L19.183 13.9589C19.7074 12.7463 19.9996 11.4053 19.9996 10L16.9219 12.6736Z" fill="#7CD4EC"/>
<path id="Vector_20" d="M15.5049 9.99992L16.9227 12.6734L20.0004 9.99992L16.7471 7.36914L15.5049 9.99992Z" fill="#B8E4F1"/>
<path id="Vector_21" d="M12.8984 16.517L17.2018 16.9369L16.9218 12.6694L14.0418 13.7878L14.0206 13.8434L13.8784 13.9034L12.8984 16.517Z" fill="#7CD4EC"/>
<path id="Vector_22" d="M2.79785 16.9368C2.79785 16.9411 2.79785 16.9411 2.79785 16.9368C3.70896 17.8837 4.80564 18.6506 6.02675 19.1819L7.45341 16.6411C7.45785 16.6411 2.87563 16.8726 2.79785 16.9368Z" fill="#7CD4EC"/>
<path id="Vector_23" d="M6.18066 0.754111L7.22067 3.40189L10.0018 0C8.64736 0 7.35844 0.269888 6.18066 0.754111Z" fill="#B8E4F1"/>
<path id="Vector_24" d="M6.0293 19.1775C7.24596 19.7044 8.59153 19.9958 10.0015 19.9958L7.45708 16.6367L6.0293 19.1775Z" fill="#3897C0"/>
<path id="Vector_25" d="M10.002 19.9998C11.4764 19.9998 12.873 19.6828 14.133 19.1087L12.8986 16.5166L10.002 19.9998Z" fill="#3897C0"/>
<path id="Vector_26" d="M12.8984 16.5166L14.1329 19.1087C15.2884 18.5817 16.3284 17.8448 17.2018 16.9407L12.8984 16.5166Z" fill="#7CD4EC"/>
<path id="Vector_27" d="M12.8984 3.5219L17.3907 3.26479C16.4195 2.20223 15.224 1.34956 13.8784 0.779785L12.8984 3.5219Z" fill="#5BB9DF"/>
<path id="Vector_28" d="M12.8984 3.52165L13.9051 6.23376L16.7462 7.36909L17.3907 3.26465L12.8984 3.52165Z" fill="#7CCDE8"/>
<path id="Vector_29" d="M10.002 0L12.9031 3.52189L13.883 0.779779C12.6886 0.278446 11.3775 0 10.002 0Z" fill="#B8E4F1"/>
<path id="Vector_30" d="M16.7471 7.36909L19.3293 6.38798C18.8782 5.22687 18.2204 4.16865 17.396 3.26465L16.7471 7.36909Z" fill="#7CD4EC"/>
<path id="Vector_31" d="M7.2207 3.40189L10.0574 4.61444L12.8985 3.52189L10.0018 0L7.2207 3.40189Z" fill="#C9E7F2"/>
<path id="Vector_32" d="M13.8838 13.9034L14.026 13.8477L14.0471 13.792L13.906 13.8477L13.8838 13.9034Z" fill="#C9E7F2"/>
<path id="Vector_33" d="M2.79785 16.9367C2.87563 16.8768 7.45341 16.6412 7.45341 16.6412L6.09117 13.8476L3.01341 12.5537L2.79785 16.9367Z" fill="#B8E4F1"/>
<path id="Vector_34" d="M7.45801 16.6412L10.0025 20.0003L12.8991 16.517L10.058 15.5059L7.45801 16.6412Z" fill="#B8E4F1"/>
</g>
</svg>
