<svg width="20" height="20" viewBox="0 0 20 20" fill="none" xmlns="http://www.w3.org/2000/svg">
<g id="Group 26017">
<g id="Vector">
<path d="M19.7078 2.54102L17.4557 0.289001C17.4451 0.278001 17.4204 0.25 17.3643 0.25H2.6357C2.5865 0.25 2.5549 0.278001 2.5443 0.289001L0.2922 2.54102C0.2817 2.55202 0.25 2.57701 0.25 2.62201V17.344C0.25 17.401 0.2852 17.429 0.2852 17.432L2.5444 19.688C2.5514 19.695 2.6006 19.755 2.6849 19.755H17.3152C17.3749 19.755 17.4241 19.72 17.4768 19.671L19.7009 17.446C19.7044 17.443 19.75 17.397 19.75 17.33V2.629C19.7499 2.594 19.7359 2.57302 19.7078 2.54102ZM19.2721 2.668L17.8491 3.793L16.233 2.172L17.3291 0.723999L19.2721 2.668ZM13.6434 5.483L14.6308 4.21802L15.8043 5.392L14.5394 6.379L13.6434 5.483ZM14.3216 6.69901V13.303L13.2991 14.322H6.7008L5.6784 13.303V6.69901L6.7008 5.68002H13.2991L14.3216 6.69901ZM13.2851 5.31403H6.7148L5.6994 4.01401H14.3005L13.2851 5.31403ZM6.3565 5.483L5.4816 6.358L4.2167 5.371L5.3938 4.19302L6.3565 5.483ZM5.3165 6.71701V13.285L4.0129 14.301V5.70102L5.3165 6.71701ZM5.4851 13.647L6.3565 14.519L5.3692 15.787L4.1922 14.607L5.4851 13.647ZM6.7148 14.708H13.2851L14.3005 16.012H5.6994L6.7148 14.708ZM13.6434 14.519L14.5183 13.644L15.7832 14.631L14.6062 15.809L13.6434 14.519ZM14.708 13.285V6.71701L16.0081 5.70102V14.301L14.708 13.285ZM14.8592 3.905L15.98 2.48203L17.54 4.04202L16.117 5.16302L14.8592 3.905ZM14.5886 3.62701H5.4113L4.3959 2.32401H15.604L14.5886 3.62701ZM5.1408 3.905L3.9076 5.142L2.3265 3.905L3.9076 2.32401L5.1408 3.905ZM3.6264 5.40903V14.593L2.3265 15.608V4.39401L3.6264 5.40903ZM3.9076 14.86L5.1408 16.097L3.9076 17.678L2.3265 16.097L3.9076 14.86ZM5.4113 16.374H14.5886L15.604 17.678H4.3959L5.4113 16.374ZM14.8592 16.097L16.0923 14.86L17.6735 16.097L16.0923 17.678L14.8592 16.097ZM16.3735 14.593V5.40903L17.6735 4.39401V15.608L16.3735 14.593ZM16.911 0.637024L15.8956 1.93701H4.0797L3.0678 0.637024H16.911ZM2.6708 0.728027L3.6546 1.99301L1.9927 3.65601L0.7278 2.668L2.6708 0.728027ZM0.636501 3.09003L1.94 4.10202V15.921L0.636501 16.937V3.09003ZM2.6708 19.277L0.7278 17.334L1.9927 16.346L3.6546 18.012L2.6708 19.277ZM3.0889 19.39L4.1043 18.086H15.9202L16.9321 19.39H3.0889ZM17.3291 19.277L16.3454 18.012L18.0073 16.346L19.2721 17.334L17.3291 19.277ZM19.3845 16.916L18.0845 15.9V4.08102L19.3845 3.065V16.916Z" fill="#333335"/>
<path d="M19.7078 2.54102L17.4557 0.289001C17.4451 0.278001 17.4204 0.25 17.3643 0.25H2.6357C2.5865 0.25 2.5549 0.278001 2.5443 0.289001L0.2922 2.54102C0.2817 2.55202 0.25 2.57701 0.25 2.62201V17.344C0.25 17.401 0.2852 17.429 0.2852 17.432L2.5444 19.688C2.5514 19.695 2.6006 19.755 2.6849 19.755H17.3152C17.3749 19.755 17.4241 19.72 17.4768 19.671L19.7009 17.446C19.7044 17.443 19.75 17.397 19.75 17.33V2.629C19.7499 2.594 19.7359 2.57302 19.7078 2.54102ZM19.2721 2.668L17.8491 3.793L16.233 2.172L17.3291 0.723999L19.2721 2.668ZM13.6434 5.483L14.6308 4.21802L15.8043 5.392L14.5394 6.379L13.6434 5.483ZM14.3216 6.69901V13.303L13.2991 14.322H6.7008L5.6784 13.303V6.69901L6.7008 5.68002H13.2991L14.3216 6.69901ZM13.2851 5.31403H6.7148L5.6994 4.01401H14.3005L13.2851 5.31403ZM6.3565 5.483L5.4816 6.358L4.2167 5.371L5.3938 4.19302L6.3565 5.483ZM5.3165 6.71701V13.285L4.0129 14.301V5.70102L5.3165 6.71701ZM5.4851 13.647L6.3565 14.519L5.3692 15.787L4.1922 14.607L5.4851 13.647ZM6.7148 14.708H13.2851L14.3005 16.012H5.6994L6.7148 14.708ZM13.6434 14.519L14.5183 13.644L15.7832 14.631L14.6062 15.809L13.6434 14.519ZM14.708 13.285V6.71701L16.0081 5.70102V14.301L14.708 13.285ZM14.8592 3.905L15.98 2.48203L17.54 4.04202L16.117 5.16302L14.8592 3.905ZM14.5886 3.62701H5.4113L4.3959 2.32401H15.604L14.5886 3.62701ZM5.1408 3.905L3.9076 5.142L2.3265 3.905L3.9076 2.32401L5.1408 3.905ZM3.6264 5.40903V14.593L2.3265 15.608V4.39401L3.6264 5.40903ZM3.9076 14.86L5.1408 16.097L3.9076 17.678L2.3265 16.097L3.9076 14.86ZM5.4113 16.374H14.5886L15.604 17.678H4.3959L5.4113 16.374ZM14.8592 16.097L16.0923 14.86L17.6735 16.097L16.0923 17.678L14.8592 16.097ZM16.3735 14.593V5.40903L17.6735 4.39401V15.608L16.3735 14.593ZM16.911 0.637024L15.8956 1.93701H4.0797L3.0678 0.637024H16.911ZM2.6708 0.728027L3.6546 1.99301L1.9927 3.65601L0.7278 2.668L2.6708 0.728027ZM0.636501 3.09003L1.94 4.10202V15.921L0.636501 16.937V3.09003ZM2.6708 19.277L0.7278 17.334L1.9927 16.346L3.6546 18.012L2.6708 19.277ZM3.0889 19.39L4.1043 18.086H15.9202L16.9321 19.39H3.0889ZM17.3291 19.277L16.3454 18.012L18.0073 16.346L19.2721 17.334L17.3291 19.277ZM19.3845 16.916L18.0845 15.9V4.08102L19.3845 3.065V16.916Z" fill="black" fill-opacity="0.2"/>
<path d="M19.7078 2.54102L17.4557 0.289001C17.4451 0.278001 17.4204 0.25 17.3643 0.25H2.6357C2.5865 0.25 2.5549 0.278001 2.5443 0.289001L0.2922 2.54102C0.2817 2.55202 0.25 2.57701 0.25 2.62201V17.344C0.25 17.401 0.2852 17.429 0.2852 17.432L2.5444 19.688C2.5514 19.695 2.6006 19.755 2.6849 19.755H17.3152C17.3749 19.755 17.4241 19.72 17.4768 19.671L19.7009 17.446C19.7044 17.443 19.75 17.397 19.75 17.33V2.629C19.7499 2.594 19.7359 2.57302 19.7078 2.54102ZM19.2721 2.668L17.8491 3.793L16.233 2.172L17.3291 0.723999L19.2721 2.668ZM13.6434 5.483L14.6308 4.21802L15.8043 5.392L14.5394 6.379L13.6434 5.483ZM14.3216 6.69901V13.303L13.2991 14.322H6.7008L5.6784 13.303V6.69901L6.7008 5.68002H13.2991L14.3216 6.69901ZM13.2851 5.31403H6.7148L5.6994 4.01401H14.3005L13.2851 5.31403ZM6.3565 5.483L5.4816 6.358L4.2167 5.371L5.3938 4.19302L6.3565 5.483ZM5.3165 6.71701V13.285L4.0129 14.301V5.70102L5.3165 6.71701ZM5.4851 13.647L6.3565 14.519L5.3692 15.787L4.1922 14.607L5.4851 13.647ZM6.7148 14.708H13.2851L14.3005 16.012H5.6994L6.7148 14.708ZM13.6434 14.519L14.5183 13.644L15.7832 14.631L14.6062 15.809L13.6434 14.519ZM14.708 13.285V6.71701L16.0081 5.70102V14.301L14.708 13.285ZM14.8592 3.905L15.98 2.48203L17.54 4.04202L16.117 5.16302L14.8592 3.905ZM14.5886 3.62701H5.4113L4.3959 2.32401H15.604L14.5886 3.62701ZM5.1408 3.905L3.9076 5.142L2.3265 3.905L3.9076 2.32401L5.1408 3.905ZM3.6264 5.40903V14.593L2.3265 15.608V4.39401L3.6264 5.40903ZM3.9076 14.86L5.1408 16.097L3.9076 17.678L2.3265 16.097L3.9076 14.86ZM5.4113 16.374H14.5886L15.604 17.678H4.3959L5.4113 16.374ZM14.8592 16.097L16.0923 14.86L17.6735 16.097L16.0923 17.678L14.8592 16.097ZM16.3735 14.593V5.40903L17.6735 4.39401V15.608L16.3735 14.593ZM16.911 0.637024L15.8956 1.93701H4.0797L3.0678 0.637024H16.911ZM2.6708 0.728027L3.6546 1.99301L1.9927 3.65601L0.7278 2.668L2.6708 0.728027ZM0.636501 3.09003L1.94 4.10202V15.921L0.636501 16.937V3.09003ZM2.6708 19.277L0.7278 17.334L1.9927 16.346L3.6546 18.012L2.6708 19.277ZM3.0889 19.39L4.1043 18.086H15.9202L16.9321 19.39H3.0889ZM17.3291 19.277L16.3454 18.012L18.0073 16.346L19.2721 17.334L17.3291 19.277ZM19.3845 16.916L18.0845 15.9V4.08102L19.3845 3.065V16.916Z" fill="black" fill-opacity="0.2"/>
<path d="M19.7078 2.54102L17.4557 0.289001C17.4451 0.278001 17.4204 0.25 17.3643 0.25H2.6357C2.5865 0.25 2.5549 0.278001 2.5443 0.289001L0.2922 2.54102C0.2817 2.55202 0.25 2.57701 0.25 2.62201V17.344C0.25 17.401 0.2852 17.429 0.2852 17.432L2.5444 19.688C2.5514 19.695 2.6006 19.755 2.6849 19.755H17.3152C17.3749 19.755 17.4241 19.72 17.4768 19.671L19.7009 17.446C19.7044 17.443 19.75 17.397 19.75 17.33V2.629C19.7499 2.594 19.7359 2.57302 19.7078 2.54102ZM19.2721 2.668L17.8491 3.793L16.233 2.172L17.3291 0.723999L19.2721 2.668ZM13.6434 5.483L14.6308 4.21802L15.8043 5.392L14.5394 6.379L13.6434 5.483ZM14.3216 6.69901V13.303L13.2991 14.322H6.7008L5.6784 13.303V6.69901L6.7008 5.68002H13.2991L14.3216 6.69901ZM13.2851 5.31403H6.7148L5.6994 4.01401H14.3005L13.2851 5.31403ZM6.3565 5.483L5.4816 6.358L4.2167 5.371L5.3938 4.19302L6.3565 5.483ZM5.3165 6.71701V13.285L4.0129 14.301V5.70102L5.3165 6.71701ZM5.4851 13.647L6.3565 14.519L5.3692 15.787L4.1922 14.607L5.4851 13.647ZM6.7148 14.708H13.2851L14.3005 16.012H5.6994L6.7148 14.708ZM13.6434 14.519L14.5183 13.644L15.7832 14.631L14.6062 15.809L13.6434 14.519ZM14.708 13.285V6.71701L16.0081 5.70102V14.301L14.708 13.285ZM14.8592 3.905L15.98 2.48203L17.54 4.04202L16.117 5.16302L14.8592 3.905ZM14.5886 3.62701H5.4113L4.3959 2.32401H15.604L14.5886 3.62701ZM5.1408 3.905L3.9076 5.142L2.3265 3.905L3.9076 2.32401L5.1408 3.905ZM3.6264 5.40903V14.593L2.3265 15.608V4.39401L3.6264 5.40903ZM3.9076 14.86L5.1408 16.097L3.9076 17.678L2.3265 16.097L3.9076 14.86ZM5.4113 16.374H14.5886L15.604 17.678H4.3959L5.4113 16.374ZM14.8592 16.097L16.0923 14.86L17.6735 16.097L16.0923 17.678L14.8592 16.097ZM16.3735 14.593V5.40903L17.6735 4.39401V15.608L16.3735 14.593ZM16.911 0.637024L15.8956 1.93701H4.0797L3.0678 0.637024H16.911ZM2.6708 0.728027L3.6546 1.99301L1.9927 3.65601L0.7278 2.668L2.6708 0.728027ZM0.636501 3.09003L1.94 4.10202V15.921L0.636501 16.937V3.09003ZM2.6708 19.277L0.7278 17.334L1.9927 16.346L3.6546 18.012L2.6708 19.277ZM3.0889 19.39L4.1043 18.086H15.9202L16.9321 19.39H3.0889ZM17.3291 19.277L16.3454 18.012L18.0073 16.346L19.2721 17.334L17.3291 19.277ZM19.3845 16.916L18.0845 15.9V4.08102L19.3845 3.065V16.916Z" fill="black" fill-opacity="0.2"/>
<path d="M19.7078 2.54102L17.4557 0.289001C17.4451 0.278001 17.4204 0.25 17.3643 0.25H2.6357C2.5865 0.25 2.5549 0.278001 2.5443 0.289001L0.2922 2.54102C0.2817 2.55202 0.25 2.57701 0.25 2.62201V17.344C0.25 17.401 0.2852 17.429 0.2852 17.432L2.5444 19.688C2.5514 19.695 2.6006 19.755 2.6849 19.755H17.3152C17.3749 19.755 17.4241 19.72 17.4768 19.671L19.7009 17.446C19.7044 17.443 19.75 17.397 19.75 17.33V2.629C19.7499 2.594 19.7359 2.57302 19.7078 2.54102ZM19.2721 2.668L17.8491 3.793L16.233 2.172L17.3291 0.723999L19.2721 2.668ZM13.6434 5.483L14.6308 4.21802L15.8043 5.392L14.5394 6.379L13.6434 5.483ZM14.3216 6.69901V13.303L13.2991 14.322H6.7008L5.6784 13.303V6.69901L6.7008 5.68002H13.2991L14.3216 6.69901ZM13.2851 5.31403H6.7148L5.6994 4.01401H14.3005L13.2851 5.31403ZM6.3565 5.483L5.4816 6.358L4.2167 5.371L5.3938 4.19302L6.3565 5.483ZM5.3165 6.71701V13.285L4.0129 14.301V5.70102L5.3165 6.71701ZM5.4851 13.647L6.3565 14.519L5.3692 15.787L4.1922 14.607L5.4851 13.647ZM6.7148 14.708H13.2851L14.3005 16.012H5.6994L6.7148 14.708ZM13.6434 14.519L14.5183 13.644L15.7832 14.631L14.6062 15.809L13.6434 14.519ZM14.708 13.285V6.71701L16.0081 5.70102V14.301L14.708 13.285ZM14.8592 3.905L15.98 2.48203L17.54 4.04202L16.117 5.16302L14.8592 3.905ZM14.5886 3.62701H5.4113L4.3959 2.32401H15.604L14.5886 3.62701ZM5.1408 3.905L3.9076 5.142L2.3265 3.905L3.9076 2.32401L5.1408 3.905ZM3.6264 5.40903V14.593L2.3265 15.608V4.39401L3.6264 5.40903ZM3.9076 14.86L5.1408 16.097L3.9076 17.678L2.3265 16.097L3.9076 14.86ZM5.4113 16.374H14.5886L15.604 17.678H4.3959L5.4113 16.374ZM14.8592 16.097L16.0923 14.86L17.6735 16.097L16.0923 17.678L14.8592 16.097ZM16.3735 14.593V5.40903L17.6735 4.39401V15.608L16.3735 14.593ZM16.911 0.637024L15.8956 1.93701H4.0797L3.0678 0.637024H16.911ZM2.6708 0.728027L3.6546 1.99301L1.9927 3.65601L0.7278 2.668L2.6708 0.728027ZM0.636501 3.09003L1.94 4.10202V15.921L0.636501 16.937V3.09003ZM2.6708 19.277L0.7278 17.334L1.9927 16.346L3.6546 18.012L2.6708 19.277ZM3.0889 19.39L4.1043 18.086H15.9202L16.9321 19.39H3.0889ZM17.3291 19.277L16.3454 18.012L18.0073 16.346L19.2721 17.334L17.3291 19.277ZM19.3845 16.916L18.0845 15.9V4.08102L19.3845 3.065V16.916Z" fill="black" fill-opacity="0.2"/>
<path d="M19.7078 2.54102L17.4557 0.289001C17.4451 0.278001 17.4204 0.25 17.3643 0.25H2.6357C2.5865 0.25 2.5549 0.278001 2.5443 0.289001L0.2922 2.54102C0.2817 2.55202 0.25 2.57701 0.25 2.62201V17.344C0.25 17.401 0.2852 17.429 0.2852 17.432L2.5444 19.688C2.5514 19.695 2.6006 19.755 2.6849 19.755H17.3152C17.3749 19.755 17.4241 19.72 17.4768 19.671L19.7009 17.446C19.7044 17.443 19.75 17.397 19.75 17.33V2.629C19.7499 2.594 19.7359 2.57302 19.7078 2.54102ZM19.2721 2.668L17.8491 3.793L16.233 2.172L17.3291 0.723999L19.2721 2.668ZM13.6434 5.483L14.6308 4.21802L15.8043 5.392L14.5394 6.379L13.6434 5.483ZM14.3216 6.69901V13.303L13.2991 14.322H6.7008L5.6784 13.303V6.69901L6.7008 5.68002H13.2991L14.3216 6.69901ZM13.2851 5.31403H6.7148L5.6994 4.01401H14.3005L13.2851 5.31403ZM6.3565 5.483L5.4816 6.358L4.2167 5.371L5.3938 4.19302L6.3565 5.483ZM5.3165 6.71701V13.285L4.0129 14.301V5.70102L5.3165 6.71701ZM5.4851 13.647L6.3565 14.519L5.3692 15.787L4.1922 14.607L5.4851 13.647ZM6.7148 14.708H13.2851L14.3005 16.012H5.6994L6.7148 14.708ZM13.6434 14.519L14.5183 13.644L15.7832 14.631L14.6062 15.809L13.6434 14.519ZM14.708 13.285V6.71701L16.0081 5.70102V14.301L14.708 13.285ZM14.8592 3.905L15.98 2.48203L17.54 4.04202L16.117 5.16302L14.8592 3.905ZM14.5886 3.62701H5.4113L4.3959 2.32401H15.604L14.5886 3.62701ZM5.1408 3.905L3.9076 5.142L2.3265 3.905L3.9076 2.32401L5.1408 3.905ZM3.6264 5.40903V14.593L2.3265 15.608V4.39401L3.6264 5.40903ZM3.9076 14.86L5.1408 16.097L3.9076 17.678L2.3265 16.097L3.9076 14.86ZM5.4113 16.374H14.5886L15.604 17.678H4.3959L5.4113 16.374ZM14.8592 16.097L16.0923 14.86L17.6735 16.097L16.0923 17.678L14.8592 16.097ZM16.3735 14.593V5.40903L17.6735 4.39401V15.608L16.3735 14.593ZM16.911 0.637024L15.8956 1.93701H4.0797L3.0678 0.637024H16.911ZM2.6708 0.728027L3.6546 1.99301L1.9927 3.65601L0.7278 2.668L2.6708 0.728027ZM0.636501 3.09003L1.94 4.10202V15.921L0.636501 16.937V3.09003ZM2.6708 19.277L0.7278 17.334L1.9927 16.346L3.6546 18.012L2.6708 19.277ZM3.0889 19.39L4.1043 18.086H15.9202L16.9321 19.39H3.0889ZM17.3291 19.277L16.3454 18.012L18.0073 16.346L19.2721 17.334L17.3291 19.277ZM19.3845 16.916L18.0845 15.9V4.08102L19.3845 3.065V16.916Z" fill="black" fill-opacity="0.2"/>
<path d="M19.7078 2.54102L17.4557 0.289001C17.4451 0.278001 17.4204 0.25 17.3643 0.25H2.6357C2.5865 0.25 2.5549 0.278001 2.5443 0.289001L0.2922 2.54102C0.2817 2.55202 0.25 2.57701 0.25 2.62201V17.344C0.25 17.401 0.2852 17.429 0.2852 17.432L2.5444 19.688C2.5514 19.695 2.6006 19.755 2.6849 19.755H17.3152C17.3749 19.755 17.4241 19.72 17.4768 19.671L19.7009 17.446C19.7044 17.443 19.75 17.397 19.75 17.33V2.629C19.7499 2.594 19.7359 2.57302 19.7078 2.54102ZM19.2721 2.668L17.8491 3.793L16.233 2.172L17.3291 0.723999L19.2721 2.668ZM13.6434 5.483L14.6308 4.21802L15.8043 5.392L14.5394 6.379L13.6434 5.483ZM14.3216 6.69901V13.303L13.2991 14.322H6.7008L5.6784 13.303V6.69901L6.7008 5.68002H13.2991L14.3216 6.69901ZM13.2851 5.31403H6.7148L5.6994 4.01401H14.3005L13.2851 5.31403ZM6.3565 5.483L5.4816 6.358L4.2167 5.371L5.3938 4.19302L6.3565 5.483ZM5.3165 6.71701V13.285L4.0129 14.301V5.70102L5.3165 6.71701ZM5.4851 13.647L6.3565 14.519L5.3692 15.787L4.1922 14.607L5.4851 13.647ZM6.7148 14.708H13.2851L14.3005 16.012H5.6994L6.7148 14.708ZM13.6434 14.519L14.5183 13.644L15.7832 14.631L14.6062 15.809L13.6434 14.519ZM14.708 13.285V6.71701L16.0081 5.70102V14.301L14.708 13.285ZM14.8592 3.905L15.98 2.48203L17.54 4.04202L16.117 5.16302L14.8592 3.905ZM14.5886 3.62701H5.4113L4.3959 2.32401H15.604L14.5886 3.62701ZM5.1408 3.905L3.9076 5.142L2.3265 3.905L3.9076 2.32401L5.1408 3.905ZM3.6264 5.40903V14.593L2.3265 15.608V4.39401L3.6264 5.40903ZM3.9076 14.86L5.1408 16.097L3.9076 17.678L2.3265 16.097L3.9076 14.86ZM5.4113 16.374H14.5886L15.604 17.678H4.3959L5.4113 16.374ZM14.8592 16.097L16.0923 14.86L17.6735 16.097L16.0923 17.678L14.8592 16.097ZM16.3735 14.593V5.40903L17.6735 4.39401V15.608L16.3735 14.593ZM16.911 0.637024L15.8956 1.93701H4.0797L3.0678 0.637024H16.911ZM2.6708 0.728027L3.6546 1.99301L1.9927 3.65601L0.7278 2.668L2.6708 0.728027ZM0.636501 3.09003L1.94 4.10202V15.921L0.636501 16.937V3.09003ZM2.6708 19.277L0.7278 17.334L1.9927 16.346L3.6546 18.012L2.6708 19.277ZM3.0889 19.39L4.1043 18.086H15.9202L16.9321 19.39H3.0889ZM17.3291 19.277L16.3454 18.012L18.0073 16.346L19.2721 17.334L17.3291 19.277ZM19.3845 16.916L18.0845 15.9V4.08102L19.3845 3.065V16.916Z" fill="black" fill-opacity="0.2"/>
<path d="M19.7078 2.54102L17.4557 0.289001C17.4451 0.278001 17.4204 0.25 17.3643 0.25H2.6357C2.5865 0.25 2.5549 0.278001 2.5443 0.289001L0.2922 2.54102C0.2817 2.55202 0.25 2.57701 0.25 2.62201V17.344C0.25 17.401 0.2852 17.429 0.2852 17.432L2.5444 19.688C2.5514 19.695 2.6006 19.755 2.6849 19.755H17.3152C17.3749 19.755 17.4241 19.72 17.4768 19.671L19.7009 17.446C19.7044 17.443 19.75 17.397 19.75 17.33V2.629C19.7499 2.594 19.7359 2.57302 19.7078 2.54102ZM19.2721 2.668L17.8491 3.793L16.233 2.172L17.3291 0.723999L19.2721 2.668ZM13.6434 5.483L14.6308 4.21802L15.8043 5.392L14.5394 6.379L13.6434 5.483ZM14.3216 6.69901V13.303L13.2991 14.322H6.7008L5.6784 13.303V6.69901L6.7008 5.68002H13.2991L14.3216 6.69901ZM13.2851 5.31403H6.7148L5.6994 4.01401H14.3005L13.2851 5.31403ZM6.3565 5.483L5.4816 6.358L4.2167 5.371L5.3938 4.19302L6.3565 5.483ZM5.3165 6.71701V13.285L4.0129 14.301V5.70102L5.3165 6.71701ZM5.4851 13.647L6.3565 14.519L5.3692 15.787L4.1922 14.607L5.4851 13.647ZM6.7148 14.708H13.2851L14.3005 16.012H5.6994L6.7148 14.708ZM13.6434 14.519L14.5183 13.644L15.7832 14.631L14.6062 15.809L13.6434 14.519ZM14.708 13.285V6.71701L16.0081 5.70102V14.301L14.708 13.285ZM14.8592 3.905L15.98 2.48203L17.54 4.04202L16.117 5.16302L14.8592 3.905ZM14.5886 3.62701H5.4113L4.3959 2.32401H15.604L14.5886 3.62701ZM5.1408 3.905L3.9076 5.142L2.3265 3.905L3.9076 2.32401L5.1408 3.905ZM3.6264 5.40903V14.593L2.3265 15.608V4.39401L3.6264 5.40903ZM3.9076 14.86L5.1408 16.097L3.9076 17.678L2.3265 16.097L3.9076 14.86ZM5.4113 16.374H14.5886L15.604 17.678H4.3959L5.4113 16.374ZM14.8592 16.097L16.0923 14.86L17.6735 16.097L16.0923 17.678L14.8592 16.097ZM16.3735 14.593V5.40903L17.6735 4.39401V15.608L16.3735 14.593ZM16.911 0.637024L15.8956 1.93701H4.0797L3.0678 0.637024H16.911ZM2.6708 0.728027L3.6546 1.99301L1.9927 3.65601L0.7278 2.668L2.6708 0.728027ZM0.636501 3.09003L1.94 4.10202V15.921L0.636501 16.937V3.09003ZM2.6708 19.277L0.7278 17.334L1.9927 16.346L3.6546 18.012L2.6708 19.277ZM3.0889 19.39L4.1043 18.086H15.9202L16.9321 19.39H3.0889ZM17.3291 19.277L16.3454 18.012L18.0073 16.346L19.2721 17.334L17.3291 19.277ZM19.3845 16.916L18.0845 15.9V4.08102L19.3845 3.065V16.916Z" fill="black" fill-opacity="0.2"/>
<path d="M19.7078 2.54102L17.4557 0.289001C17.4451 0.278001 17.4204 0.25 17.3643 0.25H2.6357C2.5865 0.25 2.5549 0.278001 2.5443 0.289001L0.2922 2.54102C0.2817 2.55202 0.25 2.57701 0.25 2.62201V17.344C0.25 17.401 0.2852 17.429 0.2852 17.432L2.5444 19.688C2.5514 19.695 2.6006 19.755 2.6849 19.755H17.3152C17.3749 19.755 17.4241 19.72 17.4768 19.671L19.7009 17.446C19.7044 17.443 19.75 17.397 19.75 17.33V2.629C19.7499 2.594 19.7359 2.57302 19.7078 2.54102ZM19.2721 2.668L17.8491 3.793L16.233 2.172L17.3291 0.723999L19.2721 2.668ZM13.6434 5.483L14.6308 4.21802L15.8043 5.392L14.5394 6.379L13.6434 5.483ZM14.3216 6.69901V13.303L13.2991 14.322H6.7008L5.6784 13.303V6.69901L6.7008 5.68002H13.2991L14.3216 6.69901ZM13.2851 5.31403H6.7148L5.6994 4.01401H14.3005L13.2851 5.31403ZM6.3565 5.483L5.4816 6.358L4.2167 5.371L5.3938 4.19302L6.3565 5.483ZM5.3165 6.71701V13.285L4.0129 14.301V5.70102L5.3165 6.71701ZM5.4851 13.647L6.3565 14.519L5.3692 15.787L4.1922 14.607L5.4851 13.647ZM6.7148 14.708H13.2851L14.3005 16.012H5.6994L6.7148 14.708ZM13.6434 14.519L14.5183 13.644L15.7832 14.631L14.6062 15.809L13.6434 14.519ZM14.708 13.285V6.71701L16.0081 5.70102V14.301L14.708 13.285ZM14.8592 3.905L15.98 2.48203L17.54 4.04202L16.117 5.16302L14.8592 3.905ZM14.5886 3.62701H5.4113L4.3959 2.32401H15.604L14.5886 3.62701ZM5.1408 3.905L3.9076 5.142L2.3265 3.905L3.9076 2.32401L5.1408 3.905ZM3.6264 5.40903V14.593L2.3265 15.608V4.39401L3.6264 5.40903ZM3.9076 14.86L5.1408 16.097L3.9076 17.678L2.3265 16.097L3.9076 14.86ZM5.4113 16.374H14.5886L15.604 17.678H4.3959L5.4113 16.374ZM14.8592 16.097L16.0923 14.86L17.6735 16.097L16.0923 17.678L14.8592 16.097ZM16.3735 14.593V5.40903L17.6735 4.39401V15.608L16.3735 14.593ZM16.911 0.637024L15.8956 1.93701H4.0797L3.0678 0.637024H16.911ZM2.6708 0.728027L3.6546 1.99301L1.9927 3.65601L0.7278 2.668L2.6708 0.728027ZM0.636501 3.09003L1.94 4.10202V15.921L0.636501 16.937V3.09003ZM2.6708 19.277L0.7278 17.334L1.9927 16.346L3.6546 18.012L2.6708 19.277ZM3.0889 19.39L4.1043 18.086H15.9202L16.9321 19.39H3.0889ZM17.3291 19.277L16.3454 18.012L18.0073 16.346L19.2721 17.334L17.3291 19.277ZM19.3845 16.916L18.0845 15.9V4.08102L19.3845 3.065V16.916Z" fill="black" fill-opacity="0.2"/>
<path d="M19.7078 2.54102L17.4557 0.289001C17.4451 0.278001 17.4204 0.25 17.3643 0.25H2.6357C2.5865 0.25 2.5549 0.278001 2.5443 0.289001L0.2922 2.54102C0.2817 2.55202 0.25 2.57701 0.25 2.62201V17.344C0.25 17.401 0.2852 17.429 0.2852 17.432L2.5444 19.688C2.5514 19.695 2.6006 19.755 2.6849 19.755H17.3152C17.3749 19.755 17.4241 19.72 17.4768 19.671L19.7009 17.446C19.7044 17.443 19.75 17.397 19.75 17.33V2.629C19.7499 2.594 19.7359 2.57302 19.7078 2.54102ZM19.2721 2.668L17.8491 3.793L16.233 2.172L17.3291 0.723999L19.2721 2.668ZM13.6434 5.483L14.6308 4.21802L15.8043 5.392L14.5394 6.379L13.6434 5.483ZM14.3216 6.69901V13.303L13.2991 14.322H6.7008L5.6784 13.303V6.69901L6.7008 5.68002H13.2991L14.3216 6.69901ZM13.2851 5.31403H6.7148L5.6994 4.01401H14.3005L13.2851 5.31403ZM6.3565 5.483L5.4816 6.358L4.2167 5.371L5.3938 4.19302L6.3565 5.483ZM5.3165 6.71701V13.285L4.0129 14.301V5.70102L5.3165 6.71701ZM5.4851 13.647L6.3565 14.519L5.3692 15.787L4.1922 14.607L5.4851 13.647ZM6.7148 14.708H13.2851L14.3005 16.012H5.6994L6.7148 14.708ZM13.6434 14.519L14.5183 13.644L15.7832 14.631L14.6062 15.809L13.6434 14.519ZM14.708 13.285V6.71701L16.0081 5.70102V14.301L14.708 13.285ZM14.8592 3.905L15.98 2.48203L17.54 4.04202L16.117 5.16302L14.8592 3.905ZM14.5886 3.62701H5.4113L4.3959 2.32401H15.604L14.5886 3.62701ZM5.1408 3.905L3.9076 5.142L2.3265 3.905L3.9076 2.32401L5.1408 3.905ZM3.6264 5.40903V14.593L2.3265 15.608V4.39401L3.6264 5.40903ZM3.9076 14.86L5.1408 16.097L3.9076 17.678L2.3265 16.097L3.9076 14.86ZM5.4113 16.374H14.5886L15.604 17.678H4.3959L5.4113 16.374ZM14.8592 16.097L16.0923 14.86L17.6735 16.097L16.0923 17.678L14.8592 16.097ZM16.3735 14.593V5.40903L17.6735 4.39401V15.608L16.3735 14.593ZM16.911 0.637024L15.8956 1.93701H4.0797L3.0678 0.637024H16.911ZM2.6708 0.728027L3.6546 1.99301L1.9927 3.65601L0.7278 2.668L2.6708 0.728027ZM0.636501 3.09003L1.94 4.10202V15.921L0.636501 16.937V3.09003ZM2.6708 19.277L0.7278 17.334L1.9927 16.346L3.6546 18.012L2.6708 19.277ZM3.0889 19.39L4.1043 18.086H15.9202L16.9321 19.39H3.0889ZM17.3291 19.277L16.3454 18.012L18.0073 16.346L19.2721 17.334L17.3291 19.277ZM19.3845 16.916L18.0845 15.9V4.08102L19.3845 3.065V16.916Z" stroke="#333335" stroke-width="0.25"/>
<path d="M19.7078 2.54102L17.4557 0.289001C17.4451 0.278001 17.4204 0.25 17.3643 0.25H2.6357C2.5865 0.25 2.5549 0.278001 2.5443 0.289001L0.2922 2.54102C0.2817 2.55202 0.25 2.57701 0.25 2.62201V17.344C0.25 17.401 0.2852 17.429 0.2852 17.432L2.5444 19.688C2.5514 19.695 2.6006 19.755 2.6849 19.755H17.3152C17.3749 19.755 17.4241 19.72 17.4768 19.671L19.7009 17.446C19.7044 17.443 19.75 17.397 19.75 17.33V2.629C19.7499 2.594 19.7359 2.57302 19.7078 2.54102ZM19.2721 2.668L17.8491 3.793L16.233 2.172L17.3291 0.723999L19.2721 2.668ZM13.6434 5.483L14.6308 4.21802L15.8043 5.392L14.5394 6.379L13.6434 5.483ZM14.3216 6.69901V13.303L13.2991 14.322H6.7008L5.6784 13.303V6.69901L6.7008 5.68002H13.2991L14.3216 6.69901ZM13.2851 5.31403H6.7148L5.6994 4.01401H14.3005L13.2851 5.31403ZM6.3565 5.483L5.4816 6.358L4.2167 5.371L5.3938 4.19302L6.3565 5.483ZM5.3165 6.71701V13.285L4.0129 14.301V5.70102L5.3165 6.71701ZM5.4851 13.647L6.3565 14.519L5.3692 15.787L4.1922 14.607L5.4851 13.647ZM6.7148 14.708H13.2851L14.3005 16.012H5.6994L6.7148 14.708ZM13.6434 14.519L14.5183 13.644L15.7832 14.631L14.6062 15.809L13.6434 14.519ZM14.708 13.285V6.71701L16.0081 5.70102V14.301L14.708 13.285ZM14.8592 3.905L15.98 2.48203L17.54 4.04202L16.117 5.16302L14.8592 3.905ZM14.5886 3.62701H5.4113L4.3959 2.32401H15.604L14.5886 3.62701ZM5.1408 3.905L3.9076 5.142L2.3265 3.905L3.9076 2.32401L5.1408 3.905ZM3.6264 5.40903V14.593L2.3265 15.608V4.39401L3.6264 5.40903ZM3.9076 14.86L5.1408 16.097L3.9076 17.678L2.3265 16.097L3.9076 14.86ZM5.4113 16.374H14.5886L15.604 17.678H4.3959L5.4113 16.374ZM14.8592 16.097L16.0923 14.86L17.6735 16.097L16.0923 17.678L14.8592 16.097ZM16.3735 14.593V5.40903L17.6735 4.39401V15.608L16.3735 14.593ZM16.911 0.637024L15.8956 1.93701H4.0797L3.0678 0.637024H16.911ZM2.6708 0.728027L3.6546 1.99301L1.9927 3.65601L0.7278 2.668L2.6708 0.728027ZM0.636501 3.09003L1.94 4.10202V15.921L0.636501 16.937V3.09003ZM2.6708 19.277L0.7278 17.334L1.9927 16.346L3.6546 18.012L2.6708 19.277ZM3.0889 19.39L4.1043 18.086H15.9202L16.9321 19.39H3.0889ZM17.3291 19.277L16.3454 18.012L18.0073 16.346L19.2721 17.334L17.3291 19.277ZM19.3845 16.916L18.0845 15.9V4.08102L19.3845 3.065V16.916Z" stroke="black" stroke-opacity="0.2" stroke-width="0.25"/>
<path d="M19.7078 2.54102L17.4557 0.289001C17.4451 0.278001 17.4204 0.25 17.3643 0.25H2.6357C2.5865 0.25 2.5549 0.278001 2.5443 0.289001L0.2922 2.54102C0.2817 2.55202 0.25 2.57701 0.25 2.62201V17.344C0.25 17.401 0.2852 17.429 0.2852 17.432L2.5444 19.688C2.5514 19.695 2.6006 19.755 2.6849 19.755H17.3152C17.3749 19.755 17.4241 19.72 17.4768 19.671L19.7009 17.446C19.7044 17.443 19.75 17.397 19.75 17.33V2.629C19.7499 2.594 19.7359 2.57302 19.7078 2.54102ZM19.2721 2.668L17.8491 3.793L16.233 2.172L17.3291 0.723999L19.2721 2.668ZM13.6434 5.483L14.6308 4.21802L15.8043 5.392L14.5394 6.379L13.6434 5.483ZM14.3216 6.69901V13.303L13.2991 14.322H6.7008L5.6784 13.303V6.69901L6.7008 5.68002H13.2991L14.3216 6.69901ZM13.2851 5.31403H6.7148L5.6994 4.01401H14.3005L13.2851 5.31403ZM6.3565 5.483L5.4816 6.358L4.2167 5.371L5.3938 4.19302L6.3565 5.483ZM5.3165 6.71701V13.285L4.0129 14.301V5.70102L5.3165 6.71701ZM5.4851 13.647L6.3565 14.519L5.3692 15.787L4.1922 14.607L5.4851 13.647ZM6.7148 14.708H13.2851L14.3005 16.012H5.6994L6.7148 14.708ZM13.6434 14.519L14.5183 13.644L15.7832 14.631L14.6062 15.809L13.6434 14.519ZM14.708 13.285V6.71701L16.0081 5.70102V14.301L14.708 13.285ZM14.8592 3.905L15.98 2.48203L17.54 4.04202L16.117 5.16302L14.8592 3.905ZM14.5886 3.62701H5.4113L4.3959 2.32401H15.604L14.5886 3.62701ZM5.1408 3.905L3.9076 5.142L2.3265 3.905L3.9076 2.32401L5.1408 3.905ZM3.6264 5.40903V14.593L2.3265 15.608V4.39401L3.6264 5.40903ZM3.9076 14.86L5.1408 16.097L3.9076 17.678L2.3265 16.097L3.9076 14.86ZM5.4113 16.374H14.5886L15.604 17.678H4.3959L5.4113 16.374ZM14.8592 16.097L16.0923 14.86L17.6735 16.097L16.0923 17.678L14.8592 16.097ZM16.3735 14.593V5.40903L17.6735 4.39401V15.608L16.3735 14.593ZM16.911 0.637024L15.8956 1.93701H4.0797L3.0678 0.637024H16.911ZM2.6708 0.728027L3.6546 1.99301L1.9927 3.65601L0.7278 2.668L2.6708 0.728027ZM0.636501 3.09003L1.94 4.10202V15.921L0.636501 16.937V3.09003ZM2.6708 19.277L0.7278 17.334L1.9927 16.346L3.6546 18.012L2.6708 19.277ZM3.0889 19.39L4.1043 18.086H15.9202L16.9321 19.39H3.0889ZM17.3291 19.277L16.3454 18.012L18.0073 16.346L19.2721 17.334L17.3291 19.277ZM19.3845 16.916L18.0845 15.9V4.08102L19.3845 3.065V16.916Z" stroke="black" stroke-opacity="0.2" stroke-width="0.25"/>
<path d="M19.7078 2.54102L17.4557 0.289001C17.4451 0.278001 17.4204 0.25 17.3643 0.25H2.6357C2.5865 0.25 2.5549 0.278001 2.5443 0.289001L0.2922 2.54102C0.2817 2.55202 0.25 2.57701 0.25 2.62201V17.344C0.25 17.401 0.2852 17.429 0.2852 17.432L2.5444 19.688C2.5514 19.695 2.6006 19.755 2.6849 19.755H17.3152C17.3749 19.755 17.4241 19.72 17.4768 19.671L19.7009 17.446C19.7044 17.443 19.75 17.397 19.75 17.33V2.629C19.7499 2.594 19.7359 2.57302 19.7078 2.54102ZM19.2721 2.668L17.8491 3.793L16.233 2.172L17.3291 0.723999L19.2721 2.668ZM13.6434 5.483L14.6308 4.21802L15.8043 5.392L14.5394 6.379L13.6434 5.483ZM14.3216 6.69901V13.303L13.2991 14.322H6.7008L5.6784 13.303V6.69901L6.7008 5.68002H13.2991L14.3216 6.69901ZM13.2851 5.31403H6.7148L5.6994 4.01401H14.3005L13.2851 5.31403ZM6.3565 5.483L5.4816 6.358L4.2167 5.371L5.3938 4.19302L6.3565 5.483ZM5.3165 6.71701V13.285L4.0129 14.301V5.70102L5.3165 6.71701ZM5.4851 13.647L6.3565 14.519L5.3692 15.787L4.1922 14.607L5.4851 13.647ZM6.7148 14.708H13.2851L14.3005 16.012H5.6994L6.7148 14.708ZM13.6434 14.519L14.5183 13.644L15.7832 14.631L14.6062 15.809L13.6434 14.519ZM14.708 13.285V6.71701L16.0081 5.70102V14.301L14.708 13.285ZM14.8592 3.905L15.98 2.48203L17.54 4.04202L16.117 5.16302L14.8592 3.905ZM14.5886 3.62701H5.4113L4.3959 2.32401H15.604L14.5886 3.62701ZM5.1408 3.905L3.9076 5.142L2.3265 3.905L3.9076 2.32401L5.1408 3.905ZM3.6264 5.40903V14.593L2.3265 15.608V4.39401L3.6264 5.40903ZM3.9076 14.86L5.1408 16.097L3.9076 17.678L2.3265 16.097L3.9076 14.86ZM5.4113 16.374H14.5886L15.604 17.678H4.3959L5.4113 16.374ZM14.8592 16.097L16.0923 14.86L17.6735 16.097L16.0923 17.678L14.8592 16.097ZM16.3735 14.593V5.40903L17.6735 4.39401V15.608L16.3735 14.593ZM16.911 0.637024L15.8956 1.93701H4.0797L3.0678 0.637024H16.911ZM2.6708 0.728027L3.6546 1.99301L1.9927 3.65601L0.7278 2.668L2.6708 0.728027ZM0.636501 3.09003L1.94 4.10202V15.921L0.636501 16.937V3.09003ZM2.6708 19.277L0.7278 17.334L1.9927 16.346L3.6546 18.012L2.6708 19.277ZM3.0889 19.39L4.1043 18.086H15.9202L16.9321 19.39H3.0889ZM17.3291 19.277L16.3454 18.012L18.0073 16.346L19.2721 17.334L17.3291 19.277ZM19.3845 16.916L18.0845 15.9V4.08102L19.3845 3.065V16.916Z" stroke="black" stroke-opacity="0.2" stroke-width="0.25"/>
<path d="M19.7078 2.54102L17.4557 0.289001C17.4451 0.278001 17.4204 0.25 17.3643 0.25H2.6357C2.5865 0.25 2.5549 0.278001 2.5443 0.289001L0.2922 2.54102C0.2817 2.55202 0.25 2.57701 0.25 2.62201V17.344C0.25 17.401 0.2852 17.429 0.2852 17.432L2.5444 19.688C2.5514 19.695 2.6006 19.755 2.6849 19.755H17.3152C17.3749 19.755 17.4241 19.72 17.4768 19.671L19.7009 17.446C19.7044 17.443 19.75 17.397 19.75 17.33V2.629C19.7499 2.594 19.7359 2.57302 19.7078 2.54102ZM19.2721 2.668L17.8491 3.793L16.233 2.172L17.3291 0.723999L19.2721 2.668ZM13.6434 5.483L14.6308 4.21802L15.8043 5.392L14.5394 6.379L13.6434 5.483ZM14.3216 6.69901V13.303L13.2991 14.322H6.7008L5.6784 13.303V6.69901L6.7008 5.68002H13.2991L14.3216 6.69901ZM13.2851 5.31403H6.7148L5.6994 4.01401H14.3005L13.2851 5.31403ZM6.3565 5.483L5.4816 6.358L4.2167 5.371L5.3938 4.19302L6.3565 5.483ZM5.3165 6.71701V13.285L4.0129 14.301V5.70102L5.3165 6.71701ZM5.4851 13.647L6.3565 14.519L5.3692 15.787L4.1922 14.607L5.4851 13.647ZM6.7148 14.708H13.2851L14.3005 16.012H5.6994L6.7148 14.708ZM13.6434 14.519L14.5183 13.644L15.7832 14.631L14.6062 15.809L13.6434 14.519ZM14.708 13.285V6.71701L16.0081 5.70102V14.301L14.708 13.285ZM14.8592 3.905L15.98 2.48203L17.54 4.04202L16.117 5.16302L14.8592 3.905ZM14.5886 3.62701H5.4113L4.3959 2.32401H15.604L14.5886 3.62701ZM5.1408 3.905L3.9076 5.142L2.3265 3.905L3.9076 2.32401L5.1408 3.905ZM3.6264 5.40903V14.593L2.3265 15.608V4.39401L3.6264 5.40903ZM3.9076 14.86L5.1408 16.097L3.9076 17.678L2.3265 16.097L3.9076 14.86ZM5.4113 16.374H14.5886L15.604 17.678H4.3959L5.4113 16.374ZM14.8592 16.097L16.0923 14.86L17.6735 16.097L16.0923 17.678L14.8592 16.097ZM16.3735 14.593V5.40903L17.6735 4.39401V15.608L16.3735 14.593ZM16.911 0.637024L15.8956 1.93701H4.0797L3.0678 0.637024H16.911ZM2.6708 0.728027L3.6546 1.99301L1.9927 3.65601L0.7278 2.668L2.6708 0.728027ZM0.636501 3.09003L1.94 4.10202V15.921L0.636501 16.937V3.09003ZM2.6708 19.277L0.7278 17.334L1.9927 16.346L3.6546 18.012L2.6708 19.277ZM3.0889 19.39L4.1043 18.086H15.9202L16.9321 19.39H3.0889ZM17.3291 19.277L16.3454 18.012L18.0073 16.346L19.2721 17.334L17.3291 19.277ZM19.3845 16.916L18.0845 15.9V4.08102L19.3845 3.065V16.916Z" stroke="black" stroke-opacity="0.2" stroke-width="0.25"/>
<path d="M19.7078 2.54102L17.4557 0.289001C17.4451 0.278001 17.4204 0.25 17.3643 0.25H2.6357C2.5865 0.25 2.5549 0.278001 2.5443 0.289001L0.2922 2.54102C0.2817 2.55202 0.25 2.57701 0.25 2.62201V17.344C0.25 17.401 0.2852 17.429 0.2852 17.432L2.5444 19.688C2.5514 19.695 2.6006 19.755 2.6849 19.755H17.3152C17.3749 19.755 17.4241 19.72 17.4768 19.671L19.7009 17.446C19.7044 17.443 19.75 17.397 19.75 17.33V2.629C19.7499 2.594 19.7359 2.57302 19.7078 2.54102ZM19.2721 2.668L17.8491 3.793L16.233 2.172L17.3291 0.723999L19.2721 2.668ZM13.6434 5.483L14.6308 4.21802L15.8043 5.392L14.5394 6.379L13.6434 5.483ZM14.3216 6.69901V13.303L13.2991 14.322H6.7008L5.6784 13.303V6.69901L6.7008 5.68002H13.2991L14.3216 6.69901ZM13.2851 5.31403H6.7148L5.6994 4.01401H14.3005L13.2851 5.31403ZM6.3565 5.483L5.4816 6.358L4.2167 5.371L5.3938 4.19302L6.3565 5.483ZM5.3165 6.71701V13.285L4.0129 14.301V5.70102L5.3165 6.71701ZM5.4851 13.647L6.3565 14.519L5.3692 15.787L4.1922 14.607L5.4851 13.647ZM6.7148 14.708H13.2851L14.3005 16.012H5.6994L6.7148 14.708ZM13.6434 14.519L14.5183 13.644L15.7832 14.631L14.6062 15.809L13.6434 14.519ZM14.708 13.285V6.71701L16.0081 5.70102V14.301L14.708 13.285ZM14.8592 3.905L15.98 2.48203L17.54 4.04202L16.117 5.16302L14.8592 3.905ZM14.5886 3.62701H5.4113L4.3959 2.32401H15.604L14.5886 3.62701ZM5.1408 3.905L3.9076 5.142L2.3265 3.905L3.9076 2.32401L5.1408 3.905ZM3.6264 5.40903V14.593L2.3265 15.608V4.39401L3.6264 5.40903ZM3.9076 14.86L5.1408 16.097L3.9076 17.678L2.3265 16.097L3.9076 14.86ZM5.4113 16.374H14.5886L15.604 17.678H4.3959L5.4113 16.374ZM14.8592 16.097L16.0923 14.86L17.6735 16.097L16.0923 17.678L14.8592 16.097ZM16.3735 14.593V5.40903L17.6735 4.39401V15.608L16.3735 14.593ZM16.911 0.637024L15.8956 1.93701H4.0797L3.0678 0.637024H16.911ZM2.6708 0.728027L3.6546 1.99301L1.9927 3.65601L0.7278 2.668L2.6708 0.728027ZM0.636501 3.09003L1.94 4.10202V15.921L0.636501 16.937V3.09003ZM2.6708 19.277L0.7278 17.334L1.9927 16.346L3.6546 18.012L2.6708 19.277ZM3.0889 19.39L4.1043 18.086H15.9202L16.9321 19.39H3.0889ZM17.3291 19.277L16.3454 18.012L18.0073 16.346L19.2721 17.334L17.3291 19.277ZM19.3845 16.916L18.0845 15.9V4.08102L19.3845 3.065V16.916Z" stroke="black" stroke-opacity="0.2" stroke-width="0.25"/>
<path d="M19.7078 2.54102L17.4557 0.289001C17.4451 0.278001 17.4204 0.25 17.3643 0.25H2.6357C2.5865 0.25 2.5549 0.278001 2.5443 0.289001L0.2922 2.54102C0.2817 2.55202 0.25 2.57701 0.25 2.62201V17.344C0.25 17.401 0.2852 17.429 0.2852 17.432L2.5444 19.688C2.5514 19.695 2.6006 19.755 2.6849 19.755H17.3152C17.3749 19.755 17.4241 19.72 17.4768 19.671L19.7009 17.446C19.7044 17.443 19.75 17.397 19.75 17.33V2.629C19.7499 2.594 19.7359 2.57302 19.7078 2.54102ZM19.2721 2.668L17.8491 3.793L16.233 2.172L17.3291 0.723999L19.2721 2.668ZM13.6434 5.483L14.6308 4.21802L15.8043 5.392L14.5394 6.379L13.6434 5.483ZM14.3216 6.69901V13.303L13.2991 14.322H6.7008L5.6784 13.303V6.69901L6.7008 5.68002H13.2991L14.3216 6.69901ZM13.2851 5.31403H6.7148L5.6994 4.01401H14.3005L13.2851 5.31403ZM6.3565 5.483L5.4816 6.358L4.2167 5.371L5.3938 4.19302L6.3565 5.483ZM5.3165 6.71701V13.285L4.0129 14.301V5.70102L5.3165 6.71701ZM5.4851 13.647L6.3565 14.519L5.3692 15.787L4.1922 14.607L5.4851 13.647ZM6.7148 14.708H13.2851L14.3005 16.012H5.6994L6.7148 14.708ZM13.6434 14.519L14.5183 13.644L15.7832 14.631L14.6062 15.809L13.6434 14.519ZM14.708 13.285V6.71701L16.0081 5.70102V14.301L14.708 13.285ZM14.8592 3.905L15.98 2.48203L17.54 4.04202L16.117 5.16302L14.8592 3.905ZM14.5886 3.62701H5.4113L4.3959 2.32401H15.604L14.5886 3.62701ZM5.1408 3.905L3.9076 5.142L2.3265 3.905L3.9076 2.32401L5.1408 3.905ZM3.6264 5.40903V14.593L2.3265 15.608V4.39401L3.6264 5.40903ZM3.9076 14.86L5.1408 16.097L3.9076 17.678L2.3265 16.097L3.9076 14.86ZM5.4113 16.374H14.5886L15.604 17.678H4.3959L5.4113 16.374ZM14.8592 16.097L16.0923 14.86L17.6735 16.097L16.0923 17.678L14.8592 16.097ZM16.3735 14.593V5.40903L17.6735 4.39401V15.608L16.3735 14.593ZM16.911 0.637024L15.8956 1.93701H4.0797L3.0678 0.637024H16.911ZM2.6708 0.728027L3.6546 1.99301L1.9927 3.65601L0.7278 2.668L2.6708 0.728027ZM0.636501 3.09003L1.94 4.10202V15.921L0.636501 16.937V3.09003ZM2.6708 19.277L0.7278 17.334L1.9927 16.346L3.6546 18.012L2.6708 19.277ZM3.0889 19.39L4.1043 18.086H15.9202L16.9321 19.39H3.0889ZM17.3291 19.277L16.3454 18.012L18.0073 16.346L19.2721 17.334L17.3291 19.277ZM19.3845 16.916L18.0845 15.9V4.08102L19.3845 3.065V16.916Z" stroke="black" stroke-opacity="0.2" stroke-width="0.25"/>
<path d="M19.7078 2.54102L17.4557 0.289001C17.4451 0.278001 17.4204 0.25 17.3643 0.25H2.6357C2.5865 0.25 2.5549 0.278001 2.5443 0.289001L0.2922 2.54102C0.2817 2.55202 0.25 2.57701 0.25 2.62201V17.344C0.25 17.401 0.2852 17.429 0.2852 17.432L2.5444 19.688C2.5514 19.695 2.6006 19.755 2.6849 19.755H17.3152C17.3749 19.755 17.4241 19.72 17.4768 19.671L19.7009 17.446C19.7044 17.443 19.75 17.397 19.75 17.33V2.629C19.7499 2.594 19.7359 2.57302 19.7078 2.54102ZM19.2721 2.668L17.8491 3.793L16.233 2.172L17.3291 0.723999L19.2721 2.668ZM13.6434 5.483L14.6308 4.21802L15.8043 5.392L14.5394 6.379L13.6434 5.483ZM14.3216 6.69901V13.303L13.2991 14.322H6.7008L5.6784 13.303V6.69901L6.7008 5.68002H13.2991L14.3216 6.69901ZM13.2851 5.31403H6.7148L5.6994 4.01401H14.3005L13.2851 5.31403ZM6.3565 5.483L5.4816 6.358L4.2167 5.371L5.3938 4.19302L6.3565 5.483ZM5.3165 6.71701V13.285L4.0129 14.301V5.70102L5.3165 6.71701ZM5.4851 13.647L6.3565 14.519L5.3692 15.787L4.1922 14.607L5.4851 13.647ZM6.7148 14.708H13.2851L14.3005 16.012H5.6994L6.7148 14.708ZM13.6434 14.519L14.5183 13.644L15.7832 14.631L14.6062 15.809L13.6434 14.519ZM14.708 13.285V6.71701L16.0081 5.70102V14.301L14.708 13.285ZM14.8592 3.905L15.98 2.48203L17.54 4.04202L16.117 5.16302L14.8592 3.905ZM14.5886 3.62701H5.4113L4.3959 2.32401H15.604L14.5886 3.62701ZM5.1408 3.905L3.9076 5.142L2.3265 3.905L3.9076 2.32401L5.1408 3.905ZM3.6264 5.40903V14.593L2.3265 15.608V4.39401L3.6264 5.40903ZM3.9076 14.86L5.1408 16.097L3.9076 17.678L2.3265 16.097L3.9076 14.86ZM5.4113 16.374H14.5886L15.604 17.678H4.3959L5.4113 16.374ZM14.8592 16.097L16.0923 14.86L17.6735 16.097L16.0923 17.678L14.8592 16.097ZM16.3735 14.593V5.40903L17.6735 4.39401V15.608L16.3735 14.593ZM16.911 0.637024L15.8956 1.93701H4.0797L3.0678 0.637024H16.911ZM2.6708 0.728027L3.6546 1.99301L1.9927 3.65601L0.7278 2.668L2.6708 0.728027ZM0.636501 3.09003L1.94 4.10202V15.921L0.636501 16.937V3.09003ZM2.6708 19.277L0.7278 17.334L1.9927 16.346L3.6546 18.012L2.6708 19.277ZM3.0889 19.39L4.1043 18.086H15.9202L16.9321 19.39H3.0889ZM17.3291 19.277L16.3454 18.012L18.0073 16.346L19.2721 17.334L17.3291 19.277ZM19.3845 16.916L18.0845 15.9V4.08102L19.3845 3.065V16.916Z" stroke="black" stroke-opacity="0.2" stroke-width="0.25"/>
<path d="M19.7078 2.54102L17.4557 0.289001C17.4451 0.278001 17.4204 0.25 17.3643 0.25H2.6357C2.5865 0.25 2.5549 0.278001 2.5443 0.289001L0.2922 2.54102C0.2817 2.55202 0.25 2.57701 0.25 2.62201V17.344C0.25 17.401 0.2852 17.429 0.2852 17.432L2.5444 19.688C2.5514 19.695 2.6006 19.755 2.6849 19.755H17.3152C17.3749 19.755 17.4241 19.72 17.4768 19.671L19.7009 17.446C19.7044 17.443 19.75 17.397 19.75 17.33V2.629C19.7499 2.594 19.7359 2.57302 19.7078 2.54102ZM19.2721 2.668L17.8491 3.793L16.233 2.172L17.3291 0.723999L19.2721 2.668ZM13.6434 5.483L14.6308 4.21802L15.8043 5.392L14.5394 6.379L13.6434 5.483ZM14.3216 6.69901V13.303L13.2991 14.322H6.7008L5.6784 13.303V6.69901L6.7008 5.68002H13.2991L14.3216 6.69901ZM13.2851 5.31403H6.7148L5.6994 4.01401H14.3005L13.2851 5.31403ZM6.3565 5.483L5.4816 6.358L4.2167 5.371L5.3938 4.19302L6.3565 5.483ZM5.3165 6.71701V13.285L4.0129 14.301V5.70102L5.3165 6.71701ZM5.4851 13.647L6.3565 14.519L5.3692 15.787L4.1922 14.607L5.4851 13.647ZM6.7148 14.708H13.2851L14.3005 16.012H5.6994L6.7148 14.708ZM13.6434 14.519L14.5183 13.644L15.7832 14.631L14.6062 15.809L13.6434 14.519ZM14.708 13.285V6.71701L16.0081 5.70102V14.301L14.708 13.285ZM14.8592 3.905L15.98 2.48203L17.54 4.04202L16.117 5.16302L14.8592 3.905ZM14.5886 3.62701H5.4113L4.3959 2.32401H15.604L14.5886 3.62701ZM5.1408 3.905L3.9076 5.142L2.3265 3.905L3.9076 2.32401L5.1408 3.905ZM3.6264 5.40903V14.593L2.3265 15.608V4.39401L3.6264 5.40903ZM3.9076 14.86L5.1408 16.097L3.9076 17.678L2.3265 16.097L3.9076 14.86ZM5.4113 16.374H14.5886L15.604 17.678H4.3959L5.4113 16.374ZM14.8592 16.097L16.0923 14.86L17.6735 16.097L16.0923 17.678L14.8592 16.097ZM16.3735 14.593V5.40903L17.6735 4.39401V15.608L16.3735 14.593ZM16.911 0.637024L15.8956 1.93701H4.0797L3.0678 0.637024H16.911ZM2.6708 0.728027L3.6546 1.99301L1.9927 3.65601L0.7278 2.668L2.6708 0.728027ZM0.636501 3.09003L1.94 4.10202V15.921L0.636501 16.937V3.09003ZM2.6708 19.277L0.7278 17.334L1.9927 16.346L3.6546 18.012L2.6708 19.277ZM3.0889 19.39L4.1043 18.086H15.9202L16.9321 19.39H3.0889ZM17.3291 19.277L16.3454 18.012L18.0073 16.346L19.2721 17.334L17.3291 19.277ZM19.3845 16.916L18.0845 15.9V4.08102L19.3845 3.065V16.916Z" stroke="black" stroke-opacity="0.2" stroke-width="0.25"/>
</g>
</g>
</svg>
