<svg width="14" height="20" viewBox="0 0 14 20" fill="none" xmlns="http://www.w3.org/2000/svg">
<g id="Group 26020">
<g id="Vector">
<path d="M13.1876 0.200195H0.817513C0.737113 0.200195 0.599609 0.252206 0.599609 0.417206V19.5212C0.599609 19.6182 0.674512 19.7052 0.820412 19.7052H13.1396C13.3366 19.7052 13.4166 19.5582 13.4166 19.4382V0.420197C13.4166 0.332197 13.3486 0.200195 13.1876 0.200195ZM12.6636 0.643219L10.7196 2.57822H3.31611L1.34871 0.643219H12.6636ZM10.5616 3.01822V16.9072H3.45021V3.01822H10.5616ZM1.04121 0.926208L3.00861 2.88422V17.0402L1.04121 18.9992V0.926208ZM1.34871 19.2662L3.31611 17.3272H10.7196L12.6636 19.2662H1.34871ZM12.9746 19.0032L11.0076 17.0012V2.9082L12.9746 0.950195V19.0032Z" fill="#333335"/>
<path d="M13.1876 0.200195H0.817513C0.737113 0.200195 0.599609 0.252206 0.599609 0.417206V19.5212C0.599609 19.6182 0.674512 19.7052 0.820412 19.7052H13.1396C13.3366 19.7052 13.4166 19.5582 13.4166 19.4382V0.420197C13.4166 0.332197 13.3486 0.200195 13.1876 0.200195ZM12.6636 0.643219L10.7196 2.57822H3.31611L1.34871 0.643219H12.6636ZM10.5616 3.01822V16.9072H3.45021V3.01822H10.5616ZM1.04121 0.926208L3.00861 2.88422V17.0402L1.04121 18.9992V0.926208ZM1.34871 19.2662L3.31611 17.3272H10.7196L12.6636 19.2662H1.34871ZM12.9746 19.0032L11.0076 17.0012V2.9082L12.9746 0.950195V19.0032Z" fill="black" fill-opacity="0.2"/>
<path d="M13.1876 0.200195H0.817513C0.737113 0.200195 0.599609 0.252206 0.599609 0.417206V19.5212C0.599609 19.6182 0.674512 19.7052 0.820412 19.7052H13.1396C13.3366 19.7052 13.4166 19.5582 13.4166 19.4382V0.420197C13.4166 0.332197 13.3486 0.200195 13.1876 0.200195ZM12.6636 0.643219L10.7196 2.57822H3.31611L1.34871 0.643219H12.6636ZM10.5616 3.01822V16.9072H3.45021V3.01822H10.5616ZM1.04121 0.926208L3.00861 2.88422V17.0402L1.04121 18.9992V0.926208ZM1.34871 19.2662L3.31611 17.3272H10.7196L12.6636 19.2662H1.34871ZM12.9746 19.0032L11.0076 17.0012V2.9082L12.9746 0.950195V19.0032Z" fill="black" fill-opacity="0.2"/>
<path d="M13.1876 0.200195H0.817513C0.737113 0.200195 0.599609 0.252206 0.599609 0.417206V19.5212C0.599609 19.6182 0.674512 19.7052 0.820412 19.7052H13.1396C13.3366 19.7052 13.4166 19.5582 13.4166 19.4382V0.420197C13.4166 0.332197 13.3486 0.200195 13.1876 0.200195ZM12.6636 0.643219L10.7196 2.57822H3.31611L1.34871 0.643219H12.6636ZM10.5616 3.01822V16.9072H3.45021V3.01822H10.5616ZM1.04121 0.926208L3.00861 2.88422V17.0402L1.04121 18.9992V0.926208ZM1.34871 19.2662L3.31611 17.3272H10.7196L12.6636 19.2662H1.34871ZM12.9746 19.0032L11.0076 17.0012V2.9082L12.9746 0.950195V19.0032Z" fill="black" fill-opacity="0.2"/>
<path d="M13.1876 0.200195H0.817513C0.737113 0.200195 0.599609 0.252206 0.599609 0.417206V19.5212C0.599609 19.6182 0.674512 19.7052 0.820412 19.7052H13.1396C13.3366 19.7052 13.4166 19.5582 13.4166 19.4382V0.420197C13.4166 0.332197 13.3486 0.200195 13.1876 0.200195ZM12.6636 0.643219L10.7196 2.57822H3.31611L1.34871 0.643219H12.6636ZM10.5616 3.01822V16.9072H3.45021V3.01822H10.5616ZM1.04121 0.926208L3.00861 2.88422V17.0402L1.04121 18.9992V0.926208ZM1.34871 19.2662L3.31611 17.3272H10.7196L12.6636 19.2662H1.34871ZM12.9746 19.0032L11.0076 17.0012V2.9082L12.9746 0.950195V19.0032Z" fill="black" fill-opacity="0.2"/>
<path d="M13.1876 0.200195H0.817513C0.737113 0.200195 0.599609 0.252206 0.599609 0.417206V19.5212C0.599609 19.6182 0.674512 19.7052 0.820412 19.7052H13.1396C13.3366 19.7052 13.4166 19.5582 13.4166 19.4382V0.420197C13.4166 0.332197 13.3486 0.200195 13.1876 0.200195ZM12.6636 0.643219L10.7196 2.57822H3.31611L1.34871 0.643219H12.6636ZM10.5616 3.01822V16.9072H3.45021V3.01822H10.5616ZM1.04121 0.926208L3.00861 2.88422V17.0402L1.04121 18.9992V0.926208ZM1.34871 19.2662L3.31611 17.3272H10.7196L12.6636 19.2662H1.34871ZM12.9746 19.0032L11.0076 17.0012V2.9082L12.9746 0.950195V19.0032Z" fill="black" fill-opacity="0.2"/>
<path d="M13.1876 0.200195H0.817513C0.737113 0.200195 0.599609 0.252206 0.599609 0.417206V19.5212C0.599609 19.6182 0.674512 19.7052 0.820412 19.7052H13.1396C13.3366 19.7052 13.4166 19.5582 13.4166 19.4382V0.420197C13.4166 0.332197 13.3486 0.200195 13.1876 0.200195ZM12.6636 0.643219L10.7196 2.57822H3.31611L1.34871 0.643219H12.6636ZM10.5616 3.01822V16.9072H3.45021V3.01822H10.5616ZM1.04121 0.926208L3.00861 2.88422V17.0402L1.04121 18.9992V0.926208ZM1.34871 19.2662L3.31611 17.3272H10.7196L12.6636 19.2662H1.34871ZM12.9746 19.0032L11.0076 17.0012V2.9082L12.9746 0.950195V19.0032Z" fill="black" fill-opacity="0.2"/>
<path d="M13.1876 0.200195H0.817513C0.737113 0.200195 0.599609 0.252206 0.599609 0.417206V19.5212C0.599609 19.6182 0.674512 19.7052 0.820412 19.7052H13.1396C13.3366 19.7052 13.4166 19.5582 13.4166 19.4382V0.420197C13.4166 0.332197 13.3486 0.200195 13.1876 0.200195ZM12.6636 0.643219L10.7196 2.57822H3.31611L1.34871 0.643219H12.6636ZM10.5616 3.01822V16.9072H3.45021V3.01822H10.5616ZM1.04121 0.926208L3.00861 2.88422V17.0402L1.04121 18.9992V0.926208ZM1.34871 19.2662L3.31611 17.3272H10.7196L12.6636 19.2662H1.34871ZM12.9746 19.0032L11.0076 17.0012V2.9082L12.9746 0.950195V19.0032Z" fill="black" fill-opacity="0.2"/>
<path d="M13.1876 0.200195H0.817513C0.737113 0.200195 0.599609 0.252206 0.599609 0.417206V19.5212C0.599609 19.6182 0.674512 19.7052 0.820412 19.7052H13.1396C13.3366 19.7052 13.4166 19.5582 13.4166 19.4382V0.420197C13.4166 0.332197 13.3486 0.200195 13.1876 0.200195ZM12.6636 0.643219L10.7196 2.57822H3.31611L1.34871 0.643219H12.6636ZM10.5616 3.01822V16.9072H3.45021V3.01822H10.5616ZM1.04121 0.926208L3.00861 2.88422V17.0402L1.04121 18.9992V0.926208ZM1.34871 19.2662L3.31611 17.3272H10.7196L12.6636 19.2662H1.34871ZM12.9746 19.0032L11.0076 17.0012V2.9082L12.9746 0.950195V19.0032Z" fill="black" fill-opacity="0.2"/>
<path d="M13.1876 0.200195H0.817513C0.737113 0.200195 0.599609 0.252206 0.599609 0.417206V19.5212C0.599609 19.6182 0.674512 19.7052 0.820412 19.7052H13.1396C13.3366 19.7052 13.4166 19.5582 13.4166 19.4382V0.420197C13.4166 0.332197 13.3486 0.200195 13.1876 0.200195ZM12.6636 0.643219L10.7196 2.57822H3.31611L1.34871 0.643219H12.6636ZM10.5616 3.01822V16.9072H3.45021V3.01822H10.5616ZM1.04121 0.926208L3.00861 2.88422V17.0402L1.04121 18.9992V0.926208ZM1.34871 19.2662L3.31611 17.3272H10.7196L12.6636 19.2662H1.34871ZM12.9746 19.0032L11.0076 17.0012V2.9082L12.9746 0.950195V19.0032Z" stroke="#333335" stroke-width="0.2"/>
<path d="M13.1876 0.200195H0.817513C0.737113 0.200195 0.599609 0.252206 0.599609 0.417206V19.5212C0.599609 19.6182 0.674512 19.7052 0.820412 19.7052H13.1396C13.3366 19.7052 13.4166 19.5582 13.4166 19.4382V0.420197C13.4166 0.332197 13.3486 0.200195 13.1876 0.200195ZM12.6636 0.643219L10.7196 2.57822H3.31611L1.34871 0.643219H12.6636ZM10.5616 3.01822V16.9072H3.45021V3.01822H10.5616ZM1.04121 0.926208L3.00861 2.88422V17.0402L1.04121 18.9992V0.926208ZM1.34871 19.2662L3.31611 17.3272H10.7196L12.6636 19.2662H1.34871ZM12.9746 19.0032L11.0076 17.0012V2.9082L12.9746 0.950195V19.0032Z" stroke="black" stroke-opacity="0.2" stroke-width="0.2"/>
<path d="M13.1876 0.200195H0.817513C0.737113 0.200195 0.599609 0.252206 0.599609 0.417206V19.5212C0.599609 19.6182 0.674512 19.7052 0.820412 19.7052H13.1396C13.3366 19.7052 13.4166 19.5582 13.4166 19.4382V0.420197C13.4166 0.332197 13.3486 0.200195 13.1876 0.200195ZM12.6636 0.643219L10.7196 2.57822H3.31611L1.34871 0.643219H12.6636ZM10.5616 3.01822V16.9072H3.45021V3.01822H10.5616ZM1.04121 0.926208L3.00861 2.88422V17.0402L1.04121 18.9992V0.926208ZM1.34871 19.2662L3.31611 17.3272H10.7196L12.6636 19.2662H1.34871ZM12.9746 19.0032L11.0076 17.0012V2.9082L12.9746 0.950195V19.0032Z" stroke="black" stroke-opacity="0.2" stroke-width="0.2"/>
<path d="M13.1876 0.200195H0.817513C0.737113 0.200195 0.599609 0.252206 0.599609 0.417206V19.5212C0.599609 19.6182 0.674512 19.7052 0.820412 19.7052H13.1396C13.3366 19.7052 13.4166 19.5582 13.4166 19.4382V0.420197C13.4166 0.332197 13.3486 0.200195 13.1876 0.200195ZM12.6636 0.643219L10.7196 2.57822H3.31611L1.34871 0.643219H12.6636ZM10.5616 3.01822V16.9072H3.45021V3.01822H10.5616ZM1.04121 0.926208L3.00861 2.88422V17.0402L1.04121 18.9992V0.926208ZM1.34871 19.2662L3.31611 17.3272H10.7196L12.6636 19.2662H1.34871ZM12.9746 19.0032L11.0076 17.0012V2.9082L12.9746 0.950195V19.0032Z" stroke="black" stroke-opacity="0.2" stroke-width="0.2"/>
<path d="M13.1876 0.200195H0.817513C0.737113 0.200195 0.599609 0.252206 0.599609 0.417206V19.5212C0.599609 19.6182 0.674512 19.7052 0.820412 19.7052H13.1396C13.3366 19.7052 13.4166 19.5582 13.4166 19.4382V0.420197C13.4166 0.332197 13.3486 0.200195 13.1876 0.200195ZM12.6636 0.643219L10.7196 2.57822H3.31611L1.34871 0.643219H12.6636ZM10.5616 3.01822V16.9072H3.45021V3.01822H10.5616ZM1.04121 0.926208L3.00861 2.88422V17.0402L1.04121 18.9992V0.926208ZM1.34871 19.2662L3.31611 17.3272H10.7196L12.6636 19.2662H1.34871ZM12.9746 19.0032L11.0076 17.0012V2.9082L12.9746 0.950195V19.0032Z" stroke="black" stroke-opacity="0.2" stroke-width="0.2"/>
<path d="M13.1876 0.200195H0.817513C0.737113 0.200195 0.599609 0.252206 0.599609 0.417206V19.5212C0.599609 19.6182 0.674512 19.7052 0.820412 19.7052H13.1396C13.3366 19.7052 13.4166 19.5582 13.4166 19.4382V0.420197C13.4166 0.332197 13.3486 0.200195 13.1876 0.200195ZM12.6636 0.643219L10.7196 2.57822H3.31611L1.34871 0.643219H12.6636ZM10.5616 3.01822V16.9072H3.45021V3.01822H10.5616ZM1.04121 0.926208L3.00861 2.88422V17.0402L1.04121 18.9992V0.926208ZM1.34871 19.2662L3.31611 17.3272H10.7196L12.6636 19.2662H1.34871ZM12.9746 19.0032L11.0076 17.0012V2.9082L12.9746 0.950195V19.0032Z" stroke="black" stroke-opacity="0.2" stroke-width="0.2"/>
<path d="M13.1876 0.200195H0.817513C0.737113 0.200195 0.599609 0.252206 0.599609 0.417206V19.5212C0.599609 19.6182 0.674512 19.7052 0.820412 19.7052H13.1396C13.3366 19.7052 13.4166 19.5582 13.4166 19.4382V0.420197C13.4166 0.332197 13.3486 0.200195 13.1876 0.200195ZM12.6636 0.643219L10.7196 2.57822H3.31611L1.34871 0.643219H12.6636ZM10.5616 3.01822V16.9072H3.45021V3.01822H10.5616ZM1.04121 0.926208L3.00861 2.88422V17.0402L1.04121 18.9992V0.926208ZM1.34871 19.2662L3.31611 17.3272H10.7196L12.6636 19.2662H1.34871ZM12.9746 19.0032L11.0076 17.0012V2.9082L12.9746 0.950195V19.0032Z" stroke="black" stroke-opacity="0.2" stroke-width="0.2"/>
<path d="M13.1876 0.200195H0.817513C0.737113 0.200195 0.599609 0.252206 0.599609 0.417206V19.5212C0.599609 19.6182 0.674512 19.7052 0.820412 19.7052H13.1396C13.3366 19.7052 13.4166 19.5582 13.4166 19.4382V0.420197C13.4166 0.332197 13.3486 0.200195 13.1876 0.200195ZM12.6636 0.643219L10.7196 2.57822H3.31611L1.34871 0.643219H12.6636ZM10.5616 3.01822V16.9072H3.45021V3.01822H10.5616ZM1.04121 0.926208L3.00861 2.88422V17.0402L1.04121 18.9992V0.926208ZM1.34871 19.2662L3.31611 17.3272H10.7196L12.6636 19.2662H1.34871ZM12.9746 19.0032L11.0076 17.0012V2.9082L12.9746 0.950195V19.0032Z" stroke="black" stroke-opacity="0.2" stroke-width="0.2"/>
<path d="M13.1876 0.200195H0.817513C0.737113 0.200195 0.599609 0.252206 0.599609 0.417206V19.5212C0.599609 19.6182 0.674512 19.7052 0.820412 19.7052H13.1396C13.3366 19.7052 13.4166 19.5582 13.4166 19.4382V0.420197C13.4166 0.332197 13.3486 0.200195 13.1876 0.200195ZM12.6636 0.643219L10.7196 2.57822H3.31611L1.34871 0.643219H12.6636ZM10.5616 3.01822V16.9072H3.45021V3.01822H10.5616ZM1.04121 0.926208L3.00861 2.88422V17.0402L1.04121 18.9992V0.926208ZM1.34871 19.2662L3.31611 17.3272H10.7196L12.6636 19.2662H1.34871ZM12.9746 19.0032L11.0076 17.0012V2.9082L12.9746 0.950195V19.0032Z" stroke="black" stroke-opacity="0.2" stroke-width="0.2"/>
</g>
</g>
</svg>
