<svg width="50" height="34" viewBox="0 0 50 34" fill="none" xmlns="http://www.w3.org/2000/svg">
<g id="Clip path group">
<mask id="mask0_7306_16647" style="mask-type:luminance" maskUnits="userSpaceOnUse" x="0" y="0" width="50" height="34">
<g id="clip11_631_680">
<path id="Vector" d="M50 0H0V34H50V0Z" fill="white"/>
</g>
</mask>
<g mask="url(#mask0_7306_16647)">
<g id="Group">
<g id="Vector_2">
<path d="M49.575 16.2461C49.365 15.3241 48.518 14.611 47.618 14.611H47.573H27.378C26.906 14.034 26.239 13.614 25.481 13.456C26.329 13.006 26.929 12.631 27.289 12.391C27.289 12.391 27.296 12.3911 27.304 12.3841C27.341 12.3541 27.371 12.331 27.401 12.316C27.416 12.301 27.438 12.286 27.461 12.264C27.566 12.159 27.678 12.0011 27.611 11.8061L27.588 11.7541C27.499 11.5511 27.274 11.4541 27.049 11.5211C21.747 13.2161 15.335 14.251 8.009 14.589H2.09201C1.83701 14.589 1.582 14.641 1.327 14.739C1.057 14.844 0.818021 15.001 0.615021 15.204C0.225021 15.601 0 16.1411 0 16.6891C0 16.8391 0.023009 16.989 0.053009 17.139C0.255009 18.069 1.10301 18.766 2.00201 18.774H2.047H22.249C22.722 19.366 23.397 19.779 24.147 19.929C23.292 20.386 22.692 20.761 22.332 21.001C22.332 21.001 22.324 21.0011 22.317 21.0091C22.287 21.0391 22.257 21.054 22.227 21.076C22.219 21.084 22.212 21.0841 22.204 21.0911C22.084 21.1961 21.942 21.3691 22.017 21.5861L22.039 21.631C22.107 21.796 22.264 21.894 22.437 21.894C22.482 21.894 22.527 21.8861 22.572 21.8711C27.881 20.1761 34.292 19.141 41.611 18.796H47.528C47.783 18.796 48.045 18.751 48.3 18.654C48.57 18.541 48.81 18.3841 49.013 18.1811C49.403 17.7841 49.62 17.251 49.62 16.696C49.62 16.546 49.605 16.3961 49.575 16.2461ZM26.786 17.4091L27.349 17.019C27.326 17.206 27.274 17.3941 27.206 17.5741L26.786 17.4091ZM27.138 17.7541C27.094 17.8511 27.041 17.956 26.981 18.054C26.936 18.121 26.876 18.166 26.831 18.234L26.719 17.589L27.138 17.7541ZM26.606 17.304L26.171 16.696L26.606 16.096L27.363 16.614C27.363 16.644 27.371 16.666 27.371 16.696C27.371 16.726 27.363 16.756 27.363 16.786L26.606 17.304ZM22.279 17.019L22.842 17.4091L22.429 17.596C22.354 17.409 22.302 17.221 22.279 17.019ZM22.264 16.786C22.257 16.756 22.257 16.726 22.257 16.696C22.257 16.666 22.264 16.644 22.264 16.614L23.014 16.096L23.457 16.696L23.014 17.304L22.264 16.786ZM22.842 15.9911L22.287 16.374C22.309 16.186 22.354 15.999 22.422 15.826L22.842 15.9911ZM22.482 15.6461C22.564 15.4661 22.669 15.3011 22.789 15.1511L22.909 15.8111L22.482 15.6461ZM24.814 15.346L24.206 14.904L24.731 14.1461C24.761 14.1461 24.784 14.139 24.814 14.139C24.844 14.139 24.866 14.1461 24.896 14.1461L25.421 14.8961L24.814 15.346ZM25.481 15.0911L25.571 15.6761L25.001 15.4361L25.481 15.0911ZM24.626 15.4361L24.057 15.669L24.154 15.084L24.626 15.4361ZM24.094 14.731L23.907 14.3111C24.087 14.2441 24.281 14.199 24.476 14.169L24.094 14.731ZM23.914 14.799L23.262 14.679C23.404 14.566 23.562 14.461 23.734 14.386L23.914 14.799ZM23.966 15.001L23.854 15.744L23.112 15.856L22.947 14.956C22.984 14.919 23.029 14.8741 23.067 14.8361L23.966 15.001ZM23.787 15.946L23.547 16.5091L23.202 16.036L23.787 15.946ZM23.547 16.891L23.787 17.454L23.202 17.364L23.547 16.891ZM23.674 16.696L24.004 15.894L24.814 15.5561L25.616 15.894L25.954 16.696L25.616 17.506L24.814 17.8361L24.004 17.506L23.674 16.696ZM26.074 16.5091L25.841 15.946L26.419 16.036L26.074 16.5091ZM26.081 16.891L26.426 17.364L25.849 17.446L26.081 16.891ZM25.571 17.731L25.474 18.309L25.001 17.964L25.571 17.731ZM24.626 17.956L24.147 18.309L24.057 17.7241L24.626 17.956ZM24.814 18.054L25.421 18.4961L24.904 19.239C24.874 19.246 24.844 19.2541 24.814 19.2541C24.784 19.2541 24.754 19.2461 24.724 19.2461L24.206 18.5041L24.814 18.054ZM25.534 18.669L25.714 19.0741C25.534 19.1411 25.354 19.186 25.159 19.209L25.534 18.669ZM25.706 18.601L26.351 18.714C26.201 18.826 26.051 18.924 25.886 18.999L25.706 18.601ZM25.654 18.399L25.774 17.656L26.516 17.544L26.674 18.429C26.636 18.466 26.599 18.5191 26.561 18.5641L25.654 18.399ZM26.786 15.9911L27.199 15.804C27.266 15.984 27.311 16.1711 27.334 16.3661L26.786 15.9911ZM26.838 15.1511C26.951 15.2941 27.048 15.451 27.124 15.624L26.719 15.804L26.838 15.1511ZM26.681 14.956L26.516 15.856L25.774 15.736L25.654 15.001L26.561 14.8361C26.599 14.8741 26.636 14.919 26.681 14.956ZM25.864 14.3711C26.044 14.4541 26.209 14.559 26.366 14.679L25.699 14.799L25.864 14.3711ZM25.684 14.296L25.526 14.7241L25.136 14.169C25.331 14.191 25.511 14.236 25.684 14.296ZM2.00201 18.024C1.44701 18.009 0.915018 17.566 0.787018 16.981C0.765018 16.884 0.75 16.7861 0.75 16.6891C0.75 16.3361 0.900003 15.991 1.147 15.736C1.275 15.601 1.42502 15.5041 1.59702 15.4361C1.76202 15.3761 1.92701 15.339 2.09201 15.339H8.03101C14.345 15.046 19.992 14.244 24.836 12.946C23.869 13.449 22.609 14.026 21.034 14.611C20.494 14.814 19.947 15.0091 19.4 15.1891C18.785 15.3911 18.17 15.579 17.547 15.751C16.865 15.946 16.183 16.126 15.493 16.291C14.743 16.471 13.985 16.636 13.228 16.786C12.426 16.944 11.593 17.094 10.746 17.221C9.876 17.356 8.96902 17.484 8.05402 17.589C7.09402 17.694 6.119 17.784 5.129 17.859C4.282 17.919 3.16501 17.994 2.03201 18.024H2.00201ZM10.453 18.024C10.589 18.009 10.731 17.986 10.866 17.964C11.721 17.829 12.561 17.6791 13.371 17.5211C14.143 17.3711 14.908 17.206 15.673 17.019C16.37 16.854 17.06 16.6741 17.75 16.4791C18.38 16.2991 19.01 16.1041 19.632 15.9011C20.187 15.7141 20.742 15.519 21.297 15.316C21.514 15.234 21.732 15.1511 21.934 15.0691C21.664 15.5491 21.507 16.111 21.507 16.696C21.507 17.161 21.604 17.611 21.784 18.024H10.453ZM22.789 18.249C22.744 18.181 22.692 18.114 22.647 18.046C22.594 17.956 22.542 17.8661 22.504 17.7761L22.909 17.596L22.789 18.249ZM22.947 18.4361L23.112 17.544L23.854 17.6641L23.966 18.399L23.074 18.5641C23.029 18.5191 22.992 18.4741 22.947 18.4361ZM23.764 19.0211C23.584 18.9391 23.419 18.841 23.262 18.721L23.922 18.601L23.764 19.0211ZM23.944 19.096L24.102 18.6761L24.491 19.231C24.304 19.209 24.117 19.156 23.944 19.096ZM27.836 15.361H39.234C39.077 15.376 38.919 15.406 38.762 15.429C37.907 15.556 37.06 15.7061 36.25 15.8711C35.485 16.0211 34.72 16.1861 33.955 16.3661C33.258 16.5391 32.56 16.7191 31.87 16.9141C31.241 17.0941 30.618 17.2811 29.996 17.4911C29.433 17.6711 28.878 17.8661 28.331 18.0691C28.113 18.1511 27.896 18.234 27.694 18.316C27.978 17.821 28.121 17.266 28.121 16.696C28.121 16.224 28.016 15.766 27.836 15.361ZM48.48 17.656C48.345 17.784 48.195 17.881 48.023 17.956C47.858 18.016 47.693 18.046 47.528 18.046H41.596C35.275 18.346 29.636 19.149 24.784 20.446C25.751 19.944 27.019 19.359 28.586 18.774C29.133 18.571 29.681 18.384 30.228 18.204C30.836 18.001 31.458 17.8141 32.073 17.6341C32.755 17.4461 33.445 17.266 34.128 17.101C34.885 16.914 35.635 16.756 36.4 16.606C37.202 16.449 38.035 16.2991 38.874 16.1641C39.767 16.0291 40.674 15.909 41.574 15.804C42.526 15.699 43.509 15.6011 44.491 15.5341C45.346 15.4661 46.471 15.391 47.596 15.361H47.618C48.165 15.361 48.713 15.826 48.84 16.411C48.863 16.501 48.87 16.599 48.87 16.696C48.87 17.049 48.728 17.401 48.48 17.656Z" fill="#333335"/>
<path d="M49.575 16.2461C49.365 15.3241 48.518 14.611 47.618 14.611H47.573H27.378C26.906 14.034 26.239 13.614 25.481 13.456C26.329 13.006 26.929 12.631 27.289 12.391C27.289 12.391 27.296 12.3911 27.304 12.3841C27.341 12.3541 27.371 12.331 27.401 12.316C27.416 12.301 27.438 12.286 27.461 12.264C27.566 12.159 27.678 12.0011 27.611 11.8061L27.588 11.7541C27.499 11.5511 27.274 11.4541 27.049 11.5211C21.747 13.2161 15.335 14.251 8.009 14.589H2.09201C1.83701 14.589 1.582 14.641 1.327 14.739C1.057 14.844 0.818021 15.001 0.615021 15.204C0.225021 15.601 0 16.1411 0 16.6891C0 16.8391 0.023009 16.989 0.053009 17.139C0.255009 18.069 1.10301 18.766 2.00201 18.774H2.047H22.249C22.722 19.366 23.397 19.779 24.147 19.929C23.292 20.386 22.692 20.761 22.332 21.001C22.332 21.001 22.324 21.0011 22.317 21.0091C22.287 21.0391 22.257 21.054 22.227 21.076C22.219 21.084 22.212 21.0841 22.204 21.0911C22.084 21.1961 21.942 21.3691 22.017 21.5861L22.039 21.631C22.107 21.796 22.264 21.894 22.437 21.894C22.482 21.894 22.527 21.8861 22.572 21.8711C27.881 20.1761 34.292 19.141 41.611 18.796H47.528C47.783 18.796 48.045 18.751 48.3 18.654C48.57 18.541 48.81 18.3841 49.013 18.1811C49.403 17.7841 49.62 17.251 49.62 16.696C49.62 16.546 49.605 16.3961 49.575 16.2461ZM26.786 17.4091L27.349 17.019C27.326 17.206 27.274 17.3941 27.206 17.5741L26.786 17.4091ZM27.138 17.7541C27.094 17.8511 27.041 17.956 26.981 18.054C26.936 18.121 26.876 18.166 26.831 18.234L26.719 17.589L27.138 17.7541ZM26.606 17.304L26.171 16.696L26.606 16.096L27.363 16.614C27.363 16.644 27.371 16.666 27.371 16.696C27.371 16.726 27.363 16.756 27.363 16.786L26.606 17.304ZM22.279 17.019L22.842 17.4091L22.429 17.596C22.354 17.409 22.302 17.221 22.279 17.019ZM22.264 16.786C22.257 16.756 22.257 16.726 22.257 16.696C22.257 16.666 22.264 16.644 22.264 16.614L23.014 16.096L23.457 16.696L23.014 17.304L22.264 16.786ZM22.842 15.9911L22.287 16.374C22.309 16.186 22.354 15.999 22.422 15.826L22.842 15.9911ZM22.482 15.6461C22.564 15.4661 22.669 15.3011 22.789 15.1511L22.909 15.8111L22.482 15.6461ZM24.814 15.346L24.206 14.904L24.731 14.1461C24.761 14.1461 24.784 14.139 24.814 14.139C24.844 14.139 24.866 14.1461 24.896 14.1461L25.421 14.8961L24.814 15.346ZM25.481 15.0911L25.571 15.6761L25.001 15.4361L25.481 15.0911ZM24.626 15.4361L24.057 15.669L24.154 15.084L24.626 15.4361ZM24.094 14.731L23.907 14.3111C24.087 14.2441 24.281 14.199 24.476 14.169L24.094 14.731ZM23.914 14.799L23.262 14.679C23.404 14.566 23.562 14.461 23.734 14.386L23.914 14.799ZM23.966 15.001L23.854 15.744L23.112 15.856L22.947 14.956C22.984 14.919 23.029 14.8741 23.067 14.8361L23.966 15.001ZM23.787 15.946L23.547 16.5091L23.202 16.036L23.787 15.946ZM23.547 16.891L23.787 17.454L23.202 17.364L23.547 16.891ZM23.674 16.696L24.004 15.894L24.814 15.5561L25.616 15.894L25.954 16.696L25.616 17.506L24.814 17.8361L24.004 17.506L23.674 16.696ZM26.074 16.5091L25.841 15.946L26.419 16.036L26.074 16.5091ZM26.081 16.891L26.426 17.364L25.849 17.446L26.081 16.891ZM25.571 17.731L25.474 18.309L25.001 17.964L25.571 17.731ZM24.626 17.956L24.147 18.309L24.057 17.7241L24.626 17.956ZM24.814 18.054L25.421 18.4961L24.904 19.239C24.874 19.246 24.844 19.2541 24.814 19.2541C24.784 19.2541 24.754 19.2461 24.724 19.2461L24.206 18.5041L24.814 18.054ZM25.534 18.669L25.714 19.0741C25.534 19.1411 25.354 19.186 25.159 19.209L25.534 18.669ZM25.706 18.601L26.351 18.714C26.201 18.826 26.051 18.924 25.886 18.999L25.706 18.601ZM25.654 18.399L25.774 17.656L26.516 17.544L26.674 18.429C26.636 18.466 26.599 18.5191 26.561 18.5641L25.654 18.399ZM26.786 15.9911L27.199 15.804C27.266 15.984 27.311 16.1711 27.334 16.3661L26.786 15.9911ZM26.838 15.1511C26.951 15.2941 27.048 15.451 27.124 15.624L26.719 15.804L26.838 15.1511ZM26.681 14.956L26.516 15.856L25.774 15.736L25.654 15.001L26.561 14.8361C26.599 14.8741 26.636 14.919 26.681 14.956ZM25.864 14.3711C26.044 14.4541 26.209 14.559 26.366 14.679L25.699 14.799L25.864 14.3711ZM25.684 14.296L25.526 14.7241L25.136 14.169C25.331 14.191 25.511 14.236 25.684 14.296ZM2.00201 18.024C1.44701 18.009 0.915018 17.566 0.787018 16.981C0.765018 16.884 0.75 16.7861 0.75 16.6891C0.75 16.3361 0.900003 15.991 1.147 15.736C1.275 15.601 1.42502 15.5041 1.59702 15.4361C1.76202 15.3761 1.92701 15.339 2.09201 15.339H8.03101C14.345 15.046 19.992 14.244 24.836 12.946C23.869 13.449 22.609 14.026 21.034 14.611C20.494 14.814 19.947 15.0091 19.4 15.1891C18.785 15.3911 18.17 15.579 17.547 15.751C16.865 15.946 16.183 16.126 15.493 16.291C14.743 16.471 13.985 16.636 13.228 16.786C12.426 16.944 11.593 17.094 10.746 17.221C9.876 17.356 8.96902 17.484 8.05402 17.589C7.09402 17.694 6.119 17.784 5.129 17.859C4.282 17.919 3.16501 17.994 2.03201 18.024H2.00201ZM10.453 18.024C10.589 18.009 10.731 17.986 10.866 17.964C11.721 17.829 12.561 17.6791 13.371 17.5211C14.143 17.3711 14.908 17.206 15.673 17.019C16.37 16.854 17.06 16.6741 17.75 16.4791C18.38 16.2991 19.01 16.1041 19.632 15.9011C20.187 15.7141 20.742 15.519 21.297 15.316C21.514 15.234 21.732 15.1511 21.934 15.0691C21.664 15.5491 21.507 16.111 21.507 16.696C21.507 17.161 21.604 17.611 21.784 18.024H10.453ZM22.789 18.249C22.744 18.181 22.692 18.114 22.647 18.046C22.594 17.956 22.542 17.8661 22.504 17.7761L22.909 17.596L22.789 18.249ZM22.947 18.4361L23.112 17.544L23.854 17.6641L23.966 18.399L23.074 18.5641C23.029 18.5191 22.992 18.4741 22.947 18.4361ZM23.764 19.0211C23.584 18.9391 23.419 18.841 23.262 18.721L23.922 18.601L23.764 19.0211ZM23.944 19.096L24.102 18.6761L24.491 19.231C24.304 19.209 24.117 19.156 23.944 19.096ZM27.836 15.361H39.234C39.077 15.376 38.919 15.406 38.762 15.429C37.907 15.556 37.06 15.7061 36.25 15.8711C35.485 16.0211 34.72 16.1861 33.955 16.3661C33.258 16.5391 32.56 16.7191 31.87 16.9141C31.241 17.0941 30.618 17.2811 29.996 17.4911C29.433 17.6711 28.878 17.8661 28.331 18.0691C28.113 18.1511 27.896 18.234 27.694 18.316C27.978 17.821 28.121 17.266 28.121 16.696C28.121 16.224 28.016 15.766 27.836 15.361ZM48.48 17.656C48.345 17.784 48.195 17.881 48.023 17.956C47.858 18.016 47.693 18.046 47.528 18.046H41.596C35.275 18.346 29.636 19.149 24.784 20.446C25.751 19.944 27.019 19.359 28.586 18.774C29.133 18.571 29.681 18.384 30.228 18.204C30.836 18.001 31.458 17.8141 32.073 17.6341C32.755 17.4461 33.445 17.266 34.128 17.101C34.885 16.914 35.635 16.756 36.4 16.606C37.202 16.449 38.035 16.2991 38.874 16.1641C39.767 16.0291 40.674 15.909 41.574 15.804C42.526 15.699 43.509 15.6011 44.491 15.5341C45.346 15.4661 46.471 15.391 47.596 15.361H47.618C48.165 15.361 48.713 15.826 48.84 16.411C48.863 16.501 48.87 16.599 48.87 16.696C48.87 17.049 48.728 17.401 48.48 17.656Z" fill="black" fill-opacity="0.2"/>
<path d="M49.575 16.2461C49.365 15.3241 48.518 14.611 47.618 14.611H47.573H27.378C26.906 14.034 26.239 13.614 25.481 13.456C26.329 13.006 26.929 12.631 27.289 12.391C27.289 12.391 27.296 12.3911 27.304 12.3841C27.341 12.3541 27.371 12.331 27.401 12.316C27.416 12.301 27.438 12.286 27.461 12.264C27.566 12.159 27.678 12.0011 27.611 11.8061L27.588 11.7541C27.499 11.5511 27.274 11.4541 27.049 11.5211C21.747 13.2161 15.335 14.251 8.009 14.589H2.09201C1.83701 14.589 1.582 14.641 1.327 14.739C1.057 14.844 0.818021 15.001 0.615021 15.204C0.225021 15.601 0 16.1411 0 16.6891C0 16.8391 0.023009 16.989 0.053009 17.139C0.255009 18.069 1.10301 18.766 2.00201 18.774H2.047H22.249C22.722 19.366 23.397 19.779 24.147 19.929C23.292 20.386 22.692 20.761 22.332 21.001C22.332 21.001 22.324 21.0011 22.317 21.0091C22.287 21.0391 22.257 21.054 22.227 21.076C22.219 21.084 22.212 21.0841 22.204 21.0911C22.084 21.1961 21.942 21.3691 22.017 21.5861L22.039 21.631C22.107 21.796 22.264 21.894 22.437 21.894C22.482 21.894 22.527 21.8861 22.572 21.8711C27.881 20.1761 34.292 19.141 41.611 18.796H47.528C47.783 18.796 48.045 18.751 48.3 18.654C48.57 18.541 48.81 18.3841 49.013 18.1811C49.403 17.7841 49.62 17.251 49.62 16.696C49.62 16.546 49.605 16.3961 49.575 16.2461ZM26.786 17.4091L27.349 17.019C27.326 17.206 27.274 17.3941 27.206 17.5741L26.786 17.4091ZM27.138 17.7541C27.094 17.8511 27.041 17.956 26.981 18.054C26.936 18.121 26.876 18.166 26.831 18.234L26.719 17.589L27.138 17.7541ZM26.606 17.304L26.171 16.696L26.606 16.096L27.363 16.614C27.363 16.644 27.371 16.666 27.371 16.696C27.371 16.726 27.363 16.756 27.363 16.786L26.606 17.304ZM22.279 17.019L22.842 17.4091L22.429 17.596C22.354 17.409 22.302 17.221 22.279 17.019ZM22.264 16.786C22.257 16.756 22.257 16.726 22.257 16.696C22.257 16.666 22.264 16.644 22.264 16.614L23.014 16.096L23.457 16.696L23.014 17.304L22.264 16.786ZM22.842 15.9911L22.287 16.374C22.309 16.186 22.354 15.999 22.422 15.826L22.842 15.9911ZM22.482 15.6461C22.564 15.4661 22.669 15.3011 22.789 15.1511L22.909 15.8111L22.482 15.6461ZM24.814 15.346L24.206 14.904L24.731 14.1461C24.761 14.1461 24.784 14.139 24.814 14.139C24.844 14.139 24.866 14.1461 24.896 14.1461L25.421 14.8961L24.814 15.346ZM25.481 15.0911L25.571 15.6761L25.001 15.4361L25.481 15.0911ZM24.626 15.4361L24.057 15.669L24.154 15.084L24.626 15.4361ZM24.094 14.731L23.907 14.3111C24.087 14.2441 24.281 14.199 24.476 14.169L24.094 14.731ZM23.914 14.799L23.262 14.679C23.404 14.566 23.562 14.461 23.734 14.386L23.914 14.799ZM23.966 15.001L23.854 15.744L23.112 15.856L22.947 14.956C22.984 14.919 23.029 14.8741 23.067 14.8361L23.966 15.001ZM23.787 15.946L23.547 16.5091L23.202 16.036L23.787 15.946ZM23.547 16.891L23.787 17.454L23.202 17.364L23.547 16.891ZM23.674 16.696L24.004 15.894L24.814 15.5561L25.616 15.894L25.954 16.696L25.616 17.506L24.814 17.8361L24.004 17.506L23.674 16.696ZM26.074 16.5091L25.841 15.946L26.419 16.036L26.074 16.5091ZM26.081 16.891L26.426 17.364L25.849 17.446L26.081 16.891ZM25.571 17.731L25.474 18.309L25.001 17.964L25.571 17.731ZM24.626 17.956L24.147 18.309L24.057 17.7241L24.626 17.956ZM24.814 18.054L25.421 18.4961L24.904 19.239C24.874 19.246 24.844 19.2541 24.814 19.2541C24.784 19.2541 24.754 19.2461 24.724 19.2461L24.206 18.5041L24.814 18.054ZM25.534 18.669L25.714 19.0741C25.534 19.1411 25.354 19.186 25.159 19.209L25.534 18.669ZM25.706 18.601L26.351 18.714C26.201 18.826 26.051 18.924 25.886 18.999L25.706 18.601ZM25.654 18.399L25.774 17.656L26.516 17.544L26.674 18.429C26.636 18.466 26.599 18.5191 26.561 18.5641L25.654 18.399ZM26.786 15.9911L27.199 15.804C27.266 15.984 27.311 16.1711 27.334 16.3661L26.786 15.9911ZM26.838 15.1511C26.951 15.2941 27.048 15.451 27.124 15.624L26.719 15.804L26.838 15.1511ZM26.681 14.956L26.516 15.856L25.774 15.736L25.654 15.001L26.561 14.8361C26.599 14.8741 26.636 14.919 26.681 14.956ZM25.864 14.3711C26.044 14.4541 26.209 14.559 26.366 14.679L25.699 14.799L25.864 14.3711ZM25.684 14.296L25.526 14.7241L25.136 14.169C25.331 14.191 25.511 14.236 25.684 14.296ZM2.00201 18.024C1.44701 18.009 0.915018 17.566 0.787018 16.981C0.765018 16.884 0.75 16.7861 0.75 16.6891C0.75 16.3361 0.900003 15.991 1.147 15.736C1.275 15.601 1.42502 15.5041 1.59702 15.4361C1.76202 15.3761 1.92701 15.339 2.09201 15.339H8.03101C14.345 15.046 19.992 14.244 24.836 12.946C23.869 13.449 22.609 14.026 21.034 14.611C20.494 14.814 19.947 15.0091 19.4 15.1891C18.785 15.3911 18.17 15.579 17.547 15.751C16.865 15.946 16.183 16.126 15.493 16.291C14.743 16.471 13.985 16.636 13.228 16.786C12.426 16.944 11.593 17.094 10.746 17.221C9.876 17.356 8.96902 17.484 8.05402 17.589C7.09402 17.694 6.119 17.784 5.129 17.859C4.282 17.919 3.16501 17.994 2.03201 18.024H2.00201ZM10.453 18.024C10.589 18.009 10.731 17.986 10.866 17.964C11.721 17.829 12.561 17.6791 13.371 17.5211C14.143 17.3711 14.908 17.206 15.673 17.019C16.37 16.854 17.06 16.6741 17.75 16.4791C18.38 16.2991 19.01 16.1041 19.632 15.9011C20.187 15.7141 20.742 15.519 21.297 15.316C21.514 15.234 21.732 15.1511 21.934 15.0691C21.664 15.5491 21.507 16.111 21.507 16.696C21.507 17.161 21.604 17.611 21.784 18.024H10.453ZM22.789 18.249C22.744 18.181 22.692 18.114 22.647 18.046C22.594 17.956 22.542 17.8661 22.504 17.7761L22.909 17.596L22.789 18.249ZM22.947 18.4361L23.112 17.544L23.854 17.6641L23.966 18.399L23.074 18.5641C23.029 18.5191 22.992 18.4741 22.947 18.4361ZM23.764 19.0211C23.584 18.9391 23.419 18.841 23.262 18.721L23.922 18.601L23.764 19.0211ZM23.944 19.096L24.102 18.6761L24.491 19.231C24.304 19.209 24.117 19.156 23.944 19.096ZM27.836 15.361H39.234C39.077 15.376 38.919 15.406 38.762 15.429C37.907 15.556 37.06 15.7061 36.25 15.8711C35.485 16.0211 34.72 16.1861 33.955 16.3661C33.258 16.5391 32.56 16.7191 31.87 16.9141C31.241 17.0941 30.618 17.2811 29.996 17.4911C29.433 17.6711 28.878 17.8661 28.331 18.0691C28.113 18.1511 27.896 18.234 27.694 18.316C27.978 17.821 28.121 17.266 28.121 16.696C28.121 16.224 28.016 15.766 27.836 15.361ZM48.48 17.656C48.345 17.784 48.195 17.881 48.023 17.956C47.858 18.016 47.693 18.046 47.528 18.046H41.596C35.275 18.346 29.636 19.149 24.784 20.446C25.751 19.944 27.019 19.359 28.586 18.774C29.133 18.571 29.681 18.384 30.228 18.204C30.836 18.001 31.458 17.8141 32.073 17.6341C32.755 17.4461 33.445 17.266 34.128 17.101C34.885 16.914 35.635 16.756 36.4 16.606C37.202 16.449 38.035 16.2991 38.874 16.1641C39.767 16.0291 40.674 15.909 41.574 15.804C42.526 15.699 43.509 15.6011 44.491 15.5341C45.346 15.4661 46.471 15.391 47.596 15.361H47.618C48.165 15.361 48.713 15.826 48.84 16.411C48.863 16.501 48.87 16.599 48.87 16.696C48.87 17.049 48.728 17.401 48.48 17.656Z" fill="black" fill-opacity="0.2"/>
<path d="M49.575 16.2461C49.365 15.3241 48.518 14.611 47.618 14.611H47.573H27.378C26.906 14.034 26.239 13.614 25.481 13.456C26.329 13.006 26.929 12.631 27.289 12.391C27.289 12.391 27.296 12.3911 27.304 12.3841C27.341 12.3541 27.371 12.331 27.401 12.316C27.416 12.301 27.438 12.286 27.461 12.264C27.566 12.159 27.678 12.0011 27.611 11.8061L27.588 11.7541C27.499 11.5511 27.274 11.4541 27.049 11.5211C21.747 13.2161 15.335 14.251 8.009 14.589H2.09201C1.83701 14.589 1.582 14.641 1.327 14.739C1.057 14.844 0.818021 15.001 0.615021 15.204C0.225021 15.601 0 16.1411 0 16.6891C0 16.8391 0.023009 16.989 0.053009 17.139C0.255009 18.069 1.10301 18.766 2.00201 18.774H2.047H22.249C22.722 19.366 23.397 19.779 24.147 19.929C23.292 20.386 22.692 20.761 22.332 21.001C22.332 21.001 22.324 21.0011 22.317 21.0091C22.287 21.0391 22.257 21.054 22.227 21.076C22.219 21.084 22.212 21.0841 22.204 21.0911C22.084 21.1961 21.942 21.3691 22.017 21.5861L22.039 21.631C22.107 21.796 22.264 21.894 22.437 21.894C22.482 21.894 22.527 21.8861 22.572 21.8711C27.881 20.1761 34.292 19.141 41.611 18.796H47.528C47.783 18.796 48.045 18.751 48.3 18.654C48.57 18.541 48.81 18.3841 49.013 18.1811C49.403 17.7841 49.62 17.251 49.62 16.696C49.62 16.546 49.605 16.3961 49.575 16.2461ZM26.786 17.4091L27.349 17.019C27.326 17.206 27.274 17.3941 27.206 17.5741L26.786 17.4091ZM27.138 17.7541C27.094 17.8511 27.041 17.956 26.981 18.054C26.936 18.121 26.876 18.166 26.831 18.234L26.719 17.589L27.138 17.7541ZM26.606 17.304L26.171 16.696L26.606 16.096L27.363 16.614C27.363 16.644 27.371 16.666 27.371 16.696C27.371 16.726 27.363 16.756 27.363 16.786L26.606 17.304ZM22.279 17.019L22.842 17.4091L22.429 17.596C22.354 17.409 22.302 17.221 22.279 17.019ZM22.264 16.786C22.257 16.756 22.257 16.726 22.257 16.696C22.257 16.666 22.264 16.644 22.264 16.614L23.014 16.096L23.457 16.696L23.014 17.304L22.264 16.786ZM22.842 15.9911L22.287 16.374C22.309 16.186 22.354 15.999 22.422 15.826L22.842 15.9911ZM22.482 15.6461C22.564 15.4661 22.669 15.3011 22.789 15.1511L22.909 15.8111L22.482 15.6461ZM24.814 15.346L24.206 14.904L24.731 14.1461C24.761 14.1461 24.784 14.139 24.814 14.139C24.844 14.139 24.866 14.1461 24.896 14.1461L25.421 14.8961L24.814 15.346ZM25.481 15.0911L25.571 15.6761L25.001 15.4361L25.481 15.0911ZM24.626 15.4361L24.057 15.669L24.154 15.084L24.626 15.4361ZM24.094 14.731L23.907 14.3111C24.087 14.2441 24.281 14.199 24.476 14.169L24.094 14.731ZM23.914 14.799L23.262 14.679C23.404 14.566 23.562 14.461 23.734 14.386L23.914 14.799ZM23.966 15.001L23.854 15.744L23.112 15.856L22.947 14.956C22.984 14.919 23.029 14.8741 23.067 14.8361L23.966 15.001ZM23.787 15.946L23.547 16.5091L23.202 16.036L23.787 15.946ZM23.547 16.891L23.787 17.454L23.202 17.364L23.547 16.891ZM23.674 16.696L24.004 15.894L24.814 15.5561L25.616 15.894L25.954 16.696L25.616 17.506L24.814 17.8361L24.004 17.506L23.674 16.696ZM26.074 16.5091L25.841 15.946L26.419 16.036L26.074 16.5091ZM26.081 16.891L26.426 17.364L25.849 17.446L26.081 16.891ZM25.571 17.731L25.474 18.309L25.001 17.964L25.571 17.731ZM24.626 17.956L24.147 18.309L24.057 17.7241L24.626 17.956ZM24.814 18.054L25.421 18.4961L24.904 19.239C24.874 19.246 24.844 19.2541 24.814 19.2541C24.784 19.2541 24.754 19.2461 24.724 19.2461L24.206 18.5041L24.814 18.054ZM25.534 18.669L25.714 19.0741C25.534 19.1411 25.354 19.186 25.159 19.209L25.534 18.669ZM25.706 18.601L26.351 18.714C26.201 18.826 26.051 18.924 25.886 18.999L25.706 18.601ZM25.654 18.399L25.774 17.656L26.516 17.544L26.674 18.429C26.636 18.466 26.599 18.5191 26.561 18.5641L25.654 18.399ZM26.786 15.9911L27.199 15.804C27.266 15.984 27.311 16.1711 27.334 16.3661L26.786 15.9911ZM26.838 15.1511C26.951 15.2941 27.048 15.451 27.124 15.624L26.719 15.804L26.838 15.1511ZM26.681 14.956L26.516 15.856L25.774 15.736L25.654 15.001L26.561 14.8361C26.599 14.8741 26.636 14.919 26.681 14.956ZM25.864 14.3711C26.044 14.4541 26.209 14.559 26.366 14.679L25.699 14.799L25.864 14.3711ZM25.684 14.296L25.526 14.7241L25.136 14.169C25.331 14.191 25.511 14.236 25.684 14.296ZM2.00201 18.024C1.44701 18.009 0.915018 17.566 0.787018 16.981C0.765018 16.884 0.75 16.7861 0.75 16.6891C0.75 16.3361 0.900003 15.991 1.147 15.736C1.275 15.601 1.42502 15.5041 1.59702 15.4361C1.76202 15.3761 1.92701 15.339 2.09201 15.339H8.03101C14.345 15.046 19.992 14.244 24.836 12.946C23.869 13.449 22.609 14.026 21.034 14.611C20.494 14.814 19.947 15.0091 19.4 15.1891C18.785 15.3911 18.17 15.579 17.547 15.751C16.865 15.946 16.183 16.126 15.493 16.291C14.743 16.471 13.985 16.636 13.228 16.786C12.426 16.944 11.593 17.094 10.746 17.221C9.876 17.356 8.96902 17.484 8.05402 17.589C7.09402 17.694 6.119 17.784 5.129 17.859C4.282 17.919 3.16501 17.994 2.03201 18.024H2.00201ZM10.453 18.024C10.589 18.009 10.731 17.986 10.866 17.964C11.721 17.829 12.561 17.6791 13.371 17.5211C14.143 17.3711 14.908 17.206 15.673 17.019C16.37 16.854 17.06 16.6741 17.75 16.4791C18.38 16.2991 19.01 16.1041 19.632 15.9011C20.187 15.7141 20.742 15.519 21.297 15.316C21.514 15.234 21.732 15.1511 21.934 15.0691C21.664 15.5491 21.507 16.111 21.507 16.696C21.507 17.161 21.604 17.611 21.784 18.024H10.453ZM22.789 18.249C22.744 18.181 22.692 18.114 22.647 18.046C22.594 17.956 22.542 17.8661 22.504 17.7761L22.909 17.596L22.789 18.249ZM22.947 18.4361L23.112 17.544L23.854 17.6641L23.966 18.399L23.074 18.5641C23.029 18.5191 22.992 18.4741 22.947 18.4361ZM23.764 19.0211C23.584 18.9391 23.419 18.841 23.262 18.721L23.922 18.601L23.764 19.0211ZM23.944 19.096L24.102 18.6761L24.491 19.231C24.304 19.209 24.117 19.156 23.944 19.096ZM27.836 15.361H39.234C39.077 15.376 38.919 15.406 38.762 15.429C37.907 15.556 37.06 15.7061 36.25 15.8711C35.485 16.0211 34.72 16.1861 33.955 16.3661C33.258 16.5391 32.56 16.7191 31.87 16.9141C31.241 17.0941 30.618 17.2811 29.996 17.4911C29.433 17.6711 28.878 17.8661 28.331 18.0691C28.113 18.1511 27.896 18.234 27.694 18.316C27.978 17.821 28.121 17.266 28.121 16.696C28.121 16.224 28.016 15.766 27.836 15.361ZM48.48 17.656C48.345 17.784 48.195 17.881 48.023 17.956C47.858 18.016 47.693 18.046 47.528 18.046H41.596C35.275 18.346 29.636 19.149 24.784 20.446C25.751 19.944 27.019 19.359 28.586 18.774C29.133 18.571 29.681 18.384 30.228 18.204C30.836 18.001 31.458 17.8141 32.073 17.6341C32.755 17.4461 33.445 17.266 34.128 17.101C34.885 16.914 35.635 16.756 36.4 16.606C37.202 16.449 38.035 16.2991 38.874 16.1641C39.767 16.0291 40.674 15.909 41.574 15.804C42.526 15.699 43.509 15.6011 44.491 15.5341C45.346 15.4661 46.471 15.391 47.596 15.361H47.618C48.165 15.361 48.713 15.826 48.84 16.411C48.863 16.501 48.87 16.599 48.87 16.696C48.87 17.049 48.728 17.401 48.48 17.656Z" fill="black" fill-opacity="0.2"/>
<path d="M49.575 16.2461C49.365 15.3241 48.518 14.611 47.618 14.611H47.573H27.378C26.906 14.034 26.239 13.614 25.481 13.456C26.329 13.006 26.929 12.631 27.289 12.391C27.289 12.391 27.296 12.3911 27.304 12.3841C27.341 12.3541 27.371 12.331 27.401 12.316C27.416 12.301 27.438 12.286 27.461 12.264C27.566 12.159 27.678 12.0011 27.611 11.8061L27.588 11.7541C27.499 11.5511 27.274 11.4541 27.049 11.5211C21.747 13.2161 15.335 14.251 8.009 14.589H2.09201C1.83701 14.589 1.582 14.641 1.327 14.739C1.057 14.844 0.818021 15.001 0.615021 15.204C0.225021 15.601 0 16.1411 0 16.6891C0 16.8391 0.023009 16.989 0.053009 17.139C0.255009 18.069 1.10301 18.766 2.00201 18.774H2.047H22.249C22.722 19.366 23.397 19.779 24.147 19.929C23.292 20.386 22.692 20.761 22.332 21.001C22.332 21.001 22.324 21.0011 22.317 21.0091C22.287 21.0391 22.257 21.054 22.227 21.076C22.219 21.084 22.212 21.0841 22.204 21.0911C22.084 21.1961 21.942 21.3691 22.017 21.5861L22.039 21.631C22.107 21.796 22.264 21.894 22.437 21.894C22.482 21.894 22.527 21.8861 22.572 21.8711C27.881 20.1761 34.292 19.141 41.611 18.796H47.528C47.783 18.796 48.045 18.751 48.3 18.654C48.57 18.541 48.81 18.3841 49.013 18.1811C49.403 17.7841 49.62 17.251 49.62 16.696C49.62 16.546 49.605 16.3961 49.575 16.2461ZM26.786 17.4091L27.349 17.019C27.326 17.206 27.274 17.3941 27.206 17.5741L26.786 17.4091ZM27.138 17.7541C27.094 17.8511 27.041 17.956 26.981 18.054C26.936 18.121 26.876 18.166 26.831 18.234L26.719 17.589L27.138 17.7541ZM26.606 17.304L26.171 16.696L26.606 16.096L27.363 16.614C27.363 16.644 27.371 16.666 27.371 16.696C27.371 16.726 27.363 16.756 27.363 16.786L26.606 17.304ZM22.279 17.019L22.842 17.4091L22.429 17.596C22.354 17.409 22.302 17.221 22.279 17.019ZM22.264 16.786C22.257 16.756 22.257 16.726 22.257 16.696C22.257 16.666 22.264 16.644 22.264 16.614L23.014 16.096L23.457 16.696L23.014 17.304L22.264 16.786ZM22.842 15.9911L22.287 16.374C22.309 16.186 22.354 15.999 22.422 15.826L22.842 15.9911ZM22.482 15.6461C22.564 15.4661 22.669 15.3011 22.789 15.1511L22.909 15.8111L22.482 15.6461ZM24.814 15.346L24.206 14.904L24.731 14.1461C24.761 14.1461 24.784 14.139 24.814 14.139C24.844 14.139 24.866 14.1461 24.896 14.1461L25.421 14.8961L24.814 15.346ZM25.481 15.0911L25.571 15.6761L25.001 15.4361L25.481 15.0911ZM24.626 15.4361L24.057 15.669L24.154 15.084L24.626 15.4361ZM24.094 14.731L23.907 14.3111C24.087 14.2441 24.281 14.199 24.476 14.169L24.094 14.731ZM23.914 14.799L23.262 14.679C23.404 14.566 23.562 14.461 23.734 14.386L23.914 14.799ZM23.966 15.001L23.854 15.744L23.112 15.856L22.947 14.956C22.984 14.919 23.029 14.8741 23.067 14.8361L23.966 15.001ZM23.787 15.946L23.547 16.5091L23.202 16.036L23.787 15.946ZM23.547 16.891L23.787 17.454L23.202 17.364L23.547 16.891ZM23.674 16.696L24.004 15.894L24.814 15.5561L25.616 15.894L25.954 16.696L25.616 17.506L24.814 17.8361L24.004 17.506L23.674 16.696ZM26.074 16.5091L25.841 15.946L26.419 16.036L26.074 16.5091ZM26.081 16.891L26.426 17.364L25.849 17.446L26.081 16.891ZM25.571 17.731L25.474 18.309L25.001 17.964L25.571 17.731ZM24.626 17.956L24.147 18.309L24.057 17.7241L24.626 17.956ZM24.814 18.054L25.421 18.4961L24.904 19.239C24.874 19.246 24.844 19.2541 24.814 19.2541C24.784 19.2541 24.754 19.2461 24.724 19.2461L24.206 18.5041L24.814 18.054ZM25.534 18.669L25.714 19.0741C25.534 19.1411 25.354 19.186 25.159 19.209L25.534 18.669ZM25.706 18.601L26.351 18.714C26.201 18.826 26.051 18.924 25.886 18.999L25.706 18.601ZM25.654 18.399L25.774 17.656L26.516 17.544L26.674 18.429C26.636 18.466 26.599 18.5191 26.561 18.5641L25.654 18.399ZM26.786 15.9911L27.199 15.804C27.266 15.984 27.311 16.1711 27.334 16.3661L26.786 15.9911ZM26.838 15.1511C26.951 15.2941 27.048 15.451 27.124 15.624L26.719 15.804L26.838 15.1511ZM26.681 14.956L26.516 15.856L25.774 15.736L25.654 15.001L26.561 14.8361C26.599 14.8741 26.636 14.919 26.681 14.956ZM25.864 14.3711C26.044 14.4541 26.209 14.559 26.366 14.679L25.699 14.799L25.864 14.3711ZM25.684 14.296L25.526 14.7241L25.136 14.169C25.331 14.191 25.511 14.236 25.684 14.296ZM2.00201 18.024C1.44701 18.009 0.915018 17.566 0.787018 16.981C0.765018 16.884 0.75 16.7861 0.75 16.6891C0.75 16.3361 0.900003 15.991 1.147 15.736C1.275 15.601 1.42502 15.5041 1.59702 15.4361C1.76202 15.3761 1.92701 15.339 2.09201 15.339H8.03101C14.345 15.046 19.992 14.244 24.836 12.946C23.869 13.449 22.609 14.026 21.034 14.611C20.494 14.814 19.947 15.0091 19.4 15.1891C18.785 15.3911 18.17 15.579 17.547 15.751C16.865 15.946 16.183 16.126 15.493 16.291C14.743 16.471 13.985 16.636 13.228 16.786C12.426 16.944 11.593 17.094 10.746 17.221C9.876 17.356 8.96902 17.484 8.05402 17.589C7.09402 17.694 6.119 17.784 5.129 17.859C4.282 17.919 3.16501 17.994 2.03201 18.024H2.00201ZM10.453 18.024C10.589 18.009 10.731 17.986 10.866 17.964C11.721 17.829 12.561 17.6791 13.371 17.5211C14.143 17.3711 14.908 17.206 15.673 17.019C16.37 16.854 17.06 16.6741 17.75 16.4791C18.38 16.2991 19.01 16.1041 19.632 15.9011C20.187 15.7141 20.742 15.519 21.297 15.316C21.514 15.234 21.732 15.1511 21.934 15.0691C21.664 15.5491 21.507 16.111 21.507 16.696C21.507 17.161 21.604 17.611 21.784 18.024H10.453ZM22.789 18.249C22.744 18.181 22.692 18.114 22.647 18.046C22.594 17.956 22.542 17.8661 22.504 17.7761L22.909 17.596L22.789 18.249ZM22.947 18.4361L23.112 17.544L23.854 17.6641L23.966 18.399L23.074 18.5641C23.029 18.5191 22.992 18.4741 22.947 18.4361ZM23.764 19.0211C23.584 18.9391 23.419 18.841 23.262 18.721L23.922 18.601L23.764 19.0211ZM23.944 19.096L24.102 18.6761L24.491 19.231C24.304 19.209 24.117 19.156 23.944 19.096ZM27.836 15.361H39.234C39.077 15.376 38.919 15.406 38.762 15.429C37.907 15.556 37.06 15.7061 36.25 15.8711C35.485 16.0211 34.72 16.1861 33.955 16.3661C33.258 16.5391 32.56 16.7191 31.87 16.9141C31.241 17.0941 30.618 17.2811 29.996 17.4911C29.433 17.6711 28.878 17.8661 28.331 18.0691C28.113 18.1511 27.896 18.234 27.694 18.316C27.978 17.821 28.121 17.266 28.121 16.696C28.121 16.224 28.016 15.766 27.836 15.361ZM48.48 17.656C48.345 17.784 48.195 17.881 48.023 17.956C47.858 18.016 47.693 18.046 47.528 18.046H41.596C35.275 18.346 29.636 19.149 24.784 20.446C25.751 19.944 27.019 19.359 28.586 18.774C29.133 18.571 29.681 18.384 30.228 18.204C30.836 18.001 31.458 17.8141 32.073 17.6341C32.755 17.4461 33.445 17.266 34.128 17.101C34.885 16.914 35.635 16.756 36.4 16.606C37.202 16.449 38.035 16.2991 38.874 16.1641C39.767 16.0291 40.674 15.909 41.574 15.804C42.526 15.699 43.509 15.6011 44.491 15.5341C45.346 15.4661 46.471 15.391 47.596 15.361H47.618C48.165 15.361 48.713 15.826 48.84 16.411C48.863 16.501 48.87 16.599 48.87 16.696C48.87 17.049 48.728 17.401 48.48 17.656Z" fill="black" fill-opacity="0.2"/>
<path d="M49.575 16.2461C49.365 15.3241 48.518 14.611 47.618 14.611H47.573H27.378C26.906 14.034 26.239 13.614 25.481 13.456C26.329 13.006 26.929 12.631 27.289 12.391C27.289 12.391 27.296 12.3911 27.304 12.3841C27.341 12.3541 27.371 12.331 27.401 12.316C27.416 12.301 27.438 12.286 27.461 12.264C27.566 12.159 27.678 12.0011 27.611 11.8061L27.588 11.7541C27.499 11.5511 27.274 11.4541 27.049 11.5211C21.747 13.2161 15.335 14.251 8.009 14.589H2.09201C1.83701 14.589 1.582 14.641 1.327 14.739C1.057 14.844 0.818021 15.001 0.615021 15.204C0.225021 15.601 0 16.1411 0 16.6891C0 16.8391 0.023009 16.989 0.053009 17.139C0.255009 18.069 1.10301 18.766 2.00201 18.774H2.047H22.249C22.722 19.366 23.397 19.779 24.147 19.929C23.292 20.386 22.692 20.761 22.332 21.001C22.332 21.001 22.324 21.0011 22.317 21.0091C22.287 21.0391 22.257 21.054 22.227 21.076C22.219 21.084 22.212 21.0841 22.204 21.0911C22.084 21.1961 21.942 21.3691 22.017 21.5861L22.039 21.631C22.107 21.796 22.264 21.894 22.437 21.894C22.482 21.894 22.527 21.8861 22.572 21.8711C27.881 20.1761 34.292 19.141 41.611 18.796H47.528C47.783 18.796 48.045 18.751 48.3 18.654C48.57 18.541 48.81 18.3841 49.013 18.1811C49.403 17.7841 49.62 17.251 49.62 16.696C49.62 16.546 49.605 16.3961 49.575 16.2461ZM26.786 17.4091L27.349 17.019C27.326 17.206 27.274 17.3941 27.206 17.5741L26.786 17.4091ZM27.138 17.7541C27.094 17.8511 27.041 17.956 26.981 18.054C26.936 18.121 26.876 18.166 26.831 18.234L26.719 17.589L27.138 17.7541ZM26.606 17.304L26.171 16.696L26.606 16.096L27.363 16.614C27.363 16.644 27.371 16.666 27.371 16.696C27.371 16.726 27.363 16.756 27.363 16.786L26.606 17.304ZM22.279 17.019L22.842 17.4091L22.429 17.596C22.354 17.409 22.302 17.221 22.279 17.019ZM22.264 16.786C22.257 16.756 22.257 16.726 22.257 16.696C22.257 16.666 22.264 16.644 22.264 16.614L23.014 16.096L23.457 16.696L23.014 17.304L22.264 16.786ZM22.842 15.9911L22.287 16.374C22.309 16.186 22.354 15.999 22.422 15.826L22.842 15.9911ZM22.482 15.6461C22.564 15.4661 22.669 15.3011 22.789 15.1511L22.909 15.8111L22.482 15.6461ZM24.814 15.346L24.206 14.904L24.731 14.1461C24.761 14.1461 24.784 14.139 24.814 14.139C24.844 14.139 24.866 14.1461 24.896 14.1461L25.421 14.8961L24.814 15.346ZM25.481 15.0911L25.571 15.6761L25.001 15.4361L25.481 15.0911ZM24.626 15.4361L24.057 15.669L24.154 15.084L24.626 15.4361ZM24.094 14.731L23.907 14.3111C24.087 14.2441 24.281 14.199 24.476 14.169L24.094 14.731ZM23.914 14.799L23.262 14.679C23.404 14.566 23.562 14.461 23.734 14.386L23.914 14.799ZM23.966 15.001L23.854 15.744L23.112 15.856L22.947 14.956C22.984 14.919 23.029 14.8741 23.067 14.8361L23.966 15.001ZM23.787 15.946L23.547 16.5091L23.202 16.036L23.787 15.946ZM23.547 16.891L23.787 17.454L23.202 17.364L23.547 16.891ZM23.674 16.696L24.004 15.894L24.814 15.5561L25.616 15.894L25.954 16.696L25.616 17.506L24.814 17.8361L24.004 17.506L23.674 16.696ZM26.074 16.5091L25.841 15.946L26.419 16.036L26.074 16.5091ZM26.081 16.891L26.426 17.364L25.849 17.446L26.081 16.891ZM25.571 17.731L25.474 18.309L25.001 17.964L25.571 17.731ZM24.626 17.956L24.147 18.309L24.057 17.7241L24.626 17.956ZM24.814 18.054L25.421 18.4961L24.904 19.239C24.874 19.246 24.844 19.2541 24.814 19.2541C24.784 19.2541 24.754 19.2461 24.724 19.2461L24.206 18.5041L24.814 18.054ZM25.534 18.669L25.714 19.0741C25.534 19.1411 25.354 19.186 25.159 19.209L25.534 18.669ZM25.706 18.601L26.351 18.714C26.201 18.826 26.051 18.924 25.886 18.999L25.706 18.601ZM25.654 18.399L25.774 17.656L26.516 17.544L26.674 18.429C26.636 18.466 26.599 18.5191 26.561 18.5641L25.654 18.399ZM26.786 15.9911L27.199 15.804C27.266 15.984 27.311 16.1711 27.334 16.3661L26.786 15.9911ZM26.838 15.1511C26.951 15.2941 27.048 15.451 27.124 15.624L26.719 15.804L26.838 15.1511ZM26.681 14.956L26.516 15.856L25.774 15.736L25.654 15.001L26.561 14.8361C26.599 14.8741 26.636 14.919 26.681 14.956ZM25.864 14.3711C26.044 14.4541 26.209 14.559 26.366 14.679L25.699 14.799L25.864 14.3711ZM25.684 14.296L25.526 14.7241L25.136 14.169C25.331 14.191 25.511 14.236 25.684 14.296ZM2.00201 18.024C1.44701 18.009 0.915018 17.566 0.787018 16.981C0.765018 16.884 0.75 16.7861 0.75 16.6891C0.75 16.3361 0.900003 15.991 1.147 15.736C1.275 15.601 1.42502 15.5041 1.59702 15.4361C1.76202 15.3761 1.92701 15.339 2.09201 15.339H8.03101C14.345 15.046 19.992 14.244 24.836 12.946C23.869 13.449 22.609 14.026 21.034 14.611C20.494 14.814 19.947 15.0091 19.4 15.1891C18.785 15.3911 18.17 15.579 17.547 15.751C16.865 15.946 16.183 16.126 15.493 16.291C14.743 16.471 13.985 16.636 13.228 16.786C12.426 16.944 11.593 17.094 10.746 17.221C9.876 17.356 8.96902 17.484 8.05402 17.589C7.09402 17.694 6.119 17.784 5.129 17.859C4.282 17.919 3.16501 17.994 2.03201 18.024H2.00201ZM10.453 18.024C10.589 18.009 10.731 17.986 10.866 17.964C11.721 17.829 12.561 17.6791 13.371 17.5211C14.143 17.3711 14.908 17.206 15.673 17.019C16.37 16.854 17.06 16.6741 17.75 16.4791C18.38 16.2991 19.01 16.1041 19.632 15.9011C20.187 15.7141 20.742 15.519 21.297 15.316C21.514 15.234 21.732 15.1511 21.934 15.0691C21.664 15.5491 21.507 16.111 21.507 16.696C21.507 17.161 21.604 17.611 21.784 18.024H10.453ZM22.789 18.249C22.744 18.181 22.692 18.114 22.647 18.046C22.594 17.956 22.542 17.8661 22.504 17.7761L22.909 17.596L22.789 18.249ZM22.947 18.4361L23.112 17.544L23.854 17.6641L23.966 18.399L23.074 18.5641C23.029 18.5191 22.992 18.4741 22.947 18.4361ZM23.764 19.0211C23.584 18.9391 23.419 18.841 23.262 18.721L23.922 18.601L23.764 19.0211ZM23.944 19.096L24.102 18.6761L24.491 19.231C24.304 19.209 24.117 19.156 23.944 19.096ZM27.836 15.361H39.234C39.077 15.376 38.919 15.406 38.762 15.429C37.907 15.556 37.06 15.7061 36.25 15.8711C35.485 16.0211 34.72 16.1861 33.955 16.3661C33.258 16.5391 32.56 16.7191 31.87 16.9141C31.241 17.0941 30.618 17.2811 29.996 17.4911C29.433 17.6711 28.878 17.8661 28.331 18.0691C28.113 18.1511 27.896 18.234 27.694 18.316C27.978 17.821 28.121 17.266 28.121 16.696C28.121 16.224 28.016 15.766 27.836 15.361ZM48.48 17.656C48.345 17.784 48.195 17.881 48.023 17.956C47.858 18.016 47.693 18.046 47.528 18.046H41.596C35.275 18.346 29.636 19.149 24.784 20.446C25.751 19.944 27.019 19.359 28.586 18.774C29.133 18.571 29.681 18.384 30.228 18.204C30.836 18.001 31.458 17.8141 32.073 17.6341C32.755 17.4461 33.445 17.266 34.128 17.101C34.885 16.914 35.635 16.756 36.4 16.606C37.202 16.449 38.035 16.2991 38.874 16.1641C39.767 16.0291 40.674 15.909 41.574 15.804C42.526 15.699 43.509 15.6011 44.491 15.5341C45.346 15.4661 46.471 15.391 47.596 15.361H47.618C48.165 15.361 48.713 15.826 48.84 16.411C48.863 16.501 48.87 16.599 48.87 16.696C48.87 17.049 48.728 17.401 48.48 17.656Z" fill="black" fill-opacity="0.2"/>
<path d="M49.575 16.2461C49.365 15.3241 48.518 14.611 47.618 14.611H47.573H27.378C26.906 14.034 26.239 13.614 25.481 13.456C26.329 13.006 26.929 12.631 27.289 12.391C27.289 12.391 27.296 12.3911 27.304 12.3841C27.341 12.3541 27.371 12.331 27.401 12.316C27.416 12.301 27.438 12.286 27.461 12.264C27.566 12.159 27.678 12.0011 27.611 11.8061L27.588 11.7541C27.499 11.5511 27.274 11.4541 27.049 11.5211C21.747 13.2161 15.335 14.251 8.009 14.589H2.09201C1.83701 14.589 1.582 14.641 1.327 14.739C1.057 14.844 0.818021 15.001 0.615021 15.204C0.225021 15.601 0 16.1411 0 16.6891C0 16.8391 0.023009 16.989 0.053009 17.139C0.255009 18.069 1.10301 18.766 2.00201 18.774H2.047H22.249C22.722 19.366 23.397 19.779 24.147 19.929C23.292 20.386 22.692 20.761 22.332 21.001C22.332 21.001 22.324 21.0011 22.317 21.0091C22.287 21.0391 22.257 21.054 22.227 21.076C22.219 21.084 22.212 21.0841 22.204 21.0911C22.084 21.1961 21.942 21.3691 22.017 21.5861L22.039 21.631C22.107 21.796 22.264 21.894 22.437 21.894C22.482 21.894 22.527 21.8861 22.572 21.8711C27.881 20.1761 34.292 19.141 41.611 18.796H47.528C47.783 18.796 48.045 18.751 48.3 18.654C48.57 18.541 48.81 18.3841 49.013 18.1811C49.403 17.7841 49.62 17.251 49.62 16.696C49.62 16.546 49.605 16.3961 49.575 16.2461ZM26.786 17.4091L27.349 17.019C27.326 17.206 27.274 17.3941 27.206 17.5741L26.786 17.4091ZM27.138 17.7541C27.094 17.8511 27.041 17.956 26.981 18.054C26.936 18.121 26.876 18.166 26.831 18.234L26.719 17.589L27.138 17.7541ZM26.606 17.304L26.171 16.696L26.606 16.096L27.363 16.614C27.363 16.644 27.371 16.666 27.371 16.696C27.371 16.726 27.363 16.756 27.363 16.786L26.606 17.304ZM22.279 17.019L22.842 17.4091L22.429 17.596C22.354 17.409 22.302 17.221 22.279 17.019ZM22.264 16.786C22.257 16.756 22.257 16.726 22.257 16.696C22.257 16.666 22.264 16.644 22.264 16.614L23.014 16.096L23.457 16.696L23.014 17.304L22.264 16.786ZM22.842 15.9911L22.287 16.374C22.309 16.186 22.354 15.999 22.422 15.826L22.842 15.9911ZM22.482 15.6461C22.564 15.4661 22.669 15.3011 22.789 15.1511L22.909 15.8111L22.482 15.6461ZM24.814 15.346L24.206 14.904L24.731 14.1461C24.761 14.1461 24.784 14.139 24.814 14.139C24.844 14.139 24.866 14.1461 24.896 14.1461L25.421 14.8961L24.814 15.346ZM25.481 15.0911L25.571 15.6761L25.001 15.4361L25.481 15.0911ZM24.626 15.4361L24.057 15.669L24.154 15.084L24.626 15.4361ZM24.094 14.731L23.907 14.3111C24.087 14.2441 24.281 14.199 24.476 14.169L24.094 14.731ZM23.914 14.799L23.262 14.679C23.404 14.566 23.562 14.461 23.734 14.386L23.914 14.799ZM23.966 15.001L23.854 15.744L23.112 15.856L22.947 14.956C22.984 14.919 23.029 14.8741 23.067 14.8361L23.966 15.001ZM23.787 15.946L23.547 16.5091L23.202 16.036L23.787 15.946ZM23.547 16.891L23.787 17.454L23.202 17.364L23.547 16.891ZM23.674 16.696L24.004 15.894L24.814 15.5561L25.616 15.894L25.954 16.696L25.616 17.506L24.814 17.8361L24.004 17.506L23.674 16.696ZM26.074 16.5091L25.841 15.946L26.419 16.036L26.074 16.5091ZM26.081 16.891L26.426 17.364L25.849 17.446L26.081 16.891ZM25.571 17.731L25.474 18.309L25.001 17.964L25.571 17.731ZM24.626 17.956L24.147 18.309L24.057 17.7241L24.626 17.956ZM24.814 18.054L25.421 18.4961L24.904 19.239C24.874 19.246 24.844 19.2541 24.814 19.2541C24.784 19.2541 24.754 19.2461 24.724 19.2461L24.206 18.5041L24.814 18.054ZM25.534 18.669L25.714 19.0741C25.534 19.1411 25.354 19.186 25.159 19.209L25.534 18.669ZM25.706 18.601L26.351 18.714C26.201 18.826 26.051 18.924 25.886 18.999L25.706 18.601ZM25.654 18.399L25.774 17.656L26.516 17.544L26.674 18.429C26.636 18.466 26.599 18.5191 26.561 18.5641L25.654 18.399ZM26.786 15.9911L27.199 15.804C27.266 15.984 27.311 16.1711 27.334 16.3661L26.786 15.9911ZM26.838 15.1511C26.951 15.2941 27.048 15.451 27.124 15.624L26.719 15.804L26.838 15.1511ZM26.681 14.956L26.516 15.856L25.774 15.736L25.654 15.001L26.561 14.8361C26.599 14.8741 26.636 14.919 26.681 14.956ZM25.864 14.3711C26.044 14.4541 26.209 14.559 26.366 14.679L25.699 14.799L25.864 14.3711ZM25.684 14.296L25.526 14.7241L25.136 14.169C25.331 14.191 25.511 14.236 25.684 14.296ZM2.00201 18.024C1.44701 18.009 0.915018 17.566 0.787018 16.981C0.765018 16.884 0.75 16.7861 0.75 16.6891C0.75 16.3361 0.900003 15.991 1.147 15.736C1.275 15.601 1.42502 15.5041 1.59702 15.4361C1.76202 15.3761 1.92701 15.339 2.09201 15.339H8.03101C14.345 15.046 19.992 14.244 24.836 12.946C23.869 13.449 22.609 14.026 21.034 14.611C20.494 14.814 19.947 15.0091 19.4 15.1891C18.785 15.3911 18.17 15.579 17.547 15.751C16.865 15.946 16.183 16.126 15.493 16.291C14.743 16.471 13.985 16.636 13.228 16.786C12.426 16.944 11.593 17.094 10.746 17.221C9.876 17.356 8.96902 17.484 8.05402 17.589C7.09402 17.694 6.119 17.784 5.129 17.859C4.282 17.919 3.16501 17.994 2.03201 18.024H2.00201ZM10.453 18.024C10.589 18.009 10.731 17.986 10.866 17.964C11.721 17.829 12.561 17.6791 13.371 17.5211C14.143 17.3711 14.908 17.206 15.673 17.019C16.37 16.854 17.06 16.6741 17.75 16.4791C18.38 16.2991 19.01 16.1041 19.632 15.9011C20.187 15.7141 20.742 15.519 21.297 15.316C21.514 15.234 21.732 15.1511 21.934 15.0691C21.664 15.5491 21.507 16.111 21.507 16.696C21.507 17.161 21.604 17.611 21.784 18.024H10.453ZM22.789 18.249C22.744 18.181 22.692 18.114 22.647 18.046C22.594 17.956 22.542 17.8661 22.504 17.7761L22.909 17.596L22.789 18.249ZM22.947 18.4361L23.112 17.544L23.854 17.6641L23.966 18.399L23.074 18.5641C23.029 18.5191 22.992 18.4741 22.947 18.4361ZM23.764 19.0211C23.584 18.9391 23.419 18.841 23.262 18.721L23.922 18.601L23.764 19.0211ZM23.944 19.096L24.102 18.6761L24.491 19.231C24.304 19.209 24.117 19.156 23.944 19.096ZM27.836 15.361H39.234C39.077 15.376 38.919 15.406 38.762 15.429C37.907 15.556 37.06 15.7061 36.25 15.8711C35.485 16.0211 34.72 16.1861 33.955 16.3661C33.258 16.5391 32.56 16.7191 31.87 16.9141C31.241 17.0941 30.618 17.2811 29.996 17.4911C29.433 17.6711 28.878 17.8661 28.331 18.0691C28.113 18.1511 27.896 18.234 27.694 18.316C27.978 17.821 28.121 17.266 28.121 16.696C28.121 16.224 28.016 15.766 27.836 15.361ZM48.48 17.656C48.345 17.784 48.195 17.881 48.023 17.956C47.858 18.016 47.693 18.046 47.528 18.046H41.596C35.275 18.346 29.636 19.149 24.784 20.446C25.751 19.944 27.019 19.359 28.586 18.774C29.133 18.571 29.681 18.384 30.228 18.204C30.836 18.001 31.458 17.8141 32.073 17.6341C32.755 17.4461 33.445 17.266 34.128 17.101C34.885 16.914 35.635 16.756 36.4 16.606C37.202 16.449 38.035 16.2991 38.874 16.1641C39.767 16.0291 40.674 15.909 41.574 15.804C42.526 15.699 43.509 15.6011 44.491 15.5341C45.346 15.4661 46.471 15.391 47.596 15.361H47.618C48.165 15.361 48.713 15.826 48.84 16.411C48.863 16.501 48.87 16.599 48.87 16.696C48.87 17.049 48.728 17.401 48.48 17.656Z" fill="black" fill-opacity="0.2"/>
<path d="M49.575 16.2461C49.365 15.3241 48.518 14.611 47.618 14.611H47.573H27.378C26.906 14.034 26.239 13.614 25.481 13.456C26.329 13.006 26.929 12.631 27.289 12.391C27.289 12.391 27.296 12.3911 27.304 12.3841C27.341 12.3541 27.371 12.331 27.401 12.316C27.416 12.301 27.438 12.286 27.461 12.264C27.566 12.159 27.678 12.0011 27.611 11.8061L27.588 11.7541C27.499 11.5511 27.274 11.4541 27.049 11.5211C21.747 13.2161 15.335 14.251 8.009 14.589H2.09201C1.83701 14.589 1.582 14.641 1.327 14.739C1.057 14.844 0.818021 15.001 0.615021 15.204C0.225021 15.601 0 16.1411 0 16.6891C0 16.8391 0.023009 16.989 0.053009 17.139C0.255009 18.069 1.10301 18.766 2.00201 18.774H2.047H22.249C22.722 19.366 23.397 19.779 24.147 19.929C23.292 20.386 22.692 20.761 22.332 21.001C22.332 21.001 22.324 21.0011 22.317 21.0091C22.287 21.0391 22.257 21.054 22.227 21.076C22.219 21.084 22.212 21.0841 22.204 21.0911C22.084 21.1961 21.942 21.3691 22.017 21.5861L22.039 21.631C22.107 21.796 22.264 21.894 22.437 21.894C22.482 21.894 22.527 21.8861 22.572 21.8711C27.881 20.1761 34.292 19.141 41.611 18.796H47.528C47.783 18.796 48.045 18.751 48.3 18.654C48.57 18.541 48.81 18.3841 49.013 18.1811C49.403 17.7841 49.62 17.251 49.62 16.696C49.62 16.546 49.605 16.3961 49.575 16.2461ZM26.786 17.4091L27.349 17.019C27.326 17.206 27.274 17.3941 27.206 17.5741L26.786 17.4091ZM27.138 17.7541C27.094 17.8511 27.041 17.956 26.981 18.054C26.936 18.121 26.876 18.166 26.831 18.234L26.719 17.589L27.138 17.7541ZM26.606 17.304L26.171 16.696L26.606 16.096L27.363 16.614C27.363 16.644 27.371 16.666 27.371 16.696C27.371 16.726 27.363 16.756 27.363 16.786L26.606 17.304ZM22.279 17.019L22.842 17.4091L22.429 17.596C22.354 17.409 22.302 17.221 22.279 17.019ZM22.264 16.786C22.257 16.756 22.257 16.726 22.257 16.696C22.257 16.666 22.264 16.644 22.264 16.614L23.014 16.096L23.457 16.696L23.014 17.304L22.264 16.786ZM22.842 15.9911L22.287 16.374C22.309 16.186 22.354 15.999 22.422 15.826L22.842 15.9911ZM22.482 15.6461C22.564 15.4661 22.669 15.3011 22.789 15.1511L22.909 15.8111L22.482 15.6461ZM24.814 15.346L24.206 14.904L24.731 14.1461C24.761 14.1461 24.784 14.139 24.814 14.139C24.844 14.139 24.866 14.1461 24.896 14.1461L25.421 14.8961L24.814 15.346ZM25.481 15.0911L25.571 15.6761L25.001 15.4361L25.481 15.0911ZM24.626 15.4361L24.057 15.669L24.154 15.084L24.626 15.4361ZM24.094 14.731L23.907 14.3111C24.087 14.2441 24.281 14.199 24.476 14.169L24.094 14.731ZM23.914 14.799L23.262 14.679C23.404 14.566 23.562 14.461 23.734 14.386L23.914 14.799ZM23.966 15.001L23.854 15.744L23.112 15.856L22.947 14.956C22.984 14.919 23.029 14.8741 23.067 14.8361L23.966 15.001ZM23.787 15.946L23.547 16.5091L23.202 16.036L23.787 15.946ZM23.547 16.891L23.787 17.454L23.202 17.364L23.547 16.891ZM23.674 16.696L24.004 15.894L24.814 15.5561L25.616 15.894L25.954 16.696L25.616 17.506L24.814 17.8361L24.004 17.506L23.674 16.696ZM26.074 16.5091L25.841 15.946L26.419 16.036L26.074 16.5091ZM26.081 16.891L26.426 17.364L25.849 17.446L26.081 16.891ZM25.571 17.731L25.474 18.309L25.001 17.964L25.571 17.731ZM24.626 17.956L24.147 18.309L24.057 17.7241L24.626 17.956ZM24.814 18.054L25.421 18.4961L24.904 19.239C24.874 19.246 24.844 19.2541 24.814 19.2541C24.784 19.2541 24.754 19.2461 24.724 19.2461L24.206 18.5041L24.814 18.054ZM25.534 18.669L25.714 19.0741C25.534 19.1411 25.354 19.186 25.159 19.209L25.534 18.669ZM25.706 18.601L26.351 18.714C26.201 18.826 26.051 18.924 25.886 18.999L25.706 18.601ZM25.654 18.399L25.774 17.656L26.516 17.544L26.674 18.429C26.636 18.466 26.599 18.5191 26.561 18.5641L25.654 18.399ZM26.786 15.9911L27.199 15.804C27.266 15.984 27.311 16.1711 27.334 16.3661L26.786 15.9911ZM26.838 15.1511C26.951 15.2941 27.048 15.451 27.124 15.624L26.719 15.804L26.838 15.1511ZM26.681 14.956L26.516 15.856L25.774 15.736L25.654 15.001L26.561 14.8361C26.599 14.8741 26.636 14.919 26.681 14.956ZM25.864 14.3711C26.044 14.4541 26.209 14.559 26.366 14.679L25.699 14.799L25.864 14.3711ZM25.684 14.296L25.526 14.7241L25.136 14.169C25.331 14.191 25.511 14.236 25.684 14.296ZM2.00201 18.024C1.44701 18.009 0.915018 17.566 0.787018 16.981C0.765018 16.884 0.75 16.7861 0.75 16.6891C0.75 16.3361 0.900003 15.991 1.147 15.736C1.275 15.601 1.42502 15.5041 1.59702 15.4361C1.76202 15.3761 1.92701 15.339 2.09201 15.339H8.03101C14.345 15.046 19.992 14.244 24.836 12.946C23.869 13.449 22.609 14.026 21.034 14.611C20.494 14.814 19.947 15.0091 19.4 15.1891C18.785 15.3911 18.17 15.579 17.547 15.751C16.865 15.946 16.183 16.126 15.493 16.291C14.743 16.471 13.985 16.636 13.228 16.786C12.426 16.944 11.593 17.094 10.746 17.221C9.876 17.356 8.96902 17.484 8.05402 17.589C7.09402 17.694 6.119 17.784 5.129 17.859C4.282 17.919 3.16501 17.994 2.03201 18.024H2.00201ZM10.453 18.024C10.589 18.009 10.731 17.986 10.866 17.964C11.721 17.829 12.561 17.6791 13.371 17.5211C14.143 17.3711 14.908 17.206 15.673 17.019C16.37 16.854 17.06 16.6741 17.75 16.4791C18.38 16.2991 19.01 16.1041 19.632 15.9011C20.187 15.7141 20.742 15.519 21.297 15.316C21.514 15.234 21.732 15.1511 21.934 15.0691C21.664 15.5491 21.507 16.111 21.507 16.696C21.507 17.161 21.604 17.611 21.784 18.024H10.453ZM22.789 18.249C22.744 18.181 22.692 18.114 22.647 18.046C22.594 17.956 22.542 17.8661 22.504 17.7761L22.909 17.596L22.789 18.249ZM22.947 18.4361L23.112 17.544L23.854 17.6641L23.966 18.399L23.074 18.5641C23.029 18.5191 22.992 18.4741 22.947 18.4361ZM23.764 19.0211C23.584 18.9391 23.419 18.841 23.262 18.721L23.922 18.601L23.764 19.0211ZM23.944 19.096L24.102 18.6761L24.491 19.231C24.304 19.209 24.117 19.156 23.944 19.096ZM27.836 15.361H39.234C39.077 15.376 38.919 15.406 38.762 15.429C37.907 15.556 37.06 15.7061 36.25 15.8711C35.485 16.0211 34.72 16.1861 33.955 16.3661C33.258 16.5391 32.56 16.7191 31.87 16.9141C31.241 17.0941 30.618 17.2811 29.996 17.4911C29.433 17.6711 28.878 17.8661 28.331 18.0691C28.113 18.1511 27.896 18.234 27.694 18.316C27.978 17.821 28.121 17.266 28.121 16.696C28.121 16.224 28.016 15.766 27.836 15.361ZM48.48 17.656C48.345 17.784 48.195 17.881 48.023 17.956C47.858 18.016 47.693 18.046 47.528 18.046H41.596C35.275 18.346 29.636 19.149 24.784 20.446C25.751 19.944 27.019 19.359 28.586 18.774C29.133 18.571 29.681 18.384 30.228 18.204C30.836 18.001 31.458 17.8141 32.073 17.6341C32.755 17.4461 33.445 17.266 34.128 17.101C34.885 16.914 35.635 16.756 36.4 16.606C37.202 16.449 38.035 16.2991 38.874 16.1641C39.767 16.0291 40.674 15.909 41.574 15.804C42.526 15.699 43.509 15.6011 44.491 15.5341C45.346 15.4661 46.471 15.391 47.596 15.361H47.618C48.165 15.361 48.713 15.826 48.84 16.411C48.863 16.501 48.87 16.599 48.87 16.696C48.87 17.049 48.728 17.401 48.48 17.656Z" fill="black" fill-opacity="0.2"/>
<path d="M49.575 16.2461C49.365 15.3241 48.518 14.611 47.618 14.611H47.573H27.378C26.906 14.034 26.239 13.614 25.481 13.456C26.329 13.006 26.929 12.631 27.289 12.391C27.289 12.391 27.296 12.3911 27.304 12.3841C27.341 12.3541 27.371 12.331 27.401 12.316C27.416 12.301 27.438 12.286 27.461 12.264C27.566 12.159 27.678 12.0011 27.611 11.8061L27.588 11.7541C27.499 11.5511 27.274 11.4541 27.049 11.5211C21.747 13.2161 15.335 14.251 8.009 14.589H2.09201C1.83701 14.589 1.582 14.641 1.327 14.739C1.057 14.844 0.818021 15.001 0.615021 15.204C0.225021 15.601 0 16.1411 0 16.6891C0 16.8391 0.023009 16.989 0.053009 17.139C0.255009 18.069 1.10301 18.766 2.00201 18.774H2.047H22.249C22.722 19.366 23.397 19.779 24.147 19.929C23.292 20.386 22.692 20.761 22.332 21.001C22.332 21.001 22.324 21.0011 22.317 21.0091C22.287 21.0391 22.257 21.054 22.227 21.076C22.219 21.084 22.212 21.0841 22.204 21.0911C22.084 21.1961 21.942 21.3691 22.017 21.5861L22.039 21.631C22.107 21.796 22.264 21.894 22.437 21.894C22.482 21.894 22.527 21.8861 22.572 21.8711C27.881 20.1761 34.292 19.141 41.611 18.796H47.528C47.783 18.796 48.045 18.751 48.3 18.654C48.57 18.541 48.81 18.3841 49.013 18.1811C49.403 17.7841 49.62 17.251 49.62 16.696C49.62 16.546 49.605 16.3961 49.575 16.2461ZM26.786 17.4091L27.349 17.019C27.326 17.206 27.274 17.3941 27.206 17.5741L26.786 17.4091ZM27.138 17.7541C27.094 17.8511 27.041 17.956 26.981 18.054C26.936 18.121 26.876 18.166 26.831 18.234L26.719 17.589L27.138 17.7541ZM26.606 17.304L26.171 16.696L26.606 16.096L27.363 16.614C27.363 16.644 27.371 16.666 27.371 16.696C27.371 16.726 27.363 16.756 27.363 16.786L26.606 17.304ZM22.279 17.019L22.842 17.4091L22.429 17.596C22.354 17.409 22.302 17.221 22.279 17.019ZM22.264 16.786C22.257 16.756 22.257 16.726 22.257 16.696C22.257 16.666 22.264 16.644 22.264 16.614L23.014 16.096L23.457 16.696L23.014 17.304L22.264 16.786ZM22.842 15.9911L22.287 16.374C22.309 16.186 22.354 15.999 22.422 15.826L22.842 15.9911ZM22.482 15.6461C22.564 15.4661 22.669 15.3011 22.789 15.1511L22.909 15.8111L22.482 15.6461ZM24.814 15.346L24.206 14.904L24.731 14.1461C24.761 14.1461 24.784 14.139 24.814 14.139C24.844 14.139 24.866 14.1461 24.896 14.1461L25.421 14.8961L24.814 15.346ZM25.481 15.0911L25.571 15.6761L25.001 15.4361L25.481 15.0911ZM24.626 15.4361L24.057 15.669L24.154 15.084L24.626 15.4361ZM24.094 14.731L23.907 14.3111C24.087 14.2441 24.281 14.199 24.476 14.169L24.094 14.731ZM23.914 14.799L23.262 14.679C23.404 14.566 23.562 14.461 23.734 14.386L23.914 14.799ZM23.966 15.001L23.854 15.744L23.112 15.856L22.947 14.956C22.984 14.919 23.029 14.8741 23.067 14.8361L23.966 15.001ZM23.787 15.946L23.547 16.5091L23.202 16.036L23.787 15.946ZM23.547 16.891L23.787 17.454L23.202 17.364L23.547 16.891ZM23.674 16.696L24.004 15.894L24.814 15.5561L25.616 15.894L25.954 16.696L25.616 17.506L24.814 17.8361L24.004 17.506L23.674 16.696ZM26.074 16.5091L25.841 15.946L26.419 16.036L26.074 16.5091ZM26.081 16.891L26.426 17.364L25.849 17.446L26.081 16.891ZM25.571 17.731L25.474 18.309L25.001 17.964L25.571 17.731ZM24.626 17.956L24.147 18.309L24.057 17.7241L24.626 17.956ZM24.814 18.054L25.421 18.4961L24.904 19.239C24.874 19.246 24.844 19.2541 24.814 19.2541C24.784 19.2541 24.754 19.2461 24.724 19.2461L24.206 18.5041L24.814 18.054ZM25.534 18.669L25.714 19.0741C25.534 19.1411 25.354 19.186 25.159 19.209L25.534 18.669ZM25.706 18.601L26.351 18.714C26.201 18.826 26.051 18.924 25.886 18.999L25.706 18.601ZM25.654 18.399L25.774 17.656L26.516 17.544L26.674 18.429C26.636 18.466 26.599 18.5191 26.561 18.5641L25.654 18.399ZM26.786 15.9911L27.199 15.804C27.266 15.984 27.311 16.1711 27.334 16.3661L26.786 15.9911ZM26.838 15.1511C26.951 15.2941 27.048 15.451 27.124 15.624L26.719 15.804L26.838 15.1511ZM26.681 14.956L26.516 15.856L25.774 15.736L25.654 15.001L26.561 14.8361C26.599 14.8741 26.636 14.919 26.681 14.956ZM25.864 14.3711C26.044 14.4541 26.209 14.559 26.366 14.679L25.699 14.799L25.864 14.3711ZM25.684 14.296L25.526 14.7241L25.136 14.169C25.331 14.191 25.511 14.236 25.684 14.296ZM2.00201 18.024C1.44701 18.009 0.915018 17.566 0.787018 16.981C0.765018 16.884 0.75 16.7861 0.75 16.6891C0.75 16.3361 0.900003 15.991 1.147 15.736C1.275 15.601 1.42502 15.5041 1.59702 15.4361C1.76202 15.3761 1.92701 15.339 2.09201 15.339H8.03101C14.345 15.046 19.992 14.244 24.836 12.946C23.869 13.449 22.609 14.026 21.034 14.611C20.494 14.814 19.947 15.0091 19.4 15.1891C18.785 15.3911 18.17 15.579 17.547 15.751C16.865 15.946 16.183 16.126 15.493 16.291C14.743 16.471 13.985 16.636 13.228 16.786C12.426 16.944 11.593 17.094 10.746 17.221C9.876 17.356 8.96902 17.484 8.05402 17.589C7.09402 17.694 6.119 17.784 5.129 17.859C4.282 17.919 3.16501 17.994 2.03201 18.024H2.00201ZM10.453 18.024C10.589 18.009 10.731 17.986 10.866 17.964C11.721 17.829 12.561 17.6791 13.371 17.5211C14.143 17.3711 14.908 17.206 15.673 17.019C16.37 16.854 17.06 16.6741 17.75 16.4791C18.38 16.2991 19.01 16.1041 19.632 15.9011C20.187 15.7141 20.742 15.519 21.297 15.316C21.514 15.234 21.732 15.1511 21.934 15.0691C21.664 15.5491 21.507 16.111 21.507 16.696C21.507 17.161 21.604 17.611 21.784 18.024H10.453ZM22.789 18.249C22.744 18.181 22.692 18.114 22.647 18.046C22.594 17.956 22.542 17.8661 22.504 17.7761L22.909 17.596L22.789 18.249ZM22.947 18.4361L23.112 17.544L23.854 17.6641L23.966 18.399L23.074 18.5641C23.029 18.5191 22.992 18.4741 22.947 18.4361ZM23.764 19.0211C23.584 18.9391 23.419 18.841 23.262 18.721L23.922 18.601L23.764 19.0211ZM23.944 19.096L24.102 18.6761L24.491 19.231C24.304 19.209 24.117 19.156 23.944 19.096ZM27.836 15.361H39.234C39.077 15.376 38.919 15.406 38.762 15.429C37.907 15.556 37.06 15.7061 36.25 15.8711C35.485 16.0211 34.72 16.1861 33.955 16.3661C33.258 16.5391 32.56 16.7191 31.87 16.9141C31.241 17.0941 30.618 17.2811 29.996 17.4911C29.433 17.6711 28.878 17.8661 28.331 18.0691C28.113 18.1511 27.896 18.234 27.694 18.316C27.978 17.821 28.121 17.266 28.121 16.696C28.121 16.224 28.016 15.766 27.836 15.361ZM48.48 17.656C48.345 17.784 48.195 17.881 48.023 17.956C47.858 18.016 47.693 18.046 47.528 18.046H41.596C35.275 18.346 29.636 19.149 24.784 20.446C25.751 19.944 27.019 19.359 28.586 18.774C29.133 18.571 29.681 18.384 30.228 18.204C30.836 18.001 31.458 17.8141 32.073 17.6341C32.755 17.4461 33.445 17.266 34.128 17.101C34.885 16.914 35.635 16.756 36.4 16.606C37.202 16.449 38.035 16.2991 38.874 16.1641C39.767 16.0291 40.674 15.909 41.574 15.804C42.526 15.699 43.509 15.6011 44.491 15.5341C45.346 15.4661 46.471 15.391 47.596 15.361H47.618C48.165 15.361 48.713 15.826 48.84 16.411C48.863 16.501 48.87 16.599 48.87 16.696C48.87 17.049 48.728 17.401 48.48 17.656Z" fill="black" fill-opacity="0.2"/>
</g>
</g>
</g>
</g>
</svg>
