<svg width="24" height="24" viewBox="0 0 24 24" fill="none" xmlns="http://www.w3.org/2000/svg">
<path d="M21.9307 7.96663L19.138 2.386C19.08 2.27 18.9909 2.17253 18.8806 2.10433C18.7702 2.03628 18.6432 2 18.5134 2H6.41166C6.17821 1.99984 5.9602 2.11647 5.83081 2.31064L2.10722 7.89127C2.10722 7.89781 2.10722 7.90528 2.10068 7.91167C2.09413 7.91821 2.07652 7.94141 2.06717 7.95916H2.06701C2.05268 8.00478 2.04301 8.05196 2.03818 8.09961C2.01699 8.15956 2.00405 8.22215 2 8.28553C2.00452 8.34641 2.01668 8.40652 2.03631 8.46413C2.04223 8.51395 2.05345 8.56285 2.06982 8.61018C2.0801 8.62965 2.09678 8.64553 2.10894 8.66406C2.12109 8.68259 2.10894 8.67994 2.11735 8.68633L11.4263 21.7079C11.4263 21.7079 11.4357 21.7145 11.4394 21.7201C11.4957 21.792 11.5657 21.852 11.6451 21.8968C11.6657 21.9097 11.6872 21.9213 11.7093 21.9312C11.8883 22.0229 12.1004 22.0229 12.2791 21.9312C12.3012 21.9213 12.3227 21.9097 12.3433 21.8968C12.4228 21.852 12.4928 21.792 12.549 21.7201C12.549 21.7145 12.5584 21.7126 12.5621 21.7079L21.8711 8.68633C21.8711 8.67979 21.8711 8.67138 21.8795 8.66499C21.8879 8.65845 21.8926 8.65472 21.8971 8.64818V8.64833C21.9333 8.57749 21.9568 8.50103 21.9669 8.4224C21.9799 8.3897 21.9902 8.35606 21.9978 8.32181C22.0076 8.19958 21.9844 8.07688 21.9306 7.96664L21.9307 7.96663ZM20.177 7.58063H16.2243L14.828 3.39516H18.0862L20.177 7.58063ZM9.19878 8.97579H14.7954L11.9971 18.7602L9.19878 8.97579ZM13.3552 3.39516L14.7515 7.58063H9.24227L10.6386 3.39516H13.3552ZM6.78386 3.39516H9.16611L7.76974 7.58063H3.99113L6.78386 3.39516ZM7.74544 8.97579L10.2132 17.6062L4.04527 8.97579H7.74544ZM13.7785 17.6062L16.2474 8.97579H19.9487L13.7785 17.6062Z" fill="#1D1F1E"/>
</svg>
