<svg width="42" height="34" viewBox="0 0 42 34" fill="none" xmlns="http://www.w3.org/2000/svg">
<g id="Clip path group">
<mask id="mask0_7306_29611" style="mask-type:luminance" maskUnits="userSpaceOnUse" x="0" y="0" width="42" height="34">
<g id="clip11_631_680">
<path id="Vector" d="M42 0H0V34H42V0Z" fill="white"/>
</g>
</mask>
<g mask="url(#mask0_7306_29611)">
<g id="Group">
<g id="Vector_2">
<path d="M41.643 16.2461C41.4666 15.3241 40.7551 14.611 39.9991 14.611H39.9613H22.9975C22.6011 14.034 22.0408 13.614 21.4041 13.456C22.1164 13.006 22.6204 12.631 22.9228 12.391C22.9228 12.391 22.9287 12.3911 22.9354 12.3841C22.9665 12.3541 22.9916 12.331 23.0168 12.316C23.0294 12.301 23.0479 12.286 23.0672 12.264C23.1554 12.159 23.2495 12.0011 23.1932 11.8061L23.1739 11.7541C23.0992 11.5511 22.9102 11.4541 22.7212 11.5211C18.2675 13.2161 12.8814 14.251 6.72756 14.589H1.75729C1.54309 14.589 1.32888 14.641 1.11468 14.739C0.887877 14.844 0.687137 15.001 0.516617 15.204C0.189017 15.601 0 16.1411 0 16.6891C0 16.8391 0.0193276 16.989 0.0445276 17.139C0.214208 18.069 0.926532 18.766 1.68169 18.774H1.71948H18.6892C19.0865 19.366 19.6535 19.779 20.2835 19.929C19.5653 20.386 19.0613 20.761 18.7589 21.001C18.7589 21.001 18.7522 21.0011 18.7463 21.0091C18.7211 21.0391 18.6959 21.054 18.6707 21.076C18.664 21.084 18.6581 21.0841 18.6514 21.0911C18.5506 21.1961 18.4313 21.3691 18.4943 21.5861L18.5128 21.631C18.5699 21.796 18.7018 21.894 18.8471 21.894C18.8849 21.894 18.9227 21.8861 18.9605 21.8711C23.4201 20.1761 28.8053 19.141 34.9532 18.796H39.9235C40.1377 18.796 40.3578 18.751 40.572 18.654C40.7988 18.541 41.0004 18.3841 41.1709 18.1811C41.4985 17.7841 41.6808 17.251 41.6808 16.696C41.6808 16.546 41.6682 16.3961 41.643 16.2461ZM22.5002 17.4091L22.9732 17.019C22.9538 17.206 22.9102 17.3941 22.853 17.5741L22.5002 17.4091ZM22.7959 17.7541C22.759 17.8511 22.7145 17.956 22.6641 18.054C22.6263 18.121 22.5758 18.166 22.538 18.234L22.444 17.589L22.7959 17.7541ZM22.3491 17.304L21.9837 16.696L22.3491 16.096L22.9849 16.614C22.9849 16.644 22.9916 16.666 22.9916 16.696C22.9916 16.726 22.9849 16.756 22.9849 16.786L22.3491 17.304ZM18.7144 17.019L19.1873 17.4091L18.8404 17.596C18.7774 17.409 18.7337 17.221 18.7144 17.019ZM18.7018 16.786C18.6959 16.756 18.6959 16.726 18.6959 16.696C18.6959 16.666 18.7018 16.644 18.7018 16.614L19.3318 16.096L19.7039 16.696L19.3318 17.304L18.7018 16.786ZM19.1873 15.9911L18.7211 16.374C18.7396 16.186 18.7774 15.999 18.8345 15.826L19.1873 15.9911ZM18.8849 15.6461C18.9538 15.4661 19.042 15.3011 19.1428 15.1511L19.2436 15.8111L18.8849 15.6461ZM20.8438 15.346L20.333 14.904L20.7741 14.1461C20.7993 14.1461 20.8186 14.139 20.8438 14.139C20.869 14.139 20.8874 14.1461 20.9126 14.1461L21.3537 14.8961L20.8438 15.346ZM21.4041 15.0911L21.4797 15.6761L21.0008 15.4361L21.4041 15.0911ZM20.6858 15.4361L20.2079 15.669L20.2894 15.084L20.6858 15.4361ZM20.239 14.731L20.0819 14.3111C20.2331 14.2441 20.3961 14.199 20.5599 14.169L20.239 14.731ZM20.0878 14.799L19.5401 14.679C19.6594 14.566 19.7921 14.461 19.9366 14.386L20.0878 14.799ZM20.1314 15.001L20.0374 15.744L19.4141 15.856L19.2755 14.9561C19.3066 14.919 19.3444 14.8741 19.3763 14.8361L20.1314 15.001ZM19.9811 15.946L19.7795 16.5091L19.4897 16.036L19.9811 15.946ZM19.7795 16.891L19.9811 17.454L19.4897 17.364L19.7795 16.891ZM19.8862 16.696L20.1634 15.894L20.8438 15.5561L21.5174 15.894L21.8014 16.696L21.5174 17.506L20.8438 17.8361L20.1634 17.506L19.8862 16.696ZM21.9022 16.5091L21.7064 15.946L22.192 16.036L21.9022 16.5091ZM21.908 16.891L22.1978 17.364L21.7132 17.446L21.908 16.891ZM21.4797 17.731L21.3982 18.309L21.0008 17.964L21.4797 17.731ZM20.6858 17.9561L20.2835 18.309L20.2079 17.7241L20.6858 17.9561ZM20.8438 18.054L21.3537 18.4961L20.9194 19.239C20.8942 19.246 20.869 19.2541 20.8438 19.2541C20.8186 19.2541 20.7934 19.2461 20.7682 19.2461L20.333 18.5041L20.8438 18.054ZM21.4486 18.669L21.5998 19.0741C21.4486 19.1411 21.2974 19.186 21.1336 19.209L21.4486 18.669ZM21.593 18.601L22.1349 18.714C22.0089 18.826 21.8829 18.924 21.7443 18.999L21.593 18.601ZM21.5494 18.399L21.6502 17.656L22.2735 17.544L22.4062 18.429C22.3743 18.466 22.3432 18.5191 22.3112 18.5641L21.5494 18.399ZM22.5002 15.9911L22.8472 15.804C22.9034 15.984 22.9413 16.1711 22.9606 16.3661L22.5002 15.9911ZM22.5439 15.1511C22.6389 15.2941 22.7203 15.451 22.7842 15.624L22.444 15.804L22.5439 15.1511ZM22.412 14.9561L22.2735 15.856L21.6502 15.736L21.5494 15.001L22.3112 14.8361C22.3432 14.8741 22.3742 14.919 22.412 14.9561ZM21.7258 14.3711C21.877 14.4541 22.0156 14.559 22.1474 14.679L21.5872 14.799L21.7258 14.3711ZM21.5746 14.296L21.4418 14.7241L21.1143 14.169C21.2781 14.191 21.4293 14.236 21.5746 14.296ZM1.68169 18.024C1.21549 18.009 0.768615 17.566 0.661095 16.981C0.642615 16.884 0.63 16.7861 0.63 16.6891C0.63 16.3361 0.756003 15.991 0.963483 15.736C1.071 15.601 1.19701 15.5041 1.34149 15.4361C1.48009 15.3761 1.61869 15.339 1.75729 15.339H6.74605C12.0498 15.046 16.7933 14.244 20.8622 12.946C20.05 13.449 18.9916 14.026 17.6686 14.611C17.215 14.814 16.7555 15.0091 16.296 15.1891C15.7794 15.3911 15.2628 15.579 14.7395 15.751C14.1666 15.946 13.5937 16.126 13.0141 16.291C12.3841 16.471 11.7474 16.636 11.1115 16.786C10.4378 16.944 9.73812 17.094 9.02664 17.221C8.29584 17.356 7.53397 17.484 6.76537 17.589C5.95897 17.694 5.13996 17.784 4.30836 17.859C3.59688 17.919 2.65861 17.994 1.70689 18.024H1.68169ZM8.78052 18.024C8.89476 18.009 9.01404 17.986 9.12744 17.964C9.84564 17.829 10.5512 17.6791 11.2316 17.5211C11.8801 17.3711 12.5227 17.206 13.1653 17.019C13.7508 16.854 14.3304 16.6741 14.91 16.4791C15.4392 16.2991 15.9684 16.1041 16.4909 15.9011C16.9571 15.7141 17.4233 15.519 17.8895 15.316C18.0718 15.234 18.2549 15.1511 18.4246 15.0691C18.1978 15.5491 18.0659 16.111 18.0659 16.696C18.0659 17.161 18.1474 17.611 18.2986 18.024H8.78052ZM19.1428 18.249C19.105 18.181 19.0613 18.114 19.0235 18.046C18.979 17.956 18.9353 17.8661 18.9034 17.7761L19.2436 17.596L19.1428 18.249ZM19.2755 18.4361L19.4141 17.544L20.0374 17.6641L20.1314 18.399L19.3822 18.5641C19.3444 18.5191 19.3133 18.4741 19.2755 18.4361ZM19.9618 19.0211C19.8106 18.9391 19.672 18.841 19.5401 18.721L20.0945 18.601L19.9618 19.0211ZM20.113 19.096L20.2457 18.6761L20.5724 19.231C20.4154 19.209 20.2583 19.156 20.113 19.096ZM23.3822 15.361H32.9566C32.8247 15.376 32.692 15.406 32.5601 15.429C31.8419 15.556 31.1304 15.7061 30.45 15.8711C29.8074 16.0211 29.1648 16.1861 28.5222 16.3661C27.9367 16.5391 27.3504 16.7191 26.7708 16.9141C26.2424 17.0941 25.7191 17.2811 25.1966 17.4911C24.7237 17.6711 24.2575 17.8661 23.798 18.0691C23.6149 18.1511 23.4326 18.234 23.263 18.316C23.5015 17.821 23.6216 17.266 23.6216 16.696C23.6216 16.224 23.5334 15.766 23.3822 15.361ZM40.7232 17.656C40.6098 17.784 40.4838 17.8811 40.3393 17.9561C40.2007 18.0161 40.0621 18.046 39.9235 18.046H34.9406C29.631 18.346 24.8942 19.149 20.8186 20.446C21.6308 19.944 22.696 19.359 24.0122 18.774C24.4717 18.571 24.932 18.384 25.3915 18.204C25.9022 18.001 26.4247 17.8141 26.9413 17.6341C27.5142 17.4461 28.0938 17.266 28.6675 17.101C29.3034 16.914 29.9334 16.756 30.576 16.606C31.2497 16.449 31.9494 16.2991 32.6542 16.1641C33.4043 16.0291 34.1662 15.909 34.9222 15.804C35.7218 15.699 36.5476 15.6011 37.3724 15.5341C38.0906 15.4661 39.0356 15.391 39.9806 15.361H39.9991C40.4586 15.361 40.9189 15.826 41.0256 16.411C41.0449 16.501 41.0508 16.599 41.0508 16.696C41.0508 17.049 40.9315 17.401 40.7232 17.656Z" fill="#333335"/>
<path d="M41.643 16.2461C41.4666 15.3241 40.7551 14.611 39.9991 14.611H39.9613H22.9975C22.6011 14.034 22.0408 13.614 21.4041 13.456C22.1164 13.006 22.6204 12.631 22.9228 12.391C22.9228 12.391 22.9287 12.3911 22.9354 12.3841C22.9665 12.3541 22.9916 12.331 23.0168 12.316C23.0294 12.301 23.0479 12.286 23.0672 12.264C23.1554 12.159 23.2495 12.0011 23.1932 11.8061L23.1739 11.7541C23.0992 11.5511 22.9102 11.4541 22.7212 11.5211C18.2675 13.2161 12.8814 14.251 6.72756 14.589H1.75729C1.54309 14.589 1.32888 14.641 1.11468 14.739C0.887877 14.844 0.687137 15.001 0.516617 15.204C0.189017 15.601 0 16.1411 0 16.6891C0 16.8391 0.0193276 16.989 0.0445276 17.139C0.214208 18.069 0.926532 18.766 1.68169 18.774H1.71948H18.6892C19.0865 19.366 19.6535 19.779 20.2835 19.929C19.5653 20.386 19.0613 20.761 18.7589 21.001C18.7589 21.001 18.7522 21.0011 18.7463 21.0091C18.7211 21.0391 18.6959 21.054 18.6707 21.076C18.664 21.084 18.6581 21.0841 18.6514 21.0911C18.5506 21.1961 18.4313 21.3691 18.4943 21.5861L18.5128 21.631C18.5699 21.796 18.7018 21.894 18.8471 21.894C18.8849 21.894 18.9227 21.8861 18.9605 21.8711C23.4201 20.1761 28.8053 19.141 34.9532 18.796H39.9235C40.1377 18.796 40.3578 18.751 40.572 18.654C40.7988 18.541 41.0004 18.3841 41.1709 18.1811C41.4985 17.7841 41.6808 17.251 41.6808 16.696C41.6808 16.546 41.6682 16.3961 41.643 16.2461ZM22.5002 17.4091L22.9732 17.019C22.9538 17.206 22.9102 17.3941 22.853 17.5741L22.5002 17.4091ZM22.7959 17.7541C22.759 17.8511 22.7145 17.956 22.6641 18.054C22.6263 18.121 22.5758 18.166 22.538 18.234L22.444 17.589L22.7959 17.7541ZM22.3491 17.304L21.9837 16.696L22.3491 16.096L22.9849 16.614C22.9849 16.644 22.9916 16.666 22.9916 16.696C22.9916 16.726 22.9849 16.756 22.9849 16.786L22.3491 17.304ZM18.7144 17.019L19.1873 17.4091L18.8404 17.596C18.7774 17.409 18.7337 17.221 18.7144 17.019ZM18.7018 16.786C18.6959 16.756 18.6959 16.726 18.6959 16.696C18.6959 16.666 18.7018 16.644 18.7018 16.614L19.3318 16.096L19.7039 16.696L19.3318 17.304L18.7018 16.786ZM19.1873 15.9911L18.7211 16.374C18.7396 16.186 18.7774 15.999 18.8345 15.826L19.1873 15.9911ZM18.8849 15.6461C18.9538 15.4661 19.042 15.3011 19.1428 15.1511L19.2436 15.8111L18.8849 15.6461ZM20.8438 15.346L20.333 14.904L20.7741 14.1461C20.7993 14.1461 20.8186 14.139 20.8438 14.139C20.869 14.139 20.8874 14.1461 20.9126 14.1461L21.3537 14.8961L20.8438 15.346ZM21.4041 15.0911L21.4797 15.6761L21.0008 15.4361L21.4041 15.0911ZM20.6858 15.4361L20.2079 15.669L20.2894 15.084L20.6858 15.4361ZM20.239 14.731L20.0819 14.3111C20.2331 14.2441 20.3961 14.199 20.5599 14.169L20.239 14.731ZM20.0878 14.799L19.5401 14.679C19.6594 14.566 19.7921 14.461 19.9366 14.386L20.0878 14.799ZM20.1314 15.001L20.0374 15.744L19.4141 15.856L19.2755 14.9561C19.3066 14.919 19.3444 14.8741 19.3763 14.8361L20.1314 15.001ZM19.9811 15.946L19.7795 16.5091L19.4897 16.036L19.9811 15.946ZM19.7795 16.891L19.9811 17.454L19.4897 17.364L19.7795 16.891ZM19.8862 16.696L20.1634 15.894L20.8438 15.5561L21.5174 15.894L21.8014 16.696L21.5174 17.506L20.8438 17.8361L20.1634 17.506L19.8862 16.696ZM21.9022 16.5091L21.7064 15.946L22.192 16.036L21.9022 16.5091ZM21.908 16.891L22.1978 17.364L21.7132 17.446L21.908 16.891ZM21.4797 17.731L21.3982 18.309L21.0008 17.964L21.4797 17.731ZM20.6858 17.9561L20.2835 18.309L20.2079 17.7241L20.6858 17.9561ZM20.8438 18.054L21.3537 18.4961L20.9194 19.239C20.8942 19.246 20.869 19.2541 20.8438 19.2541C20.8186 19.2541 20.7934 19.2461 20.7682 19.2461L20.333 18.5041L20.8438 18.054ZM21.4486 18.669L21.5998 19.0741C21.4486 19.1411 21.2974 19.186 21.1336 19.209L21.4486 18.669ZM21.593 18.601L22.1349 18.714C22.0089 18.826 21.8829 18.924 21.7443 18.999L21.593 18.601ZM21.5494 18.399L21.6502 17.656L22.2735 17.544L22.4062 18.429C22.3743 18.466 22.3432 18.5191 22.3112 18.5641L21.5494 18.399ZM22.5002 15.9911L22.8472 15.804C22.9034 15.984 22.9413 16.1711 22.9606 16.3661L22.5002 15.9911ZM22.5439 15.1511C22.6389 15.2941 22.7203 15.451 22.7842 15.624L22.444 15.804L22.5439 15.1511ZM22.412 14.9561L22.2735 15.856L21.6502 15.736L21.5494 15.001L22.3112 14.8361C22.3432 14.8741 22.3742 14.919 22.412 14.9561ZM21.7258 14.3711C21.877 14.4541 22.0156 14.559 22.1474 14.679L21.5872 14.799L21.7258 14.3711ZM21.5746 14.296L21.4418 14.7241L21.1143 14.169C21.2781 14.191 21.4293 14.236 21.5746 14.296ZM1.68169 18.024C1.21549 18.009 0.768615 17.566 0.661095 16.981C0.642615 16.884 0.63 16.7861 0.63 16.6891C0.63 16.3361 0.756003 15.991 0.963483 15.736C1.071 15.601 1.19701 15.5041 1.34149 15.4361C1.48009 15.3761 1.61869 15.339 1.75729 15.339H6.74605C12.0498 15.046 16.7933 14.244 20.8622 12.946C20.05 13.449 18.9916 14.026 17.6686 14.611C17.215 14.814 16.7555 15.0091 16.296 15.1891C15.7794 15.3911 15.2628 15.579 14.7395 15.751C14.1666 15.946 13.5937 16.126 13.0141 16.291C12.3841 16.471 11.7474 16.636 11.1115 16.786C10.4378 16.944 9.73812 17.094 9.02664 17.221C8.29584 17.356 7.53397 17.484 6.76537 17.589C5.95897 17.694 5.13996 17.784 4.30836 17.859C3.59688 17.919 2.65861 17.994 1.70689 18.024H1.68169ZM8.78052 18.024C8.89476 18.009 9.01404 17.986 9.12744 17.964C9.84564 17.829 10.5512 17.6791 11.2316 17.5211C11.8801 17.3711 12.5227 17.206 13.1653 17.019C13.7508 16.854 14.3304 16.6741 14.91 16.4791C15.4392 16.2991 15.9684 16.1041 16.4909 15.9011C16.9571 15.7141 17.4233 15.519 17.8895 15.316C18.0718 15.234 18.2549 15.1511 18.4246 15.0691C18.1978 15.5491 18.0659 16.111 18.0659 16.696C18.0659 17.161 18.1474 17.611 18.2986 18.024H8.78052ZM19.1428 18.249C19.105 18.181 19.0613 18.114 19.0235 18.046C18.979 17.956 18.9353 17.8661 18.9034 17.7761L19.2436 17.596L19.1428 18.249ZM19.2755 18.4361L19.4141 17.544L20.0374 17.6641L20.1314 18.399L19.3822 18.5641C19.3444 18.5191 19.3133 18.4741 19.2755 18.4361ZM19.9618 19.0211C19.8106 18.9391 19.672 18.841 19.5401 18.721L20.0945 18.601L19.9618 19.0211ZM20.113 19.096L20.2457 18.6761L20.5724 19.231C20.4154 19.209 20.2583 19.156 20.113 19.096ZM23.3822 15.361H32.9566C32.8247 15.376 32.692 15.406 32.5601 15.429C31.8419 15.556 31.1304 15.7061 30.45 15.8711C29.8074 16.0211 29.1648 16.1861 28.5222 16.3661C27.9367 16.5391 27.3504 16.7191 26.7708 16.9141C26.2424 17.0941 25.7191 17.2811 25.1966 17.4911C24.7237 17.6711 24.2575 17.8661 23.798 18.0691C23.6149 18.1511 23.4326 18.234 23.263 18.316C23.5015 17.821 23.6216 17.266 23.6216 16.696C23.6216 16.224 23.5334 15.766 23.3822 15.361ZM40.7232 17.656C40.6098 17.784 40.4838 17.8811 40.3393 17.9561C40.2007 18.0161 40.0621 18.046 39.9235 18.046H34.9406C29.631 18.346 24.8942 19.149 20.8186 20.446C21.6308 19.944 22.696 19.359 24.0122 18.774C24.4717 18.571 24.932 18.384 25.3915 18.204C25.9022 18.001 26.4247 17.8141 26.9413 17.6341C27.5142 17.4461 28.0938 17.266 28.6675 17.101C29.3034 16.914 29.9334 16.756 30.576 16.606C31.2497 16.449 31.9494 16.2991 32.6542 16.1641C33.4043 16.0291 34.1662 15.909 34.9222 15.804C35.7218 15.699 36.5476 15.6011 37.3724 15.5341C38.0906 15.4661 39.0356 15.391 39.9806 15.361H39.9991C40.4586 15.361 40.9189 15.826 41.0256 16.411C41.0449 16.501 41.0508 16.599 41.0508 16.696C41.0508 17.049 40.9315 17.401 40.7232 17.656Z" fill="black" fill-opacity="0.2"/>
<path d="M41.643 16.2461C41.4666 15.3241 40.7551 14.611 39.9991 14.611H39.9613H22.9975C22.6011 14.034 22.0408 13.614 21.4041 13.456C22.1164 13.006 22.6204 12.631 22.9228 12.391C22.9228 12.391 22.9287 12.3911 22.9354 12.3841C22.9665 12.3541 22.9916 12.331 23.0168 12.316C23.0294 12.301 23.0479 12.286 23.0672 12.264C23.1554 12.159 23.2495 12.0011 23.1932 11.8061L23.1739 11.7541C23.0992 11.5511 22.9102 11.4541 22.7212 11.5211C18.2675 13.2161 12.8814 14.251 6.72756 14.589H1.75729C1.54309 14.589 1.32888 14.641 1.11468 14.739C0.887877 14.844 0.687137 15.001 0.516617 15.204C0.189017 15.601 0 16.1411 0 16.6891C0 16.8391 0.0193276 16.989 0.0445276 17.139C0.214208 18.069 0.926532 18.766 1.68169 18.774H1.71948H18.6892C19.0865 19.366 19.6535 19.779 20.2835 19.929C19.5653 20.386 19.0613 20.761 18.7589 21.001C18.7589 21.001 18.7522 21.0011 18.7463 21.0091C18.7211 21.0391 18.6959 21.054 18.6707 21.076C18.664 21.084 18.6581 21.0841 18.6514 21.0911C18.5506 21.1961 18.4313 21.3691 18.4943 21.5861L18.5128 21.631C18.5699 21.796 18.7018 21.894 18.8471 21.894C18.8849 21.894 18.9227 21.8861 18.9605 21.8711C23.4201 20.1761 28.8053 19.141 34.9532 18.796H39.9235C40.1377 18.796 40.3578 18.751 40.572 18.654C40.7988 18.541 41.0004 18.3841 41.1709 18.1811C41.4985 17.7841 41.6808 17.251 41.6808 16.696C41.6808 16.546 41.6682 16.3961 41.643 16.2461ZM22.5002 17.4091L22.9732 17.019C22.9538 17.206 22.9102 17.3941 22.853 17.5741L22.5002 17.4091ZM22.7959 17.7541C22.759 17.8511 22.7145 17.956 22.6641 18.054C22.6263 18.121 22.5758 18.166 22.538 18.234L22.444 17.589L22.7959 17.7541ZM22.3491 17.304L21.9837 16.696L22.3491 16.096L22.9849 16.614C22.9849 16.644 22.9916 16.666 22.9916 16.696C22.9916 16.726 22.9849 16.756 22.9849 16.786L22.3491 17.304ZM18.7144 17.019L19.1873 17.4091L18.8404 17.596C18.7774 17.409 18.7337 17.221 18.7144 17.019ZM18.7018 16.786C18.6959 16.756 18.6959 16.726 18.6959 16.696C18.6959 16.666 18.7018 16.644 18.7018 16.614L19.3318 16.096L19.7039 16.696L19.3318 17.304L18.7018 16.786ZM19.1873 15.9911L18.7211 16.374C18.7396 16.186 18.7774 15.999 18.8345 15.826L19.1873 15.9911ZM18.8849 15.6461C18.9538 15.4661 19.042 15.3011 19.1428 15.1511L19.2436 15.8111L18.8849 15.6461ZM20.8438 15.346L20.333 14.904L20.7741 14.1461C20.7993 14.1461 20.8186 14.139 20.8438 14.139C20.869 14.139 20.8874 14.1461 20.9126 14.1461L21.3537 14.8961L20.8438 15.346ZM21.4041 15.0911L21.4797 15.6761L21.0008 15.4361L21.4041 15.0911ZM20.6858 15.4361L20.2079 15.669L20.2894 15.084L20.6858 15.4361ZM20.239 14.731L20.0819 14.3111C20.2331 14.2441 20.3961 14.199 20.5599 14.169L20.239 14.731ZM20.0878 14.799L19.5401 14.679C19.6594 14.566 19.7921 14.461 19.9366 14.386L20.0878 14.799ZM20.1314 15.001L20.0374 15.744L19.4141 15.856L19.2755 14.9561C19.3066 14.919 19.3444 14.8741 19.3763 14.8361L20.1314 15.001ZM19.9811 15.946L19.7795 16.5091L19.4897 16.036L19.9811 15.946ZM19.7795 16.891L19.9811 17.454L19.4897 17.364L19.7795 16.891ZM19.8862 16.696L20.1634 15.894L20.8438 15.5561L21.5174 15.894L21.8014 16.696L21.5174 17.506L20.8438 17.8361L20.1634 17.506L19.8862 16.696ZM21.9022 16.5091L21.7064 15.946L22.192 16.036L21.9022 16.5091ZM21.908 16.891L22.1978 17.364L21.7132 17.446L21.908 16.891ZM21.4797 17.731L21.3982 18.309L21.0008 17.964L21.4797 17.731ZM20.6858 17.9561L20.2835 18.309L20.2079 17.7241L20.6858 17.9561ZM20.8438 18.054L21.3537 18.4961L20.9194 19.239C20.8942 19.246 20.869 19.2541 20.8438 19.2541C20.8186 19.2541 20.7934 19.2461 20.7682 19.2461L20.333 18.5041L20.8438 18.054ZM21.4486 18.669L21.5998 19.0741C21.4486 19.1411 21.2974 19.186 21.1336 19.209L21.4486 18.669ZM21.593 18.601L22.1349 18.714C22.0089 18.826 21.8829 18.924 21.7443 18.999L21.593 18.601ZM21.5494 18.399L21.6502 17.656L22.2735 17.544L22.4062 18.429C22.3743 18.466 22.3432 18.5191 22.3112 18.5641L21.5494 18.399ZM22.5002 15.9911L22.8472 15.804C22.9034 15.984 22.9413 16.1711 22.9606 16.3661L22.5002 15.9911ZM22.5439 15.1511C22.6389 15.2941 22.7203 15.451 22.7842 15.624L22.444 15.804L22.5439 15.1511ZM22.412 14.9561L22.2735 15.856L21.6502 15.736L21.5494 15.001L22.3112 14.8361C22.3432 14.8741 22.3742 14.919 22.412 14.9561ZM21.7258 14.3711C21.877 14.4541 22.0156 14.559 22.1474 14.679L21.5872 14.799L21.7258 14.3711ZM21.5746 14.296L21.4418 14.7241L21.1143 14.169C21.2781 14.191 21.4293 14.236 21.5746 14.296ZM1.68169 18.024C1.21549 18.009 0.768615 17.566 0.661095 16.981C0.642615 16.884 0.63 16.7861 0.63 16.6891C0.63 16.3361 0.756003 15.991 0.963483 15.736C1.071 15.601 1.19701 15.5041 1.34149 15.4361C1.48009 15.3761 1.61869 15.339 1.75729 15.339H6.74605C12.0498 15.046 16.7933 14.244 20.8622 12.946C20.05 13.449 18.9916 14.026 17.6686 14.611C17.215 14.814 16.7555 15.0091 16.296 15.1891C15.7794 15.3911 15.2628 15.579 14.7395 15.751C14.1666 15.946 13.5937 16.126 13.0141 16.291C12.3841 16.471 11.7474 16.636 11.1115 16.786C10.4378 16.944 9.73812 17.094 9.02664 17.221C8.29584 17.356 7.53397 17.484 6.76537 17.589C5.95897 17.694 5.13996 17.784 4.30836 17.859C3.59688 17.919 2.65861 17.994 1.70689 18.024H1.68169ZM8.78052 18.024C8.89476 18.009 9.01404 17.986 9.12744 17.964C9.84564 17.829 10.5512 17.6791 11.2316 17.5211C11.8801 17.3711 12.5227 17.206 13.1653 17.019C13.7508 16.854 14.3304 16.6741 14.91 16.4791C15.4392 16.2991 15.9684 16.1041 16.4909 15.9011C16.9571 15.7141 17.4233 15.519 17.8895 15.316C18.0718 15.234 18.2549 15.1511 18.4246 15.0691C18.1978 15.5491 18.0659 16.111 18.0659 16.696C18.0659 17.161 18.1474 17.611 18.2986 18.024H8.78052ZM19.1428 18.249C19.105 18.181 19.0613 18.114 19.0235 18.046C18.979 17.956 18.9353 17.8661 18.9034 17.7761L19.2436 17.596L19.1428 18.249ZM19.2755 18.4361L19.4141 17.544L20.0374 17.6641L20.1314 18.399L19.3822 18.5641C19.3444 18.5191 19.3133 18.4741 19.2755 18.4361ZM19.9618 19.0211C19.8106 18.9391 19.672 18.841 19.5401 18.721L20.0945 18.601L19.9618 19.0211ZM20.113 19.096L20.2457 18.6761L20.5724 19.231C20.4154 19.209 20.2583 19.156 20.113 19.096ZM23.3822 15.361H32.9566C32.8247 15.376 32.692 15.406 32.5601 15.429C31.8419 15.556 31.1304 15.7061 30.45 15.8711C29.8074 16.0211 29.1648 16.1861 28.5222 16.3661C27.9367 16.5391 27.3504 16.7191 26.7708 16.9141C26.2424 17.0941 25.7191 17.2811 25.1966 17.4911C24.7237 17.6711 24.2575 17.8661 23.798 18.0691C23.6149 18.1511 23.4326 18.234 23.263 18.316C23.5015 17.821 23.6216 17.266 23.6216 16.696C23.6216 16.224 23.5334 15.766 23.3822 15.361ZM40.7232 17.656C40.6098 17.784 40.4838 17.8811 40.3393 17.9561C40.2007 18.0161 40.0621 18.046 39.9235 18.046H34.9406C29.631 18.346 24.8942 19.149 20.8186 20.446C21.6308 19.944 22.696 19.359 24.0122 18.774C24.4717 18.571 24.932 18.384 25.3915 18.204C25.9022 18.001 26.4247 17.8141 26.9413 17.6341C27.5142 17.4461 28.0938 17.266 28.6675 17.101C29.3034 16.914 29.9334 16.756 30.576 16.606C31.2497 16.449 31.9494 16.2991 32.6542 16.1641C33.4043 16.0291 34.1662 15.909 34.9222 15.804C35.7218 15.699 36.5476 15.6011 37.3724 15.5341C38.0906 15.4661 39.0356 15.391 39.9806 15.361H39.9991C40.4586 15.361 40.9189 15.826 41.0256 16.411C41.0449 16.501 41.0508 16.599 41.0508 16.696C41.0508 17.049 40.9315 17.401 40.7232 17.656Z" fill="black" fill-opacity="0.2"/>
<path d="M41.643 16.2461C41.4666 15.3241 40.7551 14.611 39.9991 14.611H39.9613H22.9975C22.6011 14.034 22.0408 13.614 21.4041 13.456C22.1164 13.006 22.6204 12.631 22.9228 12.391C22.9228 12.391 22.9287 12.3911 22.9354 12.3841C22.9665 12.3541 22.9916 12.331 23.0168 12.316C23.0294 12.301 23.0479 12.286 23.0672 12.264C23.1554 12.159 23.2495 12.0011 23.1932 11.8061L23.1739 11.7541C23.0992 11.5511 22.9102 11.4541 22.7212 11.5211C18.2675 13.2161 12.8814 14.251 6.72756 14.589H1.75729C1.54309 14.589 1.32888 14.641 1.11468 14.739C0.887877 14.844 0.687137 15.001 0.516617 15.204C0.189017 15.601 0 16.1411 0 16.6891C0 16.8391 0.0193276 16.989 0.0445276 17.139C0.214208 18.069 0.926532 18.766 1.68169 18.774H1.71948H18.6892C19.0865 19.366 19.6535 19.779 20.2835 19.929C19.5653 20.386 19.0613 20.761 18.7589 21.001C18.7589 21.001 18.7522 21.0011 18.7463 21.0091C18.7211 21.0391 18.6959 21.054 18.6707 21.076C18.664 21.084 18.6581 21.0841 18.6514 21.0911C18.5506 21.1961 18.4313 21.3691 18.4943 21.5861L18.5128 21.631C18.5699 21.796 18.7018 21.894 18.8471 21.894C18.8849 21.894 18.9227 21.8861 18.9605 21.8711C23.4201 20.1761 28.8053 19.141 34.9532 18.796H39.9235C40.1377 18.796 40.3578 18.751 40.572 18.654C40.7988 18.541 41.0004 18.3841 41.1709 18.1811C41.4985 17.7841 41.6808 17.251 41.6808 16.696C41.6808 16.546 41.6682 16.3961 41.643 16.2461ZM22.5002 17.4091L22.9732 17.019C22.9538 17.206 22.9102 17.3941 22.853 17.5741L22.5002 17.4091ZM22.7959 17.7541C22.759 17.8511 22.7145 17.956 22.6641 18.054C22.6263 18.121 22.5758 18.166 22.538 18.234L22.444 17.589L22.7959 17.7541ZM22.3491 17.304L21.9837 16.696L22.3491 16.096L22.9849 16.614C22.9849 16.644 22.9916 16.666 22.9916 16.696C22.9916 16.726 22.9849 16.756 22.9849 16.786L22.3491 17.304ZM18.7144 17.019L19.1873 17.4091L18.8404 17.596C18.7774 17.409 18.7337 17.221 18.7144 17.019ZM18.7018 16.786C18.6959 16.756 18.6959 16.726 18.6959 16.696C18.6959 16.666 18.7018 16.644 18.7018 16.614L19.3318 16.096L19.7039 16.696L19.3318 17.304L18.7018 16.786ZM19.1873 15.9911L18.7211 16.374C18.7396 16.186 18.7774 15.999 18.8345 15.826L19.1873 15.9911ZM18.8849 15.6461C18.9538 15.4661 19.042 15.3011 19.1428 15.1511L19.2436 15.8111L18.8849 15.6461ZM20.8438 15.346L20.333 14.904L20.7741 14.1461C20.7993 14.1461 20.8186 14.139 20.8438 14.139C20.869 14.139 20.8874 14.1461 20.9126 14.1461L21.3537 14.8961L20.8438 15.346ZM21.4041 15.0911L21.4797 15.6761L21.0008 15.4361L21.4041 15.0911ZM20.6858 15.4361L20.2079 15.669L20.2894 15.084L20.6858 15.4361ZM20.239 14.731L20.0819 14.3111C20.2331 14.2441 20.3961 14.199 20.5599 14.169L20.239 14.731ZM20.0878 14.799L19.5401 14.679C19.6594 14.566 19.7921 14.461 19.9366 14.386L20.0878 14.799ZM20.1314 15.001L20.0374 15.744L19.4141 15.856L19.2755 14.9561C19.3066 14.919 19.3444 14.8741 19.3763 14.8361L20.1314 15.001ZM19.9811 15.946L19.7795 16.5091L19.4897 16.036L19.9811 15.946ZM19.7795 16.891L19.9811 17.454L19.4897 17.364L19.7795 16.891ZM19.8862 16.696L20.1634 15.894L20.8438 15.5561L21.5174 15.894L21.8014 16.696L21.5174 17.506L20.8438 17.8361L20.1634 17.506L19.8862 16.696ZM21.9022 16.5091L21.7064 15.946L22.192 16.036L21.9022 16.5091ZM21.908 16.891L22.1978 17.364L21.7132 17.446L21.908 16.891ZM21.4797 17.731L21.3982 18.309L21.0008 17.964L21.4797 17.731ZM20.6858 17.9561L20.2835 18.309L20.2079 17.7241L20.6858 17.9561ZM20.8438 18.054L21.3537 18.4961L20.9194 19.239C20.8942 19.246 20.869 19.2541 20.8438 19.2541C20.8186 19.2541 20.7934 19.2461 20.7682 19.2461L20.333 18.5041L20.8438 18.054ZM21.4486 18.669L21.5998 19.0741C21.4486 19.1411 21.2974 19.186 21.1336 19.209L21.4486 18.669ZM21.593 18.601L22.1349 18.714C22.0089 18.826 21.8829 18.924 21.7443 18.999L21.593 18.601ZM21.5494 18.399L21.6502 17.656L22.2735 17.544L22.4062 18.429C22.3743 18.466 22.3432 18.5191 22.3112 18.5641L21.5494 18.399ZM22.5002 15.9911L22.8472 15.804C22.9034 15.984 22.9413 16.1711 22.9606 16.3661L22.5002 15.9911ZM22.5439 15.1511C22.6389 15.2941 22.7203 15.451 22.7842 15.624L22.444 15.804L22.5439 15.1511ZM22.412 14.9561L22.2735 15.856L21.6502 15.736L21.5494 15.001L22.3112 14.8361C22.3432 14.8741 22.3742 14.919 22.412 14.9561ZM21.7258 14.3711C21.877 14.4541 22.0156 14.559 22.1474 14.679L21.5872 14.799L21.7258 14.3711ZM21.5746 14.296L21.4418 14.7241L21.1143 14.169C21.2781 14.191 21.4293 14.236 21.5746 14.296ZM1.68169 18.024C1.21549 18.009 0.768615 17.566 0.661095 16.981C0.642615 16.884 0.63 16.7861 0.63 16.6891C0.63 16.3361 0.756003 15.991 0.963483 15.736C1.071 15.601 1.19701 15.5041 1.34149 15.4361C1.48009 15.3761 1.61869 15.339 1.75729 15.339H6.74605C12.0498 15.046 16.7933 14.244 20.8622 12.946C20.05 13.449 18.9916 14.026 17.6686 14.611C17.215 14.814 16.7555 15.0091 16.296 15.1891C15.7794 15.3911 15.2628 15.579 14.7395 15.751C14.1666 15.946 13.5937 16.126 13.0141 16.291C12.3841 16.471 11.7474 16.636 11.1115 16.786C10.4378 16.944 9.73812 17.094 9.02664 17.221C8.29584 17.356 7.53397 17.484 6.76537 17.589C5.95897 17.694 5.13996 17.784 4.30836 17.859C3.59688 17.919 2.65861 17.994 1.70689 18.024H1.68169ZM8.78052 18.024C8.89476 18.009 9.01404 17.986 9.12744 17.964C9.84564 17.829 10.5512 17.6791 11.2316 17.5211C11.8801 17.3711 12.5227 17.206 13.1653 17.019C13.7508 16.854 14.3304 16.6741 14.91 16.4791C15.4392 16.2991 15.9684 16.1041 16.4909 15.9011C16.9571 15.7141 17.4233 15.519 17.8895 15.316C18.0718 15.234 18.2549 15.1511 18.4246 15.0691C18.1978 15.5491 18.0659 16.111 18.0659 16.696C18.0659 17.161 18.1474 17.611 18.2986 18.024H8.78052ZM19.1428 18.249C19.105 18.181 19.0613 18.114 19.0235 18.046C18.979 17.956 18.9353 17.8661 18.9034 17.7761L19.2436 17.596L19.1428 18.249ZM19.2755 18.4361L19.4141 17.544L20.0374 17.6641L20.1314 18.399L19.3822 18.5641C19.3444 18.5191 19.3133 18.4741 19.2755 18.4361ZM19.9618 19.0211C19.8106 18.9391 19.672 18.841 19.5401 18.721L20.0945 18.601L19.9618 19.0211ZM20.113 19.096L20.2457 18.6761L20.5724 19.231C20.4154 19.209 20.2583 19.156 20.113 19.096ZM23.3822 15.361H32.9566C32.8247 15.376 32.692 15.406 32.5601 15.429C31.8419 15.556 31.1304 15.7061 30.45 15.8711C29.8074 16.0211 29.1648 16.1861 28.5222 16.3661C27.9367 16.5391 27.3504 16.7191 26.7708 16.9141C26.2424 17.0941 25.7191 17.2811 25.1966 17.4911C24.7237 17.6711 24.2575 17.8661 23.798 18.0691C23.6149 18.1511 23.4326 18.234 23.263 18.316C23.5015 17.821 23.6216 17.266 23.6216 16.696C23.6216 16.224 23.5334 15.766 23.3822 15.361ZM40.7232 17.656C40.6098 17.784 40.4838 17.8811 40.3393 17.9561C40.2007 18.0161 40.0621 18.046 39.9235 18.046H34.9406C29.631 18.346 24.8942 19.149 20.8186 20.446C21.6308 19.944 22.696 19.359 24.0122 18.774C24.4717 18.571 24.932 18.384 25.3915 18.204C25.9022 18.001 26.4247 17.8141 26.9413 17.6341C27.5142 17.4461 28.0938 17.266 28.6675 17.101C29.3034 16.914 29.9334 16.756 30.576 16.606C31.2497 16.449 31.9494 16.2991 32.6542 16.1641C33.4043 16.0291 34.1662 15.909 34.9222 15.804C35.7218 15.699 36.5476 15.6011 37.3724 15.5341C38.0906 15.4661 39.0356 15.391 39.9806 15.361H39.9991C40.4586 15.361 40.9189 15.826 41.0256 16.411C41.0449 16.501 41.0508 16.599 41.0508 16.696C41.0508 17.049 40.9315 17.401 40.7232 17.656Z" fill="black" fill-opacity="0.2"/>
<path d="M41.643 16.2461C41.4666 15.3241 40.7551 14.611 39.9991 14.611H39.9613H22.9975C22.6011 14.034 22.0408 13.614 21.4041 13.456C22.1164 13.006 22.6204 12.631 22.9228 12.391C22.9228 12.391 22.9287 12.3911 22.9354 12.3841C22.9665 12.3541 22.9916 12.331 23.0168 12.316C23.0294 12.301 23.0479 12.286 23.0672 12.264C23.1554 12.159 23.2495 12.0011 23.1932 11.8061L23.1739 11.7541C23.0992 11.5511 22.9102 11.4541 22.7212 11.5211C18.2675 13.2161 12.8814 14.251 6.72756 14.589H1.75729C1.54309 14.589 1.32888 14.641 1.11468 14.739C0.887877 14.844 0.687137 15.001 0.516617 15.204C0.189017 15.601 0 16.1411 0 16.6891C0 16.8391 0.0193276 16.989 0.0445276 17.139C0.214208 18.069 0.926532 18.766 1.68169 18.774H1.71948H18.6892C19.0865 19.366 19.6535 19.779 20.2835 19.929C19.5653 20.386 19.0613 20.761 18.7589 21.001C18.7589 21.001 18.7522 21.0011 18.7463 21.0091C18.7211 21.0391 18.6959 21.054 18.6707 21.076C18.664 21.084 18.6581 21.0841 18.6514 21.0911C18.5506 21.1961 18.4313 21.3691 18.4943 21.5861L18.5128 21.631C18.5699 21.796 18.7018 21.894 18.8471 21.894C18.8849 21.894 18.9227 21.8861 18.9605 21.8711C23.4201 20.1761 28.8053 19.141 34.9532 18.796H39.9235C40.1377 18.796 40.3578 18.751 40.572 18.654C40.7988 18.541 41.0004 18.3841 41.1709 18.1811C41.4985 17.7841 41.6808 17.251 41.6808 16.696C41.6808 16.546 41.6682 16.3961 41.643 16.2461ZM22.5002 17.4091L22.9732 17.019C22.9538 17.206 22.9102 17.3941 22.853 17.5741L22.5002 17.4091ZM22.7959 17.7541C22.759 17.8511 22.7145 17.956 22.6641 18.054C22.6263 18.121 22.5758 18.166 22.538 18.234L22.444 17.589L22.7959 17.7541ZM22.3491 17.304L21.9837 16.696L22.3491 16.096L22.9849 16.614C22.9849 16.644 22.9916 16.666 22.9916 16.696C22.9916 16.726 22.9849 16.756 22.9849 16.786L22.3491 17.304ZM18.7144 17.019L19.1873 17.4091L18.8404 17.596C18.7774 17.409 18.7337 17.221 18.7144 17.019ZM18.7018 16.786C18.6959 16.756 18.6959 16.726 18.6959 16.696C18.6959 16.666 18.7018 16.644 18.7018 16.614L19.3318 16.096L19.7039 16.696L19.3318 17.304L18.7018 16.786ZM19.1873 15.9911L18.7211 16.374C18.7396 16.186 18.7774 15.999 18.8345 15.826L19.1873 15.9911ZM18.8849 15.6461C18.9538 15.4661 19.042 15.3011 19.1428 15.1511L19.2436 15.8111L18.8849 15.6461ZM20.8438 15.346L20.333 14.904L20.7741 14.1461C20.7993 14.1461 20.8186 14.139 20.8438 14.139C20.869 14.139 20.8874 14.1461 20.9126 14.1461L21.3537 14.8961L20.8438 15.346ZM21.4041 15.0911L21.4797 15.6761L21.0008 15.4361L21.4041 15.0911ZM20.6858 15.4361L20.2079 15.669L20.2894 15.084L20.6858 15.4361ZM20.239 14.731L20.0819 14.3111C20.2331 14.2441 20.3961 14.199 20.5599 14.169L20.239 14.731ZM20.0878 14.799L19.5401 14.679C19.6594 14.566 19.7921 14.461 19.9366 14.386L20.0878 14.799ZM20.1314 15.001L20.0374 15.744L19.4141 15.856L19.2755 14.9561C19.3066 14.919 19.3444 14.8741 19.3763 14.8361L20.1314 15.001ZM19.9811 15.946L19.7795 16.5091L19.4897 16.036L19.9811 15.946ZM19.7795 16.891L19.9811 17.454L19.4897 17.364L19.7795 16.891ZM19.8862 16.696L20.1634 15.894L20.8438 15.5561L21.5174 15.894L21.8014 16.696L21.5174 17.506L20.8438 17.8361L20.1634 17.506L19.8862 16.696ZM21.9022 16.5091L21.7064 15.946L22.192 16.036L21.9022 16.5091ZM21.908 16.891L22.1978 17.364L21.7132 17.446L21.908 16.891ZM21.4797 17.731L21.3982 18.309L21.0008 17.964L21.4797 17.731ZM20.6858 17.9561L20.2835 18.309L20.2079 17.7241L20.6858 17.9561ZM20.8438 18.054L21.3537 18.4961L20.9194 19.239C20.8942 19.246 20.869 19.2541 20.8438 19.2541C20.8186 19.2541 20.7934 19.2461 20.7682 19.2461L20.333 18.5041L20.8438 18.054ZM21.4486 18.669L21.5998 19.0741C21.4486 19.1411 21.2974 19.186 21.1336 19.209L21.4486 18.669ZM21.593 18.601L22.1349 18.714C22.0089 18.826 21.8829 18.924 21.7443 18.999L21.593 18.601ZM21.5494 18.399L21.6502 17.656L22.2735 17.544L22.4062 18.429C22.3743 18.466 22.3432 18.5191 22.3112 18.5641L21.5494 18.399ZM22.5002 15.9911L22.8472 15.804C22.9034 15.984 22.9413 16.1711 22.9606 16.3661L22.5002 15.9911ZM22.5439 15.1511C22.6389 15.2941 22.7203 15.451 22.7842 15.624L22.444 15.804L22.5439 15.1511ZM22.412 14.9561L22.2735 15.856L21.6502 15.736L21.5494 15.001L22.3112 14.8361C22.3432 14.8741 22.3742 14.919 22.412 14.9561ZM21.7258 14.3711C21.877 14.4541 22.0156 14.559 22.1474 14.679L21.5872 14.799L21.7258 14.3711ZM21.5746 14.296L21.4418 14.7241L21.1143 14.169C21.2781 14.191 21.4293 14.236 21.5746 14.296ZM1.68169 18.024C1.21549 18.009 0.768615 17.566 0.661095 16.981C0.642615 16.884 0.63 16.7861 0.63 16.6891C0.63 16.3361 0.756003 15.991 0.963483 15.736C1.071 15.601 1.19701 15.5041 1.34149 15.4361C1.48009 15.3761 1.61869 15.339 1.75729 15.339H6.74605C12.0498 15.046 16.7933 14.244 20.8622 12.946C20.05 13.449 18.9916 14.026 17.6686 14.611C17.215 14.814 16.7555 15.0091 16.296 15.1891C15.7794 15.3911 15.2628 15.579 14.7395 15.751C14.1666 15.946 13.5937 16.126 13.0141 16.291C12.3841 16.471 11.7474 16.636 11.1115 16.786C10.4378 16.944 9.73812 17.094 9.02664 17.221C8.29584 17.356 7.53397 17.484 6.76537 17.589C5.95897 17.694 5.13996 17.784 4.30836 17.859C3.59688 17.919 2.65861 17.994 1.70689 18.024H1.68169ZM8.78052 18.024C8.89476 18.009 9.01404 17.986 9.12744 17.964C9.84564 17.829 10.5512 17.6791 11.2316 17.5211C11.8801 17.3711 12.5227 17.206 13.1653 17.019C13.7508 16.854 14.3304 16.6741 14.91 16.4791C15.4392 16.2991 15.9684 16.1041 16.4909 15.9011C16.9571 15.7141 17.4233 15.519 17.8895 15.316C18.0718 15.234 18.2549 15.1511 18.4246 15.0691C18.1978 15.5491 18.0659 16.111 18.0659 16.696C18.0659 17.161 18.1474 17.611 18.2986 18.024H8.78052ZM19.1428 18.249C19.105 18.181 19.0613 18.114 19.0235 18.046C18.979 17.956 18.9353 17.8661 18.9034 17.7761L19.2436 17.596L19.1428 18.249ZM19.2755 18.4361L19.4141 17.544L20.0374 17.6641L20.1314 18.399L19.3822 18.5641C19.3444 18.5191 19.3133 18.4741 19.2755 18.4361ZM19.9618 19.0211C19.8106 18.9391 19.672 18.841 19.5401 18.721L20.0945 18.601L19.9618 19.0211ZM20.113 19.096L20.2457 18.6761L20.5724 19.231C20.4154 19.209 20.2583 19.156 20.113 19.096ZM23.3822 15.361H32.9566C32.8247 15.376 32.692 15.406 32.5601 15.429C31.8419 15.556 31.1304 15.7061 30.45 15.8711C29.8074 16.0211 29.1648 16.1861 28.5222 16.3661C27.9367 16.5391 27.3504 16.7191 26.7708 16.9141C26.2424 17.0941 25.7191 17.2811 25.1966 17.4911C24.7237 17.6711 24.2575 17.8661 23.798 18.0691C23.6149 18.1511 23.4326 18.234 23.263 18.316C23.5015 17.821 23.6216 17.266 23.6216 16.696C23.6216 16.224 23.5334 15.766 23.3822 15.361ZM40.7232 17.656C40.6098 17.784 40.4838 17.8811 40.3393 17.9561C40.2007 18.0161 40.0621 18.046 39.9235 18.046H34.9406C29.631 18.346 24.8942 19.149 20.8186 20.446C21.6308 19.944 22.696 19.359 24.0122 18.774C24.4717 18.571 24.932 18.384 25.3915 18.204C25.9022 18.001 26.4247 17.8141 26.9413 17.6341C27.5142 17.4461 28.0938 17.266 28.6675 17.101C29.3034 16.914 29.9334 16.756 30.576 16.606C31.2497 16.449 31.9494 16.2991 32.6542 16.1641C33.4043 16.0291 34.1662 15.909 34.9222 15.804C35.7218 15.699 36.5476 15.6011 37.3724 15.5341C38.0906 15.4661 39.0356 15.391 39.9806 15.361H39.9991C40.4586 15.361 40.9189 15.826 41.0256 16.411C41.0449 16.501 41.0508 16.599 41.0508 16.696C41.0508 17.049 40.9315 17.401 40.7232 17.656Z" fill="black" fill-opacity="0.2"/>
<path d="M41.643 16.2461C41.4666 15.3241 40.7551 14.611 39.9991 14.611H39.9613H22.9975C22.6011 14.034 22.0408 13.614 21.4041 13.456C22.1164 13.006 22.6204 12.631 22.9228 12.391C22.9228 12.391 22.9287 12.3911 22.9354 12.3841C22.9665 12.3541 22.9916 12.331 23.0168 12.316C23.0294 12.301 23.0479 12.286 23.0672 12.264C23.1554 12.159 23.2495 12.0011 23.1932 11.8061L23.1739 11.7541C23.0992 11.5511 22.9102 11.4541 22.7212 11.5211C18.2675 13.2161 12.8814 14.251 6.72756 14.589H1.75729C1.54309 14.589 1.32888 14.641 1.11468 14.739C0.887877 14.844 0.687137 15.001 0.516617 15.204C0.189017 15.601 0 16.1411 0 16.6891C0 16.8391 0.0193276 16.989 0.0445276 17.139C0.214208 18.069 0.926532 18.766 1.68169 18.774H1.71948H18.6892C19.0865 19.366 19.6535 19.779 20.2835 19.929C19.5653 20.386 19.0613 20.761 18.7589 21.001C18.7589 21.001 18.7522 21.0011 18.7463 21.0091C18.7211 21.0391 18.6959 21.054 18.6707 21.076C18.664 21.084 18.6581 21.0841 18.6514 21.0911C18.5506 21.1961 18.4313 21.3691 18.4943 21.5861L18.5128 21.631C18.5699 21.796 18.7018 21.894 18.8471 21.894C18.8849 21.894 18.9227 21.8861 18.9605 21.8711C23.4201 20.1761 28.8053 19.141 34.9532 18.796H39.9235C40.1377 18.796 40.3578 18.751 40.572 18.654C40.7988 18.541 41.0004 18.3841 41.1709 18.1811C41.4985 17.7841 41.6808 17.251 41.6808 16.696C41.6808 16.546 41.6682 16.3961 41.643 16.2461ZM22.5002 17.4091L22.9732 17.019C22.9538 17.206 22.9102 17.3941 22.853 17.5741L22.5002 17.4091ZM22.7959 17.7541C22.759 17.8511 22.7145 17.956 22.6641 18.054C22.6263 18.121 22.5758 18.166 22.538 18.234L22.444 17.589L22.7959 17.7541ZM22.3491 17.304L21.9837 16.696L22.3491 16.096L22.9849 16.614C22.9849 16.644 22.9916 16.666 22.9916 16.696C22.9916 16.726 22.9849 16.756 22.9849 16.786L22.3491 17.304ZM18.7144 17.019L19.1873 17.4091L18.8404 17.596C18.7774 17.409 18.7337 17.221 18.7144 17.019ZM18.7018 16.786C18.6959 16.756 18.6959 16.726 18.6959 16.696C18.6959 16.666 18.7018 16.644 18.7018 16.614L19.3318 16.096L19.7039 16.696L19.3318 17.304L18.7018 16.786ZM19.1873 15.9911L18.7211 16.374C18.7396 16.186 18.7774 15.999 18.8345 15.826L19.1873 15.9911ZM18.8849 15.6461C18.9538 15.4661 19.042 15.3011 19.1428 15.1511L19.2436 15.8111L18.8849 15.6461ZM20.8438 15.346L20.333 14.904L20.7741 14.1461C20.7993 14.1461 20.8186 14.139 20.8438 14.139C20.869 14.139 20.8874 14.1461 20.9126 14.1461L21.3537 14.8961L20.8438 15.346ZM21.4041 15.0911L21.4797 15.6761L21.0008 15.4361L21.4041 15.0911ZM20.6858 15.4361L20.2079 15.669L20.2894 15.084L20.6858 15.4361ZM20.239 14.731L20.0819 14.3111C20.2331 14.2441 20.3961 14.199 20.5599 14.169L20.239 14.731ZM20.0878 14.799L19.5401 14.679C19.6594 14.566 19.7921 14.461 19.9366 14.386L20.0878 14.799ZM20.1314 15.001L20.0374 15.744L19.4141 15.856L19.2755 14.9561C19.3066 14.919 19.3444 14.8741 19.3763 14.8361L20.1314 15.001ZM19.9811 15.946L19.7795 16.5091L19.4897 16.036L19.9811 15.946ZM19.7795 16.891L19.9811 17.454L19.4897 17.364L19.7795 16.891ZM19.8862 16.696L20.1634 15.894L20.8438 15.5561L21.5174 15.894L21.8014 16.696L21.5174 17.506L20.8438 17.8361L20.1634 17.506L19.8862 16.696ZM21.9022 16.5091L21.7064 15.946L22.192 16.036L21.9022 16.5091ZM21.908 16.891L22.1978 17.364L21.7132 17.446L21.908 16.891ZM21.4797 17.731L21.3982 18.309L21.0008 17.964L21.4797 17.731ZM20.6858 17.9561L20.2835 18.309L20.2079 17.7241L20.6858 17.9561ZM20.8438 18.054L21.3537 18.4961L20.9194 19.239C20.8942 19.246 20.869 19.2541 20.8438 19.2541C20.8186 19.2541 20.7934 19.2461 20.7682 19.2461L20.333 18.5041L20.8438 18.054ZM21.4486 18.669L21.5998 19.0741C21.4486 19.1411 21.2974 19.186 21.1336 19.209L21.4486 18.669ZM21.593 18.601L22.1349 18.714C22.0089 18.826 21.8829 18.924 21.7443 18.999L21.593 18.601ZM21.5494 18.399L21.6502 17.656L22.2735 17.544L22.4062 18.429C22.3743 18.466 22.3432 18.5191 22.3112 18.5641L21.5494 18.399ZM22.5002 15.9911L22.8472 15.804C22.9034 15.984 22.9413 16.1711 22.9606 16.3661L22.5002 15.9911ZM22.5439 15.1511C22.6389 15.2941 22.7203 15.451 22.7842 15.624L22.444 15.804L22.5439 15.1511ZM22.412 14.9561L22.2735 15.856L21.6502 15.736L21.5494 15.001L22.3112 14.8361C22.3432 14.8741 22.3742 14.919 22.412 14.9561ZM21.7258 14.3711C21.877 14.4541 22.0156 14.559 22.1474 14.679L21.5872 14.799L21.7258 14.3711ZM21.5746 14.296L21.4418 14.7241L21.1143 14.169C21.2781 14.191 21.4293 14.236 21.5746 14.296ZM1.68169 18.024C1.21549 18.009 0.768615 17.566 0.661095 16.981C0.642615 16.884 0.63 16.7861 0.63 16.6891C0.63 16.3361 0.756003 15.991 0.963483 15.736C1.071 15.601 1.19701 15.5041 1.34149 15.4361C1.48009 15.3761 1.61869 15.339 1.75729 15.339H6.74605C12.0498 15.046 16.7933 14.244 20.8622 12.946C20.05 13.449 18.9916 14.026 17.6686 14.611C17.215 14.814 16.7555 15.0091 16.296 15.1891C15.7794 15.3911 15.2628 15.579 14.7395 15.751C14.1666 15.946 13.5937 16.126 13.0141 16.291C12.3841 16.471 11.7474 16.636 11.1115 16.786C10.4378 16.944 9.73812 17.094 9.02664 17.221C8.29584 17.356 7.53397 17.484 6.76537 17.589C5.95897 17.694 5.13996 17.784 4.30836 17.859C3.59688 17.919 2.65861 17.994 1.70689 18.024H1.68169ZM8.78052 18.024C8.89476 18.009 9.01404 17.986 9.12744 17.964C9.84564 17.829 10.5512 17.6791 11.2316 17.5211C11.8801 17.3711 12.5227 17.206 13.1653 17.019C13.7508 16.854 14.3304 16.6741 14.91 16.4791C15.4392 16.2991 15.9684 16.1041 16.4909 15.9011C16.9571 15.7141 17.4233 15.519 17.8895 15.316C18.0718 15.234 18.2549 15.1511 18.4246 15.0691C18.1978 15.5491 18.0659 16.111 18.0659 16.696C18.0659 17.161 18.1474 17.611 18.2986 18.024H8.78052ZM19.1428 18.249C19.105 18.181 19.0613 18.114 19.0235 18.046C18.979 17.956 18.9353 17.8661 18.9034 17.7761L19.2436 17.596L19.1428 18.249ZM19.2755 18.4361L19.4141 17.544L20.0374 17.6641L20.1314 18.399L19.3822 18.5641C19.3444 18.5191 19.3133 18.4741 19.2755 18.4361ZM19.9618 19.0211C19.8106 18.9391 19.672 18.841 19.5401 18.721L20.0945 18.601L19.9618 19.0211ZM20.113 19.096L20.2457 18.6761L20.5724 19.231C20.4154 19.209 20.2583 19.156 20.113 19.096ZM23.3822 15.361H32.9566C32.8247 15.376 32.692 15.406 32.5601 15.429C31.8419 15.556 31.1304 15.7061 30.45 15.8711C29.8074 16.0211 29.1648 16.1861 28.5222 16.3661C27.9367 16.5391 27.3504 16.7191 26.7708 16.9141C26.2424 17.0941 25.7191 17.2811 25.1966 17.4911C24.7237 17.6711 24.2575 17.8661 23.798 18.0691C23.6149 18.1511 23.4326 18.234 23.263 18.316C23.5015 17.821 23.6216 17.266 23.6216 16.696C23.6216 16.224 23.5334 15.766 23.3822 15.361ZM40.7232 17.656C40.6098 17.784 40.4838 17.8811 40.3393 17.9561C40.2007 18.0161 40.0621 18.046 39.9235 18.046H34.9406C29.631 18.346 24.8942 19.149 20.8186 20.446C21.6308 19.944 22.696 19.359 24.0122 18.774C24.4717 18.571 24.932 18.384 25.3915 18.204C25.9022 18.001 26.4247 17.8141 26.9413 17.6341C27.5142 17.4461 28.0938 17.266 28.6675 17.101C29.3034 16.914 29.9334 16.756 30.576 16.606C31.2497 16.449 31.9494 16.2991 32.6542 16.1641C33.4043 16.0291 34.1662 15.909 34.9222 15.804C35.7218 15.699 36.5476 15.6011 37.3724 15.5341C38.0906 15.4661 39.0356 15.391 39.9806 15.361H39.9991C40.4586 15.361 40.9189 15.826 41.0256 16.411C41.0449 16.501 41.0508 16.599 41.0508 16.696C41.0508 17.049 40.9315 17.401 40.7232 17.656Z" fill="black" fill-opacity="0.2"/>
<path d="M41.643 16.2461C41.4666 15.3241 40.7551 14.611 39.9991 14.611H39.9613H22.9975C22.6011 14.034 22.0408 13.614 21.4041 13.456C22.1164 13.006 22.6204 12.631 22.9228 12.391C22.9228 12.391 22.9287 12.3911 22.9354 12.3841C22.9665 12.3541 22.9916 12.331 23.0168 12.316C23.0294 12.301 23.0479 12.286 23.0672 12.264C23.1554 12.159 23.2495 12.0011 23.1932 11.8061L23.1739 11.7541C23.0992 11.5511 22.9102 11.4541 22.7212 11.5211C18.2675 13.2161 12.8814 14.251 6.72756 14.589H1.75729C1.54309 14.589 1.32888 14.641 1.11468 14.739C0.887877 14.844 0.687137 15.001 0.516617 15.204C0.189017 15.601 0 16.1411 0 16.6891C0 16.8391 0.0193276 16.989 0.0445276 17.139C0.214208 18.069 0.926532 18.766 1.68169 18.774H1.71948H18.6892C19.0865 19.366 19.6535 19.779 20.2835 19.929C19.5653 20.386 19.0613 20.761 18.7589 21.001C18.7589 21.001 18.7522 21.0011 18.7463 21.0091C18.7211 21.0391 18.6959 21.054 18.6707 21.076C18.664 21.084 18.6581 21.0841 18.6514 21.0911C18.5506 21.1961 18.4313 21.3691 18.4943 21.5861L18.5128 21.631C18.5699 21.796 18.7018 21.894 18.8471 21.894C18.8849 21.894 18.9227 21.8861 18.9605 21.8711C23.4201 20.1761 28.8053 19.141 34.9532 18.796H39.9235C40.1377 18.796 40.3578 18.751 40.572 18.654C40.7988 18.541 41.0004 18.3841 41.1709 18.1811C41.4985 17.7841 41.6808 17.251 41.6808 16.696C41.6808 16.546 41.6682 16.3961 41.643 16.2461ZM22.5002 17.4091L22.9732 17.019C22.9538 17.206 22.9102 17.3941 22.853 17.5741L22.5002 17.4091ZM22.7959 17.7541C22.759 17.8511 22.7145 17.956 22.6641 18.054C22.6263 18.121 22.5758 18.166 22.538 18.234L22.444 17.589L22.7959 17.7541ZM22.3491 17.304L21.9837 16.696L22.3491 16.096L22.9849 16.614C22.9849 16.644 22.9916 16.666 22.9916 16.696C22.9916 16.726 22.9849 16.756 22.9849 16.786L22.3491 17.304ZM18.7144 17.019L19.1873 17.4091L18.8404 17.596C18.7774 17.409 18.7337 17.221 18.7144 17.019ZM18.7018 16.786C18.6959 16.756 18.6959 16.726 18.6959 16.696C18.6959 16.666 18.7018 16.644 18.7018 16.614L19.3318 16.096L19.7039 16.696L19.3318 17.304L18.7018 16.786ZM19.1873 15.9911L18.7211 16.374C18.7396 16.186 18.7774 15.999 18.8345 15.826L19.1873 15.9911ZM18.8849 15.6461C18.9538 15.4661 19.042 15.3011 19.1428 15.1511L19.2436 15.8111L18.8849 15.6461ZM20.8438 15.346L20.333 14.904L20.7741 14.1461C20.7993 14.1461 20.8186 14.139 20.8438 14.139C20.869 14.139 20.8874 14.1461 20.9126 14.1461L21.3537 14.8961L20.8438 15.346ZM21.4041 15.0911L21.4797 15.6761L21.0008 15.4361L21.4041 15.0911ZM20.6858 15.4361L20.2079 15.669L20.2894 15.084L20.6858 15.4361ZM20.239 14.731L20.0819 14.3111C20.2331 14.2441 20.3961 14.199 20.5599 14.169L20.239 14.731ZM20.0878 14.799L19.5401 14.679C19.6594 14.566 19.7921 14.461 19.9366 14.386L20.0878 14.799ZM20.1314 15.001L20.0374 15.744L19.4141 15.856L19.2755 14.9561C19.3066 14.919 19.3444 14.8741 19.3763 14.8361L20.1314 15.001ZM19.9811 15.946L19.7795 16.5091L19.4897 16.036L19.9811 15.946ZM19.7795 16.891L19.9811 17.454L19.4897 17.364L19.7795 16.891ZM19.8862 16.696L20.1634 15.894L20.8438 15.5561L21.5174 15.894L21.8014 16.696L21.5174 17.506L20.8438 17.8361L20.1634 17.506L19.8862 16.696ZM21.9022 16.5091L21.7064 15.946L22.192 16.036L21.9022 16.5091ZM21.908 16.891L22.1978 17.364L21.7132 17.446L21.908 16.891ZM21.4797 17.731L21.3982 18.309L21.0008 17.964L21.4797 17.731ZM20.6858 17.9561L20.2835 18.309L20.2079 17.7241L20.6858 17.9561ZM20.8438 18.054L21.3537 18.4961L20.9194 19.239C20.8942 19.246 20.869 19.2541 20.8438 19.2541C20.8186 19.2541 20.7934 19.2461 20.7682 19.2461L20.333 18.5041L20.8438 18.054ZM21.4486 18.669L21.5998 19.0741C21.4486 19.1411 21.2974 19.186 21.1336 19.209L21.4486 18.669ZM21.593 18.601L22.1349 18.714C22.0089 18.826 21.8829 18.924 21.7443 18.999L21.593 18.601ZM21.5494 18.399L21.6502 17.656L22.2735 17.544L22.4062 18.429C22.3743 18.466 22.3432 18.5191 22.3112 18.5641L21.5494 18.399ZM22.5002 15.9911L22.8472 15.804C22.9034 15.984 22.9413 16.1711 22.9606 16.3661L22.5002 15.9911ZM22.5439 15.1511C22.6389 15.2941 22.7203 15.451 22.7842 15.624L22.444 15.804L22.5439 15.1511ZM22.412 14.9561L22.2735 15.856L21.6502 15.736L21.5494 15.001L22.3112 14.8361C22.3432 14.8741 22.3742 14.919 22.412 14.9561ZM21.7258 14.3711C21.877 14.4541 22.0156 14.559 22.1474 14.679L21.5872 14.799L21.7258 14.3711ZM21.5746 14.296L21.4418 14.7241L21.1143 14.169C21.2781 14.191 21.4293 14.236 21.5746 14.296ZM1.68169 18.024C1.21549 18.009 0.768615 17.566 0.661095 16.981C0.642615 16.884 0.63 16.7861 0.63 16.6891C0.63 16.3361 0.756003 15.991 0.963483 15.736C1.071 15.601 1.19701 15.5041 1.34149 15.4361C1.48009 15.3761 1.61869 15.339 1.75729 15.339H6.74605C12.0498 15.046 16.7933 14.244 20.8622 12.946C20.05 13.449 18.9916 14.026 17.6686 14.611C17.215 14.814 16.7555 15.0091 16.296 15.1891C15.7794 15.3911 15.2628 15.579 14.7395 15.751C14.1666 15.946 13.5937 16.126 13.0141 16.291C12.3841 16.471 11.7474 16.636 11.1115 16.786C10.4378 16.944 9.73812 17.094 9.02664 17.221C8.29584 17.356 7.53397 17.484 6.76537 17.589C5.95897 17.694 5.13996 17.784 4.30836 17.859C3.59688 17.919 2.65861 17.994 1.70689 18.024H1.68169ZM8.78052 18.024C8.89476 18.009 9.01404 17.986 9.12744 17.964C9.84564 17.829 10.5512 17.6791 11.2316 17.5211C11.8801 17.3711 12.5227 17.206 13.1653 17.019C13.7508 16.854 14.3304 16.6741 14.91 16.4791C15.4392 16.2991 15.9684 16.1041 16.4909 15.9011C16.9571 15.7141 17.4233 15.519 17.8895 15.316C18.0718 15.234 18.2549 15.1511 18.4246 15.0691C18.1978 15.5491 18.0659 16.111 18.0659 16.696C18.0659 17.161 18.1474 17.611 18.2986 18.024H8.78052ZM19.1428 18.249C19.105 18.181 19.0613 18.114 19.0235 18.046C18.979 17.956 18.9353 17.8661 18.9034 17.7761L19.2436 17.596L19.1428 18.249ZM19.2755 18.4361L19.4141 17.544L20.0374 17.6641L20.1314 18.399L19.3822 18.5641C19.3444 18.5191 19.3133 18.4741 19.2755 18.4361ZM19.9618 19.0211C19.8106 18.9391 19.672 18.841 19.5401 18.721L20.0945 18.601L19.9618 19.0211ZM20.113 19.096L20.2457 18.6761L20.5724 19.231C20.4154 19.209 20.2583 19.156 20.113 19.096ZM23.3822 15.361H32.9566C32.8247 15.376 32.692 15.406 32.5601 15.429C31.8419 15.556 31.1304 15.7061 30.45 15.8711C29.8074 16.0211 29.1648 16.1861 28.5222 16.3661C27.9367 16.5391 27.3504 16.7191 26.7708 16.9141C26.2424 17.0941 25.7191 17.2811 25.1966 17.4911C24.7237 17.6711 24.2575 17.8661 23.798 18.0691C23.6149 18.1511 23.4326 18.234 23.263 18.316C23.5015 17.821 23.6216 17.266 23.6216 16.696C23.6216 16.224 23.5334 15.766 23.3822 15.361ZM40.7232 17.656C40.6098 17.784 40.4838 17.8811 40.3393 17.9561C40.2007 18.0161 40.0621 18.046 39.9235 18.046H34.9406C29.631 18.346 24.8942 19.149 20.8186 20.446C21.6308 19.944 22.696 19.359 24.0122 18.774C24.4717 18.571 24.932 18.384 25.3915 18.204C25.9022 18.001 26.4247 17.8141 26.9413 17.6341C27.5142 17.4461 28.0938 17.266 28.6675 17.101C29.3034 16.914 29.9334 16.756 30.576 16.606C31.2497 16.449 31.9494 16.2991 32.6542 16.1641C33.4043 16.0291 34.1662 15.909 34.9222 15.804C35.7218 15.699 36.5476 15.6011 37.3724 15.5341C38.0906 15.4661 39.0356 15.391 39.9806 15.361H39.9991C40.4586 15.361 40.9189 15.826 41.0256 16.411C41.0449 16.501 41.0508 16.599 41.0508 16.696C41.0508 17.049 40.9315 17.401 40.7232 17.656Z" fill="black" fill-opacity="0.2"/>
<path d="M41.643 16.2461C41.4666 15.3241 40.7551 14.611 39.9991 14.611H39.9613H22.9975C22.6011 14.034 22.0408 13.614 21.4041 13.456C22.1164 13.006 22.6204 12.631 22.9228 12.391C22.9228 12.391 22.9287 12.3911 22.9354 12.3841C22.9665 12.3541 22.9916 12.331 23.0168 12.316C23.0294 12.301 23.0479 12.286 23.0672 12.264C23.1554 12.159 23.2495 12.0011 23.1932 11.8061L23.1739 11.7541C23.0992 11.5511 22.9102 11.4541 22.7212 11.5211C18.2675 13.2161 12.8814 14.251 6.72756 14.589H1.75729C1.54309 14.589 1.32888 14.641 1.11468 14.739C0.887877 14.844 0.687137 15.001 0.516617 15.204C0.189017 15.601 0 16.1411 0 16.6891C0 16.8391 0.0193276 16.989 0.0445276 17.139C0.214208 18.069 0.926532 18.766 1.68169 18.774H1.71948H18.6892C19.0865 19.366 19.6535 19.779 20.2835 19.929C19.5653 20.386 19.0613 20.761 18.7589 21.001C18.7589 21.001 18.7522 21.0011 18.7463 21.0091C18.7211 21.0391 18.6959 21.054 18.6707 21.076C18.664 21.084 18.6581 21.0841 18.6514 21.0911C18.5506 21.1961 18.4313 21.3691 18.4943 21.5861L18.5128 21.631C18.5699 21.796 18.7018 21.894 18.8471 21.894C18.8849 21.894 18.9227 21.8861 18.9605 21.8711C23.4201 20.1761 28.8053 19.141 34.9532 18.796H39.9235C40.1377 18.796 40.3578 18.751 40.572 18.654C40.7988 18.541 41.0004 18.3841 41.1709 18.1811C41.4985 17.7841 41.6808 17.251 41.6808 16.696C41.6808 16.546 41.6682 16.3961 41.643 16.2461ZM22.5002 17.4091L22.9732 17.019C22.9538 17.206 22.9102 17.3941 22.853 17.5741L22.5002 17.4091ZM22.7959 17.7541C22.759 17.8511 22.7145 17.956 22.6641 18.054C22.6263 18.121 22.5758 18.166 22.538 18.234L22.444 17.589L22.7959 17.7541ZM22.3491 17.304L21.9837 16.696L22.3491 16.096L22.9849 16.614C22.9849 16.644 22.9916 16.666 22.9916 16.696C22.9916 16.726 22.9849 16.756 22.9849 16.786L22.3491 17.304ZM18.7144 17.019L19.1873 17.4091L18.8404 17.596C18.7774 17.409 18.7337 17.221 18.7144 17.019ZM18.7018 16.786C18.6959 16.756 18.6959 16.726 18.6959 16.696C18.6959 16.666 18.7018 16.644 18.7018 16.614L19.3318 16.096L19.7039 16.696L19.3318 17.304L18.7018 16.786ZM19.1873 15.9911L18.7211 16.374C18.7396 16.186 18.7774 15.999 18.8345 15.826L19.1873 15.9911ZM18.8849 15.6461C18.9538 15.4661 19.042 15.3011 19.1428 15.1511L19.2436 15.8111L18.8849 15.6461ZM20.8438 15.346L20.333 14.904L20.7741 14.1461C20.7993 14.1461 20.8186 14.139 20.8438 14.139C20.869 14.139 20.8874 14.1461 20.9126 14.1461L21.3537 14.8961L20.8438 15.346ZM21.4041 15.0911L21.4797 15.6761L21.0008 15.4361L21.4041 15.0911ZM20.6858 15.4361L20.2079 15.669L20.2894 15.084L20.6858 15.4361ZM20.239 14.731L20.0819 14.3111C20.2331 14.2441 20.3961 14.199 20.5599 14.169L20.239 14.731ZM20.0878 14.799L19.5401 14.679C19.6594 14.566 19.7921 14.461 19.9366 14.386L20.0878 14.799ZM20.1314 15.001L20.0374 15.744L19.4141 15.856L19.2755 14.9561C19.3066 14.919 19.3444 14.8741 19.3763 14.8361L20.1314 15.001ZM19.9811 15.946L19.7795 16.5091L19.4897 16.036L19.9811 15.946ZM19.7795 16.891L19.9811 17.454L19.4897 17.364L19.7795 16.891ZM19.8862 16.696L20.1634 15.894L20.8438 15.5561L21.5174 15.894L21.8014 16.696L21.5174 17.506L20.8438 17.8361L20.1634 17.506L19.8862 16.696ZM21.9022 16.5091L21.7064 15.946L22.192 16.036L21.9022 16.5091ZM21.908 16.891L22.1978 17.364L21.7132 17.446L21.908 16.891ZM21.4797 17.731L21.3982 18.309L21.0008 17.964L21.4797 17.731ZM20.6858 17.9561L20.2835 18.309L20.2079 17.7241L20.6858 17.9561ZM20.8438 18.054L21.3537 18.4961L20.9194 19.239C20.8942 19.246 20.869 19.2541 20.8438 19.2541C20.8186 19.2541 20.7934 19.2461 20.7682 19.2461L20.333 18.5041L20.8438 18.054ZM21.4486 18.669L21.5998 19.0741C21.4486 19.1411 21.2974 19.186 21.1336 19.209L21.4486 18.669ZM21.593 18.601L22.1349 18.714C22.0089 18.826 21.8829 18.924 21.7443 18.999L21.593 18.601ZM21.5494 18.399L21.6502 17.656L22.2735 17.544L22.4062 18.429C22.3743 18.466 22.3432 18.5191 22.3112 18.5641L21.5494 18.399ZM22.5002 15.9911L22.8472 15.804C22.9034 15.984 22.9413 16.1711 22.9606 16.3661L22.5002 15.9911ZM22.5439 15.1511C22.6389 15.2941 22.7203 15.451 22.7842 15.624L22.444 15.804L22.5439 15.1511ZM22.412 14.9561L22.2735 15.856L21.6502 15.736L21.5494 15.001L22.3112 14.8361C22.3432 14.8741 22.3742 14.919 22.412 14.9561ZM21.7258 14.3711C21.877 14.4541 22.0156 14.559 22.1474 14.679L21.5872 14.799L21.7258 14.3711ZM21.5746 14.296L21.4418 14.7241L21.1143 14.169C21.2781 14.191 21.4293 14.236 21.5746 14.296ZM1.68169 18.024C1.21549 18.009 0.768615 17.566 0.661095 16.981C0.642615 16.884 0.63 16.7861 0.63 16.6891C0.63 16.3361 0.756003 15.991 0.963483 15.736C1.071 15.601 1.19701 15.5041 1.34149 15.4361C1.48009 15.3761 1.61869 15.339 1.75729 15.339H6.74605C12.0498 15.046 16.7933 14.244 20.8622 12.946C20.05 13.449 18.9916 14.026 17.6686 14.611C17.215 14.814 16.7555 15.0091 16.296 15.1891C15.7794 15.3911 15.2628 15.579 14.7395 15.751C14.1666 15.946 13.5937 16.126 13.0141 16.291C12.3841 16.471 11.7474 16.636 11.1115 16.786C10.4378 16.944 9.73812 17.094 9.02664 17.221C8.29584 17.356 7.53397 17.484 6.76537 17.589C5.95897 17.694 5.13996 17.784 4.30836 17.859C3.59688 17.919 2.65861 17.994 1.70689 18.024H1.68169ZM8.78052 18.024C8.89476 18.009 9.01404 17.986 9.12744 17.964C9.84564 17.829 10.5512 17.6791 11.2316 17.5211C11.8801 17.3711 12.5227 17.206 13.1653 17.019C13.7508 16.854 14.3304 16.6741 14.91 16.4791C15.4392 16.2991 15.9684 16.1041 16.4909 15.9011C16.9571 15.7141 17.4233 15.519 17.8895 15.316C18.0718 15.234 18.2549 15.1511 18.4246 15.0691C18.1978 15.5491 18.0659 16.111 18.0659 16.696C18.0659 17.161 18.1474 17.611 18.2986 18.024H8.78052ZM19.1428 18.249C19.105 18.181 19.0613 18.114 19.0235 18.046C18.979 17.956 18.9353 17.8661 18.9034 17.7761L19.2436 17.596L19.1428 18.249ZM19.2755 18.4361L19.4141 17.544L20.0374 17.6641L20.1314 18.399L19.3822 18.5641C19.3444 18.5191 19.3133 18.4741 19.2755 18.4361ZM19.9618 19.0211C19.8106 18.9391 19.672 18.841 19.5401 18.721L20.0945 18.601L19.9618 19.0211ZM20.113 19.096L20.2457 18.6761L20.5724 19.231C20.4154 19.209 20.2583 19.156 20.113 19.096ZM23.3822 15.361H32.9566C32.8247 15.376 32.692 15.406 32.5601 15.429C31.8419 15.556 31.1304 15.7061 30.45 15.8711C29.8074 16.0211 29.1648 16.1861 28.5222 16.3661C27.9367 16.5391 27.3504 16.7191 26.7708 16.9141C26.2424 17.0941 25.7191 17.2811 25.1966 17.4911C24.7237 17.6711 24.2575 17.8661 23.798 18.0691C23.6149 18.1511 23.4326 18.234 23.263 18.316C23.5015 17.821 23.6216 17.266 23.6216 16.696C23.6216 16.224 23.5334 15.766 23.3822 15.361ZM40.7232 17.656C40.6098 17.784 40.4838 17.8811 40.3393 17.9561C40.2007 18.0161 40.0621 18.046 39.9235 18.046H34.9406C29.631 18.346 24.8942 19.149 20.8186 20.446C21.6308 19.944 22.696 19.359 24.0122 18.774C24.4717 18.571 24.932 18.384 25.3915 18.204C25.9022 18.001 26.4247 17.8141 26.9413 17.6341C27.5142 17.4461 28.0938 17.266 28.6675 17.101C29.3034 16.914 29.9334 16.756 30.576 16.606C31.2497 16.449 31.9494 16.2991 32.6542 16.1641C33.4043 16.0291 34.1662 15.909 34.9222 15.804C35.7218 15.699 36.5476 15.6011 37.3724 15.5341C38.0906 15.4661 39.0356 15.391 39.9806 15.361H39.9991C40.4586 15.361 40.9189 15.826 41.0256 16.411C41.0449 16.501 41.0508 16.599 41.0508 16.696C41.0508 17.049 40.9315 17.401 40.7232 17.656Z" fill="black" fill-opacity="0.2"/>
<path d="M41.643 16.2461C41.4666 15.3241 40.7551 14.611 39.9991 14.611H39.9613H22.9975C22.6011 14.034 22.0408 13.614 21.4041 13.456C22.1164 13.006 22.6204 12.631 22.9228 12.391C22.9228 12.391 22.9287 12.3911 22.9354 12.3841C22.9665 12.3541 22.9916 12.331 23.0168 12.316C23.0294 12.301 23.0479 12.286 23.0672 12.264C23.1554 12.159 23.2495 12.0011 23.1932 11.8061L23.1739 11.7541C23.0992 11.5511 22.9102 11.4541 22.7212 11.5211C18.2675 13.2161 12.8814 14.251 6.72756 14.589H1.75729C1.54309 14.589 1.32888 14.641 1.11468 14.739C0.887877 14.844 0.687137 15.001 0.516617 15.204C0.189017 15.601 0 16.1411 0 16.6891C0 16.8391 0.0193276 16.989 0.0445276 17.139C0.214208 18.069 0.926532 18.766 1.68169 18.774H1.71948H18.6892C19.0865 19.366 19.6535 19.779 20.2835 19.929C19.5653 20.386 19.0613 20.761 18.7589 21.001C18.7589 21.001 18.7522 21.0011 18.7463 21.0091C18.7211 21.0391 18.6959 21.054 18.6707 21.076C18.664 21.084 18.6581 21.0841 18.6514 21.0911C18.5506 21.1961 18.4313 21.3691 18.4943 21.5861L18.5128 21.631C18.5699 21.796 18.7018 21.894 18.8471 21.894C18.8849 21.894 18.9227 21.8861 18.9605 21.8711C23.4201 20.1761 28.8053 19.141 34.9532 18.796H39.9235C40.1377 18.796 40.3578 18.751 40.572 18.654C40.7988 18.541 41.0004 18.3841 41.1709 18.1811C41.4985 17.7841 41.6808 17.251 41.6808 16.696C41.6808 16.546 41.6682 16.3961 41.643 16.2461ZM22.5002 17.4091L22.9732 17.019C22.9538 17.206 22.9102 17.3941 22.853 17.5741L22.5002 17.4091ZM22.7959 17.7541C22.759 17.8511 22.7145 17.956 22.6641 18.054C22.6263 18.121 22.5758 18.166 22.538 18.234L22.444 17.589L22.7959 17.7541ZM22.3491 17.304L21.9837 16.696L22.3491 16.096L22.9849 16.614C22.9849 16.644 22.9916 16.666 22.9916 16.696C22.9916 16.726 22.9849 16.756 22.9849 16.786L22.3491 17.304ZM18.7144 17.019L19.1873 17.4091L18.8404 17.596C18.7774 17.409 18.7337 17.221 18.7144 17.019ZM18.7018 16.786C18.6959 16.756 18.6959 16.726 18.6959 16.696C18.6959 16.666 18.7018 16.644 18.7018 16.614L19.3318 16.096L19.7039 16.696L19.3318 17.304L18.7018 16.786ZM19.1873 15.9911L18.7211 16.374C18.7396 16.186 18.7774 15.999 18.8345 15.826L19.1873 15.9911ZM18.8849 15.6461C18.9538 15.4661 19.042 15.3011 19.1428 15.1511L19.2436 15.8111L18.8849 15.6461ZM20.8438 15.346L20.333 14.904L20.7741 14.1461C20.7993 14.1461 20.8186 14.139 20.8438 14.139C20.869 14.139 20.8874 14.1461 20.9126 14.1461L21.3537 14.8961L20.8438 15.346ZM21.4041 15.0911L21.4797 15.6761L21.0008 15.4361L21.4041 15.0911ZM20.6858 15.4361L20.2079 15.669L20.2894 15.084L20.6858 15.4361ZM20.239 14.731L20.0819 14.3111C20.2331 14.2441 20.3961 14.199 20.5599 14.169L20.239 14.731ZM20.0878 14.799L19.5401 14.679C19.6594 14.566 19.7921 14.461 19.9366 14.386L20.0878 14.799ZM20.1314 15.001L20.0374 15.744L19.4141 15.856L19.2755 14.9561C19.3066 14.919 19.3444 14.8741 19.3763 14.8361L20.1314 15.001ZM19.9811 15.946L19.7795 16.5091L19.4897 16.036L19.9811 15.946ZM19.7795 16.891L19.9811 17.454L19.4897 17.364L19.7795 16.891ZM19.8862 16.696L20.1634 15.894L20.8438 15.5561L21.5174 15.894L21.8014 16.696L21.5174 17.506L20.8438 17.8361L20.1634 17.506L19.8862 16.696ZM21.9022 16.5091L21.7064 15.946L22.192 16.036L21.9022 16.5091ZM21.908 16.891L22.1978 17.364L21.7132 17.446L21.908 16.891ZM21.4797 17.731L21.3982 18.309L21.0008 17.964L21.4797 17.731ZM20.6858 17.9561L20.2835 18.309L20.2079 17.7241L20.6858 17.9561ZM20.8438 18.054L21.3537 18.4961L20.9194 19.239C20.8942 19.246 20.869 19.2541 20.8438 19.2541C20.8186 19.2541 20.7934 19.2461 20.7682 19.2461L20.333 18.5041L20.8438 18.054ZM21.4486 18.669L21.5998 19.0741C21.4486 19.1411 21.2974 19.186 21.1336 19.209L21.4486 18.669ZM21.593 18.601L22.1349 18.714C22.0089 18.826 21.8829 18.924 21.7443 18.999L21.593 18.601ZM21.5494 18.399L21.6502 17.656L22.2735 17.544L22.4062 18.429C22.3743 18.466 22.3432 18.5191 22.3112 18.5641L21.5494 18.399ZM22.5002 15.9911L22.8472 15.804C22.9034 15.984 22.9413 16.1711 22.9606 16.3661L22.5002 15.9911ZM22.5439 15.1511C22.6389 15.2941 22.7203 15.451 22.7842 15.624L22.444 15.804L22.5439 15.1511ZM22.412 14.9561L22.2735 15.856L21.6502 15.736L21.5494 15.001L22.3112 14.8361C22.3432 14.8741 22.3742 14.919 22.412 14.9561ZM21.7258 14.3711C21.877 14.4541 22.0156 14.559 22.1474 14.679L21.5872 14.799L21.7258 14.3711ZM21.5746 14.296L21.4418 14.7241L21.1143 14.169C21.2781 14.191 21.4293 14.236 21.5746 14.296ZM1.68169 18.024C1.21549 18.009 0.768615 17.566 0.661095 16.981C0.642615 16.884 0.63 16.7861 0.63 16.6891C0.63 16.3361 0.756003 15.991 0.963483 15.736C1.071 15.601 1.19701 15.5041 1.34149 15.4361C1.48009 15.3761 1.61869 15.339 1.75729 15.339H6.74605C12.0498 15.046 16.7933 14.244 20.8622 12.946C20.05 13.449 18.9916 14.026 17.6686 14.611C17.215 14.814 16.7555 15.0091 16.296 15.1891C15.7794 15.3911 15.2628 15.579 14.7395 15.751C14.1666 15.946 13.5937 16.126 13.0141 16.291C12.3841 16.471 11.7474 16.636 11.1115 16.786C10.4378 16.944 9.73812 17.094 9.02664 17.221C8.29584 17.356 7.53397 17.484 6.76537 17.589C5.95897 17.694 5.13996 17.784 4.30836 17.859C3.59688 17.919 2.65861 17.994 1.70689 18.024H1.68169ZM8.78052 18.024C8.89476 18.009 9.01404 17.986 9.12744 17.964C9.84564 17.829 10.5512 17.6791 11.2316 17.5211C11.8801 17.3711 12.5227 17.206 13.1653 17.019C13.7508 16.854 14.3304 16.6741 14.91 16.4791C15.4392 16.2991 15.9684 16.1041 16.4909 15.9011C16.9571 15.7141 17.4233 15.519 17.8895 15.316C18.0718 15.234 18.2549 15.1511 18.4246 15.0691C18.1978 15.5491 18.0659 16.111 18.0659 16.696C18.0659 17.161 18.1474 17.611 18.2986 18.024H8.78052ZM19.1428 18.249C19.105 18.181 19.0613 18.114 19.0235 18.046C18.979 17.956 18.9353 17.8661 18.9034 17.7761L19.2436 17.596L19.1428 18.249ZM19.2755 18.4361L19.4141 17.544L20.0374 17.6641L20.1314 18.399L19.3822 18.5641C19.3444 18.5191 19.3133 18.4741 19.2755 18.4361ZM19.9618 19.0211C19.8106 18.9391 19.672 18.841 19.5401 18.721L20.0945 18.601L19.9618 19.0211ZM20.113 19.096L20.2457 18.6761L20.5724 19.231C20.4154 19.209 20.2583 19.156 20.113 19.096ZM23.3822 15.361H32.9566C32.8247 15.376 32.692 15.406 32.5601 15.429C31.8419 15.556 31.1304 15.7061 30.45 15.8711C29.8074 16.0211 29.1648 16.1861 28.5222 16.3661C27.9367 16.5391 27.3504 16.7191 26.7708 16.9141C26.2424 17.0941 25.7191 17.2811 25.1966 17.4911C24.7237 17.6711 24.2575 17.8661 23.798 18.0691C23.6149 18.1511 23.4326 18.234 23.263 18.316C23.5015 17.821 23.6216 17.266 23.6216 16.696C23.6216 16.224 23.5334 15.766 23.3822 15.361ZM40.7232 17.656C40.6098 17.784 40.4838 17.8811 40.3393 17.9561C40.2007 18.0161 40.0621 18.046 39.9235 18.046H34.9406C29.631 18.346 24.8942 19.149 20.8186 20.446C21.6308 19.944 22.696 19.359 24.0122 18.774C24.4717 18.571 24.932 18.384 25.3915 18.204C25.9022 18.001 26.4247 17.8141 26.9413 17.6341C27.5142 17.4461 28.0938 17.266 28.6675 17.101C29.3034 16.914 29.9334 16.756 30.576 16.606C31.2497 16.449 31.9494 16.2991 32.6542 16.1641C33.4043 16.0291 34.1662 15.909 34.9222 15.804C35.7218 15.699 36.5476 15.6011 37.3724 15.5341C38.0906 15.4661 39.0356 15.391 39.9806 15.361H39.9991C40.4586 15.361 40.9189 15.826 41.0256 16.411C41.0449 16.501 41.0508 16.599 41.0508 16.696C41.0508 17.049 40.9315 17.401 40.7232 17.656Z" fill="black" fill-opacity="0.2"/>
</g>
</g>
</g>
</g>
</svg>
