<svg width="42" height="36" viewBox="0 0 42 36" fill="none" xmlns="http://www.w3.org/2000/svg">
<g id="ring icons">
<g id="Vector">
<path d="M38.0399 15.435C38.7601 15 39.24 14.205 39.24 13.2975C39.24 11.9175 38.115 10.785 36.7274 10.785H24.4725C24.3225 10.7025 24.1726 10.635 24.0224 10.5675L23.9924 10.545H23.94C22.0575 9.79497 19.995 9.83247 18.1949 10.575L18.1575 10.5825C18.0074 10.6425 17.8649 10.71 17.7299 10.785H5.5199C4.1323 10.785 3 11.9175 3 13.2975C3 14.205 3.4799 15 4.2074 15.435C3.4799 15.87 3 16.665 3 17.5725C3 18.96 4.125 20.085 5.5124 20.085H13.9724C14.0174 20.22 14.0698 20.355 14.1224 20.49L14.1299 20.5275C14.19 20.67 14.2573 20.8125 14.3324 20.9475C14.6849 21.66 15.15 22.305 15.7125 22.89L15.7574 22.935L15.8024 22.965C16.5074 23.6475 17.3174 24.1875 18.2399 24.5775C18.2549 24.5925 18.2774 24.6 18.3 24.6C19.1925 24.9675 20.145 25.1475 21.105 25.1475C22.1324 25.1475 23.1225 24.945 24.0524 24.555L24.0899 24.5475C24.9673 24.1725 25.7549 23.6475 26.4225 22.98C26.4599 22.9575 26.4899 22.935 26.5049 22.8975C27.0824 22.2975 27.5548 21.645 27.9 20.9475C27.9749 20.7975 28.0425 20.6475 28.11 20.49L28.1474 20.3775C28.1849 20.28 28.2225 20.1825 28.2525 20.085H36.7274C38.115 20.085 39.24 18.96 39.24 17.5725C39.24 16.665 38.7601 15.87 38.0399 15.435ZM23.9476 11.535L24.0375 11.295C24.195 11.37 24.3376 11.4525 24.4876 11.535C24.8551 11.745 25.1926 11.9775 25.5075 12.2325L23.5426 12.585L23.9476 11.535ZM27.7725 17.565L25.7325 18.9825L24.6976 17.565L25.7325 16.1475L27.7725 17.565ZM26.1075 15.1275L26.1225 15.06L26.2725 14.1975L26.46 13.1775C26.7151 13.5 26.9551 13.8375 27.1576 14.1975C27.225 14.3175 27.2925 14.445 27.3524 14.5725L26.2574 15.06L26.1075 15.1275ZM21.81 20.085L21.1201 20.37L20.43 20.085L19.1325 19.5525L19.0426 19.335L18.3076 17.565L19.0351 15.81L19.1325 15.5775L20.3926 15.06L21.1201 14.76L21.8476 15.06L23.1075 15.5775L23.2051 15.81L23.9326 17.565L23.1976 19.335L23.1075 19.5525L21.81 20.085ZM22.935 20.355L22.8376 20.9475L22.7475 21.5175L21.9675 20.9475L21.795 20.82L22.935 20.355ZM20.4449 20.805L20.2501 20.9475L19.4851 21.495L19.4025 20.9475L19.3049 20.3325L20.4449 20.805ZM15.8851 15.7725L15.8325 15.81L14.2574 16.9125C14.2874 16.545 14.355 16.1775 14.4526 15.81C14.4975 15.63 14.55 15.4575 14.6101 15.2775L15.8851 15.7725ZM14.8425 14.655C14.9251 14.4975 15.0075 14.3475 15.0976 14.1975C15.3001 13.8375 15.5327 13.5 15.7875 13.185L15.9675 14.1975L16.1252 15.06L16.1402 15.15L15.9077 15.06L14.8425 14.655ZM16.5151 16.1475L17.55 17.565L16.5151 18.9825L14.4599 17.565L16.5151 16.1475ZM16.8524 15.3075L16.8075 15.06L16.65 14.1975L16.4099 12.855L18.8624 13.2975L18.7199 14.1975L18.5923 15.0375L18.4498 15.06L16.8524 15.3075ZM18.3301 15.7725L18.3151 15.81L17.865 16.89L17.1676 15.945L18.0751 15.81L18.3301 15.7725ZM17.88 18.24L18.3301 19.335L18.3451 19.3725L18.1126 19.335L17.1826 19.185L17.88 18.24ZM19.3126 14.775L19.4025 14.1975L19.5001 13.6125L20.3025 14.1975L20.4526 14.31L19.3126 14.775ZM21.795 14.325L21.975 14.1975L22.755 13.635L22.8451 14.1975L22.935 14.7975L21.795 14.325ZM23.895 15.7575L24.225 15.81L25.0651 15.945L24.3752 16.89L23.9176 15.81L23.895 15.7575ZM23.91 19.335L24.3824 18.2325L25.08 19.185L24.135 19.335L23.8949 19.3725L23.91 19.335ZM25.5975 14.1975L25.44 15.06L25.395 15.3L23.88 15.06L23.6475 15.0225L23.5201 14.1975L23.3852 13.2975L25.8377 12.855L25.5975 14.1975ZM22.365 10.785C22.71 10.845 23.0549 10.935 23.4001 11.0475L23.2126 11.535L22.9125 12.315L22.365 11.535L21.8325 10.785L21.7724 10.695C21.9675 10.7175 22.1625 10.7475 22.365 10.785ZM21.1201 10.9125L21.555 11.535L22.5375 12.945L21.1201 13.995L19.71 12.96L20.6925 11.535L21.1201 10.9125ZM19.785 10.785C20.01 10.74 20.2351 10.7025 20.4526 10.68L20.3775 10.785L19.86 11.535L19.3048 12.345L18.9375 11.535L18.735 11.0775C19.0876 10.95 19.4326 10.8525 19.785 10.785ZM17.7676 11.535C17.8875 11.4675 18.0075 11.4 18.1276 11.34L18.2175 11.535L18.6826 12.585L16.7325 12.2325C17.0626 11.97 17.4076 11.7375 17.7676 11.535ZM13.7475 19.335H5.5125C4.545 19.335 3.7501 18.5475 3.7501 17.5725C3.7501 16.5975 4.545 15.81 5.5125 15.81H13.7475C13.6126 16.3875 13.545 16.98 13.545 17.565C13.545 18.165 13.6126 18.7575 13.7475 19.335ZM14.115 14.6625L14.0925 14.6925V14.7525C14.055 14.85 14.0101 14.955 13.9801 15.06H5.5126C4.5376 15.0525 3.7502 14.2725 3.7502 13.2975C3.7502 12.33 4.5451 11.535 5.5201 11.535H16.53C16.2826 11.7225 16.0426 11.9325 15.81 12.1575L15.7424 12.225C15.1726 12.81 14.6925 13.47 14.34 14.1975C14.2574 14.3475 14.1826 14.505 14.115 14.6625ZM14.4449 19.335C14.3475 18.96 14.2799 18.5925 14.2424 18.2175L15.8475 19.335L15.8925 19.365L14.625 19.9275C14.5576 19.725 14.4975 19.53 14.4449 19.335ZM16.1251 20.085L15.9674 20.9475L15.7874 21.9525C15.525 21.6375 15.3 21.3075 15.0975 20.9475C15.0224 20.82 14.9626 20.6925 14.895 20.5575L15.9526 20.085L16.1401 20.0025L16.1251 20.085ZM16.6501 20.9475L16.8076 20.085L16.8525 19.8225L18.4576 20.085L18.5925 20.1075L18.7274 20.9475L18.8625 21.8325L16.41 22.275L16.6501 20.9475ZM18.21 23.835C17.6625 23.565 17.1826 23.2575 16.7325 22.8975L18.7051 22.545L18.21 23.835ZM18.8475 24.0825L19.3276 22.815L20.4599 24.435C19.935 24.3825 19.38 24.2625 18.8475 24.0825ZM19.71 22.185L21.1201 21.135L22.5375 22.17L21.1201 24.2175L19.71 22.185ZM21.795 24.45L22.9425 22.785L23.505 24.0525C22.935 24.2625 22.3575 24.39 21.795 24.45ZM24.1126 23.79L23.5651 22.545L25.5152 22.8975C25.1024 23.2275 24.63 23.5275 24.1126 23.79ZM23.3851 21.8325L23.52 20.9475L23.6474 20.0925L23.6924 20.085L25.3949 19.8225L25.4399 20.085L25.5974 20.9475L25.8375 22.275L23.3851 21.8325ZM27.1426 20.9475C26.9401 21.3 26.715 21.6375 26.46 21.945L26.2725 20.9475L26.1225 20.085L26.1075 19.98L26.3776 20.085L27.3975 20.475C27.3151 20.64 27.2325 20.7975 27.1426 20.9475ZM27.7875 19.335C27.7425 19.5075 27.6901 19.68 27.63 19.8525L26.355 19.3575L26.385 19.335L27.9824 18.2175C27.96 18.5925 27.8926 18.9675 27.7875 19.335ZM26.4149 15.81L26.3475 15.765L27.615 15.2025C27.6901 15.405 27.7501 15.6075 27.795 15.81C27.9001 16.1775 27.96 16.545 27.9975 16.905L26.4149 15.81ZM28.1174 14.64V14.6025C28.0575 14.4675 27.9975 14.3325 27.9226 14.1975C27.5626 13.4775 27.0975 12.825 26.52 12.24L26.4674 12.195C26.22 11.955 25.9575 11.73 25.6799 11.535H36.7274C37.7026 11.535 38.49 12.33 38.49 13.2975C38.49 14.2725 37.7026 15.06 36.7274 15.06H28.2751C28.23 14.9175 28.1775 14.775 28.1174 14.64ZM36.7274 19.335H28.4851C28.6276 18.75 28.7026 18.1575 28.7026 17.565C28.7026 16.965 28.635 16.38 28.4924 15.81H36.7274C37.6949 15.81 38.49 16.5975 38.49 17.5725C38.49 18.5475 37.6949 19.335 36.7274 19.335Z" fill="#333335"/>
<path d="M38.0399 15.435C38.7601 15 39.24 14.205 39.24 13.2975C39.24 11.9175 38.115 10.785 36.7274 10.785H24.4725C24.3225 10.7025 24.1726 10.635 24.0224 10.5675L23.9924 10.545H23.94C22.0575 9.79497 19.995 9.83247 18.1949 10.575L18.1575 10.5825C18.0074 10.6425 17.8649 10.71 17.7299 10.785H5.5199C4.1323 10.785 3 11.9175 3 13.2975C3 14.205 3.4799 15 4.2074 15.435C3.4799 15.87 3 16.665 3 17.5725C3 18.96 4.125 20.085 5.5124 20.085H13.9724C14.0174 20.22 14.0698 20.355 14.1224 20.49L14.1299 20.5275C14.19 20.67 14.2573 20.8125 14.3324 20.9475C14.6849 21.66 15.15 22.305 15.7125 22.89L15.7574 22.935L15.8024 22.965C16.5074 23.6475 17.3174 24.1875 18.2399 24.5775C18.2549 24.5925 18.2774 24.6 18.3 24.6C19.1925 24.9675 20.145 25.1475 21.105 25.1475C22.1324 25.1475 23.1225 24.945 24.0524 24.555L24.0899 24.5475C24.9673 24.1725 25.7549 23.6475 26.4225 22.98C26.4599 22.9575 26.4899 22.935 26.5049 22.8975C27.0824 22.2975 27.5548 21.645 27.9 20.9475C27.9749 20.7975 28.0425 20.6475 28.11 20.49L28.1474 20.3775C28.1849 20.28 28.2225 20.1825 28.2525 20.085H36.7274C38.115 20.085 39.24 18.96 39.24 17.5725C39.24 16.665 38.7601 15.87 38.0399 15.435ZM23.9476 11.535L24.0375 11.295C24.195 11.37 24.3376 11.4525 24.4876 11.535C24.8551 11.745 25.1926 11.9775 25.5075 12.2325L23.5426 12.585L23.9476 11.535ZM27.7725 17.565L25.7325 18.9825L24.6976 17.565L25.7325 16.1475L27.7725 17.565ZM26.1075 15.1275L26.1225 15.06L26.2725 14.1975L26.46 13.1775C26.7151 13.5 26.9551 13.8375 27.1576 14.1975C27.225 14.3175 27.2925 14.445 27.3524 14.5725L26.2574 15.06L26.1075 15.1275ZM21.81 20.085L21.1201 20.37L20.43 20.085L19.1325 19.5525L19.0426 19.335L18.3076 17.565L19.0351 15.81L19.1325 15.5775L20.3926 15.06L21.1201 14.76L21.8476 15.06L23.1075 15.5775L23.2051 15.81L23.9326 17.565L23.1976 19.335L23.1075 19.5525L21.81 20.085ZM22.935 20.355L22.8376 20.9475L22.7475 21.5175L21.9675 20.9475L21.795 20.82L22.935 20.355ZM20.4449 20.805L20.2501 20.9475L19.4851 21.495L19.4025 20.9475L19.3049 20.3325L20.4449 20.805ZM15.8851 15.7725L15.8325 15.81L14.2574 16.9125C14.2874 16.545 14.355 16.1775 14.4526 15.81C14.4975 15.63 14.55 15.4575 14.6101 15.2775L15.8851 15.7725ZM14.8425 14.655C14.9251 14.4975 15.0075 14.3475 15.0976 14.1975C15.3001 13.8375 15.5327 13.5 15.7875 13.185L15.9675 14.1975L16.1252 15.06L16.1402 15.15L15.9077 15.06L14.8425 14.655ZM16.5151 16.1475L17.55 17.565L16.5151 18.9825L14.4599 17.565L16.5151 16.1475ZM16.8524 15.3075L16.8075 15.06L16.65 14.1975L16.4099 12.855L18.8624 13.2975L18.7199 14.1975L18.5923 15.0375L18.4498 15.06L16.8524 15.3075ZM18.3301 15.7725L18.3151 15.81L17.865 16.89L17.1676 15.945L18.0751 15.81L18.3301 15.7725ZM17.88 18.24L18.3301 19.335L18.3451 19.3725L18.1126 19.335L17.1826 19.185L17.88 18.24ZM19.3126 14.775L19.4025 14.1975L19.5001 13.6125L20.3025 14.1975L20.4526 14.31L19.3126 14.775ZM21.795 14.325L21.975 14.1975L22.755 13.635L22.8451 14.1975L22.935 14.7975L21.795 14.325ZM23.895 15.7575L24.225 15.81L25.0651 15.945L24.3752 16.89L23.9176 15.81L23.895 15.7575ZM23.91 19.335L24.3824 18.2325L25.08 19.185L24.135 19.335L23.8949 19.3725L23.91 19.335ZM25.5975 14.1975L25.44 15.06L25.395 15.3L23.88 15.06L23.6475 15.0225L23.5201 14.1975L23.3852 13.2975L25.8377 12.855L25.5975 14.1975ZM22.365 10.785C22.71 10.845 23.0549 10.935 23.4001 11.0475L23.2126 11.535L22.9125 12.315L22.365 11.535L21.8325 10.785L21.7724 10.695C21.9675 10.7175 22.1625 10.7475 22.365 10.785ZM21.1201 10.9125L21.555 11.535L22.5375 12.945L21.1201 13.995L19.71 12.96L20.6925 11.535L21.1201 10.9125ZM19.785 10.785C20.01 10.74 20.2351 10.7025 20.4526 10.68L20.3775 10.785L19.86 11.535L19.3048 12.345L18.9375 11.535L18.735 11.0775C19.0876 10.95 19.4326 10.8525 19.785 10.785ZM17.7676 11.535C17.8875 11.4675 18.0075 11.4 18.1276 11.34L18.2175 11.535L18.6826 12.585L16.7325 12.2325C17.0626 11.97 17.4076 11.7375 17.7676 11.535ZM13.7475 19.335H5.5125C4.545 19.335 3.7501 18.5475 3.7501 17.5725C3.7501 16.5975 4.545 15.81 5.5125 15.81H13.7475C13.6126 16.3875 13.545 16.98 13.545 17.565C13.545 18.165 13.6126 18.7575 13.7475 19.335ZM14.115 14.6625L14.0925 14.6925V14.7525C14.055 14.85 14.0101 14.955 13.9801 15.06H5.5126C4.5376 15.0525 3.7502 14.2725 3.7502 13.2975C3.7502 12.33 4.5451 11.535 5.5201 11.535H16.53C16.2826 11.7225 16.0426 11.9325 15.81 12.1575L15.7424 12.225C15.1726 12.81 14.6925 13.47 14.34 14.1975C14.2574 14.3475 14.1826 14.505 14.115 14.6625ZM14.4449 19.335C14.3475 18.96 14.2799 18.5925 14.2424 18.2175L15.8475 19.335L15.8925 19.365L14.625 19.9275C14.5576 19.725 14.4975 19.53 14.4449 19.335ZM16.1251 20.085L15.9674 20.9475L15.7874 21.9525C15.525 21.6375 15.3 21.3075 15.0975 20.9475C15.0224 20.82 14.9626 20.6925 14.895 20.5575L15.9526 20.085L16.1401 20.0025L16.1251 20.085ZM16.6501 20.9475L16.8076 20.085L16.8525 19.8225L18.4576 20.085L18.5925 20.1075L18.7274 20.9475L18.8625 21.8325L16.41 22.275L16.6501 20.9475ZM18.21 23.835C17.6625 23.565 17.1826 23.2575 16.7325 22.8975L18.7051 22.545L18.21 23.835ZM18.8475 24.0825L19.3276 22.815L20.4599 24.435C19.935 24.3825 19.38 24.2625 18.8475 24.0825ZM19.71 22.185L21.1201 21.135L22.5375 22.17L21.1201 24.2175L19.71 22.185ZM21.795 24.45L22.9425 22.785L23.505 24.0525C22.935 24.2625 22.3575 24.39 21.795 24.45ZM24.1126 23.79L23.5651 22.545L25.5152 22.8975C25.1024 23.2275 24.63 23.5275 24.1126 23.79ZM23.3851 21.8325L23.52 20.9475L23.6474 20.0925L23.6924 20.085L25.3949 19.8225L25.4399 20.085L25.5974 20.9475L25.8375 22.275L23.3851 21.8325ZM27.1426 20.9475C26.9401 21.3 26.715 21.6375 26.46 21.945L26.2725 20.9475L26.1225 20.085L26.1075 19.98L26.3776 20.085L27.3975 20.475C27.3151 20.64 27.2325 20.7975 27.1426 20.9475ZM27.7875 19.335C27.7425 19.5075 27.6901 19.68 27.63 19.8525L26.355 19.3575L26.385 19.335L27.9824 18.2175C27.96 18.5925 27.8926 18.9675 27.7875 19.335ZM26.4149 15.81L26.3475 15.765L27.615 15.2025C27.6901 15.405 27.7501 15.6075 27.795 15.81C27.9001 16.1775 27.96 16.545 27.9975 16.905L26.4149 15.81ZM28.1174 14.64V14.6025C28.0575 14.4675 27.9975 14.3325 27.9226 14.1975C27.5626 13.4775 27.0975 12.825 26.52 12.24L26.4674 12.195C26.22 11.955 25.9575 11.73 25.6799 11.535H36.7274C37.7026 11.535 38.49 12.33 38.49 13.2975C38.49 14.2725 37.7026 15.06 36.7274 15.06H28.2751C28.23 14.9175 28.1775 14.775 28.1174 14.64ZM36.7274 19.335H28.4851C28.6276 18.75 28.7026 18.1575 28.7026 17.565C28.7026 16.965 28.635 16.38 28.4924 15.81H36.7274C37.6949 15.81 38.49 16.5975 38.49 17.5725C38.49 18.5475 37.6949 19.335 36.7274 19.335Z" fill="black" fill-opacity="0.2"/>
<path d="M38.0399 15.435C38.7601 15 39.24 14.205 39.24 13.2975C39.24 11.9175 38.115 10.785 36.7274 10.785H24.4725C24.3225 10.7025 24.1726 10.635 24.0224 10.5675L23.9924 10.545H23.94C22.0575 9.79497 19.995 9.83247 18.1949 10.575L18.1575 10.5825C18.0074 10.6425 17.8649 10.71 17.7299 10.785H5.5199C4.1323 10.785 3 11.9175 3 13.2975C3 14.205 3.4799 15 4.2074 15.435C3.4799 15.87 3 16.665 3 17.5725C3 18.96 4.125 20.085 5.5124 20.085H13.9724C14.0174 20.22 14.0698 20.355 14.1224 20.49L14.1299 20.5275C14.19 20.67 14.2573 20.8125 14.3324 20.9475C14.6849 21.66 15.15 22.305 15.7125 22.89L15.7574 22.935L15.8024 22.965C16.5074 23.6475 17.3174 24.1875 18.2399 24.5775C18.2549 24.5925 18.2774 24.6 18.3 24.6C19.1925 24.9675 20.145 25.1475 21.105 25.1475C22.1324 25.1475 23.1225 24.945 24.0524 24.555L24.0899 24.5475C24.9673 24.1725 25.7549 23.6475 26.4225 22.98C26.4599 22.9575 26.4899 22.935 26.5049 22.8975C27.0824 22.2975 27.5548 21.645 27.9 20.9475C27.9749 20.7975 28.0425 20.6475 28.11 20.49L28.1474 20.3775C28.1849 20.28 28.2225 20.1825 28.2525 20.085H36.7274C38.115 20.085 39.24 18.96 39.24 17.5725C39.24 16.665 38.7601 15.87 38.0399 15.435ZM23.9476 11.535L24.0375 11.295C24.195 11.37 24.3376 11.4525 24.4876 11.535C24.8551 11.745 25.1926 11.9775 25.5075 12.2325L23.5426 12.585L23.9476 11.535ZM27.7725 17.565L25.7325 18.9825L24.6976 17.565L25.7325 16.1475L27.7725 17.565ZM26.1075 15.1275L26.1225 15.06L26.2725 14.1975L26.46 13.1775C26.7151 13.5 26.9551 13.8375 27.1576 14.1975C27.225 14.3175 27.2925 14.445 27.3524 14.5725L26.2574 15.06L26.1075 15.1275ZM21.81 20.085L21.1201 20.37L20.43 20.085L19.1325 19.5525L19.0426 19.335L18.3076 17.565L19.0351 15.81L19.1325 15.5775L20.3926 15.06L21.1201 14.76L21.8476 15.06L23.1075 15.5775L23.2051 15.81L23.9326 17.565L23.1976 19.335L23.1075 19.5525L21.81 20.085ZM22.935 20.355L22.8376 20.9475L22.7475 21.5175L21.9675 20.9475L21.795 20.82L22.935 20.355ZM20.4449 20.805L20.2501 20.9475L19.4851 21.495L19.4025 20.9475L19.3049 20.3325L20.4449 20.805ZM15.8851 15.7725L15.8325 15.81L14.2574 16.9125C14.2874 16.545 14.355 16.1775 14.4526 15.81C14.4975 15.63 14.55 15.4575 14.6101 15.2775L15.8851 15.7725ZM14.8425 14.655C14.9251 14.4975 15.0075 14.3475 15.0976 14.1975C15.3001 13.8375 15.5327 13.5 15.7875 13.185L15.9675 14.1975L16.1252 15.06L16.1402 15.15L15.9077 15.06L14.8425 14.655ZM16.5151 16.1475L17.55 17.565L16.5151 18.9825L14.4599 17.565L16.5151 16.1475ZM16.8524 15.3075L16.8075 15.06L16.65 14.1975L16.4099 12.855L18.8624 13.2975L18.7199 14.1975L18.5923 15.0375L18.4498 15.06L16.8524 15.3075ZM18.3301 15.7725L18.3151 15.81L17.865 16.89L17.1676 15.945L18.0751 15.81L18.3301 15.7725ZM17.88 18.24L18.3301 19.335L18.3451 19.3725L18.1126 19.335L17.1826 19.185L17.88 18.24ZM19.3126 14.775L19.4025 14.1975L19.5001 13.6125L20.3025 14.1975L20.4526 14.31L19.3126 14.775ZM21.795 14.325L21.975 14.1975L22.755 13.635L22.8451 14.1975L22.935 14.7975L21.795 14.325ZM23.895 15.7575L24.225 15.81L25.0651 15.945L24.3752 16.89L23.9176 15.81L23.895 15.7575ZM23.91 19.335L24.3824 18.2325L25.08 19.185L24.135 19.335L23.8949 19.3725L23.91 19.335ZM25.5975 14.1975L25.44 15.06L25.395 15.3L23.88 15.06L23.6475 15.0225L23.5201 14.1975L23.3852 13.2975L25.8377 12.855L25.5975 14.1975ZM22.365 10.785C22.71 10.845 23.0549 10.935 23.4001 11.0475L23.2126 11.535L22.9125 12.315L22.365 11.535L21.8325 10.785L21.7724 10.695C21.9675 10.7175 22.1625 10.7475 22.365 10.785ZM21.1201 10.9125L21.555 11.535L22.5375 12.945L21.1201 13.995L19.71 12.96L20.6925 11.535L21.1201 10.9125ZM19.785 10.785C20.01 10.74 20.2351 10.7025 20.4526 10.68L20.3775 10.785L19.86 11.535L19.3048 12.345L18.9375 11.535L18.735 11.0775C19.0876 10.95 19.4326 10.8525 19.785 10.785ZM17.7676 11.535C17.8875 11.4675 18.0075 11.4 18.1276 11.34L18.2175 11.535L18.6826 12.585L16.7325 12.2325C17.0626 11.97 17.4076 11.7375 17.7676 11.535ZM13.7475 19.335H5.5125C4.545 19.335 3.7501 18.5475 3.7501 17.5725C3.7501 16.5975 4.545 15.81 5.5125 15.81H13.7475C13.6126 16.3875 13.545 16.98 13.545 17.565C13.545 18.165 13.6126 18.7575 13.7475 19.335ZM14.115 14.6625L14.0925 14.6925V14.7525C14.055 14.85 14.0101 14.955 13.9801 15.06H5.5126C4.5376 15.0525 3.7502 14.2725 3.7502 13.2975C3.7502 12.33 4.5451 11.535 5.5201 11.535H16.53C16.2826 11.7225 16.0426 11.9325 15.81 12.1575L15.7424 12.225C15.1726 12.81 14.6925 13.47 14.34 14.1975C14.2574 14.3475 14.1826 14.505 14.115 14.6625ZM14.4449 19.335C14.3475 18.96 14.2799 18.5925 14.2424 18.2175L15.8475 19.335L15.8925 19.365L14.625 19.9275C14.5576 19.725 14.4975 19.53 14.4449 19.335ZM16.1251 20.085L15.9674 20.9475L15.7874 21.9525C15.525 21.6375 15.3 21.3075 15.0975 20.9475C15.0224 20.82 14.9626 20.6925 14.895 20.5575L15.9526 20.085L16.1401 20.0025L16.1251 20.085ZM16.6501 20.9475L16.8076 20.085L16.8525 19.8225L18.4576 20.085L18.5925 20.1075L18.7274 20.9475L18.8625 21.8325L16.41 22.275L16.6501 20.9475ZM18.21 23.835C17.6625 23.565 17.1826 23.2575 16.7325 22.8975L18.7051 22.545L18.21 23.835ZM18.8475 24.0825L19.3276 22.815L20.4599 24.435C19.935 24.3825 19.38 24.2625 18.8475 24.0825ZM19.71 22.185L21.1201 21.135L22.5375 22.17L21.1201 24.2175L19.71 22.185ZM21.795 24.45L22.9425 22.785L23.505 24.0525C22.935 24.2625 22.3575 24.39 21.795 24.45ZM24.1126 23.79L23.5651 22.545L25.5152 22.8975C25.1024 23.2275 24.63 23.5275 24.1126 23.79ZM23.3851 21.8325L23.52 20.9475L23.6474 20.0925L23.6924 20.085L25.3949 19.8225L25.4399 20.085L25.5974 20.9475L25.8375 22.275L23.3851 21.8325ZM27.1426 20.9475C26.9401 21.3 26.715 21.6375 26.46 21.945L26.2725 20.9475L26.1225 20.085L26.1075 19.98L26.3776 20.085L27.3975 20.475C27.3151 20.64 27.2325 20.7975 27.1426 20.9475ZM27.7875 19.335C27.7425 19.5075 27.6901 19.68 27.63 19.8525L26.355 19.3575L26.385 19.335L27.9824 18.2175C27.96 18.5925 27.8926 18.9675 27.7875 19.335ZM26.4149 15.81L26.3475 15.765L27.615 15.2025C27.6901 15.405 27.7501 15.6075 27.795 15.81C27.9001 16.1775 27.96 16.545 27.9975 16.905L26.4149 15.81ZM28.1174 14.64V14.6025C28.0575 14.4675 27.9975 14.3325 27.9226 14.1975C27.5626 13.4775 27.0975 12.825 26.52 12.24L26.4674 12.195C26.22 11.955 25.9575 11.73 25.6799 11.535H36.7274C37.7026 11.535 38.49 12.33 38.49 13.2975C38.49 14.2725 37.7026 15.06 36.7274 15.06H28.2751C28.23 14.9175 28.1775 14.775 28.1174 14.64ZM36.7274 19.335H28.4851C28.6276 18.75 28.7026 18.1575 28.7026 17.565C28.7026 16.965 28.635 16.38 28.4924 15.81H36.7274C37.6949 15.81 38.49 16.5975 38.49 17.5725C38.49 18.5475 37.6949 19.335 36.7274 19.335Z" fill="black" fill-opacity="0.2"/>
<path d="M38.0399 15.435C38.7601 15 39.24 14.205 39.24 13.2975C39.24 11.9175 38.115 10.785 36.7274 10.785H24.4725C24.3225 10.7025 24.1726 10.635 24.0224 10.5675L23.9924 10.545H23.94C22.0575 9.79497 19.995 9.83247 18.1949 10.575L18.1575 10.5825C18.0074 10.6425 17.8649 10.71 17.7299 10.785H5.5199C4.1323 10.785 3 11.9175 3 13.2975C3 14.205 3.4799 15 4.2074 15.435C3.4799 15.87 3 16.665 3 17.5725C3 18.96 4.125 20.085 5.5124 20.085H13.9724C14.0174 20.22 14.0698 20.355 14.1224 20.49L14.1299 20.5275C14.19 20.67 14.2573 20.8125 14.3324 20.9475C14.6849 21.66 15.15 22.305 15.7125 22.89L15.7574 22.935L15.8024 22.965C16.5074 23.6475 17.3174 24.1875 18.2399 24.5775C18.2549 24.5925 18.2774 24.6 18.3 24.6C19.1925 24.9675 20.145 25.1475 21.105 25.1475C22.1324 25.1475 23.1225 24.945 24.0524 24.555L24.0899 24.5475C24.9673 24.1725 25.7549 23.6475 26.4225 22.98C26.4599 22.9575 26.4899 22.935 26.5049 22.8975C27.0824 22.2975 27.5548 21.645 27.9 20.9475C27.9749 20.7975 28.0425 20.6475 28.11 20.49L28.1474 20.3775C28.1849 20.28 28.2225 20.1825 28.2525 20.085H36.7274C38.115 20.085 39.24 18.96 39.24 17.5725C39.24 16.665 38.7601 15.87 38.0399 15.435ZM23.9476 11.535L24.0375 11.295C24.195 11.37 24.3376 11.4525 24.4876 11.535C24.8551 11.745 25.1926 11.9775 25.5075 12.2325L23.5426 12.585L23.9476 11.535ZM27.7725 17.565L25.7325 18.9825L24.6976 17.565L25.7325 16.1475L27.7725 17.565ZM26.1075 15.1275L26.1225 15.06L26.2725 14.1975L26.46 13.1775C26.7151 13.5 26.9551 13.8375 27.1576 14.1975C27.225 14.3175 27.2925 14.445 27.3524 14.5725L26.2574 15.06L26.1075 15.1275ZM21.81 20.085L21.1201 20.37L20.43 20.085L19.1325 19.5525L19.0426 19.335L18.3076 17.565L19.0351 15.81L19.1325 15.5775L20.3926 15.06L21.1201 14.76L21.8476 15.06L23.1075 15.5775L23.2051 15.81L23.9326 17.565L23.1976 19.335L23.1075 19.5525L21.81 20.085ZM22.935 20.355L22.8376 20.9475L22.7475 21.5175L21.9675 20.9475L21.795 20.82L22.935 20.355ZM20.4449 20.805L20.2501 20.9475L19.4851 21.495L19.4025 20.9475L19.3049 20.3325L20.4449 20.805ZM15.8851 15.7725L15.8325 15.81L14.2574 16.9125C14.2874 16.545 14.355 16.1775 14.4526 15.81C14.4975 15.63 14.55 15.4575 14.6101 15.2775L15.8851 15.7725ZM14.8425 14.655C14.9251 14.4975 15.0075 14.3475 15.0976 14.1975C15.3001 13.8375 15.5327 13.5 15.7875 13.185L15.9675 14.1975L16.1252 15.06L16.1402 15.15L15.9077 15.06L14.8425 14.655ZM16.5151 16.1475L17.55 17.565L16.5151 18.9825L14.4599 17.565L16.5151 16.1475ZM16.8524 15.3075L16.8075 15.06L16.65 14.1975L16.4099 12.855L18.8624 13.2975L18.7199 14.1975L18.5923 15.0375L18.4498 15.06L16.8524 15.3075ZM18.3301 15.7725L18.3151 15.81L17.865 16.89L17.1676 15.945L18.0751 15.81L18.3301 15.7725ZM17.88 18.24L18.3301 19.335L18.3451 19.3725L18.1126 19.335L17.1826 19.185L17.88 18.24ZM19.3126 14.775L19.4025 14.1975L19.5001 13.6125L20.3025 14.1975L20.4526 14.31L19.3126 14.775ZM21.795 14.325L21.975 14.1975L22.755 13.635L22.8451 14.1975L22.935 14.7975L21.795 14.325ZM23.895 15.7575L24.225 15.81L25.0651 15.945L24.3752 16.89L23.9176 15.81L23.895 15.7575ZM23.91 19.335L24.3824 18.2325L25.08 19.185L24.135 19.335L23.8949 19.3725L23.91 19.335ZM25.5975 14.1975L25.44 15.06L25.395 15.3L23.88 15.06L23.6475 15.0225L23.5201 14.1975L23.3852 13.2975L25.8377 12.855L25.5975 14.1975ZM22.365 10.785C22.71 10.845 23.0549 10.935 23.4001 11.0475L23.2126 11.535L22.9125 12.315L22.365 11.535L21.8325 10.785L21.7724 10.695C21.9675 10.7175 22.1625 10.7475 22.365 10.785ZM21.1201 10.9125L21.555 11.535L22.5375 12.945L21.1201 13.995L19.71 12.96L20.6925 11.535L21.1201 10.9125ZM19.785 10.785C20.01 10.74 20.2351 10.7025 20.4526 10.68L20.3775 10.785L19.86 11.535L19.3048 12.345L18.9375 11.535L18.735 11.0775C19.0876 10.95 19.4326 10.8525 19.785 10.785ZM17.7676 11.535C17.8875 11.4675 18.0075 11.4 18.1276 11.34L18.2175 11.535L18.6826 12.585L16.7325 12.2325C17.0626 11.97 17.4076 11.7375 17.7676 11.535ZM13.7475 19.335H5.5125C4.545 19.335 3.7501 18.5475 3.7501 17.5725C3.7501 16.5975 4.545 15.81 5.5125 15.81H13.7475C13.6126 16.3875 13.545 16.98 13.545 17.565C13.545 18.165 13.6126 18.7575 13.7475 19.335ZM14.115 14.6625L14.0925 14.6925V14.7525C14.055 14.85 14.0101 14.955 13.9801 15.06H5.5126C4.5376 15.0525 3.7502 14.2725 3.7502 13.2975C3.7502 12.33 4.5451 11.535 5.5201 11.535H16.53C16.2826 11.7225 16.0426 11.9325 15.81 12.1575L15.7424 12.225C15.1726 12.81 14.6925 13.47 14.34 14.1975C14.2574 14.3475 14.1826 14.505 14.115 14.6625ZM14.4449 19.335C14.3475 18.96 14.2799 18.5925 14.2424 18.2175L15.8475 19.335L15.8925 19.365L14.625 19.9275C14.5576 19.725 14.4975 19.53 14.4449 19.335ZM16.1251 20.085L15.9674 20.9475L15.7874 21.9525C15.525 21.6375 15.3 21.3075 15.0975 20.9475C15.0224 20.82 14.9626 20.6925 14.895 20.5575L15.9526 20.085L16.1401 20.0025L16.1251 20.085ZM16.6501 20.9475L16.8076 20.085L16.8525 19.8225L18.4576 20.085L18.5925 20.1075L18.7274 20.9475L18.8625 21.8325L16.41 22.275L16.6501 20.9475ZM18.21 23.835C17.6625 23.565 17.1826 23.2575 16.7325 22.8975L18.7051 22.545L18.21 23.835ZM18.8475 24.0825L19.3276 22.815L20.4599 24.435C19.935 24.3825 19.38 24.2625 18.8475 24.0825ZM19.71 22.185L21.1201 21.135L22.5375 22.17L21.1201 24.2175L19.71 22.185ZM21.795 24.45L22.9425 22.785L23.505 24.0525C22.935 24.2625 22.3575 24.39 21.795 24.45ZM24.1126 23.79L23.5651 22.545L25.5152 22.8975C25.1024 23.2275 24.63 23.5275 24.1126 23.79ZM23.3851 21.8325L23.52 20.9475L23.6474 20.0925L23.6924 20.085L25.3949 19.8225L25.4399 20.085L25.5974 20.9475L25.8375 22.275L23.3851 21.8325ZM27.1426 20.9475C26.9401 21.3 26.715 21.6375 26.46 21.945L26.2725 20.9475L26.1225 20.085L26.1075 19.98L26.3776 20.085L27.3975 20.475C27.3151 20.64 27.2325 20.7975 27.1426 20.9475ZM27.7875 19.335C27.7425 19.5075 27.6901 19.68 27.63 19.8525L26.355 19.3575L26.385 19.335L27.9824 18.2175C27.96 18.5925 27.8926 18.9675 27.7875 19.335ZM26.4149 15.81L26.3475 15.765L27.615 15.2025C27.6901 15.405 27.7501 15.6075 27.795 15.81C27.9001 16.1775 27.96 16.545 27.9975 16.905L26.4149 15.81ZM28.1174 14.64V14.6025C28.0575 14.4675 27.9975 14.3325 27.9226 14.1975C27.5626 13.4775 27.0975 12.825 26.52 12.24L26.4674 12.195C26.22 11.955 25.9575 11.73 25.6799 11.535H36.7274C37.7026 11.535 38.49 12.33 38.49 13.2975C38.49 14.2725 37.7026 15.06 36.7274 15.06H28.2751C28.23 14.9175 28.1775 14.775 28.1174 14.64ZM36.7274 19.335H28.4851C28.6276 18.75 28.7026 18.1575 28.7026 17.565C28.7026 16.965 28.635 16.38 28.4924 15.81H36.7274C37.6949 15.81 38.49 16.5975 38.49 17.5725C38.49 18.5475 37.6949 19.335 36.7274 19.335Z" fill="black" fill-opacity="0.2"/>
<path d="M38.0399 15.435C38.7601 15 39.24 14.205 39.24 13.2975C39.24 11.9175 38.115 10.785 36.7274 10.785H24.4725C24.3225 10.7025 24.1726 10.635 24.0224 10.5675L23.9924 10.545H23.94C22.0575 9.79497 19.995 9.83247 18.1949 10.575L18.1575 10.5825C18.0074 10.6425 17.8649 10.71 17.7299 10.785H5.5199C4.1323 10.785 3 11.9175 3 13.2975C3 14.205 3.4799 15 4.2074 15.435C3.4799 15.87 3 16.665 3 17.5725C3 18.96 4.125 20.085 5.5124 20.085H13.9724C14.0174 20.22 14.0698 20.355 14.1224 20.49L14.1299 20.5275C14.19 20.67 14.2573 20.8125 14.3324 20.9475C14.6849 21.66 15.15 22.305 15.7125 22.89L15.7574 22.935L15.8024 22.965C16.5074 23.6475 17.3174 24.1875 18.2399 24.5775C18.2549 24.5925 18.2774 24.6 18.3 24.6C19.1925 24.9675 20.145 25.1475 21.105 25.1475C22.1324 25.1475 23.1225 24.945 24.0524 24.555L24.0899 24.5475C24.9673 24.1725 25.7549 23.6475 26.4225 22.98C26.4599 22.9575 26.4899 22.935 26.5049 22.8975C27.0824 22.2975 27.5548 21.645 27.9 20.9475C27.9749 20.7975 28.0425 20.6475 28.11 20.49L28.1474 20.3775C28.1849 20.28 28.2225 20.1825 28.2525 20.085H36.7274C38.115 20.085 39.24 18.96 39.24 17.5725C39.24 16.665 38.7601 15.87 38.0399 15.435ZM23.9476 11.535L24.0375 11.295C24.195 11.37 24.3376 11.4525 24.4876 11.535C24.8551 11.745 25.1926 11.9775 25.5075 12.2325L23.5426 12.585L23.9476 11.535ZM27.7725 17.565L25.7325 18.9825L24.6976 17.565L25.7325 16.1475L27.7725 17.565ZM26.1075 15.1275L26.1225 15.06L26.2725 14.1975L26.46 13.1775C26.7151 13.5 26.9551 13.8375 27.1576 14.1975C27.225 14.3175 27.2925 14.445 27.3524 14.5725L26.2574 15.06L26.1075 15.1275ZM21.81 20.085L21.1201 20.37L20.43 20.085L19.1325 19.5525L19.0426 19.335L18.3076 17.565L19.0351 15.81L19.1325 15.5775L20.3926 15.06L21.1201 14.76L21.8476 15.06L23.1075 15.5775L23.2051 15.81L23.9326 17.565L23.1976 19.335L23.1075 19.5525L21.81 20.085ZM22.935 20.355L22.8376 20.9475L22.7475 21.5175L21.9675 20.9475L21.795 20.82L22.935 20.355ZM20.4449 20.805L20.2501 20.9475L19.4851 21.495L19.4025 20.9475L19.3049 20.3325L20.4449 20.805ZM15.8851 15.7725L15.8325 15.81L14.2574 16.9125C14.2874 16.545 14.355 16.1775 14.4526 15.81C14.4975 15.63 14.55 15.4575 14.6101 15.2775L15.8851 15.7725ZM14.8425 14.655C14.9251 14.4975 15.0075 14.3475 15.0976 14.1975C15.3001 13.8375 15.5327 13.5 15.7875 13.185L15.9675 14.1975L16.1252 15.06L16.1402 15.15L15.9077 15.06L14.8425 14.655ZM16.5151 16.1475L17.55 17.565L16.5151 18.9825L14.4599 17.565L16.5151 16.1475ZM16.8524 15.3075L16.8075 15.06L16.65 14.1975L16.4099 12.855L18.8624 13.2975L18.7199 14.1975L18.5923 15.0375L18.4498 15.06L16.8524 15.3075ZM18.3301 15.7725L18.3151 15.81L17.865 16.89L17.1676 15.945L18.0751 15.81L18.3301 15.7725ZM17.88 18.24L18.3301 19.335L18.3451 19.3725L18.1126 19.335L17.1826 19.185L17.88 18.24ZM19.3126 14.775L19.4025 14.1975L19.5001 13.6125L20.3025 14.1975L20.4526 14.31L19.3126 14.775ZM21.795 14.325L21.975 14.1975L22.755 13.635L22.8451 14.1975L22.935 14.7975L21.795 14.325ZM23.895 15.7575L24.225 15.81L25.0651 15.945L24.3752 16.89L23.9176 15.81L23.895 15.7575ZM23.91 19.335L24.3824 18.2325L25.08 19.185L24.135 19.335L23.8949 19.3725L23.91 19.335ZM25.5975 14.1975L25.44 15.06L25.395 15.3L23.88 15.06L23.6475 15.0225L23.5201 14.1975L23.3852 13.2975L25.8377 12.855L25.5975 14.1975ZM22.365 10.785C22.71 10.845 23.0549 10.935 23.4001 11.0475L23.2126 11.535L22.9125 12.315L22.365 11.535L21.8325 10.785L21.7724 10.695C21.9675 10.7175 22.1625 10.7475 22.365 10.785ZM21.1201 10.9125L21.555 11.535L22.5375 12.945L21.1201 13.995L19.71 12.96L20.6925 11.535L21.1201 10.9125ZM19.785 10.785C20.01 10.74 20.2351 10.7025 20.4526 10.68L20.3775 10.785L19.86 11.535L19.3048 12.345L18.9375 11.535L18.735 11.0775C19.0876 10.95 19.4326 10.8525 19.785 10.785ZM17.7676 11.535C17.8875 11.4675 18.0075 11.4 18.1276 11.34L18.2175 11.535L18.6826 12.585L16.7325 12.2325C17.0626 11.97 17.4076 11.7375 17.7676 11.535ZM13.7475 19.335H5.5125C4.545 19.335 3.7501 18.5475 3.7501 17.5725C3.7501 16.5975 4.545 15.81 5.5125 15.81H13.7475C13.6126 16.3875 13.545 16.98 13.545 17.565C13.545 18.165 13.6126 18.7575 13.7475 19.335ZM14.115 14.6625L14.0925 14.6925V14.7525C14.055 14.85 14.0101 14.955 13.9801 15.06H5.5126C4.5376 15.0525 3.7502 14.2725 3.7502 13.2975C3.7502 12.33 4.5451 11.535 5.5201 11.535H16.53C16.2826 11.7225 16.0426 11.9325 15.81 12.1575L15.7424 12.225C15.1726 12.81 14.6925 13.47 14.34 14.1975C14.2574 14.3475 14.1826 14.505 14.115 14.6625ZM14.4449 19.335C14.3475 18.96 14.2799 18.5925 14.2424 18.2175L15.8475 19.335L15.8925 19.365L14.625 19.9275C14.5576 19.725 14.4975 19.53 14.4449 19.335ZM16.1251 20.085L15.9674 20.9475L15.7874 21.9525C15.525 21.6375 15.3 21.3075 15.0975 20.9475C15.0224 20.82 14.9626 20.6925 14.895 20.5575L15.9526 20.085L16.1401 20.0025L16.1251 20.085ZM16.6501 20.9475L16.8076 20.085L16.8525 19.8225L18.4576 20.085L18.5925 20.1075L18.7274 20.9475L18.8625 21.8325L16.41 22.275L16.6501 20.9475ZM18.21 23.835C17.6625 23.565 17.1826 23.2575 16.7325 22.8975L18.7051 22.545L18.21 23.835ZM18.8475 24.0825L19.3276 22.815L20.4599 24.435C19.935 24.3825 19.38 24.2625 18.8475 24.0825ZM19.71 22.185L21.1201 21.135L22.5375 22.17L21.1201 24.2175L19.71 22.185ZM21.795 24.45L22.9425 22.785L23.505 24.0525C22.935 24.2625 22.3575 24.39 21.795 24.45ZM24.1126 23.79L23.5651 22.545L25.5152 22.8975C25.1024 23.2275 24.63 23.5275 24.1126 23.79ZM23.3851 21.8325L23.52 20.9475L23.6474 20.0925L23.6924 20.085L25.3949 19.8225L25.4399 20.085L25.5974 20.9475L25.8375 22.275L23.3851 21.8325ZM27.1426 20.9475C26.9401 21.3 26.715 21.6375 26.46 21.945L26.2725 20.9475L26.1225 20.085L26.1075 19.98L26.3776 20.085L27.3975 20.475C27.3151 20.64 27.2325 20.7975 27.1426 20.9475ZM27.7875 19.335C27.7425 19.5075 27.6901 19.68 27.63 19.8525L26.355 19.3575L26.385 19.335L27.9824 18.2175C27.96 18.5925 27.8926 18.9675 27.7875 19.335ZM26.4149 15.81L26.3475 15.765L27.615 15.2025C27.6901 15.405 27.7501 15.6075 27.795 15.81C27.9001 16.1775 27.96 16.545 27.9975 16.905L26.4149 15.81ZM28.1174 14.64V14.6025C28.0575 14.4675 27.9975 14.3325 27.9226 14.1975C27.5626 13.4775 27.0975 12.825 26.52 12.24L26.4674 12.195C26.22 11.955 25.9575 11.73 25.6799 11.535H36.7274C37.7026 11.535 38.49 12.33 38.49 13.2975C38.49 14.2725 37.7026 15.06 36.7274 15.06H28.2751C28.23 14.9175 28.1775 14.775 28.1174 14.64ZM36.7274 19.335H28.4851C28.6276 18.75 28.7026 18.1575 28.7026 17.565C28.7026 16.965 28.635 16.38 28.4924 15.81H36.7274C37.6949 15.81 38.49 16.5975 38.49 17.5725C38.49 18.5475 37.6949 19.335 36.7274 19.335Z" fill="black" fill-opacity="0.2"/>
<path d="M38.0399 15.435C38.7601 15 39.24 14.205 39.24 13.2975C39.24 11.9175 38.115 10.785 36.7274 10.785H24.4725C24.3225 10.7025 24.1726 10.635 24.0224 10.5675L23.9924 10.545H23.94C22.0575 9.79497 19.995 9.83247 18.1949 10.575L18.1575 10.5825C18.0074 10.6425 17.8649 10.71 17.7299 10.785H5.5199C4.1323 10.785 3 11.9175 3 13.2975C3 14.205 3.4799 15 4.2074 15.435C3.4799 15.87 3 16.665 3 17.5725C3 18.96 4.125 20.085 5.5124 20.085H13.9724C14.0174 20.22 14.0698 20.355 14.1224 20.49L14.1299 20.5275C14.19 20.67 14.2573 20.8125 14.3324 20.9475C14.6849 21.66 15.15 22.305 15.7125 22.89L15.7574 22.935L15.8024 22.965C16.5074 23.6475 17.3174 24.1875 18.2399 24.5775C18.2549 24.5925 18.2774 24.6 18.3 24.6C19.1925 24.9675 20.145 25.1475 21.105 25.1475C22.1324 25.1475 23.1225 24.945 24.0524 24.555L24.0899 24.5475C24.9673 24.1725 25.7549 23.6475 26.4225 22.98C26.4599 22.9575 26.4899 22.935 26.5049 22.8975C27.0824 22.2975 27.5548 21.645 27.9 20.9475C27.9749 20.7975 28.0425 20.6475 28.11 20.49L28.1474 20.3775C28.1849 20.28 28.2225 20.1825 28.2525 20.085H36.7274C38.115 20.085 39.24 18.96 39.24 17.5725C39.24 16.665 38.7601 15.87 38.0399 15.435ZM23.9476 11.535L24.0375 11.295C24.195 11.37 24.3376 11.4525 24.4876 11.535C24.8551 11.745 25.1926 11.9775 25.5075 12.2325L23.5426 12.585L23.9476 11.535ZM27.7725 17.565L25.7325 18.9825L24.6976 17.565L25.7325 16.1475L27.7725 17.565ZM26.1075 15.1275L26.1225 15.06L26.2725 14.1975L26.46 13.1775C26.7151 13.5 26.9551 13.8375 27.1576 14.1975C27.225 14.3175 27.2925 14.445 27.3524 14.5725L26.2574 15.06L26.1075 15.1275ZM21.81 20.085L21.1201 20.37L20.43 20.085L19.1325 19.5525L19.0426 19.335L18.3076 17.565L19.0351 15.81L19.1325 15.5775L20.3926 15.06L21.1201 14.76L21.8476 15.06L23.1075 15.5775L23.2051 15.81L23.9326 17.565L23.1976 19.335L23.1075 19.5525L21.81 20.085ZM22.935 20.355L22.8376 20.9475L22.7475 21.5175L21.9675 20.9475L21.795 20.82L22.935 20.355ZM20.4449 20.805L20.2501 20.9475L19.4851 21.495L19.4025 20.9475L19.3049 20.3325L20.4449 20.805ZM15.8851 15.7725L15.8325 15.81L14.2574 16.9125C14.2874 16.545 14.355 16.1775 14.4526 15.81C14.4975 15.63 14.55 15.4575 14.6101 15.2775L15.8851 15.7725ZM14.8425 14.655C14.9251 14.4975 15.0075 14.3475 15.0976 14.1975C15.3001 13.8375 15.5327 13.5 15.7875 13.185L15.9675 14.1975L16.1252 15.06L16.1402 15.15L15.9077 15.06L14.8425 14.655ZM16.5151 16.1475L17.55 17.565L16.5151 18.9825L14.4599 17.565L16.5151 16.1475ZM16.8524 15.3075L16.8075 15.06L16.65 14.1975L16.4099 12.855L18.8624 13.2975L18.7199 14.1975L18.5923 15.0375L18.4498 15.06L16.8524 15.3075ZM18.3301 15.7725L18.3151 15.81L17.865 16.89L17.1676 15.945L18.0751 15.81L18.3301 15.7725ZM17.88 18.24L18.3301 19.335L18.3451 19.3725L18.1126 19.335L17.1826 19.185L17.88 18.24ZM19.3126 14.775L19.4025 14.1975L19.5001 13.6125L20.3025 14.1975L20.4526 14.31L19.3126 14.775ZM21.795 14.325L21.975 14.1975L22.755 13.635L22.8451 14.1975L22.935 14.7975L21.795 14.325ZM23.895 15.7575L24.225 15.81L25.0651 15.945L24.3752 16.89L23.9176 15.81L23.895 15.7575ZM23.91 19.335L24.3824 18.2325L25.08 19.185L24.135 19.335L23.8949 19.3725L23.91 19.335ZM25.5975 14.1975L25.44 15.06L25.395 15.3L23.88 15.06L23.6475 15.0225L23.5201 14.1975L23.3852 13.2975L25.8377 12.855L25.5975 14.1975ZM22.365 10.785C22.71 10.845 23.0549 10.935 23.4001 11.0475L23.2126 11.535L22.9125 12.315L22.365 11.535L21.8325 10.785L21.7724 10.695C21.9675 10.7175 22.1625 10.7475 22.365 10.785ZM21.1201 10.9125L21.555 11.535L22.5375 12.945L21.1201 13.995L19.71 12.96L20.6925 11.535L21.1201 10.9125ZM19.785 10.785C20.01 10.74 20.2351 10.7025 20.4526 10.68L20.3775 10.785L19.86 11.535L19.3048 12.345L18.9375 11.535L18.735 11.0775C19.0876 10.95 19.4326 10.8525 19.785 10.785ZM17.7676 11.535C17.8875 11.4675 18.0075 11.4 18.1276 11.34L18.2175 11.535L18.6826 12.585L16.7325 12.2325C17.0626 11.97 17.4076 11.7375 17.7676 11.535ZM13.7475 19.335H5.5125C4.545 19.335 3.7501 18.5475 3.7501 17.5725C3.7501 16.5975 4.545 15.81 5.5125 15.81H13.7475C13.6126 16.3875 13.545 16.98 13.545 17.565C13.545 18.165 13.6126 18.7575 13.7475 19.335ZM14.115 14.6625L14.0925 14.6925V14.7525C14.055 14.85 14.0101 14.955 13.9801 15.06H5.5126C4.5376 15.0525 3.7502 14.2725 3.7502 13.2975C3.7502 12.33 4.5451 11.535 5.5201 11.535H16.53C16.2826 11.7225 16.0426 11.9325 15.81 12.1575L15.7424 12.225C15.1726 12.81 14.6925 13.47 14.34 14.1975C14.2574 14.3475 14.1826 14.505 14.115 14.6625ZM14.4449 19.335C14.3475 18.96 14.2799 18.5925 14.2424 18.2175L15.8475 19.335L15.8925 19.365L14.625 19.9275C14.5576 19.725 14.4975 19.53 14.4449 19.335ZM16.1251 20.085L15.9674 20.9475L15.7874 21.9525C15.525 21.6375 15.3 21.3075 15.0975 20.9475C15.0224 20.82 14.9626 20.6925 14.895 20.5575L15.9526 20.085L16.1401 20.0025L16.1251 20.085ZM16.6501 20.9475L16.8076 20.085L16.8525 19.8225L18.4576 20.085L18.5925 20.1075L18.7274 20.9475L18.8625 21.8325L16.41 22.275L16.6501 20.9475ZM18.21 23.835C17.6625 23.565 17.1826 23.2575 16.7325 22.8975L18.7051 22.545L18.21 23.835ZM18.8475 24.0825L19.3276 22.815L20.4599 24.435C19.935 24.3825 19.38 24.2625 18.8475 24.0825ZM19.71 22.185L21.1201 21.135L22.5375 22.17L21.1201 24.2175L19.71 22.185ZM21.795 24.45L22.9425 22.785L23.505 24.0525C22.935 24.2625 22.3575 24.39 21.795 24.45ZM24.1126 23.79L23.5651 22.545L25.5152 22.8975C25.1024 23.2275 24.63 23.5275 24.1126 23.79ZM23.3851 21.8325L23.52 20.9475L23.6474 20.0925L23.6924 20.085L25.3949 19.8225L25.4399 20.085L25.5974 20.9475L25.8375 22.275L23.3851 21.8325ZM27.1426 20.9475C26.9401 21.3 26.715 21.6375 26.46 21.945L26.2725 20.9475L26.1225 20.085L26.1075 19.98L26.3776 20.085L27.3975 20.475C27.3151 20.64 27.2325 20.7975 27.1426 20.9475ZM27.7875 19.335C27.7425 19.5075 27.6901 19.68 27.63 19.8525L26.355 19.3575L26.385 19.335L27.9824 18.2175C27.96 18.5925 27.8926 18.9675 27.7875 19.335ZM26.4149 15.81L26.3475 15.765L27.615 15.2025C27.6901 15.405 27.7501 15.6075 27.795 15.81C27.9001 16.1775 27.96 16.545 27.9975 16.905L26.4149 15.81ZM28.1174 14.64V14.6025C28.0575 14.4675 27.9975 14.3325 27.9226 14.1975C27.5626 13.4775 27.0975 12.825 26.52 12.24L26.4674 12.195C26.22 11.955 25.9575 11.73 25.6799 11.535H36.7274C37.7026 11.535 38.49 12.33 38.49 13.2975C38.49 14.2725 37.7026 15.06 36.7274 15.06H28.2751C28.23 14.9175 28.1775 14.775 28.1174 14.64ZM36.7274 19.335H28.4851C28.6276 18.75 28.7026 18.1575 28.7026 17.565C28.7026 16.965 28.635 16.38 28.4924 15.81H36.7274C37.6949 15.81 38.49 16.5975 38.49 17.5725C38.49 18.5475 37.6949 19.335 36.7274 19.335Z" fill="black" fill-opacity="0.2"/>
<path d="M38.0399 15.435C38.7601 15 39.24 14.205 39.24 13.2975C39.24 11.9175 38.115 10.785 36.7274 10.785H24.4725C24.3225 10.7025 24.1726 10.635 24.0224 10.5675L23.9924 10.545H23.94C22.0575 9.79497 19.995 9.83247 18.1949 10.575L18.1575 10.5825C18.0074 10.6425 17.8649 10.71 17.7299 10.785H5.5199C4.1323 10.785 3 11.9175 3 13.2975C3 14.205 3.4799 15 4.2074 15.435C3.4799 15.87 3 16.665 3 17.5725C3 18.96 4.125 20.085 5.5124 20.085H13.9724C14.0174 20.22 14.0698 20.355 14.1224 20.49L14.1299 20.5275C14.19 20.67 14.2573 20.8125 14.3324 20.9475C14.6849 21.66 15.15 22.305 15.7125 22.89L15.7574 22.935L15.8024 22.965C16.5074 23.6475 17.3174 24.1875 18.2399 24.5775C18.2549 24.5925 18.2774 24.6 18.3 24.6C19.1925 24.9675 20.145 25.1475 21.105 25.1475C22.1324 25.1475 23.1225 24.945 24.0524 24.555L24.0899 24.5475C24.9673 24.1725 25.7549 23.6475 26.4225 22.98C26.4599 22.9575 26.4899 22.935 26.5049 22.8975C27.0824 22.2975 27.5548 21.645 27.9 20.9475C27.9749 20.7975 28.0425 20.6475 28.11 20.49L28.1474 20.3775C28.1849 20.28 28.2225 20.1825 28.2525 20.085H36.7274C38.115 20.085 39.24 18.96 39.24 17.5725C39.24 16.665 38.7601 15.87 38.0399 15.435ZM23.9476 11.535L24.0375 11.295C24.195 11.37 24.3376 11.4525 24.4876 11.535C24.8551 11.745 25.1926 11.9775 25.5075 12.2325L23.5426 12.585L23.9476 11.535ZM27.7725 17.565L25.7325 18.9825L24.6976 17.565L25.7325 16.1475L27.7725 17.565ZM26.1075 15.1275L26.1225 15.06L26.2725 14.1975L26.46 13.1775C26.7151 13.5 26.9551 13.8375 27.1576 14.1975C27.225 14.3175 27.2925 14.445 27.3524 14.5725L26.2574 15.06L26.1075 15.1275ZM21.81 20.085L21.1201 20.37L20.43 20.085L19.1325 19.5525L19.0426 19.335L18.3076 17.565L19.0351 15.81L19.1325 15.5775L20.3926 15.06L21.1201 14.76L21.8476 15.06L23.1075 15.5775L23.2051 15.81L23.9326 17.565L23.1976 19.335L23.1075 19.5525L21.81 20.085ZM22.935 20.355L22.8376 20.9475L22.7475 21.5175L21.9675 20.9475L21.795 20.82L22.935 20.355ZM20.4449 20.805L20.2501 20.9475L19.4851 21.495L19.4025 20.9475L19.3049 20.3325L20.4449 20.805ZM15.8851 15.7725L15.8325 15.81L14.2574 16.9125C14.2874 16.545 14.355 16.1775 14.4526 15.81C14.4975 15.63 14.55 15.4575 14.6101 15.2775L15.8851 15.7725ZM14.8425 14.655C14.9251 14.4975 15.0075 14.3475 15.0976 14.1975C15.3001 13.8375 15.5327 13.5 15.7875 13.185L15.9675 14.1975L16.1252 15.06L16.1402 15.15L15.9077 15.06L14.8425 14.655ZM16.5151 16.1475L17.55 17.565L16.5151 18.9825L14.4599 17.565L16.5151 16.1475ZM16.8524 15.3075L16.8075 15.06L16.65 14.1975L16.4099 12.855L18.8624 13.2975L18.7199 14.1975L18.5923 15.0375L18.4498 15.06L16.8524 15.3075ZM18.3301 15.7725L18.3151 15.81L17.865 16.89L17.1676 15.945L18.0751 15.81L18.3301 15.7725ZM17.88 18.24L18.3301 19.335L18.3451 19.3725L18.1126 19.335L17.1826 19.185L17.88 18.24ZM19.3126 14.775L19.4025 14.1975L19.5001 13.6125L20.3025 14.1975L20.4526 14.31L19.3126 14.775ZM21.795 14.325L21.975 14.1975L22.755 13.635L22.8451 14.1975L22.935 14.7975L21.795 14.325ZM23.895 15.7575L24.225 15.81L25.0651 15.945L24.3752 16.89L23.9176 15.81L23.895 15.7575ZM23.91 19.335L24.3824 18.2325L25.08 19.185L24.135 19.335L23.8949 19.3725L23.91 19.335ZM25.5975 14.1975L25.44 15.06L25.395 15.3L23.88 15.06L23.6475 15.0225L23.5201 14.1975L23.3852 13.2975L25.8377 12.855L25.5975 14.1975ZM22.365 10.785C22.71 10.845 23.0549 10.935 23.4001 11.0475L23.2126 11.535L22.9125 12.315L22.365 11.535L21.8325 10.785L21.7724 10.695C21.9675 10.7175 22.1625 10.7475 22.365 10.785ZM21.1201 10.9125L21.555 11.535L22.5375 12.945L21.1201 13.995L19.71 12.96L20.6925 11.535L21.1201 10.9125ZM19.785 10.785C20.01 10.74 20.2351 10.7025 20.4526 10.68L20.3775 10.785L19.86 11.535L19.3048 12.345L18.9375 11.535L18.735 11.0775C19.0876 10.95 19.4326 10.8525 19.785 10.785ZM17.7676 11.535C17.8875 11.4675 18.0075 11.4 18.1276 11.34L18.2175 11.535L18.6826 12.585L16.7325 12.2325C17.0626 11.97 17.4076 11.7375 17.7676 11.535ZM13.7475 19.335H5.5125C4.545 19.335 3.7501 18.5475 3.7501 17.5725C3.7501 16.5975 4.545 15.81 5.5125 15.81H13.7475C13.6126 16.3875 13.545 16.98 13.545 17.565C13.545 18.165 13.6126 18.7575 13.7475 19.335ZM14.115 14.6625L14.0925 14.6925V14.7525C14.055 14.85 14.0101 14.955 13.9801 15.06H5.5126C4.5376 15.0525 3.7502 14.2725 3.7502 13.2975C3.7502 12.33 4.5451 11.535 5.5201 11.535H16.53C16.2826 11.7225 16.0426 11.9325 15.81 12.1575L15.7424 12.225C15.1726 12.81 14.6925 13.47 14.34 14.1975C14.2574 14.3475 14.1826 14.505 14.115 14.6625ZM14.4449 19.335C14.3475 18.96 14.2799 18.5925 14.2424 18.2175L15.8475 19.335L15.8925 19.365L14.625 19.9275C14.5576 19.725 14.4975 19.53 14.4449 19.335ZM16.1251 20.085L15.9674 20.9475L15.7874 21.9525C15.525 21.6375 15.3 21.3075 15.0975 20.9475C15.0224 20.82 14.9626 20.6925 14.895 20.5575L15.9526 20.085L16.1401 20.0025L16.1251 20.085ZM16.6501 20.9475L16.8076 20.085L16.8525 19.8225L18.4576 20.085L18.5925 20.1075L18.7274 20.9475L18.8625 21.8325L16.41 22.275L16.6501 20.9475ZM18.21 23.835C17.6625 23.565 17.1826 23.2575 16.7325 22.8975L18.7051 22.545L18.21 23.835ZM18.8475 24.0825L19.3276 22.815L20.4599 24.435C19.935 24.3825 19.38 24.2625 18.8475 24.0825ZM19.71 22.185L21.1201 21.135L22.5375 22.17L21.1201 24.2175L19.71 22.185ZM21.795 24.45L22.9425 22.785L23.505 24.0525C22.935 24.2625 22.3575 24.39 21.795 24.45ZM24.1126 23.79L23.5651 22.545L25.5152 22.8975C25.1024 23.2275 24.63 23.5275 24.1126 23.79ZM23.3851 21.8325L23.52 20.9475L23.6474 20.0925L23.6924 20.085L25.3949 19.8225L25.4399 20.085L25.5974 20.9475L25.8375 22.275L23.3851 21.8325ZM27.1426 20.9475C26.9401 21.3 26.715 21.6375 26.46 21.945L26.2725 20.9475L26.1225 20.085L26.1075 19.98L26.3776 20.085L27.3975 20.475C27.3151 20.64 27.2325 20.7975 27.1426 20.9475ZM27.7875 19.335C27.7425 19.5075 27.6901 19.68 27.63 19.8525L26.355 19.3575L26.385 19.335L27.9824 18.2175C27.96 18.5925 27.8926 18.9675 27.7875 19.335ZM26.4149 15.81L26.3475 15.765L27.615 15.2025C27.6901 15.405 27.7501 15.6075 27.795 15.81C27.9001 16.1775 27.96 16.545 27.9975 16.905L26.4149 15.81ZM28.1174 14.64V14.6025C28.0575 14.4675 27.9975 14.3325 27.9226 14.1975C27.5626 13.4775 27.0975 12.825 26.52 12.24L26.4674 12.195C26.22 11.955 25.9575 11.73 25.6799 11.535H36.7274C37.7026 11.535 38.49 12.33 38.49 13.2975C38.49 14.2725 37.7026 15.06 36.7274 15.06H28.2751C28.23 14.9175 28.1775 14.775 28.1174 14.64ZM36.7274 19.335H28.4851C28.6276 18.75 28.7026 18.1575 28.7026 17.565C28.7026 16.965 28.635 16.38 28.4924 15.81H36.7274C37.6949 15.81 38.49 16.5975 38.49 17.5725C38.49 18.5475 37.6949 19.335 36.7274 19.335Z" fill="black" fill-opacity="0.2"/>
<path d="M38.0399 15.435C38.7601 15 39.24 14.205 39.24 13.2975C39.24 11.9175 38.115 10.785 36.7274 10.785H24.4725C24.3225 10.7025 24.1726 10.635 24.0224 10.5675L23.9924 10.545H23.94C22.0575 9.79497 19.995 9.83247 18.1949 10.575L18.1575 10.5825C18.0074 10.6425 17.8649 10.71 17.7299 10.785H5.5199C4.1323 10.785 3 11.9175 3 13.2975C3 14.205 3.4799 15 4.2074 15.435C3.4799 15.87 3 16.665 3 17.5725C3 18.96 4.125 20.085 5.5124 20.085H13.9724C14.0174 20.22 14.0698 20.355 14.1224 20.49L14.1299 20.5275C14.19 20.67 14.2573 20.8125 14.3324 20.9475C14.6849 21.66 15.15 22.305 15.7125 22.89L15.7574 22.935L15.8024 22.965C16.5074 23.6475 17.3174 24.1875 18.2399 24.5775C18.2549 24.5925 18.2774 24.6 18.3 24.6C19.1925 24.9675 20.145 25.1475 21.105 25.1475C22.1324 25.1475 23.1225 24.945 24.0524 24.555L24.0899 24.5475C24.9673 24.1725 25.7549 23.6475 26.4225 22.98C26.4599 22.9575 26.4899 22.935 26.5049 22.8975C27.0824 22.2975 27.5548 21.645 27.9 20.9475C27.9749 20.7975 28.0425 20.6475 28.11 20.49L28.1474 20.3775C28.1849 20.28 28.2225 20.1825 28.2525 20.085H36.7274C38.115 20.085 39.24 18.96 39.24 17.5725C39.24 16.665 38.7601 15.87 38.0399 15.435ZM23.9476 11.535L24.0375 11.295C24.195 11.37 24.3376 11.4525 24.4876 11.535C24.8551 11.745 25.1926 11.9775 25.5075 12.2325L23.5426 12.585L23.9476 11.535ZM27.7725 17.565L25.7325 18.9825L24.6976 17.565L25.7325 16.1475L27.7725 17.565ZM26.1075 15.1275L26.1225 15.06L26.2725 14.1975L26.46 13.1775C26.7151 13.5 26.9551 13.8375 27.1576 14.1975C27.225 14.3175 27.2925 14.445 27.3524 14.5725L26.2574 15.06L26.1075 15.1275ZM21.81 20.085L21.1201 20.37L20.43 20.085L19.1325 19.5525L19.0426 19.335L18.3076 17.565L19.0351 15.81L19.1325 15.5775L20.3926 15.06L21.1201 14.76L21.8476 15.06L23.1075 15.5775L23.2051 15.81L23.9326 17.565L23.1976 19.335L23.1075 19.5525L21.81 20.085ZM22.935 20.355L22.8376 20.9475L22.7475 21.5175L21.9675 20.9475L21.795 20.82L22.935 20.355ZM20.4449 20.805L20.2501 20.9475L19.4851 21.495L19.4025 20.9475L19.3049 20.3325L20.4449 20.805ZM15.8851 15.7725L15.8325 15.81L14.2574 16.9125C14.2874 16.545 14.355 16.1775 14.4526 15.81C14.4975 15.63 14.55 15.4575 14.6101 15.2775L15.8851 15.7725ZM14.8425 14.655C14.9251 14.4975 15.0075 14.3475 15.0976 14.1975C15.3001 13.8375 15.5327 13.5 15.7875 13.185L15.9675 14.1975L16.1252 15.06L16.1402 15.15L15.9077 15.06L14.8425 14.655ZM16.5151 16.1475L17.55 17.565L16.5151 18.9825L14.4599 17.565L16.5151 16.1475ZM16.8524 15.3075L16.8075 15.06L16.65 14.1975L16.4099 12.855L18.8624 13.2975L18.7199 14.1975L18.5923 15.0375L18.4498 15.06L16.8524 15.3075ZM18.3301 15.7725L18.3151 15.81L17.865 16.89L17.1676 15.945L18.0751 15.81L18.3301 15.7725ZM17.88 18.24L18.3301 19.335L18.3451 19.3725L18.1126 19.335L17.1826 19.185L17.88 18.24ZM19.3126 14.775L19.4025 14.1975L19.5001 13.6125L20.3025 14.1975L20.4526 14.31L19.3126 14.775ZM21.795 14.325L21.975 14.1975L22.755 13.635L22.8451 14.1975L22.935 14.7975L21.795 14.325ZM23.895 15.7575L24.225 15.81L25.0651 15.945L24.3752 16.89L23.9176 15.81L23.895 15.7575ZM23.91 19.335L24.3824 18.2325L25.08 19.185L24.135 19.335L23.8949 19.3725L23.91 19.335ZM25.5975 14.1975L25.44 15.06L25.395 15.3L23.88 15.06L23.6475 15.0225L23.5201 14.1975L23.3852 13.2975L25.8377 12.855L25.5975 14.1975ZM22.365 10.785C22.71 10.845 23.0549 10.935 23.4001 11.0475L23.2126 11.535L22.9125 12.315L22.365 11.535L21.8325 10.785L21.7724 10.695C21.9675 10.7175 22.1625 10.7475 22.365 10.785ZM21.1201 10.9125L21.555 11.535L22.5375 12.945L21.1201 13.995L19.71 12.96L20.6925 11.535L21.1201 10.9125ZM19.785 10.785C20.01 10.74 20.2351 10.7025 20.4526 10.68L20.3775 10.785L19.86 11.535L19.3048 12.345L18.9375 11.535L18.735 11.0775C19.0876 10.95 19.4326 10.8525 19.785 10.785ZM17.7676 11.535C17.8875 11.4675 18.0075 11.4 18.1276 11.34L18.2175 11.535L18.6826 12.585L16.7325 12.2325C17.0626 11.97 17.4076 11.7375 17.7676 11.535ZM13.7475 19.335H5.5125C4.545 19.335 3.7501 18.5475 3.7501 17.5725C3.7501 16.5975 4.545 15.81 5.5125 15.81H13.7475C13.6126 16.3875 13.545 16.98 13.545 17.565C13.545 18.165 13.6126 18.7575 13.7475 19.335ZM14.115 14.6625L14.0925 14.6925V14.7525C14.055 14.85 14.0101 14.955 13.9801 15.06H5.5126C4.5376 15.0525 3.7502 14.2725 3.7502 13.2975C3.7502 12.33 4.5451 11.535 5.5201 11.535H16.53C16.2826 11.7225 16.0426 11.9325 15.81 12.1575L15.7424 12.225C15.1726 12.81 14.6925 13.47 14.34 14.1975C14.2574 14.3475 14.1826 14.505 14.115 14.6625ZM14.4449 19.335C14.3475 18.96 14.2799 18.5925 14.2424 18.2175L15.8475 19.335L15.8925 19.365L14.625 19.9275C14.5576 19.725 14.4975 19.53 14.4449 19.335ZM16.1251 20.085L15.9674 20.9475L15.7874 21.9525C15.525 21.6375 15.3 21.3075 15.0975 20.9475C15.0224 20.82 14.9626 20.6925 14.895 20.5575L15.9526 20.085L16.1401 20.0025L16.1251 20.085ZM16.6501 20.9475L16.8076 20.085L16.8525 19.8225L18.4576 20.085L18.5925 20.1075L18.7274 20.9475L18.8625 21.8325L16.41 22.275L16.6501 20.9475ZM18.21 23.835C17.6625 23.565 17.1826 23.2575 16.7325 22.8975L18.7051 22.545L18.21 23.835ZM18.8475 24.0825L19.3276 22.815L20.4599 24.435C19.935 24.3825 19.38 24.2625 18.8475 24.0825ZM19.71 22.185L21.1201 21.135L22.5375 22.17L21.1201 24.2175L19.71 22.185ZM21.795 24.45L22.9425 22.785L23.505 24.0525C22.935 24.2625 22.3575 24.39 21.795 24.45ZM24.1126 23.79L23.5651 22.545L25.5152 22.8975C25.1024 23.2275 24.63 23.5275 24.1126 23.79ZM23.3851 21.8325L23.52 20.9475L23.6474 20.0925L23.6924 20.085L25.3949 19.8225L25.4399 20.085L25.5974 20.9475L25.8375 22.275L23.3851 21.8325ZM27.1426 20.9475C26.9401 21.3 26.715 21.6375 26.46 21.945L26.2725 20.9475L26.1225 20.085L26.1075 19.98L26.3776 20.085L27.3975 20.475C27.3151 20.64 27.2325 20.7975 27.1426 20.9475ZM27.7875 19.335C27.7425 19.5075 27.6901 19.68 27.63 19.8525L26.355 19.3575L26.385 19.335L27.9824 18.2175C27.96 18.5925 27.8926 18.9675 27.7875 19.335ZM26.4149 15.81L26.3475 15.765L27.615 15.2025C27.6901 15.405 27.7501 15.6075 27.795 15.81C27.9001 16.1775 27.96 16.545 27.9975 16.905L26.4149 15.81ZM28.1174 14.64V14.6025C28.0575 14.4675 27.9975 14.3325 27.9226 14.1975C27.5626 13.4775 27.0975 12.825 26.52 12.24L26.4674 12.195C26.22 11.955 25.9575 11.73 25.6799 11.535H36.7274C37.7026 11.535 38.49 12.33 38.49 13.2975C38.49 14.2725 37.7026 15.06 36.7274 15.06H28.2751C28.23 14.9175 28.1775 14.775 28.1174 14.64ZM36.7274 19.335H28.4851C28.6276 18.75 28.7026 18.1575 28.7026 17.565C28.7026 16.965 28.635 16.38 28.4924 15.81H36.7274C37.6949 15.81 38.49 16.5975 38.49 17.5725C38.49 18.5475 37.6949 19.335 36.7274 19.335Z" fill="black" fill-opacity="0.2"/>
<path d="M38.0399 15.435C38.7601 15 39.24 14.205 39.24 13.2975C39.24 11.9175 38.115 10.785 36.7274 10.785H24.4725C24.3225 10.7025 24.1726 10.635 24.0224 10.5675L23.9924 10.545H23.94C22.0575 9.79497 19.995 9.83247 18.1949 10.575L18.1575 10.5825C18.0074 10.6425 17.8649 10.71 17.7299 10.785H5.5199C4.1323 10.785 3 11.9175 3 13.2975C3 14.205 3.4799 15 4.2074 15.435C3.4799 15.87 3 16.665 3 17.5725C3 18.96 4.125 20.085 5.5124 20.085H13.9724C14.0174 20.22 14.0698 20.355 14.1224 20.49L14.1299 20.5275C14.19 20.67 14.2573 20.8125 14.3324 20.9475C14.6849 21.66 15.15 22.305 15.7125 22.89L15.7574 22.935L15.8024 22.965C16.5074 23.6475 17.3174 24.1875 18.2399 24.5775C18.2549 24.5925 18.2774 24.6 18.3 24.6C19.1925 24.9675 20.145 25.1475 21.105 25.1475C22.1324 25.1475 23.1225 24.945 24.0524 24.555L24.0899 24.5475C24.9673 24.1725 25.7549 23.6475 26.4225 22.98C26.4599 22.9575 26.4899 22.935 26.5049 22.8975C27.0824 22.2975 27.5548 21.645 27.9 20.9475C27.9749 20.7975 28.0425 20.6475 28.11 20.49L28.1474 20.3775C28.1849 20.28 28.2225 20.1825 28.2525 20.085H36.7274C38.115 20.085 39.24 18.96 39.24 17.5725C39.24 16.665 38.7601 15.87 38.0399 15.435ZM23.9476 11.535L24.0375 11.295C24.195 11.37 24.3376 11.4525 24.4876 11.535C24.8551 11.745 25.1926 11.9775 25.5075 12.2325L23.5426 12.585L23.9476 11.535ZM27.7725 17.565L25.7325 18.9825L24.6976 17.565L25.7325 16.1475L27.7725 17.565ZM26.1075 15.1275L26.1225 15.06L26.2725 14.1975L26.46 13.1775C26.7151 13.5 26.9551 13.8375 27.1576 14.1975C27.225 14.3175 27.2925 14.445 27.3524 14.5725L26.2574 15.06L26.1075 15.1275ZM21.81 20.085L21.1201 20.37L20.43 20.085L19.1325 19.5525L19.0426 19.335L18.3076 17.565L19.0351 15.81L19.1325 15.5775L20.3926 15.06L21.1201 14.76L21.8476 15.06L23.1075 15.5775L23.2051 15.81L23.9326 17.565L23.1976 19.335L23.1075 19.5525L21.81 20.085ZM22.935 20.355L22.8376 20.9475L22.7475 21.5175L21.9675 20.9475L21.795 20.82L22.935 20.355ZM20.4449 20.805L20.2501 20.9475L19.4851 21.495L19.4025 20.9475L19.3049 20.3325L20.4449 20.805ZM15.8851 15.7725L15.8325 15.81L14.2574 16.9125C14.2874 16.545 14.355 16.1775 14.4526 15.81C14.4975 15.63 14.55 15.4575 14.6101 15.2775L15.8851 15.7725ZM14.8425 14.655C14.9251 14.4975 15.0075 14.3475 15.0976 14.1975C15.3001 13.8375 15.5327 13.5 15.7875 13.185L15.9675 14.1975L16.1252 15.06L16.1402 15.15L15.9077 15.06L14.8425 14.655ZM16.5151 16.1475L17.55 17.565L16.5151 18.9825L14.4599 17.565L16.5151 16.1475ZM16.8524 15.3075L16.8075 15.06L16.65 14.1975L16.4099 12.855L18.8624 13.2975L18.7199 14.1975L18.5923 15.0375L18.4498 15.06L16.8524 15.3075ZM18.3301 15.7725L18.3151 15.81L17.865 16.89L17.1676 15.945L18.0751 15.81L18.3301 15.7725ZM17.88 18.24L18.3301 19.335L18.3451 19.3725L18.1126 19.335L17.1826 19.185L17.88 18.24ZM19.3126 14.775L19.4025 14.1975L19.5001 13.6125L20.3025 14.1975L20.4526 14.31L19.3126 14.775ZM21.795 14.325L21.975 14.1975L22.755 13.635L22.8451 14.1975L22.935 14.7975L21.795 14.325ZM23.895 15.7575L24.225 15.81L25.0651 15.945L24.3752 16.89L23.9176 15.81L23.895 15.7575ZM23.91 19.335L24.3824 18.2325L25.08 19.185L24.135 19.335L23.8949 19.3725L23.91 19.335ZM25.5975 14.1975L25.44 15.06L25.395 15.3L23.88 15.06L23.6475 15.0225L23.5201 14.1975L23.3852 13.2975L25.8377 12.855L25.5975 14.1975ZM22.365 10.785C22.71 10.845 23.0549 10.935 23.4001 11.0475L23.2126 11.535L22.9125 12.315L22.365 11.535L21.8325 10.785L21.7724 10.695C21.9675 10.7175 22.1625 10.7475 22.365 10.785ZM21.1201 10.9125L21.555 11.535L22.5375 12.945L21.1201 13.995L19.71 12.96L20.6925 11.535L21.1201 10.9125ZM19.785 10.785C20.01 10.74 20.2351 10.7025 20.4526 10.68L20.3775 10.785L19.86 11.535L19.3048 12.345L18.9375 11.535L18.735 11.0775C19.0876 10.95 19.4326 10.8525 19.785 10.785ZM17.7676 11.535C17.8875 11.4675 18.0075 11.4 18.1276 11.34L18.2175 11.535L18.6826 12.585L16.7325 12.2325C17.0626 11.97 17.4076 11.7375 17.7676 11.535ZM13.7475 19.335H5.5125C4.545 19.335 3.7501 18.5475 3.7501 17.5725C3.7501 16.5975 4.545 15.81 5.5125 15.81H13.7475C13.6126 16.3875 13.545 16.98 13.545 17.565C13.545 18.165 13.6126 18.7575 13.7475 19.335ZM14.115 14.6625L14.0925 14.6925V14.7525C14.055 14.85 14.0101 14.955 13.9801 15.06H5.5126C4.5376 15.0525 3.7502 14.2725 3.7502 13.2975C3.7502 12.33 4.5451 11.535 5.5201 11.535H16.53C16.2826 11.7225 16.0426 11.9325 15.81 12.1575L15.7424 12.225C15.1726 12.81 14.6925 13.47 14.34 14.1975C14.2574 14.3475 14.1826 14.505 14.115 14.6625ZM14.4449 19.335C14.3475 18.96 14.2799 18.5925 14.2424 18.2175L15.8475 19.335L15.8925 19.365L14.625 19.9275C14.5576 19.725 14.4975 19.53 14.4449 19.335ZM16.1251 20.085L15.9674 20.9475L15.7874 21.9525C15.525 21.6375 15.3 21.3075 15.0975 20.9475C15.0224 20.82 14.9626 20.6925 14.895 20.5575L15.9526 20.085L16.1401 20.0025L16.1251 20.085ZM16.6501 20.9475L16.8076 20.085L16.8525 19.8225L18.4576 20.085L18.5925 20.1075L18.7274 20.9475L18.8625 21.8325L16.41 22.275L16.6501 20.9475ZM18.21 23.835C17.6625 23.565 17.1826 23.2575 16.7325 22.8975L18.7051 22.545L18.21 23.835ZM18.8475 24.0825L19.3276 22.815L20.4599 24.435C19.935 24.3825 19.38 24.2625 18.8475 24.0825ZM19.71 22.185L21.1201 21.135L22.5375 22.17L21.1201 24.2175L19.71 22.185ZM21.795 24.45L22.9425 22.785L23.505 24.0525C22.935 24.2625 22.3575 24.39 21.795 24.45ZM24.1126 23.79L23.5651 22.545L25.5152 22.8975C25.1024 23.2275 24.63 23.5275 24.1126 23.79ZM23.3851 21.8325L23.52 20.9475L23.6474 20.0925L23.6924 20.085L25.3949 19.8225L25.4399 20.085L25.5974 20.9475L25.8375 22.275L23.3851 21.8325ZM27.1426 20.9475C26.9401 21.3 26.715 21.6375 26.46 21.945L26.2725 20.9475L26.1225 20.085L26.1075 19.98L26.3776 20.085L27.3975 20.475C27.3151 20.64 27.2325 20.7975 27.1426 20.9475ZM27.7875 19.335C27.7425 19.5075 27.6901 19.68 27.63 19.8525L26.355 19.3575L26.385 19.335L27.9824 18.2175C27.96 18.5925 27.8926 18.9675 27.7875 19.335ZM26.4149 15.81L26.3475 15.765L27.615 15.2025C27.6901 15.405 27.7501 15.6075 27.795 15.81C27.9001 16.1775 27.96 16.545 27.9975 16.905L26.4149 15.81ZM28.1174 14.64V14.6025C28.0575 14.4675 27.9975 14.3325 27.9226 14.1975C27.5626 13.4775 27.0975 12.825 26.52 12.24L26.4674 12.195C26.22 11.955 25.9575 11.73 25.6799 11.535H36.7274C37.7026 11.535 38.49 12.33 38.49 13.2975C38.49 14.2725 37.7026 15.06 36.7274 15.06H28.2751C28.23 14.9175 28.1775 14.775 28.1174 14.64ZM36.7274 19.335H28.4851C28.6276 18.75 28.7026 18.1575 28.7026 17.565C28.7026 16.965 28.635 16.38 28.4924 15.81H36.7274C37.6949 15.81 38.49 16.5975 38.49 17.5725C38.49 18.5475 37.6949 19.335 36.7274 19.335Z" fill="black" fill-opacity="0.2"/>
</g>
</g>
</svg>
