<svg width="24" height="25" viewBox="0 0 24 25" fill="none" xmlns="http://www.w3.org/2000/svg">
<path d="M6.75 3.50024V5.75024M17.25 3.50024V5.75024M3 19.2502V8.00024C3 7.40351 3.23705 6.83121 3.65901 6.40925C4.08097 5.9873 4.65326 5.75024 5.25 5.75024H18.75C19.3467 5.75024 19.919 5.9873 20.341 6.40925C20.7629 6.83121 21 7.40351 21 8.00024V19.2502M3 19.2502C3 19.847 3.23705 20.4193 3.65901 20.8412C4.08097 21.2632 4.65326 21.5002 5.25 21.5002H18.75C19.3467 21.5002 19.919 21.2632 20.341 20.8412C20.7629 20.4193 21 19.847 21 19.2502M3 19.2502V11.7502C3 11.1535 3.23705 10.5812 3.65901 10.1593C4.08097 9.7373 4.65326 9.50024 5.25 9.50024H18.75C19.3467 9.50024 19.919 9.7373 20.341 10.1593C20.7629 10.5812 21 11.1535 21 11.7502V19.2502" stroke="#333335" stroke-width="1.5" stroke-linecap="round" stroke-linejoin="round"/>
</svg>
