<svg width="20" height="20" viewBox="0 0 20 20" fill="none" xmlns="http://www.w3.org/2000/svg">
<mask id="mask0_742_45573" style="mask-type:luminance" maskUnits="userSpaceOnUse" x="0" y="0" width="20" height="20">
<path d="M20 0H0V20H20V0Z" fill="white"/>
</mask>
<g mask="url(#mask0_742_45573)">
<path d="M10 20C15.5228 20 20 15.5228 20 10C20 4.47715 15.5228 0 10 0C4.47715 0 0 4.47715 0 10C0 15.5228 4.47715 20 10 20Z" fill="#FDE307"/>
<path d="M3.1377 7.36876L4.25991 9.99988L5.97436 6.31543L3.1377 7.36876Z" fill="#AB3101"/>
<path d="M2.60889 3.26446L7.22109 3.40226L6.18555 0.757812C4.80999 1.32337 3.59333 2.18557 2.60889 3.26446Z" fill="#FDC97D"/>
<path d="M6.09448 13.8477L7.45782 16.641L10.0578 15.5054L6.09448 13.8477Z" fill="#AB3101"/>
<path d="M3.01782 12.5489L6.09559 13.8478L4.26004 10L3.01782 12.5489Z" fill="#FACD72"/>
<path d="M2.60889 3.26465L3.13777 7.36909L5.97443 6.31576L7.22109 3.40245L2.60889 3.26465Z" fill="#FDE307"/>
<path d="M0 9.99976C0 10.0731 -2.44162e-06 10.1498 0.004442 10.2231L3.13778 7.36864L0.726666 6.25977C0.257777 7.41643 0 8.67532 0 9.99976Z" fill="#C61D06"/>
<path d="M0.722168 6.26022L3.13773 7.36909L2.60884 3.26465C1.81329 4.13465 1.17328 5.15022 0.722168 6.26022Z" fill="#FD8F2F"/>
<path d="M0.00439453 10.2231L3.01773 12.5487L4.25995 9.99978L3.13774 7.36865L0.00439453 10.2231Z" fill="#FD8F2F"/>
<path d="M0.81665 13.9588C1.29776 15.0688 1.97332 16.0799 2.80221 16.9366L3.02221 12.5488L0.81665 13.9588Z" fill="#C61D06"/>
<path d="M10.0576 15.5055L12.8987 16.5166L13.8832 13.9033L10.0576 15.5055Z" fill="#AB3101"/>
<path d="M0.00439453 10.2222C0.0299501 11.5466 0.317731 12.8099 0.81662 13.9588L3.02218 12.5488L0.00439453 10.2222Z" fill="#FD8F2F"/>
<path d="M10.0576 4.61468L13.9043 6.23466L12.8987 3.52246L10.0576 4.61468Z" fill="#FEFFA6"/>
<path d="M5.97437 6.31565L10.0577 4.61457L7.22103 3.40234L5.97437 6.31565Z" fill="#FACD72"/>
<path d="M14.0466 13.7922L16.9222 12.6733L15.5044 10L14.0466 13.7922Z" fill="#FACD72"/>
<path d="M13.9055 6.2334L15.5044 10.0001L16.7466 7.36896L13.9055 6.2334Z" fill="#FACD72"/>
<path d="M16.9221 12.6733L17.2021 16.9411C18.031 16.08 18.7066 15.0733 19.1877 13.9633L16.9221 12.6733Z" fill="#C61D06"/>
<path d="M16.7466 7.3688L19.9999 9.99993C19.9999 8.7277 19.7632 7.51103 19.3255 6.3877L16.7466 7.3688Z" fill="#FD8F2F"/>
<path d="M16.9221 12.6733L19.1832 13.9589C19.7077 12.7467 19.9999 11.4056 19.9999 10L16.9221 12.6733Z" fill="#FD8F2F"/>
<path d="M15.5044 9.99978L16.9222 12.6731L20 9.99978L16.7466 7.36865L15.5044 9.99978Z" fill="#FDE307"/>
<path d="M12.8989 16.5167L17.2023 16.9367L16.9223 12.6689L14.0423 13.7878L14.0212 13.8434L13.8789 13.9034L12.8989 16.5167Z" fill="#FD8F2F"/>
<path d="M2.79785 16.9367C2.79785 16.9411 2.79785 16.9411 2.79785 16.9367C3.70896 17.8834 4.80562 18.65 6.02673 19.1822L7.45339 16.6411C7.45784 16.6411 2.87563 16.8722 2.79785 16.9367Z" fill="#FD8F2F"/>
<path d="M6.18115 0.754428L7.22114 3.40224L10.0023 0C8.64781 0 7.35893 0.269984 6.18115 0.754428Z" fill="#FDE307"/>
<path d="M6.02979 19.1778C7.24645 19.7045 8.592 19.9956 10.002 19.9956L7.45757 16.6367L6.02979 19.1778Z" fill="#D14B02"/>
<path d="M10.0022 19.9999C11.4766 19.9999 12.8733 19.6833 14.1333 19.1088L12.8989 16.5166L10.0022 19.9999Z" fill="#D14B02"/>
<path d="M12.8989 16.5166L14.1334 19.1088C15.2889 18.5822 16.3289 17.8444 17.2023 16.9411L12.8989 16.5166Z" fill="#FD8F2F"/>
<path d="M12.8989 3.52203L17.3911 3.26422C16.42 2.202 15.2245 1.34979 13.8789 0.779785L12.8989 3.52203Z" fill="#FACD72"/>
<path d="M12.8989 3.52245L13.9056 6.23465L16.7467 7.36909L17.3911 3.26465L12.8989 3.52245Z" fill="#FFB80E"/>
<path d="M10.0022 0L12.9033 3.52224L13.8833 0.779995C12.6889 0.278884 11.3778 0 10.0022 0Z" fill="#FDE307"/>
<path d="M16.7466 7.36909L19.3288 6.38799C18.8777 5.22688 18.2199 4.16909 17.3955 3.26465L16.7466 7.36909Z" fill="#FD8F2F"/>
<path d="M7.22119 3.40224L10.0579 4.61446L12.899 3.52224L10.0023 0L7.22119 3.40224Z" fill="#E3482A"/>
<path d="M13.8833 13.9031L14.0255 13.8476L14.0466 13.792L13.9055 13.8476L13.8833 13.9031Z" fill="#C61D06"/>
<path d="M2.79785 16.9366C2.87563 16.8766 7.45339 16.641 7.45339 16.641L6.09117 13.8477L3.01341 12.5532L2.79785 16.9366Z" fill="#FDE307"/>
<path d="M7.45776 16.6409L10.0022 19.9998L12.8989 16.5165L10.0578 15.5054L7.45776 16.6409Z" fill="#FDE307"/>
</g>
</svg>
