<svg width="42" height="36" viewBox="0 0 42 36" fill="none" xmlns="http://www.w3.org/2000/svg">
<g id="pendants">
<g id="Vector">
<path d="M22.7905 15.58L29.1265 8.62701C29.3455 8.38601 29.1745 8 28.8495 8C28.7445 8 28.6435 8.04401 28.5725 8.12201L22.7905 14.47C22.7905 14.403 22.7365 14.349 22.6705 14.349H19.5624C19.4914 14.349 19.4345 14.407 19.4345 14.477L13.6525 8.12299C13.5815 8.04399 13.4805 8 13.3755 8C13.0495 8 12.8795 8.38601 13.0985 8.62701L19.4345 15.588V18.08H15.9785C15.8675 18.08 15.7785 18.169 15.7785 18.28V21.235C15.7785 21.345 15.8675 21.435 15.9785 21.435H19.4345V28.8C19.4345 28.91 19.5245 29 19.6345 29H22.5905C22.7005 29 22.7905 28.91 22.7905 28.8V21.435H26.2465C26.3575 21.435 26.4465 21.345 26.4465 21.235V18.28C26.4465 18.169 26.3575 18.08 26.2465 18.08H22.7905V15.58ZM20.4855 26.471C20.3655 26.546 20.2675 26.643 20.1855 26.763V26.178C20.2675 26.298 20.3655 26.396 20.4855 26.471ZM20.1855 24.842V24.264C20.2675 24.377 20.3655 24.474 20.4855 24.549C20.3655 24.624 20.2675 24.729 20.1855 24.842ZM20.3355 25.51C20.3355 25.082 20.6885 24.737 21.1085 24.737C21.5365 24.737 21.8825 25.082 21.8825 25.51C21.8825 25.938 21.5365 26.283 21.1085 26.283C20.6885 26.283 20.3355 25.938 20.3355 25.51ZM21.1085 24.362C20.6885 24.362 20.3355 24.016 20.3355 23.589C20.3355 23.168 20.6885 22.816 21.1085 22.816C21.5365 22.816 21.8825 23.168 21.8825 23.589C21.8825 24.016 21.5365 24.362 21.1085 24.362ZM20.1855 22.921V22.343C20.2675 22.455 20.3655 22.553 20.4855 22.628C20.3655 22.71 20.2675 22.808 20.1855 22.921ZM21.1085 22.44C20.6885 22.44 20.3355 22.095 20.3355 21.667C20.3355 21.247 20.6885 20.902 21.1085 20.902C21.5365 20.902 21.8825 21.247 21.8825 21.667C21.8825 22.095 21.5365 22.44 21.1085 22.44ZM21.1085 20.526C20.6885 20.526 20.3355 20.174 20.3355 19.753C20.3355 19.326 20.6885 18.98 21.1085 18.98C21.5365 18.98 21.8825 19.326 21.8825 19.753C21.8825 20.174 21.5365 20.526 21.1085 20.526ZM21.8825 17.832C21.8825 18.26 21.5365 18.605 21.1085 18.605C20.6885 18.605 20.3355 18.26 20.3355 17.832C20.3355 17.404 20.6885 17.059 21.1085 17.059C21.5365 17.059 21.8825 17.404 21.8825 17.832ZM21.7395 16.871C21.8515 16.796 21.9575 16.699 22.0395 16.578V17.164C21.9575 17.044 21.8515 16.946 21.7395 16.871ZM21.7395 18.793C21.8515 18.718 21.9575 18.613 22.0395 18.5V18.515C22.0395 18.689 22.1805 18.83 22.3545 18.83C22.2425 18.913 22.1445 19.01 22.0695 19.123C21.9875 18.995 21.8665 18.875 21.7395 18.793ZM22.0395 15.1V15.243C22.0025 15.19 21.9645 15.145 21.9195 15.1H22.0395ZM21.1085 15.138C21.5365 15.138 21.8825 15.483 21.8825 15.911C21.8825 16.338 21.5365 16.684 21.1085 16.684C20.6885 16.684 20.3355 16.338 20.3355 15.911C20.3355 15.483 20.6885 15.138 21.1085 15.138ZM20.1855 15.1H20.3055C20.2605 15.145 20.2225 15.19 20.1855 15.243V15.1ZM20.1855 16.578C20.2675 16.699 20.3655 16.796 20.4855 16.871C20.3655 16.946 20.2675 17.044 20.1855 17.164V16.578ZM19.8695 18.83C20.0445 18.83 20.1855 18.689 20.1855 18.515V18.5C20.2675 18.612 20.3655 18.717 20.4855 18.793C20.3505 18.875 20.2375 18.995 20.1475 19.123C20.0725 19.01 19.9745 18.913 19.8695 18.83ZM18.5185 18.83C18.4055 18.913 18.3085 19.01 18.2335 19.123C18.1585 19.01 18.0605 18.913 17.9485 18.83H18.5185ZM16.5295 18.83H16.5965C16.5745 18.845 16.5515 18.868 16.5295 18.883V18.83ZM16.5295 20.684V20.616C16.5515 20.639 16.5745 20.661 16.6045 20.684H16.5295ZM17.2725 20.526C16.8975 20.526 16.5965 20.249 16.5295 19.896V19.603C16.5965 19.25 16.8975 18.98 17.2725 18.98C17.6925 18.98 18.0455 19.326 18.0455 19.753C18.0455 20.174 17.6925 20.526 17.2725 20.526ZM17.9335 20.684C18.0535 20.601 18.1505 20.496 18.2335 20.376C18.3085 20.496 18.4055 20.601 18.5265 20.684H17.9335ZM19.1945 20.526C18.7665 20.526 18.4205 20.174 18.4205 19.753C18.4205 19.326 18.7665 18.98 19.1945 18.98C19.6145 18.98 19.9595 19.326 19.9595 19.753C19.9605 20.174 19.6145 20.526 19.1945 20.526ZM20.1475 20.376C20.2375 20.511 20.3505 20.624 20.4855 20.714C20.3655 20.789 20.2685 20.887 20.1855 20.999C20.1855 20.825 20.0445 20.684 19.8705 20.684H19.8554C19.9754 20.601 20.0725 20.496 20.1475 20.376ZM20.1855 28.249V28.099C20.2225 28.152 20.2605 28.204 20.3055 28.249H20.1855ZM21.1085 28.204C20.6885 28.204 20.3355 27.859 20.3355 27.431C20.3355 27.004 20.6885 26.658 21.1085 26.658C21.5365 26.658 21.8825 27.004 21.8825 27.431C21.8825 27.859 21.5365 28.204 21.1085 28.204ZM22.0395 28.249H21.9125C21.9645 28.204 22.0025 28.152 22.0395 28.099V28.249ZM22.0395 26.763C21.9575 26.643 21.8515 26.546 21.7395 26.471C21.8515 26.396 21.9575 26.298 22.0395 26.178V26.763ZM22.0395 24.842C21.9575 24.729 21.8515 24.624 21.7395 24.549C21.8515 24.474 21.9575 24.377 22.0395 24.264V24.842ZM22.0395 22.921C21.9575 22.808 21.8515 22.71 21.7395 22.628C21.8515 22.553 21.9575 22.455 22.0395 22.343V22.921ZM22.3545 20.684C22.1805 20.684 22.0395 20.825 22.0395 20.999C21.9575 20.887 21.8515 20.789 21.7395 20.714C21.8665 20.624 21.9875 20.511 22.0695 20.376C22.1525 20.496 22.2495 20.601 22.3625 20.684H22.3545ZM23.6985 20.684C23.8115 20.601 23.9165 20.496 23.9915 20.376C24.0665 20.496 24.1715 20.601 24.2845 20.684H23.6985ZM25.6955 20.684H25.6205C25.6435 20.661 25.6735 20.639 25.6955 20.616V20.684ZM25.6955 18.83V18.883C25.6735 18.868 25.6505 18.845 25.6285 18.83H25.6955ZM24.9525 18.98C25.3285 18.98 25.6205 19.25 25.6955 19.603V19.896C25.6205 20.249 25.3285 20.526 24.9525 20.526C24.5245 20.526 24.1795 20.174 24.1795 19.753C24.1795 19.326 24.5245 18.98 24.9525 18.98ZM24.2765 18.83C24.1645 18.913 24.0665 19.01 23.9915 19.123C23.9165 19.01 23.8195 18.913 23.7065 18.83H24.2765ZM23.0305 18.98C23.4585 18.98 23.8035 19.326 23.8035 19.753C23.8035 20.174 23.4585 20.526 23.0305 20.526C22.6025 20.526 22.2575 20.174 22.2575 19.753C22.2575 19.326 22.6025 18.98 23.0305 18.98Z" fill="#333335"/>
<path d="M22.7905 15.58L29.1265 8.62701C29.3455 8.38601 29.1745 8 28.8495 8C28.7445 8 28.6435 8.04401 28.5725 8.12201L22.7905 14.47C22.7905 14.403 22.7365 14.349 22.6705 14.349H19.5624C19.4914 14.349 19.4345 14.407 19.4345 14.477L13.6525 8.12299C13.5815 8.04399 13.4805 8 13.3755 8C13.0495 8 12.8795 8.38601 13.0985 8.62701L19.4345 15.588V18.08H15.9785C15.8675 18.08 15.7785 18.169 15.7785 18.28V21.235C15.7785 21.345 15.8675 21.435 15.9785 21.435H19.4345V28.8C19.4345 28.91 19.5245 29 19.6345 29H22.5905C22.7005 29 22.7905 28.91 22.7905 28.8V21.435H26.2465C26.3575 21.435 26.4465 21.345 26.4465 21.235V18.28C26.4465 18.169 26.3575 18.08 26.2465 18.08H22.7905V15.58ZM20.4855 26.471C20.3655 26.546 20.2675 26.643 20.1855 26.763V26.178C20.2675 26.298 20.3655 26.396 20.4855 26.471ZM20.1855 24.842V24.264C20.2675 24.377 20.3655 24.474 20.4855 24.549C20.3655 24.624 20.2675 24.729 20.1855 24.842ZM20.3355 25.51C20.3355 25.082 20.6885 24.737 21.1085 24.737C21.5365 24.737 21.8825 25.082 21.8825 25.51C21.8825 25.938 21.5365 26.283 21.1085 26.283C20.6885 26.283 20.3355 25.938 20.3355 25.51ZM21.1085 24.362C20.6885 24.362 20.3355 24.016 20.3355 23.589C20.3355 23.168 20.6885 22.816 21.1085 22.816C21.5365 22.816 21.8825 23.168 21.8825 23.589C21.8825 24.016 21.5365 24.362 21.1085 24.362ZM20.1855 22.921V22.343C20.2675 22.455 20.3655 22.553 20.4855 22.628C20.3655 22.71 20.2675 22.808 20.1855 22.921ZM21.1085 22.44C20.6885 22.44 20.3355 22.095 20.3355 21.667C20.3355 21.247 20.6885 20.902 21.1085 20.902C21.5365 20.902 21.8825 21.247 21.8825 21.667C21.8825 22.095 21.5365 22.44 21.1085 22.44ZM21.1085 20.526C20.6885 20.526 20.3355 20.174 20.3355 19.753C20.3355 19.326 20.6885 18.98 21.1085 18.98C21.5365 18.98 21.8825 19.326 21.8825 19.753C21.8825 20.174 21.5365 20.526 21.1085 20.526ZM21.8825 17.832C21.8825 18.26 21.5365 18.605 21.1085 18.605C20.6885 18.605 20.3355 18.26 20.3355 17.832C20.3355 17.404 20.6885 17.059 21.1085 17.059C21.5365 17.059 21.8825 17.404 21.8825 17.832ZM21.7395 16.871C21.8515 16.796 21.9575 16.699 22.0395 16.578V17.164C21.9575 17.044 21.8515 16.946 21.7395 16.871ZM21.7395 18.793C21.8515 18.718 21.9575 18.613 22.0395 18.5V18.515C22.0395 18.689 22.1805 18.83 22.3545 18.83C22.2425 18.913 22.1445 19.01 22.0695 19.123C21.9875 18.995 21.8665 18.875 21.7395 18.793ZM22.0395 15.1V15.243C22.0025 15.19 21.9645 15.145 21.9195 15.1H22.0395ZM21.1085 15.138C21.5365 15.138 21.8825 15.483 21.8825 15.911C21.8825 16.338 21.5365 16.684 21.1085 16.684C20.6885 16.684 20.3355 16.338 20.3355 15.911C20.3355 15.483 20.6885 15.138 21.1085 15.138ZM20.1855 15.1H20.3055C20.2605 15.145 20.2225 15.19 20.1855 15.243V15.1ZM20.1855 16.578C20.2675 16.699 20.3655 16.796 20.4855 16.871C20.3655 16.946 20.2675 17.044 20.1855 17.164V16.578ZM19.8695 18.83C20.0445 18.83 20.1855 18.689 20.1855 18.515V18.5C20.2675 18.612 20.3655 18.717 20.4855 18.793C20.3505 18.875 20.2375 18.995 20.1475 19.123C20.0725 19.01 19.9745 18.913 19.8695 18.83ZM18.5185 18.83C18.4055 18.913 18.3085 19.01 18.2335 19.123C18.1585 19.01 18.0605 18.913 17.9485 18.83H18.5185ZM16.5295 18.83H16.5965C16.5745 18.845 16.5515 18.868 16.5295 18.883V18.83ZM16.5295 20.684V20.616C16.5515 20.639 16.5745 20.661 16.6045 20.684H16.5295ZM17.2725 20.526C16.8975 20.526 16.5965 20.249 16.5295 19.896V19.603C16.5965 19.25 16.8975 18.98 17.2725 18.98C17.6925 18.98 18.0455 19.326 18.0455 19.753C18.0455 20.174 17.6925 20.526 17.2725 20.526ZM17.9335 20.684C18.0535 20.601 18.1505 20.496 18.2335 20.376C18.3085 20.496 18.4055 20.601 18.5265 20.684H17.9335ZM19.1945 20.526C18.7665 20.526 18.4205 20.174 18.4205 19.753C18.4205 19.326 18.7665 18.98 19.1945 18.98C19.6145 18.98 19.9595 19.326 19.9595 19.753C19.9605 20.174 19.6145 20.526 19.1945 20.526ZM20.1475 20.376C20.2375 20.511 20.3505 20.624 20.4855 20.714C20.3655 20.789 20.2685 20.887 20.1855 20.999C20.1855 20.825 20.0445 20.684 19.8705 20.684H19.8554C19.9754 20.601 20.0725 20.496 20.1475 20.376ZM20.1855 28.249V28.099C20.2225 28.152 20.2605 28.204 20.3055 28.249H20.1855ZM21.1085 28.204C20.6885 28.204 20.3355 27.859 20.3355 27.431C20.3355 27.004 20.6885 26.658 21.1085 26.658C21.5365 26.658 21.8825 27.004 21.8825 27.431C21.8825 27.859 21.5365 28.204 21.1085 28.204ZM22.0395 28.249H21.9125C21.9645 28.204 22.0025 28.152 22.0395 28.099V28.249ZM22.0395 26.763C21.9575 26.643 21.8515 26.546 21.7395 26.471C21.8515 26.396 21.9575 26.298 22.0395 26.178V26.763ZM22.0395 24.842C21.9575 24.729 21.8515 24.624 21.7395 24.549C21.8515 24.474 21.9575 24.377 22.0395 24.264V24.842ZM22.0395 22.921C21.9575 22.808 21.8515 22.71 21.7395 22.628C21.8515 22.553 21.9575 22.455 22.0395 22.343V22.921ZM22.3545 20.684C22.1805 20.684 22.0395 20.825 22.0395 20.999C21.9575 20.887 21.8515 20.789 21.7395 20.714C21.8665 20.624 21.9875 20.511 22.0695 20.376C22.1525 20.496 22.2495 20.601 22.3625 20.684H22.3545ZM23.6985 20.684C23.8115 20.601 23.9165 20.496 23.9915 20.376C24.0665 20.496 24.1715 20.601 24.2845 20.684H23.6985ZM25.6955 20.684H25.6205C25.6435 20.661 25.6735 20.639 25.6955 20.616V20.684ZM25.6955 18.83V18.883C25.6735 18.868 25.6505 18.845 25.6285 18.83H25.6955ZM24.9525 18.98C25.3285 18.98 25.6205 19.25 25.6955 19.603V19.896C25.6205 20.249 25.3285 20.526 24.9525 20.526C24.5245 20.526 24.1795 20.174 24.1795 19.753C24.1795 19.326 24.5245 18.98 24.9525 18.98ZM24.2765 18.83C24.1645 18.913 24.0665 19.01 23.9915 19.123C23.9165 19.01 23.8195 18.913 23.7065 18.83H24.2765ZM23.0305 18.98C23.4585 18.98 23.8035 19.326 23.8035 19.753C23.8035 20.174 23.4585 20.526 23.0305 20.526C22.6025 20.526 22.2575 20.174 22.2575 19.753C22.2575 19.326 22.6025 18.98 23.0305 18.98Z" fill="black" fill-opacity="0.2"/>
<path d="M22.7905 15.58L29.1265 8.62701C29.3455 8.38601 29.1745 8 28.8495 8C28.7445 8 28.6435 8.04401 28.5725 8.12201L22.7905 14.47C22.7905 14.403 22.7365 14.349 22.6705 14.349H19.5624C19.4914 14.349 19.4345 14.407 19.4345 14.477L13.6525 8.12299C13.5815 8.04399 13.4805 8 13.3755 8C13.0495 8 12.8795 8.38601 13.0985 8.62701L19.4345 15.588V18.08H15.9785C15.8675 18.08 15.7785 18.169 15.7785 18.28V21.235C15.7785 21.345 15.8675 21.435 15.9785 21.435H19.4345V28.8C19.4345 28.91 19.5245 29 19.6345 29H22.5905C22.7005 29 22.7905 28.91 22.7905 28.8V21.435H26.2465C26.3575 21.435 26.4465 21.345 26.4465 21.235V18.28C26.4465 18.169 26.3575 18.08 26.2465 18.08H22.7905V15.58ZM20.4855 26.471C20.3655 26.546 20.2675 26.643 20.1855 26.763V26.178C20.2675 26.298 20.3655 26.396 20.4855 26.471ZM20.1855 24.842V24.264C20.2675 24.377 20.3655 24.474 20.4855 24.549C20.3655 24.624 20.2675 24.729 20.1855 24.842ZM20.3355 25.51C20.3355 25.082 20.6885 24.737 21.1085 24.737C21.5365 24.737 21.8825 25.082 21.8825 25.51C21.8825 25.938 21.5365 26.283 21.1085 26.283C20.6885 26.283 20.3355 25.938 20.3355 25.51ZM21.1085 24.362C20.6885 24.362 20.3355 24.016 20.3355 23.589C20.3355 23.168 20.6885 22.816 21.1085 22.816C21.5365 22.816 21.8825 23.168 21.8825 23.589C21.8825 24.016 21.5365 24.362 21.1085 24.362ZM20.1855 22.921V22.343C20.2675 22.455 20.3655 22.553 20.4855 22.628C20.3655 22.71 20.2675 22.808 20.1855 22.921ZM21.1085 22.44C20.6885 22.44 20.3355 22.095 20.3355 21.667C20.3355 21.247 20.6885 20.902 21.1085 20.902C21.5365 20.902 21.8825 21.247 21.8825 21.667C21.8825 22.095 21.5365 22.44 21.1085 22.44ZM21.1085 20.526C20.6885 20.526 20.3355 20.174 20.3355 19.753C20.3355 19.326 20.6885 18.98 21.1085 18.98C21.5365 18.98 21.8825 19.326 21.8825 19.753C21.8825 20.174 21.5365 20.526 21.1085 20.526ZM21.8825 17.832C21.8825 18.26 21.5365 18.605 21.1085 18.605C20.6885 18.605 20.3355 18.26 20.3355 17.832C20.3355 17.404 20.6885 17.059 21.1085 17.059C21.5365 17.059 21.8825 17.404 21.8825 17.832ZM21.7395 16.871C21.8515 16.796 21.9575 16.699 22.0395 16.578V17.164C21.9575 17.044 21.8515 16.946 21.7395 16.871ZM21.7395 18.793C21.8515 18.718 21.9575 18.613 22.0395 18.5V18.515C22.0395 18.689 22.1805 18.83 22.3545 18.83C22.2425 18.913 22.1445 19.01 22.0695 19.123C21.9875 18.995 21.8665 18.875 21.7395 18.793ZM22.0395 15.1V15.243C22.0025 15.19 21.9645 15.145 21.9195 15.1H22.0395ZM21.1085 15.138C21.5365 15.138 21.8825 15.483 21.8825 15.911C21.8825 16.338 21.5365 16.684 21.1085 16.684C20.6885 16.684 20.3355 16.338 20.3355 15.911C20.3355 15.483 20.6885 15.138 21.1085 15.138ZM20.1855 15.1H20.3055C20.2605 15.145 20.2225 15.19 20.1855 15.243V15.1ZM20.1855 16.578C20.2675 16.699 20.3655 16.796 20.4855 16.871C20.3655 16.946 20.2675 17.044 20.1855 17.164V16.578ZM19.8695 18.83C20.0445 18.83 20.1855 18.689 20.1855 18.515V18.5C20.2675 18.612 20.3655 18.717 20.4855 18.793C20.3505 18.875 20.2375 18.995 20.1475 19.123C20.0725 19.01 19.9745 18.913 19.8695 18.83ZM18.5185 18.83C18.4055 18.913 18.3085 19.01 18.2335 19.123C18.1585 19.01 18.0605 18.913 17.9485 18.83H18.5185ZM16.5295 18.83H16.5965C16.5745 18.845 16.5515 18.868 16.5295 18.883V18.83ZM16.5295 20.684V20.616C16.5515 20.639 16.5745 20.661 16.6045 20.684H16.5295ZM17.2725 20.526C16.8975 20.526 16.5965 20.249 16.5295 19.896V19.603C16.5965 19.25 16.8975 18.98 17.2725 18.98C17.6925 18.98 18.0455 19.326 18.0455 19.753C18.0455 20.174 17.6925 20.526 17.2725 20.526ZM17.9335 20.684C18.0535 20.601 18.1505 20.496 18.2335 20.376C18.3085 20.496 18.4055 20.601 18.5265 20.684H17.9335ZM19.1945 20.526C18.7665 20.526 18.4205 20.174 18.4205 19.753C18.4205 19.326 18.7665 18.98 19.1945 18.98C19.6145 18.98 19.9595 19.326 19.9595 19.753C19.9605 20.174 19.6145 20.526 19.1945 20.526ZM20.1475 20.376C20.2375 20.511 20.3505 20.624 20.4855 20.714C20.3655 20.789 20.2685 20.887 20.1855 20.999C20.1855 20.825 20.0445 20.684 19.8705 20.684H19.8554C19.9754 20.601 20.0725 20.496 20.1475 20.376ZM20.1855 28.249V28.099C20.2225 28.152 20.2605 28.204 20.3055 28.249H20.1855ZM21.1085 28.204C20.6885 28.204 20.3355 27.859 20.3355 27.431C20.3355 27.004 20.6885 26.658 21.1085 26.658C21.5365 26.658 21.8825 27.004 21.8825 27.431C21.8825 27.859 21.5365 28.204 21.1085 28.204ZM22.0395 28.249H21.9125C21.9645 28.204 22.0025 28.152 22.0395 28.099V28.249ZM22.0395 26.763C21.9575 26.643 21.8515 26.546 21.7395 26.471C21.8515 26.396 21.9575 26.298 22.0395 26.178V26.763ZM22.0395 24.842C21.9575 24.729 21.8515 24.624 21.7395 24.549C21.8515 24.474 21.9575 24.377 22.0395 24.264V24.842ZM22.0395 22.921C21.9575 22.808 21.8515 22.71 21.7395 22.628C21.8515 22.553 21.9575 22.455 22.0395 22.343V22.921ZM22.3545 20.684C22.1805 20.684 22.0395 20.825 22.0395 20.999C21.9575 20.887 21.8515 20.789 21.7395 20.714C21.8665 20.624 21.9875 20.511 22.0695 20.376C22.1525 20.496 22.2495 20.601 22.3625 20.684H22.3545ZM23.6985 20.684C23.8115 20.601 23.9165 20.496 23.9915 20.376C24.0665 20.496 24.1715 20.601 24.2845 20.684H23.6985ZM25.6955 20.684H25.6205C25.6435 20.661 25.6735 20.639 25.6955 20.616V20.684ZM25.6955 18.83V18.883C25.6735 18.868 25.6505 18.845 25.6285 18.83H25.6955ZM24.9525 18.98C25.3285 18.98 25.6205 19.25 25.6955 19.603V19.896C25.6205 20.249 25.3285 20.526 24.9525 20.526C24.5245 20.526 24.1795 20.174 24.1795 19.753C24.1795 19.326 24.5245 18.98 24.9525 18.98ZM24.2765 18.83C24.1645 18.913 24.0665 19.01 23.9915 19.123C23.9165 19.01 23.8195 18.913 23.7065 18.83H24.2765ZM23.0305 18.98C23.4585 18.98 23.8035 19.326 23.8035 19.753C23.8035 20.174 23.4585 20.526 23.0305 20.526C22.6025 20.526 22.2575 20.174 22.2575 19.753C22.2575 19.326 22.6025 18.98 23.0305 18.98Z" fill="black" fill-opacity="0.2"/>
<path d="M22.7905 15.58L29.1265 8.62701C29.3455 8.38601 29.1745 8 28.8495 8C28.7445 8 28.6435 8.04401 28.5725 8.12201L22.7905 14.47C22.7905 14.403 22.7365 14.349 22.6705 14.349H19.5624C19.4914 14.349 19.4345 14.407 19.4345 14.477L13.6525 8.12299C13.5815 8.04399 13.4805 8 13.3755 8C13.0495 8 12.8795 8.38601 13.0985 8.62701L19.4345 15.588V18.08H15.9785C15.8675 18.08 15.7785 18.169 15.7785 18.28V21.235C15.7785 21.345 15.8675 21.435 15.9785 21.435H19.4345V28.8C19.4345 28.91 19.5245 29 19.6345 29H22.5905C22.7005 29 22.7905 28.91 22.7905 28.8V21.435H26.2465C26.3575 21.435 26.4465 21.345 26.4465 21.235V18.28C26.4465 18.169 26.3575 18.08 26.2465 18.08H22.7905V15.58ZM20.4855 26.471C20.3655 26.546 20.2675 26.643 20.1855 26.763V26.178C20.2675 26.298 20.3655 26.396 20.4855 26.471ZM20.1855 24.842V24.264C20.2675 24.377 20.3655 24.474 20.4855 24.549C20.3655 24.624 20.2675 24.729 20.1855 24.842ZM20.3355 25.51C20.3355 25.082 20.6885 24.737 21.1085 24.737C21.5365 24.737 21.8825 25.082 21.8825 25.51C21.8825 25.938 21.5365 26.283 21.1085 26.283C20.6885 26.283 20.3355 25.938 20.3355 25.51ZM21.1085 24.362C20.6885 24.362 20.3355 24.016 20.3355 23.589C20.3355 23.168 20.6885 22.816 21.1085 22.816C21.5365 22.816 21.8825 23.168 21.8825 23.589C21.8825 24.016 21.5365 24.362 21.1085 24.362ZM20.1855 22.921V22.343C20.2675 22.455 20.3655 22.553 20.4855 22.628C20.3655 22.71 20.2675 22.808 20.1855 22.921ZM21.1085 22.44C20.6885 22.44 20.3355 22.095 20.3355 21.667C20.3355 21.247 20.6885 20.902 21.1085 20.902C21.5365 20.902 21.8825 21.247 21.8825 21.667C21.8825 22.095 21.5365 22.44 21.1085 22.44ZM21.1085 20.526C20.6885 20.526 20.3355 20.174 20.3355 19.753C20.3355 19.326 20.6885 18.98 21.1085 18.98C21.5365 18.98 21.8825 19.326 21.8825 19.753C21.8825 20.174 21.5365 20.526 21.1085 20.526ZM21.8825 17.832C21.8825 18.26 21.5365 18.605 21.1085 18.605C20.6885 18.605 20.3355 18.26 20.3355 17.832C20.3355 17.404 20.6885 17.059 21.1085 17.059C21.5365 17.059 21.8825 17.404 21.8825 17.832ZM21.7395 16.871C21.8515 16.796 21.9575 16.699 22.0395 16.578V17.164C21.9575 17.044 21.8515 16.946 21.7395 16.871ZM21.7395 18.793C21.8515 18.718 21.9575 18.613 22.0395 18.5V18.515C22.0395 18.689 22.1805 18.83 22.3545 18.83C22.2425 18.913 22.1445 19.01 22.0695 19.123C21.9875 18.995 21.8665 18.875 21.7395 18.793ZM22.0395 15.1V15.243C22.0025 15.19 21.9645 15.145 21.9195 15.1H22.0395ZM21.1085 15.138C21.5365 15.138 21.8825 15.483 21.8825 15.911C21.8825 16.338 21.5365 16.684 21.1085 16.684C20.6885 16.684 20.3355 16.338 20.3355 15.911C20.3355 15.483 20.6885 15.138 21.1085 15.138ZM20.1855 15.1H20.3055C20.2605 15.145 20.2225 15.19 20.1855 15.243V15.1ZM20.1855 16.578C20.2675 16.699 20.3655 16.796 20.4855 16.871C20.3655 16.946 20.2675 17.044 20.1855 17.164V16.578ZM19.8695 18.83C20.0445 18.83 20.1855 18.689 20.1855 18.515V18.5C20.2675 18.612 20.3655 18.717 20.4855 18.793C20.3505 18.875 20.2375 18.995 20.1475 19.123C20.0725 19.01 19.9745 18.913 19.8695 18.83ZM18.5185 18.83C18.4055 18.913 18.3085 19.01 18.2335 19.123C18.1585 19.01 18.0605 18.913 17.9485 18.83H18.5185ZM16.5295 18.83H16.5965C16.5745 18.845 16.5515 18.868 16.5295 18.883V18.83ZM16.5295 20.684V20.616C16.5515 20.639 16.5745 20.661 16.6045 20.684H16.5295ZM17.2725 20.526C16.8975 20.526 16.5965 20.249 16.5295 19.896V19.603C16.5965 19.25 16.8975 18.98 17.2725 18.98C17.6925 18.98 18.0455 19.326 18.0455 19.753C18.0455 20.174 17.6925 20.526 17.2725 20.526ZM17.9335 20.684C18.0535 20.601 18.1505 20.496 18.2335 20.376C18.3085 20.496 18.4055 20.601 18.5265 20.684H17.9335ZM19.1945 20.526C18.7665 20.526 18.4205 20.174 18.4205 19.753C18.4205 19.326 18.7665 18.98 19.1945 18.98C19.6145 18.98 19.9595 19.326 19.9595 19.753C19.9605 20.174 19.6145 20.526 19.1945 20.526ZM20.1475 20.376C20.2375 20.511 20.3505 20.624 20.4855 20.714C20.3655 20.789 20.2685 20.887 20.1855 20.999C20.1855 20.825 20.0445 20.684 19.8705 20.684H19.8554C19.9754 20.601 20.0725 20.496 20.1475 20.376ZM20.1855 28.249V28.099C20.2225 28.152 20.2605 28.204 20.3055 28.249H20.1855ZM21.1085 28.204C20.6885 28.204 20.3355 27.859 20.3355 27.431C20.3355 27.004 20.6885 26.658 21.1085 26.658C21.5365 26.658 21.8825 27.004 21.8825 27.431C21.8825 27.859 21.5365 28.204 21.1085 28.204ZM22.0395 28.249H21.9125C21.9645 28.204 22.0025 28.152 22.0395 28.099V28.249ZM22.0395 26.763C21.9575 26.643 21.8515 26.546 21.7395 26.471C21.8515 26.396 21.9575 26.298 22.0395 26.178V26.763ZM22.0395 24.842C21.9575 24.729 21.8515 24.624 21.7395 24.549C21.8515 24.474 21.9575 24.377 22.0395 24.264V24.842ZM22.0395 22.921C21.9575 22.808 21.8515 22.71 21.7395 22.628C21.8515 22.553 21.9575 22.455 22.0395 22.343V22.921ZM22.3545 20.684C22.1805 20.684 22.0395 20.825 22.0395 20.999C21.9575 20.887 21.8515 20.789 21.7395 20.714C21.8665 20.624 21.9875 20.511 22.0695 20.376C22.1525 20.496 22.2495 20.601 22.3625 20.684H22.3545ZM23.6985 20.684C23.8115 20.601 23.9165 20.496 23.9915 20.376C24.0665 20.496 24.1715 20.601 24.2845 20.684H23.6985ZM25.6955 20.684H25.6205C25.6435 20.661 25.6735 20.639 25.6955 20.616V20.684ZM25.6955 18.83V18.883C25.6735 18.868 25.6505 18.845 25.6285 18.83H25.6955ZM24.9525 18.98C25.3285 18.98 25.6205 19.25 25.6955 19.603V19.896C25.6205 20.249 25.3285 20.526 24.9525 20.526C24.5245 20.526 24.1795 20.174 24.1795 19.753C24.1795 19.326 24.5245 18.98 24.9525 18.98ZM24.2765 18.83C24.1645 18.913 24.0665 19.01 23.9915 19.123C23.9165 19.01 23.8195 18.913 23.7065 18.83H24.2765ZM23.0305 18.98C23.4585 18.98 23.8035 19.326 23.8035 19.753C23.8035 20.174 23.4585 20.526 23.0305 20.526C22.6025 20.526 22.2575 20.174 22.2575 19.753C22.2575 19.326 22.6025 18.98 23.0305 18.98Z" fill="black" fill-opacity="0.2"/>
<path d="M22.7905 15.58L29.1265 8.62701C29.3455 8.38601 29.1745 8 28.8495 8C28.7445 8 28.6435 8.04401 28.5725 8.12201L22.7905 14.47C22.7905 14.403 22.7365 14.349 22.6705 14.349H19.5624C19.4914 14.349 19.4345 14.407 19.4345 14.477L13.6525 8.12299C13.5815 8.04399 13.4805 8 13.3755 8C13.0495 8 12.8795 8.38601 13.0985 8.62701L19.4345 15.588V18.08H15.9785C15.8675 18.08 15.7785 18.169 15.7785 18.28V21.235C15.7785 21.345 15.8675 21.435 15.9785 21.435H19.4345V28.8C19.4345 28.91 19.5245 29 19.6345 29H22.5905C22.7005 29 22.7905 28.91 22.7905 28.8V21.435H26.2465C26.3575 21.435 26.4465 21.345 26.4465 21.235V18.28C26.4465 18.169 26.3575 18.08 26.2465 18.08H22.7905V15.58ZM20.4855 26.471C20.3655 26.546 20.2675 26.643 20.1855 26.763V26.178C20.2675 26.298 20.3655 26.396 20.4855 26.471ZM20.1855 24.842V24.264C20.2675 24.377 20.3655 24.474 20.4855 24.549C20.3655 24.624 20.2675 24.729 20.1855 24.842ZM20.3355 25.51C20.3355 25.082 20.6885 24.737 21.1085 24.737C21.5365 24.737 21.8825 25.082 21.8825 25.51C21.8825 25.938 21.5365 26.283 21.1085 26.283C20.6885 26.283 20.3355 25.938 20.3355 25.51ZM21.1085 24.362C20.6885 24.362 20.3355 24.016 20.3355 23.589C20.3355 23.168 20.6885 22.816 21.1085 22.816C21.5365 22.816 21.8825 23.168 21.8825 23.589C21.8825 24.016 21.5365 24.362 21.1085 24.362ZM20.1855 22.921V22.343C20.2675 22.455 20.3655 22.553 20.4855 22.628C20.3655 22.71 20.2675 22.808 20.1855 22.921ZM21.1085 22.44C20.6885 22.44 20.3355 22.095 20.3355 21.667C20.3355 21.247 20.6885 20.902 21.1085 20.902C21.5365 20.902 21.8825 21.247 21.8825 21.667C21.8825 22.095 21.5365 22.44 21.1085 22.44ZM21.1085 20.526C20.6885 20.526 20.3355 20.174 20.3355 19.753C20.3355 19.326 20.6885 18.98 21.1085 18.98C21.5365 18.98 21.8825 19.326 21.8825 19.753C21.8825 20.174 21.5365 20.526 21.1085 20.526ZM21.8825 17.832C21.8825 18.26 21.5365 18.605 21.1085 18.605C20.6885 18.605 20.3355 18.26 20.3355 17.832C20.3355 17.404 20.6885 17.059 21.1085 17.059C21.5365 17.059 21.8825 17.404 21.8825 17.832ZM21.7395 16.871C21.8515 16.796 21.9575 16.699 22.0395 16.578V17.164C21.9575 17.044 21.8515 16.946 21.7395 16.871ZM21.7395 18.793C21.8515 18.718 21.9575 18.613 22.0395 18.5V18.515C22.0395 18.689 22.1805 18.83 22.3545 18.83C22.2425 18.913 22.1445 19.01 22.0695 19.123C21.9875 18.995 21.8665 18.875 21.7395 18.793ZM22.0395 15.1V15.243C22.0025 15.19 21.9645 15.145 21.9195 15.1H22.0395ZM21.1085 15.138C21.5365 15.138 21.8825 15.483 21.8825 15.911C21.8825 16.338 21.5365 16.684 21.1085 16.684C20.6885 16.684 20.3355 16.338 20.3355 15.911C20.3355 15.483 20.6885 15.138 21.1085 15.138ZM20.1855 15.1H20.3055C20.2605 15.145 20.2225 15.19 20.1855 15.243V15.1ZM20.1855 16.578C20.2675 16.699 20.3655 16.796 20.4855 16.871C20.3655 16.946 20.2675 17.044 20.1855 17.164V16.578ZM19.8695 18.83C20.0445 18.83 20.1855 18.689 20.1855 18.515V18.5C20.2675 18.612 20.3655 18.717 20.4855 18.793C20.3505 18.875 20.2375 18.995 20.1475 19.123C20.0725 19.01 19.9745 18.913 19.8695 18.83ZM18.5185 18.83C18.4055 18.913 18.3085 19.01 18.2335 19.123C18.1585 19.01 18.0605 18.913 17.9485 18.83H18.5185ZM16.5295 18.83H16.5965C16.5745 18.845 16.5515 18.868 16.5295 18.883V18.83ZM16.5295 20.684V20.616C16.5515 20.639 16.5745 20.661 16.6045 20.684H16.5295ZM17.2725 20.526C16.8975 20.526 16.5965 20.249 16.5295 19.896V19.603C16.5965 19.25 16.8975 18.98 17.2725 18.98C17.6925 18.98 18.0455 19.326 18.0455 19.753C18.0455 20.174 17.6925 20.526 17.2725 20.526ZM17.9335 20.684C18.0535 20.601 18.1505 20.496 18.2335 20.376C18.3085 20.496 18.4055 20.601 18.5265 20.684H17.9335ZM19.1945 20.526C18.7665 20.526 18.4205 20.174 18.4205 19.753C18.4205 19.326 18.7665 18.98 19.1945 18.98C19.6145 18.98 19.9595 19.326 19.9595 19.753C19.9605 20.174 19.6145 20.526 19.1945 20.526ZM20.1475 20.376C20.2375 20.511 20.3505 20.624 20.4855 20.714C20.3655 20.789 20.2685 20.887 20.1855 20.999C20.1855 20.825 20.0445 20.684 19.8705 20.684H19.8554C19.9754 20.601 20.0725 20.496 20.1475 20.376ZM20.1855 28.249V28.099C20.2225 28.152 20.2605 28.204 20.3055 28.249H20.1855ZM21.1085 28.204C20.6885 28.204 20.3355 27.859 20.3355 27.431C20.3355 27.004 20.6885 26.658 21.1085 26.658C21.5365 26.658 21.8825 27.004 21.8825 27.431C21.8825 27.859 21.5365 28.204 21.1085 28.204ZM22.0395 28.249H21.9125C21.9645 28.204 22.0025 28.152 22.0395 28.099V28.249ZM22.0395 26.763C21.9575 26.643 21.8515 26.546 21.7395 26.471C21.8515 26.396 21.9575 26.298 22.0395 26.178V26.763ZM22.0395 24.842C21.9575 24.729 21.8515 24.624 21.7395 24.549C21.8515 24.474 21.9575 24.377 22.0395 24.264V24.842ZM22.0395 22.921C21.9575 22.808 21.8515 22.71 21.7395 22.628C21.8515 22.553 21.9575 22.455 22.0395 22.343V22.921ZM22.3545 20.684C22.1805 20.684 22.0395 20.825 22.0395 20.999C21.9575 20.887 21.8515 20.789 21.7395 20.714C21.8665 20.624 21.9875 20.511 22.0695 20.376C22.1525 20.496 22.2495 20.601 22.3625 20.684H22.3545ZM23.6985 20.684C23.8115 20.601 23.9165 20.496 23.9915 20.376C24.0665 20.496 24.1715 20.601 24.2845 20.684H23.6985ZM25.6955 20.684H25.6205C25.6435 20.661 25.6735 20.639 25.6955 20.616V20.684ZM25.6955 18.83V18.883C25.6735 18.868 25.6505 18.845 25.6285 18.83H25.6955ZM24.9525 18.98C25.3285 18.98 25.6205 19.25 25.6955 19.603V19.896C25.6205 20.249 25.3285 20.526 24.9525 20.526C24.5245 20.526 24.1795 20.174 24.1795 19.753C24.1795 19.326 24.5245 18.98 24.9525 18.98ZM24.2765 18.83C24.1645 18.913 24.0665 19.01 23.9915 19.123C23.9165 19.01 23.8195 18.913 23.7065 18.83H24.2765ZM23.0305 18.98C23.4585 18.98 23.8035 19.326 23.8035 19.753C23.8035 20.174 23.4585 20.526 23.0305 20.526C22.6025 20.526 22.2575 20.174 22.2575 19.753C22.2575 19.326 22.6025 18.98 23.0305 18.98Z" fill="black" fill-opacity="0.2"/>
<path d="M22.7905 15.58L29.1265 8.62701C29.3455 8.38601 29.1745 8 28.8495 8C28.7445 8 28.6435 8.04401 28.5725 8.12201L22.7905 14.47C22.7905 14.403 22.7365 14.349 22.6705 14.349H19.5624C19.4914 14.349 19.4345 14.407 19.4345 14.477L13.6525 8.12299C13.5815 8.04399 13.4805 8 13.3755 8C13.0495 8 12.8795 8.38601 13.0985 8.62701L19.4345 15.588V18.08H15.9785C15.8675 18.08 15.7785 18.169 15.7785 18.28V21.235C15.7785 21.345 15.8675 21.435 15.9785 21.435H19.4345V28.8C19.4345 28.91 19.5245 29 19.6345 29H22.5905C22.7005 29 22.7905 28.91 22.7905 28.8V21.435H26.2465C26.3575 21.435 26.4465 21.345 26.4465 21.235V18.28C26.4465 18.169 26.3575 18.08 26.2465 18.08H22.7905V15.58ZM20.4855 26.471C20.3655 26.546 20.2675 26.643 20.1855 26.763V26.178C20.2675 26.298 20.3655 26.396 20.4855 26.471ZM20.1855 24.842V24.264C20.2675 24.377 20.3655 24.474 20.4855 24.549C20.3655 24.624 20.2675 24.729 20.1855 24.842ZM20.3355 25.51C20.3355 25.082 20.6885 24.737 21.1085 24.737C21.5365 24.737 21.8825 25.082 21.8825 25.51C21.8825 25.938 21.5365 26.283 21.1085 26.283C20.6885 26.283 20.3355 25.938 20.3355 25.51ZM21.1085 24.362C20.6885 24.362 20.3355 24.016 20.3355 23.589C20.3355 23.168 20.6885 22.816 21.1085 22.816C21.5365 22.816 21.8825 23.168 21.8825 23.589C21.8825 24.016 21.5365 24.362 21.1085 24.362ZM20.1855 22.921V22.343C20.2675 22.455 20.3655 22.553 20.4855 22.628C20.3655 22.71 20.2675 22.808 20.1855 22.921ZM21.1085 22.44C20.6885 22.44 20.3355 22.095 20.3355 21.667C20.3355 21.247 20.6885 20.902 21.1085 20.902C21.5365 20.902 21.8825 21.247 21.8825 21.667C21.8825 22.095 21.5365 22.44 21.1085 22.44ZM21.1085 20.526C20.6885 20.526 20.3355 20.174 20.3355 19.753C20.3355 19.326 20.6885 18.98 21.1085 18.98C21.5365 18.98 21.8825 19.326 21.8825 19.753C21.8825 20.174 21.5365 20.526 21.1085 20.526ZM21.8825 17.832C21.8825 18.26 21.5365 18.605 21.1085 18.605C20.6885 18.605 20.3355 18.26 20.3355 17.832C20.3355 17.404 20.6885 17.059 21.1085 17.059C21.5365 17.059 21.8825 17.404 21.8825 17.832ZM21.7395 16.871C21.8515 16.796 21.9575 16.699 22.0395 16.578V17.164C21.9575 17.044 21.8515 16.946 21.7395 16.871ZM21.7395 18.793C21.8515 18.718 21.9575 18.613 22.0395 18.5V18.515C22.0395 18.689 22.1805 18.83 22.3545 18.83C22.2425 18.913 22.1445 19.01 22.0695 19.123C21.9875 18.995 21.8665 18.875 21.7395 18.793ZM22.0395 15.1V15.243C22.0025 15.19 21.9645 15.145 21.9195 15.1H22.0395ZM21.1085 15.138C21.5365 15.138 21.8825 15.483 21.8825 15.911C21.8825 16.338 21.5365 16.684 21.1085 16.684C20.6885 16.684 20.3355 16.338 20.3355 15.911C20.3355 15.483 20.6885 15.138 21.1085 15.138ZM20.1855 15.1H20.3055C20.2605 15.145 20.2225 15.19 20.1855 15.243V15.1ZM20.1855 16.578C20.2675 16.699 20.3655 16.796 20.4855 16.871C20.3655 16.946 20.2675 17.044 20.1855 17.164V16.578ZM19.8695 18.83C20.0445 18.83 20.1855 18.689 20.1855 18.515V18.5C20.2675 18.612 20.3655 18.717 20.4855 18.793C20.3505 18.875 20.2375 18.995 20.1475 19.123C20.0725 19.01 19.9745 18.913 19.8695 18.83ZM18.5185 18.83C18.4055 18.913 18.3085 19.01 18.2335 19.123C18.1585 19.01 18.0605 18.913 17.9485 18.83H18.5185ZM16.5295 18.83H16.5965C16.5745 18.845 16.5515 18.868 16.5295 18.883V18.83ZM16.5295 20.684V20.616C16.5515 20.639 16.5745 20.661 16.6045 20.684H16.5295ZM17.2725 20.526C16.8975 20.526 16.5965 20.249 16.5295 19.896V19.603C16.5965 19.25 16.8975 18.98 17.2725 18.98C17.6925 18.98 18.0455 19.326 18.0455 19.753C18.0455 20.174 17.6925 20.526 17.2725 20.526ZM17.9335 20.684C18.0535 20.601 18.1505 20.496 18.2335 20.376C18.3085 20.496 18.4055 20.601 18.5265 20.684H17.9335ZM19.1945 20.526C18.7665 20.526 18.4205 20.174 18.4205 19.753C18.4205 19.326 18.7665 18.98 19.1945 18.98C19.6145 18.98 19.9595 19.326 19.9595 19.753C19.9605 20.174 19.6145 20.526 19.1945 20.526ZM20.1475 20.376C20.2375 20.511 20.3505 20.624 20.4855 20.714C20.3655 20.789 20.2685 20.887 20.1855 20.999C20.1855 20.825 20.0445 20.684 19.8705 20.684H19.8554C19.9754 20.601 20.0725 20.496 20.1475 20.376ZM20.1855 28.249V28.099C20.2225 28.152 20.2605 28.204 20.3055 28.249H20.1855ZM21.1085 28.204C20.6885 28.204 20.3355 27.859 20.3355 27.431C20.3355 27.004 20.6885 26.658 21.1085 26.658C21.5365 26.658 21.8825 27.004 21.8825 27.431C21.8825 27.859 21.5365 28.204 21.1085 28.204ZM22.0395 28.249H21.9125C21.9645 28.204 22.0025 28.152 22.0395 28.099V28.249ZM22.0395 26.763C21.9575 26.643 21.8515 26.546 21.7395 26.471C21.8515 26.396 21.9575 26.298 22.0395 26.178V26.763ZM22.0395 24.842C21.9575 24.729 21.8515 24.624 21.7395 24.549C21.8515 24.474 21.9575 24.377 22.0395 24.264V24.842ZM22.0395 22.921C21.9575 22.808 21.8515 22.71 21.7395 22.628C21.8515 22.553 21.9575 22.455 22.0395 22.343V22.921ZM22.3545 20.684C22.1805 20.684 22.0395 20.825 22.0395 20.999C21.9575 20.887 21.8515 20.789 21.7395 20.714C21.8665 20.624 21.9875 20.511 22.0695 20.376C22.1525 20.496 22.2495 20.601 22.3625 20.684H22.3545ZM23.6985 20.684C23.8115 20.601 23.9165 20.496 23.9915 20.376C24.0665 20.496 24.1715 20.601 24.2845 20.684H23.6985ZM25.6955 20.684H25.6205C25.6435 20.661 25.6735 20.639 25.6955 20.616V20.684ZM25.6955 18.83V18.883C25.6735 18.868 25.6505 18.845 25.6285 18.83H25.6955ZM24.9525 18.98C25.3285 18.98 25.6205 19.25 25.6955 19.603V19.896C25.6205 20.249 25.3285 20.526 24.9525 20.526C24.5245 20.526 24.1795 20.174 24.1795 19.753C24.1795 19.326 24.5245 18.98 24.9525 18.98ZM24.2765 18.83C24.1645 18.913 24.0665 19.01 23.9915 19.123C23.9165 19.01 23.8195 18.913 23.7065 18.83H24.2765ZM23.0305 18.98C23.4585 18.98 23.8035 19.326 23.8035 19.753C23.8035 20.174 23.4585 20.526 23.0305 20.526C22.6025 20.526 22.2575 20.174 22.2575 19.753C22.2575 19.326 22.6025 18.98 23.0305 18.98Z" fill="black" fill-opacity="0.2"/>
<path d="M22.7905 15.58L29.1265 8.62701C29.3455 8.38601 29.1745 8 28.8495 8C28.7445 8 28.6435 8.04401 28.5725 8.12201L22.7905 14.47C22.7905 14.403 22.7365 14.349 22.6705 14.349H19.5624C19.4914 14.349 19.4345 14.407 19.4345 14.477L13.6525 8.12299C13.5815 8.04399 13.4805 8 13.3755 8C13.0495 8 12.8795 8.38601 13.0985 8.62701L19.4345 15.588V18.08H15.9785C15.8675 18.08 15.7785 18.169 15.7785 18.28V21.235C15.7785 21.345 15.8675 21.435 15.9785 21.435H19.4345V28.8C19.4345 28.91 19.5245 29 19.6345 29H22.5905C22.7005 29 22.7905 28.91 22.7905 28.8V21.435H26.2465C26.3575 21.435 26.4465 21.345 26.4465 21.235V18.28C26.4465 18.169 26.3575 18.08 26.2465 18.08H22.7905V15.58ZM20.4855 26.471C20.3655 26.546 20.2675 26.643 20.1855 26.763V26.178C20.2675 26.298 20.3655 26.396 20.4855 26.471ZM20.1855 24.842V24.264C20.2675 24.377 20.3655 24.474 20.4855 24.549C20.3655 24.624 20.2675 24.729 20.1855 24.842ZM20.3355 25.51C20.3355 25.082 20.6885 24.737 21.1085 24.737C21.5365 24.737 21.8825 25.082 21.8825 25.51C21.8825 25.938 21.5365 26.283 21.1085 26.283C20.6885 26.283 20.3355 25.938 20.3355 25.51ZM21.1085 24.362C20.6885 24.362 20.3355 24.016 20.3355 23.589C20.3355 23.168 20.6885 22.816 21.1085 22.816C21.5365 22.816 21.8825 23.168 21.8825 23.589C21.8825 24.016 21.5365 24.362 21.1085 24.362ZM20.1855 22.921V22.343C20.2675 22.455 20.3655 22.553 20.4855 22.628C20.3655 22.71 20.2675 22.808 20.1855 22.921ZM21.1085 22.44C20.6885 22.44 20.3355 22.095 20.3355 21.667C20.3355 21.247 20.6885 20.902 21.1085 20.902C21.5365 20.902 21.8825 21.247 21.8825 21.667C21.8825 22.095 21.5365 22.44 21.1085 22.44ZM21.1085 20.526C20.6885 20.526 20.3355 20.174 20.3355 19.753C20.3355 19.326 20.6885 18.98 21.1085 18.98C21.5365 18.98 21.8825 19.326 21.8825 19.753C21.8825 20.174 21.5365 20.526 21.1085 20.526ZM21.8825 17.832C21.8825 18.26 21.5365 18.605 21.1085 18.605C20.6885 18.605 20.3355 18.26 20.3355 17.832C20.3355 17.404 20.6885 17.059 21.1085 17.059C21.5365 17.059 21.8825 17.404 21.8825 17.832ZM21.7395 16.871C21.8515 16.796 21.9575 16.699 22.0395 16.578V17.164C21.9575 17.044 21.8515 16.946 21.7395 16.871ZM21.7395 18.793C21.8515 18.718 21.9575 18.613 22.0395 18.5V18.515C22.0395 18.689 22.1805 18.83 22.3545 18.83C22.2425 18.913 22.1445 19.01 22.0695 19.123C21.9875 18.995 21.8665 18.875 21.7395 18.793ZM22.0395 15.1V15.243C22.0025 15.19 21.9645 15.145 21.9195 15.1H22.0395ZM21.1085 15.138C21.5365 15.138 21.8825 15.483 21.8825 15.911C21.8825 16.338 21.5365 16.684 21.1085 16.684C20.6885 16.684 20.3355 16.338 20.3355 15.911C20.3355 15.483 20.6885 15.138 21.1085 15.138ZM20.1855 15.1H20.3055C20.2605 15.145 20.2225 15.19 20.1855 15.243V15.1ZM20.1855 16.578C20.2675 16.699 20.3655 16.796 20.4855 16.871C20.3655 16.946 20.2675 17.044 20.1855 17.164V16.578ZM19.8695 18.83C20.0445 18.83 20.1855 18.689 20.1855 18.515V18.5C20.2675 18.612 20.3655 18.717 20.4855 18.793C20.3505 18.875 20.2375 18.995 20.1475 19.123C20.0725 19.01 19.9745 18.913 19.8695 18.83ZM18.5185 18.83C18.4055 18.913 18.3085 19.01 18.2335 19.123C18.1585 19.01 18.0605 18.913 17.9485 18.83H18.5185ZM16.5295 18.83H16.5965C16.5745 18.845 16.5515 18.868 16.5295 18.883V18.83ZM16.5295 20.684V20.616C16.5515 20.639 16.5745 20.661 16.6045 20.684H16.5295ZM17.2725 20.526C16.8975 20.526 16.5965 20.249 16.5295 19.896V19.603C16.5965 19.25 16.8975 18.98 17.2725 18.98C17.6925 18.98 18.0455 19.326 18.0455 19.753C18.0455 20.174 17.6925 20.526 17.2725 20.526ZM17.9335 20.684C18.0535 20.601 18.1505 20.496 18.2335 20.376C18.3085 20.496 18.4055 20.601 18.5265 20.684H17.9335ZM19.1945 20.526C18.7665 20.526 18.4205 20.174 18.4205 19.753C18.4205 19.326 18.7665 18.98 19.1945 18.98C19.6145 18.98 19.9595 19.326 19.9595 19.753C19.9605 20.174 19.6145 20.526 19.1945 20.526ZM20.1475 20.376C20.2375 20.511 20.3505 20.624 20.4855 20.714C20.3655 20.789 20.2685 20.887 20.1855 20.999C20.1855 20.825 20.0445 20.684 19.8705 20.684H19.8554C19.9754 20.601 20.0725 20.496 20.1475 20.376ZM20.1855 28.249V28.099C20.2225 28.152 20.2605 28.204 20.3055 28.249H20.1855ZM21.1085 28.204C20.6885 28.204 20.3355 27.859 20.3355 27.431C20.3355 27.004 20.6885 26.658 21.1085 26.658C21.5365 26.658 21.8825 27.004 21.8825 27.431C21.8825 27.859 21.5365 28.204 21.1085 28.204ZM22.0395 28.249H21.9125C21.9645 28.204 22.0025 28.152 22.0395 28.099V28.249ZM22.0395 26.763C21.9575 26.643 21.8515 26.546 21.7395 26.471C21.8515 26.396 21.9575 26.298 22.0395 26.178V26.763ZM22.0395 24.842C21.9575 24.729 21.8515 24.624 21.7395 24.549C21.8515 24.474 21.9575 24.377 22.0395 24.264V24.842ZM22.0395 22.921C21.9575 22.808 21.8515 22.71 21.7395 22.628C21.8515 22.553 21.9575 22.455 22.0395 22.343V22.921ZM22.3545 20.684C22.1805 20.684 22.0395 20.825 22.0395 20.999C21.9575 20.887 21.8515 20.789 21.7395 20.714C21.8665 20.624 21.9875 20.511 22.0695 20.376C22.1525 20.496 22.2495 20.601 22.3625 20.684H22.3545ZM23.6985 20.684C23.8115 20.601 23.9165 20.496 23.9915 20.376C24.0665 20.496 24.1715 20.601 24.2845 20.684H23.6985ZM25.6955 20.684H25.6205C25.6435 20.661 25.6735 20.639 25.6955 20.616V20.684ZM25.6955 18.83V18.883C25.6735 18.868 25.6505 18.845 25.6285 18.83H25.6955ZM24.9525 18.98C25.3285 18.98 25.6205 19.25 25.6955 19.603V19.896C25.6205 20.249 25.3285 20.526 24.9525 20.526C24.5245 20.526 24.1795 20.174 24.1795 19.753C24.1795 19.326 24.5245 18.98 24.9525 18.98ZM24.2765 18.83C24.1645 18.913 24.0665 19.01 23.9915 19.123C23.9165 19.01 23.8195 18.913 23.7065 18.83H24.2765ZM23.0305 18.98C23.4585 18.98 23.8035 19.326 23.8035 19.753C23.8035 20.174 23.4585 20.526 23.0305 20.526C22.6025 20.526 22.2575 20.174 22.2575 19.753C22.2575 19.326 22.6025 18.98 23.0305 18.98Z" fill="black" fill-opacity="0.2"/>
<path d="M22.7905 15.58L29.1265 8.62701C29.3455 8.38601 29.1745 8 28.8495 8C28.7445 8 28.6435 8.04401 28.5725 8.12201L22.7905 14.47C22.7905 14.403 22.7365 14.349 22.6705 14.349H19.5624C19.4914 14.349 19.4345 14.407 19.4345 14.477L13.6525 8.12299C13.5815 8.04399 13.4805 8 13.3755 8C13.0495 8 12.8795 8.38601 13.0985 8.62701L19.4345 15.588V18.08H15.9785C15.8675 18.08 15.7785 18.169 15.7785 18.28V21.235C15.7785 21.345 15.8675 21.435 15.9785 21.435H19.4345V28.8C19.4345 28.91 19.5245 29 19.6345 29H22.5905C22.7005 29 22.7905 28.91 22.7905 28.8V21.435H26.2465C26.3575 21.435 26.4465 21.345 26.4465 21.235V18.28C26.4465 18.169 26.3575 18.08 26.2465 18.08H22.7905V15.58ZM20.4855 26.471C20.3655 26.546 20.2675 26.643 20.1855 26.763V26.178C20.2675 26.298 20.3655 26.396 20.4855 26.471ZM20.1855 24.842V24.264C20.2675 24.377 20.3655 24.474 20.4855 24.549C20.3655 24.624 20.2675 24.729 20.1855 24.842ZM20.3355 25.51C20.3355 25.082 20.6885 24.737 21.1085 24.737C21.5365 24.737 21.8825 25.082 21.8825 25.51C21.8825 25.938 21.5365 26.283 21.1085 26.283C20.6885 26.283 20.3355 25.938 20.3355 25.51ZM21.1085 24.362C20.6885 24.362 20.3355 24.016 20.3355 23.589C20.3355 23.168 20.6885 22.816 21.1085 22.816C21.5365 22.816 21.8825 23.168 21.8825 23.589C21.8825 24.016 21.5365 24.362 21.1085 24.362ZM20.1855 22.921V22.343C20.2675 22.455 20.3655 22.553 20.4855 22.628C20.3655 22.71 20.2675 22.808 20.1855 22.921ZM21.1085 22.44C20.6885 22.44 20.3355 22.095 20.3355 21.667C20.3355 21.247 20.6885 20.902 21.1085 20.902C21.5365 20.902 21.8825 21.247 21.8825 21.667C21.8825 22.095 21.5365 22.44 21.1085 22.44ZM21.1085 20.526C20.6885 20.526 20.3355 20.174 20.3355 19.753C20.3355 19.326 20.6885 18.98 21.1085 18.98C21.5365 18.98 21.8825 19.326 21.8825 19.753C21.8825 20.174 21.5365 20.526 21.1085 20.526ZM21.8825 17.832C21.8825 18.26 21.5365 18.605 21.1085 18.605C20.6885 18.605 20.3355 18.26 20.3355 17.832C20.3355 17.404 20.6885 17.059 21.1085 17.059C21.5365 17.059 21.8825 17.404 21.8825 17.832ZM21.7395 16.871C21.8515 16.796 21.9575 16.699 22.0395 16.578V17.164C21.9575 17.044 21.8515 16.946 21.7395 16.871ZM21.7395 18.793C21.8515 18.718 21.9575 18.613 22.0395 18.5V18.515C22.0395 18.689 22.1805 18.83 22.3545 18.83C22.2425 18.913 22.1445 19.01 22.0695 19.123C21.9875 18.995 21.8665 18.875 21.7395 18.793ZM22.0395 15.1V15.243C22.0025 15.19 21.9645 15.145 21.9195 15.1H22.0395ZM21.1085 15.138C21.5365 15.138 21.8825 15.483 21.8825 15.911C21.8825 16.338 21.5365 16.684 21.1085 16.684C20.6885 16.684 20.3355 16.338 20.3355 15.911C20.3355 15.483 20.6885 15.138 21.1085 15.138ZM20.1855 15.1H20.3055C20.2605 15.145 20.2225 15.19 20.1855 15.243V15.1ZM20.1855 16.578C20.2675 16.699 20.3655 16.796 20.4855 16.871C20.3655 16.946 20.2675 17.044 20.1855 17.164V16.578ZM19.8695 18.83C20.0445 18.83 20.1855 18.689 20.1855 18.515V18.5C20.2675 18.612 20.3655 18.717 20.4855 18.793C20.3505 18.875 20.2375 18.995 20.1475 19.123C20.0725 19.01 19.9745 18.913 19.8695 18.83ZM18.5185 18.83C18.4055 18.913 18.3085 19.01 18.2335 19.123C18.1585 19.01 18.0605 18.913 17.9485 18.83H18.5185ZM16.5295 18.83H16.5965C16.5745 18.845 16.5515 18.868 16.5295 18.883V18.83ZM16.5295 20.684V20.616C16.5515 20.639 16.5745 20.661 16.6045 20.684H16.5295ZM17.2725 20.526C16.8975 20.526 16.5965 20.249 16.5295 19.896V19.603C16.5965 19.25 16.8975 18.98 17.2725 18.98C17.6925 18.98 18.0455 19.326 18.0455 19.753C18.0455 20.174 17.6925 20.526 17.2725 20.526ZM17.9335 20.684C18.0535 20.601 18.1505 20.496 18.2335 20.376C18.3085 20.496 18.4055 20.601 18.5265 20.684H17.9335ZM19.1945 20.526C18.7665 20.526 18.4205 20.174 18.4205 19.753C18.4205 19.326 18.7665 18.98 19.1945 18.98C19.6145 18.98 19.9595 19.326 19.9595 19.753C19.9605 20.174 19.6145 20.526 19.1945 20.526ZM20.1475 20.376C20.2375 20.511 20.3505 20.624 20.4855 20.714C20.3655 20.789 20.2685 20.887 20.1855 20.999C20.1855 20.825 20.0445 20.684 19.8705 20.684H19.8554C19.9754 20.601 20.0725 20.496 20.1475 20.376ZM20.1855 28.249V28.099C20.2225 28.152 20.2605 28.204 20.3055 28.249H20.1855ZM21.1085 28.204C20.6885 28.204 20.3355 27.859 20.3355 27.431C20.3355 27.004 20.6885 26.658 21.1085 26.658C21.5365 26.658 21.8825 27.004 21.8825 27.431C21.8825 27.859 21.5365 28.204 21.1085 28.204ZM22.0395 28.249H21.9125C21.9645 28.204 22.0025 28.152 22.0395 28.099V28.249ZM22.0395 26.763C21.9575 26.643 21.8515 26.546 21.7395 26.471C21.8515 26.396 21.9575 26.298 22.0395 26.178V26.763ZM22.0395 24.842C21.9575 24.729 21.8515 24.624 21.7395 24.549C21.8515 24.474 21.9575 24.377 22.0395 24.264V24.842ZM22.0395 22.921C21.9575 22.808 21.8515 22.71 21.7395 22.628C21.8515 22.553 21.9575 22.455 22.0395 22.343V22.921ZM22.3545 20.684C22.1805 20.684 22.0395 20.825 22.0395 20.999C21.9575 20.887 21.8515 20.789 21.7395 20.714C21.8665 20.624 21.9875 20.511 22.0695 20.376C22.1525 20.496 22.2495 20.601 22.3625 20.684H22.3545ZM23.6985 20.684C23.8115 20.601 23.9165 20.496 23.9915 20.376C24.0665 20.496 24.1715 20.601 24.2845 20.684H23.6985ZM25.6955 20.684H25.6205C25.6435 20.661 25.6735 20.639 25.6955 20.616V20.684ZM25.6955 18.83V18.883C25.6735 18.868 25.6505 18.845 25.6285 18.83H25.6955ZM24.9525 18.98C25.3285 18.98 25.6205 19.25 25.6955 19.603V19.896C25.6205 20.249 25.3285 20.526 24.9525 20.526C24.5245 20.526 24.1795 20.174 24.1795 19.753C24.1795 19.326 24.5245 18.98 24.9525 18.98ZM24.2765 18.83C24.1645 18.913 24.0665 19.01 23.9915 19.123C23.9165 19.01 23.8195 18.913 23.7065 18.83H24.2765ZM23.0305 18.98C23.4585 18.98 23.8035 19.326 23.8035 19.753C23.8035 20.174 23.4585 20.526 23.0305 20.526C22.6025 20.526 22.2575 20.174 22.2575 19.753C22.2575 19.326 22.6025 18.98 23.0305 18.98Z" fill="black" fill-opacity="0.2"/>
<path d="M22.7905 15.58L29.1265 8.62701C29.3455 8.38601 29.1745 8 28.8495 8C28.7445 8 28.6435 8.04401 28.5725 8.12201L22.7905 14.47C22.7905 14.403 22.7365 14.349 22.6705 14.349H19.5624C19.4914 14.349 19.4345 14.407 19.4345 14.477L13.6525 8.12299C13.5815 8.04399 13.4805 8 13.3755 8C13.0495 8 12.8795 8.38601 13.0985 8.62701L19.4345 15.588V18.08H15.9785C15.8675 18.08 15.7785 18.169 15.7785 18.28V21.235C15.7785 21.345 15.8675 21.435 15.9785 21.435H19.4345V28.8C19.4345 28.91 19.5245 29 19.6345 29H22.5905C22.7005 29 22.7905 28.91 22.7905 28.8V21.435H26.2465C26.3575 21.435 26.4465 21.345 26.4465 21.235V18.28C26.4465 18.169 26.3575 18.08 26.2465 18.08H22.7905V15.58ZM20.4855 26.471C20.3655 26.546 20.2675 26.643 20.1855 26.763V26.178C20.2675 26.298 20.3655 26.396 20.4855 26.471ZM20.1855 24.842V24.264C20.2675 24.377 20.3655 24.474 20.4855 24.549C20.3655 24.624 20.2675 24.729 20.1855 24.842ZM20.3355 25.51C20.3355 25.082 20.6885 24.737 21.1085 24.737C21.5365 24.737 21.8825 25.082 21.8825 25.51C21.8825 25.938 21.5365 26.283 21.1085 26.283C20.6885 26.283 20.3355 25.938 20.3355 25.51ZM21.1085 24.362C20.6885 24.362 20.3355 24.016 20.3355 23.589C20.3355 23.168 20.6885 22.816 21.1085 22.816C21.5365 22.816 21.8825 23.168 21.8825 23.589C21.8825 24.016 21.5365 24.362 21.1085 24.362ZM20.1855 22.921V22.343C20.2675 22.455 20.3655 22.553 20.4855 22.628C20.3655 22.71 20.2675 22.808 20.1855 22.921ZM21.1085 22.44C20.6885 22.44 20.3355 22.095 20.3355 21.667C20.3355 21.247 20.6885 20.902 21.1085 20.902C21.5365 20.902 21.8825 21.247 21.8825 21.667C21.8825 22.095 21.5365 22.44 21.1085 22.44ZM21.1085 20.526C20.6885 20.526 20.3355 20.174 20.3355 19.753C20.3355 19.326 20.6885 18.98 21.1085 18.98C21.5365 18.98 21.8825 19.326 21.8825 19.753C21.8825 20.174 21.5365 20.526 21.1085 20.526ZM21.8825 17.832C21.8825 18.26 21.5365 18.605 21.1085 18.605C20.6885 18.605 20.3355 18.26 20.3355 17.832C20.3355 17.404 20.6885 17.059 21.1085 17.059C21.5365 17.059 21.8825 17.404 21.8825 17.832ZM21.7395 16.871C21.8515 16.796 21.9575 16.699 22.0395 16.578V17.164C21.9575 17.044 21.8515 16.946 21.7395 16.871ZM21.7395 18.793C21.8515 18.718 21.9575 18.613 22.0395 18.5V18.515C22.0395 18.689 22.1805 18.83 22.3545 18.83C22.2425 18.913 22.1445 19.01 22.0695 19.123C21.9875 18.995 21.8665 18.875 21.7395 18.793ZM22.0395 15.1V15.243C22.0025 15.19 21.9645 15.145 21.9195 15.1H22.0395ZM21.1085 15.138C21.5365 15.138 21.8825 15.483 21.8825 15.911C21.8825 16.338 21.5365 16.684 21.1085 16.684C20.6885 16.684 20.3355 16.338 20.3355 15.911C20.3355 15.483 20.6885 15.138 21.1085 15.138ZM20.1855 15.1H20.3055C20.2605 15.145 20.2225 15.19 20.1855 15.243V15.1ZM20.1855 16.578C20.2675 16.699 20.3655 16.796 20.4855 16.871C20.3655 16.946 20.2675 17.044 20.1855 17.164V16.578ZM19.8695 18.83C20.0445 18.83 20.1855 18.689 20.1855 18.515V18.5C20.2675 18.612 20.3655 18.717 20.4855 18.793C20.3505 18.875 20.2375 18.995 20.1475 19.123C20.0725 19.01 19.9745 18.913 19.8695 18.83ZM18.5185 18.83C18.4055 18.913 18.3085 19.01 18.2335 19.123C18.1585 19.01 18.0605 18.913 17.9485 18.83H18.5185ZM16.5295 18.83H16.5965C16.5745 18.845 16.5515 18.868 16.5295 18.883V18.83ZM16.5295 20.684V20.616C16.5515 20.639 16.5745 20.661 16.6045 20.684H16.5295ZM17.2725 20.526C16.8975 20.526 16.5965 20.249 16.5295 19.896V19.603C16.5965 19.25 16.8975 18.98 17.2725 18.98C17.6925 18.98 18.0455 19.326 18.0455 19.753C18.0455 20.174 17.6925 20.526 17.2725 20.526ZM17.9335 20.684C18.0535 20.601 18.1505 20.496 18.2335 20.376C18.3085 20.496 18.4055 20.601 18.5265 20.684H17.9335ZM19.1945 20.526C18.7665 20.526 18.4205 20.174 18.4205 19.753C18.4205 19.326 18.7665 18.98 19.1945 18.98C19.6145 18.98 19.9595 19.326 19.9595 19.753C19.9605 20.174 19.6145 20.526 19.1945 20.526ZM20.1475 20.376C20.2375 20.511 20.3505 20.624 20.4855 20.714C20.3655 20.789 20.2685 20.887 20.1855 20.999C20.1855 20.825 20.0445 20.684 19.8705 20.684H19.8554C19.9754 20.601 20.0725 20.496 20.1475 20.376ZM20.1855 28.249V28.099C20.2225 28.152 20.2605 28.204 20.3055 28.249H20.1855ZM21.1085 28.204C20.6885 28.204 20.3355 27.859 20.3355 27.431C20.3355 27.004 20.6885 26.658 21.1085 26.658C21.5365 26.658 21.8825 27.004 21.8825 27.431C21.8825 27.859 21.5365 28.204 21.1085 28.204ZM22.0395 28.249H21.9125C21.9645 28.204 22.0025 28.152 22.0395 28.099V28.249ZM22.0395 26.763C21.9575 26.643 21.8515 26.546 21.7395 26.471C21.8515 26.396 21.9575 26.298 22.0395 26.178V26.763ZM22.0395 24.842C21.9575 24.729 21.8515 24.624 21.7395 24.549C21.8515 24.474 21.9575 24.377 22.0395 24.264V24.842ZM22.0395 22.921C21.9575 22.808 21.8515 22.71 21.7395 22.628C21.8515 22.553 21.9575 22.455 22.0395 22.343V22.921ZM22.3545 20.684C22.1805 20.684 22.0395 20.825 22.0395 20.999C21.9575 20.887 21.8515 20.789 21.7395 20.714C21.8665 20.624 21.9875 20.511 22.0695 20.376C22.1525 20.496 22.2495 20.601 22.3625 20.684H22.3545ZM23.6985 20.684C23.8115 20.601 23.9165 20.496 23.9915 20.376C24.0665 20.496 24.1715 20.601 24.2845 20.684H23.6985ZM25.6955 20.684H25.6205C25.6435 20.661 25.6735 20.639 25.6955 20.616V20.684ZM25.6955 18.83V18.883C25.6735 18.868 25.6505 18.845 25.6285 18.83H25.6955ZM24.9525 18.98C25.3285 18.98 25.6205 19.25 25.6955 19.603V19.896C25.6205 20.249 25.3285 20.526 24.9525 20.526C24.5245 20.526 24.1795 20.174 24.1795 19.753C24.1795 19.326 24.5245 18.98 24.9525 18.98ZM24.2765 18.83C24.1645 18.913 24.0665 19.01 23.9915 19.123C23.9165 19.01 23.8195 18.913 23.7065 18.83H24.2765ZM23.0305 18.98C23.4585 18.98 23.8035 19.326 23.8035 19.753C23.8035 20.174 23.4585 20.526 23.0305 20.526C22.6025 20.526 22.2575 20.174 22.2575 19.753C22.2575 19.326 22.6025 18.98 23.0305 18.98Z" fill="black" fill-opacity="0.2"/>
</g>
</g>
</svg>
