<svg width="22" height="26" viewBox="0 0 22 26" fill="none" xmlns="http://www.w3.org/2000/svg">
<path d="M10.9795 0C3.59149 0 0 4.2623 0 13C0 21.7377 3.59154 26 10.9795 26C18.3674 26 21.9589 21.7492 21.9589 13C21.9589 4.25078 18.3674 0 10.9795 0ZM20.834 18.7029L18.4386 18.8249L21.5245 13.7728V13.7726C21.5041 15.4386 21.272 17.0952 20.834 18.7027V18.7029ZM0.434856 13.7726L3.52076 18.8249L1.1254 18.7028V18.7026C0.687356 17.0951 0.455254 15.4385 0.434856 13.7726V13.7726ZM1.1254 7.29695L3.52076 7.17485L0.434856 12.227V12.2272C0.455271 10.5612 0.687376 8.90463 1.1254 7.29714V7.29695ZM21.5245 12.227L18.4386 7.17486L20.834 7.29696V7.29716C21.272 8.90465 21.5041 10.5613 21.5245 12.2272V12.227ZM17.5861 13L18.1885 7.60109L21.4932 13L18.183 18.3989L17.5861 13ZM15.8415 19.2514L10.9796 21.1837L6.11776 19.2514L4.80503 13L6.11776 6.76284L10.9796 4.81644L15.8415 6.76284L17.1542 13.0142L15.8415 19.2514ZM7.7147 23.4369L6.29394 19.7715L10.5221 21.4765L7.7147 23.4369ZM10.9796 21.6723L13.9548 23.7551L10.9796 25.5398L8.00449 23.7553L10.9796 21.6723ZM14.2445 23.4369L11.4258 21.465L15.654 19.76L14.2445 23.4369ZM3.77096 18.4131L0.466214 13L3.77096 7.60109L4.37332 13L3.77096 18.4131ZM4.65179 11.6559L4.16023 7.12082L5.67197 6.86791L4.65179 11.6559ZM4.65179 14.344L5.66048 19.1319L4.16025 18.879L4.65179 14.344ZM14.2445 2.56281L15.6653 6.22828L11.4371 4.52326L14.2445 2.56281ZM10.9796 4.32745L8.00444 2.24466L10.9796 0.459973L13.9547 2.24445L10.9796 4.32745ZM7.71465 2.56281L10.5334 4.53478L6.3052 6.2398L7.71465 2.56281ZM17.3074 11.6557L16.2987 6.86778L17.8104 7.12069L17.3074 11.6557ZM17.3074 14.3438L17.8102 18.8904L16.2985 19.1433L17.3074 14.3438ZM17.853 6.69454L16.1821 6.41031L14.6734 2.48636L18.1571 2.82728L17.853 6.69454ZM14.7757 2.06001L15.5514 1.17639C16.3126 1.46162 17.0277 1.85704 17.6741 2.35L14.7757 2.06001ZM14.3011 1.95773L11.7835 0.445988V0.446187C12.9171 0.483648 14.0401 0.674919 15.1223 1.01444L14.3011 1.95773ZM7.65754 1.95773L6.83634 1.02003C7.91855 0.680496 9.04162 0.489423 10.1752 0.451773L7.65754 1.95773ZM7.18302 2.06001L4.28461 2.34424C4.93096 1.8513 5.64611 1.45586 6.40724 1.17064L7.18302 2.06001ZM7.2853 2.48635L5.77655 6.41624L4.10563 6.70048L3.80157 2.82747L7.2853 2.48635ZM4.10563 19.3052L5.77655 19.5894L7.2853 23.5134L3.80158 23.1724L4.10563 19.3052ZM7.183 23.9397L6.40721 24.8233C5.64609 24.5381 4.93094 24.1427 4.28459 23.6497L7.183 23.9397ZM7.65752 24.042L10.1752 25.5537V25.5535C9.0416 25.5161 7.91853 25.3248 6.83632 24.9853L7.65752 24.042ZM14.3011 24.042L15.1223 24.9797C14.0401 25.3192 12.917 25.5103 11.7835 25.5479L14.3011 24.042ZM14.7756 23.9397L17.674 23.6555C17.0277 24.1484 16.3125 24.5439 15.5514 24.8291L14.7756 23.9397ZM14.6734 23.5134L16.1879 19.5749L17.8588 19.2907L18.1571 23.1722L14.6734 23.5134ZM20.7004 6.86199L18.2765 6.74842L18.5608 3.14815H18.5606C19.5461 4.20799 20.2777 5.4779 20.7002 6.86198L20.7004 6.86199ZM3.39857 3.13964L3.68281 6.73991L1.25888 6.862C1.68027 5.47493 2.41188 4.20202 3.39855 3.13965L3.39857 3.13964ZM1.2589 19.1375L3.68283 19.2595L3.39859 22.8598C2.41192 21.7974 1.68033 20.5245 1.25892 19.1375L1.2589 19.1375ZM18.5608 22.8598L18.2765 19.251L20.7005 19.1289H20.7003C20.2801 20.519 19.5483 21.795 18.5606 22.8598L18.5608 22.8598Z" fill="black"/>
</svg>
