<svg width="22" height="20" viewBox="0 0 22 20" fill="none" xmlns="http://www.w3.org/2000/svg">
<g id="Group 26019">
<g id="Vector">
<path d="M21.2966 5.0672C20.9416 2.2902 18.5546 0.200195 15.7466 0.200195C13.6846 0.200195 11.1186 1.8582 11.0096 1.9292L10.9616 1.96222L10.9086 1.9292C10.8006 1.8582 8.23861 0.200195 6.17661 0.200195C3.10261 0.200195 0.599609 2.69919 0.599609 5.77319C0.599609 6.08219 0.625609 6.46922 0.670609 6.88922C0.737609 7.49922 0.849601 8.16022 1.0036 8.86322C1.1716 9.62222 1.44761 10.4322 1.82161 11.2802C2.16461 12.0492 2.5796 12.8012 3.0576 13.5002C3.5396 14.2022 4.0926 14.8792 4.7126 15.5112C5.3286 16.1432 6.02361 16.7492 6.77361 17.3112C7.52861 17.8722 8.36161 18.4042 9.25061 18.8942C9.57161 19.0692 9.90461 19.2442 10.2436 19.4112C10.3036 19.4412 10.3676 19.4742 10.4266 19.5122C10.5576 19.5822 10.6806 19.6492 10.8116 19.6862C10.9876 19.7382 11.1146 19.6752 11.2866 19.5902L11.3646 19.5492C11.8276 19.3292 12.2836 19.0912 12.7166 18.8542C13.5796 18.3742 14.3936 17.8532 15.1256 17.3032C15.8616 16.7572 16.5416 16.1652 17.1506 15.5482C17.7556 14.9312 18.3006 14.2732 18.7786 13.5852C19.2536 12.9012 19.6676 12.1722 20.0116 11.4212C20.3556 10.6702 20.6396 9.87421 20.8526 9.05621C21.0316 8.36121 21.1656 7.62919 21.2486 6.88519C21.2966 6.46919 21.3186 6.08219 21.3186 5.77319C21.3456 5.53519 21.3186 5.2972 21.2966 5.0672ZM18.6186 1.48621C19.7276 2.22621 20.4976 3.34921 20.7886 4.65421L20.8256 4.81821L16.6986 3.29721L18.5546 1.4462L18.6186 1.48621ZM16.4706 6.8262L17.8266 8.1492L16.0186 9.5032L16.4706 6.8262ZM16.1236 6.08621L13.4826 5.1972L16.1236 3.72522V6.08621ZM16.5606 6.29022V3.68021L20.7436 5.20822L18.1366 7.86722L16.5606 6.29022ZM14.4576 0.780212C14.9766 0.665212 15.3876 0.609222 15.7466 0.609222C16.5266 0.609222 17.3116 0.799197 18.0806 1.1702L18.2006 1.2262L16.3396 3.08521L14.3006 0.813202L14.4576 0.780212ZM16.0116 3.3342L12.9556 5.0372L11.3086 4.48019L13.9686 1.0592L16.0116 3.3342ZM11.1776 2.30121L11.3346 2.20822C11.6636 2.01422 12.2756 1.65419 13.0006 1.31219L13.3516 1.14819L11.1776 3.96622V2.30121ZM11.1776 4.85519L12.4776 5.29721L11.1776 6.02621V4.85519ZM10.9616 6.54321C11.0886 6.54321 11.2036 6.47222 11.3306 6.40222L12.8286 5.5762C12.9376 5.5062 12.9896 5.47621 13.0456 5.49521L16.1126 6.5242L15.5446 9.8782L15.5296 9.89722L13.1916 12.8082L10.9616 14.4742L8.7086 12.7892L6.3746 9.8782L5.80661 6.5242L8.9106 5.48019L10.4276 6.30521C10.4646 6.32421 10.5056 6.34619 10.5426 6.36819C10.6476 6.43119 10.7556 6.4952 10.8646 6.5282C10.8976 6.5392 10.9276 6.54321 10.9616 6.54321ZM15.6716 10.4212L16.0976 12.1832L13.8826 12.6372L15.6716 10.4212ZM13.0376 13.4442L12.6046 15.6152L11.3016 14.7452L13.0376 13.4442ZM10.5956 14.7232L9.29161 15.5892L8.8586 13.4212L10.5956 14.7232ZM8.05861 12.6372L5.82161 12.1832L6.27361 10.3992L8.05861 12.6372ZM5.4476 6.8002L5.8996 9.48019L4.0956 8.1272L5.4476 6.8002ZM3.78261 7.86722L1.20061 5.20822L5.3586 3.68021V6.29022L3.78261 7.86722ZM5.79561 6.0712V3.72522L8.43961 5.1972L5.79561 6.0712ZM9.45961 5.30121L10.7666 4.85519V6.00021L9.45961 5.30121ZM8.8916 1.31219C9.6316 1.62819 10.2586 2.0002 10.5956 2.2002L10.7666 2.30121V3.9892L8.5556 1.16721L8.8916 1.31219ZM10.6106 4.48019L8.9666 5.0372L5.90761 3.3342L7.95061 1.0592L10.6106 4.48019ZM3.8116 1.1962C4.5476 0.802198 5.3246 0.609222 6.17661 0.609222C6.56461 0.609222 6.96461 0.672213 7.44661 0.806213L7.58861 0.847198L5.55661 3.11121L3.6996 1.2562L3.8116 1.1962ZM1.1076 4.65121C1.4216 3.34921 2.1906 2.22621 3.2776 1.48621L3.3416 1.4462L5.1976 3.29721L1.0706 4.8222L1.1076 4.65121ZM1.3246 8.46921C1.2306 7.95621 1.1336 7.40222 1.0596 6.83722C1.0146 6.46922 0.988602 6.0972 0.988602 5.8222V5.59122L3.3636 8.04919L1.34261 8.56619L1.3246 8.46921ZM2.04561 10.7112C1.80661 10.1272 1.6266 9.58119 1.4926 9.04919L1.4696 8.96021L3.3896 8.48019L2.1236 10.8972L2.04561 10.7112ZM3.8456 8.45419L5.94461 10.0162L5.4296 12.0832L2.40361 11.2352L3.8456 8.45419ZM3.7076 13.7192C3.2476 13.0722 2.87861 12.4732 2.57561 11.8902L2.47861 11.7002L5.1606 12.4472L3.7706 13.8082L3.7076 13.7192ZM5.4666 15.6712C4.9886 15.2172 4.56261 14.7492 4.11861 14.2022L4.0656 14.1352L5.41861 12.8122L5.64261 15.8382L5.4666 15.6712ZM5.81061 12.5922L8.40961 13.1092L8.9176 15.7532L6.06461 16.0872L5.81061 12.5922ZM8.3506 17.8792C7.5916 17.4042 7.0356 17.0092 6.5466 16.6082L6.3786 16.4672L8.9066 16.1882L8.4586 17.9502L8.3506 17.8792ZM10.2476 18.9612C9.8746 18.7752 9.5156 18.5752 9.1716 18.3812L8.8176 18.1842L9.2316 16.5302L10.4976 19.0842L10.2476 18.9612ZM10.9616 19.0622L9.4296 16.0022L10.9616 14.9872L12.4926 16.0022L10.9616 19.0622ZM13.0866 18.1952C12.5416 18.5112 12.0816 18.7532 11.6446 18.9612L11.3986 19.0802L12.7096 16.5152L13.1506 18.1582L13.0866 18.1952ZM15.3506 16.6302C14.8236 17.0612 14.2406 17.4742 13.6166 17.8572L13.5086 17.9242L13.0346 16.1882L15.5186 16.4932L15.3506 16.6302ZM15.8286 16.1132L13.0006 15.7532L13.5346 13.1092L16.1346 12.5922L15.8286 16.1132ZM17.8046 14.1982C17.4306 14.6822 16.9976 15.1542 16.4296 15.6932L16.2536 15.8642L16.5046 12.8152L17.8526 14.1352L17.8046 14.1982ZM19.3436 11.8672C18.9956 12.5402 18.6076 13.1612 18.1886 13.7192L18.1216 13.8042L16.7356 12.4472L19.4436 11.6742L19.3436 11.8672ZM16.4896 12.0832L15.9736 10.0422L18.0736 8.48019L19.4926 11.2612L16.4896 12.0832ZM20.4266 9.04919C20.2886 9.60719 20.0976 10.1902 19.8736 10.7332L19.7986 10.9232L18.5326 8.48019L20.4486 8.96021L20.4266 9.04919ZM20.9346 5.82919C20.9086 6.11519 20.8856 6.45022 20.8596 6.83322V6.83722C20.7886 7.38022 20.7176 7.94121 20.5946 8.47321L20.5756 8.56619L18.5546 8.04919L20.9526 5.56921L20.9346 5.82919Z" fill="#333335"/>
<path d="M21.2966 5.0672C20.9416 2.2902 18.5546 0.200195 15.7466 0.200195C13.6846 0.200195 11.1186 1.8582 11.0096 1.9292L10.9616 1.96222L10.9086 1.9292C10.8006 1.8582 8.23861 0.200195 6.17661 0.200195C3.10261 0.200195 0.599609 2.69919 0.599609 5.77319C0.599609 6.08219 0.625609 6.46922 0.670609 6.88922C0.737609 7.49922 0.849601 8.16022 1.0036 8.86322C1.1716 9.62222 1.44761 10.4322 1.82161 11.2802C2.16461 12.0492 2.5796 12.8012 3.0576 13.5002C3.5396 14.2022 4.0926 14.8792 4.7126 15.5112C5.3286 16.1432 6.02361 16.7492 6.77361 17.3112C7.52861 17.8722 8.36161 18.4042 9.25061 18.8942C9.57161 19.0692 9.90461 19.2442 10.2436 19.4112C10.3036 19.4412 10.3676 19.4742 10.4266 19.5122C10.5576 19.5822 10.6806 19.6492 10.8116 19.6862C10.9876 19.7382 11.1146 19.6752 11.2866 19.5902L11.3646 19.5492C11.8276 19.3292 12.2836 19.0912 12.7166 18.8542C13.5796 18.3742 14.3936 17.8532 15.1256 17.3032C15.8616 16.7572 16.5416 16.1652 17.1506 15.5482C17.7556 14.9312 18.3006 14.2732 18.7786 13.5852C19.2536 12.9012 19.6676 12.1722 20.0116 11.4212C20.3556 10.6702 20.6396 9.87421 20.8526 9.05621C21.0316 8.36121 21.1656 7.62919 21.2486 6.88519C21.2966 6.46919 21.3186 6.08219 21.3186 5.77319C21.3456 5.53519 21.3186 5.2972 21.2966 5.0672ZM18.6186 1.48621C19.7276 2.22621 20.4976 3.34921 20.7886 4.65421L20.8256 4.81821L16.6986 3.29721L18.5546 1.4462L18.6186 1.48621ZM16.4706 6.8262L17.8266 8.1492L16.0186 9.5032L16.4706 6.8262ZM16.1236 6.08621L13.4826 5.1972L16.1236 3.72522V6.08621ZM16.5606 6.29022V3.68021L20.7436 5.20822L18.1366 7.86722L16.5606 6.29022ZM14.4576 0.780212C14.9766 0.665212 15.3876 0.609222 15.7466 0.609222C16.5266 0.609222 17.3116 0.799197 18.0806 1.1702L18.2006 1.2262L16.3396 3.08521L14.3006 0.813202L14.4576 0.780212ZM16.0116 3.3342L12.9556 5.0372L11.3086 4.48019L13.9686 1.0592L16.0116 3.3342ZM11.1776 2.30121L11.3346 2.20822C11.6636 2.01422 12.2756 1.65419 13.0006 1.31219L13.3516 1.14819L11.1776 3.96622V2.30121ZM11.1776 4.85519L12.4776 5.29721L11.1776 6.02621V4.85519ZM10.9616 6.54321C11.0886 6.54321 11.2036 6.47222 11.3306 6.40222L12.8286 5.5762C12.9376 5.5062 12.9896 5.47621 13.0456 5.49521L16.1126 6.5242L15.5446 9.8782L15.5296 9.89722L13.1916 12.8082L10.9616 14.4742L8.7086 12.7892L6.3746 9.8782L5.80661 6.5242L8.9106 5.48019L10.4276 6.30521C10.4646 6.32421 10.5056 6.34619 10.5426 6.36819C10.6476 6.43119 10.7556 6.4952 10.8646 6.5282C10.8976 6.5392 10.9276 6.54321 10.9616 6.54321ZM15.6716 10.4212L16.0976 12.1832L13.8826 12.6372L15.6716 10.4212ZM13.0376 13.4442L12.6046 15.6152L11.3016 14.7452L13.0376 13.4442ZM10.5956 14.7232L9.29161 15.5892L8.8586 13.4212L10.5956 14.7232ZM8.05861 12.6372L5.82161 12.1832L6.27361 10.3992L8.05861 12.6372ZM5.4476 6.8002L5.8996 9.48019L4.0956 8.1272L5.4476 6.8002ZM3.78261 7.86722L1.20061 5.20822L5.3586 3.68021V6.29022L3.78261 7.86722ZM5.79561 6.0712V3.72522L8.43961 5.1972L5.79561 6.0712ZM9.45961 5.30121L10.7666 4.85519V6.00021L9.45961 5.30121ZM8.8916 1.31219C9.6316 1.62819 10.2586 2.0002 10.5956 2.2002L10.7666 2.30121V3.9892L8.5556 1.16721L8.8916 1.31219ZM10.6106 4.48019L8.9666 5.0372L5.90761 3.3342L7.95061 1.0592L10.6106 4.48019ZM3.8116 1.1962C4.5476 0.802198 5.3246 0.609222 6.17661 0.609222C6.56461 0.609222 6.96461 0.672213 7.44661 0.806213L7.58861 0.847198L5.55661 3.11121L3.6996 1.2562L3.8116 1.1962ZM1.1076 4.65121C1.4216 3.34921 2.1906 2.22621 3.2776 1.48621L3.3416 1.4462L5.1976 3.29721L1.0706 4.8222L1.1076 4.65121ZM1.3246 8.46921C1.2306 7.95621 1.1336 7.40222 1.0596 6.83722C1.0146 6.46922 0.988602 6.0972 0.988602 5.8222V5.59122L3.3636 8.04919L1.34261 8.56619L1.3246 8.46921ZM2.04561 10.7112C1.80661 10.1272 1.6266 9.58119 1.4926 9.04919L1.4696 8.96021L3.3896 8.48019L2.1236 10.8972L2.04561 10.7112ZM3.8456 8.45419L5.94461 10.0162L5.4296 12.0832L2.40361 11.2352L3.8456 8.45419ZM3.7076 13.7192C3.2476 13.0722 2.87861 12.4732 2.57561 11.8902L2.47861 11.7002L5.1606 12.4472L3.7706 13.8082L3.7076 13.7192ZM5.4666 15.6712C4.9886 15.2172 4.56261 14.7492 4.11861 14.2022L4.0656 14.1352L5.41861 12.8122L5.64261 15.8382L5.4666 15.6712ZM5.81061 12.5922L8.40961 13.1092L8.9176 15.7532L6.06461 16.0872L5.81061 12.5922ZM8.3506 17.8792C7.5916 17.4042 7.0356 17.0092 6.5466 16.6082L6.3786 16.4672L8.9066 16.1882L8.4586 17.9502L8.3506 17.8792ZM10.2476 18.9612C9.8746 18.7752 9.5156 18.5752 9.1716 18.3812L8.8176 18.1842L9.2316 16.5302L10.4976 19.0842L10.2476 18.9612ZM10.9616 19.0622L9.4296 16.0022L10.9616 14.9872L12.4926 16.0022L10.9616 19.0622ZM13.0866 18.1952C12.5416 18.5112 12.0816 18.7532 11.6446 18.9612L11.3986 19.0802L12.7096 16.5152L13.1506 18.1582L13.0866 18.1952ZM15.3506 16.6302C14.8236 17.0612 14.2406 17.4742 13.6166 17.8572L13.5086 17.9242L13.0346 16.1882L15.5186 16.4932L15.3506 16.6302ZM15.8286 16.1132L13.0006 15.7532L13.5346 13.1092L16.1346 12.5922L15.8286 16.1132ZM17.8046 14.1982C17.4306 14.6822 16.9976 15.1542 16.4296 15.6932L16.2536 15.8642L16.5046 12.8152L17.8526 14.1352L17.8046 14.1982ZM19.3436 11.8672C18.9956 12.5402 18.6076 13.1612 18.1886 13.7192L18.1216 13.8042L16.7356 12.4472L19.4436 11.6742L19.3436 11.8672ZM16.4896 12.0832L15.9736 10.0422L18.0736 8.48019L19.4926 11.2612L16.4896 12.0832ZM20.4266 9.04919C20.2886 9.60719 20.0976 10.1902 19.8736 10.7332L19.7986 10.9232L18.5326 8.48019L20.4486 8.96021L20.4266 9.04919ZM20.9346 5.82919C20.9086 6.11519 20.8856 6.45022 20.8596 6.83322V6.83722C20.7886 7.38022 20.7176 7.94121 20.5946 8.47321L20.5756 8.56619L18.5546 8.04919L20.9526 5.56921L20.9346 5.82919Z" fill="black" fill-opacity="0.2"/>
<path d="M21.2966 5.0672C20.9416 2.2902 18.5546 0.200195 15.7466 0.200195C13.6846 0.200195 11.1186 1.8582 11.0096 1.9292L10.9616 1.96222L10.9086 1.9292C10.8006 1.8582 8.23861 0.200195 6.17661 0.200195C3.10261 0.200195 0.599609 2.69919 0.599609 5.77319C0.599609 6.08219 0.625609 6.46922 0.670609 6.88922C0.737609 7.49922 0.849601 8.16022 1.0036 8.86322C1.1716 9.62222 1.44761 10.4322 1.82161 11.2802C2.16461 12.0492 2.5796 12.8012 3.0576 13.5002C3.5396 14.2022 4.0926 14.8792 4.7126 15.5112C5.3286 16.1432 6.02361 16.7492 6.77361 17.3112C7.52861 17.8722 8.36161 18.4042 9.25061 18.8942C9.57161 19.0692 9.90461 19.2442 10.2436 19.4112C10.3036 19.4412 10.3676 19.4742 10.4266 19.5122C10.5576 19.5822 10.6806 19.6492 10.8116 19.6862C10.9876 19.7382 11.1146 19.6752 11.2866 19.5902L11.3646 19.5492C11.8276 19.3292 12.2836 19.0912 12.7166 18.8542C13.5796 18.3742 14.3936 17.8532 15.1256 17.3032C15.8616 16.7572 16.5416 16.1652 17.1506 15.5482C17.7556 14.9312 18.3006 14.2732 18.7786 13.5852C19.2536 12.9012 19.6676 12.1722 20.0116 11.4212C20.3556 10.6702 20.6396 9.87421 20.8526 9.05621C21.0316 8.36121 21.1656 7.62919 21.2486 6.88519C21.2966 6.46919 21.3186 6.08219 21.3186 5.77319C21.3456 5.53519 21.3186 5.2972 21.2966 5.0672ZM18.6186 1.48621C19.7276 2.22621 20.4976 3.34921 20.7886 4.65421L20.8256 4.81821L16.6986 3.29721L18.5546 1.4462L18.6186 1.48621ZM16.4706 6.8262L17.8266 8.1492L16.0186 9.5032L16.4706 6.8262ZM16.1236 6.08621L13.4826 5.1972L16.1236 3.72522V6.08621ZM16.5606 6.29022V3.68021L20.7436 5.20822L18.1366 7.86722L16.5606 6.29022ZM14.4576 0.780212C14.9766 0.665212 15.3876 0.609222 15.7466 0.609222C16.5266 0.609222 17.3116 0.799197 18.0806 1.1702L18.2006 1.2262L16.3396 3.08521L14.3006 0.813202L14.4576 0.780212ZM16.0116 3.3342L12.9556 5.0372L11.3086 4.48019L13.9686 1.0592L16.0116 3.3342ZM11.1776 2.30121L11.3346 2.20822C11.6636 2.01422 12.2756 1.65419 13.0006 1.31219L13.3516 1.14819L11.1776 3.96622V2.30121ZM11.1776 4.85519L12.4776 5.29721L11.1776 6.02621V4.85519ZM10.9616 6.54321C11.0886 6.54321 11.2036 6.47222 11.3306 6.40222L12.8286 5.5762C12.9376 5.5062 12.9896 5.47621 13.0456 5.49521L16.1126 6.5242L15.5446 9.8782L15.5296 9.89722L13.1916 12.8082L10.9616 14.4742L8.7086 12.7892L6.3746 9.8782L5.80661 6.5242L8.9106 5.48019L10.4276 6.30521C10.4646 6.32421 10.5056 6.34619 10.5426 6.36819C10.6476 6.43119 10.7556 6.4952 10.8646 6.5282C10.8976 6.5392 10.9276 6.54321 10.9616 6.54321ZM15.6716 10.4212L16.0976 12.1832L13.8826 12.6372L15.6716 10.4212ZM13.0376 13.4442L12.6046 15.6152L11.3016 14.7452L13.0376 13.4442ZM10.5956 14.7232L9.29161 15.5892L8.8586 13.4212L10.5956 14.7232ZM8.05861 12.6372L5.82161 12.1832L6.27361 10.3992L8.05861 12.6372ZM5.4476 6.8002L5.8996 9.48019L4.0956 8.1272L5.4476 6.8002ZM3.78261 7.86722L1.20061 5.20822L5.3586 3.68021V6.29022L3.78261 7.86722ZM5.79561 6.0712V3.72522L8.43961 5.1972L5.79561 6.0712ZM9.45961 5.30121L10.7666 4.85519V6.00021L9.45961 5.30121ZM8.8916 1.31219C9.6316 1.62819 10.2586 2.0002 10.5956 2.2002L10.7666 2.30121V3.9892L8.5556 1.16721L8.8916 1.31219ZM10.6106 4.48019L8.9666 5.0372L5.90761 3.3342L7.95061 1.0592L10.6106 4.48019ZM3.8116 1.1962C4.5476 0.802198 5.3246 0.609222 6.17661 0.609222C6.56461 0.609222 6.96461 0.672213 7.44661 0.806213L7.58861 0.847198L5.55661 3.11121L3.6996 1.2562L3.8116 1.1962ZM1.1076 4.65121C1.4216 3.34921 2.1906 2.22621 3.2776 1.48621L3.3416 1.4462L5.1976 3.29721L1.0706 4.8222L1.1076 4.65121ZM1.3246 8.46921C1.2306 7.95621 1.1336 7.40222 1.0596 6.83722C1.0146 6.46922 0.988602 6.0972 0.988602 5.8222V5.59122L3.3636 8.04919L1.34261 8.56619L1.3246 8.46921ZM2.04561 10.7112C1.80661 10.1272 1.6266 9.58119 1.4926 9.04919L1.4696 8.96021L3.3896 8.48019L2.1236 10.8972L2.04561 10.7112ZM3.8456 8.45419L5.94461 10.0162L5.4296 12.0832L2.40361 11.2352L3.8456 8.45419ZM3.7076 13.7192C3.2476 13.0722 2.87861 12.4732 2.57561 11.8902L2.47861 11.7002L5.1606 12.4472L3.7706 13.8082L3.7076 13.7192ZM5.4666 15.6712C4.9886 15.2172 4.56261 14.7492 4.11861 14.2022L4.0656 14.1352L5.41861 12.8122L5.64261 15.8382L5.4666 15.6712ZM5.81061 12.5922L8.40961 13.1092L8.9176 15.7532L6.06461 16.0872L5.81061 12.5922ZM8.3506 17.8792C7.5916 17.4042 7.0356 17.0092 6.5466 16.6082L6.3786 16.4672L8.9066 16.1882L8.4586 17.9502L8.3506 17.8792ZM10.2476 18.9612C9.8746 18.7752 9.5156 18.5752 9.1716 18.3812L8.8176 18.1842L9.2316 16.5302L10.4976 19.0842L10.2476 18.9612ZM10.9616 19.0622L9.4296 16.0022L10.9616 14.9872L12.4926 16.0022L10.9616 19.0622ZM13.0866 18.1952C12.5416 18.5112 12.0816 18.7532 11.6446 18.9612L11.3986 19.0802L12.7096 16.5152L13.1506 18.1582L13.0866 18.1952ZM15.3506 16.6302C14.8236 17.0612 14.2406 17.4742 13.6166 17.8572L13.5086 17.9242L13.0346 16.1882L15.5186 16.4932L15.3506 16.6302ZM15.8286 16.1132L13.0006 15.7532L13.5346 13.1092L16.1346 12.5922L15.8286 16.1132ZM17.8046 14.1982C17.4306 14.6822 16.9976 15.1542 16.4296 15.6932L16.2536 15.8642L16.5046 12.8152L17.8526 14.1352L17.8046 14.1982ZM19.3436 11.8672C18.9956 12.5402 18.6076 13.1612 18.1886 13.7192L18.1216 13.8042L16.7356 12.4472L19.4436 11.6742L19.3436 11.8672ZM16.4896 12.0832L15.9736 10.0422L18.0736 8.48019L19.4926 11.2612L16.4896 12.0832ZM20.4266 9.04919C20.2886 9.60719 20.0976 10.1902 19.8736 10.7332L19.7986 10.9232L18.5326 8.48019L20.4486 8.96021L20.4266 9.04919ZM20.9346 5.82919C20.9086 6.11519 20.8856 6.45022 20.8596 6.83322V6.83722C20.7886 7.38022 20.7176 7.94121 20.5946 8.47321L20.5756 8.56619L18.5546 8.04919L20.9526 5.56921L20.9346 5.82919Z" fill="black" fill-opacity="0.2"/>
<path d="M21.2966 5.0672C20.9416 2.2902 18.5546 0.200195 15.7466 0.200195C13.6846 0.200195 11.1186 1.8582 11.0096 1.9292L10.9616 1.96222L10.9086 1.9292C10.8006 1.8582 8.23861 0.200195 6.17661 0.200195C3.10261 0.200195 0.599609 2.69919 0.599609 5.77319C0.599609 6.08219 0.625609 6.46922 0.670609 6.88922C0.737609 7.49922 0.849601 8.16022 1.0036 8.86322C1.1716 9.62222 1.44761 10.4322 1.82161 11.2802C2.16461 12.0492 2.5796 12.8012 3.0576 13.5002C3.5396 14.2022 4.0926 14.8792 4.7126 15.5112C5.3286 16.1432 6.02361 16.7492 6.77361 17.3112C7.52861 17.8722 8.36161 18.4042 9.25061 18.8942C9.57161 19.0692 9.90461 19.2442 10.2436 19.4112C10.3036 19.4412 10.3676 19.4742 10.4266 19.5122C10.5576 19.5822 10.6806 19.6492 10.8116 19.6862C10.9876 19.7382 11.1146 19.6752 11.2866 19.5902L11.3646 19.5492C11.8276 19.3292 12.2836 19.0912 12.7166 18.8542C13.5796 18.3742 14.3936 17.8532 15.1256 17.3032C15.8616 16.7572 16.5416 16.1652 17.1506 15.5482C17.7556 14.9312 18.3006 14.2732 18.7786 13.5852C19.2536 12.9012 19.6676 12.1722 20.0116 11.4212C20.3556 10.6702 20.6396 9.87421 20.8526 9.05621C21.0316 8.36121 21.1656 7.62919 21.2486 6.88519C21.2966 6.46919 21.3186 6.08219 21.3186 5.77319C21.3456 5.53519 21.3186 5.2972 21.2966 5.0672ZM18.6186 1.48621C19.7276 2.22621 20.4976 3.34921 20.7886 4.65421L20.8256 4.81821L16.6986 3.29721L18.5546 1.4462L18.6186 1.48621ZM16.4706 6.8262L17.8266 8.1492L16.0186 9.5032L16.4706 6.8262ZM16.1236 6.08621L13.4826 5.1972L16.1236 3.72522V6.08621ZM16.5606 6.29022V3.68021L20.7436 5.20822L18.1366 7.86722L16.5606 6.29022ZM14.4576 0.780212C14.9766 0.665212 15.3876 0.609222 15.7466 0.609222C16.5266 0.609222 17.3116 0.799197 18.0806 1.1702L18.2006 1.2262L16.3396 3.08521L14.3006 0.813202L14.4576 0.780212ZM16.0116 3.3342L12.9556 5.0372L11.3086 4.48019L13.9686 1.0592L16.0116 3.3342ZM11.1776 2.30121L11.3346 2.20822C11.6636 2.01422 12.2756 1.65419 13.0006 1.31219L13.3516 1.14819L11.1776 3.96622V2.30121ZM11.1776 4.85519L12.4776 5.29721L11.1776 6.02621V4.85519ZM10.9616 6.54321C11.0886 6.54321 11.2036 6.47222 11.3306 6.40222L12.8286 5.5762C12.9376 5.5062 12.9896 5.47621 13.0456 5.49521L16.1126 6.5242L15.5446 9.8782L15.5296 9.89722L13.1916 12.8082L10.9616 14.4742L8.7086 12.7892L6.3746 9.8782L5.80661 6.5242L8.9106 5.48019L10.4276 6.30521C10.4646 6.32421 10.5056 6.34619 10.5426 6.36819C10.6476 6.43119 10.7556 6.4952 10.8646 6.5282C10.8976 6.5392 10.9276 6.54321 10.9616 6.54321ZM15.6716 10.4212L16.0976 12.1832L13.8826 12.6372L15.6716 10.4212ZM13.0376 13.4442L12.6046 15.6152L11.3016 14.7452L13.0376 13.4442ZM10.5956 14.7232L9.29161 15.5892L8.8586 13.4212L10.5956 14.7232ZM8.05861 12.6372L5.82161 12.1832L6.27361 10.3992L8.05861 12.6372ZM5.4476 6.8002L5.8996 9.48019L4.0956 8.1272L5.4476 6.8002ZM3.78261 7.86722L1.20061 5.20822L5.3586 3.68021V6.29022L3.78261 7.86722ZM5.79561 6.0712V3.72522L8.43961 5.1972L5.79561 6.0712ZM9.45961 5.30121L10.7666 4.85519V6.00021L9.45961 5.30121ZM8.8916 1.31219C9.6316 1.62819 10.2586 2.0002 10.5956 2.2002L10.7666 2.30121V3.9892L8.5556 1.16721L8.8916 1.31219ZM10.6106 4.48019L8.9666 5.0372L5.90761 3.3342L7.95061 1.0592L10.6106 4.48019ZM3.8116 1.1962C4.5476 0.802198 5.3246 0.609222 6.17661 0.609222C6.56461 0.609222 6.96461 0.672213 7.44661 0.806213L7.58861 0.847198L5.55661 3.11121L3.6996 1.2562L3.8116 1.1962ZM1.1076 4.65121C1.4216 3.34921 2.1906 2.22621 3.2776 1.48621L3.3416 1.4462L5.1976 3.29721L1.0706 4.8222L1.1076 4.65121ZM1.3246 8.46921C1.2306 7.95621 1.1336 7.40222 1.0596 6.83722C1.0146 6.46922 0.988602 6.0972 0.988602 5.8222V5.59122L3.3636 8.04919L1.34261 8.56619L1.3246 8.46921ZM2.04561 10.7112C1.80661 10.1272 1.6266 9.58119 1.4926 9.04919L1.4696 8.96021L3.3896 8.48019L2.1236 10.8972L2.04561 10.7112ZM3.8456 8.45419L5.94461 10.0162L5.4296 12.0832L2.40361 11.2352L3.8456 8.45419ZM3.7076 13.7192C3.2476 13.0722 2.87861 12.4732 2.57561 11.8902L2.47861 11.7002L5.1606 12.4472L3.7706 13.8082L3.7076 13.7192ZM5.4666 15.6712C4.9886 15.2172 4.56261 14.7492 4.11861 14.2022L4.0656 14.1352L5.41861 12.8122L5.64261 15.8382L5.4666 15.6712ZM5.81061 12.5922L8.40961 13.1092L8.9176 15.7532L6.06461 16.0872L5.81061 12.5922ZM8.3506 17.8792C7.5916 17.4042 7.0356 17.0092 6.5466 16.6082L6.3786 16.4672L8.9066 16.1882L8.4586 17.9502L8.3506 17.8792ZM10.2476 18.9612C9.8746 18.7752 9.5156 18.5752 9.1716 18.3812L8.8176 18.1842L9.2316 16.5302L10.4976 19.0842L10.2476 18.9612ZM10.9616 19.0622L9.4296 16.0022L10.9616 14.9872L12.4926 16.0022L10.9616 19.0622ZM13.0866 18.1952C12.5416 18.5112 12.0816 18.7532 11.6446 18.9612L11.3986 19.0802L12.7096 16.5152L13.1506 18.1582L13.0866 18.1952ZM15.3506 16.6302C14.8236 17.0612 14.2406 17.4742 13.6166 17.8572L13.5086 17.9242L13.0346 16.1882L15.5186 16.4932L15.3506 16.6302ZM15.8286 16.1132L13.0006 15.7532L13.5346 13.1092L16.1346 12.5922L15.8286 16.1132ZM17.8046 14.1982C17.4306 14.6822 16.9976 15.1542 16.4296 15.6932L16.2536 15.8642L16.5046 12.8152L17.8526 14.1352L17.8046 14.1982ZM19.3436 11.8672C18.9956 12.5402 18.6076 13.1612 18.1886 13.7192L18.1216 13.8042L16.7356 12.4472L19.4436 11.6742L19.3436 11.8672ZM16.4896 12.0832L15.9736 10.0422L18.0736 8.48019L19.4926 11.2612L16.4896 12.0832ZM20.4266 9.04919C20.2886 9.60719 20.0976 10.1902 19.8736 10.7332L19.7986 10.9232L18.5326 8.48019L20.4486 8.96021L20.4266 9.04919ZM20.9346 5.82919C20.9086 6.11519 20.8856 6.45022 20.8596 6.83322V6.83722C20.7886 7.38022 20.7176 7.94121 20.5946 8.47321L20.5756 8.56619L18.5546 8.04919L20.9526 5.56921L20.9346 5.82919Z" fill="black" fill-opacity="0.2"/>
<path d="M21.2966 5.0672C20.9416 2.2902 18.5546 0.200195 15.7466 0.200195C13.6846 0.200195 11.1186 1.8582 11.0096 1.9292L10.9616 1.96222L10.9086 1.9292C10.8006 1.8582 8.23861 0.200195 6.17661 0.200195C3.10261 0.200195 0.599609 2.69919 0.599609 5.77319C0.599609 6.08219 0.625609 6.46922 0.670609 6.88922C0.737609 7.49922 0.849601 8.16022 1.0036 8.86322C1.1716 9.62222 1.44761 10.4322 1.82161 11.2802C2.16461 12.0492 2.5796 12.8012 3.0576 13.5002C3.5396 14.2022 4.0926 14.8792 4.7126 15.5112C5.3286 16.1432 6.02361 16.7492 6.77361 17.3112C7.52861 17.8722 8.36161 18.4042 9.25061 18.8942C9.57161 19.0692 9.90461 19.2442 10.2436 19.4112C10.3036 19.4412 10.3676 19.4742 10.4266 19.5122C10.5576 19.5822 10.6806 19.6492 10.8116 19.6862C10.9876 19.7382 11.1146 19.6752 11.2866 19.5902L11.3646 19.5492C11.8276 19.3292 12.2836 19.0912 12.7166 18.8542C13.5796 18.3742 14.3936 17.8532 15.1256 17.3032C15.8616 16.7572 16.5416 16.1652 17.1506 15.5482C17.7556 14.9312 18.3006 14.2732 18.7786 13.5852C19.2536 12.9012 19.6676 12.1722 20.0116 11.4212C20.3556 10.6702 20.6396 9.87421 20.8526 9.05621C21.0316 8.36121 21.1656 7.62919 21.2486 6.88519C21.2966 6.46919 21.3186 6.08219 21.3186 5.77319C21.3456 5.53519 21.3186 5.2972 21.2966 5.0672ZM18.6186 1.48621C19.7276 2.22621 20.4976 3.34921 20.7886 4.65421L20.8256 4.81821L16.6986 3.29721L18.5546 1.4462L18.6186 1.48621ZM16.4706 6.8262L17.8266 8.1492L16.0186 9.5032L16.4706 6.8262ZM16.1236 6.08621L13.4826 5.1972L16.1236 3.72522V6.08621ZM16.5606 6.29022V3.68021L20.7436 5.20822L18.1366 7.86722L16.5606 6.29022ZM14.4576 0.780212C14.9766 0.665212 15.3876 0.609222 15.7466 0.609222C16.5266 0.609222 17.3116 0.799197 18.0806 1.1702L18.2006 1.2262L16.3396 3.08521L14.3006 0.813202L14.4576 0.780212ZM16.0116 3.3342L12.9556 5.0372L11.3086 4.48019L13.9686 1.0592L16.0116 3.3342ZM11.1776 2.30121L11.3346 2.20822C11.6636 2.01422 12.2756 1.65419 13.0006 1.31219L13.3516 1.14819L11.1776 3.96622V2.30121ZM11.1776 4.85519L12.4776 5.29721L11.1776 6.02621V4.85519ZM10.9616 6.54321C11.0886 6.54321 11.2036 6.47222 11.3306 6.40222L12.8286 5.5762C12.9376 5.5062 12.9896 5.47621 13.0456 5.49521L16.1126 6.5242L15.5446 9.8782L15.5296 9.89722L13.1916 12.8082L10.9616 14.4742L8.7086 12.7892L6.3746 9.8782L5.80661 6.5242L8.9106 5.48019L10.4276 6.30521C10.4646 6.32421 10.5056 6.34619 10.5426 6.36819C10.6476 6.43119 10.7556 6.4952 10.8646 6.5282C10.8976 6.5392 10.9276 6.54321 10.9616 6.54321ZM15.6716 10.4212L16.0976 12.1832L13.8826 12.6372L15.6716 10.4212ZM13.0376 13.4442L12.6046 15.6152L11.3016 14.7452L13.0376 13.4442ZM10.5956 14.7232L9.29161 15.5892L8.8586 13.4212L10.5956 14.7232ZM8.05861 12.6372L5.82161 12.1832L6.27361 10.3992L8.05861 12.6372ZM5.4476 6.8002L5.8996 9.48019L4.0956 8.1272L5.4476 6.8002ZM3.78261 7.86722L1.20061 5.20822L5.3586 3.68021V6.29022L3.78261 7.86722ZM5.79561 6.0712V3.72522L8.43961 5.1972L5.79561 6.0712ZM9.45961 5.30121L10.7666 4.85519V6.00021L9.45961 5.30121ZM8.8916 1.31219C9.6316 1.62819 10.2586 2.0002 10.5956 2.2002L10.7666 2.30121V3.9892L8.5556 1.16721L8.8916 1.31219ZM10.6106 4.48019L8.9666 5.0372L5.90761 3.3342L7.95061 1.0592L10.6106 4.48019ZM3.8116 1.1962C4.5476 0.802198 5.3246 0.609222 6.17661 0.609222C6.56461 0.609222 6.96461 0.672213 7.44661 0.806213L7.58861 0.847198L5.55661 3.11121L3.6996 1.2562L3.8116 1.1962ZM1.1076 4.65121C1.4216 3.34921 2.1906 2.22621 3.2776 1.48621L3.3416 1.4462L5.1976 3.29721L1.0706 4.8222L1.1076 4.65121ZM1.3246 8.46921C1.2306 7.95621 1.1336 7.40222 1.0596 6.83722C1.0146 6.46922 0.988602 6.0972 0.988602 5.8222V5.59122L3.3636 8.04919L1.34261 8.56619L1.3246 8.46921ZM2.04561 10.7112C1.80661 10.1272 1.6266 9.58119 1.4926 9.04919L1.4696 8.96021L3.3896 8.48019L2.1236 10.8972L2.04561 10.7112ZM3.8456 8.45419L5.94461 10.0162L5.4296 12.0832L2.40361 11.2352L3.8456 8.45419ZM3.7076 13.7192C3.2476 13.0722 2.87861 12.4732 2.57561 11.8902L2.47861 11.7002L5.1606 12.4472L3.7706 13.8082L3.7076 13.7192ZM5.4666 15.6712C4.9886 15.2172 4.56261 14.7492 4.11861 14.2022L4.0656 14.1352L5.41861 12.8122L5.64261 15.8382L5.4666 15.6712ZM5.81061 12.5922L8.40961 13.1092L8.9176 15.7532L6.06461 16.0872L5.81061 12.5922ZM8.3506 17.8792C7.5916 17.4042 7.0356 17.0092 6.5466 16.6082L6.3786 16.4672L8.9066 16.1882L8.4586 17.9502L8.3506 17.8792ZM10.2476 18.9612C9.8746 18.7752 9.5156 18.5752 9.1716 18.3812L8.8176 18.1842L9.2316 16.5302L10.4976 19.0842L10.2476 18.9612ZM10.9616 19.0622L9.4296 16.0022L10.9616 14.9872L12.4926 16.0022L10.9616 19.0622ZM13.0866 18.1952C12.5416 18.5112 12.0816 18.7532 11.6446 18.9612L11.3986 19.0802L12.7096 16.5152L13.1506 18.1582L13.0866 18.1952ZM15.3506 16.6302C14.8236 17.0612 14.2406 17.4742 13.6166 17.8572L13.5086 17.9242L13.0346 16.1882L15.5186 16.4932L15.3506 16.6302ZM15.8286 16.1132L13.0006 15.7532L13.5346 13.1092L16.1346 12.5922L15.8286 16.1132ZM17.8046 14.1982C17.4306 14.6822 16.9976 15.1542 16.4296 15.6932L16.2536 15.8642L16.5046 12.8152L17.8526 14.1352L17.8046 14.1982ZM19.3436 11.8672C18.9956 12.5402 18.6076 13.1612 18.1886 13.7192L18.1216 13.8042L16.7356 12.4472L19.4436 11.6742L19.3436 11.8672ZM16.4896 12.0832L15.9736 10.0422L18.0736 8.48019L19.4926 11.2612L16.4896 12.0832ZM20.4266 9.04919C20.2886 9.60719 20.0976 10.1902 19.8736 10.7332L19.7986 10.9232L18.5326 8.48019L20.4486 8.96021L20.4266 9.04919ZM20.9346 5.82919C20.9086 6.11519 20.8856 6.45022 20.8596 6.83322V6.83722C20.7886 7.38022 20.7176 7.94121 20.5946 8.47321L20.5756 8.56619L18.5546 8.04919L20.9526 5.56921L20.9346 5.82919Z" fill="black" fill-opacity="0.2"/>
<path d="M21.2966 5.0672C20.9416 2.2902 18.5546 0.200195 15.7466 0.200195C13.6846 0.200195 11.1186 1.8582 11.0096 1.9292L10.9616 1.96222L10.9086 1.9292C10.8006 1.8582 8.23861 0.200195 6.17661 0.200195C3.10261 0.200195 0.599609 2.69919 0.599609 5.77319C0.599609 6.08219 0.625609 6.46922 0.670609 6.88922C0.737609 7.49922 0.849601 8.16022 1.0036 8.86322C1.1716 9.62222 1.44761 10.4322 1.82161 11.2802C2.16461 12.0492 2.5796 12.8012 3.0576 13.5002C3.5396 14.2022 4.0926 14.8792 4.7126 15.5112C5.3286 16.1432 6.02361 16.7492 6.77361 17.3112C7.52861 17.8722 8.36161 18.4042 9.25061 18.8942C9.57161 19.0692 9.90461 19.2442 10.2436 19.4112C10.3036 19.4412 10.3676 19.4742 10.4266 19.5122C10.5576 19.5822 10.6806 19.6492 10.8116 19.6862C10.9876 19.7382 11.1146 19.6752 11.2866 19.5902L11.3646 19.5492C11.8276 19.3292 12.2836 19.0912 12.7166 18.8542C13.5796 18.3742 14.3936 17.8532 15.1256 17.3032C15.8616 16.7572 16.5416 16.1652 17.1506 15.5482C17.7556 14.9312 18.3006 14.2732 18.7786 13.5852C19.2536 12.9012 19.6676 12.1722 20.0116 11.4212C20.3556 10.6702 20.6396 9.87421 20.8526 9.05621C21.0316 8.36121 21.1656 7.62919 21.2486 6.88519C21.2966 6.46919 21.3186 6.08219 21.3186 5.77319C21.3456 5.53519 21.3186 5.2972 21.2966 5.0672ZM18.6186 1.48621C19.7276 2.22621 20.4976 3.34921 20.7886 4.65421L20.8256 4.81821L16.6986 3.29721L18.5546 1.4462L18.6186 1.48621ZM16.4706 6.8262L17.8266 8.1492L16.0186 9.5032L16.4706 6.8262ZM16.1236 6.08621L13.4826 5.1972L16.1236 3.72522V6.08621ZM16.5606 6.29022V3.68021L20.7436 5.20822L18.1366 7.86722L16.5606 6.29022ZM14.4576 0.780212C14.9766 0.665212 15.3876 0.609222 15.7466 0.609222C16.5266 0.609222 17.3116 0.799197 18.0806 1.1702L18.2006 1.2262L16.3396 3.08521L14.3006 0.813202L14.4576 0.780212ZM16.0116 3.3342L12.9556 5.0372L11.3086 4.48019L13.9686 1.0592L16.0116 3.3342ZM11.1776 2.30121L11.3346 2.20822C11.6636 2.01422 12.2756 1.65419 13.0006 1.31219L13.3516 1.14819L11.1776 3.96622V2.30121ZM11.1776 4.85519L12.4776 5.29721L11.1776 6.02621V4.85519ZM10.9616 6.54321C11.0886 6.54321 11.2036 6.47222 11.3306 6.40222L12.8286 5.5762C12.9376 5.5062 12.9896 5.47621 13.0456 5.49521L16.1126 6.5242L15.5446 9.8782L15.5296 9.89722L13.1916 12.8082L10.9616 14.4742L8.7086 12.7892L6.3746 9.8782L5.80661 6.5242L8.9106 5.48019L10.4276 6.30521C10.4646 6.32421 10.5056 6.34619 10.5426 6.36819C10.6476 6.43119 10.7556 6.4952 10.8646 6.5282C10.8976 6.5392 10.9276 6.54321 10.9616 6.54321ZM15.6716 10.4212L16.0976 12.1832L13.8826 12.6372L15.6716 10.4212ZM13.0376 13.4442L12.6046 15.6152L11.3016 14.7452L13.0376 13.4442ZM10.5956 14.7232L9.29161 15.5892L8.8586 13.4212L10.5956 14.7232ZM8.05861 12.6372L5.82161 12.1832L6.27361 10.3992L8.05861 12.6372ZM5.4476 6.8002L5.8996 9.48019L4.0956 8.1272L5.4476 6.8002ZM3.78261 7.86722L1.20061 5.20822L5.3586 3.68021V6.29022L3.78261 7.86722ZM5.79561 6.0712V3.72522L8.43961 5.1972L5.79561 6.0712ZM9.45961 5.30121L10.7666 4.85519V6.00021L9.45961 5.30121ZM8.8916 1.31219C9.6316 1.62819 10.2586 2.0002 10.5956 2.2002L10.7666 2.30121V3.9892L8.5556 1.16721L8.8916 1.31219ZM10.6106 4.48019L8.9666 5.0372L5.90761 3.3342L7.95061 1.0592L10.6106 4.48019ZM3.8116 1.1962C4.5476 0.802198 5.3246 0.609222 6.17661 0.609222C6.56461 0.609222 6.96461 0.672213 7.44661 0.806213L7.58861 0.847198L5.55661 3.11121L3.6996 1.2562L3.8116 1.1962ZM1.1076 4.65121C1.4216 3.34921 2.1906 2.22621 3.2776 1.48621L3.3416 1.4462L5.1976 3.29721L1.0706 4.8222L1.1076 4.65121ZM1.3246 8.46921C1.2306 7.95621 1.1336 7.40222 1.0596 6.83722C1.0146 6.46922 0.988602 6.0972 0.988602 5.8222V5.59122L3.3636 8.04919L1.34261 8.56619L1.3246 8.46921ZM2.04561 10.7112C1.80661 10.1272 1.6266 9.58119 1.4926 9.04919L1.4696 8.96021L3.3896 8.48019L2.1236 10.8972L2.04561 10.7112ZM3.8456 8.45419L5.94461 10.0162L5.4296 12.0832L2.40361 11.2352L3.8456 8.45419ZM3.7076 13.7192C3.2476 13.0722 2.87861 12.4732 2.57561 11.8902L2.47861 11.7002L5.1606 12.4472L3.7706 13.8082L3.7076 13.7192ZM5.4666 15.6712C4.9886 15.2172 4.56261 14.7492 4.11861 14.2022L4.0656 14.1352L5.41861 12.8122L5.64261 15.8382L5.4666 15.6712ZM5.81061 12.5922L8.40961 13.1092L8.9176 15.7532L6.06461 16.0872L5.81061 12.5922ZM8.3506 17.8792C7.5916 17.4042 7.0356 17.0092 6.5466 16.6082L6.3786 16.4672L8.9066 16.1882L8.4586 17.9502L8.3506 17.8792ZM10.2476 18.9612C9.8746 18.7752 9.5156 18.5752 9.1716 18.3812L8.8176 18.1842L9.2316 16.5302L10.4976 19.0842L10.2476 18.9612ZM10.9616 19.0622L9.4296 16.0022L10.9616 14.9872L12.4926 16.0022L10.9616 19.0622ZM13.0866 18.1952C12.5416 18.5112 12.0816 18.7532 11.6446 18.9612L11.3986 19.0802L12.7096 16.5152L13.1506 18.1582L13.0866 18.1952ZM15.3506 16.6302C14.8236 17.0612 14.2406 17.4742 13.6166 17.8572L13.5086 17.9242L13.0346 16.1882L15.5186 16.4932L15.3506 16.6302ZM15.8286 16.1132L13.0006 15.7532L13.5346 13.1092L16.1346 12.5922L15.8286 16.1132ZM17.8046 14.1982C17.4306 14.6822 16.9976 15.1542 16.4296 15.6932L16.2536 15.8642L16.5046 12.8152L17.8526 14.1352L17.8046 14.1982ZM19.3436 11.8672C18.9956 12.5402 18.6076 13.1612 18.1886 13.7192L18.1216 13.8042L16.7356 12.4472L19.4436 11.6742L19.3436 11.8672ZM16.4896 12.0832L15.9736 10.0422L18.0736 8.48019L19.4926 11.2612L16.4896 12.0832ZM20.4266 9.04919C20.2886 9.60719 20.0976 10.1902 19.8736 10.7332L19.7986 10.9232L18.5326 8.48019L20.4486 8.96021L20.4266 9.04919ZM20.9346 5.82919C20.9086 6.11519 20.8856 6.45022 20.8596 6.83322V6.83722C20.7886 7.38022 20.7176 7.94121 20.5946 8.47321L20.5756 8.56619L18.5546 8.04919L20.9526 5.56921L20.9346 5.82919Z" fill="black" fill-opacity="0.2"/>
<path d="M21.2966 5.0672C20.9416 2.2902 18.5546 0.200195 15.7466 0.200195C13.6846 0.200195 11.1186 1.8582 11.0096 1.9292L10.9616 1.96222L10.9086 1.9292C10.8006 1.8582 8.23861 0.200195 6.17661 0.200195C3.10261 0.200195 0.599609 2.69919 0.599609 5.77319C0.599609 6.08219 0.625609 6.46922 0.670609 6.88922C0.737609 7.49922 0.849601 8.16022 1.0036 8.86322C1.1716 9.62222 1.44761 10.4322 1.82161 11.2802C2.16461 12.0492 2.5796 12.8012 3.0576 13.5002C3.5396 14.2022 4.0926 14.8792 4.7126 15.5112C5.3286 16.1432 6.02361 16.7492 6.77361 17.3112C7.52861 17.8722 8.36161 18.4042 9.25061 18.8942C9.57161 19.0692 9.90461 19.2442 10.2436 19.4112C10.3036 19.4412 10.3676 19.4742 10.4266 19.5122C10.5576 19.5822 10.6806 19.6492 10.8116 19.6862C10.9876 19.7382 11.1146 19.6752 11.2866 19.5902L11.3646 19.5492C11.8276 19.3292 12.2836 19.0912 12.7166 18.8542C13.5796 18.3742 14.3936 17.8532 15.1256 17.3032C15.8616 16.7572 16.5416 16.1652 17.1506 15.5482C17.7556 14.9312 18.3006 14.2732 18.7786 13.5852C19.2536 12.9012 19.6676 12.1722 20.0116 11.4212C20.3556 10.6702 20.6396 9.87421 20.8526 9.05621C21.0316 8.36121 21.1656 7.62919 21.2486 6.88519C21.2966 6.46919 21.3186 6.08219 21.3186 5.77319C21.3456 5.53519 21.3186 5.2972 21.2966 5.0672ZM18.6186 1.48621C19.7276 2.22621 20.4976 3.34921 20.7886 4.65421L20.8256 4.81821L16.6986 3.29721L18.5546 1.4462L18.6186 1.48621ZM16.4706 6.8262L17.8266 8.1492L16.0186 9.5032L16.4706 6.8262ZM16.1236 6.08621L13.4826 5.1972L16.1236 3.72522V6.08621ZM16.5606 6.29022V3.68021L20.7436 5.20822L18.1366 7.86722L16.5606 6.29022ZM14.4576 0.780212C14.9766 0.665212 15.3876 0.609222 15.7466 0.609222C16.5266 0.609222 17.3116 0.799197 18.0806 1.1702L18.2006 1.2262L16.3396 3.08521L14.3006 0.813202L14.4576 0.780212ZM16.0116 3.3342L12.9556 5.0372L11.3086 4.48019L13.9686 1.0592L16.0116 3.3342ZM11.1776 2.30121L11.3346 2.20822C11.6636 2.01422 12.2756 1.65419 13.0006 1.31219L13.3516 1.14819L11.1776 3.96622V2.30121ZM11.1776 4.85519L12.4776 5.29721L11.1776 6.02621V4.85519ZM10.9616 6.54321C11.0886 6.54321 11.2036 6.47222 11.3306 6.40222L12.8286 5.5762C12.9376 5.5062 12.9896 5.47621 13.0456 5.49521L16.1126 6.5242L15.5446 9.8782L15.5296 9.89722L13.1916 12.8082L10.9616 14.4742L8.7086 12.7892L6.3746 9.8782L5.80661 6.5242L8.9106 5.48019L10.4276 6.30521C10.4646 6.32421 10.5056 6.34619 10.5426 6.36819C10.6476 6.43119 10.7556 6.4952 10.8646 6.5282C10.8976 6.5392 10.9276 6.54321 10.9616 6.54321ZM15.6716 10.4212L16.0976 12.1832L13.8826 12.6372L15.6716 10.4212ZM13.0376 13.4442L12.6046 15.6152L11.3016 14.7452L13.0376 13.4442ZM10.5956 14.7232L9.29161 15.5892L8.8586 13.4212L10.5956 14.7232ZM8.05861 12.6372L5.82161 12.1832L6.27361 10.3992L8.05861 12.6372ZM5.4476 6.8002L5.8996 9.48019L4.0956 8.1272L5.4476 6.8002ZM3.78261 7.86722L1.20061 5.20822L5.3586 3.68021V6.29022L3.78261 7.86722ZM5.79561 6.0712V3.72522L8.43961 5.1972L5.79561 6.0712ZM9.45961 5.30121L10.7666 4.85519V6.00021L9.45961 5.30121ZM8.8916 1.31219C9.6316 1.62819 10.2586 2.0002 10.5956 2.2002L10.7666 2.30121V3.9892L8.5556 1.16721L8.8916 1.31219ZM10.6106 4.48019L8.9666 5.0372L5.90761 3.3342L7.95061 1.0592L10.6106 4.48019ZM3.8116 1.1962C4.5476 0.802198 5.3246 0.609222 6.17661 0.609222C6.56461 0.609222 6.96461 0.672213 7.44661 0.806213L7.58861 0.847198L5.55661 3.11121L3.6996 1.2562L3.8116 1.1962ZM1.1076 4.65121C1.4216 3.34921 2.1906 2.22621 3.2776 1.48621L3.3416 1.4462L5.1976 3.29721L1.0706 4.8222L1.1076 4.65121ZM1.3246 8.46921C1.2306 7.95621 1.1336 7.40222 1.0596 6.83722C1.0146 6.46922 0.988602 6.0972 0.988602 5.8222V5.59122L3.3636 8.04919L1.34261 8.56619L1.3246 8.46921ZM2.04561 10.7112C1.80661 10.1272 1.6266 9.58119 1.4926 9.04919L1.4696 8.96021L3.3896 8.48019L2.1236 10.8972L2.04561 10.7112ZM3.8456 8.45419L5.94461 10.0162L5.4296 12.0832L2.40361 11.2352L3.8456 8.45419ZM3.7076 13.7192C3.2476 13.0722 2.87861 12.4732 2.57561 11.8902L2.47861 11.7002L5.1606 12.4472L3.7706 13.8082L3.7076 13.7192ZM5.4666 15.6712C4.9886 15.2172 4.56261 14.7492 4.11861 14.2022L4.0656 14.1352L5.41861 12.8122L5.64261 15.8382L5.4666 15.6712ZM5.81061 12.5922L8.40961 13.1092L8.9176 15.7532L6.06461 16.0872L5.81061 12.5922ZM8.3506 17.8792C7.5916 17.4042 7.0356 17.0092 6.5466 16.6082L6.3786 16.4672L8.9066 16.1882L8.4586 17.9502L8.3506 17.8792ZM10.2476 18.9612C9.8746 18.7752 9.5156 18.5752 9.1716 18.3812L8.8176 18.1842L9.2316 16.5302L10.4976 19.0842L10.2476 18.9612ZM10.9616 19.0622L9.4296 16.0022L10.9616 14.9872L12.4926 16.0022L10.9616 19.0622ZM13.0866 18.1952C12.5416 18.5112 12.0816 18.7532 11.6446 18.9612L11.3986 19.0802L12.7096 16.5152L13.1506 18.1582L13.0866 18.1952ZM15.3506 16.6302C14.8236 17.0612 14.2406 17.4742 13.6166 17.8572L13.5086 17.9242L13.0346 16.1882L15.5186 16.4932L15.3506 16.6302ZM15.8286 16.1132L13.0006 15.7532L13.5346 13.1092L16.1346 12.5922L15.8286 16.1132ZM17.8046 14.1982C17.4306 14.6822 16.9976 15.1542 16.4296 15.6932L16.2536 15.8642L16.5046 12.8152L17.8526 14.1352L17.8046 14.1982ZM19.3436 11.8672C18.9956 12.5402 18.6076 13.1612 18.1886 13.7192L18.1216 13.8042L16.7356 12.4472L19.4436 11.6742L19.3436 11.8672ZM16.4896 12.0832L15.9736 10.0422L18.0736 8.48019L19.4926 11.2612L16.4896 12.0832ZM20.4266 9.04919C20.2886 9.60719 20.0976 10.1902 19.8736 10.7332L19.7986 10.9232L18.5326 8.48019L20.4486 8.96021L20.4266 9.04919ZM20.9346 5.82919C20.9086 6.11519 20.8856 6.45022 20.8596 6.83322V6.83722C20.7886 7.38022 20.7176 7.94121 20.5946 8.47321L20.5756 8.56619L18.5546 8.04919L20.9526 5.56921L20.9346 5.82919Z" fill="black" fill-opacity="0.2"/>
<path d="M21.2966 5.0672C20.9416 2.2902 18.5546 0.200195 15.7466 0.200195C13.6846 0.200195 11.1186 1.8582 11.0096 1.9292L10.9616 1.96222L10.9086 1.9292C10.8006 1.8582 8.23861 0.200195 6.17661 0.200195C3.10261 0.200195 0.599609 2.69919 0.599609 5.77319C0.599609 6.08219 0.625609 6.46922 0.670609 6.88922C0.737609 7.49922 0.849601 8.16022 1.0036 8.86322C1.1716 9.62222 1.44761 10.4322 1.82161 11.2802C2.16461 12.0492 2.5796 12.8012 3.0576 13.5002C3.5396 14.2022 4.0926 14.8792 4.7126 15.5112C5.3286 16.1432 6.02361 16.7492 6.77361 17.3112C7.52861 17.8722 8.36161 18.4042 9.25061 18.8942C9.57161 19.0692 9.90461 19.2442 10.2436 19.4112C10.3036 19.4412 10.3676 19.4742 10.4266 19.5122C10.5576 19.5822 10.6806 19.6492 10.8116 19.6862C10.9876 19.7382 11.1146 19.6752 11.2866 19.5902L11.3646 19.5492C11.8276 19.3292 12.2836 19.0912 12.7166 18.8542C13.5796 18.3742 14.3936 17.8532 15.1256 17.3032C15.8616 16.7572 16.5416 16.1652 17.1506 15.5482C17.7556 14.9312 18.3006 14.2732 18.7786 13.5852C19.2536 12.9012 19.6676 12.1722 20.0116 11.4212C20.3556 10.6702 20.6396 9.87421 20.8526 9.05621C21.0316 8.36121 21.1656 7.62919 21.2486 6.88519C21.2966 6.46919 21.3186 6.08219 21.3186 5.77319C21.3456 5.53519 21.3186 5.2972 21.2966 5.0672ZM18.6186 1.48621C19.7276 2.22621 20.4976 3.34921 20.7886 4.65421L20.8256 4.81821L16.6986 3.29721L18.5546 1.4462L18.6186 1.48621ZM16.4706 6.8262L17.8266 8.1492L16.0186 9.5032L16.4706 6.8262ZM16.1236 6.08621L13.4826 5.1972L16.1236 3.72522V6.08621ZM16.5606 6.29022V3.68021L20.7436 5.20822L18.1366 7.86722L16.5606 6.29022ZM14.4576 0.780212C14.9766 0.665212 15.3876 0.609222 15.7466 0.609222C16.5266 0.609222 17.3116 0.799197 18.0806 1.1702L18.2006 1.2262L16.3396 3.08521L14.3006 0.813202L14.4576 0.780212ZM16.0116 3.3342L12.9556 5.0372L11.3086 4.48019L13.9686 1.0592L16.0116 3.3342ZM11.1776 2.30121L11.3346 2.20822C11.6636 2.01422 12.2756 1.65419 13.0006 1.31219L13.3516 1.14819L11.1776 3.96622V2.30121ZM11.1776 4.85519L12.4776 5.29721L11.1776 6.02621V4.85519ZM10.9616 6.54321C11.0886 6.54321 11.2036 6.47222 11.3306 6.40222L12.8286 5.5762C12.9376 5.5062 12.9896 5.47621 13.0456 5.49521L16.1126 6.5242L15.5446 9.8782L15.5296 9.89722L13.1916 12.8082L10.9616 14.4742L8.7086 12.7892L6.3746 9.8782L5.80661 6.5242L8.9106 5.48019L10.4276 6.30521C10.4646 6.32421 10.5056 6.34619 10.5426 6.36819C10.6476 6.43119 10.7556 6.4952 10.8646 6.5282C10.8976 6.5392 10.9276 6.54321 10.9616 6.54321ZM15.6716 10.4212L16.0976 12.1832L13.8826 12.6372L15.6716 10.4212ZM13.0376 13.4442L12.6046 15.6152L11.3016 14.7452L13.0376 13.4442ZM10.5956 14.7232L9.29161 15.5892L8.8586 13.4212L10.5956 14.7232ZM8.05861 12.6372L5.82161 12.1832L6.27361 10.3992L8.05861 12.6372ZM5.4476 6.8002L5.8996 9.48019L4.0956 8.1272L5.4476 6.8002ZM3.78261 7.86722L1.20061 5.20822L5.3586 3.68021V6.29022L3.78261 7.86722ZM5.79561 6.0712V3.72522L8.43961 5.1972L5.79561 6.0712ZM9.45961 5.30121L10.7666 4.85519V6.00021L9.45961 5.30121ZM8.8916 1.31219C9.6316 1.62819 10.2586 2.0002 10.5956 2.2002L10.7666 2.30121V3.9892L8.5556 1.16721L8.8916 1.31219ZM10.6106 4.48019L8.9666 5.0372L5.90761 3.3342L7.95061 1.0592L10.6106 4.48019ZM3.8116 1.1962C4.5476 0.802198 5.3246 0.609222 6.17661 0.609222C6.56461 0.609222 6.96461 0.672213 7.44661 0.806213L7.58861 0.847198L5.55661 3.11121L3.6996 1.2562L3.8116 1.1962ZM1.1076 4.65121C1.4216 3.34921 2.1906 2.22621 3.2776 1.48621L3.3416 1.4462L5.1976 3.29721L1.0706 4.8222L1.1076 4.65121ZM1.3246 8.46921C1.2306 7.95621 1.1336 7.40222 1.0596 6.83722C1.0146 6.46922 0.988602 6.0972 0.988602 5.8222V5.59122L3.3636 8.04919L1.34261 8.56619L1.3246 8.46921ZM2.04561 10.7112C1.80661 10.1272 1.6266 9.58119 1.4926 9.04919L1.4696 8.96021L3.3896 8.48019L2.1236 10.8972L2.04561 10.7112ZM3.8456 8.45419L5.94461 10.0162L5.4296 12.0832L2.40361 11.2352L3.8456 8.45419ZM3.7076 13.7192C3.2476 13.0722 2.87861 12.4732 2.57561 11.8902L2.47861 11.7002L5.1606 12.4472L3.7706 13.8082L3.7076 13.7192ZM5.4666 15.6712C4.9886 15.2172 4.56261 14.7492 4.11861 14.2022L4.0656 14.1352L5.41861 12.8122L5.64261 15.8382L5.4666 15.6712ZM5.81061 12.5922L8.40961 13.1092L8.9176 15.7532L6.06461 16.0872L5.81061 12.5922ZM8.3506 17.8792C7.5916 17.4042 7.0356 17.0092 6.5466 16.6082L6.3786 16.4672L8.9066 16.1882L8.4586 17.9502L8.3506 17.8792ZM10.2476 18.9612C9.8746 18.7752 9.5156 18.5752 9.1716 18.3812L8.8176 18.1842L9.2316 16.5302L10.4976 19.0842L10.2476 18.9612ZM10.9616 19.0622L9.4296 16.0022L10.9616 14.9872L12.4926 16.0022L10.9616 19.0622ZM13.0866 18.1952C12.5416 18.5112 12.0816 18.7532 11.6446 18.9612L11.3986 19.0802L12.7096 16.5152L13.1506 18.1582L13.0866 18.1952ZM15.3506 16.6302C14.8236 17.0612 14.2406 17.4742 13.6166 17.8572L13.5086 17.9242L13.0346 16.1882L15.5186 16.4932L15.3506 16.6302ZM15.8286 16.1132L13.0006 15.7532L13.5346 13.1092L16.1346 12.5922L15.8286 16.1132ZM17.8046 14.1982C17.4306 14.6822 16.9976 15.1542 16.4296 15.6932L16.2536 15.8642L16.5046 12.8152L17.8526 14.1352L17.8046 14.1982ZM19.3436 11.8672C18.9956 12.5402 18.6076 13.1612 18.1886 13.7192L18.1216 13.8042L16.7356 12.4472L19.4436 11.6742L19.3436 11.8672ZM16.4896 12.0832L15.9736 10.0422L18.0736 8.48019L19.4926 11.2612L16.4896 12.0832ZM20.4266 9.04919C20.2886 9.60719 20.0976 10.1902 19.8736 10.7332L19.7986 10.9232L18.5326 8.48019L20.4486 8.96021L20.4266 9.04919ZM20.9346 5.82919C20.9086 6.11519 20.8856 6.45022 20.8596 6.83322V6.83722C20.7886 7.38022 20.7176 7.94121 20.5946 8.47321L20.5756 8.56619L18.5546 8.04919L20.9526 5.56921L20.9346 5.82919Z" fill="black" fill-opacity="0.2"/>
<path d="M21.2966 5.0672C20.9416 2.2902 18.5546 0.200195 15.7466 0.200195C13.6846 0.200195 11.1186 1.8582 11.0096 1.9292L10.9616 1.96222L10.9086 1.9292C10.8006 1.8582 8.23861 0.200195 6.17661 0.200195C3.10261 0.200195 0.599609 2.69919 0.599609 5.77319C0.599609 6.08219 0.625609 6.46922 0.670609 6.88922C0.737609 7.49922 0.849601 8.16022 1.0036 8.86322C1.1716 9.62222 1.44761 10.4322 1.82161 11.2802C2.16461 12.0492 2.5796 12.8012 3.0576 13.5002C3.5396 14.2022 4.0926 14.8792 4.7126 15.5112C5.3286 16.1432 6.02361 16.7492 6.77361 17.3112C7.52861 17.8722 8.36161 18.4042 9.25061 18.8942C9.57161 19.0692 9.90461 19.2442 10.2436 19.4112C10.3036 19.4412 10.3676 19.4742 10.4266 19.5122C10.5576 19.5822 10.6806 19.6492 10.8116 19.6862C10.9876 19.7382 11.1146 19.6752 11.2866 19.5902L11.3646 19.5492C11.8276 19.3292 12.2836 19.0912 12.7166 18.8542C13.5796 18.3742 14.3936 17.8532 15.1256 17.3032C15.8616 16.7572 16.5416 16.1652 17.1506 15.5482C17.7556 14.9312 18.3006 14.2732 18.7786 13.5852C19.2536 12.9012 19.6676 12.1722 20.0116 11.4212C20.3556 10.6702 20.6396 9.87421 20.8526 9.05621C21.0316 8.36121 21.1656 7.62919 21.2486 6.88519C21.2966 6.46919 21.3186 6.08219 21.3186 5.77319C21.3456 5.53519 21.3186 5.2972 21.2966 5.0672ZM18.6186 1.48621C19.7276 2.22621 20.4976 3.34921 20.7886 4.65421L20.8256 4.81821L16.6986 3.29721L18.5546 1.4462L18.6186 1.48621ZM16.4706 6.8262L17.8266 8.1492L16.0186 9.5032L16.4706 6.8262ZM16.1236 6.08621L13.4826 5.1972L16.1236 3.72522V6.08621ZM16.5606 6.29022V3.68021L20.7436 5.20822L18.1366 7.86722L16.5606 6.29022ZM14.4576 0.780212C14.9766 0.665212 15.3876 0.609222 15.7466 0.609222C16.5266 0.609222 17.3116 0.799197 18.0806 1.1702L18.2006 1.2262L16.3396 3.08521L14.3006 0.813202L14.4576 0.780212ZM16.0116 3.3342L12.9556 5.0372L11.3086 4.48019L13.9686 1.0592L16.0116 3.3342ZM11.1776 2.30121L11.3346 2.20822C11.6636 2.01422 12.2756 1.65419 13.0006 1.31219L13.3516 1.14819L11.1776 3.96622V2.30121ZM11.1776 4.85519L12.4776 5.29721L11.1776 6.02621V4.85519ZM10.9616 6.54321C11.0886 6.54321 11.2036 6.47222 11.3306 6.40222L12.8286 5.5762C12.9376 5.5062 12.9896 5.47621 13.0456 5.49521L16.1126 6.5242L15.5446 9.8782L15.5296 9.89722L13.1916 12.8082L10.9616 14.4742L8.7086 12.7892L6.3746 9.8782L5.80661 6.5242L8.9106 5.48019L10.4276 6.30521C10.4646 6.32421 10.5056 6.34619 10.5426 6.36819C10.6476 6.43119 10.7556 6.4952 10.8646 6.5282C10.8976 6.5392 10.9276 6.54321 10.9616 6.54321ZM15.6716 10.4212L16.0976 12.1832L13.8826 12.6372L15.6716 10.4212ZM13.0376 13.4442L12.6046 15.6152L11.3016 14.7452L13.0376 13.4442ZM10.5956 14.7232L9.29161 15.5892L8.8586 13.4212L10.5956 14.7232ZM8.05861 12.6372L5.82161 12.1832L6.27361 10.3992L8.05861 12.6372ZM5.4476 6.8002L5.8996 9.48019L4.0956 8.1272L5.4476 6.8002ZM3.78261 7.86722L1.20061 5.20822L5.3586 3.68021V6.29022L3.78261 7.86722ZM5.79561 6.0712V3.72522L8.43961 5.1972L5.79561 6.0712ZM9.45961 5.30121L10.7666 4.85519V6.00021L9.45961 5.30121ZM8.8916 1.31219C9.6316 1.62819 10.2586 2.0002 10.5956 2.2002L10.7666 2.30121V3.9892L8.5556 1.16721L8.8916 1.31219ZM10.6106 4.48019L8.9666 5.0372L5.90761 3.3342L7.95061 1.0592L10.6106 4.48019ZM3.8116 1.1962C4.5476 0.802198 5.3246 0.609222 6.17661 0.609222C6.56461 0.609222 6.96461 0.672213 7.44661 0.806213L7.58861 0.847198L5.55661 3.11121L3.6996 1.2562L3.8116 1.1962ZM1.1076 4.65121C1.4216 3.34921 2.1906 2.22621 3.2776 1.48621L3.3416 1.4462L5.1976 3.29721L1.0706 4.8222L1.1076 4.65121ZM1.3246 8.46921C1.2306 7.95621 1.1336 7.40222 1.0596 6.83722C1.0146 6.46922 0.988602 6.0972 0.988602 5.8222V5.59122L3.3636 8.04919L1.34261 8.56619L1.3246 8.46921ZM2.04561 10.7112C1.80661 10.1272 1.6266 9.58119 1.4926 9.04919L1.4696 8.96021L3.3896 8.48019L2.1236 10.8972L2.04561 10.7112ZM3.8456 8.45419L5.94461 10.0162L5.4296 12.0832L2.40361 11.2352L3.8456 8.45419ZM3.7076 13.7192C3.2476 13.0722 2.87861 12.4732 2.57561 11.8902L2.47861 11.7002L5.1606 12.4472L3.7706 13.8082L3.7076 13.7192ZM5.4666 15.6712C4.9886 15.2172 4.56261 14.7492 4.11861 14.2022L4.0656 14.1352L5.41861 12.8122L5.64261 15.8382L5.4666 15.6712ZM5.81061 12.5922L8.40961 13.1092L8.9176 15.7532L6.06461 16.0872L5.81061 12.5922ZM8.3506 17.8792C7.5916 17.4042 7.0356 17.0092 6.5466 16.6082L6.3786 16.4672L8.9066 16.1882L8.4586 17.9502L8.3506 17.8792ZM10.2476 18.9612C9.8746 18.7752 9.5156 18.5752 9.1716 18.3812L8.8176 18.1842L9.2316 16.5302L10.4976 19.0842L10.2476 18.9612ZM10.9616 19.0622L9.4296 16.0022L10.9616 14.9872L12.4926 16.0022L10.9616 19.0622ZM13.0866 18.1952C12.5416 18.5112 12.0816 18.7532 11.6446 18.9612L11.3986 19.0802L12.7096 16.5152L13.1506 18.1582L13.0866 18.1952ZM15.3506 16.6302C14.8236 17.0612 14.2406 17.4742 13.6166 17.8572L13.5086 17.9242L13.0346 16.1882L15.5186 16.4932L15.3506 16.6302ZM15.8286 16.1132L13.0006 15.7532L13.5346 13.1092L16.1346 12.5922L15.8286 16.1132ZM17.8046 14.1982C17.4306 14.6822 16.9976 15.1542 16.4296 15.6932L16.2536 15.8642L16.5046 12.8152L17.8526 14.1352L17.8046 14.1982ZM19.3436 11.8672C18.9956 12.5402 18.6076 13.1612 18.1886 13.7192L18.1216 13.8042L16.7356 12.4472L19.4436 11.6742L19.3436 11.8672ZM16.4896 12.0832L15.9736 10.0422L18.0736 8.48019L19.4926 11.2612L16.4896 12.0832ZM20.4266 9.04919C20.2886 9.60719 20.0976 10.1902 19.8736 10.7332L19.7986 10.9232L18.5326 8.48019L20.4486 8.96021L20.4266 9.04919ZM20.9346 5.82919C20.9086 6.11519 20.8856 6.45022 20.8596 6.83322V6.83722C20.7886 7.38022 20.7176 7.94121 20.5946 8.47321L20.5756 8.56619L18.5546 8.04919L20.9526 5.56921L20.9346 5.82919Z" fill="black" fill-opacity="0.2"/>
<path d="M21.2966 5.0672C20.9416 2.2902 18.5546 0.200195 15.7466 0.200195C13.6846 0.200195 11.1186 1.8582 11.0096 1.9292L10.9616 1.96222L10.9086 1.9292C10.8006 1.8582 8.23861 0.200195 6.17661 0.200195C3.10261 0.200195 0.599609 2.69919 0.599609 5.77319C0.599609 6.08219 0.625609 6.46922 0.670609 6.88922C0.737609 7.49922 0.849601 8.16022 1.0036 8.86322C1.1716 9.62222 1.44761 10.4322 1.82161 11.2802C2.16461 12.0492 2.5796 12.8012 3.0576 13.5002C3.5396 14.2022 4.0926 14.8792 4.7126 15.5112C5.3286 16.1432 6.02361 16.7492 6.77361 17.3112C7.52861 17.8722 8.36161 18.4042 9.25061 18.8942C9.57161 19.0692 9.90461 19.2442 10.2436 19.4112C10.3036 19.4412 10.3676 19.4742 10.4266 19.5122C10.5576 19.5822 10.6806 19.6492 10.8116 19.6862C10.9876 19.7382 11.1146 19.6752 11.2866 19.5902L11.3646 19.5492C11.8276 19.3292 12.2836 19.0912 12.7166 18.8542C13.5796 18.3742 14.3936 17.8532 15.1256 17.3032C15.8616 16.7572 16.5416 16.1652 17.1506 15.5482C17.7556 14.9312 18.3006 14.2732 18.7786 13.5852C19.2536 12.9012 19.6676 12.1722 20.0116 11.4212C20.3556 10.6702 20.6396 9.87421 20.8526 9.05621C21.0316 8.36121 21.1656 7.62919 21.2486 6.88519C21.2966 6.46919 21.3186 6.08219 21.3186 5.77319C21.3456 5.53519 21.3186 5.2972 21.2966 5.0672ZM18.6186 1.48621C19.7276 2.22621 20.4976 3.34921 20.7886 4.65421L20.8256 4.81821L16.6986 3.29721L18.5546 1.4462L18.6186 1.48621ZM16.4706 6.8262L17.8266 8.1492L16.0186 9.5032L16.4706 6.8262ZM16.1236 6.08621L13.4826 5.1972L16.1236 3.72522V6.08621ZM16.5606 6.29022V3.68021L20.7436 5.20822L18.1366 7.86722L16.5606 6.29022ZM14.4576 0.780212C14.9766 0.665212 15.3876 0.609222 15.7466 0.609222C16.5266 0.609222 17.3116 0.799197 18.0806 1.1702L18.2006 1.2262L16.3396 3.08521L14.3006 0.813202L14.4576 0.780212ZM16.0116 3.3342L12.9556 5.0372L11.3086 4.48019L13.9686 1.0592L16.0116 3.3342ZM11.1776 2.30121L11.3346 2.20822C11.6636 2.01422 12.2756 1.65419 13.0006 1.31219L13.3516 1.14819L11.1776 3.96622V2.30121ZM11.1776 4.85519L12.4776 5.29721L11.1776 6.02621V4.85519ZM10.9616 6.54321C11.0886 6.54321 11.2036 6.47222 11.3306 6.40222L12.8286 5.5762C12.9376 5.5062 12.9896 5.47621 13.0456 5.49521L16.1126 6.5242L15.5446 9.8782L15.5296 9.89722L13.1916 12.8082L10.9616 14.4742L8.7086 12.7892L6.3746 9.8782L5.80661 6.5242L8.9106 5.48019L10.4276 6.30521C10.4646 6.32421 10.5056 6.34619 10.5426 6.36819C10.6476 6.43119 10.7556 6.4952 10.8646 6.5282C10.8976 6.5392 10.9276 6.54321 10.9616 6.54321ZM15.6716 10.4212L16.0976 12.1832L13.8826 12.6372L15.6716 10.4212ZM13.0376 13.4442L12.6046 15.6152L11.3016 14.7452L13.0376 13.4442ZM10.5956 14.7232L9.29161 15.5892L8.8586 13.4212L10.5956 14.7232ZM8.05861 12.6372L5.82161 12.1832L6.27361 10.3992L8.05861 12.6372ZM5.4476 6.8002L5.8996 9.48019L4.0956 8.1272L5.4476 6.8002ZM3.78261 7.86722L1.20061 5.20822L5.3586 3.68021V6.29022L3.78261 7.86722ZM5.79561 6.0712V3.72522L8.43961 5.1972L5.79561 6.0712ZM9.45961 5.30121L10.7666 4.85519V6.00021L9.45961 5.30121ZM8.8916 1.31219C9.6316 1.62819 10.2586 2.0002 10.5956 2.2002L10.7666 2.30121V3.9892L8.5556 1.16721L8.8916 1.31219ZM10.6106 4.48019L8.9666 5.0372L5.90761 3.3342L7.95061 1.0592L10.6106 4.48019ZM3.8116 1.1962C4.5476 0.802198 5.3246 0.609222 6.17661 0.609222C6.56461 0.609222 6.96461 0.672213 7.44661 0.806213L7.58861 0.847198L5.55661 3.11121L3.6996 1.2562L3.8116 1.1962ZM1.1076 4.65121C1.4216 3.34921 2.1906 2.22621 3.2776 1.48621L3.3416 1.4462L5.1976 3.29721L1.0706 4.8222L1.1076 4.65121ZM1.3246 8.46921C1.2306 7.95621 1.1336 7.40222 1.0596 6.83722C1.0146 6.46922 0.988602 6.0972 0.988602 5.8222V5.59122L3.3636 8.04919L1.34261 8.56619L1.3246 8.46921ZM2.04561 10.7112C1.80661 10.1272 1.6266 9.58119 1.4926 9.04919L1.4696 8.96021L3.3896 8.48019L2.1236 10.8972L2.04561 10.7112ZM3.8456 8.45419L5.94461 10.0162L5.4296 12.0832L2.40361 11.2352L3.8456 8.45419ZM3.7076 13.7192C3.2476 13.0722 2.87861 12.4732 2.57561 11.8902L2.47861 11.7002L5.1606 12.4472L3.7706 13.8082L3.7076 13.7192ZM5.4666 15.6712C4.9886 15.2172 4.56261 14.7492 4.11861 14.2022L4.0656 14.1352L5.41861 12.8122L5.64261 15.8382L5.4666 15.6712ZM5.81061 12.5922L8.40961 13.1092L8.9176 15.7532L6.06461 16.0872L5.81061 12.5922ZM8.3506 17.8792C7.5916 17.4042 7.0356 17.0092 6.5466 16.6082L6.3786 16.4672L8.9066 16.1882L8.4586 17.9502L8.3506 17.8792ZM10.2476 18.9612C9.8746 18.7752 9.5156 18.5752 9.1716 18.3812L8.8176 18.1842L9.2316 16.5302L10.4976 19.0842L10.2476 18.9612ZM10.9616 19.0622L9.4296 16.0022L10.9616 14.9872L12.4926 16.0022L10.9616 19.0622ZM13.0866 18.1952C12.5416 18.5112 12.0816 18.7532 11.6446 18.9612L11.3986 19.0802L12.7096 16.5152L13.1506 18.1582L13.0866 18.1952ZM15.3506 16.6302C14.8236 17.0612 14.2406 17.4742 13.6166 17.8572L13.5086 17.9242L13.0346 16.1882L15.5186 16.4932L15.3506 16.6302ZM15.8286 16.1132L13.0006 15.7532L13.5346 13.1092L16.1346 12.5922L15.8286 16.1132ZM17.8046 14.1982C17.4306 14.6822 16.9976 15.1542 16.4296 15.6932L16.2536 15.8642L16.5046 12.8152L17.8526 14.1352L17.8046 14.1982ZM19.3436 11.8672C18.9956 12.5402 18.6076 13.1612 18.1886 13.7192L18.1216 13.8042L16.7356 12.4472L19.4436 11.6742L19.3436 11.8672ZM16.4896 12.0832L15.9736 10.0422L18.0736 8.48019L19.4926 11.2612L16.4896 12.0832ZM20.4266 9.04919C20.2886 9.60719 20.0976 10.1902 19.8736 10.7332L19.7986 10.9232L18.5326 8.48019L20.4486 8.96021L20.4266 9.04919ZM20.9346 5.82919C20.9086 6.11519 20.8856 6.45022 20.8596 6.83322V6.83722C20.7886 7.38022 20.7176 7.94121 20.5946 8.47321L20.5756 8.56619L18.5546 8.04919L20.9526 5.56921L20.9346 5.82919Z" stroke="#333335" stroke-width="0.25"/>
<path d="M21.2966 5.0672C20.9416 2.2902 18.5546 0.200195 15.7466 0.200195C13.6846 0.200195 11.1186 1.8582 11.0096 1.9292L10.9616 1.96222L10.9086 1.9292C10.8006 1.8582 8.23861 0.200195 6.17661 0.200195C3.10261 0.200195 0.599609 2.69919 0.599609 5.77319C0.599609 6.08219 0.625609 6.46922 0.670609 6.88922C0.737609 7.49922 0.849601 8.16022 1.0036 8.86322C1.1716 9.62222 1.44761 10.4322 1.82161 11.2802C2.16461 12.0492 2.5796 12.8012 3.0576 13.5002C3.5396 14.2022 4.0926 14.8792 4.7126 15.5112C5.3286 16.1432 6.02361 16.7492 6.77361 17.3112C7.52861 17.8722 8.36161 18.4042 9.25061 18.8942C9.57161 19.0692 9.90461 19.2442 10.2436 19.4112C10.3036 19.4412 10.3676 19.4742 10.4266 19.5122C10.5576 19.5822 10.6806 19.6492 10.8116 19.6862C10.9876 19.7382 11.1146 19.6752 11.2866 19.5902L11.3646 19.5492C11.8276 19.3292 12.2836 19.0912 12.7166 18.8542C13.5796 18.3742 14.3936 17.8532 15.1256 17.3032C15.8616 16.7572 16.5416 16.1652 17.1506 15.5482C17.7556 14.9312 18.3006 14.2732 18.7786 13.5852C19.2536 12.9012 19.6676 12.1722 20.0116 11.4212C20.3556 10.6702 20.6396 9.87421 20.8526 9.05621C21.0316 8.36121 21.1656 7.62919 21.2486 6.88519C21.2966 6.46919 21.3186 6.08219 21.3186 5.77319C21.3456 5.53519 21.3186 5.2972 21.2966 5.0672ZM18.6186 1.48621C19.7276 2.22621 20.4976 3.34921 20.7886 4.65421L20.8256 4.81821L16.6986 3.29721L18.5546 1.4462L18.6186 1.48621ZM16.4706 6.8262L17.8266 8.1492L16.0186 9.5032L16.4706 6.8262ZM16.1236 6.08621L13.4826 5.1972L16.1236 3.72522V6.08621ZM16.5606 6.29022V3.68021L20.7436 5.20822L18.1366 7.86722L16.5606 6.29022ZM14.4576 0.780212C14.9766 0.665212 15.3876 0.609222 15.7466 0.609222C16.5266 0.609222 17.3116 0.799197 18.0806 1.1702L18.2006 1.2262L16.3396 3.08521L14.3006 0.813202L14.4576 0.780212ZM16.0116 3.3342L12.9556 5.0372L11.3086 4.48019L13.9686 1.0592L16.0116 3.3342ZM11.1776 2.30121L11.3346 2.20822C11.6636 2.01422 12.2756 1.65419 13.0006 1.31219L13.3516 1.14819L11.1776 3.96622V2.30121ZM11.1776 4.85519L12.4776 5.29721L11.1776 6.02621V4.85519ZM10.9616 6.54321C11.0886 6.54321 11.2036 6.47222 11.3306 6.40222L12.8286 5.5762C12.9376 5.5062 12.9896 5.47621 13.0456 5.49521L16.1126 6.5242L15.5446 9.8782L15.5296 9.89722L13.1916 12.8082L10.9616 14.4742L8.7086 12.7892L6.3746 9.8782L5.80661 6.5242L8.9106 5.48019L10.4276 6.30521C10.4646 6.32421 10.5056 6.34619 10.5426 6.36819C10.6476 6.43119 10.7556 6.4952 10.8646 6.5282C10.8976 6.5392 10.9276 6.54321 10.9616 6.54321ZM15.6716 10.4212L16.0976 12.1832L13.8826 12.6372L15.6716 10.4212ZM13.0376 13.4442L12.6046 15.6152L11.3016 14.7452L13.0376 13.4442ZM10.5956 14.7232L9.29161 15.5892L8.8586 13.4212L10.5956 14.7232ZM8.05861 12.6372L5.82161 12.1832L6.27361 10.3992L8.05861 12.6372ZM5.4476 6.8002L5.8996 9.48019L4.0956 8.1272L5.4476 6.8002ZM3.78261 7.86722L1.20061 5.20822L5.3586 3.68021V6.29022L3.78261 7.86722ZM5.79561 6.0712V3.72522L8.43961 5.1972L5.79561 6.0712ZM9.45961 5.30121L10.7666 4.85519V6.00021L9.45961 5.30121ZM8.8916 1.31219C9.6316 1.62819 10.2586 2.0002 10.5956 2.2002L10.7666 2.30121V3.9892L8.5556 1.16721L8.8916 1.31219ZM10.6106 4.48019L8.9666 5.0372L5.90761 3.3342L7.95061 1.0592L10.6106 4.48019ZM3.8116 1.1962C4.5476 0.802198 5.3246 0.609222 6.17661 0.609222C6.56461 0.609222 6.96461 0.672213 7.44661 0.806213L7.58861 0.847198L5.55661 3.11121L3.6996 1.2562L3.8116 1.1962ZM1.1076 4.65121C1.4216 3.34921 2.1906 2.22621 3.2776 1.48621L3.3416 1.4462L5.1976 3.29721L1.0706 4.8222L1.1076 4.65121ZM1.3246 8.46921C1.2306 7.95621 1.1336 7.40222 1.0596 6.83722C1.0146 6.46922 0.988602 6.0972 0.988602 5.8222V5.59122L3.3636 8.04919L1.34261 8.56619L1.3246 8.46921ZM2.04561 10.7112C1.80661 10.1272 1.6266 9.58119 1.4926 9.04919L1.4696 8.96021L3.3896 8.48019L2.1236 10.8972L2.04561 10.7112ZM3.8456 8.45419L5.94461 10.0162L5.4296 12.0832L2.40361 11.2352L3.8456 8.45419ZM3.7076 13.7192C3.2476 13.0722 2.87861 12.4732 2.57561 11.8902L2.47861 11.7002L5.1606 12.4472L3.7706 13.8082L3.7076 13.7192ZM5.4666 15.6712C4.9886 15.2172 4.56261 14.7492 4.11861 14.2022L4.0656 14.1352L5.41861 12.8122L5.64261 15.8382L5.4666 15.6712ZM5.81061 12.5922L8.40961 13.1092L8.9176 15.7532L6.06461 16.0872L5.81061 12.5922ZM8.3506 17.8792C7.5916 17.4042 7.0356 17.0092 6.5466 16.6082L6.3786 16.4672L8.9066 16.1882L8.4586 17.9502L8.3506 17.8792ZM10.2476 18.9612C9.8746 18.7752 9.5156 18.5752 9.1716 18.3812L8.8176 18.1842L9.2316 16.5302L10.4976 19.0842L10.2476 18.9612ZM10.9616 19.0622L9.4296 16.0022L10.9616 14.9872L12.4926 16.0022L10.9616 19.0622ZM13.0866 18.1952C12.5416 18.5112 12.0816 18.7532 11.6446 18.9612L11.3986 19.0802L12.7096 16.5152L13.1506 18.1582L13.0866 18.1952ZM15.3506 16.6302C14.8236 17.0612 14.2406 17.4742 13.6166 17.8572L13.5086 17.9242L13.0346 16.1882L15.5186 16.4932L15.3506 16.6302ZM15.8286 16.1132L13.0006 15.7532L13.5346 13.1092L16.1346 12.5922L15.8286 16.1132ZM17.8046 14.1982C17.4306 14.6822 16.9976 15.1542 16.4296 15.6932L16.2536 15.8642L16.5046 12.8152L17.8526 14.1352L17.8046 14.1982ZM19.3436 11.8672C18.9956 12.5402 18.6076 13.1612 18.1886 13.7192L18.1216 13.8042L16.7356 12.4472L19.4436 11.6742L19.3436 11.8672ZM16.4896 12.0832L15.9736 10.0422L18.0736 8.48019L19.4926 11.2612L16.4896 12.0832ZM20.4266 9.04919C20.2886 9.60719 20.0976 10.1902 19.8736 10.7332L19.7986 10.9232L18.5326 8.48019L20.4486 8.96021L20.4266 9.04919ZM20.9346 5.82919C20.9086 6.11519 20.8856 6.45022 20.8596 6.83322V6.83722C20.7886 7.38022 20.7176 7.94121 20.5946 8.47321L20.5756 8.56619L18.5546 8.04919L20.9526 5.56921L20.9346 5.82919Z" stroke="black" stroke-opacity="0.2" stroke-width="0.25"/>
<path d="M21.2966 5.0672C20.9416 2.2902 18.5546 0.200195 15.7466 0.200195C13.6846 0.200195 11.1186 1.8582 11.0096 1.9292L10.9616 1.96222L10.9086 1.9292C10.8006 1.8582 8.23861 0.200195 6.17661 0.200195C3.10261 0.200195 0.599609 2.69919 0.599609 5.77319C0.599609 6.08219 0.625609 6.46922 0.670609 6.88922C0.737609 7.49922 0.849601 8.16022 1.0036 8.86322C1.1716 9.62222 1.44761 10.4322 1.82161 11.2802C2.16461 12.0492 2.5796 12.8012 3.0576 13.5002C3.5396 14.2022 4.0926 14.8792 4.7126 15.5112C5.3286 16.1432 6.02361 16.7492 6.77361 17.3112C7.52861 17.8722 8.36161 18.4042 9.25061 18.8942C9.57161 19.0692 9.90461 19.2442 10.2436 19.4112C10.3036 19.4412 10.3676 19.4742 10.4266 19.5122C10.5576 19.5822 10.6806 19.6492 10.8116 19.6862C10.9876 19.7382 11.1146 19.6752 11.2866 19.5902L11.3646 19.5492C11.8276 19.3292 12.2836 19.0912 12.7166 18.8542C13.5796 18.3742 14.3936 17.8532 15.1256 17.3032C15.8616 16.7572 16.5416 16.1652 17.1506 15.5482C17.7556 14.9312 18.3006 14.2732 18.7786 13.5852C19.2536 12.9012 19.6676 12.1722 20.0116 11.4212C20.3556 10.6702 20.6396 9.87421 20.8526 9.05621C21.0316 8.36121 21.1656 7.62919 21.2486 6.88519C21.2966 6.46919 21.3186 6.08219 21.3186 5.77319C21.3456 5.53519 21.3186 5.2972 21.2966 5.0672ZM18.6186 1.48621C19.7276 2.22621 20.4976 3.34921 20.7886 4.65421L20.8256 4.81821L16.6986 3.29721L18.5546 1.4462L18.6186 1.48621ZM16.4706 6.8262L17.8266 8.1492L16.0186 9.5032L16.4706 6.8262ZM16.1236 6.08621L13.4826 5.1972L16.1236 3.72522V6.08621ZM16.5606 6.29022V3.68021L20.7436 5.20822L18.1366 7.86722L16.5606 6.29022ZM14.4576 0.780212C14.9766 0.665212 15.3876 0.609222 15.7466 0.609222C16.5266 0.609222 17.3116 0.799197 18.0806 1.1702L18.2006 1.2262L16.3396 3.08521L14.3006 0.813202L14.4576 0.780212ZM16.0116 3.3342L12.9556 5.0372L11.3086 4.48019L13.9686 1.0592L16.0116 3.3342ZM11.1776 2.30121L11.3346 2.20822C11.6636 2.01422 12.2756 1.65419 13.0006 1.31219L13.3516 1.14819L11.1776 3.96622V2.30121ZM11.1776 4.85519L12.4776 5.29721L11.1776 6.02621V4.85519ZM10.9616 6.54321C11.0886 6.54321 11.2036 6.47222 11.3306 6.40222L12.8286 5.5762C12.9376 5.5062 12.9896 5.47621 13.0456 5.49521L16.1126 6.5242L15.5446 9.8782L15.5296 9.89722L13.1916 12.8082L10.9616 14.4742L8.7086 12.7892L6.3746 9.8782L5.80661 6.5242L8.9106 5.48019L10.4276 6.30521C10.4646 6.32421 10.5056 6.34619 10.5426 6.36819C10.6476 6.43119 10.7556 6.4952 10.8646 6.5282C10.8976 6.5392 10.9276 6.54321 10.9616 6.54321ZM15.6716 10.4212L16.0976 12.1832L13.8826 12.6372L15.6716 10.4212ZM13.0376 13.4442L12.6046 15.6152L11.3016 14.7452L13.0376 13.4442ZM10.5956 14.7232L9.29161 15.5892L8.8586 13.4212L10.5956 14.7232ZM8.05861 12.6372L5.82161 12.1832L6.27361 10.3992L8.05861 12.6372ZM5.4476 6.8002L5.8996 9.48019L4.0956 8.1272L5.4476 6.8002ZM3.78261 7.86722L1.20061 5.20822L5.3586 3.68021V6.29022L3.78261 7.86722ZM5.79561 6.0712V3.72522L8.43961 5.1972L5.79561 6.0712ZM9.45961 5.30121L10.7666 4.85519V6.00021L9.45961 5.30121ZM8.8916 1.31219C9.6316 1.62819 10.2586 2.0002 10.5956 2.2002L10.7666 2.30121V3.9892L8.5556 1.16721L8.8916 1.31219ZM10.6106 4.48019L8.9666 5.0372L5.90761 3.3342L7.95061 1.0592L10.6106 4.48019ZM3.8116 1.1962C4.5476 0.802198 5.3246 0.609222 6.17661 0.609222C6.56461 0.609222 6.96461 0.672213 7.44661 0.806213L7.58861 0.847198L5.55661 3.11121L3.6996 1.2562L3.8116 1.1962ZM1.1076 4.65121C1.4216 3.34921 2.1906 2.22621 3.2776 1.48621L3.3416 1.4462L5.1976 3.29721L1.0706 4.8222L1.1076 4.65121ZM1.3246 8.46921C1.2306 7.95621 1.1336 7.40222 1.0596 6.83722C1.0146 6.46922 0.988602 6.0972 0.988602 5.8222V5.59122L3.3636 8.04919L1.34261 8.56619L1.3246 8.46921ZM2.04561 10.7112C1.80661 10.1272 1.6266 9.58119 1.4926 9.04919L1.4696 8.96021L3.3896 8.48019L2.1236 10.8972L2.04561 10.7112ZM3.8456 8.45419L5.94461 10.0162L5.4296 12.0832L2.40361 11.2352L3.8456 8.45419ZM3.7076 13.7192C3.2476 13.0722 2.87861 12.4732 2.57561 11.8902L2.47861 11.7002L5.1606 12.4472L3.7706 13.8082L3.7076 13.7192ZM5.4666 15.6712C4.9886 15.2172 4.56261 14.7492 4.11861 14.2022L4.0656 14.1352L5.41861 12.8122L5.64261 15.8382L5.4666 15.6712ZM5.81061 12.5922L8.40961 13.1092L8.9176 15.7532L6.06461 16.0872L5.81061 12.5922ZM8.3506 17.8792C7.5916 17.4042 7.0356 17.0092 6.5466 16.6082L6.3786 16.4672L8.9066 16.1882L8.4586 17.9502L8.3506 17.8792ZM10.2476 18.9612C9.8746 18.7752 9.5156 18.5752 9.1716 18.3812L8.8176 18.1842L9.2316 16.5302L10.4976 19.0842L10.2476 18.9612ZM10.9616 19.0622L9.4296 16.0022L10.9616 14.9872L12.4926 16.0022L10.9616 19.0622ZM13.0866 18.1952C12.5416 18.5112 12.0816 18.7532 11.6446 18.9612L11.3986 19.0802L12.7096 16.5152L13.1506 18.1582L13.0866 18.1952ZM15.3506 16.6302C14.8236 17.0612 14.2406 17.4742 13.6166 17.8572L13.5086 17.9242L13.0346 16.1882L15.5186 16.4932L15.3506 16.6302ZM15.8286 16.1132L13.0006 15.7532L13.5346 13.1092L16.1346 12.5922L15.8286 16.1132ZM17.8046 14.1982C17.4306 14.6822 16.9976 15.1542 16.4296 15.6932L16.2536 15.8642L16.5046 12.8152L17.8526 14.1352L17.8046 14.1982ZM19.3436 11.8672C18.9956 12.5402 18.6076 13.1612 18.1886 13.7192L18.1216 13.8042L16.7356 12.4472L19.4436 11.6742L19.3436 11.8672ZM16.4896 12.0832L15.9736 10.0422L18.0736 8.48019L19.4926 11.2612L16.4896 12.0832ZM20.4266 9.04919C20.2886 9.60719 20.0976 10.1902 19.8736 10.7332L19.7986 10.9232L18.5326 8.48019L20.4486 8.96021L20.4266 9.04919ZM20.9346 5.82919C20.9086 6.11519 20.8856 6.45022 20.8596 6.83322V6.83722C20.7886 7.38022 20.7176 7.94121 20.5946 8.47321L20.5756 8.56619L18.5546 8.04919L20.9526 5.56921L20.9346 5.82919Z" stroke="black" stroke-opacity="0.2" stroke-width="0.25"/>
<path d="M21.2966 5.0672C20.9416 2.2902 18.5546 0.200195 15.7466 0.200195C13.6846 0.200195 11.1186 1.8582 11.0096 1.9292L10.9616 1.96222L10.9086 1.9292C10.8006 1.8582 8.23861 0.200195 6.17661 0.200195C3.10261 0.200195 0.599609 2.69919 0.599609 5.77319C0.599609 6.08219 0.625609 6.46922 0.670609 6.88922C0.737609 7.49922 0.849601 8.16022 1.0036 8.86322C1.1716 9.62222 1.44761 10.4322 1.82161 11.2802C2.16461 12.0492 2.5796 12.8012 3.0576 13.5002C3.5396 14.2022 4.0926 14.8792 4.7126 15.5112C5.3286 16.1432 6.02361 16.7492 6.77361 17.3112C7.52861 17.8722 8.36161 18.4042 9.25061 18.8942C9.57161 19.0692 9.90461 19.2442 10.2436 19.4112C10.3036 19.4412 10.3676 19.4742 10.4266 19.5122C10.5576 19.5822 10.6806 19.6492 10.8116 19.6862C10.9876 19.7382 11.1146 19.6752 11.2866 19.5902L11.3646 19.5492C11.8276 19.3292 12.2836 19.0912 12.7166 18.8542C13.5796 18.3742 14.3936 17.8532 15.1256 17.3032C15.8616 16.7572 16.5416 16.1652 17.1506 15.5482C17.7556 14.9312 18.3006 14.2732 18.7786 13.5852C19.2536 12.9012 19.6676 12.1722 20.0116 11.4212C20.3556 10.6702 20.6396 9.87421 20.8526 9.05621C21.0316 8.36121 21.1656 7.62919 21.2486 6.88519C21.2966 6.46919 21.3186 6.08219 21.3186 5.77319C21.3456 5.53519 21.3186 5.2972 21.2966 5.0672ZM18.6186 1.48621C19.7276 2.22621 20.4976 3.34921 20.7886 4.65421L20.8256 4.81821L16.6986 3.29721L18.5546 1.4462L18.6186 1.48621ZM16.4706 6.8262L17.8266 8.1492L16.0186 9.5032L16.4706 6.8262ZM16.1236 6.08621L13.4826 5.1972L16.1236 3.72522V6.08621ZM16.5606 6.29022V3.68021L20.7436 5.20822L18.1366 7.86722L16.5606 6.29022ZM14.4576 0.780212C14.9766 0.665212 15.3876 0.609222 15.7466 0.609222C16.5266 0.609222 17.3116 0.799197 18.0806 1.1702L18.2006 1.2262L16.3396 3.08521L14.3006 0.813202L14.4576 0.780212ZM16.0116 3.3342L12.9556 5.0372L11.3086 4.48019L13.9686 1.0592L16.0116 3.3342ZM11.1776 2.30121L11.3346 2.20822C11.6636 2.01422 12.2756 1.65419 13.0006 1.31219L13.3516 1.14819L11.1776 3.96622V2.30121ZM11.1776 4.85519L12.4776 5.29721L11.1776 6.02621V4.85519ZM10.9616 6.54321C11.0886 6.54321 11.2036 6.47222 11.3306 6.40222L12.8286 5.5762C12.9376 5.5062 12.9896 5.47621 13.0456 5.49521L16.1126 6.5242L15.5446 9.8782L15.5296 9.89722L13.1916 12.8082L10.9616 14.4742L8.7086 12.7892L6.3746 9.8782L5.80661 6.5242L8.9106 5.48019L10.4276 6.30521C10.4646 6.32421 10.5056 6.34619 10.5426 6.36819C10.6476 6.43119 10.7556 6.4952 10.8646 6.5282C10.8976 6.5392 10.9276 6.54321 10.9616 6.54321ZM15.6716 10.4212L16.0976 12.1832L13.8826 12.6372L15.6716 10.4212ZM13.0376 13.4442L12.6046 15.6152L11.3016 14.7452L13.0376 13.4442ZM10.5956 14.7232L9.29161 15.5892L8.8586 13.4212L10.5956 14.7232ZM8.05861 12.6372L5.82161 12.1832L6.27361 10.3992L8.05861 12.6372ZM5.4476 6.8002L5.8996 9.48019L4.0956 8.1272L5.4476 6.8002ZM3.78261 7.86722L1.20061 5.20822L5.3586 3.68021V6.29022L3.78261 7.86722ZM5.79561 6.0712V3.72522L8.43961 5.1972L5.79561 6.0712ZM9.45961 5.30121L10.7666 4.85519V6.00021L9.45961 5.30121ZM8.8916 1.31219C9.6316 1.62819 10.2586 2.0002 10.5956 2.2002L10.7666 2.30121V3.9892L8.5556 1.16721L8.8916 1.31219ZM10.6106 4.48019L8.9666 5.0372L5.90761 3.3342L7.95061 1.0592L10.6106 4.48019ZM3.8116 1.1962C4.5476 0.802198 5.3246 0.609222 6.17661 0.609222C6.56461 0.609222 6.96461 0.672213 7.44661 0.806213L7.58861 0.847198L5.55661 3.11121L3.6996 1.2562L3.8116 1.1962ZM1.1076 4.65121C1.4216 3.34921 2.1906 2.22621 3.2776 1.48621L3.3416 1.4462L5.1976 3.29721L1.0706 4.8222L1.1076 4.65121ZM1.3246 8.46921C1.2306 7.95621 1.1336 7.40222 1.0596 6.83722C1.0146 6.46922 0.988602 6.0972 0.988602 5.8222V5.59122L3.3636 8.04919L1.34261 8.56619L1.3246 8.46921ZM2.04561 10.7112C1.80661 10.1272 1.6266 9.58119 1.4926 9.04919L1.4696 8.96021L3.3896 8.48019L2.1236 10.8972L2.04561 10.7112ZM3.8456 8.45419L5.94461 10.0162L5.4296 12.0832L2.40361 11.2352L3.8456 8.45419ZM3.7076 13.7192C3.2476 13.0722 2.87861 12.4732 2.57561 11.8902L2.47861 11.7002L5.1606 12.4472L3.7706 13.8082L3.7076 13.7192ZM5.4666 15.6712C4.9886 15.2172 4.56261 14.7492 4.11861 14.2022L4.0656 14.1352L5.41861 12.8122L5.64261 15.8382L5.4666 15.6712ZM5.81061 12.5922L8.40961 13.1092L8.9176 15.7532L6.06461 16.0872L5.81061 12.5922ZM8.3506 17.8792C7.5916 17.4042 7.0356 17.0092 6.5466 16.6082L6.3786 16.4672L8.9066 16.1882L8.4586 17.9502L8.3506 17.8792ZM10.2476 18.9612C9.8746 18.7752 9.5156 18.5752 9.1716 18.3812L8.8176 18.1842L9.2316 16.5302L10.4976 19.0842L10.2476 18.9612ZM10.9616 19.0622L9.4296 16.0022L10.9616 14.9872L12.4926 16.0022L10.9616 19.0622ZM13.0866 18.1952C12.5416 18.5112 12.0816 18.7532 11.6446 18.9612L11.3986 19.0802L12.7096 16.5152L13.1506 18.1582L13.0866 18.1952ZM15.3506 16.6302C14.8236 17.0612 14.2406 17.4742 13.6166 17.8572L13.5086 17.9242L13.0346 16.1882L15.5186 16.4932L15.3506 16.6302ZM15.8286 16.1132L13.0006 15.7532L13.5346 13.1092L16.1346 12.5922L15.8286 16.1132ZM17.8046 14.1982C17.4306 14.6822 16.9976 15.1542 16.4296 15.6932L16.2536 15.8642L16.5046 12.8152L17.8526 14.1352L17.8046 14.1982ZM19.3436 11.8672C18.9956 12.5402 18.6076 13.1612 18.1886 13.7192L18.1216 13.8042L16.7356 12.4472L19.4436 11.6742L19.3436 11.8672ZM16.4896 12.0832L15.9736 10.0422L18.0736 8.48019L19.4926 11.2612L16.4896 12.0832ZM20.4266 9.04919C20.2886 9.60719 20.0976 10.1902 19.8736 10.7332L19.7986 10.9232L18.5326 8.48019L20.4486 8.96021L20.4266 9.04919ZM20.9346 5.82919C20.9086 6.11519 20.8856 6.45022 20.8596 6.83322V6.83722C20.7886 7.38022 20.7176 7.94121 20.5946 8.47321L20.5756 8.56619L18.5546 8.04919L20.9526 5.56921L20.9346 5.82919Z" stroke="black" stroke-opacity="0.2" stroke-width="0.25"/>
<path d="M21.2966 5.0672C20.9416 2.2902 18.5546 0.200195 15.7466 0.200195C13.6846 0.200195 11.1186 1.8582 11.0096 1.9292L10.9616 1.96222L10.9086 1.9292C10.8006 1.8582 8.23861 0.200195 6.17661 0.200195C3.10261 0.200195 0.599609 2.69919 0.599609 5.77319C0.599609 6.08219 0.625609 6.46922 0.670609 6.88922C0.737609 7.49922 0.849601 8.16022 1.0036 8.86322C1.1716 9.62222 1.44761 10.4322 1.82161 11.2802C2.16461 12.0492 2.5796 12.8012 3.0576 13.5002C3.5396 14.2022 4.0926 14.8792 4.7126 15.5112C5.3286 16.1432 6.02361 16.7492 6.77361 17.3112C7.52861 17.8722 8.36161 18.4042 9.25061 18.8942C9.57161 19.0692 9.90461 19.2442 10.2436 19.4112C10.3036 19.4412 10.3676 19.4742 10.4266 19.5122C10.5576 19.5822 10.6806 19.6492 10.8116 19.6862C10.9876 19.7382 11.1146 19.6752 11.2866 19.5902L11.3646 19.5492C11.8276 19.3292 12.2836 19.0912 12.7166 18.8542C13.5796 18.3742 14.3936 17.8532 15.1256 17.3032C15.8616 16.7572 16.5416 16.1652 17.1506 15.5482C17.7556 14.9312 18.3006 14.2732 18.7786 13.5852C19.2536 12.9012 19.6676 12.1722 20.0116 11.4212C20.3556 10.6702 20.6396 9.87421 20.8526 9.05621C21.0316 8.36121 21.1656 7.62919 21.2486 6.88519C21.2966 6.46919 21.3186 6.08219 21.3186 5.77319C21.3456 5.53519 21.3186 5.2972 21.2966 5.0672ZM18.6186 1.48621C19.7276 2.22621 20.4976 3.34921 20.7886 4.65421L20.8256 4.81821L16.6986 3.29721L18.5546 1.4462L18.6186 1.48621ZM16.4706 6.8262L17.8266 8.1492L16.0186 9.5032L16.4706 6.8262ZM16.1236 6.08621L13.4826 5.1972L16.1236 3.72522V6.08621ZM16.5606 6.29022V3.68021L20.7436 5.20822L18.1366 7.86722L16.5606 6.29022ZM14.4576 0.780212C14.9766 0.665212 15.3876 0.609222 15.7466 0.609222C16.5266 0.609222 17.3116 0.799197 18.0806 1.1702L18.2006 1.2262L16.3396 3.08521L14.3006 0.813202L14.4576 0.780212ZM16.0116 3.3342L12.9556 5.0372L11.3086 4.48019L13.9686 1.0592L16.0116 3.3342ZM11.1776 2.30121L11.3346 2.20822C11.6636 2.01422 12.2756 1.65419 13.0006 1.31219L13.3516 1.14819L11.1776 3.96622V2.30121ZM11.1776 4.85519L12.4776 5.29721L11.1776 6.02621V4.85519ZM10.9616 6.54321C11.0886 6.54321 11.2036 6.47222 11.3306 6.40222L12.8286 5.5762C12.9376 5.5062 12.9896 5.47621 13.0456 5.49521L16.1126 6.5242L15.5446 9.8782L15.5296 9.89722L13.1916 12.8082L10.9616 14.4742L8.7086 12.7892L6.3746 9.8782L5.80661 6.5242L8.9106 5.48019L10.4276 6.30521C10.4646 6.32421 10.5056 6.34619 10.5426 6.36819C10.6476 6.43119 10.7556 6.4952 10.8646 6.5282C10.8976 6.5392 10.9276 6.54321 10.9616 6.54321ZM15.6716 10.4212L16.0976 12.1832L13.8826 12.6372L15.6716 10.4212ZM13.0376 13.4442L12.6046 15.6152L11.3016 14.7452L13.0376 13.4442ZM10.5956 14.7232L9.29161 15.5892L8.8586 13.4212L10.5956 14.7232ZM8.05861 12.6372L5.82161 12.1832L6.27361 10.3992L8.05861 12.6372ZM5.4476 6.8002L5.8996 9.48019L4.0956 8.1272L5.4476 6.8002ZM3.78261 7.86722L1.20061 5.20822L5.3586 3.68021V6.29022L3.78261 7.86722ZM5.79561 6.0712V3.72522L8.43961 5.1972L5.79561 6.0712ZM9.45961 5.30121L10.7666 4.85519V6.00021L9.45961 5.30121ZM8.8916 1.31219C9.6316 1.62819 10.2586 2.0002 10.5956 2.2002L10.7666 2.30121V3.9892L8.5556 1.16721L8.8916 1.31219ZM10.6106 4.48019L8.9666 5.0372L5.90761 3.3342L7.95061 1.0592L10.6106 4.48019ZM3.8116 1.1962C4.5476 0.802198 5.3246 0.609222 6.17661 0.609222C6.56461 0.609222 6.96461 0.672213 7.44661 0.806213L7.58861 0.847198L5.55661 3.11121L3.6996 1.2562L3.8116 1.1962ZM1.1076 4.65121C1.4216 3.34921 2.1906 2.22621 3.2776 1.48621L3.3416 1.4462L5.1976 3.29721L1.0706 4.8222L1.1076 4.65121ZM1.3246 8.46921C1.2306 7.95621 1.1336 7.40222 1.0596 6.83722C1.0146 6.46922 0.988602 6.0972 0.988602 5.8222V5.59122L3.3636 8.04919L1.34261 8.56619L1.3246 8.46921ZM2.04561 10.7112C1.80661 10.1272 1.6266 9.58119 1.4926 9.04919L1.4696 8.96021L3.3896 8.48019L2.1236 10.8972L2.04561 10.7112ZM3.8456 8.45419L5.94461 10.0162L5.4296 12.0832L2.40361 11.2352L3.8456 8.45419ZM3.7076 13.7192C3.2476 13.0722 2.87861 12.4732 2.57561 11.8902L2.47861 11.7002L5.1606 12.4472L3.7706 13.8082L3.7076 13.7192ZM5.4666 15.6712C4.9886 15.2172 4.56261 14.7492 4.11861 14.2022L4.0656 14.1352L5.41861 12.8122L5.64261 15.8382L5.4666 15.6712ZM5.81061 12.5922L8.40961 13.1092L8.9176 15.7532L6.06461 16.0872L5.81061 12.5922ZM8.3506 17.8792C7.5916 17.4042 7.0356 17.0092 6.5466 16.6082L6.3786 16.4672L8.9066 16.1882L8.4586 17.9502L8.3506 17.8792ZM10.2476 18.9612C9.8746 18.7752 9.5156 18.5752 9.1716 18.3812L8.8176 18.1842L9.2316 16.5302L10.4976 19.0842L10.2476 18.9612ZM10.9616 19.0622L9.4296 16.0022L10.9616 14.9872L12.4926 16.0022L10.9616 19.0622ZM13.0866 18.1952C12.5416 18.5112 12.0816 18.7532 11.6446 18.9612L11.3986 19.0802L12.7096 16.5152L13.1506 18.1582L13.0866 18.1952ZM15.3506 16.6302C14.8236 17.0612 14.2406 17.4742 13.6166 17.8572L13.5086 17.9242L13.0346 16.1882L15.5186 16.4932L15.3506 16.6302ZM15.8286 16.1132L13.0006 15.7532L13.5346 13.1092L16.1346 12.5922L15.8286 16.1132ZM17.8046 14.1982C17.4306 14.6822 16.9976 15.1542 16.4296 15.6932L16.2536 15.8642L16.5046 12.8152L17.8526 14.1352L17.8046 14.1982ZM19.3436 11.8672C18.9956 12.5402 18.6076 13.1612 18.1886 13.7192L18.1216 13.8042L16.7356 12.4472L19.4436 11.6742L19.3436 11.8672ZM16.4896 12.0832L15.9736 10.0422L18.0736 8.48019L19.4926 11.2612L16.4896 12.0832ZM20.4266 9.04919C20.2886 9.60719 20.0976 10.1902 19.8736 10.7332L19.7986 10.9232L18.5326 8.48019L20.4486 8.96021L20.4266 9.04919ZM20.9346 5.82919C20.9086 6.11519 20.8856 6.45022 20.8596 6.83322V6.83722C20.7886 7.38022 20.7176 7.94121 20.5946 8.47321L20.5756 8.56619L18.5546 8.04919L20.9526 5.56921L20.9346 5.82919Z" stroke="black" stroke-opacity="0.2" stroke-width="0.25"/>
<path d="M21.2966 5.0672C20.9416 2.2902 18.5546 0.200195 15.7466 0.200195C13.6846 0.200195 11.1186 1.8582 11.0096 1.9292L10.9616 1.96222L10.9086 1.9292C10.8006 1.8582 8.23861 0.200195 6.17661 0.200195C3.10261 0.200195 0.599609 2.69919 0.599609 5.77319C0.599609 6.08219 0.625609 6.46922 0.670609 6.88922C0.737609 7.49922 0.849601 8.16022 1.0036 8.86322C1.1716 9.62222 1.44761 10.4322 1.82161 11.2802C2.16461 12.0492 2.5796 12.8012 3.0576 13.5002C3.5396 14.2022 4.0926 14.8792 4.7126 15.5112C5.3286 16.1432 6.02361 16.7492 6.77361 17.3112C7.52861 17.8722 8.36161 18.4042 9.25061 18.8942C9.57161 19.0692 9.90461 19.2442 10.2436 19.4112C10.3036 19.4412 10.3676 19.4742 10.4266 19.5122C10.5576 19.5822 10.6806 19.6492 10.8116 19.6862C10.9876 19.7382 11.1146 19.6752 11.2866 19.5902L11.3646 19.5492C11.8276 19.3292 12.2836 19.0912 12.7166 18.8542C13.5796 18.3742 14.3936 17.8532 15.1256 17.3032C15.8616 16.7572 16.5416 16.1652 17.1506 15.5482C17.7556 14.9312 18.3006 14.2732 18.7786 13.5852C19.2536 12.9012 19.6676 12.1722 20.0116 11.4212C20.3556 10.6702 20.6396 9.87421 20.8526 9.05621C21.0316 8.36121 21.1656 7.62919 21.2486 6.88519C21.2966 6.46919 21.3186 6.08219 21.3186 5.77319C21.3456 5.53519 21.3186 5.2972 21.2966 5.0672ZM18.6186 1.48621C19.7276 2.22621 20.4976 3.34921 20.7886 4.65421L20.8256 4.81821L16.6986 3.29721L18.5546 1.4462L18.6186 1.48621ZM16.4706 6.8262L17.8266 8.1492L16.0186 9.5032L16.4706 6.8262ZM16.1236 6.08621L13.4826 5.1972L16.1236 3.72522V6.08621ZM16.5606 6.29022V3.68021L20.7436 5.20822L18.1366 7.86722L16.5606 6.29022ZM14.4576 0.780212C14.9766 0.665212 15.3876 0.609222 15.7466 0.609222C16.5266 0.609222 17.3116 0.799197 18.0806 1.1702L18.2006 1.2262L16.3396 3.08521L14.3006 0.813202L14.4576 0.780212ZM16.0116 3.3342L12.9556 5.0372L11.3086 4.48019L13.9686 1.0592L16.0116 3.3342ZM11.1776 2.30121L11.3346 2.20822C11.6636 2.01422 12.2756 1.65419 13.0006 1.31219L13.3516 1.14819L11.1776 3.96622V2.30121ZM11.1776 4.85519L12.4776 5.29721L11.1776 6.02621V4.85519ZM10.9616 6.54321C11.0886 6.54321 11.2036 6.47222 11.3306 6.40222L12.8286 5.5762C12.9376 5.5062 12.9896 5.47621 13.0456 5.49521L16.1126 6.5242L15.5446 9.8782L15.5296 9.89722L13.1916 12.8082L10.9616 14.4742L8.7086 12.7892L6.3746 9.8782L5.80661 6.5242L8.9106 5.48019L10.4276 6.30521C10.4646 6.32421 10.5056 6.34619 10.5426 6.36819C10.6476 6.43119 10.7556 6.4952 10.8646 6.5282C10.8976 6.5392 10.9276 6.54321 10.9616 6.54321ZM15.6716 10.4212L16.0976 12.1832L13.8826 12.6372L15.6716 10.4212ZM13.0376 13.4442L12.6046 15.6152L11.3016 14.7452L13.0376 13.4442ZM10.5956 14.7232L9.29161 15.5892L8.8586 13.4212L10.5956 14.7232ZM8.05861 12.6372L5.82161 12.1832L6.27361 10.3992L8.05861 12.6372ZM5.4476 6.8002L5.8996 9.48019L4.0956 8.1272L5.4476 6.8002ZM3.78261 7.86722L1.20061 5.20822L5.3586 3.68021V6.29022L3.78261 7.86722ZM5.79561 6.0712V3.72522L8.43961 5.1972L5.79561 6.0712ZM9.45961 5.30121L10.7666 4.85519V6.00021L9.45961 5.30121ZM8.8916 1.31219C9.6316 1.62819 10.2586 2.0002 10.5956 2.2002L10.7666 2.30121V3.9892L8.5556 1.16721L8.8916 1.31219ZM10.6106 4.48019L8.9666 5.0372L5.90761 3.3342L7.95061 1.0592L10.6106 4.48019ZM3.8116 1.1962C4.5476 0.802198 5.3246 0.609222 6.17661 0.609222C6.56461 0.609222 6.96461 0.672213 7.44661 0.806213L7.58861 0.847198L5.55661 3.11121L3.6996 1.2562L3.8116 1.1962ZM1.1076 4.65121C1.4216 3.34921 2.1906 2.22621 3.2776 1.48621L3.3416 1.4462L5.1976 3.29721L1.0706 4.8222L1.1076 4.65121ZM1.3246 8.46921C1.2306 7.95621 1.1336 7.40222 1.0596 6.83722C1.0146 6.46922 0.988602 6.0972 0.988602 5.8222V5.59122L3.3636 8.04919L1.34261 8.56619L1.3246 8.46921ZM2.04561 10.7112C1.80661 10.1272 1.6266 9.58119 1.4926 9.04919L1.4696 8.96021L3.3896 8.48019L2.1236 10.8972L2.04561 10.7112ZM3.8456 8.45419L5.94461 10.0162L5.4296 12.0832L2.40361 11.2352L3.8456 8.45419ZM3.7076 13.7192C3.2476 13.0722 2.87861 12.4732 2.57561 11.8902L2.47861 11.7002L5.1606 12.4472L3.7706 13.8082L3.7076 13.7192ZM5.4666 15.6712C4.9886 15.2172 4.56261 14.7492 4.11861 14.2022L4.0656 14.1352L5.41861 12.8122L5.64261 15.8382L5.4666 15.6712ZM5.81061 12.5922L8.40961 13.1092L8.9176 15.7532L6.06461 16.0872L5.81061 12.5922ZM8.3506 17.8792C7.5916 17.4042 7.0356 17.0092 6.5466 16.6082L6.3786 16.4672L8.9066 16.1882L8.4586 17.9502L8.3506 17.8792ZM10.2476 18.9612C9.8746 18.7752 9.5156 18.5752 9.1716 18.3812L8.8176 18.1842L9.2316 16.5302L10.4976 19.0842L10.2476 18.9612ZM10.9616 19.0622L9.4296 16.0022L10.9616 14.9872L12.4926 16.0022L10.9616 19.0622ZM13.0866 18.1952C12.5416 18.5112 12.0816 18.7532 11.6446 18.9612L11.3986 19.0802L12.7096 16.5152L13.1506 18.1582L13.0866 18.1952ZM15.3506 16.6302C14.8236 17.0612 14.2406 17.4742 13.6166 17.8572L13.5086 17.9242L13.0346 16.1882L15.5186 16.4932L15.3506 16.6302ZM15.8286 16.1132L13.0006 15.7532L13.5346 13.1092L16.1346 12.5922L15.8286 16.1132ZM17.8046 14.1982C17.4306 14.6822 16.9976 15.1542 16.4296 15.6932L16.2536 15.8642L16.5046 12.8152L17.8526 14.1352L17.8046 14.1982ZM19.3436 11.8672C18.9956 12.5402 18.6076 13.1612 18.1886 13.7192L18.1216 13.8042L16.7356 12.4472L19.4436 11.6742L19.3436 11.8672ZM16.4896 12.0832L15.9736 10.0422L18.0736 8.48019L19.4926 11.2612L16.4896 12.0832ZM20.4266 9.04919C20.2886 9.60719 20.0976 10.1902 19.8736 10.7332L19.7986 10.9232L18.5326 8.48019L20.4486 8.96021L20.4266 9.04919ZM20.9346 5.82919C20.9086 6.11519 20.8856 6.45022 20.8596 6.83322V6.83722C20.7886 7.38022 20.7176 7.94121 20.5946 8.47321L20.5756 8.56619L18.5546 8.04919L20.9526 5.56921L20.9346 5.82919Z" stroke="black" stroke-opacity="0.2" stroke-width="0.25"/>
<path d="M21.2966 5.0672C20.9416 2.2902 18.5546 0.200195 15.7466 0.200195C13.6846 0.200195 11.1186 1.8582 11.0096 1.9292L10.9616 1.96222L10.9086 1.9292C10.8006 1.8582 8.23861 0.200195 6.17661 0.200195C3.10261 0.200195 0.599609 2.69919 0.599609 5.77319C0.599609 6.08219 0.625609 6.46922 0.670609 6.88922C0.737609 7.49922 0.849601 8.16022 1.0036 8.86322C1.1716 9.62222 1.44761 10.4322 1.82161 11.2802C2.16461 12.0492 2.5796 12.8012 3.0576 13.5002C3.5396 14.2022 4.0926 14.8792 4.7126 15.5112C5.3286 16.1432 6.02361 16.7492 6.77361 17.3112C7.52861 17.8722 8.36161 18.4042 9.25061 18.8942C9.57161 19.0692 9.90461 19.2442 10.2436 19.4112C10.3036 19.4412 10.3676 19.4742 10.4266 19.5122C10.5576 19.5822 10.6806 19.6492 10.8116 19.6862C10.9876 19.7382 11.1146 19.6752 11.2866 19.5902L11.3646 19.5492C11.8276 19.3292 12.2836 19.0912 12.7166 18.8542C13.5796 18.3742 14.3936 17.8532 15.1256 17.3032C15.8616 16.7572 16.5416 16.1652 17.1506 15.5482C17.7556 14.9312 18.3006 14.2732 18.7786 13.5852C19.2536 12.9012 19.6676 12.1722 20.0116 11.4212C20.3556 10.6702 20.6396 9.87421 20.8526 9.05621C21.0316 8.36121 21.1656 7.62919 21.2486 6.88519C21.2966 6.46919 21.3186 6.08219 21.3186 5.77319C21.3456 5.53519 21.3186 5.2972 21.2966 5.0672ZM18.6186 1.48621C19.7276 2.22621 20.4976 3.34921 20.7886 4.65421L20.8256 4.81821L16.6986 3.29721L18.5546 1.4462L18.6186 1.48621ZM16.4706 6.8262L17.8266 8.1492L16.0186 9.5032L16.4706 6.8262ZM16.1236 6.08621L13.4826 5.1972L16.1236 3.72522V6.08621ZM16.5606 6.29022V3.68021L20.7436 5.20822L18.1366 7.86722L16.5606 6.29022ZM14.4576 0.780212C14.9766 0.665212 15.3876 0.609222 15.7466 0.609222C16.5266 0.609222 17.3116 0.799197 18.0806 1.1702L18.2006 1.2262L16.3396 3.08521L14.3006 0.813202L14.4576 0.780212ZM16.0116 3.3342L12.9556 5.0372L11.3086 4.48019L13.9686 1.0592L16.0116 3.3342ZM11.1776 2.30121L11.3346 2.20822C11.6636 2.01422 12.2756 1.65419 13.0006 1.31219L13.3516 1.14819L11.1776 3.96622V2.30121ZM11.1776 4.85519L12.4776 5.29721L11.1776 6.02621V4.85519ZM10.9616 6.54321C11.0886 6.54321 11.2036 6.47222 11.3306 6.40222L12.8286 5.5762C12.9376 5.5062 12.9896 5.47621 13.0456 5.49521L16.1126 6.5242L15.5446 9.8782L15.5296 9.89722L13.1916 12.8082L10.9616 14.4742L8.7086 12.7892L6.3746 9.8782L5.80661 6.5242L8.9106 5.48019L10.4276 6.30521C10.4646 6.32421 10.5056 6.34619 10.5426 6.36819C10.6476 6.43119 10.7556 6.4952 10.8646 6.5282C10.8976 6.5392 10.9276 6.54321 10.9616 6.54321ZM15.6716 10.4212L16.0976 12.1832L13.8826 12.6372L15.6716 10.4212ZM13.0376 13.4442L12.6046 15.6152L11.3016 14.7452L13.0376 13.4442ZM10.5956 14.7232L9.29161 15.5892L8.8586 13.4212L10.5956 14.7232ZM8.05861 12.6372L5.82161 12.1832L6.27361 10.3992L8.05861 12.6372ZM5.4476 6.8002L5.8996 9.48019L4.0956 8.1272L5.4476 6.8002ZM3.78261 7.86722L1.20061 5.20822L5.3586 3.68021V6.29022L3.78261 7.86722ZM5.79561 6.0712V3.72522L8.43961 5.1972L5.79561 6.0712ZM9.45961 5.30121L10.7666 4.85519V6.00021L9.45961 5.30121ZM8.8916 1.31219C9.6316 1.62819 10.2586 2.0002 10.5956 2.2002L10.7666 2.30121V3.9892L8.5556 1.16721L8.8916 1.31219ZM10.6106 4.48019L8.9666 5.0372L5.90761 3.3342L7.95061 1.0592L10.6106 4.48019ZM3.8116 1.1962C4.5476 0.802198 5.3246 0.609222 6.17661 0.609222C6.56461 0.609222 6.96461 0.672213 7.44661 0.806213L7.58861 0.847198L5.55661 3.11121L3.6996 1.2562L3.8116 1.1962ZM1.1076 4.65121C1.4216 3.34921 2.1906 2.22621 3.2776 1.48621L3.3416 1.4462L5.1976 3.29721L1.0706 4.8222L1.1076 4.65121ZM1.3246 8.46921C1.2306 7.95621 1.1336 7.40222 1.0596 6.83722C1.0146 6.46922 0.988602 6.0972 0.988602 5.8222V5.59122L3.3636 8.04919L1.34261 8.56619L1.3246 8.46921ZM2.04561 10.7112C1.80661 10.1272 1.6266 9.58119 1.4926 9.04919L1.4696 8.96021L3.3896 8.48019L2.1236 10.8972L2.04561 10.7112ZM3.8456 8.45419L5.94461 10.0162L5.4296 12.0832L2.40361 11.2352L3.8456 8.45419ZM3.7076 13.7192C3.2476 13.0722 2.87861 12.4732 2.57561 11.8902L2.47861 11.7002L5.1606 12.4472L3.7706 13.8082L3.7076 13.7192ZM5.4666 15.6712C4.9886 15.2172 4.56261 14.7492 4.11861 14.2022L4.0656 14.1352L5.41861 12.8122L5.64261 15.8382L5.4666 15.6712ZM5.81061 12.5922L8.40961 13.1092L8.9176 15.7532L6.06461 16.0872L5.81061 12.5922ZM8.3506 17.8792C7.5916 17.4042 7.0356 17.0092 6.5466 16.6082L6.3786 16.4672L8.9066 16.1882L8.4586 17.9502L8.3506 17.8792ZM10.2476 18.9612C9.8746 18.7752 9.5156 18.5752 9.1716 18.3812L8.8176 18.1842L9.2316 16.5302L10.4976 19.0842L10.2476 18.9612ZM10.9616 19.0622L9.4296 16.0022L10.9616 14.9872L12.4926 16.0022L10.9616 19.0622ZM13.0866 18.1952C12.5416 18.5112 12.0816 18.7532 11.6446 18.9612L11.3986 19.0802L12.7096 16.5152L13.1506 18.1582L13.0866 18.1952ZM15.3506 16.6302C14.8236 17.0612 14.2406 17.4742 13.6166 17.8572L13.5086 17.9242L13.0346 16.1882L15.5186 16.4932L15.3506 16.6302ZM15.8286 16.1132L13.0006 15.7532L13.5346 13.1092L16.1346 12.5922L15.8286 16.1132ZM17.8046 14.1982C17.4306 14.6822 16.9976 15.1542 16.4296 15.6932L16.2536 15.8642L16.5046 12.8152L17.8526 14.1352L17.8046 14.1982ZM19.3436 11.8672C18.9956 12.5402 18.6076 13.1612 18.1886 13.7192L18.1216 13.8042L16.7356 12.4472L19.4436 11.6742L19.3436 11.8672ZM16.4896 12.0832L15.9736 10.0422L18.0736 8.48019L19.4926 11.2612L16.4896 12.0832ZM20.4266 9.04919C20.2886 9.60719 20.0976 10.1902 19.8736 10.7332L19.7986 10.9232L18.5326 8.48019L20.4486 8.96021L20.4266 9.04919ZM20.9346 5.82919C20.9086 6.11519 20.8856 6.45022 20.8596 6.83322V6.83722C20.7886 7.38022 20.7176 7.94121 20.5946 8.47321L20.5756 8.56619L18.5546 8.04919L20.9526 5.56921L20.9346 5.82919Z" stroke="black" stroke-opacity="0.2" stroke-width="0.25"/>
<path d="M21.2966 5.0672C20.9416 2.2902 18.5546 0.200195 15.7466 0.200195C13.6846 0.200195 11.1186 1.8582 11.0096 1.9292L10.9616 1.96222L10.9086 1.9292C10.8006 1.8582 8.23861 0.200195 6.17661 0.200195C3.10261 0.200195 0.599609 2.69919 0.599609 5.77319C0.599609 6.08219 0.625609 6.46922 0.670609 6.88922C0.737609 7.49922 0.849601 8.16022 1.0036 8.86322C1.1716 9.62222 1.44761 10.4322 1.82161 11.2802C2.16461 12.0492 2.5796 12.8012 3.0576 13.5002C3.5396 14.2022 4.0926 14.8792 4.7126 15.5112C5.3286 16.1432 6.02361 16.7492 6.77361 17.3112C7.52861 17.8722 8.36161 18.4042 9.25061 18.8942C9.57161 19.0692 9.90461 19.2442 10.2436 19.4112C10.3036 19.4412 10.3676 19.4742 10.4266 19.5122C10.5576 19.5822 10.6806 19.6492 10.8116 19.6862C10.9876 19.7382 11.1146 19.6752 11.2866 19.5902L11.3646 19.5492C11.8276 19.3292 12.2836 19.0912 12.7166 18.8542C13.5796 18.3742 14.3936 17.8532 15.1256 17.3032C15.8616 16.7572 16.5416 16.1652 17.1506 15.5482C17.7556 14.9312 18.3006 14.2732 18.7786 13.5852C19.2536 12.9012 19.6676 12.1722 20.0116 11.4212C20.3556 10.6702 20.6396 9.87421 20.8526 9.05621C21.0316 8.36121 21.1656 7.62919 21.2486 6.88519C21.2966 6.46919 21.3186 6.08219 21.3186 5.77319C21.3456 5.53519 21.3186 5.2972 21.2966 5.0672ZM18.6186 1.48621C19.7276 2.22621 20.4976 3.34921 20.7886 4.65421L20.8256 4.81821L16.6986 3.29721L18.5546 1.4462L18.6186 1.48621ZM16.4706 6.8262L17.8266 8.1492L16.0186 9.5032L16.4706 6.8262ZM16.1236 6.08621L13.4826 5.1972L16.1236 3.72522V6.08621ZM16.5606 6.29022V3.68021L20.7436 5.20822L18.1366 7.86722L16.5606 6.29022ZM14.4576 0.780212C14.9766 0.665212 15.3876 0.609222 15.7466 0.609222C16.5266 0.609222 17.3116 0.799197 18.0806 1.1702L18.2006 1.2262L16.3396 3.08521L14.3006 0.813202L14.4576 0.780212ZM16.0116 3.3342L12.9556 5.0372L11.3086 4.48019L13.9686 1.0592L16.0116 3.3342ZM11.1776 2.30121L11.3346 2.20822C11.6636 2.01422 12.2756 1.65419 13.0006 1.31219L13.3516 1.14819L11.1776 3.96622V2.30121ZM11.1776 4.85519L12.4776 5.29721L11.1776 6.02621V4.85519ZM10.9616 6.54321C11.0886 6.54321 11.2036 6.47222 11.3306 6.40222L12.8286 5.5762C12.9376 5.5062 12.9896 5.47621 13.0456 5.49521L16.1126 6.5242L15.5446 9.8782L15.5296 9.89722L13.1916 12.8082L10.9616 14.4742L8.7086 12.7892L6.3746 9.8782L5.80661 6.5242L8.9106 5.48019L10.4276 6.30521C10.4646 6.32421 10.5056 6.34619 10.5426 6.36819C10.6476 6.43119 10.7556 6.4952 10.8646 6.5282C10.8976 6.5392 10.9276 6.54321 10.9616 6.54321ZM15.6716 10.4212L16.0976 12.1832L13.8826 12.6372L15.6716 10.4212ZM13.0376 13.4442L12.6046 15.6152L11.3016 14.7452L13.0376 13.4442ZM10.5956 14.7232L9.29161 15.5892L8.8586 13.4212L10.5956 14.7232ZM8.05861 12.6372L5.82161 12.1832L6.27361 10.3992L8.05861 12.6372ZM5.4476 6.8002L5.8996 9.48019L4.0956 8.1272L5.4476 6.8002ZM3.78261 7.86722L1.20061 5.20822L5.3586 3.68021V6.29022L3.78261 7.86722ZM5.79561 6.0712V3.72522L8.43961 5.1972L5.79561 6.0712ZM9.45961 5.30121L10.7666 4.85519V6.00021L9.45961 5.30121ZM8.8916 1.31219C9.6316 1.62819 10.2586 2.0002 10.5956 2.2002L10.7666 2.30121V3.9892L8.5556 1.16721L8.8916 1.31219ZM10.6106 4.48019L8.9666 5.0372L5.90761 3.3342L7.95061 1.0592L10.6106 4.48019ZM3.8116 1.1962C4.5476 0.802198 5.3246 0.609222 6.17661 0.609222C6.56461 0.609222 6.96461 0.672213 7.44661 0.806213L7.58861 0.847198L5.55661 3.11121L3.6996 1.2562L3.8116 1.1962ZM1.1076 4.65121C1.4216 3.34921 2.1906 2.22621 3.2776 1.48621L3.3416 1.4462L5.1976 3.29721L1.0706 4.8222L1.1076 4.65121ZM1.3246 8.46921C1.2306 7.95621 1.1336 7.40222 1.0596 6.83722C1.0146 6.46922 0.988602 6.0972 0.988602 5.8222V5.59122L3.3636 8.04919L1.34261 8.56619L1.3246 8.46921ZM2.04561 10.7112C1.80661 10.1272 1.6266 9.58119 1.4926 9.04919L1.4696 8.96021L3.3896 8.48019L2.1236 10.8972L2.04561 10.7112ZM3.8456 8.45419L5.94461 10.0162L5.4296 12.0832L2.40361 11.2352L3.8456 8.45419ZM3.7076 13.7192C3.2476 13.0722 2.87861 12.4732 2.57561 11.8902L2.47861 11.7002L5.1606 12.4472L3.7706 13.8082L3.7076 13.7192ZM5.4666 15.6712C4.9886 15.2172 4.56261 14.7492 4.11861 14.2022L4.0656 14.1352L5.41861 12.8122L5.64261 15.8382L5.4666 15.6712ZM5.81061 12.5922L8.40961 13.1092L8.9176 15.7532L6.06461 16.0872L5.81061 12.5922ZM8.3506 17.8792C7.5916 17.4042 7.0356 17.0092 6.5466 16.6082L6.3786 16.4672L8.9066 16.1882L8.4586 17.9502L8.3506 17.8792ZM10.2476 18.9612C9.8746 18.7752 9.5156 18.5752 9.1716 18.3812L8.8176 18.1842L9.2316 16.5302L10.4976 19.0842L10.2476 18.9612ZM10.9616 19.0622L9.4296 16.0022L10.9616 14.9872L12.4926 16.0022L10.9616 19.0622ZM13.0866 18.1952C12.5416 18.5112 12.0816 18.7532 11.6446 18.9612L11.3986 19.0802L12.7096 16.5152L13.1506 18.1582L13.0866 18.1952ZM15.3506 16.6302C14.8236 17.0612 14.2406 17.4742 13.6166 17.8572L13.5086 17.9242L13.0346 16.1882L15.5186 16.4932L15.3506 16.6302ZM15.8286 16.1132L13.0006 15.7532L13.5346 13.1092L16.1346 12.5922L15.8286 16.1132ZM17.8046 14.1982C17.4306 14.6822 16.9976 15.1542 16.4296 15.6932L16.2536 15.8642L16.5046 12.8152L17.8526 14.1352L17.8046 14.1982ZM19.3436 11.8672C18.9956 12.5402 18.6076 13.1612 18.1886 13.7192L18.1216 13.8042L16.7356 12.4472L19.4436 11.6742L19.3436 11.8672ZM16.4896 12.0832L15.9736 10.0422L18.0736 8.48019L19.4926 11.2612L16.4896 12.0832ZM20.4266 9.04919C20.2886 9.60719 20.0976 10.1902 19.8736 10.7332L19.7986 10.9232L18.5326 8.48019L20.4486 8.96021L20.4266 9.04919ZM20.9346 5.82919C20.9086 6.11519 20.8856 6.45022 20.8596 6.83322V6.83722C20.7886 7.38022 20.7176 7.94121 20.5946 8.47321L20.5756 8.56619L18.5546 8.04919L20.9526 5.56921L20.9346 5.82919Z" stroke="black" stroke-opacity="0.2" stroke-width="0.25"/>
<path d="M21.2966 5.0672C20.9416 2.2902 18.5546 0.200195 15.7466 0.200195C13.6846 0.200195 11.1186 1.8582 11.0096 1.9292L10.9616 1.96222L10.9086 1.9292C10.8006 1.8582 8.23861 0.200195 6.17661 0.200195C3.10261 0.200195 0.599609 2.69919 0.599609 5.77319C0.599609 6.08219 0.625609 6.46922 0.670609 6.88922C0.737609 7.49922 0.849601 8.16022 1.0036 8.86322C1.1716 9.62222 1.44761 10.4322 1.82161 11.2802C2.16461 12.0492 2.5796 12.8012 3.0576 13.5002C3.5396 14.2022 4.0926 14.8792 4.7126 15.5112C5.3286 16.1432 6.02361 16.7492 6.77361 17.3112C7.52861 17.8722 8.36161 18.4042 9.25061 18.8942C9.57161 19.0692 9.90461 19.2442 10.2436 19.4112C10.3036 19.4412 10.3676 19.4742 10.4266 19.5122C10.5576 19.5822 10.6806 19.6492 10.8116 19.6862C10.9876 19.7382 11.1146 19.6752 11.2866 19.5902L11.3646 19.5492C11.8276 19.3292 12.2836 19.0912 12.7166 18.8542C13.5796 18.3742 14.3936 17.8532 15.1256 17.3032C15.8616 16.7572 16.5416 16.1652 17.1506 15.5482C17.7556 14.9312 18.3006 14.2732 18.7786 13.5852C19.2536 12.9012 19.6676 12.1722 20.0116 11.4212C20.3556 10.6702 20.6396 9.87421 20.8526 9.05621C21.0316 8.36121 21.1656 7.62919 21.2486 6.88519C21.2966 6.46919 21.3186 6.08219 21.3186 5.77319C21.3456 5.53519 21.3186 5.2972 21.2966 5.0672ZM18.6186 1.48621C19.7276 2.22621 20.4976 3.34921 20.7886 4.65421L20.8256 4.81821L16.6986 3.29721L18.5546 1.4462L18.6186 1.48621ZM16.4706 6.8262L17.8266 8.1492L16.0186 9.5032L16.4706 6.8262ZM16.1236 6.08621L13.4826 5.1972L16.1236 3.72522V6.08621ZM16.5606 6.29022V3.68021L20.7436 5.20822L18.1366 7.86722L16.5606 6.29022ZM14.4576 0.780212C14.9766 0.665212 15.3876 0.609222 15.7466 0.609222C16.5266 0.609222 17.3116 0.799197 18.0806 1.1702L18.2006 1.2262L16.3396 3.08521L14.3006 0.813202L14.4576 0.780212ZM16.0116 3.3342L12.9556 5.0372L11.3086 4.48019L13.9686 1.0592L16.0116 3.3342ZM11.1776 2.30121L11.3346 2.20822C11.6636 2.01422 12.2756 1.65419 13.0006 1.31219L13.3516 1.14819L11.1776 3.96622V2.30121ZM11.1776 4.85519L12.4776 5.29721L11.1776 6.02621V4.85519ZM10.9616 6.54321C11.0886 6.54321 11.2036 6.47222 11.3306 6.40222L12.8286 5.5762C12.9376 5.5062 12.9896 5.47621 13.0456 5.49521L16.1126 6.5242L15.5446 9.8782L15.5296 9.89722L13.1916 12.8082L10.9616 14.4742L8.7086 12.7892L6.3746 9.8782L5.80661 6.5242L8.9106 5.48019L10.4276 6.30521C10.4646 6.32421 10.5056 6.34619 10.5426 6.36819C10.6476 6.43119 10.7556 6.4952 10.8646 6.5282C10.8976 6.5392 10.9276 6.54321 10.9616 6.54321ZM15.6716 10.4212L16.0976 12.1832L13.8826 12.6372L15.6716 10.4212ZM13.0376 13.4442L12.6046 15.6152L11.3016 14.7452L13.0376 13.4442ZM10.5956 14.7232L9.29161 15.5892L8.8586 13.4212L10.5956 14.7232ZM8.05861 12.6372L5.82161 12.1832L6.27361 10.3992L8.05861 12.6372ZM5.4476 6.8002L5.8996 9.48019L4.0956 8.1272L5.4476 6.8002ZM3.78261 7.86722L1.20061 5.20822L5.3586 3.68021V6.29022L3.78261 7.86722ZM5.79561 6.0712V3.72522L8.43961 5.1972L5.79561 6.0712ZM9.45961 5.30121L10.7666 4.85519V6.00021L9.45961 5.30121ZM8.8916 1.31219C9.6316 1.62819 10.2586 2.0002 10.5956 2.2002L10.7666 2.30121V3.9892L8.5556 1.16721L8.8916 1.31219ZM10.6106 4.48019L8.9666 5.0372L5.90761 3.3342L7.95061 1.0592L10.6106 4.48019ZM3.8116 1.1962C4.5476 0.802198 5.3246 0.609222 6.17661 0.609222C6.56461 0.609222 6.96461 0.672213 7.44661 0.806213L7.58861 0.847198L5.55661 3.11121L3.6996 1.2562L3.8116 1.1962ZM1.1076 4.65121C1.4216 3.34921 2.1906 2.22621 3.2776 1.48621L3.3416 1.4462L5.1976 3.29721L1.0706 4.8222L1.1076 4.65121ZM1.3246 8.46921C1.2306 7.95621 1.1336 7.40222 1.0596 6.83722C1.0146 6.46922 0.988602 6.0972 0.988602 5.8222V5.59122L3.3636 8.04919L1.34261 8.56619L1.3246 8.46921ZM2.04561 10.7112C1.80661 10.1272 1.6266 9.58119 1.4926 9.04919L1.4696 8.96021L3.3896 8.48019L2.1236 10.8972L2.04561 10.7112ZM3.8456 8.45419L5.94461 10.0162L5.4296 12.0832L2.40361 11.2352L3.8456 8.45419ZM3.7076 13.7192C3.2476 13.0722 2.87861 12.4732 2.57561 11.8902L2.47861 11.7002L5.1606 12.4472L3.7706 13.8082L3.7076 13.7192ZM5.4666 15.6712C4.9886 15.2172 4.56261 14.7492 4.11861 14.2022L4.0656 14.1352L5.41861 12.8122L5.64261 15.8382L5.4666 15.6712ZM5.81061 12.5922L8.40961 13.1092L8.9176 15.7532L6.06461 16.0872L5.81061 12.5922ZM8.3506 17.8792C7.5916 17.4042 7.0356 17.0092 6.5466 16.6082L6.3786 16.4672L8.9066 16.1882L8.4586 17.9502L8.3506 17.8792ZM10.2476 18.9612C9.8746 18.7752 9.5156 18.5752 9.1716 18.3812L8.8176 18.1842L9.2316 16.5302L10.4976 19.0842L10.2476 18.9612ZM10.9616 19.0622L9.4296 16.0022L10.9616 14.9872L12.4926 16.0022L10.9616 19.0622ZM13.0866 18.1952C12.5416 18.5112 12.0816 18.7532 11.6446 18.9612L11.3986 19.0802L12.7096 16.5152L13.1506 18.1582L13.0866 18.1952ZM15.3506 16.6302C14.8236 17.0612 14.2406 17.4742 13.6166 17.8572L13.5086 17.9242L13.0346 16.1882L15.5186 16.4932L15.3506 16.6302ZM15.8286 16.1132L13.0006 15.7532L13.5346 13.1092L16.1346 12.5922L15.8286 16.1132ZM17.8046 14.1982C17.4306 14.6822 16.9976 15.1542 16.4296 15.6932L16.2536 15.8642L16.5046 12.8152L17.8526 14.1352L17.8046 14.1982ZM19.3436 11.8672C18.9956 12.5402 18.6076 13.1612 18.1886 13.7192L18.1216 13.8042L16.7356 12.4472L19.4436 11.6742L19.3436 11.8672ZM16.4896 12.0832L15.9736 10.0422L18.0736 8.48019L19.4926 11.2612L16.4896 12.0832ZM20.4266 9.04919C20.2886 9.60719 20.0976 10.1902 19.8736 10.7332L19.7986 10.9232L18.5326 8.48019L20.4486 8.96021L20.4266 9.04919ZM20.9346 5.82919C20.9086 6.11519 20.8856 6.45022 20.8596 6.83322V6.83722C20.7886 7.38022 20.7176 7.94121 20.5946 8.47321L20.5756 8.56619L18.5546 8.04919L20.9526 5.56921L20.9346 5.82919Z" stroke="black" stroke-opacity="0.2" stroke-width="0.25"/>
</g>
</g>
</svg>
