<svg width="42" height="36" viewBox="0 0 42 36" fill="none" xmlns="http://www.w3.org/2000/svg">
<g id="pendants">
<g id="Vector">
<path d="M29.3852 18.662C29.2882 18.362 29.0212 18.168 28.7052 18.168L23.1272 18.193L22.3052 15.669L28.7242 8.62601C28.9432 8.38601 28.7732 8 28.4482 8C28.3422 8 28.2422 8.04399 28.1712 8.12199L22.0422 14.852L22.0402 14.854L21.3872 12.847C21.2912 12.553 21.0192 12.355 20.7092 12.355C20.7072 12.355 20.7052 12.355 20.7032 12.355C20.3932 12.358 20.1242 12.558 20.0352 12.847L19.3882 14.867L13.2512 8.12199C13.1802 8.04399 13.0802 8 12.9742 8C12.6492 8 12.4782 8.386 12.6972 8.627L19.1242 15.691L18.3302 18.168H12.7122C12.3982 18.168 12.1322 18.36 12.0352 18.659C11.9392 18.953 12.0442 19.274 12.2942 19.456L16.8262 22.721L15.0932 28.066C14.9952 28.363 15.0952 28.675 15.3462 28.859C15.4732 28.953 15.6202 29 15.7682 29C15.9132 29 16.0602 28.955 16.1902 28.862L20.6912 25.561L25.2332 28.862C25.4832 29.045 25.8212 29.045 26.0722 28.861C26.3262 28.676 26.4272 28.363 26.3302 28.066L24.6052 22.745L29.1282 19.456C29.3812 19.272 29.4832 18.961 29.3852 18.662ZM24.1442 22.153C23.8892 22.332 23.7842 22.664 23.8872 22.96L25.6742 28.255L21.1362 24.958C20.8812 24.767 20.5402 24.768 20.2912 24.955L15.8062 28.298L17.5372 22.959C17.6372 22.671 17.5342 22.341 17.2832 22.156L12.7122 18.918H18.3302C18.6342 18.918 18.9062 18.723 19.0092 18.426L20.2282 14.671L20.6752 13.08L22.4122 18.419C22.5012 18.713 22.7792 18.918 23.0872 18.918L28.6882 18.849L24.1442 22.153ZM24.5842 22.76L24.5822 22.766L24.5802 22.763L24.5842 22.76Z" fill="#333335"/>
<path d="M29.3852 18.662C29.2882 18.362 29.0212 18.168 28.7052 18.168L23.1272 18.193L22.3052 15.669L28.7242 8.62601C28.9432 8.38601 28.7732 8 28.4482 8C28.3422 8 28.2422 8.04399 28.1712 8.12199L22.0422 14.852L22.0402 14.854L21.3872 12.847C21.2912 12.553 21.0192 12.355 20.7092 12.355C20.7072 12.355 20.7052 12.355 20.7032 12.355C20.3932 12.358 20.1242 12.558 20.0352 12.847L19.3882 14.867L13.2512 8.12199C13.1802 8.04399 13.0802 8 12.9742 8C12.6492 8 12.4782 8.386 12.6972 8.627L19.1242 15.691L18.3302 18.168H12.7122C12.3982 18.168 12.1322 18.36 12.0352 18.659C11.9392 18.953 12.0442 19.274 12.2942 19.456L16.8262 22.721L15.0932 28.066C14.9952 28.363 15.0952 28.675 15.3462 28.859C15.4732 28.953 15.6202 29 15.7682 29C15.9132 29 16.0602 28.955 16.1902 28.862L20.6912 25.561L25.2332 28.862C25.4832 29.045 25.8212 29.045 26.0722 28.861C26.3262 28.676 26.4272 28.363 26.3302 28.066L24.6052 22.745L29.1282 19.456C29.3812 19.272 29.4832 18.961 29.3852 18.662ZM24.1442 22.153C23.8892 22.332 23.7842 22.664 23.8872 22.96L25.6742 28.255L21.1362 24.958C20.8812 24.767 20.5402 24.768 20.2912 24.955L15.8062 28.298L17.5372 22.959C17.6372 22.671 17.5342 22.341 17.2832 22.156L12.7122 18.918H18.3302C18.6342 18.918 18.9062 18.723 19.0092 18.426L20.2282 14.671L20.6752 13.08L22.4122 18.419C22.5012 18.713 22.7792 18.918 23.0872 18.918L28.6882 18.849L24.1442 22.153ZM24.5842 22.76L24.5822 22.766L24.5802 22.763L24.5842 22.76Z" fill="black" fill-opacity="0.2"/>
<path d="M29.3852 18.662C29.2882 18.362 29.0212 18.168 28.7052 18.168L23.1272 18.193L22.3052 15.669L28.7242 8.62601C28.9432 8.38601 28.7732 8 28.4482 8C28.3422 8 28.2422 8.04399 28.1712 8.12199L22.0422 14.852L22.0402 14.854L21.3872 12.847C21.2912 12.553 21.0192 12.355 20.7092 12.355C20.7072 12.355 20.7052 12.355 20.7032 12.355C20.3932 12.358 20.1242 12.558 20.0352 12.847L19.3882 14.867L13.2512 8.12199C13.1802 8.04399 13.0802 8 12.9742 8C12.6492 8 12.4782 8.386 12.6972 8.627L19.1242 15.691L18.3302 18.168H12.7122C12.3982 18.168 12.1322 18.36 12.0352 18.659C11.9392 18.953 12.0442 19.274 12.2942 19.456L16.8262 22.721L15.0932 28.066C14.9952 28.363 15.0952 28.675 15.3462 28.859C15.4732 28.953 15.6202 29 15.7682 29C15.9132 29 16.0602 28.955 16.1902 28.862L20.6912 25.561L25.2332 28.862C25.4832 29.045 25.8212 29.045 26.0722 28.861C26.3262 28.676 26.4272 28.363 26.3302 28.066L24.6052 22.745L29.1282 19.456C29.3812 19.272 29.4832 18.961 29.3852 18.662ZM24.1442 22.153C23.8892 22.332 23.7842 22.664 23.8872 22.96L25.6742 28.255L21.1362 24.958C20.8812 24.767 20.5402 24.768 20.2912 24.955L15.8062 28.298L17.5372 22.959C17.6372 22.671 17.5342 22.341 17.2832 22.156L12.7122 18.918H18.3302C18.6342 18.918 18.9062 18.723 19.0092 18.426L20.2282 14.671L20.6752 13.08L22.4122 18.419C22.5012 18.713 22.7792 18.918 23.0872 18.918L28.6882 18.849L24.1442 22.153ZM24.5842 22.76L24.5822 22.766L24.5802 22.763L24.5842 22.76Z" fill="black" fill-opacity="0.2"/>
<path d="M29.3852 18.662C29.2882 18.362 29.0212 18.168 28.7052 18.168L23.1272 18.193L22.3052 15.669L28.7242 8.62601C28.9432 8.38601 28.7732 8 28.4482 8C28.3422 8 28.2422 8.04399 28.1712 8.12199L22.0422 14.852L22.0402 14.854L21.3872 12.847C21.2912 12.553 21.0192 12.355 20.7092 12.355C20.7072 12.355 20.7052 12.355 20.7032 12.355C20.3932 12.358 20.1242 12.558 20.0352 12.847L19.3882 14.867L13.2512 8.12199C13.1802 8.04399 13.0802 8 12.9742 8C12.6492 8 12.4782 8.386 12.6972 8.627L19.1242 15.691L18.3302 18.168H12.7122C12.3982 18.168 12.1322 18.36 12.0352 18.659C11.9392 18.953 12.0442 19.274 12.2942 19.456L16.8262 22.721L15.0932 28.066C14.9952 28.363 15.0952 28.675 15.3462 28.859C15.4732 28.953 15.6202 29 15.7682 29C15.9132 29 16.0602 28.955 16.1902 28.862L20.6912 25.561L25.2332 28.862C25.4832 29.045 25.8212 29.045 26.0722 28.861C26.3262 28.676 26.4272 28.363 26.3302 28.066L24.6052 22.745L29.1282 19.456C29.3812 19.272 29.4832 18.961 29.3852 18.662ZM24.1442 22.153C23.8892 22.332 23.7842 22.664 23.8872 22.96L25.6742 28.255L21.1362 24.958C20.8812 24.767 20.5402 24.768 20.2912 24.955L15.8062 28.298L17.5372 22.959C17.6372 22.671 17.5342 22.341 17.2832 22.156L12.7122 18.918H18.3302C18.6342 18.918 18.9062 18.723 19.0092 18.426L20.2282 14.671L20.6752 13.08L22.4122 18.419C22.5012 18.713 22.7792 18.918 23.0872 18.918L28.6882 18.849L24.1442 22.153ZM24.5842 22.76L24.5822 22.766L24.5802 22.763L24.5842 22.76Z" fill="black" fill-opacity="0.2"/>
<path d="M29.3852 18.662C29.2882 18.362 29.0212 18.168 28.7052 18.168L23.1272 18.193L22.3052 15.669L28.7242 8.62601C28.9432 8.38601 28.7732 8 28.4482 8C28.3422 8 28.2422 8.04399 28.1712 8.12199L22.0422 14.852L22.0402 14.854L21.3872 12.847C21.2912 12.553 21.0192 12.355 20.7092 12.355C20.7072 12.355 20.7052 12.355 20.7032 12.355C20.3932 12.358 20.1242 12.558 20.0352 12.847L19.3882 14.867L13.2512 8.12199C13.1802 8.04399 13.0802 8 12.9742 8C12.6492 8 12.4782 8.386 12.6972 8.627L19.1242 15.691L18.3302 18.168H12.7122C12.3982 18.168 12.1322 18.36 12.0352 18.659C11.9392 18.953 12.0442 19.274 12.2942 19.456L16.8262 22.721L15.0932 28.066C14.9952 28.363 15.0952 28.675 15.3462 28.859C15.4732 28.953 15.6202 29 15.7682 29C15.9132 29 16.0602 28.955 16.1902 28.862L20.6912 25.561L25.2332 28.862C25.4832 29.045 25.8212 29.045 26.0722 28.861C26.3262 28.676 26.4272 28.363 26.3302 28.066L24.6052 22.745L29.1282 19.456C29.3812 19.272 29.4832 18.961 29.3852 18.662ZM24.1442 22.153C23.8892 22.332 23.7842 22.664 23.8872 22.96L25.6742 28.255L21.1362 24.958C20.8812 24.767 20.5402 24.768 20.2912 24.955L15.8062 28.298L17.5372 22.959C17.6372 22.671 17.5342 22.341 17.2832 22.156L12.7122 18.918H18.3302C18.6342 18.918 18.9062 18.723 19.0092 18.426L20.2282 14.671L20.6752 13.08L22.4122 18.419C22.5012 18.713 22.7792 18.918 23.0872 18.918L28.6882 18.849L24.1442 22.153ZM24.5842 22.76L24.5822 22.766L24.5802 22.763L24.5842 22.76Z" fill="black" fill-opacity="0.2"/>
<path d="M29.3852 18.662C29.2882 18.362 29.0212 18.168 28.7052 18.168L23.1272 18.193L22.3052 15.669L28.7242 8.62601C28.9432 8.38601 28.7732 8 28.4482 8C28.3422 8 28.2422 8.04399 28.1712 8.12199L22.0422 14.852L22.0402 14.854L21.3872 12.847C21.2912 12.553 21.0192 12.355 20.7092 12.355C20.7072 12.355 20.7052 12.355 20.7032 12.355C20.3932 12.358 20.1242 12.558 20.0352 12.847L19.3882 14.867L13.2512 8.12199C13.1802 8.04399 13.0802 8 12.9742 8C12.6492 8 12.4782 8.386 12.6972 8.627L19.1242 15.691L18.3302 18.168H12.7122C12.3982 18.168 12.1322 18.36 12.0352 18.659C11.9392 18.953 12.0442 19.274 12.2942 19.456L16.8262 22.721L15.0932 28.066C14.9952 28.363 15.0952 28.675 15.3462 28.859C15.4732 28.953 15.6202 29 15.7682 29C15.9132 29 16.0602 28.955 16.1902 28.862L20.6912 25.561L25.2332 28.862C25.4832 29.045 25.8212 29.045 26.0722 28.861C26.3262 28.676 26.4272 28.363 26.3302 28.066L24.6052 22.745L29.1282 19.456C29.3812 19.272 29.4832 18.961 29.3852 18.662ZM24.1442 22.153C23.8892 22.332 23.7842 22.664 23.8872 22.96L25.6742 28.255L21.1362 24.958C20.8812 24.767 20.5402 24.768 20.2912 24.955L15.8062 28.298L17.5372 22.959C17.6372 22.671 17.5342 22.341 17.2832 22.156L12.7122 18.918H18.3302C18.6342 18.918 18.9062 18.723 19.0092 18.426L20.2282 14.671L20.6752 13.08L22.4122 18.419C22.5012 18.713 22.7792 18.918 23.0872 18.918L28.6882 18.849L24.1442 22.153ZM24.5842 22.76L24.5822 22.766L24.5802 22.763L24.5842 22.76Z" fill="black" fill-opacity="0.2"/>
<path d="M29.3852 18.662C29.2882 18.362 29.0212 18.168 28.7052 18.168L23.1272 18.193L22.3052 15.669L28.7242 8.62601C28.9432 8.38601 28.7732 8 28.4482 8C28.3422 8 28.2422 8.04399 28.1712 8.12199L22.0422 14.852L22.0402 14.854L21.3872 12.847C21.2912 12.553 21.0192 12.355 20.7092 12.355C20.7072 12.355 20.7052 12.355 20.7032 12.355C20.3932 12.358 20.1242 12.558 20.0352 12.847L19.3882 14.867L13.2512 8.12199C13.1802 8.04399 13.0802 8 12.9742 8C12.6492 8 12.4782 8.386 12.6972 8.627L19.1242 15.691L18.3302 18.168H12.7122C12.3982 18.168 12.1322 18.36 12.0352 18.659C11.9392 18.953 12.0442 19.274 12.2942 19.456L16.8262 22.721L15.0932 28.066C14.9952 28.363 15.0952 28.675 15.3462 28.859C15.4732 28.953 15.6202 29 15.7682 29C15.9132 29 16.0602 28.955 16.1902 28.862L20.6912 25.561L25.2332 28.862C25.4832 29.045 25.8212 29.045 26.0722 28.861C26.3262 28.676 26.4272 28.363 26.3302 28.066L24.6052 22.745L29.1282 19.456C29.3812 19.272 29.4832 18.961 29.3852 18.662ZM24.1442 22.153C23.8892 22.332 23.7842 22.664 23.8872 22.96L25.6742 28.255L21.1362 24.958C20.8812 24.767 20.5402 24.768 20.2912 24.955L15.8062 28.298L17.5372 22.959C17.6372 22.671 17.5342 22.341 17.2832 22.156L12.7122 18.918H18.3302C18.6342 18.918 18.9062 18.723 19.0092 18.426L20.2282 14.671L20.6752 13.08L22.4122 18.419C22.5012 18.713 22.7792 18.918 23.0872 18.918L28.6882 18.849L24.1442 22.153ZM24.5842 22.76L24.5822 22.766L24.5802 22.763L24.5842 22.76Z" fill="black" fill-opacity="0.2"/>
<path d="M29.3852 18.662C29.2882 18.362 29.0212 18.168 28.7052 18.168L23.1272 18.193L22.3052 15.669L28.7242 8.62601C28.9432 8.38601 28.7732 8 28.4482 8C28.3422 8 28.2422 8.04399 28.1712 8.12199L22.0422 14.852L22.0402 14.854L21.3872 12.847C21.2912 12.553 21.0192 12.355 20.7092 12.355C20.7072 12.355 20.7052 12.355 20.7032 12.355C20.3932 12.358 20.1242 12.558 20.0352 12.847L19.3882 14.867L13.2512 8.12199C13.1802 8.04399 13.0802 8 12.9742 8C12.6492 8 12.4782 8.386 12.6972 8.627L19.1242 15.691L18.3302 18.168H12.7122C12.3982 18.168 12.1322 18.36 12.0352 18.659C11.9392 18.953 12.0442 19.274 12.2942 19.456L16.8262 22.721L15.0932 28.066C14.9952 28.363 15.0952 28.675 15.3462 28.859C15.4732 28.953 15.6202 29 15.7682 29C15.9132 29 16.0602 28.955 16.1902 28.862L20.6912 25.561L25.2332 28.862C25.4832 29.045 25.8212 29.045 26.0722 28.861C26.3262 28.676 26.4272 28.363 26.3302 28.066L24.6052 22.745L29.1282 19.456C29.3812 19.272 29.4832 18.961 29.3852 18.662ZM24.1442 22.153C23.8892 22.332 23.7842 22.664 23.8872 22.96L25.6742 28.255L21.1362 24.958C20.8812 24.767 20.5402 24.768 20.2912 24.955L15.8062 28.298L17.5372 22.959C17.6372 22.671 17.5342 22.341 17.2832 22.156L12.7122 18.918H18.3302C18.6342 18.918 18.9062 18.723 19.0092 18.426L20.2282 14.671L20.6752 13.08L22.4122 18.419C22.5012 18.713 22.7792 18.918 23.0872 18.918L28.6882 18.849L24.1442 22.153ZM24.5842 22.76L24.5822 22.766L24.5802 22.763L24.5842 22.76Z" fill="black" fill-opacity="0.2"/>
<path d="M29.3852 18.662C29.2882 18.362 29.0212 18.168 28.7052 18.168L23.1272 18.193L22.3052 15.669L28.7242 8.62601C28.9432 8.38601 28.7732 8 28.4482 8C28.3422 8 28.2422 8.04399 28.1712 8.12199L22.0422 14.852L22.0402 14.854L21.3872 12.847C21.2912 12.553 21.0192 12.355 20.7092 12.355C20.7072 12.355 20.7052 12.355 20.7032 12.355C20.3932 12.358 20.1242 12.558 20.0352 12.847L19.3882 14.867L13.2512 8.12199C13.1802 8.04399 13.0802 8 12.9742 8C12.6492 8 12.4782 8.386 12.6972 8.627L19.1242 15.691L18.3302 18.168H12.7122C12.3982 18.168 12.1322 18.36 12.0352 18.659C11.9392 18.953 12.0442 19.274 12.2942 19.456L16.8262 22.721L15.0932 28.066C14.9952 28.363 15.0952 28.675 15.3462 28.859C15.4732 28.953 15.6202 29 15.7682 29C15.9132 29 16.0602 28.955 16.1902 28.862L20.6912 25.561L25.2332 28.862C25.4832 29.045 25.8212 29.045 26.0722 28.861C26.3262 28.676 26.4272 28.363 26.3302 28.066L24.6052 22.745L29.1282 19.456C29.3812 19.272 29.4832 18.961 29.3852 18.662ZM24.1442 22.153C23.8892 22.332 23.7842 22.664 23.8872 22.96L25.6742 28.255L21.1362 24.958C20.8812 24.767 20.5402 24.768 20.2912 24.955L15.8062 28.298L17.5372 22.959C17.6372 22.671 17.5342 22.341 17.2832 22.156L12.7122 18.918H18.3302C18.6342 18.918 18.9062 18.723 19.0092 18.426L20.2282 14.671L20.6752 13.08L22.4122 18.419C22.5012 18.713 22.7792 18.918 23.0872 18.918L28.6882 18.849L24.1442 22.153ZM24.5842 22.76L24.5822 22.766L24.5802 22.763L24.5842 22.76Z" fill="black" fill-opacity="0.2"/>
</g>
</g>
</svg>
