<svg width="24" height="24" viewBox="0 0 24 24" fill="none" xmlns="http://www.w3.org/2000/svg">
<path fill-rule="evenodd" clip-rule="evenodd" d="M17.2887 1.40888C17.6152 1.66379 17.6732 2.1351 17.4183 2.46159L15.4261 5.01327C18.8128 6.387 21.2012 9.70879 21.2012 13.5884C21.2012 18.6971 17.0598 22.8384 11.9512 22.8384C6.84255 22.8384 2.70117 18.6971 2.70117 13.5884C2.70117 9.70251 5.09736 6.37626 8.49276 5.00662L6.5358 2.50016C6.28089 2.17368 6.33891 1.70236 6.6654 1.44745C6.99188 1.19254 7.4632 1.25056 7.71811 1.57705L9.84372 4.29951L9.17384 2.30635C9.04188 1.91372 9.2532 1.48845 9.64583 1.35649C10.0385 1.22453 10.4637 1.43585 10.5957 1.82848L11.4438 4.35209C11.6118 4.34301 11.781 4.33841 11.9512 4.33841C12.1198 4.33841 12.2873 4.34292 12.4537 4.35183L13.3017 1.82848C13.4337 1.43585 13.859 1.22453 14.2516 1.35649C14.6442 1.48845 14.8555 1.91372 14.7236 2.30635L14.0336 4.35931L16.236 1.53848C16.4909 1.21199 16.9622 1.15397 17.2887 1.40888ZM12.7921 5.88351C12.5159 5.8537 12.2353 5.83841 11.9512 5.83841C11.664 5.83841 11.3805 5.85403 11.1015 5.88446C11.0415 5.89925 10.9811 5.90631 10.9215 5.90621C7.12806 6.4098 4.20117 9.65731 4.20117 13.5884C4.20117 17.8686 7.67097 21.3384 11.9512 21.3384C16.2314 21.3384 19.7012 17.8686 19.7012 13.5884C19.7012 9.65725 16.7742 6.4097 12.9807 5.90619C12.9183 5.90669 12.855 5.89935 12.7921 5.88351Z" fill="#1D1F1E"/>
</svg>
