<svg width="42" height="36" viewBox="0 0 42 36" fill="none" xmlns="http://www.w3.org/2000/svg">
<g id="ring icons">
<g id="Vector">
<path d="M36.679 13.3541C36.676 13.3541 36.673 13.3541 36.671 13.3541L21.119 15.5961L5.51401 13.3501C4.12801 13.3501 3 14.4781 3 15.8641V17.6271V18.3771V20.1411C3 21.5241 4.123 22.6511 5.56 22.6511C5.562 22.6511 5.56499 22.6511 5.56699 22.6511L21.119 20.4081L36.725 22.6551C38.111 22.6551 39.239 21.5271 39.239 20.1411V18.3771V17.6271V15.8641C39.239 14.4801 38.115 13.3541 36.679 13.3541ZM38.489 20.1411C38.489 21.1141 37.697 21.9051 36.778 21.9081L21.173 19.6581L21.119 19.6511L5.51401 21.9051C4.54101 21.9051 3.75 21.1141 3.75 20.1411V18.3771H38.489V20.1411ZM38.489 17.6271H3.75V15.8641C3.75 14.8911 4.54099 14.1001 5.45999 14.0961L21.066 16.3461L21.119 16.3541L36.725 14.1001C37.697 14.1001 38.489 14.8911 38.489 15.8641V17.6271Z" fill="#333335"/>
<path d="M36.679 13.3541C36.676 13.3541 36.673 13.3541 36.671 13.3541L21.119 15.5961L5.51401 13.3501C4.12801 13.3501 3 14.4781 3 15.8641V17.6271V18.3771V20.1411C3 21.5241 4.123 22.6511 5.56 22.6511C5.562 22.6511 5.56499 22.6511 5.56699 22.6511L21.119 20.4081L36.725 22.6551C38.111 22.6551 39.239 21.5271 39.239 20.1411V18.3771V17.6271V15.8641C39.239 14.4801 38.115 13.3541 36.679 13.3541ZM38.489 20.1411C38.489 21.1141 37.697 21.9051 36.778 21.9081L21.173 19.6581L21.119 19.6511L5.51401 21.9051C4.54101 21.9051 3.75 21.1141 3.75 20.1411V18.3771H38.489V20.1411ZM38.489 17.6271H3.75V15.8641C3.75 14.8911 4.54099 14.1001 5.45999 14.0961L21.066 16.3461L21.119 16.3541L36.725 14.1001C37.697 14.1001 38.489 14.8911 38.489 15.8641V17.6271Z" fill="black" fill-opacity="0.2"/>
<path d="M36.679 13.3541C36.676 13.3541 36.673 13.3541 36.671 13.3541L21.119 15.5961L5.51401 13.3501C4.12801 13.3501 3 14.4781 3 15.8641V17.6271V18.3771V20.1411C3 21.5241 4.123 22.6511 5.56 22.6511C5.562 22.6511 5.56499 22.6511 5.56699 22.6511L21.119 20.4081L36.725 22.6551C38.111 22.6551 39.239 21.5271 39.239 20.1411V18.3771V17.6271V15.8641C39.239 14.4801 38.115 13.3541 36.679 13.3541ZM38.489 20.1411C38.489 21.1141 37.697 21.9051 36.778 21.9081L21.173 19.6581L21.119 19.6511L5.51401 21.9051C4.54101 21.9051 3.75 21.1141 3.75 20.1411V18.3771H38.489V20.1411ZM38.489 17.6271H3.75V15.8641C3.75 14.8911 4.54099 14.1001 5.45999 14.0961L21.066 16.3461L21.119 16.3541L36.725 14.1001C37.697 14.1001 38.489 14.8911 38.489 15.8641V17.6271Z" fill="black" fill-opacity="0.2"/>
<path d="M36.679 13.3541C36.676 13.3541 36.673 13.3541 36.671 13.3541L21.119 15.5961L5.51401 13.3501C4.12801 13.3501 3 14.4781 3 15.8641V17.6271V18.3771V20.1411C3 21.5241 4.123 22.6511 5.56 22.6511C5.562 22.6511 5.56499 22.6511 5.56699 22.6511L21.119 20.4081L36.725 22.6551C38.111 22.6551 39.239 21.5271 39.239 20.1411V18.3771V17.6271V15.8641C39.239 14.4801 38.115 13.3541 36.679 13.3541ZM38.489 20.1411C38.489 21.1141 37.697 21.9051 36.778 21.9081L21.173 19.6581L21.119 19.6511L5.51401 21.9051C4.54101 21.9051 3.75 21.1141 3.75 20.1411V18.3771H38.489V20.1411ZM38.489 17.6271H3.75V15.8641C3.75 14.8911 4.54099 14.1001 5.45999 14.0961L21.066 16.3461L21.119 16.3541L36.725 14.1001C37.697 14.1001 38.489 14.8911 38.489 15.8641V17.6271Z" fill="black" fill-opacity="0.2"/>
<path d="M36.679 13.3541C36.676 13.3541 36.673 13.3541 36.671 13.3541L21.119 15.5961L5.51401 13.3501C4.12801 13.3501 3 14.4781 3 15.8641V17.6271V18.3771V20.1411C3 21.5241 4.123 22.6511 5.56 22.6511C5.562 22.6511 5.56499 22.6511 5.56699 22.6511L21.119 20.4081L36.725 22.6551C38.111 22.6551 39.239 21.5271 39.239 20.1411V18.3771V17.6271V15.8641C39.239 14.4801 38.115 13.3541 36.679 13.3541ZM38.489 20.1411C38.489 21.1141 37.697 21.9051 36.778 21.9081L21.173 19.6581L21.119 19.6511L5.51401 21.9051C4.54101 21.9051 3.75 21.1141 3.75 20.1411V18.3771H38.489V20.1411ZM38.489 17.6271H3.75V15.8641C3.75 14.8911 4.54099 14.1001 5.45999 14.0961L21.066 16.3461L21.119 16.3541L36.725 14.1001C37.697 14.1001 38.489 14.8911 38.489 15.8641V17.6271Z" fill="black" fill-opacity="0.2"/>
<path d="M36.679 13.3541C36.676 13.3541 36.673 13.3541 36.671 13.3541L21.119 15.5961L5.51401 13.3501C4.12801 13.3501 3 14.4781 3 15.8641V17.6271V18.3771V20.1411C3 21.5241 4.123 22.6511 5.56 22.6511C5.562 22.6511 5.56499 22.6511 5.56699 22.6511L21.119 20.4081L36.725 22.6551C38.111 22.6551 39.239 21.5271 39.239 20.1411V18.3771V17.6271V15.8641C39.239 14.4801 38.115 13.3541 36.679 13.3541ZM38.489 20.1411C38.489 21.1141 37.697 21.9051 36.778 21.9081L21.173 19.6581L21.119 19.6511L5.51401 21.9051C4.54101 21.9051 3.75 21.1141 3.75 20.1411V18.3771H38.489V20.1411ZM38.489 17.6271H3.75V15.8641C3.75 14.8911 4.54099 14.1001 5.45999 14.0961L21.066 16.3461L21.119 16.3541L36.725 14.1001C37.697 14.1001 38.489 14.8911 38.489 15.8641V17.6271Z" fill="black" fill-opacity="0.2"/>
<path d="M36.679 13.3541C36.676 13.3541 36.673 13.3541 36.671 13.3541L21.119 15.5961L5.51401 13.3501C4.12801 13.3501 3 14.4781 3 15.8641V17.6271V18.3771V20.1411C3 21.5241 4.123 22.6511 5.56 22.6511C5.562 22.6511 5.56499 22.6511 5.56699 22.6511L21.119 20.4081L36.725 22.6551C38.111 22.6551 39.239 21.5271 39.239 20.1411V18.3771V17.6271V15.8641C39.239 14.4801 38.115 13.3541 36.679 13.3541ZM38.489 20.1411C38.489 21.1141 37.697 21.9051 36.778 21.9081L21.173 19.6581L21.119 19.6511L5.51401 21.9051C4.54101 21.9051 3.75 21.1141 3.75 20.1411V18.3771H38.489V20.1411ZM38.489 17.6271H3.75V15.8641C3.75 14.8911 4.54099 14.1001 5.45999 14.0961L21.066 16.3461L21.119 16.3541L36.725 14.1001C37.697 14.1001 38.489 14.8911 38.489 15.8641V17.6271Z" fill="black" fill-opacity="0.2"/>
<path d="M36.679 13.3541C36.676 13.3541 36.673 13.3541 36.671 13.3541L21.119 15.5961L5.51401 13.3501C4.12801 13.3501 3 14.4781 3 15.8641V17.6271V18.3771V20.1411C3 21.5241 4.123 22.6511 5.56 22.6511C5.562 22.6511 5.56499 22.6511 5.56699 22.6511L21.119 20.4081L36.725 22.6551C38.111 22.6551 39.239 21.5271 39.239 20.1411V18.3771V17.6271V15.8641C39.239 14.4801 38.115 13.3541 36.679 13.3541ZM38.489 20.1411C38.489 21.1141 37.697 21.9051 36.778 21.9081L21.173 19.6581L21.119 19.6511L5.51401 21.9051C4.54101 21.9051 3.75 21.1141 3.75 20.1411V18.3771H38.489V20.1411ZM38.489 17.6271H3.75V15.8641C3.75 14.8911 4.54099 14.1001 5.45999 14.0961L21.066 16.3461L21.119 16.3541L36.725 14.1001C37.697 14.1001 38.489 14.8911 38.489 15.8641V17.6271Z" fill="black" fill-opacity="0.2"/>
<path d="M36.679 13.3541C36.676 13.3541 36.673 13.3541 36.671 13.3541L21.119 15.5961L5.51401 13.3501C4.12801 13.3501 3 14.4781 3 15.8641V17.6271V18.3771V20.1411C3 21.5241 4.123 22.6511 5.56 22.6511C5.562 22.6511 5.56499 22.6511 5.56699 22.6511L21.119 20.4081L36.725 22.6551C38.111 22.6551 39.239 21.5271 39.239 20.1411V18.3771V17.6271V15.8641C39.239 14.4801 38.115 13.3541 36.679 13.3541ZM38.489 20.1411C38.489 21.1141 37.697 21.9051 36.778 21.9081L21.173 19.6581L21.119 19.6511L5.51401 21.9051C4.54101 21.9051 3.75 21.1141 3.75 20.1411V18.3771H38.489V20.1411ZM38.489 17.6271H3.75V15.8641C3.75 14.8911 4.54099 14.1001 5.45999 14.0961L21.066 16.3461L21.119 16.3541L36.725 14.1001C37.697 14.1001 38.489 14.8911 38.489 15.8641V17.6271Z" fill="black" fill-opacity="0.2"/>
</g>
</g>
</svg>
