<svg width="46" height="46" viewBox="0 0 46 46" fill="none" xmlns="http://www.w3.org/2000/svg">
<path d="M33.989 13.2314C32.5597 11.8062 30.6233 11.0059 28.6048 11.0059C26.5862 11.0059 24.65 11.8062 23.2205 13.2314C21.2968 11.3073 18.4927 10.5556 15.8645 11.2594C13.2363 11.9632 11.1834 14.0156 10.4787 16.6437C9.77412 19.2715 10.5251 22.0756 12.4488 23.9996L23.0666 34.9244H23.3734L33.9883 24.0027C35.4164 22.5741 36.2188 20.6367 36.2188 18.6168C36.2188 16.5969 35.4165 14.6595 33.9883 13.231L33.989 13.2314ZM32.1082 16.6126L28.7555 15.3965L27.5876 13.0467L32.3127 12.5808L32.1082 16.6126ZM20.0128 24.4775L20.922 28.1058L16.7054 27.6882L16.7056 23.2756L20.0128 24.4775ZM17.6232 19.7949L14.5403 16.9934L17.6232 15.8711V19.7949ZM19.3025 13.1123L22.4023 13.6151L18.2709 15.1779L19.3025 13.1123ZM27.1389 13.1123L28.1703 15.1778L24.039 13.6151L27.1389 13.1123ZM26.082 24.1934L23.2206 26.7221L20.3595 24.1651L18.0495 20.2214L18.0493 15.7151L23.2205 13.7771L28.3917 15.7149V20.2212L26.082 24.1934ZM25.1075 28.0092L23.5675 26.9835L25.8747 24.932L25.1075 28.0092ZM21.3342 28.0092L20.567 24.9321L22.8742 26.9836L21.3342 28.0092ZM17.8506 20.7182L19.7117 23.9089L16.7879 22.8492L17.8506 20.7182ZM23.2207 27.2532L24.988 28.4323L23.2207 34.0723L21.4534 28.4409L23.2207 27.2532ZM26.4285 24.4688L29.7357 23.2754V27.688L25.5193 28.1056L26.4285 24.4688ZM26.7297 23.9006L28.5908 20.7181L29.6535 22.8434L26.7297 23.9006ZM31.9009 16.9794L28.818 19.795V15.8711L31.9009 16.9794ZM27.0707 12.6776L23.8487 13.2288H23.8485C24.8094 12.3785 25.981 11.8026 27.241 11.5608L27.0707 12.6776ZM19.3708 12.6776L19.2003 11.5412V11.541C20.4602 11.7828 21.632 12.3588 22.5928 13.2088L19.3708 12.6776ZM17.6859 15.3826L14.3333 16.5987L14.1285 12.5809L18.8537 13.0468L17.6859 15.3826ZM17.5751 20.3122L16.4016 22.7072L11.1224 20.7184L14.1541 17.2179L17.5751 20.3122ZM16.2795 27.3247L13.2137 24.1736L16.2795 23.2558V27.3247ZM20.8483 28.5323L19.5698 30.7087L17.0864 28.1516L20.8483 28.5323ZM21.1325 28.8732L22.7379 33.9876L19.8768 31.0242L21.1325 28.8732ZM25.2865 28.8732L26.5538 31.024L23.6926 33.9762L25.2865 28.8732ZM25.5707 28.5323L29.3326 28.1544L26.8493 30.7114L25.5707 28.5323ZM30.1623 23.2561L33.2281 24.1739L30.1623 27.325V23.2561ZM28.8667 20.3268L32.2762 17.2183L35.3191 20.7186L30.054 22.7075L28.8667 20.3268ZM35.5833 20.3581L32.6508 16.988L35.2079 15.7889H35.2081C35.8207 17.2324 35.9493 18.8354 35.5746 20.3579L35.5833 20.3581ZM35.0377 15.4029L32.5373 16.5707L32.7277 12.732L32.7275 12.7318C33.0708 12.9701 33.3921 13.238 33.688 13.5329C34.2338 14.081 34.6893 14.712 35.0375 15.4027L35.0377 15.4029ZM31.8382 12.1947L27.5109 12.6351L27.6813 11.4987H27.6815C29.1053 11.3118 30.5527 11.5542 31.8382 12.1948L31.8382 12.1947ZM17.8361 11.4305C18.1451 11.4313 18.4535 11.4523 18.7595 11.493L18.93 12.6294L14.6028 12.1947C15.6064 11.6919 16.7136 11.4301 17.8362 11.4305L17.8361 11.4305ZM12.7532 13.5331V13.5329C13.0491 13.238 13.3704 12.9701 13.7137 12.7318L13.9042 16.5705L11.4038 15.4027C11.752 14.712 12.2074 14.0809 12.7533 13.5329L12.7532 13.5331ZM11.2246 15.7892L13.7816 16.9883L10.8581 20.358C10.4833 18.8354 10.6119 17.2324 11.2245 15.789L11.2246 15.7892ZM11.108 21.1537L15.8332 22.9466L12.8783 23.8444L12.7533 23.7165C12.0272 22.9904 11.4662 22.1161 11.1082 21.1537L11.108 21.1537ZM33.6853 23.7108L33.5632 23.8444L30.6083 22.9465L35.3278 21.1537C34.9686 22.1107 34.4085 22.9796 33.6853 23.7022L33.6853 23.7108Z" fill="#BA9659"/>
</svg>
