<svg width="42" height="36" viewBox="0 0 42 36" fill="none" xmlns="http://www.w3.org/2000/svg">
<g id="ring icons">
<g id="Vector">
<path d="M36.679 15.1239C36.676 15.1239 36.673 15.1239 36.671 15.1239L21.119 17.3659L5.51399 15.1199C4.12799 15.1199 3 16.2479 3 17.6339C3 19.0199 4.12799 20.1469 5.51399 20.1469H36.725C38.111 20.1469 39.239 19.0199 39.239 17.6339C39.239 16.2499 38.115 15.1239 36.679 15.1239ZM36.725 19.3969H5.51399C4.54099 19.3969 3.75 18.6059 3.75 17.6339C3.75 16.6609 4.54099 15.8699 5.45999 15.8659L21.066 18.1159L21.119 18.1239L36.725 15.8699C37.697 15.8699 38.489 16.6609 38.489 17.6339C38.489 18.6059 37.697 19.3969 36.725 19.3969Z" fill="#333335"/>
<path d="M36.679 15.1239C36.676 15.1239 36.673 15.1239 36.671 15.1239L21.119 17.3659L5.51399 15.1199C4.12799 15.1199 3 16.2479 3 17.6339C3 19.0199 4.12799 20.1469 5.51399 20.1469H36.725C38.111 20.1469 39.239 19.0199 39.239 17.6339C39.239 16.2499 38.115 15.1239 36.679 15.1239ZM36.725 19.3969H5.51399C4.54099 19.3969 3.75 18.6059 3.75 17.6339C3.75 16.6609 4.54099 15.8699 5.45999 15.8659L21.066 18.1159L21.119 18.1239L36.725 15.8699C37.697 15.8699 38.489 16.6609 38.489 17.6339C38.489 18.6059 37.697 19.3969 36.725 19.3969Z" fill="black" fill-opacity="0.2"/>
<path d="M36.679 15.1239C36.676 15.1239 36.673 15.1239 36.671 15.1239L21.119 17.3659L5.51399 15.1199C4.12799 15.1199 3 16.2479 3 17.6339C3 19.0199 4.12799 20.1469 5.51399 20.1469H36.725C38.111 20.1469 39.239 19.0199 39.239 17.6339C39.239 16.2499 38.115 15.1239 36.679 15.1239ZM36.725 19.3969H5.51399C4.54099 19.3969 3.75 18.6059 3.75 17.6339C3.75 16.6609 4.54099 15.8699 5.45999 15.8659L21.066 18.1159L21.119 18.1239L36.725 15.8699C37.697 15.8699 38.489 16.6609 38.489 17.6339C38.489 18.6059 37.697 19.3969 36.725 19.3969Z" fill="black" fill-opacity="0.2"/>
<path d="M36.679 15.1239C36.676 15.1239 36.673 15.1239 36.671 15.1239L21.119 17.3659L5.51399 15.1199C4.12799 15.1199 3 16.2479 3 17.6339C3 19.0199 4.12799 20.1469 5.51399 20.1469H36.725C38.111 20.1469 39.239 19.0199 39.239 17.6339C39.239 16.2499 38.115 15.1239 36.679 15.1239ZM36.725 19.3969H5.51399C4.54099 19.3969 3.75 18.6059 3.75 17.6339C3.75 16.6609 4.54099 15.8699 5.45999 15.8659L21.066 18.1159L21.119 18.1239L36.725 15.8699C37.697 15.8699 38.489 16.6609 38.489 17.6339C38.489 18.6059 37.697 19.3969 36.725 19.3969Z" fill="black" fill-opacity="0.2"/>
<path d="M36.679 15.1239C36.676 15.1239 36.673 15.1239 36.671 15.1239L21.119 17.3659L5.51399 15.1199C4.12799 15.1199 3 16.2479 3 17.6339C3 19.0199 4.12799 20.1469 5.51399 20.1469H36.725C38.111 20.1469 39.239 19.0199 39.239 17.6339C39.239 16.2499 38.115 15.1239 36.679 15.1239ZM36.725 19.3969H5.51399C4.54099 19.3969 3.75 18.6059 3.75 17.6339C3.75 16.6609 4.54099 15.8699 5.45999 15.8659L21.066 18.1159L21.119 18.1239L36.725 15.8699C37.697 15.8699 38.489 16.6609 38.489 17.6339C38.489 18.6059 37.697 19.3969 36.725 19.3969Z" fill="black" fill-opacity="0.2"/>
<path d="M36.679 15.1239C36.676 15.1239 36.673 15.1239 36.671 15.1239L21.119 17.3659L5.51399 15.1199C4.12799 15.1199 3 16.2479 3 17.6339C3 19.0199 4.12799 20.1469 5.51399 20.1469H36.725C38.111 20.1469 39.239 19.0199 39.239 17.6339C39.239 16.2499 38.115 15.1239 36.679 15.1239ZM36.725 19.3969H5.51399C4.54099 19.3969 3.75 18.6059 3.75 17.6339C3.75 16.6609 4.54099 15.8699 5.45999 15.8659L21.066 18.1159L21.119 18.1239L36.725 15.8699C37.697 15.8699 38.489 16.6609 38.489 17.6339C38.489 18.6059 37.697 19.3969 36.725 19.3969Z" fill="black" fill-opacity="0.2"/>
<path d="M36.679 15.1239C36.676 15.1239 36.673 15.1239 36.671 15.1239L21.119 17.3659L5.51399 15.1199C4.12799 15.1199 3 16.2479 3 17.6339C3 19.0199 4.12799 20.1469 5.51399 20.1469H36.725C38.111 20.1469 39.239 19.0199 39.239 17.6339C39.239 16.2499 38.115 15.1239 36.679 15.1239ZM36.725 19.3969H5.51399C4.54099 19.3969 3.75 18.6059 3.75 17.6339C3.75 16.6609 4.54099 15.8699 5.45999 15.8659L21.066 18.1159L21.119 18.1239L36.725 15.8699C37.697 15.8699 38.489 16.6609 38.489 17.6339C38.489 18.6059 37.697 19.3969 36.725 19.3969Z" fill="black" fill-opacity="0.2"/>
<path d="M36.679 15.1239C36.676 15.1239 36.673 15.1239 36.671 15.1239L21.119 17.3659L5.51399 15.1199C4.12799 15.1199 3 16.2479 3 17.6339C3 19.0199 4.12799 20.1469 5.51399 20.1469H36.725C38.111 20.1469 39.239 19.0199 39.239 17.6339C39.239 16.2499 38.115 15.1239 36.679 15.1239ZM36.725 19.3969H5.51399C4.54099 19.3969 3.75 18.6059 3.75 17.6339C3.75 16.6609 4.54099 15.8699 5.45999 15.8659L21.066 18.1159L21.119 18.1239L36.725 15.8699C37.697 15.8699 38.489 16.6609 38.489 17.6339C38.489 18.6059 37.697 19.3969 36.725 19.3969Z" fill="black" fill-opacity="0.2"/>
<path d="M36.679 15.1239C36.676 15.1239 36.673 15.1239 36.671 15.1239L21.119 17.3659L5.51399 15.1199C4.12799 15.1199 3 16.2479 3 17.6339C3 19.0199 4.12799 20.1469 5.51399 20.1469H36.725C38.111 20.1469 39.239 19.0199 39.239 17.6339C39.239 16.2499 38.115 15.1239 36.679 15.1239ZM36.725 19.3969H5.51399C4.54099 19.3969 3.75 18.6059 3.75 17.6339C3.75 16.6609 4.54099 15.8699 5.45999 15.8659L21.066 18.1159L21.119 18.1239L36.725 15.8699C37.697 15.8699 38.489 16.6609 38.489 17.6339C38.489 18.6059 37.697 19.3969 36.725 19.3969Z" fill="black" fill-opacity="0.2"/>
</g>
</g>
</svg>
