<svg width="37" height="11" viewBox="0 0 37 11" fill="none" xmlns="http://www.w3.org/2000/svg">
<g id="Group 25982">
<g id="Vector">
<path d="M33.725 0H2.51399C1.12799 0 0 1.12798 0 2.51398V8.10303C0 9.48803 1.12799 10.616 2.51399 10.616H33.725C35.111 10.616 36.239 9.48903 36.239 8.10303V2.51398C36.239 1.12798 35.111 0 33.725 0ZM35.489 8.10303C35.489 9.07503 34.698 9.86603 33.725 9.86603H2.51399C1.54099 9.86603 0.75 9.07503 0.75 8.10303V2.51398C0.75 1.54098 1.54099 0.75 2.51399 0.75H33.725C34.698 0.75 35.489 1.54098 35.489 2.51398V8.10303Z" fill="#333335"/>
<path d="M33.725 0H2.51399C1.12799 0 0 1.12798 0 2.51398V8.10303C0 9.48803 1.12799 10.616 2.51399 10.616H33.725C35.111 10.616 36.239 9.48903 36.239 8.10303V2.51398C36.239 1.12798 35.111 0 33.725 0ZM35.489 8.10303C35.489 9.07503 34.698 9.86603 33.725 9.86603H2.51399C1.54099 9.86603 0.75 9.07503 0.75 8.10303V2.51398C0.75 1.54098 1.54099 0.75 2.51399 0.75H33.725C34.698 0.75 35.489 1.54098 35.489 2.51398V8.10303Z" fill="black" fill-opacity="0.2"/>
<path d="M33.725 0H2.51399C1.12799 0 0 1.12798 0 2.51398V8.10303C0 9.48803 1.12799 10.616 2.51399 10.616H33.725C35.111 10.616 36.239 9.48903 36.239 8.10303V2.51398C36.239 1.12798 35.111 0 33.725 0ZM35.489 8.10303C35.489 9.07503 34.698 9.86603 33.725 9.86603H2.51399C1.54099 9.86603 0.75 9.07503 0.75 8.10303V2.51398C0.75 1.54098 1.54099 0.75 2.51399 0.75H33.725C34.698 0.75 35.489 1.54098 35.489 2.51398V8.10303Z" fill="black" fill-opacity="0.2"/>
<path d="M33.725 0H2.51399C1.12799 0 0 1.12798 0 2.51398V8.10303C0 9.48803 1.12799 10.616 2.51399 10.616H33.725C35.111 10.616 36.239 9.48903 36.239 8.10303V2.51398C36.239 1.12798 35.111 0 33.725 0ZM35.489 8.10303C35.489 9.07503 34.698 9.86603 33.725 9.86603H2.51399C1.54099 9.86603 0.75 9.07503 0.75 8.10303V2.51398C0.75 1.54098 1.54099 0.75 2.51399 0.75H33.725C34.698 0.75 35.489 1.54098 35.489 2.51398V8.10303Z" fill="black" fill-opacity="0.2"/>
<path d="M33.725 0H2.51399C1.12799 0 0 1.12798 0 2.51398V8.10303C0 9.48803 1.12799 10.616 2.51399 10.616H33.725C35.111 10.616 36.239 9.48903 36.239 8.10303V2.51398C36.239 1.12798 35.111 0 33.725 0ZM35.489 8.10303C35.489 9.07503 34.698 9.86603 33.725 9.86603H2.51399C1.54099 9.86603 0.75 9.07503 0.75 8.10303V2.51398C0.75 1.54098 1.54099 0.75 2.51399 0.75H33.725C34.698 0.75 35.489 1.54098 35.489 2.51398V8.10303Z" fill="black" fill-opacity="0.2"/>
<path d="M33.725 0H2.51399C1.12799 0 0 1.12798 0 2.51398V8.10303C0 9.48803 1.12799 10.616 2.51399 10.616H33.725C35.111 10.616 36.239 9.48903 36.239 8.10303V2.51398C36.239 1.12798 35.111 0 33.725 0ZM35.489 8.10303C35.489 9.07503 34.698 9.86603 33.725 9.86603H2.51399C1.54099 9.86603 0.75 9.07503 0.75 8.10303V2.51398C0.75 1.54098 1.54099 0.75 2.51399 0.75H33.725C34.698 0.75 35.489 1.54098 35.489 2.51398V8.10303Z" fill="black" fill-opacity="0.2"/>
<path d="M33.725 0H2.51399C1.12799 0 0 1.12798 0 2.51398V8.10303C0 9.48803 1.12799 10.616 2.51399 10.616H33.725C35.111 10.616 36.239 9.48903 36.239 8.10303V2.51398C36.239 1.12798 35.111 0 33.725 0ZM35.489 8.10303C35.489 9.07503 34.698 9.86603 33.725 9.86603H2.51399C1.54099 9.86603 0.75 9.07503 0.75 8.10303V2.51398C0.75 1.54098 1.54099 0.75 2.51399 0.75H33.725C34.698 0.75 35.489 1.54098 35.489 2.51398V8.10303Z" fill="black" fill-opacity="0.2"/>
<path d="M33.725 0H2.51399C1.12799 0 0 1.12798 0 2.51398V8.10303C0 9.48803 1.12799 10.616 2.51399 10.616H33.725C35.111 10.616 36.239 9.48903 36.239 8.10303V2.51398C36.239 1.12798 35.111 0 33.725 0ZM35.489 8.10303C35.489 9.07503 34.698 9.86603 33.725 9.86603H2.51399C1.54099 9.86603 0.75 9.07503 0.75 8.10303V2.51398C0.75 1.54098 1.54099 0.75 2.51399 0.75H33.725C34.698 0.75 35.489 1.54098 35.489 2.51398V8.10303Z" fill="black" fill-opacity="0.2"/>
<path d="M33.725 0H2.51399C1.12799 0 0 1.12798 0 2.51398V8.10303C0 9.48803 1.12799 10.616 2.51399 10.616H33.725C35.111 10.616 36.239 9.48903 36.239 8.10303V2.51398C36.239 1.12798 35.111 0 33.725 0ZM35.489 8.10303C35.489 9.07503 34.698 9.86603 33.725 9.86603H2.51399C1.54099 9.86603 0.75 9.07503 0.75 8.10303V2.51398C0.75 1.54098 1.54099 0.75 2.51399 0.75H33.725C34.698 0.75 35.489 1.54098 35.489 2.51398V8.10303Z" fill="black" fill-opacity="0.2"/>
</g>
<g id="Vector_2">
<path d="M18.1156 2C16.9676 2 15.9206 2.58202 15.3166 3.55402C14.9856 4.08002 14.8105 4.68603 14.8105 5.30603C14.8105 7.13103 16.2936 8.61603 18.1156 8.61603C19.9416 8.61603 21.4265 7.13103 21.4265 5.30603C21.4265 4.68103 21.2496 4.07401 20.9176 3.55701C20.3266 2.59701 19.2536 2 18.1156 2ZM18.1185 6.44403L17.3116 6.10999L16.9776 5.30402L17.3116 4.49701L18.1185 4.164L18.9256 4.49701L19.2596 5.30402L18.9256 6.10999L18.1185 6.44403ZM18.8755 6.33704L18.7805 6.91602L18.3076 6.57001L18.8755 6.33704ZM17.9296 6.56299L17.4505 6.91003L17.3616 6.33002L17.9296 6.56299ZM15.5946 5.633L16.1445 6.01501L15.7305 6.20001C15.6635 6.02001 15.6196 5.83 15.5946 5.633ZM15.5695 5.38898C15.5685 5.36098 15.5605 5.33403 15.5605 5.30603C15.5605 5.27703 15.5656 5.24799 15.5666 5.21899L16.3215 4.69904L16.7626 5.30402L16.3215 5.90802L15.5695 5.38898ZM15.5836 4.98401C15.6076 4.79401 15.6575 4.60798 15.7245 4.42798L16.1445 4.59198L15.5836 4.98401ZM16.5045 4.64203L17.0845 4.55402L16.8506 5.11499L16.5045 4.64203ZM16.8575 5.49298L17.0905 6.06L16.5105 5.96503L16.8575 5.49298ZM17.3616 4.271L17.4566 3.69098L17.9296 4.03699L17.3616 4.271ZM18.3076 4.04401L18.7865 3.698L18.8755 4.27698L18.3076 4.04401ZM20.1405 3.75702C20.1895 3.82202 20.2385 3.88699 20.2825 3.95599C20.3385 4.04399 20.3866 4.13598 20.4306 4.22998L20.0226 4.409L20.1405 3.75702ZM19.9816 3.57001L19.8215 4.46002L19.0766 4.34003L18.9635 3.60303L19.8596 3.44098C19.9026 3.48198 19.9416 3.52701 19.9816 3.57001ZM19.7265 4.64203L19.3855 5.11499L19.1465 4.54803L19.7265 4.64203ZM19.3855 5.49298L19.7325 5.96503L19.1465 6.06L19.3855 5.49298ZM19.4745 5.30402L19.9156 4.69904L20.6705 5.22003C20.6715 5.24903 20.6765 5.27703 20.6765 5.30603C20.6765 5.33403 20.6695 5.36098 20.6685 5.38898L19.9156 5.909L19.4745 5.30402ZM20.6445 5.62903C20.6195 5.82003 20.5775 6.00402 20.5135 6.17902L20.0925 6.01501L20.6445 5.62903ZM20.0925 4.59198L20.5045 4.40802C20.5755 4.59302 20.6285 4.78402 20.6535 4.98102L20.0925 4.59198ZM19.6696 3.28302L19.0076 3.401L19.1685 2.98401C19.3465 3.06501 19.5146 3.16402 19.6696 3.28302ZM18.9886 2.909L18.8306 3.32599L18.4426 2.771C18.6306 2.796 18.8126 2.845 18.9886 2.909ZM18.7236 3.50201L18.1185 3.94904L17.5135 3.508L18.0296 2.76099C18.0596 2.75999 18.0866 2.75 18.1156 2.75C18.1456 2.75 18.1745 2.75498 18.2045 2.75598L18.7236 3.50201ZM17.7706 2.79401L17.3996 3.33203L17.2206 2.93201C17.3976 2.86501 17.5796 2.82001 17.7706 2.79401ZM17.2225 3.401L16.5816 3.28601C16.7276 3.17401 16.8806 3.07804 17.0466 3.00104L17.2225 3.401ZM16.3716 3.44L17.2735 3.60303L17.1606 4.34601L16.4156 4.46002L16.2565 3.578C16.2965 3.534 16.3286 3.481 16.3716 3.44ZM16.2146 4.41498L15.7915 4.25299C15.8385 4.14899 15.8915 4.04799 15.9525 3.95099C15.9945 3.88499 16.0516 3.83403 16.0986 3.77203L16.2146 4.41498ZM15.8036 6.37903L16.2146 6.198L16.0956 6.85498C15.9826 6.70698 15.8836 6.54903 15.8036 6.37903ZM16.4156 6.14801L17.1595 6.26703L17.2735 7.00403L16.3726 7.16699C16.3306 7.12799 16.2916 7.088 16.2536 7.047L16.4156 6.14801ZM16.5636 7.32501L17.2296 7.20599L17.0645 7.633C16.8845 7.551 16.7186 7.44501 16.5636 7.32501ZM17.2455 7.703L17.4055 7.28198L17.7926 7.83301C17.6036 7.80901 17.4205 7.767 17.2455 7.703ZM17.5135 7.10498L18.1185 6.65802L18.7236 7.099L18.1985 7.85803C18.1705 7.85903 18.1446 7.86603 18.1156 7.86603C18.0896 7.86603 18.0646 7.85903 18.0376 7.85803L17.5135 7.10498ZM18.4536 7.83203L18.8376 7.27502L19.0235 7.69202C18.8425 7.76102 18.6516 7.80603 18.4536 7.83203ZM19.0135 7.20599L19.6725 7.32501C19.5245 7.43901 19.3666 7.53902 19.1956 7.61902L19.0135 7.20599ZM19.8636 7.16699L18.9635 7.00403L19.0766 6.26099L19.8206 6.14801L19.9836 7.04602C19.9446 7.08702 19.9056 7.12799 19.8636 7.16699ZM20.0226 6.19202L20.4465 6.35498C20.3645 6.53398 20.2606 6.699 20.1416 6.854L20.0226 6.19202Z" fill="#333335"/>
<path d="M18.1156 2C16.9676 2 15.9206 2.58202 15.3166 3.55402C14.9856 4.08002 14.8105 4.68603 14.8105 5.30603C14.8105 7.13103 16.2936 8.61603 18.1156 8.61603C19.9416 8.61603 21.4265 7.13103 21.4265 5.30603C21.4265 4.68103 21.2496 4.07401 20.9176 3.55701C20.3266 2.59701 19.2536 2 18.1156 2ZM18.1185 6.44403L17.3116 6.10999L16.9776 5.30402L17.3116 4.49701L18.1185 4.164L18.9256 4.49701L19.2596 5.30402L18.9256 6.10999L18.1185 6.44403ZM18.8755 6.33704L18.7805 6.91602L18.3076 6.57001L18.8755 6.33704ZM17.9296 6.56299L17.4505 6.91003L17.3616 6.33002L17.9296 6.56299ZM15.5946 5.633L16.1445 6.01501L15.7305 6.20001C15.6635 6.02001 15.6196 5.83 15.5946 5.633ZM15.5695 5.38898C15.5685 5.36098 15.5605 5.33403 15.5605 5.30603C15.5605 5.27703 15.5656 5.24799 15.5666 5.21899L16.3215 4.69904L16.7626 5.30402L16.3215 5.90802L15.5695 5.38898ZM15.5836 4.98401C15.6076 4.79401 15.6575 4.60798 15.7245 4.42798L16.1445 4.59198L15.5836 4.98401ZM16.5045 4.64203L17.0845 4.55402L16.8506 5.11499L16.5045 4.64203ZM16.8575 5.49298L17.0905 6.06L16.5105 5.96503L16.8575 5.49298ZM17.3616 4.271L17.4566 3.69098L17.9296 4.03699L17.3616 4.271ZM18.3076 4.04401L18.7865 3.698L18.8755 4.27698L18.3076 4.04401ZM20.1405 3.75702C20.1895 3.82202 20.2385 3.88699 20.2825 3.95599C20.3385 4.04399 20.3866 4.13598 20.4306 4.22998L20.0226 4.409L20.1405 3.75702ZM19.9816 3.57001L19.8215 4.46002L19.0766 4.34003L18.9635 3.60303L19.8596 3.44098C19.9026 3.48198 19.9416 3.52701 19.9816 3.57001ZM19.7265 4.64203L19.3855 5.11499L19.1465 4.54803L19.7265 4.64203ZM19.3855 5.49298L19.7325 5.96503L19.1465 6.06L19.3855 5.49298ZM19.4745 5.30402L19.9156 4.69904L20.6705 5.22003C20.6715 5.24903 20.6765 5.27703 20.6765 5.30603C20.6765 5.33403 20.6695 5.36098 20.6685 5.38898L19.9156 5.909L19.4745 5.30402ZM20.6445 5.62903C20.6195 5.82003 20.5775 6.00402 20.5135 6.17902L20.0925 6.01501L20.6445 5.62903ZM20.0925 4.59198L20.5045 4.40802C20.5755 4.59302 20.6285 4.78402 20.6535 4.98102L20.0925 4.59198ZM19.6696 3.28302L19.0076 3.401L19.1685 2.98401C19.3465 3.06501 19.5146 3.16402 19.6696 3.28302ZM18.9886 2.909L18.8306 3.32599L18.4426 2.771C18.6306 2.796 18.8126 2.845 18.9886 2.909ZM18.7236 3.50201L18.1185 3.94904L17.5135 3.508L18.0296 2.76099C18.0596 2.75999 18.0866 2.75 18.1156 2.75C18.1456 2.75 18.1745 2.75498 18.2045 2.75598L18.7236 3.50201ZM17.7706 2.79401L17.3996 3.33203L17.2206 2.93201C17.3976 2.86501 17.5796 2.82001 17.7706 2.79401ZM17.2225 3.401L16.5816 3.28601C16.7276 3.17401 16.8806 3.07804 17.0466 3.00104L17.2225 3.401ZM16.3716 3.44L17.2735 3.60303L17.1606 4.34601L16.4156 4.46002L16.2565 3.578C16.2965 3.534 16.3286 3.481 16.3716 3.44ZM16.2146 4.41498L15.7915 4.25299C15.8385 4.14899 15.8915 4.04799 15.9525 3.95099C15.9945 3.88499 16.0516 3.83403 16.0986 3.77203L16.2146 4.41498ZM15.8036 6.37903L16.2146 6.198L16.0956 6.85498C15.9826 6.70698 15.8836 6.54903 15.8036 6.37903ZM16.4156 6.14801L17.1595 6.26703L17.2735 7.00403L16.3726 7.16699C16.3306 7.12799 16.2916 7.088 16.2536 7.047L16.4156 6.14801ZM16.5636 7.32501L17.2296 7.20599L17.0645 7.633C16.8845 7.551 16.7186 7.44501 16.5636 7.32501ZM17.2455 7.703L17.4055 7.28198L17.7926 7.83301C17.6036 7.80901 17.4205 7.767 17.2455 7.703ZM17.5135 7.10498L18.1185 6.65802L18.7236 7.099L18.1985 7.85803C18.1705 7.85903 18.1446 7.86603 18.1156 7.86603C18.0896 7.86603 18.0646 7.85903 18.0376 7.85803L17.5135 7.10498ZM18.4536 7.83203L18.8376 7.27502L19.0235 7.69202C18.8425 7.76102 18.6516 7.80603 18.4536 7.83203ZM19.0135 7.20599L19.6725 7.32501C19.5245 7.43901 19.3666 7.53902 19.1956 7.61902L19.0135 7.20599ZM19.8636 7.16699L18.9635 7.00403L19.0766 6.26099L19.8206 6.14801L19.9836 7.04602C19.9446 7.08702 19.9056 7.12799 19.8636 7.16699ZM20.0226 6.19202L20.4465 6.35498C20.3645 6.53398 20.2606 6.699 20.1416 6.854L20.0226 6.19202Z" fill="black" fill-opacity="0.2"/>
<path d="M18.1156 2C16.9676 2 15.9206 2.58202 15.3166 3.55402C14.9856 4.08002 14.8105 4.68603 14.8105 5.30603C14.8105 7.13103 16.2936 8.61603 18.1156 8.61603C19.9416 8.61603 21.4265 7.13103 21.4265 5.30603C21.4265 4.68103 21.2496 4.07401 20.9176 3.55701C20.3266 2.59701 19.2536 2 18.1156 2ZM18.1185 6.44403L17.3116 6.10999L16.9776 5.30402L17.3116 4.49701L18.1185 4.164L18.9256 4.49701L19.2596 5.30402L18.9256 6.10999L18.1185 6.44403ZM18.8755 6.33704L18.7805 6.91602L18.3076 6.57001L18.8755 6.33704ZM17.9296 6.56299L17.4505 6.91003L17.3616 6.33002L17.9296 6.56299ZM15.5946 5.633L16.1445 6.01501L15.7305 6.20001C15.6635 6.02001 15.6196 5.83 15.5946 5.633ZM15.5695 5.38898C15.5685 5.36098 15.5605 5.33403 15.5605 5.30603C15.5605 5.27703 15.5656 5.24799 15.5666 5.21899L16.3215 4.69904L16.7626 5.30402L16.3215 5.90802L15.5695 5.38898ZM15.5836 4.98401C15.6076 4.79401 15.6575 4.60798 15.7245 4.42798L16.1445 4.59198L15.5836 4.98401ZM16.5045 4.64203L17.0845 4.55402L16.8506 5.11499L16.5045 4.64203ZM16.8575 5.49298L17.0905 6.06L16.5105 5.96503L16.8575 5.49298ZM17.3616 4.271L17.4566 3.69098L17.9296 4.03699L17.3616 4.271ZM18.3076 4.04401L18.7865 3.698L18.8755 4.27698L18.3076 4.04401ZM20.1405 3.75702C20.1895 3.82202 20.2385 3.88699 20.2825 3.95599C20.3385 4.04399 20.3866 4.13598 20.4306 4.22998L20.0226 4.409L20.1405 3.75702ZM19.9816 3.57001L19.8215 4.46002L19.0766 4.34003L18.9635 3.60303L19.8596 3.44098C19.9026 3.48198 19.9416 3.52701 19.9816 3.57001ZM19.7265 4.64203L19.3855 5.11499L19.1465 4.54803L19.7265 4.64203ZM19.3855 5.49298L19.7325 5.96503L19.1465 6.06L19.3855 5.49298ZM19.4745 5.30402L19.9156 4.69904L20.6705 5.22003C20.6715 5.24903 20.6765 5.27703 20.6765 5.30603C20.6765 5.33403 20.6695 5.36098 20.6685 5.38898L19.9156 5.909L19.4745 5.30402ZM20.6445 5.62903C20.6195 5.82003 20.5775 6.00402 20.5135 6.17902L20.0925 6.01501L20.6445 5.62903ZM20.0925 4.59198L20.5045 4.40802C20.5755 4.59302 20.6285 4.78402 20.6535 4.98102L20.0925 4.59198ZM19.6696 3.28302L19.0076 3.401L19.1685 2.98401C19.3465 3.06501 19.5146 3.16402 19.6696 3.28302ZM18.9886 2.909L18.8306 3.32599L18.4426 2.771C18.6306 2.796 18.8126 2.845 18.9886 2.909ZM18.7236 3.50201L18.1185 3.94904L17.5135 3.508L18.0296 2.76099C18.0596 2.75999 18.0866 2.75 18.1156 2.75C18.1456 2.75 18.1745 2.75498 18.2045 2.75598L18.7236 3.50201ZM17.7706 2.79401L17.3996 3.33203L17.2206 2.93201C17.3976 2.86501 17.5796 2.82001 17.7706 2.79401ZM17.2225 3.401L16.5816 3.28601C16.7276 3.17401 16.8806 3.07804 17.0466 3.00104L17.2225 3.401ZM16.3716 3.44L17.2735 3.60303L17.1606 4.34601L16.4156 4.46002L16.2565 3.578C16.2965 3.534 16.3286 3.481 16.3716 3.44ZM16.2146 4.41498L15.7915 4.25299C15.8385 4.14899 15.8915 4.04799 15.9525 3.95099C15.9945 3.88499 16.0516 3.83403 16.0986 3.77203L16.2146 4.41498ZM15.8036 6.37903L16.2146 6.198L16.0956 6.85498C15.9826 6.70698 15.8836 6.54903 15.8036 6.37903ZM16.4156 6.14801L17.1595 6.26703L17.2735 7.00403L16.3726 7.16699C16.3306 7.12799 16.2916 7.088 16.2536 7.047L16.4156 6.14801ZM16.5636 7.32501L17.2296 7.20599L17.0645 7.633C16.8845 7.551 16.7186 7.44501 16.5636 7.32501ZM17.2455 7.703L17.4055 7.28198L17.7926 7.83301C17.6036 7.80901 17.4205 7.767 17.2455 7.703ZM17.5135 7.10498L18.1185 6.65802L18.7236 7.099L18.1985 7.85803C18.1705 7.85903 18.1446 7.86603 18.1156 7.86603C18.0896 7.86603 18.0646 7.85903 18.0376 7.85803L17.5135 7.10498ZM18.4536 7.83203L18.8376 7.27502L19.0235 7.69202C18.8425 7.76102 18.6516 7.80603 18.4536 7.83203ZM19.0135 7.20599L19.6725 7.32501C19.5245 7.43901 19.3666 7.53902 19.1956 7.61902L19.0135 7.20599ZM19.8636 7.16699L18.9635 7.00403L19.0766 6.26099L19.8206 6.14801L19.9836 7.04602C19.9446 7.08702 19.9056 7.12799 19.8636 7.16699ZM20.0226 6.19202L20.4465 6.35498C20.3645 6.53398 20.2606 6.699 20.1416 6.854L20.0226 6.19202Z" fill="black" fill-opacity="0.2"/>
<path d="M18.1156 2C16.9676 2 15.9206 2.58202 15.3166 3.55402C14.9856 4.08002 14.8105 4.68603 14.8105 5.30603C14.8105 7.13103 16.2936 8.61603 18.1156 8.61603C19.9416 8.61603 21.4265 7.13103 21.4265 5.30603C21.4265 4.68103 21.2496 4.07401 20.9176 3.55701C20.3266 2.59701 19.2536 2 18.1156 2ZM18.1185 6.44403L17.3116 6.10999L16.9776 5.30402L17.3116 4.49701L18.1185 4.164L18.9256 4.49701L19.2596 5.30402L18.9256 6.10999L18.1185 6.44403ZM18.8755 6.33704L18.7805 6.91602L18.3076 6.57001L18.8755 6.33704ZM17.9296 6.56299L17.4505 6.91003L17.3616 6.33002L17.9296 6.56299ZM15.5946 5.633L16.1445 6.01501L15.7305 6.20001C15.6635 6.02001 15.6196 5.83 15.5946 5.633ZM15.5695 5.38898C15.5685 5.36098 15.5605 5.33403 15.5605 5.30603C15.5605 5.27703 15.5656 5.24799 15.5666 5.21899L16.3215 4.69904L16.7626 5.30402L16.3215 5.90802L15.5695 5.38898ZM15.5836 4.98401C15.6076 4.79401 15.6575 4.60798 15.7245 4.42798L16.1445 4.59198L15.5836 4.98401ZM16.5045 4.64203L17.0845 4.55402L16.8506 5.11499L16.5045 4.64203ZM16.8575 5.49298L17.0905 6.06L16.5105 5.96503L16.8575 5.49298ZM17.3616 4.271L17.4566 3.69098L17.9296 4.03699L17.3616 4.271ZM18.3076 4.04401L18.7865 3.698L18.8755 4.27698L18.3076 4.04401ZM20.1405 3.75702C20.1895 3.82202 20.2385 3.88699 20.2825 3.95599C20.3385 4.04399 20.3866 4.13598 20.4306 4.22998L20.0226 4.409L20.1405 3.75702ZM19.9816 3.57001L19.8215 4.46002L19.0766 4.34003L18.9635 3.60303L19.8596 3.44098C19.9026 3.48198 19.9416 3.52701 19.9816 3.57001ZM19.7265 4.64203L19.3855 5.11499L19.1465 4.54803L19.7265 4.64203ZM19.3855 5.49298L19.7325 5.96503L19.1465 6.06L19.3855 5.49298ZM19.4745 5.30402L19.9156 4.69904L20.6705 5.22003C20.6715 5.24903 20.6765 5.27703 20.6765 5.30603C20.6765 5.33403 20.6695 5.36098 20.6685 5.38898L19.9156 5.909L19.4745 5.30402ZM20.6445 5.62903C20.6195 5.82003 20.5775 6.00402 20.5135 6.17902L20.0925 6.01501L20.6445 5.62903ZM20.0925 4.59198L20.5045 4.40802C20.5755 4.59302 20.6285 4.78402 20.6535 4.98102L20.0925 4.59198ZM19.6696 3.28302L19.0076 3.401L19.1685 2.98401C19.3465 3.06501 19.5146 3.16402 19.6696 3.28302ZM18.9886 2.909L18.8306 3.32599L18.4426 2.771C18.6306 2.796 18.8126 2.845 18.9886 2.909ZM18.7236 3.50201L18.1185 3.94904L17.5135 3.508L18.0296 2.76099C18.0596 2.75999 18.0866 2.75 18.1156 2.75C18.1456 2.75 18.1745 2.75498 18.2045 2.75598L18.7236 3.50201ZM17.7706 2.79401L17.3996 3.33203L17.2206 2.93201C17.3976 2.86501 17.5796 2.82001 17.7706 2.79401ZM17.2225 3.401L16.5816 3.28601C16.7276 3.17401 16.8806 3.07804 17.0466 3.00104L17.2225 3.401ZM16.3716 3.44L17.2735 3.60303L17.1606 4.34601L16.4156 4.46002L16.2565 3.578C16.2965 3.534 16.3286 3.481 16.3716 3.44ZM16.2146 4.41498L15.7915 4.25299C15.8385 4.14899 15.8915 4.04799 15.9525 3.95099C15.9945 3.88499 16.0516 3.83403 16.0986 3.77203L16.2146 4.41498ZM15.8036 6.37903L16.2146 6.198L16.0956 6.85498C15.9826 6.70698 15.8836 6.54903 15.8036 6.37903ZM16.4156 6.14801L17.1595 6.26703L17.2735 7.00403L16.3726 7.16699C16.3306 7.12799 16.2916 7.088 16.2536 7.047L16.4156 6.14801ZM16.5636 7.32501L17.2296 7.20599L17.0645 7.633C16.8845 7.551 16.7186 7.44501 16.5636 7.32501ZM17.2455 7.703L17.4055 7.28198L17.7926 7.83301C17.6036 7.80901 17.4205 7.767 17.2455 7.703ZM17.5135 7.10498L18.1185 6.65802L18.7236 7.099L18.1985 7.85803C18.1705 7.85903 18.1446 7.86603 18.1156 7.86603C18.0896 7.86603 18.0646 7.85903 18.0376 7.85803L17.5135 7.10498ZM18.4536 7.83203L18.8376 7.27502L19.0235 7.69202C18.8425 7.76102 18.6516 7.80603 18.4536 7.83203ZM19.0135 7.20599L19.6725 7.32501C19.5245 7.43901 19.3666 7.53902 19.1956 7.61902L19.0135 7.20599ZM19.8636 7.16699L18.9635 7.00403L19.0766 6.26099L19.8206 6.14801L19.9836 7.04602C19.9446 7.08702 19.9056 7.12799 19.8636 7.16699ZM20.0226 6.19202L20.4465 6.35498C20.3645 6.53398 20.2606 6.699 20.1416 6.854L20.0226 6.19202Z" fill="black" fill-opacity="0.2"/>
<path d="M18.1156 2C16.9676 2 15.9206 2.58202 15.3166 3.55402C14.9856 4.08002 14.8105 4.68603 14.8105 5.30603C14.8105 7.13103 16.2936 8.61603 18.1156 8.61603C19.9416 8.61603 21.4265 7.13103 21.4265 5.30603C21.4265 4.68103 21.2496 4.07401 20.9176 3.55701C20.3266 2.59701 19.2536 2 18.1156 2ZM18.1185 6.44403L17.3116 6.10999L16.9776 5.30402L17.3116 4.49701L18.1185 4.164L18.9256 4.49701L19.2596 5.30402L18.9256 6.10999L18.1185 6.44403ZM18.8755 6.33704L18.7805 6.91602L18.3076 6.57001L18.8755 6.33704ZM17.9296 6.56299L17.4505 6.91003L17.3616 6.33002L17.9296 6.56299ZM15.5946 5.633L16.1445 6.01501L15.7305 6.20001C15.6635 6.02001 15.6196 5.83 15.5946 5.633ZM15.5695 5.38898C15.5685 5.36098 15.5605 5.33403 15.5605 5.30603C15.5605 5.27703 15.5656 5.24799 15.5666 5.21899L16.3215 4.69904L16.7626 5.30402L16.3215 5.90802L15.5695 5.38898ZM15.5836 4.98401C15.6076 4.79401 15.6575 4.60798 15.7245 4.42798L16.1445 4.59198L15.5836 4.98401ZM16.5045 4.64203L17.0845 4.55402L16.8506 5.11499L16.5045 4.64203ZM16.8575 5.49298L17.0905 6.06L16.5105 5.96503L16.8575 5.49298ZM17.3616 4.271L17.4566 3.69098L17.9296 4.03699L17.3616 4.271ZM18.3076 4.04401L18.7865 3.698L18.8755 4.27698L18.3076 4.04401ZM20.1405 3.75702C20.1895 3.82202 20.2385 3.88699 20.2825 3.95599C20.3385 4.04399 20.3866 4.13598 20.4306 4.22998L20.0226 4.409L20.1405 3.75702ZM19.9816 3.57001L19.8215 4.46002L19.0766 4.34003L18.9635 3.60303L19.8596 3.44098C19.9026 3.48198 19.9416 3.52701 19.9816 3.57001ZM19.7265 4.64203L19.3855 5.11499L19.1465 4.54803L19.7265 4.64203ZM19.3855 5.49298L19.7325 5.96503L19.1465 6.06L19.3855 5.49298ZM19.4745 5.30402L19.9156 4.69904L20.6705 5.22003C20.6715 5.24903 20.6765 5.27703 20.6765 5.30603C20.6765 5.33403 20.6695 5.36098 20.6685 5.38898L19.9156 5.909L19.4745 5.30402ZM20.6445 5.62903C20.6195 5.82003 20.5775 6.00402 20.5135 6.17902L20.0925 6.01501L20.6445 5.62903ZM20.0925 4.59198L20.5045 4.40802C20.5755 4.59302 20.6285 4.78402 20.6535 4.98102L20.0925 4.59198ZM19.6696 3.28302L19.0076 3.401L19.1685 2.98401C19.3465 3.06501 19.5146 3.16402 19.6696 3.28302ZM18.9886 2.909L18.8306 3.32599L18.4426 2.771C18.6306 2.796 18.8126 2.845 18.9886 2.909ZM18.7236 3.50201L18.1185 3.94904L17.5135 3.508L18.0296 2.76099C18.0596 2.75999 18.0866 2.75 18.1156 2.75C18.1456 2.75 18.1745 2.75498 18.2045 2.75598L18.7236 3.50201ZM17.7706 2.79401L17.3996 3.33203L17.2206 2.93201C17.3976 2.86501 17.5796 2.82001 17.7706 2.79401ZM17.2225 3.401L16.5816 3.28601C16.7276 3.17401 16.8806 3.07804 17.0466 3.00104L17.2225 3.401ZM16.3716 3.44L17.2735 3.60303L17.1606 4.34601L16.4156 4.46002L16.2565 3.578C16.2965 3.534 16.3286 3.481 16.3716 3.44ZM16.2146 4.41498L15.7915 4.25299C15.8385 4.14899 15.8915 4.04799 15.9525 3.95099C15.9945 3.88499 16.0516 3.83403 16.0986 3.77203L16.2146 4.41498ZM15.8036 6.37903L16.2146 6.198L16.0956 6.85498C15.9826 6.70698 15.8836 6.54903 15.8036 6.37903ZM16.4156 6.14801L17.1595 6.26703L17.2735 7.00403L16.3726 7.16699C16.3306 7.12799 16.2916 7.088 16.2536 7.047L16.4156 6.14801ZM16.5636 7.32501L17.2296 7.20599L17.0645 7.633C16.8845 7.551 16.7186 7.44501 16.5636 7.32501ZM17.2455 7.703L17.4055 7.28198L17.7926 7.83301C17.6036 7.80901 17.4205 7.767 17.2455 7.703ZM17.5135 7.10498L18.1185 6.65802L18.7236 7.099L18.1985 7.85803C18.1705 7.85903 18.1446 7.86603 18.1156 7.86603C18.0896 7.86603 18.0646 7.85903 18.0376 7.85803L17.5135 7.10498ZM18.4536 7.83203L18.8376 7.27502L19.0235 7.69202C18.8425 7.76102 18.6516 7.80603 18.4536 7.83203ZM19.0135 7.20599L19.6725 7.32501C19.5245 7.43901 19.3666 7.53902 19.1956 7.61902L19.0135 7.20599ZM19.8636 7.16699L18.9635 7.00403L19.0766 6.26099L19.8206 6.14801L19.9836 7.04602C19.9446 7.08702 19.9056 7.12799 19.8636 7.16699ZM20.0226 6.19202L20.4465 6.35498C20.3645 6.53398 20.2606 6.699 20.1416 6.854L20.0226 6.19202Z" fill="black" fill-opacity="0.2"/>
<path d="M18.1156 2C16.9676 2 15.9206 2.58202 15.3166 3.55402C14.9856 4.08002 14.8105 4.68603 14.8105 5.30603C14.8105 7.13103 16.2936 8.61603 18.1156 8.61603C19.9416 8.61603 21.4265 7.13103 21.4265 5.30603C21.4265 4.68103 21.2496 4.07401 20.9176 3.55701C20.3266 2.59701 19.2536 2 18.1156 2ZM18.1185 6.44403L17.3116 6.10999L16.9776 5.30402L17.3116 4.49701L18.1185 4.164L18.9256 4.49701L19.2596 5.30402L18.9256 6.10999L18.1185 6.44403ZM18.8755 6.33704L18.7805 6.91602L18.3076 6.57001L18.8755 6.33704ZM17.9296 6.56299L17.4505 6.91003L17.3616 6.33002L17.9296 6.56299ZM15.5946 5.633L16.1445 6.01501L15.7305 6.20001C15.6635 6.02001 15.6196 5.83 15.5946 5.633ZM15.5695 5.38898C15.5685 5.36098 15.5605 5.33403 15.5605 5.30603C15.5605 5.27703 15.5656 5.24799 15.5666 5.21899L16.3215 4.69904L16.7626 5.30402L16.3215 5.90802L15.5695 5.38898ZM15.5836 4.98401C15.6076 4.79401 15.6575 4.60798 15.7245 4.42798L16.1445 4.59198L15.5836 4.98401ZM16.5045 4.64203L17.0845 4.55402L16.8506 5.11499L16.5045 4.64203ZM16.8575 5.49298L17.0905 6.06L16.5105 5.96503L16.8575 5.49298ZM17.3616 4.271L17.4566 3.69098L17.9296 4.03699L17.3616 4.271ZM18.3076 4.04401L18.7865 3.698L18.8755 4.27698L18.3076 4.04401ZM20.1405 3.75702C20.1895 3.82202 20.2385 3.88699 20.2825 3.95599C20.3385 4.04399 20.3866 4.13598 20.4306 4.22998L20.0226 4.409L20.1405 3.75702ZM19.9816 3.57001L19.8215 4.46002L19.0766 4.34003L18.9635 3.60303L19.8596 3.44098C19.9026 3.48198 19.9416 3.52701 19.9816 3.57001ZM19.7265 4.64203L19.3855 5.11499L19.1465 4.54803L19.7265 4.64203ZM19.3855 5.49298L19.7325 5.96503L19.1465 6.06L19.3855 5.49298ZM19.4745 5.30402L19.9156 4.69904L20.6705 5.22003C20.6715 5.24903 20.6765 5.27703 20.6765 5.30603C20.6765 5.33403 20.6695 5.36098 20.6685 5.38898L19.9156 5.909L19.4745 5.30402ZM20.6445 5.62903C20.6195 5.82003 20.5775 6.00402 20.5135 6.17902L20.0925 6.01501L20.6445 5.62903ZM20.0925 4.59198L20.5045 4.40802C20.5755 4.59302 20.6285 4.78402 20.6535 4.98102L20.0925 4.59198ZM19.6696 3.28302L19.0076 3.401L19.1685 2.98401C19.3465 3.06501 19.5146 3.16402 19.6696 3.28302ZM18.9886 2.909L18.8306 3.32599L18.4426 2.771C18.6306 2.796 18.8126 2.845 18.9886 2.909ZM18.7236 3.50201L18.1185 3.94904L17.5135 3.508L18.0296 2.76099C18.0596 2.75999 18.0866 2.75 18.1156 2.75C18.1456 2.75 18.1745 2.75498 18.2045 2.75598L18.7236 3.50201ZM17.7706 2.79401L17.3996 3.33203L17.2206 2.93201C17.3976 2.86501 17.5796 2.82001 17.7706 2.79401ZM17.2225 3.401L16.5816 3.28601C16.7276 3.17401 16.8806 3.07804 17.0466 3.00104L17.2225 3.401ZM16.3716 3.44L17.2735 3.60303L17.1606 4.34601L16.4156 4.46002L16.2565 3.578C16.2965 3.534 16.3286 3.481 16.3716 3.44ZM16.2146 4.41498L15.7915 4.25299C15.8385 4.14899 15.8915 4.04799 15.9525 3.95099C15.9945 3.88499 16.0516 3.83403 16.0986 3.77203L16.2146 4.41498ZM15.8036 6.37903L16.2146 6.198L16.0956 6.85498C15.9826 6.70698 15.8836 6.54903 15.8036 6.37903ZM16.4156 6.14801L17.1595 6.26703L17.2735 7.00403L16.3726 7.16699C16.3306 7.12799 16.2916 7.088 16.2536 7.047L16.4156 6.14801ZM16.5636 7.32501L17.2296 7.20599L17.0645 7.633C16.8845 7.551 16.7186 7.44501 16.5636 7.32501ZM17.2455 7.703L17.4055 7.28198L17.7926 7.83301C17.6036 7.80901 17.4205 7.767 17.2455 7.703ZM17.5135 7.10498L18.1185 6.65802L18.7236 7.099L18.1985 7.85803C18.1705 7.85903 18.1446 7.86603 18.1156 7.86603C18.0896 7.86603 18.0646 7.85903 18.0376 7.85803L17.5135 7.10498ZM18.4536 7.83203L18.8376 7.27502L19.0235 7.69202C18.8425 7.76102 18.6516 7.80603 18.4536 7.83203ZM19.0135 7.20599L19.6725 7.32501C19.5245 7.43901 19.3666 7.53902 19.1956 7.61902L19.0135 7.20599ZM19.8636 7.16699L18.9635 7.00403L19.0766 6.26099L19.8206 6.14801L19.9836 7.04602C19.9446 7.08702 19.9056 7.12799 19.8636 7.16699ZM20.0226 6.19202L20.4465 6.35498C20.3645 6.53398 20.2606 6.699 20.1416 6.854L20.0226 6.19202Z" fill="black" fill-opacity="0.2"/>
<path d="M18.1156 2C16.9676 2 15.9206 2.58202 15.3166 3.55402C14.9856 4.08002 14.8105 4.68603 14.8105 5.30603C14.8105 7.13103 16.2936 8.61603 18.1156 8.61603C19.9416 8.61603 21.4265 7.13103 21.4265 5.30603C21.4265 4.68103 21.2496 4.07401 20.9176 3.55701C20.3266 2.59701 19.2536 2 18.1156 2ZM18.1185 6.44403L17.3116 6.10999L16.9776 5.30402L17.3116 4.49701L18.1185 4.164L18.9256 4.49701L19.2596 5.30402L18.9256 6.10999L18.1185 6.44403ZM18.8755 6.33704L18.7805 6.91602L18.3076 6.57001L18.8755 6.33704ZM17.9296 6.56299L17.4505 6.91003L17.3616 6.33002L17.9296 6.56299ZM15.5946 5.633L16.1445 6.01501L15.7305 6.20001C15.6635 6.02001 15.6196 5.83 15.5946 5.633ZM15.5695 5.38898C15.5685 5.36098 15.5605 5.33403 15.5605 5.30603C15.5605 5.27703 15.5656 5.24799 15.5666 5.21899L16.3215 4.69904L16.7626 5.30402L16.3215 5.90802L15.5695 5.38898ZM15.5836 4.98401C15.6076 4.79401 15.6575 4.60798 15.7245 4.42798L16.1445 4.59198L15.5836 4.98401ZM16.5045 4.64203L17.0845 4.55402L16.8506 5.11499L16.5045 4.64203ZM16.8575 5.49298L17.0905 6.06L16.5105 5.96503L16.8575 5.49298ZM17.3616 4.271L17.4566 3.69098L17.9296 4.03699L17.3616 4.271ZM18.3076 4.04401L18.7865 3.698L18.8755 4.27698L18.3076 4.04401ZM20.1405 3.75702C20.1895 3.82202 20.2385 3.88699 20.2825 3.95599C20.3385 4.04399 20.3866 4.13598 20.4306 4.22998L20.0226 4.409L20.1405 3.75702ZM19.9816 3.57001L19.8215 4.46002L19.0766 4.34003L18.9635 3.60303L19.8596 3.44098C19.9026 3.48198 19.9416 3.52701 19.9816 3.57001ZM19.7265 4.64203L19.3855 5.11499L19.1465 4.54803L19.7265 4.64203ZM19.3855 5.49298L19.7325 5.96503L19.1465 6.06L19.3855 5.49298ZM19.4745 5.30402L19.9156 4.69904L20.6705 5.22003C20.6715 5.24903 20.6765 5.27703 20.6765 5.30603C20.6765 5.33403 20.6695 5.36098 20.6685 5.38898L19.9156 5.909L19.4745 5.30402ZM20.6445 5.62903C20.6195 5.82003 20.5775 6.00402 20.5135 6.17902L20.0925 6.01501L20.6445 5.62903ZM20.0925 4.59198L20.5045 4.40802C20.5755 4.59302 20.6285 4.78402 20.6535 4.98102L20.0925 4.59198ZM19.6696 3.28302L19.0076 3.401L19.1685 2.98401C19.3465 3.06501 19.5146 3.16402 19.6696 3.28302ZM18.9886 2.909L18.8306 3.32599L18.4426 2.771C18.6306 2.796 18.8126 2.845 18.9886 2.909ZM18.7236 3.50201L18.1185 3.94904L17.5135 3.508L18.0296 2.76099C18.0596 2.75999 18.0866 2.75 18.1156 2.75C18.1456 2.75 18.1745 2.75498 18.2045 2.75598L18.7236 3.50201ZM17.7706 2.79401L17.3996 3.33203L17.2206 2.93201C17.3976 2.86501 17.5796 2.82001 17.7706 2.79401ZM17.2225 3.401L16.5816 3.28601C16.7276 3.17401 16.8806 3.07804 17.0466 3.00104L17.2225 3.401ZM16.3716 3.44L17.2735 3.60303L17.1606 4.34601L16.4156 4.46002L16.2565 3.578C16.2965 3.534 16.3286 3.481 16.3716 3.44ZM16.2146 4.41498L15.7915 4.25299C15.8385 4.14899 15.8915 4.04799 15.9525 3.95099C15.9945 3.88499 16.0516 3.83403 16.0986 3.77203L16.2146 4.41498ZM15.8036 6.37903L16.2146 6.198L16.0956 6.85498C15.9826 6.70698 15.8836 6.54903 15.8036 6.37903ZM16.4156 6.14801L17.1595 6.26703L17.2735 7.00403L16.3726 7.16699C16.3306 7.12799 16.2916 7.088 16.2536 7.047L16.4156 6.14801ZM16.5636 7.32501L17.2296 7.20599L17.0645 7.633C16.8845 7.551 16.7186 7.44501 16.5636 7.32501ZM17.2455 7.703L17.4055 7.28198L17.7926 7.83301C17.6036 7.80901 17.4205 7.767 17.2455 7.703ZM17.5135 7.10498L18.1185 6.65802L18.7236 7.099L18.1985 7.85803C18.1705 7.85903 18.1446 7.86603 18.1156 7.86603C18.0896 7.86603 18.0646 7.85903 18.0376 7.85803L17.5135 7.10498ZM18.4536 7.83203L18.8376 7.27502L19.0235 7.69202C18.8425 7.76102 18.6516 7.80603 18.4536 7.83203ZM19.0135 7.20599L19.6725 7.32501C19.5245 7.43901 19.3666 7.53902 19.1956 7.61902L19.0135 7.20599ZM19.8636 7.16699L18.9635 7.00403L19.0766 6.26099L19.8206 6.14801L19.9836 7.04602C19.9446 7.08702 19.9056 7.12799 19.8636 7.16699ZM20.0226 6.19202L20.4465 6.35498C20.3645 6.53398 20.2606 6.699 20.1416 6.854L20.0226 6.19202Z" fill="black" fill-opacity="0.2"/>
<path d="M18.1156 2C16.9676 2 15.9206 2.58202 15.3166 3.55402C14.9856 4.08002 14.8105 4.68603 14.8105 5.30603C14.8105 7.13103 16.2936 8.61603 18.1156 8.61603C19.9416 8.61603 21.4265 7.13103 21.4265 5.30603C21.4265 4.68103 21.2496 4.07401 20.9176 3.55701C20.3266 2.59701 19.2536 2 18.1156 2ZM18.1185 6.44403L17.3116 6.10999L16.9776 5.30402L17.3116 4.49701L18.1185 4.164L18.9256 4.49701L19.2596 5.30402L18.9256 6.10999L18.1185 6.44403ZM18.8755 6.33704L18.7805 6.91602L18.3076 6.57001L18.8755 6.33704ZM17.9296 6.56299L17.4505 6.91003L17.3616 6.33002L17.9296 6.56299ZM15.5946 5.633L16.1445 6.01501L15.7305 6.20001C15.6635 6.02001 15.6196 5.83 15.5946 5.633ZM15.5695 5.38898C15.5685 5.36098 15.5605 5.33403 15.5605 5.30603C15.5605 5.27703 15.5656 5.24799 15.5666 5.21899L16.3215 4.69904L16.7626 5.30402L16.3215 5.90802L15.5695 5.38898ZM15.5836 4.98401C15.6076 4.79401 15.6575 4.60798 15.7245 4.42798L16.1445 4.59198L15.5836 4.98401ZM16.5045 4.64203L17.0845 4.55402L16.8506 5.11499L16.5045 4.64203ZM16.8575 5.49298L17.0905 6.06L16.5105 5.96503L16.8575 5.49298ZM17.3616 4.271L17.4566 3.69098L17.9296 4.03699L17.3616 4.271ZM18.3076 4.04401L18.7865 3.698L18.8755 4.27698L18.3076 4.04401ZM20.1405 3.75702C20.1895 3.82202 20.2385 3.88699 20.2825 3.95599C20.3385 4.04399 20.3866 4.13598 20.4306 4.22998L20.0226 4.409L20.1405 3.75702ZM19.9816 3.57001L19.8215 4.46002L19.0766 4.34003L18.9635 3.60303L19.8596 3.44098C19.9026 3.48198 19.9416 3.52701 19.9816 3.57001ZM19.7265 4.64203L19.3855 5.11499L19.1465 4.54803L19.7265 4.64203ZM19.3855 5.49298L19.7325 5.96503L19.1465 6.06L19.3855 5.49298ZM19.4745 5.30402L19.9156 4.69904L20.6705 5.22003C20.6715 5.24903 20.6765 5.27703 20.6765 5.30603C20.6765 5.33403 20.6695 5.36098 20.6685 5.38898L19.9156 5.909L19.4745 5.30402ZM20.6445 5.62903C20.6195 5.82003 20.5775 6.00402 20.5135 6.17902L20.0925 6.01501L20.6445 5.62903ZM20.0925 4.59198L20.5045 4.40802C20.5755 4.59302 20.6285 4.78402 20.6535 4.98102L20.0925 4.59198ZM19.6696 3.28302L19.0076 3.401L19.1685 2.98401C19.3465 3.06501 19.5146 3.16402 19.6696 3.28302ZM18.9886 2.909L18.8306 3.32599L18.4426 2.771C18.6306 2.796 18.8126 2.845 18.9886 2.909ZM18.7236 3.50201L18.1185 3.94904L17.5135 3.508L18.0296 2.76099C18.0596 2.75999 18.0866 2.75 18.1156 2.75C18.1456 2.75 18.1745 2.75498 18.2045 2.75598L18.7236 3.50201ZM17.7706 2.79401L17.3996 3.33203L17.2206 2.93201C17.3976 2.86501 17.5796 2.82001 17.7706 2.79401ZM17.2225 3.401L16.5816 3.28601C16.7276 3.17401 16.8806 3.07804 17.0466 3.00104L17.2225 3.401ZM16.3716 3.44L17.2735 3.60303L17.1606 4.34601L16.4156 4.46002L16.2565 3.578C16.2965 3.534 16.3286 3.481 16.3716 3.44ZM16.2146 4.41498L15.7915 4.25299C15.8385 4.14899 15.8915 4.04799 15.9525 3.95099C15.9945 3.88499 16.0516 3.83403 16.0986 3.77203L16.2146 4.41498ZM15.8036 6.37903L16.2146 6.198L16.0956 6.85498C15.9826 6.70698 15.8836 6.54903 15.8036 6.37903ZM16.4156 6.14801L17.1595 6.26703L17.2735 7.00403L16.3726 7.16699C16.3306 7.12799 16.2916 7.088 16.2536 7.047L16.4156 6.14801ZM16.5636 7.32501L17.2296 7.20599L17.0645 7.633C16.8845 7.551 16.7186 7.44501 16.5636 7.32501ZM17.2455 7.703L17.4055 7.28198L17.7926 7.83301C17.6036 7.80901 17.4205 7.767 17.2455 7.703ZM17.5135 7.10498L18.1185 6.65802L18.7236 7.099L18.1985 7.85803C18.1705 7.85903 18.1446 7.86603 18.1156 7.86603C18.0896 7.86603 18.0646 7.85903 18.0376 7.85803L17.5135 7.10498ZM18.4536 7.83203L18.8376 7.27502L19.0235 7.69202C18.8425 7.76102 18.6516 7.80603 18.4536 7.83203ZM19.0135 7.20599L19.6725 7.32501C19.5245 7.43901 19.3666 7.53902 19.1956 7.61902L19.0135 7.20599ZM19.8636 7.16699L18.9635 7.00403L19.0766 6.26099L19.8206 6.14801L19.9836 7.04602C19.9446 7.08702 19.9056 7.12799 19.8636 7.16699ZM20.0226 6.19202L20.4465 6.35498C20.3645 6.53398 20.2606 6.699 20.1416 6.854L20.0226 6.19202Z" fill="black" fill-opacity="0.2"/>
<path d="M18.1156 2C16.9676 2 15.9206 2.58202 15.3166 3.55402C14.9856 4.08002 14.8105 4.68603 14.8105 5.30603C14.8105 7.13103 16.2936 8.61603 18.1156 8.61603C19.9416 8.61603 21.4265 7.13103 21.4265 5.30603C21.4265 4.68103 21.2496 4.07401 20.9176 3.55701C20.3266 2.59701 19.2536 2 18.1156 2ZM18.1185 6.44403L17.3116 6.10999L16.9776 5.30402L17.3116 4.49701L18.1185 4.164L18.9256 4.49701L19.2596 5.30402L18.9256 6.10999L18.1185 6.44403ZM18.8755 6.33704L18.7805 6.91602L18.3076 6.57001L18.8755 6.33704ZM17.9296 6.56299L17.4505 6.91003L17.3616 6.33002L17.9296 6.56299ZM15.5946 5.633L16.1445 6.01501L15.7305 6.20001C15.6635 6.02001 15.6196 5.83 15.5946 5.633ZM15.5695 5.38898C15.5685 5.36098 15.5605 5.33403 15.5605 5.30603C15.5605 5.27703 15.5656 5.24799 15.5666 5.21899L16.3215 4.69904L16.7626 5.30402L16.3215 5.90802L15.5695 5.38898ZM15.5836 4.98401C15.6076 4.79401 15.6575 4.60798 15.7245 4.42798L16.1445 4.59198L15.5836 4.98401ZM16.5045 4.64203L17.0845 4.55402L16.8506 5.11499L16.5045 4.64203ZM16.8575 5.49298L17.0905 6.06L16.5105 5.96503L16.8575 5.49298ZM17.3616 4.271L17.4566 3.69098L17.9296 4.03699L17.3616 4.271ZM18.3076 4.04401L18.7865 3.698L18.8755 4.27698L18.3076 4.04401ZM20.1405 3.75702C20.1895 3.82202 20.2385 3.88699 20.2825 3.95599C20.3385 4.04399 20.3866 4.13598 20.4306 4.22998L20.0226 4.409L20.1405 3.75702ZM19.9816 3.57001L19.8215 4.46002L19.0766 4.34003L18.9635 3.60303L19.8596 3.44098C19.9026 3.48198 19.9416 3.52701 19.9816 3.57001ZM19.7265 4.64203L19.3855 5.11499L19.1465 4.54803L19.7265 4.64203ZM19.3855 5.49298L19.7325 5.96503L19.1465 6.06L19.3855 5.49298ZM19.4745 5.30402L19.9156 4.69904L20.6705 5.22003C20.6715 5.24903 20.6765 5.27703 20.6765 5.30603C20.6765 5.33403 20.6695 5.36098 20.6685 5.38898L19.9156 5.909L19.4745 5.30402ZM20.6445 5.62903C20.6195 5.82003 20.5775 6.00402 20.5135 6.17902L20.0925 6.01501L20.6445 5.62903ZM20.0925 4.59198L20.5045 4.40802C20.5755 4.59302 20.6285 4.78402 20.6535 4.98102L20.0925 4.59198ZM19.6696 3.28302L19.0076 3.401L19.1685 2.98401C19.3465 3.06501 19.5146 3.16402 19.6696 3.28302ZM18.9886 2.909L18.8306 3.32599L18.4426 2.771C18.6306 2.796 18.8126 2.845 18.9886 2.909ZM18.7236 3.50201L18.1185 3.94904L17.5135 3.508L18.0296 2.76099C18.0596 2.75999 18.0866 2.75 18.1156 2.75C18.1456 2.75 18.1745 2.75498 18.2045 2.75598L18.7236 3.50201ZM17.7706 2.79401L17.3996 3.33203L17.2206 2.93201C17.3976 2.86501 17.5796 2.82001 17.7706 2.79401ZM17.2225 3.401L16.5816 3.28601C16.7276 3.17401 16.8806 3.07804 17.0466 3.00104L17.2225 3.401ZM16.3716 3.44L17.2735 3.60303L17.1606 4.34601L16.4156 4.46002L16.2565 3.578C16.2965 3.534 16.3286 3.481 16.3716 3.44ZM16.2146 4.41498L15.7915 4.25299C15.8385 4.14899 15.8915 4.04799 15.9525 3.95099C15.9945 3.88499 16.0516 3.83403 16.0986 3.77203L16.2146 4.41498ZM15.8036 6.37903L16.2146 6.198L16.0956 6.85498C15.9826 6.70698 15.8836 6.54903 15.8036 6.37903ZM16.4156 6.14801L17.1595 6.26703L17.2735 7.00403L16.3726 7.16699C16.3306 7.12799 16.2916 7.088 16.2536 7.047L16.4156 6.14801ZM16.5636 7.32501L17.2296 7.20599L17.0645 7.633C16.8845 7.551 16.7186 7.44501 16.5636 7.32501ZM17.2455 7.703L17.4055 7.28198L17.7926 7.83301C17.6036 7.80901 17.4205 7.767 17.2455 7.703ZM17.5135 7.10498L18.1185 6.65802L18.7236 7.099L18.1985 7.85803C18.1705 7.85903 18.1446 7.86603 18.1156 7.86603C18.0896 7.86603 18.0646 7.85903 18.0376 7.85803L17.5135 7.10498ZM18.4536 7.83203L18.8376 7.27502L19.0235 7.69202C18.8425 7.76102 18.6516 7.80603 18.4536 7.83203ZM19.0135 7.20599L19.6725 7.32501C19.5245 7.43901 19.3666 7.53902 19.1956 7.61902L19.0135 7.20599ZM19.8636 7.16699L18.9635 7.00403L19.0766 6.26099L19.8206 6.14801L19.9836 7.04602C19.9446 7.08702 19.9056 7.12799 19.8636 7.16699ZM20.0226 6.19202L20.4465 6.35498C20.3645 6.53398 20.2606 6.699 20.1416 6.854L20.0226 6.19202Z" fill="black" fill-opacity="0.2"/>
</g>
</g>
</svg>
