<svg width="42" height="36" viewBox="0 0 42 36" fill="none" xmlns="http://www.w3.org/2000/svg">
<g id="ring icons">
<g id="Vector">
<path fill-rule="evenodd" clip-rule="evenodd" d="M36.725 12.7H5.51399C4.12799 12.7 3 13.828 3 15.214V20.803C3 22.188 4.12799 23.316 5.51399 23.316H36.725C38.111 23.316 39.239 22.189 39.239 20.803V15.214C39.239 13.828 38.111 12.7 36.725 12.7ZM38.475 21.02C38.368 21.891 37.624 22.566 36.725 22.566H5.51399C4.61499 22.566 3.871 21.891 3.763 21.02H38.475ZM38.489 20.27H3.75V15.77H38.489V20.27ZM38.478 15.02H3.76099C3.85699 14.138 4.60599 13.45 5.51399 13.45H36.725C37.632 13.45 38.382 14.138 38.478 15.02Z" fill="#333335"/>
<path fill-rule="evenodd" clip-rule="evenodd" d="M36.725 12.7H5.51399C4.12799 12.7 3 13.828 3 15.214V20.803C3 22.188 4.12799 23.316 5.51399 23.316H36.725C38.111 23.316 39.239 22.189 39.239 20.803V15.214C39.239 13.828 38.111 12.7 36.725 12.7ZM38.475 21.02C38.368 21.891 37.624 22.566 36.725 22.566H5.51399C4.61499 22.566 3.871 21.891 3.763 21.02H38.475ZM38.489 20.27H3.75V15.77H38.489V20.27ZM38.478 15.02H3.76099C3.85699 14.138 4.60599 13.45 5.51399 13.45H36.725C37.632 13.45 38.382 14.138 38.478 15.02Z" fill="black" fill-opacity="0.2"/>
<path fill-rule="evenodd" clip-rule="evenodd" d="M36.725 12.7H5.51399C4.12799 12.7 3 13.828 3 15.214V20.803C3 22.188 4.12799 23.316 5.51399 23.316H36.725C38.111 23.316 39.239 22.189 39.239 20.803V15.214C39.239 13.828 38.111 12.7 36.725 12.7ZM38.475 21.02C38.368 21.891 37.624 22.566 36.725 22.566H5.51399C4.61499 22.566 3.871 21.891 3.763 21.02H38.475ZM38.489 20.27H3.75V15.77H38.489V20.27ZM38.478 15.02H3.76099C3.85699 14.138 4.60599 13.45 5.51399 13.45H36.725C37.632 13.45 38.382 14.138 38.478 15.02Z" fill="black" fill-opacity="0.2"/>
<path fill-rule="evenodd" clip-rule="evenodd" d="M36.725 12.7H5.51399C4.12799 12.7 3 13.828 3 15.214V20.803C3 22.188 4.12799 23.316 5.51399 23.316H36.725C38.111 23.316 39.239 22.189 39.239 20.803V15.214C39.239 13.828 38.111 12.7 36.725 12.7ZM38.475 21.02C38.368 21.891 37.624 22.566 36.725 22.566H5.51399C4.61499 22.566 3.871 21.891 3.763 21.02H38.475ZM38.489 20.27H3.75V15.77H38.489V20.27ZM38.478 15.02H3.76099C3.85699 14.138 4.60599 13.45 5.51399 13.45H36.725C37.632 13.45 38.382 14.138 38.478 15.02Z" fill="black" fill-opacity="0.2"/>
<path fill-rule="evenodd" clip-rule="evenodd" d="M36.725 12.7H5.51399C4.12799 12.7 3 13.828 3 15.214V20.803C3 22.188 4.12799 23.316 5.51399 23.316H36.725C38.111 23.316 39.239 22.189 39.239 20.803V15.214C39.239 13.828 38.111 12.7 36.725 12.7ZM38.475 21.02C38.368 21.891 37.624 22.566 36.725 22.566H5.51399C4.61499 22.566 3.871 21.891 3.763 21.02H38.475ZM38.489 20.27H3.75V15.77H38.489V20.27ZM38.478 15.02H3.76099C3.85699 14.138 4.60599 13.45 5.51399 13.45H36.725C37.632 13.45 38.382 14.138 38.478 15.02Z" fill="black" fill-opacity="0.2"/>
<path fill-rule="evenodd" clip-rule="evenodd" d="M36.725 12.7H5.51399C4.12799 12.7 3 13.828 3 15.214V20.803C3 22.188 4.12799 23.316 5.51399 23.316H36.725C38.111 23.316 39.239 22.189 39.239 20.803V15.214C39.239 13.828 38.111 12.7 36.725 12.7ZM38.475 21.02C38.368 21.891 37.624 22.566 36.725 22.566H5.51399C4.61499 22.566 3.871 21.891 3.763 21.02H38.475ZM38.489 20.27H3.75V15.77H38.489V20.27ZM38.478 15.02H3.76099C3.85699 14.138 4.60599 13.45 5.51399 13.45H36.725C37.632 13.45 38.382 14.138 38.478 15.02Z" fill="black" fill-opacity="0.2"/>
<path fill-rule="evenodd" clip-rule="evenodd" d="M36.725 12.7H5.51399C4.12799 12.7 3 13.828 3 15.214V20.803C3 22.188 4.12799 23.316 5.51399 23.316H36.725C38.111 23.316 39.239 22.189 39.239 20.803V15.214C39.239 13.828 38.111 12.7 36.725 12.7ZM38.475 21.02C38.368 21.891 37.624 22.566 36.725 22.566H5.51399C4.61499 22.566 3.871 21.891 3.763 21.02H38.475ZM38.489 20.27H3.75V15.77H38.489V20.27ZM38.478 15.02H3.76099C3.85699 14.138 4.60599 13.45 5.51399 13.45H36.725C37.632 13.45 38.382 14.138 38.478 15.02Z" fill="black" fill-opacity="0.2"/>
<path fill-rule="evenodd" clip-rule="evenodd" d="M36.725 12.7H5.51399C4.12799 12.7 3 13.828 3 15.214V20.803C3 22.188 4.12799 23.316 5.51399 23.316H36.725C38.111 23.316 39.239 22.189 39.239 20.803V15.214C39.239 13.828 38.111 12.7 36.725 12.7ZM38.475 21.02C38.368 21.891 37.624 22.566 36.725 22.566H5.51399C4.61499 22.566 3.871 21.891 3.763 21.02H38.475ZM38.489 20.27H3.75V15.77H38.489V20.27ZM38.478 15.02H3.76099C3.85699 14.138 4.60599 13.45 5.51399 13.45H36.725C37.632 13.45 38.382 14.138 38.478 15.02Z" fill="black" fill-opacity="0.2"/>
<path fill-rule="evenodd" clip-rule="evenodd" d="M36.725 12.7H5.51399C4.12799 12.7 3 13.828 3 15.214V20.803C3 22.188 4.12799 23.316 5.51399 23.316H36.725C38.111 23.316 39.239 22.189 39.239 20.803V15.214C39.239 13.828 38.111 12.7 36.725 12.7ZM38.475 21.02C38.368 21.891 37.624 22.566 36.725 22.566H5.51399C4.61499 22.566 3.871 21.891 3.763 21.02H38.475ZM38.489 20.27H3.75V15.77H38.489V20.27ZM38.478 15.02H3.76099C3.85699 14.138 4.60599 13.45 5.51399 13.45H36.725C37.632 13.45 38.382 14.138 38.478 15.02Z" fill="black" fill-opacity="0.2"/>
</g>
</g>
</svg>
