<svg width="37" height="6" viewBox="0 0 37 6" fill="none" xmlns="http://www.w3.org/2000/svg">
<g id="Group 25979">
<g id="Vector">
<path d="M36.053 1.584V1.577C35.678 0.652996 34.778 0 33.727 0H2.513C1.455 0 0.546993 0.653 0.179993 1.584C0.0599927 1.869 0 2.185 0 2.515C0 2.838 0.0599927 3.15299 0.179993 3.43799C0.546993 4.36899 1.455 5.03 2.513 5.03H33.727C34.778 5.03 35.678 4.37699 36.053 3.45299V3.446C36.172 3.161 36.24 2.845 36.24 2.515C36.24 2.185 36.172 1.869 36.053 1.584ZM35.31 3.28099C35.257 3.40099 35.182 3.51399 35.093 3.61899C34.778 4.02399 34.282 4.27899 33.727 4.27899H2.513C1.958 4.27899 1.462 4.02399 1.14 3.61899C1.05 3.51399 0.981997 3.40099 0.921997 3.28099C0.809997 3.04799 0.75 2.793 0.75 2.515C0.75 2.237 0.809997 1.98199 0.921997 1.74899C0.982997 1.62899 1.05 1.517 1.14 1.411C1.462 1.006 1.958 0.750992 2.513 0.750992H33.727C34.282 0.750992 34.778 1.006 35.093 1.411C35.182 1.517 35.258 1.62899 35.31 1.74899C35.422 1.98199 35.49 2.237 35.49 2.515C35.49 2.793 35.422 3.04799 35.31 3.28099Z" fill="#333335"/>
<path d="M36.053 1.584V1.577C35.678 0.652996 34.778 0 33.727 0H2.513C1.455 0 0.546993 0.653 0.179993 1.584C0.0599927 1.869 0 2.185 0 2.515C0 2.838 0.0599927 3.15299 0.179993 3.43799C0.546993 4.36899 1.455 5.03 2.513 5.03H33.727C34.778 5.03 35.678 4.37699 36.053 3.45299V3.446C36.172 3.161 36.24 2.845 36.24 2.515C36.24 2.185 36.172 1.869 36.053 1.584ZM35.31 3.28099C35.257 3.40099 35.182 3.51399 35.093 3.61899C34.778 4.02399 34.282 4.27899 33.727 4.27899H2.513C1.958 4.27899 1.462 4.02399 1.14 3.61899C1.05 3.51399 0.981997 3.40099 0.921997 3.28099C0.809997 3.04799 0.75 2.793 0.75 2.515C0.75 2.237 0.809997 1.98199 0.921997 1.74899C0.982997 1.62899 1.05 1.517 1.14 1.411C1.462 1.006 1.958 0.750992 2.513 0.750992H33.727C34.282 0.750992 34.778 1.006 35.093 1.411C35.182 1.517 35.258 1.62899 35.31 1.74899C35.422 1.98199 35.49 2.237 35.49 2.515C35.49 2.793 35.422 3.04799 35.31 3.28099Z" fill="black" fill-opacity="0.2"/>
<path d="M36.053 1.584V1.577C35.678 0.652996 34.778 0 33.727 0H2.513C1.455 0 0.546993 0.653 0.179993 1.584C0.0599927 1.869 0 2.185 0 2.515C0 2.838 0.0599927 3.15299 0.179993 3.43799C0.546993 4.36899 1.455 5.03 2.513 5.03H33.727C34.778 5.03 35.678 4.37699 36.053 3.45299V3.446C36.172 3.161 36.24 2.845 36.24 2.515C36.24 2.185 36.172 1.869 36.053 1.584ZM35.31 3.28099C35.257 3.40099 35.182 3.51399 35.093 3.61899C34.778 4.02399 34.282 4.27899 33.727 4.27899H2.513C1.958 4.27899 1.462 4.02399 1.14 3.61899C1.05 3.51399 0.981997 3.40099 0.921997 3.28099C0.809997 3.04799 0.75 2.793 0.75 2.515C0.75 2.237 0.809997 1.98199 0.921997 1.74899C0.982997 1.62899 1.05 1.517 1.14 1.411C1.462 1.006 1.958 0.750992 2.513 0.750992H33.727C34.282 0.750992 34.778 1.006 35.093 1.411C35.182 1.517 35.258 1.62899 35.31 1.74899C35.422 1.98199 35.49 2.237 35.49 2.515C35.49 2.793 35.422 3.04799 35.31 3.28099Z" fill="black" fill-opacity="0.2"/>
<path d="M36.053 1.584V1.577C35.678 0.652996 34.778 0 33.727 0H2.513C1.455 0 0.546993 0.653 0.179993 1.584C0.0599927 1.869 0 2.185 0 2.515C0 2.838 0.0599927 3.15299 0.179993 3.43799C0.546993 4.36899 1.455 5.03 2.513 5.03H33.727C34.778 5.03 35.678 4.37699 36.053 3.45299V3.446C36.172 3.161 36.24 2.845 36.24 2.515C36.24 2.185 36.172 1.869 36.053 1.584ZM35.31 3.28099C35.257 3.40099 35.182 3.51399 35.093 3.61899C34.778 4.02399 34.282 4.27899 33.727 4.27899H2.513C1.958 4.27899 1.462 4.02399 1.14 3.61899C1.05 3.51399 0.981997 3.40099 0.921997 3.28099C0.809997 3.04799 0.75 2.793 0.75 2.515C0.75 2.237 0.809997 1.98199 0.921997 1.74899C0.982997 1.62899 1.05 1.517 1.14 1.411C1.462 1.006 1.958 0.750992 2.513 0.750992H33.727C34.282 0.750992 34.778 1.006 35.093 1.411C35.182 1.517 35.258 1.62899 35.31 1.74899C35.422 1.98199 35.49 2.237 35.49 2.515C35.49 2.793 35.422 3.04799 35.31 3.28099Z" fill="black" fill-opacity="0.2"/>
<path d="M36.053 1.584V1.577C35.678 0.652996 34.778 0 33.727 0H2.513C1.455 0 0.546993 0.653 0.179993 1.584C0.0599927 1.869 0 2.185 0 2.515C0 2.838 0.0599927 3.15299 0.179993 3.43799C0.546993 4.36899 1.455 5.03 2.513 5.03H33.727C34.778 5.03 35.678 4.37699 36.053 3.45299V3.446C36.172 3.161 36.24 2.845 36.24 2.515C36.24 2.185 36.172 1.869 36.053 1.584ZM35.31 3.28099C35.257 3.40099 35.182 3.51399 35.093 3.61899C34.778 4.02399 34.282 4.27899 33.727 4.27899H2.513C1.958 4.27899 1.462 4.02399 1.14 3.61899C1.05 3.51399 0.981997 3.40099 0.921997 3.28099C0.809997 3.04799 0.75 2.793 0.75 2.515C0.75 2.237 0.809997 1.98199 0.921997 1.74899C0.982997 1.62899 1.05 1.517 1.14 1.411C1.462 1.006 1.958 0.750992 2.513 0.750992H33.727C34.282 0.750992 34.778 1.006 35.093 1.411C35.182 1.517 35.258 1.62899 35.31 1.74899C35.422 1.98199 35.49 2.237 35.49 2.515C35.49 2.793 35.422 3.04799 35.31 3.28099Z" fill="black" fill-opacity="0.2"/>
<path d="M36.053 1.584V1.577C35.678 0.652996 34.778 0 33.727 0H2.513C1.455 0 0.546993 0.653 0.179993 1.584C0.0599927 1.869 0 2.185 0 2.515C0 2.838 0.0599927 3.15299 0.179993 3.43799C0.546993 4.36899 1.455 5.03 2.513 5.03H33.727C34.778 5.03 35.678 4.37699 36.053 3.45299V3.446C36.172 3.161 36.24 2.845 36.24 2.515C36.24 2.185 36.172 1.869 36.053 1.584ZM35.31 3.28099C35.257 3.40099 35.182 3.51399 35.093 3.61899C34.778 4.02399 34.282 4.27899 33.727 4.27899H2.513C1.958 4.27899 1.462 4.02399 1.14 3.61899C1.05 3.51399 0.981997 3.40099 0.921997 3.28099C0.809997 3.04799 0.75 2.793 0.75 2.515C0.75 2.237 0.809997 1.98199 0.921997 1.74899C0.982997 1.62899 1.05 1.517 1.14 1.411C1.462 1.006 1.958 0.750992 2.513 0.750992H33.727C34.282 0.750992 34.778 1.006 35.093 1.411C35.182 1.517 35.258 1.62899 35.31 1.74899C35.422 1.98199 35.49 2.237 35.49 2.515C35.49 2.793 35.422 3.04799 35.31 3.28099Z" fill="black" fill-opacity="0.2"/>
<path d="M36.053 1.584V1.577C35.678 0.652996 34.778 0 33.727 0H2.513C1.455 0 0.546993 0.653 0.179993 1.584C0.0599927 1.869 0 2.185 0 2.515C0 2.838 0.0599927 3.15299 0.179993 3.43799C0.546993 4.36899 1.455 5.03 2.513 5.03H33.727C34.778 5.03 35.678 4.37699 36.053 3.45299V3.446C36.172 3.161 36.24 2.845 36.24 2.515C36.24 2.185 36.172 1.869 36.053 1.584ZM35.31 3.28099C35.257 3.40099 35.182 3.51399 35.093 3.61899C34.778 4.02399 34.282 4.27899 33.727 4.27899H2.513C1.958 4.27899 1.462 4.02399 1.14 3.61899C1.05 3.51399 0.981997 3.40099 0.921997 3.28099C0.809997 3.04799 0.75 2.793 0.75 2.515C0.75 2.237 0.809997 1.98199 0.921997 1.74899C0.982997 1.62899 1.05 1.517 1.14 1.411C1.462 1.006 1.958 0.750992 2.513 0.750992H33.727C34.282 0.750992 34.778 1.006 35.093 1.411C35.182 1.517 35.258 1.62899 35.31 1.74899C35.422 1.98199 35.49 2.237 35.49 2.515C35.49 2.793 35.422 3.04799 35.31 3.28099Z" fill="black" fill-opacity="0.2"/>
<path d="M36.053 1.584V1.577C35.678 0.652996 34.778 0 33.727 0H2.513C1.455 0 0.546993 0.653 0.179993 1.584C0.0599927 1.869 0 2.185 0 2.515C0 2.838 0.0599927 3.15299 0.179993 3.43799C0.546993 4.36899 1.455 5.03 2.513 5.03H33.727C34.778 5.03 35.678 4.37699 36.053 3.45299V3.446C36.172 3.161 36.24 2.845 36.24 2.515C36.24 2.185 36.172 1.869 36.053 1.584ZM35.31 3.28099C35.257 3.40099 35.182 3.51399 35.093 3.61899C34.778 4.02399 34.282 4.27899 33.727 4.27899H2.513C1.958 4.27899 1.462 4.02399 1.14 3.61899C1.05 3.51399 0.981997 3.40099 0.921997 3.28099C0.809997 3.04799 0.75 2.793 0.75 2.515C0.75 2.237 0.809997 1.98199 0.921997 1.74899C0.982997 1.62899 1.05 1.517 1.14 1.411C1.462 1.006 1.958 0.750992 2.513 0.750992H33.727C34.282 0.750992 34.778 1.006 35.093 1.411C35.182 1.517 35.258 1.62899 35.31 1.74899C35.422 1.98199 35.49 2.237 35.49 2.515C35.49 2.793 35.422 3.04799 35.31 3.28099Z" fill="black" fill-opacity="0.2"/>
<path d="M36.053 1.584V1.577C35.678 0.652996 34.778 0 33.727 0H2.513C1.455 0 0.546993 0.653 0.179993 1.584C0.0599927 1.869 0 2.185 0 2.515C0 2.838 0.0599927 3.15299 0.179993 3.43799C0.546993 4.36899 1.455 5.03 2.513 5.03H33.727C34.778 5.03 35.678 4.37699 36.053 3.45299V3.446C36.172 3.161 36.24 2.845 36.24 2.515C36.24 2.185 36.172 1.869 36.053 1.584ZM35.31 3.28099C35.257 3.40099 35.182 3.51399 35.093 3.61899C34.778 4.02399 34.282 4.27899 33.727 4.27899H2.513C1.958 4.27899 1.462 4.02399 1.14 3.61899C1.05 3.51399 0.981997 3.40099 0.921997 3.28099C0.809997 3.04799 0.75 2.793 0.75 2.515C0.75 2.237 0.809997 1.98199 0.921997 1.74899C0.982997 1.62899 1.05 1.517 1.14 1.411C1.462 1.006 1.958 0.750992 2.513 0.750992H33.727C34.282 0.750992 34.778 1.006 35.093 1.411C35.182 1.517 35.258 1.62899 35.31 1.74899C35.422 1.98199 35.49 2.237 35.49 2.515C35.49 2.793 35.422 3.04799 35.31 3.28099Z" fill="black" fill-opacity="0.2"/>
</g>
<g id="Vector_2">
<path d="M3.20728 1.45709C2.62328 1.21209 1.95127 1.49108 1.70827 2.07608C1.59027 2.35808 1.58927 2.67008 1.70627 2.95308C1.82327 3.23708 2.04326 3.45808 2.32626 3.57608C2.46926 3.63608 2.61828 3.66408 2.76528 3.66408C3.21428 3.66408 3.64227 3.39709 3.82527 2.95709C3.94327 2.67409 3.94326 2.36208 3.82626 2.07808C3.71026 1.79508 3.49028 1.57409 3.20728 1.45709ZM3.47926 2.81308C3.31626 3.20608 2.86228 3.39309 2.47028 3.23009C2.28028 3.15009 2.13127 3.00209 2.05327 2.81009C1.97427 2.62009 1.97528 2.41008 2.05428 2.21908C2.17728 1.92308 2.46527 1.74408 2.76727 1.74408C2.86627 1.74408 2.96726 1.76308 3.06326 1.80308C3.25326 1.88208 3.40127 2.03109 3.48027 2.22209C3.55927 2.41209 3.55826 2.62308 3.47926 2.81308Z" fill="#333335"/>
<path d="M3.20728 1.45709C2.62328 1.21209 1.95127 1.49108 1.70827 2.07608C1.59027 2.35808 1.58927 2.67008 1.70627 2.95308C1.82327 3.23708 2.04326 3.45808 2.32626 3.57608C2.46926 3.63608 2.61828 3.66408 2.76528 3.66408C3.21428 3.66408 3.64227 3.39709 3.82527 2.95709C3.94327 2.67409 3.94326 2.36208 3.82626 2.07808C3.71026 1.79508 3.49028 1.57409 3.20728 1.45709ZM3.47926 2.81308C3.31626 3.20608 2.86228 3.39309 2.47028 3.23009C2.28028 3.15009 2.13127 3.00209 2.05327 2.81009C1.97427 2.62009 1.97528 2.41008 2.05428 2.21908C2.17728 1.92308 2.46527 1.74408 2.76727 1.74408C2.86627 1.74408 2.96726 1.76308 3.06326 1.80308C3.25326 1.88208 3.40127 2.03109 3.48027 2.22209C3.55927 2.41209 3.55826 2.62308 3.47926 2.81308Z" fill="black" fill-opacity="0.2"/>
<path d="M3.20728 1.45709C2.62328 1.21209 1.95127 1.49108 1.70827 2.07608C1.59027 2.35808 1.58927 2.67008 1.70627 2.95308C1.82327 3.23708 2.04326 3.45808 2.32626 3.57608C2.46926 3.63608 2.61828 3.66408 2.76528 3.66408C3.21428 3.66408 3.64227 3.39709 3.82527 2.95709C3.94327 2.67409 3.94326 2.36208 3.82626 2.07808C3.71026 1.79508 3.49028 1.57409 3.20728 1.45709ZM3.47926 2.81308C3.31626 3.20608 2.86228 3.39309 2.47028 3.23009C2.28028 3.15009 2.13127 3.00209 2.05327 2.81009C1.97427 2.62009 1.97528 2.41008 2.05428 2.21908C2.17728 1.92308 2.46527 1.74408 2.76727 1.74408C2.86627 1.74408 2.96726 1.76308 3.06326 1.80308C3.25326 1.88208 3.40127 2.03109 3.48027 2.22209C3.55927 2.41209 3.55826 2.62308 3.47926 2.81308Z" fill="black" fill-opacity="0.2"/>
<path d="M3.20728 1.45709C2.62328 1.21209 1.95127 1.49108 1.70827 2.07608C1.59027 2.35808 1.58927 2.67008 1.70627 2.95308C1.82327 3.23708 2.04326 3.45808 2.32626 3.57608C2.46926 3.63608 2.61828 3.66408 2.76528 3.66408C3.21428 3.66408 3.64227 3.39709 3.82527 2.95709C3.94327 2.67409 3.94326 2.36208 3.82626 2.07808C3.71026 1.79508 3.49028 1.57409 3.20728 1.45709ZM3.47926 2.81308C3.31626 3.20608 2.86228 3.39309 2.47028 3.23009C2.28028 3.15009 2.13127 3.00209 2.05327 2.81009C1.97427 2.62009 1.97528 2.41008 2.05428 2.21908C2.17728 1.92308 2.46527 1.74408 2.76727 1.74408C2.86627 1.74408 2.96726 1.76308 3.06326 1.80308C3.25326 1.88208 3.40127 2.03109 3.48027 2.22209C3.55927 2.41209 3.55826 2.62308 3.47926 2.81308Z" fill="black" fill-opacity="0.2"/>
<path d="M3.20728 1.45709C2.62328 1.21209 1.95127 1.49108 1.70827 2.07608C1.59027 2.35808 1.58927 2.67008 1.70627 2.95308C1.82327 3.23708 2.04326 3.45808 2.32626 3.57608C2.46926 3.63608 2.61828 3.66408 2.76528 3.66408C3.21428 3.66408 3.64227 3.39709 3.82527 2.95709C3.94327 2.67409 3.94326 2.36208 3.82626 2.07808C3.71026 1.79508 3.49028 1.57409 3.20728 1.45709ZM3.47926 2.81308C3.31626 3.20608 2.86228 3.39309 2.47028 3.23009C2.28028 3.15009 2.13127 3.00209 2.05327 2.81009C1.97427 2.62009 1.97528 2.41008 2.05428 2.21908C2.17728 1.92308 2.46527 1.74408 2.76727 1.74408C2.86627 1.74408 2.96726 1.76308 3.06326 1.80308C3.25326 1.88208 3.40127 2.03109 3.48027 2.22209C3.55927 2.41209 3.55826 2.62308 3.47926 2.81308Z" fill="black" fill-opacity="0.2"/>
<path d="M3.20728 1.45709C2.62328 1.21209 1.95127 1.49108 1.70827 2.07608C1.59027 2.35808 1.58927 2.67008 1.70627 2.95308C1.82327 3.23708 2.04326 3.45808 2.32626 3.57608C2.46926 3.63608 2.61828 3.66408 2.76528 3.66408C3.21428 3.66408 3.64227 3.39709 3.82527 2.95709C3.94327 2.67409 3.94326 2.36208 3.82626 2.07808C3.71026 1.79508 3.49028 1.57409 3.20728 1.45709ZM3.47926 2.81308C3.31626 3.20608 2.86228 3.39309 2.47028 3.23009C2.28028 3.15009 2.13127 3.00209 2.05327 2.81009C1.97427 2.62009 1.97528 2.41008 2.05428 2.21908C2.17728 1.92308 2.46527 1.74408 2.76727 1.74408C2.86627 1.74408 2.96726 1.76308 3.06326 1.80308C3.25326 1.88208 3.40127 2.03109 3.48027 2.22209C3.55927 2.41209 3.55826 2.62308 3.47926 2.81308Z" fill="black" fill-opacity="0.2"/>
<path d="M3.20728 1.45709C2.62328 1.21209 1.95127 1.49108 1.70827 2.07608C1.59027 2.35808 1.58927 2.67008 1.70627 2.95308C1.82327 3.23708 2.04326 3.45808 2.32626 3.57608C2.46926 3.63608 2.61828 3.66408 2.76528 3.66408C3.21428 3.66408 3.64227 3.39709 3.82527 2.95709C3.94327 2.67409 3.94326 2.36208 3.82626 2.07808C3.71026 1.79508 3.49028 1.57409 3.20728 1.45709ZM3.47926 2.81308C3.31626 3.20608 2.86228 3.39309 2.47028 3.23009C2.28028 3.15009 2.13127 3.00209 2.05327 2.81009C1.97427 2.62009 1.97528 2.41008 2.05428 2.21908C2.17728 1.92308 2.46527 1.74408 2.76727 1.74408C2.86627 1.74408 2.96726 1.76308 3.06326 1.80308C3.25326 1.88208 3.40127 2.03109 3.48027 2.22209C3.55927 2.41209 3.55826 2.62308 3.47926 2.81308Z" fill="black" fill-opacity="0.2"/>
<path d="M3.20728 1.45709C2.62328 1.21209 1.95127 1.49108 1.70827 2.07608C1.59027 2.35808 1.58927 2.67008 1.70627 2.95308C1.82327 3.23708 2.04326 3.45808 2.32626 3.57608C2.46926 3.63608 2.61828 3.66408 2.76528 3.66408C3.21428 3.66408 3.64227 3.39709 3.82527 2.95709C3.94327 2.67409 3.94326 2.36208 3.82626 2.07808C3.71026 1.79508 3.49028 1.57409 3.20728 1.45709ZM3.47926 2.81308C3.31626 3.20608 2.86228 3.39309 2.47028 3.23009C2.28028 3.15009 2.13127 3.00209 2.05327 2.81009C1.97427 2.62009 1.97528 2.41008 2.05428 2.21908C2.17728 1.92308 2.46527 1.74408 2.76727 1.74408C2.86627 1.74408 2.96726 1.76308 3.06326 1.80308C3.25326 1.88208 3.40127 2.03109 3.48027 2.22209C3.55927 2.41209 3.55826 2.62308 3.47926 2.81308Z" fill="black" fill-opacity="0.2"/>
<path d="M3.20728 1.45709C2.62328 1.21209 1.95127 1.49108 1.70827 2.07608C1.59027 2.35808 1.58927 2.67008 1.70627 2.95308C1.82327 3.23708 2.04326 3.45808 2.32626 3.57608C2.46926 3.63608 2.61828 3.66408 2.76528 3.66408C3.21428 3.66408 3.64227 3.39709 3.82527 2.95709C3.94327 2.67409 3.94326 2.36208 3.82626 2.07808C3.71026 1.79508 3.49028 1.57409 3.20728 1.45709ZM3.47926 2.81308C3.31626 3.20608 2.86228 3.39309 2.47028 3.23009C2.28028 3.15009 2.13127 3.00209 2.05327 2.81009C1.97427 2.62009 1.97528 2.41008 2.05428 2.21908C2.17728 1.92308 2.46527 1.74408 2.76727 1.74408C2.86627 1.74408 2.96726 1.76308 3.06326 1.80308C3.25326 1.88208 3.40127 2.03109 3.48027 2.22209C3.55927 2.41209 3.55826 2.62308 3.47926 2.81308Z" fill="black" fill-opacity="0.2"/>
</g>
<g id="Vector_3">
<path d="M10.8831 1.45695C10.6001 1.33895 10.2891 1.33693 10.0051 1.45493C9.72205 1.57193 9.50205 1.79193 9.38405 2.07593C9.26605 2.35793 9.26505 2.66993 9.38205 2.95293C9.49905 3.23693 9.71906 3.45793 10.0021 3.57593C10.1441 3.63493 10.2931 3.66393 10.4421 3.66393C10.5901 3.66393 10.7391 3.63594 10.8801 3.57694C11.1631 3.45994 11.3841 3.23995 11.5011 2.95695C11.6191 2.67395 11.6191 2.36093 11.5021 2.07793C11.3851 1.79493 11.1651 1.57395 10.8831 1.45695ZM11.1551 2.81293C11.0761 3.00393 10.9271 3.15194 10.7361 3.22994C10.5461 3.30794 10.3361 3.30894 10.1461 3.22994C9.95606 3.14994 9.80705 3.00194 9.72905 2.80994C9.65005 2.61994 9.65106 2.40994 9.73006 2.21894C9.80906 2.02894 9.95806 1.88093 10.1481 1.80193C10.2431 1.76293 10.3431 1.74393 10.4421 1.74393C10.5431 1.74393 10.6431 1.76294 10.7391 1.80294C10.9291 1.88194 11.0771 2.02994 11.1561 2.22094C11.2341 2.41194 11.2341 2.62193 11.1551 2.81293Z" fill="#333335"/>
<path d="M10.8831 1.45695C10.6001 1.33895 10.2891 1.33693 10.0051 1.45493C9.72205 1.57193 9.50205 1.79193 9.38405 2.07593C9.26605 2.35793 9.26505 2.66993 9.38205 2.95293C9.49905 3.23693 9.71906 3.45793 10.0021 3.57593C10.1441 3.63493 10.2931 3.66393 10.4421 3.66393C10.5901 3.66393 10.7391 3.63594 10.8801 3.57694C11.1631 3.45994 11.3841 3.23995 11.5011 2.95695C11.6191 2.67395 11.6191 2.36093 11.5021 2.07793C11.3851 1.79493 11.1651 1.57395 10.8831 1.45695ZM11.1551 2.81293C11.0761 3.00393 10.9271 3.15194 10.7361 3.22994C10.5461 3.30794 10.3361 3.30894 10.1461 3.22994C9.95606 3.14994 9.80705 3.00194 9.72905 2.80994C9.65005 2.61994 9.65106 2.40994 9.73006 2.21894C9.80906 2.02894 9.95806 1.88093 10.1481 1.80193C10.2431 1.76293 10.3431 1.74393 10.4421 1.74393C10.5431 1.74393 10.6431 1.76294 10.7391 1.80294C10.9291 1.88194 11.0771 2.02994 11.1561 2.22094C11.2341 2.41194 11.2341 2.62193 11.1551 2.81293Z" fill="black" fill-opacity="0.2"/>
<path d="M10.8831 1.45695C10.6001 1.33895 10.2891 1.33693 10.0051 1.45493C9.72205 1.57193 9.50205 1.79193 9.38405 2.07593C9.26605 2.35793 9.26505 2.66993 9.38205 2.95293C9.49905 3.23693 9.71906 3.45793 10.0021 3.57593C10.1441 3.63493 10.2931 3.66393 10.4421 3.66393C10.5901 3.66393 10.7391 3.63594 10.8801 3.57694C11.1631 3.45994 11.3841 3.23995 11.5011 2.95695C11.6191 2.67395 11.6191 2.36093 11.5021 2.07793C11.3851 1.79493 11.1651 1.57395 10.8831 1.45695ZM11.1551 2.81293C11.0761 3.00393 10.9271 3.15194 10.7361 3.22994C10.5461 3.30794 10.3361 3.30894 10.1461 3.22994C9.95606 3.14994 9.80705 3.00194 9.72905 2.80994C9.65005 2.61994 9.65106 2.40994 9.73006 2.21894C9.80906 2.02894 9.95806 1.88093 10.1481 1.80193C10.2431 1.76293 10.3431 1.74393 10.4421 1.74393C10.5431 1.74393 10.6431 1.76294 10.7391 1.80294C10.9291 1.88194 11.0771 2.02994 11.1561 2.22094C11.2341 2.41194 11.2341 2.62193 11.1551 2.81293Z" fill="black" fill-opacity="0.2"/>
<path d="M10.8831 1.45695C10.6001 1.33895 10.2891 1.33693 10.0051 1.45493C9.72205 1.57193 9.50205 1.79193 9.38405 2.07593C9.26605 2.35793 9.26505 2.66993 9.38205 2.95293C9.49905 3.23693 9.71906 3.45793 10.0021 3.57593C10.1441 3.63493 10.2931 3.66393 10.4421 3.66393C10.5901 3.66393 10.7391 3.63594 10.8801 3.57694C11.1631 3.45994 11.3841 3.23995 11.5011 2.95695C11.6191 2.67395 11.6191 2.36093 11.5021 2.07793C11.3851 1.79493 11.1651 1.57395 10.8831 1.45695ZM11.1551 2.81293C11.0761 3.00393 10.9271 3.15194 10.7361 3.22994C10.5461 3.30794 10.3361 3.30894 10.1461 3.22994C9.95606 3.14994 9.80705 3.00194 9.72905 2.80994C9.65005 2.61994 9.65106 2.40994 9.73006 2.21894C9.80906 2.02894 9.95806 1.88093 10.1481 1.80193C10.2431 1.76293 10.3431 1.74393 10.4421 1.74393C10.5431 1.74393 10.6431 1.76294 10.7391 1.80294C10.9291 1.88194 11.0771 2.02994 11.1561 2.22094C11.2341 2.41194 11.2341 2.62193 11.1551 2.81293Z" fill="black" fill-opacity="0.2"/>
<path d="M10.8831 1.45695C10.6001 1.33895 10.2891 1.33693 10.0051 1.45493C9.72205 1.57193 9.50205 1.79193 9.38405 2.07593C9.26605 2.35793 9.26505 2.66993 9.38205 2.95293C9.49905 3.23693 9.71906 3.45793 10.0021 3.57593C10.1441 3.63493 10.2931 3.66393 10.4421 3.66393C10.5901 3.66393 10.7391 3.63594 10.8801 3.57694C11.1631 3.45994 11.3841 3.23995 11.5011 2.95695C11.6191 2.67395 11.6191 2.36093 11.5021 2.07793C11.3851 1.79493 11.1651 1.57395 10.8831 1.45695ZM11.1551 2.81293C11.0761 3.00393 10.9271 3.15194 10.7361 3.22994C10.5461 3.30794 10.3361 3.30894 10.1461 3.22994C9.95606 3.14994 9.80705 3.00194 9.72905 2.80994C9.65005 2.61994 9.65106 2.40994 9.73006 2.21894C9.80906 2.02894 9.95806 1.88093 10.1481 1.80193C10.2431 1.76293 10.3431 1.74393 10.4421 1.74393C10.5431 1.74393 10.6431 1.76294 10.7391 1.80294C10.9291 1.88194 11.0771 2.02994 11.1561 2.22094C11.2341 2.41194 11.2341 2.62193 11.1551 2.81293Z" fill="black" fill-opacity="0.2"/>
<path d="M10.8831 1.45695C10.6001 1.33895 10.2891 1.33693 10.0051 1.45493C9.72205 1.57193 9.50205 1.79193 9.38405 2.07593C9.26605 2.35793 9.26505 2.66993 9.38205 2.95293C9.49905 3.23693 9.71906 3.45793 10.0021 3.57593C10.1441 3.63493 10.2931 3.66393 10.4421 3.66393C10.5901 3.66393 10.7391 3.63594 10.8801 3.57694C11.1631 3.45994 11.3841 3.23995 11.5011 2.95695C11.6191 2.67395 11.6191 2.36093 11.5021 2.07793C11.3851 1.79493 11.1651 1.57395 10.8831 1.45695ZM11.1551 2.81293C11.0761 3.00393 10.9271 3.15194 10.7361 3.22994C10.5461 3.30794 10.3361 3.30894 10.1461 3.22994C9.95606 3.14994 9.80705 3.00194 9.72905 2.80994C9.65005 2.61994 9.65106 2.40994 9.73006 2.21894C9.80906 2.02894 9.95806 1.88093 10.1481 1.80193C10.2431 1.76293 10.3431 1.74393 10.4421 1.74393C10.5431 1.74393 10.6431 1.76294 10.7391 1.80294C10.9291 1.88194 11.0771 2.02994 11.1561 2.22094C11.2341 2.41194 11.2341 2.62193 11.1551 2.81293Z" fill="black" fill-opacity="0.2"/>
<path d="M10.8831 1.45695C10.6001 1.33895 10.2891 1.33693 10.0051 1.45493C9.72205 1.57193 9.50205 1.79193 9.38405 2.07593C9.26605 2.35793 9.26505 2.66993 9.38205 2.95293C9.49905 3.23693 9.71906 3.45793 10.0021 3.57593C10.1441 3.63493 10.2931 3.66393 10.4421 3.66393C10.5901 3.66393 10.7391 3.63594 10.8801 3.57694C11.1631 3.45994 11.3841 3.23995 11.5011 2.95695C11.6191 2.67395 11.6191 2.36093 11.5021 2.07793C11.3851 1.79493 11.1651 1.57395 10.8831 1.45695ZM11.1551 2.81293C11.0761 3.00393 10.9271 3.15194 10.7361 3.22994C10.5461 3.30794 10.3361 3.30894 10.1461 3.22994C9.95606 3.14994 9.80705 3.00194 9.72905 2.80994C9.65005 2.61994 9.65106 2.40994 9.73006 2.21894C9.80906 2.02894 9.95806 1.88093 10.1481 1.80193C10.2431 1.76293 10.3431 1.74393 10.4421 1.74393C10.5431 1.74393 10.6431 1.76294 10.7391 1.80294C10.9291 1.88194 11.0771 2.02994 11.1561 2.22094C11.2341 2.41194 11.2341 2.62193 11.1551 2.81293Z" fill="black" fill-opacity="0.2"/>
<path d="M10.8831 1.45695C10.6001 1.33895 10.2891 1.33693 10.0051 1.45493C9.72205 1.57193 9.50205 1.79193 9.38405 2.07593C9.26605 2.35793 9.26505 2.66993 9.38205 2.95293C9.49905 3.23693 9.71906 3.45793 10.0021 3.57593C10.1441 3.63493 10.2931 3.66393 10.4421 3.66393C10.5901 3.66393 10.7391 3.63594 10.8801 3.57694C11.1631 3.45994 11.3841 3.23995 11.5011 2.95695C11.6191 2.67395 11.6191 2.36093 11.5021 2.07793C11.3851 1.79493 11.1651 1.57395 10.8831 1.45695ZM11.1551 2.81293C11.0761 3.00393 10.9271 3.15194 10.7361 3.22994C10.5461 3.30794 10.3361 3.30894 10.1461 3.22994C9.95606 3.14994 9.80705 3.00194 9.72905 2.80994C9.65005 2.61994 9.65106 2.40994 9.73006 2.21894C9.80906 2.02894 9.95806 1.88093 10.1481 1.80193C10.2431 1.76293 10.3431 1.74393 10.4421 1.74393C10.5431 1.74393 10.6431 1.76294 10.7391 1.80294C10.9291 1.88194 11.0771 2.02994 11.1561 2.22094C11.2341 2.41194 11.2341 2.62193 11.1551 2.81293Z" fill="black" fill-opacity="0.2"/>
<path d="M10.8831 1.45695C10.6001 1.33895 10.2891 1.33693 10.0051 1.45493C9.72205 1.57193 9.50205 1.79193 9.38405 2.07593C9.26605 2.35793 9.26505 2.66993 9.38205 2.95293C9.49905 3.23693 9.71906 3.45793 10.0021 3.57593C10.1441 3.63493 10.2931 3.66393 10.4421 3.66393C10.5901 3.66393 10.7391 3.63594 10.8801 3.57694C11.1631 3.45994 11.3841 3.23995 11.5011 2.95695C11.6191 2.67395 11.6191 2.36093 11.5021 2.07793C11.3851 1.79493 11.1651 1.57395 10.8831 1.45695ZM11.1551 2.81293C11.0761 3.00393 10.9271 3.15194 10.7361 3.22994C10.5461 3.30794 10.3361 3.30894 10.1461 3.22994C9.95606 3.14994 9.80705 3.00194 9.72905 2.80994C9.65005 2.61994 9.65106 2.40994 9.73006 2.21894C9.80906 2.02894 9.95806 1.88093 10.1481 1.80193C10.2431 1.76293 10.3431 1.74393 10.4421 1.74393C10.5431 1.74393 10.6431 1.76294 10.7391 1.80294C10.9291 1.88194 11.0771 2.02994 11.1561 2.22094C11.2341 2.41194 11.2341 2.62193 11.1551 2.81293Z" fill="black" fill-opacity="0.2"/>
</g>
<g id="Vector_4">
<path d="M18.5592 1.45707C18.2762 1.33807 17.9642 1.33706 17.6812 1.45506C17.3982 1.57206 17.1772 1.79206 17.0592 2.07606C16.8172 2.65906 17.0942 3.33206 17.6782 3.57606C17.8212 3.63606 17.9702 3.66406 18.1172 3.66406C18.5662 3.66406 18.9942 3.39707 19.1772 2.95707C19.2952 2.67407 19.2962 2.36106 19.1782 2.07806C19.0612 1.79506 18.8412 1.57407 18.5592 1.45707ZM18.8312 2.81306C18.6672 3.20606 18.2142 3.39307 17.8222 3.23007C17.4292 3.06507 17.2432 2.61207 17.4062 2.21907C17.4852 2.02907 17.6342 1.88106 17.8242 1.80206C17.9192 1.76306 18.0192 1.74406 18.1182 1.74406C18.2192 1.74406 18.3202 1.76307 18.4152 1.80307C18.6052 1.88207 18.7532 2.03007 18.8322 2.22107C18.9112 2.41207 18.9102 2.62206 18.8312 2.81306Z" fill="#333335"/>
<path d="M18.5592 1.45707C18.2762 1.33807 17.9642 1.33706 17.6812 1.45506C17.3982 1.57206 17.1772 1.79206 17.0592 2.07606C16.8172 2.65906 17.0942 3.33206 17.6782 3.57606C17.8212 3.63606 17.9702 3.66406 18.1172 3.66406C18.5662 3.66406 18.9942 3.39707 19.1772 2.95707C19.2952 2.67407 19.2962 2.36106 19.1782 2.07806C19.0612 1.79506 18.8412 1.57407 18.5592 1.45707ZM18.8312 2.81306C18.6672 3.20606 18.2142 3.39307 17.8222 3.23007C17.4292 3.06507 17.2432 2.61207 17.4062 2.21907C17.4852 2.02907 17.6342 1.88106 17.8242 1.80206C17.9192 1.76306 18.0192 1.74406 18.1182 1.74406C18.2192 1.74406 18.3202 1.76307 18.4152 1.80307C18.6052 1.88207 18.7532 2.03007 18.8322 2.22107C18.9112 2.41207 18.9102 2.62206 18.8312 2.81306Z" fill="black" fill-opacity="0.2"/>
<path d="M18.5592 1.45707C18.2762 1.33807 17.9642 1.33706 17.6812 1.45506C17.3982 1.57206 17.1772 1.79206 17.0592 2.07606C16.8172 2.65906 17.0942 3.33206 17.6782 3.57606C17.8212 3.63606 17.9702 3.66406 18.1172 3.66406C18.5662 3.66406 18.9942 3.39707 19.1772 2.95707C19.2952 2.67407 19.2962 2.36106 19.1782 2.07806C19.0612 1.79506 18.8412 1.57407 18.5592 1.45707ZM18.8312 2.81306C18.6672 3.20606 18.2142 3.39307 17.8222 3.23007C17.4292 3.06507 17.2432 2.61207 17.4062 2.21907C17.4852 2.02907 17.6342 1.88106 17.8242 1.80206C17.9192 1.76306 18.0192 1.74406 18.1182 1.74406C18.2192 1.74406 18.3202 1.76307 18.4152 1.80307C18.6052 1.88207 18.7532 2.03007 18.8322 2.22107C18.9112 2.41207 18.9102 2.62206 18.8312 2.81306Z" fill="black" fill-opacity="0.2"/>
<path d="M18.5592 1.45707C18.2762 1.33807 17.9642 1.33706 17.6812 1.45506C17.3982 1.57206 17.1772 1.79206 17.0592 2.07606C16.8172 2.65906 17.0942 3.33206 17.6782 3.57606C17.8212 3.63606 17.9702 3.66406 18.1172 3.66406C18.5662 3.66406 18.9942 3.39707 19.1772 2.95707C19.2952 2.67407 19.2962 2.36106 19.1782 2.07806C19.0612 1.79506 18.8412 1.57407 18.5592 1.45707ZM18.8312 2.81306C18.6672 3.20606 18.2142 3.39307 17.8222 3.23007C17.4292 3.06507 17.2432 2.61207 17.4062 2.21907C17.4852 2.02907 17.6342 1.88106 17.8242 1.80206C17.9192 1.76306 18.0192 1.74406 18.1182 1.74406C18.2192 1.74406 18.3202 1.76307 18.4152 1.80307C18.6052 1.88207 18.7532 2.03007 18.8322 2.22107C18.9112 2.41207 18.9102 2.62206 18.8312 2.81306Z" fill="black" fill-opacity="0.2"/>
<path d="M18.5592 1.45707C18.2762 1.33807 17.9642 1.33706 17.6812 1.45506C17.3982 1.57206 17.1772 1.79206 17.0592 2.07606C16.8172 2.65906 17.0942 3.33206 17.6782 3.57606C17.8212 3.63606 17.9702 3.66406 18.1172 3.66406C18.5662 3.66406 18.9942 3.39707 19.1772 2.95707C19.2952 2.67407 19.2962 2.36106 19.1782 2.07806C19.0612 1.79506 18.8412 1.57407 18.5592 1.45707ZM18.8312 2.81306C18.6672 3.20606 18.2142 3.39307 17.8222 3.23007C17.4292 3.06507 17.2432 2.61207 17.4062 2.21907C17.4852 2.02907 17.6342 1.88106 17.8242 1.80206C17.9192 1.76306 18.0192 1.74406 18.1182 1.74406C18.2192 1.74406 18.3202 1.76307 18.4152 1.80307C18.6052 1.88207 18.7532 2.03007 18.8322 2.22107C18.9112 2.41207 18.9102 2.62206 18.8312 2.81306Z" fill="black" fill-opacity="0.2"/>
<path d="M18.5592 1.45707C18.2762 1.33807 17.9642 1.33706 17.6812 1.45506C17.3982 1.57206 17.1772 1.79206 17.0592 2.07606C16.8172 2.65906 17.0942 3.33206 17.6782 3.57606C17.8212 3.63606 17.9702 3.66406 18.1172 3.66406C18.5662 3.66406 18.9942 3.39707 19.1772 2.95707C19.2952 2.67407 19.2962 2.36106 19.1782 2.07806C19.0612 1.79506 18.8412 1.57407 18.5592 1.45707ZM18.8312 2.81306C18.6672 3.20606 18.2142 3.39307 17.8222 3.23007C17.4292 3.06507 17.2432 2.61207 17.4062 2.21907C17.4852 2.02907 17.6342 1.88106 17.8242 1.80206C17.9192 1.76306 18.0192 1.74406 18.1182 1.74406C18.2192 1.74406 18.3202 1.76307 18.4152 1.80307C18.6052 1.88207 18.7532 2.03007 18.8322 2.22107C18.9112 2.41207 18.9102 2.62206 18.8312 2.81306Z" fill="black" fill-opacity="0.2"/>
<path d="M18.5592 1.45707C18.2762 1.33807 17.9642 1.33706 17.6812 1.45506C17.3982 1.57206 17.1772 1.79206 17.0592 2.07606C16.8172 2.65906 17.0942 3.33206 17.6782 3.57606C17.8212 3.63606 17.9702 3.66406 18.1172 3.66406C18.5662 3.66406 18.9942 3.39707 19.1772 2.95707C19.2952 2.67407 19.2962 2.36106 19.1782 2.07806C19.0612 1.79506 18.8412 1.57407 18.5592 1.45707ZM18.8312 2.81306C18.6672 3.20606 18.2142 3.39307 17.8222 3.23007C17.4292 3.06507 17.2432 2.61207 17.4062 2.21907C17.4852 2.02907 17.6342 1.88106 17.8242 1.80206C17.9192 1.76306 18.0192 1.74406 18.1182 1.74406C18.2192 1.74406 18.3202 1.76307 18.4152 1.80307C18.6052 1.88207 18.7532 2.03007 18.8322 2.22107C18.9112 2.41207 18.9102 2.62206 18.8312 2.81306Z" fill="black" fill-opacity="0.2"/>
<path d="M18.5592 1.45707C18.2762 1.33807 17.9642 1.33706 17.6812 1.45506C17.3982 1.57206 17.1772 1.79206 17.0592 2.07606C16.8172 2.65906 17.0942 3.33206 17.6782 3.57606C17.8212 3.63606 17.9702 3.66406 18.1172 3.66406C18.5662 3.66406 18.9942 3.39707 19.1772 2.95707C19.2952 2.67407 19.2962 2.36106 19.1782 2.07806C19.0612 1.79506 18.8412 1.57407 18.5592 1.45707ZM18.8312 2.81306C18.6672 3.20606 18.2142 3.39307 17.8222 3.23007C17.4292 3.06507 17.2432 2.61207 17.4062 2.21907C17.4852 2.02907 17.6342 1.88106 17.8242 1.80206C17.9192 1.76306 18.0192 1.74406 18.1182 1.74406C18.2192 1.74406 18.3202 1.76307 18.4152 1.80307C18.6052 1.88207 18.7532 2.03007 18.8322 2.22107C18.9112 2.41207 18.9102 2.62206 18.8312 2.81306Z" fill="black" fill-opacity="0.2"/>
<path d="M18.5592 1.45707C18.2762 1.33807 17.9642 1.33706 17.6812 1.45506C17.3982 1.57206 17.1772 1.79206 17.0592 2.07606C16.8172 2.65906 17.0942 3.33206 17.6782 3.57606C17.8212 3.63606 17.9702 3.66406 18.1172 3.66406C18.5662 3.66406 18.9942 3.39707 19.1772 2.95707C19.2952 2.67407 19.2962 2.36106 19.1782 2.07806C19.0612 1.79506 18.8412 1.57407 18.5592 1.45707ZM18.8312 2.81306C18.6672 3.20606 18.2142 3.39307 17.8222 3.23007C17.4292 3.06507 17.2432 2.61207 17.4062 2.21907C17.4852 2.02907 17.6342 1.88106 17.8242 1.80206C17.9192 1.76306 18.0192 1.74406 18.1182 1.74406C18.2192 1.74406 18.3202 1.76307 18.4152 1.80307C18.6052 1.88207 18.7532 2.03007 18.8322 2.22107C18.9112 2.41207 18.9102 2.62206 18.8312 2.81306Z" fill="black" fill-opacity="0.2"/>
</g>
<g id="Vector_5">
<path d="M26.2346 1.45709C25.6506 1.21209 24.9786 1.49108 24.7356 2.07608C24.6176 2.35808 24.6166 2.67008 24.7336 2.95308C24.8506 3.23708 25.0706 3.45808 25.3536 3.57608C25.4966 3.63608 25.6456 3.66408 25.7926 3.66408C26.2426 3.66408 26.6696 3.39709 26.8526 2.95709C26.9706 2.67409 26.9716 2.36208 26.8536 2.07808C26.7376 1.79508 26.5176 1.57409 26.2346 1.45709ZM26.5066 2.81308C26.3436 3.20608 25.8896 3.39309 25.4976 3.23009C25.3076 3.15009 25.1596 3.00209 25.0806 2.81009C25.0026 2.62009 25.0026 2.41008 25.0816 2.21908C25.2046 1.92308 25.4926 1.74408 25.7946 1.74408C25.8936 1.74408 25.9946 1.76308 26.0906 1.80308C26.2806 1.88208 26.4286 2.03008 26.5076 2.22108C26.5866 2.41208 26.5856 2.62208 26.5066 2.81308Z" fill="#333335"/>
<path d="M26.2346 1.45709C25.6506 1.21209 24.9786 1.49108 24.7356 2.07608C24.6176 2.35808 24.6166 2.67008 24.7336 2.95308C24.8506 3.23708 25.0706 3.45808 25.3536 3.57608C25.4966 3.63608 25.6456 3.66408 25.7926 3.66408C26.2426 3.66408 26.6696 3.39709 26.8526 2.95709C26.9706 2.67409 26.9716 2.36208 26.8536 2.07808C26.7376 1.79508 26.5176 1.57409 26.2346 1.45709ZM26.5066 2.81308C26.3436 3.20608 25.8896 3.39309 25.4976 3.23009C25.3076 3.15009 25.1596 3.00209 25.0806 2.81009C25.0026 2.62009 25.0026 2.41008 25.0816 2.21908C25.2046 1.92308 25.4926 1.74408 25.7946 1.74408C25.8936 1.74408 25.9946 1.76308 26.0906 1.80308C26.2806 1.88208 26.4286 2.03008 26.5076 2.22108C26.5866 2.41208 26.5856 2.62208 26.5066 2.81308Z" fill="black" fill-opacity="0.2"/>
<path d="M26.2346 1.45709C25.6506 1.21209 24.9786 1.49108 24.7356 2.07608C24.6176 2.35808 24.6166 2.67008 24.7336 2.95308C24.8506 3.23708 25.0706 3.45808 25.3536 3.57608C25.4966 3.63608 25.6456 3.66408 25.7926 3.66408C26.2426 3.66408 26.6696 3.39709 26.8526 2.95709C26.9706 2.67409 26.9716 2.36208 26.8536 2.07808C26.7376 1.79508 26.5176 1.57409 26.2346 1.45709ZM26.5066 2.81308C26.3436 3.20608 25.8896 3.39309 25.4976 3.23009C25.3076 3.15009 25.1596 3.00209 25.0806 2.81009C25.0026 2.62009 25.0026 2.41008 25.0816 2.21908C25.2046 1.92308 25.4926 1.74408 25.7946 1.74408C25.8936 1.74408 25.9946 1.76308 26.0906 1.80308C26.2806 1.88208 26.4286 2.03008 26.5076 2.22108C26.5866 2.41208 26.5856 2.62208 26.5066 2.81308Z" fill="black" fill-opacity="0.2"/>
<path d="M26.2346 1.45709C25.6506 1.21209 24.9786 1.49108 24.7356 2.07608C24.6176 2.35808 24.6166 2.67008 24.7336 2.95308C24.8506 3.23708 25.0706 3.45808 25.3536 3.57608C25.4966 3.63608 25.6456 3.66408 25.7926 3.66408C26.2426 3.66408 26.6696 3.39709 26.8526 2.95709C26.9706 2.67409 26.9716 2.36208 26.8536 2.07808C26.7376 1.79508 26.5176 1.57409 26.2346 1.45709ZM26.5066 2.81308C26.3436 3.20608 25.8896 3.39309 25.4976 3.23009C25.3076 3.15009 25.1596 3.00209 25.0806 2.81009C25.0026 2.62009 25.0026 2.41008 25.0816 2.21908C25.2046 1.92308 25.4926 1.74408 25.7946 1.74408C25.8936 1.74408 25.9946 1.76308 26.0906 1.80308C26.2806 1.88208 26.4286 2.03008 26.5076 2.22108C26.5866 2.41208 26.5856 2.62208 26.5066 2.81308Z" fill="black" fill-opacity="0.2"/>
<path d="M26.2346 1.45709C25.6506 1.21209 24.9786 1.49108 24.7356 2.07608C24.6176 2.35808 24.6166 2.67008 24.7336 2.95308C24.8506 3.23708 25.0706 3.45808 25.3536 3.57608C25.4966 3.63608 25.6456 3.66408 25.7926 3.66408C26.2426 3.66408 26.6696 3.39709 26.8526 2.95709C26.9706 2.67409 26.9716 2.36208 26.8536 2.07808C26.7376 1.79508 26.5176 1.57409 26.2346 1.45709ZM26.5066 2.81308C26.3436 3.20608 25.8896 3.39309 25.4976 3.23009C25.3076 3.15009 25.1596 3.00209 25.0806 2.81009C25.0026 2.62009 25.0026 2.41008 25.0816 2.21908C25.2046 1.92308 25.4926 1.74408 25.7946 1.74408C25.8936 1.74408 25.9946 1.76308 26.0906 1.80308C26.2806 1.88208 26.4286 2.03008 26.5076 2.22108C26.5866 2.41208 26.5856 2.62208 26.5066 2.81308Z" fill="black" fill-opacity="0.2"/>
<path d="M26.2346 1.45709C25.6506 1.21209 24.9786 1.49108 24.7356 2.07608C24.6176 2.35808 24.6166 2.67008 24.7336 2.95308C24.8506 3.23708 25.0706 3.45808 25.3536 3.57608C25.4966 3.63608 25.6456 3.66408 25.7926 3.66408C26.2426 3.66408 26.6696 3.39709 26.8526 2.95709C26.9706 2.67409 26.9716 2.36208 26.8536 2.07808C26.7376 1.79508 26.5176 1.57409 26.2346 1.45709ZM26.5066 2.81308C26.3436 3.20608 25.8896 3.39309 25.4976 3.23009C25.3076 3.15009 25.1596 3.00209 25.0806 2.81009C25.0026 2.62009 25.0026 2.41008 25.0816 2.21908C25.2046 1.92308 25.4926 1.74408 25.7946 1.74408C25.8936 1.74408 25.9946 1.76308 26.0906 1.80308C26.2806 1.88208 26.4286 2.03008 26.5076 2.22108C26.5866 2.41208 26.5856 2.62208 26.5066 2.81308Z" fill="black" fill-opacity="0.2"/>
<path d="M26.2346 1.45709C25.6506 1.21209 24.9786 1.49108 24.7356 2.07608C24.6176 2.35808 24.6166 2.67008 24.7336 2.95308C24.8506 3.23708 25.0706 3.45808 25.3536 3.57608C25.4966 3.63608 25.6456 3.66408 25.7926 3.66408C26.2426 3.66408 26.6696 3.39709 26.8526 2.95709C26.9706 2.67409 26.9716 2.36208 26.8536 2.07808C26.7376 1.79508 26.5176 1.57409 26.2346 1.45709ZM26.5066 2.81308C26.3436 3.20608 25.8896 3.39309 25.4976 3.23009C25.3076 3.15009 25.1596 3.00209 25.0806 2.81009C25.0026 2.62009 25.0026 2.41008 25.0816 2.21908C25.2046 1.92308 25.4926 1.74408 25.7946 1.74408C25.8936 1.74408 25.9946 1.76308 26.0906 1.80308C26.2806 1.88208 26.4286 2.03008 26.5076 2.22108C26.5866 2.41208 26.5856 2.62208 26.5066 2.81308Z" fill="black" fill-opacity="0.2"/>
<path d="M26.2346 1.45709C25.6506 1.21209 24.9786 1.49108 24.7356 2.07608C24.6176 2.35808 24.6166 2.67008 24.7336 2.95308C24.8506 3.23708 25.0706 3.45808 25.3536 3.57608C25.4966 3.63608 25.6456 3.66408 25.7926 3.66408C26.2426 3.66408 26.6696 3.39709 26.8526 2.95709C26.9706 2.67409 26.9716 2.36208 26.8536 2.07808C26.7376 1.79508 26.5176 1.57409 26.2346 1.45709ZM26.5066 2.81308C26.3436 3.20608 25.8896 3.39309 25.4976 3.23009C25.3076 3.15009 25.1596 3.00209 25.0806 2.81009C25.0026 2.62009 25.0026 2.41008 25.0816 2.21908C25.2046 1.92308 25.4926 1.74408 25.7946 1.74408C25.8936 1.74408 25.9946 1.76308 26.0906 1.80308C26.2806 1.88208 26.4286 2.03008 26.5076 2.22108C26.5866 2.41208 26.5856 2.62208 26.5066 2.81308Z" fill="black" fill-opacity="0.2"/>
<path d="M26.2346 1.45709C25.6506 1.21209 24.9786 1.49108 24.7356 2.07608C24.6176 2.35808 24.6166 2.67008 24.7336 2.95308C24.8506 3.23708 25.0706 3.45808 25.3536 3.57608C25.4966 3.63608 25.6456 3.66408 25.7926 3.66408C26.2426 3.66408 26.6696 3.39709 26.8526 2.95709C26.9706 2.67409 26.9716 2.36208 26.8536 2.07808C26.7376 1.79508 26.5176 1.57409 26.2346 1.45709ZM26.5066 2.81308C26.3436 3.20608 25.8896 3.39309 25.4976 3.23009C25.3076 3.15009 25.1596 3.00209 25.0806 2.81009C25.0026 2.62009 25.0026 2.41008 25.0816 2.21908C25.2046 1.92308 25.4926 1.74408 25.7946 1.74408C25.8936 1.74408 25.9946 1.76308 26.0906 1.80308C26.2806 1.88208 26.4286 2.03008 26.5076 2.22108C26.5866 2.41208 26.5856 2.62208 26.5066 2.81308Z" fill="black" fill-opacity="0.2"/>
</g>
<g id="Vector_6">
<path d="M33.9114 1.45709C33.3274 1.21209 32.6554 1.49108 32.4124 2.07608C32.2944 2.35808 32.2934 2.67008 32.4104 2.95308C32.5274 3.23708 32.7474 3.45808 33.0304 3.57608C33.1724 3.63508 33.3214 3.66408 33.4704 3.66408C33.6184 3.66408 33.7674 3.63609 33.9084 3.57709C34.1914 3.46009 34.4124 3.24109 34.5304 2.95709C34.6474 2.67409 34.6474 2.36208 34.5314 2.07908C34.4144 1.79508 34.1944 1.57409 33.9114 1.45709ZM34.1834 2.81308C34.1044 3.00408 33.9554 3.15209 33.7654 3.23009C33.5744 3.30809 33.3654 3.30909 33.1744 3.23009C32.9844 3.15009 32.8354 3.00209 32.7574 2.81009C32.6784 2.62009 32.6794 2.41008 32.7584 2.21908C32.8814 1.92308 33.1694 1.74408 33.4724 1.74408C33.5704 1.74408 33.6714 1.76308 33.7674 1.80308C33.9584 1.88208 34.1054 2.03109 34.1844 2.22209C34.2634 2.41209 34.2624 2.62308 34.1834 2.81308Z" fill="#333335"/>
<path d="M33.9114 1.45709C33.3274 1.21209 32.6554 1.49108 32.4124 2.07608C32.2944 2.35808 32.2934 2.67008 32.4104 2.95308C32.5274 3.23708 32.7474 3.45808 33.0304 3.57608C33.1724 3.63508 33.3214 3.66408 33.4704 3.66408C33.6184 3.66408 33.7674 3.63609 33.9084 3.57709C34.1914 3.46009 34.4124 3.24109 34.5304 2.95709C34.6474 2.67409 34.6474 2.36208 34.5314 2.07908C34.4144 1.79508 34.1944 1.57409 33.9114 1.45709ZM34.1834 2.81308C34.1044 3.00408 33.9554 3.15209 33.7654 3.23009C33.5744 3.30809 33.3654 3.30909 33.1744 3.23009C32.9844 3.15009 32.8354 3.00209 32.7574 2.81009C32.6784 2.62009 32.6794 2.41008 32.7584 2.21908C32.8814 1.92308 33.1694 1.74408 33.4724 1.74408C33.5704 1.74408 33.6714 1.76308 33.7674 1.80308C33.9584 1.88208 34.1054 2.03109 34.1844 2.22209C34.2634 2.41209 34.2624 2.62308 34.1834 2.81308Z" fill="black" fill-opacity="0.2"/>
<path d="M33.9114 1.45709C33.3274 1.21209 32.6554 1.49108 32.4124 2.07608C32.2944 2.35808 32.2934 2.67008 32.4104 2.95308C32.5274 3.23708 32.7474 3.45808 33.0304 3.57608C33.1724 3.63508 33.3214 3.66408 33.4704 3.66408C33.6184 3.66408 33.7674 3.63609 33.9084 3.57709C34.1914 3.46009 34.4124 3.24109 34.5304 2.95709C34.6474 2.67409 34.6474 2.36208 34.5314 2.07908C34.4144 1.79508 34.1944 1.57409 33.9114 1.45709ZM34.1834 2.81308C34.1044 3.00408 33.9554 3.15209 33.7654 3.23009C33.5744 3.30809 33.3654 3.30909 33.1744 3.23009C32.9844 3.15009 32.8354 3.00209 32.7574 2.81009C32.6784 2.62009 32.6794 2.41008 32.7584 2.21908C32.8814 1.92308 33.1694 1.74408 33.4724 1.74408C33.5704 1.74408 33.6714 1.76308 33.7674 1.80308C33.9584 1.88208 34.1054 2.03109 34.1844 2.22209C34.2634 2.41209 34.2624 2.62308 34.1834 2.81308Z" fill="black" fill-opacity="0.2"/>
<path d="M33.9114 1.45709C33.3274 1.21209 32.6554 1.49108 32.4124 2.07608C32.2944 2.35808 32.2934 2.67008 32.4104 2.95308C32.5274 3.23708 32.7474 3.45808 33.0304 3.57608C33.1724 3.63508 33.3214 3.66408 33.4704 3.66408C33.6184 3.66408 33.7674 3.63609 33.9084 3.57709C34.1914 3.46009 34.4124 3.24109 34.5304 2.95709C34.6474 2.67409 34.6474 2.36208 34.5314 2.07908C34.4144 1.79508 34.1944 1.57409 33.9114 1.45709ZM34.1834 2.81308C34.1044 3.00408 33.9554 3.15209 33.7654 3.23009C33.5744 3.30809 33.3654 3.30909 33.1744 3.23009C32.9844 3.15009 32.8354 3.00209 32.7574 2.81009C32.6784 2.62009 32.6794 2.41008 32.7584 2.21908C32.8814 1.92308 33.1694 1.74408 33.4724 1.74408C33.5704 1.74408 33.6714 1.76308 33.7674 1.80308C33.9584 1.88208 34.1054 2.03109 34.1844 2.22209C34.2634 2.41209 34.2624 2.62308 34.1834 2.81308Z" fill="black" fill-opacity="0.2"/>
<path d="M33.9114 1.45709C33.3274 1.21209 32.6554 1.49108 32.4124 2.07608C32.2944 2.35808 32.2934 2.67008 32.4104 2.95308C32.5274 3.23708 32.7474 3.45808 33.0304 3.57608C33.1724 3.63508 33.3214 3.66408 33.4704 3.66408C33.6184 3.66408 33.7674 3.63609 33.9084 3.57709C34.1914 3.46009 34.4124 3.24109 34.5304 2.95709C34.6474 2.67409 34.6474 2.36208 34.5314 2.07908C34.4144 1.79508 34.1944 1.57409 33.9114 1.45709ZM34.1834 2.81308C34.1044 3.00408 33.9554 3.15209 33.7654 3.23009C33.5744 3.30809 33.3654 3.30909 33.1744 3.23009C32.9844 3.15009 32.8354 3.00209 32.7574 2.81009C32.6784 2.62009 32.6794 2.41008 32.7584 2.21908C32.8814 1.92308 33.1694 1.74408 33.4724 1.74408C33.5704 1.74408 33.6714 1.76308 33.7674 1.80308C33.9584 1.88208 34.1054 2.03109 34.1844 2.22209C34.2634 2.41209 34.2624 2.62308 34.1834 2.81308Z" fill="black" fill-opacity="0.2"/>
<path d="M33.9114 1.45709C33.3274 1.21209 32.6554 1.49108 32.4124 2.07608C32.2944 2.35808 32.2934 2.67008 32.4104 2.95308C32.5274 3.23708 32.7474 3.45808 33.0304 3.57608C33.1724 3.63508 33.3214 3.66408 33.4704 3.66408C33.6184 3.66408 33.7674 3.63609 33.9084 3.57709C34.1914 3.46009 34.4124 3.24109 34.5304 2.95709C34.6474 2.67409 34.6474 2.36208 34.5314 2.07908C34.4144 1.79508 34.1944 1.57409 33.9114 1.45709ZM34.1834 2.81308C34.1044 3.00408 33.9554 3.15209 33.7654 3.23009C33.5744 3.30809 33.3654 3.30909 33.1744 3.23009C32.9844 3.15009 32.8354 3.00209 32.7574 2.81009C32.6784 2.62009 32.6794 2.41008 32.7584 2.21908C32.8814 1.92308 33.1694 1.74408 33.4724 1.74408C33.5704 1.74408 33.6714 1.76308 33.7674 1.80308C33.9584 1.88208 34.1054 2.03109 34.1844 2.22209C34.2634 2.41209 34.2624 2.62308 34.1834 2.81308Z" fill="black" fill-opacity="0.2"/>
<path d="M33.9114 1.45709C33.3274 1.21209 32.6554 1.49108 32.4124 2.07608C32.2944 2.35808 32.2934 2.67008 32.4104 2.95308C32.5274 3.23708 32.7474 3.45808 33.0304 3.57608C33.1724 3.63508 33.3214 3.66408 33.4704 3.66408C33.6184 3.66408 33.7674 3.63609 33.9084 3.57709C34.1914 3.46009 34.4124 3.24109 34.5304 2.95709C34.6474 2.67409 34.6474 2.36208 34.5314 2.07908C34.4144 1.79508 34.1944 1.57409 33.9114 1.45709ZM34.1834 2.81308C34.1044 3.00408 33.9554 3.15209 33.7654 3.23009C33.5744 3.30809 33.3654 3.30909 33.1744 3.23009C32.9844 3.15009 32.8354 3.00209 32.7574 2.81009C32.6784 2.62009 32.6794 2.41008 32.7584 2.21908C32.8814 1.92308 33.1694 1.74408 33.4724 1.74408C33.5704 1.74408 33.6714 1.76308 33.7674 1.80308C33.9584 1.88208 34.1054 2.03109 34.1844 2.22209C34.2634 2.41209 34.2624 2.62308 34.1834 2.81308Z" fill="black" fill-opacity="0.2"/>
<path d="M33.9114 1.45709C33.3274 1.21209 32.6554 1.49108 32.4124 2.07608C32.2944 2.35808 32.2934 2.67008 32.4104 2.95308C32.5274 3.23708 32.7474 3.45808 33.0304 3.57608C33.1724 3.63508 33.3214 3.66408 33.4704 3.66408C33.6184 3.66408 33.7674 3.63609 33.9084 3.57709C34.1914 3.46009 34.4124 3.24109 34.5304 2.95709C34.6474 2.67409 34.6474 2.36208 34.5314 2.07908C34.4144 1.79508 34.1944 1.57409 33.9114 1.45709ZM34.1834 2.81308C34.1044 3.00408 33.9554 3.15209 33.7654 3.23009C33.5744 3.30809 33.3654 3.30909 33.1744 3.23009C32.9844 3.15009 32.8354 3.00209 32.7574 2.81009C32.6784 2.62009 32.6794 2.41008 32.7584 2.21908C32.8814 1.92308 33.1694 1.74408 33.4724 1.74408C33.5704 1.74408 33.6714 1.76308 33.7674 1.80308C33.9584 1.88208 34.1054 2.03109 34.1844 2.22209C34.2634 2.41209 34.2624 2.62308 34.1834 2.81308Z" fill="black" fill-opacity="0.2"/>
<path d="M33.9114 1.45709C33.3274 1.21209 32.6554 1.49108 32.4124 2.07608C32.2944 2.35808 32.2934 2.67008 32.4104 2.95308C32.5274 3.23708 32.7474 3.45808 33.0304 3.57608C33.1724 3.63508 33.3214 3.66408 33.4704 3.66408C33.6184 3.66408 33.7674 3.63609 33.9084 3.57709C34.1914 3.46009 34.4124 3.24109 34.5304 2.95709C34.6474 2.67409 34.6474 2.36208 34.5314 2.07908C34.4144 1.79508 34.1944 1.57409 33.9114 1.45709ZM34.1834 2.81308C34.1044 3.00408 33.9554 3.15209 33.7654 3.23009C33.5744 3.30809 33.3654 3.30909 33.1744 3.23009C32.9844 3.15009 32.8354 3.00209 32.7574 2.81009C32.6784 2.62009 32.6794 2.41008 32.7584 2.21908C32.8814 1.92308 33.1694 1.74408 33.4724 1.74408C33.5704 1.74408 33.6714 1.76308 33.7674 1.80308C33.9584 1.88208 34.1054 2.03109 34.1844 2.22209C34.2634 2.41209 34.2624 2.62308 34.1834 2.81308Z" fill="black" fill-opacity="0.2"/>
</g>
</g>
</svg>
