<svg width="42" height="36" viewBox="0 0 42 36" fill="none" xmlns="http://www.w3.org/2000/svg">
<g id="ring icons">
<g id="Vector">
<path d="M36.725 13H5.5136C4.1275 13 3 14.128 3 15.514V21.103C3 22.488 4.1275 23.616 5.5136 23.616H36.725C38.111 23.616 39.239 22.489 39.239 21.103V15.514C39.239 14.128 38.111 13 36.725 13ZM38.489 21.103C38.489 22.075 37.698 22.866 36.725 22.866H5.5136C4.5409 22.866 3.75 22.075 3.75 21.103V15.514C3.75 14.541 4.5409 13.75 5.5136 13.75H36.725C37.698 13.75 38.489 14.541 38.489 15.514V21.103Z" fill="#333335"/>
<path d="M36.725 13H5.5136C4.1275 13 3 14.128 3 15.514V21.103C3 22.488 4.1275 23.616 5.5136 23.616H36.725C38.111 23.616 39.239 22.489 39.239 21.103V15.514C39.239 14.128 38.111 13 36.725 13ZM38.489 21.103C38.489 22.075 37.698 22.866 36.725 22.866H5.5136C4.5409 22.866 3.75 22.075 3.75 21.103V15.514C3.75 14.541 4.5409 13.75 5.5136 13.75H36.725C37.698 13.75 38.489 14.541 38.489 15.514V21.103Z" fill="black" fill-opacity="0.2"/>
<path d="M36.725 13H5.5136C4.1275 13 3 14.128 3 15.514V21.103C3 22.488 4.1275 23.616 5.5136 23.616H36.725C38.111 23.616 39.239 22.489 39.239 21.103V15.514C39.239 14.128 38.111 13 36.725 13ZM38.489 21.103C38.489 22.075 37.698 22.866 36.725 22.866H5.5136C4.5409 22.866 3.75 22.075 3.75 21.103V15.514C3.75 14.541 4.5409 13.75 5.5136 13.75H36.725C37.698 13.75 38.489 14.541 38.489 15.514V21.103Z" fill="black" fill-opacity="0.2"/>
<path d="M36.725 13H5.5136C4.1275 13 3 14.128 3 15.514V21.103C3 22.488 4.1275 23.616 5.5136 23.616H36.725C38.111 23.616 39.239 22.489 39.239 21.103V15.514C39.239 14.128 38.111 13 36.725 13ZM38.489 21.103C38.489 22.075 37.698 22.866 36.725 22.866H5.5136C4.5409 22.866 3.75 22.075 3.75 21.103V15.514C3.75 14.541 4.5409 13.75 5.5136 13.75H36.725C37.698 13.75 38.489 14.541 38.489 15.514V21.103Z" fill="black" fill-opacity="0.2"/>
<path d="M36.725 13H5.5136C4.1275 13 3 14.128 3 15.514V21.103C3 22.488 4.1275 23.616 5.5136 23.616H36.725C38.111 23.616 39.239 22.489 39.239 21.103V15.514C39.239 14.128 38.111 13 36.725 13ZM38.489 21.103C38.489 22.075 37.698 22.866 36.725 22.866H5.5136C4.5409 22.866 3.75 22.075 3.75 21.103V15.514C3.75 14.541 4.5409 13.75 5.5136 13.75H36.725C37.698 13.75 38.489 14.541 38.489 15.514V21.103Z" fill="black" fill-opacity="0.2"/>
<path d="M36.725 13H5.5136C4.1275 13 3 14.128 3 15.514V21.103C3 22.488 4.1275 23.616 5.5136 23.616H36.725C38.111 23.616 39.239 22.489 39.239 21.103V15.514C39.239 14.128 38.111 13 36.725 13ZM38.489 21.103C38.489 22.075 37.698 22.866 36.725 22.866H5.5136C4.5409 22.866 3.75 22.075 3.75 21.103V15.514C3.75 14.541 4.5409 13.75 5.5136 13.75H36.725C37.698 13.75 38.489 14.541 38.489 15.514V21.103Z" fill="black" fill-opacity="0.2"/>
<path d="M36.725 13H5.5136C4.1275 13 3 14.128 3 15.514V21.103C3 22.488 4.1275 23.616 5.5136 23.616H36.725C38.111 23.616 39.239 22.489 39.239 21.103V15.514C39.239 14.128 38.111 13 36.725 13ZM38.489 21.103C38.489 22.075 37.698 22.866 36.725 22.866H5.5136C4.5409 22.866 3.75 22.075 3.75 21.103V15.514C3.75 14.541 4.5409 13.75 5.5136 13.75H36.725C37.698 13.75 38.489 14.541 38.489 15.514V21.103Z" fill="black" fill-opacity="0.2"/>
<path d="M36.725 13H5.5136C4.1275 13 3 14.128 3 15.514V21.103C3 22.488 4.1275 23.616 5.5136 23.616H36.725C38.111 23.616 39.239 22.489 39.239 21.103V15.514C39.239 14.128 38.111 13 36.725 13ZM38.489 21.103C38.489 22.075 37.698 22.866 36.725 22.866H5.5136C4.5409 22.866 3.75 22.075 3.75 21.103V15.514C3.75 14.541 4.5409 13.75 5.5136 13.75H36.725C37.698 13.75 38.489 14.541 38.489 15.514V21.103Z" fill="black" fill-opacity="0.2"/>
<path d="M36.725 13H5.5136C4.1275 13 3 14.128 3 15.514V21.103C3 22.488 4.1275 23.616 5.5136 23.616H36.725C38.111 23.616 39.239 22.489 39.239 21.103V15.514C39.239 14.128 38.111 13 36.725 13ZM38.489 21.103C38.489 22.075 37.698 22.866 36.725 22.866H5.5136C4.5409 22.866 3.75 22.075 3.75 21.103V15.514C3.75 14.541 4.5409 13.75 5.5136 13.75H36.725C37.698 13.75 38.489 14.541 38.489 15.514V21.103Z" fill="black" fill-opacity="0.2"/>
</g>
</g>
</svg>
