<svg width="100" height="100" viewBox="0 0 100 100" fill="none" xmlns="http://www.w3.org/2000/svg">
<path d="M80.964 36.8858L80.9587 36.88L80.9568 36.8733L70.7365 19.172C70.6755 19.0658 70.5616 19 70.4387 19H29.5614C29.4384 19 29.3246 19.0658 29.2636 19.172L19.0438 36.8733L19.0419 36.88L19.0366 36.8858L19.0361 36.8863C19.0289 36.9084 19.0241 36.9314 19.0217 36.955C18.9929 37.0112 18.9929 37.0775 19.0212 37.1341C19.025 37.163 19.0327 37.1908 19.0438 37.2177C19.0462 37.222 19.051 37.2235 19.0534 37.2273C19.0563 37.2316 19.0553 37.2374 19.0582 37.2417L49.7167 81.4035C49.7206 81.4088 49.7268 81.4107 49.7307 81.4155L49.7379 81.4237H49.7374C49.7605 81.4558 49.7912 81.4818 49.8263 81.4996C49.8349 81.5044 49.8416 81.5111 49.8503 81.5154L49.8604 81.5221L49.8709 81.5245V81.5241C49.9531 81.5606 50.0463 81.5606 50.1284 81.5241L50.139 81.5217L50.1491 81.5149C50.1577 81.5106 50.1644 81.5044 50.1731 81.4991V81.4996C50.2081 81.4818 50.2389 81.4558 50.2619 81.4237L50.2691 81.4155C50.273 81.4107 50.2792 81.4088 50.2826 81.4035L80.9412 37.2417C80.944 37.2374 80.9436 37.2316 80.946 37.2273C80.9484 37.2235 80.9532 37.2216 80.9556 37.2177H80.956C80.9671 37.1908 80.9748 37.163 80.9786 37.1341C81.0074 37.0774 81.007 37.0112 80.9781 36.955C80.9757 36.9314 80.9709 36.9084 80.9637 36.8863L80.964 36.8858ZM69.8421 19.6886L60.2198 36.357L50.5965 19.6886H69.8421ZM59.6231 36.7013H40.3761L49.9994 20.0329L59.6231 36.7013ZM49.4033 19.6886L39.78 36.357L30.1577 19.6886H49.4033ZM29.5611 20.033L39.1834 36.7014H19.9376L29.5611 20.033ZM19.9998 37.3888H39.5063L48.7496 77.334L49.2597 79.5373L19.9998 37.3888ZM49.9992 79.679L40.2126 37.3888H59.7856L49.9992 79.679ZM50.739 79.5373L51.2491 77.334L60.4929 37.3888H79.9994L50.739 79.5373ZM60.8156 36.7012L70.4379 20.0327L80.0612 36.7012H60.8156Z" fill="#1D1F1E" stroke="#1D1F1E" stroke-width="0.6"/>
<path opacity="0.2" d="M40 37H20L49.5 80L40 37Z" fill="#2A3E52" stroke="#2A3E52"/>
</svg>
