<svg width="46" height="46" viewBox="0 0 46 46" fill="none" xmlns="http://www.w3.org/2000/svg">
<path d="M35.7313 10H10.2687L10 10.2687V35.7313L10.2687 36H35.7313L36 35.7313V10.2687L35.7313 10ZM35.4626 28.2456H33.0331V17.7538H35.4661L35.4626 28.2456ZM10.5375 17.7538H12.967V28.2456H10.5375V17.7538ZM17.7545 13.6333L22.2515 15.3604L17.7545 17.091V13.6333ZM15.0743 22.9995L13.5084 27.0701V18.9292L15.0743 22.9995ZM13.6411 17.7537H17.0989L15.361 22.2507L13.6411 17.7537ZM15.3682 23.7484L17.0989 28.2454H13.6339L15.3682 23.7484ZM17.7617 28.9083L22.2587 30.639L17.7547 32.3661L17.7617 28.9083ZM17.7007 28.3065L15.6512 22.9996L17.6937 17.6927L23.0004 15.6504L28.3072 17.693L30.3495 22.9996L28.307 28.3065L23.0004 30.3488L17.7007 28.3065ZM28.2533 17.091L23.7493 15.3604L28.2463 13.6332L28.2533 17.091ZM28.2533 28.9156V32.3734L23.7493 30.639L28.2533 28.9156ZM30.6468 23.7557L32.3739 28.2527H28.9089L30.6468 23.7557ZM30.9335 23.0069L32.4994 18.9363V27.0702L30.9335 23.0069ZM30.6468 22.2581L28.9089 17.754H32.3666L30.6468 22.2581ZM23.0004 15.0737L18.9298 13.5078H27.0708L23.0004 15.0737ZM17.2172 17.2238L13.0068 17.2235L10.7243 10.7737L17.217 13.4469L17.2172 17.2238ZM17.2172 28.7905V32.5779L10.7245 35.2511L13.007 28.8013L17.2172 28.7905ZM23.0004 30.9406L27.071 32.5065L18.9301 32.506L23.0004 30.9406ZM28.7837 28.7905H32.994L35.2765 35.2403L28.7839 32.5779L28.7837 28.7905ZM28.7837 17.2238V13.4218L35.2763 10.7487L32.9938 17.1985L28.7837 17.2238ZM28.7837 12.8449V10.5375H34.3734L28.7837 12.8449ZM28.2463 12.9774H17.7545V10.5372H28.2463V12.9774ZM17.217 12.8449L11.6273 10.5444H17.217V12.8449ZM12.4371 17.2165H10.538V11.8416L12.4371 17.2165ZM10.538 28.7832H12.4371L10.538 34.1581V28.7832ZM17.2168 33.1621V35.4625H11.6271L17.2168 33.1621ZM17.7542 33.0296H28.246V35.4625L17.7542 35.4623V33.0296ZM28.7835 33.1621L34.3732 35.4625H28.7835V33.1621ZM33.5634 28.7832H35.4625V34.1581L33.5634 28.7832ZM35.4625 17.2165H33.5634L35.4625 11.8416V17.2165Z" fill="black"/>
</svg>
