<svg width="20" height="26" viewBox="0 0 20 26" fill="none" xmlns="http://www.w3.org/2000/svg">
<path d="M19.1519 3.76499L15.4578 0.070957L15.3157 0H4.53211L4.38147 0.0624374L0.687437 3.75647L0.625 3.90711V22.0929L0.687437 22.2435L4.38147 25.9376L4.53211 26H15.3157L15.4664 25.9376L19.1604 22.2435L19.2228 22.0929V3.90711L19.1519 3.76499ZM16.0261 4.91855L14.3013 3.19095L14.5429 2.60844L16.6086 4.67717L16.0261 4.91855ZM13.9603 22.536L5.8762 22.5362L4.07188 20.7347V5.25648L5.8762 3.45496H13.9578L15.7621 5.25648V20.7428L13.9603 22.536ZM13.8949 3.02894H5.93866L5.69704 2.44642H14.145L13.8949 3.02894ZM5.52663 3.19087L3.80183 4.91847L3.21931 4.67685L5.28505 2.60812L5.52663 3.19087ZM3.63712 5.3107V20.6889L3.05461 20.9306L3.05481 5.06926L3.63712 5.3107ZM3.80183 21.0812L5.52664 22.8088L5.28502 23.377L3.21928 21.3083L3.80183 21.0812ZM5.93891 22.9707H13.8952L14.1368 23.5389H5.68885L5.93891 22.9707ZM14.3072 22.8088L16.032 21.0812L16.6145 21.3228L14.5488 23.3915L14.3072 22.8088ZM16.1967 20.6889V5.31068L16.7792 5.06907V20.9304L16.1967 20.6889ZM17.0492 4.49222L14.7333 2.17633L14.975 1.60807L17.6345 4.26485L17.0492 4.49222ZM14.3213 2.02014H5.51253L5.27092 1.43484H14.5627L14.3213 2.02014ZM5.11776 2.18208L2.81318 4.49797L2.22788 4.25636L4.88745 1.59958L5.11776 2.18208ZM2.63716 4.893V21.107L2.05465 21.3486L2.05445 4.65155L2.63716 4.893ZM2.81317 21.5017L5.12907 23.8176L4.88745 24.4001L2.21637 21.7434L2.81317 21.5017ZM5.52409 23.9795H14.3328L14.5744 24.5648L5.27098 24.565L5.52409 23.9795ZM14.7276 23.8176L17.0207 21.5017L17.606 21.7433L14.9464 24.4001L14.7276 23.8176ZM17.2082 21.1067V4.89272L17.7765 4.65111V21.3476L17.2082 21.1067ZM18.0607 4.08035L15.1339 1.17362L15.3756 0.588318L18.6262 3.83892L18.0607 4.08035ZM14.7474 1.00871H5.08624L4.84463 0.440457H14.9803L14.7474 1.00871ZM4.70822 1.17342L1.78997 4.08036L1.22172 3.83874L4.45827 0.588135L4.70822 1.17342ZM1.62805 4.47538V21.5245L1.0598 21.7662V4.23394L1.62805 4.47538ZM1.78999 21.9198L4.69971 24.8267L4.4581 25.4121L1.20749 22.1614L1.78999 21.9198ZM5.08621 24.9915H14.7474L14.989 25.5597H4.85339L5.08621 24.9915ZM15.1254 24.8267L18.0437 21.9198L18.6262 22.1614L15.3756 25.412L15.1254 24.8267ZM18.2056 21.5248V4.47563L18.7738 4.23401V21.7662L18.2056 21.5248Z" fill="black"/>
</svg>
