<svg width="42" height="36" viewBox="0 0 42 36" fill="none" xmlns="http://www.w3.org/2000/svg">
<g id="ring icons">
<path id="Vector" d="M38.6281 19.6987C38.3881 19.3687 38.0431 19.1587 37.6451 19.0912L30.7001 17.9962L37.6451 16.9012C38.4631 16.7662 39.0251 15.9937 38.8981 15.1687C38.7701 14.3512 37.9981 13.7812 37.1731 13.9162L24.7371 15.8812C24.7081 15.8287 24.6781 15.7687 24.6401 15.7162C23.8601 14.4487 22.4951 13.6987 20.9951 13.6987C19.5025 13.6987 18.1452 14.4487 17.3576 15.7162C17.3276 15.7687 17.2975 15.8212 17.2675 15.8737L4.83259 13.9162C4.00749 13.7812 3.23498 14.3512 3.10008 15.1687C2.97248 15.9937 3.53498 16.7662 4.35998 16.9012L11.305 17.9962L4.35998 19.0912C3.96248 19.1587 3.60998 19.3687 3.37008 19.6987C3.13758 20.0212 3.03998 20.4262 3.09998 20.8237C3.16758 21.2212 3.37739 21.5662 3.70749 21.8062C3.96989 22.0012 4.27748 22.0987 4.59238 22.0987C4.66748 22.0987 4.74989 22.0912 4.83249 22.0762L17.2601 20.1187C17.9951 21.4162 19.3975 22.3012 20.9951 22.3012C22.6001 22.3012 24.0021 21.4162 24.7371 20.1187L37.1721 22.0762C37.2481 22.0912 37.3301 22.0987 37.4131 22.0987C37.7271 22.0987 38.0351 22.0012 38.2971 21.8062C38.6201 21.5662 38.8371 21.2212 38.8971 20.8237C38.9651 20.4262 38.8681 20.0212 38.6281 19.6987ZM4.48028 16.1587C4.06028 16.0912 3.77519 15.7012 3.84269 15.2887C3.90279 14.9137 4.22519 14.6437 4.59269 14.6437C4.63769 14.6437 4.67508 14.6512 4.71258 14.6587L16.9376 16.5862C16.8775 16.7662 16.8252 16.9462 16.7876 17.1337L13.7125 17.6137L4.48028 16.1587ZM4.71258 21.3337C4.51028 21.3712 4.31508 21.3187 4.15008 21.1987C3.98508 21.0787 3.87269 20.9062 3.84269 20.7037C3.81269 20.5012 3.85768 20.3062 3.97758 20.1412C4.09748 19.9762 4.27768 19.8637 4.48018 19.8337L13.7126 18.3787L16.1276 17.9962L16.6978 17.9062V17.9962C16.6978 18.0262 16.6978 18.0562 16.7051 18.0862C16.7051 18.3487 16.7351 18.6112 16.7877 18.8587C16.8252 19.0462 16.8703 19.2262 16.9377 19.4062L4.71258 21.3337ZM24.4001 16.9987C24.4601 17.2087 24.5051 17.4262 24.5281 17.6512L23.6431 17.0362L23.8981 16.9237L24.3101 16.7362C24.3401 16.8187 24.3701 16.9087 24.4001 16.9987ZM23.6881 16.0462L23.7401 15.7462C23.8081 15.8287 23.8681 15.9112 23.9281 16.0087C23.9581 16.0462 23.9801 16.0837 24.0031 16.1212C24.0851 16.2412 24.1531 16.3687 24.2131 16.5037L23.5531 16.7962L23.6881 16.0462ZM23.5231 15.5062L23.4181 16.0837L23.2901 16.8262L23.2831 16.8637L22.2851 16.6987L22.2781 16.6687L22.2181 16.2712L22.1351 15.7162L23.4851 15.4687C23.5001 15.4837 23.5081 15.4987 23.5231 15.5062ZM21.0031 19.5187L19.9226 19.0687L19.8702 18.9412L19.7125 18.5587L19.4724 17.9887L19.7049 17.4337L19.8624 17.0512L19.9225 16.9087L21.0021 16.4662L22.0831 16.9087L22.1421 17.0512L22.3001 17.4337L22.5251 17.9887L22.2931 18.5587L22.1351 18.9412L22.0821 19.0687L21.0031 19.5187ZM22.0151 19.3762L21.9631 19.6762L21.8881 20.1487L21.2501 19.6837L21.4601 19.6012L22.0151 19.3762ZM20.7481 19.6762L20.1026 20.1412L20.035 19.6762L19.9901 19.3687V19.3612L20.0126 19.3687L20.5531 19.5937L20.7481 19.6762ZM19.3151 18.2437L19.4277 18.5137L19.6152 18.9862L19.6227 19.0012L19.5626 18.9937L18.8501 18.8737L19.15 18.4687L19.3151 18.2437ZM19.3001 17.7337L19.1426 17.5237L18.8427 17.1037L19.5326 16.9987L19.6152 16.9837L19.6077 17.0062L19.4052 17.4787L19.3001 17.7337ZM19.9902 16.6087L20.0351 16.3162L20.1177 15.8287L20.7481 16.2937L20.5151 16.3912L19.9902 16.6087ZM21.2501 16.3012L21.8951 15.8437L21.9701 16.3162L22.0151 16.6162L21.4751 16.3912L21.2501 16.3012ZM22.3831 18.9862L22.5851 18.5137L22.6981 18.2437L22.8631 18.4687L23.1631 18.8737L22.4351 18.9937L22.3751 19.0012L22.3831 18.9862ZM22.5851 17.4787L22.3901 17.0062L22.3751 16.9762L22.4801 16.9912L23.1551 17.1037L22.8551 17.5162L22.6981 17.7337L22.5851 17.4787ZM23.2451 15.2512L22.1881 15.4462L22.4581 14.7637C22.7431 14.8912 23.0051 15.0562 23.2451 15.2512ZM22.2101 14.6587L21.9551 15.3412L21.3401 14.4637C21.6401 14.4937 21.9331 14.5612 22.2101 14.6587ZM20.9951 14.4487H21.0251L21.8131 15.5812L21.0021 16.1812L20.1926 15.5887L20.9801 14.4487C20.9881 14.4487 20.9881 14.4487 20.9951 14.4487ZM20.6501 14.4712L20.035 15.3487L19.7351 14.6812C20.0277 14.5687 20.3352 14.5012 20.6501 14.4712ZM19.5103 14.7787L19.8027 15.4462L18.7526 15.2512C18.9851 15.0637 19.2327 14.9062 19.5103 14.7787ZM18.5127 15.4687L19.8702 15.7162L19.7876 16.2712L19.7275 16.6687L19.72 16.7062L18.7224 16.8637L18.7151 16.8262L18.58 16.0837L18.4751 15.5062C18.4902 15.4912 18.4977 15.4837 18.5127 15.4687ZM17.9953 16.1137C18.0176 16.0762 18.0402 16.0387 18.0702 16.0012C18.1303 15.9112 18.1901 15.8212 18.2577 15.7387L18.3103 16.0387L18.4528 16.8037L17.7629 16.5412C17.8301 16.3912 17.9052 16.2487 17.9953 16.1137ZM17.6053 17.0062C17.6276 16.9237 17.6502 16.8487 17.6802 16.7737L18.0777 16.9312L18.3553 17.0362L17.4702 17.6587C17.4927 17.4337 17.5377 17.2162 17.6053 17.0062ZM17.4478 17.9962V17.9662L17.7851 17.7337L18.5952 17.1787L18.8728 17.5612L19.1877 17.9887L18.8653 18.4312L18.5952 18.7987L17.8229 18.2662L17.4552 18.0112C17.4551 18.0037 17.4478 17.9962 17.4478 17.9962ZM17.6126 18.9937C17.5452 18.7837 17.5077 18.5662 17.4852 18.3337L18.3553 18.9412L18.0777 19.0687L17.6877 19.2412C17.6576 19.1587 17.6276 19.0762 17.6126 18.9937ZM18.3177 19.9462L18.2651 20.2312C18.1977 20.1487 18.1377 20.0662 18.0851 19.9837C17.9652 19.8262 17.8676 19.6612 17.785 19.4812L18.4526 19.1887L18.3177 19.9462ZM18.4752 20.4862L18.5801 19.9087L18.7152 19.1662L18.7225 19.1212H18.7302L19.7201 19.2787L19.7276 19.3237L19.7877 19.7212L19.8703 20.2687L18.4977 20.5162C18.4902 20.5087 18.4827 20.4937 18.4752 20.4862ZM18.7603 20.7262L19.8102 20.5387L19.5401 21.2287C19.2552 21.1012 19.0002 20.9212 18.7603 20.7262ZM19.7877 21.3187L20.0501 20.6362L20.6581 21.5137C20.3577 21.4837 20.0651 21.4237 19.7877 21.3187ZM20.9951 21.5512L20.9881 21.5437L20.1927 20.4037L21.0031 19.8037L21.8131 20.3962L21.0181 21.5437C21.0101 21.5437 21.0031 21.5512 20.9951 21.5512ZM21.3551 21.5137L21.9631 20.6287L22.2631 21.3037C21.9781 21.4162 21.6701 21.4762 21.3551 21.5137ZM22.4951 21.2062L22.2031 20.5387L23.2451 20.7262C23.0131 20.9137 22.7651 21.0787 22.4951 21.2062ZM23.5001 20.5162L22.1351 20.2687L22.2181 19.7212L22.2781 19.3237L22.2851 19.2712L23.2681 19.1212H23.2831L23.2901 19.1662L23.4251 19.9087L23.5301 20.4862C23.5151 20.4937 23.5081 20.5012 23.5001 20.5162ZM23.9201 19.9837C23.8681 20.0737 23.8081 20.1487 23.7401 20.2312L23.6881 19.9462L23.5531 19.1812L24.2351 19.4437C24.1531 19.6312 24.0481 19.8187 23.9201 19.9837ZM24.3851 18.9937C24.3701 19.0687 24.3481 19.1437 24.3251 19.2112L23.9501 19.0612L23.6431 18.9412L24.5201 18.3337C24.4981 18.5587 24.4531 18.7837 24.3851 18.9937ZM24.5501 17.9962C24.5501 17.9962 24.5501 18.0037 24.5501 18.0112L24.1831 18.2662L23.4031 18.7987L23.1331 18.4312L22.8181 17.9887L23.1251 17.5612L23.4031 17.1787L24.2051 17.7337L24.5501 17.9737V17.9962ZM37.2851 14.6587C37.3301 14.6512 37.3681 14.6437 37.4051 14.6437C37.7731 14.6437 38.0951 14.9137 38.1551 15.2887C38.2231 15.7012 37.9381 16.0912 37.5251 16.1587L28.2851 17.6137L25.8771 17.9962L25.2931 18.0862C25.3001 18.0562 25.3001 18.0262 25.3001 17.9962V17.9062C25.2931 17.6437 25.2631 17.3812 25.2101 17.1262C25.1731 16.9387 25.1271 16.7587 25.0601 16.5862L37.2851 14.6587ZM37.8551 21.1987C37.6901 21.3187 37.4881 21.3712 37.2851 21.3337L25.0601 19.4062C25.1281 19.2337 25.1731 19.0537 25.2101 18.8662V18.8587L28.2851 18.3787L37.5251 19.8337C37.7281 19.8637 37.9001 19.9762 38.0201 20.1412C38.1401 20.3062 38.1931 20.5012 38.1551 20.7037C38.1251 20.9062 38.0201 21.0787 37.8551 21.1987Z" fill="black"/>
</g>
</svg>
