<svg width="227" height="24" viewBox="0 0 227 24" fill="none" xmlns="http://www.w3.org/2000/svg">
<path fill-rule="evenodd" clip-rule="evenodd" d="M17.0019 18.0026V12.0001C17.0021 11.4694 16.7913 10.9604 16.4161 10.5851C16.0408 10.2099 15.5318 9.99912 15.0011 9.99927H4.99693C4.46623 9.99912 3.95722 10.2099 3.58196 10.5851C3.2067 10.9604 2.99595 11.4694 2.99609 12.0001V18.0026C2.99595 18.5333 3.2067 19.0423 3.58196 19.4176C3.95722 19.7928 4.46623 20.0036 4.99693 20.0034H15.0011C16.1061 20.0034 17.0019 19.1076 17.0019 18.0026Z" stroke="#A4AAAE" stroke-width="1.5" stroke-linecap="round" stroke-linejoin="round"/>
<path d="M2.99609 14.08H17.0019" stroke="#A4AAAE" stroke-width="1.5" stroke-linecap="round" stroke-linejoin="round"/>
<path d="M6.19531 9.99925L7.40582 5.47736C7.54316 4.96489 7.87879 4.52813 8.33863 4.26349C8.79848 3.99884 9.34473 3.92807 9.85684 4.06678L19.5209 6.65786C20.0333 6.7952 20.4701 7.13083 20.7347 7.59067C20.9994 8.05052 21.0702 8.59677 20.9314 9.10888L19.3808 14.9013C19.1049 15.9438 18.0498 16.5777 16.9998 16.3319" stroke="#A4AAAE" stroke-width="1.5" stroke-linecap="round" stroke-linejoin="round"/>
<path d="M41.138 18.168C40.3167 18.168 39.5933 17.944 38.968 17.496C38.352 17.0387 37.8713 16.4087 37.526 15.606C37.1807 14.794 37.008 13.8513 37.008 12.778C37.008 11.7047 37.1807 10.7667 37.526 9.964C37.8713 9.152 38.352 8.522 38.968 8.074C39.584 7.626 40.3027 7.402 41.124 7.402C41.9453 7.402 42.664 7.626 43.28 8.074C43.896 8.522 44.3767 9.152 44.722 9.964C45.0673 10.7667 45.24 11.7047 45.24 12.778C45.24 13.8513 45.0673 14.794 44.722 15.606C44.386 16.418 43.91 17.048 43.294 17.496C42.678 17.944 41.9593 18.168 41.138 18.168ZM41.138 17.118C41.7353 17.118 42.258 16.936 42.706 16.572C43.154 16.208 43.504 15.704 43.756 15.06C44.008 14.4067 44.134 13.646 44.134 12.778C44.134 11.91 44.008 11.154 43.756 10.51C43.504 9.85667 43.154 9.35267 42.706 8.998C42.258 8.634 41.7307 8.452 41.124 8.452C40.5267 8.452 40.004 8.634 39.556 8.998C39.108 9.35267 38.758 9.85667 38.506 10.51C38.254 11.154 38.128 11.91 38.128 12.778C38.128 13.6367 38.254 14.3927 38.506 15.046C38.758 15.6993 39.108 16.208 39.556 16.572C40.0133 16.936 40.5407 17.118 41.138 17.118ZM48.1859 18L56.7259 7.57H58.0839L49.5439 18H48.1859ZM49.7119 12.862C49.2079 12.862 48.7506 12.7407 48.3399 12.498C47.9292 12.246 47.5979 11.9147 47.3459 11.504C47.1032 11.0933 46.9819 10.636 46.9819 10.132C46.9819 9.628 47.1032 9.17067 47.3459 8.76C47.5979 8.34 47.9292 8.00867 48.3399 7.766C48.7506 7.52333 49.2079 7.402 49.7119 7.402C50.2159 7.402 50.6732 7.52333 51.0839 7.766C51.4946 8.00867 51.8212 8.34 52.0639 8.76C52.3066 9.17067 52.4279 9.628 52.4279 10.132C52.4279 10.636 52.3066 11.0933 52.0639 11.504C51.8212 11.9147 51.4946 12.246 51.0839 12.498C50.6732 12.7407 50.2159 12.862 49.7119 12.862ZM49.7119 11.854C50.0386 11.854 50.3232 11.7747 50.5659 11.616C50.8179 11.448 51.0139 11.2333 51.1539 10.972C51.3032 10.7013 51.3779 10.4213 51.3779 10.132C51.3779 9.83333 51.3032 9.55333 51.1539 9.292C51.0139 9.03067 50.8179 8.82067 50.5659 8.662C50.3232 8.494 50.0386 8.41 49.7119 8.41C49.3946 8.41 49.1052 8.494 48.8439 8.662C48.5919 8.82067 48.3912 9.03067 48.2419 9.292C48.1019 9.55333 48.0319 9.83333 48.0319 10.132C48.0319 10.4213 48.1019 10.7013 48.2419 10.972C48.3912 11.2333 48.5919 11.448 48.8439 11.616C49.1052 11.7747 49.3946 11.854 49.7119 11.854ZM56.4319 18.168C55.9279 18.168 55.4706 18.0467 55.0599 17.804C54.6492 17.552 54.3179 17.2207 54.0659 16.81C53.8232 16.3993 53.7019 15.942 53.7019 15.438C53.7019 14.934 53.8232 14.4767 54.0659 14.066C54.3179 13.646 54.6492 13.3147 55.0599 13.072C55.4706 12.8293 55.9279 12.708 56.4319 12.708C56.9359 12.708 57.3932 12.8293 57.8039 13.072C58.2146 13.3147 58.5412 13.646 58.7839 14.066C59.0266 14.4767 59.1479 14.934 59.1479 15.438C59.1479 15.942 59.0266 16.3993 58.7839 16.81C58.5412 17.2207 58.2146 17.552 57.8039 17.804C57.3932 18.0467 56.9359 18.168 56.4319 18.168ZM56.4319 17.16C56.7586 17.16 57.0432 17.0807 57.2859 16.922C57.5379 16.754 57.7339 16.5393 57.8739 16.278C58.0232 16.0073 58.0979 15.7273 58.0979 15.438C58.0979 15.1393 58.0232 14.8593 57.8739 14.598C57.7339 14.3367 57.5379 14.1267 57.2859 13.968C57.0432 13.8 56.7586 13.716 56.4319 13.716C56.1146 13.716 55.8252 13.8 55.5639 13.968C55.3119 14.1267 55.1112 14.3367 54.9619 14.598C54.8219 14.8593 54.7519 15.1393 54.7519 15.438C54.7519 15.7273 54.8219 16.0073 54.9619 16.278C55.1112 16.5393 55.3119 16.754 55.5639 16.922C55.8252 17.0807 56.1146 17.16 56.4319 17.16ZM62.4177 18L66.2257 7.57H67.4297L71.2377 18H70.0617L69.1657 15.452H64.5037L63.5937 18H62.4177ZM64.8677 14.402H68.7737L66.6597 8.41H66.9957L64.8677 14.402ZM72.6285 18V7.57H76.2125C76.8938 7.57 77.4912 7.70533 78.0045 7.976C78.5178 8.23733 78.9145 8.61067 79.1945 9.096C79.4838 9.572 79.6285 10.1273 79.6285 10.762C79.6285 11.3967 79.4838 11.952 79.1945 12.428C78.9145 12.904 78.5178 13.2773 78.0045 13.548C77.5005 13.8093 76.9032 13.94 76.2125 13.94H73.7485V18H72.6285ZM73.7485 12.89H76.2685C76.7165 12.89 77.1085 12.806 77.4445 12.638C77.7805 12.4607 78.0418 12.2133 78.2285 11.896C78.4152 11.5693 78.5085 11.1867 78.5085 10.748C78.5085 10.3093 78.4152 9.93133 78.2285 9.614C78.0418 9.29667 77.7805 9.054 77.4445 8.886C77.1085 8.70867 76.7165 8.62 76.2685 8.62H73.7485V12.89ZM81.6246 18V7.57H85.2086C85.8899 7.57 86.4872 7.70533 87.0006 7.976C87.5139 8.23733 87.9106 8.61067 88.1906 9.096C88.4799 9.572 88.6246 10.1273 88.6246 10.762C88.6246 11.4993 88.4286 12.1293 88.0366 12.652C87.6539 13.1747 87.1312 13.5433 86.4686 13.758L88.9046 18H87.5886L85.0406 13.506L85.7966 13.94H82.7446V18H81.6246ZM82.7446 12.89H85.2646C85.7126 12.89 86.1046 12.806 86.4406 12.638C86.7766 12.4607 87.0379 12.2133 87.2246 11.896C87.4112 11.5693 87.5046 11.1867 87.5046 10.748C87.5046 10.3093 87.4112 9.93133 87.2246 9.614C87.0379 9.29667 86.7766 9.054 86.4406 8.886C86.1046 8.70867 85.7126 8.62 85.2646 8.62H82.7446V12.89ZM92.9722 18V7.57H99.4122V8.62H94.0922V12.246H98.9922V13.296H94.0922V18H92.9722ZM101.107 18V7.57H102.227V18H101.107ZM104.689 18V7.57H105.669L111.787 16.348H111.409V7.57H112.529V18H111.549L105.431 9.166H105.809V18H104.689ZM113.92 18L117.728 7.57H118.932L122.74 18H121.564L120.668 15.452H116.006L115.096 18H113.92ZM116.37 14.402H120.276L118.162 8.41H118.498L116.37 14.402ZM124.13 18V7.57H125.11L131.228 16.348H130.85V7.57H131.97V18H130.99L124.872 9.166H125.25V18H124.13ZM139.199 18.168C138.462 18.168 137.785 18.0373 137.169 17.776C136.553 17.5053 136.016 17.132 135.559 16.656C135.111 16.1707 134.761 15.6013 134.509 14.948C134.257 14.2947 134.131 13.576 134.131 12.792C134.131 12.008 134.257 11.2893 134.509 10.636C134.761 9.98267 135.111 9.41333 135.559 8.928C136.016 8.44267 136.553 8.06933 137.169 7.808C137.785 7.53733 138.462 7.402 139.199 7.402C139.908 7.402 140.543 7.528 141.103 7.78C141.672 8.032 142.148 8.35867 142.531 8.76C142.923 9.152 143.203 9.56733 143.371 10.006L142.321 10.468C142.06 9.86133 141.658 9.376 141.117 9.012C140.585 8.63867 139.946 8.452 139.199 8.452C138.434 8.452 137.752 8.634 137.155 8.998C136.558 9.362 136.091 9.87067 135.755 10.524C135.419 11.168 135.251 11.924 135.251 12.792C135.251 13.6507 135.419 14.4067 135.755 15.06C136.091 15.7133 136.558 16.222 137.155 16.586C137.752 16.9407 138.434 17.118 139.199 17.118C139.946 17.118 140.585 16.936 141.117 16.572C141.658 16.208 142.06 15.7227 142.321 15.116L143.371 15.578C143.203 16.0073 142.923 16.4227 142.531 16.824C142.148 17.216 141.672 17.538 141.103 17.79C140.543 18.042 139.908 18.168 139.199 18.168ZM145.377 18V7.57H152.097V8.62H146.497V12.246H151.817V13.296H146.497V16.95H152.097V18H145.377ZM155.25 18L159.058 7.57H160.262L164.07 18H162.894L161.998 15.452H157.336L156.426 18H155.25ZM157.7 14.402H161.606L159.492 8.41H159.828L157.7 14.402ZM167.371 18L163.549 7.57H164.711L168.071 17.006H167.847L171.193 7.57H172.369L168.547 18H167.371ZM171.847 18L175.655 7.57H176.859L180.667 18H179.491L178.595 15.452H173.933L173.023 18H171.847ZM174.297 14.402H178.203L176.089 8.41H176.425L174.297 14.402ZM182.058 18V7.57H183.178V18H182.058ZM185.64 18V7.57H186.76V16.95H191.38V18H185.64ZM192 18L195.808 7.57H197.012L200.82 18H199.644L198.748 15.452H194.086L193.176 18H192ZM194.45 14.402H198.356L196.242 8.41H196.578L194.45 14.402ZM202.211 18V7.57H206.593C207.181 7.57 207.689 7.682 208.119 7.906C208.557 8.12067 208.893 8.424 209.127 8.816C209.369 9.208 209.491 9.66533 209.491 10.188C209.491 10.7293 209.355 11.21 209.085 11.63C208.823 12.0407 208.445 12.3533 207.951 12.568L207.937 12.232C208.347 12.3813 208.697 12.5913 208.987 12.862C209.285 13.1327 209.514 13.45 209.673 13.814C209.831 14.1687 209.911 14.5513 209.911 14.962C209.911 15.8953 209.612 16.6373 209.015 17.188C208.427 17.7293 207.624 18 206.607 18H202.211ZM203.331 16.95H206.607C207.269 16.95 207.797 16.7773 208.189 16.432C208.59 16.0773 208.791 15.592 208.791 14.976C208.791 14.3693 208.59 13.8887 208.189 13.534C207.797 13.17 207.269 12.988 206.607 12.988H203.331V16.95ZM203.331 11.98H206.509C207.069 11.98 207.517 11.8167 207.853 11.49C208.198 11.1633 208.371 10.7433 208.371 10.23C208.371 9.70733 208.198 9.31067 207.853 9.04C207.517 8.76 207.069 8.62 206.509 8.62H203.331V11.98ZM211.918 18V7.57H213.038V16.95H217.658V18H211.918ZM219.355 18V7.57H226.075V8.62H220.475V12.246H225.795V13.296H220.475V16.95H226.075V18H219.355Z" fill="#1D1F1E"/>
</svg>
