<svg width="339" height="200" viewBox="0 0 339 200" fill="none" xmlns="http://www.w3.org/2000/svg">
<rect width="339" height="200" fill="#F8F8F8"/>
<path fill-rule="evenodd" clip-rule="evenodd" d="M73.0019 54.0022V47.9997C73.0021 47.469 72.7913 46.96 72.4161 46.5848C72.0408 46.2095 71.5318 45.9988 71.0011 45.9989H60.9969C60.4662 45.9988 59.9572 46.2095 59.582 46.5848C59.2067 46.96 58.9959 47.469 58.9961 47.9997V54.0022C58.9959 54.5329 59.2067 55.0419 59.582 55.4172C59.9572 55.7925 60.4662 56.0032 60.9969 56.0031H71.0011C72.1061 56.0031 73.0019 55.1072 73.0019 54.0022Z" stroke="#A4AAAE" stroke-width="1.5" stroke-linecap="round" stroke-linejoin="round"/>
<path d="M58.9961 50.0802H73.0019" stroke="#A4AAAE" stroke-width="1.5" stroke-linecap="round" stroke-linejoin="round"/>
<path d="M62.1953 45.9989L63.4058 41.477C63.5432 40.9645 63.8788 40.5278 64.3386 40.2631C64.7985 39.9985 65.3447 39.9277 65.8568 40.0664L75.5209 42.6575C76.0333 42.7948 76.4701 43.1305 76.7347 43.5903C76.9994 44.0501 77.0702 44.5964 76.9314 45.1085L75.3808 50.9009C75.1049 51.9434 74.0498 52.5773 72.9998 52.3315" stroke="#A4AAAE" stroke-width="1.5" stroke-linecap="round" stroke-linejoin="round"/>
<path d="M97.138 54.168C96.3167 54.168 95.5933 53.944 94.968 53.496C94.352 53.0387 93.8713 52.4087 93.526 51.606C93.1807 50.794 93.008 49.8513 93.008 48.778C93.008 47.7047 93.1807 46.7667 93.526 45.964C93.8713 45.152 94.352 44.522 94.968 44.074C95.584 43.626 96.3027 43.402 97.124 43.402C97.9453 43.402 98.664 43.626 99.28 44.074C99.896 44.522 100.377 45.152 100.722 45.964C101.067 46.7667 101.24 47.7047 101.24 48.778C101.24 49.8513 101.067 50.794 100.722 51.606C100.386 52.418 99.91 53.048 99.294 53.496C98.678 53.944 97.9593 54.168 97.138 54.168ZM97.138 53.118C97.7353 53.118 98.258 52.936 98.706 52.572C99.154 52.208 99.504 51.704 99.756 51.06C100.008 50.4067 100.134 49.646 100.134 48.778C100.134 47.91 100.008 47.154 99.756 46.51C99.504 45.8567 99.154 45.3527 98.706 44.998C98.258 44.634 97.7307 44.452 97.124 44.452C96.5267 44.452 96.004 44.634 95.556 44.998C95.108 45.3527 94.758 45.8567 94.506 46.51C94.254 47.154 94.128 47.91 94.128 48.778C94.128 49.6367 94.254 50.3927 94.506 51.046C94.758 51.6993 95.108 52.208 95.556 52.572C96.0133 52.936 96.5407 53.118 97.138 53.118ZM104.186 54L112.726 43.57H114.084L105.544 54H104.186ZM105.712 48.862C105.208 48.862 104.751 48.7407 104.34 48.498C103.929 48.246 103.598 47.9147 103.346 47.504C103.103 47.0933 102.982 46.636 102.982 46.132C102.982 45.628 103.103 45.1707 103.346 44.76C103.598 44.34 103.929 44.0087 104.34 43.766C104.751 43.5233 105.208 43.402 105.712 43.402C106.216 43.402 106.673 43.5233 107.084 43.766C107.495 44.0087 107.821 44.34 108.064 44.76C108.307 45.1707 108.428 45.628 108.428 46.132C108.428 46.636 108.307 47.0933 108.064 47.504C107.821 47.9147 107.495 48.246 107.084 48.498C106.673 48.7407 106.216 48.862 105.712 48.862ZM105.712 47.854C106.039 47.854 106.323 47.7747 106.566 47.616C106.818 47.448 107.014 47.2333 107.154 46.972C107.303 46.7013 107.378 46.4213 107.378 46.132C107.378 45.8333 107.303 45.5533 107.154 45.292C107.014 45.0307 106.818 44.8207 106.566 44.662C106.323 44.494 106.039 44.41 105.712 44.41C105.395 44.41 105.105 44.494 104.844 44.662C104.592 44.8207 104.391 45.0307 104.242 45.292C104.102 45.5533 104.032 45.8333 104.032 46.132C104.032 46.4213 104.102 46.7013 104.242 46.972C104.391 47.2333 104.592 47.448 104.844 47.616C105.105 47.7747 105.395 47.854 105.712 47.854ZM112.432 54.168C111.928 54.168 111.471 54.0467 111.06 53.804C110.649 53.552 110.318 53.2207 110.066 52.81C109.823 52.3993 109.702 51.942 109.702 51.438C109.702 50.934 109.823 50.4767 110.066 50.066C110.318 49.646 110.649 49.3147 111.06 49.072C111.471 48.8293 111.928 48.708 112.432 48.708C112.936 48.708 113.393 48.8293 113.804 49.072C114.215 49.3147 114.541 49.646 114.784 50.066C115.027 50.4767 115.148 50.934 115.148 51.438C115.148 51.942 115.027 52.3993 114.784 52.81C114.541 53.2207 114.215 53.552 113.804 53.804C113.393 54.0467 112.936 54.168 112.432 54.168ZM112.432 53.16C112.759 53.16 113.043 53.0807 113.286 52.922C113.538 52.754 113.734 52.5393 113.874 52.278C114.023 52.0073 114.098 51.7273 114.098 51.438C114.098 51.1393 114.023 50.8593 113.874 50.598C113.734 50.3367 113.538 50.1267 113.286 49.968C113.043 49.8 112.759 49.716 112.432 49.716C112.115 49.716 111.825 49.8 111.564 49.968C111.312 50.1267 111.111 50.3367 110.962 50.598C110.822 50.8593 110.752 51.1393 110.752 51.438C110.752 51.7273 110.822 52.0073 110.962 52.278C111.111 52.5393 111.312 52.754 111.564 52.922C111.825 53.0807 112.115 53.16 112.432 53.16ZM118.418 54L122.226 43.57H123.43L127.238 54H126.062L125.166 51.452H120.504L119.594 54H118.418ZM120.868 50.402H124.774L122.66 44.41H122.996L120.868 50.402ZM128.628 54V43.57H132.212C132.894 43.57 133.491 43.7053 134.004 43.976C134.518 44.2373 134.914 44.6107 135.194 45.096C135.484 45.572 135.628 46.1273 135.628 46.762C135.628 47.3967 135.484 47.952 135.194 48.428C134.914 48.904 134.518 49.2773 134.004 49.548C133.5 49.8093 132.903 49.94 132.212 49.94H129.748V54H128.628ZM129.748 48.89H132.268C132.716 48.89 133.108 48.806 133.444 48.638C133.78 48.4607 134.042 48.2133 134.228 47.896C134.415 47.5693 134.508 47.1867 134.508 46.748C134.508 46.3093 134.415 45.9313 134.228 45.614C134.042 45.2967 133.78 45.054 133.444 44.886C133.108 44.7087 132.716 44.62 132.268 44.62H129.748V48.89ZM137.625 54V43.57H141.209C141.89 43.57 142.487 43.7053 143.001 43.976C143.514 44.2373 143.911 44.6107 144.191 45.096C144.48 45.572 144.625 46.1273 144.625 46.762C144.625 47.4993 144.429 48.1293 144.037 48.652C143.654 49.1747 143.131 49.5433 142.469 49.758L144.905 54H143.589L141.041 49.506L141.797 49.94H138.745V54H137.625ZM138.745 48.89H141.265C141.713 48.89 142.105 48.806 142.441 48.638C142.777 48.4607 143.038 48.2133 143.225 47.896C143.411 47.5693 143.505 47.1867 143.505 46.748C143.505 46.3093 143.411 45.9313 143.225 45.614C143.038 45.2967 142.777 45.054 142.441 44.886C142.105 44.7087 141.713 44.62 141.265 44.62H138.745V48.89ZM148.972 54V43.57H155.412V44.62H150.092V48.246H154.992V49.296H150.092V54H148.972ZM157.107 54V43.57H158.227V54H157.107ZM160.689 54V43.57H161.669L167.787 52.348H167.409V43.57H168.529V54H167.549L161.431 45.166H161.809V54H160.689ZM169.92 54L173.728 43.57H174.932L178.74 54H177.564L176.668 51.452H172.006L171.096 54H169.92ZM172.37 50.402H176.276L174.162 44.41H174.498L172.37 50.402ZM180.13 54V43.57H181.11L187.228 52.348H186.85V43.57H187.97V54H186.99L180.872 45.166H181.25V54H180.13ZM195.199 54.168C194.462 54.168 193.785 54.0373 193.169 53.776C192.553 53.5053 192.016 53.132 191.559 52.656C191.111 52.1707 190.761 51.6013 190.509 50.948C190.257 50.2947 190.131 49.576 190.131 48.792C190.131 48.008 190.257 47.2893 190.509 46.636C190.761 45.9827 191.111 45.4133 191.559 44.928C192.016 44.4427 192.553 44.0693 193.169 43.808C193.785 43.5373 194.462 43.402 195.199 43.402C195.908 43.402 196.543 43.528 197.103 43.78C197.672 44.032 198.148 44.3587 198.531 44.76C198.923 45.152 199.203 45.5673 199.371 46.006L198.321 46.468C198.06 45.8613 197.658 45.376 197.117 45.012C196.585 44.6387 195.946 44.452 195.199 44.452C194.434 44.452 193.752 44.634 193.155 44.998C192.558 45.362 192.091 45.8707 191.755 46.524C191.419 47.168 191.251 47.924 191.251 48.792C191.251 49.6507 191.419 50.4067 191.755 51.06C192.091 51.7133 192.558 52.222 193.155 52.586C193.752 52.9407 194.434 53.118 195.199 53.118C195.946 53.118 196.585 52.936 197.117 52.572C197.658 52.208 198.06 51.7227 198.321 51.116L199.371 51.578C199.203 52.0073 198.923 52.4227 198.531 52.824C198.148 53.216 197.672 53.538 197.103 53.79C196.543 54.042 195.908 54.168 195.199 54.168ZM201.377 54V43.57H208.097V44.62H202.497V48.246H207.817V49.296H202.497V52.95H208.097V54H201.377ZM211.25 54L215.058 43.57H216.262L220.07 54H218.894L217.998 51.452H213.336L212.426 54H211.25ZM213.7 50.402H217.606L215.492 44.41H215.828L213.7 50.402ZM223.371 54L219.549 43.57H220.711L224.071 53.006H223.847L227.193 43.57H228.369L224.547 54H223.371ZM227.847 54L231.655 43.57H232.859L236.667 54H235.491L234.595 51.452H229.933L229.023 54H227.847ZM230.297 50.402H234.203L232.089 44.41H232.425L230.297 50.402ZM238.058 54V43.57H239.178V54H238.058ZM241.64 54V43.57H242.76V52.95H247.38V54H241.64ZM248 54L251.808 43.57H253.012L256.82 54H255.644L254.748 51.452H250.086L249.176 54H248ZM250.45 50.402H254.356L252.242 44.41H252.578L250.45 50.402ZM258.211 54V43.57H262.593C263.181 43.57 263.689 43.682 264.119 43.906C264.557 44.1207 264.893 44.424 265.127 44.816C265.369 45.208 265.491 45.6653 265.491 46.188C265.491 46.7293 265.355 47.21 265.085 47.63C264.823 48.0407 264.445 48.3533 263.951 48.568L263.937 48.232C264.347 48.3813 264.697 48.5913 264.987 48.862C265.285 49.1327 265.514 49.45 265.673 49.814C265.831 50.1687 265.911 50.5513 265.911 50.962C265.911 51.8953 265.612 52.6373 265.015 53.188C264.427 53.7293 263.624 54 262.607 54H258.211ZM259.331 52.95H262.607C263.269 52.95 263.797 52.7773 264.189 52.432C264.59 52.0773 264.791 51.592 264.791 50.976C264.791 50.3693 264.59 49.8887 264.189 49.534C263.797 49.17 263.269 48.988 262.607 48.988H259.331V52.95ZM259.331 47.98H262.509C263.069 47.98 263.517 47.8167 263.853 47.49C264.198 47.1633 264.371 46.7433 264.371 46.23C264.371 45.7073 264.198 45.3107 263.853 45.04C263.517 44.76 263.069 44.62 262.509 44.62H259.331V47.98ZM267.918 54V43.57H269.038V52.95H273.658V54H267.918ZM275.355 54V43.57H282.075V44.62H276.475V48.246H281.795V49.296H276.475V52.95H282.075V54H275.355Z" fill="#1D1F1E"/>
<path d="M49.661 90.168C48.9984 90.168 48.3964 90.042 47.855 89.79C47.3137 89.538 46.8564 89.202 46.483 88.782C46.1097 88.3527 45.8437 87.8813 45.685 87.368L46.693 86.99C46.9357 87.6993 47.3137 88.2407 47.827 88.614C48.3404 88.978 48.9517 89.16 49.661 89.16C50.109 89.16 50.501 89.09 50.837 88.95C51.1824 88.8007 51.4484 88.5953 51.635 88.334C51.8217 88.0727 51.915 87.7693 51.915 87.424C51.915 86.9107 51.775 86.514 51.495 86.234C51.215 85.954 50.8137 85.7393 50.291 85.59L48.415 85.03C47.6777 84.8153 47.1084 84.456 46.707 83.952C46.315 83.448 46.119 82.874 46.119 82.23C46.119 81.6793 46.2544 81.194 46.525 80.774C46.7957 80.3447 47.1644 80.0087 47.631 79.766C48.107 79.5233 48.6437 79.402 49.241 79.402C49.8664 79.402 50.4264 79.5187 50.921 79.752C51.425 79.976 51.8497 80.2747 52.195 80.648C52.5404 81.0213 52.7877 81.4367 52.937 81.894L51.957 82.286C51.733 81.67 51.383 81.2033 50.907 80.886C50.4404 80.5687 49.8897 80.41 49.255 80.41C48.8537 80.41 48.499 80.48 48.191 80.62C47.8924 80.76 47.659 80.9607 47.491 81.222C47.323 81.4833 47.239 81.7913 47.239 82.146C47.239 82.5753 47.3744 82.9627 47.645 83.308C47.9157 83.644 48.331 83.896 48.891 84.064L50.543 84.554C51.3644 84.7967 51.985 85.1467 52.405 85.604C52.825 86.0613 53.035 86.6353 53.035 87.326C53.035 87.886 52.8904 88.3807 52.601 88.81C52.321 89.23 51.9244 89.5613 51.411 89.804C50.907 90.0467 50.3237 90.168 49.661 90.168ZM55.0438 92.8V82.496H56.0938V84.176L55.9258 83.882C56.2245 83.406 56.6212 83.028 57.1158 82.748C57.6198 82.468 58.1938 82.328 58.8378 82.328C59.5472 82.328 60.1772 82.5007 60.7278 82.846C61.2878 83.182 61.7265 83.644 62.0438 84.232C62.3705 84.82 62.5338 85.492 62.5338 86.248C62.5338 86.9947 62.3705 87.6667 62.0438 88.264C61.7265 88.852 61.2878 89.3187 60.7278 89.664C60.1772 90 59.5472 90.168 58.8378 90.168C58.1938 90.168 57.6105 90.0233 57.0878 89.734C56.5745 89.4353 56.1872 89.0153 55.9258 88.474L56.0938 88.32V92.8H55.0438ZM58.7818 89.118C59.2858 89.118 59.7338 88.992 60.1258 88.74C60.5272 88.488 60.8398 88.1473 61.0638 87.718C61.2972 87.2793 61.4138 86.7893 61.4138 86.248C61.4138 85.6973 61.2972 85.2073 61.0638 84.778C60.8398 84.3487 60.5272 84.008 60.1258 83.756C59.7338 83.504 59.2858 83.378 58.7818 83.378C58.2778 83.378 57.8205 83.504 57.4098 83.756C57.0085 84.008 56.6865 84.3533 56.4438 84.792C56.2105 85.2213 56.0938 85.7067 56.0938 86.248C56.0938 86.7893 56.2105 87.2793 56.4438 87.718C56.6865 88.1473 57.0085 88.488 57.4098 88.74C57.8205 88.992 58.2778 89.118 58.7818 89.118ZM64.3817 90V82.496H65.4317V83.728L65.2917 83.546C65.469 83.1913 65.735 82.9113 66.0897 82.706C66.4537 82.5007 66.8924 82.398 67.4057 82.398H67.8817V83.448H67.2237C66.6824 83.448 66.2484 83.616 65.9217 83.952C65.595 84.288 65.4317 84.764 65.4317 85.38V90H64.3817ZM72.5282 90.168C71.8282 90.168 71.1935 90 70.6242 89.664C70.0642 89.3187 69.6208 88.8473 69.2942 88.25C68.9675 87.6527 68.8042 86.976 68.8042 86.22C68.8042 85.464 68.9628 84.7967 69.2802 84.218C69.5975 83.63 70.0268 83.168 70.5682 82.832C71.1188 82.496 71.7348 82.328 72.4162 82.328C72.9575 82.328 73.4382 82.4307 73.8582 82.636C74.2875 82.832 74.6515 83.1027 74.9502 83.448C75.2488 83.784 75.4775 84.1667 75.6362 84.596C75.7948 85.016 75.8742 85.45 75.8742 85.898C75.8742 85.9913 75.8695 86.0987 75.8602 86.22C75.8508 86.332 75.8368 86.4487 75.8182 86.57H69.4762V85.59H75.2162L74.7122 86.01C74.7962 85.4967 74.7355 85.0393 74.5302 84.638C74.3342 84.2273 74.0495 83.9053 73.6762 83.672C73.3028 83.4293 72.8828 83.308 72.4162 83.308C71.9495 83.308 71.5155 83.4293 71.1142 83.672C70.7222 83.9147 70.4142 84.2553 70.1902 84.694C69.9662 85.1233 69.8775 85.6367 69.9242 86.234C69.8775 86.8313 69.9708 87.354 70.2042 87.802C70.4468 88.2407 70.7735 88.5813 71.1842 88.824C71.6042 89.0667 72.0522 89.188 72.5282 89.188C73.0788 89.188 73.5408 89.0573 73.9142 88.796C74.2875 88.5347 74.5908 88.208 74.8242 87.816L75.7202 88.292C75.5708 88.628 75.3422 88.9407 75.0342 89.23C74.7262 89.51 74.3575 89.7387 73.9282 89.916C73.5082 90.084 73.0415 90.168 72.5282 90.168ZM79.7587 90.168C79.2827 90.168 78.8581 90.0793 78.4847 89.902C78.1114 89.7153 77.8174 89.4633 77.6027 89.146C77.3881 88.8287 77.2807 88.4647 77.2807 88.054C77.2807 87.662 77.3647 87.3073 77.5327 86.99C77.7007 86.6633 77.9621 86.388 78.3167 86.164C78.6714 85.94 79.1241 85.7813 79.6747 85.688L82.6147 85.198V86.15L79.9267 86.598C79.3854 86.6913 78.9934 86.864 78.7507 87.116C78.5174 87.368 78.4007 87.6667 78.4007 88.012C78.4007 88.348 78.5314 88.6327 78.7927 88.866C79.0634 89.0993 79.4087 89.216 79.8287 89.216C80.3421 89.216 80.7901 89.1087 81.1727 88.894C81.5554 88.67 81.8541 88.3713 82.0687 87.998C82.2834 87.6247 82.3907 87.2093 82.3907 86.752V84.848C82.3907 84.4 82.2274 84.036 81.9007 83.756C81.5741 83.476 81.1494 83.336 80.6267 83.336C80.1694 83.336 79.7681 83.4527 79.4227 83.686C79.0774 83.91 78.8207 84.204 78.6527 84.568L77.7007 84.05C77.8407 83.7327 78.0601 83.4433 78.3587 83.182C78.6667 82.9207 79.0167 82.7153 79.4087 82.566C79.8007 82.4073 80.2067 82.328 80.6267 82.328C81.1774 82.328 81.6627 82.4353 82.0827 82.65C82.5121 82.8647 82.8434 83.1633 83.0767 83.546C83.3194 83.9193 83.4407 84.3533 83.4407 84.848V90H82.3907V88.502L82.5447 88.656C82.4141 88.936 82.2087 89.1927 81.9287 89.426C81.6581 89.65 81.3361 89.832 80.9627 89.972C80.5987 90.1027 80.1974 90.168 79.7587 90.168ZM88.9885 90.168C88.2885 90.168 87.6585 90 87.0985 89.664C86.5385 89.3187 86.0951 88.852 85.7685 88.264C85.4511 87.6667 85.2925 86.9947 85.2925 86.248C85.2925 85.492 85.4511 84.82 85.7685 84.232C86.0951 83.644 86.5338 83.182 87.0845 82.846C87.6445 82.5007 88.2791 82.328 88.9885 82.328C89.6325 82.328 90.2065 82.468 90.7105 82.748C91.2145 83.028 91.6111 83.406 91.9005 83.882L91.7325 84.176V79.402H92.7825V90H91.7325V88.32L91.9005 88.474C91.6391 89.0153 91.2471 89.4353 90.7245 89.734C90.2111 90.0233 89.6325 90.168 88.9885 90.168ZM89.0445 89.118C89.5485 89.118 90.0011 88.992 90.4025 88.74C90.8131 88.488 91.1351 88.1473 91.3685 87.718C91.6111 87.2793 91.7325 86.7893 91.7325 86.248C91.7325 85.7067 91.6111 85.2213 91.3685 84.792C91.1351 84.3533 90.8131 84.008 90.4025 83.756C90.0011 83.504 89.5485 83.378 89.0445 83.378C88.5498 83.378 88.1018 83.504 87.7005 83.756C87.2991 84.008 86.9818 84.3487 86.7485 84.778C86.5245 85.2073 86.4125 85.6973 86.4125 86.248C86.4125 86.7893 86.5245 87.2793 86.7485 87.718C86.9818 88.1473 87.2945 88.488 87.6865 88.74C88.0878 88.992 88.5405 89.118 89.0445 89.118ZM100.187 90.084C99.5153 90.084 98.9973 89.888 98.6333 89.496C98.2693 89.104 98.0873 88.544 98.0873 87.816V83.546H96.7013V82.496H97.0513C97.3686 82.496 97.6206 82.3933 97.8073 82.188C97.9939 81.9733 98.0873 81.7073 98.0873 81.39V80.76H99.1373V82.496H100.789V83.546H99.1373V87.816C99.1373 88.068 99.1746 88.292 99.2493 88.488C99.3239 88.6747 99.4499 88.824 99.6273 88.936C99.8139 89.048 100.061 89.104 100.369 89.104C100.444 89.104 100.533 89.0993 100.635 89.09C100.738 89.0807 100.827 89.0713 100.901 89.062V90C100.789 90.028 100.663 90.0467 100.523 90.056C100.383 90.0747 100.271 90.084 100.187 90.084ZM102.745 90V79.402H103.795V83.952L103.557 83.896C103.744 83.4107 104.047 83.028 104.467 82.748C104.896 82.468 105.391 82.328 105.951 82.328C106.483 82.328 106.959 82.4493 107.379 82.692C107.808 82.9347 108.144 83.2707 108.387 83.7C108.639 84.12 108.765 84.596 108.765 85.128V90H107.715V85.534C107.715 85.0767 107.631 84.6893 107.463 84.372C107.295 84.0547 107.062 83.812 106.763 83.644C106.474 83.4667 106.142 83.378 105.769 83.378C105.396 83.378 105.06 83.4667 104.761 83.644C104.462 83.812 104.224 84.0593 104.047 84.386C103.879 84.7033 103.795 85.086 103.795 85.534V90H102.745ZM114.186 90.168C113.486 90.168 112.852 90 112.282 89.664C111.722 89.3187 111.279 88.8473 110.952 88.25C110.626 87.6527 110.462 86.976 110.462 86.22C110.462 85.464 110.621 84.7967 110.938 84.218C111.256 83.63 111.685 83.168 112.226 82.832C112.777 82.496 113.393 82.328 114.074 82.328C114.616 82.328 115.096 82.4307 115.516 82.636C115.946 82.832 116.31 83.1027 116.608 83.448C116.907 83.784 117.136 84.1667 117.294 84.596C117.453 85.016 117.532 85.45 117.532 85.898C117.532 85.9913 117.528 86.0987 117.518 86.22C117.509 86.332 117.495 86.4487 117.476 86.57H111.134V85.59H116.874L116.37 86.01C116.454 85.4967 116.394 85.0393 116.188 84.638C115.992 84.2273 115.708 83.9053 115.334 83.672C114.961 83.4293 114.541 83.308 114.074 83.308C113.608 83.308 113.174 83.4293 112.772 83.672C112.38 83.9147 112.072 84.2553 111.848 84.694C111.624 85.1233 111.536 85.6367 111.582 86.234C111.536 86.8313 111.629 87.354 111.862 87.802C112.105 88.2407 112.432 88.5813 112.842 88.824C113.262 89.0667 113.71 89.188 114.186 89.188C114.737 89.188 115.199 89.0573 115.572 88.796C115.946 88.5347 116.249 88.208 116.482 87.816L117.378 88.292C117.229 88.628 117 88.9407 116.692 89.23C116.384 89.51 116.016 89.7387 115.586 89.916C115.166 90.084 114.7 90.168 114.186 90.168ZM125.193 90.168C124.455 90.168 123.807 89.9953 123.247 89.65C122.687 89.3047 122.248 88.838 121.931 88.25C121.613 87.6527 121.455 86.9807 121.455 86.234C121.455 85.4873 121.613 84.82 121.931 84.232C122.248 83.644 122.687 83.182 123.247 82.846C123.807 82.5007 124.455 82.328 125.193 82.328C125.659 82.328 126.098 82.412 126.509 82.58C126.919 82.748 127.283 82.9767 127.601 83.266C127.918 83.546 128.156 83.8727 128.315 84.246L127.363 84.736C127.176 84.3347 126.891 84.008 126.509 83.756C126.126 83.504 125.687 83.378 125.193 83.378C124.698 83.378 124.25 83.504 123.849 83.756C123.457 83.9987 123.144 84.3393 122.911 84.778C122.687 85.2073 122.575 85.6973 122.575 86.248C122.575 86.7893 122.687 87.2793 122.911 87.718C123.144 88.1473 123.457 88.488 123.849 88.74C124.25 88.992 124.698 89.118 125.193 89.118C125.687 89.118 126.121 88.992 126.495 88.74C126.877 88.488 127.167 88.152 127.363 87.732L128.315 88.25C128.156 88.614 127.918 88.9407 127.601 89.23C127.283 89.5193 126.919 89.748 126.509 89.916C126.098 90.084 125.659 90.168 125.193 90.168ZM133.671 90.168C132.962 90.168 132.318 90 131.739 89.664C131.16 89.3187 130.698 88.852 130.353 88.264C130.017 87.6667 129.849 86.99 129.849 86.234C129.849 85.4873 130.017 84.82 130.353 84.232C130.689 83.644 131.142 83.182 131.711 82.846C132.29 82.5007 132.943 82.328 133.671 82.328C134.399 82.328 135.048 82.496 135.617 82.832C136.196 83.168 136.648 83.63 136.975 84.218C137.311 84.806 137.479 85.478 137.479 86.234C137.479 86.9993 137.306 87.6807 136.961 88.278C136.616 88.866 136.154 89.328 135.575 89.664C135.006 90 134.371 90.168 133.671 90.168ZM133.671 89.118C134.175 89.118 134.628 88.992 135.029 88.74C135.44 88.488 135.762 88.1427 135.995 87.704C136.238 87.2653 136.359 86.7753 136.359 86.234C136.359 85.6927 136.238 85.2073 135.995 84.778C135.762 84.3487 135.44 84.008 135.029 83.756C134.628 83.504 134.175 83.378 133.671 83.378C133.167 83.378 132.71 83.504 132.299 83.756C131.898 84.008 131.576 84.3487 131.333 84.778C131.09 85.2073 130.969 85.6927 130.969 86.234C130.969 86.7753 131.09 87.2653 131.333 87.704C131.576 88.1427 131.898 88.488 132.299 88.74C132.71 88.992 133.167 89.118 133.671 89.118ZM141.935 90.168C141.216 90.168 140.586 89.986 140.045 89.622C139.504 89.258 139.112 88.7633 138.869 88.138L139.751 87.718C139.966 88.1753 140.264 88.5393 140.647 88.81C141.039 89.0807 141.468 89.216 141.935 89.216C142.383 89.216 142.761 89.1087 143.069 88.894C143.377 88.67 143.531 88.3807 143.531 88.026C143.531 87.7647 143.456 87.5593 143.307 87.41C143.158 87.2513 142.985 87.13 142.789 87.046C142.593 86.962 142.42 86.9013 142.271 86.864L141.193 86.556C140.502 86.36 140.003 86.0847 139.695 85.73C139.387 85.3753 139.233 84.9647 139.233 84.498C139.233 84.0593 139.345 83.6767 139.569 83.35C139.793 83.0233 140.096 82.7713 140.479 82.594C140.862 82.4167 141.286 82.328 141.753 82.328C142.388 82.328 142.962 82.496 143.475 82.832C143.998 83.1587 144.366 83.616 144.581 84.204L143.685 84.624C143.498 84.204 143.228 83.8773 142.873 83.644C142.528 83.4013 142.14 83.28 141.711 83.28C141.291 83.28 140.955 83.3873 140.703 83.602C140.451 83.8167 140.325 84.0873 140.325 84.414C140.325 84.666 140.39 84.8667 140.521 85.016C140.652 85.1653 140.801 85.2773 140.969 85.352C141.146 85.4267 141.3 85.4827 141.431 85.52L142.677 85.884C143.284 86.0613 143.755 86.3367 144.091 86.71C144.436 87.0833 144.609 87.522 144.609 88.026C144.609 88.4367 144.492 88.8053 144.259 89.132C144.035 89.4587 143.722 89.7153 143.321 89.902C142.92 90.0793 142.458 90.168 141.935 90.168ZM149.324 90.084C148.652 90.084 148.134 89.888 147.77 89.496C147.406 89.104 147.224 88.544 147.224 87.816V83.546H145.838V82.496H146.188C146.505 82.496 146.757 82.3933 146.944 82.188C147.131 81.9733 147.224 81.7073 147.224 81.39V80.76H148.274V82.496H149.926V83.546H148.274V87.816C148.274 88.068 148.311 88.292 148.386 88.488C148.461 88.6747 148.587 88.824 148.764 88.936C148.951 89.048 149.198 89.104 149.506 89.104C149.581 89.104 149.669 89.0993 149.772 89.09C149.875 89.0807 149.963 89.0713 150.038 89.062V90C149.926 90.028 149.8 90.0467 149.66 90.056C149.52 90.0747 149.408 90.084 149.324 90.084ZM157.775 90.168C157.065 90.168 156.421 90 155.843 89.664C155.264 89.3187 154.802 88.852 154.457 88.264C154.121 87.6667 153.953 86.99 153.953 86.234C153.953 85.4873 154.121 84.82 154.457 84.232C154.793 83.644 155.245 83.182 155.815 82.846C156.393 82.5007 157.047 82.328 157.775 82.328C158.503 82.328 159.151 82.496 159.721 82.832C160.299 83.168 160.752 83.63 161.079 84.218C161.415 84.806 161.583 85.478 161.583 86.234C161.583 86.9993 161.41 87.6807 161.065 88.278C160.719 88.866 160.257 89.328 159.679 89.664C159.109 90 158.475 90.168 157.775 90.168ZM157.775 89.118C158.279 89.118 158.731 88.992 159.133 88.74C159.543 88.488 159.865 88.1427 160.099 87.704C160.341 87.2653 160.463 86.7753 160.463 86.234C160.463 85.6927 160.341 85.2073 160.099 84.778C159.865 84.3487 159.543 84.008 159.133 83.756C158.731 83.504 158.279 83.378 157.775 83.378C157.271 83.378 156.813 83.504 156.403 83.756C156.001 84.008 155.679 84.3487 155.437 84.778C155.194 85.2073 155.073 85.6927 155.073 86.234C155.073 86.7753 155.194 87.2653 155.437 87.704C155.679 88.1427 156.001 88.488 156.403 88.74C156.813 88.992 157.271 89.118 157.775 89.118ZM163.931 90V83.546H162.433V82.496H163.931V81.824C163.931 81.3013 164.048 80.8627 164.281 80.508C164.514 80.144 164.822 79.8687 165.205 79.682C165.588 79.4953 165.998 79.402 166.437 79.402C166.53 79.402 166.638 79.4113 166.759 79.43C166.88 79.4393 166.978 79.4533 167.053 79.472V80.424C166.988 80.4053 166.899 80.396 166.787 80.396C166.675 80.3867 166.596 80.382 166.549 80.382C166.101 80.382 165.728 80.4893 165.429 80.704C165.13 80.9187 164.981 81.292 164.981 81.824V82.496H166.815V83.546H164.981V90H163.931ZM171.19 93.08C171.041 93.08 170.887 93.066 170.728 93.038C170.579 93.0193 170.429 92.982 170.28 92.926V91.946C170.373 91.9553 170.49 91.9693 170.63 91.988C170.779 92.016 170.929 92.03 171.078 92.03C171.535 92.03 171.885 91.932 172.128 91.736C172.371 91.5493 172.609 91.1853 172.842 90.644L173.318 89.524L173.29 90.448L170.112 82.496H171.246L173.85 89.062H173.556L176.146 82.496H177.308L173.878 90.952C173.729 91.316 173.537 91.6613 173.304 91.988C173.08 92.3147 172.795 92.576 172.45 92.772C172.105 92.9773 171.685 93.08 171.19 93.08ZM181.919 90.168C181.21 90.168 180.566 90 179.987 89.664C179.408 89.3187 178.946 88.852 178.601 88.264C178.265 87.6667 178.097 86.99 178.097 86.234C178.097 85.4873 178.265 84.82 178.601 84.232C178.937 83.644 179.39 83.182 179.959 82.846C180.538 82.5007 181.191 82.328 181.919 82.328C182.647 82.328 183.296 82.496 183.865 82.832C184.444 83.168 184.896 83.63 185.223 84.218C185.559 84.806 185.727 85.478 185.727 86.234C185.727 86.9993 185.554 87.6807 185.209 88.278C184.864 88.866 184.402 89.328 183.823 89.664C183.254 90 182.619 90.168 181.919 90.168ZM181.919 89.118C182.423 89.118 182.876 88.992 183.277 88.74C183.688 88.488 184.01 88.1427 184.243 87.704C184.486 87.2653 184.607 86.7753 184.607 86.234C184.607 85.6927 184.486 85.2073 184.243 84.778C184.01 84.3487 183.688 84.008 183.277 83.756C182.876 83.504 182.423 83.378 181.919 83.378C181.415 83.378 180.958 83.504 180.547 83.756C180.146 84.008 179.824 84.3487 179.581 84.778C179.338 85.2073 179.217 85.6927 179.217 86.234C179.217 86.7753 179.338 87.2653 179.581 87.704C179.824 88.1427 180.146 88.488 180.547 88.74C180.958 88.992 181.415 89.118 181.919 89.118ZM190.239 90.168C189.716 90.168 189.24 90.0467 188.811 89.804C188.382 89.552 188.041 89.2067 187.789 88.768C187.546 88.32 187.425 87.8067 187.425 87.228V82.496H188.475V87.102C188.475 87.5033 188.554 87.858 188.713 88.166C188.881 88.4647 189.11 88.698 189.399 88.866C189.698 89.034 190.038 89.118 190.421 89.118C190.804 89.118 191.144 89.034 191.443 88.866C191.742 88.6887 191.975 88.4413 192.143 88.124C192.311 87.7973 192.395 87.41 192.395 86.962V82.496H193.445V90H192.395V88.544L192.633 88.6C192.456 89.0853 192.152 89.468 191.723 89.748C191.294 90.028 190.799 90.168 190.239 90.168ZM195.604 90V82.496H196.654V83.728L196.514 83.546C196.692 83.1913 196.958 82.9113 197.312 82.706C197.676 82.5007 198.115 82.398 198.628 82.398H199.104V83.448H198.446C197.905 83.448 197.471 83.616 197.144 83.952C196.818 84.288 196.654 84.764 196.654 85.38V90H195.604ZM202.714 92.8V82.496H203.764V84.176L203.596 83.882C203.894 83.406 204.291 83.028 204.786 82.748C205.29 82.468 205.864 82.328 206.508 82.328C207.217 82.328 207.847 82.5007 208.398 82.846C208.958 83.182 209.396 83.644 209.714 84.232C210.04 84.82 210.204 85.492 210.204 86.248C210.204 86.9947 210.04 87.6667 209.714 88.264C209.396 88.852 208.958 89.3187 208.398 89.664C207.847 90 207.217 90.168 206.508 90.168C205.864 90.168 205.28 90.0233 204.758 89.734C204.244 89.4353 203.857 89.0153 203.596 88.474L203.764 88.32V92.8H202.714ZM206.452 89.118C206.956 89.118 207.404 88.992 207.796 88.74C208.197 88.488 208.51 88.1473 208.734 87.718C208.967 87.2793 209.084 86.7893 209.084 86.248C209.084 85.6973 208.967 85.2073 208.734 84.778C208.51 84.3487 208.197 84.008 207.796 83.756C207.404 83.504 206.956 83.378 206.452 83.378C205.948 83.378 205.49 83.504 205.08 83.756C204.678 84.008 204.356 84.3533 204.114 84.792C203.88 85.2213 203.764 85.7067 203.764 86.248C203.764 86.7893 203.88 87.2793 204.114 87.718C204.356 88.1473 204.678 88.488 205.08 88.74C205.49 88.992 205.948 89.118 206.452 89.118ZM214.712 90.168C214.189 90.168 213.713 90.0467 213.284 89.804C212.854 89.552 212.514 89.2067 212.262 88.768C212.019 88.32 211.898 87.8067 211.898 87.228V82.496H212.948V87.102C212.948 87.5033 213.027 87.858 213.186 88.166C213.354 88.4647 213.582 88.698 213.872 88.866C214.17 89.034 214.511 89.118 214.894 89.118C215.276 89.118 215.617 89.034 215.916 88.866C216.214 88.6887 216.448 88.4413 216.616 88.124C216.784 87.7973 216.868 87.41 216.868 86.962V82.496H217.918V90H216.868V88.544L217.106 88.6C216.928 89.0853 216.625 89.468 216.196 89.748C215.766 90.028 215.272 90.168 214.712 90.168ZM220.077 90V82.496H221.127V83.728L220.987 83.546C221.164 83.1913 221.43 82.9113 221.785 82.706C222.149 82.5007 222.588 82.398 223.101 82.398H223.577V83.448H222.919C222.378 83.448 221.944 83.616 221.617 83.952C221.29 84.288 221.127 84.764 221.127 85.38V90H220.077ZM228.237 90.168C227.5 90.168 226.851 89.9953 226.291 89.65C225.731 89.3047 225.293 88.838 224.975 88.25C224.658 87.6527 224.499 86.9807 224.499 86.234C224.499 85.4873 224.658 84.82 224.975 84.232C225.293 83.644 225.731 83.182 226.291 82.846C226.851 82.5007 227.5 82.328 228.237 82.328C228.704 82.328 229.143 82.412 229.553 82.58C229.964 82.748 230.328 82.9767 230.645 83.266C230.963 83.546 231.201 83.8727 231.359 84.246L230.407 84.736C230.221 84.3347 229.936 84.008 229.553 83.756C229.171 83.504 228.732 83.378 228.237 83.378C227.743 83.378 227.295 83.504 226.893 83.756C226.501 83.9987 226.189 84.3393 225.955 84.778C225.731 85.2073 225.619 85.6973 225.619 86.248C225.619 86.7893 225.731 87.2793 225.955 87.718C226.189 88.1473 226.501 88.488 226.893 88.74C227.295 88.992 227.743 89.118 228.237 89.118C228.732 89.118 229.166 88.992 229.539 88.74C229.922 88.488 230.211 88.152 230.407 87.732L231.359 88.25C231.201 88.614 230.963 88.9407 230.645 89.23C230.328 89.5193 229.964 89.748 229.553 89.916C229.143 90.084 228.704 90.168 228.237 90.168ZM233.202 90V79.402H234.252V83.952L234.014 83.896C234.201 83.4107 234.504 83.028 234.924 82.748C235.353 82.468 235.848 82.328 236.408 82.328C236.94 82.328 237.416 82.4493 237.836 82.692C238.265 82.9347 238.601 83.2707 238.844 83.7C239.096 84.12 239.222 84.596 239.222 85.128V90H238.172V85.534C238.172 85.0767 238.088 84.6893 237.92 84.372C237.752 84.0547 237.519 83.812 237.22 83.644C236.931 83.4667 236.599 83.378 236.226 83.378C235.853 83.378 235.517 83.4667 235.218 83.644C234.919 83.812 234.681 84.0593 234.504 84.386C234.336 84.7033 234.252 85.086 234.252 85.534V90H233.202ZM243.397 90.168C242.921 90.168 242.497 90.0793 242.123 89.902C241.75 89.7153 241.456 89.4633 241.241 89.146C241.027 88.8287 240.919 88.4647 240.919 88.054C240.919 87.662 241.003 87.3073 241.171 86.99C241.339 86.6633 241.601 86.388 241.955 86.164C242.31 85.94 242.763 85.7813 243.313 85.688L246.253 85.198V86.15L243.565 86.598C243.024 86.6913 242.632 86.864 242.389 87.116C242.156 87.368 242.039 87.6667 242.039 88.012C242.039 88.348 242.17 88.6327 242.431 88.866C242.702 89.0993 243.047 89.216 243.467 89.216C243.981 89.216 244.429 89.1087 244.811 88.894C245.194 88.67 245.493 88.3713 245.707 87.998C245.922 87.6247 246.029 87.2093 246.029 86.752V84.848C246.029 84.4 245.866 84.036 245.539 83.756C245.213 83.476 244.788 83.336 244.265 83.336C243.808 83.336 243.407 83.4527 243.061 83.686C242.716 83.91 242.459 84.204 242.291 84.568L241.339 84.05C241.479 83.7327 241.699 83.4433 241.997 83.182C242.305 82.9207 242.655 82.7153 243.047 82.566C243.439 82.4073 243.845 82.328 244.265 82.328C244.816 82.328 245.301 82.4353 245.721 82.65C246.151 82.8647 246.482 83.1633 246.715 83.546C246.958 83.9193 247.079 84.3533 247.079 84.848V90H246.029V88.502L246.183 88.656C246.053 88.936 245.847 89.1927 245.567 89.426C245.297 89.65 244.975 89.832 244.601 89.972C244.237 90.1027 243.836 90.168 243.397 90.168ZM251.843 90.168C251.124 90.168 250.494 89.986 249.953 89.622C249.412 89.258 249.02 88.7633 248.777 88.138L249.659 87.718C249.874 88.1753 250.172 88.5393 250.555 88.81C250.947 89.0807 251.376 89.216 251.843 89.216C252.291 89.216 252.669 89.1087 252.977 88.894C253.285 88.67 253.439 88.3807 253.439 88.026C253.439 87.7647 253.364 87.5593 253.215 87.41C253.066 87.2513 252.893 87.13 252.697 87.046C252.501 86.962 252.328 86.9013 252.179 86.864L251.101 86.556C250.41 86.36 249.911 86.0847 249.603 85.73C249.295 85.3753 249.141 84.9647 249.141 84.498C249.141 84.0593 249.253 83.6767 249.477 83.35C249.701 83.0233 250.004 82.7713 250.387 82.594C250.77 82.4167 251.194 82.328 251.661 82.328C252.296 82.328 252.87 82.496 253.383 82.832C253.906 83.1587 254.274 83.616 254.489 84.204L253.593 84.624C253.406 84.204 253.136 83.8773 252.781 83.644C252.436 83.4013 252.048 83.28 251.619 83.28C251.199 83.28 250.863 83.3873 250.611 83.602C250.359 83.8167 250.233 84.0873 250.233 84.414C250.233 84.666 250.298 84.8667 250.429 85.016C250.56 85.1653 250.709 85.2773 250.877 85.352C251.054 85.4267 251.208 85.4827 251.339 85.52L252.585 85.884C253.192 86.0613 253.663 86.3367 253.999 86.71C254.344 87.0833 254.517 87.522 254.517 88.026C254.517 88.4367 254.4 88.8053 254.167 89.132C253.943 89.4587 253.63 89.7153 253.229 89.902C252.828 90.0793 252.366 90.168 251.843 90.168ZM259.778 90.168C259.078 90.168 258.444 90 257.874 89.664C257.314 89.3187 256.871 88.8473 256.544 88.25C256.218 87.6527 256.054 86.976 256.054 86.22C256.054 85.464 256.213 84.7967 256.53 84.218C256.848 83.63 257.277 83.168 257.818 82.832C258.369 82.496 258.985 82.328 259.666 82.328C260.208 82.328 260.688 82.4307 261.108 82.636C261.538 82.832 261.902 83.1027 262.2 83.448C262.499 83.784 262.728 84.1667 262.886 84.596C263.045 85.016 263.124 85.45 263.124 85.898C263.124 85.9913 263.12 86.0987 263.11 86.22C263.101 86.332 263.087 86.4487 263.068 86.57H256.726V85.59H262.466L261.962 86.01C262.046 85.4967 261.986 85.0393 261.78 84.638C261.584 84.2273 261.3 83.9053 260.926 83.672C260.553 83.4293 260.133 83.308 259.666 83.308C259.2 83.308 258.766 83.4293 258.364 83.672C257.972 83.9147 257.664 84.2553 257.44 84.694C257.216 85.1233 257.128 85.6367 257.174 86.234C257.128 86.8313 257.221 87.354 257.454 87.802C257.697 88.2407 258.024 88.5813 258.434 88.824C258.854 89.0667 259.302 89.188 259.778 89.188C260.329 89.188 260.791 89.0573 261.164 88.796C261.538 88.5347 261.841 88.208 262.074 87.816L262.97 88.292C262.821 88.628 262.592 88.9407 262.284 89.23C261.976 89.51 261.608 89.7387 261.178 89.916C260.758 90.084 260.292 90.168 259.778 90.168ZM269.006 90L266.43 82.496H267.62L269.748 89.062H269.328L271.33 82.496H272.38L274.382 89.062H273.962L276.104 82.496H277.28L274.704 90H273.654L271.708 83.574H272.002L270.056 90H269.006ZM278.511 90V82.496H279.561V90H278.511ZM278.511 81.11V79.57H279.561V81.11H278.511ZM284.58 90.084C283.908 90.084 283.39 89.888 283.026 89.496C282.662 89.104 282.48 88.544 282.48 87.816V83.546H281.094V82.496H281.444C281.761 82.496 282.013 82.3933 282.2 82.188C282.387 81.9733 282.48 81.7073 282.48 81.39V80.76H283.53V82.496H285.182V83.546H283.53V87.816C283.53 88.068 283.567 88.292 283.642 88.488C283.717 88.6747 283.843 88.824 284.02 88.936C284.207 89.048 284.454 89.104 284.762 89.104C284.837 89.104 284.925 89.0993 285.028 89.09C285.131 89.0807 285.219 89.0713 285.294 89.062V90C285.182 90.028 285.056 90.0467 284.916 90.056C284.776 90.0747 284.664 90.084 284.58 90.084ZM287.138 90V79.402H288.188V83.952L287.95 83.896C288.136 83.4107 288.44 83.028 288.86 82.748C289.289 82.468 289.784 82.328 290.344 82.328C290.876 82.328 291.352 82.4493 291.772 82.692C292.201 82.9347 292.537 83.2707 292.78 83.7C293.032 84.12 293.158 84.596 293.158 85.128V90H292.108V85.534C292.108 85.0767 292.024 84.6893 291.856 84.372C291.688 84.0547 291.454 83.812 291.156 83.644C290.866 83.4667 290.535 83.378 290.162 83.378C289.788 83.378 289.452 83.4667 289.154 83.644C288.855 83.812 288.617 84.0593 288.44 84.386C288.272 84.7033 288.188 85.086 288.188 85.534V90H287.138ZM88.4237 110V102.496H89.4737V110H88.4237ZM88.4237 101.11V99.57H89.4737V101.11H88.4237ZM91.6229 110V102.496H92.6729V103.952L92.4349 103.896C92.6216 103.411 92.9249 103.028 93.3449 102.748C93.7743 102.468 94.2689 102.328 94.8289 102.328C95.3609 102.328 95.8369 102.449 96.2569 102.692C96.6863 102.935 97.0223 103.271 97.2649 103.7C97.5169 104.12 97.6429 104.596 97.6429 105.128V110H96.5929V105.534C96.5929 105.077 96.5089 104.689 96.3409 104.372C96.1823 104.055 95.9536 103.812 95.6549 103.644C95.3656 103.467 95.0296 103.378 94.6469 103.378C94.2643 103.378 93.9236 103.467 93.6249 103.644C93.3263 103.812 93.0929 104.059 92.9249 104.386C92.7569 104.703 92.6729 105.086 92.6729 105.534V110H91.6229ZM102.518 110.084C101.846 110.084 101.328 109.888 100.964 109.496C100.6 109.104 100.418 108.544 100.418 107.816V103.546H99.0323V102.496H99.3823C99.6996 102.496 99.9516 102.393 100.138 102.188C100.325 101.973 100.418 101.707 100.418 101.39V100.76H101.468V102.496H103.12V103.546H101.468V107.816C101.468 108.068 101.506 108.292 101.58 108.488C101.655 108.675 101.781 108.824 101.958 108.936C102.145 109.048 102.392 109.104 102.7 109.104C102.775 109.104 102.864 109.099 102.966 109.09C103.069 109.081 103.158 109.071 103.232 109.062V110C103.12 110.028 102.994 110.047 102.854 110.056C102.714 110.075 102.602 110.084 102.518 110.084ZM108.219 110.168C107.519 110.168 106.884 110 106.315 109.664C105.755 109.319 105.311 108.847 104.985 108.25C104.658 107.653 104.495 106.976 104.495 106.22C104.495 105.464 104.653 104.797 104.971 104.218C105.288 103.63 105.717 103.168 106.259 102.832C106.809 102.496 107.425 102.328 108.107 102.328C108.648 102.328 109.129 102.431 109.549 102.636C109.978 102.832 110.342 103.103 110.641 103.448C110.939 103.784 111.168 104.167 111.327 104.596C111.485 105.016 111.565 105.45 111.565 105.898C111.565 105.991 111.56 106.099 111.551 106.22C111.541 106.332 111.527 106.449 111.509 106.57H105.167V105.59H110.907L110.403 106.01C110.487 105.497 110.426 105.039 110.221 104.638C110.025 104.227 109.74 103.905 109.367 103.672C108.993 103.429 108.573 103.308 108.107 103.308C107.64 103.308 107.206 103.429 106.805 103.672C106.413 103.915 106.105 104.255 105.881 104.694C105.657 105.123 105.568 105.637 105.615 106.234C105.568 106.831 105.661 107.354 105.895 107.802C106.137 108.241 106.464 108.581 106.875 108.824C107.295 109.067 107.743 109.188 108.219 109.188C108.769 109.188 109.231 109.057 109.605 108.796C109.978 108.535 110.281 108.208 110.515 107.816L111.411 108.292C111.261 108.628 111.033 108.941 110.725 109.23C110.417 109.51 110.048 109.739 109.619 109.916C109.199 110.084 108.732 110.168 108.219 110.168ZM113.416 110V102.496H114.466V103.728L114.326 103.546C114.503 103.191 114.769 102.911 115.124 102.706C115.488 102.501 115.927 102.398 116.44 102.398H116.916V103.448H116.258C115.717 103.448 115.283 103.616 114.956 103.952C114.629 104.288 114.466 104.764 114.466 105.38V110H113.416ZM121.562 110.168C120.862 110.168 120.228 110 119.658 109.664C119.098 109.319 118.655 108.847 118.328 108.25C118.002 107.653 117.838 106.976 117.838 106.22C117.838 105.464 117.997 104.797 118.314 104.218C118.632 103.63 119.061 103.168 119.602 102.832C120.153 102.496 120.769 102.328 121.45 102.328C121.992 102.328 122.472 102.431 122.892 102.636C123.322 102.832 123.686 103.103 123.984 103.448C124.283 103.784 124.512 104.167 124.67 104.596C124.829 105.016 124.908 105.45 124.908 105.898C124.908 105.991 124.904 106.099 124.894 106.22C124.885 106.332 124.871 106.449 124.852 106.57H118.51V105.59H124.25L123.746 106.01C123.83 105.497 123.77 105.039 123.564 104.638C123.368 104.227 123.084 103.905 122.71 103.672C122.337 103.429 121.917 103.308 121.45 103.308C120.984 103.308 120.55 103.429 120.148 103.672C119.756 103.915 119.448 104.255 119.224 104.694C119 105.123 118.912 105.637 118.958 106.234C118.912 106.831 119.005 107.354 119.238 107.802C119.481 108.241 119.808 108.581 120.218 108.824C120.638 109.067 121.086 109.188 121.562 109.188C122.113 109.188 122.575 109.057 122.948 108.796C123.322 108.535 123.625 108.208 123.858 107.816L124.754 108.292C124.605 108.628 124.376 108.941 124.068 109.23C123.76 109.51 123.392 109.739 122.962 109.916C122.542 110.084 122.076 110.168 121.562 110.168ZM129.364 110.168C128.645 110.168 128.015 109.986 127.474 109.622C126.932 109.258 126.54 108.763 126.298 108.138L127.18 107.718C127.394 108.175 127.693 108.539 128.076 108.81C128.468 109.081 128.897 109.216 129.364 109.216C129.812 109.216 130.19 109.109 130.498 108.894C130.806 108.67 130.96 108.381 130.96 108.026C130.96 107.765 130.885 107.559 130.736 107.41C130.586 107.251 130.414 107.13 130.218 107.046C130.022 106.962 129.849 106.901 129.7 106.864L128.622 106.556C127.931 106.36 127.432 106.085 127.124 105.73C126.816 105.375 126.662 104.965 126.662 104.498C126.662 104.059 126.774 103.677 126.998 103.35C127.222 103.023 127.525 102.771 127.908 102.594C128.29 102.417 128.715 102.328 129.182 102.328C129.816 102.328 130.39 102.496 130.904 102.832C131.426 103.159 131.795 103.616 132.01 104.204L131.114 104.624C130.927 104.204 130.656 103.877 130.302 103.644C129.956 103.401 129.569 103.28 129.14 103.28C128.72 103.28 128.384 103.387 128.132 103.602C127.88 103.817 127.754 104.087 127.754 104.414C127.754 104.666 127.819 104.867 127.95 105.016C128.08 105.165 128.23 105.277 128.398 105.352C128.575 105.427 128.729 105.483 128.86 105.52L130.106 105.884C130.712 106.061 131.184 106.337 131.52 106.71C131.865 107.083 132.038 107.522 132.038 108.026C132.038 108.437 131.921 108.805 131.688 109.132C131.464 109.459 131.151 109.715 130.75 109.902C130.348 110.079 129.886 110.168 129.364 110.168ZM136.753 110.084C136.081 110.084 135.563 109.888 135.199 109.496C134.835 109.104 134.653 108.544 134.653 107.816V103.546H133.267V102.496H133.617C133.934 102.496 134.186 102.393 134.373 102.188C134.559 101.973 134.653 101.707 134.653 101.39V100.76H135.703V102.496H137.355V103.546H135.703V107.816C135.703 108.068 135.74 108.292 135.815 108.488C135.889 108.675 136.015 108.824 136.193 108.936C136.379 109.048 136.627 109.104 136.935 109.104C137.009 109.104 137.098 109.099 137.201 109.09C137.303 109.081 137.392 109.071 137.467 109.062V110C137.355 110.028 137.229 110.047 137.089 110.056C136.949 110.075 136.837 110.084 136.753 110.084ZM139.268 106.738V105.758H144.168V106.738H139.268ZM147.053 110V103.546H145.555V102.496H147.053V101.824C147.053 101.301 147.17 100.863 147.403 100.508C147.636 100.144 147.944 99.8687 148.327 99.682C148.71 99.4953 149.12 99.402 149.559 99.402C149.652 99.402 149.76 99.4113 149.881 99.43C150.002 99.4393 150.1 99.4533 150.175 99.472V100.424C150.11 100.405 150.021 100.396 149.909 100.396C149.797 100.387 149.718 100.382 149.671 100.382C149.223 100.382 148.85 100.489 148.551 100.704C148.252 100.919 148.103 101.292 148.103 101.824V102.496H149.937V103.546H148.103V110H147.053ZM151.642 110V102.496H152.692V103.728L152.552 103.546C152.73 103.191 152.996 102.911 153.35 102.706C153.714 102.501 154.153 102.398 154.666 102.398H155.142V103.448H154.484C153.943 103.448 153.509 103.616 153.182 103.952C152.856 104.288 152.692 104.764 152.692 105.38V110H151.642ZM159.789 110.168C159.089 110.168 158.454 110 157.885 109.664C157.325 109.319 156.882 108.847 156.555 108.25C156.228 107.653 156.065 106.976 156.065 106.22C156.065 105.464 156.224 104.797 156.541 104.218C156.858 103.63 157.288 103.168 157.829 102.832C158.38 102.496 158.996 102.328 159.677 102.328C160.218 102.328 160.699 102.431 161.119 102.636C161.548 102.832 161.912 103.103 162.211 103.448C162.51 103.784 162.738 104.167 162.897 104.596C163.056 105.016 163.135 105.45 163.135 105.898C163.135 105.991 163.13 106.099 163.121 106.22C163.112 106.332 163.098 106.449 163.079 106.57H156.737V105.59H162.477L161.973 106.01C162.057 105.497 161.996 105.039 161.791 104.638C161.595 104.227 161.31 103.905 160.937 103.672C160.564 103.429 160.144 103.308 159.677 103.308C159.21 103.308 158.776 103.429 158.375 103.672C157.983 103.915 157.675 104.255 157.451 104.694C157.227 105.123 157.138 105.637 157.185 106.234C157.138 106.831 157.232 107.354 157.465 107.802C157.708 108.241 158.034 108.581 158.445 108.824C158.865 109.067 159.313 109.188 159.789 109.188C160.34 109.188 160.802 109.057 161.175 108.796C161.548 108.535 161.852 108.208 162.085 107.816L162.981 108.292C162.832 108.628 162.603 108.941 162.295 109.23C161.987 109.51 161.618 109.739 161.189 109.916C160.769 110.084 160.302 110.168 159.789 110.168ZM168.402 110.168C167.702 110.168 167.068 110 166.498 109.664C165.938 109.319 165.495 108.847 165.168 108.25C164.842 107.653 164.678 106.976 164.678 106.22C164.678 105.464 164.837 104.797 165.154 104.218C165.472 103.63 165.901 103.168 166.442 102.832C166.993 102.496 167.609 102.328 168.29 102.328C168.832 102.328 169.312 102.431 169.732 102.636C170.162 102.832 170.526 103.103 170.824 103.448C171.123 103.784 171.352 104.167 171.51 104.596C171.669 105.016 171.748 105.45 171.748 105.898C171.748 105.991 171.744 106.099 171.734 106.22C171.725 106.332 171.711 106.449 171.692 106.57H165.35V105.59H171.09L170.586 106.01C170.67 105.497 170.61 105.039 170.404 104.638C170.208 104.227 169.924 103.905 169.55 103.672C169.177 103.429 168.757 103.308 168.29 103.308C167.824 103.308 167.39 103.429 166.988 103.672C166.596 103.915 166.288 104.255 166.064 104.694C165.84 105.123 165.752 105.637 165.798 106.234C165.752 106.831 165.845 107.354 166.078 107.802C166.321 108.241 166.648 108.581 167.058 108.824C167.478 109.067 167.926 109.188 168.402 109.188C168.953 109.188 169.415 109.057 169.788 108.796C170.162 108.535 170.465 108.208 170.698 107.816L171.594 108.292C171.445 108.628 171.216 108.941 170.908 109.23C170.6 109.51 170.232 109.739 169.802 109.916C169.382 110.084 168.916 110.168 168.402 110.168ZM175.978 110V102.496H177.028V110H175.978ZM175.978 101.11V99.57H177.028V101.11H175.978ZM179.178 110V102.496H180.228V103.952L179.99 103.896C180.176 103.411 180.48 103.028 180.9 102.748C181.329 102.468 181.824 102.328 182.384 102.328C182.916 102.328 183.392 102.449 183.812 102.692C184.241 102.935 184.577 103.271 184.82 103.7C185.072 104.12 185.198 104.596 185.198 105.128V110H184.148V105.534C184.148 105.077 184.064 104.689 183.896 104.372C183.737 104.055 183.508 103.812 183.21 103.644C182.92 103.467 182.584 103.378 182.202 103.378C181.819 103.378 181.478 103.467 181.18 103.644C180.881 103.812 180.648 104.059 180.48 104.386C180.312 104.703 180.228 105.086 180.228 105.534V110H179.178ZM189.807 110.168C189.088 110.168 188.458 109.986 187.917 109.622C187.376 109.258 186.984 108.763 186.741 108.138L187.623 107.718C187.838 108.175 188.136 108.539 188.519 108.81C188.911 109.081 189.34 109.216 189.807 109.216C190.255 109.216 190.633 109.109 190.941 108.894C191.249 108.67 191.403 108.381 191.403 108.026C191.403 107.765 191.328 107.559 191.179 107.41C191.03 107.251 190.857 107.13 190.661 107.046C190.465 106.962 190.292 106.901 190.143 106.864L189.065 106.556C188.374 106.36 187.875 106.085 187.567 105.73C187.259 105.375 187.105 104.965 187.105 104.498C187.105 104.059 187.217 103.677 187.441 103.35C187.665 103.023 187.968 102.771 188.351 102.594C188.734 102.417 189.158 102.328 189.625 102.328C190.26 102.328 190.834 102.496 191.347 102.832C191.87 103.159 192.238 103.616 192.453 104.204L191.557 104.624C191.37 104.204 191.1 103.877 190.745 103.644C190.4 103.401 190.012 103.28 189.583 103.28C189.163 103.28 188.827 103.387 188.575 103.602C188.323 103.817 188.197 104.087 188.197 104.414C188.197 104.666 188.262 104.867 188.393 105.016C188.524 105.165 188.673 105.277 188.841 105.352C189.018 105.427 189.172 105.483 189.303 105.52L190.549 105.884C191.156 106.061 191.627 106.337 191.963 106.71C192.308 107.083 192.481 107.522 192.481 108.026C192.481 108.437 192.364 108.805 192.131 109.132C191.907 109.459 191.594 109.715 191.193 109.902C190.792 110.079 190.33 110.168 189.807 110.168ZM197.196 110.084C196.524 110.084 196.006 109.888 195.642 109.496C195.278 109.104 195.096 108.544 195.096 107.816V103.546H193.71V102.496H194.06C194.377 102.496 194.629 102.393 194.816 102.188C195.003 101.973 195.096 101.707 195.096 101.39V100.76H196.146V102.496H197.798V103.546H196.146V107.816C196.146 108.068 196.183 108.292 196.258 108.488C196.333 108.675 196.459 108.824 196.636 108.936C196.823 109.048 197.07 109.104 197.378 109.104C197.453 109.104 197.541 109.099 197.644 109.09C197.747 109.081 197.835 109.071 197.91 109.062V110C197.798 110.028 197.672 110.047 197.532 110.056C197.392 110.075 197.28 110.084 197.196 110.084ZM201.787 110.168C201.311 110.168 200.886 110.079 200.513 109.902C200.14 109.715 199.846 109.463 199.631 109.146C199.416 108.829 199.309 108.465 199.309 108.054C199.309 107.662 199.393 107.307 199.561 106.99C199.729 106.663 199.99 106.388 200.345 106.164C200.7 105.94 201.152 105.781 201.703 105.688L204.643 105.198V106.15L201.955 106.598C201.414 106.691 201.022 106.864 200.779 107.116C200.546 107.368 200.429 107.667 200.429 108.012C200.429 108.348 200.56 108.633 200.821 108.866C201.092 109.099 201.437 109.216 201.857 109.216C202.37 109.216 202.818 109.109 203.201 108.894C203.584 108.67 203.882 108.371 204.097 107.998C204.312 107.625 204.419 107.209 204.419 106.752V104.848C204.419 104.4 204.256 104.036 203.929 103.756C203.602 103.476 203.178 103.336 202.655 103.336C202.198 103.336 201.796 103.453 201.451 103.686C201.106 103.91 200.849 104.204 200.681 104.568L199.729 104.05C199.869 103.733 200.088 103.443 200.387 103.182C200.695 102.921 201.045 102.715 201.437 102.566C201.829 102.407 202.235 102.328 202.655 102.328C203.206 102.328 203.691 102.435 204.111 102.65C204.54 102.865 204.872 103.163 205.105 103.546C205.348 103.919 205.469 104.353 205.469 104.848V110H204.419V108.502L204.573 108.656C204.442 108.936 204.237 109.193 203.957 109.426C203.686 109.65 203.364 109.832 202.991 109.972C202.627 110.103 202.226 110.168 201.787 110.168ZM207.629 110V99.402H208.679V110H207.629ZM210.828 110V102.496H211.878V103.924L211.71 103.714C211.915 103.275 212.219 102.935 212.62 102.692C213.031 102.449 213.479 102.328 213.964 102.328C214.543 102.328 215.065 102.491 215.532 102.818C215.999 103.145 216.33 103.569 216.526 104.092L216.232 104.106C216.419 103.527 216.741 103.089 217.198 102.79C217.665 102.482 218.178 102.328 218.738 102.328C219.242 102.328 219.704 102.449 220.124 102.692C220.553 102.935 220.894 103.271 221.146 103.7C221.407 104.12 221.538 104.596 221.538 105.128V110H220.488V105.534C220.488 105.077 220.404 104.689 220.236 104.372C220.077 104.055 219.858 103.812 219.578 103.644C219.298 103.467 218.976 103.378 218.612 103.378C218.257 103.378 217.935 103.467 217.646 103.644C217.357 103.812 217.128 104.059 216.96 104.386C216.792 104.703 216.708 105.086 216.708 105.534V110H215.658V105.534C215.658 105.077 215.574 104.689 215.406 104.372C215.247 104.055 215.028 103.812 214.748 103.644C214.468 103.467 214.146 103.378 213.782 103.378C213.418 103.378 213.091 103.467 212.802 103.644C212.522 103.812 212.298 104.059 212.13 104.386C211.962 104.703 211.878 105.086 211.878 105.534V110H210.828ZM226.959 110.168C226.259 110.168 225.624 110 225.055 109.664C224.495 109.319 224.052 108.847 223.725 108.25C223.398 107.653 223.235 106.976 223.235 106.22C223.235 105.464 223.394 104.797 223.711 104.218C224.028 103.63 224.458 103.168 224.999 102.832C225.55 102.496 226.166 102.328 226.847 102.328C227.388 102.328 227.869 102.431 228.289 102.636C228.718 102.832 229.082 103.103 229.381 103.448C229.68 103.784 229.908 104.167 230.067 104.596C230.226 105.016 230.305 105.45 230.305 105.898C230.305 105.991 230.3 106.099 230.291 106.22C230.282 106.332 230.268 106.449 230.249 106.57H223.907V105.59H229.647L229.143 106.01C229.227 105.497 229.166 105.039 228.961 104.638C228.765 104.227 228.48 103.905 228.107 103.672C227.734 103.429 227.314 103.308 226.847 103.308C226.38 103.308 225.946 103.429 225.545 103.672C225.153 103.915 224.845 104.255 224.621 104.694C224.397 105.123 224.308 105.637 224.355 106.234C224.308 106.831 224.402 107.354 224.635 107.802C224.878 108.241 225.204 108.581 225.615 108.824C226.035 109.067 226.483 109.188 226.959 109.188C227.51 109.188 227.972 109.057 228.345 108.796C228.718 108.535 229.022 108.208 229.255 107.816L230.151 108.292C230.002 108.628 229.773 108.941 229.465 109.23C229.157 109.51 228.788 109.739 228.359 109.916C227.939 110.084 227.472 110.168 226.959 110.168ZM232.156 110V102.496H233.206V103.952L232.968 103.896C233.155 103.411 233.458 103.028 233.878 102.748C234.307 102.468 234.802 102.328 235.362 102.328C235.894 102.328 236.37 102.449 236.79 102.692C237.219 102.935 237.555 103.271 237.798 103.7C238.05 104.12 238.176 104.596 238.176 105.128V110H237.126V105.534C237.126 105.077 237.042 104.689 236.874 104.372C236.715 104.055 236.487 103.812 236.188 103.644C235.899 103.467 235.563 103.378 235.18 103.378C234.797 103.378 234.457 103.467 234.158 103.644C233.859 103.812 233.626 104.059 233.458 104.386C233.29 104.703 233.206 105.086 233.206 105.534V110H232.156ZM243.052 110.084C242.38 110.084 241.862 109.888 241.498 109.496C241.134 109.104 240.952 108.544 240.952 107.816V103.546H239.566V102.496H239.916C240.233 102.496 240.485 102.393 240.672 102.188C240.858 101.973 240.952 101.707 240.952 101.39V100.76H242.002V102.496H243.654V103.546H242.002V107.816C242.002 108.068 242.039 108.292 242.114 108.488C242.188 108.675 242.314 108.824 242.492 108.936C242.678 109.048 242.926 109.104 243.234 109.104C243.308 109.104 243.397 109.099 243.5 109.09C243.602 109.081 243.691 109.071 243.766 109.062V110C243.654 110.028 243.528 110.047 243.388 110.056C243.248 110.075 243.136 110.084 243.052 110.084ZM248.213 110.168C247.495 110.168 246.865 109.986 246.323 109.622C245.782 109.258 245.39 108.763 245.147 108.138L246.029 107.718C246.244 108.175 246.543 108.539 246.925 108.81C247.317 109.081 247.747 109.216 248.213 109.216C248.661 109.216 249.039 109.109 249.347 108.894C249.655 108.67 249.809 108.381 249.809 108.026C249.809 107.765 249.735 107.559 249.585 107.41C249.436 107.251 249.263 107.13 249.067 107.046C248.871 106.962 248.699 106.901 248.549 106.864L247.471 106.556C246.781 106.36 246.281 106.085 245.973 105.73C245.665 105.375 245.511 104.965 245.511 104.498C245.511 104.059 245.623 103.677 245.847 103.35C246.071 103.023 246.375 102.771 246.757 102.594C247.14 102.417 247.565 102.328 248.031 102.328C248.666 102.328 249.24 102.496 249.753 102.832C250.276 103.159 250.645 103.616 250.859 104.204L249.963 104.624C249.777 104.204 249.506 103.877 249.151 103.644C248.806 103.401 248.419 103.28 247.989 103.28C247.569 103.28 247.233 103.387 246.981 103.602C246.729 103.817 246.603 104.087 246.603 104.414C246.603 104.666 246.669 104.867 246.799 105.016C246.93 105.165 247.079 105.277 247.247 105.352C247.425 105.427 247.579 105.483 247.709 105.52L248.955 105.884C249.562 106.061 250.033 106.337 250.369 106.71C250.715 107.083 250.887 107.522 250.887 108.026C250.887 108.437 250.771 108.805 250.537 109.132C250.313 109.459 250.001 109.715 249.599 109.902C249.198 110.079 248.736 110.168 248.213 110.168Z" fill="#1D1F1E"/>
<path d="M118.578 157V146.57H120.23V155.53H124.738V157H118.578ZM129.527 157.168C128.771 157.168 128.099 156.995 127.511 156.65C126.932 156.295 126.48 155.819 126.153 155.222C125.826 154.615 125.663 153.939 125.663 153.192C125.663 152.427 125.826 151.75 126.153 151.162C126.489 150.574 126.937 150.112 127.497 149.776C128.057 149.431 128.692 149.258 129.401 149.258C129.97 149.258 130.479 149.356 130.927 149.552C131.375 149.748 131.753 150.019 132.061 150.364C132.369 150.7 132.602 151.087 132.761 151.526C132.929 151.965 133.013 152.431 133.013 152.926C133.013 153.047 133.008 153.173 132.999 153.304C132.99 153.435 132.971 153.556 132.943 153.668H126.909V152.408H132.047L131.291 152.982C131.384 152.525 131.352 152.119 131.193 151.764C131.044 151.4 130.81 151.115 130.493 150.91C130.185 150.695 129.821 150.588 129.401 150.588C128.981 150.588 128.608 150.695 128.281 150.91C127.954 151.115 127.702 151.414 127.525 151.806C127.348 152.189 127.278 152.655 127.315 153.206C127.268 153.719 127.338 154.167 127.525 154.55C127.721 154.933 127.992 155.231 128.337 155.446C128.692 155.661 129.093 155.768 129.541 155.768C129.998 155.768 130.386 155.665 130.703 155.46C131.03 155.255 131.286 154.989 131.473 154.662L132.761 155.292C132.612 155.647 132.378 155.969 132.061 156.258C131.753 156.538 131.38 156.762 130.941 156.93C130.512 157.089 130.04 157.168 129.527 157.168ZM136.756 157.168C136.243 157.168 135.79 157.079 135.398 156.902C135.016 156.715 134.717 156.463 134.502 156.146C134.288 155.819 134.18 155.437 134.18 154.998C134.18 154.587 134.269 154.219 134.446 153.892C134.633 153.565 134.918 153.29 135.3 153.066C135.683 152.842 136.164 152.683 136.742 152.59L139.374 152.156V153.402L137.05 153.808C136.63 153.883 136.322 154.018 136.126 154.214C135.93 154.401 135.832 154.643 135.832 154.942C135.832 155.231 135.94 155.469 136.154 155.656C136.378 155.833 136.663 155.922 137.008 155.922C137.438 155.922 137.811 155.829 138.128 155.642C138.455 155.455 138.707 155.208 138.884 154.9C139.062 154.583 139.15 154.233 139.15 153.85V151.904C139.15 151.531 139.01 151.227 138.73 150.994C138.46 150.751 138.096 150.63 137.638 150.63C137.218 150.63 136.85 150.742 136.532 150.966C136.224 151.181 135.996 151.461 135.846 151.806L134.53 151.148C134.67 150.775 134.899 150.448 135.216 150.168C135.534 149.879 135.902 149.655 136.322 149.496C136.752 149.337 137.204 149.258 137.68 149.258C138.278 149.258 138.805 149.37 139.262 149.594C139.729 149.818 140.088 150.131 140.34 150.532C140.602 150.924 140.732 151.381 140.732 151.904V157H139.22V155.628L139.542 155.67C139.365 155.978 139.136 156.244 138.856 156.468C138.586 156.692 138.273 156.865 137.918 156.986C137.573 157.107 137.186 157.168 136.756 157.168ZM142.582 157V149.426H144.094V150.952L143.954 150.728C144.122 150.233 144.393 149.879 144.766 149.664C145.14 149.44 145.588 149.328 146.11 149.328H146.572V150.77H145.914C145.392 150.77 144.967 150.933 144.64 151.26C144.323 151.577 144.164 152.035 144.164 152.632V157H142.582ZM147.654 157V149.426H149.166V150.91L148.984 150.714C149.171 150.238 149.47 149.879 149.88 149.636C150.291 149.384 150.767 149.258 151.308 149.258C151.868 149.258 152.363 149.379 152.792 149.622C153.222 149.865 153.558 150.201 153.8 150.63C154.043 151.059 154.164 151.554 154.164 152.114V157H152.596V152.534C152.596 152.151 152.526 151.829 152.386 151.568C152.246 151.297 152.046 151.092 151.784 150.952C151.532 150.803 151.243 150.728 150.916 150.728C150.59 150.728 150.296 150.803 150.034 150.952C149.782 151.092 149.586 151.297 149.446 151.568C149.306 151.839 149.236 152.161 149.236 152.534V157H147.654ZM158.305 157V149.426H159.817V151.064L159.621 150.812C159.78 150.299 160.069 149.911 160.489 149.65C160.909 149.389 161.39 149.258 161.931 149.258C162.538 149.258 163.074 149.421 163.541 149.748C164.017 150.065 164.334 150.49 164.493 151.022L164.045 151.064C164.269 150.457 164.61 150.005 165.067 149.706C165.534 149.407 166.066 149.258 166.663 149.258C167.186 149.258 167.657 149.379 168.077 149.622C168.506 149.865 168.847 150.201 169.099 150.63C169.351 151.059 169.477 151.549 169.477 152.1V157H167.895V152.534C167.895 152.151 167.825 151.829 167.685 151.568C167.554 151.297 167.368 151.092 167.125 150.952C166.892 150.803 166.616 150.728 166.299 150.728C165.982 150.728 165.702 150.803 165.459 150.952C165.216 151.092 165.025 151.297 164.885 151.568C164.745 151.839 164.675 152.161 164.675 152.534V157H163.107V152.534C163.107 152.151 163.037 151.829 162.897 151.568C162.766 151.297 162.58 151.092 162.337 150.952C162.104 150.803 161.824 150.728 161.497 150.728C161.18 150.728 160.9 150.803 160.657 150.952C160.414 151.092 160.223 151.297 160.083 151.568C159.952 151.839 159.887 152.161 159.887 152.534V157H158.305ZM174.824 157.168C174.096 157.168 173.429 156.995 172.822 156.65C172.225 156.305 171.749 155.833 171.394 155.236C171.039 154.639 170.862 153.962 170.862 153.206C170.862 152.441 171.039 151.764 171.394 151.176C171.749 150.579 172.225 150.112 172.822 149.776C173.419 149.431 174.087 149.258 174.824 149.258C175.571 149.258 176.238 149.431 176.826 149.776C177.423 150.112 177.895 150.579 178.24 151.176C178.595 151.764 178.772 152.441 178.772 153.206C178.772 153.971 178.595 154.653 178.24 155.25C177.885 155.847 177.409 156.319 176.812 156.664C176.215 157 175.552 157.168 174.824 157.168ZM174.824 155.698C175.272 155.698 175.669 155.591 176.014 155.376C176.359 155.161 176.63 154.867 176.826 154.494C177.031 154.111 177.134 153.682 177.134 153.206C177.134 152.73 177.031 152.305 176.826 151.932C176.63 151.559 176.359 151.265 176.014 151.05C175.669 150.835 175.272 150.728 174.824 150.728C174.385 150.728 173.989 150.835 173.634 151.05C173.289 151.265 173.013 151.559 172.808 151.932C172.612 152.305 172.514 152.73 172.514 153.206C172.514 153.682 172.612 154.111 172.808 154.494C173.013 154.867 173.289 155.161 173.634 155.376C173.989 155.591 174.385 155.698 174.824 155.698ZM180.317 157V149.426H181.829V150.952L181.689 150.728C181.857 150.233 182.127 149.879 182.501 149.664C182.874 149.44 183.322 149.328 183.845 149.328H184.307V150.77H183.649C183.126 150.77 182.701 150.933 182.375 151.26C182.057 151.577 181.899 152.035 181.899 152.632V157H180.317ZM188.945 157.168C188.189 157.168 187.517 156.995 186.929 156.65C186.35 156.295 185.898 155.819 185.571 155.222C185.244 154.615 185.081 153.939 185.081 153.192C185.081 152.427 185.244 151.75 185.571 151.162C185.907 150.574 186.355 150.112 186.915 149.776C187.475 149.431 188.11 149.258 188.819 149.258C189.388 149.258 189.897 149.356 190.345 149.552C190.793 149.748 191.171 150.019 191.479 150.364C191.787 150.7 192.02 151.087 192.179 151.526C192.347 151.965 192.431 152.431 192.431 152.926C192.431 153.047 192.426 153.173 192.417 153.304C192.408 153.435 192.389 153.556 192.361 153.668H186.327V152.408H191.465L190.709 152.982C190.802 152.525 190.77 152.119 190.611 151.764C190.462 151.4 190.228 151.115 189.911 150.91C189.603 150.695 189.239 150.588 188.819 150.588C188.399 150.588 188.026 150.695 187.699 150.91C187.372 151.115 187.12 151.414 186.943 151.806C186.766 152.189 186.696 152.655 186.733 153.206C186.686 153.719 186.756 154.167 186.943 154.55C187.139 154.933 187.41 155.231 187.755 155.446C188.11 155.661 188.511 155.768 188.959 155.768C189.416 155.768 189.804 155.665 190.121 155.46C190.448 155.255 190.704 154.989 190.891 154.662L192.179 155.292C192.03 155.647 191.796 155.969 191.479 156.258C191.171 156.538 190.798 156.762 190.359 156.93C189.93 157.089 189.458 157.168 188.945 157.168Z" fill="#1D1F1E"/>
<path d="M207.5 156L211.5 152L207.5 148" stroke="#1D1F1E" stroke-width="2" stroke-linecap="round" stroke-linejoin="round"/>
</svg>
