<svg width="1280" height="90" viewBox="0 0 1280 90" fill="none" xmlns="http://www.w3.org/2000/svg">
<rect width="1280" height="90" fill="#F8F8F8"/>
<path fill-rule="evenodd" clip-rule="evenodd" d="M222.002 51.0022V44.9997C222.002 44.469 221.791 43.96 221.416 43.5848C221.041 43.2095 220.532 42.9988 220.001 42.9989H209.997C209.466 42.9988 208.957 43.2095 208.582 43.5848C208.207 43.96 207.996 44.469 207.996 44.9997V51.0022C207.996 51.5329 208.207 52.0419 208.582 52.4172C208.957 52.7925 209.466 53.0032 209.997 53.0031H220.001C221.106 53.0031 222.002 52.1072 222.002 51.0022Z" stroke="#A4AAAE" stroke-width="1.5" stroke-linecap="round" stroke-linejoin="round"/>
<path d="M207.996 47.0802H222.002" stroke="#A4AAAE" stroke-width="1.5" stroke-linecap="round" stroke-linejoin="round"/>
<path d="M211.195 42.9989L212.406 38.477C212.543 37.9645 212.879 37.5278 213.339 37.2631C213.798 36.9985 214.345 36.9277 214.857 37.0664L224.521 39.6575C225.033 39.7948 225.47 40.1305 225.735 40.5903C225.999 41.0501 226.07 41.5964 225.931 42.1085L224.381 47.9009C224.105 48.9434 223.05 49.5773 222 49.3315" stroke="#A4AAAE" stroke-width="1.5" stroke-linecap="round" stroke-linejoin="round"/>
<path d="M246.138 51.168C245.317 51.168 244.593 50.944 243.968 50.496C243.352 50.0387 242.871 49.4087 242.526 48.606C242.181 47.794 242.008 46.8513 242.008 45.778C242.008 44.7047 242.181 43.7667 242.526 42.964C242.871 42.152 243.352 41.522 243.968 41.074C244.584 40.626 245.303 40.402 246.124 40.402C246.945 40.402 247.664 40.626 248.28 41.074C248.896 41.522 249.377 42.152 249.722 42.964C250.067 43.7667 250.24 44.7047 250.24 45.778C250.24 46.8513 250.067 47.794 249.722 48.606C249.386 49.418 248.91 50.048 248.294 50.496C247.678 50.944 246.959 51.168 246.138 51.168ZM246.138 50.118C246.735 50.118 247.258 49.936 247.706 49.572C248.154 49.208 248.504 48.704 248.756 48.06C249.008 47.4067 249.134 46.646 249.134 45.778C249.134 44.91 249.008 44.154 248.756 43.51C248.504 42.8567 248.154 42.3527 247.706 41.998C247.258 41.634 246.731 41.452 246.124 41.452C245.527 41.452 245.004 41.634 244.556 41.998C244.108 42.3527 243.758 42.8567 243.506 43.51C243.254 44.154 243.128 44.91 243.128 45.778C243.128 46.6367 243.254 47.3927 243.506 48.046C243.758 48.6993 244.108 49.208 244.556 49.572C245.013 49.936 245.541 50.118 246.138 50.118ZM253.186 51L261.726 40.57H263.084L254.544 51H253.186ZM254.712 45.862C254.208 45.862 253.751 45.7407 253.34 45.498C252.929 45.246 252.598 44.9147 252.346 44.504C252.103 44.0933 251.982 43.636 251.982 43.132C251.982 42.628 252.103 42.1707 252.346 41.76C252.598 41.34 252.929 41.0087 253.34 40.766C253.751 40.5233 254.208 40.402 254.712 40.402C255.216 40.402 255.673 40.5233 256.084 40.766C256.495 41.0087 256.821 41.34 257.064 41.76C257.307 42.1707 257.428 42.628 257.428 43.132C257.428 43.636 257.307 44.0933 257.064 44.504C256.821 44.9147 256.495 45.246 256.084 45.498C255.673 45.7407 255.216 45.862 254.712 45.862ZM254.712 44.854C255.039 44.854 255.323 44.7747 255.566 44.616C255.818 44.448 256.014 44.2333 256.154 43.972C256.303 43.7013 256.378 43.4213 256.378 43.132C256.378 42.8333 256.303 42.5533 256.154 42.292C256.014 42.0307 255.818 41.8207 255.566 41.662C255.323 41.494 255.039 41.41 254.712 41.41C254.395 41.41 254.105 41.494 253.844 41.662C253.592 41.8207 253.391 42.0307 253.242 42.292C253.102 42.5533 253.032 42.8333 253.032 43.132C253.032 43.4213 253.102 43.7013 253.242 43.972C253.391 44.2333 253.592 44.448 253.844 44.616C254.105 44.7747 254.395 44.854 254.712 44.854ZM261.432 51.168C260.928 51.168 260.471 51.0467 260.06 50.804C259.649 50.552 259.318 50.2207 259.066 49.81C258.823 49.3993 258.702 48.942 258.702 48.438C258.702 47.934 258.823 47.4767 259.066 47.066C259.318 46.646 259.649 46.3147 260.06 46.072C260.471 45.8293 260.928 45.708 261.432 45.708C261.936 45.708 262.393 45.8293 262.804 46.072C263.215 46.3147 263.541 46.646 263.784 47.066C264.027 47.4767 264.148 47.934 264.148 48.438C264.148 48.942 264.027 49.3993 263.784 49.81C263.541 50.2207 263.215 50.552 262.804 50.804C262.393 51.0467 261.936 51.168 261.432 51.168ZM261.432 50.16C261.759 50.16 262.043 50.0807 262.286 49.922C262.538 49.754 262.734 49.5393 262.874 49.278C263.023 49.0073 263.098 48.7273 263.098 48.438C263.098 48.1393 263.023 47.8593 262.874 47.598C262.734 47.3367 262.538 47.1267 262.286 46.968C262.043 46.8 261.759 46.716 261.432 46.716C261.115 46.716 260.825 46.8 260.564 46.968C260.312 47.1267 260.111 47.3367 259.962 47.598C259.822 47.8593 259.752 48.1393 259.752 48.438C259.752 48.7273 259.822 49.0073 259.962 49.278C260.111 49.5393 260.312 49.754 260.564 49.922C260.825 50.0807 261.115 50.16 261.432 50.16ZM269.797 51L273.605 40.57H274.809L278.617 51H277.441L276.545 48.452H271.883L270.973 51H269.797ZM272.247 47.402H276.153L274.039 41.41H274.375L272.247 47.402ZM280.007 51V40.57H283.591C284.273 40.57 284.87 40.7053 285.383 40.976C285.897 41.2373 286.293 41.6107 286.573 42.096C286.863 42.572 287.007 43.1273 287.007 43.762C287.007 44.3967 286.863 44.952 286.573 45.428C286.293 45.904 285.897 46.2773 285.383 46.548C284.879 46.8093 284.282 46.94 283.591 46.94H281.127V51H280.007ZM281.127 45.89H283.647C284.095 45.89 284.487 45.806 284.823 45.638C285.159 45.4607 285.421 45.2133 285.607 44.896C285.794 44.5693 285.887 44.1867 285.887 43.748C285.887 43.3093 285.794 42.9313 285.607 42.614C285.421 42.2967 285.159 42.054 284.823 41.886C284.487 41.7087 284.095 41.62 283.647 41.62H281.127V45.89ZM289.003 51V40.57H292.587C293.269 40.57 293.866 40.7053 294.379 40.976C294.893 41.2373 295.289 41.6107 295.569 42.096C295.859 42.572 296.003 43.1273 296.003 43.762C296.003 44.4993 295.807 45.1293 295.415 45.652C295.033 46.1747 294.51 46.5433 293.847 46.758L296.283 51H294.967L292.419 46.506L293.175 46.94H290.123V51H289.003ZM290.123 45.89H292.643C293.091 45.89 293.483 45.806 293.819 45.638C294.155 45.4607 294.417 45.2133 294.603 44.896C294.79 44.5693 294.883 44.1867 294.883 43.748C294.883 43.3093 294.79 42.9313 294.603 42.614C294.417 42.2967 294.155 42.054 293.819 41.886C293.483 41.7087 293.091 41.62 292.643 41.62H290.123V45.89ZM300.351 51V40.57H306.791V41.62H301.471V45.246H306.371V46.296H301.471V51H300.351ZM308.486 51V40.57H309.606V51H308.486ZM312.068 51V40.57H313.048L319.166 49.348H318.788V40.57H319.908V51H318.928L312.81 42.166H313.188V51H312.068ZM321.299 51L325.107 40.57H326.311L330.119 51H328.943L328.047 48.452H323.385L322.475 51H321.299ZM323.749 47.402H327.655L325.541 41.41H325.877L323.749 47.402ZM331.509 51V40.57H332.489L338.607 49.348H338.229V40.57H339.349V51H338.369L332.251 42.166H332.629V51H331.509ZM346.578 51.168C345.841 51.168 345.164 51.0373 344.548 50.776C343.932 50.5053 343.395 50.132 342.938 49.656C342.49 49.1707 342.14 48.6013 341.888 47.948C341.636 47.2947 341.51 46.576 341.51 45.792C341.51 45.008 341.636 44.2893 341.888 43.636C342.14 42.9827 342.49 42.4133 342.938 41.928C343.395 41.4427 343.932 41.0693 344.548 40.808C345.164 40.5373 345.841 40.402 346.578 40.402C347.287 40.402 347.922 40.528 348.482 40.78C349.051 41.032 349.527 41.3587 349.91 41.76C350.302 42.152 350.582 42.5673 350.75 43.006L349.7 43.468C349.439 42.8613 349.037 42.376 348.496 42.012C347.964 41.6387 347.325 41.452 346.578 41.452C345.813 41.452 345.131 41.634 344.534 41.998C343.937 42.362 343.47 42.8707 343.134 43.524C342.798 44.168 342.63 44.924 342.63 45.792C342.63 46.6507 342.798 47.4067 343.134 48.06C343.47 48.7133 343.937 49.222 344.534 49.586C345.131 49.9407 345.813 50.118 346.578 50.118C347.325 50.118 347.964 49.936 348.496 49.572C349.037 49.208 349.439 48.7227 349.7 48.116L350.75 48.578C350.582 49.0073 350.302 49.4227 349.91 49.824C349.527 50.216 349.051 50.538 348.482 50.79C347.922 51.042 347.287 51.168 346.578 51.168ZM352.755 51V40.57H359.475V41.62H353.875V45.246H359.195V46.296H353.875V49.95H359.475V51H352.755ZM362.629 51L366.437 40.57H367.641L371.449 51H370.273L369.377 48.452H364.715L363.805 51H362.629ZM365.079 47.402H368.985L366.871 41.41H367.207L365.079 47.402ZM374.749 51L370.927 40.57H372.089L375.449 50.006H375.225L378.571 40.57H379.747L375.925 51H374.749ZM379.226 51L383.034 40.57H384.238L388.046 51H386.87L385.974 48.452H381.312L380.402 51H379.226ZM381.676 47.402H385.582L383.468 41.41H383.804L381.676 47.402ZM389.437 51V40.57H390.557V51H389.437ZM393.019 51V40.57H394.139V49.95H398.759V51H393.019ZM399.379 51L403.187 40.57H404.391L408.199 51H407.023L406.127 48.452H401.465L400.555 51H399.379ZM401.829 47.402H405.735L403.621 41.41H403.957L401.829 47.402ZM409.589 51V40.57H413.971C414.559 40.57 415.068 40.682 415.497 40.906C415.936 41.1207 416.272 41.424 416.505 41.816C416.748 42.208 416.869 42.6653 416.869 43.188C416.869 43.7293 416.734 44.21 416.463 44.63C416.202 45.0407 415.824 45.3533 415.329 45.568L415.315 45.232C415.726 45.3813 416.076 45.5913 416.365 45.862C416.664 46.1327 416.893 46.45 417.051 46.814C417.21 47.1687 417.289 47.5513 417.289 47.962C417.289 48.8953 416.991 49.6373 416.393 50.188C415.805 50.7293 415.003 51 413.985 51H409.589ZM410.709 49.95H413.985C414.648 49.95 415.175 49.7773 415.567 49.432C415.969 49.0773 416.169 48.592 416.169 47.976C416.169 47.3693 415.969 46.8887 415.567 46.534C415.175 46.17 414.648 45.988 413.985 45.988H410.709V49.95ZM410.709 44.98H413.887C414.447 44.98 414.895 44.8167 415.231 44.49C415.577 44.1633 415.749 43.7433 415.749 43.23C415.749 42.7073 415.577 42.3107 415.231 42.04C414.895 41.76 414.447 41.62 413.887 41.62H410.709V44.98ZM419.296 51V40.57H420.416V49.95H425.036V51H419.296ZM426.734 51V40.57H433.454V41.62H427.854V45.246H433.174V46.296H427.854V49.95H433.454V51H426.734Z" fill="#1D1F1E"/>
<rect x="640" y="22" width="1" height="46" fill="#D9D9D9"/>
<path d="M731.746 37.168C731.083 37.168 730.481 37.042 729.94 36.79C729.399 36.538 728.941 36.202 728.568 35.782C728.195 35.3527 727.929 34.8813 727.77 34.368L728.778 33.99C729.021 34.6993 729.399 35.2407 729.912 35.614C730.425 35.978 731.037 36.16 731.746 36.16C732.194 36.16 732.586 36.09 732.922 35.95C733.267 35.8007 733.533 35.5953 733.72 35.334C733.907 35.0727 734 34.7693 734 34.424C734 33.9107 733.86 33.514 733.58 33.234C733.3 32.954 732.899 32.7393 732.376 32.59L730.5 32.03C729.763 31.8153 729.193 31.456 728.792 30.952C728.4 30.448 728.204 29.874 728.204 29.23C728.204 28.6793 728.339 28.194 728.61 27.774C728.881 27.3447 729.249 27.0087 729.716 26.766C730.192 26.5233 730.729 26.402 731.326 26.402C731.951 26.402 732.511 26.5187 733.006 26.752C733.51 26.976 733.935 27.2747 734.28 27.648C734.625 28.0213 734.873 28.4367 735.022 28.894L734.042 29.286C733.818 28.67 733.468 28.2033 732.992 27.886C732.525 27.5687 731.975 27.41 731.34 27.41C730.939 27.41 730.584 27.48 730.276 27.62C729.977 27.76 729.744 27.9607 729.576 28.222C729.408 28.4833 729.324 28.7913 729.324 29.146C729.324 29.5753 729.459 29.9627 729.73 30.308C730.001 30.644 730.416 30.896 730.976 31.064L732.628 31.554C733.449 31.7967 734.07 32.1467 734.49 32.604C734.91 33.0613 735.12 33.6353 735.12 34.326C735.12 34.886 734.975 35.3807 734.686 35.81C734.406 36.23 734.009 36.5613 733.496 36.804C732.992 37.0467 732.409 37.168 731.746 37.168ZM737.129 39.8V29.496H738.179V31.176L738.011 30.882C738.309 30.406 738.706 30.028 739.201 29.748C739.705 29.468 740.279 29.328 740.923 29.328C741.632 29.328 742.262 29.5007 742.813 29.846C743.373 30.182 743.811 30.644 744.129 31.232C744.455 31.82 744.619 32.492 744.619 33.248C744.619 33.9947 744.455 34.6667 744.129 35.264C743.811 35.852 743.373 36.3187 742.813 36.664C742.262 37 741.632 37.168 740.923 37.168C740.279 37.168 739.695 37.0233 739.173 36.734C738.659 36.4353 738.272 36.0153 738.011 35.474L738.179 35.32V39.8H737.129ZM740.867 36.118C741.371 36.118 741.819 35.992 742.211 35.74C742.612 35.488 742.925 35.1473 743.149 34.718C743.382 34.2793 743.499 33.7893 743.499 33.248C743.499 32.6973 743.382 32.2073 743.149 31.778C742.925 31.3487 742.612 31.008 742.211 30.756C741.819 30.504 741.371 30.378 740.867 30.378C740.363 30.378 739.905 30.504 739.495 30.756C739.093 31.008 738.771 31.3533 738.529 31.792C738.295 32.2213 738.179 32.7067 738.179 33.248C738.179 33.7893 738.295 34.2793 738.529 34.718C738.771 35.1473 739.093 35.488 739.495 35.74C739.905 35.992 740.363 36.118 740.867 36.118ZM746.467 37V29.496H747.517V30.728L747.377 30.546C747.554 30.1913 747.82 29.9113 748.175 29.706C748.539 29.5007 748.977 29.398 749.491 29.398H749.967V30.448H749.309C748.767 30.448 748.333 30.616 748.007 30.952C747.68 31.288 747.517 31.764 747.517 32.38V37H746.467ZM754.613 37.168C753.913 37.168 753.278 37 752.709 36.664C752.149 36.3187 751.706 35.8473 751.379 35.25C751.052 34.6527 750.889 33.976 750.889 33.22C750.889 32.464 751.048 31.7967 751.365 31.218C751.682 30.63 752.112 30.168 752.653 29.832C753.204 29.496 753.82 29.328 754.501 29.328C755.042 29.328 755.523 29.4307 755.943 29.636C756.372 29.832 756.736 30.1027 757.035 30.448C757.334 30.784 757.562 31.1667 757.721 31.596C757.88 32.016 757.959 32.45 757.959 32.898C757.959 32.9913 757.954 33.0987 757.945 33.22C757.936 33.332 757.922 33.4487 757.903 33.57H751.561V32.59H757.301L756.797 33.01C756.881 32.4967 756.82 32.0393 756.615 31.638C756.419 31.2273 756.134 30.9053 755.761 30.672C755.388 30.4293 754.968 30.308 754.501 30.308C754.034 30.308 753.6 30.4293 753.199 30.672C752.807 30.9147 752.499 31.2553 752.275 31.694C752.051 32.1233 751.962 32.6367 752.009 33.234C751.962 33.8313 752.056 34.354 752.289 34.802C752.532 35.2407 752.858 35.5813 753.269 35.824C753.689 36.0667 754.137 36.188 754.613 36.188C755.164 36.188 755.626 36.0573 755.999 35.796C756.372 35.5347 756.676 35.208 756.909 34.816L757.805 35.292C757.656 35.628 757.427 35.9407 757.119 36.23C756.811 36.51 756.442 36.7387 756.013 36.916C755.593 37.084 755.126 37.168 754.613 37.168ZM761.844 37.168C761.368 37.168 760.943 37.0793 760.57 36.902C760.196 36.7153 759.902 36.4633 759.688 36.146C759.473 35.8287 759.366 35.4647 759.366 35.054C759.366 34.662 759.45 34.3073 759.618 33.99C759.786 33.6633 760.047 33.388 760.402 33.164C760.756 32.94 761.209 32.7813 761.76 32.688L764.7 32.198V33.15L762.012 33.598C761.47 33.6913 761.078 33.864 760.836 34.116C760.602 34.368 760.486 34.6667 760.486 35.012C760.486 35.348 760.616 35.6327 760.878 35.866C761.148 36.0993 761.494 36.216 761.914 36.216C762.427 36.216 762.875 36.1087 763.258 35.894C763.64 35.67 763.939 35.3713 764.154 34.998C764.368 34.6247 764.476 34.2093 764.476 33.752V31.848C764.476 31.4 764.312 31.036 763.986 30.756C763.659 30.476 763.234 30.336 762.712 30.336C762.254 30.336 761.853 30.4527 761.508 30.686C761.162 30.91 760.906 31.204 760.738 31.568L759.786 31.05C759.926 30.7327 760.145 30.4433 760.444 30.182C760.752 29.9207 761.102 29.7153 761.494 29.566C761.886 29.4073 762.292 29.328 762.712 29.328C763.262 29.328 763.748 29.4353 764.168 29.65C764.597 29.8647 764.928 30.1633 765.162 30.546C765.404 30.9193 765.526 31.3533 765.526 31.848V37H764.476V35.502L764.63 35.656C764.499 35.936 764.294 36.1927 764.014 36.426C763.743 36.65 763.421 36.832 763.048 36.972C762.684 37.1027 762.282 37.168 761.844 37.168ZM771.073 37.168C770.373 37.168 769.743 37 769.183 36.664C768.623 36.3187 768.18 35.852 767.853 35.264C767.536 34.6667 767.377 33.9947 767.377 33.248C767.377 32.492 767.536 31.82 767.853 31.232C768.18 30.644 768.619 30.182 769.169 29.846C769.729 29.5007 770.364 29.328 771.073 29.328C771.717 29.328 772.291 29.468 772.795 29.748C773.299 30.028 773.696 30.406 773.985 30.882L773.817 31.176V26.402H774.867V37H773.817V35.32L773.985 35.474C773.724 36.0153 773.332 36.4353 772.809 36.734C772.296 37.0233 771.717 37.168 771.073 37.168ZM771.129 36.118C771.633 36.118 772.086 35.992 772.487 35.74C772.898 35.488 773.22 35.1473 773.453 34.718C773.696 34.2793 773.817 33.7893 773.817 33.248C773.817 32.7067 773.696 32.2213 773.453 31.792C773.22 31.3533 772.898 31.008 772.487 30.756C772.086 30.504 771.633 30.378 771.129 30.378C770.635 30.378 770.187 30.504 769.785 30.756C769.384 31.008 769.067 31.3487 768.833 31.778C768.609 32.2073 768.497 32.6973 768.497 33.248C768.497 33.7893 768.609 34.2793 768.833 34.718C769.067 35.1473 769.379 35.488 769.771 35.74C770.173 35.992 770.625 36.118 771.129 36.118ZM782.272 37.084C781.6 37.084 781.082 36.888 780.718 36.496C780.354 36.104 780.172 35.544 780.172 34.816V30.546H778.786V29.496H779.136C779.454 29.496 779.706 29.3933 779.892 29.188C780.079 28.9733 780.172 28.7073 780.172 28.39V27.76H781.222V29.496H782.874V30.546H781.222V34.816C781.222 35.068 781.26 35.292 781.334 35.488C781.409 35.6747 781.535 35.824 781.712 35.936C781.899 36.048 782.146 36.104 782.454 36.104C782.529 36.104 782.618 36.0993 782.72 36.09C782.823 36.0807 782.912 36.0713 782.986 36.062V37C782.874 37.028 782.748 37.0467 782.608 37.056C782.468 37.0747 782.356 37.084 782.272 37.084ZM784.83 37V26.402H785.88V30.952L785.642 30.896C785.829 30.4107 786.132 30.028 786.552 29.748C786.981 29.468 787.476 29.328 788.036 29.328C788.568 29.328 789.044 29.4493 789.464 29.692C789.893 29.9347 790.229 30.2707 790.472 30.7C790.724 31.12 790.85 31.596 790.85 32.128V37H789.8V32.534C789.8 32.0767 789.716 31.6893 789.548 31.372C789.38 31.0547 789.147 30.812 788.848 30.644C788.559 30.4667 788.227 30.378 787.854 30.378C787.481 30.378 787.145 30.4667 786.846 30.644C786.547 30.812 786.309 31.0593 786.132 31.386C785.964 31.7033 785.88 32.086 785.88 32.534V37H784.83ZM796.271 37.168C795.571 37.168 794.937 37 794.367 36.664C793.807 36.3187 793.364 35.8473 793.037 35.25C792.711 34.6527 792.547 33.976 792.547 33.22C792.547 32.464 792.706 31.7967 793.023 31.218C793.341 30.63 793.77 30.168 794.311 29.832C794.862 29.496 795.478 29.328 796.159 29.328C796.701 29.328 797.181 29.4307 797.601 29.636C798.031 29.832 798.395 30.1027 798.693 30.448C798.992 30.784 799.221 31.1667 799.379 31.596C799.538 32.016 799.617 32.45 799.617 32.898C799.617 32.9913 799.613 33.0987 799.603 33.22C799.594 33.332 799.58 33.4487 799.561 33.57H793.219V32.59H798.959L798.455 33.01C798.539 32.4967 798.479 32.0393 798.273 31.638C798.077 31.2273 797.793 30.9053 797.419 30.672C797.046 30.4293 796.626 30.308 796.159 30.308C795.693 30.308 795.259 30.4293 794.857 30.672C794.465 30.9147 794.157 31.2553 793.933 31.694C793.709 32.1233 793.621 32.6367 793.667 33.234C793.621 33.8313 793.714 34.354 793.947 34.802C794.19 35.2407 794.517 35.5813 794.927 35.824C795.347 36.0667 795.795 36.188 796.271 36.188C796.822 36.188 797.284 36.0573 797.657 35.796C798.031 35.5347 798.334 35.208 798.567 34.816L799.463 35.292C799.314 35.628 799.085 35.9407 798.777 36.23C798.469 36.51 798.101 36.7387 797.671 36.916C797.251 37.084 796.785 37.168 796.271 37.168ZM807.278 37.168C806.54 37.168 805.892 36.9953 805.332 36.65C804.772 36.3047 804.333 35.838 804.016 35.25C803.698 34.6527 803.54 33.9807 803.54 33.234C803.54 32.4873 803.698 31.82 804.016 31.232C804.333 30.644 804.772 30.182 805.332 29.846C805.892 29.5007 806.54 29.328 807.278 29.328C807.744 29.328 808.183 29.412 808.594 29.58C809.004 29.748 809.368 29.9767 809.686 30.266C810.003 30.546 810.241 30.8727 810.4 31.246L809.448 31.736C809.261 31.3347 808.976 31.008 808.594 30.756C808.211 30.504 807.772 30.378 807.278 30.378C806.783 30.378 806.335 30.504 805.934 30.756C805.542 30.9987 805.229 31.3393 804.996 31.778C804.772 32.2073 804.66 32.6973 804.66 33.248C804.66 33.7893 804.772 34.2793 804.996 34.718C805.229 35.1473 805.542 35.488 805.934 35.74C806.335 35.992 806.783 36.118 807.278 36.118C807.772 36.118 808.206 35.992 808.58 35.74C808.962 35.488 809.252 35.152 809.448 34.732L810.4 35.25C810.241 35.614 810.003 35.9407 809.686 36.23C809.368 36.5193 809.004 36.748 808.594 36.916C808.183 37.084 807.744 37.168 807.278 37.168ZM815.756 37.168C815.047 37.168 814.403 37 813.824 36.664C813.245 36.3187 812.783 35.852 812.438 35.264C812.102 34.6667 811.934 33.99 811.934 33.234C811.934 32.4873 812.102 31.82 812.438 31.232C812.774 30.644 813.227 30.182 813.796 29.846C814.375 29.5007 815.028 29.328 815.756 29.328C816.484 29.328 817.133 29.496 817.702 29.832C818.281 30.168 818.733 30.63 819.06 31.218C819.396 31.806 819.564 32.478 819.564 33.234C819.564 33.9993 819.391 34.6807 819.046 35.278C818.701 35.866 818.239 36.328 817.66 36.664C817.091 37 816.456 37.168 815.756 37.168ZM815.756 36.118C816.26 36.118 816.713 35.992 817.114 35.74C817.525 35.488 817.847 35.1427 818.08 34.704C818.323 34.2653 818.444 33.7753 818.444 33.234C818.444 32.6927 818.323 32.2073 818.08 31.778C817.847 31.3487 817.525 31.008 817.114 30.756C816.713 30.504 816.26 30.378 815.756 30.378C815.252 30.378 814.795 30.504 814.384 30.756C813.983 31.008 813.661 31.3487 813.418 31.778C813.175 32.2073 813.054 32.6927 813.054 33.234C813.054 33.7753 813.175 34.2653 813.418 34.704C813.661 35.1427 813.983 35.488 814.384 35.74C814.795 35.992 815.252 36.118 815.756 36.118ZM824.02 37.168C823.301 37.168 822.671 36.986 822.13 36.622C821.589 36.258 821.197 35.7633 820.954 35.138L821.836 34.718C822.051 35.1753 822.349 35.5393 822.732 35.81C823.124 36.0807 823.553 36.216 824.02 36.216C824.468 36.216 824.846 36.1087 825.154 35.894C825.462 35.67 825.616 35.3807 825.616 35.026C825.616 34.7647 825.541 34.5593 825.392 34.41C825.243 34.2513 825.07 34.13 824.874 34.046C824.678 33.962 824.505 33.9013 824.356 33.864L823.278 33.556C822.587 33.36 822.088 33.0847 821.78 32.73C821.472 32.3753 821.318 31.9647 821.318 31.498C821.318 31.0593 821.43 30.6767 821.654 30.35C821.878 30.0233 822.181 29.7713 822.564 29.594C822.947 29.4167 823.371 29.328 823.838 29.328C824.473 29.328 825.047 29.496 825.56 29.832C826.083 30.1587 826.451 30.616 826.666 31.204L825.77 31.624C825.583 31.204 825.313 30.8773 824.958 30.644C824.613 30.4013 824.225 30.28 823.796 30.28C823.376 30.28 823.04 30.3873 822.788 30.602C822.536 30.8167 822.41 31.0873 822.41 31.414C822.41 31.666 822.475 31.8667 822.606 32.016C822.737 32.1653 822.886 32.2773 823.054 32.352C823.231 32.4267 823.385 32.4827 823.516 32.52L824.762 32.884C825.369 33.0613 825.84 33.3367 826.176 33.71C826.521 34.0833 826.694 34.522 826.694 35.026C826.694 35.4367 826.577 35.8053 826.344 36.132C826.12 36.4587 825.807 36.7153 825.406 36.902C825.005 37.0793 824.543 37.168 824.02 37.168ZM831.409 37.084C830.737 37.084 830.219 36.888 829.855 36.496C829.491 36.104 829.309 35.544 829.309 34.816V30.546H827.923V29.496H828.273C828.59 29.496 828.842 29.3933 829.029 29.188C829.216 28.9733 829.309 28.7073 829.309 28.39V27.76H830.359V29.496H832.011V30.546H830.359V34.816C830.359 35.068 830.396 35.292 830.471 35.488C830.546 35.6747 830.672 35.824 830.849 35.936C831.036 36.048 831.283 36.104 831.591 36.104C831.666 36.104 831.754 36.0993 831.857 36.09C831.96 36.0807 832.048 36.0713 832.123 36.062V37C832.011 37.028 831.885 37.0467 831.745 37.056C831.605 37.0747 831.493 37.084 831.409 37.084ZM839.86 37.168C839.15 37.168 838.506 37 837.928 36.664C837.349 36.3187 836.887 35.852 836.542 35.264C836.206 34.6667 836.038 33.99 836.038 33.234C836.038 32.4873 836.206 31.82 836.542 31.232C836.878 30.644 837.33 30.182 837.9 29.846C838.478 29.5007 839.132 29.328 839.86 29.328C840.588 29.328 841.236 29.496 841.806 29.832C842.384 30.168 842.837 30.63 843.164 31.218C843.5 31.806 843.668 32.478 843.668 33.234C843.668 33.9993 843.495 34.6807 843.15 35.278C842.804 35.866 842.342 36.328 841.764 36.664C841.194 37 840.56 37.168 839.86 37.168ZM839.86 36.118C840.364 36.118 840.816 35.992 841.218 35.74C841.628 35.488 841.95 35.1427 842.184 34.704C842.426 34.2653 842.548 33.7753 842.548 33.234C842.548 32.6927 842.426 32.2073 842.184 31.778C841.95 31.3487 841.628 31.008 841.218 30.756C840.816 30.504 840.364 30.378 839.86 30.378C839.356 30.378 838.898 30.504 838.488 30.756C838.086 31.008 837.764 31.3487 837.522 31.778C837.279 32.2073 837.158 32.6927 837.158 33.234C837.158 33.7753 837.279 34.2653 837.522 34.704C837.764 35.1427 838.086 35.488 838.488 35.74C838.898 35.992 839.356 36.118 839.86 36.118ZM846.016 37V30.546H844.518V29.496H846.016V28.824C846.016 28.3013 846.133 27.8627 846.366 27.508C846.599 27.144 846.907 26.8687 847.29 26.682C847.673 26.4953 848.083 26.402 848.522 26.402C848.615 26.402 848.723 26.4113 848.844 26.43C848.965 26.4393 849.063 26.4533 849.138 26.472V27.424C849.073 27.4053 848.984 27.396 848.872 27.396C848.76 27.3867 848.681 27.382 848.634 27.382C848.186 27.382 847.813 27.4893 847.514 27.704C847.215 27.9187 847.066 28.292 847.066 28.824V29.496H848.9V30.546H847.066V37H846.016ZM853.275 40.08C853.126 40.08 852.972 40.066 852.813 40.038C852.664 40.0193 852.514 39.982 852.365 39.926V38.946C852.458 38.9553 852.575 38.9693 852.715 38.988C852.864 39.016 853.014 39.03 853.163 39.03C853.62 39.03 853.97 38.932 854.213 38.736C854.456 38.5493 854.694 38.1853 854.927 37.644L855.403 36.524L855.375 37.448L852.197 29.496H853.331L855.935 36.062H855.641L858.231 29.496H859.393L855.963 37.952C855.814 38.316 855.622 38.6613 855.389 38.988C855.165 39.3147 854.88 39.576 854.535 39.772C854.19 39.9773 853.77 40.08 853.275 40.08ZM864.004 37.168C863.295 37.168 862.651 37 862.072 36.664C861.493 36.3187 861.031 35.852 860.686 35.264C860.35 34.6667 860.182 33.99 860.182 33.234C860.182 32.4873 860.35 31.82 860.686 31.232C861.022 30.644 861.475 30.182 862.044 29.846C862.623 29.5007 863.276 29.328 864.004 29.328C864.732 29.328 865.381 29.496 865.95 29.832C866.529 30.168 866.981 30.63 867.308 31.218C867.644 31.806 867.812 32.478 867.812 33.234C867.812 33.9993 867.639 34.6807 867.294 35.278C866.949 35.866 866.487 36.328 865.908 36.664C865.339 37 864.704 37.168 864.004 37.168ZM864.004 36.118C864.508 36.118 864.961 35.992 865.362 35.74C865.773 35.488 866.095 35.1427 866.328 34.704C866.571 34.2653 866.692 33.7753 866.692 33.234C866.692 32.6927 866.571 32.2073 866.328 31.778C866.095 31.3487 865.773 31.008 865.362 30.756C864.961 30.504 864.508 30.378 864.004 30.378C863.5 30.378 863.043 30.504 862.632 30.756C862.231 31.008 861.909 31.3487 861.666 31.778C861.423 32.2073 861.302 32.6927 861.302 33.234C861.302 33.7753 861.423 34.2653 861.666 34.704C861.909 35.1427 862.231 35.488 862.632 35.74C863.043 35.992 863.5 36.118 864.004 36.118ZM872.324 37.168C871.801 37.168 871.325 37.0467 870.896 36.804C870.467 36.552 870.126 36.2067 869.874 35.768C869.631 35.32 869.51 34.8067 869.51 34.228V29.496H870.56V34.102C870.56 34.5033 870.639 34.858 870.798 35.166C870.966 35.4647 871.195 35.698 871.484 35.866C871.783 36.034 872.123 36.118 872.506 36.118C872.889 36.118 873.229 36.034 873.528 35.866C873.827 35.6887 874.06 35.4413 874.228 35.124C874.396 34.7973 874.48 34.41 874.48 33.962V29.496H875.53V37H874.48V35.544L874.718 35.6C874.541 36.0853 874.237 36.468 873.808 36.748C873.379 37.028 872.884 37.168 872.324 37.168ZM877.689 37V29.496H878.739V30.728L878.599 30.546C878.777 30.1913 879.043 29.9113 879.397 29.706C879.761 29.5007 880.2 29.398 880.713 29.398H881.189V30.448H880.531C879.99 30.448 879.556 30.616 879.229 30.952C878.903 31.288 878.739 31.764 878.739 32.38V37H877.689ZM884.799 39.8V29.496H885.849V31.176L885.681 30.882C885.979 30.406 886.376 30.028 886.871 29.748C887.375 29.468 887.949 29.328 888.593 29.328C889.302 29.328 889.932 29.5007 890.483 29.846C891.043 30.182 891.481 30.644 891.799 31.232C892.125 31.82 892.289 32.492 892.289 33.248C892.289 33.9947 892.125 34.6667 891.799 35.264C891.481 35.852 891.043 36.3187 890.483 36.664C889.932 37 889.302 37.168 888.593 37.168C887.949 37.168 887.365 37.0233 886.843 36.734C886.329 36.4353 885.942 36.0153 885.681 35.474L885.849 35.32V39.8H884.799ZM888.537 36.118C889.041 36.118 889.489 35.992 889.881 35.74C890.282 35.488 890.595 35.1473 890.819 34.718C891.052 34.2793 891.169 33.7893 891.169 33.248C891.169 32.6973 891.052 32.2073 890.819 31.778C890.595 31.3487 890.282 31.008 889.881 30.756C889.489 30.504 889.041 30.378 888.537 30.378C888.033 30.378 887.575 30.504 887.165 30.756C886.763 31.008 886.441 31.3533 886.199 31.792C885.965 32.2213 885.849 32.7067 885.849 33.248C885.849 33.7893 885.965 34.2793 886.199 34.718C886.441 35.1473 886.763 35.488 887.165 35.74C887.575 35.992 888.033 36.118 888.537 36.118ZM896.797 37.168C896.274 37.168 895.798 37.0467 895.369 36.804C894.939 36.552 894.599 36.2067 894.347 35.768C894.104 35.32 893.983 34.8067 893.983 34.228V29.496H895.033V34.102C895.033 34.5033 895.112 34.858 895.271 35.166C895.439 35.4647 895.667 35.698 895.957 35.866C896.255 36.034 896.596 36.118 896.979 36.118C897.361 36.118 897.702 36.034 898.001 35.866C898.299 35.6887 898.533 35.4413 898.701 35.124C898.869 34.7973 898.953 34.41 898.953 33.962V29.496H900.003V37H898.953V35.544L899.191 35.6C899.013 36.0853 898.71 36.468 898.281 36.748C897.851 37.028 897.357 37.168 896.797 37.168ZM902.162 37V29.496H903.212V30.728L903.072 30.546C903.249 30.1913 903.515 29.9113 903.87 29.706C904.234 29.5007 904.673 29.398 905.186 29.398H905.662V30.448H905.004C904.463 30.448 904.029 30.616 903.702 30.952C903.375 31.288 903.212 31.764 903.212 32.38V37H902.162ZM910.322 37.168C909.585 37.168 908.936 36.9953 908.376 36.65C907.816 36.3047 907.378 35.838 907.06 35.25C906.743 34.6527 906.584 33.9807 906.584 33.234C906.584 32.4873 906.743 31.82 907.06 31.232C907.378 30.644 907.816 30.182 908.376 29.846C908.936 29.5007 909.585 29.328 910.322 29.328C910.789 29.328 911.228 29.412 911.638 29.58C912.049 29.748 912.413 29.9767 912.73 30.266C913.048 30.546 913.286 30.8727 913.444 31.246L912.492 31.736C912.306 31.3347 912.021 31.008 911.638 30.756C911.256 30.504 910.817 30.378 910.322 30.378C909.828 30.378 909.38 30.504 908.978 30.756C908.586 30.9987 908.274 31.3393 908.04 31.778C907.816 32.2073 907.704 32.6973 907.704 33.248C907.704 33.7893 907.816 34.2793 908.04 34.718C908.274 35.1473 908.586 35.488 908.978 35.74C909.38 35.992 909.828 36.118 910.322 36.118C910.817 36.118 911.251 35.992 911.624 35.74C912.007 35.488 912.296 35.152 912.492 34.732L913.444 35.25C913.286 35.614 913.048 35.9407 912.73 36.23C912.413 36.5193 912.049 36.748 911.638 36.916C911.228 37.084 910.789 37.168 910.322 37.168ZM915.287 37V26.402H916.337V30.952L916.099 30.896C916.286 30.4107 916.589 30.028 917.009 29.748C917.438 29.468 917.933 29.328 918.493 29.328C919.025 29.328 919.501 29.4493 919.921 29.692C920.35 29.9347 920.686 30.2707 920.929 30.7C921.181 31.12 921.307 31.596 921.307 32.128V37H920.257V32.534C920.257 32.0767 920.173 31.6893 920.005 31.372C919.837 31.0547 919.604 30.812 919.305 30.644C919.016 30.4667 918.684 30.378 918.311 30.378C917.938 30.378 917.602 30.4667 917.303 30.644C917.004 30.812 916.766 31.0593 916.589 31.386C916.421 31.7033 916.337 32.086 916.337 32.534V37H915.287ZM925.482 37.168C925.006 37.168 924.582 37.0793 924.208 36.902C923.835 36.7153 923.541 36.4633 923.326 36.146C923.112 35.8287 923.004 35.4647 923.004 35.054C923.004 34.662 923.088 34.3073 923.256 33.99C923.424 33.6633 923.686 33.388 924.04 33.164C924.395 32.94 924.848 32.7813 925.398 32.688L928.338 32.198V33.15L925.65 33.598C925.109 33.6913 924.717 33.864 924.474 34.116C924.241 34.368 924.124 34.6667 924.124 35.012C924.124 35.348 924.255 35.6327 924.516 35.866C924.787 36.0993 925.132 36.216 925.552 36.216C926.066 36.216 926.514 36.1087 926.896 35.894C927.279 35.67 927.578 35.3713 927.792 34.998C928.007 34.6247 928.114 34.2093 928.114 33.752V31.848C928.114 31.4 927.951 31.036 927.624 30.756C927.298 30.476 926.873 30.336 926.35 30.336C925.893 30.336 925.492 30.4527 925.146 30.686C924.801 30.91 924.544 31.204 924.376 31.568L923.424 31.05C923.564 30.7327 923.784 30.4433 924.082 30.182C924.39 29.9207 924.74 29.7153 925.132 29.566C925.524 29.4073 925.93 29.328 926.35 29.328C926.901 29.328 927.386 29.4353 927.806 29.65C928.236 29.8647 928.567 30.1633 928.8 30.546C929.043 30.9193 929.164 31.3533 929.164 31.848V37H928.114V35.502L928.268 35.656C928.138 35.936 927.932 36.1927 927.652 36.426C927.382 36.65 927.06 36.832 926.686 36.972C926.322 37.1027 925.921 37.168 925.482 37.168ZM933.928 37.168C933.209 37.168 932.579 36.986 932.038 36.622C931.497 36.258 931.105 35.7633 930.862 35.138L931.744 34.718C931.959 35.1753 932.257 35.5393 932.64 35.81C933.032 36.0807 933.461 36.216 933.928 36.216C934.376 36.216 934.754 36.1087 935.062 35.894C935.37 35.67 935.524 35.3807 935.524 35.026C935.524 34.7647 935.449 34.5593 935.3 34.41C935.151 34.2513 934.978 34.13 934.782 34.046C934.586 33.962 934.413 33.9013 934.264 33.864L933.186 33.556C932.495 33.36 931.996 33.0847 931.688 32.73C931.38 32.3753 931.226 31.9647 931.226 31.498C931.226 31.0593 931.338 30.6767 931.562 30.35C931.786 30.0233 932.089 29.7713 932.472 29.594C932.855 29.4167 933.279 29.328 933.746 29.328C934.381 29.328 934.955 29.496 935.468 29.832C935.991 30.1587 936.359 30.616 936.574 31.204L935.678 31.624C935.491 31.204 935.221 30.8773 934.866 30.644C934.521 30.4013 934.133 30.28 933.704 30.28C933.284 30.28 932.948 30.3873 932.696 30.602C932.444 30.8167 932.318 31.0873 932.318 31.414C932.318 31.666 932.383 31.8667 932.514 32.016C932.645 32.1653 932.794 32.2773 932.962 32.352C933.139 32.4267 933.293 32.4827 933.424 32.52L934.67 32.884C935.277 33.0613 935.748 33.3367 936.084 33.71C936.429 34.0833 936.602 34.522 936.602 35.026C936.602 35.4367 936.485 35.8053 936.252 36.132C936.028 36.4587 935.715 36.7153 935.314 36.902C934.913 37.0793 934.451 37.168 933.928 37.168ZM941.863 37.168C941.163 37.168 940.528 37 939.959 36.664C939.399 36.3187 938.956 35.8473 938.629 35.25C938.302 34.6527 938.139 33.976 938.139 33.22C938.139 32.464 938.298 31.7967 938.615 31.218C938.932 30.63 939.362 30.168 939.903 29.832C940.454 29.496 941.07 29.328 941.751 29.328C942.292 29.328 942.773 29.4307 943.193 29.636C943.622 29.832 943.986 30.1027 944.285 30.448C944.584 30.784 944.812 31.1667 944.971 31.596C945.13 32.016 945.209 32.45 945.209 32.898C945.209 32.9913 945.204 33.0987 945.195 33.22C945.186 33.332 945.172 33.4487 945.153 33.57H938.811V32.59H944.551L944.047 33.01C944.131 32.4967 944.07 32.0393 943.865 31.638C943.669 31.2273 943.384 30.9053 943.011 30.672C942.638 30.4293 942.218 30.308 941.751 30.308C941.284 30.308 940.85 30.4293 940.449 30.672C940.057 30.9147 939.749 31.2553 939.525 31.694C939.301 32.1233 939.212 32.6367 939.259 33.234C939.212 33.8313 939.306 34.354 939.539 34.802C939.782 35.2407 940.108 35.5813 940.519 35.824C940.939 36.0667 941.387 36.188 941.863 36.188C942.414 36.188 942.876 36.0573 943.249 35.796C943.622 35.5347 943.926 35.208 944.159 34.816L945.055 35.292C944.906 35.628 944.677 35.9407 944.369 36.23C944.061 36.51 943.692 36.7387 943.263 36.916C942.843 37.084 942.376 37.168 941.863 37.168ZM951.091 37L948.515 29.496H949.705L951.833 36.062H951.413L953.415 29.496H954.465L956.467 36.062H956.047L958.189 29.496H959.365L956.789 37H955.739L953.793 30.574H954.087L952.141 37H951.091ZM960.596 37V29.496H961.646V37H960.596ZM960.596 28.11V26.57H961.646V28.11H960.596ZM966.665 37.084C965.993 37.084 965.475 36.888 965.111 36.496C964.747 36.104 964.565 35.544 964.565 34.816V30.546H963.179V29.496H963.529C963.846 29.496 964.098 29.3933 964.285 29.188C964.471 28.9733 964.565 28.7073 964.565 28.39V27.76H965.615V29.496H967.267V30.546H965.615V34.816C965.615 35.068 965.652 35.292 965.727 35.488C965.801 35.6747 965.927 35.824 966.105 35.936C966.291 36.048 966.539 36.104 966.847 36.104C966.921 36.104 967.01 36.0993 967.113 36.09C967.215 36.0807 967.304 36.0713 967.379 36.062V37C967.267 37.028 967.141 37.0467 967.001 37.056C966.861 37.0747 966.749 37.084 966.665 37.084ZM969.223 37V26.402H970.273V30.952L970.035 30.896C970.221 30.4107 970.525 30.028 970.945 29.748C971.374 29.468 971.869 29.328 972.429 29.328C972.961 29.328 973.437 29.4493 973.857 29.692C974.286 29.9347 974.622 30.2707 974.865 30.7C975.117 31.12 975.243 31.596 975.243 32.128V37H974.193V32.534C974.193 32.0767 974.109 31.6893 973.941 31.372C973.773 31.0547 973.539 30.812 973.241 30.644C972.951 30.4667 972.62 30.378 972.247 30.378C971.873 30.378 971.537 30.4667 971.239 30.644C970.94 30.812 970.702 31.0593 970.525 31.386C970.357 31.7033 970.273 32.086 970.273 32.534V37H969.223ZM979.627 37V29.496H980.677V37H979.627ZM979.627 28.11V26.57H980.677V28.11H979.627ZM982.826 37V29.496H983.876V30.952L983.638 30.896C983.825 30.4107 984.128 30.028 984.548 29.748C984.977 29.468 985.472 29.328 986.032 29.328C986.564 29.328 987.04 29.4493 987.46 29.692C987.889 29.9347 988.225 30.2707 988.468 30.7C988.72 31.12 988.846 31.596 988.846 32.128V37H987.796V32.534C987.796 32.0767 987.712 31.6893 987.544 31.372C987.385 31.0547 987.157 30.812 986.858 30.644C986.569 30.4667 986.233 30.378 985.85 30.378C985.467 30.378 985.127 30.4667 984.828 30.644C984.529 30.812 984.296 31.0593 984.128 31.386C983.96 31.7033 983.876 32.086 983.876 32.534V37H982.826ZM993.721 37.084C993.049 37.084 992.531 36.888 992.167 36.496C991.803 36.104 991.621 35.544 991.621 34.816V30.546H990.235V29.496H990.585C990.903 29.496 991.155 29.3933 991.341 29.188C991.528 28.9733 991.621 28.7073 991.621 28.39V27.76H992.671V29.496H994.323V30.546H992.671V34.816C992.671 35.068 992.709 35.292 992.783 35.488C992.858 35.6747 992.984 35.824 993.161 35.936C993.348 36.048 993.595 36.104 993.903 36.104C993.978 36.104 994.067 36.0993 994.169 36.09C994.272 36.0807 994.361 36.0713 994.435 36.062V37C994.323 37.028 994.197 37.0467 994.057 37.056C993.917 37.0747 993.805 37.084 993.721 37.084ZM999.422 37.168C998.722 37.168 998.087 37 997.518 36.664C996.958 36.3187 996.514 35.8473 996.188 35.25C995.861 34.6527 995.698 33.976 995.698 33.22C995.698 32.464 995.856 31.7967 996.174 31.218C996.491 30.63 996.92 30.168 997.462 29.832C998.012 29.496 998.628 29.328 999.31 29.328C999.851 29.328 1000.33 29.4307 1000.75 29.636C1001.18 29.832 1001.55 30.1027 1001.84 30.448C1002.14 30.784 1002.37 31.1667 1002.53 31.596C1002.69 32.016 1002.77 32.45 1002.77 32.898C1002.77 32.9913 1002.76 33.0987 1002.75 33.22C1002.74 33.332 1002.73 33.4487 1002.71 33.57H996.37V32.59H1002.11L1001.61 33.01C1001.69 32.4967 1001.63 32.0393 1001.42 31.638C1001.23 31.2273 1000.94 30.9053 1000.57 30.672C1000.2 30.4293 999.776 30.308 999.31 30.308C998.843 30.308 998.409 30.4293 998.008 30.672C997.616 30.9147 997.308 31.2553 997.084 31.694C996.86 32.1233 996.771 32.6367 996.818 33.234C996.771 33.8313 996.864 34.354 997.098 34.802C997.34 35.2407 997.667 35.5813 998.078 35.824C998.498 36.0667 998.946 36.188 999.422 36.188C999.972 36.188 1000.43 36.0573 1000.81 35.796C1001.18 35.5347 1001.48 35.208 1001.72 34.816L1002.61 35.292C1002.46 35.628 1002.24 35.9407 1001.93 36.23C1001.62 36.51 1001.25 36.7387 1000.82 36.916C1000.4 37.084 999.935 37.168 999.422 37.168ZM1004.62 37V29.496H1005.67V30.728L1005.53 30.546C1005.71 30.1913 1005.97 29.9113 1006.33 29.706C1006.69 29.5007 1007.13 29.398 1007.64 29.398H1008.12V30.448H1007.46C1006.92 30.448 1006.49 30.616 1006.16 30.952C1005.83 31.288 1005.67 31.764 1005.67 32.38V37H1004.62ZM1012.77 37.168C1012.07 37.168 1011.43 37 1010.86 36.664C1010.3 36.3187 1009.86 35.8473 1009.53 35.25C1009.2 34.6527 1009.04 33.976 1009.04 33.22C1009.04 32.464 1009.2 31.7967 1009.52 31.218C1009.83 30.63 1010.26 30.168 1010.81 29.832C1011.36 29.496 1011.97 29.328 1012.65 29.328C1013.19 29.328 1013.68 29.4307 1014.1 29.636C1014.52 29.832 1014.89 30.1027 1015.19 30.448C1015.49 30.784 1015.71 31.1667 1015.87 31.596C1016.03 32.016 1016.11 32.45 1016.11 32.898C1016.11 32.9913 1016.11 33.0987 1016.1 33.22C1016.09 33.332 1016.07 33.4487 1016.06 33.57H1009.71V32.59H1015.45L1014.95 33.01C1015.03 32.4967 1014.97 32.0393 1014.77 31.638C1014.57 31.2273 1014.29 30.9053 1013.91 30.672C1013.54 30.4293 1013.12 30.308 1012.65 30.308C1012.19 30.308 1011.75 30.4293 1011.35 30.672C1010.96 30.9147 1010.65 31.2553 1010.43 31.694C1010.2 32.1233 1010.11 32.6367 1010.16 33.234C1010.11 33.8313 1010.21 34.354 1010.44 34.802C1010.68 35.2407 1011.01 35.5813 1011.42 35.824C1011.84 36.0667 1012.29 36.188 1012.77 36.188C1013.32 36.188 1013.78 36.0573 1014.15 35.796C1014.52 35.5347 1014.83 35.208 1015.06 34.816L1015.96 35.292C1015.81 35.628 1015.58 35.9407 1015.27 36.23C1014.96 36.51 1014.59 36.7387 1014.17 36.916C1013.75 37.084 1013.28 37.168 1012.77 37.168ZM1020.57 37.168C1019.85 37.168 1019.22 36.986 1018.68 36.622C1018.14 36.258 1017.74 35.7633 1017.5 35.138L1018.38 34.718C1018.6 35.1753 1018.9 35.5393 1019.28 35.81C1019.67 36.0807 1020.1 36.216 1020.57 36.216C1021.01 36.216 1021.39 36.1087 1021.7 35.894C1022.01 35.67 1022.16 35.3807 1022.16 35.026C1022.16 34.7647 1022.09 34.5593 1021.94 34.41C1021.79 34.2513 1021.62 34.13 1021.42 34.046C1021.22 33.962 1021.05 33.9013 1020.9 33.864L1019.82 33.556C1019.13 33.36 1018.63 33.0847 1018.33 32.73C1018.02 32.3753 1017.86 31.9647 1017.86 31.498C1017.86 31.0593 1017.98 30.6767 1018.2 30.35C1018.42 30.0233 1018.73 29.7713 1019.11 29.594C1019.49 29.4167 1019.92 29.328 1020.38 29.328C1021.02 29.328 1021.59 29.496 1022.11 29.832C1022.63 30.1587 1023 30.616 1023.21 31.204L1022.32 31.624C1022.13 31.204 1021.86 30.8773 1021.5 30.644C1021.16 30.4013 1020.77 30.28 1020.34 30.28C1019.92 30.28 1019.59 30.3873 1019.33 30.602C1019.08 30.8167 1018.96 31.0873 1018.96 31.414C1018.96 31.666 1019.02 31.8667 1019.15 32.016C1019.28 32.1653 1019.43 32.2773 1019.6 32.352C1019.78 32.4267 1019.93 32.4827 1020.06 32.52L1021.31 32.884C1021.92 33.0613 1022.39 33.3367 1022.72 33.71C1023.07 34.0833 1023.24 34.522 1023.24 35.026C1023.24 35.4367 1023.12 35.8053 1022.89 36.132C1022.67 36.4587 1022.35 36.7153 1021.95 36.902C1021.55 37.0793 1021.09 37.168 1020.57 37.168ZM1027.96 37.084C1027.28 37.084 1026.77 36.888 1026.4 36.496C1026.04 36.104 1025.86 35.544 1025.86 34.816V30.546H1024.47V29.496H1024.82C1025.14 29.496 1025.39 29.3933 1025.58 29.188C1025.76 28.9733 1025.86 28.7073 1025.86 28.39V27.76H1026.91V29.496H1028.56V30.546H1026.91V34.816C1026.91 35.068 1026.94 35.292 1027.02 35.488C1027.09 35.6747 1027.22 35.824 1027.4 35.936C1027.58 36.048 1027.83 36.104 1028.14 36.104C1028.21 36.104 1028.3 36.0993 1028.4 36.09C1028.51 36.0807 1028.6 36.0713 1028.67 36.062V37C1028.56 37.028 1028.43 37.0467 1028.29 37.056C1028.15 37.0747 1028.04 37.084 1027.96 37.084ZM1030.47 33.738V32.758H1035.37V33.738H1030.47ZM1038.26 37V30.546H1036.76V29.496H1038.26V28.824C1038.26 28.3013 1038.37 27.8627 1038.61 27.508C1038.84 27.144 1039.15 26.8687 1039.53 26.682C1039.91 26.4953 1040.32 26.402 1040.76 26.402C1040.86 26.402 1040.96 26.4113 1041.08 26.43C1041.21 26.4393 1041.3 26.4533 1041.38 26.472V27.424C1041.31 27.4053 1041.22 27.396 1041.11 27.396C1041 27.3867 1040.92 27.382 1040.87 27.382C1040.43 27.382 1040.05 27.4893 1039.75 27.704C1039.46 27.9187 1039.31 28.292 1039.31 28.824V29.496H1041.14V30.546H1039.31V37H1038.26ZM1042.85 37V29.496H1043.9V30.728L1043.76 30.546C1043.93 30.1913 1044.2 29.9113 1044.55 29.706C1044.92 29.5007 1045.36 29.398 1045.87 29.398H1046.35V30.448H1045.69C1045.15 30.448 1044.71 30.616 1044.39 30.952C1044.06 31.288 1043.9 31.764 1043.9 32.38V37H1042.85ZM1050.99 37.168C1050.29 37.168 1049.66 37 1049.09 36.664C1048.53 36.3187 1048.08 35.8473 1047.76 35.25C1047.43 34.6527 1047.27 33.976 1047.27 33.22C1047.27 32.464 1047.43 31.7967 1047.74 31.218C1048.06 30.63 1048.49 30.168 1049.03 29.832C1049.58 29.496 1050.2 29.328 1050.88 29.328C1051.42 29.328 1051.9 29.4307 1052.32 29.636C1052.75 29.832 1053.12 30.1027 1053.41 30.448C1053.71 30.784 1053.94 31.1667 1054.1 31.596C1054.26 32.016 1054.34 32.45 1054.34 32.898C1054.34 32.9913 1054.33 33.0987 1054.32 33.22C1054.31 33.332 1054.3 33.4487 1054.28 33.57H1047.94V32.59H1053.68L1053.18 33.01C1053.26 32.4967 1053.2 32.0393 1052.99 31.638C1052.8 31.2273 1052.51 30.9053 1052.14 30.672C1051.77 30.4293 1051.35 30.308 1050.88 30.308C1050.41 30.308 1049.98 30.4293 1049.58 30.672C1049.19 30.9147 1048.88 31.2553 1048.65 31.694C1048.43 32.1233 1048.34 32.6367 1048.39 33.234C1048.34 33.8313 1048.43 34.354 1048.67 34.802C1048.91 35.2407 1049.24 35.5813 1049.65 35.824C1050.07 36.0667 1050.52 36.188 1050.99 36.188C1051.54 36.188 1052 36.0573 1052.38 35.796C1052.75 35.5347 1053.05 35.208 1053.29 34.816L1054.18 35.292C1054.03 35.628 1053.81 35.9407 1053.5 36.23C1053.19 36.51 1052.82 36.7387 1052.39 36.916C1051.97 37.084 1051.51 37.168 1050.99 37.168ZM1059.61 37.168C1058.91 37.168 1058.27 37 1057.7 36.664C1057.14 36.3187 1056.7 35.8473 1056.37 35.25C1056.04 34.6527 1055.88 33.976 1055.88 33.22C1055.88 32.464 1056.04 31.7967 1056.36 31.218C1056.67 30.63 1057.1 30.168 1057.65 29.832C1058.2 29.496 1058.81 29.328 1059.49 29.328C1060.03 29.328 1060.52 29.4307 1060.94 29.636C1061.36 29.832 1061.73 30.1027 1062.03 30.448C1062.33 30.784 1062.55 31.1667 1062.71 31.596C1062.87 32.016 1062.95 32.45 1062.95 32.898C1062.95 32.9913 1062.95 33.0987 1062.94 33.22C1062.93 33.332 1062.91 33.4487 1062.9 33.57H1056.55V32.59H1062.29L1061.79 33.01C1061.87 32.4967 1061.81 32.0393 1061.61 31.638C1061.41 31.2273 1061.13 30.9053 1060.75 30.672C1060.38 30.4293 1059.96 30.308 1059.49 30.308C1059.03 30.308 1058.59 30.4293 1058.19 30.672C1057.8 30.9147 1057.49 31.2553 1057.27 31.694C1057.04 32.1233 1056.95 32.6367 1057 33.234C1056.95 33.8313 1057.05 34.354 1057.28 34.802C1057.52 35.2407 1057.85 35.5813 1058.26 35.824C1058.68 36.0667 1059.13 36.188 1059.61 36.188C1060.16 36.188 1060.62 36.0573 1060.99 35.796C1061.36 35.5347 1061.67 35.208 1061.9 34.816L1062.8 35.292C1062.65 35.628 1062.42 35.9407 1062.11 36.23C1061.8 36.51 1061.43 36.7387 1061.01 36.916C1060.59 37.084 1060.12 37.168 1059.61 37.168ZM1067.18 37V29.496H1068.23V37H1067.18ZM1067.18 28.11V26.57H1068.23V28.11H1067.18ZM1070.38 37V29.496H1071.43V30.952L1071.19 30.896C1071.38 30.4107 1071.68 30.028 1072.1 29.748C1072.53 29.468 1073.03 29.328 1073.59 29.328C1074.12 29.328 1074.59 29.4493 1075.01 29.692C1075.44 29.9347 1075.78 30.2707 1076.02 30.7C1076.27 31.12 1076.4 31.596 1076.4 32.128V37H1075.35V32.534C1075.35 32.0767 1075.27 31.6893 1075.1 31.372C1074.94 31.0547 1074.71 30.812 1074.41 30.644C1074.12 30.4667 1073.79 30.378 1073.4 30.378C1073.02 30.378 1072.68 30.4667 1072.38 30.644C1072.08 30.812 1071.85 31.0593 1071.68 31.386C1071.51 31.7033 1071.43 32.086 1071.43 32.534V37H1070.38ZM1081.01 37.168C1080.29 37.168 1079.66 36.986 1079.12 36.622C1078.58 36.258 1078.19 35.7633 1077.94 35.138L1078.83 34.718C1079.04 35.1753 1079.34 35.5393 1079.72 35.81C1080.11 36.0807 1080.54 36.216 1081.01 36.216C1081.46 36.216 1081.84 36.1087 1082.14 35.894C1082.45 35.67 1082.61 35.3807 1082.61 35.026C1082.61 34.7647 1082.53 34.5593 1082.38 34.41C1082.23 34.2513 1082.06 34.13 1081.86 34.046C1081.67 33.962 1081.5 33.9013 1081.35 33.864L1080.27 33.556C1079.58 33.36 1079.08 33.0847 1078.77 32.73C1078.46 32.3753 1078.31 31.9647 1078.31 31.498C1078.31 31.0593 1078.42 30.6767 1078.64 30.35C1078.87 30.0233 1079.17 29.7713 1079.55 29.594C1079.94 29.4167 1080.36 29.328 1080.83 29.328C1081.46 29.328 1082.04 29.496 1082.55 29.832C1083.07 30.1587 1083.44 30.616 1083.66 31.204L1082.76 31.624C1082.57 31.204 1082.3 30.8773 1081.95 30.644C1081.6 30.4013 1081.22 30.28 1080.79 30.28C1080.37 30.28 1080.03 30.3873 1079.78 30.602C1079.53 30.8167 1079.4 31.0873 1079.4 31.414C1079.4 31.666 1079.47 31.8667 1079.6 32.016C1079.73 32.1653 1079.88 32.2773 1080.04 32.352C1080.22 32.4267 1080.38 32.4827 1080.51 32.52L1081.75 32.884C1082.36 33.0613 1082.83 33.3367 1083.17 33.71C1083.51 34.0833 1083.68 34.522 1083.68 35.026C1083.68 35.4367 1083.57 35.8053 1083.33 36.132C1083.11 36.4587 1082.8 36.7153 1082.4 36.902C1081.99 37.0793 1081.53 37.168 1081.01 37.168ZM1088.4 37.084C1087.73 37.084 1087.21 36.888 1086.85 36.496C1086.48 36.104 1086.3 35.544 1086.3 34.816V30.546H1084.91V29.496H1085.26C1085.58 29.496 1085.83 29.3933 1086.02 29.188C1086.21 28.9733 1086.3 28.7073 1086.3 28.39V27.76H1087.35V29.496H1089V30.546H1087.35V34.816C1087.35 35.068 1087.39 35.292 1087.46 35.488C1087.54 35.6747 1087.66 35.824 1087.84 35.936C1088.03 36.048 1088.27 36.104 1088.58 36.104C1088.66 36.104 1088.74 36.0993 1088.85 36.09C1088.95 36.0807 1089.04 36.0713 1089.11 36.062V37C1089 37.028 1088.88 37.0467 1088.74 37.056C1088.6 37.0747 1088.48 37.084 1088.4 37.084ZM1092.99 37.168C1092.51 37.168 1092.09 37.0793 1091.72 36.902C1091.34 36.7153 1091.05 36.4633 1090.83 36.146C1090.62 35.8287 1090.51 35.4647 1090.51 35.054C1090.51 34.662 1090.6 34.3073 1090.76 33.99C1090.93 33.6633 1091.19 33.388 1091.55 33.164C1091.9 32.94 1092.36 32.7813 1092.91 32.688L1095.85 32.198V33.15L1093.16 33.598C1092.62 33.6913 1092.22 33.864 1091.98 34.116C1091.75 34.368 1091.63 34.6667 1091.63 35.012C1091.63 35.348 1091.76 35.6327 1092.02 35.866C1092.29 36.0993 1092.64 36.216 1093.06 36.216C1093.57 36.216 1094.02 36.1087 1094.4 35.894C1094.79 35.67 1095.09 35.3713 1095.3 34.998C1095.51 34.6247 1095.62 34.2093 1095.62 33.752V31.848C1095.62 31.4 1095.46 31.036 1095.13 30.756C1094.81 30.476 1094.38 30.336 1093.86 30.336C1093.4 30.336 1093 30.4527 1092.65 30.686C1092.31 30.91 1092.05 31.204 1091.88 31.568L1090.93 31.05C1091.07 30.7327 1091.29 30.4433 1091.59 30.182C1091.9 29.9207 1092.25 29.7153 1092.64 29.566C1093.03 29.4073 1093.44 29.328 1093.86 29.328C1094.41 29.328 1094.89 29.4353 1095.31 29.65C1095.74 29.8647 1096.07 30.1633 1096.31 30.546C1096.55 30.9193 1096.67 31.3533 1096.67 31.848V37H1095.62V35.502L1095.78 35.656C1095.65 35.936 1095.44 36.1927 1095.16 36.426C1094.89 36.65 1094.57 36.832 1094.19 36.972C1093.83 37.1027 1093.43 37.168 1092.99 37.168ZM1098.83 37V26.402H1099.88V37H1098.83ZM1102.03 37V29.496H1103.08V30.924L1102.91 30.714C1103.12 30.2753 1103.42 29.9347 1103.82 29.692C1104.23 29.4493 1104.68 29.328 1105.17 29.328C1105.75 29.328 1106.27 29.4913 1106.74 29.818C1107.2 30.1447 1107.53 30.5693 1107.73 31.092L1107.44 31.106C1107.62 30.5273 1107.94 30.0887 1108.4 29.79C1108.87 29.482 1109.38 29.328 1109.94 29.328C1110.45 29.328 1110.91 29.4493 1111.33 29.692C1111.76 29.9347 1112.1 30.2707 1112.35 30.7C1112.61 31.12 1112.74 31.596 1112.74 32.128V37H1111.69V32.534C1111.69 32.0767 1111.61 31.6893 1111.44 31.372C1111.28 31.0547 1111.06 30.812 1110.78 30.644C1110.5 30.4667 1110.18 30.378 1109.82 30.378C1109.46 30.378 1109.14 30.4667 1108.85 30.644C1108.56 30.812 1108.33 31.0593 1108.16 31.386C1108 31.7033 1107.91 32.086 1107.91 32.534V37H1106.86V32.534C1106.86 32.0767 1106.78 31.6893 1106.61 31.372C1106.45 31.0547 1106.23 30.812 1105.95 30.644C1105.67 30.4667 1105.35 30.378 1104.99 30.378C1104.62 30.378 1104.29 30.4667 1104.01 30.644C1103.73 30.812 1103.5 31.0593 1103.33 31.386C1103.17 31.7033 1103.08 32.086 1103.08 32.534V37H1102.03ZM1118.16 37.168C1117.46 37.168 1116.83 37 1116.26 36.664C1115.7 36.3187 1115.25 35.8473 1114.93 35.25C1114.6 34.6527 1114.44 33.976 1114.44 33.22C1114.44 32.464 1114.6 31.7967 1114.91 31.218C1115.23 30.63 1115.66 30.168 1116.2 29.832C1116.75 29.496 1117.37 29.328 1118.05 29.328C1118.59 29.328 1119.07 29.4307 1119.49 29.636C1119.92 29.832 1120.29 30.1027 1120.58 30.448C1120.88 30.784 1121.11 31.1667 1121.27 31.596C1121.43 32.016 1121.51 32.45 1121.51 32.898C1121.51 32.9913 1121.5 33.0987 1121.49 33.22C1121.48 33.332 1121.47 33.4487 1121.45 33.57H1115.11V32.59H1120.85L1120.35 33.01C1120.43 32.4967 1120.37 32.0393 1120.16 31.638C1119.97 31.2273 1119.68 30.9053 1119.31 30.672C1118.94 30.4293 1118.52 30.308 1118.05 30.308C1117.58 30.308 1117.15 30.4293 1116.75 30.672C1116.36 30.9147 1116.05 31.2553 1115.82 31.694C1115.6 32.1233 1115.51 32.6367 1115.56 33.234C1115.51 33.8313 1115.6 34.354 1115.84 34.802C1116.08 35.2407 1116.41 35.5813 1116.82 35.824C1117.24 36.0667 1117.69 36.188 1118.16 36.188C1118.71 36.188 1119.17 36.0573 1119.55 35.796C1119.92 35.5347 1120.22 35.208 1120.46 34.816L1121.35 35.292C1121.2 35.628 1120.98 35.9407 1120.67 36.23C1120.36 36.51 1119.99 36.7387 1119.56 36.916C1119.14 37.084 1118.68 37.168 1118.16 37.168ZM1123.36 37V29.496H1124.41V30.952L1124.17 30.896C1124.36 30.4107 1124.66 30.028 1125.08 29.748C1125.51 29.468 1126.01 29.328 1126.57 29.328C1127.1 29.328 1127.57 29.4493 1127.99 29.692C1128.42 29.9347 1128.76 30.2707 1129 30.7C1129.25 31.12 1129.38 31.596 1129.38 32.128V37H1128.33V32.534C1128.33 32.0767 1128.25 31.6893 1128.08 31.372C1127.92 31.0547 1127.69 30.812 1127.39 30.644C1127.1 30.4667 1126.77 30.378 1126.38 30.378C1126 30.378 1125.66 30.4667 1125.36 30.644C1125.06 30.812 1124.83 31.0593 1124.66 31.386C1124.49 31.7033 1124.41 32.086 1124.41 32.534V37H1123.36ZM1134.25 37.084C1133.58 37.084 1133.06 36.888 1132.7 36.496C1132.34 36.104 1132.15 35.544 1132.15 34.816V30.546H1130.77V29.496H1131.12C1131.44 29.496 1131.69 29.3933 1131.87 29.188C1132.06 28.9733 1132.15 28.7073 1132.15 28.39V27.76H1133.2V29.496H1134.86V30.546H1133.2V34.816C1133.2 35.068 1133.24 35.292 1133.32 35.488C1133.39 35.6747 1133.52 35.824 1133.69 35.936C1133.88 36.048 1134.13 36.104 1134.44 36.104C1134.51 36.104 1134.6 36.0993 1134.7 36.09C1134.81 36.0807 1134.89 36.0713 1134.97 36.062V37C1134.86 37.028 1134.73 37.0467 1134.59 37.056C1134.45 37.0747 1134.34 37.084 1134.25 37.084ZM1139.42 37.168C1138.7 37.168 1138.07 36.986 1137.53 36.622C1136.99 36.258 1136.59 35.7633 1136.35 35.138L1137.23 34.718C1137.45 35.1753 1137.75 35.5393 1138.13 35.81C1138.52 36.0807 1138.95 36.216 1139.42 36.216C1139.86 36.216 1140.24 36.1087 1140.55 35.894C1140.86 35.67 1141.01 35.3807 1141.01 35.026C1141.01 34.7647 1140.94 34.5593 1140.79 34.41C1140.64 34.2513 1140.47 34.13 1140.27 34.046C1140.07 33.962 1139.9 33.9013 1139.75 33.864L1138.67 33.556C1137.98 33.36 1137.48 33.0847 1137.18 32.73C1136.87 32.3753 1136.71 31.9647 1136.71 31.498C1136.71 31.0593 1136.83 30.6767 1137.05 30.35C1137.27 30.0233 1137.58 29.7713 1137.96 29.594C1138.34 29.4167 1138.77 29.328 1139.23 29.328C1139.87 29.328 1140.44 29.496 1140.96 29.832C1141.48 30.1587 1141.85 30.616 1142.06 31.204L1141.17 31.624C1140.98 31.204 1140.71 30.8773 1140.35 30.644C1140.01 30.4013 1139.62 30.28 1139.19 30.28C1138.77 30.28 1138.44 30.3873 1138.18 30.602C1137.93 30.8167 1137.81 31.0873 1137.81 31.414C1137.81 31.666 1137.87 31.8667 1138 32.016C1138.13 32.1653 1138.28 32.2773 1138.45 32.352C1138.63 32.4267 1138.78 32.4827 1138.91 32.52L1140.16 32.884C1140.77 33.0613 1141.24 33.3367 1141.57 33.71C1141.92 34.0833 1142.09 34.522 1142.09 35.026C1142.09 35.4367 1141.97 35.8053 1141.74 36.132C1141.52 36.4587 1141.2 36.7153 1140.8 36.902C1140.4 37.0793 1139.94 37.168 1139.42 37.168Z" fill="#1D1F1E"/>
<path d="M728.078 61V50.57H729.73V59.53H734.238V61H728.078ZM739.027 61.168C738.271 61.168 737.599 60.9953 737.011 60.65C736.432 60.2953 735.98 59.8193 735.653 59.222C735.326 58.6153 735.163 57.9387 735.163 57.192C735.163 56.4267 735.326 55.75 735.653 55.162C735.989 54.574 736.437 54.112 736.997 53.776C737.557 53.4307 738.192 53.258 738.901 53.258C739.47 53.258 739.979 53.356 740.427 53.552C740.875 53.748 741.253 54.0187 741.561 54.364C741.869 54.7 742.102 55.0873 742.261 55.526C742.429 55.9647 742.513 56.4313 742.513 56.926C742.513 57.0473 742.508 57.1733 742.499 57.304C742.49 57.4347 742.471 57.556 742.443 57.668H736.409V56.408H741.547L740.791 56.982C740.884 56.5247 740.852 56.1187 740.693 55.764C740.544 55.4 740.31 55.1153 739.993 54.91C739.685 54.6953 739.321 54.588 738.901 54.588C738.481 54.588 738.108 54.6953 737.781 54.91C737.454 55.1153 737.202 55.414 737.025 55.806C736.848 56.1887 736.778 56.6553 736.815 57.206C736.768 57.7193 736.838 58.1673 737.025 58.55C737.221 58.9327 737.492 59.2313 737.837 59.446C738.192 59.6607 738.593 59.768 739.041 59.768C739.498 59.768 739.886 59.6653 740.203 59.46C740.53 59.2547 740.786 58.9887 740.973 58.662L742.261 59.292C742.112 59.6467 741.878 59.9687 741.561 60.258C741.253 60.538 740.88 60.762 740.441 60.93C740.012 61.0887 739.54 61.168 739.027 61.168ZM746.256 61.168C745.743 61.168 745.29 61.0793 744.898 60.902C744.516 60.7153 744.217 60.4633 744.002 60.146C743.788 59.8193 743.68 59.4367 743.68 58.998C743.68 58.5873 743.769 58.2187 743.946 57.892C744.133 57.5653 744.418 57.29 744.8 57.066C745.183 56.842 745.664 56.6833 746.242 56.59L748.874 56.156V57.402L746.55 57.808C746.13 57.8827 745.822 58.018 745.626 58.214C745.43 58.4007 745.332 58.6433 745.332 58.942C745.332 59.2313 745.44 59.4693 745.654 59.656C745.878 59.8333 746.163 59.922 746.508 59.922C746.938 59.922 747.311 59.8287 747.628 59.642C747.955 59.4553 748.207 59.208 748.384 58.9C748.562 58.5827 748.65 58.2327 748.65 57.85V55.904C748.65 55.5307 748.51 55.2273 748.23 54.994C747.96 54.7513 747.596 54.63 747.138 54.63C746.718 54.63 746.35 54.742 746.032 54.966C745.724 55.1807 745.496 55.4607 745.346 55.806L744.03 55.148C744.17 54.7747 744.399 54.448 744.716 54.168C745.034 53.8787 745.402 53.6547 745.822 53.496C746.252 53.3373 746.704 53.258 747.18 53.258C747.778 53.258 748.305 53.37 748.762 53.594C749.229 53.818 749.588 54.1307 749.84 54.532C750.102 54.924 750.232 55.3813 750.232 55.904V61H748.72V59.628L749.042 59.67C748.865 59.978 748.636 60.244 748.356 60.468C748.086 60.692 747.773 60.8647 747.418 60.986C747.073 61.1073 746.686 61.168 746.256 61.168ZM752.082 61V53.426H753.594V54.952L753.454 54.728C753.622 54.2333 753.893 53.8787 754.266 53.664C754.64 53.44 755.088 53.328 755.61 53.328H756.072V54.77H755.414C754.892 54.77 754.467 54.9333 754.14 55.26C753.823 55.5773 753.664 56.0347 753.664 56.632V61H752.082ZM757.154 61V53.426H758.666V54.91L758.484 54.714C758.671 54.238 758.97 53.8787 759.38 53.636C759.791 53.384 760.267 53.258 760.808 53.258C761.368 53.258 761.863 53.3793 762.292 53.622C762.722 53.8647 763.058 54.2007 763.3 54.63C763.543 55.0593 763.664 55.554 763.664 56.114V61H762.096V56.534C762.096 56.1513 762.026 55.8293 761.886 55.568C761.746 55.2973 761.546 55.092 761.284 54.952C761.032 54.8027 760.743 54.728 760.416 54.728C760.09 54.728 759.796 54.8027 759.534 54.952C759.282 55.092 759.086 55.2973 758.946 55.568C758.806 55.8387 758.736 56.1607 758.736 56.534V61H757.154ZM767.805 61V53.426H769.317V55.064L769.121 54.812C769.28 54.2987 769.569 53.9113 769.989 53.65C770.409 53.3887 770.89 53.258 771.431 53.258C772.038 53.258 772.574 53.4213 773.041 53.748C773.517 54.0653 773.834 54.49 773.993 55.022L773.545 55.064C773.769 54.4573 774.11 54.0047 774.567 53.706C775.034 53.4073 775.566 53.258 776.163 53.258C776.686 53.258 777.157 53.3793 777.577 53.622C778.006 53.8647 778.347 54.2007 778.599 54.63C778.851 55.0593 778.977 55.5493 778.977 56.1V61H777.395V56.534C777.395 56.1513 777.325 55.8293 777.185 55.568C777.054 55.2973 776.868 55.092 776.625 54.952C776.392 54.8027 776.116 54.728 775.799 54.728C775.482 54.728 775.202 54.8027 774.959 54.952C774.716 55.092 774.525 55.2973 774.385 55.568C774.245 55.8387 774.175 56.1607 774.175 56.534V61H772.607V56.534C772.607 56.1513 772.537 55.8293 772.397 55.568C772.266 55.2973 772.08 55.092 771.837 54.952C771.604 54.8027 771.324 54.728 770.997 54.728C770.68 54.728 770.4 54.8027 770.157 54.952C769.914 55.092 769.723 55.2973 769.583 55.568C769.452 55.8387 769.387 56.1607 769.387 56.534V61H767.805ZM784.324 61.168C783.596 61.168 782.929 60.9953 782.322 60.65C781.725 60.3047 781.249 59.8333 780.894 59.236C780.539 58.6387 780.362 57.962 780.362 57.206C780.362 56.4407 780.539 55.764 780.894 55.176C781.249 54.5787 781.725 54.112 782.322 53.776C782.919 53.4307 783.587 53.258 784.324 53.258C785.071 53.258 785.738 53.4307 786.326 53.776C786.923 54.112 787.395 54.5787 787.74 55.176C788.095 55.764 788.272 56.4407 788.272 57.206C788.272 57.9713 788.095 58.6527 787.74 59.25C787.385 59.8473 786.909 60.3187 786.312 60.664C785.715 61 785.052 61.168 784.324 61.168ZM784.324 59.698C784.772 59.698 785.169 59.5907 785.514 59.376C785.859 59.1613 786.13 58.8673 786.326 58.494C786.531 58.1113 786.634 57.682 786.634 57.206C786.634 56.73 786.531 56.3053 786.326 55.932C786.13 55.5587 785.859 55.2647 785.514 55.05C785.169 54.8353 784.772 54.728 784.324 54.728C783.885 54.728 783.489 54.8353 783.134 55.05C782.789 55.2647 782.513 55.5587 782.308 55.932C782.112 56.3053 782.014 56.73 782.014 57.206C782.014 57.682 782.112 58.1113 782.308 58.494C782.513 58.8673 782.789 59.1613 783.134 59.376C783.489 59.5907 783.885 59.698 784.324 59.698ZM789.817 61V53.426H791.329V54.952L791.189 54.728C791.357 54.2333 791.627 53.8787 792.001 53.664C792.374 53.44 792.822 53.328 793.345 53.328H793.807V54.77H793.149C792.626 54.77 792.201 54.9333 791.875 55.26C791.557 55.5773 791.399 56.0347 791.399 56.632V61H789.817ZM798.445 61.168C797.689 61.168 797.017 60.9953 796.429 60.65C795.85 60.2953 795.398 59.8193 795.071 59.222C794.744 58.6153 794.581 57.9387 794.581 57.192C794.581 56.4267 794.744 55.75 795.071 55.162C795.407 54.574 795.855 54.112 796.415 53.776C796.975 53.4307 797.61 53.258 798.319 53.258C798.888 53.258 799.397 53.356 799.845 53.552C800.293 53.748 800.671 54.0187 800.979 54.364C801.287 54.7 801.52 55.0873 801.679 55.526C801.847 55.9647 801.931 56.4313 801.931 56.926C801.931 57.0473 801.926 57.1733 801.917 57.304C801.908 57.4347 801.889 57.556 801.861 57.668H795.827V56.408H800.965L800.209 56.982C800.302 56.5247 800.27 56.1187 800.111 55.764C799.962 55.4 799.728 55.1153 799.411 54.91C799.103 54.6953 798.739 54.588 798.319 54.588C797.899 54.588 797.526 54.6953 797.199 54.91C796.872 55.1153 796.62 55.414 796.443 55.806C796.266 56.1887 796.196 56.6553 796.233 57.206C796.186 57.7193 796.256 58.1673 796.443 58.55C796.639 58.9327 796.91 59.2313 797.255 59.446C797.61 59.6607 798.011 59.768 798.459 59.768C798.916 59.768 799.304 59.6653 799.621 59.46C799.948 59.2547 800.204 58.9887 800.391 58.662L801.679 59.292C801.53 59.6467 801.296 59.9687 800.979 60.258C800.671 60.538 800.298 60.762 799.859 60.93C799.43 61.0887 798.958 61.168 798.445 61.168Z" fill="#1D1F1E"/>
<path d="M817 60L821 56L817 52" stroke="#1D1F1E" stroke-width="2" stroke-linecap="round" stroke-linejoin="round"/>
</svg>
