<svg width="95" height="80" viewBox="0 0 95 80" fill="none" xmlns="http://www.w3.org/2000/svg">
<path d="M29.9506 21.3995C29.861 21.3981 29.7719 21.4148 29.6888 21.4485C29.6057 21.4822 29.5302 21.5322 29.4668 21.5957C29.4034 21.6591 29.3533 21.7346 29.3196 21.8177C29.2859 21.9008 29.2693 21.9898 29.2706 22.0795V29.7695C29.259 29.865 29.2677 29.962 29.2963 30.0539C29.3249 30.1458 29.3727 30.2305 29.4365 30.3026C29.5003 30.3747 29.5787 30.4323 29.6665 30.4719C29.7542 30.5114 29.8494 30.5318 29.9456 30.5318C30.0419 30.5318 30.137 30.5114 30.2248 30.4719C30.3125 30.4323 30.3909 30.3747 30.4547 30.3026C30.5185 30.2305 30.5663 30.1458 30.5949 30.0539C30.6235 29.962 30.6323 29.865 30.6206 29.7695V22.0795C30.622 21.9907 30.6056 21.9025 30.5725 21.82C30.5394 21.7376 30.4903 21.6625 30.428 21.5993C30.3656 21.536 30.2913 21.4857 30.2094 21.4514C30.1274 21.4171 30.0395 21.3995 29.9506 21.3995Z" fill="#1D1F1E"/>
<path d="M21.3185 23.4295C21.2858 23.3468 21.2358 23.2719 21.1721 23.2099C21.1083 23.1478 21.0321 23.1 20.9485 23.0695C20.8689 23.0377 20.7842 23.0208 20.6985 23.0195C20.6053 23.0202 20.5133 23.0407 20.4285 23.0795C20.2647 23.1519 20.1361 23.286 20.0706 23.4526C20.0051 23.6192 20.0079 23.805 20.0785 23.9695L22.7285 30.0395C22.7826 30.1615 22.871 30.2651 22.9828 30.3378C23.0946 30.4106 23.2251 30.4494 23.3585 30.4495C23.4517 30.4488 23.5438 30.4284 23.6285 30.3895C23.7925 30.3133 23.9213 30.1774 23.9885 30.0095C24.0533 29.8422 24.0533 29.6568 23.9885 29.4895L21.3185 23.4295Z" fill="#1D1F1E"/>
<path d="M9.53922 27.27L15.2292 31.69C15.3721 31.7811 15.5439 31.8155 15.7109 31.7865C15.8779 31.7575 16.028 31.6672 16.1319 31.5333C16.2357 31.3994 16.2859 31.2315 16.2724 31.0626C16.259 30.8937 16.1829 30.7358 16.0592 30.62L10.3692 26.19C10.2995 26.1348 10.219 26.0947 10.1329 26.0724C10.0468 26.05 9.95702 26.0458 9.86922 26.06C9.78129 26.0694 9.69614 26.0964 9.61884 26.1394C9.54153 26.1823 9.47365 26.2404 9.41922 26.31C9.36354 26.3807 9.32245 26.4618 9.29832 26.5485C9.2742 26.6352 9.26753 26.7258 9.27869 26.8151C9.28985 26.9044 9.31863 26.9906 9.36335 27.0687C9.40807 27.1468 9.46785 27.2152 9.53922 27.27Z" fill="#1D1F1E"/>
<path d="M39.4609 23.0796C39.3762 23.0408 39.2842 23.0204 39.1909 23.0196C39.057 23.0172 38.9253 23.0549 38.813 23.128C38.7007 23.2011 38.6129 23.3061 38.5609 23.4296L35.9509 29.4896C35.9163 29.5719 35.8984 29.6603 35.8984 29.7496C35.8984 29.8389 35.9163 29.9273 35.9509 30.0096C35.9808 30.0948 36.0283 30.1726 36.0903 30.2381C36.1524 30.3036 36.2275 30.3553 36.3109 30.3896C36.3954 30.4294 36.4876 30.4499 36.5809 30.4496C36.7132 30.4501 36.8427 30.4115 36.953 30.3385C37.0633 30.2655 37.1496 30.1616 37.2009 30.0396L39.8109 23.9496C39.8754 23.7874 39.8751 23.6066 39.8099 23.4447C39.7447 23.2827 39.6198 23.152 39.4609 23.0796Z" fill="#1D1F1E"/>
<path d="M43.5692 31.0698C43.5563 31.1583 43.5621 31.2485 43.5862 31.3346C43.6103 31.4208 43.6522 31.5009 43.7092 31.5698C43.7707 31.6519 43.8509 31.7183 43.943 31.7634C44.0351 31.8086 44.1366 31.8314 44.2392 31.8298C44.3905 31.8291 44.5377 31.78 44.6592 31.6898L50.3492 27.2698C50.4895 27.1537 50.5821 26.9899 50.6092 26.8098C50.6283 26.6314 50.5782 26.4524 50.4692 26.3098C50.3568 26.1701 50.1963 26.0774 50.0192 26.0498H49.9492C49.8009 26.0505 49.6569 26.0997 49.5392 26.1898L43.8492 30.6198C43.7731 30.6705 43.7087 30.7368 43.6604 30.8145C43.6121 30.8921 43.581 30.9791 43.5692 31.0698Z" fill="#1D1F1E"/>
<path d="M0 57.5898V74.1298C0.00264309 75.524 0.557669 76.8603 1.54354 77.8462C2.52941 78.8321 3.86577 79.3871 5.26 79.3898H54.63C56.0242 79.3871 57.3606 78.8321 58.3465 77.8462C59.3323 76.8603 59.8874 75.524 59.89 74.1298V58.2198H59.95L75.05 62.1498C75.4845 62.2616 75.9313 62.3187 76.38 62.3198C77.3159 62.3179 78.2342 62.0658 79.04 61.5898C79.6376 61.2414 80.1595 60.7771 80.5751 60.2241C80.9907 59.6711 81.2916 59.0407 81.46 58.3698L93.85 10.5798C94.1965 9.22858 93.9932 7.79513 93.2847 6.59358C92.5761 5.39203 91.4201 4.52041 90.07 4.16976L74.07 0.0297565C73.9824 0.00731345 73.8912 0.00283125 73.8018 0.01658C73.7124 0.0303288 73.6268 0.0620239 73.55 0.109756C73.472 0.151955 73.404 0.21039 73.3505 0.281118C73.297 0.351847 73.2593 0.433223 73.24 0.519756L59.11 55.0298L59.05 54.9498C58.5344 54.1426 57.8851 53.429 57.13 52.8398C55.44 51.4898 50.5 48.5398 41.3 50.1898H41.19L41.25 50.0898L47.47 40.8798C47.5376 40.8169 47.5919 40.7412 47.6296 40.657C47.6674 40.5729 47.688 40.482 47.69 40.3898C47.6896 40.285 47.6651 40.1818 47.6182 40.0882C47.5714 39.9945 47.5035 39.9129 47.42 39.8498L41.71 33.2598C41.6475 33.1851 41.5695 33.125 41.4815 33.0835C41.3934 33.0421 41.2973 33.0203 41.2 33.0198H18.69C18.5927 33.0203 18.4966 33.0421 18.4085 33.0835C18.3205 33.125 18.2425 33.1851 18.18 33.2598L12.39 39.9498C12.3853 39.9695 12.3853 39.99 12.39 40.0098C12.3624 40.0646 12.339 40.1214 12.32 40.1798C12.3001 40.2551 12.3001 40.3344 12.32 40.4098V40.4698V40.5498L18.66 49.9598H18.56C17.4451 49.8252 16.323 49.7584 15.2 49.7598C9.45 49.7598 4.65 51.5798 2.2 53.6598C1.55583 54.1016 1.02222 54.686 0.640664 55.3676C0.259104 56.0492 0.0398691 56.8096 0 57.5898ZM60.05 56.7998L74.38 1.50976L89.68 5.50976C90.1757 5.63513 90.6414 5.85799 91.0501 6.16532C91.4587 6.47265 91.802 6.8583 92.06 7.29976C92.3276 7.74609 92.5027 8.24169 92.5749 8.75707C92.647 9.27246 92.6148 9.7971 92.48 10.2998L80.14 58.0298C79.9247 58.8658 79.4374 59.6065 78.7549 60.1352C78.0723 60.6638 77.2333 60.9504 76.37 60.9498C76.0329 60.952 75.6969 60.9117 75.37 60.8298L60.02 56.8298L60.05 56.7998ZM58.53 74.1198C58.53 75.155 58.1194 76.148 57.3883 76.881C56.6572 77.614 55.6653 78.0271 54.63 78.0298H5.26C4.22474 78.0271 3.23278 77.614 2.50167 76.881C1.77057 76.148 1.36 75.155 1.36 74.1198V58.2698H58.53V74.1198ZM23.53 41.0698H36.37V41.1298L31.77 56.9498H28.11L23.53 41.0698ZM56.29 53.8798C57.3043 54.6266 58.054 55.6776 58.43 56.8798V56.9498H36.65L40.1 51.8398C46.75 50.3198 52.79 51.0998 56.29 53.8798ZM35.01 56.9498H33.18V56.8798L37.77 41.1098H45.69L35.01 56.9498ZM40.89 34.4198L45.49 39.7298H37.72L35.41 34.4298L40.89 34.4198ZM33.89 34.4198L36.2 39.7198H23.65V39.6498L25.95 34.3798L33.89 34.4198ZM14.46 39.6298L19 34.3798H24.48V34.4498L22.2 39.7098H14.39L14.46 39.6298ZM14.18 41.0698H22.1L26.7 56.9498H24.85L14.18 41.0698ZM3.04 54.8898C5.97 52.4698 12.42 50.4398 19.69 51.6998L23.24 56.9498H1.48V56.8798C1.82091 56.0937 2.35809 55.4085 3.04 54.8898Z" fill="#1D1F1E"/>
<path opacity="0.2" d="M24.5 57.4999H0.5C1.16667 56.1665 4 53.0999 10 51.4999C16 49.8999 19.1667 50.4999 20 50.9999L24.5 57.4999Z" fill="#2A3E52"/>
<path opacity="0.2" d="M36 57.4999L59 57.4999C58.3333 56.1665 58 53.0998 52 51.4998C46 49.8998 41.3333 50.4999 40.5 50.9999L36 57.4999Z" fill="#2A3E52"/>
</svg>
