<svg width="24" height="24" viewBox="0 0 24 24" fill="none" xmlns="http://www.w3.org/2000/svg">
<path d="M12 24C18.6274 24 24 18.6274 24 12C24 5.37258 18.6274 0 12 0C5.37258 0 0 5.37258 0 12C0 18.6274 5.37258 24 12 24Z" fill="#E7CC41"/>
<path d="M3.76538 8.84341L5.11204 12.0002L7.16937 7.57861L3.76538 8.84341Z" fill="#E7CC41"/>
<path d="M3.13062 3.91789L8.66526 4.08242L7.42261 0.910156C5.77194 1.58882 4.31195 2.62229 3.13062 3.91789Z" fill="#E7CC41"/>
<path d="M7.31323 16.6172L8.94924 19.9693L12.0692 18.6069L7.31323 16.6172Z" fill="#E7CC41"/>
<path d="M3.62109 15.0592L7.31441 16.6169L5.11176 12L3.62109 15.0592Z" fill="#F3E477"/>
<path d="M3.13062 3.91797L3.76528 8.8433L7.16927 7.57863L8.66526 4.08237L3.13062 3.91797Z" fill="#D2A70C"/>
<path d="M0 12.0001C0 12.0876 -2.92994e-06 12.1801 0.0053304 12.2675L3.76534 8.84332L0.872009 7.51172C0.309343 8.89985 0 10.4115 0 12.0001Z" fill="#A96E02"/>
<path d="M0.866699 7.5117L3.76538 8.8433L3.13072 3.91797C2.17605 4.96157 1.40803 6.1801 0.866699 7.5117Z" fill="#C59605"/>
<path d="M0.00537109 12.2675L3.62138 15.0593L5.11204 12.0002L3.76538 8.84326L0.00537109 12.2675Z" fill="#C59605"/>
<path d="M0.97998 16.7505C1.55731 18.0823 2.36798 19.2956 3.36265 20.3239L3.62665 15.0591L0.97998 16.7505Z" fill="#A96E02"/>
<path d="M12.0691 18.6065L15.4784 19.8199L16.6597 16.6836L12.0691 18.6065Z" fill="#E7CC41"/>
<path d="M0.00537109 12.2671C0.0360378 13.8559 0.381375 15.3726 0.980042 16.7504L3.62671 15.0589L0.00537109 12.2671Z" fill="#C59605"/>
<path d="M12.0691 5.53714L16.6851 7.48061L15.4784 4.22607L12.0691 5.53714Z" fill="#FEFBE1"/>
<path d="M7.16943 7.57865L12.0694 5.53746L8.66543 4.08252L7.16943 7.57865Z" fill="#F3E477"/>
<path d="M16.856 16.5501L20.3066 15.2083L18.6053 12L16.856 16.5501Z" fill="#F3E477"/>
<path d="M16.6868 7.48047L18.6054 11.9997L20.0961 8.84288L16.6868 7.48047Z" fill="#F3E477"/>
<path d="M20.3066 15.208L20.6426 20.3288C21.6373 19.2955 22.448 18.0872 23.0253 16.7556L20.3066 15.208Z" fill="#A96E02"/>
<path d="M20.0959 8.84286L23.9999 11.9997C23.9999 10.4727 23.7159 9.01259 23.1906 7.66553L20.0959 8.84286Z" fill="#C59605"/>
<path d="M20.3066 15.2083L23.02 16.7507C23.6493 15.2956 24 13.6864 24 12L20.3066 15.2083Z" fill="#C59605"/>
<path d="M18.6052 12.0002L20.3066 15.2083L23.9999 12.0002L20.0959 8.84326L18.6052 12.0002Z" fill="#D2A70C"/>
<path d="M15.4788 19.8202L20.6428 20.3241L20.3068 15.2031L16.8508 16.5451L16.8254 16.6119L16.6548 16.6839L15.4788 19.8202Z" fill="#C59605"/>
<path d="M3.35742 20.324C3.35742 20.3292 3.35742 20.3292 3.35742 20.324C4.45076 21.4603 5.76674 22.3806 7.23208 23.0182L8.94407 19.9692C8.9494 19.9692 3.45076 20.247 3.35742 20.324Z" fill="#C59605"/>
<path d="M7.41724 0.904938L8.66522 4.08227L12.0026 0C10.3772 0 8.83057 0.323871 7.41724 0.904938Z" fill="#D2A70C"/>
<path d="M7.2356 23.0128C8.6956 23.6451 10.3103 23.9948 12.0023 23.9948L8.94893 19.9639L7.2356 23.0128Z" fill="#7C3501"/>
<path d="M12.0027 23.9997C13.772 23.9997 15.448 23.6193 16.96 22.9304L15.4787 19.8198L12.0027 23.9997Z" fill="#7C3501"/>
<path d="M15.4788 19.8198L16.9601 22.9304C18.3468 22.298 19.5948 21.4137 20.6428 20.3288L15.4788 19.8198Z" fill="#C59605"/>
<path d="M15.4788 4.22608L20.8694 3.91755C19.7041 2.64249 18.2694 1.61928 16.6548 0.935547L15.4788 4.22608Z" fill="#F3E477"/>
<path d="M15.4788 4.22637L16.6868 7.48091L20.0961 8.8433L20.8694 3.91797L15.4788 4.22637Z" fill="#E7CC41"/>
<path d="M12.0027 0L15.484 4.22627L16.66 0.93573C15.2267 0.33413 13.6534 0 12.0027 0Z" fill="#D2A70C"/>
<path d="M20.0959 8.8433L23.1946 7.66596C22.6533 6.27263 21.8639 5.00277 20.8746 3.91797L20.0959 8.8433Z" fill="#C59605"/>
<path d="M8.66528 4.08226L12.0693 5.53733L15.4786 4.22627L12.0026 0L8.66528 4.08226Z" fill="#A96E02"/>
<path d="M16.6599 16.684L16.8306 16.6171L16.8559 16.5503L16.6866 16.6171L16.6599 16.684Z" fill="#A96E02"/>
<path d="M3.35742 20.324C3.45076 20.2522 8.94407 19.9694 8.94407 19.9694L7.30941 16.6171L3.61609 15.0645L3.35742 20.324Z" fill="#D2A70C"/>
<path d="M8.94922 19.9693L12.0025 24.0003L15.4785 19.8203L12.0692 18.6069L8.94922 19.9693Z" fill="#D2A70C"/>
</svg>
