<svg width="20" height="20" viewBox="0 0 20 20" fill="none" xmlns="http://www.w3.org/2000/svg">
<path d="M19.9307 5.96663L17.138 0.386004C17.08 0.269999 16.9909 0.172525 16.8806 0.104326C16.7702 0.0362822 16.6432 1.5578e-07 16.5134 1.5578e-07H4.41166C4.17821 -0.000155584 3.9602 0.116472 3.83081 0.310642L0.107221 5.89127C0.107221 5.89781 0.107221 5.90528 0.100676 5.91167C0.0941302 5.91821 0.0765198 5.94141 0.0671693 5.95916H0.0670135C0.052676 6.00478 0.0430134 6.05196 0.0381819 6.09961C0.0169871 6.15956 0.00405186 6.22215 0 6.28553C0.00451944 6.34641 0.0166756 6.40652 0.0363121 6.46413C0.0422343 6.51395 0.0534549 6.56285 0.0698184 6.61018C0.080104 6.62965 0.0967794 6.64553 0.108935 6.66406C0.121091 6.68259 0.108936 6.67994 0.117351 6.68633L9.42634 19.7079C9.42634 19.7079 9.43569 19.7145 9.43943 19.7201C9.49569 19.792 9.56566 19.852 9.64514 19.8968C9.66571 19.9097 9.68722 19.9213 9.70935 19.9312C9.88826 20.0229 10.1004 20.0229 10.2791 19.9312C10.3012 19.9213 10.3227 19.9097 10.3433 19.8968C10.4228 19.852 10.4928 19.792 10.549 19.7201C10.549 19.7145 10.5584 19.7126 10.5621 19.7079L19.8711 6.68633C19.8711 6.67979 19.8711 6.67138 19.8795 6.66499C19.8879 6.65845 19.8926 6.65472 19.8971 6.64818V6.64833C19.9333 6.57749 19.9568 6.50103 19.9669 6.4224C19.9799 6.3897 19.9902 6.35606 19.9978 6.32181C20.0076 6.19958 19.9844 6.07688 19.9306 5.96664L19.9307 5.96663ZM18.177 5.58063H14.2243L12.828 1.39516H16.0862L18.177 5.58063ZM7.19878 6.97579H12.7954L9.99706 16.7602L7.19878 6.97579ZM11.3552 1.39516L12.7515 5.58063H7.24227L8.63864 1.39516H11.3552ZM4.78386 1.39516H7.16611L5.76974 5.58063H1.99113L4.78386 1.39516ZM5.74544 6.97579L8.21322 15.6062L2.04527 6.97579H5.74544ZM11.7785 15.6062L14.2474 6.97579H17.9487L11.7785 15.6062Z" fill="#A4AAAE"/>
</svg>
