<svg width="23" height="19" viewBox="0 0 23 19" fill="none" xmlns="http://www.w3.org/2000/svg">
<g id="Group 25971">
<g id="Vector">
<path d="M22.4912 1.14502H19.9262C19.7082 1.14502 19.5312 1.32201 19.5312 1.54001V16.222C19.5312 17.147 20.2842 17.899 21.2092 17.899C22.1342 17.899 22.8862 17.147 22.8862 16.222V1.54001C22.8862 1.32201 22.7092 1.14502 22.4912 1.14502ZM22.0962 2.00401C22.0782 1.98101 22.0602 1.95701 22.0392 1.93501H22.0962V2.00401ZM21.2082 3.49301C20.7832 3.49301 20.4372 3.14701 20.4372 2.72101C20.4372 2.29601 20.7832 1.94902 21.2082 1.94902C21.6342 1.94902 21.9802 2.29601 21.9802 2.72101C21.9802 3.14701 21.6342 3.49301 21.2082 3.49301ZM21.9802 4.64001C21.9802 5.06501 21.6342 5.41101 21.2082 5.41101C20.7832 5.41101 20.4372 5.06501 20.4372 4.64001C20.4372 4.21401 20.7832 3.86801 21.2082 3.86801C21.6342 3.86801 21.9802 4.21401 21.9802 4.64001ZM21.9802 6.55801C21.9802 6.98301 21.6342 7.33002 21.2082 7.33002C20.7832 7.33002 20.4372 6.98401 20.4372 6.55801C20.4372 6.13201 20.7832 5.78601 21.2082 5.78601C21.6342 5.78601 21.9802 6.13201 21.9802 6.55801ZM21.9802 8.47702C21.9802 8.90202 21.6342 9.24901 21.2082 9.24901C20.7832 9.24901 20.4372 8.90202 20.4372 8.47702C20.4372 8.05102 20.7832 7.70502 21.2082 7.70502C21.6342 7.70502 21.9802 8.05102 21.9802 8.47702ZM21.9802 10.395C21.9802 10.821 21.6342 11.167 21.2082 11.167C20.7832 11.167 20.4372 10.821 20.4372 10.395C20.4372 9.97002 20.7832 9.62401 21.2082 9.62401C21.6342 9.62401 21.9802 9.97002 21.9802 10.395ZM21.9802 12.314C21.9802 12.739 21.6342 13.085 21.2082 13.085C20.7832 13.085 20.4372 12.739 20.4372 12.314C20.4372 11.888 20.7832 11.542 21.2082 11.542C21.6342 11.542 21.9802 11.888 21.9802 12.314ZM21.9802 14.232C21.9802 14.658 21.6342 15.004 21.2082 15.004C20.7832 15.004 20.4372 14.658 20.4372 14.232C20.4372 13.807 20.7832 13.46 21.2082 13.46C21.6342 13.46 21.9802 13.807 21.9802 14.232ZM21.9802 16.151C21.9802 16.576 21.6342 16.922 21.2082 16.922C20.7832 16.922 20.4372 16.576 20.4372 16.151C20.4372 15.725 20.7832 15.379 21.2082 15.379C21.6342 15.379 21.9802 15.725 21.9802 16.151ZM20.5842 3.68001C20.4832 3.74601 20.3972 3.82902 20.3212 3.92302V3.43802C20.3972 3.53102 20.4832 3.61401 20.5842 3.68001ZM20.5842 5.59901C20.4832 5.66501 20.3972 5.74802 20.3212 5.84102V5.35602C20.3972 5.45002 20.4832 5.53301 20.5842 5.59901ZM20.5842 7.51701C20.4832 7.58301 20.3972 7.66701 20.3212 7.76001V7.27501C20.3972 7.36801 20.4832 7.45201 20.5842 7.51701ZM20.5842 9.43602C20.4832 9.50202 20.3972 9.58501 20.3212 9.67801V9.19301C20.3972 9.28701 20.4832 9.37002 20.5842 9.43602ZM20.5842 11.355C20.4832 11.421 20.3972 11.504 20.3212 11.597V11.112C20.3972 11.205 20.4832 11.289 20.5842 11.355ZM20.5842 13.273C20.4832 13.339 20.3972 13.422 20.3212 13.515V13.03C20.3972 13.124 20.4832 13.207 20.5842 13.273ZM20.5842 15.191C20.4832 15.257 20.3972 15.341 20.3212 15.434V14.949C20.3972 15.042 20.4832 15.125 20.5842 15.191ZM21.8332 15.191C21.9342 15.125 22.0212 15.042 22.0962 14.949V15.434C22.0212 15.341 21.9342 15.257 21.8332 15.191ZM21.8332 13.273C21.9342 13.207 22.0212 13.124 22.0962 13.03V13.515C22.0212 13.422 21.9342 13.339 21.8332 13.273ZM21.8332 11.355C21.9342 11.289 22.0212 11.205 22.0962 11.112V11.597C22.0212 11.504 21.9342 11.421 21.8332 11.355ZM21.8332 9.43602C21.9342 9.37002 22.0212 9.28701 22.0962 9.19301V9.67902C22.0212 9.58502 21.9342 9.50202 21.8332 9.43602ZM21.8332 7.51701C21.9342 7.45201 22.0212 7.36801 22.0962 7.27501V7.76001C22.0212 7.66701 21.9342 7.58301 21.8332 7.51701ZM21.8332 5.59901C21.9342 5.53301 22.0212 5.45002 22.0962 5.35602V5.84102C22.0212 5.74802 21.9342 5.66501 21.8332 5.59901ZM21.8332 3.68001C21.9342 3.61401 22.0212 3.53102 22.0962 3.43802V3.92302C22.0212 3.83002 21.9342 3.74601 21.8332 3.68001ZM20.3783 1.93501C20.3573 1.95701 20.3402 1.98101 20.3212 2.00401V1.93501H20.3783Z" fill="#333335"/>
<path d="M22.4912 1.14502H19.9262C19.7082 1.14502 19.5312 1.32201 19.5312 1.54001V16.222C19.5312 17.147 20.2842 17.899 21.2092 17.899C22.1342 17.899 22.8862 17.147 22.8862 16.222V1.54001C22.8862 1.32201 22.7092 1.14502 22.4912 1.14502ZM22.0962 2.00401C22.0782 1.98101 22.0602 1.95701 22.0392 1.93501H22.0962V2.00401ZM21.2082 3.49301C20.7832 3.49301 20.4372 3.14701 20.4372 2.72101C20.4372 2.29601 20.7832 1.94902 21.2082 1.94902C21.6342 1.94902 21.9802 2.29601 21.9802 2.72101C21.9802 3.14701 21.6342 3.49301 21.2082 3.49301ZM21.9802 4.64001C21.9802 5.06501 21.6342 5.41101 21.2082 5.41101C20.7832 5.41101 20.4372 5.06501 20.4372 4.64001C20.4372 4.21401 20.7832 3.86801 21.2082 3.86801C21.6342 3.86801 21.9802 4.21401 21.9802 4.64001ZM21.9802 6.55801C21.9802 6.98301 21.6342 7.33002 21.2082 7.33002C20.7832 7.33002 20.4372 6.98401 20.4372 6.55801C20.4372 6.13201 20.7832 5.78601 21.2082 5.78601C21.6342 5.78601 21.9802 6.13201 21.9802 6.55801ZM21.9802 8.47702C21.9802 8.90202 21.6342 9.24901 21.2082 9.24901C20.7832 9.24901 20.4372 8.90202 20.4372 8.47702C20.4372 8.05102 20.7832 7.70502 21.2082 7.70502C21.6342 7.70502 21.9802 8.05102 21.9802 8.47702ZM21.9802 10.395C21.9802 10.821 21.6342 11.167 21.2082 11.167C20.7832 11.167 20.4372 10.821 20.4372 10.395C20.4372 9.97002 20.7832 9.62401 21.2082 9.62401C21.6342 9.62401 21.9802 9.97002 21.9802 10.395ZM21.9802 12.314C21.9802 12.739 21.6342 13.085 21.2082 13.085C20.7832 13.085 20.4372 12.739 20.4372 12.314C20.4372 11.888 20.7832 11.542 21.2082 11.542C21.6342 11.542 21.9802 11.888 21.9802 12.314ZM21.9802 14.232C21.9802 14.658 21.6342 15.004 21.2082 15.004C20.7832 15.004 20.4372 14.658 20.4372 14.232C20.4372 13.807 20.7832 13.46 21.2082 13.46C21.6342 13.46 21.9802 13.807 21.9802 14.232ZM21.9802 16.151C21.9802 16.576 21.6342 16.922 21.2082 16.922C20.7832 16.922 20.4372 16.576 20.4372 16.151C20.4372 15.725 20.7832 15.379 21.2082 15.379C21.6342 15.379 21.9802 15.725 21.9802 16.151ZM20.5842 3.68001C20.4832 3.74601 20.3972 3.82902 20.3212 3.92302V3.43802C20.3972 3.53102 20.4832 3.61401 20.5842 3.68001ZM20.5842 5.59901C20.4832 5.66501 20.3972 5.74802 20.3212 5.84102V5.35602C20.3972 5.45002 20.4832 5.53301 20.5842 5.59901ZM20.5842 7.51701C20.4832 7.58301 20.3972 7.66701 20.3212 7.76001V7.27501C20.3972 7.36801 20.4832 7.45201 20.5842 7.51701ZM20.5842 9.43602C20.4832 9.50202 20.3972 9.58501 20.3212 9.67801V9.19301C20.3972 9.28701 20.4832 9.37002 20.5842 9.43602ZM20.5842 11.355C20.4832 11.421 20.3972 11.504 20.3212 11.597V11.112C20.3972 11.205 20.4832 11.289 20.5842 11.355ZM20.5842 13.273C20.4832 13.339 20.3972 13.422 20.3212 13.515V13.03C20.3972 13.124 20.4832 13.207 20.5842 13.273ZM20.5842 15.191C20.4832 15.257 20.3972 15.341 20.3212 15.434V14.949C20.3972 15.042 20.4832 15.125 20.5842 15.191ZM21.8332 15.191C21.9342 15.125 22.0212 15.042 22.0962 14.949V15.434C22.0212 15.341 21.9342 15.257 21.8332 15.191ZM21.8332 13.273C21.9342 13.207 22.0212 13.124 22.0962 13.03V13.515C22.0212 13.422 21.9342 13.339 21.8332 13.273ZM21.8332 11.355C21.9342 11.289 22.0212 11.205 22.0962 11.112V11.597C22.0212 11.504 21.9342 11.421 21.8332 11.355ZM21.8332 9.43602C21.9342 9.37002 22.0212 9.28701 22.0962 9.19301V9.67902C22.0212 9.58502 21.9342 9.50202 21.8332 9.43602ZM21.8332 7.51701C21.9342 7.45201 22.0212 7.36801 22.0962 7.27501V7.76001C22.0212 7.66701 21.9342 7.58301 21.8332 7.51701ZM21.8332 5.59901C21.9342 5.53301 22.0212 5.45002 22.0962 5.35602V5.84102C22.0212 5.74802 21.9342 5.66501 21.8332 5.59901ZM21.8332 3.68001C21.9342 3.61401 22.0212 3.53102 22.0962 3.43802V3.92302C22.0212 3.83002 21.9342 3.74601 21.8332 3.68001ZM20.3783 1.93501C20.3573 1.95701 20.3402 1.98101 20.3212 2.00401V1.93501H20.3783Z" fill="black" fill-opacity="0.2"/>
<path d="M22.4912 1.14502H19.9262C19.7082 1.14502 19.5312 1.32201 19.5312 1.54001V16.222C19.5312 17.147 20.2842 17.899 21.2092 17.899C22.1342 17.899 22.8862 17.147 22.8862 16.222V1.54001C22.8862 1.32201 22.7092 1.14502 22.4912 1.14502ZM22.0962 2.00401C22.0782 1.98101 22.0602 1.95701 22.0392 1.93501H22.0962V2.00401ZM21.2082 3.49301C20.7832 3.49301 20.4372 3.14701 20.4372 2.72101C20.4372 2.29601 20.7832 1.94902 21.2082 1.94902C21.6342 1.94902 21.9802 2.29601 21.9802 2.72101C21.9802 3.14701 21.6342 3.49301 21.2082 3.49301ZM21.9802 4.64001C21.9802 5.06501 21.6342 5.41101 21.2082 5.41101C20.7832 5.41101 20.4372 5.06501 20.4372 4.64001C20.4372 4.21401 20.7832 3.86801 21.2082 3.86801C21.6342 3.86801 21.9802 4.21401 21.9802 4.64001ZM21.9802 6.55801C21.9802 6.98301 21.6342 7.33002 21.2082 7.33002C20.7832 7.33002 20.4372 6.98401 20.4372 6.55801C20.4372 6.13201 20.7832 5.78601 21.2082 5.78601C21.6342 5.78601 21.9802 6.13201 21.9802 6.55801ZM21.9802 8.47702C21.9802 8.90202 21.6342 9.24901 21.2082 9.24901C20.7832 9.24901 20.4372 8.90202 20.4372 8.47702C20.4372 8.05102 20.7832 7.70502 21.2082 7.70502C21.6342 7.70502 21.9802 8.05102 21.9802 8.47702ZM21.9802 10.395C21.9802 10.821 21.6342 11.167 21.2082 11.167C20.7832 11.167 20.4372 10.821 20.4372 10.395C20.4372 9.97002 20.7832 9.62401 21.2082 9.62401C21.6342 9.62401 21.9802 9.97002 21.9802 10.395ZM21.9802 12.314C21.9802 12.739 21.6342 13.085 21.2082 13.085C20.7832 13.085 20.4372 12.739 20.4372 12.314C20.4372 11.888 20.7832 11.542 21.2082 11.542C21.6342 11.542 21.9802 11.888 21.9802 12.314ZM21.9802 14.232C21.9802 14.658 21.6342 15.004 21.2082 15.004C20.7832 15.004 20.4372 14.658 20.4372 14.232C20.4372 13.807 20.7832 13.46 21.2082 13.46C21.6342 13.46 21.9802 13.807 21.9802 14.232ZM21.9802 16.151C21.9802 16.576 21.6342 16.922 21.2082 16.922C20.7832 16.922 20.4372 16.576 20.4372 16.151C20.4372 15.725 20.7832 15.379 21.2082 15.379C21.6342 15.379 21.9802 15.725 21.9802 16.151ZM20.5842 3.68001C20.4832 3.74601 20.3972 3.82902 20.3212 3.92302V3.43802C20.3972 3.53102 20.4832 3.61401 20.5842 3.68001ZM20.5842 5.59901C20.4832 5.66501 20.3972 5.74802 20.3212 5.84102V5.35602C20.3972 5.45002 20.4832 5.53301 20.5842 5.59901ZM20.5842 7.51701C20.4832 7.58301 20.3972 7.66701 20.3212 7.76001V7.27501C20.3972 7.36801 20.4832 7.45201 20.5842 7.51701ZM20.5842 9.43602C20.4832 9.50202 20.3972 9.58501 20.3212 9.67801V9.19301C20.3972 9.28701 20.4832 9.37002 20.5842 9.43602ZM20.5842 11.355C20.4832 11.421 20.3972 11.504 20.3212 11.597V11.112C20.3972 11.205 20.4832 11.289 20.5842 11.355ZM20.5842 13.273C20.4832 13.339 20.3972 13.422 20.3212 13.515V13.03C20.3972 13.124 20.4832 13.207 20.5842 13.273ZM20.5842 15.191C20.4832 15.257 20.3972 15.341 20.3212 15.434V14.949C20.3972 15.042 20.4832 15.125 20.5842 15.191ZM21.8332 15.191C21.9342 15.125 22.0212 15.042 22.0962 14.949V15.434C22.0212 15.341 21.9342 15.257 21.8332 15.191ZM21.8332 13.273C21.9342 13.207 22.0212 13.124 22.0962 13.03V13.515C22.0212 13.422 21.9342 13.339 21.8332 13.273ZM21.8332 11.355C21.9342 11.289 22.0212 11.205 22.0962 11.112V11.597C22.0212 11.504 21.9342 11.421 21.8332 11.355ZM21.8332 9.43602C21.9342 9.37002 22.0212 9.28701 22.0962 9.19301V9.67902C22.0212 9.58502 21.9342 9.50202 21.8332 9.43602ZM21.8332 7.51701C21.9342 7.45201 22.0212 7.36801 22.0962 7.27501V7.76001C22.0212 7.66701 21.9342 7.58301 21.8332 7.51701ZM21.8332 5.59901C21.9342 5.53301 22.0212 5.45002 22.0962 5.35602V5.84102C22.0212 5.74802 21.9342 5.66501 21.8332 5.59901ZM21.8332 3.68001C21.9342 3.61401 22.0212 3.53102 22.0962 3.43802V3.92302C22.0212 3.83002 21.9342 3.74601 21.8332 3.68001ZM20.3783 1.93501C20.3573 1.95701 20.3402 1.98101 20.3212 2.00401V1.93501H20.3783Z" fill="black" fill-opacity="0.2"/>
<path d="M22.4912 1.14502H19.9262C19.7082 1.14502 19.5312 1.32201 19.5312 1.54001V16.222C19.5312 17.147 20.2842 17.899 21.2092 17.899C22.1342 17.899 22.8862 17.147 22.8862 16.222V1.54001C22.8862 1.32201 22.7092 1.14502 22.4912 1.14502ZM22.0962 2.00401C22.0782 1.98101 22.0602 1.95701 22.0392 1.93501H22.0962V2.00401ZM21.2082 3.49301C20.7832 3.49301 20.4372 3.14701 20.4372 2.72101C20.4372 2.29601 20.7832 1.94902 21.2082 1.94902C21.6342 1.94902 21.9802 2.29601 21.9802 2.72101C21.9802 3.14701 21.6342 3.49301 21.2082 3.49301ZM21.9802 4.64001C21.9802 5.06501 21.6342 5.41101 21.2082 5.41101C20.7832 5.41101 20.4372 5.06501 20.4372 4.64001C20.4372 4.21401 20.7832 3.86801 21.2082 3.86801C21.6342 3.86801 21.9802 4.21401 21.9802 4.64001ZM21.9802 6.55801C21.9802 6.98301 21.6342 7.33002 21.2082 7.33002C20.7832 7.33002 20.4372 6.98401 20.4372 6.55801C20.4372 6.13201 20.7832 5.78601 21.2082 5.78601C21.6342 5.78601 21.9802 6.13201 21.9802 6.55801ZM21.9802 8.47702C21.9802 8.90202 21.6342 9.24901 21.2082 9.24901C20.7832 9.24901 20.4372 8.90202 20.4372 8.47702C20.4372 8.05102 20.7832 7.70502 21.2082 7.70502C21.6342 7.70502 21.9802 8.05102 21.9802 8.47702ZM21.9802 10.395C21.9802 10.821 21.6342 11.167 21.2082 11.167C20.7832 11.167 20.4372 10.821 20.4372 10.395C20.4372 9.97002 20.7832 9.62401 21.2082 9.62401C21.6342 9.62401 21.9802 9.97002 21.9802 10.395ZM21.9802 12.314C21.9802 12.739 21.6342 13.085 21.2082 13.085C20.7832 13.085 20.4372 12.739 20.4372 12.314C20.4372 11.888 20.7832 11.542 21.2082 11.542C21.6342 11.542 21.9802 11.888 21.9802 12.314ZM21.9802 14.232C21.9802 14.658 21.6342 15.004 21.2082 15.004C20.7832 15.004 20.4372 14.658 20.4372 14.232C20.4372 13.807 20.7832 13.46 21.2082 13.46C21.6342 13.46 21.9802 13.807 21.9802 14.232ZM21.9802 16.151C21.9802 16.576 21.6342 16.922 21.2082 16.922C20.7832 16.922 20.4372 16.576 20.4372 16.151C20.4372 15.725 20.7832 15.379 21.2082 15.379C21.6342 15.379 21.9802 15.725 21.9802 16.151ZM20.5842 3.68001C20.4832 3.74601 20.3972 3.82902 20.3212 3.92302V3.43802C20.3972 3.53102 20.4832 3.61401 20.5842 3.68001ZM20.5842 5.59901C20.4832 5.66501 20.3972 5.74802 20.3212 5.84102V5.35602C20.3972 5.45002 20.4832 5.53301 20.5842 5.59901ZM20.5842 7.51701C20.4832 7.58301 20.3972 7.66701 20.3212 7.76001V7.27501C20.3972 7.36801 20.4832 7.45201 20.5842 7.51701ZM20.5842 9.43602C20.4832 9.50202 20.3972 9.58501 20.3212 9.67801V9.19301C20.3972 9.28701 20.4832 9.37002 20.5842 9.43602ZM20.5842 11.355C20.4832 11.421 20.3972 11.504 20.3212 11.597V11.112C20.3972 11.205 20.4832 11.289 20.5842 11.355ZM20.5842 13.273C20.4832 13.339 20.3972 13.422 20.3212 13.515V13.03C20.3972 13.124 20.4832 13.207 20.5842 13.273ZM20.5842 15.191C20.4832 15.257 20.3972 15.341 20.3212 15.434V14.949C20.3972 15.042 20.4832 15.125 20.5842 15.191ZM21.8332 15.191C21.9342 15.125 22.0212 15.042 22.0962 14.949V15.434C22.0212 15.341 21.9342 15.257 21.8332 15.191ZM21.8332 13.273C21.9342 13.207 22.0212 13.124 22.0962 13.03V13.515C22.0212 13.422 21.9342 13.339 21.8332 13.273ZM21.8332 11.355C21.9342 11.289 22.0212 11.205 22.0962 11.112V11.597C22.0212 11.504 21.9342 11.421 21.8332 11.355ZM21.8332 9.43602C21.9342 9.37002 22.0212 9.28701 22.0962 9.19301V9.67902C22.0212 9.58502 21.9342 9.50202 21.8332 9.43602ZM21.8332 7.51701C21.9342 7.45201 22.0212 7.36801 22.0962 7.27501V7.76001C22.0212 7.66701 21.9342 7.58301 21.8332 7.51701ZM21.8332 5.59901C21.9342 5.53301 22.0212 5.45002 22.0962 5.35602V5.84102C22.0212 5.74802 21.9342 5.66501 21.8332 5.59901ZM21.8332 3.68001C21.9342 3.61401 22.0212 3.53102 22.0962 3.43802V3.92302C22.0212 3.83002 21.9342 3.74601 21.8332 3.68001ZM20.3783 1.93501C20.3573 1.95701 20.3402 1.98101 20.3212 2.00401V1.93501H20.3783Z" fill="black" fill-opacity="0.2"/>
<path d="M22.4912 1.14502H19.9262C19.7082 1.14502 19.5312 1.32201 19.5312 1.54001V16.222C19.5312 17.147 20.2842 17.899 21.2092 17.899C22.1342 17.899 22.8862 17.147 22.8862 16.222V1.54001C22.8862 1.32201 22.7092 1.14502 22.4912 1.14502ZM22.0962 2.00401C22.0782 1.98101 22.0602 1.95701 22.0392 1.93501H22.0962V2.00401ZM21.2082 3.49301C20.7832 3.49301 20.4372 3.14701 20.4372 2.72101C20.4372 2.29601 20.7832 1.94902 21.2082 1.94902C21.6342 1.94902 21.9802 2.29601 21.9802 2.72101C21.9802 3.14701 21.6342 3.49301 21.2082 3.49301ZM21.9802 4.64001C21.9802 5.06501 21.6342 5.41101 21.2082 5.41101C20.7832 5.41101 20.4372 5.06501 20.4372 4.64001C20.4372 4.21401 20.7832 3.86801 21.2082 3.86801C21.6342 3.86801 21.9802 4.21401 21.9802 4.64001ZM21.9802 6.55801C21.9802 6.98301 21.6342 7.33002 21.2082 7.33002C20.7832 7.33002 20.4372 6.98401 20.4372 6.55801C20.4372 6.13201 20.7832 5.78601 21.2082 5.78601C21.6342 5.78601 21.9802 6.13201 21.9802 6.55801ZM21.9802 8.47702C21.9802 8.90202 21.6342 9.24901 21.2082 9.24901C20.7832 9.24901 20.4372 8.90202 20.4372 8.47702C20.4372 8.05102 20.7832 7.70502 21.2082 7.70502C21.6342 7.70502 21.9802 8.05102 21.9802 8.47702ZM21.9802 10.395C21.9802 10.821 21.6342 11.167 21.2082 11.167C20.7832 11.167 20.4372 10.821 20.4372 10.395C20.4372 9.97002 20.7832 9.62401 21.2082 9.62401C21.6342 9.62401 21.9802 9.97002 21.9802 10.395ZM21.9802 12.314C21.9802 12.739 21.6342 13.085 21.2082 13.085C20.7832 13.085 20.4372 12.739 20.4372 12.314C20.4372 11.888 20.7832 11.542 21.2082 11.542C21.6342 11.542 21.9802 11.888 21.9802 12.314ZM21.9802 14.232C21.9802 14.658 21.6342 15.004 21.2082 15.004C20.7832 15.004 20.4372 14.658 20.4372 14.232C20.4372 13.807 20.7832 13.46 21.2082 13.46C21.6342 13.46 21.9802 13.807 21.9802 14.232ZM21.9802 16.151C21.9802 16.576 21.6342 16.922 21.2082 16.922C20.7832 16.922 20.4372 16.576 20.4372 16.151C20.4372 15.725 20.7832 15.379 21.2082 15.379C21.6342 15.379 21.9802 15.725 21.9802 16.151ZM20.5842 3.68001C20.4832 3.74601 20.3972 3.82902 20.3212 3.92302V3.43802C20.3972 3.53102 20.4832 3.61401 20.5842 3.68001ZM20.5842 5.59901C20.4832 5.66501 20.3972 5.74802 20.3212 5.84102V5.35602C20.3972 5.45002 20.4832 5.53301 20.5842 5.59901ZM20.5842 7.51701C20.4832 7.58301 20.3972 7.66701 20.3212 7.76001V7.27501C20.3972 7.36801 20.4832 7.45201 20.5842 7.51701ZM20.5842 9.43602C20.4832 9.50202 20.3972 9.58501 20.3212 9.67801V9.19301C20.3972 9.28701 20.4832 9.37002 20.5842 9.43602ZM20.5842 11.355C20.4832 11.421 20.3972 11.504 20.3212 11.597V11.112C20.3972 11.205 20.4832 11.289 20.5842 11.355ZM20.5842 13.273C20.4832 13.339 20.3972 13.422 20.3212 13.515V13.03C20.3972 13.124 20.4832 13.207 20.5842 13.273ZM20.5842 15.191C20.4832 15.257 20.3972 15.341 20.3212 15.434V14.949C20.3972 15.042 20.4832 15.125 20.5842 15.191ZM21.8332 15.191C21.9342 15.125 22.0212 15.042 22.0962 14.949V15.434C22.0212 15.341 21.9342 15.257 21.8332 15.191ZM21.8332 13.273C21.9342 13.207 22.0212 13.124 22.0962 13.03V13.515C22.0212 13.422 21.9342 13.339 21.8332 13.273ZM21.8332 11.355C21.9342 11.289 22.0212 11.205 22.0962 11.112V11.597C22.0212 11.504 21.9342 11.421 21.8332 11.355ZM21.8332 9.43602C21.9342 9.37002 22.0212 9.28701 22.0962 9.19301V9.67902C22.0212 9.58502 21.9342 9.50202 21.8332 9.43602ZM21.8332 7.51701C21.9342 7.45201 22.0212 7.36801 22.0962 7.27501V7.76001C22.0212 7.66701 21.9342 7.58301 21.8332 7.51701ZM21.8332 5.59901C21.9342 5.53301 22.0212 5.45002 22.0962 5.35602V5.84102C22.0212 5.74802 21.9342 5.66501 21.8332 5.59901ZM21.8332 3.68001C21.9342 3.61401 22.0212 3.53102 22.0962 3.43802V3.92302C22.0212 3.83002 21.9342 3.74601 21.8332 3.68001ZM20.3783 1.93501C20.3573 1.95701 20.3402 1.98101 20.3212 2.00401V1.93501H20.3783Z" fill="black" fill-opacity="0.2"/>
<path d="M22.4912 1.14502H19.9262C19.7082 1.14502 19.5312 1.32201 19.5312 1.54001V16.222C19.5312 17.147 20.2842 17.899 21.2092 17.899C22.1342 17.899 22.8862 17.147 22.8862 16.222V1.54001C22.8862 1.32201 22.7092 1.14502 22.4912 1.14502ZM22.0962 2.00401C22.0782 1.98101 22.0602 1.95701 22.0392 1.93501H22.0962V2.00401ZM21.2082 3.49301C20.7832 3.49301 20.4372 3.14701 20.4372 2.72101C20.4372 2.29601 20.7832 1.94902 21.2082 1.94902C21.6342 1.94902 21.9802 2.29601 21.9802 2.72101C21.9802 3.14701 21.6342 3.49301 21.2082 3.49301ZM21.9802 4.64001C21.9802 5.06501 21.6342 5.41101 21.2082 5.41101C20.7832 5.41101 20.4372 5.06501 20.4372 4.64001C20.4372 4.21401 20.7832 3.86801 21.2082 3.86801C21.6342 3.86801 21.9802 4.21401 21.9802 4.64001ZM21.9802 6.55801C21.9802 6.98301 21.6342 7.33002 21.2082 7.33002C20.7832 7.33002 20.4372 6.98401 20.4372 6.55801C20.4372 6.13201 20.7832 5.78601 21.2082 5.78601C21.6342 5.78601 21.9802 6.13201 21.9802 6.55801ZM21.9802 8.47702C21.9802 8.90202 21.6342 9.24901 21.2082 9.24901C20.7832 9.24901 20.4372 8.90202 20.4372 8.47702C20.4372 8.05102 20.7832 7.70502 21.2082 7.70502C21.6342 7.70502 21.9802 8.05102 21.9802 8.47702ZM21.9802 10.395C21.9802 10.821 21.6342 11.167 21.2082 11.167C20.7832 11.167 20.4372 10.821 20.4372 10.395C20.4372 9.97002 20.7832 9.62401 21.2082 9.62401C21.6342 9.62401 21.9802 9.97002 21.9802 10.395ZM21.9802 12.314C21.9802 12.739 21.6342 13.085 21.2082 13.085C20.7832 13.085 20.4372 12.739 20.4372 12.314C20.4372 11.888 20.7832 11.542 21.2082 11.542C21.6342 11.542 21.9802 11.888 21.9802 12.314ZM21.9802 14.232C21.9802 14.658 21.6342 15.004 21.2082 15.004C20.7832 15.004 20.4372 14.658 20.4372 14.232C20.4372 13.807 20.7832 13.46 21.2082 13.46C21.6342 13.46 21.9802 13.807 21.9802 14.232ZM21.9802 16.151C21.9802 16.576 21.6342 16.922 21.2082 16.922C20.7832 16.922 20.4372 16.576 20.4372 16.151C20.4372 15.725 20.7832 15.379 21.2082 15.379C21.6342 15.379 21.9802 15.725 21.9802 16.151ZM20.5842 3.68001C20.4832 3.74601 20.3972 3.82902 20.3212 3.92302V3.43802C20.3972 3.53102 20.4832 3.61401 20.5842 3.68001ZM20.5842 5.59901C20.4832 5.66501 20.3972 5.74802 20.3212 5.84102V5.35602C20.3972 5.45002 20.4832 5.53301 20.5842 5.59901ZM20.5842 7.51701C20.4832 7.58301 20.3972 7.66701 20.3212 7.76001V7.27501C20.3972 7.36801 20.4832 7.45201 20.5842 7.51701ZM20.5842 9.43602C20.4832 9.50202 20.3972 9.58501 20.3212 9.67801V9.19301C20.3972 9.28701 20.4832 9.37002 20.5842 9.43602ZM20.5842 11.355C20.4832 11.421 20.3972 11.504 20.3212 11.597V11.112C20.3972 11.205 20.4832 11.289 20.5842 11.355ZM20.5842 13.273C20.4832 13.339 20.3972 13.422 20.3212 13.515V13.03C20.3972 13.124 20.4832 13.207 20.5842 13.273ZM20.5842 15.191C20.4832 15.257 20.3972 15.341 20.3212 15.434V14.949C20.3972 15.042 20.4832 15.125 20.5842 15.191ZM21.8332 15.191C21.9342 15.125 22.0212 15.042 22.0962 14.949V15.434C22.0212 15.341 21.9342 15.257 21.8332 15.191ZM21.8332 13.273C21.9342 13.207 22.0212 13.124 22.0962 13.03V13.515C22.0212 13.422 21.9342 13.339 21.8332 13.273ZM21.8332 11.355C21.9342 11.289 22.0212 11.205 22.0962 11.112V11.597C22.0212 11.504 21.9342 11.421 21.8332 11.355ZM21.8332 9.43602C21.9342 9.37002 22.0212 9.28701 22.0962 9.19301V9.67902C22.0212 9.58502 21.9342 9.50202 21.8332 9.43602ZM21.8332 7.51701C21.9342 7.45201 22.0212 7.36801 22.0962 7.27501V7.76001C22.0212 7.66701 21.9342 7.58301 21.8332 7.51701ZM21.8332 5.59901C21.9342 5.53301 22.0212 5.45002 22.0962 5.35602V5.84102C22.0212 5.74802 21.9342 5.66501 21.8332 5.59901ZM21.8332 3.68001C21.9342 3.61401 22.0212 3.53102 22.0962 3.43802V3.92302C22.0212 3.83002 21.9342 3.74601 21.8332 3.68001ZM20.3783 1.93501C20.3573 1.95701 20.3402 1.98101 20.3212 2.00401V1.93501H20.3783Z" fill="black" fill-opacity="0.2"/>
<path d="M22.4912 1.14502H19.9262C19.7082 1.14502 19.5312 1.32201 19.5312 1.54001V16.222C19.5312 17.147 20.2842 17.899 21.2092 17.899C22.1342 17.899 22.8862 17.147 22.8862 16.222V1.54001C22.8862 1.32201 22.7092 1.14502 22.4912 1.14502ZM22.0962 2.00401C22.0782 1.98101 22.0602 1.95701 22.0392 1.93501H22.0962V2.00401ZM21.2082 3.49301C20.7832 3.49301 20.4372 3.14701 20.4372 2.72101C20.4372 2.29601 20.7832 1.94902 21.2082 1.94902C21.6342 1.94902 21.9802 2.29601 21.9802 2.72101C21.9802 3.14701 21.6342 3.49301 21.2082 3.49301ZM21.9802 4.64001C21.9802 5.06501 21.6342 5.41101 21.2082 5.41101C20.7832 5.41101 20.4372 5.06501 20.4372 4.64001C20.4372 4.21401 20.7832 3.86801 21.2082 3.86801C21.6342 3.86801 21.9802 4.21401 21.9802 4.64001ZM21.9802 6.55801C21.9802 6.98301 21.6342 7.33002 21.2082 7.33002C20.7832 7.33002 20.4372 6.98401 20.4372 6.55801C20.4372 6.13201 20.7832 5.78601 21.2082 5.78601C21.6342 5.78601 21.9802 6.13201 21.9802 6.55801ZM21.9802 8.47702C21.9802 8.90202 21.6342 9.24901 21.2082 9.24901C20.7832 9.24901 20.4372 8.90202 20.4372 8.47702C20.4372 8.05102 20.7832 7.70502 21.2082 7.70502C21.6342 7.70502 21.9802 8.05102 21.9802 8.47702ZM21.9802 10.395C21.9802 10.821 21.6342 11.167 21.2082 11.167C20.7832 11.167 20.4372 10.821 20.4372 10.395C20.4372 9.97002 20.7832 9.62401 21.2082 9.62401C21.6342 9.62401 21.9802 9.97002 21.9802 10.395ZM21.9802 12.314C21.9802 12.739 21.6342 13.085 21.2082 13.085C20.7832 13.085 20.4372 12.739 20.4372 12.314C20.4372 11.888 20.7832 11.542 21.2082 11.542C21.6342 11.542 21.9802 11.888 21.9802 12.314ZM21.9802 14.232C21.9802 14.658 21.6342 15.004 21.2082 15.004C20.7832 15.004 20.4372 14.658 20.4372 14.232C20.4372 13.807 20.7832 13.46 21.2082 13.46C21.6342 13.46 21.9802 13.807 21.9802 14.232ZM21.9802 16.151C21.9802 16.576 21.6342 16.922 21.2082 16.922C20.7832 16.922 20.4372 16.576 20.4372 16.151C20.4372 15.725 20.7832 15.379 21.2082 15.379C21.6342 15.379 21.9802 15.725 21.9802 16.151ZM20.5842 3.68001C20.4832 3.74601 20.3972 3.82902 20.3212 3.92302V3.43802C20.3972 3.53102 20.4832 3.61401 20.5842 3.68001ZM20.5842 5.59901C20.4832 5.66501 20.3972 5.74802 20.3212 5.84102V5.35602C20.3972 5.45002 20.4832 5.53301 20.5842 5.59901ZM20.5842 7.51701C20.4832 7.58301 20.3972 7.66701 20.3212 7.76001V7.27501C20.3972 7.36801 20.4832 7.45201 20.5842 7.51701ZM20.5842 9.43602C20.4832 9.50202 20.3972 9.58501 20.3212 9.67801V9.19301C20.3972 9.28701 20.4832 9.37002 20.5842 9.43602ZM20.5842 11.355C20.4832 11.421 20.3972 11.504 20.3212 11.597V11.112C20.3972 11.205 20.4832 11.289 20.5842 11.355ZM20.5842 13.273C20.4832 13.339 20.3972 13.422 20.3212 13.515V13.03C20.3972 13.124 20.4832 13.207 20.5842 13.273ZM20.5842 15.191C20.4832 15.257 20.3972 15.341 20.3212 15.434V14.949C20.3972 15.042 20.4832 15.125 20.5842 15.191ZM21.8332 15.191C21.9342 15.125 22.0212 15.042 22.0962 14.949V15.434C22.0212 15.341 21.9342 15.257 21.8332 15.191ZM21.8332 13.273C21.9342 13.207 22.0212 13.124 22.0962 13.03V13.515C22.0212 13.422 21.9342 13.339 21.8332 13.273ZM21.8332 11.355C21.9342 11.289 22.0212 11.205 22.0962 11.112V11.597C22.0212 11.504 21.9342 11.421 21.8332 11.355ZM21.8332 9.43602C21.9342 9.37002 22.0212 9.28701 22.0962 9.19301V9.67902C22.0212 9.58502 21.9342 9.50202 21.8332 9.43602ZM21.8332 7.51701C21.9342 7.45201 22.0212 7.36801 22.0962 7.27501V7.76001C22.0212 7.66701 21.9342 7.58301 21.8332 7.51701ZM21.8332 5.59901C21.9342 5.53301 22.0212 5.45002 22.0962 5.35602V5.84102C22.0212 5.74802 21.9342 5.66501 21.8332 5.59901ZM21.8332 3.68001C21.9342 3.61401 22.0212 3.53102 22.0962 3.43802V3.92302C22.0212 3.83002 21.9342 3.74601 21.8332 3.68001ZM20.3783 1.93501C20.3573 1.95701 20.3402 1.98101 20.3212 2.00401V1.93501H20.3783Z" fill="black" fill-opacity="0.2"/>
<path d="M22.4912 1.14502H19.9262C19.7082 1.14502 19.5312 1.32201 19.5312 1.54001V16.222C19.5312 17.147 20.2842 17.899 21.2092 17.899C22.1342 17.899 22.8862 17.147 22.8862 16.222V1.54001C22.8862 1.32201 22.7092 1.14502 22.4912 1.14502ZM22.0962 2.00401C22.0782 1.98101 22.0602 1.95701 22.0392 1.93501H22.0962V2.00401ZM21.2082 3.49301C20.7832 3.49301 20.4372 3.14701 20.4372 2.72101C20.4372 2.29601 20.7832 1.94902 21.2082 1.94902C21.6342 1.94902 21.9802 2.29601 21.9802 2.72101C21.9802 3.14701 21.6342 3.49301 21.2082 3.49301ZM21.9802 4.64001C21.9802 5.06501 21.6342 5.41101 21.2082 5.41101C20.7832 5.41101 20.4372 5.06501 20.4372 4.64001C20.4372 4.21401 20.7832 3.86801 21.2082 3.86801C21.6342 3.86801 21.9802 4.21401 21.9802 4.64001ZM21.9802 6.55801C21.9802 6.98301 21.6342 7.33002 21.2082 7.33002C20.7832 7.33002 20.4372 6.98401 20.4372 6.55801C20.4372 6.13201 20.7832 5.78601 21.2082 5.78601C21.6342 5.78601 21.9802 6.13201 21.9802 6.55801ZM21.9802 8.47702C21.9802 8.90202 21.6342 9.24901 21.2082 9.24901C20.7832 9.24901 20.4372 8.90202 20.4372 8.47702C20.4372 8.05102 20.7832 7.70502 21.2082 7.70502C21.6342 7.70502 21.9802 8.05102 21.9802 8.47702ZM21.9802 10.395C21.9802 10.821 21.6342 11.167 21.2082 11.167C20.7832 11.167 20.4372 10.821 20.4372 10.395C20.4372 9.97002 20.7832 9.62401 21.2082 9.62401C21.6342 9.62401 21.9802 9.97002 21.9802 10.395ZM21.9802 12.314C21.9802 12.739 21.6342 13.085 21.2082 13.085C20.7832 13.085 20.4372 12.739 20.4372 12.314C20.4372 11.888 20.7832 11.542 21.2082 11.542C21.6342 11.542 21.9802 11.888 21.9802 12.314ZM21.9802 14.232C21.9802 14.658 21.6342 15.004 21.2082 15.004C20.7832 15.004 20.4372 14.658 20.4372 14.232C20.4372 13.807 20.7832 13.46 21.2082 13.46C21.6342 13.46 21.9802 13.807 21.9802 14.232ZM21.9802 16.151C21.9802 16.576 21.6342 16.922 21.2082 16.922C20.7832 16.922 20.4372 16.576 20.4372 16.151C20.4372 15.725 20.7832 15.379 21.2082 15.379C21.6342 15.379 21.9802 15.725 21.9802 16.151ZM20.5842 3.68001C20.4832 3.74601 20.3972 3.82902 20.3212 3.92302V3.43802C20.3972 3.53102 20.4832 3.61401 20.5842 3.68001ZM20.5842 5.59901C20.4832 5.66501 20.3972 5.74802 20.3212 5.84102V5.35602C20.3972 5.45002 20.4832 5.53301 20.5842 5.59901ZM20.5842 7.51701C20.4832 7.58301 20.3972 7.66701 20.3212 7.76001V7.27501C20.3972 7.36801 20.4832 7.45201 20.5842 7.51701ZM20.5842 9.43602C20.4832 9.50202 20.3972 9.58501 20.3212 9.67801V9.19301C20.3972 9.28701 20.4832 9.37002 20.5842 9.43602ZM20.5842 11.355C20.4832 11.421 20.3972 11.504 20.3212 11.597V11.112C20.3972 11.205 20.4832 11.289 20.5842 11.355ZM20.5842 13.273C20.4832 13.339 20.3972 13.422 20.3212 13.515V13.03C20.3972 13.124 20.4832 13.207 20.5842 13.273ZM20.5842 15.191C20.4832 15.257 20.3972 15.341 20.3212 15.434V14.949C20.3972 15.042 20.4832 15.125 20.5842 15.191ZM21.8332 15.191C21.9342 15.125 22.0212 15.042 22.0962 14.949V15.434C22.0212 15.341 21.9342 15.257 21.8332 15.191ZM21.8332 13.273C21.9342 13.207 22.0212 13.124 22.0962 13.03V13.515C22.0212 13.422 21.9342 13.339 21.8332 13.273ZM21.8332 11.355C21.9342 11.289 22.0212 11.205 22.0962 11.112V11.597C22.0212 11.504 21.9342 11.421 21.8332 11.355ZM21.8332 9.43602C21.9342 9.37002 22.0212 9.28701 22.0962 9.19301V9.67902C22.0212 9.58502 21.9342 9.50202 21.8332 9.43602ZM21.8332 7.51701C21.9342 7.45201 22.0212 7.36801 22.0962 7.27501V7.76001C22.0212 7.66701 21.9342 7.58301 21.8332 7.51701ZM21.8332 5.59901C21.9342 5.53301 22.0212 5.45002 22.0962 5.35602V5.84102C22.0212 5.74802 21.9342 5.66501 21.8332 5.59901ZM21.8332 3.68001C21.9342 3.61401 22.0212 3.53102 22.0962 3.43802V3.92302C22.0212 3.83002 21.9342 3.74601 21.8332 3.68001ZM20.3783 1.93501C20.3573 1.95701 20.3402 1.98101 20.3212 2.00401V1.93501H20.3783Z" fill="black" fill-opacity="0.2"/>
<path d="M22.4912 1.14502H19.9262C19.7082 1.14502 19.5312 1.32201 19.5312 1.54001V16.222C19.5312 17.147 20.2842 17.899 21.2092 17.899C22.1342 17.899 22.8862 17.147 22.8862 16.222V1.54001C22.8862 1.32201 22.7092 1.14502 22.4912 1.14502ZM22.0962 2.00401C22.0782 1.98101 22.0602 1.95701 22.0392 1.93501H22.0962V2.00401ZM21.2082 3.49301C20.7832 3.49301 20.4372 3.14701 20.4372 2.72101C20.4372 2.29601 20.7832 1.94902 21.2082 1.94902C21.6342 1.94902 21.9802 2.29601 21.9802 2.72101C21.9802 3.14701 21.6342 3.49301 21.2082 3.49301ZM21.9802 4.64001C21.9802 5.06501 21.6342 5.41101 21.2082 5.41101C20.7832 5.41101 20.4372 5.06501 20.4372 4.64001C20.4372 4.21401 20.7832 3.86801 21.2082 3.86801C21.6342 3.86801 21.9802 4.21401 21.9802 4.64001ZM21.9802 6.55801C21.9802 6.98301 21.6342 7.33002 21.2082 7.33002C20.7832 7.33002 20.4372 6.98401 20.4372 6.55801C20.4372 6.13201 20.7832 5.78601 21.2082 5.78601C21.6342 5.78601 21.9802 6.13201 21.9802 6.55801ZM21.9802 8.47702C21.9802 8.90202 21.6342 9.24901 21.2082 9.24901C20.7832 9.24901 20.4372 8.90202 20.4372 8.47702C20.4372 8.05102 20.7832 7.70502 21.2082 7.70502C21.6342 7.70502 21.9802 8.05102 21.9802 8.47702ZM21.9802 10.395C21.9802 10.821 21.6342 11.167 21.2082 11.167C20.7832 11.167 20.4372 10.821 20.4372 10.395C20.4372 9.97002 20.7832 9.62401 21.2082 9.62401C21.6342 9.62401 21.9802 9.97002 21.9802 10.395ZM21.9802 12.314C21.9802 12.739 21.6342 13.085 21.2082 13.085C20.7832 13.085 20.4372 12.739 20.4372 12.314C20.4372 11.888 20.7832 11.542 21.2082 11.542C21.6342 11.542 21.9802 11.888 21.9802 12.314ZM21.9802 14.232C21.9802 14.658 21.6342 15.004 21.2082 15.004C20.7832 15.004 20.4372 14.658 20.4372 14.232C20.4372 13.807 20.7832 13.46 21.2082 13.46C21.6342 13.46 21.9802 13.807 21.9802 14.232ZM21.9802 16.151C21.9802 16.576 21.6342 16.922 21.2082 16.922C20.7832 16.922 20.4372 16.576 20.4372 16.151C20.4372 15.725 20.7832 15.379 21.2082 15.379C21.6342 15.379 21.9802 15.725 21.9802 16.151ZM20.5842 3.68001C20.4832 3.74601 20.3972 3.82902 20.3212 3.92302V3.43802C20.3972 3.53102 20.4832 3.61401 20.5842 3.68001ZM20.5842 5.59901C20.4832 5.66501 20.3972 5.74802 20.3212 5.84102V5.35602C20.3972 5.45002 20.4832 5.53301 20.5842 5.59901ZM20.5842 7.51701C20.4832 7.58301 20.3972 7.66701 20.3212 7.76001V7.27501C20.3972 7.36801 20.4832 7.45201 20.5842 7.51701ZM20.5842 9.43602C20.4832 9.50202 20.3972 9.58501 20.3212 9.67801V9.19301C20.3972 9.28701 20.4832 9.37002 20.5842 9.43602ZM20.5842 11.355C20.4832 11.421 20.3972 11.504 20.3212 11.597V11.112C20.3972 11.205 20.4832 11.289 20.5842 11.355ZM20.5842 13.273C20.4832 13.339 20.3972 13.422 20.3212 13.515V13.03C20.3972 13.124 20.4832 13.207 20.5842 13.273ZM20.5842 15.191C20.4832 15.257 20.3972 15.341 20.3212 15.434V14.949C20.3972 15.042 20.4832 15.125 20.5842 15.191ZM21.8332 15.191C21.9342 15.125 22.0212 15.042 22.0962 14.949V15.434C22.0212 15.341 21.9342 15.257 21.8332 15.191ZM21.8332 13.273C21.9342 13.207 22.0212 13.124 22.0962 13.03V13.515C22.0212 13.422 21.9342 13.339 21.8332 13.273ZM21.8332 11.355C21.9342 11.289 22.0212 11.205 22.0962 11.112V11.597C22.0212 11.504 21.9342 11.421 21.8332 11.355ZM21.8332 9.43602C21.9342 9.37002 22.0212 9.28701 22.0962 9.19301V9.67902C22.0212 9.58502 21.9342 9.50202 21.8332 9.43602ZM21.8332 7.51701C21.9342 7.45201 22.0212 7.36801 22.0962 7.27501V7.76001C22.0212 7.66701 21.9342 7.58301 21.8332 7.51701ZM21.8332 5.59901C21.9342 5.53301 22.0212 5.45002 22.0962 5.35602V5.84102C22.0212 5.74802 21.9342 5.66501 21.8332 5.59901ZM21.8332 3.68001C21.9342 3.61401 22.0212 3.53102 22.0962 3.43802V3.92302C22.0212 3.83002 21.9342 3.74601 21.8332 3.68001ZM20.3783 1.93501C20.3573 1.95701 20.3402 1.98101 20.3212 2.00401V1.93501H20.3783Z" fill="black" fill-opacity="0.2"/>
</g>
<g id="Vector_2">
<path d="M9.61139 0.964083C9.49939 0.933083 9.3774 0.95508 9.2834 1.02608C9.1904 1.09708 9.13539 1.20708 9.13539 1.32508V2.13008H6.4124V1.32508C6.4124 1.20708 6.3574 1.09708 6.2644 1.02608C6.1694 0.95408 6.04839 0.933083 5.93539 0.964083C2.52939 1.92508 0.150391 5.39507 0.150391 9.40207C0.150391 14.1951 3.5684 18.0951 7.7704 18.0951C11.9764 18.0951 15.3984 14.1951 15.3984 9.40207C15.3984 5.39507 13.0184 1.92408 9.61139 0.964083ZM6.19839 4.47608C6.32939 4.41408 6.4124 4.28207 6.4124 4.13707V2.88008H9.13539V4.13707C9.13539 4.28107 9.21739 4.41208 9.34639 4.47508C11.0094 5.27708 12.0834 7.20808 12.0834 9.39508C12.0834 12.3151 10.1484 14.6901 7.7704 14.6901C5.3964 14.6901 3.46539 12.3151 3.46539 9.39508C3.46539 7.23108 4.56439 5.25408 6.19839 4.47608ZM7.7704 17.3451C3.9824 17.3451 0.900391 13.7821 0.900391 9.40207C0.900391 5.92107 2.8344 2.88908 5.6624 1.84108V3.90708C3.8644 4.87908 2.71539 7.00308 2.71539 9.39508C2.71539 12.7281 4.9834 15.4401 7.7704 15.4401C10.5614 15.4401 12.8334 12.7281 12.8334 9.39508C12.8334 7.01408 11.6834 4.89008 9.88539 3.90808V1.84108C12.7134 2.88908 14.6484 5.92107 14.6484 9.40207C14.6484 13.7821 11.5634 17.3451 7.7704 17.3451Z" fill="#333335"/>
<path d="M9.61139 0.964083C9.49939 0.933083 9.3774 0.95508 9.2834 1.02608C9.1904 1.09708 9.13539 1.20708 9.13539 1.32508V2.13008H6.4124V1.32508C6.4124 1.20708 6.3574 1.09708 6.2644 1.02608C6.1694 0.95408 6.04839 0.933083 5.93539 0.964083C2.52939 1.92508 0.150391 5.39507 0.150391 9.40207C0.150391 14.1951 3.5684 18.0951 7.7704 18.0951C11.9764 18.0951 15.3984 14.1951 15.3984 9.40207C15.3984 5.39507 13.0184 1.92408 9.61139 0.964083ZM6.19839 4.47608C6.32939 4.41408 6.4124 4.28207 6.4124 4.13707V2.88008H9.13539V4.13707C9.13539 4.28107 9.21739 4.41208 9.34639 4.47508C11.0094 5.27708 12.0834 7.20808 12.0834 9.39508C12.0834 12.3151 10.1484 14.6901 7.7704 14.6901C5.3964 14.6901 3.46539 12.3151 3.46539 9.39508C3.46539 7.23108 4.56439 5.25408 6.19839 4.47608ZM7.7704 17.3451C3.9824 17.3451 0.900391 13.7821 0.900391 9.40207C0.900391 5.92107 2.8344 2.88908 5.6624 1.84108V3.90708C3.8644 4.87908 2.71539 7.00308 2.71539 9.39508C2.71539 12.7281 4.9834 15.4401 7.7704 15.4401C10.5614 15.4401 12.8334 12.7281 12.8334 9.39508C12.8334 7.01408 11.6834 4.89008 9.88539 3.90808V1.84108C12.7134 2.88908 14.6484 5.92107 14.6484 9.40207C14.6484 13.7821 11.5634 17.3451 7.7704 17.3451Z" fill="black" fill-opacity="0.2"/>
<path d="M9.61139 0.964083C9.49939 0.933083 9.3774 0.95508 9.2834 1.02608C9.1904 1.09708 9.13539 1.20708 9.13539 1.32508V2.13008H6.4124V1.32508C6.4124 1.20708 6.3574 1.09708 6.2644 1.02608C6.1694 0.95408 6.04839 0.933083 5.93539 0.964083C2.52939 1.92508 0.150391 5.39507 0.150391 9.40207C0.150391 14.1951 3.5684 18.0951 7.7704 18.0951C11.9764 18.0951 15.3984 14.1951 15.3984 9.40207C15.3984 5.39507 13.0184 1.92408 9.61139 0.964083ZM6.19839 4.47608C6.32939 4.41408 6.4124 4.28207 6.4124 4.13707V2.88008H9.13539V4.13707C9.13539 4.28107 9.21739 4.41208 9.34639 4.47508C11.0094 5.27708 12.0834 7.20808 12.0834 9.39508C12.0834 12.3151 10.1484 14.6901 7.7704 14.6901C5.3964 14.6901 3.46539 12.3151 3.46539 9.39508C3.46539 7.23108 4.56439 5.25408 6.19839 4.47608ZM7.7704 17.3451C3.9824 17.3451 0.900391 13.7821 0.900391 9.40207C0.900391 5.92107 2.8344 2.88908 5.6624 1.84108V3.90708C3.8644 4.87908 2.71539 7.00308 2.71539 9.39508C2.71539 12.7281 4.9834 15.4401 7.7704 15.4401C10.5614 15.4401 12.8334 12.7281 12.8334 9.39508C12.8334 7.01408 11.6834 4.89008 9.88539 3.90808V1.84108C12.7134 2.88908 14.6484 5.92107 14.6484 9.40207C14.6484 13.7821 11.5634 17.3451 7.7704 17.3451Z" fill="black" fill-opacity="0.2"/>
<path d="M9.61139 0.964083C9.49939 0.933083 9.3774 0.95508 9.2834 1.02608C9.1904 1.09708 9.13539 1.20708 9.13539 1.32508V2.13008H6.4124V1.32508C6.4124 1.20708 6.3574 1.09708 6.2644 1.02608C6.1694 0.95408 6.04839 0.933083 5.93539 0.964083C2.52939 1.92508 0.150391 5.39507 0.150391 9.40207C0.150391 14.1951 3.5684 18.0951 7.7704 18.0951C11.9764 18.0951 15.3984 14.1951 15.3984 9.40207C15.3984 5.39507 13.0184 1.92408 9.61139 0.964083ZM6.19839 4.47608C6.32939 4.41408 6.4124 4.28207 6.4124 4.13707V2.88008H9.13539V4.13707C9.13539 4.28107 9.21739 4.41208 9.34639 4.47508C11.0094 5.27708 12.0834 7.20808 12.0834 9.39508C12.0834 12.3151 10.1484 14.6901 7.7704 14.6901C5.3964 14.6901 3.46539 12.3151 3.46539 9.39508C3.46539 7.23108 4.56439 5.25408 6.19839 4.47608ZM7.7704 17.3451C3.9824 17.3451 0.900391 13.7821 0.900391 9.40207C0.900391 5.92107 2.8344 2.88908 5.6624 1.84108V3.90708C3.8644 4.87908 2.71539 7.00308 2.71539 9.39508C2.71539 12.7281 4.9834 15.4401 7.7704 15.4401C10.5614 15.4401 12.8334 12.7281 12.8334 9.39508C12.8334 7.01408 11.6834 4.89008 9.88539 3.90808V1.84108C12.7134 2.88908 14.6484 5.92107 14.6484 9.40207C14.6484 13.7821 11.5634 17.3451 7.7704 17.3451Z" fill="black" fill-opacity="0.2"/>
<path d="M9.61139 0.964083C9.49939 0.933083 9.3774 0.95508 9.2834 1.02608C9.1904 1.09708 9.13539 1.20708 9.13539 1.32508V2.13008H6.4124V1.32508C6.4124 1.20708 6.3574 1.09708 6.2644 1.02608C6.1694 0.95408 6.04839 0.933083 5.93539 0.964083C2.52939 1.92508 0.150391 5.39507 0.150391 9.40207C0.150391 14.1951 3.5684 18.0951 7.7704 18.0951C11.9764 18.0951 15.3984 14.1951 15.3984 9.40207C15.3984 5.39507 13.0184 1.92408 9.61139 0.964083ZM6.19839 4.47608C6.32939 4.41408 6.4124 4.28207 6.4124 4.13707V2.88008H9.13539V4.13707C9.13539 4.28107 9.21739 4.41208 9.34639 4.47508C11.0094 5.27708 12.0834 7.20808 12.0834 9.39508C12.0834 12.3151 10.1484 14.6901 7.7704 14.6901C5.3964 14.6901 3.46539 12.3151 3.46539 9.39508C3.46539 7.23108 4.56439 5.25408 6.19839 4.47608ZM7.7704 17.3451C3.9824 17.3451 0.900391 13.7821 0.900391 9.40207C0.900391 5.92107 2.8344 2.88908 5.6624 1.84108V3.90708C3.8644 4.87908 2.71539 7.00308 2.71539 9.39508C2.71539 12.7281 4.9834 15.4401 7.7704 15.4401C10.5614 15.4401 12.8334 12.7281 12.8334 9.39508C12.8334 7.01408 11.6834 4.89008 9.88539 3.90808V1.84108C12.7134 2.88908 14.6484 5.92107 14.6484 9.40207C14.6484 13.7821 11.5634 17.3451 7.7704 17.3451Z" fill="black" fill-opacity="0.2"/>
<path d="M9.61139 0.964083C9.49939 0.933083 9.3774 0.95508 9.2834 1.02608C9.1904 1.09708 9.13539 1.20708 9.13539 1.32508V2.13008H6.4124V1.32508C6.4124 1.20708 6.3574 1.09708 6.2644 1.02608C6.1694 0.95408 6.04839 0.933083 5.93539 0.964083C2.52939 1.92508 0.150391 5.39507 0.150391 9.40207C0.150391 14.1951 3.5684 18.0951 7.7704 18.0951C11.9764 18.0951 15.3984 14.1951 15.3984 9.40207C15.3984 5.39507 13.0184 1.92408 9.61139 0.964083ZM6.19839 4.47608C6.32939 4.41408 6.4124 4.28207 6.4124 4.13707V2.88008H9.13539V4.13707C9.13539 4.28107 9.21739 4.41208 9.34639 4.47508C11.0094 5.27708 12.0834 7.20808 12.0834 9.39508C12.0834 12.3151 10.1484 14.6901 7.7704 14.6901C5.3964 14.6901 3.46539 12.3151 3.46539 9.39508C3.46539 7.23108 4.56439 5.25408 6.19839 4.47608ZM7.7704 17.3451C3.9824 17.3451 0.900391 13.7821 0.900391 9.40207C0.900391 5.92107 2.8344 2.88908 5.6624 1.84108V3.90708C3.8644 4.87908 2.71539 7.00308 2.71539 9.39508C2.71539 12.7281 4.9834 15.4401 7.7704 15.4401C10.5614 15.4401 12.8334 12.7281 12.8334 9.39508C12.8334 7.01408 11.6834 4.89008 9.88539 3.90808V1.84108C12.7134 2.88908 14.6484 5.92107 14.6484 9.40207C14.6484 13.7821 11.5634 17.3451 7.7704 17.3451Z" fill="black" fill-opacity="0.2"/>
<path d="M9.61139 0.964083C9.49939 0.933083 9.3774 0.95508 9.2834 1.02608C9.1904 1.09708 9.13539 1.20708 9.13539 1.32508V2.13008H6.4124V1.32508C6.4124 1.20708 6.3574 1.09708 6.2644 1.02608C6.1694 0.95408 6.04839 0.933083 5.93539 0.964083C2.52939 1.92508 0.150391 5.39507 0.150391 9.40207C0.150391 14.1951 3.5684 18.0951 7.7704 18.0951C11.9764 18.0951 15.3984 14.1951 15.3984 9.40207C15.3984 5.39507 13.0184 1.92408 9.61139 0.964083ZM6.19839 4.47608C6.32939 4.41408 6.4124 4.28207 6.4124 4.13707V2.88008H9.13539V4.13707C9.13539 4.28107 9.21739 4.41208 9.34639 4.47508C11.0094 5.27708 12.0834 7.20808 12.0834 9.39508C12.0834 12.3151 10.1484 14.6901 7.7704 14.6901C5.3964 14.6901 3.46539 12.3151 3.46539 9.39508C3.46539 7.23108 4.56439 5.25408 6.19839 4.47608ZM7.7704 17.3451C3.9824 17.3451 0.900391 13.7821 0.900391 9.40207C0.900391 5.92107 2.8344 2.88908 5.6624 1.84108V3.90708C3.8644 4.87908 2.71539 7.00308 2.71539 9.39508C2.71539 12.7281 4.9834 15.4401 7.7704 15.4401C10.5614 15.4401 12.8334 12.7281 12.8334 9.39508C12.8334 7.01408 11.6834 4.89008 9.88539 3.90808V1.84108C12.7134 2.88908 14.6484 5.92107 14.6484 9.40207C14.6484 13.7821 11.5634 17.3451 7.7704 17.3451Z" fill="black" fill-opacity="0.2"/>
<path d="M9.61139 0.964083C9.49939 0.933083 9.3774 0.95508 9.2834 1.02608C9.1904 1.09708 9.13539 1.20708 9.13539 1.32508V2.13008H6.4124V1.32508C6.4124 1.20708 6.3574 1.09708 6.2644 1.02608C6.1694 0.95408 6.04839 0.933083 5.93539 0.964083C2.52939 1.92508 0.150391 5.39507 0.150391 9.40207C0.150391 14.1951 3.5684 18.0951 7.7704 18.0951C11.9764 18.0951 15.3984 14.1951 15.3984 9.40207C15.3984 5.39507 13.0184 1.92408 9.61139 0.964083ZM6.19839 4.47608C6.32939 4.41408 6.4124 4.28207 6.4124 4.13707V2.88008H9.13539V4.13707C9.13539 4.28107 9.21739 4.41208 9.34639 4.47508C11.0094 5.27708 12.0834 7.20808 12.0834 9.39508C12.0834 12.3151 10.1484 14.6901 7.7704 14.6901C5.3964 14.6901 3.46539 12.3151 3.46539 9.39508C3.46539 7.23108 4.56439 5.25408 6.19839 4.47608ZM7.7704 17.3451C3.9824 17.3451 0.900391 13.7821 0.900391 9.40207C0.900391 5.92107 2.8344 2.88908 5.6624 1.84108V3.90708C3.8644 4.87908 2.71539 7.00308 2.71539 9.39508C2.71539 12.7281 4.9834 15.4401 7.7704 15.4401C10.5614 15.4401 12.8334 12.7281 12.8334 9.39508C12.8334 7.01408 11.6834 4.89008 9.88539 3.90808V1.84108C12.7134 2.88908 14.6484 5.92107 14.6484 9.40207C14.6484 13.7821 11.5634 17.3451 7.7704 17.3451Z" fill="black" fill-opacity="0.2"/>
<path d="M9.61139 0.964083C9.49939 0.933083 9.3774 0.95508 9.2834 1.02608C9.1904 1.09708 9.13539 1.20708 9.13539 1.32508V2.13008H6.4124V1.32508C6.4124 1.20708 6.3574 1.09708 6.2644 1.02608C6.1694 0.95408 6.04839 0.933083 5.93539 0.964083C2.52939 1.92508 0.150391 5.39507 0.150391 9.40207C0.150391 14.1951 3.5684 18.0951 7.7704 18.0951C11.9764 18.0951 15.3984 14.1951 15.3984 9.40207C15.3984 5.39507 13.0184 1.92408 9.61139 0.964083ZM6.19839 4.47608C6.32939 4.41408 6.4124 4.28207 6.4124 4.13707V2.88008H9.13539V4.13707C9.13539 4.28107 9.21739 4.41208 9.34639 4.47508C11.0094 5.27708 12.0834 7.20808 12.0834 9.39508C12.0834 12.3151 10.1484 14.6901 7.7704 14.6901C5.3964 14.6901 3.46539 12.3151 3.46539 9.39508C3.46539 7.23108 4.56439 5.25408 6.19839 4.47608ZM7.7704 17.3451C3.9824 17.3451 0.900391 13.7821 0.900391 9.40207C0.900391 5.92107 2.8344 2.88908 5.6624 1.84108V3.90708C3.8644 4.87908 2.71539 7.00308 2.71539 9.39508C2.71539 12.7281 4.9834 15.4401 7.7704 15.4401C10.5614 15.4401 12.8334 12.7281 12.8334 9.39508C12.8334 7.01408 11.6834 4.89008 9.88539 3.90808V1.84108C12.7134 2.88908 14.6484 5.92107 14.6484 9.40207C14.6484 13.7821 11.5634 17.3451 7.7704 17.3451Z" fill="black" fill-opacity="0.2"/>
</g>
</g>
</svg>
