<svg width="100" height="100" viewBox="0 0 100 100" fill="none" xmlns="http://www.w3.org/2000/svg">
<path d="M61.5 21H39.5L34 26.5L42.8653 38C44.5769 37.6667 48.5 37 50.5 37C52.5 37 56.3333 37.6667 58 38L66.5 26.5L61.5 21Z" fill="#CCD0D4"/>
<path d="M58.7519 37.3099L67.1316 26.6058C67.2517 26.4958 67.3297 26.3409 67.3297 26.1647C67.3297 25.9554 67.2236 25.7713 67.062 25.6625L61.555 20.1762C61.4417 20.0634 61.2885 20 61.1297 20L39.4306 20.0006C39.2713 20.0006 39.1175 20.064 39.0053 20.1768L33.4242 25.7376C33.3888 25.7724 33.3625 25.8133 33.3372 25.8543C33.3322 25.8622 33.3243 25.8689 33.3204 25.8768C33.2867 25.9385 33.2671 26.0053 33.2558 26.0749C33.2536 26.0939 33.2542 26.1125 33.2525 26.1321C33.2502 26.1837 33.253 26.2342 33.2637 26.2859C33.2687 26.3078 33.2727 26.3285 33.28 26.3493C33.285 26.3644 33.2856 26.3807 33.2923 26.3959C33.3103 26.4402 33.3372 26.4778 33.3641 26.5148C33.3692 26.521 33.3698 26.53 33.3754 26.5367L41.8083 37.3098C29.7815 40.9524 21 52.1359 21 65.3372C21 81.4836 34.1364 94.6189 50.2816 94.6189C66.428 94.6189 79.5632 81.4836 79.5632 65.3372C79.5632 52.1369 70.7812 40.9531 58.7535 37.3098L58.7519 37.3099ZM54.5492 36.3705L57.7845 26.7686H65.4734L57.4956 36.9575C56.5315 36.7123 55.5482 36.517 54.5493 36.3705L54.5492 36.3705ZM47.2312 36.2151L44.0482 26.7686H56.5093L53.3275 36.2145C52.3252 36.1107 51.3094 36.0557 50.2802 36.0557C49.2504 36.0557 48.2341 36.1107 47.2312 36.2151V36.2151ZM54.1725 21.2079L56.369 25.5622H44.1884L46.3872 21.2079H54.1725ZM65.2497 25.5617H57.7208L55.5244 21.2073H60.8797L65.2497 25.5617ZM39.6804 21.2079H45.0369L42.8381 25.5622H35.3108L39.6804 21.2079ZM35.0887 26.7687H42.7753L46.0106 36.3707C45.0123 36.5171 44.0291 36.7124 43.0644 36.9582L35.0887 26.7687ZM50.2812 93.4116C34.8014 93.4116 22.2064 80.8175 22.2064 65.3368C22.2064 49.8561 34.8005 37.2619 50.2812 37.2619C65.7619 37.2619 78.356 49.8561 78.356 65.3368C78.356 80.818 65.7619 93.4116 50.2812 93.4116Z" fill="#1D1F1E"/>
<path d="M50.2797 40.5117C36.5901 40.5117 25.4531 51.6486 25.4531 65.3369C25.4531 79.0265 36.59 90.1635 50.2797 90.1635C63.9695 90.1635 75.1063 79.0256 75.1063 65.3369C75.1063 51.6478 63.9695 40.5117 50.2797 40.5117ZM50.2797 88.9581C37.2551 88.9581 26.6599 78.3618 26.6599 65.3383C26.6599 52.3143 37.2551 41.7185 50.2797 41.7185C63.3032 41.7185 73.8995 52.3143 73.8995 65.3383C73.8995 78.3623 63.3032 88.9596 50.2797 88.9596V88.9581Z" fill="#1D1F1E"/>
<path d="M50.6772 4.00008C50.5875 3.99873 50.4985 4.01539 50.4154 4.04909C50.3323 4.08278 50.2568 4.13282 50.1934 4.19624C50.1299 4.25965 50.0799 4.33515 50.0462 4.41826C50.0125 4.50137 49.9958 4.5904 49.9972 4.68007V12.3701C49.9855 12.4656 49.9943 12.5625 50.0229 12.6544C50.0515 12.7463 50.0993 12.8311 50.1631 12.9032C50.2269 12.9752 50.3053 13.0329 50.393 13.0724C50.4808 13.112 50.5759 13.1324 50.6722 13.1324C50.7684 13.1324 50.8636 13.112 50.9513 13.0724C51.0391 13.0329 51.1175 12.9752 51.1813 12.9032C51.2451 12.8311 51.2929 12.7463 51.3215 12.6544C51.3501 12.5625 51.3588 12.4656 51.3472 12.3701V4.68007C51.3485 4.59125 51.3322 4.50305 51.2991 4.4206C51.266 4.33816 51.2169 4.26311 51.1545 4.19984C51.0922 4.13656 51.0179 4.08631 50.9359 4.05201C50.854 4.01772 50.766 4.00007 50.6772 4.00008Z" fill="#1D1F1E"/>
<path d="M41.0451 6.02914C41.0123 5.94641 40.9624 5.87155 40.8986 5.8095C40.8349 5.74745 40.7587 5.69962 40.6751 5.66914C40.5955 5.63731 40.5108 5.62036 40.4251 5.61914C40.3318 5.61985 40.2398 5.64029 40.1551 5.67914C39.9913 5.75153 39.8627 5.88559 39.7972 6.05222C39.7316 6.21884 39.7345 6.40459 39.8051 6.56914L42.4551 12.6391C42.5092 12.7611 42.5975 12.8647 42.7093 12.9375C42.8211 13.0102 42.9517 13.049 43.0851 13.0491C43.1783 13.0484 43.2703 13.028 43.3551 12.9891C43.5191 12.9129 43.6478 12.777 43.7151 12.6091C43.7798 12.4419 43.7798 12.2564 43.7151 12.0891L41.0451 6.02914Z" fill="#1D1F1E"/>
<path d="M29.2658 9.87063L34.9558 14.2906C35.0987 14.3817 35.2705 14.4161 35.4375 14.3871C35.6044 14.3581 35.7545 14.2678 35.8584 14.1339C35.9623 14 36.0124 13.8321 35.999 13.6632C35.9855 13.4943 35.9095 13.3364 35.7858 13.2206L30.0958 8.79063C30.026 8.7354 29.9456 8.69532 29.8595 8.67294C29.7734 8.65055 29.6836 8.64636 29.5958 8.66063C29.5078 8.67003 29.4227 8.697 29.3454 8.73995C29.2681 8.78289 29.2002 8.84094 29.1458 8.91063C29.0901 8.98133 29.049 9.06238 29.0249 9.14908C29.0008 9.23577 28.9941 9.3264 29.0053 9.4157C29.0164 9.50499 29.0452 9.59119 29.0899 9.66928C29.1346 9.74737 29.1944 9.81581 29.2658 9.87063Z" fill="#1D1F1E"/>
<path d="M60.1875 5.67926C60.1028 5.64041 60.0107 5.61996 59.9175 5.61926C59.7835 5.61677 59.6519 5.6545 59.5396 5.72759C59.4273 5.80067 59.3395 5.90575 59.2875 6.02926L56.6775 12.0893C56.6429 12.1716 56.625 12.26 56.625 12.3493C56.625 12.4386 56.6429 12.527 56.6775 12.6093C56.7073 12.6944 56.7548 12.7723 56.8169 12.8377C56.8789 12.9032 56.9541 12.9549 57.0375 12.9893C57.122 13.029 57.2142 13.0495 57.3075 13.0493C57.4398 13.0498 57.5692 13.0111 57.6796 12.9381C57.7899 12.8652 57.8762 12.7612 57.9275 12.6393L60.5375 6.54926C60.602 6.38704 60.6016 6.20623 60.5365 6.04427C60.4713 5.88232 60.3464 5.75163 60.1875 5.67926Z" fill="#1D1F1E"/>
<path d="M63.2957 13.6704C63.2829 13.7589 63.2887 13.8491 63.3128 13.9352C63.3369 14.0213 63.3788 14.1015 63.4357 14.1704C63.4973 14.2525 63.5774 14.3188 63.6695 14.364C63.7617 14.4092 63.8632 14.432 63.9658 14.4304C64.1171 14.4297 64.2642 14.3806 64.3857 14.2904L70.0758 9.87039C70.2161 9.75428 70.3086 9.5905 70.3357 9.41039C70.3549 9.23194 70.3048 9.05295 70.1958 8.91039C70.0834 8.77072 69.9229 8.67801 69.7457 8.65039H69.6757C69.5275 8.65111 69.3835 8.70027 69.2657 8.79039L63.5758 13.2204C63.4996 13.271 63.4353 13.3374 63.387 13.415C63.3387 13.4927 63.3076 13.5797 63.2957 13.6704Z" fill="#1D1F1E"/>
</svg>
