<svg width="24" height="25" viewBox="0 0 24 25" fill="none" xmlns="http://www.w3.org/2000/svg">
<path d="M15 11.0002C15 11.7959 14.6839 12.559 14.1213 13.1216C13.5587 13.6842 12.7956 14.0002 12 14.0002C11.2044 14.0002 10.4413 13.6842 9.87868 13.1216C9.31607 12.559 9 11.7959 9 11.0002C9 10.2046 9.31607 9.44153 9.87868 8.87892C10.4413 8.31631 11.2044 8.00024 12 8.00024C12.7956 8.00024 13.5587 8.31631 14.1213 8.87892C14.6839 9.44153 15 10.2046 15 11.0002Z" stroke="#333335" stroke-width="1.5" stroke-linecap="round" stroke-linejoin="round"/>
<path d="M19.5 11.0002C19.5 18.1422 12 22.2502 12 22.2502C12 22.2502 4.5 18.1422 4.5 11.0002C4.5 9.01112 5.29018 7.10347 6.6967 5.69694C8.10322 4.29042 10.0109 3.50024 12 3.50024C13.9891 3.50024 15.8968 4.29042 17.3033 5.69694C18.7098 7.10347 19.5 9.01112 19.5 11.0002Z" stroke="#333335" stroke-width="1.5" stroke-linecap="round" stroke-linejoin="round"/>
</svg>
