<svg width="100" height="100" viewBox="0 0 100 100" fill="none" xmlns="http://www.w3.org/2000/svg">
<g id="grades">
<g id="Group">
<path id="Subtract" fill-rule="evenodd" clip-rule="evenodd" d="M36.5 60.3821C36.5 67.7609 42.5026 73.7641 49.8807 73.7641C57.2589 73.7641 63.2621 67.7609 63.2628 60.3821C63.2628 53.0032 57.2589 47 49.8807 47C42.5026 47 36.5 53.0039 36.5 60.3821ZM52.9653 56.1563L58.0065 56.8887C58.3549 56.9396 58.6441 57.1836 58.7558 57.5191C58.8641 57.8533 58.7738 58.2211 58.5215 58.4669L54.8728 62.022L55.7348 67.0444C55.7941 67.3909 55.6516 67.7413 55.367 67.9484C55.2063 68.0658 55.0147 68.1252 54.8231 68.1252C54.6759 68.1252 54.5282 68.0904 54.3933 68.0187L49.8832 65.6481L45.375 68.0187C45.064 68.1833 44.6865 68.1562 44.4 67.9484C44.1155 67.7419 43.9729 67.3916 44.0322 67.0444L44.893 62.0227L41.2442 58.4663C40.9919 58.2204 40.9016 57.8526 41.01 57.5184C41.1196 57.1829 41.4087 56.939 41.7571 56.8887L46.7984 56.1563L47.9255 53.8719L49.0527 51.5875C49.363 50.9552 50.3999 50.9552 50.7109 51.5875L52.9653 56.1563Z" fill="#CCD0D4"/>
</g>
<g id="Group_2">
<path id="Vector" d="M13.9253 14.6589H85.8791L85.8789 14.6601H86.0747C86.4975 14.6601 86.8391 15.0022 86.8391 15.4245V78.9915C86.8391 79.4143 86.497 79.7559 86.0747 79.7559H58.4553H58.2945V79.9168V87.6356C58.2945 87.896 58.162 88.1385 57.9423 88.2801C57.8176 88.3594 57.6742 88.4 57.5301 88.4C57.4212 88.4 57.3127 88.3771 57.2106 88.3297L57.2104 88.3296L49.5973 84.8158L49.5299 84.7847L49.4625 84.8158L41.8485 88.3294C41.8484 88.3295 41.8482 88.3295 41.8481 88.3296C41.6106 88.4383 41.3359 88.4195 41.1164 88.2796C40.8967 88.1388 40.764 87.8962 40.764 87.6356V79.9173V79.7564H40.6031H13.9253C13.5025 79.7564 13.1609 79.4143 13.1609 78.992V15.4233C13.1609 15.0006 13.503 14.6589 13.9253 14.6589Z" stroke="white" stroke-width="0.321739"/>
<path id="Vector_2" d="M57.9963 56.8774L57.9964 56.8775C58.3448 56.9284 58.6339 57.1723 58.7455 57.5078M57.9963 56.8774L52.955 56.1451L50.7007 51.5763C50.3897 50.944 49.3528 50.944 49.0425 51.5763L46.7881 56.1451L41.7469 56.8774C41.3985 56.9278 41.1094 57.1717 40.9997 57.5072M57.9963 56.8774L57.9721 57.0365L52.9319 56.3043L52.8482 56.2921L52.8108 56.2163L50.5564 51.6475L50.5563 51.6473C50.4343 51.3991 50.1628 51.2629 49.8713 51.2629C49.5798 51.2629 49.3086 51.3991 49.1869 51.6472L49.1867 51.6475L46.9324 56.2163L46.8949 56.2921L46.8112 56.3043L41.77 57.0366L41.7699 57.0367C41.4824 57.0782 41.2435 57.2794 41.1527 57.557M57.9963 56.8774L57.9934 56.8969L57.9772 57.0083L57.9731 57.0366L57.9731 57.0366C58.2606 57.0787 58.4999 57.2799 58.5927 57.558M40.9997 57.5072C40.8913 57.8414 40.9816 58.2092 41.2339 58.455L44.8827 62.0115L44.022 67.0332M40.9997 57.5072L41.1526 57.5572C41.1526 57.5571 41.1527 57.5571 41.1527 57.557M40.9997 57.5072L41.1527 57.5568C41.1527 57.5569 41.1527 57.5569 41.1527 57.557M44.022 67.0332C43.9626 67.3803 44.1052 67.7307 44.3898 67.9372M44.022 67.0332L44.1806 67.0603M44.022 67.0332L44.1805 67.0604L44.1806 67.0603M44.3898 67.9372C44.6763 68.1449 45.0537 68.172 45.3647 68.0075L49.8729 65.6369L54.3831 68.0075C54.5179 68.0791 54.6657 68.114 54.8128 68.114C55.0045 68.114 55.1961 68.0546 55.3567 67.9372C55.6413 67.7301 55.7839 67.3797 55.7245 67.0332M44.3898 67.9372L44.4843 67.807C44.4842 67.807 44.4842 67.807 44.4842 67.807M44.3898 67.9372L44.4842 67.807M55.7245 67.0332L54.8625 62.0108L58.5113 58.4557C58.7636 58.2099 58.8539 57.8421 58.7455 57.5078M55.7245 67.0332L55.566 67.0604M55.7245 67.0332L55.566 67.0604L55.566 67.0604M58.7455 57.5078L58.5925 57.5575C58.5925 57.5576 58.5926 57.5578 58.5927 57.558M58.7455 57.5078L58.5929 57.5586C58.5928 57.5584 58.5927 57.5582 58.5927 57.558M58.5927 57.558C58.6819 57.834 58.6072 58.1376 58.399 58.3405L54.7502 61.8956L54.6896 61.9546L54.7039 62.038L55.566 67.0604M55.566 67.0604C55.615 67.3465 55.4973 67.6359 55.2621 67.8071L55.2618 67.8073C55.1296 67.9039 54.9714 67.9531 54.8128 67.9531C54.6911 67.9531 54.5694 67.9243 54.4585 67.8654L54.4579 67.8651L49.9477 65.4945L49.8729 65.4551L49.798 65.4945L45.2898 67.8651L45.2895 67.8653C45.033 68.001 44.7214 67.9789 44.4842 67.807M44.4842 67.807C44.2493 67.6365 44.1315 67.3472 44.1806 67.0603M44.1806 67.0603L45.0413 62.0386L45.0556 61.9553L44.995 61.8963L41.3462 58.3398L41.3462 58.3398C41.1379 58.1368 41.0632 57.8331 41.1527 57.557M47.5341 57.9052L44.0672 58.4091L43.9789 58.323L43.8666 58.4382L43.8898 58.5974L44.0117 58.5797L46.5204 61.0256C46.7385 61.2378 46.8378 61.5437 46.7862 61.8437L46.1946 65.2979L46.0855 65.3552L46.1603 65.4976L46.3189 65.5248L46.3397 65.4033L49.44 63.773M47.5341 57.9052L53.221 61.0256C53.0035 61.2378 52.9041 61.5443 52.9551 61.8437L53.548 65.2978L53.6571 65.3552L53.5823 65.4976L53.4237 65.5248L53.4029 65.4033L50.3007 63.773C50.1658 63.7014 50.0187 63.6665 49.871 63.6665C49.7226 63.6665 49.5755 63.702 49.44 63.773M47.5341 57.9052C47.836 57.862 48.0961 57.6723 48.2303 57.3994L47.5341 57.9052ZM49.44 63.773L49.5146 63.9155M49.44 63.773L49.5148 63.9154L49.5146 63.9155M49.5146 63.9155L46.2352 65.64L45.9468 65.7917L46.0018 65.4704L46.6277 61.8165L46.6277 61.8164C46.6703 61.5686 46.5883 61.3161 46.4082 61.1408L46.4081 61.1407L43.7543 58.5534L43.521 58.3259L43.8435 58.279L47.5109 57.7461L47.5113 57.746C47.7604 57.7103 47.9751 57.5538 48.0859 57.3284L48.086 57.3282L49.7262 54.004L49.8704 53.7116L50.0147 54.004L51.6548 57.3281M49.5146 63.9155C49.627 63.8566 49.7485 63.8274 49.871 63.8274C49.9933 63.8274 50.1144 63.8562 50.2252 63.9151L50.2259 63.9154L53.5074 65.64L53.796 65.7916L53.7408 65.4704L53.1137 61.8167C53.1137 61.8166 53.1137 61.8166 53.1137 61.8165C53.0716 61.5692 53.1538 61.3159 53.3333 61.1407L55.9866 58.5534L56.2199 58.3259L55.8974 58.279L52.2299 57.7461L52.2296 57.746C51.9812 57.7104 51.7664 57.5539 51.6548 57.3281M51.6548 57.3281L51.5106 57.3994L51.6549 57.3282L51.6548 57.3281Z" fill="black" stroke="white" stroke-width="0.321739"/>
<path id="Vector_3" d="M69.1277 27.2307H30.476C30.0533 27.2307 29.7117 26.8885 29.7117 26.4663C29.7117 26.0435 30.0538 25.7019 30.476 25.7019H69.1277C69.5504 25.7019 69.8921 26.044 69.8921 26.4663C69.8921 26.889 69.5499 27.2307 69.1277 27.2307Z" fill="black" stroke="white" stroke-width="0.321739"/>
<path id="Vector_4" d="M30.476 35.5014H30.476L69.1277 35.5007C69.5504 35.5007 69.8921 35.8429 69.8921 36.2651C69.8921 36.6879 69.5499 37.0295 69.1277 37.0295H30.476C30.0531 37.0295 29.7117 36.6879 29.7117 36.2658C29.7117 35.843 30.0538 35.5014 30.476 35.5014Z" fill="black" stroke="white" stroke-width="0.321739"/>
</g>
<path id="Vector_5" d="M13.9253 14.6589H85.8791L85.8789 14.6601H86.0747C86.4975 14.6601 86.8391 15.0022 86.8391 15.4245V78.9915C86.8391 79.4143 86.497 79.7559 86.0747 79.7559H58.4553H58.2945V79.9168V87.6356C58.2945 87.896 58.162 88.1385 57.9423 88.28C57.8176 88.3594 57.6742 88.4 57.5301 88.4C57.4212 88.4 57.3127 88.3771 57.2106 88.3297L57.2104 88.3296L49.5973 84.8158L49.5299 84.7847L49.4625 84.8158L41.8485 88.3294C41.8484 88.3295 41.8482 88.3295 41.8481 88.3296C41.6106 88.4383 41.3359 88.4195 41.1164 88.2796C40.8967 88.1388 40.764 87.8962 40.764 87.6356V79.9173V79.7564H40.6031H13.9253C13.5025 79.7564 13.1609 79.4143 13.1609 78.992V15.4233C13.1609 15.0006 13.503 14.6589 13.9253 14.6589ZM48.6718 83.4969L48.7652 83.4537V83.3508V75.5391V75.391L48.6176 75.3787C46.4221 75.1968 44.3602 74.5469 42.5315 73.5218L42.2919 73.3875V73.6621V86.1899V86.4413L42.5202 86.336L48.6718 83.4969ZM56.5378 86.3359L56.7661 86.4413V86.1899V74.0133V73.754L56.5338 73.8691C54.6853 74.7851 52.6273 75.3297 50.4482 75.4127L50.2935 75.4186V75.5734V83.3503V83.4532L50.3869 83.4964L56.5378 86.3359ZM85.1496 78.2273H85.3105V78.0664L85.3107 16.3493L85.3107 16.1885H85.1498H14.8501H14.6893V16.3493V78.0664V78.2273H14.8501H40.603H40.7639V78.0664V72.6775C40.7639 72.6433 40.771 72.618 40.7829 72.5751C40.7884 72.5554 40.795 72.5318 40.8024 72.502L40.8278 72.3996L40.744 72.3355C37.1399 69.5789 34.8014 65.2486 34.8014 60.3718C34.8014 52.0616 41.5617 45.3007 49.8711 45.3007C58.1812 45.3007 64.9421 52.0616 64.9421 60.3718C64.9421 65.5322 62.332 70.0924 58.3643 72.8106L58.2944 72.8585V72.9433V78.0664V78.2273H58.4552H85.1496ZM36.3293 60.3711C36.3293 67.8388 42.4039 73.914 49.8709 73.914C57.338 73.914 63.4132 67.8388 63.4139 60.3711C63.4139 52.9034 57.338 46.8282 49.8709 46.8282C42.4039 46.8282 36.3293 52.9041 36.3293 60.3711Z" fill="black" stroke="white" stroke-width="0.321739"/>
</g>
</svg>
