<svg width="13" height="24" viewBox="0 0 13 24" fill="none" xmlns="http://www.w3.org/2000/svg">
<g id="Group 26018">
<g id="Vector">
<path d="M12.2189 8.95259C11.9211 8.04802 11.5015 7.1175 10.9692 6.1915C10.5056 5.38279 10.095 4.77371 9.67996 4.26954C9.39573 3.88719 9.06864 3.50029 8.65357 3.0559C8.47423 2.86077 8.28701 2.66905 8.12459 2.50889C7.9148 2.29571 7.69712 2.08255 7.48282 1.87389C7.29107 1.69117 7.09822 1.50843 6.90647 1.32571L6.74855 1.18248C6.73163 1.16443 6.7136 1.14298 6.69217 1.12607C6.63916 1.06854 6.58727 1.02117 6.53087 1.00425C6.46094 0.986204 6.41244 1.02568 6.31657 1.12156L6.28611 1.14751C6.1767 1.25128 6.0628 1.35618 5.9534 1.45995L5.89247 1.51296C5.60824 1.76899 5.32517 2.04308 5.04094 2.32618C4.91799 2.44799 4.80067 2.57318 4.68224 2.69951C4.55591 2.83937 4.42958 2.97811 4.29762 3.10894L4.25817 3.15631C3.95702 3.50032 3.64231 3.86125 3.35019 4.26053L3.18893 4.48271C3.04004 4.68235 2.88212 4.89551 2.72535 5.12221L2.71182 5.14366C2.70392 5.15719 2.69036 5.18315 2.66442 5.20458C2.62043 5.24857 2.58098 5.31736 2.54601 5.38278C2.52458 5.41323 2.50652 5.44819 2.48509 5.47413C2.41967 5.57903 2.35427 5.67827 2.28886 5.78316C2.15351 5.99634 2.02605 6.21741 1.89973 6.43509C1.63693 6.9043 1.4012 7.38368 1.20044 7.84838C0.768451 8.87025 0.493222 9.82672 0.361258 10.7663C0.304863 11.1881 0.274414 11.6099 0.274414 12.0227C0.274414 13.3063 0.554125 14.6327 1.10454 15.9636L1.11356 16.002C1.11356 16.0065 1.11357 16.011 1.13049 16.0369L1.15304 16.0719C1.53653 17.0069 2.04861 17.9465 2.67234 18.8679L2.71182 18.9074L2.82572 19.0642C3.00054 19.3157 3.16634 19.5548 3.34568 19.7725C3.93106 20.5294 4.57285 21.2557 5.26312 21.9381C5.61728 22.2855 5.98047 22.6159 6.33801 22.9205C6.40794 22.9814 6.46883 23.004 6.53425 22.9994C6.62222 22.9904 6.69669 22.9205 6.77113 22.8517L6.82751 22.7987C6.92338 22.7164 7.01927 22.634 7.11176 22.5472C7.39148 22.29 7.67456 22.0159 7.95428 21.734C8.1776 21.5073 8.44378 21.2331 8.69756 20.9421C9.00322 20.5902 10.0996 19.2165 10.3139 18.9119C10.6725 18.3897 11.021 17.7987 11.3538 17.1547C11.506 16.8591 11.6459 16.5546 11.7767 16.2501C12.2234 15.1933 12.5065 14.2232 12.6385 13.2848C12.6949 12.8585 12.7253 12.4321 12.7253 12.0227C12.7253 11.0234 12.555 9.99252 12.2189 8.95259ZM10.6026 6.57835C10.9162 7.11749 11.1305 7.54835 11.3053 7.9747L11.3357 8.04802L10.4797 8.73602L10.3793 6.20052L10.6026 6.57835ZM8.62314 3.7913L8.7675 3.96048C9.00323 4.24809 9.24799 4.53909 9.49275 4.87408L9.61456 5.0478H8.35693L8.62314 3.7913ZM9.84577 5.54408L9.97323 8.90069L8.55771 8.50482L8.29941 5.54408H9.84577ZM9.15549 11.1836L8.67952 9.05297L9.91234 9.39697L9.15549 11.1836ZM9.16 12.854L9.88525 14.6451L8.65357 14.9891L9.16 12.854ZM7.44333 2.50438C7.55725 2.62619 7.67909 2.75589 7.80203 2.88672C7.92385 3.01305 8.04677 3.13939 8.16407 3.2691L8.20355 3.30855L7.97235 4.41277L7.04182 2.05997L7.44333 2.50438ZM8.01971 8.17885L6.82751 7.27427L7.83246 5.96139L8.01971 8.17885ZM6.47787 1.99116L7.75353 5.26547L6.47336 6.90432L5.19769 5.24403L6.47787 1.99116ZM6.12371 7.27427L4.93151 8.17885L5.11986 5.96139L6.12371 7.27427ZM4.7612 3.3176C5.00144 3.02999 5.27216 2.76494 5.50789 2.52582L5.87106 2.16939L4.98789 4.47369L4.72623 3.36046L4.7612 3.3176ZM4.84353 8.80934L6.47787 7.59232L8.10769 8.80934L8.84195 11.9968L8.10769 15.1842L6.47787 16.4024L4.84353 15.1842L4.1104 11.9968L4.84353 8.80934ZM8.01971 15.8632L7.83246 18.0807L6.82751 16.7723L8.01971 15.8632ZM6.09776 16.7678L5.12327 18.0852L4.90105 15.8632L6.09776 16.7678ZM4.2717 14.9891L3.04002 14.6451L3.76978 12.854L4.2717 14.9891ZM3.06597 9.39697L4.29762 9.05297L3.79122 11.1881L3.06597 9.39697ZM3.59495 4.70039C3.7867 4.45225 3.96602 4.22216 4.16228 3.98643L4.29762 3.82176L4.5999 5.0478H3.32764L3.59495 4.70039ZM3.08401 5.54408H4.65181L4.39465 8.50482L2.97913 8.90069L3.08401 5.54408ZM1.60195 8.04461C1.8343 7.50096 2.12191 6.96521 2.34975 6.55691L2.57193 6.15653L2.47607 8.76986L1.56698 8.12243L1.60195 8.04461ZM0.824837 10.888C0.890255 10.244 1.05606 9.54471 1.33127 8.7439L1.37977 8.60969L2.36217 9.27966L0.785356 11.258L0.824837 10.888ZM1.35832 15.3974C1.08312 14.6451 0.894755 13.8883 0.798884 13.154L0.750385 12.7716L2.35876 14.7804L1.4102 15.5418L1.35832 15.3974ZM2.34975 17.4637C2.03506 16.9246 1.82077 16.4937 1.64594 16.0674L1.61548 15.9941L2.47156 15.3061L2.57193 17.8416L2.34975 17.4637ZM2.64188 14.3101L0.794374 12.0227L2.64188 9.7094L3.5679 12.0227L2.64188 14.3101ZM4.32808 20.2508L4.18486 20.0816C3.948 19.7985 3.70436 19.5029 3.45961 19.168L3.33666 18.9943H4.59539L4.32808 20.2508ZM3.10545 18.498L2.97913 15.1459L4.39465 15.5373L4.65181 18.498H3.10545ZM5.50789 21.5377C5.39848 21.4159 5.27214 21.2907 5.15033 21.1553C5.02738 21.0335 4.90558 20.9027 4.78715 20.7775L4.74767 20.7335L4.98001 19.6338L5.91054 21.9855L5.50789 21.5377ZM6.47336 22.0509L5.19769 18.7766L6.47787 17.1378L7.75353 18.798L6.47336 22.0509ZM8.19002 20.7245C7.94978 21.0121 7.68358 21.2771 7.44784 21.5117L7.08467 21.8727L7.96329 19.5684L8.225 20.6816L8.19002 20.7245ZM9.3529 19.3462C9.16454 19.5898 8.9852 19.8244 8.79346 20.0556L8.65357 20.2203L8.35242 18.9943H9.62358L9.3529 19.3462ZM9.86835 18.498H8.3265L8.55771 15.5373L9.97323 15.1459L9.86835 18.498ZM10.3093 14.3327L9.38332 12.0227L10.3093 9.73536L12.1568 12.0193L10.3093 14.3327ZM11.3493 15.9974C11.118 16.5411 10.8293 17.0802 10.6026 17.4851L10.3793 17.8889L10.4752 15.2711L11.3842 15.9196L11.3493 15.9974ZM12.1264 13.154C12.061 13.7969 11.8952 14.4973 11.62 15.3026L11.5715 15.4369L10.5891 14.7624L12.1659 12.784L12.1264 13.154ZM10.5936 9.26162L11.541 8.50482L11.594 8.64467C11.8692 9.39698 12.0565 10.1538 12.1535 10.888L12.2008 11.2704L10.5936 9.26162Z" fill="#333335"/>
<path d="M12.2189 8.95259C11.9211 8.04802 11.5015 7.1175 10.9692 6.1915C10.5056 5.38279 10.095 4.77371 9.67996 4.26954C9.39573 3.88719 9.06864 3.50029 8.65357 3.0559C8.47423 2.86077 8.28701 2.66905 8.12459 2.50889C7.9148 2.29571 7.69712 2.08255 7.48282 1.87389C7.29107 1.69117 7.09822 1.50843 6.90647 1.32571L6.74855 1.18248C6.73163 1.16443 6.7136 1.14298 6.69217 1.12607C6.63916 1.06854 6.58727 1.02117 6.53087 1.00425C6.46094 0.986204 6.41244 1.02568 6.31657 1.12156L6.28611 1.14751C6.1767 1.25128 6.0628 1.35618 5.9534 1.45995L5.89247 1.51296C5.60824 1.76899 5.32517 2.04308 5.04094 2.32618C4.91799 2.44799 4.80067 2.57318 4.68224 2.69951C4.55591 2.83937 4.42958 2.97811 4.29762 3.10894L4.25817 3.15631C3.95702 3.50032 3.64231 3.86125 3.35019 4.26053L3.18893 4.48271C3.04004 4.68235 2.88212 4.89551 2.72535 5.12221L2.71182 5.14366C2.70392 5.15719 2.69036 5.18315 2.66442 5.20458C2.62043 5.24857 2.58098 5.31736 2.54601 5.38278C2.52458 5.41323 2.50652 5.44819 2.48509 5.47413C2.41967 5.57903 2.35427 5.67827 2.28886 5.78316C2.15351 5.99634 2.02605 6.21741 1.89973 6.43509C1.63693 6.9043 1.4012 7.38368 1.20044 7.84838C0.768451 8.87025 0.493222 9.82672 0.361258 10.7663C0.304863 11.1881 0.274414 11.6099 0.274414 12.0227C0.274414 13.3063 0.554125 14.6327 1.10454 15.9636L1.11356 16.002C1.11356 16.0065 1.11357 16.011 1.13049 16.0369L1.15304 16.0719C1.53653 17.0069 2.04861 17.9465 2.67234 18.8679L2.71182 18.9074L2.82572 19.0642C3.00054 19.3157 3.16634 19.5548 3.34568 19.7725C3.93106 20.5294 4.57285 21.2557 5.26312 21.9381C5.61728 22.2855 5.98047 22.6159 6.33801 22.9205C6.40794 22.9814 6.46883 23.004 6.53425 22.9994C6.62222 22.9904 6.69669 22.9205 6.77113 22.8517L6.82751 22.7987C6.92338 22.7164 7.01927 22.634 7.11176 22.5472C7.39148 22.29 7.67456 22.0159 7.95428 21.734C8.1776 21.5073 8.44378 21.2331 8.69756 20.9421C9.00322 20.5902 10.0996 19.2165 10.3139 18.9119C10.6725 18.3897 11.021 17.7987 11.3538 17.1547C11.506 16.8591 11.6459 16.5546 11.7767 16.2501C12.2234 15.1933 12.5065 14.2232 12.6385 13.2848C12.6949 12.8585 12.7253 12.4321 12.7253 12.0227C12.7253 11.0234 12.555 9.99252 12.2189 8.95259ZM10.6026 6.57835C10.9162 7.11749 11.1305 7.54835 11.3053 7.9747L11.3357 8.04802L10.4797 8.73602L10.3793 6.20052L10.6026 6.57835ZM8.62314 3.7913L8.7675 3.96048C9.00323 4.24809 9.24799 4.53909 9.49275 4.87408L9.61456 5.0478H8.35693L8.62314 3.7913ZM9.84577 5.54408L9.97323 8.90069L8.55771 8.50482L8.29941 5.54408H9.84577ZM9.15549 11.1836L8.67952 9.05297L9.91234 9.39697L9.15549 11.1836ZM9.16 12.854L9.88525 14.6451L8.65357 14.9891L9.16 12.854ZM7.44333 2.50438C7.55725 2.62619 7.67909 2.75589 7.80203 2.88672C7.92385 3.01305 8.04677 3.13939 8.16407 3.2691L8.20355 3.30855L7.97235 4.41277L7.04182 2.05997L7.44333 2.50438ZM8.01971 8.17885L6.82751 7.27427L7.83246 5.96139L8.01971 8.17885ZM6.47787 1.99116L7.75353 5.26547L6.47336 6.90432L5.19769 5.24403L6.47787 1.99116ZM6.12371 7.27427L4.93151 8.17885L5.11986 5.96139L6.12371 7.27427ZM4.7612 3.3176C5.00144 3.02999 5.27216 2.76494 5.50789 2.52582L5.87106 2.16939L4.98789 4.47369L4.72623 3.36046L4.7612 3.3176ZM4.84353 8.80934L6.47787 7.59232L8.10769 8.80934L8.84195 11.9968L8.10769 15.1842L6.47787 16.4024L4.84353 15.1842L4.1104 11.9968L4.84353 8.80934ZM8.01971 15.8632L7.83246 18.0807L6.82751 16.7723L8.01971 15.8632ZM6.09776 16.7678L5.12327 18.0852L4.90105 15.8632L6.09776 16.7678ZM4.2717 14.9891L3.04002 14.6451L3.76978 12.854L4.2717 14.9891ZM3.06597 9.39697L4.29762 9.05297L3.79122 11.1881L3.06597 9.39697ZM3.59495 4.70039C3.7867 4.45225 3.96602 4.22216 4.16228 3.98643L4.29762 3.82176L4.5999 5.0478H3.32764L3.59495 4.70039ZM3.08401 5.54408H4.65181L4.39465 8.50482L2.97913 8.90069L3.08401 5.54408ZM1.60195 8.04461C1.8343 7.50096 2.12191 6.96521 2.34975 6.55691L2.57193 6.15653L2.47607 8.76986L1.56698 8.12243L1.60195 8.04461ZM0.824837 10.888C0.890255 10.244 1.05606 9.54471 1.33127 8.7439L1.37977 8.60969L2.36217 9.27966L0.785356 11.258L0.824837 10.888ZM1.35832 15.3974C1.08312 14.6451 0.894755 13.8883 0.798884 13.154L0.750385 12.7716L2.35876 14.7804L1.4102 15.5418L1.35832 15.3974ZM2.34975 17.4637C2.03506 16.9246 1.82077 16.4937 1.64594 16.0674L1.61548 15.9941L2.47156 15.3061L2.57193 17.8416L2.34975 17.4637ZM2.64188 14.3101L0.794374 12.0227L2.64188 9.7094L3.5679 12.0227L2.64188 14.3101ZM4.32808 20.2508L4.18486 20.0816C3.948 19.7985 3.70436 19.5029 3.45961 19.168L3.33666 18.9943H4.59539L4.32808 20.2508ZM3.10545 18.498L2.97913 15.1459L4.39465 15.5373L4.65181 18.498H3.10545ZM5.50789 21.5377C5.39848 21.4159 5.27214 21.2907 5.15033 21.1553C5.02738 21.0335 4.90558 20.9027 4.78715 20.7775L4.74767 20.7335L4.98001 19.6338L5.91054 21.9855L5.50789 21.5377ZM6.47336 22.0509L5.19769 18.7766L6.47787 17.1378L7.75353 18.798L6.47336 22.0509ZM8.19002 20.7245C7.94978 21.0121 7.68358 21.2771 7.44784 21.5117L7.08467 21.8727L7.96329 19.5684L8.225 20.6816L8.19002 20.7245ZM9.3529 19.3462C9.16454 19.5898 8.9852 19.8244 8.79346 20.0556L8.65357 20.2203L8.35242 18.9943H9.62358L9.3529 19.3462ZM9.86835 18.498H8.3265L8.55771 15.5373L9.97323 15.1459L9.86835 18.498ZM10.3093 14.3327L9.38332 12.0227L10.3093 9.73536L12.1568 12.0193L10.3093 14.3327ZM11.3493 15.9974C11.118 16.5411 10.8293 17.0802 10.6026 17.4851L10.3793 17.8889L10.4752 15.2711L11.3842 15.9196L11.3493 15.9974ZM12.1264 13.154C12.061 13.7969 11.8952 14.4973 11.62 15.3026L11.5715 15.4369L10.5891 14.7624L12.1659 12.784L12.1264 13.154ZM10.5936 9.26162L11.541 8.50482L11.594 8.64467C11.8692 9.39698 12.0565 10.1538 12.1535 10.888L12.2008 11.2704L10.5936 9.26162Z" fill="black" fill-opacity="0.2"/>
<path d="M12.2189 8.95259C11.9211 8.04802 11.5015 7.1175 10.9692 6.1915C10.5056 5.38279 10.095 4.77371 9.67996 4.26954C9.39573 3.88719 9.06864 3.50029 8.65357 3.0559C8.47423 2.86077 8.28701 2.66905 8.12459 2.50889C7.9148 2.29571 7.69712 2.08255 7.48282 1.87389C7.29107 1.69117 7.09822 1.50843 6.90647 1.32571L6.74855 1.18248C6.73163 1.16443 6.7136 1.14298 6.69217 1.12607C6.63916 1.06854 6.58727 1.02117 6.53087 1.00425C6.46094 0.986204 6.41244 1.02568 6.31657 1.12156L6.28611 1.14751C6.1767 1.25128 6.0628 1.35618 5.9534 1.45995L5.89247 1.51296C5.60824 1.76899 5.32517 2.04308 5.04094 2.32618C4.91799 2.44799 4.80067 2.57318 4.68224 2.69951C4.55591 2.83937 4.42958 2.97811 4.29762 3.10894L4.25817 3.15631C3.95702 3.50032 3.64231 3.86125 3.35019 4.26053L3.18893 4.48271C3.04004 4.68235 2.88212 4.89551 2.72535 5.12221L2.71182 5.14366C2.70392 5.15719 2.69036 5.18315 2.66442 5.20458C2.62043 5.24857 2.58098 5.31736 2.54601 5.38278C2.52458 5.41323 2.50652 5.44819 2.48509 5.47413C2.41967 5.57903 2.35427 5.67827 2.28886 5.78316C2.15351 5.99634 2.02605 6.21741 1.89973 6.43509C1.63693 6.9043 1.4012 7.38368 1.20044 7.84838C0.768451 8.87025 0.493222 9.82672 0.361258 10.7663C0.304863 11.1881 0.274414 11.6099 0.274414 12.0227C0.274414 13.3063 0.554125 14.6327 1.10454 15.9636L1.11356 16.002C1.11356 16.0065 1.11357 16.011 1.13049 16.0369L1.15304 16.0719C1.53653 17.0069 2.04861 17.9465 2.67234 18.8679L2.71182 18.9074L2.82572 19.0642C3.00054 19.3157 3.16634 19.5548 3.34568 19.7725C3.93106 20.5294 4.57285 21.2557 5.26312 21.9381C5.61728 22.2855 5.98047 22.6159 6.33801 22.9205C6.40794 22.9814 6.46883 23.004 6.53425 22.9994C6.62222 22.9904 6.69669 22.9205 6.77113 22.8517L6.82751 22.7987C6.92338 22.7164 7.01927 22.634 7.11176 22.5472C7.39148 22.29 7.67456 22.0159 7.95428 21.734C8.1776 21.5073 8.44378 21.2331 8.69756 20.9421C9.00322 20.5902 10.0996 19.2165 10.3139 18.9119C10.6725 18.3897 11.021 17.7987 11.3538 17.1547C11.506 16.8591 11.6459 16.5546 11.7767 16.2501C12.2234 15.1933 12.5065 14.2232 12.6385 13.2848C12.6949 12.8585 12.7253 12.4321 12.7253 12.0227C12.7253 11.0234 12.555 9.99252 12.2189 8.95259ZM10.6026 6.57835C10.9162 7.11749 11.1305 7.54835 11.3053 7.9747L11.3357 8.04802L10.4797 8.73602L10.3793 6.20052L10.6026 6.57835ZM8.62314 3.7913L8.7675 3.96048C9.00323 4.24809 9.24799 4.53909 9.49275 4.87408L9.61456 5.0478H8.35693L8.62314 3.7913ZM9.84577 5.54408L9.97323 8.90069L8.55771 8.50482L8.29941 5.54408H9.84577ZM9.15549 11.1836L8.67952 9.05297L9.91234 9.39697L9.15549 11.1836ZM9.16 12.854L9.88525 14.6451L8.65357 14.9891L9.16 12.854ZM7.44333 2.50438C7.55725 2.62619 7.67909 2.75589 7.80203 2.88672C7.92385 3.01305 8.04677 3.13939 8.16407 3.2691L8.20355 3.30855L7.97235 4.41277L7.04182 2.05997L7.44333 2.50438ZM8.01971 8.17885L6.82751 7.27427L7.83246 5.96139L8.01971 8.17885ZM6.47787 1.99116L7.75353 5.26547L6.47336 6.90432L5.19769 5.24403L6.47787 1.99116ZM6.12371 7.27427L4.93151 8.17885L5.11986 5.96139L6.12371 7.27427ZM4.7612 3.3176C5.00144 3.02999 5.27216 2.76494 5.50789 2.52582L5.87106 2.16939L4.98789 4.47369L4.72623 3.36046L4.7612 3.3176ZM4.84353 8.80934L6.47787 7.59232L8.10769 8.80934L8.84195 11.9968L8.10769 15.1842L6.47787 16.4024L4.84353 15.1842L4.1104 11.9968L4.84353 8.80934ZM8.01971 15.8632L7.83246 18.0807L6.82751 16.7723L8.01971 15.8632ZM6.09776 16.7678L5.12327 18.0852L4.90105 15.8632L6.09776 16.7678ZM4.2717 14.9891L3.04002 14.6451L3.76978 12.854L4.2717 14.9891ZM3.06597 9.39697L4.29762 9.05297L3.79122 11.1881L3.06597 9.39697ZM3.59495 4.70039C3.7867 4.45225 3.96602 4.22216 4.16228 3.98643L4.29762 3.82176L4.5999 5.0478H3.32764L3.59495 4.70039ZM3.08401 5.54408H4.65181L4.39465 8.50482L2.97913 8.90069L3.08401 5.54408ZM1.60195 8.04461C1.8343 7.50096 2.12191 6.96521 2.34975 6.55691L2.57193 6.15653L2.47607 8.76986L1.56698 8.12243L1.60195 8.04461ZM0.824837 10.888C0.890255 10.244 1.05606 9.54471 1.33127 8.7439L1.37977 8.60969L2.36217 9.27966L0.785356 11.258L0.824837 10.888ZM1.35832 15.3974C1.08312 14.6451 0.894755 13.8883 0.798884 13.154L0.750385 12.7716L2.35876 14.7804L1.4102 15.5418L1.35832 15.3974ZM2.34975 17.4637C2.03506 16.9246 1.82077 16.4937 1.64594 16.0674L1.61548 15.9941L2.47156 15.3061L2.57193 17.8416L2.34975 17.4637ZM2.64188 14.3101L0.794374 12.0227L2.64188 9.7094L3.5679 12.0227L2.64188 14.3101ZM4.32808 20.2508L4.18486 20.0816C3.948 19.7985 3.70436 19.5029 3.45961 19.168L3.33666 18.9943H4.59539L4.32808 20.2508ZM3.10545 18.498L2.97913 15.1459L4.39465 15.5373L4.65181 18.498H3.10545ZM5.50789 21.5377C5.39848 21.4159 5.27214 21.2907 5.15033 21.1553C5.02738 21.0335 4.90558 20.9027 4.78715 20.7775L4.74767 20.7335L4.98001 19.6338L5.91054 21.9855L5.50789 21.5377ZM6.47336 22.0509L5.19769 18.7766L6.47787 17.1378L7.75353 18.798L6.47336 22.0509ZM8.19002 20.7245C7.94978 21.0121 7.68358 21.2771 7.44784 21.5117L7.08467 21.8727L7.96329 19.5684L8.225 20.6816L8.19002 20.7245ZM9.3529 19.3462C9.16454 19.5898 8.9852 19.8244 8.79346 20.0556L8.65357 20.2203L8.35242 18.9943H9.62358L9.3529 19.3462ZM9.86835 18.498H8.3265L8.55771 15.5373L9.97323 15.1459L9.86835 18.498ZM10.3093 14.3327L9.38332 12.0227L10.3093 9.73536L12.1568 12.0193L10.3093 14.3327ZM11.3493 15.9974C11.118 16.5411 10.8293 17.0802 10.6026 17.4851L10.3793 17.8889L10.4752 15.2711L11.3842 15.9196L11.3493 15.9974ZM12.1264 13.154C12.061 13.7969 11.8952 14.4973 11.62 15.3026L11.5715 15.4369L10.5891 14.7624L12.1659 12.784L12.1264 13.154ZM10.5936 9.26162L11.541 8.50482L11.594 8.64467C11.8692 9.39698 12.0565 10.1538 12.1535 10.888L12.2008 11.2704L10.5936 9.26162Z" fill="black" fill-opacity="0.2"/>
<path d="M12.2189 8.95259C11.9211 8.04802 11.5015 7.1175 10.9692 6.1915C10.5056 5.38279 10.095 4.77371 9.67996 4.26954C9.39573 3.88719 9.06864 3.50029 8.65357 3.0559C8.47423 2.86077 8.28701 2.66905 8.12459 2.50889C7.9148 2.29571 7.69712 2.08255 7.48282 1.87389C7.29107 1.69117 7.09822 1.50843 6.90647 1.32571L6.74855 1.18248C6.73163 1.16443 6.7136 1.14298 6.69217 1.12607C6.63916 1.06854 6.58727 1.02117 6.53087 1.00425C6.46094 0.986204 6.41244 1.02568 6.31657 1.12156L6.28611 1.14751C6.1767 1.25128 6.0628 1.35618 5.9534 1.45995L5.89247 1.51296C5.60824 1.76899 5.32517 2.04308 5.04094 2.32618C4.91799 2.44799 4.80067 2.57318 4.68224 2.69951C4.55591 2.83937 4.42958 2.97811 4.29762 3.10894L4.25817 3.15631C3.95702 3.50032 3.64231 3.86125 3.35019 4.26053L3.18893 4.48271C3.04004 4.68235 2.88212 4.89551 2.72535 5.12221L2.71182 5.14366C2.70392 5.15719 2.69036 5.18315 2.66442 5.20458C2.62043 5.24857 2.58098 5.31736 2.54601 5.38278C2.52458 5.41323 2.50652 5.44819 2.48509 5.47413C2.41967 5.57903 2.35427 5.67827 2.28886 5.78316C2.15351 5.99634 2.02605 6.21741 1.89973 6.43509C1.63693 6.9043 1.4012 7.38368 1.20044 7.84838C0.768451 8.87025 0.493222 9.82672 0.361258 10.7663C0.304863 11.1881 0.274414 11.6099 0.274414 12.0227C0.274414 13.3063 0.554125 14.6327 1.10454 15.9636L1.11356 16.002C1.11356 16.0065 1.11357 16.011 1.13049 16.0369L1.15304 16.0719C1.53653 17.0069 2.04861 17.9465 2.67234 18.8679L2.71182 18.9074L2.82572 19.0642C3.00054 19.3157 3.16634 19.5548 3.34568 19.7725C3.93106 20.5294 4.57285 21.2557 5.26312 21.9381C5.61728 22.2855 5.98047 22.6159 6.33801 22.9205C6.40794 22.9814 6.46883 23.004 6.53425 22.9994C6.62222 22.9904 6.69669 22.9205 6.77113 22.8517L6.82751 22.7987C6.92338 22.7164 7.01927 22.634 7.11176 22.5472C7.39148 22.29 7.67456 22.0159 7.95428 21.734C8.1776 21.5073 8.44378 21.2331 8.69756 20.9421C9.00322 20.5902 10.0996 19.2165 10.3139 18.9119C10.6725 18.3897 11.021 17.7987 11.3538 17.1547C11.506 16.8591 11.6459 16.5546 11.7767 16.2501C12.2234 15.1933 12.5065 14.2232 12.6385 13.2848C12.6949 12.8585 12.7253 12.4321 12.7253 12.0227C12.7253 11.0234 12.555 9.99252 12.2189 8.95259ZM10.6026 6.57835C10.9162 7.11749 11.1305 7.54835 11.3053 7.9747L11.3357 8.04802L10.4797 8.73602L10.3793 6.20052L10.6026 6.57835ZM8.62314 3.7913L8.7675 3.96048C9.00323 4.24809 9.24799 4.53909 9.49275 4.87408L9.61456 5.0478H8.35693L8.62314 3.7913ZM9.84577 5.54408L9.97323 8.90069L8.55771 8.50482L8.29941 5.54408H9.84577ZM9.15549 11.1836L8.67952 9.05297L9.91234 9.39697L9.15549 11.1836ZM9.16 12.854L9.88525 14.6451L8.65357 14.9891L9.16 12.854ZM7.44333 2.50438C7.55725 2.62619 7.67909 2.75589 7.80203 2.88672C7.92385 3.01305 8.04677 3.13939 8.16407 3.2691L8.20355 3.30855L7.97235 4.41277L7.04182 2.05997L7.44333 2.50438ZM8.01971 8.17885L6.82751 7.27427L7.83246 5.96139L8.01971 8.17885ZM6.47787 1.99116L7.75353 5.26547L6.47336 6.90432L5.19769 5.24403L6.47787 1.99116ZM6.12371 7.27427L4.93151 8.17885L5.11986 5.96139L6.12371 7.27427ZM4.7612 3.3176C5.00144 3.02999 5.27216 2.76494 5.50789 2.52582L5.87106 2.16939L4.98789 4.47369L4.72623 3.36046L4.7612 3.3176ZM4.84353 8.80934L6.47787 7.59232L8.10769 8.80934L8.84195 11.9968L8.10769 15.1842L6.47787 16.4024L4.84353 15.1842L4.1104 11.9968L4.84353 8.80934ZM8.01971 15.8632L7.83246 18.0807L6.82751 16.7723L8.01971 15.8632ZM6.09776 16.7678L5.12327 18.0852L4.90105 15.8632L6.09776 16.7678ZM4.2717 14.9891L3.04002 14.6451L3.76978 12.854L4.2717 14.9891ZM3.06597 9.39697L4.29762 9.05297L3.79122 11.1881L3.06597 9.39697ZM3.59495 4.70039C3.7867 4.45225 3.96602 4.22216 4.16228 3.98643L4.29762 3.82176L4.5999 5.0478H3.32764L3.59495 4.70039ZM3.08401 5.54408H4.65181L4.39465 8.50482L2.97913 8.90069L3.08401 5.54408ZM1.60195 8.04461C1.8343 7.50096 2.12191 6.96521 2.34975 6.55691L2.57193 6.15653L2.47607 8.76986L1.56698 8.12243L1.60195 8.04461ZM0.824837 10.888C0.890255 10.244 1.05606 9.54471 1.33127 8.7439L1.37977 8.60969L2.36217 9.27966L0.785356 11.258L0.824837 10.888ZM1.35832 15.3974C1.08312 14.6451 0.894755 13.8883 0.798884 13.154L0.750385 12.7716L2.35876 14.7804L1.4102 15.5418L1.35832 15.3974ZM2.34975 17.4637C2.03506 16.9246 1.82077 16.4937 1.64594 16.0674L1.61548 15.9941L2.47156 15.3061L2.57193 17.8416L2.34975 17.4637ZM2.64188 14.3101L0.794374 12.0227L2.64188 9.7094L3.5679 12.0227L2.64188 14.3101ZM4.32808 20.2508L4.18486 20.0816C3.948 19.7985 3.70436 19.5029 3.45961 19.168L3.33666 18.9943H4.59539L4.32808 20.2508ZM3.10545 18.498L2.97913 15.1459L4.39465 15.5373L4.65181 18.498H3.10545ZM5.50789 21.5377C5.39848 21.4159 5.27214 21.2907 5.15033 21.1553C5.02738 21.0335 4.90558 20.9027 4.78715 20.7775L4.74767 20.7335L4.98001 19.6338L5.91054 21.9855L5.50789 21.5377ZM6.47336 22.0509L5.19769 18.7766L6.47787 17.1378L7.75353 18.798L6.47336 22.0509ZM8.19002 20.7245C7.94978 21.0121 7.68358 21.2771 7.44784 21.5117L7.08467 21.8727L7.96329 19.5684L8.225 20.6816L8.19002 20.7245ZM9.3529 19.3462C9.16454 19.5898 8.9852 19.8244 8.79346 20.0556L8.65357 20.2203L8.35242 18.9943H9.62358L9.3529 19.3462ZM9.86835 18.498H8.3265L8.55771 15.5373L9.97323 15.1459L9.86835 18.498ZM10.3093 14.3327L9.38332 12.0227L10.3093 9.73536L12.1568 12.0193L10.3093 14.3327ZM11.3493 15.9974C11.118 16.5411 10.8293 17.0802 10.6026 17.4851L10.3793 17.8889L10.4752 15.2711L11.3842 15.9196L11.3493 15.9974ZM12.1264 13.154C12.061 13.7969 11.8952 14.4973 11.62 15.3026L11.5715 15.4369L10.5891 14.7624L12.1659 12.784L12.1264 13.154ZM10.5936 9.26162L11.541 8.50482L11.594 8.64467C11.8692 9.39698 12.0565 10.1538 12.1535 10.888L12.2008 11.2704L10.5936 9.26162Z" fill="black" fill-opacity="0.2"/>
<path d="M12.2189 8.95259C11.9211 8.04802 11.5015 7.1175 10.9692 6.1915C10.5056 5.38279 10.095 4.77371 9.67996 4.26954C9.39573 3.88719 9.06864 3.50029 8.65357 3.0559C8.47423 2.86077 8.28701 2.66905 8.12459 2.50889C7.9148 2.29571 7.69712 2.08255 7.48282 1.87389C7.29107 1.69117 7.09822 1.50843 6.90647 1.32571L6.74855 1.18248C6.73163 1.16443 6.7136 1.14298 6.69217 1.12607C6.63916 1.06854 6.58727 1.02117 6.53087 1.00425C6.46094 0.986204 6.41244 1.02568 6.31657 1.12156L6.28611 1.14751C6.1767 1.25128 6.0628 1.35618 5.9534 1.45995L5.89247 1.51296C5.60824 1.76899 5.32517 2.04308 5.04094 2.32618C4.91799 2.44799 4.80067 2.57318 4.68224 2.69951C4.55591 2.83937 4.42958 2.97811 4.29762 3.10894L4.25817 3.15631C3.95702 3.50032 3.64231 3.86125 3.35019 4.26053L3.18893 4.48271C3.04004 4.68235 2.88212 4.89551 2.72535 5.12221L2.71182 5.14366C2.70392 5.15719 2.69036 5.18315 2.66442 5.20458C2.62043 5.24857 2.58098 5.31736 2.54601 5.38278C2.52458 5.41323 2.50652 5.44819 2.48509 5.47413C2.41967 5.57903 2.35427 5.67827 2.28886 5.78316C2.15351 5.99634 2.02605 6.21741 1.89973 6.43509C1.63693 6.9043 1.4012 7.38368 1.20044 7.84838C0.768451 8.87025 0.493222 9.82672 0.361258 10.7663C0.304863 11.1881 0.274414 11.6099 0.274414 12.0227C0.274414 13.3063 0.554125 14.6327 1.10454 15.9636L1.11356 16.002C1.11356 16.0065 1.11357 16.011 1.13049 16.0369L1.15304 16.0719C1.53653 17.0069 2.04861 17.9465 2.67234 18.8679L2.71182 18.9074L2.82572 19.0642C3.00054 19.3157 3.16634 19.5548 3.34568 19.7725C3.93106 20.5294 4.57285 21.2557 5.26312 21.9381C5.61728 22.2855 5.98047 22.6159 6.33801 22.9205C6.40794 22.9814 6.46883 23.004 6.53425 22.9994C6.62222 22.9904 6.69669 22.9205 6.77113 22.8517L6.82751 22.7987C6.92338 22.7164 7.01927 22.634 7.11176 22.5472C7.39148 22.29 7.67456 22.0159 7.95428 21.734C8.1776 21.5073 8.44378 21.2331 8.69756 20.9421C9.00322 20.5902 10.0996 19.2165 10.3139 18.9119C10.6725 18.3897 11.021 17.7987 11.3538 17.1547C11.506 16.8591 11.6459 16.5546 11.7767 16.2501C12.2234 15.1933 12.5065 14.2232 12.6385 13.2848C12.6949 12.8585 12.7253 12.4321 12.7253 12.0227C12.7253 11.0234 12.555 9.99252 12.2189 8.95259ZM10.6026 6.57835C10.9162 7.11749 11.1305 7.54835 11.3053 7.9747L11.3357 8.04802L10.4797 8.73602L10.3793 6.20052L10.6026 6.57835ZM8.62314 3.7913L8.7675 3.96048C9.00323 4.24809 9.24799 4.53909 9.49275 4.87408L9.61456 5.0478H8.35693L8.62314 3.7913ZM9.84577 5.54408L9.97323 8.90069L8.55771 8.50482L8.29941 5.54408H9.84577ZM9.15549 11.1836L8.67952 9.05297L9.91234 9.39697L9.15549 11.1836ZM9.16 12.854L9.88525 14.6451L8.65357 14.9891L9.16 12.854ZM7.44333 2.50438C7.55725 2.62619 7.67909 2.75589 7.80203 2.88672C7.92385 3.01305 8.04677 3.13939 8.16407 3.2691L8.20355 3.30855L7.97235 4.41277L7.04182 2.05997L7.44333 2.50438ZM8.01971 8.17885L6.82751 7.27427L7.83246 5.96139L8.01971 8.17885ZM6.47787 1.99116L7.75353 5.26547L6.47336 6.90432L5.19769 5.24403L6.47787 1.99116ZM6.12371 7.27427L4.93151 8.17885L5.11986 5.96139L6.12371 7.27427ZM4.7612 3.3176C5.00144 3.02999 5.27216 2.76494 5.50789 2.52582L5.87106 2.16939L4.98789 4.47369L4.72623 3.36046L4.7612 3.3176ZM4.84353 8.80934L6.47787 7.59232L8.10769 8.80934L8.84195 11.9968L8.10769 15.1842L6.47787 16.4024L4.84353 15.1842L4.1104 11.9968L4.84353 8.80934ZM8.01971 15.8632L7.83246 18.0807L6.82751 16.7723L8.01971 15.8632ZM6.09776 16.7678L5.12327 18.0852L4.90105 15.8632L6.09776 16.7678ZM4.2717 14.9891L3.04002 14.6451L3.76978 12.854L4.2717 14.9891ZM3.06597 9.39697L4.29762 9.05297L3.79122 11.1881L3.06597 9.39697ZM3.59495 4.70039C3.7867 4.45225 3.96602 4.22216 4.16228 3.98643L4.29762 3.82176L4.5999 5.0478H3.32764L3.59495 4.70039ZM3.08401 5.54408H4.65181L4.39465 8.50482L2.97913 8.90069L3.08401 5.54408ZM1.60195 8.04461C1.8343 7.50096 2.12191 6.96521 2.34975 6.55691L2.57193 6.15653L2.47607 8.76986L1.56698 8.12243L1.60195 8.04461ZM0.824837 10.888C0.890255 10.244 1.05606 9.54471 1.33127 8.7439L1.37977 8.60969L2.36217 9.27966L0.785356 11.258L0.824837 10.888ZM1.35832 15.3974C1.08312 14.6451 0.894755 13.8883 0.798884 13.154L0.750385 12.7716L2.35876 14.7804L1.4102 15.5418L1.35832 15.3974ZM2.34975 17.4637C2.03506 16.9246 1.82077 16.4937 1.64594 16.0674L1.61548 15.9941L2.47156 15.3061L2.57193 17.8416L2.34975 17.4637ZM2.64188 14.3101L0.794374 12.0227L2.64188 9.7094L3.5679 12.0227L2.64188 14.3101ZM4.32808 20.2508L4.18486 20.0816C3.948 19.7985 3.70436 19.5029 3.45961 19.168L3.33666 18.9943H4.59539L4.32808 20.2508ZM3.10545 18.498L2.97913 15.1459L4.39465 15.5373L4.65181 18.498H3.10545ZM5.50789 21.5377C5.39848 21.4159 5.27214 21.2907 5.15033 21.1553C5.02738 21.0335 4.90558 20.9027 4.78715 20.7775L4.74767 20.7335L4.98001 19.6338L5.91054 21.9855L5.50789 21.5377ZM6.47336 22.0509L5.19769 18.7766L6.47787 17.1378L7.75353 18.798L6.47336 22.0509ZM8.19002 20.7245C7.94978 21.0121 7.68358 21.2771 7.44784 21.5117L7.08467 21.8727L7.96329 19.5684L8.225 20.6816L8.19002 20.7245ZM9.3529 19.3462C9.16454 19.5898 8.9852 19.8244 8.79346 20.0556L8.65357 20.2203L8.35242 18.9943H9.62358L9.3529 19.3462ZM9.86835 18.498H8.3265L8.55771 15.5373L9.97323 15.1459L9.86835 18.498ZM10.3093 14.3327L9.38332 12.0227L10.3093 9.73536L12.1568 12.0193L10.3093 14.3327ZM11.3493 15.9974C11.118 16.5411 10.8293 17.0802 10.6026 17.4851L10.3793 17.8889L10.4752 15.2711L11.3842 15.9196L11.3493 15.9974ZM12.1264 13.154C12.061 13.7969 11.8952 14.4973 11.62 15.3026L11.5715 15.4369L10.5891 14.7624L12.1659 12.784L12.1264 13.154ZM10.5936 9.26162L11.541 8.50482L11.594 8.64467C11.8692 9.39698 12.0565 10.1538 12.1535 10.888L12.2008 11.2704L10.5936 9.26162Z" fill="black" fill-opacity="0.2"/>
<path d="M12.2189 8.95259C11.9211 8.04802 11.5015 7.1175 10.9692 6.1915C10.5056 5.38279 10.095 4.77371 9.67996 4.26954C9.39573 3.88719 9.06864 3.50029 8.65357 3.0559C8.47423 2.86077 8.28701 2.66905 8.12459 2.50889C7.9148 2.29571 7.69712 2.08255 7.48282 1.87389C7.29107 1.69117 7.09822 1.50843 6.90647 1.32571L6.74855 1.18248C6.73163 1.16443 6.7136 1.14298 6.69217 1.12607C6.63916 1.06854 6.58727 1.02117 6.53087 1.00425C6.46094 0.986204 6.41244 1.02568 6.31657 1.12156L6.28611 1.14751C6.1767 1.25128 6.0628 1.35618 5.9534 1.45995L5.89247 1.51296C5.60824 1.76899 5.32517 2.04308 5.04094 2.32618C4.91799 2.44799 4.80067 2.57318 4.68224 2.69951C4.55591 2.83937 4.42958 2.97811 4.29762 3.10894L4.25817 3.15631C3.95702 3.50032 3.64231 3.86125 3.35019 4.26053L3.18893 4.48271C3.04004 4.68235 2.88212 4.89551 2.72535 5.12221L2.71182 5.14366C2.70392 5.15719 2.69036 5.18315 2.66442 5.20458C2.62043 5.24857 2.58098 5.31736 2.54601 5.38278C2.52458 5.41323 2.50652 5.44819 2.48509 5.47413C2.41967 5.57903 2.35427 5.67827 2.28886 5.78316C2.15351 5.99634 2.02605 6.21741 1.89973 6.43509C1.63693 6.9043 1.4012 7.38368 1.20044 7.84838C0.768451 8.87025 0.493222 9.82672 0.361258 10.7663C0.304863 11.1881 0.274414 11.6099 0.274414 12.0227C0.274414 13.3063 0.554125 14.6327 1.10454 15.9636L1.11356 16.002C1.11356 16.0065 1.11357 16.011 1.13049 16.0369L1.15304 16.0719C1.53653 17.0069 2.04861 17.9465 2.67234 18.8679L2.71182 18.9074L2.82572 19.0642C3.00054 19.3157 3.16634 19.5548 3.34568 19.7725C3.93106 20.5294 4.57285 21.2557 5.26312 21.9381C5.61728 22.2855 5.98047 22.6159 6.33801 22.9205C6.40794 22.9814 6.46883 23.004 6.53425 22.9994C6.62222 22.9904 6.69669 22.9205 6.77113 22.8517L6.82751 22.7987C6.92338 22.7164 7.01927 22.634 7.11176 22.5472C7.39148 22.29 7.67456 22.0159 7.95428 21.734C8.1776 21.5073 8.44378 21.2331 8.69756 20.9421C9.00322 20.5902 10.0996 19.2165 10.3139 18.9119C10.6725 18.3897 11.021 17.7987 11.3538 17.1547C11.506 16.8591 11.6459 16.5546 11.7767 16.2501C12.2234 15.1933 12.5065 14.2232 12.6385 13.2848C12.6949 12.8585 12.7253 12.4321 12.7253 12.0227C12.7253 11.0234 12.555 9.99252 12.2189 8.95259ZM10.6026 6.57835C10.9162 7.11749 11.1305 7.54835 11.3053 7.9747L11.3357 8.04802L10.4797 8.73602L10.3793 6.20052L10.6026 6.57835ZM8.62314 3.7913L8.7675 3.96048C9.00323 4.24809 9.24799 4.53909 9.49275 4.87408L9.61456 5.0478H8.35693L8.62314 3.7913ZM9.84577 5.54408L9.97323 8.90069L8.55771 8.50482L8.29941 5.54408H9.84577ZM9.15549 11.1836L8.67952 9.05297L9.91234 9.39697L9.15549 11.1836ZM9.16 12.854L9.88525 14.6451L8.65357 14.9891L9.16 12.854ZM7.44333 2.50438C7.55725 2.62619 7.67909 2.75589 7.80203 2.88672C7.92385 3.01305 8.04677 3.13939 8.16407 3.2691L8.20355 3.30855L7.97235 4.41277L7.04182 2.05997L7.44333 2.50438ZM8.01971 8.17885L6.82751 7.27427L7.83246 5.96139L8.01971 8.17885ZM6.47787 1.99116L7.75353 5.26547L6.47336 6.90432L5.19769 5.24403L6.47787 1.99116ZM6.12371 7.27427L4.93151 8.17885L5.11986 5.96139L6.12371 7.27427ZM4.7612 3.3176C5.00144 3.02999 5.27216 2.76494 5.50789 2.52582L5.87106 2.16939L4.98789 4.47369L4.72623 3.36046L4.7612 3.3176ZM4.84353 8.80934L6.47787 7.59232L8.10769 8.80934L8.84195 11.9968L8.10769 15.1842L6.47787 16.4024L4.84353 15.1842L4.1104 11.9968L4.84353 8.80934ZM8.01971 15.8632L7.83246 18.0807L6.82751 16.7723L8.01971 15.8632ZM6.09776 16.7678L5.12327 18.0852L4.90105 15.8632L6.09776 16.7678ZM4.2717 14.9891L3.04002 14.6451L3.76978 12.854L4.2717 14.9891ZM3.06597 9.39697L4.29762 9.05297L3.79122 11.1881L3.06597 9.39697ZM3.59495 4.70039C3.7867 4.45225 3.96602 4.22216 4.16228 3.98643L4.29762 3.82176L4.5999 5.0478H3.32764L3.59495 4.70039ZM3.08401 5.54408H4.65181L4.39465 8.50482L2.97913 8.90069L3.08401 5.54408ZM1.60195 8.04461C1.8343 7.50096 2.12191 6.96521 2.34975 6.55691L2.57193 6.15653L2.47607 8.76986L1.56698 8.12243L1.60195 8.04461ZM0.824837 10.888C0.890255 10.244 1.05606 9.54471 1.33127 8.7439L1.37977 8.60969L2.36217 9.27966L0.785356 11.258L0.824837 10.888ZM1.35832 15.3974C1.08312 14.6451 0.894755 13.8883 0.798884 13.154L0.750385 12.7716L2.35876 14.7804L1.4102 15.5418L1.35832 15.3974ZM2.34975 17.4637C2.03506 16.9246 1.82077 16.4937 1.64594 16.0674L1.61548 15.9941L2.47156 15.3061L2.57193 17.8416L2.34975 17.4637ZM2.64188 14.3101L0.794374 12.0227L2.64188 9.7094L3.5679 12.0227L2.64188 14.3101ZM4.32808 20.2508L4.18486 20.0816C3.948 19.7985 3.70436 19.5029 3.45961 19.168L3.33666 18.9943H4.59539L4.32808 20.2508ZM3.10545 18.498L2.97913 15.1459L4.39465 15.5373L4.65181 18.498H3.10545ZM5.50789 21.5377C5.39848 21.4159 5.27214 21.2907 5.15033 21.1553C5.02738 21.0335 4.90558 20.9027 4.78715 20.7775L4.74767 20.7335L4.98001 19.6338L5.91054 21.9855L5.50789 21.5377ZM6.47336 22.0509L5.19769 18.7766L6.47787 17.1378L7.75353 18.798L6.47336 22.0509ZM8.19002 20.7245C7.94978 21.0121 7.68358 21.2771 7.44784 21.5117L7.08467 21.8727L7.96329 19.5684L8.225 20.6816L8.19002 20.7245ZM9.3529 19.3462C9.16454 19.5898 8.9852 19.8244 8.79346 20.0556L8.65357 20.2203L8.35242 18.9943H9.62358L9.3529 19.3462ZM9.86835 18.498H8.3265L8.55771 15.5373L9.97323 15.1459L9.86835 18.498ZM10.3093 14.3327L9.38332 12.0227L10.3093 9.73536L12.1568 12.0193L10.3093 14.3327ZM11.3493 15.9974C11.118 16.5411 10.8293 17.0802 10.6026 17.4851L10.3793 17.8889L10.4752 15.2711L11.3842 15.9196L11.3493 15.9974ZM12.1264 13.154C12.061 13.7969 11.8952 14.4973 11.62 15.3026L11.5715 15.4369L10.5891 14.7624L12.1659 12.784L12.1264 13.154ZM10.5936 9.26162L11.541 8.50482L11.594 8.64467C11.8692 9.39698 12.0565 10.1538 12.1535 10.888L12.2008 11.2704L10.5936 9.26162Z" fill="black" fill-opacity="0.2"/>
<path d="M12.2189 8.95259C11.9211 8.04802 11.5015 7.1175 10.9692 6.1915C10.5056 5.38279 10.095 4.77371 9.67996 4.26954C9.39573 3.88719 9.06864 3.50029 8.65357 3.0559C8.47423 2.86077 8.28701 2.66905 8.12459 2.50889C7.9148 2.29571 7.69712 2.08255 7.48282 1.87389C7.29107 1.69117 7.09822 1.50843 6.90647 1.32571L6.74855 1.18248C6.73163 1.16443 6.7136 1.14298 6.69217 1.12607C6.63916 1.06854 6.58727 1.02117 6.53087 1.00425C6.46094 0.986204 6.41244 1.02568 6.31657 1.12156L6.28611 1.14751C6.1767 1.25128 6.0628 1.35618 5.9534 1.45995L5.89247 1.51296C5.60824 1.76899 5.32517 2.04308 5.04094 2.32618C4.91799 2.44799 4.80067 2.57318 4.68224 2.69951C4.55591 2.83937 4.42958 2.97811 4.29762 3.10894L4.25817 3.15631C3.95702 3.50032 3.64231 3.86125 3.35019 4.26053L3.18893 4.48271C3.04004 4.68235 2.88212 4.89551 2.72535 5.12221L2.71182 5.14366C2.70392 5.15719 2.69036 5.18315 2.66442 5.20458C2.62043 5.24857 2.58098 5.31736 2.54601 5.38278C2.52458 5.41323 2.50652 5.44819 2.48509 5.47413C2.41967 5.57903 2.35427 5.67827 2.28886 5.78316C2.15351 5.99634 2.02605 6.21741 1.89973 6.43509C1.63693 6.9043 1.4012 7.38368 1.20044 7.84838C0.768451 8.87025 0.493222 9.82672 0.361258 10.7663C0.304863 11.1881 0.274414 11.6099 0.274414 12.0227C0.274414 13.3063 0.554125 14.6327 1.10454 15.9636L1.11356 16.002C1.11356 16.0065 1.11357 16.011 1.13049 16.0369L1.15304 16.0719C1.53653 17.0069 2.04861 17.9465 2.67234 18.8679L2.71182 18.9074L2.82572 19.0642C3.00054 19.3157 3.16634 19.5548 3.34568 19.7725C3.93106 20.5294 4.57285 21.2557 5.26312 21.9381C5.61728 22.2855 5.98047 22.6159 6.33801 22.9205C6.40794 22.9814 6.46883 23.004 6.53425 22.9994C6.62222 22.9904 6.69669 22.9205 6.77113 22.8517L6.82751 22.7987C6.92338 22.7164 7.01927 22.634 7.11176 22.5472C7.39148 22.29 7.67456 22.0159 7.95428 21.734C8.1776 21.5073 8.44378 21.2331 8.69756 20.9421C9.00322 20.5902 10.0996 19.2165 10.3139 18.9119C10.6725 18.3897 11.021 17.7987 11.3538 17.1547C11.506 16.8591 11.6459 16.5546 11.7767 16.2501C12.2234 15.1933 12.5065 14.2232 12.6385 13.2848C12.6949 12.8585 12.7253 12.4321 12.7253 12.0227C12.7253 11.0234 12.555 9.99252 12.2189 8.95259ZM10.6026 6.57835C10.9162 7.11749 11.1305 7.54835 11.3053 7.9747L11.3357 8.04802L10.4797 8.73602L10.3793 6.20052L10.6026 6.57835ZM8.62314 3.7913L8.7675 3.96048C9.00323 4.24809 9.24799 4.53909 9.49275 4.87408L9.61456 5.0478H8.35693L8.62314 3.7913ZM9.84577 5.54408L9.97323 8.90069L8.55771 8.50482L8.29941 5.54408H9.84577ZM9.15549 11.1836L8.67952 9.05297L9.91234 9.39697L9.15549 11.1836ZM9.16 12.854L9.88525 14.6451L8.65357 14.9891L9.16 12.854ZM7.44333 2.50438C7.55725 2.62619 7.67909 2.75589 7.80203 2.88672C7.92385 3.01305 8.04677 3.13939 8.16407 3.2691L8.20355 3.30855L7.97235 4.41277L7.04182 2.05997L7.44333 2.50438ZM8.01971 8.17885L6.82751 7.27427L7.83246 5.96139L8.01971 8.17885ZM6.47787 1.99116L7.75353 5.26547L6.47336 6.90432L5.19769 5.24403L6.47787 1.99116ZM6.12371 7.27427L4.93151 8.17885L5.11986 5.96139L6.12371 7.27427ZM4.7612 3.3176C5.00144 3.02999 5.27216 2.76494 5.50789 2.52582L5.87106 2.16939L4.98789 4.47369L4.72623 3.36046L4.7612 3.3176ZM4.84353 8.80934L6.47787 7.59232L8.10769 8.80934L8.84195 11.9968L8.10769 15.1842L6.47787 16.4024L4.84353 15.1842L4.1104 11.9968L4.84353 8.80934ZM8.01971 15.8632L7.83246 18.0807L6.82751 16.7723L8.01971 15.8632ZM6.09776 16.7678L5.12327 18.0852L4.90105 15.8632L6.09776 16.7678ZM4.2717 14.9891L3.04002 14.6451L3.76978 12.854L4.2717 14.9891ZM3.06597 9.39697L4.29762 9.05297L3.79122 11.1881L3.06597 9.39697ZM3.59495 4.70039C3.7867 4.45225 3.96602 4.22216 4.16228 3.98643L4.29762 3.82176L4.5999 5.0478H3.32764L3.59495 4.70039ZM3.08401 5.54408H4.65181L4.39465 8.50482L2.97913 8.90069L3.08401 5.54408ZM1.60195 8.04461C1.8343 7.50096 2.12191 6.96521 2.34975 6.55691L2.57193 6.15653L2.47607 8.76986L1.56698 8.12243L1.60195 8.04461ZM0.824837 10.888C0.890255 10.244 1.05606 9.54471 1.33127 8.7439L1.37977 8.60969L2.36217 9.27966L0.785356 11.258L0.824837 10.888ZM1.35832 15.3974C1.08312 14.6451 0.894755 13.8883 0.798884 13.154L0.750385 12.7716L2.35876 14.7804L1.4102 15.5418L1.35832 15.3974ZM2.34975 17.4637C2.03506 16.9246 1.82077 16.4937 1.64594 16.0674L1.61548 15.9941L2.47156 15.3061L2.57193 17.8416L2.34975 17.4637ZM2.64188 14.3101L0.794374 12.0227L2.64188 9.7094L3.5679 12.0227L2.64188 14.3101ZM4.32808 20.2508L4.18486 20.0816C3.948 19.7985 3.70436 19.5029 3.45961 19.168L3.33666 18.9943H4.59539L4.32808 20.2508ZM3.10545 18.498L2.97913 15.1459L4.39465 15.5373L4.65181 18.498H3.10545ZM5.50789 21.5377C5.39848 21.4159 5.27214 21.2907 5.15033 21.1553C5.02738 21.0335 4.90558 20.9027 4.78715 20.7775L4.74767 20.7335L4.98001 19.6338L5.91054 21.9855L5.50789 21.5377ZM6.47336 22.0509L5.19769 18.7766L6.47787 17.1378L7.75353 18.798L6.47336 22.0509ZM8.19002 20.7245C7.94978 21.0121 7.68358 21.2771 7.44784 21.5117L7.08467 21.8727L7.96329 19.5684L8.225 20.6816L8.19002 20.7245ZM9.3529 19.3462C9.16454 19.5898 8.9852 19.8244 8.79346 20.0556L8.65357 20.2203L8.35242 18.9943H9.62358L9.3529 19.3462ZM9.86835 18.498H8.3265L8.55771 15.5373L9.97323 15.1459L9.86835 18.498ZM10.3093 14.3327L9.38332 12.0227L10.3093 9.73536L12.1568 12.0193L10.3093 14.3327ZM11.3493 15.9974C11.118 16.5411 10.8293 17.0802 10.6026 17.4851L10.3793 17.8889L10.4752 15.2711L11.3842 15.9196L11.3493 15.9974ZM12.1264 13.154C12.061 13.7969 11.8952 14.4973 11.62 15.3026L11.5715 15.4369L10.5891 14.7624L12.1659 12.784L12.1264 13.154ZM10.5936 9.26162L11.541 8.50482L11.594 8.64467C11.8692 9.39698 12.0565 10.1538 12.1535 10.888L12.2008 11.2704L10.5936 9.26162Z" fill="black" fill-opacity="0.2"/>
<path d="M12.2189 8.95259C11.9211 8.04802 11.5015 7.1175 10.9692 6.1915C10.5056 5.38279 10.095 4.77371 9.67996 4.26954C9.39573 3.88719 9.06864 3.50029 8.65357 3.0559C8.47423 2.86077 8.28701 2.66905 8.12459 2.50889C7.9148 2.29571 7.69712 2.08255 7.48282 1.87389C7.29107 1.69117 7.09822 1.50843 6.90647 1.32571L6.74855 1.18248C6.73163 1.16443 6.7136 1.14298 6.69217 1.12607C6.63916 1.06854 6.58727 1.02117 6.53087 1.00425C6.46094 0.986204 6.41244 1.02568 6.31657 1.12156L6.28611 1.14751C6.1767 1.25128 6.0628 1.35618 5.9534 1.45995L5.89247 1.51296C5.60824 1.76899 5.32517 2.04308 5.04094 2.32618C4.91799 2.44799 4.80067 2.57318 4.68224 2.69951C4.55591 2.83937 4.42958 2.97811 4.29762 3.10894L4.25817 3.15631C3.95702 3.50032 3.64231 3.86125 3.35019 4.26053L3.18893 4.48271C3.04004 4.68235 2.88212 4.89551 2.72535 5.12221L2.71182 5.14366C2.70392 5.15719 2.69036 5.18315 2.66442 5.20458C2.62043 5.24857 2.58098 5.31736 2.54601 5.38278C2.52458 5.41323 2.50652 5.44819 2.48509 5.47413C2.41967 5.57903 2.35427 5.67827 2.28886 5.78316C2.15351 5.99634 2.02605 6.21741 1.89973 6.43509C1.63693 6.9043 1.4012 7.38368 1.20044 7.84838C0.768451 8.87025 0.493222 9.82672 0.361258 10.7663C0.304863 11.1881 0.274414 11.6099 0.274414 12.0227C0.274414 13.3063 0.554125 14.6327 1.10454 15.9636L1.11356 16.002C1.11356 16.0065 1.11357 16.011 1.13049 16.0369L1.15304 16.0719C1.53653 17.0069 2.04861 17.9465 2.67234 18.8679L2.71182 18.9074L2.82572 19.0642C3.00054 19.3157 3.16634 19.5548 3.34568 19.7725C3.93106 20.5294 4.57285 21.2557 5.26312 21.9381C5.61728 22.2855 5.98047 22.6159 6.33801 22.9205C6.40794 22.9814 6.46883 23.004 6.53425 22.9994C6.62222 22.9904 6.69669 22.9205 6.77113 22.8517L6.82751 22.7987C6.92338 22.7164 7.01927 22.634 7.11176 22.5472C7.39148 22.29 7.67456 22.0159 7.95428 21.734C8.1776 21.5073 8.44378 21.2331 8.69756 20.9421C9.00322 20.5902 10.0996 19.2165 10.3139 18.9119C10.6725 18.3897 11.021 17.7987 11.3538 17.1547C11.506 16.8591 11.6459 16.5546 11.7767 16.2501C12.2234 15.1933 12.5065 14.2232 12.6385 13.2848C12.6949 12.8585 12.7253 12.4321 12.7253 12.0227C12.7253 11.0234 12.555 9.99252 12.2189 8.95259ZM10.6026 6.57835C10.9162 7.11749 11.1305 7.54835 11.3053 7.9747L11.3357 8.04802L10.4797 8.73602L10.3793 6.20052L10.6026 6.57835ZM8.62314 3.7913L8.7675 3.96048C9.00323 4.24809 9.24799 4.53909 9.49275 4.87408L9.61456 5.0478H8.35693L8.62314 3.7913ZM9.84577 5.54408L9.97323 8.90069L8.55771 8.50482L8.29941 5.54408H9.84577ZM9.15549 11.1836L8.67952 9.05297L9.91234 9.39697L9.15549 11.1836ZM9.16 12.854L9.88525 14.6451L8.65357 14.9891L9.16 12.854ZM7.44333 2.50438C7.55725 2.62619 7.67909 2.75589 7.80203 2.88672C7.92385 3.01305 8.04677 3.13939 8.16407 3.2691L8.20355 3.30855L7.97235 4.41277L7.04182 2.05997L7.44333 2.50438ZM8.01971 8.17885L6.82751 7.27427L7.83246 5.96139L8.01971 8.17885ZM6.47787 1.99116L7.75353 5.26547L6.47336 6.90432L5.19769 5.24403L6.47787 1.99116ZM6.12371 7.27427L4.93151 8.17885L5.11986 5.96139L6.12371 7.27427ZM4.7612 3.3176C5.00144 3.02999 5.27216 2.76494 5.50789 2.52582L5.87106 2.16939L4.98789 4.47369L4.72623 3.36046L4.7612 3.3176ZM4.84353 8.80934L6.47787 7.59232L8.10769 8.80934L8.84195 11.9968L8.10769 15.1842L6.47787 16.4024L4.84353 15.1842L4.1104 11.9968L4.84353 8.80934ZM8.01971 15.8632L7.83246 18.0807L6.82751 16.7723L8.01971 15.8632ZM6.09776 16.7678L5.12327 18.0852L4.90105 15.8632L6.09776 16.7678ZM4.2717 14.9891L3.04002 14.6451L3.76978 12.854L4.2717 14.9891ZM3.06597 9.39697L4.29762 9.05297L3.79122 11.1881L3.06597 9.39697ZM3.59495 4.70039C3.7867 4.45225 3.96602 4.22216 4.16228 3.98643L4.29762 3.82176L4.5999 5.0478H3.32764L3.59495 4.70039ZM3.08401 5.54408H4.65181L4.39465 8.50482L2.97913 8.90069L3.08401 5.54408ZM1.60195 8.04461C1.8343 7.50096 2.12191 6.96521 2.34975 6.55691L2.57193 6.15653L2.47607 8.76986L1.56698 8.12243L1.60195 8.04461ZM0.824837 10.888C0.890255 10.244 1.05606 9.54471 1.33127 8.7439L1.37977 8.60969L2.36217 9.27966L0.785356 11.258L0.824837 10.888ZM1.35832 15.3974C1.08312 14.6451 0.894755 13.8883 0.798884 13.154L0.750385 12.7716L2.35876 14.7804L1.4102 15.5418L1.35832 15.3974ZM2.34975 17.4637C2.03506 16.9246 1.82077 16.4937 1.64594 16.0674L1.61548 15.9941L2.47156 15.3061L2.57193 17.8416L2.34975 17.4637ZM2.64188 14.3101L0.794374 12.0227L2.64188 9.7094L3.5679 12.0227L2.64188 14.3101ZM4.32808 20.2508L4.18486 20.0816C3.948 19.7985 3.70436 19.5029 3.45961 19.168L3.33666 18.9943H4.59539L4.32808 20.2508ZM3.10545 18.498L2.97913 15.1459L4.39465 15.5373L4.65181 18.498H3.10545ZM5.50789 21.5377C5.39848 21.4159 5.27214 21.2907 5.15033 21.1553C5.02738 21.0335 4.90558 20.9027 4.78715 20.7775L4.74767 20.7335L4.98001 19.6338L5.91054 21.9855L5.50789 21.5377ZM6.47336 22.0509L5.19769 18.7766L6.47787 17.1378L7.75353 18.798L6.47336 22.0509ZM8.19002 20.7245C7.94978 21.0121 7.68358 21.2771 7.44784 21.5117L7.08467 21.8727L7.96329 19.5684L8.225 20.6816L8.19002 20.7245ZM9.3529 19.3462C9.16454 19.5898 8.9852 19.8244 8.79346 20.0556L8.65357 20.2203L8.35242 18.9943H9.62358L9.3529 19.3462ZM9.86835 18.498H8.3265L8.55771 15.5373L9.97323 15.1459L9.86835 18.498ZM10.3093 14.3327L9.38332 12.0227L10.3093 9.73536L12.1568 12.0193L10.3093 14.3327ZM11.3493 15.9974C11.118 16.5411 10.8293 17.0802 10.6026 17.4851L10.3793 17.8889L10.4752 15.2711L11.3842 15.9196L11.3493 15.9974ZM12.1264 13.154C12.061 13.7969 11.8952 14.4973 11.62 15.3026L11.5715 15.4369L10.5891 14.7624L12.1659 12.784L12.1264 13.154ZM10.5936 9.26162L11.541 8.50482L11.594 8.64467C11.8692 9.39698 12.0565 10.1538 12.1535 10.888L12.2008 11.2704L10.5936 9.26162Z" fill="black" fill-opacity="0.2"/>
<path d="M12.2189 8.95259C11.9211 8.04802 11.5015 7.1175 10.9692 6.1915C10.5056 5.38279 10.095 4.77371 9.67996 4.26954C9.39573 3.88719 9.06864 3.50029 8.65357 3.0559C8.47423 2.86077 8.28701 2.66905 8.12459 2.50889C7.9148 2.29571 7.69712 2.08255 7.48282 1.87389C7.29107 1.69117 7.09822 1.50843 6.90647 1.32571L6.74855 1.18248C6.73163 1.16443 6.7136 1.14298 6.69217 1.12607C6.63916 1.06854 6.58727 1.02117 6.53087 1.00425C6.46094 0.986204 6.41244 1.02568 6.31657 1.12156L6.28611 1.14751C6.1767 1.25128 6.0628 1.35618 5.9534 1.45995L5.89247 1.51296C5.60824 1.76899 5.32517 2.04308 5.04094 2.32618C4.91799 2.44799 4.80067 2.57318 4.68224 2.69951C4.55591 2.83937 4.42958 2.97811 4.29762 3.10894L4.25817 3.15631C3.95702 3.50032 3.64231 3.86125 3.35019 4.26053L3.18893 4.48271C3.04004 4.68235 2.88212 4.89551 2.72535 5.12221L2.71182 5.14366C2.70392 5.15719 2.69036 5.18315 2.66442 5.20458C2.62043 5.24857 2.58098 5.31736 2.54601 5.38278C2.52458 5.41323 2.50652 5.44819 2.48509 5.47413C2.41967 5.57903 2.35427 5.67827 2.28886 5.78316C2.15351 5.99634 2.02605 6.21741 1.89973 6.43509C1.63693 6.9043 1.4012 7.38368 1.20044 7.84838C0.768451 8.87025 0.493222 9.82672 0.361258 10.7663C0.304863 11.1881 0.274414 11.6099 0.274414 12.0227C0.274414 13.3063 0.554125 14.6327 1.10454 15.9636L1.11356 16.002C1.11356 16.0065 1.11357 16.011 1.13049 16.0369L1.15304 16.0719C1.53653 17.0069 2.04861 17.9465 2.67234 18.8679L2.71182 18.9074L2.82572 19.0642C3.00054 19.3157 3.16634 19.5548 3.34568 19.7725C3.93106 20.5294 4.57285 21.2557 5.26312 21.9381C5.61728 22.2855 5.98047 22.6159 6.33801 22.9205C6.40794 22.9814 6.46883 23.004 6.53425 22.9994C6.62222 22.9904 6.69669 22.9205 6.77113 22.8517L6.82751 22.7987C6.92338 22.7164 7.01927 22.634 7.11176 22.5472C7.39148 22.29 7.67456 22.0159 7.95428 21.734C8.1776 21.5073 8.44378 21.2331 8.69756 20.9421C9.00322 20.5902 10.0996 19.2165 10.3139 18.9119C10.6725 18.3897 11.021 17.7987 11.3538 17.1547C11.506 16.8591 11.6459 16.5546 11.7767 16.2501C12.2234 15.1933 12.5065 14.2232 12.6385 13.2848C12.6949 12.8585 12.7253 12.4321 12.7253 12.0227C12.7253 11.0234 12.555 9.99252 12.2189 8.95259ZM10.6026 6.57835C10.9162 7.11749 11.1305 7.54835 11.3053 7.9747L11.3357 8.04802L10.4797 8.73602L10.3793 6.20052L10.6026 6.57835ZM8.62314 3.7913L8.7675 3.96048C9.00323 4.24809 9.24799 4.53909 9.49275 4.87408L9.61456 5.0478H8.35693L8.62314 3.7913ZM9.84577 5.54408L9.97323 8.90069L8.55771 8.50482L8.29941 5.54408H9.84577ZM9.15549 11.1836L8.67952 9.05297L9.91234 9.39697L9.15549 11.1836ZM9.16 12.854L9.88525 14.6451L8.65357 14.9891L9.16 12.854ZM7.44333 2.50438C7.55725 2.62619 7.67909 2.75589 7.80203 2.88672C7.92385 3.01305 8.04677 3.13939 8.16407 3.2691L8.20355 3.30855L7.97235 4.41277L7.04182 2.05997L7.44333 2.50438ZM8.01971 8.17885L6.82751 7.27427L7.83246 5.96139L8.01971 8.17885ZM6.47787 1.99116L7.75353 5.26547L6.47336 6.90432L5.19769 5.24403L6.47787 1.99116ZM6.12371 7.27427L4.93151 8.17885L5.11986 5.96139L6.12371 7.27427ZM4.7612 3.3176C5.00144 3.02999 5.27216 2.76494 5.50789 2.52582L5.87106 2.16939L4.98789 4.47369L4.72623 3.36046L4.7612 3.3176ZM4.84353 8.80934L6.47787 7.59232L8.10769 8.80934L8.84195 11.9968L8.10769 15.1842L6.47787 16.4024L4.84353 15.1842L4.1104 11.9968L4.84353 8.80934ZM8.01971 15.8632L7.83246 18.0807L6.82751 16.7723L8.01971 15.8632ZM6.09776 16.7678L5.12327 18.0852L4.90105 15.8632L6.09776 16.7678ZM4.2717 14.9891L3.04002 14.6451L3.76978 12.854L4.2717 14.9891ZM3.06597 9.39697L4.29762 9.05297L3.79122 11.1881L3.06597 9.39697ZM3.59495 4.70039C3.7867 4.45225 3.96602 4.22216 4.16228 3.98643L4.29762 3.82176L4.5999 5.0478H3.32764L3.59495 4.70039ZM3.08401 5.54408H4.65181L4.39465 8.50482L2.97913 8.90069L3.08401 5.54408ZM1.60195 8.04461C1.8343 7.50096 2.12191 6.96521 2.34975 6.55691L2.57193 6.15653L2.47607 8.76986L1.56698 8.12243L1.60195 8.04461ZM0.824837 10.888C0.890255 10.244 1.05606 9.54471 1.33127 8.7439L1.37977 8.60969L2.36217 9.27966L0.785356 11.258L0.824837 10.888ZM1.35832 15.3974C1.08312 14.6451 0.894755 13.8883 0.798884 13.154L0.750385 12.7716L2.35876 14.7804L1.4102 15.5418L1.35832 15.3974ZM2.34975 17.4637C2.03506 16.9246 1.82077 16.4937 1.64594 16.0674L1.61548 15.9941L2.47156 15.3061L2.57193 17.8416L2.34975 17.4637ZM2.64188 14.3101L0.794374 12.0227L2.64188 9.7094L3.5679 12.0227L2.64188 14.3101ZM4.32808 20.2508L4.18486 20.0816C3.948 19.7985 3.70436 19.5029 3.45961 19.168L3.33666 18.9943H4.59539L4.32808 20.2508ZM3.10545 18.498L2.97913 15.1459L4.39465 15.5373L4.65181 18.498H3.10545ZM5.50789 21.5377C5.39848 21.4159 5.27214 21.2907 5.15033 21.1553C5.02738 21.0335 4.90558 20.9027 4.78715 20.7775L4.74767 20.7335L4.98001 19.6338L5.91054 21.9855L5.50789 21.5377ZM6.47336 22.0509L5.19769 18.7766L6.47787 17.1378L7.75353 18.798L6.47336 22.0509ZM8.19002 20.7245C7.94978 21.0121 7.68358 21.2771 7.44784 21.5117L7.08467 21.8727L7.96329 19.5684L8.225 20.6816L8.19002 20.7245ZM9.3529 19.3462C9.16454 19.5898 8.9852 19.8244 8.79346 20.0556L8.65357 20.2203L8.35242 18.9943H9.62358L9.3529 19.3462ZM9.86835 18.498H8.3265L8.55771 15.5373L9.97323 15.1459L9.86835 18.498ZM10.3093 14.3327L9.38332 12.0227L10.3093 9.73536L12.1568 12.0193L10.3093 14.3327ZM11.3493 15.9974C11.118 16.5411 10.8293 17.0802 10.6026 17.4851L10.3793 17.8889L10.4752 15.2711L11.3842 15.9196L11.3493 15.9974ZM12.1264 13.154C12.061 13.7969 11.8952 14.4973 11.62 15.3026L11.5715 15.4369L10.5891 14.7624L12.1659 12.784L12.1264 13.154ZM10.5936 9.26162L11.541 8.50482L11.594 8.64467C11.8692 9.39698 12.0565 10.1538 12.1535 10.888L12.2008 11.2704L10.5936 9.26162Z" fill="black" fill-opacity="0.2"/>
<path d="M12.2189 8.95259C11.9211 8.04802 11.5015 7.1175 10.9692 6.1915C10.5056 5.38279 10.095 4.77371 9.67996 4.26954C9.39573 3.88719 9.06864 3.50029 8.65357 3.0559C8.47423 2.86077 8.28701 2.66905 8.12459 2.50889C7.9148 2.29571 7.69712 2.08255 7.48282 1.87389C7.29107 1.69117 7.09822 1.50843 6.90647 1.32571L6.74855 1.18248C6.73163 1.16443 6.7136 1.14298 6.69217 1.12607C6.63916 1.06854 6.58727 1.02117 6.53087 1.00425C6.46094 0.986204 6.41244 1.02568 6.31657 1.12156L6.28611 1.14751C6.1767 1.25128 6.0628 1.35618 5.9534 1.45995L5.89247 1.51296C5.60824 1.76899 5.32517 2.04308 5.04094 2.32618C4.91799 2.44799 4.80067 2.57318 4.68224 2.69951C4.55591 2.83937 4.42958 2.97811 4.29762 3.10894L4.25817 3.15631C3.95702 3.50032 3.64231 3.86125 3.35019 4.26053L3.18893 4.48271C3.04004 4.68235 2.88212 4.89551 2.72535 5.12221L2.71182 5.14366C2.70392 5.15719 2.69036 5.18315 2.66442 5.20458C2.62043 5.24857 2.58098 5.31736 2.54601 5.38278C2.52458 5.41323 2.50652 5.44819 2.48509 5.47413C2.41967 5.57903 2.35427 5.67827 2.28886 5.78316C2.15351 5.99634 2.02605 6.21741 1.89973 6.43509C1.63693 6.9043 1.4012 7.38368 1.20044 7.84838C0.768451 8.87025 0.493222 9.82672 0.361258 10.7663C0.304863 11.1881 0.274414 11.6099 0.274414 12.0227C0.274414 13.3063 0.554125 14.6327 1.10454 15.9636L1.11356 16.002C1.11356 16.0065 1.11357 16.011 1.13049 16.0369L1.15304 16.0719C1.53653 17.0069 2.04861 17.9465 2.67234 18.8679L2.71182 18.9074L2.82572 19.0642C3.00054 19.3157 3.16634 19.5548 3.34568 19.7725C3.93106 20.5294 4.57285 21.2557 5.26312 21.9381C5.61728 22.2855 5.98047 22.6159 6.33801 22.9205C6.40794 22.9814 6.46883 23.004 6.53425 22.9994C6.62222 22.9904 6.69669 22.9205 6.77113 22.8517L6.82751 22.7987C6.92338 22.7164 7.01927 22.634 7.11176 22.5472C7.39148 22.29 7.67456 22.0159 7.95428 21.734C8.1776 21.5073 8.44378 21.2331 8.69756 20.9421C9.00322 20.5902 10.0996 19.2165 10.3139 18.9119C10.6725 18.3897 11.021 17.7987 11.3538 17.1547C11.506 16.8591 11.6459 16.5546 11.7767 16.2501C12.2234 15.1933 12.5065 14.2232 12.6385 13.2848C12.6949 12.8585 12.7253 12.4321 12.7253 12.0227C12.7253 11.0234 12.555 9.99252 12.2189 8.95259ZM10.6026 6.57835C10.9162 7.11749 11.1305 7.54835 11.3053 7.9747L11.3357 8.04802L10.4797 8.73602L10.3793 6.20052L10.6026 6.57835ZM8.62314 3.7913L8.7675 3.96048C9.00323 4.24809 9.24799 4.53909 9.49275 4.87408L9.61456 5.0478H8.35693L8.62314 3.7913ZM9.84577 5.54408L9.97323 8.90069L8.55771 8.50482L8.29941 5.54408H9.84577ZM9.15549 11.1836L8.67952 9.05297L9.91234 9.39697L9.15549 11.1836ZM9.16 12.854L9.88525 14.6451L8.65357 14.9891L9.16 12.854ZM7.44333 2.50438C7.55725 2.62619 7.67909 2.75589 7.80203 2.88672C7.92385 3.01305 8.04677 3.13939 8.16407 3.2691L8.20355 3.30855L7.97235 4.41277L7.04182 2.05997L7.44333 2.50438ZM8.01971 8.17885L6.82751 7.27427L7.83246 5.96139L8.01971 8.17885ZM6.47787 1.99116L7.75353 5.26547L6.47336 6.90432L5.19769 5.24403L6.47787 1.99116ZM6.12371 7.27427L4.93151 8.17885L5.11986 5.96139L6.12371 7.27427ZM4.7612 3.3176C5.00144 3.02999 5.27216 2.76494 5.50789 2.52582L5.87106 2.16939L4.98789 4.47369L4.72623 3.36046L4.7612 3.3176ZM4.84353 8.80934L6.47787 7.59232L8.10769 8.80934L8.84195 11.9968L8.10769 15.1842L6.47787 16.4024L4.84353 15.1842L4.1104 11.9968L4.84353 8.80934ZM8.01971 15.8632L7.83246 18.0807L6.82751 16.7723L8.01971 15.8632ZM6.09776 16.7678L5.12327 18.0852L4.90105 15.8632L6.09776 16.7678ZM4.2717 14.9891L3.04002 14.6451L3.76978 12.854L4.2717 14.9891ZM3.06597 9.39697L4.29762 9.05297L3.79122 11.1881L3.06597 9.39697ZM3.59495 4.70039C3.7867 4.45225 3.96602 4.22216 4.16228 3.98643L4.29762 3.82176L4.5999 5.0478H3.32764L3.59495 4.70039ZM3.08401 5.54408H4.65181L4.39465 8.50482L2.97913 8.90069L3.08401 5.54408ZM1.60195 8.04461C1.8343 7.50096 2.12191 6.96521 2.34975 6.55691L2.57193 6.15653L2.47607 8.76986L1.56698 8.12243L1.60195 8.04461ZM0.824837 10.888C0.890255 10.244 1.05606 9.54471 1.33127 8.7439L1.37977 8.60969L2.36217 9.27966L0.785356 11.258L0.824837 10.888ZM1.35832 15.3974C1.08312 14.6451 0.894755 13.8883 0.798884 13.154L0.750385 12.7716L2.35876 14.7804L1.4102 15.5418L1.35832 15.3974ZM2.34975 17.4637C2.03506 16.9246 1.82077 16.4937 1.64594 16.0674L1.61548 15.9941L2.47156 15.3061L2.57193 17.8416L2.34975 17.4637ZM2.64188 14.3101L0.794374 12.0227L2.64188 9.7094L3.5679 12.0227L2.64188 14.3101ZM4.32808 20.2508L4.18486 20.0816C3.948 19.7985 3.70436 19.5029 3.45961 19.168L3.33666 18.9943H4.59539L4.32808 20.2508ZM3.10545 18.498L2.97913 15.1459L4.39465 15.5373L4.65181 18.498H3.10545ZM5.50789 21.5377C5.39848 21.4159 5.27214 21.2907 5.15033 21.1553C5.02738 21.0335 4.90558 20.9027 4.78715 20.7775L4.74767 20.7335L4.98001 19.6338L5.91054 21.9855L5.50789 21.5377ZM6.47336 22.0509L5.19769 18.7766L6.47787 17.1378L7.75353 18.798L6.47336 22.0509ZM8.19002 20.7245C7.94978 21.0121 7.68358 21.2771 7.44784 21.5117L7.08467 21.8727L7.96329 19.5684L8.225 20.6816L8.19002 20.7245ZM9.3529 19.3462C9.16454 19.5898 8.9852 19.8244 8.79346 20.0556L8.65357 20.2203L8.35242 18.9943H9.62358L9.3529 19.3462ZM9.86835 18.498H8.3265L8.55771 15.5373L9.97323 15.1459L9.86835 18.498ZM10.3093 14.3327L9.38332 12.0227L10.3093 9.73536L12.1568 12.0193L10.3093 14.3327ZM11.3493 15.9974C11.118 16.5411 10.8293 17.0802 10.6026 17.4851L10.3793 17.8889L10.4752 15.2711L11.3842 15.9196L11.3493 15.9974ZM12.1264 13.154C12.061 13.7969 11.8952 14.4973 11.62 15.3026L11.5715 15.4369L10.5891 14.7624L12.1659 12.784L12.1264 13.154ZM10.5936 9.26162L11.541 8.50482L11.594 8.64467C11.8692 9.39698 12.0565 10.1538 12.1535 10.888L12.2008 11.2704L10.5936 9.26162Z" stroke="#333335" stroke-width="0.22"/>
<path d="M12.2189 8.95259C11.9211 8.04802 11.5015 7.1175 10.9692 6.1915C10.5056 5.38279 10.095 4.77371 9.67996 4.26954C9.39573 3.88719 9.06864 3.50029 8.65357 3.0559C8.47423 2.86077 8.28701 2.66905 8.12459 2.50889C7.9148 2.29571 7.69712 2.08255 7.48282 1.87389C7.29107 1.69117 7.09822 1.50843 6.90647 1.32571L6.74855 1.18248C6.73163 1.16443 6.7136 1.14298 6.69217 1.12607C6.63916 1.06854 6.58727 1.02117 6.53087 1.00425C6.46094 0.986204 6.41244 1.02568 6.31657 1.12156L6.28611 1.14751C6.1767 1.25128 6.0628 1.35618 5.9534 1.45995L5.89247 1.51296C5.60824 1.76899 5.32517 2.04308 5.04094 2.32618C4.91799 2.44799 4.80067 2.57318 4.68224 2.69951C4.55591 2.83937 4.42958 2.97811 4.29762 3.10894L4.25817 3.15631C3.95702 3.50032 3.64231 3.86125 3.35019 4.26053L3.18893 4.48271C3.04004 4.68235 2.88212 4.89551 2.72535 5.12221L2.71182 5.14366C2.70392 5.15719 2.69036 5.18315 2.66442 5.20458C2.62043 5.24857 2.58098 5.31736 2.54601 5.38278C2.52458 5.41323 2.50652 5.44819 2.48509 5.47413C2.41967 5.57903 2.35427 5.67827 2.28886 5.78316C2.15351 5.99634 2.02605 6.21741 1.89973 6.43509C1.63693 6.9043 1.4012 7.38368 1.20044 7.84838C0.768451 8.87025 0.493222 9.82672 0.361258 10.7663C0.304863 11.1881 0.274414 11.6099 0.274414 12.0227C0.274414 13.3063 0.554125 14.6327 1.10454 15.9636L1.11356 16.002C1.11356 16.0065 1.11357 16.011 1.13049 16.0369L1.15304 16.0719C1.53653 17.0069 2.04861 17.9465 2.67234 18.8679L2.71182 18.9074L2.82572 19.0642C3.00054 19.3157 3.16634 19.5548 3.34568 19.7725C3.93106 20.5294 4.57285 21.2557 5.26312 21.9381C5.61728 22.2855 5.98047 22.6159 6.33801 22.9205C6.40794 22.9814 6.46883 23.004 6.53425 22.9994C6.62222 22.9904 6.69669 22.9205 6.77113 22.8517L6.82751 22.7987C6.92338 22.7164 7.01927 22.634 7.11176 22.5472C7.39148 22.29 7.67456 22.0159 7.95428 21.734C8.1776 21.5073 8.44378 21.2331 8.69756 20.9421C9.00322 20.5902 10.0996 19.2165 10.3139 18.9119C10.6725 18.3897 11.021 17.7987 11.3538 17.1547C11.506 16.8591 11.6459 16.5546 11.7767 16.2501C12.2234 15.1933 12.5065 14.2232 12.6385 13.2848C12.6949 12.8585 12.7253 12.4321 12.7253 12.0227C12.7253 11.0234 12.555 9.99252 12.2189 8.95259ZM10.6026 6.57835C10.9162 7.11749 11.1305 7.54835 11.3053 7.9747L11.3357 8.04802L10.4797 8.73602L10.3793 6.20052L10.6026 6.57835ZM8.62314 3.7913L8.7675 3.96048C9.00323 4.24809 9.24799 4.53909 9.49275 4.87408L9.61456 5.0478H8.35693L8.62314 3.7913ZM9.84577 5.54408L9.97323 8.90069L8.55771 8.50482L8.29941 5.54408H9.84577ZM9.15549 11.1836L8.67952 9.05297L9.91234 9.39697L9.15549 11.1836ZM9.16 12.854L9.88525 14.6451L8.65357 14.9891L9.16 12.854ZM7.44333 2.50438C7.55725 2.62619 7.67909 2.75589 7.80203 2.88672C7.92385 3.01305 8.04677 3.13939 8.16407 3.2691L8.20355 3.30855L7.97235 4.41277L7.04182 2.05997L7.44333 2.50438ZM8.01971 8.17885L6.82751 7.27427L7.83246 5.96139L8.01971 8.17885ZM6.47787 1.99116L7.75353 5.26547L6.47336 6.90432L5.19769 5.24403L6.47787 1.99116ZM6.12371 7.27427L4.93151 8.17885L5.11986 5.96139L6.12371 7.27427ZM4.7612 3.3176C5.00144 3.02999 5.27216 2.76494 5.50789 2.52582L5.87106 2.16939L4.98789 4.47369L4.72623 3.36046L4.7612 3.3176ZM4.84353 8.80934L6.47787 7.59232L8.10769 8.80934L8.84195 11.9968L8.10769 15.1842L6.47787 16.4024L4.84353 15.1842L4.1104 11.9968L4.84353 8.80934ZM8.01971 15.8632L7.83246 18.0807L6.82751 16.7723L8.01971 15.8632ZM6.09776 16.7678L5.12327 18.0852L4.90105 15.8632L6.09776 16.7678ZM4.2717 14.9891L3.04002 14.6451L3.76978 12.854L4.2717 14.9891ZM3.06597 9.39697L4.29762 9.05297L3.79122 11.1881L3.06597 9.39697ZM3.59495 4.70039C3.7867 4.45225 3.96602 4.22216 4.16228 3.98643L4.29762 3.82176L4.5999 5.0478H3.32764L3.59495 4.70039ZM3.08401 5.54408H4.65181L4.39465 8.50482L2.97913 8.90069L3.08401 5.54408ZM1.60195 8.04461C1.8343 7.50096 2.12191 6.96521 2.34975 6.55691L2.57193 6.15653L2.47607 8.76986L1.56698 8.12243L1.60195 8.04461ZM0.824837 10.888C0.890255 10.244 1.05606 9.54471 1.33127 8.7439L1.37977 8.60969L2.36217 9.27966L0.785356 11.258L0.824837 10.888ZM1.35832 15.3974C1.08312 14.6451 0.894755 13.8883 0.798884 13.154L0.750385 12.7716L2.35876 14.7804L1.4102 15.5418L1.35832 15.3974ZM2.34975 17.4637C2.03506 16.9246 1.82077 16.4937 1.64594 16.0674L1.61548 15.9941L2.47156 15.3061L2.57193 17.8416L2.34975 17.4637ZM2.64188 14.3101L0.794374 12.0227L2.64188 9.7094L3.5679 12.0227L2.64188 14.3101ZM4.32808 20.2508L4.18486 20.0816C3.948 19.7985 3.70436 19.5029 3.45961 19.168L3.33666 18.9943H4.59539L4.32808 20.2508ZM3.10545 18.498L2.97913 15.1459L4.39465 15.5373L4.65181 18.498H3.10545ZM5.50789 21.5377C5.39848 21.4159 5.27214 21.2907 5.15033 21.1553C5.02738 21.0335 4.90558 20.9027 4.78715 20.7775L4.74767 20.7335L4.98001 19.6338L5.91054 21.9855L5.50789 21.5377ZM6.47336 22.0509L5.19769 18.7766L6.47787 17.1378L7.75353 18.798L6.47336 22.0509ZM8.19002 20.7245C7.94978 21.0121 7.68358 21.2771 7.44784 21.5117L7.08467 21.8727L7.96329 19.5684L8.225 20.6816L8.19002 20.7245ZM9.3529 19.3462C9.16454 19.5898 8.9852 19.8244 8.79346 20.0556L8.65357 20.2203L8.35242 18.9943H9.62358L9.3529 19.3462ZM9.86835 18.498H8.3265L8.55771 15.5373L9.97323 15.1459L9.86835 18.498ZM10.3093 14.3327L9.38332 12.0227L10.3093 9.73536L12.1568 12.0193L10.3093 14.3327ZM11.3493 15.9974C11.118 16.5411 10.8293 17.0802 10.6026 17.4851L10.3793 17.8889L10.4752 15.2711L11.3842 15.9196L11.3493 15.9974ZM12.1264 13.154C12.061 13.7969 11.8952 14.4973 11.62 15.3026L11.5715 15.4369L10.5891 14.7624L12.1659 12.784L12.1264 13.154ZM10.5936 9.26162L11.541 8.50482L11.594 8.64467C11.8692 9.39698 12.0565 10.1538 12.1535 10.888L12.2008 11.2704L10.5936 9.26162Z" stroke="black" stroke-opacity="0.2" stroke-width="0.22"/>
<path d="M12.2189 8.95259C11.9211 8.04802 11.5015 7.1175 10.9692 6.1915C10.5056 5.38279 10.095 4.77371 9.67996 4.26954C9.39573 3.88719 9.06864 3.50029 8.65357 3.0559C8.47423 2.86077 8.28701 2.66905 8.12459 2.50889C7.9148 2.29571 7.69712 2.08255 7.48282 1.87389C7.29107 1.69117 7.09822 1.50843 6.90647 1.32571L6.74855 1.18248C6.73163 1.16443 6.7136 1.14298 6.69217 1.12607C6.63916 1.06854 6.58727 1.02117 6.53087 1.00425C6.46094 0.986204 6.41244 1.02568 6.31657 1.12156L6.28611 1.14751C6.1767 1.25128 6.0628 1.35618 5.9534 1.45995L5.89247 1.51296C5.60824 1.76899 5.32517 2.04308 5.04094 2.32618C4.91799 2.44799 4.80067 2.57318 4.68224 2.69951C4.55591 2.83937 4.42958 2.97811 4.29762 3.10894L4.25817 3.15631C3.95702 3.50032 3.64231 3.86125 3.35019 4.26053L3.18893 4.48271C3.04004 4.68235 2.88212 4.89551 2.72535 5.12221L2.71182 5.14366C2.70392 5.15719 2.69036 5.18315 2.66442 5.20458C2.62043 5.24857 2.58098 5.31736 2.54601 5.38278C2.52458 5.41323 2.50652 5.44819 2.48509 5.47413C2.41967 5.57903 2.35427 5.67827 2.28886 5.78316C2.15351 5.99634 2.02605 6.21741 1.89973 6.43509C1.63693 6.9043 1.4012 7.38368 1.20044 7.84838C0.768451 8.87025 0.493222 9.82672 0.361258 10.7663C0.304863 11.1881 0.274414 11.6099 0.274414 12.0227C0.274414 13.3063 0.554125 14.6327 1.10454 15.9636L1.11356 16.002C1.11356 16.0065 1.11357 16.011 1.13049 16.0369L1.15304 16.0719C1.53653 17.0069 2.04861 17.9465 2.67234 18.8679L2.71182 18.9074L2.82572 19.0642C3.00054 19.3157 3.16634 19.5548 3.34568 19.7725C3.93106 20.5294 4.57285 21.2557 5.26312 21.9381C5.61728 22.2855 5.98047 22.6159 6.33801 22.9205C6.40794 22.9814 6.46883 23.004 6.53425 22.9994C6.62222 22.9904 6.69669 22.9205 6.77113 22.8517L6.82751 22.7987C6.92338 22.7164 7.01927 22.634 7.11176 22.5472C7.39148 22.29 7.67456 22.0159 7.95428 21.734C8.1776 21.5073 8.44378 21.2331 8.69756 20.9421C9.00322 20.5902 10.0996 19.2165 10.3139 18.9119C10.6725 18.3897 11.021 17.7987 11.3538 17.1547C11.506 16.8591 11.6459 16.5546 11.7767 16.2501C12.2234 15.1933 12.5065 14.2232 12.6385 13.2848C12.6949 12.8585 12.7253 12.4321 12.7253 12.0227C12.7253 11.0234 12.555 9.99252 12.2189 8.95259ZM10.6026 6.57835C10.9162 7.11749 11.1305 7.54835 11.3053 7.9747L11.3357 8.04802L10.4797 8.73602L10.3793 6.20052L10.6026 6.57835ZM8.62314 3.7913L8.7675 3.96048C9.00323 4.24809 9.24799 4.53909 9.49275 4.87408L9.61456 5.0478H8.35693L8.62314 3.7913ZM9.84577 5.54408L9.97323 8.90069L8.55771 8.50482L8.29941 5.54408H9.84577ZM9.15549 11.1836L8.67952 9.05297L9.91234 9.39697L9.15549 11.1836ZM9.16 12.854L9.88525 14.6451L8.65357 14.9891L9.16 12.854ZM7.44333 2.50438C7.55725 2.62619 7.67909 2.75589 7.80203 2.88672C7.92385 3.01305 8.04677 3.13939 8.16407 3.2691L8.20355 3.30855L7.97235 4.41277L7.04182 2.05997L7.44333 2.50438ZM8.01971 8.17885L6.82751 7.27427L7.83246 5.96139L8.01971 8.17885ZM6.47787 1.99116L7.75353 5.26547L6.47336 6.90432L5.19769 5.24403L6.47787 1.99116ZM6.12371 7.27427L4.93151 8.17885L5.11986 5.96139L6.12371 7.27427ZM4.7612 3.3176C5.00144 3.02999 5.27216 2.76494 5.50789 2.52582L5.87106 2.16939L4.98789 4.47369L4.72623 3.36046L4.7612 3.3176ZM4.84353 8.80934L6.47787 7.59232L8.10769 8.80934L8.84195 11.9968L8.10769 15.1842L6.47787 16.4024L4.84353 15.1842L4.1104 11.9968L4.84353 8.80934ZM8.01971 15.8632L7.83246 18.0807L6.82751 16.7723L8.01971 15.8632ZM6.09776 16.7678L5.12327 18.0852L4.90105 15.8632L6.09776 16.7678ZM4.2717 14.9891L3.04002 14.6451L3.76978 12.854L4.2717 14.9891ZM3.06597 9.39697L4.29762 9.05297L3.79122 11.1881L3.06597 9.39697ZM3.59495 4.70039C3.7867 4.45225 3.96602 4.22216 4.16228 3.98643L4.29762 3.82176L4.5999 5.0478H3.32764L3.59495 4.70039ZM3.08401 5.54408H4.65181L4.39465 8.50482L2.97913 8.90069L3.08401 5.54408ZM1.60195 8.04461C1.8343 7.50096 2.12191 6.96521 2.34975 6.55691L2.57193 6.15653L2.47607 8.76986L1.56698 8.12243L1.60195 8.04461ZM0.824837 10.888C0.890255 10.244 1.05606 9.54471 1.33127 8.7439L1.37977 8.60969L2.36217 9.27966L0.785356 11.258L0.824837 10.888ZM1.35832 15.3974C1.08312 14.6451 0.894755 13.8883 0.798884 13.154L0.750385 12.7716L2.35876 14.7804L1.4102 15.5418L1.35832 15.3974ZM2.34975 17.4637C2.03506 16.9246 1.82077 16.4937 1.64594 16.0674L1.61548 15.9941L2.47156 15.3061L2.57193 17.8416L2.34975 17.4637ZM2.64188 14.3101L0.794374 12.0227L2.64188 9.7094L3.5679 12.0227L2.64188 14.3101ZM4.32808 20.2508L4.18486 20.0816C3.948 19.7985 3.70436 19.5029 3.45961 19.168L3.33666 18.9943H4.59539L4.32808 20.2508ZM3.10545 18.498L2.97913 15.1459L4.39465 15.5373L4.65181 18.498H3.10545ZM5.50789 21.5377C5.39848 21.4159 5.27214 21.2907 5.15033 21.1553C5.02738 21.0335 4.90558 20.9027 4.78715 20.7775L4.74767 20.7335L4.98001 19.6338L5.91054 21.9855L5.50789 21.5377ZM6.47336 22.0509L5.19769 18.7766L6.47787 17.1378L7.75353 18.798L6.47336 22.0509ZM8.19002 20.7245C7.94978 21.0121 7.68358 21.2771 7.44784 21.5117L7.08467 21.8727L7.96329 19.5684L8.225 20.6816L8.19002 20.7245ZM9.3529 19.3462C9.16454 19.5898 8.9852 19.8244 8.79346 20.0556L8.65357 20.2203L8.35242 18.9943H9.62358L9.3529 19.3462ZM9.86835 18.498H8.3265L8.55771 15.5373L9.97323 15.1459L9.86835 18.498ZM10.3093 14.3327L9.38332 12.0227L10.3093 9.73536L12.1568 12.0193L10.3093 14.3327ZM11.3493 15.9974C11.118 16.5411 10.8293 17.0802 10.6026 17.4851L10.3793 17.8889L10.4752 15.2711L11.3842 15.9196L11.3493 15.9974ZM12.1264 13.154C12.061 13.7969 11.8952 14.4973 11.62 15.3026L11.5715 15.4369L10.5891 14.7624L12.1659 12.784L12.1264 13.154ZM10.5936 9.26162L11.541 8.50482L11.594 8.64467C11.8692 9.39698 12.0565 10.1538 12.1535 10.888L12.2008 11.2704L10.5936 9.26162Z" stroke="black" stroke-opacity="0.2" stroke-width="0.22"/>
<path d="M12.2189 8.95259C11.9211 8.04802 11.5015 7.1175 10.9692 6.1915C10.5056 5.38279 10.095 4.77371 9.67996 4.26954C9.39573 3.88719 9.06864 3.50029 8.65357 3.0559C8.47423 2.86077 8.28701 2.66905 8.12459 2.50889C7.9148 2.29571 7.69712 2.08255 7.48282 1.87389C7.29107 1.69117 7.09822 1.50843 6.90647 1.32571L6.74855 1.18248C6.73163 1.16443 6.7136 1.14298 6.69217 1.12607C6.63916 1.06854 6.58727 1.02117 6.53087 1.00425C6.46094 0.986204 6.41244 1.02568 6.31657 1.12156L6.28611 1.14751C6.1767 1.25128 6.0628 1.35618 5.9534 1.45995L5.89247 1.51296C5.60824 1.76899 5.32517 2.04308 5.04094 2.32618C4.91799 2.44799 4.80067 2.57318 4.68224 2.69951C4.55591 2.83937 4.42958 2.97811 4.29762 3.10894L4.25817 3.15631C3.95702 3.50032 3.64231 3.86125 3.35019 4.26053L3.18893 4.48271C3.04004 4.68235 2.88212 4.89551 2.72535 5.12221L2.71182 5.14366C2.70392 5.15719 2.69036 5.18315 2.66442 5.20458C2.62043 5.24857 2.58098 5.31736 2.54601 5.38278C2.52458 5.41323 2.50652 5.44819 2.48509 5.47413C2.41967 5.57903 2.35427 5.67827 2.28886 5.78316C2.15351 5.99634 2.02605 6.21741 1.89973 6.43509C1.63693 6.9043 1.4012 7.38368 1.20044 7.84838C0.768451 8.87025 0.493222 9.82672 0.361258 10.7663C0.304863 11.1881 0.274414 11.6099 0.274414 12.0227C0.274414 13.3063 0.554125 14.6327 1.10454 15.9636L1.11356 16.002C1.11356 16.0065 1.11357 16.011 1.13049 16.0369L1.15304 16.0719C1.53653 17.0069 2.04861 17.9465 2.67234 18.8679L2.71182 18.9074L2.82572 19.0642C3.00054 19.3157 3.16634 19.5548 3.34568 19.7725C3.93106 20.5294 4.57285 21.2557 5.26312 21.9381C5.61728 22.2855 5.98047 22.6159 6.33801 22.9205C6.40794 22.9814 6.46883 23.004 6.53425 22.9994C6.62222 22.9904 6.69669 22.9205 6.77113 22.8517L6.82751 22.7987C6.92338 22.7164 7.01927 22.634 7.11176 22.5472C7.39148 22.29 7.67456 22.0159 7.95428 21.734C8.1776 21.5073 8.44378 21.2331 8.69756 20.9421C9.00322 20.5902 10.0996 19.2165 10.3139 18.9119C10.6725 18.3897 11.021 17.7987 11.3538 17.1547C11.506 16.8591 11.6459 16.5546 11.7767 16.2501C12.2234 15.1933 12.5065 14.2232 12.6385 13.2848C12.6949 12.8585 12.7253 12.4321 12.7253 12.0227C12.7253 11.0234 12.555 9.99252 12.2189 8.95259ZM10.6026 6.57835C10.9162 7.11749 11.1305 7.54835 11.3053 7.9747L11.3357 8.04802L10.4797 8.73602L10.3793 6.20052L10.6026 6.57835ZM8.62314 3.7913L8.7675 3.96048C9.00323 4.24809 9.24799 4.53909 9.49275 4.87408L9.61456 5.0478H8.35693L8.62314 3.7913ZM9.84577 5.54408L9.97323 8.90069L8.55771 8.50482L8.29941 5.54408H9.84577ZM9.15549 11.1836L8.67952 9.05297L9.91234 9.39697L9.15549 11.1836ZM9.16 12.854L9.88525 14.6451L8.65357 14.9891L9.16 12.854ZM7.44333 2.50438C7.55725 2.62619 7.67909 2.75589 7.80203 2.88672C7.92385 3.01305 8.04677 3.13939 8.16407 3.2691L8.20355 3.30855L7.97235 4.41277L7.04182 2.05997L7.44333 2.50438ZM8.01971 8.17885L6.82751 7.27427L7.83246 5.96139L8.01971 8.17885ZM6.47787 1.99116L7.75353 5.26547L6.47336 6.90432L5.19769 5.24403L6.47787 1.99116ZM6.12371 7.27427L4.93151 8.17885L5.11986 5.96139L6.12371 7.27427ZM4.7612 3.3176C5.00144 3.02999 5.27216 2.76494 5.50789 2.52582L5.87106 2.16939L4.98789 4.47369L4.72623 3.36046L4.7612 3.3176ZM4.84353 8.80934L6.47787 7.59232L8.10769 8.80934L8.84195 11.9968L8.10769 15.1842L6.47787 16.4024L4.84353 15.1842L4.1104 11.9968L4.84353 8.80934ZM8.01971 15.8632L7.83246 18.0807L6.82751 16.7723L8.01971 15.8632ZM6.09776 16.7678L5.12327 18.0852L4.90105 15.8632L6.09776 16.7678ZM4.2717 14.9891L3.04002 14.6451L3.76978 12.854L4.2717 14.9891ZM3.06597 9.39697L4.29762 9.05297L3.79122 11.1881L3.06597 9.39697ZM3.59495 4.70039C3.7867 4.45225 3.96602 4.22216 4.16228 3.98643L4.29762 3.82176L4.5999 5.0478H3.32764L3.59495 4.70039ZM3.08401 5.54408H4.65181L4.39465 8.50482L2.97913 8.90069L3.08401 5.54408ZM1.60195 8.04461C1.8343 7.50096 2.12191 6.96521 2.34975 6.55691L2.57193 6.15653L2.47607 8.76986L1.56698 8.12243L1.60195 8.04461ZM0.824837 10.888C0.890255 10.244 1.05606 9.54471 1.33127 8.7439L1.37977 8.60969L2.36217 9.27966L0.785356 11.258L0.824837 10.888ZM1.35832 15.3974C1.08312 14.6451 0.894755 13.8883 0.798884 13.154L0.750385 12.7716L2.35876 14.7804L1.4102 15.5418L1.35832 15.3974ZM2.34975 17.4637C2.03506 16.9246 1.82077 16.4937 1.64594 16.0674L1.61548 15.9941L2.47156 15.3061L2.57193 17.8416L2.34975 17.4637ZM2.64188 14.3101L0.794374 12.0227L2.64188 9.7094L3.5679 12.0227L2.64188 14.3101ZM4.32808 20.2508L4.18486 20.0816C3.948 19.7985 3.70436 19.5029 3.45961 19.168L3.33666 18.9943H4.59539L4.32808 20.2508ZM3.10545 18.498L2.97913 15.1459L4.39465 15.5373L4.65181 18.498H3.10545ZM5.50789 21.5377C5.39848 21.4159 5.27214 21.2907 5.15033 21.1553C5.02738 21.0335 4.90558 20.9027 4.78715 20.7775L4.74767 20.7335L4.98001 19.6338L5.91054 21.9855L5.50789 21.5377ZM6.47336 22.0509L5.19769 18.7766L6.47787 17.1378L7.75353 18.798L6.47336 22.0509ZM8.19002 20.7245C7.94978 21.0121 7.68358 21.2771 7.44784 21.5117L7.08467 21.8727L7.96329 19.5684L8.225 20.6816L8.19002 20.7245ZM9.3529 19.3462C9.16454 19.5898 8.9852 19.8244 8.79346 20.0556L8.65357 20.2203L8.35242 18.9943H9.62358L9.3529 19.3462ZM9.86835 18.498H8.3265L8.55771 15.5373L9.97323 15.1459L9.86835 18.498ZM10.3093 14.3327L9.38332 12.0227L10.3093 9.73536L12.1568 12.0193L10.3093 14.3327ZM11.3493 15.9974C11.118 16.5411 10.8293 17.0802 10.6026 17.4851L10.3793 17.8889L10.4752 15.2711L11.3842 15.9196L11.3493 15.9974ZM12.1264 13.154C12.061 13.7969 11.8952 14.4973 11.62 15.3026L11.5715 15.4369L10.5891 14.7624L12.1659 12.784L12.1264 13.154ZM10.5936 9.26162L11.541 8.50482L11.594 8.64467C11.8692 9.39698 12.0565 10.1538 12.1535 10.888L12.2008 11.2704L10.5936 9.26162Z" stroke="black" stroke-opacity="0.2" stroke-width="0.22"/>
<path d="M12.2189 8.95259C11.9211 8.04802 11.5015 7.1175 10.9692 6.1915C10.5056 5.38279 10.095 4.77371 9.67996 4.26954C9.39573 3.88719 9.06864 3.50029 8.65357 3.0559C8.47423 2.86077 8.28701 2.66905 8.12459 2.50889C7.9148 2.29571 7.69712 2.08255 7.48282 1.87389C7.29107 1.69117 7.09822 1.50843 6.90647 1.32571L6.74855 1.18248C6.73163 1.16443 6.7136 1.14298 6.69217 1.12607C6.63916 1.06854 6.58727 1.02117 6.53087 1.00425C6.46094 0.986204 6.41244 1.02568 6.31657 1.12156L6.28611 1.14751C6.1767 1.25128 6.0628 1.35618 5.9534 1.45995L5.89247 1.51296C5.60824 1.76899 5.32517 2.04308 5.04094 2.32618C4.91799 2.44799 4.80067 2.57318 4.68224 2.69951C4.55591 2.83937 4.42958 2.97811 4.29762 3.10894L4.25817 3.15631C3.95702 3.50032 3.64231 3.86125 3.35019 4.26053L3.18893 4.48271C3.04004 4.68235 2.88212 4.89551 2.72535 5.12221L2.71182 5.14366C2.70392 5.15719 2.69036 5.18315 2.66442 5.20458C2.62043 5.24857 2.58098 5.31736 2.54601 5.38278C2.52458 5.41323 2.50652 5.44819 2.48509 5.47413C2.41967 5.57903 2.35427 5.67827 2.28886 5.78316C2.15351 5.99634 2.02605 6.21741 1.89973 6.43509C1.63693 6.9043 1.4012 7.38368 1.20044 7.84838C0.768451 8.87025 0.493222 9.82672 0.361258 10.7663C0.304863 11.1881 0.274414 11.6099 0.274414 12.0227C0.274414 13.3063 0.554125 14.6327 1.10454 15.9636L1.11356 16.002C1.11356 16.0065 1.11357 16.011 1.13049 16.0369L1.15304 16.0719C1.53653 17.0069 2.04861 17.9465 2.67234 18.8679L2.71182 18.9074L2.82572 19.0642C3.00054 19.3157 3.16634 19.5548 3.34568 19.7725C3.93106 20.5294 4.57285 21.2557 5.26312 21.9381C5.61728 22.2855 5.98047 22.6159 6.33801 22.9205C6.40794 22.9814 6.46883 23.004 6.53425 22.9994C6.62222 22.9904 6.69669 22.9205 6.77113 22.8517L6.82751 22.7987C6.92338 22.7164 7.01927 22.634 7.11176 22.5472C7.39148 22.29 7.67456 22.0159 7.95428 21.734C8.1776 21.5073 8.44378 21.2331 8.69756 20.9421C9.00322 20.5902 10.0996 19.2165 10.3139 18.9119C10.6725 18.3897 11.021 17.7987 11.3538 17.1547C11.506 16.8591 11.6459 16.5546 11.7767 16.2501C12.2234 15.1933 12.5065 14.2232 12.6385 13.2848C12.6949 12.8585 12.7253 12.4321 12.7253 12.0227C12.7253 11.0234 12.555 9.99252 12.2189 8.95259ZM10.6026 6.57835C10.9162 7.11749 11.1305 7.54835 11.3053 7.9747L11.3357 8.04802L10.4797 8.73602L10.3793 6.20052L10.6026 6.57835ZM8.62314 3.7913L8.7675 3.96048C9.00323 4.24809 9.24799 4.53909 9.49275 4.87408L9.61456 5.0478H8.35693L8.62314 3.7913ZM9.84577 5.54408L9.97323 8.90069L8.55771 8.50482L8.29941 5.54408H9.84577ZM9.15549 11.1836L8.67952 9.05297L9.91234 9.39697L9.15549 11.1836ZM9.16 12.854L9.88525 14.6451L8.65357 14.9891L9.16 12.854ZM7.44333 2.50438C7.55725 2.62619 7.67909 2.75589 7.80203 2.88672C7.92385 3.01305 8.04677 3.13939 8.16407 3.2691L8.20355 3.30855L7.97235 4.41277L7.04182 2.05997L7.44333 2.50438ZM8.01971 8.17885L6.82751 7.27427L7.83246 5.96139L8.01971 8.17885ZM6.47787 1.99116L7.75353 5.26547L6.47336 6.90432L5.19769 5.24403L6.47787 1.99116ZM6.12371 7.27427L4.93151 8.17885L5.11986 5.96139L6.12371 7.27427ZM4.7612 3.3176C5.00144 3.02999 5.27216 2.76494 5.50789 2.52582L5.87106 2.16939L4.98789 4.47369L4.72623 3.36046L4.7612 3.3176ZM4.84353 8.80934L6.47787 7.59232L8.10769 8.80934L8.84195 11.9968L8.10769 15.1842L6.47787 16.4024L4.84353 15.1842L4.1104 11.9968L4.84353 8.80934ZM8.01971 15.8632L7.83246 18.0807L6.82751 16.7723L8.01971 15.8632ZM6.09776 16.7678L5.12327 18.0852L4.90105 15.8632L6.09776 16.7678ZM4.2717 14.9891L3.04002 14.6451L3.76978 12.854L4.2717 14.9891ZM3.06597 9.39697L4.29762 9.05297L3.79122 11.1881L3.06597 9.39697ZM3.59495 4.70039C3.7867 4.45225 3.96602 4.22216 4.16228 3.98643L4.29762 3.82176L4.5999 5.0478H3.32764L3.59495 4.70039ZM3.08401 5.54408H4.65181L4.39465 8.50482L2.97913 8.90069L3.08401 5.54408ZM1.60195 8.04461C1.8343 7.50096 2.12191 6.96521 2.34975 6.55691L2.57193 6.15653L2.47607 8.76986L1.56698 8.12243L1.60195 8.04461ZM0.824837 10.888C0.890255 10.244 1.05606 9.54471 1.33127 8.7439L1.37977 8.60969L2.36217 9.27966L0.785356 11.258L0.824837 10.888ZM1.35832 15.3974C1.08312 14.6451 0.894755 13.8883 0.798884 13.154L0.750385 12.7716L2.35876 14.7804L1.4102 15.5418L1.35832 15.3974ZM2.34975 17.4637C2.03506 16.9246 1.82077 16.4937 1.64594 16.0674L1.61548 15.9941L2.47156 15.3061L2.57193 17.8416L2.34975 17.4637ZM2.64188 14.3101L0.794374 12.0227L2.64188 9.7094L3.5679 12.0227L2.64188 14.3101ZM4.32808 20.2508L4.18486 20.0816C3.948 19.7985 3.70436 19.5029 3.45961 19.168L3.33666 18.9943H4.59539L4.32808 20.2508ZM3.10545 18.498L2.97913 15.1459L4.39465 15.5373L4.65181 18.498H3.10545ZM5.50789 21.5377C5.39848 21.4159 5.27214 21.2907 5.15033 21.1553C5.02738 21.0335 4.90558 20.9027 4.78715 20.7775L4.74767 20.7335L4.98001 19.6338L5.91054 21.9855L5.50789 21.5377ZM6.47336 22.0509L5.19769 18.7766L6.47787 17.1378L7.75353 18.798L6.47336 22.0509ZM8.19002 20.7245C7.94978 21.0121 7.68358 21.2771 7.44784 21.5117L7.08467 21.8727L7.96329 19.5684L8.225 20.6816L8.19002 20.7245ZM9.3529 19.3462C9.16454 19.5898 8.9852 19.8244 8.79346 20.0556L8.65357 20.2203L8.35242 18.9943H9.62358L9.3529 19.3462ZM9.86835 18.498H8.3265L8.55771 15.5373L9.97323 15.1459L9.86835 18.498ZM10.3093 14.3327L9.38332 12.0227L10.3093 9.73536L12.1568 12.0193L10.3093 14.3327ZM11.3493 15.9974C11.118 16.5411 10.8293 17.0802 10.6026 17.4851L10.3793 17.8889L10.4752 15.2711L11.3842 15.9196L11.3493 15.9974ZM12.1264 13.154C12.061 13.7969 11.8952 14.4973 11.62 15.3026L11.5715 15.4369L10.5891 14.7624L12.1659 12.784L12.1264 13.154ZM10.5936 9.26162L11.541 8.50482L11.594 8.64467C11.8692 9.39698 12.0565 10.1538 12.1535 10.888L12.2008 11.2704L10.5936 9.26162Z" stroke="black" stroke-opacity="0.2" stroke-width="0.22"/>
<path d="M12.2189 8.95259C11.9211 8.04802 11.5015 7.1175 10.9692 6.1915C10.5056 5.38279 10.095 4.77371 9.67996 4.26954C9.39573 3.88719 9.06864 3.50029 8.65357 3.0559C8.47423 2.86077 8.28701 2.66905 8.12459 2.50889C7.9148 2.29571 7.69712 2.08255 7.48282 1.87389C7.29107 1.69117 7.09822 1.50843 6.90647 1.32571L6.74855 1.18248C6.73163 1.16443 6.7136 1.14298 6.69217 1.12607C6.63916 1.06854 6.58727 1.02117 6.53087 1.00425C6.46094 0.986204 6.41244 1.02568 6.31657 1.12156L6.28611 1.14751C6.1767 1.25128 6.0628 1.35618 5.9534 1.45995L5.89247 1.51296C5.60824 1.76899 5.32517 2.04308 5.04094 2.32618C4.91799 2.44799 4.80067 2.57318 4.68224 2.69951C4.55591 2.83937 4.42958 2.97811 4.29762 3.10894L4.25817 3.15631C3.95702 3.50032 3.64231 3.86125 3.35019 4.26053L3.18893 4.48271C3.04004 4.68235 2.88212 4.89551 2.72535 5.12221L2.71182 5.14366C2.70392 5.15719 2.69036 5.18315 2.66442 5.20458C2.62043 5.24857 2.58098 5.31736 2.54601 5.38278C2.52458 5.41323 2.50652 5.44819 2.48509 5.47413C2.41967 5.57903 2.35427 5.67827 2.28886 5.78316C2.15351 5.99634 2.02605 6.21741 1.89973 6.43509C1.63693 6.9043 1.4012 7.38368 1.20044 7.84838C0.768451 8.87025 0.493222 9.82672 0.361258 10.7663C0.304863 11.1881 0.274414 11.6099 0.274414 12.0227C0.274414 13.3063 0.554125 14.6327 1.10454 15.9636L1.11356 16.002C1.11356 16.0065 1.11357 16.011 1.13049 16.0369L1.15304 16.0719C1.53653 17.0069 2.04861 17.9465 2.67234 18.8679L2.71182 18.9074L2.82572 19.0642C3.00054 19.3157 3.16634 19.5548 3.34568 19.7725C3.93106 20.5294 4.57285 21.2557 5.26312 21.9381C5.61728 22.2855 5.98047 22.6159 6.33801 22.9205C6.40794 22.9814 6.46883 23.004 6.53425 22.9994C6.62222 22.9904 6.69669 22.9205 6.77113 22.8517L6.82751 22.7987C6.92338 22.7164 7.01927 22.634 7.11176 22.5472C7.39148 22.29 7.67456 22.0159 7.95428 21.734C8.1776 21.5073 8.44378 21.2331 8.69756 20.9421C9.00322 20.5902 10.0996 19.2165 10.3139 18.9119C10.6725 18.3897 11.021 17.7987 11.3538 17.1547C11.506 16.8591 11.6459 16.5546 11.7767 16.2501C12.2234 15.1933 12.5065 14.2232 12.6385 13.2848C12.6949 12.8585 12.7253 12.4321 12.7253 12.0227C12.7253 11.0234 12.555 9.99252 12.2189 8.95259ZM10.6026 6.57835C10.9162 7.11749 11.1305 7.54835 11.3053 7.9747L11.3357 8.04802L10.4797 8.73602L10.3793 6.20052L10.6026 6.57835ZM8.62314 3.7913L8.7675 3.96048C9.00323 4.24809 9.24799 4.53909 9.49275 4.87408L9.61456 5.0478H8.35693L8.62314 3.7913ZM9.84577 5.54408L9.97323 8.90069L8.55771 8.50482L8.29941 5.54408H9.84577ZM9.15549 11.1836L8.67952 9.05297L9.91234 9.39697L9.15549 11.1836ZM9.16 12.854L9.88525 14.6451L8.65357 14.9891L9.16 12.854ZM7.44333 2.50438C7.55725 2.62619 7.67909 2.75589 7.80203 2.88672C7.92385 3.01305 8.04677 3.13939 8.16407 3.2691L8.20355 3.30855L7.97235 4.41277L7.04182 2.05997L7.44333 2.50438ZM8.01971 8.17885L6.82751 7.27427L7.83246 5.96139L8.01971 8.17885ZM6.47787 1.99116L7.75353 5.26547L6.47336 6.90432L5.19769 5.24403L6.47787 1.99116ZM6.12371 7.27427L4.93151 8.17885L5.11986 5.96139L6.12371 7.27427ZM4.7612 3.3176C5.00144 3.02999 5.27216 2.76494 5.50789 2.52582L5.87106 2.16939L4.98789 4.47369L4.72623 3.36046L4.7612 3.3176ZM4.84353 8.80934L6.47787 7.59232L8.10769 8.80934L8.84195 11.9968L8.10769 15.1842L6.47787 16.4024L4.84353 15.1842L4.1104 11.9968L4.84353 8.80934ZM8.01971 15.8632L7.83246 18.0807L6.82751 16.7723L8.01971 15.8632ZM6.09776 16.7678L5.12327 18.0852L4.90105 15.8632L6.09776 16.7678ZM4.2717 14.9891L3.04002 14.6451L3.76978 12.854L4.2717 14.9891ZM3.06597 9.39697L4.29762 9.05297L3.79122 11.1881L3.06597 9.39697ZM3.59495 4.70039C3.7867 4.45225 3.96602 4.22216 4.16228 3.98643L4.29762 3.82176L4.5999 5.0478H3.32764L3.59495 4.70039ZM3.08401 5.54408H4.65181L4.39465 8.50482L2.97913 8.90069L3.08401 5.54408ZM1.60195 8.04461C1.8343 7.50096 2.12191 6.96521 2.34975 6.55691L2.57193 6.15653L2.47607 8.76986L1.56698 8.12243L1.60195 8.04461ZM0.824837 10.888C0.890255 10.244 1.05606 9.54471 1.33127 8.7439L1.37977 8.60969L2.36217 9.27966L0.785356 11.258L0.824837 10.888ZM1.35832 15.3974C1.08312 14.6451 0.894755 13.8883 0.798884 13.154L0.750385 12.7716L2.35876 14.7804L1.4102 15.5418L1.35832 15.3974ZM2.34975 17.4637C2.03506 16.9246 1.82077 16.4937 1.64594 16.0674L1.61548 15.9941L2.47156 15.3061L2.57193 17.8416L2.34975 17.4637ZM2.64188 14.3101L0.794374 12.0227L2.64188 9.7094L3.5679 12.0227L2.64188 14.3101ZM4.32808 20.2508L4.18486 20.0816C3.948 19.7985 3.70436 19.5029 3.45961 19.168L3.33666 18.9943H4.59539L4.32808 20.2508ZM3.10545 18.498L2.97913 15.1459L4.39465 15.5373L4.65181 18.498H3.10545ZM5.50789 21.5377C5.39848 21.4159 5.27214 21.2907 5.15033 21.1553C5.02738 21.0335 4.90558 20.9027 4.78715 20.7775L4.74767 20.7335L4.98001 19.6338L5.91054 21.9855L5.50789 21.5377ZM6.47336 22.0509L5.19769 18.7766L6.47787 17.1378L7.75353 18.798L6.47336 22.0509ZM8.19002 20.7245C7.94978 21.0121 7.68358 21.2771 7.44784 21.5117L7.08467 21.8727L7.96329 19.5684L8.225 20.6816L8.19002 20.7245ZM9.3529 19.3462C9.16454 19.5898 8.9852 19.8244 8.79346 20.0556L8.65357 20.2203L8.35242 18.9943H9.62358L9.3529 19.3462ZM9.86835 18.498H8.3265L8.55771 15.5373L9.97323 15.1459L9.86835 18.498ZM10.3093 14.3327L9.38332 12.0227L10.3093 9.73536L12.1568 12.0193L10.3093 14.3327ZM11.3493 15.9974C11.118 16.5411 10.8293 17.0802 10.6026 17.4851L10.3793 17.8889L10.4752 15.2711L11.3842 15.9196L11.3493 15.9974ZM12.1264 13.154C12.061 13.7969 11.8952 14.4973 11.62 15.3026L11.5715 15.4369L10.5891 14.7624L12.1659 12.784L12.1264 13.154ZM10.5936 9.26162L11.541 8.50482L11.594 8.64467C11.8692 9.39698 12.0565 10.1538 12.1535 10.888L12.2008 11.2704L10.5936 9.26162Z" stroke="black" stroke-opacity="0.2" stroke-width="0.22"/>
<path d="M12.2189 8.95259C11.9211 8.04802 11.5015 7.1175 10.9692 6.1915C10.5056 5.38279 10.095 4.77371 9.67996 4.26954C9.39573 3.88719 9.06864 3.50029 8.65357 3.0559C8.47423 2.86077 8.28701 2.66905 8.12459 2.50889C7.9148 2.29571 7.69712 2.08255 7.48282 1.87389C7.29107 1.69117 7.09822 1.50843 6.90647 1.32571L6.74855 1.18248C6.73163 1.16443 6.7136 1.14298 6.69217 1.12607C6.63916 1.06854 6.58727 1.02117 6.53087 1.00425C6.46094 0.986204 6.41244 1.02568 6.31657 1.12156L6.28611 1.14751C6.1767 1.25128 6.0628 1.35618 5.9534 1.45995L5.89247 1.51296C5.60824 1.76899 5.32517 2.04308 5.04094 2.32618C4.91799 2.44799 4.80067 2.57318 4.68224 2.69951C4.55591 2.83937 4.42958 2.97811 4.29762 3.10894L4.25817 3.15631C3.95702 3.50032 3.64231 3.86125 3.35019 4.26053L3.18893 4.48271C3.04004 4.68235 2.88212 4.89551 2.72535 5.12221L2.71182 5.14366C2.70392 5.15719 2.69036 5.18315 2.66442 5.20458C2.62043 5.24857 2.58098 5.31736 2.54601 5.38278C2.52458 5.41323 2.50652 5.44819 2.48509 5.47413C2.41967 5.57903 2.35427 5.67827 2.28886 5.78316C2.15351 5.99634 2.02605 6.21741 1.89973 6.43509C1.63693 6.9043 1.4012 7.38368 1.20044 7.84838C0.768451 8.87025 0.493222 9.82672 0.361258 10.7663C0.304863 11.1881 0.274414 11.6099 0.274414 12.0227C0.274414 13.3063 0.554125 14.6327 1.10454 15.9636L1.11356 16.002C1.11356 16.0065 1.11357 16.011 1.13049 16.0369L1.15304 16.0719C1.53653 17.0069 2.04861 17.9465 2.67234 18.8679L2.71182 18.9074L2.82572 19.0642C3.00054 19.3157 3.16634 19.5548 3.34568 19.7725C3.93106 20.5294 4.57285 21.2557 5.26312 21.9381C5.61728 22.2855 5.98047 22.6159 6.33801 22.9205C6.40794 22.9814 6.46883 23.004 6.53425 22.9994C6.62222 22.9904 6.69669 22.9205 6.77113 22.8517L6.82751 22.7987C6.92338 22.7164 7.01927 22.634 7.11176 22.5472C7.39148 22.29 7.67456 22.0159 7.95428 21.734C8.1776 21.5073 8.44378 21.2331 8.69756 20.9421C9.00322 20.5902 10.0996 19.2165 10.3139 18.9119C10.6725 18.3897 11.021 17.7987 11.3538 17.1547C11.506 16.8591 11.6459 16.5546 11.7767 16.2501C12.2234 15.1933 12.5065 14.2232 12.6385 13.2848C12.6949 12.8585 12.7253 12.4321 12.7253 12.0227C12.7253 11.0234 12.555 9.99252 12.2189 8.95259ZM10.6026 6.57835C10.9162 7.11749 11.1305 7.54835 11.3053 7.9747L11.3357 8.04802L10.4797 8.73602L10.3793 6.20052L10.6026 6.57835ZM8.62314 3.7913L8.7675 3.96048C9.00323 4.24809 9.24799 4.53909 9.49275 4.87408L9.61456 5.0478H8.35693L8.62314 3.7913ZM9.84577 5.54408L9.97323 8.90069L8.55771 8.50482L8.29941 5.54408H9.84577ZM9.15549 11.1836L8.67952 9.05297L9.91234 9.39697L9.15549 11.1836ZM9.16 12.854L9.88525 14.6451L8.65357 14.9891L9.16 12.854ZM7.44333 2.50438C7.55725 2.62619 7.67909 2.75589 7.80203 2.88672C7.92385 3.01305 8.04677 3.13939 8.16407 3.2691L8.20355 3.30855L7.97235 4.41277L7.04182 2.05997L7.44333 2.50438ZM8.01971 8.17885L6.82751 7.27427L7.83246 5.96139L8.01971 8.17885ZM6.47787 1.99116L7.75353 5.26547L6.47336 6.90432L5.19769 5.24403L6.47787 1.99116ZM6.12371 7.27427L4.93151 8.17885L5.11986 5.96139L6.12371 7.27427ZM4.7612 3.3176C5.00144 3.02999 5.27216 2.76494 5.50789 2.52582L5.87106 2.16939L4.98789 4.47369L4.72623 3.36046L4.7612 3.3176ZM4.84353 8.80934L6.47787 7.59232L8.10769 8.80934L8.84195 11.9968L8.10769 15.1842L6.47787 16.4024L4.84353 15.1842L4.1104 11.9968L4.84353 8.80934ZM8.01971 15.8632L7.83246 18.0807L6.82751 16.7723L8.01971 15.8632ZM6.09776 16.7678L5.12327 18.0852L4.90105 15.8632L6.09776 16.7678ZM4.2717 14.9891L3.04002 14.6451L3.76978 12.854L4.2717 14.9891ZM3.06597 9.39697L4.29762 9.05297L3.79122 11.1881L3.06597 9.39697ZM3.59495 4.70039C3.7867 4.45225 3.96602 4.22216 4.16228 3.98643L4.29762 3.82176L4.5999 5.0478H3.32764L3.59495 4.70039ZM3.08401 5.54408H4.65181L4.39465 8.50482L2.97913 8.90069L3.08401 5.54408ZM1.60195 8.04461C1.8343 7.50096 2.12191 6.96521 2.34975 6.55691L2.57193 6.15653L2.47607 8.76986L1.56698 8.12243L1.60195 8.04461ZM0.824837 10.888C0.890255 10.244 1.05606 9.54471 1.33127 8.7439L1.37977 8.60969L2.36217 9.27966L0.785356 11.258L0.824837 10.888ZM1.35832 15.3974C1.08312 14.6451 0.894755 13.8883 0.798884 13.154L0.750385 12.7716L2.35876 14.7804L1.4102 15.5418L1.35832 15.3974ZM2.34975 17.4637C2.03506 16.9246 1.82077 16.4937 1.64594 16.0674L1.61548 15.9941L2.47156 15.3061L2.57193 17.8416L2.34975 17.4637ZM2.64188 14.3101L0.794374 12.0227L2.64188 9.7094L3.5679 12.0227L2.64188 14.3101ZM4.32808 20.2508L4.18486 20.0816C3.948 19.7985 3.70436 19.5029 3.45961 19.168L3.33666 18.9943H4.59539L4.32808 20.2508ZM3.10545 18.498L2.97913 15.1459L4.39465 15.5373L4.65181 18.498H3.10545ZM5.50789 21.5377C5.39848 21.4159 5.27214 21.2907 5.15033 21.1553C5.02738 21.0335 4.90558 20.9027 4.78715 20.7775L4.74767 20.7335L4.98001 19.6338L5.91054 21.9855L5.50789 21.5377ZM6.47336 22.0509L5.19769 18.7766L6.47787 17.1378L7.75353 18.798L6.47336 22.0509ZM8.19002 20.7245C7.94978 21.0121 7.68358 21.2771 7.44784 21.5117L7.08467 21.8727L7.96329 19.5684L8.225 20.6816L8.19002 20.7245ZM9.3529 19.3462C9.16454 19.5898 8.9852 19.8244 8.79346 20.0556L8.65357 20.2203L8.35242 18.9943H9.62358L9.3529 19.3462ZM9.86835 18.498H8.3265L8.55771 15.5373L9.97323 15.1459L9.86835 18.498ZM10.3093 14.3327L9.38332 12.0227L10.3093 9.73536L12.1568 12.0193L10.3093 14.3327ZM11.3493 15.9974C11.118 16.5411 10.8293 17.0802 10.6026 17.4851L10.3793 17.8889L10.4752 15.2711L11.3842 15.9196L11.3493 15.9974ZM12.1264 13.154C12.061 13.7969 11.8952 14.4973 11.62 15.3026L11.5715 15.4369L10.5891 14.7624L12.1659 12.784L12.1264 13.154ZM10.5936 9.26162L11.541 8.50482L11.594 8.64467C11.8692 9.39698 12.0565 10.1538 12.1535 10.888L12.2008 11.2704L10.5936 9.26162Z" stroke="black" stroke-opacity="0.2" stroke-width="0.22"/>
<path d="M12.2189 8.95259C11.9211 8.04802 11.5015 7.1175 10.9692 6.1915C10.5056 5.38279 10.095 4.77371 9.67996 4.26954C9.39573 3.88719 9.06864 3.50029 8.65357 3.0559C8.47423 2.86077 8.28701 2.66905 8.12459 2.50889C7.9148 2.29571 7.69712 2.08255 7.48282 1.87389C7.29107 1.69117 7.09822 1.50843 6.90647 1.32571L6.74855 1.18248C6.73163 1.16443 6.7136 1.14298 6.69217 1.12607C6.63916 1.06854 6.58727 1.02117 6.53087 1.00425C6.46094 0.986204 6.41244 1.02568 6.31657 1.12156L6.28611 1.14751C6.1767 1.25128 6.0628 1.35618 5.9534 1.45995L5.89247 1.51296C5.60824 1.76899 5.32517 2.04308 5.04094 2.32618C4.91799 2.44799 4.80067 2.57318 4.68224 2.69951C4.55591 2.83937 4.42958 2.97811 4.29762 3.10894L4.25817 3.15631C3.95702 3.50032 3.64231 3.86125 3.35019 4.26053L3.18893 4.48271C3.04004 4.68235 2.88212 4.89551 2.72535 5.12221L2.71182 5.14366C2.70392 5.15719 2.69036 5.18315 2.66442 5.20458C2.62043 5.24857 2.58098 5.31736 2.54601 5.38278C2.52458 5.41323 2.50652 5.44819 2.48509 5.47413C2.41967 5.57903 2.35427 5.67827 2.28886 5.78316C2.15351 5.99634 2.02605 6.21741 1.89973 6.43509C1.63693 6.9043 1.4012 7.38368 1.20044 7.84838C0.768451 8.87025 0.493222 9.82672 0.361258 10.7663C0.304863 11.1881 0.274414 11.6099 0.274414 12.0227C0.274414 13.3063 0.554125 14.6327 1.10454 15.9636L1.11356 16.002C1.11356 16.0065 1.11357 16.011 1.13049 16.0369L1.15304 16.0719C1.53653 17.0069 2.04861 17.9465 2.67234 18.8679L2.71182 18.9074L2.82572 19.0642C3.00054 19.3157 3.16634 19.5548 3.34568 19.7725C3.93106 20.5294 4.57285 21.2557 5.26312 21.9381C5.61728 22.2855 5.98047 22.6159 6.33801 22.9205C6.40794 22.9814 6.46883 23.004 6.53425 22.9994C6.62222 22.9904 6.69669 22.9205 6.77113 22.8517L6.82751 22.7987C6.92338 22.7164 7.01927 22.634 7.11176 22.5472C7.39148 22.29 7.67456 22.0159 7.95428 21.734C8.1776 21.5073 8.44378 21.2331 8.69756 20.9421C9.00322 20.5902 10.0996 19.2165 10.3139 18.9119C10.6725 18.3897 11.021 17.7987 11.3538 17.1547C11.506 16.8591 11.6459 16.5546 11.7767 16.2501C12.2234 15.1933 12.5065 14.2232 12.6385 13.2848C12.6949 12.8585 12.7253 12.4321 12.7253 12.0227C12.7253 11.0234 12.555 9.99252 12.2189 8.95259ZM10.6026 6.57835C10.9162 7.11749 11.1305 7.54835 11.3053 7.9747L11.3357 8.04802L10.4797 8.73602L10.3793 6.20052L10.6026 6.57835ZM8.62314 3.7913L8.7675 3.96048C9.00323 4.24809 9.24799 4.53909 9.49275 4.87408L9.61456 5.0478H8.35693L8.62314 3.7913ZM9.84577 5.54408L9.97323 8.90069L8.55771 8.50482L8.29941 5.54408H9.84577ZM9.15549 11.1836L8.67952 9.05297L9.91234 9.39697L9.15549 11.1836ZM9.16 12.854L9.88525 14.6451L8.65357 14.9891L9.16 12.854ZM7.44333 2.50438C7.55725 2.62619 7.67909 2.75589 7.80203 2.88672C7.92385 3.01305 8.04677 3.13939 8.16407 3.2691L8.20355 3.30855L7.97235 4.41277L7.04182 2.05997L7.44333 2.50438ZM8.01971 8.17885L6.82751 7.27427L7.83246 5.96139L8.01971 8.17885ZM6.47787 1.99116L7.75353 5.26547L6.47336 6.90432L5.19769 5.24403L6.47787 1.99116ZM6.12371 7.27427L4.93151 8.17885L5.11986 5.96139L6.12371 7.27427ZM4.7612 3.3176C5.00144 3.02999 5.27216 2.76494 5.50789 2.52582L5.87106 2.16939L4.98789 4.47369L4.72623 3.36046L4.7612 3.3176ZM4.84353 8.80934L6.47787 7.59232L8.10769 8.80934L8.84195 11.9968L8.10769 15.1842L6.47787 16.4024L4.84353 15.1842L4.1104 11.9968L4.84353 8.80934ZM8.01971 15.8632L7.83246 18.0807L6.82751 16.7723L8.01971 15.8632ZM6.09776 16.7678L5.12327 18.0852L4.90105 15.8632L6.09776 16.7678ZM4.2717 14.9891L3.04002 14.6451L3.76978 12.854L4.2717 14.9891ZM3.06597 9.39697L4.29762 9.05297L3.79122 11.1881L3.06597 9.39697ZM3.59495 4.70039C3.7867 4.45225 3.96602 4.22216 4.16228 3.98643L4.29762 3.82176L4.5999 5.0478H3.32764L3.59495 4.70039ZM3.08401 5.54408H4.65181L4.39465 8.50482L2.97913 8.90069L3.08401 5.54408ZM1.60195 8.04461C1.8343 7.50096 2.12191 6.96521 2.34975 6.55691L2.57193 6.15653L2.47607 8.76986L1.56698 8.12243L1.60195 8.04461ZM0.824837 10.888C0.890255 10.244 1.05606 9.54471 1.33127 8.7439L1.37977 8.60969L2.36217 9.27966L0.785356 11.258L0.824837 10.888ZM1.35832 15.3974C1.08312 14.6451 0.894755 13.8883 0.798884 13.154L0.750385 12.7716L2.35876 14.7804L1.4102 15.5418L1.35832 15.3974ZM2.34975 17.4637C2.03506 16.9246 1.82077 16.4937 1.64594 16.0674L1.61548 15.9941L2.47156 15.3061L2.57193 17.8416L2.34975 17.4637ZM2.64188 14.3101L0.794374 12.0227L2.64188 9.7094L3.5679 12.0227L2.64188 14.3101ZM4.32808 20.2508L4.18486 20.0816C3.948 19.7985 3.70436 19.5029 3.45961 19.168L3.33666 18.9943H4.59539L4.32808 20.2508ZM3.10545 18.498L2.97913 15.1459L4.39465 15.5373L4.65181 18.498H3.10545ZM5.50789 21.5377C5.39848 21.4159 5.27214 21.2907 5.15033 21.1553C5.02738 21.0335 4.90558 20.9027 4.78715 20.7775L4.74767 20.7335L4.98001 19.6338L5.91054 21.9855L5.50789 21.5377ZM6.47336 22.0509L5.19769 18.7766L6.47787 17.1378L7.75353 18.798L6.47336 22.0509ZM8.19002 20.7245C7.94978 21.0121 7.68358 21.2771 7.44784 21.5117L7.08467 21.8727L7.96329 19.5684L8.225 20.6816L8.19002 20.7245ZM9.3529 19.3462C9.16454 19.5898 8.9852 19.8244 8.79346 20.0556L8.65357 20.2203L8.35242 18.9943H9.62358L9.3529 19.3462ZM9.86835 18.498H8.3265L8.55771 15.5373L9.97323 15.1459L9.86835 18.498ZM10.3093 14.3327L9.38332 12.0227L10.3093 9.73536L12.1568 12.0193L10.3093 14.3327ZM11.3493 15.9974C11.118 16.5411 10.8293 17.0802 10.6026 17.4851L10.3793 17.8889L10.4752 15.2711L11.3842 15.9196L11.3493 15.9974ZM12.1264 13.154C12.061 13.7969 11.8952 14.4973 11.62 15.3026L11.5715 15.4369L10.5891 14.7624L12.1659 12.784L12.1264 13.154ZM10.5936 9.26162L11.541 8.50482L11.594 8.64467C11.8692 9.39698 12.0565 10.1538 12.1535 10.888L12.2008 11.2704L10.5936 9.26162Z" stroke="black" stroke-opacity="0.2" stroke-width="0.22"/>
<path d="M12.2189 8.95259C11.9211 8.04802 11.5015 7.1175 10.9692 6.1915C10.5056 5.38279 10.095 4.77371 9.67996 4.26954C9.39573 3.88719 9.06864 3.50029 8.65357 3.0559C8.47423 2.86077 8.28701 2.66905 8.12459 2.50889C7.9148 2.29571 7.69712 2.08255 7.48282 1.87389C7.29107 1.69117 7.09822 1.50843 6.90647 1.32571L6.74855 1.18248C6.73163 1.16443 6.7136 1.14298 6.69217 1.12607C6.63916 1.06854 6.58727 1.02117 6.53087 1.00425C6.46094 0.986204 6.41244 1.02568 6.31657 1.12156L6.28611 1.14751C6.1767 1.25128 6.0628 1.35618 5.9534 1.45995L5.89247 1.51296C5.60824 1.76899 5.32517 2.04308 5.04094 2.32618C4.91799 2.44799 4.80067 2.57318 4.68224 2.69951C4.55591 2.83937 4.42958 2.97811 4.29762 3.10894L4.25817 3.15631C3.95702 3.50032 3.64231 3.86125 3.35019 4.26053L3.18893 4.48271C3.04004 4.68235 2.88212 4.89551 2.72535 5.12221L2.71182 5.14366C2.70392 5.15719 2.69036 5.18315 2.66442 5.20458C2.62043 5.24857 2.58098 5.31736 2.54601 5.38278C2.52458 5.41323 2.50652 5.44819 2.48509 5.47413C2.41967 5.57903 2.35427 5.67827 2.28886 5.78316C2.15351 5.99634 2.02605 6.21741 1.89973 6.43509C1.63693 6.9043 1.4012 7.38368 1.20044 7.84838C0.768451 8.87025 0.493222 9.82672 0.361258 10.7663C0.304863 11.1881 0.274414 11.6099 0.274414 12.0227C0.274414 13.3063 0.554125 14.6327 1.10454 15.9636L1.11356 16.002C1.11356 16.0065 1.11357 16.011 1.13049 16.0369L1.15304 16.0719C1.53653 17.0069 2.04861 17.9465 2.67234 18.8679L2.71182 18.9074L2.82572 19.0642C3.00054 19.3157 3.16634 19.5548 3.34568 19.7725C3.93106 20.5294 4.57285 21.2557 5.26312 21.9381C5.61728 22.2855 5.98047 22.6159 6.33801 22.9205C6.40794 22.9814 6.46883 23.004 6.53425 22.9994C6.62222 22.9904 6.69669 22.9205 6.77113 22.8517L6.82751 22.7987C6.92338 22.7164 7.01927 22.634 7.11176 22.5472C7.39148 22.29 7.67456 22.0159 7.95428 21.734C8.1776 21.5073 8.44378 21.2331 8.69756 20.9421C9.00322 20.5902 10.0996 19.2165 10.3139 18.9119C10.6725 18.3897 11.021 17.7987 11.3538 17.1547C11.506 16.8591 11.6459 16.5546 11.7767 16.2501C12.2234 15.1933 12.5065 14.2232 12.6385 13.2848C12.6949 12.8585 12.7253 12.4321 12.7253 12.0227C12.7253 11.0234 12.555 9.99252 12.2189 8.95259ZM10.6026 6.57835C10.9162 7.11749 11.1305 7.54835 11.3053 7.9747L11.3357 8.04802L10.4797 8.73602L10.3793 6.20052L10.6026 6.57835ZM8.62314 3.7913L8.7675 3.96048C9.00323 4.24809 9.24799 4.53909 9.49275 4.87408L9.61456 5.0478H8.35693L8.62314 3.7913ZM9.84577 5.54408L9.97323 8.90069L8.55771 8.50482L8.29941 5.54408H9.84577ZM9.15549 11.1836L8.67952 9.05297L9.91234 9.39697L9.15549 11.1836ZM9.16 12.854L9.88525 14.6451L8.65357 14.9891L9.16 12.854ZM7.44333 2.50438C7.55725 2.62619 7.67909 2.75589 7.80203 2.88672C7.92385 3.01305 8.04677 3.13939 8.16407 3.2691L8.20355 3.30855L7.97235 4.41277L7.04182 2.05997L7.44333 2.50438ZM8.01971 8.17885L6.82751 7.27427L7.83246 5.96139L8.01971 8.17885ZM6.47787 1.99116L7.75353 5.26547L6.47336 6.90432L5.19769 5.24403L6.47787 1.99116ZM6.12371 7.27427L4.93151 8.17885L5.11986 5.96139L6.12371 7.27427ZM4.7612 3.3176C5.00144 3.02999 5.27216 2.76494 5.50789 2.52582L5.87106 2.16939L4.98789 4.47369L4.72623 3.36046L4.7612 3.3176ZM4.84353 8.80934L6.47787 7.59232L8.10769 8.80934L8.84195 11.9968L8.10769 15.1842L6.47787 16.4024L4.84353 15.1842L4.1104 11.9968L4.84353 8.80934ZM8.01971 15.8632L7.83246 18.0807L6.82751 16.7723L8.01971 15.8632ZM6.09776 16.7678L5.12327 18.0852L4.90105 15.8632L6.09776 16.7678ZM4.2717 14.9891L3.04002 14.6451L3.76978 12.854L4.2717 14.9891ZM3.06597 9.39697L4.29762 9.05297L3.79122 11.1881L3.06597 9.39697ZM3.59495 4.70039C3.7867 4.45225 3.96602 4.22216 4.16228 3.98643L4.29762 3.82176L4.5999 5.0478H3.32764L3.59495 4.70039ZM3.08401 5.54408H4.65181L4.39465 8.50482L2.97913 8.90069L3.08401 5.54408ZM1.60195 8.04461C1.8343 7.50096 2.12191 6.96521 2.34975 6.55691L2.57193 6.15653L2.47607 8.76986L1.56698 8.12243L1.60195 8.04461ZM0.824837 10.888C0.890255 10.244 1.05606 9.54471 1.33127 8.7439L1.37977 8.60969L2.36217 9.27966L0.785356 11.258L0.824837 10.888ZM1.35832 15.3974C1.08312 14.6451 0.894755 13.8883 0.798884 13.154L0.750385 12.7716L2.35876 14.7804L1.4102 15.5418L1.35832 15.3974ZM2.34975 17.4637C2.03506 16.9246 1.82077 16.4937 1.64594 16.0674L1.61548 15.9941L2.47156 15.3061L2.57193 17.8416L2.34975 17.4637ZM2.64188 14.3101L0.794374 12.0227L2.64188 9.7094L3.5679 12.0227L2.64188 14.3101ZM4.32808 20.2508L4.18486 20.0816C3.948 19.7985 3.70436 19.5029 3.45961 19.168L3.33666 18.9943H4.59539L4.32808 20.2508ZM3.10545 18.498L2.97913 15.1459L4.39465 15.5373L4.65181 18.498H3.10545ZM5.50789 21.5377C5.39848 21.4159 5.27214 21.2907 5.15033 21.1553C5.02738 21.0335 4.90558 20.9027 4.78715 20.7775L4.74767 20.7335L4.98001 19.6338L5.91054 21.9855L5.50789 21.5377ZM6.47336 22.0509L5.19769 18.7766L6.47787 17.1378L7.75353 18.798L6.47336 22.0509ZM8.19002 20.7245C7.94978 21.0121 7.68358 21.2771 7.44784 21.5117L7.08467 21.8727L7.96329 19.5684L8.225 20.6816L8.19002 20.7245ZM9.3529 19.3462C9.16454 19.5898 8.9852 19.8244 8.79346 20.0556L8.65357 20.2203L8.35242 18.9943H9.62358L9.3529 19.3462ZM9.86835 18.498H8.3265L8.55771 15.5373L9.97323 15.1459L9.86835 18.498ZM10.3093 14.3327L9.38332 12.0227L10.3093 9.73536L12.1568 12.0193L10.3093 14.3327ZM11.3493 15.9974C11.118 16.5411 10.8293 17.0802 10.6026 17.4851L10.3793 17.8889L10.4752 15.2711L11.3842 15.9196L11.3493 15.9974ZM12.1264 13.154C12.061 13.7969 11.8952 14.4973 11.62 15.3026L11.5715 15.4369L10.5891 14.7624L12.1659 12.784L12.1264 13.154ZM10.5936 9.26162L11.541 8.50482L11.594 8.64467C11.8692 9.39698 12.0565 10.1538 12.1535 10.888L12.2008 11.2704L10.5936 9.26162Z" stroke="black" stroke-opacity="0.2" stroke-width="0.22"/>
</g>
</g>
</svg>
