<svg width="14" height="26" viewBox="0 0 14 26" fill="none" xmlns="http://www.w3.org/2000/svg">
<path d="M6.9828 0H6.71468C2.70825 3.20519 0.21875 8.187 0.21875 13C0.21875 17.813 2.7081 22.7951 6.71468 26H6.9828C10.9892 22.7948 13.4787 17.813 13.4787 13C13.4787 8.187 10.9894 3.20494 6.9828 0ZM6.84874 20.4884L5.00944 18.9572L3.35554 13.0005L5.00944 7.04383L6.84874 5.51265L8.68804 7.04383L10.3419 13.0005L8.68804 18.9572L6.84874 20.4884ZM6.5635 5.20407L5.16339 6.37025L5.62824 4.03764L6.5635 5.20407ZM4.62455 6.81525L2.34326 9.09654L2.38603 6.08826L5.1805 4.0409L4.62455 6.81525ZM3.1417 13.7705L4.41354 18.3529L2.37753 16.3169L3.1417 13.7705ZM3.1417 12.2307L2.37748 9.68431L4.41349 7.64831L3.1417 12.2307ZM2.91076 13.0007L2.07236 15.8009L0.672247 13.0005L2.07236 10.2003L2.91076 13.0007ZM4.62179 19.1855L5.17795 21.9573L2.38348 19.91L2.3435 16.9017L4.62179 19.1855ZM5.61413 21.9629L5.14928 19.6303L6.5635 20.7964L5.61413 21.9629ZM10.5699 13.7703L11.3341 16.3167L9.29813 18.3527L10.5699 13.7703ZM10.5699 12.2305L9.29808 7.6481L11.3341 9.68411L10.5699 12.2305ZM9.07296 6.8126L8.5168 4.0408L11.3113 6.08816L11.354 9.09644L9.07296 6.8126ZM8.08062 4.03524L8.55979 6.37041L7.13402 5.20423L8.08062 4.03524ZM8.55979 19.6302L8.09494 21.9628L7.13402 20.7966L8.55979 19.6302ZM9.08728 19.1854L11.3686 16.9041L11.3258 19.9124L8.53133 21.9597L9.08728 19.1854ZM10.7983 13.0006L11.6367 10.2004L13.0253 13.0006L11.6252 15.8008L10.7983 13.0006ZM11.8762 9.71841L12.5519 9.37052C12.7801 10.2366 12.9298 11.1211 12.9997 12.014L11.8762 9.71841ZM11.7849 9.29354L11.7507 7.01225C12.0216 7.64596 12.2541 8.29539 12.4465 8.95716L11.7849 9.29354ZM8.55979 3.53647L9.3069 2.93199C9.88831 3.65659 10.4118 4.4262 10.8723 5.23314L8.55979 3.53647ZM6.84876 4.89106L5.74241 3.50805L6.84876 0.73905L7.95511 3.5023L6.84876 4.89106ZM2.83378 5.23318C3.29426 4.42619 3.81777 3.65663 4.39918 2.93203L5.13773 3.53651L2.83378 5.23318ZM1.91263 9.29368L1.25107 8.95156C1.44382 8.29178 1.67614 7.64412 1.94685 7.0124L1.91263 9.29368ZM1.83287 9.73287L0.692351 12.0142C0.763757 11.1213 0.915525 10.2365 1.14566 9.37067L1.83287 9.73287ZM1.83287 16.2914L1.14564 16.6308C0.917496 15.7647 0.767718 14.8802 0.697901 13.9873L1.83287 16.2914ZM1.91263 16.7306L1.94684 19.0119V19.0117C1.67593 18.3782 1.44341 17.7288 1.25106 17.067L1.91263 16.7306ZM5.13773 22.4648L4.39062 23.0693C3.80921 22.3447 3.2857 21.575 2.82523 20.7681L5.13773 22.4648ZM6.84876 21.1102L7.95511 22.4932L6.84876 25.2622L5.74241 22.4989L6.84876 21.1102ZM10.8637 20.7681C10.4033 21.5751 9.87975 22.3446 9.29834 23.0692L8.55979 22.4647L10.8637 20.7681ZM11.7849 16.7217L12.4465 17.0497C12.2537 17.7094 12.0214 18.3571 11.7507 18.9888L11.7849 16.7217ZM11.8647 16.2825L13.0052 14.0012V14.0014C12.9328 14.8895 12.7812 15.7695 12.5519 16.6306L11.8647 16.2825ZM9.01311 2.59505L8.28031 3.19097L7.37072 0.895579L7.37052 0.895778C7.96109 1.42489 8.51363 1.99454 9.02441 2.601L9.01311 2.59505ZM6.31549 0.88402L5.39434 3.18517L4.66154 2.58925V2.58944C5.1765 1.98675 5.73306 1.42067 6.327 0.895727L6.31549 0.88402ZM4.66159 23.3883L5.39439 22.7924L6.31554 25.0936V25.0938C5.72955 24.5678 5.18057 24.002 4.67315 23.3998L4.66159 23.3883ZM7.35921 25.0994L8.28036 22.7982L9.01316 23.3941V23.3943C8.50614 24.0022 7.95737 24.5739 7.37056 25.1052L7.35921 25.0994Z" fill="black"/>
</svg>
