<svg width="42" height="36" viewBox="0 0 42 36" fill="none" xmlns="http://www.w3.org/2000/svg">
<g id="ring icons">
<g id="Vector">
<path d="M36.725 13H5.5136C4.1275 13 3 14.128 3 15.514V21.103C3 22.488 4.1275 23.616 5.5136 23.616H36.725C38.111 23.616 39.239 22.489 39.239 21.103V15.514C39.239 14.128 38.111 13 36.725 13ZM38.489 21.103C38.489 22.075 37.698 22.866 36.725 22.866H5.5136C4.5409 22.866 3.75 22.075 3.75 21.103V15.514C3.75 14.541 4.5409 13.75 5.5136 13.75H36.725C37.698 13.75 38.489 14.541 38.489 15.514V21.103Z" fill="#333335"/>
<path d="M36.725 13H5.5136C4.1275 13 3 14.128 3 15.514V21.103C3 22.488 4.1275 23.616 5.5136 23.616H36.725C38.111 23.616 39.239 22.489 39.239 21.103V15.514C39.239 14.128 38.111 13 36.725 13ZM38.489 21.103C38.489 22.075 37.698 22.866 36.725 22.866H5.5136C4.5409 22.866 3.75 22.075 3.75 21.103V15.514C3.75 14.541 4.5409 13.75 5.5136 13.75H36.725C37.698 13.75 38.489 14.541 38.489 15.514V21.103Z" fill="black" fill-opacity="0.2"/>
<path d="M36.725 13H5.5136C4.1275 13 3 14.128 3 15.514V21.103C3 22.488 4.1275 23.616 5.5136 23.616H36.725C38.111 23.616 39.239 22.489 39.239 21.103V15.514C39.239 14.128 38.111 13 36.725 13ZM38.489 21.103C38.489 22.075 37.698 22.866 36.725 22.866H5.5136C4.5409 22.866 3.75 22.075 3.75 21.103V15.514C3.75 14.541 4.5409 13.75 5.5136 13.75H36.725C37.698 13.75 38.489 14.541 38.489 15.514V21.103Z" fill="black" fill-opacity="0.2"/>
<path d="M36.725 13H5.5136C4.1275 13 3 14.128 3 15.514V21.103C3 22.488 4.1275 23.616 5.5136 23.616H36.725C38.111 23.616 39.239 22.489 39.239 21.103V15.514C39.239 14.128 38.111 13 36.725 13ZM38.489 21.103C38.489 22.075 37.698 22.866 36.725 22.866H5.5136C4.5409 22.866 3.75 22.075 3.75 21.103V15.514C3.75 14.541 4.5409 13.75 5.5136 13.75H36.725C37.698 13.75 38.489 14.541 38.489 15.514V21.103Z" fill="black" fill-opacity="0.2"/>
<path d="M36.725 13H5.5136C4.1275 13 3 14.128 3 15.514V21.103C3 22.488 4.1275 23.616 5.5136 23.616H36.725C38.111 23.616 39.239 22.489 39.239 21.103V15.514C39.239 14.128 38.111 13 36.725 13ZM38.489 21.103C38.489 22.075 37.698 22.866 36.725 22.866H5.5136C4.5409 22.866 3.75 22.075 3.75 21.103V15.514C3.75 14.541 4.5409 13.75 5.5136 13.75H36.725C37.698 13.75 38.489 14.541 38.489 15.514V21.103Z" fill="black" fill-opacity="0.2"/>
<path d="M36.725 13H5.5136C4.1275 13 3 14.128 3 15.514V21.103C3 22.488 4.1275 23.616 5.5136 23.616H36.725C38.111 23.616 39.239 22.489 39.239 21.103V15.514C39.239 14.128 38.111 13 36.725 13ZM38.489 21.103C38.489 22.075 37.698 22.866 36.725 22.866H5.5136C4.5409 22.866 3.75 22.075 3.75 21.103V15.514C3.75 14.541 4.5409 13.75 5.5136 13.75H36.725C37.698 13.75 38.489 14.541 38.489 15.514V21.103Z" fill="black" fill-opacity="0.2"/>
<path d="M36.725 13H5.5136C4.1275 13 3 14.128 3 15.514V21.103C3 22.488 4.1275 23.616 5.5136 23.616H36.725C38.111 23.616 39.239 22.489 39.239 21.103V15.514C39.239 14.128 38.111 13 36.725 13ZM38.489 21.103C38.489 22.075 37.698 22.866 36.725 22.866H5.5136C4.5409 22.866 3.75 22.075 3.75 21.103V15.514C3.75 14.541 4.5409 13.75 5.5136 13.75H36.725C37.698 13.75 38.489 14.541 38.489 15.514V21.103Z" fill="black" fill-opacity="0.2"/>
<path d="M36.725 13H5.5136C4.1275 13 3 14.128 3 15.514V21.103C3 22.488 4.1275 23.616 5.5136 23.616H36.725C38.111 23.616 39.239 22.489 39.239 21.103V15.514C39.239 14.128 38.111 13 36.725 13ZM38.489 21.103C38.489 22.075 37.698 22.866 36.725 22.866H5.5136C4.5409 22.866 3.75 22.075 3.75 21.103V15.514C3.75 14.541 4.5409 13.75 5.5136 13.75H36.725C37.698 13.75 38.489 14.541 38.489 15.514V21.103Z" fill="black" fill-opacity="0.2"/>
<path d="M36.725 13H5.5136C4.1275 13 3 14.128 3 15.514V21.103C3 22.488 4.1275 23.616 5.5136 23.616H36.725C38.111 23.616 39.239 22.489 39.239 21.103V15.514C39.239 14.128 38.111 13 36.725 13ZM38.489 21.103C38.489 22.075 37.698 22.866 36.725 22.866H5.5136C4.5409 22.866 3.75 22.075 3.75 21.103V15.514C3.75 14.541 4.5409 13.75 5.5136 13.75H36.725C37.698 13.75 38.489 14.541 38.489 15.514V21.103Z" fill="black" fill-opacity="0.2"/>
</g>
<g id="Vector_2">
<path d="M21.1161 15C19.9684 15 18.9214 15.582 18.3172 16.554C17.9865 17.08 17.8115 17.686 17.8115 18.306C17.8115 20.131 19.2943 21.616 21.1161 21.616C22.9421 21.616 24.4271 20.131 24.4271 18.306C24.4271 17.681 24.2501 17.074 23.9181 16.557C23.3271 15.597 22.2541 15 21.1161 15ZM21.1191 19.444L20.3119 19.11L19.9777 18.304L20.3119 17.497L21.1191 17.164L21.9261 17.497L22.2601 18.304L21.9261 19.11L21.1191 19.444ZM21.8761 19.337L21.7811 19.916L21.3081 19.57L21.8761 19.337ZM20.9301 19.563L20.4507 19.91L20.3623 19.33L20.9301 19.563ZM18.5946 18.633L19.1454 19.015L18.7312 19.2C18.6636 19.02 18.62 18.83 18.5946 18.633ZM18.5698 18.389C18.5689 18.361 18.5614 18.334 18.5614 18.306C18.5614 18.277 18.5665 18.248 18.5674 18.219L19.3218 17.699L19.7633 18.304L19.3218 18.908L18.5698 18.389ZM18.5841 17.984C18.6085 17.794 18.6583 17.608 18.7249 17.428L19.1453 17.592L18.5841 17.984ZM19.5048 17.642L20.0849 17.554L19.8516 18.115L19.5048 17.642ZM19.8578 18.493L20.0911 19.059L19.511 18.965L19.8578 18.493ZM20.3623 17.271L20.457 16.691L20.9301 17.037L20.3623 17.271ZM21.3081 17.044L21.7871 16.697L21.8761 17.277L21.3081 17.044ZM23.1411 16.757C23.1901 16.822 23.2391 16.887 23.2831 16.956C23.3391 17.044 23.3871 17.136 23.4311 17.229L23.0231 17.409L23.1411 16.757ZM22.9821 16.57L22.8221 17.46L22.0771 17.34L21.9641 16.603L22.8601 16.441C22.9031 16.482 22.9421 16.527 22.9821 16.57ZM22.7271 17.642L22.3861 18.115L22.1471 17.548L22.7271 17.642ZM22.3861 18.493L22.7331 18.965L22.1471 19.059L22.3861 18.493ZM22.4751 18.304L22.9161 17.699L23.6711 18.22C23.6721 18.249 23.6771 18.277 23.6771 18.306C23.6771 18.334 23.6701 18.361 23.6691 18.389L22.9161 18.908L22.4751 18.304ZM23.6451 18.629C23.6201 18.82 23.5781 19.004 23.5141 19.179L23.0931 19.015L23.6451 18.629ZM23.0931 17.592L23.5051 17.408C23.5761 17.593 23.6291 17.784 23.6541 17.981L23.0931 17.592ZM22.6701 16.283L22.0081 16.401L22.1691 15.984C22.3471 16.065 22.5151 16.164 22.6701 16.283ZM21.9891 15.909L21.8311 16.326L21.4431 15.771C21.6311 15.796 21.8131 15.845 21.9891 15.909ZM21.7241 16.502L21.1191 16.949L20.5138 16.508L21.0301 15.761C21.0601 15.76 21.0871 15.75 21.1161 15.75C21.1461 15.75 21.1751 15.755 21.2051 15.756L21.7241 16.502ZM20.7711 15.794L20.4001 16.332L20.221 15.932C20.3978 15.865 20.5803 15.82 20.7711 15.794ZM20.2236 16.401L19.5822 16.286C19.728 16.174 19.8808 16.078 20.0469 16.001L20.2236 16.401ZM19.3722 16.44L20.274 16.603L20.1607 17.346L19.4166 17.46L19.2569 16.578C19.2973 16.534 19.329 16.481 19.3722 16.44ZM19.2147 17.415L18.7917 17.253C18.8389 17.149 18.892 17.048 18.9532 16.951C18.9948 16.885 19.0524 16.834 19.0991 16.772L19.2147 17.415ZM18.8044 19.379L19.2147 19.198L19.096 19.855C18.9829 19.707 18.8837 19.549 18.8044 19.379ZM19.4165 19.148L20.1606 19.267L20.2739 20.004L19.3728 20.167C19.3314 20.128 19.2924 20.088 19.2538 20.047L19.4165 19.148ZM19.5641 20.325L20.2299 20.206L20.0651 20.633C19.8847 20.551 19.7194 20.445 19.5641 20.325ZM20.2465 20.703L20.4064 20.281L20.7931 20.833C20.6036 20.809 20.4208 20.767 20.2465 20.703ZM20.5137 20.105L21.1191 19.658L21.7241 20.099L21.1991 20.858C21.1711 20.859 21.1451 20.866 21.1161 20.866C21.0901 20.866 21.0651 20.859 21.0381 20.858L20.5137 20.105ZM21.4541 20.832L21.8381 20.275L22.0241 20.692C21.8431 20.761 21.6521 20.806 21.4541 20.832ZM22.0141 20.206L22.6731 20.325C22.5251 20.439 22.3671 20.539 22.1961 20.619L22.0141 20.206ZM22.8641 20.167L21.9641 20.004L22.0771 19.261L22.8211 19.148L22.9841 20.046C22.9451 20.087 22.9061 20.128 22.8641 20.167ZM23.0231 19.192L23.4471 19.355C23.3651 19.534 23.2611 19.699 23.1421 19.854L23.0231 19.192Z" fill="#333335"/>
<path d="M21.1161 15C19.9684 15 18.9214 15.582 18.3172 16.554C17.9865 17.08 17.8115 17.686 17.8115 18.306C17.8115 20.131 19.2943 21.616 21.1161 21.616C22.9421 21.616 24.4271 20.131 24.4271 18.306C24.4271 17.681 24.2501 17.074 23.9181 16.557C23.3271 15.597 22.2541 15 21.1161 15ZM21.1191 19.444L20.3119 19.11L19.9777 18.304L20.3119 17.497L21.1191 17.164L21.9261 17.497L22.2601 18.304L21.9261 19.11L21.1191 19.444ZM21.8761 19.337L21.7811 19.916L21.3081 19.57L21.8761 19.337ZM20.9301 19.563L20.4507 19.91L20.3623 19.33L20.9301 19.563ZM18.5946 18.633L19.1454 19.015L18.7312 19.2C18.6636 19.02 18.62 18.83 18.5946 18.633ZM18.5698 18.389C18.5689 18.361 18.5614 18.334 18.5614 18.306C18.5614 18.277 18.5665 18.248 18.5674 18.219L19.3218 17.699L19.7633 18.304L19.3218 18.908L18.5698 18.389ZM18.5841 17.984C18.6085 17.794 18.6583 17.608 18.7249 17.428L19.1453 17.592L18.5841 17.984ZM19.5048 17.642L20.0849 17.554L19.8516 18.115L19.5048 17.642ZM19.8578 18.493L20.0911 19.059L19.511 18.965L19.8578 18.493ZM20.3623 17.271L20.457 16.691L20.9301 17.037L20.3623 17.271ZM21.3081 17.044L21.7871 16.697L21.8761 17.277L21.3081 17.044ZM23.1411 16.757C23.1901 16.822 23.2391 16.887 23.2831 16.956C23.3391 17.044 23.3871 17.136 23.4311 17.229L23.0231 17.409L23.1411 16.757ZM22.9821 16.57L22.8221 17.46L22.0771 17.34L21.9641 16.603L22.8601 16.441C22.9031 16.482 22.9421 16.527 22.9821 16.57ZM22.7271 17.642L22.3861 18.115L22.1471 17.548L22.7271 17.642ZM22.3861 18.493L22.7331 18.965L22.1471 19.059L22.3861 18.493ZM22.4751 18.304L22.9161 17.699L23.6711 18.22C23.6721 18.249 23.6771 18.277 23.6771 18.306C23.6771 18.334 23.6701 18.361 23.6691 18.389L22.9161 18.908L22.4751 18.304ZM23.6451 18.629C23.6201 18.82 23.5781 19.004 23.5141 19.179L23.0931 19.015L23.6451 18.629ZM23.0931 17.592L23.5051 17.408C23.5761 17.593 23.6291 17.784 23.6541 17.981L23.0931 17.592ZM22.6701 16.283L22.0081 16.401L22.1691 15.984C22.3471 16.065 22.5151 16.164 22.6701 16.283ZM21.9891 15.909L21.8311 16.326L21.4431 15.771C21.6311 15.796 21.8131 15.845 21.9891 15.909ZM21.7241 16.502L21.1191 16.949L20.5138 16.508L21.0301 15.761C21.0601 15.76 21.0871 15.75 21.1161 15.75C21.1461 15.75 21.1751 15.755 21.2051 15.756L21.7241 16.502ZM20.7711 15.794L20.4001 16.332L20.221 15.932C20.3978 15.865 20.5803 15.82 20.7711 15.794ZM20.2236 16.401L19.5822 16.286C19.728 16.174 19.8808 16.078 20.0469 16.001L20.2236 16.401ZM19.3722 16.44L20.274 16.603L20.1607 17.346L19.4166 17.46L19.2569 16.578C19.2973 16.534 19.329 16.481 19.3722 16.44ZM19.2147 17.415L18.7917 17.253C18.8389 17.149 18.892 17.048 18.9532 16.951C18.9948 16.885 19.0524 16.834 19.0991 16.772L19.2147 17.415ZM18.8044 19.379L19.2147 19.198L19.096 19.855C18.9829 19.707 18.8837 19.549 18.8044 19.379ZM19.4165 19.148L20.1606 19.267L20.2739 20.004L19.3728 20.167C19.3314 20.128 19.2924 20.088 19.2538 20.047L19.4165 19.148ZM19.5641 20.325L20.2299 20.206L20.0651 20.633C19.8847 20.551 19.7194 20.445 19.5641 20.325ZM20.2465 20.703L20.4064 20.281L20.7931 20.833C20.6036 20.809 20.4208 20.767 20.2465 20.703ZM20.5137 20.105L21.1191 19.658L21.7241 20.099L21.1991 20.858C21.1711 20.859 21.1451 20.866 21.1161 20.866C21.0901 20.866 21.0651 20.859 21.0381 20.858L20.5137 20.105ZM21.4541 20.832L21.8381 20.275L22.0241 20.692C21.8431 20.761 21.6521 20.806 21.4541 20.832ZM22.0141 20.206L22.6731 20.325C22.5251 20.439 22.3671 20.539 22.1961 20.619L22.0141 20.206ZM22.8641 20.167L21.9641 20.004L22.0771 19.261L22.8211 19.148L22.9841 20.046C22.9451 20.087 22.9061 20.128 22.8641 20.167ZM23.0231 19.192L23.4471 19.355C23.3651 19.534 23.2611 19.699 23.1421 19.854L23.0231 19.192Z" fill="black" fill-opacity="0.2"/>
<path d="M21.1161 15C19.9684 15 18.9214 15.582 18.3172 16.554C17.9865 17.08 17.8115 17.686 17.8115 18.306C17.8115 20.131 19.2943 21.616 21.1161 21.616C22.9421 21.616 24.4271 20.131 24.4271 18.306C24.4271 17.681 24.2501 17.074 23.9181 16.557C23.3271 15.597 22.2541 15 21.1161 15ZM21.1191 19.444L20.3119 19.11L19.9777 18.304L20.3119 17.497L21.1191 17.164L21.9261 17.497L22.2601 18.304L21.9261 19.11L21.1191 19.444ZM21.8761 19.337L21.7811 19.916L21.3081 19.57L21.8761 19.337ZM20.9301 19.563L20.4507 19.91L20.3623 19.33L20.9301 19.563ZM18.5946 18.633L19.1454 19.015L18.7312 19.2C18.6636 19.02 18.62 18.83 18.5946 18.633ZM18.5698 18.389C18.5689 18.361 18.5614 18.334 18.5614 18.306C18.5614 18.277 18.5665 18.248 18.5674 18.219L19.3218 17.699L19.7633 18.304L19.3218 18.908L18.5698 18.389ZM18.5841 17.984C18.6085 17.794 18.6583 17.608 18.7249 17.428L19.1453 17.592L18.5841 17.984ZM19.5048 17.642L20.0849 17.554L19.8516 18.115L19.5048 17.642ZM19.8578 18.493L20.0911 19.059L19.511 18.965L19.8578 18.493ZM20.3623 17.271L20.457 16.691L20.9301 17.037L20.3623 17.271ZM21.3081 17.044L21.7871 16.697L21.8761 17.277L21.3081 17.044ZM23.1411 16.757C23.1901 16.822 23.2391 16.887 23.2831 16.956C23.3391 17.044 23.3871 17.136 23.4311 17.229L23.0231 17.409L23.1411 16.757ZM22.9821 16.57L22.8221 17.46L22.0771 17.34L21.9641 16.603L22.8601 16.441C22.9031 16.482 22.9421 16.527 22.9821 16.57ZM22.7271 17.642L22.3861 18.115L22.1471 17.548L22.7271 17.642ZM22.3861 18.493L22.7331 18.965L22.1471 19.059L22.3861 18.493ZM22.4751 18.304L22.9161 17.699L23.6711 18.22C23.6721 18.249 23.6771 18.277 23.6771 18.306C23.6771 18.334 23.6701 18.361 23.6691 18.389L22.9161 18.908L22.4751 18.304ZM23.6451 18.629C23.6201 18.82 23.5781 19.004 23.5141 19.179L23.0931 19.015L23.6451 18.629ZM23.0931 17.592L23.5051 17.408C23.5761 17.593 23.6291 17.784 23.6541 17.981L23.0931 17.592ZM22.6701 16.283L22.0081 16.401L22.1691 15.984C22.3471 16.065 22.5151 16.164 22.6701 16.283ZM21.9891 15.909L21.8311 16.326L21.4431 15.771C21.6311 15.796 21.8131 15.845 21.9891 15.909ZM21.7241 16.502L21.1191 16.949L20.5138 16.508L21.0301 15.761C21.0601 15.76 21.0871 15.75 21.1161 15.75C21.1461 15.75 21.1751 15.755 21.2051 15.756L21.7241 16.502ZM20.7711 15.794L20.4001 16.332L20.221 15.932C20.3978 15.865 20.5803 15.82 20.7711 15.794ZM20.2236 16.401L19.5822 16.286C19.728 16.174 19.8808 16.078 20.0469 16.001L20.2236 16.401ZM19.3722 16.44L20.274 16.603L20.1607 17.346L19.4166 17.46L19.2569 16.578C19.2973 16.534 19.329 16.481 19.3722 16.44ZM19.2147 17.415L18.7917 17.253C18.8389 17.149 18.892 17.048 18.9532 16.951C18.9948 16.885 19.0524 16.834 19.0991 16.772L19.2147 17.415ZM18.8044 19.379L19.2147 19.198L19.096 19.855C18.9829 19.707 18.8837 19.549 18.8044 19.379ZM19.4165 19.148L20.1606 19.267L20.2739 20.004L19.3728 20.167C19.3314 20.128 19.2924 20.088 19.2538 20.047L19.4165 19.148ZM19.5641 20.325L20.2299 20.206L20.0651 20.633C19.8847 20.551 19.7194 20.445 19.5641 20.325ZM20.2465 20.703L20.4064 20.281L20.7931 20.833C20.6036 20.809 20.4208 20.767 20.2465 20.703ZM20.5137 20.105L21.1191 19.658L21.7241 20.099L21.1991 20.858C21.1711 20.859 21.1451 20.866 21.1161 20.866C21.0901 20.866 21.0651 20.859 21.0381 20.858L20.5137 20.105ZM21.4541 20.832L21.8381 20.275L22.0241 20.692C21.8431 20.761 21.6521 20.806 21.4541 20.832ZM22.0141 20.206L22.6731 20.325C22.5251 20.439 22.3671 20.539 22.1961 20.619L22.0141 20.206ZM22.8641 20.167L21.9641 20.004L22.0771 19.261L22.8211 19.148L22.9841 20.046C22.9451 20.087 22.9061 20.128 22.8641 20.167ZM23.0231 19.192L23.4471 19.355C23.3651 19.534 23.2611 19.699 23.1421 19.854L23.0231 19.192Z" fill="black" fill-opacity="0.2"/>
<path d="M21.1161 15C19.9684 15 18.9214 15.582 18.3172 16.554C17.9865 17.08 17.8115 17.686 17.8115 18.306C17.8115 20.131 19.2943 21.616 21.1161 21.616C22.9421 21.616 24.4271 20.131 24.4271 18.306C24.4271 17.681 24.2501 17.074 23.9181 16.557C23.3271 15.597 22.2541 15 21.1161 15ZM21.1191 19.444L20.3119 19.11L19.9777 18.304L20.3119 17.497L21.1191 17.164L21.9261 17.497L22.2601 18.304L21.9261 19.11L21.1191 19.444ZM21.8761 19.337L21.7811 19.916L21.3081 19.57L21.8761 19.337ZM20.9301 19.563L20.4507 19.91L20.3623 19.33L20.9301 19.563ZM18.5946 18.633L19.1454 19.015L18.7312 19.2C18.6636 19.02 18.62 18.83 18.5946 18.633ZM18.5698 18.389C18.5689 18.361 18.5614 18.334 18.5614 18.306C18.5614 18.277 18.5665 18.248 18.5674 18.219L19.3218 17.699L19.7633 18.304L19.3218 18.908L18.5698 18.389ZM18.5841 17.984C18.6085 17.794 18.6583 17.608 18.7249 17.428L19.1453 17.592L18.5841 17.984ZM19.5048 17.642L20.0849 17.554L19.8516 18.115L19.5048 17.642ZM19.8578 18.493L20.0911 19.059L19.511 18.965L19.8578 18.493ZM20.3623 17.271L20.457 16.691L20.9301 17.037L20.3623 17.271ZM21.3081 17.044L21.7871 16.697L21.8761 17.277L21.3081 17.044ZM23.1411 16.757C23.1901 16.822 23.2391 16.887 23.2831 16.956C23.3391 17.044 23.3871 17.136 23.4311 17.229L23.0231 17.409L23.1411 16.757ZM22.9821 16.57L22.8221 17.46L22.0771 17.34L21.9641 16.603L22.8601 16.441C22.9031 16.482 22.9421 16.527 22.9821 16.57ZM22.7271 17.642L22.3861 18.115L22.1471 17.548L22.7271 17.642ZM22.3861 18.493L22.7331 18.965L22.1471 19.059L22.3861 18.493ZM22.4751 18.304L22.9161 17.699L23.6711 18.22C23.6721 18.249 23.6771 18.277 23.6771 18.306C23.6771 18.334 23.6701 18.361 23.6691 18.389L22.9161 18.908L22.4751 18.304ZM23.6451 18.629C23.6201 18.82 23.5781 19.004 23.5141 19.179L23.0931 19.015L23.6451 18.629ZM23.0931 17.592L23.5051 17.408C23.5761 17.593 23.6291 17.784 23.6541 17.981L23.0931 17.592ZM22.6701 16.283L22.0081 16.401L22.1691 15.984C22.3471 16.065 22.5151 16.164 22.6701 16.283ZM21.9891 15.909L21.8311 16.326L21.4431 15.771C21.6311 15.796 21.8131 15.845 21.9891 15.909ZM21.7241 16.502L21.1191 16.949L20.5138 16.508L21.0301 15.761C21.0601 15.76 21.0871 15.75 21.1161 15.75C21.1461 15.75 21.1751 15.755 21.2051 15.756L21.7241 16.502ZM20.7711 15.794L20.4001 16.332L20.221 15.932C20.3978 15.865 20.5803 15.82 20.7711 15.794ZM20.2236 16.401L19.5822 16.286C19.728 16.174 19.8808 16.078 20.0469 16.001L20.2236 16.401ZM19.3722 16.44L20.274 16.603L20.1607 17.346L19.4166 17.46L19.2569 16.578C19.2973 16.534 19.329 16.481 19.3722 16.44ZM19.2147 17.415L18.7917 17.253C18.8389 17.149 18.892 17.048 18.9532 16.951C18.9948 16.885 19.0524 16.834 19.0991 16.772L19.2147 17.415ZM18.8044 19.379L19.2147 19.198L19.096 19.855C18.9829 19.707 18.8837 19.549 18.8044 19.379ZM19.4165 19.148L20.1606 19.267L20.2739 20.004L19.3728 20.167C19.3314 20.128 19.2924 20.088 19.2538 20.047L19.4165 19.148ZM19.5641 20.325L20.2299 20.206L20.0651 20.633C19.8847 20.551 19.7194 20.445 19.5641 20.325ZM20.2465 20.703L20.4064 20.281L20.7931 20.833C20.6036 20.809 20.4208 20.767 20.2465 20.703ZM20.5137 20.105L21.1191 19.658L21.7241 20.099L21.1991 20.858C21.1711 20.859 21.1451 20.866 21.1161 20.866C21.0901 20.866 21.0651 20.859 21.0381 20.858L20.5137 20.105ZM21.4541 20.832L21.8381 20.275L22.0241 20.692C21.8431 20.761 21.6521 20.806 21.4541 20.832ZM22.0141 20.206L22.6731 20.325C22.5251 20.439 22.3671 20.539 22.1961 20.619L22.0141 20.206ZM22.8641 20.167L21.9641 20.004L22.0771 19.261L22.8211 19.148L22.9841 20.046C22.9451 20.087 22.9061 20.128 22.8641 20.167ZM23.0231 19.192L23.4471 19.355C23.3651 19.534 23.2611 19.699 23.1421 19.854L23.0231 19.192Z" fill="black" fill-opacity="0.2"/>
<path d="M21.1161 15C19.9684 15 18.9214 15.582 18.3172 16.554C17.9865 17.08 17.8115 17.686 17.8115 18.306C17.8115 20.131 19.2943 21.616 21.1161 21.616C22.9421 21.616 24.4271 20.131 24.4271 18.306C24.4271 17.681 24.2501 17.074 23.9181 16.557C23.3271 15.597 22.2541 15 21.1161 15ZM21.1191 19.444L20.3119 19.11L19.9777 18.304L20.3119 17.497L21.1191 17.164L21.9261 17.497L22.2601 18.304L21.9261 19.11L21.1191 19.444ZM21.8761 19.337L21.7811 19.916L21.3081 19.57L21.8761 19.337ZM20.9301 19.563L20.4507 19.91L20.3623 19.33L20.9301 19.563ZM18.5946 18.633L19.1454 19.015L18.7312 19.2C18.6636 19.02 18.62 18.83 18.5946 18.633ZM18.5698 18.389C18.5689 18.361 18.5614 18.334 18.5614 18.306C18.5614 18.277 18.5665 18.248 18.5674 18.219L19.3218 17.699L19.7633 18.304L19.3218 18.908L18.5698 18.389ZM18.5841 17.984C18.6085 17.794 18.6583 17.608 18.7249 17.428L19.1453 17.592L18.5841 17.984ZM19.5048 17.642L20.0849 17.554L19.8516 18.115L19.5048 17.642ZM19.8578 18.493L20.0911 19.059L19.511 18.965L19.8578 18.493ZM20.3623 17.271L20.457 16.691L20.9301 17.037L20.3623 17.271ZM21.3081 17.044L21.7871 16.697L21.8761 17.277L21.3081 17.044ZM23.1411 16.757C23.1901 16.822 23.2391 16.887 23.2831 16.956C23.3391 17.044 23.3871 17.136 23.4311 17.229L23.0231 17.409L23.1411 16.757ZM22.9821 16.57L22.8221 17.46L22.0771 17.34L21.9641 16.603L22.8601 16.441C22.9031 16.482 22.9421 16.527 22.9821 16.57ZM22.7271 17.642L22.3861 18.115L22.1471 17.548L22.7271 17.642ZM22.3861 18.493L22.7331 18.965L22.1471 19.059L22.3861 18.493ZM22.4751 18.304L22.9161 17.699L23.6711 18.22C23.6721 18.249 23.6771 18.277 23.6771 18.306C23.6771 18.334 23.6701 18.361 23.6691 18.389L22.9161 18.908L22.4751 18.304ZM23.6451 18.629C23.6201 18.82 23.5781 19.004 23.5141 19.179L23.0931 19.015L23.6451 18.629ZM23.0931 17.592L23.5051 17.408C23.5761 17.593 23.6291 17.784 23.6541 17.981L23.0931 17.592ZM22.6701 16.283L22.0081 16.401L22.1691 15.984C22.3471 16.065 22.5151 16.164 22.6701 16.283ZM21.9891 15.909L21.8311 16.326L21.4431 15.771C21.6311 15.796 21.8131 15.845 21.9891 15.909ZM21.7241 16.502L21.1191 16.949L20.5138 16.508L21.0301 15.761C21.0601 15.76 21.0871 15.75 21.1161 15.75C21.1461 15.75 21.1751 15.755 21.2051 15.756L21.7241 16.502ZM20.7711 15.794L20.4001 16.332L20.221 15.932C20.3978 15.865 20.5803 15.82 20.7711 15.794ZM20.2236 16.401L19.5822 16.286C19.728 16.174 19.8808 16.078 20.0469 16.001L20.2236 16.401ZM19.3722 16.44L20.274 16.603L20.1607 17.346L19.4166 17.46L19.2569 16.578C19.2973 16.534 19.329 16.481 19.3722 16.44ZM19.2147 17.415L18.7917 17.253C18.8389 17.149 18.892 17.048 18.9532 16.951C18.9948 16.885 19.0524 16.834 19.0991 16.772L19.2147 17.415ZM18.8044 19.379L19.2147 19.198L19.096 19.855C18.9829 19.707 18.8837 19.549 18.8044 19.379ZM19.4165 19.148L20.1606 19.267L20.2739 20.004L19.3728 20.167C19.3314 20.128 19.2924 20.088 19.2538 20.047L19.4165 19.148ZM19.5641 20.325L20.2299 20.206L20.0651 20.633C19.8847 20.551 19.7194 20.445 19.5641 20.325ZM20.2465 20.703L20.4064 20.281L20.7931 20.833C20.6036 20.809 20.4208 20.767 20.2465 20.703ZM20.5137 20.105L21.1191 19.658L21.7241 20.099L21.1991 20.858C21.1711 20.859 21.1451 20.866 21.1161 20.866C21.0901 20.866 21.0651 20.859 21.0381 20.858L20.5137 20.105ZM21.4541 20.832L21.8381 20.275L22.0241 20.692C21.8431 20.761 21.6521 20.806 21.4541 20.832ZM22.0141 20.206L22.6731 20.325C22.5251 20.439 22.3671 20.539 22.1961 20.619L22.0141 20.206ZM22.8641 20.167L21.9641 20.004L22.0771 19.261L22.8211 19.148L22.9841 20.046C22.9451 20.087 22.9061 20.128 22.8641 20.167ZM23.0231 19.192L23.4471 19.355C23.3651 19.534 23.2611 19.699 23.1421 19.854L23.0231 19.192Z" fill="black" fill-opacity="0.2"/>
<path d="M21.1161 15C19.9684 15 18.9214 15.582 18.3172 16.554C17.9865 17.08 17.8115 17.686 17.8115 18.306C17.8115 20.131 19.2943 21.616 21.1161 21.616C22.9421 21.616 24.4271 20.131 24.4271 18.306C24.4271 17.681 24.2501 17.074 23.9181 16.557C23.3271 15.597 22.2541 15 21.1161 15ZM21.1191 19.444L20.3119 19.11L19.9777 18.304L20.3119 17.497L21.1191 17.164L21.9261 17.497L22.2601 18.304L21.9261 19.11L21.1191 19.444ZM21.8761 19.337L21.7811 19.916L21.3081 19.57L21.8761 19.337ZM20.9301 19.563L20.4507 19.91L20.3623 19.33L20.9301 19.563ZM18.5946 18.633L19.1454 19.015L18.7312 19.2C18.6636 19.02 18.62 18.83 18.5946 18.633ZM18.5698 18.389C18.5689 18.361 18.5614 18.334 18.5614 18.306C18.5614 18.277 18.5665 18.248 18.5674 18.219L19.3218 17.699L19.7633 18.304L19.3218 18.908L18.5698 18.389ZM18.5841 17.984C18.6085 17.794 18.6583 17.608 18.7249 17.428L19.1453 17.592L18.5841 17.984ZM19.5048 17.642L20.0849 17.554L19.8516 18.115L19.5048 17.642ZM19.8578 18.493L20.0911 19.059L19.511 18.965L19.8578 18.493ZM20.3623 17.271L20.457 16.691L20.9301 17.037L20.3623 17.271ZM21.3081 17.044L21.7871 16.697L21.8761 17.277L21.3081 17.044ZM23.1411 16.757C23.1901 16.822 23.2391 16.887 23.2831 16.956C23.3391 17.044 23.3871 17.136 23.4311 17.229L23.0231 17.409L23.1411 16.757ZM22.9821 16.57L22.8221 17.46L22.0771 17.34L21.9641 16.603L22.8601 16.441C22.9031 16.482 22.9421 16.527 22.9821 16.57ZM22.7271 17.642L22.3861 18.115L22.1471 17.548L22.7271 17.642ZM22.3861 18.493L22.7331 18.965L22.1471 19.059L22.3861 18.493ZM22.4751 18.304L22.9161 17.699L23.6711 18.22C23.6721 18.249 23.6771 18.277 23.6771 18.306C23.6771 18.334 23.6701 18.361 23.6691 18.389L22.9161 18.908L22.4751 18.304ZM23.6451 18.629C23.6201 18.82 23.5781 19.004 23.5141 19.179L23.0931 19.015L23.6451 18.629ZM23.0931 17.592L23.5051 17.408C23.5761 17.593 23.6291 17.784 23.6541 17.981L23.0931 17.592ZM22.6701 16.283L22.0081 16.401L22.1691 15.984C22.3471 16.065 22.5151 16.164 22.6701 16.283ZM21.9891 15.909L21.8311 16.326L21.4431 15.771C21.6311 15.796 21.8131 15.845 21.9891 15.909ZM21.7241 16.502L21.1191 16.949L20.5138 16.508L21.0301 15.761C21.0601 15.76 21.0871 15.75 21.1161 15.75C21.1461 15.75 21.1751 15.755 21.2051 15.756L21.7241 16.502ZM20.7711 15.794L20.4001 16.332L20.221 15.932C20.3978 15.865 20.5803 15.82 20.7711 15.794ZM20.2236 16.401L19.5822 16.286C19.728 16.174 19.8808 16.078 20.0469 16.001L20.2236 16.401ZM19.3722 16.44L20.274 16.603L20.1607 17.346L19.4166 17.46L19.2569 16.578C19.2973 16.534 19.329 16.481 19.3722 16.44ZM19.2147 17.415L18.7917 17.253C18.8389 17.149 18.892 17.048 18.9532 16.951C18.9948 16.885 19.0524 16.834 19.0991 16.772L19.2147 17.415ZM18.8044 19.379L19.2147 19.198L19.096 19.855C18.9829 19.707 18.8837 19.549 18.8044 19.379ZM19.4165 19.148L20.1606 19.267L20.2739 20.004L19.3728 20.167C19.3314 20.128 19.2924 20.088 19.2538 20.047L19.4165 19.148ZM19.5641 20.325L20.2299 20.206L20.0651 20.633C19.8847 20.551 19.7194 20.445 19.5641 20.325ZM20.2465 20.703L20.4064 20.281L20.7931 20.833C20.6036 20.809 20.4208 20.767 20.2465 20.703ZM20.5137 20.105L21.1191 19.658L21.7241 20.099L21.1991 20.858C21.1711 20.859 21.1451 20.866 21.1161 20.866C21.0901 20.866 21.0651 20.859 21.0381 20.858L20.5137 20.105ZM21.4541 20.832L21.8381 20.275L22.0241 20.692C21.8431 20.761 21.6521 20.806 21.4541 20.832ZM22.0141 20.206L22.6731 20.325C22.5251 20.439 22.3671 20.539 22.1961 20.619L22.0141 20.206ZM22.8641 20.167L21.9641 20.004L22.0771 19.261L22.8211 19.148L22.9841 20.046C22.9451 20.087 22.9061 20.128 22.8641 20.167ZM23.0231 19.192L23.4471 19.355C23.3651 19.534 23.2611 19.699 23.1421 19.854L23.0231 19.192Z" fill="black" fill-opacity="0.2"/>
<path d="M21.1161 15C19.9684 15 18.9214 15.582 18.3172 16.554C17.9865 17.08 17.8115 17.686 17.8115 18.306C17.8115 20.131 19.2943 21.616 21.1161 21.616C22.9421 21.616 24.4271 20.131 24.4271 18.306C24.4271 17.681 24.2501 17.074 23.9181 16.557C23.3271 15.597 22.2541 15 21.1161 15ZM21.1191 19.444L20.3119 19.11L19.9777 18.304L20.3119 17.497L21.1191 17.164L21.9261 17.497L22.2601 18.304L21.9261 19.11L21.1191 19.444ZM21.8761 19.337L21.7811 19.916L21.3081 19.57L21.8761 19.337ZM20.9301 19.563L20.4507 19.91L20.3623 19.33L20.9301 19.563ZM18.5946 18.633L19.1454 19.015L18.7312 19.2C18.6636 19.02 18.62 18.83 18.5946 18.633ZM18.5698 18.389C18.5689 18.361 18.5614 18.334 18.5614 18.306C18.5614 18.277 18.5665 18.248 18.5674 18.219L19.3218 17.699L19.7633 18.304L19.3218 18.908L18.5698 18.389ZM18.5841 17.984C18.6085 17.794 18.6583 17.608 18.7249 17.428L19.1453 17.592L18.5841 17.984ZM19.5048 17.642L20.0849 17.554L19.8516 18.115L19.5048 17.642ZM19.8578 18.493L20.0911 19.059L19.511 18.965L19.8578 18.493ZM20.3623 17.271L20.457 16.691L20.9301 17.037L20.3623 17.271ZM21.3081 17.044L21.7871 16.697L21.8761 17.277L21.3081 17.044ZM23.1411 16.757C23.1901 16.822 23.2391 16.887 23.2831 16.956C23.3391 17.044 23.3871 17.136 23.4311 17.229L23.0231 17.409L23.1411 16.757ZM22.9821 16.57L22.8221 17.46L22.0771 17.34L21.9641 16.603L22.8601 16.441C22.9031 16.482 22.9421 16.527 22.9821 16.57ZM22.7271 17.642L22.3861 18.115L22.1471 17.548L22.7271 17.642ZM22.3861 18.493L22.7331 18.965L22.1471 19.059L22.3861 18.493ZM22.4751 18.304L22.9161 17.699L23.6711 18.22C23.6721 18.249 23.6771 18.277 23.6771 18.306C23.6771 18.334 23.6701 18.361 23.6691 18.389L22.9161 18.908L22.4751 18.304ZM23.6451 18.629C23.6201 18.82 23.5781 19.004 23.5141 19.179L23.0931 19.015L23.6451 18.629ZM23.0931 17.592L23.5051 17.408C23.5761 17.593 23.6291 17.784 23.6541 17.981L23.0931 17.592ZM22.6701 16.283L22.0081 16.401L22.1691 15.984C22.3471 16.065 22.5151 16.164 22.6701 16.283ZM21.9891 15.909L21.8311 16.326L21.4431 15.771C21.6311 15.796 21.8131 15.845 21.9891 15.909ZM21.7241 16.502L21.1191 16.949L20.5138 16.508L21.0301 15.761C21.0601 15.76 21.0871 15.75 21.1161 15.75C21.1461 15.75 21.1751 15.755 21.2051 15.756L21.7241 16.502ZM20.7711 15.794L20.4001 16.332L20.221 15.932C20.3978 15.865 20.5803 15.82 20.7711 15.794ZM20.2236 16.401L19.5822 16.286C19.728 16.174 19.8808 16.078 20.0469 16.001L20.2236 16.401ZM19.3722 16.44L20.274 16.603L20.1607 17.346L19.4166 17.46L19.2569 16.578C19.2973 16.534 19.329 16.481 19.3722 16.44ZM19.2147 17.415L18.7917 17.253C18.8389 17.149 18.892 17.048 18.9532 16.951C18.9948 16.885 19.0524 16.834 19.0991 16.772L19.2147 17.415ZM18.8044 19.379L19.2147 19.198L19.096 19.855C18.9829 19.707 18.8837 19.549 18.8044 19.379ZM19.4165 19.148L20.1606 19.267L20.2739 20.004L19.3728 20.167C19.3314 20.128 19.2924 20.088 19.2538 20.047L19.4165 19.148ZM19.5641 20.325L20.2299 20.206L20.0651 20.633C19.8847 20.551 19.7194 20.445 19.5641 20.325ZM20.2465 20.703L20.4064 20.281L20.7931 20.833C20.6036 20.809 20.4208 20.767 20.2465 20.703ZM20.5137 20.105L21.1191 19.658L21.7241 20.099L21.1991 20.858C21.1711 20.859 21.1451 20.866 21.1161 20.866C21.0901 20.866 21.0651 20.859 21.0381 20.858L20.5137 20.105ZM21.4541 20.832L21.8381 20.275L22.0241 20.692C21.8431 20.761 21.6521 20.806 21.4541 20.832ZM22.0141 20.206L22.6731 20.325C22.5251 20.439 22.3671 20.539 22.1961 20.619L22.0141 20.206ZM22.8641 20.167L21.9641 20.004L22.0771 19.261L22.8211 19.148L22.9841 20.046C22.9451 20.087 22.9061 20.128 22.8641 20.167ZM23.0231 19.192L23.4471 19.355C23.3651 19.534 23.2611 19.699 23.1421 19.854L23.0231 19.192Z" fill="black" fill-opacity="0.2"/>
<path d="M21.1161 15C19.9684 15 18.9214 15.582 18.3172 16.554C17.9865 17.08 17.8115 17.686 17.8115 18.306C17.8115 20.131 19.2943 21.616 21.1161 21.616C22.9421 21.616 24.4271 20.131 24.4271 18.306C24.4271 17.681 24.2501 17.074 23.9181 16.557C23.3271 15.597 22.2541 15 21.1161 15ZM21.1191 19.444L20.3119 19.11L19.9777 18.304L20.3119 17.497L21.1191 17.164L21.9261 17.497L22.2601 18.304L21.9261 19.11L21.1191 19.444ZM21.8761 19.337L21.7811 19.916L21.3081 19.57L21.8761 19.337ZM20.9301 19.563L20.4507 19.91L20.3623 19.33L20.9301 19.563ZM18.5946 18.633L19.1454 19.015L18.7312 19.2C18.6636 19.02 18.62 18.83 18.5946 18.633ZM18.5698 18.389C18.5689 18.361 18.5614 18.334 18.5614 18.306C18.5614 18.277 18.5665 18.248 18.5674 18.219L19.3218 17.699L19.7633 18.304L19.3218 18.908L18.5698 18.389ZM18.5841 17.984C18.6085 17.794 18.6583 17.608 18.7249 17.428L19.1453 17.592L18.5841 17.984ZM19.5048 17.642L20.0849 17.554L19.8516 18.115L19.5048 17.642ZM19.8578 18.493L20.0911 19.059L19.511 18.965L19.8578 18.493ZM20.3623 17.271L20.457 16.691L20.9301 17.037L20.3623 17.271ZM21.3081 17.044L21.7871 16.697L21.8761 17.277L21.3081 17.044ZM23.1411 16.757C23.1901 16.822 23.2391 16.887 23.2831 16.956C23.3391 17.044 23.3871 17.136 23.4311 17.229L23.0231 17.409L23.1411 16.757ZM22.9821 16.57L22.8221 17.46L22.0771 17.34L21.9641 16.603L22.8601 16.441C22.9031 16.482 22.9421 16.527 22.9821 16.57ZM22.7271 17.642L22.3861 18.115L22.1471 17.548L22.7271 17.642ZM22.3861 18.493L22.7331 18.965L22.1471 19.059L22.3861 18.493ZM22.4751 18.304L22.9161 17.699L23.6711 18.22C23.6721 18.249 23.6771 18.277 23.6771 18.306C23.6771 18.334 23.6701 18.361 23.6691 18.389L22.9161 18.908L22.4751 18.304ZM23.6451 18.629C23.6201 18.82 23.5781 19.004 23.5141 19.179L23.0931 19.015L23.6451 18.629ZM23.0931 17.592L23.5051 17.408C23.5761 17.593 23.6291 17.784 23.6541 17.981L23.0931 17.592ZM22.6701 16.283L22.0081 16.401L22.1691 15.984C22.3471 16.065 22.5151 16.164 22.6701 16.283ZM21.9891 15.909L21.8311 16.326L21.4431 15.771C21.6311 15.796 21.8131 15.845 21.9891 15.909ZM21.7241 16.502L21.1191 16.949L20.5138 16.508L21.0301 15.761C21.0601 15.76 21.0871 15.75 21.1161 15.75C21.1461 15.75 21.1751 15.755 21.2051 15.756L21.7241 16.502ZM20.7711 15.794L20.4001 16.332L20.221 15.932C20.3978 15.865 20.5803 15.82 20.7711 15.794ZM20.2236 16.401L19.5822 16.286C19.728 16.174 19.8808 16.078 20.0469 16.001L20.2236 16.401ZM19.3722 16.44L20.274 16.603L20.1607 17.346L19.4166 17.46L19.2569 16.578C19.2973 16.534 19.329 16.481 19.3722 16.44ZM19.2147 17.415L18.7917 17.253C18.8389 17.149 18.892 17.048 18.9532 16.951C18.9948 16.885 19.0524 16.834 19.0991 16.772L19.2147 17.415ZM18.8044 19.379L19.2147 19.198L19.096 19.855C18.9829 19.707 18.8837 19.549 18.8044 19.379ZM19.4165 19.148L20.1606 19.267L20.2739 20.004L19.3728 20.167C19.3314 20.128 19.2924 20.088 19.2538 20.047L19.4165 19.148ZM19.5641 20.325L20.2299 20.206L20.0651 20.633C19.8847 20.551 19.7194 20.445 19.5641 20.325ZM20.2465 20.703L20.4064 20.281L20.7931 20.833C20.6036 20.809 20.4208 20.767 20.2465 20.703ZM20.5137 20.105L21.1191 19.658L21.7241 20.099L21.1991 20.858C21.1711 20.859 21.1451 20.866 21.1161 20.866C21.0901 20.866 21.0651 20.859 21.0381 20.858L20.5137 20.105ZM21.4541 20.832L21.8381 20.275L22.0241 20.692C21.8431 20.761 21.6521 20.806 21.4541 20.832ZM22.0141 20.206L22.6731 20.325C22.5251 20.439 22.3671 20.539 22.1961 20.619L22.0141 20.206ZM22.8641 20.167L21.9641 20.004L22.0771 19.261L22.8211 19.148L22.9841 20.046C22.9451 20.087 22.9061 20.128 22.8641 20.167ZM23.0231 19.192L23.4471 19.355C23.3651 19.534 23.2611 19.699 23.1421 19.854L23.0231 19.192Z" fill="black" fill-opacity="0.2"/>
<path d="M21.1161 15C19.9684 15 18.9214 15.582 18.3172 16.554C17.9865 17.08 17.8115 17.686 17.8115 18.306C17.8115 20.131 19.2943 21.616 21.1161 21.616C22.9421 21.616 24.4271 20.131 24.4271 18.306C24.4271 17.681 24.2501 17.074 23.9181 16.557C23.3271 15.597 22.2541 15 21.1161 15ZM21.1191 19.444L20.3119 19.11L19.9777 18.304L20.3119 17.497L21.1191 17.164L21.9261 17.497L22.2601 18.304L21.9261 19.11L21.1191 19.444ZM21.8761 19.337L21.7811 19.916L21.3081 19.57L21.8761 19.337ZM20.9301 19.563L20.4507 19.91L20.3623 19.33L20.9301 19.563ZM18.5946 18.633L19.1454 19.015L18.7312 19.2C18.6636 19.02 18.62 18.83 18.5946 18.633ZM18.5698 18.389C18.5689 18.361 18.5614 18.334 18.5614 18.306C18.5614 18.277 18.5665 18.248 18.5674 18.219L19.3218 17.699L19.7633 18.304L19.3218 18.908L18.5698 18.389ZM18.5841 17.984C18.6085 17.794 18.6583 17.608 18.7249 17.428L19.1453 17.592L18.5841 17.984ZM19.5048 17.642L20.0849 17.554L19.8516 18.115L19.5048 17.642ZM19.8578 18.493L20.0911 19.059L19.511 18.965L19.8578 18.493ZM20.3623 17.271L20.457 16.691L20.9301 17.037L20.3623 17.271ZM21.3081 17.044L21.7871 16.697L21.8761 17.277L21.3081 17.044ZM23.1411 16.757C23.1901 16.822 23.2391 16.887 23.2831 16.956C23.3391 17.044 23.3871 17.136 23.4311 17.229L23.0231 17.409L23.1411 16.757ZM22.9821 16.57L22.8221 17.46L22.0771 17.34L21.9641 16.603L22.8601 16.441C22.9031 16.482 22.9421 16.527 22.9821 16.57ZM22.7271 17.642L22.3861 18.115L22.1471 17.548L22.7271 17.642ZM22.3861 18.493L22.7331 18.965L22.1471 19.059L22.3861 18.493ZM22.4751 18.304L22.9161 17.699L23.6711 18.22C23.6721 18.249 23.6771 18.277 23.6771 18.306C23.6771 18.334 23.6701 18.361 23.6691 18.389L22.9161 18.908L22.4751 18.304ZM23.6451 18.629C23.6201 18.82 23.5781 19.004 23.5141 19.179L23.0931 19.015L23.6451 18.629ZM23.0931 17.592L23.5051 17.408C23.5761 17.593 23.6291 17.784 23.6541 17.981L23.0931 17.592ZM22.6701 16.283L22.0081 16.401L22.1691 15.984C22.3471 16.065 22.5151 16.164 22.6701 16.283ZM21.9891 15.909L21.8311 16.326L21.4431 15.771C21.6311 15.796 21.8131 15.845 21.9891 15.909ZM21.7241 16.502L21.1191 16.949L20.5138 16.508L21.0301 15.761C21.0601 15.76 21.0871 15.75 21.1161 15.75C21.1461 15.75 21.1751 15.755 21.2051 15.756L21.7241 16.502ZM20.7711 15.794L20.4001 16.332L20.221 15.932C20.3978 15.865 20.5803 15.82 20.7711 15.794ZM20.2236 16.401L19.5822 16.286C19.728 16.174 19.8808 16.078 20.0469 16.001L20.2236 16.401ZM19.3722 16.44L20.274 16.603L20.1607 17.346L19.4166 17.46L19.2569 16.578C19.2973 16.534 19.329 16.481 19.3722 16.44ZM19.2147 17.415L18.7917 17.253C18.8389 17.149 18.892 17.048 18.9532 16.951C18.9948 16.885 19.0524 16.834 19.0991 16.772L19.2147 17.415ZM18.8044 19.379L19.2147 19.198L19.096 19.855C18.9829 19.707 18.8837 19.549 18.8044 19.379ZM19.4165 19.148L20.1606 19.267L20.2739 20.004L19.3728 20.167C19.3314 20.128 19.2924 20.088 19.2538 20.047L19.4165 19.148ZM19.5641 20.325L20.2299 20.206L20.0651 20.633C19.8847 20.551 19.7194 20.445 19.5641 20.325ZM20.2465 20.703L20.4064 20.281L20.7931 20.833C20.6036 20.809 20.4208 20.767 20.2465 20.703ZM20.5137 20.105L21.1191 19.658L21.7241 20.099L21.1991 20.858C21.1711 20.859 21.1451 20.866 21.1161 20.866C21.0901 20.866 21.0651 20.859 21.0381 20.858L20.5137 20.105ZM21.4541 20.832L21.8381 20.275L22.0241 20.692C21.8431 20.761 21.6521 20.806 21.4541 20.832ZM22.0141 20.206L22.6731 20.325C22.5251 20.439 22.3671 20.539 22.1961 20.619L22.0141 20.206ZM22.8641 20.167L21.9641 20.004L22.0771 19.261L22.8211 19.148L22.9841 20.046C22.9451 20.087 22.9061 20.128 22.8641 20.167ZM23.0231 19.192L23.4471 19.355C23.3651 19.534 23.2611 19.699 23.1421 19.854L23.0231 19.192Z" fill="black" fill-opacity="0.2"/>
</g>
</g>
</svg>
