<svg width="40" height="16" viewBox="0 0 40 16" fill="none" xmlns="http://www.w3.org/2000/svg">
<g id="Group 25976">
<g id="Vector">
<path d="M19.957 4.15497C19.86 3.51697 19.733 2.92497 19.582 2.39197C19.582 2.37697 19.575 2.36198 19.567 2.34698C19.155 0.936985 18.555 0 17.752 0C16.695 0 15.967 1.66495 15.6 3.87695L13.32 6.02997H12.186C11.984 6.02997 11.811 6.19497 11.811 6.40497V7.27399H7.91602V4.763C7.91602 4.556 7.74802 4.388 7.54102 4.388C7.33302 4.388 7.16602 4.556 7.16602 4.763V4.94C6.82302 4.546 6.325 4.29199 5.763 4.29199C4.734 4.29199 3.897 5.12896 3.897 6.15796C3.897 6.57796 4.04101 6.96199 4.27701 7.27399H0.375C0.168 7.27399 0 7.44199 0 7.64899C0 7.85599 0.168 8.02399 0.375 8.02399H4.32401C4.06101 8.34599 3.897 8.751 3.897 9.198C3.897 10.227 4.734 11.064 5.763 11.064C6.325 11.064 6.82302 10.809 7.16602 10.416V10.6479C7.16602 10.8559 7.33402 11.0229 7.54102 11.0229C7.74802 11.0229 7.91602 10.8559 7.91602 10.6479V8.02399H11.811V9.00696C11.811 9.21696 11.984 9.38196 12.186 9.38196H13.44L15.6 11.422C15.975 13.627 16.703 15.277 17.752 15.277C18.547 15.277 19.148 14.3469 19.56 12.9449C19.567 12.9369 19.567 12.922 19.575 12.915C19.725 12.382 19.852 11.782 19.95 11.145L20.002 11.077L20.422 10.522C20.475 10.455 20.505 10.38 20.505 10.297V4.995C20.505 4.91199 20.475 4.83696 20.422 4.76996L19.957 4.15497ZM4.647 6.15796C4.647 5.54296 5.148 5.04199 5.763 5.04199C6.379 5.04199 6.88 5.54296 6.88 6.15796C6.88 6.77296 6.379 7.27399 5.763 7.27399C5.148 7.27399 4.647 6.77296 4.647 6.15796ZM5.763 10.314C5.148 10.314 4.647 9.813 4.647 9.198C4.647 8.582 5.148 8.08099 5.763 8.08099C6.379 8.08099 6.88 8.582 6.88 9.198C6.88 9.813 6.379 10.314 5.763 10.314ZM18.772 2.37695C18.787 2.39995 18.795 2.42195 18.81 2.44495C18.847 2.54995 18.877 2.66998 18.907 2.78998L18.705 2.51996C18.727 2.45996 18.75 2.41495 18.772 2.37695ZM18.442 3.41199L18.6 3.61499L18.397 3.64496C18.412 3.56196 18.428 3.48699 18.442 3.41199ZM18.21 4.97998L18.615 5.80499L18.157 5.59497C18.172 5.37697 18.195 5.17498 18.21 4.97998ZM18.697 6.15698L18.097 6.98999C18.105 6.60799 18.12 6.23998 18.135 5.90198L18.697 6.15698ZM19.755 7.54498V7.75494L19.447 8.19L18.922 8.92499L18.09 7.74695V7.552L18.922 6.36694L19.447 7.10199C19.447 7.10199 19.447 7.10199 19.447 7.10999L19.755 7.54498ZM18.097 8.29498L18.697 9.12695L18.142 9.38995C18.12 9.05195 18.105 8.68498 18.097 8.29498ZM18.157 9.70496L18.615 9.495L18.217 10.3199C18.195 10.1249 18.18 9.92196 18.157 9.70496ZM18.405 11.655L18.6 11.685L18.45 11.8799C18.435 11.8119 18.42 11.737 18.405 11.655ZM18.352 11.37C18.33 11.22 18.3 11.055 18.277 10.882L18.998 9.38995L19.373 9.61499L19.387 9.62195L19.755 9.83997V10.162L19.282 10.785L19.237 10.845L18.795 11.43L18.352 11.37ZM19.41 9.30695L19.395 9.29999L19.125 9.14197L19.425 8.72198L19.44 8.69995L19.755 8.25696V9.50995L19.41 9.30695ZM19.44 6.59998L19.425 6.58496L19.125 6.15698L19.402 5.99194L19.41 5.98499L19.755 5.78998V7.04199L19.44 6.59998ZM19.395 5.66199L19.373 5.677L18.983 5.90198L18.27 4.43195C18.3 4.25195 18.322 4.07999 18.352 3.92999L18.795 3.87L19.238 4.44696L19.283 4.50696L19.755 5.12195V5.45996L19.395 5.66199ZM15.375 5.677L14.932 6.02997H14.407L14.82 5.63995L15.412 5.33197C15.397 5.44497 15.382 5.557 15.375 5.677ZM12.561 8.63196V8.23499V7.987V7.297V7.065V6.77997H12.869H13.124H13.222H13.62H13.995H15.015H15.3V7.11694V7.40198V7.89697V8.18195V8.625V8.63196H14.587H14.107H13.74H13.395H13.259H12.989H12.561ZM15.405 9.92999L14.692 9.53198L14.535 9.38196H15.045L15.382 9.65198C15.39 9.74998 15.397 9.83999 15.405 9.92999ZM17.752 14.527C17.377 14.527 16.905 13.732 16.56 12.322C16.522 12.188 16.485 12.038 16.455 11.887C16.417 11.737 16.387 11.58 16.365 11.415C16.342 11.295 16.32 11.175 16.297 11.047C16.282 10.935 16.267 10.822 16.252 10.702C16.237 10.597 16.222 10.4849 16.207 10.3719C16.2 10.3499 16.2 10.327 16.2 10.305C16.185 10.17 16.17 10.0269 16.155 9.88495C16.132 9.66695 16.117 9.44196 16.102 9.20996C16.095 9.11196 16.087 9.00797 16.087 8.90997C16.065 8.63997 16.057 8.35499 16.057 8.06299C16.05 7.97199 16.05 7.88197 16.05 7.78497V7.51495C16.05 7.41695 16.05 7.327 16.057 7.237C16.057 6.945 16.065 6.65995 16.087 6.38995C16.087 6.28495 16.095 6.17997 16.095 6.08197C16.11 5.84997 16.132 5.62498 16.147 5.40698C16.162 5.27298 16.177 5.14497 16.192 5.01697C16.2 4.97997 16.2 4.94197 16.207 4.90497C16.222 4.78497 16.237 4.672 16.252 4.56C16.267 4.455 16.282 4.35 16.297 4.245C16.312 4.125 16.335 4.00495 16.358 3.88495C16.387 3.71995 16.418 3.56199 16.455 3.41199C16.477 3.26199 16.515 3.11999 16.553 2.97699C16.898 1.55199 17.377 0.75 17.752 0.75C17.985 0.75 18.255 1.05695 18.51 1.62695C18.405 1.67995 18.307 1.76997 18.217 1.89697C18.142 2.00197 18.067 2.12997 18.007 2.27997C17.94 2.42997 17.88 2.61 17.827 2.797C17.782 2.925 17.752 3.06696 17.715 3.20996C17.67 3.41196 17.632 3.62998 17.595 3.84698C17.572 3.99698 17.55 4.15495 17.527 4.31195C17.475 4.74695 17.437 5.19694 17.407 5.61694C17.4 5.72194 17.392 5.82699 17.385 5.92499C17.355 6.54699 17.34 7.08695 17.34 7.43195V7.86694C17.347 8.21994 17.355 8.76 17.385 9.375C17.392 9.472 17.4 9.57695 17.407 9.68195C17.437 10.1019 17.475 10.552 17.535 10.987C17.557 11.137 17.58 11.2949 17.595 11.4449C17.64 11.6769 17.678 11.91 17.73 12.127C17.76 12.255 17.79 12.375 17.827 12.495C17.88 12.682 17.94 12.8549 18.015 13.0049C18.075 13.1549 18.15 13.29 18.232 13.395C18.315 13.515 18.405 13.597 18.51 13.65C18.255 14.22 17.985 14.527 17.752 14.527ZM18.825 12.795C18.817 12.802 18.817 12.81 18.817 12.817C18.803 12.847 18.788 12.87 18.772 12.892C18.75 12.862 18.735 12.817 18.712 12.772L18.9 12.532C18.877 12.622 18.847 12.712 18.825 12.795Z" fill="#333335"/>
<path d="M19.957 4.15497C19.86 3.51697 19.733 2.92497 19.582 2.39197C19.582 2.37697 19.575 2.36198 19.567 2.34698C19.155 0.936985 18.555 0 17.752 0C16.695 0 15.967 1.66495 15.6 3.87695L13.32 6.02997H12.186C11.984 6.02997 11.811 6.19497 11.811 6.40497V7.27399H7.91602V4.763C7.91602 4.556 7.74802 4.388 7.54102 4.388C7.33302 4.388 7.16602 4.556 7.16602 4.763V4.94C6.82302 4.546 6.325 4.29199 5.763 4.29199C4.734 4.29199 3.897 5.12896 3.897 6.15796C3.897 6.57796 4.04101 6.96199 4.27701 7.27399H0.375C0.168 7.27399 0 7.44199 0 7.64899C0 7.85599 0.168 8.02399 0.375 8.02399H4.32401C4.06101 8.34599 3.897 8.751 3.897 9.198C3.897 10.227 4.734 11.064 5.763 11.064C6.325 11.064 6.82302 10.809 7.16602 10.416V10.6479C7.16602 10.8559 7.33402 11.0229 7.54102 11.0229C7.74802 11.0229 7.91602 10.8559 7.91602 10.6479V8.02399H11.811V9.00696C11.811 9.21696 11.984 9.38196 12.186 9.38196H13.44L15.6 11.422C15.975 13.627 16.703 15.277 17.752 15.277C18.547 15.277 19.148 14.3469 19.56 12.9449C19.567 12.9369 19.567 12.922 19.575 12.915C19.725 12.382 19.852 11.782 19.95 11.145L20.002 11.077L20.422 10.522C20.475 10.455 20.505 10.38 20.505 10.297V4.995C20.505 4.91199 20.475 4.83696 20.422 4.76996L19.957 4.15497ZM4.647 6.15796C4.647 5.54296 5.148 5.04199 5.763 5.04199C6.379 5.04199 6.88 5.54296 6.88 6.15796C6.88 6.77296 6.379 7.27399 5.763 7.27399C5.148 7.27399 4.647 6.77296 4.647 6.15796ZM5.763 10.314C5.148 10.314 4.647 9.813 4.647 9.198C4.647 8.582 5.148 8.08099 5.763 8.08099C6.379 8.08099 6.88 8.582 6.88 9.198C6.88 9.813 6.379 10.314 5.763 10.314ZM18.772 2.37695C18.787 2.39995 18.795 2.42195 18.81 2.44495C18.847 2.54995 18.877 2.66998 18.907 2.78998L18.705 2.51996C18.727 2.45996 18.75 2.41495 18.772 2.37695ZM18.442 3.41199L18.6 3.61499L18.397 3.64496C18.412 3.56196 18.428 3.48699 18.442 3.41199ZM18.21 4.97998L18.615 5.80499L18.157 5.59497C18.172 5.37697 18.195 5.17498 18.21 4.97998ZM18.697 6.15698L18.097 6.98999C18.105 6.60799 18.12 6.23998 18.135 5.90198L18.697 6.15698ZM19.755 7.54498V7.75494L19.447 8.19L18.922 8.92499L18.09 7.74695V7.552L18.922 6.36694L19.447 7.10199C19.447 7.10199 19.447 7.10199 19.447 7.10999L19.755 7.54498ZM18.097 8.29498L18.697 9.12695L18.142 9.38995C18.12 9.05195 18.105 8.68498 18.097 8.29498ZM18.157 9.70496L18.615 9.495L18.217 10.3199C18.195 10.1249 18.18 9.92196 18.157 9.70496ZM18.405 11.655L18.6 11.685L18.45 11.8799C18.435 11.8119 18.42 11.737 18.405 11.655ZM18.352 11.37C18.33 11.22 18.3 11.055 18.277 10.882L18.998 9.38995L19.373 9.61499L19.387 9.62195L19.755 9.83997V10.162L19.282 10.785L19.237 10.845L18.795 11.43L18.352 11.37ZM19.41 9.30695L19.395 9.29999L19.125 9.14197L19.425 8.72198L19.44 8.69995L19.755 8.25696V9.50995L19.41 9.30695ZM19.44 6.59998L19.425 6.58496L19.125 6.15698L19.402 5.99194L19.41 5.98499L19.755 5.78998V7.04199L19.44 6.59998ZM19.395 5.66199L19.373 5.677L18.983 5.90198L18.27 4.43195C18.3 4.25195 18.322 4.07999 18.352 3.92999L18.795 3.87L19.238 4.44696L19.283 4.50696L19.755 5.12195V5.45996L19.395 5.66199ZM15.375 5.677L14.932 6.02997H14.407L14.82 5.63995L15.412 5.33197C15.397 5.44497 15.382 5.557 15.375 5.677ZM12.561 8.63196V8.23499V7.987V7.297V7.065V6.77997H12.869H13.124H13.222H13.62H13.995H15.015H15.3V7.11694V7.40198V7.89697V8.18195V8.625V8.63196H14.587H14.107H13.74H13.395H13.259H12.989H12.561ZM15.405 9.92999L14.692 9.53198L14.535 9.38196H15.045L15.382 9.65198C15.39 9.74998 15.397 9.83999 15.405 9.92999ZM17.752 14.527C17.377 14.527 16.905 13.732 16.56 12.322C16.522 12.188 16.485 12.038 16.455 11.887C16.417 11.737 16.387 11.58 16.365 11.415C16.342 11.295 16.32 11.175 16.297 11.047C16.282 10.935 16.267 10.822 16.252 10.702C16.237 10.597 16.222 10.4849 16.207 10.3719C16.2 10.3499 16.2 10.327 16.2 10.305C16.185 10.17 16.17 10.0269 16.155 9.88495C16.132 9.66695 16.117 9.44196 16.102 9.20996C16.095 9.11196 16.087 9.00797 16.087 8.90997C16.065 8.63997 16.057 8.35499 16.057 8.06299C16.05 7.97199 16.05 7.88197 16.05 7.78497V7.51495C16.05 7.41695 16.05 7.327 16.057 7.237C16.057 6.945 16.065 6.65995 16.087 6.38995C16.087 6.28495 16.095 6.17997 16.095 6.08197C16.11 5.84997 16.132 5.62498 16.147 5.40698C16.162 5.27298 16.177 5.14497 16.192 5.01697C16.2 4.97997 16.2 4.94197 16.207 4.90497C16.222 4.78497 16.237 4.672 16.252 4.56C16.267 4.455 16.282 4.35 16.297 4.245C16.312 4.125 16.335 4.00495 16.358 3.88495C16.387 3.71995 16.418 3.56199 16.455 3.41199C16.477 3.26199 16.515 3.11999 16.553 2.97699C16.898 1.55199 17.377 0.75 17.752 0.75C17.985 0.75 18.255 1.05695 18.51 1.62695C18.405 1.67995 18.307 1.76997 18.217 1.89697C18.142 2.00197 18.067 2.12997 18.007 2.27997C17.94 2.42997 17.88 2.61 17.827 2.797C17.782 2.925 17.752 3.06696 17.715 3.20996C17.67 3.41196 17.632 3.62998 17.595 3.84698C17.572 3.99698 17.55 4.15495 17.527 4.31195C17.475 4.74695 17.437 5.19694 17.407 5.61694C17.4 5.72194 17.392 5.82699 17.385 5.92499C17.355 6.54699 17.34 7.08695 17.34 7.43195V7.86694C17.347 8.21994 17.355 8.76 17.385 9.375C17.392 9.472 17.4 9.57695 17.407 9.68195C17.437 10.1019 17.475 10.552 17.535 10.987C17.557 11.137 17.58 11.2949 17.595 11.4449C17.64 11.6769 17.678 11.91 17.73 12.127C17.76 12.255 17.79 12.375 17.827 12.495C17.88 12.682 17.94 12.8549 18.015 13.0049C18.075 13.1549 18.15 13.29 18.232 13.395C18.315 13.515 18.405 13.597 18.51 13.65C18.255 14.22 17.985 14.527 17.752 14.527ZM18.825 12.795C18.817 12.802 18.817 12.81 18.817 12.817C18.803 12.847 18.788 12.87 18.772 12.892C18.75 12.862 18.735 12.817 18.712 12.772L18.9 12.532C18.877 12.622 18.847 12.712 18.825 12.795Z" fill="black" fill-opacity="0.2"/>
<path d="M19.957 4.15497C19.86 3.51697 19.733 2.92497 19.582 2.39197C19.582 2.37697 19.575 2.36198 19.567 2.34698C19.155 0.936985 18.555 0 17.752 0C16.695 0 15.967 1.66495 15.6 3.87695L13.32 6.02997H12.186C11.984 6.02997 11.811 6.19497 11.811 6.40497V7.27399H7.91602V4.763C7.91602 4.556 7.74802 4.388 7.54102 4.388C7.33302 4.388 7.16602 4.556 7.16602 4.763V4.94C6.82302 4.546 6.325 4.29199 5.763 4.29199C4.734 4.29199 3.897 5.12896 3.897 6.15796C3.897 6.57796 4.04101 6.96199 4.27701 7.27399H0.375C0.168 7.27399 0 7.44199 0 7.64899C0 7.85599 0.168 8.02399 0.375 8.02399H4.32401C4.06101 8.34599 3.897 8.751 3.897 9.198C3.897 10.227 4.734 11.064 5.763 11.064C6.325 11.064 6.82302 10.809 7.16602 10.416V10.6479C7.16602 10.8559 7.33402 11.0229 7.54102 11.0229C7.74802 11.0229 7.91602 10.8559 7.91602 10.6479V8.02399H11.811V9.00696C11.811 9.21696 11.984 9.38196 12.186 9.38196H13.44L15.6 11.422C15.975 13.627 16.703 15.277 17.752 15.277C18.547 15.277 19.148 14.3469 19.56 12.9449C19.567 12.9369 19.567 12.922 19.575 12.915C19.725 12.382 19.852 11.782 19.95 11.145L20.002 11.077L20.422 10.522C20.475 10.455 20.505 10.38 20.505 10.297V4.995C20.505 4.91199 20.475 4.83696 20.422 4.76996L19.957 4.15497ZM4.647 6.15796C4.647 5.54296 5.148 5.04199 5.763 5.04199C6.379 5.04199 6.88 5.54296 6.88 6.15796C6.88 6.77296 6.379 7.27399 5.763 7.27399C5.148 7.27399 4.647 6.77296 4.647 6.15796ZM5.763 10.314C5.148 10.314 4.647 9.813 4.647 9.198C4.647 8.582 5.148 8.08099 5.763 8.08099C6.379 8.08099 6.88 8.582 6.88 9.198C6.88 9.813 6.379 10.314 5.763 10.314ZM18.772 2.37695C18.787 2.39995 18.795 2.42195 18.81 2.44495C18.847 2.54995 18.877 2.66998 18.907 2.78998L18.705 2.51996C18.727 2.45996 18.75 2.41495 18.772 2.37695ZM18.442 3.41199L18.6 3.61499L18.397 3.64496C18.412 3.56196 18.428 3.48699 18.442 3.41199ZM18.21 4.97998L18.615 5.80499L18.157 5.59497C18.172 5.37697 18.195 5.17498 18.21 4.97998ZM18.697 6.15698L18.097 6.98999C18.105 6.60799 18.12 6.23998 18.135 5.90198L18.697 6.15698ZM19.755 7.54498V7.75494L19.447 8.19L18.922 8.92499L18.09 7.74695V7.552L18.922 6.36694L19.447 7.10199C19.447 7.10199 19.447 7.10199 19.447 7.10999L19.755 7.54498ZM18.097 8.29498L18.697 9.12695L18.142 9.38995C18.12 9.05195 18.105 8.68498 18.097 8.29498ZM18.157 9.70496L18.615 9.495L18.217 10.3199C18.195 10.1249 18.18 9.92196 18.157 9.70496ZM18.405 11.655L18.6 11.685L18.45 11.8799C18.435 11.8119 18.42 11.737 18.405 11.655ZM18.352 11.37C18.33 11.22 18.3 11.055 18.277 10.882L18.998 9.38995L19.373 9.61499L19.387 9.62195L19.755 9.83997V10.162L19.282 10.785L19.237 10.845L18.795 11.43L18.352 11.37ZM19.41 9.30695L19.395 9.29999L19.125 9.14197L19.425 8.72198L19.44 8.69995L19.755 8.25696V9.50995L19.41 9.30695ZM19.44 6.59998L19.425 6.58496L19.125 6.15698L19.402 5.99194L19.41 5.98499L19.755 5.78998V7.04199L19.44 6.59998ZM19.395 5.66199L19.373 5.677L18.983 5.90198L18.27 4.43195C18.3 4.25195 18.322 4.07999 18.352 3.92999L18.795 3.87L19.238 4.44696L19.283 4.50696L19.755 5.12195V5.45996L19.395 5.66199ZM15.375 5.677L14.932 6.02997H14.407L14.82 5.63995L15.412 5.33197C15.397 5.44497 15.382 5.557 15.375 5.677ZM12.561 8.63196V8.23499V7.987V7.297V7.065V6.77997H12.869H13.124H13.222H13.62H13.995H15.015H15.3V7.11694V7.40198V7.89697V8.18195V8.625V8.63196H14.587H14.107H13.74H13.395H13.259H12.989H12.561ZM15.405 9.92999L14.692 9.53198L14.535 9.38196H15.045L15.382 9.65198C15.39 9.74998 15.397 9.83999 15.405 9.92999ZM17.752 14.527C17.377 14.527 16.905 13.732 16.56 12.322C16.522 12.188 16.485 12.038 16.455 11.887C16.417 11.737 16.387 11.58 16.365 11.415C16.342 11.295 16.32 11.175 16.297 11.047C16.282 10.935 16.267 10.822 16.252 10.702C16.237 10.597 16.222 10.4849 16.207 10.3719C16.2 10.3499 16.2 10.327 16.2 10.305C16.185 10.17 16.17 10.0269 16.155 9.88495C16.132 9.66695 16.117 9.44196 16.102 9.20996C16.095 9.11196 16.087 9.00797 16.087 8.90997C16.065 8.63997 16.057 8.35499 16.057 8.06299C16.05 7.97199 16.05 7.88197 16.05 7.78497V7.51495C16.05 7.41695 16.05 7.327 16.057 7.237C16.057 6.945 16.065 6.65995 16.087 6.38995C16.087 6.28495 16.095 6.17997 16.095 6.08197C16.11 5.84997 16.132 5.62498 16.147 5.40698C16.162 5.27298 16.177 5.14497 16.192 5.01697C16.2 4.97997 16.2 4.94197 16.207 4.90497C16.222 4.78497 16.237 4.672 16.252 4.56C16.267 4.455 16.282 4.35 16.297 4.245C16.312 4.125 16.335 4.00495 16.358 3.88495C16.387 3.71995 16.418 3.56199 16.455 3.41199C16.477 3.26199 16.515 3.11999 16.553 2.97699C16.898 1.55199 17.377 0.75 17.752 0.75C17.985 0.75 18.255 1.05695 18.51 1.62695C18.405 1.67995 18.307 1.76997 18.217 1.89697C18.142 2.00197 18.067 2.12997 18.007 2.27997C17.94 2.42997 17.88 2.61 17.827 2.797C17.782 2.925 17.752 3.06696 17.715 3.20996C17.67 3.41196 17.632 3.62998 17.595 3.84698C17.572 3.99698 17.55 4.15495 17.527 4.31195C17.475 4.74695 17.437 5.19694 17.407 5.61694C17.4 5.72194 17.392 5.82699 17.385 5.92499C17.355 6.54699 17.34 7.08695 17.34 7.43195V7.86694C17.347 8.21994 17.355 8.76 17.385 9.375C17.392 9.472 17.4 9.57695 17.407 9.68195C17.437 10.1019 17.475 10.552 17.535 10.987C17.557 11.137 17.58 11.2949 17.595 11.4449C17.64 11.6769 17.678 11.91 17.73 12.127C17.76 12.255 17.79 12.375 17.827 12.495C17.88 12.682 17.94 12.8549 18.015 13.0049C18.075 13.1549 18.15 13.29 18.232 13.395C18.315 13.515 18.405 13.597 18.51 13.65C18.255 14.22 17.985 14.527 17.752 14.527ZM18.825 12.795C18.817 12.802 18.817 12.81 18.817 12.817C18.803 12.847 18.788 12.87 18.772 12.892C18.75 12.862 18.735 12.817 18.712 12.772L18.9 12.532C18.877 12.622 18.847 12.712 18.825 12.795Z" fill="black" fill-opacity="0.2"/>
<path d="M19.957 4.15497C19.86 3.51697 19.733 2.92497 19.582 2.39197C19.582 2.37697 19.575 2.36198 19.567 2.34698C19.155 0.936985 18.555 0 17.752 0C16.695 0 15.967 1.66495 15.6 3.87695L13.32 6.02997H12.186C11.984 6.02997 11.811 6.19497 11.811 6.40497V7.27399H7.91602V4.763C7.91602 4.556 7.74802 4.388 7.54102 4.388C7.33302 4.388 7.16602 4.556 7.16602 4.763V4.94C6.82302 4.546 6.325 4.29199 5.763 4.29199C4.734 4.29199 3.897 5.12896 3.897 6.15796C3.897 6.57796 4.04101 6.96199 4.27701 7.27399H0.375C0.168 7.27399 0 7.44199 0 7.64899C0 7.85599 0.168 8.02399 0.375 8.02399H4.32401C4.06101 8.34599 3.897 8.751 3.897 9.198C3.897 10.227 4.734 11.064 5.763 11.064C6.325 11.064 6.82302 10.809 7.16602 10.416V10.6479C7.16602 10.8559 7.33402 11.0229 7.54102 11.0229C7.74802 11.0229 7.91602 10.8559 7.91602 10.6479V8.02399H11.811V9.00696C11.811 9.21696 11.984 9.38196 12.186 9.38196H13.44L15.6 11.422C15.975 13.627 16.703 15.277 17.752 15.277C18.547 15.277 19.148 14.3469 19.56 12.9449C19.567 12.9369 19.567 12.922 19.575 12.915C19.725 12.382 19.852 11.782 19.95 11.145L20.002 11.077L20.422 10.522C20.475 10.455 20.505 10.38 20.505 10.297V4.995C20.505 4.91199 20.475 4.83696 20.422 4.76996L19.957 4.15497ZM4.647 6.15796C4.647 5.54296 5.148 5.04199 5.763 5.04199C6.379 5.04199 6.88 5.54296 6.88 6.15796C6.88 6.77296 6.379 7.27399 5.763 7.27399C5.148 7.27399 4.647 6.77296 4.647 6.15796ZM5.763 10.314C5.148 10.314 4.647 9.813 4.647 9.198C4.647 8.582 5.148 8.08099 5.763 8.08099C6.379 8.08099 6.88 8.582 6.88 9.198C6.88 9.813 6.379 10.314 5.763 10.314ZM18.772 2.37695C18.787 2.39995 18.795 2.42195 18.81 2.44495C18.847 2.54995 18.877 2.66998 18.907 2.78998L18.705 2.51996C18.727 2.45996 18.75 2.41495 18.772 2.37695ZM18.442 3.41199L18.6 3.61499L18.397 3.64496C18.412 3.56196 18.428 3.48699 18.442 3.41199ZM18.21 4.97998L18.615 5.80499L18.157 5.59497C18.172 5.37697 18.195 5.17498 18.21 4.97998ZM18.697 6.15698L18.097 6.98999C18.105 6.60799 18.12 6.23998 18.135 5.90198L18.697 6.15698ZM19.755 7.54498V7.75494L19.447 8.19L18.922 8.92499L18.09 7.74695V7.552L18.922 6.36694L19.447 7.10199C19.447 7.10199 19.447 7.10199 19.447 7.10999L19.755 7.54498ZM18.097 8.29498L18.697 9.12695L18.142 9.38995C18.12 9.05195 18.105 8.68498 18.097 8.29498ZM18.157 9.70496L18.615 9.495L18.217 10.3199C18.195 10.1249 18.18 9.92196 18.157 9.70496ZM18.405 11.655L18.6 11.685L18.45 11.8799C18.435 11.8119 18.42 11.737 18.405 11.655ZM18.352 11.37C18.33 11.22 18.3 11.055 18.277 10.882L18.998 9.38995L19.373 9.61499L19.387 9.62195L19.755 9.83997V10.162L19.282 10.785L19.237 10.845L18.795 11.43L18.352 11.37ZM19.41 9.30695L19.395 9.29999L19.125 9.14197L19.425 8.72198L19.44 8.69995L19.755 8.25696V9.50995L19.41 9.30695ZM19.44 6.59998L19.425 6.58496L19.125 6.15698L19.402 5.99194L19.41 5.98499L19.755 5.78998V7.04199L19.44 6.59998ZM19.395 5.66199L19.373 5.677L18.983 5.90198L18.27 4.43195C18.3 4.25195 18.322 4.07999 18.352 3.92999L18.795 3.87L19.238 4.44696L19.283 4.50696L19.755 5.12195V5.45996L19.395 5.66199ZM15.375 5.677L14.932 6.02997H14.407L14.82 5.63995L15.412 5.33197C15.397 5.44497 15.382 5.557 15.375 5.677ZM12.561 8.63196V8.23499V7.987V7.297V7.065V6.77997H12.869H13.124H13.222H13.62H13.995H15.015H15.3V7.11694V7.40198V7.89697V8.18195V8.625V8.63196H14.587H14.107H13.74H13.395H13.259H12.989H12.561ZM15.405 9.92999L14.692 9.53198L14.535 9.38196H15.045L15.382 9.65198C15.39 9.74998 15.397 9.83999 15.405 9.92999ZM17.752 14.527C17.377 14.527 16.905 13.732 16.56 12.322C16.522 12.188 16.485 12.038 16.455 11.887C16.417 11.737 16.387 11.58 16.365 11.415C16.342 11.295 16.32 11.175 16.297 11.047C16.282 10.935 16.267 10.822 16.252 10.702C16.237 10.597 16.222 10.4849 16.207 10.3719C16.2 10.3499 16.2 10.327 16.2 10.305C16.185 10.17 16.17 10.0269 16.155 9.88495C16.132 9.66695 16.117 9.44196 16.102 9.20996C16.095 9.11196 16.087 9.00797 16.087 8.90997C16.065 8.63997 16.057 8.35499 16.057 8.06299C16.05 7.97199 16.05 7.88197 16.05 7.78497V7.51495C16.05 7.41695 16.05 7.327 16.057 7.237C16.057 6.945 16.065 6.65995 16.087 6.38995C16.087 6.28495 16.095 6.17997 16.095 6.08197C16.11 5.84997 16.132 5.62498 16.147 5.40698C16.162 5.27298 16.177 5.14497 16.192 5.01697C16.2 4.97997 16.2 4.94197 16.207 4.90497C16.222 4.78497 16.237 4.672 16.252 4.56C16.267 4.455 16.282 4.35 16.297 4.245C16.312 4.125 16.335 4.00495 16.358 3.88495C16.387 3.71995 16.418 3.56199 16.455 3.41199C16.477 3.26199 16.515 3.11999 16.553 2.97699C16.898 1.55199 17.377 0.75 17.752 0.75C17.985 0.75 18.255 1.05695 18.51 1.62695C18.405 1.67995 18.307 1.76997 18.217 1.89697C18.142 2.00197 18.067 2.12997 18.007 2.27997C17.94 2.42997 17.88 2.61 17.827 2.797C17.782 2.925 17.752 3.06696 17.715 3.20996C17.67 3.41196 17.632 3.62998 17.595 3.84698C17.572 3.99698 17.55 4.15495 17.527 4.31195C17.475 4.74695 17.437 5.19694 17.407 5.61694C17.4 5.72194 17.392 5.82699 17.385 5.92499C17.355 6.54699 17.34 7.08695 17.34 7.43195V7.86694C17.347 8.21994 17.355 8.76 17.385 9.375C17.392 9.472 17.4 9.57695 17.407 9.68195C17.437 10.1019 17.475 10.552 17.535 10.987C17.557 11.137 17.58 11.2949 17.595 11.4449C17.64 11.6769 17.678 11.91 17.73 12.127C17.76 12.255 17.79 12.375 17.827 12.495C17.88 12.682 17.94 12.8549 18.015 13.0049C18.075 13.1549 18.15 13.29 18.232 13.395C18.315 13.515 18.405 13.597 18.51 13.65C18.255 14.22 17.985 14.527 17.752 14.527ZM18.825 12.795C18.817 12.802 18.817 12.81 18.817 12.817C18.803 12.847 18.788 12.87 18.772 12.892C18.75 12.862 18.735 12.817 18.712 12.772L18.9 12.532C18.877 12.622 18.847 12.712 18.825 12.795Z" fill="black" fill-opacity="0.2"/>
<path d="M19.957 4.15497C19.86 3.51697 19.733 2.92497 19.582 2.39197C19.582 2.37697 19.575 2.36198 19.567 2.34698C19.155 0.936985 18.555 0 17.752 0C16.695 0 15.967 1.66495 15.6 3.87695L13.32 6.02997H12.186C11.984 6.02997 11.811 6.19497 11.811 6.40497V7.27399H7.91602V4.763C7.91602 4.556 7.74802 4.388 7.54102 4.388C7.33302 4.388 7.16602 4.556 7.16602 4.763V4.94C6.82302 4.546 6.325 4.29199 5.763 4.29199C4.734 4.29199 3.897 5.12896 3.897 6.15796C3.897 6.57796 4.04101 6.96199 4.27701 7.27399H0.375C0.168 7.27399 0 7.44199 0 7.64899C0 7.85599 0.168 8.02399 0.375 8.02399H4.32401C4.06101 8.34599 3.897 8.751 3.897 9.198C3.897 10.227 4.734 11.064 5.763 11.064C6.325 11.064 6.82302 10.809 7.16602 10.416V10.6479C7.16602 10.8559 7.33402 11.0229 7.54102 11.0229C7.74802 11.0229 7.91602 10.8559 7.91602 10.6479V8.02399H11.811V9.00696C11.811 9.21696 11.984 9.38196 12.186 9.38196H13.44L15.6 11.422C15.975 13.627 16.703 15.277 17.752 15.277C18.547 15.277 19.148 14.3469 19.56 12.9449C19.567 12.9369 19.567 12.922 19.575 12.915C19.725 12.382 19.852 11.782 19.95 11.145L20.002 11.077L20.422 10.522C20.475 10.455 20.505 10.38 20.505 10.297V4.995C20.505 4.91199 20.475 4.83696 20.422 4.76996L19.957 4.15497ZM4.647 6.15796C4.647 5.54296 5.148 5.04199 5.763 5.04199C6.379 5.04199 6.88 5.54296 6.88 6.15796C6.88 6.77296 6.379 7.27399 5.763 7.27399C5.148 7.27399 4.647 6.77296 4.647 6.15796ZM5.763 10.314C5.148 10.314 4.647 9.813 4.647 9.198C4.647 8.582 5.148 8.08099 5.763 8.08099C6.379 8.08099 6.88 8.582 6.88 9.198C6.88 9.813 6.379 10.314 5.763 10.314ZM18.772 2.37695C18.787 2.39995 18.795 2.42195 18.81 2.44495C18.847 2.54995 18.877 2.66998 18.907 2.78998L18.705 2.51996C18.727 2.45996 18.75 2.41495 18.772 2.37695ZM18.442 3.41199L18.6 3.61499L18.397 3.64496C18.412 3.56196 18.428 3.48699 18.442 3.41199ZM18.21 4.97998L18.615 5.80499L18.157 5.59497C18.172 5.37697 18.195 5.17498 18.21 4.97998ZM18.697 6.15698L18.097 6.98999C18.105 6.60799 18.12 6.23998 18.135 5.90198L18.697 6.15698ZM19.755 7.54498V7.75494L19.447 8.19L18.922 8.92499L18.09 7.74695V7.552L18.922 6.36694L19.447 7.10199C19.447 7.10199 19.447 7.10199 19.447 7.10999L19.755 7.54498ZM18.097 8.29498L18.697 9.12695L18.142 9.38995C18.12 9.05195 18.105 8.68498 18.097 8.29498ZM18.157 9.70496L18.615 9.495L18.217 10.3199C18.195 10.1249 18.18 9.92196 18.157 9.70496ZM18.405 11.655L18.6 11.685L18.45 11.8799C18.435 11.8119 18.42 11.737 18.405 11.655ZM18.352 11.37C18.33 11.22 18.3 11.055 18.277 10.882L18.998 9.38995L19.373 9.61499L19.387 9.62195L19.755 9.83997V10.162L19.282 10.785L19.237 10.845L18.795 11.43L18.352 11.37ZM19.41 9.30695L19.395 9.29999L19.125 9.14197L19.425 8.72198L19.44 8.69995L19.755 8.25696V9.50995L19.41 9.30695ZM19.44 6.59998L19.425 6.58496L19.125 6.15698L19.402 5.99194L19.41 5.98499L19.755 5.78998V7.04199L19.44 6.59998ZM19.395 5.66199L19.373 5.677L18.983 5.90198L18.27 4.43195C18.3 4.25195 18.322 4.07999 18.352 3.92999L18.795 3.87L19.238 4.44696L19.283 4.50696L19.755 5.12195V5.45996L19.395 5.66199ZM15.375 5.677L14.932 6.02997H14.407L14.82 5.63995L15.412 5.33197C15.397 5.44497 15.382 5.557 15.375 5.677ZM12.561 8.63196V8.23499V7.987V7.297V7.065V6.77997H12.869H13.124H13.222H13.62H13.995H15.015H15.3V7.11694V7.40198V7.89697V8.18195V8.625V8.63196H14.587H14.107H13.74H13.395H13.259H12.989H12.561ZM15.405 9.92999L14.692 9.53198L14.535 9.38196H15.045L15.382 9.65198C15.39 9.74998 15.397 9.83999 15.405 9.92999ZM17.752 14.527C17.377 14.527 16.905 13.732 16.56 12.322C16.522 12.188 16.485 12.038 16.455 11.887C16.417 11.737 16.387 11.58 16.365 11.415C16.342 11.295 16.32 11.175 16.297 11.047C16.282 10.935 16.267 10.822 16.252 10.702C16.237 10.597 16.222 10.4849 16.207 10.3719C16.2 10.3499 16.2 10.327 16.2 10.305C16.185 10.17 16.17 10.0269 16.155 9.88495C16.132 9.66695 16.117 9.44196 16.102 9.20996C16.095 9.11196 16.087 9.00797 16.087 8.90997C16.065 8.63997 16.057 8.35499 16.057 8.06299C16.05 7.97199 16.05 7.88197 16.05 7.78497V7.51495C16.05 7.41695 16.05 7.327 16.057 7.237C16.057 6.945 16.065 6.65995 16.087 6.38995C16.087 6.28495 16.095 6.17997 16.095 6.08197C16.11 5.84997 16.132 5.62498 16.147 5.40698C16.162 5.27298 16.177 5.14497 16.192 5.01697C16.2 4.97997 16.2 4.94197 16.207 4.90497C16.222 4.78497 16.237 4.672 16.252 4.56C16.267 4.455 16.282 4.35 16.297 4.245C16.312 4.125 16.335 4.00495 16.358 3.88495C16.387 3.71995 16.418 3.56199 16.455 3.41199C16.477 3.26199 16.515 3.11999 16.553 2.97699C16.898 1.55199 17.377 0.75 17.752 0.75C17.985 0.75 18.255 1.05695 18.51 1.62695C18.405 1.67995 18.307 1.76997 18.217 1.89697C18.142 2.00197 18.067 2.12997 18.007 2.27997C17.94 2.42997 17.88 2.61 17.827 2.797C17.782 2.925 17.752 3.06696 17.715 3.20996C17.67 3.41196 17.632 3.62998 17.595 3.84698C17.572 3.99698 17.55 4.15495 17.527 4.31195C17.475 4.74695 17.437 5.19694 17.407 5.61694C17.4 5.72194 17.392 5.82699 17.385 5.92499C17.355 6.54699 17.34 7.08695 17.34 7.43195V7.86694C17.347 8.21994 17.355 8.76 17.385 9.375C17.392 9.472 17.4 9.57695 17.407 9.68195C17.437 10.1019 17.475 10.552 17.535 10.987C17.557 11.137 17.58 11.2949 17.595 11.4449C17.64 11.6769 17.678 11.91 17.73 12.127C17.76 12.255 17.79 12.375 17.827 12.495C17.88 12.682 17.94 12.8549 18.015 13.0049C18.075 13.1549 18.15 13.29 18.232 13.395C18.315 13.515 18.405 13.597 18.51 13.65C18.255 14.22 17.985 14.527 17.752 14.527ZM18.825 12.795C18.817 12.802 18.817 12.81 18.817 12.817C18.803 12.847 18.788 12.87 18.772 12.892C18.75 12.862 18.735 12.817 18.712 12.772L18.9 12.532C18.877 12.622 18.847 12.712 18.825 12.795Z" fill="black" fill-opacity="0.2"/>
<path d="M19.957 4.15497C19.86 3.51697 19.733 2.92497 19.582 2.39197C19.582 2.37697 19.575 2.36198 19.567 2.34698C19.155 0.936985 18.555 0 17.752 0C16.695 0 15.967 1.66495 15.6 3.87695L13.32 6.02997H12.186C11.984 6.02997 11.811 6.19497 11.811 6.40497V7.27399H7.91602V4.763C7.91602 4.556 7.74802 4.388 7.54102 4.388C7.33302 4.388 7.16602 4.556 7.16602 4.763V4.94C6.82302 4.546 6.325 4.29199 5.763 4.29199C4.734 4.29199 3.897 5.12896 3.897 6.15796C3.897 6.57796 4.04101 6.96199 4.27701 7.27399H0.375C0.168 7.27399 0 7.44199 0 7.64899C0 7.85599 0.168 8.02399 0.375 8.02399H4.32401C4.06101 8.34599 3.897 8.751 3.897 9.198C3.897 10.227 4.734 11.064 5.763 11.064C6.325 11.064 6.82302 10.809 7.16602 10.416V10.6479C7.16602 10.8559 7.33402 11.0229 7.54102 11.0229C7.74802 11.0229 7.91602 10.8559 7.91602 10.6479V8.02399H11.811V9.00696C11.811 9.21696 11.984 9.38196 12.186 9.38196H13.44L15.6 11.422C15.975 13.627 16.703 15.277 17.752 15.277C18.547 15.277 19.148 14.3469 19.56 12.9449C19.567 12.9369 19.567 12.922 19.575 12.915C19.725 12.382 19.852 11.782 19.95 11.145L20.002 11.077L20.422 10.522C20.475 10.455 20.505 10.38 20.505 10.297V4.995C20.505 4.91199 20.475 4.83696 20.422 4.76996L19.957 4.15497ZM4.647 6.15796C4.647 5.54296 5.148 5.04199 5.763 5.04199C6.379 5.04199 6.88 5.54296 6.88 6.15796C6.88 6.77296 6.379 7.27399 5.763 7.27399C5.148 7.27399 4.647 6.77296 4.647 6.15796ZM5.763 10.314C5.148 10.314 4.647 9.813 4.647 9.198C4.647 8.582 5.148 8.08099 5.763 8.08099C6.379 8.08099 6.88 8.582 6.88 9.198C6.88 9.813 6.379 10.314 5.763 10.314ZM18.772 2.37695C18.787 2.39995 18.795 2.42195 18.81 2.44495C18.847 2.54995 18.877 2.66998 18.907 2.78998L18.705 2.51996C18.727 2.45996 18.75 2.41495 18.772 2.37695ZM18.442 3.41199L18.6 3.61499L18.397 3.64496C18.412 3.56196 18.428 3.48699 18.442 3.41199ZM18.21 4.97998L18.615 5.80499L18.157 5.59497C18.172 5.37697 18.195 5.17498 18.21 4.97998ZM18.697 6.15698L18.097 6.98999C18.105 6.60799 18.12 6.23998 18.135 5.90198L18.697 6.15698ZM19.755 7.54498V7.75494L19.447 8.19L18.922 8.92499L18.09 7.74695V7.552L18.922 6.36694L19.447 7.10199C19.447 7.10199 19.447 7.10199 19.447 7.10999L19.755 7.54498ZM18.097 8.29498L18.697 9.12695L18.142 9.38995C18.12 9.05195 18.105 8.68498 18.097 8.29498ZM18.157 9.70496L18.615 9.495L18.217 10.3199C18.195 10.1249 18.18 9.92196 18.157 9.70496ZM18.405 11.655L18.6 11.685L18.45 11.8799C18.435 11.8119 18.42 11.737 18.405 11.655ZM18.352 11.37C18.33 11.22 18.3 11.055 18.277 10.882L18.998 9.38995L19.373 9.61499L19.387 9.62195L19.755 9.83997V10.162L19.282 10.785L19.237 10.845L18.795 11.43L18.352 11.37ZM19.41 9.30695L19.395 9.29999L19.125 9.14197L19.425 8.72198L19.44 8.69995L19.755 8.25696V9.50995L19.41 9.30695ZM19.44 6.59998L19.425 6.58496L19.125 6.15698L19.402 5.99194L19.41 5.98499L19.755 5.78998V7.04199L19.44 6.59998ZM19.395 5.66199L19.373 5.677L18.983 5.90198L18.27 4.43195C18.3 4.25195 18.322 4.07999 18.352 3.92999L18.795 3.87L19.238 4.44696L19.283 4.50696L19.755 5.12195V5.45996L19.395 5.66199ZM15.375 5.677L14.932 6.02997H14.407L14.82 5.63995L15.412 5.33197C15.397 5.44497 15.382 5.557 15.375 5.677ZM12.561 8.63196V8.23499V7.987V7.297V7.065V6.77997H12.869H13.124H13.222H13.62H13.995H15.015H15.3V7.11694V7.40198V7.89697V8.18195V8.625V8.63196H14.587H14.107H13.74H13.395H13.259H12.989H12.561ZM15.405 9.92999L14.692 9.53198L14.535 9.38196H15.045L15.382 9.65198C15.39 9.74998 15.397 9.83999 15.405 9.92999ZM17.752 14.527C17.377 14.527 16.905 13.732 16.56 12.322C16.522 12.188 16.485 12.038 16.455 11.887C16.417 11.737 16.387 11.58 16.365 11.415C16.342 11.295 16.32 11.175 16.297 11.047C16.282 10.935 16.267 10.822 16.252 10.702C16.237 10.597 16.222 10.4849 16.207 10.3719C16.2 10.3499 16.2 10.327 16.2 10.305C16.185 10.17 16.17 10.0269 16.155 9.88495C16.132 9.66695 16.117 9.44196 16.102 9.20996C16.095 9.11196 16.087 9.00797 16.087 8.90997C16.065 8.63997 16.057 8.35499 16.057 8.06299C16.05 7.97199 16.05 7.88197 16.05 7.78497V7.51495C16.05 7.41695 16.05 7.327 16.057 7.237C16.057 6.945 16.065 6.65995 16.087 6.38995C16.087 6.28495 16.095 6.17997 16.095 6.08197C16.11 5.84997 16.132 5.62498 16.147 5.40698C16.162 5.27298 16.177 5.14497 16.192 5.01697C16.2 4.97997 16.2 4.94197 16.207 4.90497C16.222 4.78497 16.237 4.672 16.252 4.56C16.267 4.455 16.282 4.35 16.297 4.245C16.312 4.125 16.335 4.00495 16.358 3.88495C16.387 3.71995 16.418 3.56199 16.455 3.41199C16.477 3.26199 16.515 3.11999 16.553 2.97699C16.898 1.55199 17.377 0.75 17.752 0.75C17.985 0.75 18.255 1.05695 18.51 1.62695C18.405 1.67995 18.307 1.76997 18.217 1.89697C18.142 2.00197 18.067 2.12997 18.007 2.27997C17.94 2.42997 17.88 2.61 17.827 2.797C17.782 2.925 17.752 3.06696 17.715 3.20996C17.67 3.41196 17.632 3.62998 17.595 3.84698C17.572 3.99698 17.55 4.15495 17.527 4.31195C17.475 4.74695 17.437 5.19694 17.407 5.61694C17.4 5.72194 17.392 5.82699 17.385 5.92499C17.355 6.54699 17.34 7.08695 17.34 7.43195V7.86694C17.347 8.21994 17.355 8.76 17.385 9.375C17.392 9.472 17.4 9.57695 17.407 9.68195C17.437 10.1019 17.475 10.552 17.535 10.987C17.557 11.137 17.58 11.2949 17.595 11.4449C17.64 11.6769 17.678 11.91 17.73 12.127C17.76 12.255 17.79 12.375 17.827 12.495C17.88 12.682 17.94 12.8549 18.015 13.0049C18.075 13.1549 18.15 13.29 18.232 13.395C18.315 13.515 18.405 13.597 18.51 13.65C18.255 14.22 17.985 14.527 17.752 14.527ZM18.825 12.795C18.817 12.802 18.817 12.81 18.817 12.817C18.803 12.847 18.788 12.87 18.772 12.892C18.75 12.862 18.735 12.817 18.712 12.772L18.9 12.532C18.877 12.622 18.847 12.712 18.825 12.795Z" fill="black" fill-opacity="0.2"/>
<path d="M19.957 4.15497C19.86 3.51697 19.733 2.92497 19.582 2.39197C19.582 2.37697 19.575 2.36198 19.567 2.34698C19.155 0.936985 18.555 0 17.752 0C16.695 0 15.967 1.66495 15.6 3.87695L13.32 6.02997H12.186C11.984 6.02997 11.811 6.19497 11.811 6.40497V7.27399H7.91602V4.763C7.91602 4.556 7.74802 4.388 7.54102 4.388C7.33302 4.388 7.16602 4.556 7.16602 4.763V4.94C6.82302 4.546 6.325 4.29199 5.763 4.29199C4.734 4.29199 3.897 5.12896 3.897 6.15796C3.897 6.57796 4.04101 6.96199 4.27701 7.27399H0.375C0.168 7.27399 0 7.44199 0 7.64899C0 7.85599 0.168 8.02399 0.375 8.02399H4.32401C4.06101 8.34599 3.897 8.751 3.897 9.198C3.897 10.227 4.734 11.064 5.763 11.064C6.325 11.064 6.82302 10.809 7.16602 10.416V10.6479C7.16602 10.8559 7.33402 11.0229 7.54102 11.0229C7.74802 11.0229 7.91602 10.8559 7.91602 10.6479V8.02399H11.811V9.00696C11.811 9.21696 11.984 9.38196 12.186 9.38196H13.44L15.6 11.422C15.975 13.627 16.703 15.277 17.752 15.277C18.547 15.277 19.148 14.3469 19.56 12.9449C19.567 12.9369 19.567 12.922 19.575 12.915C19.725 12.382 19.852 11.782 19.95 11.145L20.002 11.077L20.422 10.522C20.475 10.455 20.505 10.38 20.505 10.297V4.995C20.505 4.91199 20.475 4.83696 20.422 4.76996L19.957 4.15497ZM4.647 6.15796C4.647 5.54296 5.148 5.04199 5.763 5.04199C6.379 5.04199 6.88 5.54296 6.88 6.15796C6.88 6.77296 6.379 7.27399 5.763 7.27399C5.148 7.27399 4.647 6.77296 4.647 6.15796ZM5.763 10.314C5.148 10.314 4.647 9.813 4.647 9.198C4.647 8.582 5.148 8.08099 5.763 8.08099C6.379 8.08099 6.88 8.582 6.88 9.198C6.88 9.813 6.379 10.314 5.763 10.314ZM18.772 2.37695C18.787 2.39995 18.795 2.42195 18.81 2.44495C18.847 2.54995 18.877 2.66998 18.907 2.78998L18.705 2.51996C18.727 2.45996 18.75 2.41495 18.772 2.37695ZM18.442 3.41199L18.6 3.61499L18.397 3.64496C18.412 3.56196 18.428 3.48699 18.442 3.41199ZM18.21 4.97998L18.615 5.80499L18.157 5.59497C18.172 5.37697 18.195 5.17498 18.21 4.97998ZM18.697 6.15698L18.097 6.98999C18.105 6.60799 18.12 6.23998 18.135 5.90198L18.697 6.15698ZM19.755 7.54498V7.75494L19.447 8.19L18.922 8.92499L18.09 7.74695V7.552L18.922 6.36694L19.447 7.10199C19.447 7.10199 19.447 7.10199 19.447 7.10999L19.755 7.54498ZM18.097 8.29498L18.697 9.12695L18.142 9.38995C18.12 9.05195 18.105 8.68498 18.097 8.29498ZM18.157 9.70496L18.615 9.495L18.217 10.3199C18.195 10.1249 18.18 9.92196 18.157 9.70496ZM18.405 11.655L18.6 11.685L18.45 11.8799C18.435 11.8119 18.42 11.737 18.405 11.655ZM18.352 11.37C18.33 11.22 18.3 11.055 18.277 10.882L18.998 9.38995L19.373 9.61499L19.387 9.62195L19.755 9.83997V10.162L19.282 10.785L19.237 10.845L18.795 11.43L18.352 11.37ZM19.41 9.30695L19.395 9.29999L19.125 9.14197L19.425 8.72198L19.44 8.69995L19.755 8.25696V9.50995L19.41 9.30695ZM19.44 6.59998L19.425 6.58496L19.125 6.15698L19.402 5.99194L19.41 5.98499L19.755 5.78998V7.04199L19.44 6.59998ZM19.395 5.66199L19.373 5.677L18.983 5.90198L18.27 4.43195C18.3 4.25195 18.322 4.07999 18.352 3.92999L18.795 3.87L19.238 4.44696L19.283 4.50696L19.755 5.12195V5.45996L19.395 5.66199ZM15.375 5.677L14.932 6.02997H14.407L14.82 5.63995L15.412 5.33197C15.397 5.44497 15.382 5.557 15.375 5.677ZM12.561 8.63196V8.23499V7.987V7.297V7.065V6.77997H12.869H13.124H13.222H13.62H13.995H15.015H15.3V7.11694V7.40198V7.89697V8.18195V8.625V8.63196H14.587H14.107H13.74H13.395H13.259H12.989H12.561ZM15.405 9.92999L14.692 9.53198L14.535 9.38196H15.045L15.382 9.65198C15.39 9.74998 15.397 9.83999 15.405 9.92999ZM17.752 14.527C17.377 14.527 16.905 13.732 16.56 12.322C16.522 12.188 16.485 12.038 16.455 11.887C16.417 11.737 16.387 11.58 16.365 11.415C16.342 11.295 16.32 11.175 16.297 11.047C16.282 10.935 16.267 10.822 16.252 10.702C16.237 10.597 16.222 10.4849 16.207 10.3719C16.2 10.3499 16.2 10.327 16.2 10.305C16.185 10.17 16.17 10.0269 16.155 9.88495C16.132 9.66695 16.117 9.44196 16.102 9.20996C16.095 9.11196 16.087 9.00797 16.087 8.90997C16.065 8.63997 16.057 8.35499 16.057 8.06299C16.05 7.97199 16.05 7.88197 16.05 7.78497V7.51495C16.05 7.41695 16.05 7.327 16.057 7.237C16.057 6.945 16.065 6.65995 16.087 6.38995C16.087 6.28495 16.095 6.17997 16.095 6.08197C16.11 5.84997 16.132 5.62498 16.147 5.40698C16.162 5.27298 16.177 5.14497 16.192 5.01697C16.2 4.97997 16.2 4.94197 16.207 4.90497C16.222 4.78497 16.237 4.672 16.252 4.56C16.267 4.455 16.282 4.35 16.297 4.245C16.312 4.125 16.335 4.00495 16.358 3.88495C16.387 3.71995 16.418 3.56199 16.455 3.41199C16.477 3.26199 16.515 3.11999 16.553 2.97699C16.898 1.55199 17.377 0.75 17.752 0.75C17.985 0.75 18.255 1.05695 18.51 1.62695C18.405 1.67995 18.307 1.76997 18.217 1.89697C18.142 2.00197 18.067 2.12997 18.007 2.27997C17.94 2.42997 17.88 2.61 17.827 2.797C17.782 2.925 17.752 3.06696 17.715 3.20996C17.67 3.41196 17.632 3.62998 17.595 3.84698C17.572 3.99698 17.55 4.15495 17.527 4.31195C17.475 4.74695 17.437 5.19694 17.407 5.61694C17.4 5.72194 17.392 5.82699 17.385 5.92499C17.355 6.54699 17.34 7.08695 17.34 7.43195V7.86694C17.347 8.21994 17.355 8.76 17.385 9.375C17.392 9.472 17.4 9.57695 17.407 9.68195C17.437 10.1019 17.475 10.552 17.535 10.987C17.557 11.137 17.58 11.2949 17.595 11.4449C17.64 11.6769 17.678 11.91 17.73 12.127C17.76 12.255 17.79 12.375 17.827 12.495C17.88 12.682 17.94 12.8549 18.015 13.0049C18.075 13.1549 18.15 13.29 18.232 13.395C18.315 13.515 18.405 13.597 18.51 13.65C18.255 14.22 17.985 14.527 17.752 14.527ZM18.825 12.795C18.817 12.802 18.817 12.81 18.817 12.817C18.803 12.847 18.788 12.87 18.772 12.892C18.75 12.862 18.735 12.817 18.712 12.772L18.9 12.532C18.877 12.622 18.847 12.712 18.825 12.795Z" fill="black" fill-opacity="0.2"/>
<path d="M19.957 4.15497C19.86 3.51697 19.733 2.92497 19.582 2.39197C19.582 2.37697 19.575 2.36198 19.567 2.34698C19.155 0.936985 18.555 0 17.752 0C16.695 0 15.967 1.66495 15.6 3.87695L13.32 6.02997H12.186C11.984 6.02997 11.811 6.19497 11.811 6.40497V7.27399H7.91602V4.763C7.91602 4.556 7.74802 4.388 7.54102 4.388C7.33302 4.388 7.16602 4.556 7.16602 4.763V4.94C6.82302 4.546 6.325 4.29199 5.763 4.29199C4.734 4.29199 3.897 5.12896 3.897 6.15796C3.897 6.57796 4.04101 6.96199 4.27701 7.27399H0.375C0.168 7.27399 0 7.44199 0 7.64899C0 7.85599 0.168 8.02399 0.375 8.02399H4.32401C4.06101 8.34599 3.897 8.751 3.897 9.198C3.897 10.227 4.734 11.064 5.763 11.064C6.325 11.064 6.82302 10.809 7.16602 10.416V10.6479C7.16602 10.8559 7.33402 11.0229 7.54102 11.0229C7.74802 11.0229 7.91602 10.8559 7.91602 10.6479V8.02399H11.811V9.00696C11.811 9.21696 11.984 9.38196 12.186 9.38196H13.44L15.6 11.422C15.975 13.627 16.703 15.277 17.752 15.277C18.547 15.277 19.148 14.3469 19.56 12.9449C19.567 12.9369 19.567 12.922 19.575 12.915C19.725 12.382 19.852 11.782 19.95 11.145L20.002 11.077L20.422 10.522C20.475 10.455 20.505 10.38 20.505 10.297V4.995C20.505 4.91199 20.475 4.83696 20.422 4.76996L19.957 4.15497ZM4.647 6.15796C4.647 5.54296 5.148 5.04199 5.763 5.04199C6.379 5.04199 6.88 5.54296 6.88 6.15796C6.88 6.77296 6.379 7.27399 5.763 7.27399C5.148 7.27399 4.647 6.77296 4.647 6.15796ZM5.763 10.314C5.148 10.314 4.647 9.813 4.647 9.198C4.647 8.582 5.148 8.08099 5.763 8.08099C6.379 8.08099 6.88 8.582 6.88 9.198C6.88 9.813 6.379 10.314 5.763 10.314ZM18.772 2.37695C18.787 2.39995 18.795 2.42195 18.81 2.44495C18.847 2.54995 18.877 2.66998 18.907 2.78998L18.705 2.51996C18.727 2.45996 18.75 2.41495 18.772 2.37695ZM18.442 3.41199L18.6 3.61499L18.397 3.64496C18.412 3.56196 18.428 3.48699 18.442 3.41199ZM18.21 4.97998L18.615 5.80499L18.157 5.59497C18.172 5.37697 18.195 5.17498 18.21 4.97998ZM18.697 6.15698L18.097 6.98999C18.105 6.60799 18.12 6.23998 18.135 5.90198L18.697 6.15698ZM19.755 7.54498V7.75494L19.447 8.19L18.922 8.92499L18.09 7.74695V7.552L18.922 6.36694L19.447 7.10199C19.447 7.10199 19.447 7.10199 19.447 7.10999L19.755 7.54498ZM18.097 8.29498L18.697 9.12695L18.142 9.38995C18.12 9.05195 18.105 8.68498 18.097 8.29498ZM18.157 9.70496L18.615 9.495L18.217 10.3199C18.195 10.1249 18.18 9.92196 18.157 9.70496ZM18.405 11.655L18.6 11.685L18.45 11.8799C18.435 11.8119 18.42 11.737 18.405 11.655ZM18.352 11.37C18.33 11.22 18.3 11.055 18.277 10.882L18.998 9.38995L19.373 9.61499L19.387 9.62195L19.755 9.83997V10.162L19.282 10.785L19.237 10.845L18.795 11.43L18.352 11.37ZM19.41 9.30695L19.395 9.29999L19.125 9.14197L19.425 8.72198L19.44 8.69995L19.755 8.25696V9.50995L19.41 9.30695ZM19.44 6.59998L19.425 6.58496L19.125 6.15698L19.402 5.99194L19.41 5.98499L19.755 5.78998V7.04199L19.44 6.59998ZM19.395 5.66199L19.373 5.677L18.983 5.90198L18.27 4.43195C18.3 4.25195 18.322 4.07999 18.352 3.92999L18.795 3.87L19.238 4.44696L19.283 4.50696L19.755 5.12195V5.45996L19.395 5.66199ZM15.375 5.677L14.932 6.02997H14.407L14.82 5.63995L15.412 5.33197C15.397 5.44497 15.382 5.557 15.375 5.677ZM12.561 8.63196V8.23499V7.987V7.297V7.065V6.77997H12.869H13.124H13.222H13.62H13.995H15.015H15.3V7.11694V7.40198V7.89697V8.18195V8.625V8.63196H14.587H14.107H13.74H13.395H13.259H12.989H12.561ZM15.405 9.92999L14.692 9.53198L14.535 9.38196H15.045L15.382 9.65198C15.39 9.74998 15.397 9.83999 15.405 9.92999ZM17.752 14.527C17.377 14.527 16.905 13.732 16.56 12.322C16.522 12.188 16.485 12.038 16.455 11.887C16.417 11.737 16.387 11.58 16.365 11.415C16.342 11.295 16.32 11.175 16.297 11.047C16.282 10.935 16.267 10.822 16.252 10.702C16.237 10.597 16.222 10.4849 16.207 10.3719C16.2 10.3499 16.2 10.327 16.2 10.305C16.185 10.17 16.17 10.0269 16.155 9.88495C16.132 9.66695 16.117 9.44196 16.102 9.20996C16.095 9.11196 16.087 9.00797 16.087 8.90997C16.065 8.63997 16.057 8.35499 16.057 8.06299C16.05 7.97199 16.05 7.88197 16.05 7.78497V7.51495C16.05 7.41695 16.05 7.327 16.057 7.237C16.057 6.945 16.065 6.65995 16.087 6.38995C16.087 6.28495 16.095 6.17997 16.095 6.08197C16.11 5.84997 16.132 5.62498 16.147 5.40698C16.162 5.27298 16.177 5.14497 16.192 5.01697C16.2 4.97997 16.2 4.94197 16.207 4.90497C16.222 4.78497 16.237 4.672 16.252 4.56C16.267 4.455 16.282 4.35 16.297 4.245C16.312 4.125 16.335 4.00495 16.358 3.88495C16.387 3.71995 16.418 3.56199 16.455 3.41199C16.477 3.26199 16.515 3.11999 16.553 2.97699C16.898 1.55199 17.377 0.75 17.752 0.75C17.985 0.75 18.255 1.05695 18.51 1.62695C18.405 1.67995 18.307 1.76997 18.217 1.89697C18.142 2.00197 18.067 2.12997 18.007 2.27997C17.94 2.42997 17.88 2.61 17.827 2.797C17.782 2.925 17.752 3.06696 17.715 3.20996C17.67 3.41196 17.632 3.62998 17.595 3.84698C17.572 3.99698 17.55 4.15495 17.527 4.31195C17.475 4.74695 17.437 5.19694 17.407 5.61694C17.4 5.72194 17.392 5.82699 17.385 5.92499C17.355 6.54699 17.34 7.08695 17.34 7.43195V7.86694C17.347 8.21994 17.355 8.76 17.385 9.375C17.392 9.472 17.4 9.57695 17.407 9.68195C17.437 10.1019 17.475 10.552 17.535 10.987C17.557 11.137 17.58 11.2949 17.595 11.4449C17.64 11.6769 17.678 11.91 17.73 12.127C17.76 12.255 17.79 12.375 17.827 12.495C17.88 12.682 17.94 12.8549 18.015 13.0049C18.075 13.1549 18.15 13.29 18.232 13.395C18.315 13.515 18.405 13.597 18.51 13.65C18.255 14.22 17.985 14.527 17.752 14.527ZM18.825 12.795C18.817 12.802 18.817 12.81 18.817 12.817C18.803 12.847 18.788 12.87 18.772 12.892C18.75 12.862 18.735 12.817 18.712 12.772L18.9 12.532C18.877 12.622 18.847 12.712 18.825 12.795Z" fill="black" fill-opacity="0.2"/>
<path d="M19.957 4.15497C19.86 3.51697 19.733 2.92497 19.582 2.39197C19.582 2.37697 19.575 2.36198 19.567 2.34698C19.155 0.936985 18.555 0 17.752 0C16.695 0 15.967 1.66495 15.6 3.87695L13.32 6.02997H12.186C11.984 6.02997 11.811 6.19497 11.811 6.40497V7.27399H7.91602V4.763C7.91602 4.556 7.74802 4.388 7.54102 4.388C7.33302 4.388 7.16602 4.556 7.16602 4.763V4.94C6.82302 4.546 6.325 4.29199 5.763 4.29199C4.734 4.29199 3.897 5.12896 3.897 6.15796C3.897 6.57796 4.04101 6.96199 4.27701 7.27399H0.375C0.168 7.27399 0 7.44199 0 7.64899C0 7.85599 0.168 8.02399 0.375 8.02399H4.32401C4.06101 8.34599 3.897 8.751 3.897 9.198C3.897 10.227 4.734 11.064 5.763 11.064C6.325 11.064 6.82302 10.809 7.16602 10.416V10.6479C7.16602 10.8559 7.33402 11.0229 7.54102 11.0229C7.74802 11.0229 7.91602 10.8559 7.91602 10.6479V8.02399H11.811V9.00696C11.811 9.21696 11.984 9.38196 12.186 9.38196H13.44L15.6 11.422C15.975 13.627 16.703 15.277 17.752 15.277C18.547 15.277 19.148 14.3469 19.56 12.9449C19.567 12.9369 19.567 12.922 19.575 12.915C19.725 12.382 19.852 11.782 19.95 11.145L20.002 11.077L20.422 10.522C20.475 10.455 20.505 10.38 20.505 10.297V4.995C20.505 4.91199 20.475 4.83696 20.422 4.76996L19.957 4.15497ZM4.647 6.15796C4.647 5.54296 5.148 5.04199 5.763 5.04199C6.379 5.04199 6.88 5.54296 6.88 6.15796C6.88 6.77296 6.379 7.27399 5.763 7.27399C5.148 7.27399 4.647 6.77296 4.647 6.15796ZM5.763 10.314C5.148 10.314 4.647 9.813 4.647 9.198C4.647 8.582 5.148 8.08099 5.763 8.08099C6.379 8.08099 6.88 8.582 6.88 9.198C6.88 9.813 6.379 10.314 5.763 10.314ZM18.772 2.37695C18.787 2.39995 18.795 2.42195 18.81 2.44495C18.847 2.54995 18.877 2.66998 18.907 2.78998L18.705 2.51996C18.727 2.45996 18.75 2.41495 18.772 2.37695ZM18.442 3.41199L18.6 3.61499L18.397 3.64496C18.412 3.56196 18.428 3.48699 18.442 3.41199ZM18.21 4.97998L18.615 5.80499L18.157 5.59497C18.172 5.37697 18.195 5.17498 18.21 4.97998ZM18.697 6.15698L18.097 6.98999C18.105 6.60799 18.12 6.23998 18.135 5.90198L18.697 6.15698ZM19.755 7.54498V7.75494L19.447 8.19L18.922 8.92499L18.09 7.74695V7.552L18.922 6.36694L19.447 7.10199C19.447 7.10199 19.447 7.10199 19.447 7.10999L19.755 7.54498ZM18.097 8.29498L18.697 9.12695L18.142 9.38995C18.12 9.05195 18.105 8.68498 18.097 8.29498ZM18.157 9.70496L18.615 9.495L18.217 10.3199C18.195 10.1249 18.18 9.92196 18.157 9.70496ZM18.405 11.655L18.6 11.685L18.45 11.8799C18.435 11.8119 18.42 11.737 18.405 11.655ZM18.352 11.37C18.33 11.22 18.3 11.055 18.277 10.882L18.998 9.38995L19.373 9.61499L19.387 9.62195L19.755 9.83997V10.162L19.282 10.785L19.237 10.845L18.795 11.43L18.352 11.37ZM19.41 9.30695L19.395 9.29999L19.125 9.14197L19.425 8.72198L19.44 8.69995L19.755 8.25696V9.50995L19.41 9.30695ZM19.44 6.59998L19.425 6.58496L19.125 6.15698L19.402 5.99194L19.41 5.98499L19.755 5.78998V7.04199L19.44 6.59998ZM19.395 5.66199L19.373 5.677L18.983 5.90198L18.27 4.43195C18.3 4.25195 18.322 4.07999 18.352 3.92999L18.795 3.87L19.238 4.44696L19.283 4.50696L19.755 5.12195V5.45996L19.395 5.66199ZM15.375 5.677L14.932 6.02997H14.407L14.82 5.63995L15.412 5.33197C15.397 5.44497 15.382 5.557 15.375 5.677ZM12.561 8.63196V8.23499V7.987V7.297V7.065V6.77997H12.869H13.124H13.222H13.62H13.995H15.015H15.3V7.11694V7.40198V7.89697V8.18195V8.625V8.63196H14.587H14.107H13.74H13.395H13.259H12.989H12.561ZM15.405 9.92999L14.692 9.53198L14.535 9.38196H15.045L15.382 9.65198C15.39 9.74998 15.397 9.83999 15.405 9.92999ZM17.752 14.527C17.377 14.527 16.905 13.732 16.56 12.322C16.522 12.188 16.485 12.038 16.455 11.887C16.417 11.737 16.387 11.58 16.365 11.415C16.342 11.295 16.32 11.175 16.297 11.047C16.282 10.935 16.267 10.822 16.252 10.702C16.237 10.597 16.222 10.4849 16.207 10.3719C16.2 10.3499 16.2 10.327 16.2 10.305C16.185 10.17 16.17 10.0269 16.155 9.88495C16.132 9.66695 16.117 9.44196 16.102 9.20996C16.095 9.11196 16.087 9.00797 16.087 8.90997C16.065 8.63997 16.057 8.35499 16.057 8.06299C16.05 7.97199 16.05 7.88197 16.05 7.78497V7.51495C16.05 7.41695 16.05 7.327 16.057 7.237C16.057 6.945 16.065 6.65995 16.087 6.38995C16.087 6.28495 16.095 6.17997 16.095 6.08197C16.11 5.84997 16.132 5.62498 16.147 5.40698C16.162 5.27298 16.177 5.14497 16.192 5.01697C16.2 4.97997 16.2 4.94197 16.207 4.90497C16.222 4.78497 16.237 4.672 16.252 4.56C16.267 4.455 16.282 4.35 16.297 4.245C16.312 4.125 16.335 4.00495 16.358 3.88495C16.387 3.71995 16.418 3.56199 16.455 3.41199C16.477 3.26199 16.515 3.11999 16.553 2.97699C16.898 1.55199 17.377 0.75 17.752 0.75C17.985 0.75 18.255 1.05695 18.51 1.62695C18.405 1.67995 18.307 1.76997 18.217 1.89697C18.142 2.00197 18.067 2.12997 18.007 2.27997C17.94 2.42997 17.88 2.61 17.827 2.797C17.782 2.925 17.752 3.06696 17.715 3.20996C17.67 3.41196 17.632 3.62998 17.595 3.84698C17.572 3.99698 17.55 4.15495 17.527 4.31195C17.475 4.74695 17.437 5.19694 17.407 5.61694C17.4 5.72194 17.392 5.82699 17.385 5.92499C17.355 6.54699 17.34 7.08695 17.34 7.43195V7.86694C17.347 8.21994 17.355 8.76 17.385 9.375C17.392 9.472 17.4 9.57695 17.407 9.68195C17.437 10.1019 17.475 10.552 17.535 10.987C17.557 11.137 17.58 11.2949 17.595 11.4449C17.64 11.6769 17.678 11.91 17.73 12.127C17.76 12.255 17.79 12.375 17.827 12.495C17.88 12.682 17.94 12.8549 18.015 13.0049C18.075 13.1549 18.15 13.29 18.232 13.395C18.315 13.515 18.405 13.597 18.51 13.65C18.255 14.22 17.985 14.527 17.752 14.527ZM18.825 12.795C18.817 12.802 18.817 12.81 18.817 12.817C18.803 12.847 18.788 12.87 18.772 12.892C18.75 12.862 18.735 12.817 18.712 12.772L18.9 12.532C18.877 12.622 18.847 12.712 18.825 12.795Z" fill="black" fill-opacity="0.2"/>
</g>
<g id="Vector_2">
<path d="M31.456 0.0100098C27.252 0.0100098 23.832 3.43003 23.832 7.63403C23.832 11.839 27.252 15.26 31.456 15.26C35.661 15.26 39.082 11.839 39.082 7.63403C39.082 3.43003 35.661 0.0100098 31.456 0.0100098ZM31.456 14.51C27.666 14.51 24.582 11.426 24.582 7.63501C24.582 3.84401 27.666 0.76001 31.456 0.76001C35.247 0.76001 38.332 3.84401 38.332 7.63501C38.332 11.425 35.247 14.51 31.456 14.51Z" fill="#333335"/>
<path d="M31.456 0.0100098C27.252 0.0100098 23.832 3.43003 23.832 7.63403C23.832 11.839 27.252 15.26 31.456 15.26C35.661 15.26 39.082 11.839 39.082 7.63403C39.082 3.43003 35.661 0.0100098 31.456 0.0100098ZM31.456 14.51C27.666 14.51 24.582 11.426 24.582 7.63501C24.582 3.84401 27.666 0.76001 31.456 0.76001C35.247 0.76001 38.332 3.84401 38.332 7.63501C38.332 11.425 35.247 14.51 31.456 14.51Z" fill="black" fill-opacity="0.2"/>
<path d="M31.456 0.0100098C27.252 0.0100098 23.832 3.43003 23.832 7.63403C23.832 11.839 27.252 15.26 31.456 15.26C35.661 15.26 39.082 11.839 39.082 7.63403C39.082 3.43003 35.661 0.0100098 31.456 0.0100098ZM31.456 14.51C27.666 14.51 24.582 11.426 24.582 7.63501C24.582 3.84401 27.666 0.76001 31.456 0.76001C35.247 0.76001 38.332 3.84401 38.332 7.63501C38.332 11.425 35.247 14.51 31.456 14.51Z" fill="black" fill-opacity="0.2"/>
<path d="M31.456 0.0100098C27.252 0.0100098 23.832 3.43003 23.832 7.63403C23.832 11.839 27.252 15.26 31.456 15.26C35.661 15.26 39.082 11.839 39.082 7.63403C39.082 3.43003 35.661 0.0100098 31.456 0.0100098ZM31.456 14.51C27.666 14.51 24.582 11.426 24.582 7.63501C24.582 3.84401 27.666 0.76001 31.456 0.76001C35.247 0.76001 38.332 3.84401 38.332 7.63501C38.332 11.425 35.247 14.51 31.456 14.51Z" fill="black" fill-opacity="0.2"/>
<path d="M31.456 0.0100098C27.252 0.0100098 23.832 3.43003 23.832 7.63403C23.832 11.839 27.252 15.26 31.456 15.26C35.661 15.26 39.082 11.839 39.082 7.63403C39.082 3.43003 35.661 0.0100098 31.456 0.0100098ZM31.456 14.51C27.666 14.51 24.582 11.426 24.582 7.63501C24.582 3.84401 27.666 0.76001 31.456 0.76001C35.247 0.76001 38.332 3.84401 38.332 7.63501C38.332 11.425 35.247 14.51 31.456 14.51Z" fill="black" fill-opacity="0.2"/>
<path d="M31.456 0.0100098C27.252 0.0100098 23.832 3.43003 23.832 7.63403C23.832 11.839 27.252 15.26 31.456 15.26C35.661 15.26 39.082 11.839 39.082 7.63403C39.082 3.43003 35.661 0.0100098 31.456 0.0100098ZM31.456 14.51C27.666 14.51 24.582 11.426 24.582 7.63501C24.582 3.84401 27.666 0.76001 31.456 0.76001C35.247 0.76001 38.332 3.84401 38.332 7.63501C38.332 11.425 35.247 14.51 31.456 14.51Z" fill="black" fill-opacity="0.2"/>
<path d="M31.456 0.0100098C27.252 0.0100098 23.832 3.43003 23.832 7.63403C23.832 11.839 27.252 15.26 31.456 15.26C35.661 15.26 39.082 11.839 39.082 7.63403C39.082 3.43003 35.661 0.0100098 31.456 0.0100098ZM31.456 14.51C27.666 14.51 24.582 11.426 24.582 7.63501C24.582 3.84401 27.666 0.76001 31.456 0.76001C35.247 0.76001 38.332 3.84401 38.332 7.63501C38.332 11.425 35.247 14.51 31.456 14.51Z" fill="black" fill-opacity="0.2"/>
<path d="M31.456 0.0100098C27.252 0.0100098 23.832 3.43003 23.832 7.63403C23.832 11.839 27.252 15.26 31.456 15.26C35.661 15.26 39.082 11.839 39.082 7.63403C39.082 3.43003 35.661 0.0100098 31.456 0.0100098ZM31.456 14.51C27.666 14.51 24.582 11.426 24.582 7.63501C24.582 3.84401 27.666 0.76001 31.456 0.76001C35.247 0.76001 38.332 3.84401 38.332 7.63501C38.332 11.425 35.247 14.51 31.456 14.51Z" fill="black" fill-opacity="0.2"/>
<path d="M31.456 0.0100098C27.252 0.0100098 23.832 3.43003 23.832 7.63403C23.832 11.839 27.252 15.26 31.456 15.26C35.661 15.26 39.082 11.839 39.082 7.63403C39.082 3.43003 35.661 0.0100098 31.456 0.0100098ZM31.456 14.51C27.666 14.51 24.582 11.426 24.582 7.63501C24.582 3.84401 27.666 0.76001 31.456 0.76001C35.247 0.76001 38.332 3.84401 38.332 7.63501C38.332 11.425 35.247 14.51 31.456 14.51Z" fill="black" fill-opacity="0.2"/>
</g>
<g id="Vector_3">
<path d="M31.456 2.16992C28.448 2.16992 25.999 4.61792 25.999 7.62592C25.999 10.6349 28.448 13.0839 31.456 13.0839C34.466 13.0839 36.914 10.6349 36.914 7.62592C36.914 4.61792 34.466 2.16992 31.456 2.16992ZM36.13 7.0849L35.04 6.32892L35.855 5.9649C35.99 6.3199 36.085 6.6949 36.13 7.0849ZM35.146 4.71289C35.372 4.99789 35.563 5.30988 35.719 5.64288L34.914 5.99689L35.146 4.71289ZM34.857 4.38092L34.548 6.08893L33.197 5.87091L32.991 4.5329L34.7 4.22491C34.754 4.27491 34.806 4.32692 34.857 4.38092ZM31.456 9.69092L29.991 9.0849L29.384 7.62091L29.991 6.15692L31.456 5.5509L32.922 6.15692L33.529 7.62091L32.922 9.0849L31.456 9.69092ZM32.83 9.49689L32.659 10.5489L31.8 9.91992L32.83 9.49689ZM31.113 9.9079L30.243 10.5369L30.083 9.48492L31.113 9.9079ZM29.167 7.96393L29.59 8.99292L28.537 8.8219L29.167 7.96393ZM29.155 7.27789L28.526 6.41992L29.579 6.25989L29.155 7.27789ZM30.083 5.74493L30.254 4.69293L31.113 5.3219L30.083 5.74493ZM31.8 5.33392L32.67 4.7049L32.83 5.7569L31.8 5.33392ZM33.758 7.96393L34.387 8.8219L33.323 8.99292L33.758 7.96393ZM33.323 6.2489L34.376 6.41992L33.758 7.27789L33.323 6.2489ZM33.39 3.3399C33.741 3.4989 34.068 3.69894 34.367 3.93494L33.071 4.16693L33.39 3.3399ZM33.062 3.20789L32.75 4.02991L31.996 2.95294C32.366 2.99594 32.722 3.08389 33.062 3.20789ZM31.456 2.91992C31.492 2.91992 31.527 2.92493 31.563 2.92493L32.555 4.34991L31.456 5.16193L30.357 4.36194L31.35 2.92493C31.386 2.92493 31.421 2.91992 31.456 2.91992ZM30.899 2.95593L30.151 4.04089L29.789 3.2309C30.141 3.0969 30.513 3.00193 30.899 2.95593ZM29.476 3.36292L29.831 4.16693L28.545 3.93494C28.831 3.70994 29.143 3.51792 29.476 3.36292ZM28.213 4.22491L29.922 4.5329L29.716 5.88293L28.365 6.08893L28.056 4.38092C28.107 4.32692 28.159 4.27591 28.213 4.22491ZM27.766 4.71393L27.999 6.00793L27.171 5.68994C27.33 5.33894 27.53 5.01193 27.766 4.71393ZM27.043 6.00592L27.873 6.32892L26.782 7.09094C26.825 6.71394 26.916 6.35092 27.043 6.00592ZM26.749 7.62689C26.749 7.58889 26.754 7.55293 26.755 7.51593L28.194 6.52289L28.995 7.62091L28.194 8.71893L26.755 7.72589C26.754 7.69289 26.749 7.65989 26.749 7.62689ZM26.781 8.15588L27.873 8.9129L27.055 9.27893C26.92 8.92193 26.825 8.54688 26.781 8.15588ZM27.765 10.5379C27.538 10.2509 27.345 9.93689 27.19 9.60089L27.999 9.24493L27.765 10.5379ZM28.055 10.8709L28.365 9.15289L29.716 9.37091L29.922 10.7089L28.202 11.0189C28.152 10.9709 28.103 10.9219 28.055 10.8709ZM29.519 11.9119C29.165 11.7509 28.834 11.5489 28.533 11.3089L29.842 11.0749L29.519 11.9119ZM29.847 12.0439L30.163 11.2119L30.926 12.3019C30.551 12.2599 30.191 12.1699 29.847 12.0439ZM31.456 12.3339C31.423 12.3339 31.391 12.3289 31.358 12.3289L30.357 10.8919L31.456 10.0799L32.556 10.8799L31.554 12.3289C31.521 12.3299 31.489 12.3339 31.456 12.3339ZM32.004 12.2989L32.762 11.2009L33.129 12.0209C32.772 12.1569 32.396 12.2529 32.004 12.2989ZM33.441 11.8889L33.082 11.0749L34.38 11.3089C34.093 11.5379 33.778 11.7309 33.441 11.8889ZM34.711 11.0189L32.991 10.7089L33.197 9.35889L34.548 9.15289L34.858 10.8709C34.81 10.9219 34.761 10.9709 34.711 11.0189ZM35.148 10.5379L34.914 9.23389L35.746 9.55389C35.587 9.90689 35.386 10.2369 35.148 10.5379ZM35.874 9.23792L35.04 8.9129L36.133 8.14893C36.091 8.52793 36 8.89091 35.874 9.23792ZM34.719 8.71893L33.918 7.62091L34.719 6.52289L36.158 7.51593C36.159 7.55293 36.164 7.58889 36.164 7.62689C36.164 7.65989 36.159 7.69289 36.159 7.72589L34.719 8.71893Z" fill="#333335"/>
<path d="M31.456 2.16992C28.448 2.16992 25.999 4.61792 25.999 7.62592C25.999 10.6349 28.448 13.0839 31.456 13.0839C34.466 13.0839 36.914 10.6349 36.914 7.62592C36.914 4.61792 34.466 2.16992 31.456 2.16992ZM36.13 7.0849L35.04 6.32892L35.855 5.9649C35.99 6.3199 36.085 6.6949 36.13 7.0849ZM35.146 4.71289C35.372 4.99789 35.563 5.30988 35.719 5.64288L34.914 5.99689L35.146 4.71289ZM34.857 4.38092L34.548 6.08893L33.197 5.87091L32.991 4.5329L34.7 4.22491C34.754 4.27491 34.806 4.32692 34.857 4.38092ZM31.456 9.69092L29.991 9.0849L29.384 7.62091L29.991 6.15692L31.456 5.5509L32.922 6.15692L33.529 7.62091L32.922 9.0849L31.456 9.69092ZM32.83 9.49689L32.659 10.5489L31.8 9.91992L32.83 9.49689ZM31.113 9.9079L30.243 10.5369L30.083 9.48492L31.113 9.9079ZM29.167 7.96393L29.59 8.99292L28.537 8.8219L29.167 7.96393ZM29.155 7.27789L28.526 6.41992L29.579 6.25989L29.155 7.27789ZM30.083 5.74493L30.254 4.69293L31.113 5.3219L30.083 5.74493ZM31.8 5.33392L32.67 4.7049L32.83 5.7569L31.8 5.33392ZM33.758 7.96393L34.387 8.8219L33.323 8.99292L33.758 7.96393ZM33.323 6.2489L34.376 6.41992L33.758 7.27789L33.323 6.2489ZM33.39 3.3399C33.741 3.4989 34.068 3.69894 34.367 3.93494L33.071 4.16693L33.39 3.3399ZM33.062 3.20789L32.75 4.02991L31.996 2.95294C32.366 2.99594 32.722 3.08389 33.062 3.20789ZM31.456 2.91992C31.492 2.91992 31.527 2.92493 31.563 2.92493L32.555 4.34991L31.456 5.16193L30.357 4.36194L31.35 2.92493C31.386 2.92493 31.421 2.91992 31.456 2.91992ZM30.899 2.95593L30.151 4.04089L29.789 3.2309C30.141 3.0969 30.513 3.00193 30.899 2.95593ZM29.476 3.36292L29.831 4.16693L28.545 3.93494C28.831 3.70994 29.143 3.51792 29.476 3.36292ZM28.213 4.22491L29.922 4.5329L29.716 5.88293L28.365 6.08893L28.056 4.38092C28.107 4.32692 28.159 4.27591 28.213 4.22491ZM27.766 4.71393L27.999 6.00793L27.171 5.68994C27.33 5.33894 27.53 5.01193 27.766 4.71393ZM27.043 6.00592L27.873 6.32892L26.782 7.09094C26.825 6.71394 26.916 6.35092 27.043 6.00592ZM26.749 7.62689C26.749 7.58889 26.754 7.55293 26.755 7.51593L28.194 6.52289L28.995 7.62091L28.194 8.71893L26.755 7.72589C26.754 7.69289 26.749 7.65989 26.749 7.62689ZM26.781 8.15588L27.873 8.9129L27.055 9.27893C26.92 8.92193 26.825 8.54688 26.781 8.15588ZM27.765 10.5379C27.538 10.2509 27.345 9.93689 27.19 9.60089L27.999 9.24493L27.765 10.5379ZM28.055 10.8709L28.365 9.15289L29.716 9.37091L29.922 10.7089L28.202 11.0189C28.152 10.9709 28.103 10.9219 28.055 10.8709ZM29.519 11.9119C29.165 11.7509 28.834 11.5489 28.533 11.3089L29.842 11.0749L29.519 11.9119ZM29.847 12.0439L30.163 11.2119L30.926 12.3019C30.551 12.2599 30.191 12.1699 29.847 12.0439ZM31.456 12.3339C31.423 12.3339 31.391 12.3289 31.358 12.3289L30.357 10.8919L31.456 10.0799L32.556 10.8799L31.554 12.3289C31.521 12.3299 31.489 12.3339 31.456 12.3339ZM32.004 12.2989L32.762 11.2009L33.129 12.0209C32.772 12.1569 32.396 12.2529 32.004 12.2989ZM33.441 11.8889L33.082 11.0749L34.38 11.3089C34.093 11.5379 33.778 11.7309 33.441 11.8889ZM34.711 11.0189L32.991 10.7089L33.197 9.35889L34.548 9.15289L34.858 10.8709C34.81 10.9219 34.761 10.9709 34.711 11.0189ZM35.148 10.5379L34.914 9.23389L35.746 9.55389C35.587 9.90689 35.386 10.2369 35.148 10.5379ZM35.874 9.23792L35.04 8.9129L36.133 8.14893C36.091 8.52793 36 8.89091 35.874 9.23792ZM34.719 8.71893L33.918 7.62091L34.719 6.52289L36.158 7.51593C36.159 7.55293 36.164 7.58889 36.164 7.62689C36.164 7.65989 36.159 7.69289 36.159 7.72589L34.719 8.71893Z" fill="black" fill-opacity="0.2"/>
<path d="M31.456 2.16992C28.448 2.16992 25.999 4.61792 25.999 7.62592C25.999 10.6349 28.448 13.0839 31.456 13.0839C34.466 13.0839 36.914 10.6349 36.914 7.62592C36.914 4.61792 34.466 2.16992 31.456 2.16992ZM36.13 7.0849L35.04 6.32892L35.855 5.9649C35.99 6.3199 36.085 6.6949 36.13 7.0849ZM35.146 4.71289C35.372 4.99789 35.563 5.30988 35.719 5.64288L34.914 5.99689L35.146 4.71289ZM34.857 4.38092L34.548 6.08893L33.197 5.87091L32.991 4.5329L34.7 4.22491C34.754 4.27491 34.806 4.32692 34.857 4.38092ZM31.456 9.69092L29.991 9.0849L29.384 7.62091L29.991 6.15692L31.456 5.5509L32.922 6.15692L33.529 7.62091L32.922 9.0849L31.456 9.69092ZM32.83 9.49689L32.659 10.5489L31.8 9.91992L32.83 9.49689ZM31.113 9.9079L30.243 10.5369L30.083 9.48492L31.113 9.9079ZM29.167 7.96393L29.59 8.99292L28.537 8.8219L29.167 7.96393ZM29.155 7.27789L28.526 6.41992L29.579 6.25989L29.155 7.27789ZM30.083 5.74493L30.254 4.69293L31.113 5.3219L30.083 5.74493ZM31.8 5.33392L32.67 4.7049L32.83 5.7569L31.8 5.33392ZM33.758 7.96393L34.387 8.8219L33.323 8.99292L33.758 7.96393ZM33.323 6.2489L34.376 6.41992L33.758 7.27789L33.323 6.2489ZM33.39 3.3399C33.741 3.4989 34.068 3.69894 34.367 3.93494L33.071 4.16693L33.39 3.3399ZM33.062 3.20789L32.75 4.02991L31.996 2.95294C32.366 2.99594 32.722 3.08389 33.062 3.20789ZM31.456 2.91992C31.492 2.91992 31.527 2.92493 31.563 2.92493L32.555 4.34991L31.456 5.16193L30.357 4.36194L31.35 2.92493C31.386 2.92493 31.421 2.91992 31.456 2.91992ZM30.899 2.95593L30.151 4.04089L29.789 3.2309C30.141 3.0969 30.513 3.00193 30.899 2.95593ZM29.476 3.36292L29.831 4.16693L28.545 3.93494C28.831 3.70994 29.143 3.51792 29.476 3.36292ZM28.213 4.22491L29.922 4.5329L29.716 5.88293L28.365 6.08893L28.056 4.38092C28.107 4.32692 28.159 4.27591 28.213 4.22491ZM27.766 4.71393L27.999 6.00793L27.171 5.68994C27.33 5.33894 27.53 5.01193 27.766 4.71393ZM27.043 6.00592L27.873 6.32892L26.782 7.09094C26.825 6.71394 26.916 6.35092 27.043 6.00592ZM26.749 7.62689C26.749 7.58889 26.754 7.55293 26.755 7.51593L28.194 6.52289L28.995 7.62091L28.194 8.71893L26.755 7.72589C26.754 7.69289 26.749 7.65989 26.749 7.62689ZM26.781 8.15588L27.873 8.9129L27.055 9.27893C26.92 8.92193 26.825 8.54688 26.781 8.15588ZM27.765 10.5379C27.538 10.2509 27.345 9.93689 27.19 9.60089L27.999 9.24493L27.765 10.5379ZM28.055 10.8709L28.365 9.15289L29.716 9.37091L29.922 10.7089L28.202 11.0189C28.152 10.9709 28.103 10.9219 28.055 10.8709ZM29.519 11.9119C29.165 11.7509 28.834 11.5489 28.533 11.3089L29.842 11.0749L29.519 11.9119ZM29.847 12.0439L30.163 11.2119L30.926 12.3019C30.551 12.2599 30.191 12.1699 29.847 12.0439ZM31.456 12.3339C31.423 12.3339 31.391 12.3289 31.358 12.3289L30.357 10.8919L31.456 10.0799L32.556 10.8799L31.554 12.3289C31.521 12.3299 31.489 12.3339 31.456 12.3339ZM32.004 12.2989L32.762 11.2009L33.129 12.0209C32.772 12.1569 32.396 12.2529 32.004 12.2989ZM33.441 11.8889L33.082 11.0749L34.38 11.3089C34.093 11.5379 33.778 11.7309 33.441 11.8889ZM34.711 11.0189L32.991 10.7089L33.197 9.35889L34.548 9.15289L34.858 10.8709C34.81 10.9219 34.761 10.9709 34.711 11.0189ZM35.148 10.5379L34.914 9.23389L35.746 9.55389C35.587 9.90689 35.386 10.2369 35.148 10.5379ZM35.874 9.23792L35.04 8.9129L36.133 8.14893C36.091 8.52793 36 8.89091 35.874 9.23792ZM34.719 8.71893L33.918 7.62091L34.719 6.52289L36.158 7.51593C36.159 7.55293 36.164 7.58889 36.164 7.62689C36.164 7.65989 36.159 7.69289 36.159 7.72589L34.719 8.71893Z" fill="black" fill-opacity="0.2"/>
<path d="M31.456 2.16992C28.448 2.16992 25.999 4.61792 25.999 7.62592C25.999 10.6349 28.448 13.0839 31.456 13.0839C34.466 13.0839 36.914 10.6349 36.914 7.62592C36.914 4.61792 34.466 2.16992 31.456 2.16992ZM36.13 7.0849L35.04 6.32892L35.855 5.9649C35.99 6.3199 36.085 6.6949 36.13 7.0849ZM35.146 4.71289C35.372 4.99789 35.563 5.30988 35.719 5.64288L34.914 5.99689L35.146 4.71289ZM34.857 4.38092L34.548 6.08893L33.197 5.87091L32.991 4.5329L34.7 4.22491C34.754 4.27491 34.806 4.32692 34.857 4.38092ZM31.456 9.69092L29.991 9.0849L29.384 7.62091L29.991 6.15692L31.456 5.5509L32.922 6.15692L33.529 7.62091L32.922 9.0849L31.456 9.69092ZM32.83 9.49689L32.659 10.5489L31.8 9.91992L32.83 9.49689ZM31.113 9.9079L30.243 10.5369L30.083 9.48492L31.113 9.9079ZM29.167 7.96393L29.59 8.99292L28.537 8.8219L29.167 7.96393ZM29.155 7.27789L28.526 6.41992L29.579 6.25989L29.155 7.27789ZM30.083 5.74493L30.254 4.69293L31.113 5.3219L30.083 5.74493ZM31.8 5.33392L32.67 4.7049L32.83 5.7569L31.8 5.33392ZM33.758 7.96393L34.387 8.8219L33.323 8.99292L33.758 7.96393ZM33.323 6.2489L34.376 6.41992L33.758 7.27789L33.323 6.2489ZM33.39 3.3399C33.741 3.4989 34.068 3.69894 34.367 3.93494L33.071 4.16693L33.39 3.3399ZM33.062 3.20789L32.75 4.02991L31.996 2.95294C32.366 2.99594 32.722 3.08389 33.062 3.20789ZM31.456 2.91992C31.492 2.91992 31.527 2.92493 31.563 2.92493L32.555 4.34991L31.456 5.16193L30.357 4.36194L31.35 2.92493C31.386 2.92493 31.421 2.91992 31.456 2.91992ZM30.899 2.95593L30.151 4.04089L29.789 3.2309C30.141 3.0969 30.513 3.00193 30.899 2.95593ZM29.476 3.36292L29.831 4.16693L28.545 3.93494C28.831 3.70994 29.143 3.51792 29.476 3.36292ZM28.213 4.22491L29.922 4.5329L29.716 5.88293L28.365 6.08893L28.056 4.38092C28.107 4.32692 28.159 4.27591 28.213 4.22491ZM27.766 4.71393L27.999 6.00793L27.171 5.68994C27.33 5.33894 27.53 5.01193 27.766 4.71393ZM27.043 6.00592L27.873 6.32892L26.782 7.09094C26.825 6.71394 26.916 6.35092 27.043 6.00592ZM26.749 7.62689C26.749 7.58889 26.754 7.55293 26.755 7.51593L28.194 6.52289L28.995 7.62091L28.194 8.71893L26.755 7.72589C26.754 7.69289 26.749 7.65989 26.749 7.62689ZM26.781 8.15588L27.873 8.9129L27.055 9.27893C26.92 8.92193 26.825 8.54688 26.781 8.15588ZM27.765 10.5379C27.538 10.2509 27.345 9.93689 27.19 9.60089L27.999 9.24493L27.765 10.5379ZM28.055 10.8709L28.365 9.15289L29.716 9.37091L29.922 10.7089L28.202 11.0189C28.152 10.9709 28.103 10.9219 28.055 10.8709ZM29.519 11.9119C29.165 11.7509 28.834 11.5489 28.533 11.3089L29.842 11.0749L29.519 11.9119ZM29.847 12.0439L30.163 11.2119L30.926 12.3019C30.551 12.2599 30.191 12.1699 29.847 12.0439ZM31.456 12.3339C31.423 12.3339 31.391 12.3289 31.358 12.3289L30.357 10.8919L31.456 10.0799L32.556 10.8799L31.554 12.3289C31.521 12.3299 31.489 12.3339 31.456 12.3339ZM32.004 12.2989L32.762 11.2009L33.129 12.0209C32.772 12.1569 32.396 12.2529 32.004 12.2989ZM33.441 11.8889L33.082 11.0749L34.38 11.3089C34.093 11.5379 33.778 11.7309 33.441 11.8889ZM34.711 11.0189L32.991 10.7089L33.197 9.35889L34.548 9.15289L34.858 10.8709C34.81 10.9219 34.761 10.9709 34.711 11.0189ZM35.148 10.5379L34.914 9.23389L35.746 9.55389C35.587 9.90689 35.386 10.2369 35.148 10.5379ZM35.874 9.23792L35.04 8.9129L36.133 8.14893C36.091 8.52793 36 8.89091 35.874 9.23792ZM34.719 8.71893L33.918 7.62091L34.719 6.52289L36.158 7.51593C36.159 7.55293 36.164 7.58889 36.164 7.62689C36.164 7.65989 36.159 7.69289 36.159 7.72589L34.719 8.71893Z" fill="black" fill-opacity="0.2"/>
<path d="M31.456 2.16992C28.448 2.16992 25.999 4.61792 25.999 7.62592C25.999 10.6349 28.448 13.0839 31.456 13.0839C34.466 13.0839 36.914 10.6349 36.914 7.62592C36.914 4.61792 34.466 2.16992 31.456 2.16992ZM36.13 7.0849L35.04 6.32892L35.855 5.9649C35.99 6.3199 36.085 6.6949 36.13 7.0849ZM35.146 4.71289C35.372 4.99789 35.563 5.30988 35.719 5.64288L34.914 5.99689L35.146 4.71289ZM34.857 4.38092L34.548 6.08893L33.197 5.87091L32.991 4.5329L34.7 4.22491C34.754 4.27491 34.806 4.32692 34.857 4.38092ZM31.456 9.69092L29.991 9.0849L29.384 7.62091L29.991 6.15692L31.456 5.5509L32.922 6.15692L33.529 7.62091L32.922 9.0849L31.456 9.69092ZM32.83 9.49689L32.659 10.5489L31.8 9.91992L32.83 9.49689ZM31.113 9.9079L30.243 10.5369L30.083 9.48492L31.113 9.9079ZM29.167 7.96393L29.59 8.99292L28.537 8.8219L29.167 7.96393ZM29.155 7.27789L28.526 6.41992L29.579 6.25989L29.155 7.27789ZM30.083 5.74493L30.254 4.69293L31.113 5.3219L30.083 5.74493ZM31.8 5.33392L32.67 4.7049L32.83 5.7569L31.8 5.33392ZM33.758 7.96393L34.387 8.8219L33.323 8.99292L33.758 7.96393ZM33.323 6.2489L34.376 6.41992L33.758 7.27789L33.323 6.2489ZM33.39 3.3399C33.741 3.4989 34.068 3.69894 34.367 3.93494L33.071 4.16693L33.39 3.3399ZM33.062 3.20789L32.75 4.02991L31.996 2.95294C32.366 2.99594 32.722 3.08389 33.062 3.20789ZM31.456 2.91992C31.492 2.91992 31.527 2.92493 31.563 2.92493L32.555 4.34991L31.456 5.16193L30.357 4.36194L31.35 2.92493C31.386 2.92493 31.421 2.91992 31.456 2.91992ZM30.899 2.95593L30.151 4.04089L29.789 3.2309C30.141 3.0969 30.513 3.00193 30.899 2.95593ZM29.476 3.36292L29.831 4.16693L28.545 3.93494C28.831 3.70994 29.143 3.51792 29.476 3.36292ZM28.213 4.22491L29.922 4.5329L29.716 5.88293L28.365 6.08893L28.056 4.38092C28.107 4.32692 28.159 4.27591 28.213 4.22491ZM27.766 4.71393L27.999 6.00793L27.171 5.68994C27.33 5.33894 27.53 5.01193 27.766 4.71393ZM27.043 6.00592L27.873 6.32892L26.782 7.09094C26.825 6.71394 26.916 6.35092 27.043 6.00592ZM26.749 7.62689C26.749 7.58889 26.754 7.55293 26.755 7.51593L28.194 6.52289L28.995 7.62091L28.194 8.71893L26.755 7.72589C26.754 7.69289 26.749 7.65989 26.749 7.62689ZM26.781 8.15588L27.873 8.9129L27.055 9.27893C26.92 8.92193 26.825 8.54688 26.781 8.15588ZM27.765 10.5379C27.538 10.2509 27.345 9.93689 27.19 9.60089L27.999 9.24493L27.765 10.5379ZM28.055 10.8709L28.365 9.15289L29.716 9.37091L29.922 10.7089L28.202 11.0189C28.152 10.9709 28.103 10.9219 28.055 10.8709ZM29.519 11.9119C29.165 11.7509 28.834 11.5489 28.533 11.3089L29.842 11.0749L29.519 11.9119ZM29.847 12.0439L30.163 11.2119L30.926 12.3019C30.551 12.2599 30.191 12.1699 29.847 12.0439ZM31.456 12.3339C31.423 12.3339 31.391 12.3289 31.358 12.3289L30.357 10.8919L31.456 10.0799L32.556 10.8799L31.554 12.3289C31.521 12.3299 31.489 12.3339 31.456 12.3339ZM32.004 12.2989L32.762 11.2009L33.129 12.0209C32.772 12.1569 32.396 12.2529 32.004 12.2989ZM33.441 11.8889L33.082 11.0749L34.38 11.3089C34.093 11.5379 33.778 11.7309 33.441 11.8889ZM34.711 11.0189L32.991 10.7089L33.197 9.35889L34.548 9.15289L34.858 10.8709C34.81 10.9219 34.761 10.9709 34.711 11.0189ZM35.148 10.5379L34.914 9.23389L35.746 9.55389C35.587 9.90689 35.386 10.2369 35.148 10.5379ZM35.874 9.23792L35.04 8.9129L36.133 8.14893C36.091 8.52793 36 8.89091 35.874 9.23792ZM34.719 8.71893L33.918 7.62091L34.719 6.52289L36.158 7.51593C36.159 7.55293 36.164 7.58889 36.164 7.62689C36.164 7.65989 36.159 7.69289 36.159 7.72589L34.719 8.71893Z" fill="black" fill-opacity="0.2"/>
<path d="M31.456 2.16992C28.448 2.16992 25.999 4.61792 25.999 7.62592C25.999 10.6349 28.448 13.0839 31.456 13.0839C34.466 13.0839 36.914 10.6349 36.914 7.62592C36.914 4.61792 34.466 2.16992 31.456 2.16992ZM36.13 7.0849L35.04 6.32892L35.855 5.9649C35.99 6.3199 36.085 6.6949 36.13 7.0849ZM35.146 4.71289C35.372 4.99789 35.563 5.30988 35.719 5.64288L34.914 5.99689L35.146 4.71289ZM34.857 4.38092L34.548 6.08893L33.197 5.87091L32.991 4.5329L34.7 4.22491C34.754 4.27491 34.806 4.32692 34.857 4.38092ZM31.456 9.69092L29.991 9.0849L29.384 7.62091L29.991 6.15692L31.456 5.5509L32.922 6.15692L33.529 7.62091L32.922 9.0849L31.456 9.69092ZM32.83 9.49689L32.659 10.5489L31.8 9.91992L32.83 9.49689ZM31.113 9.9079L30.243 10.5369L30.083 9.48492L31.113 9.9079ZM29.167 7.96393L29.59 8.99292L28.537 8.8219L29.167 7.96393ZM29.155 7.27789L28.526 6.41992L29.579 6.25989L29.155 7.27789ZM30.083 5.74493L30.254 4.69293L31.113 5.3219L30.083 5.74493ZM31.8 5.33392L32.67 4.7049L32.83 5.7569L31.8 5.33392ZM33.758 7.96393L34.387 8.8219L33.323 8.99292L33.758 7.96393ZM33.323 6.2489L34.376 6.41992L33.758 7.27789L33.323 6.2489ZM33.39 3.3399C33.741 3.4989 34.068 3.69894 34.367 3.93494L33.071 4.16693L33.39 3.3399ZM33.062 3.20789L32.75 4.02991L31.996 2.95294C32.366 2.99594 32.722 3.08389 33.062 3.20789ZM31.456 2.91992C31.492 2.91992 31.527 2.92493 31.563 2.92493L32.555 4.34991L31.456 5.16193L30.357 4.36194L31.35 2.92493C31.386 2.92493 31.421 2.91992 31.456 2.91992ZM30.899 2.95593L30.151 4.04089L29.789 3.2309C30.141 3.0969 30.513 3.00193 30.899 2.95593ZM29.476 3.36292L29.831 4.16693L28.545 3.93494C28.831 3.70994 29.143 3.51792 29.476 3.36292ZM28.213 4.22491L29.922 4.5329L29.716 5.88293L28.365 6.08893L28.056 4.38092C28.107 4.32692 28.159 4.27591 28.213 4.22491ZM27.766 4.71393L27.999 6.00793L27.171 5.68994C27.33 5.33894 27.53 5.01193 27.766 4.71393ZM27.043 6.00592L27.873 6.32892L26.782 7.09094C26.825 6.71394 26.916 6.35092 27.043 6.00592ZM26.749 7.62689C26.749 7.58889 26.754 7.55293 26.755 7.51593L28.194 6.52289L28.995 7.62091L28.194 8.71893L26.755 7.72589C26.754 7.69289 26.749 7.65989 26.749 7.62689ZM26.781 8.15588L27.873 8.9129L27.055 9.27893C26.92 8.92193 26.825 8.54688 26.781 8.15588ZM27.765 10.5379C27.538 10.2509 27.345 9.93689 27.19 9.60089L27.999 9.24493L27.765 10.5379ZM28.055 10.8709L28.365 9.15289L29.716 9.37091L29.922 10.7089L28.202 11.0189C28.152 10.9709 28.103 10.9219 28.055 10.8709ZM29.519 11.9119C29.165 11.7509 28.834 11.5489 28.533 11.3089L29.842 11.0749L29.519 11.9119ZM29.847 12.0439L30.163 11.2119L30.926 12.3019C30.551 12.2599 30.191 12.1699 29.847 12.0439ZM31.456 12.3339C31.423 12.3339 31.391 12.3289 31.358 12.3289L30.357 10.8919L31.456 10.0799L32.556 10.8799L31.554 12.3289C31.521 12.3299 31.489 12.3339 31.456 12.3339ZM32.004 12.2989L32.762 11.2009L33.129 12.0209C32.772 12.1569 32.396 12.2529 32.004 12.2989ZM33.441 11.8889L33.082 11.0749L34.38 11.3089C34.093 11.5379 33.778 11.7309 33.441 11.8889ZM34.711 11.0189L32.991 10.7089L33.197 9.35889L34.548 9.15289L34.858 10.8709C34.81 10.9219 34.761 10.9709 34.711 11.0189ZM35.148 10.5379L34.914 9.23389L35.746 9.55389C35.587 9.90689 35.386 10.2369 35.148 10.5379ZM35.874 9.23792L35.04 8.9129L36.133 8.14893C36.091 8.52793 36 8.89091 35.874 9.23792ZM34.719 8.71893L33.918 7.62091L34.719 6.52289L36.158 7.51593C36.159 7.55293 36.164 7.58889 36.164 7.62689C36.164 7.65989 36.159 7.69289 36.159 7.72589L34.719 8.71893Z" fill="black" fill-opacity="0.2"/>
<path d="M31.456 2.16992C28.448 2.16992 25.999 4.61792 25.999 7.62592C25.999 10.6349 28.448 13.0839 31.456 13.0839C34.466 13.0839 36.914 10.6349 36.914 7.62592C36.914 4.61792 34.466 2.16992 31.456 2.16992ZM36.13 7.0849L35.04 6.32892L35.855 5.9649C35.99 6.3199 36.085 6.6949 36.13 7.0849ZM35.146 4.71289C35.372 4.99789 35.563 5.30988 35.719 5.64288L34.914 5.99689L35.146 4.71289ZM34.857 4.38092L34.548 6.08893L33.197 5.87091L32.991 4.5329L34.7 4.22491C34.754 4.27491 34.806 4.32692 34.857 4.38092ZM31.456 9.69092L29.991 9.0849L29.384 7.62091L29.991 6.15692L31.456 5.5509L32.922 6.15692L33.529 7.62091L32.922 9.0849L31.456 9.69092ZM32.83 9.49689L32.659 10.5489L31.8 9.91992L32.83 9.49689ZM31.113 9.9079L30.243 10.5369L30.083 9.48492L31.113 9.9079ZM29.167 7.96393L29.59 8.99292L28.537 8.8219L29.167 7.96393ZM29.155 7.27789L28.526 6.41992L29.579 6.25989L29.155 7.27789ZM30.083 5.74493L30.254 4.69293L31.113 5.3219L30.083 5.74493ZM31.8 5.33392L32.67 4.7049L32.83 5.7569L31.8 5.33392ZM33.758 7.96393L34.387 8.8219L33.323 8.99292L33.758 7.96393ZM33.323 6.2489L34.376 6.41992L33.758 7.27789L33.323 6.2489ZM33.39 3.3399C33.741 3.4989 34.068 3.69894 34.367 3.93494L33.071 4.16693L33.39 3.3399ZM33.062 3.20789L32.75 4.02991L31.996 2.95294C32.366 2.99594 32.722 3.08389 33.062 3.20789ZM31.456 2.91992C31.492 2.91992 31.527 2.92493 31.563 2.92493L32.555 4.34991L31.456 5.16193L30.357 4.36194L31.35 2.92493C31.386 2.92493 31.421 2.91992 31.456 2.91992ZM30.899 2.95593L30.151 4.04089L29.789 3.2309C30.141 3.0969 30.513 3.00193 30.899 2.95593ZM29.476 3.36292L29.831 4.16693L28.545 3.93494C28.831 3.70994 29.143 3.51792 29.476 3.36292ZM28.213 4.22491L29.922 4.5329L29.716 5.88293L28.365 6.08893L28.056 4.38092C28.107 4.32692 28.159 4.27591 28.213 4.22491ZM27.766 4.71393L27.999 6.00793L27.171 5.68994C27.33 5.33894 27.53 5.01193 27.766 4.71393ZM27.043 6.00592L27.873 6.32892L26.782 7.09094C26.825 6.71394 26.916 6.35092 27.043 6.00592ZM26.749 7.62689C26.749 7.58889 26.754 7.55293 26.755 7.51593L28.194 6.52289L28.995 7.62091L28.194 8.71893L26.755 7.72589C26.754 7.69289 26.749 7.65989 26.749 7.62689ZM26.781 8.15588L27.873 8.9129L27.055 9.27893C26.92 8.92193 26.825 8.54688 26.781 8.15588ZM27.765 10.5379C27.538 10.2509 27.345 9.93689 27.19 9.60089L27.999 9.24493L27.765 10.5379ZM28.055 10.8709L28.365 9.15289L29.716 9.37091L29.922 10.7089L28.202 11.0189C28.152 10.9709 28.103 10.9219 28.055 10.8709ZM29.519 11.9119C29.165 11.7509 28.834 11.5489 28.533 11.3089L29.842 11.0749L29.519 11.9119ZM29.847 12.0439L30.163 11.2119L30.926 12.3019C30.551 12.2599 30.191 12.1699 29.847 12.0439ZM31.456 12.3339C31.423 12.3339 31.391 12.3289 31.358 12.3289L30.357 10.8919L31.456 10.0799L32.556 10.8799L31.554 12.3289C31.521 12.3299 31.489 12.3339 31.456 12.3339ZM32.004 12.2989L32.762 11.2009L33.129 12.0209C32.772 12.1569 32.396 12.2529 32.004 12.2989ZM33.441 11.8889L33.082 11.0749L34.38 11.3089C34.093 11.5379 33.778 11.7309 33.441 11.8889ZM34.711 11.0189L32.991 10.7089L33.197 9.35889L34.548 9.15289L34.858 10.8709C34.81 10.9219 34.761 10.9709 34.711 11.0189ZM35.148 10.5379L34.914 9.23389L35.746 9.55389C35.587 9.90689 35.386 10.2369 35.148 10.5379ZM35.874 9.23792L35.04 8.9129L36.133 8.14893C36.091 8.52793 36 8.89091 35.874 9.23792ZM34.719 8.71893L33.918 7.62091L34.719 6.52289L36.158 7.51593C36.159 7.55293 36.164 7.58889 36.164 7.62689C36.164 7.65989 36.159 7.69289 36.159 7.72589L34.719 8.71893Z" fill="black" fill-opacity="0.2"/>
<path d="M31.456 2.16992C28.448 2.16992 25.999 4.61792 25.999 7.62592C25.999 10.6349 28.448 13.0839 31.456 13.0839C34.466 13.0839 36.914 10.6349 36.914 7.62592C36.914 4.61792 34.466 2.16992 31.456 2.16992ZM36.13 7.0849L35.04 6.32892L35.855 5.9649C35.99 6.3199 36.085 6.6949 36.13 7.0849ZM35.146 4.71289C35.372 4.99789 35.563 5.30988 35.719 5.64288L34.914 5.99689L35.146 4.71289ZM34.857 4.38092L34.548 6.08893L33.197 5.87091L32.991 4.5329L34.7 4.22491C34.754 4.27491 34.806 4.32692 34.857 4.38092ZM31.456 9.69092L29.991 9.0849L29.384 7.62091L29.991 6.15692L31.456 5.5509L32.922 6.15692L33.529 7.62091L32.922 9.0849L31.456 9.69092ZM32.83 9.49689L32.659 10.5489L31.8 9.91992L32.83 9.49689ZM31.113 9.9079L30.243 10.5369L30.083 9.48492L31.113 9.9079ZM29.167 7.96393L29.59 8.99292L28.537 8.8219L29.167 7.96393ZM29.155 7.27789L28.526 6.41992L29.579 6.25989L29.155 7.27789ZM30.083 5.74493L30.254 4.69293L31.113 5.3219L30.083 5.74493ZM31.8 5.33392L32.67 4.7049L32.83 5.7569L31.8 5.33392ZM33.758 7.96393L34.387 8.8219L33.323 8.99292L33.758 7.96393ZM33.323 6.2489L34.376 6.41992L33.758 7.27789L33.323 6.2489ZM33.39 3.3399C33.741 3.4989 34.068 3.69894 34.367 3.93494L33.071 4.16693L33.39 3.3399ZM33.062 3.20789L32.75 4.02991L31.996 2.95294C32.366 2.99594 32.722 3.08389 33.062 3.20789ZM31.456 2.91992C31.492 2.91992 31.527 2.92493 31.563 2.92493L32.555 4.34991L31.456 5.16193L30.357 4.36194L31.35 2.92493C31.386 2.92493 31.421 2.91992 31.456 2.91992ZM30.899 2.95593L30.151 4.04089L29.789 3.2309C30.141 3.0969 30.513 3.00193 30.899 2.95593ZM29.476 3.36292L29.831 4.16693L28.545 3.93494C28.831 3.70994 29.143 3.51792 29.476 3.36292ZM28.213 4.22491L29.922 4.5329L29.716 5.88293L28.365 6.08893L28.056 4.38092C28.107 4.32692 28.159 4.27591 28.213 4.22491ZM27.766 4.71393L27.999 6.00793L27.171 5.68994C27.33 5.33894 27.53 5.01193 27.766 4.71393ZM27.043 6.00592L27.873 6.32892L26.782 7.09094C26.825 6.71394 26.916 6.35092 27.043 6.00592ZM26.749 7.62689C26.749 7.58889 26.754 7.55293 26.755 7.51593L28.194 6.52289L28.995 7.62091L28.194 8.71893L26.755 7.72589C26.754 7.69289 26.749 7.65989 26.749 7.62689ZM26.781 8.15588L27.873 8.9129L27.055 9.27893C26.92 8.92193 26.825 8.54688 26.781 8.15588ZM27.765 10.5379C27.538 10.2509 27.345 9.93689 27.19 9.60089L27.999 9.24493L27.765 10.5379ZM28.055 10.8709L28.365 9.15289L29.716 9.37091L29.922 10.7089L28.202 11.0189C28.152 10.9709 28.103 10.9219 28.055 10.8709ZM29.519 11.9119C29.165 11.7509 28.834 11.5489 28.533 11.3089L29.842 11.0749L29.519 11.9119ZM29.847 12.0439L30.163 11.2119L30.926 12.3019C30.551 12.2599 30.191 12.1699 29.847 12.0439ZM31.456 12.3339C31.423 12.3339 31.391 12.3289 31.358 12.3289L30.357 10.8919L31.456 10.0799L32.556 10.8799L31.554 12.3289C31.521 12.3299 31.489 12.3339 31.456 12.3339ZM32.004 12.2989L32.762 11.2009L33.129 12.0209C32.772 12.1569 32.396 12.2529 32.004 12.2989ZM33.441 11.8889L33.082 11.0749L34.38 11.3089C34.093 11.5379 33.778 11.7309 33.441 11.8889ZM34.711 11.0189L32.991 10.7089L33.197 9.35889L34.548 9.15289L34.858 10.8709C34.81 10.9219 34.761 10.9709 34.711 11.0189ZM35.148 10.5379L34.914 9.23389L35.746 9.55389C35.587 9.90689 35.386 10.2369 35.148 10.5379ZM35.874 9.23792L35.04 8.9129L36.133 8.14893C36.091 8.52793 36 8.89091 35.874 9.23792ZM34.719 8.71893L33.918 7.62091L34.719 6.52289L36.158 7.51593C36.159 7.55293 36.164 7.58889 36.164 7.62689C36.164 7.65989 36.159 7.69289 36.159 7.72589L34.719 8.71893Z" fill="black" fill-opacity="0.2"/>
<path d="M31.456 2.16992C28.448 2.16992 25.999 4.61792 25.999 7.62592C25.999 10.6349 28.448 13.0839 31.456 13.0839C34.466 13.0839 36.914 10.6349 36.914 7.62592C36.914 4.61792 34.466 2.16992 31.456 2.16992ZM36.13 7.0849L35.04 6.32892L35.855 5.9649C35.99 6.3199 36.085 6.6949 36.13 7.0849ZM35.146 4.71289C35.372 4.99789 35.563 5.30988 35.719 5.64288L34.914 5.99689L35.146 4.71289ZM34.857 4.38092L34.548 6.08893L33.197 5.87091L32.991 4.5329L34.7 4.22491C34.754 4.27491 34.806 4.32692 34.857 4.38092ZM31.456 9.69092L29.991 9.0849L29.384 7.62091L29.991 6.15692L31.456 5.5509L32.922 6.15692L33.529 7.62091L32.922 9.0849L31.456 9.69092ZM32.83 9.49689L32.659 10.5489L31.8 9.91992L32.83 9.49689ZM31.113 9.9079L30.243 10.5369L30.083 9.48492L31.113 9.9079ZM29.167 7.96393L29.59 8.99292L28.537 8.8219L29.167 7.96393ZM29.155 7.27789L28.526 6.41992L29.579 6.25989L29.155 7.27789ZM30.083 5.74493L30.254 4.69293L31.113 5.3219L30.083 5.74493ZM31.8 5.33392L32.67 4.7049L32.83 5.7569L31.8 5.33392ZM33.758 7.96393L34.387 8.8219L33.323 8.99292L33.758 7.96393ZM33.323 6.2489L34.376 6.41992L33.758 7.27789L33.323 6.2489ZM33.39 3.3399C33.741 3.4989 34.068 3.69894 34.367 3.93494L33.071 4.16693L33.39 3.3399ZM33.062 3.20789L32.75 4.02991L31.996 2.95294C32.366 2.99594 32.722 3.08389 33.062 3.20789ZM31.456 2.91992C31.492 2.91992 31.527 2.92493 31.563 2.92493L32.555 4.34991L31.456 5.16193L30.357 4.36194L31.35 2.92493C31.386 2.92493 31.421 2.91992 31.456 2.91992ZM30.899 2.95593L30.151 4.04089L29.789 3.2309C30.141 3.0969 30.513 3.00193 30.899 2.95593ZM29.476 3.36292L29.831 4.16693L28.545 3.93494C28.831 3.70994 29.143 3.51792 29.476 3.36292ZM28.213 4.22491L29.922 4.5329L29.716 5.88293L28.365 6.08893L28.056 4.38092C28.107 4.32692 28.159 4.27591 28.213 4.22491ZM27.766 4.71393L27.999 6.00793L27.171 5.68994C27.33 5.33894 27.53 5.01193 27.766 4.71393ZM27.043 6.00592L27.873 6.32892L26.782 7.09094C26.825 6.71394 26.916 6.35092 27.043 6.00592ZM26.749 7.62689C26.749 7.58889 26.754 7.55293 26.755 7.51593L28.194 6.52289L28.995 7.62091L28.194 8.71893L26.755 7.72589C26.754 7.69289 26.749 7.65989 26.749 7.62689ZM26.781 8.15588L27.873 8.9129L27.055 9.27893C26.92 8.92193 26.825 8.54688 26.781 8.15588ZM27.765 10.5379C27.538 10.2509 27.345 9.93689 27.19 9.60089L27.999 9.24493L27.765 10.5379ZM28.055 10.8709L28.365 9.15289L29.716 9.37091L29.922 10.7089L28.202 11.0189C28.152 10.9709 28.103 10.9219 28.055 10.8709ZM29.519 11.9119C29.165 11.7509 28.834 11.5489 28.533 11.3089L29.842 11.0749L29.519 11.9119ZM29.847 12.0439L30.163 11.2119L30.926 12.3019C30.551 12.2599 30.191 12.1699 29.847 12.0439ZM31.456 12.3339C31.423 12.3339 31.391 12.3289 31.358 12.3289L30.357 10.8919L31.456 10.0799L32.556 10.8799L31.554 12.3289C31.521 12.3299 31.489 12.3339 31.456 12.3339ZM32.004 12.2989L32.762 11.2009L33.129 12.0209C32.772 12.1569 32.396 12.2529 32.004 12.2989ZM33.441 11.8889L33.082 11.0749L34.38 11.3089C34.093 11.5379 33.778 11.7309 33.441 11.8889ZM34.711 11.0189L32.991 10.7089L33.197 9.35889L34.548 9.15289L34.858 10.8709C34.81 10.9219 34.761 10.9709 34.711 11.0189ZM35.148 10.5379L34.914 9.23389L35.746 9.55389C35.587 9.90689 35.386 10.2369 35.148 10.5379ZM35.874 9.23792L35.04 8.9129L36.133 8.14893C36.091 8.52793 36 8.89091 35.874 9.23792ZM34.719 8.71893L33.918 7.62091L34.719 6.52289L36.158 7.51593C36.159 7.55293 36.164 7.58889 36.164 7.62689C36.164 7.65989 36.159 7.69289 36.159 7.72589L34.719 8.71893Z" fill="black" fill-opacity="0.2"/>
</g>
</g>
</svg>
