<svg width="20" height="20" viewBox="0 0 20 20" fill="none" xmlns="http://www.w3.org/2000/svg">
<g id="Group">
<path id="Vector" d="M2.12988 14.539L10.0021 9.9917L17.8742 14.539C17.6097 14.9983 17.3051 15.433 16.9651 15.8385C16.6253 16.2448 16.2501 16.6202 15.8445 16.9601C15.4388 17.3 15.0043 17.6051 14.5458 17.8691C14.0873 18.1339 13.6079 18.3584 13.1093 18.5402C12.6122 18.7212 12.0992 18.8579 11.5781 18.9504C11.057 19.0421 10.5295 19.0887 10.0004 19.0887C9.47139 19.0887 8.94386 19.0421 8.42281 18.9504C7.90176 18.8595 7.39027 18.7212 6.89167 18.5402C6.39465 18.3584 5.91367 18.1339 5.45514 17.8691C4.99653 17.6051 4.56204 17.3 4.15647 16.9601C3.75082 16.6202 3.3756 16.2448 3.03572 15.8385C2.69741 15.433 2.39444 14.9983 2.12988 14.539Z" fill="#F3D7AD"/>
<path id="Vector_2" d="M2.12988 14.539L10.0021 9.9917L17.8742 14.539C17.6097 14.9983 17.3051 15.433 16.9651 15.8385C16.6253 16.2448 16.2501 16.6202 15.8445 16.9601C15.4388 17.3 15.0043 17.6051 14.5458 17.8691C14.0873 18.1339 13.6079 18.3584 13.1093 18.5402C12.6122 18.7212 12.0992 18.8579 11.5781 18.9504C11.057 19.0421 10.5295 19.0887 10.0004 19.0887C9.47139 19.0887 8.94386 19.0421 8.42281 18.9504C7.90176 18.8595 7.39027 18.7212 6.89167 18.5402C6.39465 18.3584 5.91367 18.1339 5.45514 17.8691C4.99653 17.6051 4.56204 17.3 4.15647 16.9601C3.75082 16.6202 3.3756 16.2448 3.03572 15.8385C2.69741 15.433 2.39444 14.9983 2.12988 14.539Z" fill="url(#paint0_linear_7029_12535)"/>
<path id="Vector_3" d="M16.4288 16.4266C12.8789 19.9764 7.1235 19.9764 3.57368 16.4266M2.12988 14.539L10.0021 9.9917L17.8742 14.539C17.6097 14.9983 17.3051 15.433 16.9651 15.8385C16.6253 16.2448 16.2501 16.6202 15.8445 16.9601C15.4388 17.3 15.0043 17.6051 14.5458 17.8691C14.0873 18.1339 13.6079 18.3584 13.1093 18.5402C12.6122 18.7212 12.0992 18.8579 11.5781 18.9504C11.057 19.0421 10.5295 19.0887 10.0004 19.0887C9.47139 19.0887 8.94386 19.0421 8.42281 18.9504C7.90176 18.8595 7.39027 18.7212 6.89167 18.5402C6.39465 18.3584 5.91367 18.1339 5.45514 17.8691C4.99653 17.6051 4.56204 17.3 4.15647 16.9601C3.75082 16.6202 3.3756 16.2448 3.03572 15.8385C2.69741 15.433 2.39444 14.9983 2.12988 14.539Z" stroke="white" stroke-width="0.930433"/>
<path id="Vector_4" d="M17.8703 14.5512L10.001 10.0054L10.0033 0.90918C10.5325 0.90918 11.061 0.955033 11.5821 1.04672C12.1031 1.13841 12.6155 1.27593 13.1124 1.45694C13.6094 1.63795 14.0903 1.86245 14.5486 2.12724C15.0067 2.39204 15.4406 2.69553 15.8466 3.03621C16.2519 3.37689 16.6262 3.75313 16.9671 4.15784C17.3066 4.56333 17.6104 4.99729 17.8748 5.45574C18.1392 5.91419 18.3625 6.39474 18.5437 6.89192C18.7249 7.3891 18.8611 7.90134 18.9534 8.42381C19.0448 8.9455 19.0908 9.47429 19.0908 10.0047C19.0909 10.5343 19.0442 11.063 18.9526 11.5847C18.8609 12.1064 18.7235 12.6194 18.5421 13.1166C18.3599 13.6129 18.1351 14.0927 17.8703 14.5512Z" fill="#DFDFDF"/>
<path id="Vector_5" d="M17.8703 14.5512L10.001 10.0054L10.0033 0.90918C10.5325 0.90918 11.061 0.955033 11.5821 1.04672C12.1031 1.13841 12.6155 1.27593 13.1124 1.45694C13.6094 1.63795 14.0903 1.86245 14.5486 2.12724C15.0067 2.39204 15.4406 2.69553 15.8466 3.03621C16.2519 3.37689 16.6262 3.75313 16.9671 4.15784C17.3066 4.56333 17.6104 4.99729 17.8748 5.45574C18.1392 5.91419 18.3625 6.39474 18.5437 6.89192C18.7249 7.3891 18.8611 7.90134 18.9534 8.42381C19.0448 8.9455 19.0908 9.47429 19.0908 10.0047C19.0909 10.5343 19.0442 11.063 18.9526 11.5847C18.8609 12.1064 18.7235 12.6194 18.5421 13.1166C18.3599 13.6129 18.1351 14.0927 17.8703 14.5512Z" fill="url(#paint1_linear_7029_12535)"/>
<path id="Vector_6" d="M17.8703 14.5512L10.001 10.0054L10.0033 0.90918C10.5325 0.90918 11.061 0.955034 11.5821 1.04672C12.1031 1.13841 12.6155 1.27593 13.1124 1.45694C13.6094 1.63795 14.0903 1.86245 14.5486 2.12724C15.0067 2.39204 15.4406 2.69553 15.8466 3.03621C16.2519 3.37689 16.6262 3.75313 16.9671 4.15783C17.3066 4.56333 17.6104 4.99729 17.8748 5.45574C18.1392 5.91419 18.3625 6.39474 18.5437 6.89192C18.7249 7.3891 18.8611 7.90134 18.9534 8.42381C19.0448 8.9455 19.0908 9.47429 19.0908 10.0047C19.0909 10.5343 19.0442 11.063 18.9526 11.5847C18.8609 12.1064 18.7235 12.6194 18.5421 13.1166C18.3599 13.6129 18.1351 14.0927 17.8703 14.5512Z" stroke="white" stroke-width="0.930433"/>
<path id="Vector_7" d="M10.0021 0.90918L9.99968 10.0031L2.12866 14.5512C1.86403 14.0927 1.64033 13.6122 1.45917 13.115C1.27808 12.617 1.14094 12.1049 1.04957 11.5832C0.958194 11.0623 0.911795 10.5334 0.912111 10.0039C0.912506 9.47426 0.957878 8.94629 1.05044 8.42381C1.14221 7.90213 1.28077 7.38989 1.46091 6.89192C1.64231 6.39474 1.86592 5.91419 2.13048 5.45574C2.39504 4.99729 2.69912 4.56333 3.03876 4.15784C3.37841 3.75155 3.75355 3.37768 4.15975 3.03621C4.56508 2.69633 4.9999 2.39122 5.45819 2.12642C5.91648 1.86163 6.39746 1.63715 6.89448 1.45535C7.3915 1.27434 7.90386 1.13682 8.42499 1.04513C8.94525 0.954232 9.47286 0.90918 10.0021 0.90918Z" fill="#F7CDAF"/>
<path id="Vector_8" d="M10.0021 0.90918L9.99968 10.0031L2.12866 14.5512C1.86403 14.0927 1.64033 13.6122 1.45917 13.115C1.27808 12.617 1.14094 12.1049 1.04957 11.5832C0.958194 11.0623 0.911795 10.5334 0.912111 10.0039C0.912506 9.47426 0.957878 8.94629 1.05044 8.42381C1.14221 7.90213 1.28077 7.38989 1.46091 6.89192C1.64231 6.39474 1.86592 5.91419 2.13048 5.45574C2.39504 4.99729 2.69912 4.56333 3.03876 4.15784C3.37841 3.75155 3.75355 3.37768 4.15975 3.03621C4.56508 2.69633 4.9999 2.39122 5.45819 2.12642C5.91648 1.86163 6.39746 1.63715 6.89448 1.45535C7.3915 1.27434 7.90386 1.13682 8.42499 1.04513C8.94525 0.954232 9.47286 0.90918 10.0021 0.90918Z" fill="url(#paint2_linear_7029_12535)"/>
<path id="Vector_9" d="M1.22116 12.3515C-0.0781505 7.50217 2.79957 2.51852 7.6487 1.21905M10.0014 0.90918L9.99904 10.0031L2.12802 14.5512C1.86338 14.0927 1.63969 13.6122 1.45852 13.115C1.27744 12.617 1.1403 12.1049 1.04892 11.5832C0.95755 11.0623 0.911152 10.5334 0.911468 10.0039C0.911863 9.47426 0.957235 8.94629 1.04979 8.42381C1.14156 7.90213 1.28013 7.38989 1.46026 6.89192C1.64167 6.39474 1.86528 5.91419 2.12984 5.45574C2.39439 4.99729 2.69847 4.56333 3.03812 4.15783C3.37777 3.75155 3.75291 3.37768 4.15911 3.03621C4.56444 2.69633 4.99925 2.39122 5.45755 2.12642C5.91584 1.86163 6.39681 1.63715 6.89384 1.45535C7.39086 1.27434 7.90322 1.13682 8.42435 1.04513C8.94461 0.954232 9.47222 0.90918 10.0014 0.90918Z" stroke="white" stroke-width="0.930433"/>
</g>
<defs>
<linearGradient id="paint0_linear_7029_12535" x1="3.57368" y1="3.57105" x2="16.4287" y2="16.4266" gradientUnits="userSpaceOnUse">
<stop stop-color="#E8CA9C"/>
<stop offset="0.353591" stop-color="white" stop-opacity="0.5"/>
<stop offset="1" stop-color="white" stop-opacity="0"/>
</linearGradient>
<linearGradient id="paint1_linear_7029_12535" x1="18.781" y1="7.646" x2="1.22065" y2="12.3514" gradientUnits="userSpaceOnUse">
<stop stop-color="#D1D1D1"/>
<stop offset="0.353591" stop-color="white" stop-opacity="0.5"/>
<stop offset="1" stop-color="white" stop-opacity="0"/>
</linearGradient>
<linearGradient id="paint2_linear_7029_12535" x1="18.7822" y1="7.646" x2="1.22188" y2="12.3514" gradientUnits="userSpaceOnUse">
<stop stop-color="#F3C29F"/>
<stop offset="0.353591" stop-color="white" stop-opacity="0.5"/>
<stop offset="1" stop-color="white" stop-opacity="0"/>
</linearGradient>
</defs>
</svg>
