<svg width="20" height="20" viewBox="0 0 20 20" fill="none" xmlns="http://www.w3.org/2000/svg">
<g id="Group">
<path id="Vector" d="M10 20C15.5228 20 20 15.5228 20 10C20 4.47715 15.5228 0 10 0C4.47715 0 0 4.47715 0 10C0 15.5228 4.47715 20 10 20Z" fill="#BBDEFB"/>
<path id="Vector_2" d="M3.1377 7.369L4.25993 10.0001L5.97437 6.31567L3.1377 7.369Z" fill="#FFE0B2"/>
<path id="Vector_3" d="M2.6084 3.26446L7.22062 3.40226L6.18506 0.757812C4.8095 1.32337 3.59284 2.18557 2.6084 3.26446Z" fill="#FFE0B2"/>
<path id="Vector_4" d="M6.09473 13.8479L7.45808 16.6412L10.0581 15.5057L6.09473 13.8479Z" fill="#FFE0B2"/>
<path id="Vector_5" d="M3.01758 12.5489L6.09534 13.8478L4.25981 10L3.01758 12.5489Z" fill="#CFF3FF"/>
<path id="Vector_6" d="M2.6084 3.2644L3.1373 7.36888L5.97398 6.31555L7.22062 3.40221L2.6084 3.2644Z" fill="#F8BBD0"/>
<path id="Vector_7" d="M0 10C0 10.0734 -2.44162e-06 10.15 0.004442 10.2234L3.13778 7.36895L0.726657 6.26001C0.257769 7.41668 0 8.6756 0 10Z" fill="#82F0F8"/>
<path id="Vector_8" d="M0.722656 6.25994L3.13822 7.36888L2.60932 3.2644C1.81377 4.1344 1.17377 5.14994 0.722656 6.25994Z" fill="#81D4FA"/>
<path id="Vector_9" d="M0.00488281 10.2233L3.01822 12.5489L4.26046 9.99999L3.13822 7.3689L0.00488281 10.2233Z" fill="#81D4FA"/>
<path id="Vector_10" d="M0.816406 13.9588C1.29752 15.0688 1.97309 16.0799 2.80198 16.9366L3.02198 12.5488L0.816406 13.9588Z" fill="#82F0F8"/>
<path id="Vector_11" d="M10.0576 15.5056L12.8987 16.5166L13.8832 13.9033L10.0576 15.5056Z" fill="#FFE0B2"/>
<path id="Vector_12" d="M0.00488281 10.2222C0.0304384 11.5466 0.318202 12.8099 0.817091 13.9588L3.02266 12.5488L0.00488281 10.2222Z" fill="#81D4FA"/>
<path id="Vector_13" d="M10.0576 4.61447L13.9043 6.23448L12.8987 3.52222L10.0576 4.61447Z" fill="#FFFEFD"/>
<path id="Vector_14" d="M5.97461 6.31569L10.0579 4.61457L7.22125 3.40234L5.97461 6.31569Z" fill="#CFF3FF"/>
<path id="Vector_15" d="M14.0469 13.7922L16.9224 12.6733L15.5047 10L14.0469 13.7922Z" fill="#CFF3FF"/>
<path id="Vector_16" d="M13.9053 6.2334L15.5042 10.0001L16.7464 7.36899L13.9053 6.2334Z" fill="#CFF3FF"/>
<path id="Vector_17" d="M16.9219 12.6733L17.2019 16.9411C18.0307 16.08 18.7063 15.0734 19.1874 13.9634L16.9219 12.6733Z" fill="#82F0F8"/>
<path id="Vector_18" d="M16.7471 7.3688L20.0004 9.99989C20.0004 8.72767 19.7638 7.51103 19.326 6.3877L16.7471 7.3688Z" fill="#81D4FA"/>
<path id="Vector_19" d="M16.9219 12.6733L19.183 13.9589C19.7074 12.7467 19.9996 11.4056 19.9996 10L16.9219 12.6733Z" fill="#81D4FA"/>
<path id="Vector_20" d="M15.5049 9.99999L16.9227 12.6733L20.0004 9.99999L16.7471 7.3689L15.5049 9.99999Z" fill="#F8BBD0"/>
<path id="Vector_21" d="M12.8984 16.5167L17.2018 16.9367L16.9218 12.6689L14.0418 13.7879L14.0206 13.8434L13.8784 13.9034L12.8984 16.5167Z" fill="#81D4FA"/>
<path id="Vector_22" d="M2.79785 16.9367C2.79785 16.9411 2.79785 16.9411 2.79785 16.9367C3.70896 17.8833 4.80564 18.65 6.02675 19.1822L7.45341 16.6411C7.45785 16.6411 2.87563 16.8722 2.79785 16.9367Z" fill="#81D4FA"/>
<path id="Vector_23" d="M6.18066 0.754462L7.22067 3.40224L10.0018 0C8.64736 0 7.35844 0.270018 6.18066 0.754462Z" fill="#F8BBD0"/>
<path id="Vector_24" d="M6.0293 19.1778C7.24596 19.7045 8.59153 19.9956 10.0015 19.9956L7.45708 16.6367L6.0293 19.1778Z" fill="#BBDEFB"/>
<path id="Vector_25" d="M10.002 19.9999C11.4764 19.9999 12.873 19.6833 14.133 19.1088L12.8986 16.5166L10.002 19.9999Z" fill="#BBDEFB"/>
<path id="Vector_26" d="M12.8984 16.5166L14.1329 19.1088C15.2884 18.5822 16.3284 17.8444 17.2018 16.9411L12.8984 16.5166Z" fill="#81D4FA"/>
<path id="Vector_27" d="M12.8984 3.5222L17.3907 3.26443C16.4195 2.20221 15.224 1.35003 13.8784 0.780029L12.8984 3.5222Z" fill="#CFF3FF"/>
<path id="Vector_28" d="M12.8984 3.52218L13.9051 6.23444L16.7462 7.36888L17.3907 3.2644L12.8984 3.52218Z" fill="#FFE0B2"/>
<path id="Vector_29" d="M10.002 0L12.9031 3.5222L13.883 0.780029C12.6886 0.278918 11.3775 0 10.002 0Z" fill="#F8BBD0"/>
<path id="Vector_30" d="M16.7471 7.36888L19.3293 6.38778C18.8782 5.22667 18.2204 4.16885 17.396 3.2644L16.7471 7.36888Z" fill="#81D4FA"/>
<path id="Vector_31" d="M7.2207 3.40224L10.0574 4.61446L12.8985 3.5222L10.0018 0L7.2207 3.40224Z" fill="#82F0F8"/>
<path id="Vector_32" d="M13.8838 13.9033L14.026 13.8478L14.0471 13.7922L13.906 13.8478L13.8838 13.9033Z" fill="#82F0F8"/>
<path id="Vector_33" d="M2.79785 16.9366C2.87563 16.8766 7.45341 16.641 7.45341 16.641L6.09117 13.8477L3.01341 12.5532L2.79785 16.9366Z" fill="#F8BBD0"/>
<path id="Vector_34" d="M7.45801 16.6411L10.0025 20L12.8991 16.5167L10.058 15.5056L7.45801 16.6411Z" fill="#F8BBD0"/>
</g>
</svg>
