<svg width="19" height="26" viewBox="0 0 19 26" fill="none" xmlns="http://www.w3.org/2000/svg">
<path d="M9.12994 0C4.09485 0 0 5.83072 0 13C0 20.1693 4.0948 26 9.12994 26C14.1651 26 18.2599 20.1693 18.2599 13C18.2599 5.83072 14.1651 0 9.12994 0ZM15.2646 15.8075L14.0428 13.0001L15.2646 10.1927L17.7625 13.0001L15.2646 15.8075ZM12.2383 17.6459L9.12979 19.1576L6.02105 17.6459L4.67142 13.0001L6.02125 8.3542L9.12979 6.84246L12.2385 8.3542L13.5881 13.0001L12.2383 17.6459ZM6.50705 21.0133L6.10925 18.1717L8.71493 19.4391L6.50705 21.0133ZM9.12979 19.6549L11.6274 21.4479L9.12979 25.3891L6.63213 21.4479L9.12979 19.6549ZM11.7525 21.0133L9.54465 19.4278L12.1503 18.1604L11.7525 21.0133ZM2.99502 15.8077L0.497166 13.0003L2.99482 10.1928L4.21658 13.0003L2.99502 15.8077ZM4.41579 12.3751L3.33317 9.89451L5.49268 8.65271L4.41579 12.3751ZM4.41579 13.6254L5.49268 17.3478L3.32743 16.106L4.41579 13.6254ZM11.7525 4.98719L12.1503 7.82872L9.54464 6.56135L11.7525 4.98719ZM9.12963 6.34534L6.63198 4.55233L9.12963 0.611132L11.6273 4.55233L9.12963 6.34534ZM6.5069 4.98699L8.71477 6.57246L6.10909 7.83983L6.5069 4.98699ZM13.8492 12.375L12.7666 8.65261L14.9318 9.89441L13.8492 12.375ZM13.8492 13.6253L14.9318 16.1059L12.7666 17.3477L13.8492 13.6253ZM15.5171 9.83753L17.2675 8.54737C17.5995 9.81708 17.7865 11.1201 17.8245 12.4319L15.5171 9.83753ZM15.4632 9.34597L15.8894 5.08368C16.4216 6.03787 16.8439 7.0491 17.1482 8.09844L15.4632 9.34597ZM15.0228 9.45399L12.6132 8.07306L12.1585 4.81093L15.5059 4.649L15.0228 9.45399ZM11.8005 4.02921L9.52724 0.440407C10.4987 0.511963 11.4412 0.803524 12.2835 1.29292L11.8005 4.02921ZM6.45843 4.02921L5.9754 1.28419V1.28439C6.81781 0.79501 7.76029 0.503423 8.73168 0.431877L6.45843 4.02921ZM5.64576 8.07271L3.23614 9.45364L2.7531 4.64866L6.10048 4.8106L5.64576 8.07271ZM2.80422 9.34581L1.11925 8.10701V8.10681C1.4235 7.05747 1.84587 6.04624 2.3781 5.09205L2.80422 9.34581ZM2.75031 9.83737L0.434414 12.4317C0.476434 11.1206 0.66711 9.81835 1.00267 8.55021L2.75031 9.83737ZM2.75031 16.1628L0.999929 17.453C0.664954 16.1836 0.475261 14.8806 0.434414 13.5685L2.75031 16.1628ZM2.80422 16.6544L2.37808 20.9167C1.8459 19.9625 1.42352 18.9513 1.11923 17.9019L2.80422 16.6544ZM3.24465 16.5464L5.65426 17.9273L6.10896 21.1894L2.76158 21.3514L3.24465 16.5464ZM6.45842 21.9711L8.73169 25.5599C7.76024 25.4884 6.81777 25.1968 5.97541 24.7074L6.45842 21.9711ZM11.8005 21.9711L12.2835 24.7162V24.716C11.4411 25.2053 10.4986 25.4969 9.52724 25.5685L11.8005 21.9711ZM12.6132 17.9276L15.0228 16.5467L15.5058 21.3517L12.1585 21.1898L12.6132 17.9276ZM15.4547 16.6545L17.1397 17.8933V17.8935C16.8354 18.9429 16.4131 19.9541 15.8808 20.9083L15.4547 16.6545ZM15.5086 16.163L17.8245 13.5686C17.7825 14.8798 17.5918 16.182 17.2563 17.4501L15.5086 16.163ZM15.3495 4.22855L12.164 4.38196L12.6754 1.52059H12.6756C13.742 2.23453 14.6541 3.15544 15.3582 4.22852L15.3495 4.22855ZM5.58322 1.52062L6.08608 4.382L2.90067 4.22858C3.60471 3.1555 4.51689 2.23459 5.58323 1.52066L5.58322 1.52062ZM2.90086 21.7721L6.08627 21.6187L5.58341 24.4801L5.58321 24.4799C4.51683 23.7659 3.60469 22.845 2.90065 21.7719L2.90086 21.7721ZM12.6757 24.48L12.1729 21.6187L15.3583 21.7721L15.3581 21.7719C14.654 22.845 13.7419 23.7659 12.6755 24.4798L12.6757 24.48Z" fill="black"/>
</svg>
