<svg width="42" height="36" viewBox="0 0 42 36" fill="none" xmlns="http://www.w3.org/2000/svg">
<g id="ring icons">
<g id="Vector">
<path d="M36.725 15H5.51399C4.12799 15 3 16.128 3 17.514C3 18.9 4.12799 20.027 5.51399 20.027H36.725C38.111 20.027 39.239 18.9 39.239 17.514C39.239 16.128 38.111 15 36.725 15ZM36.725 19.277H5.51399C4.54099 19.277 3.75 18.486 3.75 17.514C3.75 16.541 4.54099 15.75 5.51399 15.75H36.725C37.698 15.75 38.489 16.541 38.489 17.514C38.489 18.486 37.698 19.277 36.725 19.277Z" fill="#333335"/>
<path d="M36.725 15H5.51399C4.12799 15 3 16.128 3 17.514C3 18.9 4.12799 20.027 5.51399 20.027H36.725C38.111 20.027 39.239 18.9 39.239 17.514C39.239 16.128 38.111 15 36.725 15ZM36.725 19.277H5.51399C4.54099 19.277 3.75 18.486 3.75 17.514C3.75 16.541 4.54099 15.75 5.51399 15.75H36.725C37.698 15.75 38.489 16.541 38.489 17.514C38.489 18.486 37.698 19.277 36.725 19.277Z" fill="black" fill-opacity="0.2"/>
<path d="M36.725 15H5.51399C4.12799 15 3 16.128 3 17.514C3 18.9 4.12799 20.027 5.51399 20.027H36.725C38.111 20.027 39.239 18.9 39.239 17.514C39.239 16.128 38.111 15 36.725 15ZM36.725 19.277H5.51399C4.54099 19.277 3.75 18.486 3.75 17.514C3.75 16.541 4.54099 15.75 5.51399 15.75H36.725C37.698 15.75 38.489 16.541 38.489 17.514C38.489 18.486 37.698 19.277 36.725 19.277Z" fill="black" fill-opacity="0.2"/>
<path d="M36.725 15H5.51399C4.12799 15 3 16.128 3 17.514C3 18.9 4.12799 20.027 5.51399 20.027H36.725C38.111 20.027 39.239 18.9 39.239 17.514C39.239 16.128 38.111 15 36.725 15ZM36.725 19.277H5.51399C4.54099 19.277 3.75 18.486 3.75 17.514C3.75 16.541 4.54099 15.75 5.51399 15.75H36.725C37.698 15.75 38.489 16.541 38.489 17.514C38.489 18.486 37.698 19.277 36.725 19.277Z" fill="black" fill-opacity="0.2"/>
<path d="M36.725 15H5.51399C4.12799 15 3 16.128 3 17.514C3 18.9 4.12799 20.027 5.51399 20.027H36.725C38.111 20.027 39.239 18.9 39.239 17.514C39.239 16.128 38.111 15 36.725 15ZM36.725 19.277H5.51399C4.54099 19.277 3.75 18.486 3.75 17.514C3.75 16.541 4.54099 15.75 5.51399 15.75H36.725C37.698 15.75 38.489 16.541 38.489 17.514C38.489 18.486 37.698 19.277 36.725 19.277Z" fill="black" fill-opacity="0.2"/>
<path d="M36.725 15H5.51399C4.12799 15 3 16.128 3 17.514C3 18.9 4.12799 20.027 5.51399 20.027H36.725C38.111 20.027 39.239 18.9 39.239 17.514C39.239 16.128 38.111 15 36.725 15ZM36.725 19.277H5.51399C4.54099 19.277 3.75 18.486 3.75 17.514C3.75 16.541 4.54099 15.75 5.51399 15.75H36.725C37.698 15.75 38.489 16.541 38.489 17.514C38.489 18.486 37.698 19.277 36.725 19.277Z" fill="black" fill-opacity="0.2"/>
<path d="M36.725 15H5.51399C4.12799 15 3 16.128 3 17.514C3 18.9 4.12799 20.027 5.51399 20.027H36.725C38.111 20.027 39.239 18.9 39.239 17.514C39.239 16.128 38.111 15 36.725 15ZM36.725 19.277H5.51399C4.54099 19.277 3.75 18.486 3.75 17.514C3.75 16.541 4.54099 15.75 5.51399 15.75H36.725C37.698 15.75 38.489 16.541 38.489 17.514C38.489 18.486 37.698 19.277 36.725 19.277Z" fill="black" fill-opacity="0.2"/>
<path d="M36.725 15H5.51399C4.12799 15 3 16.128 3 17.514C3 18.9 4.12799 20.027 5.51399 20.027H36.725C38.111 20.027 39.239 18.9 39.239 17.514C39.239 16.128 38.111 15 36.725 15ZM36.725 19.277H5.51399C4.54099 19.277 3.75 18.486 3.75 17.514C3.75 16.541 4.54099 15.75 5.51399 15.75H36.725C37.698 15.75 38.489 16.541 38.489 17.514C38.489 18.486 37.698 19.277 36.725 19.277Z" fill="black" fill-opacity="0.2"/>
<path d="M36.725 15H5.51399C4.12799 15 3 16.128 3 17.514C3 18.9 4.12799 20.027 5.51399 20.027H36.725C38.111 20.027 39.239 18.9 39.239 17.514C39.239 16.128 38.111 15 36.725 15ZM36.725 19.277H5.51399C4.54099 19.277 3.75 18.486 3.75 17.514C3.75 16.541 4.54099 15.75 5.51399 15.75H36.725C37.698 15.75 38.489 16.541 38.489 17.514C38.489 18.486 37.698 19.277 36.725 19.277Z" fill="black" fill-opacity="0.2"/>
</g>
</g>
</svg>
