<svg width="19" height="26" viewBox="0 0 19 26" fill="none" xmlns="http://www.w3.org/2000/svg">
<path d="M9.31326 26C15.4061 26 18.625 22.7785 18.625 16.6796C18.625 7.63265 9.54093 0.0736877 9.44997 -8.02107e-07L9.16529 -8.26994e-07C9.08569 0.0825816 0.00143784 7.64129 0.00143705 16.6796C0.00163488 22.7785 3.22037 26 9.31318 26L9.31326 26ZM9.31326 7.20271L12.828 10.3986L14.3134 16.338L12.8563 20.2283L9.31321 21.5176L5.77009 20.2255L4.31298 16.338L5.79845 10.3986L9.31326 7.20271ZM13.2151 10.1709L12.3329 5.75114L15.8391 8.48886L15.8389 12.5047L13.2151 10.1709ZM14.5384 16.964L15.7449 20.1799L13.3288 20.1799L14.5384 16.964ZM14.5953 15.706L13.3943 10.9022L15.7934 13.0338L14.5953 15.706ZM11.8604 5.58013L12.6829 9.68959L9.66626 6.94612L11.8604 5.58013ZM6.73776 22.801L5.97231 20.7632L8.77274 21.7765L6.73776 22.801ZM9.31331 21.9843L11.6499 23.1482L9.31331 25.4847L6.97677 23.1482L9.31331 21.9843ZM11.8916 22.7924L9.85384 21.7765L12.6571 20.7547L11.8916 22.7924ZM4.03129 15.7005L2.83326 13.0338L5.23232 10.9022L4.03129 15.7005ZM4.08827 16.9641L5.29783 20.18L2.8817 20.18L4.08827 16.9641ZM5.94381 9.68969L6.75215 5.58023L8.96063 6.94622L5.94381 9.68969ZM5.41157 10.1707L2.78758 12.5044L2.78758 8.48885L6.29396 5.75113L5.41157 10.1707ZM3.8578 16.3575L2.52022 19.9292L0.465363 16.6793L2.54004 13.4292L3.8578 16.3575ZM5.45726 20.6065L6.34523 22.9714L3.76693 24.0386L2.8506 20.6065L5.45726 20.6065ZM6.56716 23.3414L8.78972 25.564C6.91137 25.5015 5.32919 25.0975 4.08252 24.3632L6.56716 23.3414ZM12.0598 23.3414L14.5444 24.3632C13.2978 25.0975 11.7156 25.5014 9.83722 25.5642L12.0598 23.3414ZM12.2817 22.9714L13.1697 20.6065L15.7852 20.6065L14.8603 24.0386L12.2817 22.9714ZM16.1039 19.9178L14.7691 16.3577L16.0869 13.4292L18.1586 16.6792L16.1039 19.9178ZM16.3886 13.0876L17.6293 12.7148C17.9269 13.7555 18.1121 14.8249 18.1814 15.905L16.3886 13.0876ZM16.2663 12.695L16.2663 9.27993L16.2661 9.27973C16.7632 10.2588 17.1783 11.2772 17.5069 12.325L16.2663 12.695ZM12.3617 5.23308L13.2156 4.58411L13.2154 4.58411C13.9663 5.51773 14.6592 6.49662 15.29 7.51541L12.3617 5.23308ZM9.31356 6.66158L6.90022 5.15324L9.31356 0.625289L11.7269 5.15325L9.31356 6.66158ZM3.33713 7.51541C3.96445 6.49703 4.65347 5.51813 5.40052 4.58411L6.25435 5.23308L3.33713 7.51541ZM2.36103 12.695L1.12031 12.3222C1.44905 11.2756 1.86416 10.258 2.36103 9.27993L2.36103 12.695ZM2.24152 13.1047L0.448543 15.9222C0.518024 14.8421 0.70304 13.7727 1.0008 12.7321L2.24152 13.1047ZM0.448542 17.4562L2.37513 20.4813L3.26585 23.8196C1.54412 22.4621 0.590634 20.322 0.448338 17.4534L0.448542 17.4562ZM15.3611 23.8193L16.2519 20.4811L18.1785 17.4529C18.0361 20.3217 17.0828 22.4617 15.3609 23.8191L15.3611 23.8193ZM12.9564 4.25112L12.0799 4.90862L10.0878 1.14637L10.0876 1.14637C11.1086 2.11947 12.0668 3.15655 12.9564 4.25117L12.9564 4.25112ZM8.55367 1.14612L6.56157 4.90837L5.68513 4.25086L5.68513 4.25106C6.57468 3.15645 7.53269 2.11942 8.55367 1.14626L8.55367 1.14612Z" fill="black"/>
</svg>
