<svg width="17" height="27" viewBox="0 0 17 27" fill="none" xmlns="http://www.w3.org/2000/svg">
<g id="Group 25979">
<g id="Vector">
<path d="M8.12849 11.553C6.03429 11.553 4.13529 12.401 2.75479 13.77L2.74989 13.7709V13.774C1.35899 15.156 0.496094 17.068 0.496094 19.178C0.496094 23.382 3.92 26.803 8.1284 26.803C12.3374 26.803 15.7613 23.382 15.7613 19.178C15.7614 14.973 12.3375 11.553 8.12849 11.553ZM14.9758 18.489L13.3619 17.3699L14.5864 16.824C14.7802 17.353 14.9177 17.909 14.9758 18.489ZM14.6173 21.4479L13.3691 20.963L14.9772 19.839C14.9236 20.398 14.7974 20.9349 14.6173 21.4479ZM8.12919 22.743L9.54639 23.774L8.12849 25.822L6.71119 23.7889L8.12919 22.743ZM6.49059 23.103L6.31319 21.9399L7.45399 22.408L6.49059 23.103ZM8.8023 22.425L9.9423 21.957L9.7524 23.119L8.8023 22.425ZM8.12849 21.978L6.13799 21.1559L5.31459 19.17L6.13799 17.184L8.12849 16.361L10.119 17.184L10.943 19.17L10.119 21.1559L8.12849 21.978ZM1.28099 19.85L2.89509 20.9689L1.66599 21.517C1.47319 20.988 1.33779 20.431 1.28099 19.85ZM1.64569 16.894L2.88779 17.376L1.28129 18.499C1.33639 17.941 1.46459 17.405 1.64569 16.894ZM1.46249 19.17L3.51459 17.7549L4.54899 19.17L3.51459 20.584L1.46249 19.17ZM4.86739 18.498L4.17159 17.551L5.33519 17.374L4.86739 18.498ZM4.88279 19.842L5.35129 20.98L4.18699 20.79L4.88279 19.842ZM3.85479 16.9089L3.41199 14.463L5.86369 14.905L5.59749 16.644L3.85479 16.9089ZM3.85479 21.431L5.59759 21.712L5.86299 23.4349L3.41199 23.877L3.85479 21.431ZM8.12779 15.597L6.71129 14.566L8.12859 12.517L9.54649 14.551L8.12779 15.597ZM9.76709 15.236L9.94379 16.4L8.80309 15.931L9.76709 15.236ZM7.45469 15.9139L6.31459 16.3829L6.50519 15.22L7.45469 15.9139ZM11.3882 18.498L10.9072 17.36L12.0722 17.55L11.3882 18.498ZM11.3889 19.84L12.0869 20.79L10.9072 20.98L11.3889 19.84ZM10.6594 16.628L10.394 14.905L12.8457 14.463L12.4021 16.908L10.6594 16.628ZM10.6594 21.6949L12.4021 21.43L12.8457 23.877L10.394 23.4349L10.6594 21.6949ZM12.7423 20.584L11.7085 19.17L12.7423 17.7549L14.7951 19.17L12.7423 20.584ZM13.1184 16.73L13.4606 14.839C13.8 15.254 14.0861 15.713 14.3222 16.2L13.1184 16.73ZM12.4697 13.8489L10.5479 14.192L11.0275 12.951C11.5455 13.193 12.0313 13.4919 12.4697 13.8489ZM9.92399 13.9219L8.8126 12.338C9.361 12.392 9.88779 12.517 10.3911 12.692L9.92399 13.9219ZM7.4185 12.34L6.30939 13.947L5.76449 12.73C6.29009 12.537 6.8422 12.399 7.4185 12.34ZM5.68409 14.1899L3.78799 13.8489C4.20439 13.5099 4.66409 13.224 5.15279 12.989L5.68409 14.1899ZM3.14149 16.756L1.89839 16.277C2.14049 15.761 2.43959 15.276 2.79669 14.839L3.14149 16.756ZM1.92929 22.142L3.13929 21.61L2.79439 23.5129C2.45309 23.0949 2.16559 22.633 1.92929 22.142ZM3.77119 24.494L5.70969 24.147L5.22479 25.402C4.70249 25.157 4.21239 24.855 3.77119 24.494ZM5.86069 25.6609L6.33299 24.417L7.4563 26.019C6.90179 25.965 6.36919 25.839 5.86069 25.6609ZM8.82689 26.017L9.9474 24.3929L10.4986 25.624C9.96769 25.819 9.40969 25.958 8.82689 26.017ZM10.5736 24.149L12.486 24.494C12.067 24.837 11.6034 25.126 11.1107 25.364L10.5736 24.149ZM13.1162 21.584L14.3659 22.0649C14.1234 22.5859 13.8223 23.074 13.4627 23.514L13.1162 21.584Z" fill="#333335"/>
<path d="M8.12849 11.553C6.03429 11.553 4.13529 12.401 2.75479 13.77L2.74989 13.7709V13.774C1.35899 15.156 0.496094 17.068 0.496094 19.178C0.496094 23.382 3.92 26.803 8.1284 26.803C12.3374 26.803 15.7613 23.382 15.7613 19.178C15.7614 14.973 12.3375 11.553 8.12849 11.553ZM14.9758 18.489L13.3619 17.3699L14.5864 16.824C14.7802 17.353 14.9177 17.909 14.9758 18.489ZM14.6173 21.4479L13.3691 20.963L14.9772 19.839C14.9236 20.398 14.7974 20.9349 14.6173 21.4479ZM8.12919 22.743L9.54639 23.774L8.12849 25.822L6.71119 23.7889L8.12919 22.743ZM6.49059 23.103L6.31319 21.9399L7.45399 22.408L6.49059 23.103ZM8.8023 22.425L9.9423 21.957L9.7524 23.119L8.8023 22.425ZM8.12849 21.978L6.13799 21.1559L5.31459 19.17L6.13799 17.184L8.12849 16.361L10.119 17.184L10.943 19.17L10.119 21.1559L8.12849 21.978ZM1.28099 19.85L2.89509 20.9689L1.66599 21.517C1.47319 20.988 1.33779 20.431 1.28099 19.85ZM1.64569 16.894L2.88779 17.376L1.28129 18.499C1.33639 17.941 1.46459 17.405 1.64569 16.894ZM1.46249 19.17L3.51459 17.7549L4.54899 19.17L3.51459 20.584L1.46249 19.17ZM4.86739 18.498L4.17159 17.551L5.33519 17.374L4.86739 18.498ZM4.88279 19.842L5.35129 20.98L4.18699 20.79L4.88279 19.842ZM3.85479 16.9089L3.41199 14.463L5.86369 14.905L5.59749 16.644L3.85479 16.9089ZM3.85479 21.431L5.59759 21.712L5.86299 23.4349L3.41199 23.877L3.85479 21.431ZM8.12779 15.597L6.71129 14.566L8.12859 12.517L9.54649 14.551L8.12779 15.597ZM9.76709 15.236L9.94379 16.4L8.80309 15.931L9.76709 15.236ZM7.45469 15.9139L6.31459 16.3829L6.50519 15.22L7.45469 15.9139ZM11.3882 18.498L10.9072 17.36L12.0722 17.55L11.3882 18.498ZM11.3889 19.84L12.0869 20.79L10.9072 20.98L11.3889 19.84ZM10.6594 16.628L10.394 14.905L12.8457 14.463L12.4021 16.908L10.6594 16.628ZM10.6594 21.6949L12.4021 21.43L12.8457 23.877L10.394 23.4349L10.6594 21.6949ZM12.7423 20.584L11.7085 19.17L12.7423 17.7549L14.7951 19.17L12.7423 20.584ZM13.1184 16.73L13.4606 14.839C13.8 15.254 14.0861 15.713 14.3222 16.2L13.1184 16.73ZM12.4697 13.8489L10.5479 14.192L11.0275 12.951C11.5455 13.193 12.0313 13.4919 12.4697 13.8489ZM9.92399 13.9219L8.8126 12.338C9.361 12.392 9.88779 12.517 10.3911 12.692L9.92399 13.9219ZM7.4185 12.34L6.30939 13.947L5.76449 12.73C6.29009 12.537 6.8422 12.399 7.4185 12.34ZM5.68409 14.1899L3.78799 13.8489C4.20439 13.5099 4.66409 13.224 5.15279 12.989L5.68409 14.1899ZM3.14149 16.756L1.89839 16.277C2.14049 15.761 2.43959 15.276 2.79669 14.839L3.14149 16.756ZM1.92929 22.142L3.13929 21.61L2.79439 23.5129C2.45309 23.0949 2.16559 22.633 1.92929 22.142ZM3.77119 24.494L5.70969 24.147L5.22479 25.402C4.70249 25.157 4.21239 24.855 3.77119 24.494ZM5.86069 25.6609L6.33299 24.417L7.4563 26.019C6.90179 25.965 6.36919 25.839 5.86069 25.6609ZM8.82689 26.017L9.9474 24.3929L10.4986 25.624C9.96769 25.819 9.40969 25.958 8.82689 26.017ZM10.5736 24.149L12.486 24.494C12.067 24.837 11.6034 25.126 11.1107 25.364L10.5736 24.149ZM13.1162 21.584L14.3659 22.0649C14.1234 22.5859 13.8223 23.074 13.4627 23.514L13.1162 21.584Z" fill="black" fill-opacity="0.2"/>
<path d="M8.12849 11.553C6.03429 11.553 4.13529 12.401 2.75479 13.77L2.74989 13.7709V13.774C1.35899 15.156 0.496094 17.068 0.496094 19.178C0.496094 23.382 3.92 26.803 8.1284 26.803C12.3374 26.803 15.7613 23.382 15.7613 19.178C15.7614 14.973 12.3375 11.553 8.12849 11.553ZM14.9758 18.489L13.3619 17.3699L14.5864 16.824C14.7802 17.353 14.9177 17.909 14.9758 18.489ZM14.6173 21.4479L13.3691 20.963L14.9772 19.839C14.9236 20.398 14.7974 20.9349 14.6173 21.4479ZM8.12919 22.743L9.54639 23.774L8.12849 25.822L6.71119 23.7889L8.12919 22.743ZM6.49059 23.103L6.31319 21.9399L7.45399 22.408L6.49059 23.103ZM8.8023 22.425L9.9423 21.957L9.7524 23.119L8.8023 22.425ZM8.12849 21.978L6.13799 21.1559L5.31459 19.17L6.13799 17.184L8.12849 16.361L10.119 17.184L10.943 19.17L10.119 21.1559L8.12849 21.978ZM1.28099 19.85L2.89509 20.9689L1.66599 21.517C1.47319 20.988 1.33779 20.431 1.28099 19.85ZM1.64569 16.894L2.88779 17.376L1.28129 18.499C1.33639 17.941 1.46459 17.405 1.64569 16.894ZM1.46249 19.17L3.51459 17.7549L4.54899 19.17L3.51459 20.584L1.46249 19.17ZM4.86739 18.498L4.17159 17.551L5.33519 17.374L4.86739 18.498ZM4.88279 19.842L5.35129 20.98L4.18699 20.79L4.88279 19.842ZM3.85479 16.9089L3.41199 14.463L5.86369 14.905L5.59749 16.644L3.85479 16.9089ZM3.85479 21.431L5.59759 21.712L5.86299 23.4349L3.41199 23.877L3.85479 21.431ZM8.12779 15.597L6.71129 14.566L8.12859 12.517L9.54649 14.551L8.12779 15.597ZM9.76709 15.236L9.94379 16.4L8.80309 15.931L9.76709 15.236ZM7.45469 15.9139L6.31459 16.3829L6.50519 15.22L7.45469 15.9139ZM11.3882 18.498L10.9072 17.36L12.0722 17.55L11.3882 18.498ZM11.3889 19.84L12.0869 20.79L10.9072 20.98L11.3889 19.84ZM10.6594 16.628L10.394 14.905L12.8457 14.463L12.4021 16.908L10.6594 16.628ZM10.6594 21.6949L12.4021 21.43L12.8457 23.877L10.394 23.4349L10.6594 21.6949ZM12.7423 20.584L11.7085 19.17L12.7423 17.7549L14.7951 19.17L12.7423 20.584ZM13.1184 16.73L13.4606 14.839C13.8 15.254 14.0861 15.713 14.3222 16.2L13.1184 16.73ZM12.4697 13.8489L10.5479 14.192L11.0275 12.951C11.5455 13.193 12.0313 13.4919 12.4697 13.8489ZM9.92399 13.9219L8.8126 12.338C9.361 12.392 9.88779 12.517 10.3911 12.692L9.92399 13.9219ZM7.4185 12.34L6.30939 13.947L5.76449 12.73C6.29009 12.537 6.8422 12.399 7.4185 12.34ZM5.68409 14.1899L3.78799 13.8489C4.20439 13.5099 4.66409 13.224 5.15279 12.989L5.68409 14.1899ZM3.14149 16.756L1.89839 16.277C2.14049 15.761 2.43959 15.276 2.79669 14.839L3.14149 16.756ZM1.92929 22.142L3.13929 21.61L2.79439 23.5129C2.45309 23.0949 2.16559 22.633 1.92929 22.142ZM3.77119 24.494L5.70969 24.147L5.22479 25.402C4.70249 25.157 4.21239 24.855 3.77119 24.494ZM5.86069 25.6609L6.33299 24.417L7.4563 26.019C6.90179 25.965 6.36919 25.839 5.86069 25.6609ZM8.82689 26.017L9.9474 24.3929L10.4986 25.624C9.96769 25.819 9.40969 25.958 8.82689 26.017ZM10.5736 24.149L12.486 24.494C12.067 24.837 11.6034 25.126 11.1107 25.364L10.5736 24.149ZM13.1162 21.584L14.3659 22.0649C14.1234 22.5859 13.8223 23.074 13.4627 23.514L13.1162 21.584Z" fill="black" fill-opacity="0.2"/>
<path d="M8.12849 11.553C6.03429 11.553 4.13529 12.401 2.75479 13.77L2.74989 13.7709V13.774C1.35899 15.156 0.496094 17.068 0.496094 19.178C0.496094 23.382 3.92 26.803 8.1284 26.803C12.3374 26.803 15.7613 23.382 15.7613 19.178C15.7614 14.973 12.3375 11.553 8.12849 11.553ZM14.9758 18.489L13.3619 17.3699L14.5864 16.824C14.7802 17.353 14.9177 17.909 14.9758 18.489ZM14.6173 21.4479L13.3691 20.963L14.9772 19.839C14.9236 20.398 14.7974 20.9349 14.6173 21.4479ZM8.12919 22.743L9.54639 23.774L8.12849 25.822L6.71119 23.7889L8.12919 22.743ZM6.49059 23.103L6.31319 21.9399L7.45399 22.408L6.49059 23.103ZM8.8023 22.425L9.9423 21.957L9.7524 23.119L8.8023 22.425ZM8.12849 21.978L6.13799 21.1559L5.31459 19.17L6.13799 17.184L8.12849 16.361L10.119 17.184L10.943 19.17L10.119 21.1559L8.12849 21.978ZM1.28099 19.85L2.89509 20.9689L1.66599 21.517C1.47319 20.988 1.33779 20.431 1.28099 19.85ZM1.64569 16.894L2.88779 17.376L1.28129 18.499C1.33639 17.941 1.46459 17.405 1.64569 16.894ZM1.46249 19.17L3.51459 17.7549L4.54899 19.17L3.51459 20.584L1.46249 19.17ZM4.86739 18.498L4.17159 17.551L5.33519 17.374L4.86739 18.498ZM4.88279 19.842L5.35129 20.98L4.18699 20.79L4.88279 19.842ZM3.85479 16.9089L3.41199 14.463L5.86369 14.905L5.59749 16.644L3.85479 16.9089ZM3.85479 21.431L5.59759 21.712L5.86299 23.4349L3.41199 23.877L3.85479 21.431ZM8.12779 15.597L6.71129 14.566L8.12859 12.517L9.54649 14.551L8.12779 15.597ZM9.76709 15.236L9.94379 16.4L8.80309 15.931L9.76709 15.236ZM7.45469 15.9139L6.31459 16.3829L6.50519 15.22L7.45469 15.9139ZM11.3882 18.498L10.9072 17.36L12.0722 17.55L11.3882 18.498ZM11.3889 19.84L12.0869 20.79L10.9072 20.98L11.3889 19.84ZM10.6594 16.628L10.394 14.905L12.8457 14.463L12.4021 16.908L10.6594 16.628ZM10.6594 21.6949L12.4021 21.43L12.8457 23.877L10.394 23.4349L10.6594 21.6949ZM12.7423 20.584L11.7085 19.17L12.7423 17.7549L14.7951 19.17L12.7423 20.584ZM13.1184 16.73L13.4606 14.839C13.8 15.254 14.0861 15.713 14.3222 16.2L13.1184 16.73ZM12.4697 13.8489L10.5479 14.192L11.0275 12.951C11.5455 13.193 12.0313 13.4919 12.4697 13.8489ZM9.92399 13.9219L8.8126 12.338C9.361 12.392 9.88779 12.517 10.3911 12.692L9.92399 13.9219ZM7.4185 12.34L6.30939 13.947L5.76449 12.73C6.29009 12.537 6.8422 12.399 7.4185 12.34ZM5.68409 14.1899L3.78799 13.8489C4.20439 13.5099 4.66409 13.224 5.15279 12.989L5.68409 14.1899ZM3.14149 16.756L1.89839 16.277C2.14049 15.761 2.43959 15.276 2.79669 14.839L3.14149 16.756ZM1.92929 22.142L3.13929 21.61L2.79439 23.5129C2.45309 23.0949 2.16559 22.633 1.92929 22.142ZM3.77119 24.494L5.70969 24.147L5.22479 25.402C4.70249 25.157 4.21239 24.855 3.77119 24.494ZM5.86069 25.6609L6.33299 24.417L7.4563 26.019C6.90179 25.965 6.36919 25.839 5.86069 25.6609ZM8.82689 26.017L9.9474 24.3929L10.4986 25.624C9.96769 25.819 9.40969 25.958 8.82689 26.017ZM10.5736 24.149L12.486 24.494C12.067 24.837 11.6034 25.126 11.1107 25.364L10.5736 24.149ZM13.1162 21.584L14.3659 22.0649C14.1234 22.5859 13.8223 23.074 13.4627 23.514L13.1162 21.584Z" fill="black" fill-opacity="0.2"/>
<path d="M8.12849 11.553C6.03429 11.553 4.13529 12.401 2.75479 13.77L2.74989 13.7709V13.774C1.35899 15.156 0.496094 17.068 0.496094 19.178C0.496094 23.382 3.92 26.803 8.1284 26.803C12.3374 26.803 15.7613 23.382 15.7613 19.178C15.7614 14.973 12.3375 11.553 8.12849 11.553ZM14.9758 18.489L13.3619 17.3699L14.5864 16.824C14.7802 17.353 14.9177 17.909 14.9758 18.489ZM14.6173 21.4479L13.3691 20.963L14.9772 19.839C14.9236 20.398 14.7974 20.9349 14.6173 21.4479ZM8.12919 22.743L9.54639 23.774L8.12849 25.822L6.71119 23.7889L8.12919 22.743ZM6.49059 23.103L6.31319 21.9399L7.45399 22.408L6.49059 23.103ZM8.8023 22.425L9.9423 21.957L9.7524 23.119L8.8023 22.425ZM8.12849 21.978L6.13799 21.1559L5.31459 19.17L6.13799 17.184L8.12849 16.361L10.119 17.184L10.943 19.17L10.119 21.1559L8.12849 21.978ZM1.28099 19.85L2.89509 20.9689L1.66599 21.517C1.47319 20.988 1.33779 20.431 1.28099 19.85ZM1.64569 16.894L2.88779 17.376L1.28129 18.499C1.33639 17.941 1.46459 17.405 1.64569 16.894ZM1.46249 19.17L3.51459 17.7549L4.54899 19.17L3.51459 20.584L1.46249 19.17ZM4.86739 18.498L4.17159 17.551L5.33519 17.374L4.86739 18.498ZM4.88279 19.842L5.35129 20.98L4.18699 20.79L4.88279 19.842ZM3.85479 16.9089L3.41199 14.463L5.86369 14.905L5.59749 16.644L3.85479 16.9089ZM3.85479 21.431L5.59759 21.712L5.86299 23.4349L3.41199 23.877L3.85479 21.431ZM8.12779 15.597L6.71129 14.566L8.12859 12.517L9.54649 14.551L8.12779 15.597ZM9.76709 15.236L9.94379 16.4L8.80309 15.931L9.76709 15.236ZM7.45469 15.9139L6.31459 16.3829L6.50519 15.22L7.45469 15.9139ZM11.3882 18.498L10.9072 17.36L12.0722 17.55L11.3882 18.498ZM11.3889 19.84L12.0869 20.79L10.9072 20.98L11.3889 19.84ZM10.6594 16.628L10.394 14.905L12.8457 14.463L12.4021 16.908L10.6594 16.628ZM10.6594 21.6949L12.4021 21.43L12.8457 23.877L10.394 23.4349L10.6594 21.6949ZM12.7423 20.584L11.7085 19.17L12.7423 17.7549L14.7951 19.17L12.7423 20.584ZM13.1184 16.73L13.4606 14.839C13.8 15.254 14.0861 15.713 14.3222 16.2L13.1184 16.73ZM12.4697 13.8489L10.5479 14.192L11.0275 12.951C11.5455 13.193 12.0313 13.4919 12.4697 13.8489ZM9.92399 13.9219L8.8126 12.338C9.361 12.392 9.88779 12.517 10.3911 12.692L9.92399 13.9219ZM7.4185 12.34L6.30939 13.947L5.76449 12.73C6.29009 12.537 6.8422 12.399 7.4185 12.34ZM5.68409 14.1899L3.78799 13.8489C4.20439 13.5099 4.66409 13.224 5.15279 12.989L5.68409 14.1899ZM3.14149 16.756L1.89839 16.277C2.14049 15.761 2.43959 15.276 2.79669 14.839L3.14149 16.756ZM1.92929 22.142L3.13929 21.61L2.79439 23.5129C2.45309 23.0949 2.16559 22.633 1.92929 22.142ZM3.77119 24.494L5.70969 24.147L5.22479 25.402C4.70249 25.157 4.21239 24.855 3.77119 24.494ZM5.86069 25.6609L6.33299 24.417L7.4563 26.019C6.90179 25.965 6.36919 25.839 5.86069 25.6609ZM8.82689 26.017L9.9474 24.3929L10.4986 25.624C9.96769 25.819 9.40969 25.958 8.82689 26.017ZM10.5736 24.149L12.486 24.494C12.067 24.837 11.6034 25.126 11.1107 25.364L10.5736 24.149ZM13.1162 21.584L14.3659 22.0649C14.1234 22.5859 13.8223 23.074 13.4627 23.514L13.1162 21.584Z" fill="black" fill-opacity="0.2"/>
<path d="M8.12849 11.553C6.03429 11.553 4.13529 12.401 2.75479 13.77L2.74989 13.7709V13.774C1.35899 15.156 0.496094 17.068 0.496094 19.178C0.496094 23.382 3.92 26.803 8.1284 26.803C12.3374 26.803 15.7613 23.382 15.7613 19.178C15.7614 14.973 12.3375 11.553 8.12849 11.553ZM14.9758 18.489L13.3619 17.3699L14.5864 16.824C14.7802 17.353 14.9177 17.909 14.9758 18.489ZM14.6173 21.4479L13.3691 20.963L14.9772 19.839C14.9236 20.398 14.7974 20.9349 14.6173 21.4479ZM8.12919 22.743L9.54639 23.774L8.12849 25.822L6.71119 23.7889L8.12919 22.743ZM6.49059 23.103L6.31319 21.9399L7.45399 22.408L6.49059 23.103ZM8.8023 22.425L9.9423 21.957L9.7524 23.119L8.8023 22.425ZM8.12849 21.978L6.13799 21.1559L5.31459 19.17L6.13799 17.184L8.12849 16.361L10.119 17.184L10.943 19.17L10.119 21.1559L8.12849 21.978ZM1.28099 19.85L2.89509 20.9689L1.66599 21.517C1.47319 20.988 1.33779 20.431 1.28099 19.85ZM1.64569 16.894L2.88779 17.376L1.28129 18.499C1.33639 17.941 1.46459 17.405 1.64569 16.894ZM1.46249 19.17L3.51459 17.7549L4.54899 19.17L3.51459 20.584L1.46249 19.17ZM4.86739 18.498L4.17159 17.551L5.33519 17.374L4.86739 18.498ZM4.88279 19.842L5.35129 20.98L4.18699 20.79L4.88279 19.842ZM3.85479 16.9089L3.41199 14.463L5.86369 14.905L5.59749 16.644L3.85479 16.9089ZM3.85479 21.431L5.59759 21.712L5.86299 23.4349L3.41199 23.877L3.85479 21.431ZM8.12779 15.597L6.71129 14.566L8.12859 12.517L9.54649 14.551L8.12779 15.597ZM9.76709 15.236L9.94379 16.4L8.80309 15.931L9.76709 15.236ZM7.45469 15.9139L6.31459 16.3829L6.50519 15.22L7.45469 15.9139ZM11.3882 18.498L10.9072 17.36L12.0722 17.55L11.3882 18.498ZM11.3889 19.84L12.0869 20.79L10.9072 20.98L11.3889 19.84ZM10.6594 16.628L10.394 14.905L12.8457 14.463L12.4021 16.908L10.6594 16.628ZM10.6594 21.6949L12.4021 21.43L12.8457 23.877L10.394 23.4349L10.6594 21.6949ZM12.7423 20.584L11.7085 19.17L12.7423 17.7549L14.7951 19.17L12.7423 20.584ZM13.1184 16.73L13.4606 14.839C13.8 15.254 14.0861 15.713 14.3222 16.2L13.1184 16.73ZM12.4697 13.8489L10.5479 14.192L11.0275 12.951C11.5455 13.193 12.0313 13.4919 12.4697 13.8489ZM9.92399 13.9219L8.8126 12.338C9.361 12.392 9.88779 12.517 10.3911 12.692L9.92399 13.9219ZM7.4185 12.34L6.30939 13.947L5.76449 12.73C6.29009 12.537 6.8422 12.399 7.4185 12.34ZM5.68409 14.1899L3.78799 13.8489C4.20439 13.5099 4.66409 13.224 5.15279 12.989L5.68409 14.1899ZM3.14149 16.756L1.89839 16.277C2.14049 15.761 2.43959 15.276 2.79669 14.839L3.14149 16.756ZM1.92929 22.142L3.13929 21.61L2.79439 23.5129C2.45309 23.0949 2.16559 22.633 1.92929 22.142ZM3.77119 24.494L5.70969 24.147L5.22479 25.402C4.70249 25.157 4.21239 24.855 3.77119 24.494ZM5.86069 25.6609L6.33299 24.417L7.4563 26.019C6.90179 25.965 6.36919 25.839 5.86069 25.6609ZM8.82689 26.017L9.9474 24.3929L10.4986 25.624C9.96769 25.819 9.40969 25.958 8.82689 26.017ZM10.5736 24.149L12.486 24.494C12.067 24.837 11.6034 25.126 11.1107 25.364L10.5736 24.149ZM13.1162 21.584L14.3659 22.0649C14.1234 22.5859 13.8223 23.074 13.4627 23.514L13.1162 21.584Z" fill="black" fill-opacity="0.2"/>
<path d="M8.12849 11.553C6.03429 11.553 4.13529 12.401 2.75479 13.77L2.74989 13.7709V13.774C1.35899 15.156 0.496094 17.068 0.496094 19.178C0.496094 23.382 3.92 26.803 8.1284 26.803C12.3374 26.803 15.7613 23.382 15.7613 19.178C15.7614 14.973 12.3375 11.553 8.12849 11.553ZM14.9758 18.489L13.3619 17.3699L14.5864 16.824C14.7802 17.353 14.9177 17.909 14.9758 18.489ZM14.6173 21.4479L13.3691 20.963L14.9772 19.839C14.9236 20.398 14.7974 20.9349 14.6173 21.4479ZM8.12919 22.743L9.54639 23.774L8.12849 25.822L6.71119 23.7889L8.12919 22.743ZM6.49059 23.103L6.31319 21.9399L7.45399 22.408L6.49059 23.103ZM8.8023 22.425L9.9423 21.957L9.7524 23.119L8.8023 22.425ZM8.12849 21.978L6.13799 21.1559L5.31459 19.17L6.13799 17.184L8.12849 16.361L10.119 17.184L10.943 19.17L10.119 21.1559L8.12849 21.978ZM1.28099 19.85L2.89509 20.9689L1.66599 21.517C1.47319 20.988 1.33779 20.431 1.28099 19.85ZM1.64569 16.894L2.88779 17.376L1.28129 18.499C1.33639 17.941 1.46459 17.405 1.64569 16.894ZM1.46249 19.17L3.51459 17.7549L4.54899 19.17L3.51459 20.584L1.46249 19.17ZM4.86739 18.498L4.17159 17.551L5.33519 17.374L4.86739 18.498ZM4.88279 19.842L5.35129 20.98L4.18699 20.79L4.88279 19.842ZM3.85479 16.9089L3.41199 14.463L5.86369 14.905L5.59749 16.644L3.85479 16.9089ZM3.85479 21.431L5.59759 21.712L5.86299 23.4349L3.41199 23.877L3.85479 21.431ZM8.12779 15.597L6.71129 14.566L8.12859 12.517L9.54649 14.551L8.12779 15.597ZM9.76709 15.236L9.94379 16.4L8.80309 15.931L9.76709 15.236ZM7.45469 15.9139L6.31459 16.3829L6.50519 15.22L7.45469 15.9139ZM11.3882 18.498L10.9072 17.36L12.0722 17.55L11.3882 18.498ZM11.3889 19.84L12.0869 20.79L10.9072 20.98L11.3889 19.84ZM10.6594 16.628L10.394 14.905L12.8457 14.463L12.4021 16.908L10.6594 16.628ZM10.6594 21.6949L12.4021 21.43L12.8457 23.877L10.394 23.4349L10.6594 21.6949ZM12.7423 20.584L11.7085 19.17L12.7423 17.7549L14.7951 19.17L12.7423 20.584ZM13.1184 16.73L13.4606 14.839C13.8 15.254 14.0861 15.713 14.3222 16.2L13.1184 16.73ZM12.4697 13.8489L10.5479 14.192L11.0275 12.951C11.5455 13.193 12.0313 13.4919 12.4697 13.8489ZM9.92399 13.9219L8.8126 12.338C9.361 12.392 9.88779 12.517 10.3911 12.692L9.92399 13.9219ZM7.4185 12.34L6.30939 13.947L5.76449 12.73C6.29009 12.537 6.8422 12.399 7.4185 12.34ZM5.68409 14.1899L3.78799 13.8489C4.20439 13.5099 4.66409 13.224 5.15279 12.989L5.68409 14.1899ZM3.14149 16.756L1.89839 16.277C2.14049 15.761 2.43959 15.276 2.79669 14.839L3.14149 16.756ZM1.92929 22.142L3.13929 21.61L2.79439 23.5129C2.45309 23.0949 2.16559 22.633 1.92929 22.142ZM3.77119 24.494L5.70969 24.147L5.22479 25.402C4.70249 25.157 4.21239 24.855 3.77119 24.494ZM5.86069 25.6609L6.33299 24.417L7.4563 26.019C6.90179 25.965 6.36919 25.839 5.86069 25.6609ZM8.82689 26.017L9.9474 24.3929L10.4986 25.624C9.96769 25.819 9.40969 25.958 8.82689 26.017ZM10.5736 24.149L12.486 24.494C12.067 24.837 11.6034 25.126 11.1107 25.364L10.5736 24.149ZM13.1162 21.584L14.3659 22.0649C14.1234 22.5859 13.8223 23.074 13.4627 23.514L13.1162 21.584Z" fill="black" fill-opacity="0.2"/>
<path d="M8.12849 11.553C6.03429 11.553 4.13529 12.401 2.75479 13.77L2.74989 13.7709V13.774C1.35899 15.156 0.496094 17.068 0.496094 19.178C0.496094 23.382 3.92 26.803 8.1284 26.803C12.3374 26.803 15.7613 23.382 15.7613 19.178C15.7614 14.973 12.3375 11.553 8.12849 11.553ZM14.9758 18.489L13.3619 17.3699L14.5864 16.824C14.7802 17.353 14.9177 17.909 14.9758 18.489ZM14.6173 21.4479L13.3691 20.963L14.9772 19.839C14.9236 20.398 14.7974 20.9349 14.6173 21.4479ZM8.12919 22.743L9.54639 23.774L8.12849 25.822L6.71119 23.7889L8.12919 22.743ZM6.49059 23.103L6.31319 21.9399L7.45399 22.408L6.49059 23.103ZM8.8023 22.425L9.9423 21.957L9.7524 23.119L8.8023 22.425ZM8.12849 21.978L6.13799 21.1559L5.31459 19.17L6.13799 17.184L8.12849 16.361L10.119 17.184L10.943 19.17L10.119 21.1559L8.12849 21.978ZM1.28099 19.85L2.89509 20.9689L1.66599 21.517C1.47319 20.988 1.33779 20.431 1.28099 19.85ZM1.64569 16.894L2.88779 17.376L1.28129 18.499C1.33639 17.941 1.46459 17.405 1.64569 16.894ZM1.46249 19.17L3.51459 17.7549L4.54899 19.17L3.51459 20.584L1.46249 19.17ZM4.86739 18.498L4.17159 17.551L5.33519 17.374L4.86739 18.498ZM4.88279 19.842L5.35129 20.98L4.18699 20.79L4.88279 19.842ZM3.85479 16.9089L3.41199 14.463L5.86369 14.905L5.59749 16.644L3.85479 16.9089ZM3.85479 21.431L5.59759 21.712L5.86299 23.4349L3.41199 23.877L3.85479 21.431ZM8.12779 15.597L6.71129 14.566L8.12859 12.517L9.54649 14.551L8.12779 15.597ZM9.76709 15.236L9.94379 16.4L8.80309 15.931L9.76709 15.236ZM7.45469 15.9139L6.31459 16.3829L6.50519 15.22L7.45469 15.9139ZM11.3882 18.498L10.9072 17.36L12.0722 17.55L11.3882 18.498ZM11.3889 19.84L12.0869 20.79L10.9072 20.98L11.3889 19.84ZM10.6594 16.628L10.394 14.905L12.8457 14.463L12.4021 16.908L10.6594 16.628ZM10.6594 21.6949L12.4021 21.43L12.8457 23.877L10.394 23.4349L10.6594 21.6949ZM12.7423 20.584L11.7085 19.17L12.7423 17.7549L14.7951 19.17L12.7423 20.584ZM13.1184 16.73L13.4606 14.839C13.8 15.254 14.0861 15.713 14.3222 16.2L13.1184 16.73ZM12.4697 13.8489L10.5479 14.192L11.0275 12.951C11.5455 13.193 12.0313 13.4919 12.4697 13.8489ZM9.92399 13.9219L8.8126 12.338C9.361 12.392 9.88779 12.517 10.3911 12.692L9.92399 13.9219ZM7.4185 12.34L6.30939 13.947L5.76449 12.73C6.29009 12.537 6.8422 12.399 7.4185 12.34ZM5.68409 14.1899L3.78799 13.8489C4.20439 13.5099 4.66409 13.224 5.15279 12.989L5.68409 14.1899ZM3.14149 16.756L1.89839 16.277C2.14049 15.761 2.43959 15.276 2.79669 14.839L3.14149 16.756ZM1.92929 22.142L3.13929 21.61L2.79439 23.5129C2.45309 23.0949 2.16559 22.633 1.92929 22.142ZM3.77119 24.494L5.70969 24.147L5.22479 25.402C4.70249 25.157 4.21239 24.855 3.77119 24.494ZM5.86069 25.6609L6.33299 24.417L7.4563 26.019C6.90179 25.965 6.36919 25.839 5.86069 25.6609ZM8.82689 26.017L9.9474 24.3929L10.4986 25.624C9.96769 25.819 9.40969 25.958 8.82689 26.017ZM10.5736 24.149L12.486 24.494C12.067 24.837 11.6034 25.126 11.1107 25.364L10.5736 24.149ZM13.1162 21.584L14.3659 22.0649C14.1234 22.5859 13.8223 23.074 13.4627 23.514L13.1162 21.584Z" fill="black" fill-opacity="0.2"/>
<path d="M8.12849 11.553C6.03429 11.553 4.13529 12.401 2.75479 13.77L2.74989 13.7709V13.774C1.35899 15.156 0.496094 17.068 0.496094 19.178C0.496094 23.382 3.92 26.803 8.1284 26.803C12.3374 26.803 15.7613 23.382 15.7613 19.178C15.7614 14.973 12.3375 11.553 8.12849 11.553ZM14.9758 18.489L13.3619 17.3699L14.5864 16.824C14.7802 17.353 14.9177 17.909 14.9758 18.489ZM14.6173 21.4479L13.3691 20.963L14.9772 19.839C14.9236 20.398 14.7974 20.9349 14.6173 21.4479ZM8.12919 22.743L9.54639 23.774L8.12849 25.822L6.71119 23.7889L8.12919 22.743ZM6.49059 23.103L6.31319 21.9399L7.45399 22.408L6.49059 23.103ZM8.8023 22.425L9.9423 21.957L9.7524 23.119L8.8023 22.425ZM8.12849 21.978L6.13799 21.1559L5.31459 19.17L6.13799 17.184L8.12849 16.361L10.119 17.184L10.943 19.17L10.119 21.1559L8.12849 21.978ZM1.28099 19.85L2.89509 20.9689L1.66599 21.517C1.47319 20.988 1.33779 20.431 1.28099 19.85ZM1.64569 16.894L2.88779 17.376L1.28129 18.499C1.33639 17.941 1.46459 17.405 1.64569 16.894ZM1.46249 19.17L3.51459 17.7549L4.54899 19.17L3.51459 20.584L1.46249 19.17ZM4.86739 18.498L4.17159 17.551L5.33519 17.374L4.86739 18.498ZM4.88279 19.842L5.35129 20.98L4.18699 20.79L4.88279 19.842ZM3.85479 16.9089L3.41199 14.463L5.86369 14.905L5.59749 16.644L3.85479 16.9089ZM3.85479 21.431L5.59759 21.712L5.86299 23.4349L3.41199 23.877L3.85479 21.431ZM8.12779 15.597L6.71129 14.566L8.12859 12.517L9.54649 14.551L8.12779 15.597ZM9.76709 15.236L9.94379 16.4L8.80309 15.931L9.76709 15.236ZM7.45469 15.9139L6.31459 16.3829L6.50519 15.22L7.45469 15.9139ZM11.3882 18.498L10.9072 17.36L12.0722 17.55L11.3882 18.498ZM11.3889 19.84L12.0869 20.79L10.9072 20.98L11.3889 19.84ZM10.6594 16.628L10.394 14.905L12.8457 14.463L12.4021 16.908L10.6594 16.628ZM10.6594 21.6949L12.4021 21.43L12.8457 23.877L10.394 23.4349L10.6594 21.6949ZM12.7423 20.584L11.7085 19.17L12.7423 17.7549L14.7951 19.17L12.7423 20.584ZM13.1184 16.73L13.4606 14.839C13.8 15.254 14.0861 15.713 14.3222 16.2L13.1184 16.73ZM12.4697 13.8489L10.5479 14.192L11.0275 12.951C11.5455 13.193 12.0313 13.4919 12.4697 13.8489ZM9.92399 13.9219L8.8126 12.338C9.361 12.392 9.88779 12.517 10.3911 12.692L9.92399 13.9219ZM7.4185 12.34L6.30939 13.947L5.76449 12.73C6.29009 12.537 6.8422 12.399 7.4185 12.34ZM5.68409 14.1899L3.78799 13.8489C4.20439 13.5099 4.66409 13.224 5.15279 12.989L5.68409 14.1899ZM3.14149 16.756L1.89839 16.277C2.14049 15.761 2.43959 15.276 2.79669 14.839L3.14149 16.756ZM1.92929 22.142L3.13929 21.61L2.79439 23.5129C2.45309 23.0949 2.16559 22.633 1.92929 22.142ZM3.77119 24.494L5.70969 24.147L5.22479 25.402C4.70249 25.157 4.21239 24.855 3.77119 24.494ZM5.86069 25.6609L6.33299 24.417L7.4563 26.019C6.90179 25.965 6.36919 25.839 5.86069 25.6609ZM8.82689 26.017L9.9474 24.3929L10.4986 25.624C9.96769 25.819 9.40969 25.958 8.82689 26.017ZM10.5736 24.149L12.486 24.494C12.067 24.837 11.6034 25.126 11.1107 25.364L10.5736 24.149ZM13.1162 21.584L14.3659 22.0649C14.1234 22.5859 13.8223 23.074 13.4627 23.514L13.1162 21.584Z" fill="black" fill-opacity="0.2"/>
</g>
<g id="Vector_2">
<path d="M16.126 0.627014C16.3452 0.386014 16.1745 0 15.849 0C15.7435 0 15.643 0.0440093 15.5719 0.122009L10.3375 5.87103C10.0588 5.04403 9.01018 4.43005 8.11618 4.43005C7.22628 4.43005 6.18578 5.03504 5.89718 5.87604L0.652076 0.122009C0.581076 0.0440093 0.480576 0 0.375276 0C0.0498762 0 -0.120722 0.386014 0.098478 0.627014L5.88188 6.97101L6.25388 10.445C6.25388 11.471 7.08888 12.3051 8.11618 12.3051C8.59928 12.3051 9.06338 12.112 9.42488 11.761C9.77158 11.415 9.97028 10.935 9.96808 10.486L10.3455 6.97504L16.126 0.627014ZM9.21948 10.445C9.21948 10.737 9.10058 11.0231 8.89678 11.2271C8.67978 11.4381 8.40258 11.5551 8.11598 11.5551C7.50308 11.5551 7.00448 11.057 7.00238 10.405L6.56178 6.29004C6.56178 5.72904 7.45188 5.18005 8.11598 5.18005C8.76998 5.18005 9.64468 5.71701 9.66228 6.27301L9.21948 10.445Z" fill="#333335"/>
<path d="M16.126 0.627014C16.3452 0.386014 16.1745 0 15.849 0C15.7435 0 15.643 0.0440093 15.5719 0.122009L10.3375 5.87103C10.0588 5.04403 9.01018 4.43005 8.11618 4.43005C7.22628 4.43005 6.18578 5.03504 5.89718 5.87604L0.652076 0.122009C0.581076 0.0440093 0.480576 0 0.375276 0C0.0498762 0 -0.120722 0.386014 0.098478 0.627014L5.88188 6.97101L6.25388 10.445C6.25388 11.471 7.08888 12.3051 8.11618 12.3051C8.59928 12.3051 9.06338 12.112 9.42488 11.761C9.77158 11.415 9.97028 10.935 9.96808 10.486L10.3455 6.97504L16.126 0.627014ZM9.21948 10.445C9.21948 10.737 9.10058 11.0231 8.89678 11.2271C8.67978 11.4381 8.40258 11.5551 8.11598 11.5551C7.50308 11.5551 7.00448 11.057 7.00238 10.405L6.56178 6.29004C6.56178 5.72904 7.45188 5.18005 8.11598 5.18005C8.76998 5.18005 9.64468 5.71701 9.66228 6.27301L9.21948 10.445Z" fill="black" fill-opacity="0.2"/>
<path d="M16.126 0.627014C16.3452 0.386014 16.1745 0 15.849 0C15.7435 0 15.643 0.0440093 15.5719 0.122009L10.3375 5.87103C10.0588 5.04403 9.01018 4.43005 8.11618 4.43005C7.22628 4.43005 6.18578 5.03504 5.89718 5.87604L0.652076 0.122009C0.581076 0.0440093 0.480576 0 0.375276 0C0.0498762 0 -0.120722 0.386014 0.098478 0.627014L5.88188 6.97101L6.25388 10.445C6.25388 11.471 7.08888 12.3051 8.11618 12.3051C8.59928 12.3051 9.06338 12.112 9.42488 11.761C9.77158 11.415 9.97028 10.935 9.96808 10.486L10.3455 6.97504L16.126 0.627014ZM9.21948 10.445C9.21948 10.737 9.10058 11.0231 8.89678 11.2271C8.67978 11.4381 8.40258 11.5551 8.11598 11.5551C7.50308 11.5551 7.00448 11.057 7.00238 10.405L6.56178 6.29004C6.56178 5.72904 7.45188 5.18005 8.11598 5.18005C8.76998 5.18005 9.64468 5.71701 9.66228 6.27301L9.21948 10.445Z" fill="black" fill-opacity="0.2"/>
<path d="M16.126 0.627014C16.3452 0.386014 16.1745 0 15.849 0C15.7435 0 15.643 0.0440093 15.5719 0.122009L10.3375 5.87103C10.0588 5.04403 9.01018 4.43005 8.11618 4.43005C7.22628 4.43005 6.18578 5.03504 5.89718 5.87604L0.652076 0.122009C0.581076 0.0440093 0.480576 0 0.375276 0C0.0498762 0 -0.120722 0.386014 0.098478 0.627014L5.88188 6.97101L6.25388 10.445C6.25388 11.471 7.08888 12.3051 8.11618 12.3051C8.59928 12.3051 9.06338 12.112 9.42488 11.761C9.77158 11.415 9.97028 10.935 9.96808 10.486L10.3455 6.97504L16.126 0.627014ZM9.21948 10.445C9.21948 10.737 9.10058 11.0231 8.89678 11.2271C8.67978 11.4381 8.40258 11.5551 8.11598 11.5551C7.50308 11.5551 7.00448 11.057 7.00238 10.405L6.56178 6.29004C6.56178 5.72904 7.45188 5.18005 8.11598 5.18005C8.76998 5.18005 9.64468 5.71701 9.66228 6.27301L9.21948 10.445Z" fill="black" fill-opacity="0.2"/>
<path d="M16.126 0.627014C16.3452 0.386014 16.1745 0 15.849 0C15.7435 0 15.643 0.0440093 15.5719 0.122009L10.3375 5.87103C10.0588 5.04403 9.01018 4.43005 8.11618 4.43005C7.22628 4.43005 6.18578 5.03504 5.89718 5.87604L0.652076 0.122009C0.581076 0.0440093 0.480576 0 0.375276 0C0.0498762 0 -0.120722 0.386014 0.098478 0.627014L5.88188 6.97101L6.25388 10.445C6.25388 11.471 7.08888 12.3051 8.11618 12.3051C8.59928 12.3051 9.06338 12.112 9.42488 11.761C9.77158 11.415 9.97028 10.935 9.96808 10.486L10.3455 6.97504L16.126 0.627014ZM9.21948 10.445C9.21948 10.737 9.10058 11.0231 8.89678 11.2271C8.67978 11.4381 8.40258 11.5551 8.11598 11.5551C7.50308 11.5551 7.00448 11.057 7.00238 10.405L6.56178 6.29004C6.56178 5.72904 7.45188 5.18005 8.11598 5.18005C8.76998 5.18005 9.64468 5.71701 9.66228 6.27301L9.21948 10.445Z" fill="black" fill-opacity="0.2"/>
<path d="M16.126 0.627014C16.3452 0.386014 16.1745 0 15.849 0C15.7435 0 15.643 0.0440093 15.5719 0.122009L10.3375 5.87103C10.0588 5.04403 9.01018 4.43005 8.11618 4.43005C7.22628 4.43005 6.18578 5.03504 5.89718 5.87604L0.652076 0.122009C0.581076 0.0440093 0.480576 0 0.375276 0C0.0498762 0 -0.120722 0.386014 0.098478 0.627014L5.88188 6.97101L6.25388 10.445C6.25388 11.471 7.08888 12.3051 8.11618 12.3051C8.59928 12.3051 9.06338 12.112 9.42488 11.761C9.77158 11.415 9.97028 10.935 9.96808 10.486L10.3455 6.97504L16.126 0.627014ZM9.21948 10.445C9.21948 10.737 9.10058 11.0231 8.89678 11.2271C8.67978 11.4381 8.40258 11.5551 8.11598 11.5551C7.50308 11.5551 7.00448 11.057 7.00238 10.405L6.56178 6.29004C6.56178 5.72904 7.45188 5.18005 8.11598 5.18005C8.76998 5.18005 9.64468 5.71701 9.66228 6.27301L9.21948 10.445Z" fill="black" fill-opacity="0.2"/>
<path d="M16.126 0.627014C16.3452 0.386014 16.1745 0 15.849 0C15.7435 0 15.643 0.0440093 15.5719 0.122009L10.3375 5.87103C10.0588 5.04403 9.01018 4.43005 8.11618 4.43005C7.22628 4.43005 6.18578 5.03504 5.89718 5.87604L0.652076 0.122009C0.581076 0.0440093 0.480576 0 0.375276 0C0.0498762 0 -0.120722 0.386014 0.098478 0.627014L5.88188 6.97101L6.25388 10.445C6.25388 11.471 7.08888 12.3051 8.11618 12.3051C8.59928 12.3051 9.06338 12.112 9.42488 11.761C9.77158 11.415 9.97028 10.935 9.96808 10.486L10.3455 6.97504L16.126 0.627014ZM9.21948 10.445C9.21948 10.737 9.10058 11.0231 8.89678 11.2271C8.67978 11.4381 8.40258 11.5551 8.11598 11.5551C7.50308 11.5551 7.00448 11.057 7.00238 10.405L6.56178 6.29004C6.56178 5.72904 7.45188 5.18005 8.11598 5.18005C8.76998 5.18005 9.64468 5.71701 9.66228 6.27301L9.21948 10.445Z" fill="black" fill-opacity="0.2"/>
<path d="M16.126 0.627014C16.3452 0.386014 16.1745 0 15.849 0C15.7435 0 15.643 0.0440093 15.5719 0.122009L10.3375 5.87103C10.0588 5.04403 9.01018 4.43005 8.11618 4.43005C7.22628 4.43005 6.18578 5.03504 5.89718 5.87604L0.652076 0.122009C0.581076 0.0440093 0.480576 0 0.375276 0C0.0498762 0 -0.120722 0.386014 0.098478 0.627014L5.88188 6.97101L6.25388 10.445C6.25388 11.471 7.08888 12.3051 8.11618 12.3051C8.59928 12.3051 9.06338 12.112 9.42488 11.761C9.77158 11.415 9.97028 10.935 9.96808 10.486L10.3455 6.97504L16.126 0.627014ZM9.21948 10.445C9.21948 10.737 9.10058 11.0231 8.89678 11.2271C8.67978 11.4381 8.40258 11.5551 8.11598 11.5551C7.50308 11.5551 7.00448 11.057 7.00238 10.405L6.56178 6.29004C6.56178 5.72904 7.45188 5.18005 8.11598 5.18005C8.76998 5.18005 9.64468 5.71701 9.66228 6.27301L9.21948 10.445Z" fill="black" fill-opacity="0.2"/>
<path d="M16.126 0.627014C16.3452 0.386014 16.1745 0 15.849 0C15.7435 0 15.643 0.0440093 15.5719 0.122009L10.3375 5.87103C10.0588 5.04403 9.01018 4.43005 8.11618 4.43005C7.22628 4.43005 6.18578 5.03504 5.89718 5.87604L0.652076 0.122009C0.581076 0.0440093 0.480576 0 0.375276 0C0.0498762 0 -0.120722 0.386014 0.098478 0.627014L5.88188 6.97101L6.25388 10.445C6.25388 11.471 7.08888 12.3051 8.11618 12.3051C8.59928 12.3051 9.06338 12.112 9.42488 11.761C9.77158 11.415 9.97028 10.935 9.96808 10.486L10.3455 6.97504L16.126 0.627014ZM9.21948 10.445C9.21948 10.737 9.10058 11.0231 8.89678 11.2271C8.67978 11.4381 8.40258 11.5551 8.11598 11.5551C7.50308 11.5551 7.00448 11.057 7.00238 10.405L6.56178 6.29004C6.56178 5.72904 7.45188 5.18005 8.11598 5.18005C8.76998 5.18005 9.64468 5.71701 9.66228 6.27301L9.21948 10.445Z" fill="black" fill-opacity="0.2"/>
</g>
</g>
</svg>
