<svg width="20" height="20" viewBox="0 0 20 20" fill="none" xmlns="http://www.w3.org/2000/svg">
<g id="Group">
<path id="Vector" d="M10 20C15.5228 20 20 15.5228 20 10C20 4.47715 15.5228 0 10 0C4.47715 0 0 4.47715 0 10C0 15.5228 4.47715 20 10 20Z" fill="#B8F94B"/>
<path id="Vector_2" d="M3.1377 7.36876L4.25991 9.99988L5.97436 6.31543L3.1377 7.36876Z" fill="#337F03"/>
<path id="Vector_3" d="M2.60938 3.26446L7.22158 3.40226L6.18603 0.757812C4.81048 1.32337 3.59382 2.18557 2.60938 3.26446Z" fill="#E3FD44"/>
<path id="Vector_4" d="M6.09473 13.8477L7.45807 16.641L10.0581 15.5054L6.09473 13.8477Z" fill="#337F03"/>
<path id="Vector_5" d="M3.01758 12.5489L6.09534 13.8478L4.2598 10L3.01758 12.5489Z" fill="#0D4903"/>
<path id="Vector_6" d="M2.60938 3.26465L3.13826 7.36909L5.97492 6.31576L7.22158 3.40245L2.60938 3.26465Z" fill="#97EE02"/>
<path id="Vector_7" d="M0 9.99976C0 10.0731 -2.44162e-06 10.1498 0.004442 10.2231L3.13778 7.36864L0.726666 6.25977C0.257777 7.41643 0 8.67532 0 9.99976Z" fill="#002600"/>
<path id="Vector_8" d="M0.722656 6.26022L3.13822 7.36909L2.60933 3.26465C1.81377 4.13465 1.17377 5.15022 0.722656 6.26022Z" fill="#BAF32A"/>
<path id="Vector_9" d="M0.00488281 10.2231L3.01822 12.5487L4.26044 9.99978L3.13822 7.36865L0.00488281 10.2231Z" fill="#BAF32A"/>
<path id="Vector_10" d="M0.816406 13.9588C1.29752 15.0688 1.97308 16.0799 2.80196 16.9366L3.02196 12.5488L0.816406 13.9588Z" fill="#002600"/>
<path id="Vector_11" d="M10.0576 15.5055L12.8987 16.5166L13.8832 13.9033L10.0576 15.5055Z" fill="#337F03"/>
<path id="Vector_12" d="M0.00488281 10.2222C0.0304384 11.5466 0.318219 12.8099 0.817108 13.9588L3.02266 12.5488L0.00488281 10.2222Z" fill="#BAF32A"/>
<path id="Vector_13" d="M10.0576 4.61468L13.9043 6.23466L12.8987 3.52246L10.0576 4.61468Z" fill="#FEFFA6"/>
<path id="Vector_14" d="M5.97461 6.31565L10.0579 4.61457L7.22127 3.40234L5.97461 6.31565Z" fill="#0D4903"/>
<path id="Vector_15" d="M14.0469 13.7922L16.9224 12.6733L15.5046 10L14.0469 13.7922Z" fill="#0D4903"/>
<path id="Vector_16" d="M13.9053 6.2334L15.5042 10.0001L16.7464 7.36896L13.9053 6.2334Z" fill="#0D4903"/>
<path id="Vector_17" d="M16.9219 12.6733L17.2019 16.9411C18.0308 16.08 18.7063 15.0733 19.1874 13.9633L16.9219 12.6733Z" fill="#002600"/>
<path id="Vector_18" d="M16.7471 7.3688L20.0004 9.99993C20.0004 8.7277 19.7637 7.51103 19.326 6.3877L16.7471 7.3688Z" fill="#BAF32A"/>
<path id="Vector_19" d="M16.9219 12.6733L19.183 13.9589C19.7074 12.7467 19.9997 11.4056 19.9997 10L16.9219 12.6733Z" fill="#BAF32A"/>
<path id="Vector_20" d="M15.5049 9.99978L16.9227 12.6731L20.0004 9.99978L16.7471 7.36865L15.5049 9.99978Z" fill="#97EE02"/>
<path id="Vector_21" d="M12.8984 16.5167L17.2018 16.9367L16.9218 12.6689L14.0418 13.7878L14.0207 13.8434L13.8784 13.9034L12.8984 16.5167Z" fill="#BAF32A"/>
<path id="Vector_22" d="M2.79785 16.9367C2.79785 16.9411 2.79785 16.9411 2.79785 16.9367C3.70896 17.8834 4.80562 18.65 6.02673 19.1822L7.45339 16.6411C7.45784 16.6411 2.87563 16.8722 2.79785 16.9367Z" fill="#BAF32A"/>
<path id="Vector_23" d="M6.18066 0.754428L7.22065 3.40224L10.0018 0C8.64733 0 7.35844 0.269984 6.18066 0.754428Z" fill="#97EE02"/>
<path id="Vector_24" d="M6.0293 19.1778C7.24596 19.7045 8.59152 19.9956 10.0015 19.9956L7.45708 16.6367L6.0293 19.1778Z" fill="#358002"/>
<path id="Vector_25" d="M10.002 19.9999C11.4764 19.9999 12.8731 19.6833 14.1331 19.1088L12.8986 16.5166L10.002 19.9999Z" fill="#8FBC19"/>
<path id="Vector_26" d="M12.8984 16.5166L14.1329 19.1088C15.2884 18.5822 16.3284 17.8444 17.2018 16.9411L12.8984 16.5166Z" fill="#BAF32A"/>
<path id="Vector_27" d="M12.8984 3.52203L17.3907 3.26422C16.4195 2.202 15.224 1.34979 13.8784 0.779785L12.8984 3.52203Z" fill="#0D4903"/>
<path id="Vector_28" d="M12.8984 3.52245L13.9051 6.23465L16.7462 7.36909L17.3907 3.26465L12.8984 3.52245Z" fill="#8BE800"/>
<path id="Vector_29" d="M10.002 0L12.9031 3.52224L13.8831 0.779995C12.6886 0.278884 11.3775 0 10.002 0Z" fill="#97EE02"/>
<path id="Vector_30" d="M16.7471 7.36909L19.3293 6.38799C18.8782 5.22688 18.2204 4.16909 17.396 3.26465L16.7471 7.36909Z" fill="#BAF32A"/>
<path id="Vector_31" d="M7.2207 3.40224L10.0574 4.61446L12.8985 3.52224L10.0018 0L7.2207 3.40224Z" fill="#358002"/>
<path id="Vector_32" d="M13.8838 13.9031L14.026 13.8476L14.0471 13.792L13.906 13.8476L13.8838 13.9031Z" fill="#002600"/>
<path id="Vector_33" d="M2.79785 16.9366C2.87563 16.8766 7.45339 16.641 7.45339 16.641L6.09117 13.8477L3.01341 12.5532L2.79785 16.9366Z" fill="#97EE02"/>
<path id="Vector_34" d="M7.45801 16.6409L10.0024 19.9998L12.8991 16.5165L10.058 15.5054L7.45801 16.6409Z" fill="#97EE02"/>
</g>
</svg>
