<svg width="18" height="18" viewBox="0 0 18 18" fill="none" xmlns="http://www.w3.org/2000/svg">
<path d="M17.1822 0.644531H0.813355L0.640625 0.817261V17.1861L0.813355 17.3588H17.1822L17.3549 17.1861V0.817261L17.1822 0.644531ZM17.0095 12.3739H15.4476V5.62914H17.0117L17.0095 12.3739ZM0.98615 5.62914H2.54796V12.3739H0.98615V5.62914ZM5.62564 2.9802L8.51657 4.09048L5.62564 5.20303V2.9802ZM3.90267 9.00138L2.896 11.6182V6.38473L3.90267 9.00138ZM2.98135 5.62906H5.20419L4.08699 8.51999L2.98135 5.62906ZM4.09164 9.48281L5.20419 12.3737H2.9767L4.09164 9.48281ZM5.63029 12.7999L8.52122 13.9124L5.62577 15.0227L5.63029 12.7999ZM5.59109 12.413L4.27353 9.00141L5.5866 5.58985L8.998 4.27693L12.4096 5.59001L13.7225 9.00141L12.4094 12.413L8.998 13.7259L5.59109 12.413ZM12.3749 5.20302L9.47943 4.09047L12.3704 2.98019L12.3749 5.20302ZM12.3749 12.8046V15.0274L9.47943 13.9125L12.3749 12.8046ZM13.9135 9.48749L15.0238 12.3784H12.7963L13.9135 9.48749ZM14.0978 9.0061L15.1045 6.38928V11.6182L14.0978 9.0061ZM13.9135 8.52471L12.7963 5.62925H15.0192L13.9135 8.52471ZM8.99804 3.90619L6.38123 2.89952H11.6147L8.99804 3.90619ZM5.28024 5.28838L2.57358 5.28822L1.10626 1.14192L5.28011 2.86037L5.28024 5.28838ZM5.28024 12.7242V15.1589L1.10638 16.8774L2.57371 12.7311L5.28024 12.7242ZM8.99804 14.1063L11.6149 15.113L6.38139 15.1127L8.99804 14.1063ZM12.7158 12.7242H15.4225L16.8898 16.8704L12.716 15.1589L12.7158 12.7242ZM12.7158 5.28838V2.84428L16.8897 1.12583L15.4224 5.27213L12.7158 5.28838ZM12.7158 2.47342V0.990048H16.3093L12.7158 2.47342ZM12.3704 2.55858H5.62566V0.989854H12.3704V2.55858ZM5.28014 2.47342L1.68672 0.994531H5.28014V2.47342ZM2.20731 5.28369H0.986458V1.82844L2.20731 5.28369ZM0.986458 12.7195H2.20731L0.986458 16.1747V12.7195ZM5.28001 15.5344V17.0133H1.6866L5.28001 15.5344ZM5.62547 15.4493H12.3702V17.0133L5.62547 17.0131V15.4493ZM12.7157 15.5344L16.3091 17.0133H12.7157V15.5344ZM15.7886 12.7195H17.0094V16.1747L15.7886 12.7195ZM17.0094 5.28369H15.7886L17.0094 1.82844V5.28369Z" fill="black"/>
</svg>
