<svg width="42" height="36" viewBox="0 0 42 36" fill="none" xmlns="http://www.w3.org/2000/svg">
<g id="ring icons">
<path id="Vector" d="M36.6075 15.4874H23.1375C22.5525 14.9774 21.7875 14.6924 20.9999 14.6924C20.1975 14.6924 19.4475 14.9774 18.855 15.4874H5.39248C4.00488 15.4874 2.87988 16.6124 2.87988 17.9994C2.87988 19.3874 4.00488 20.5124 5.39248 20.5124H18.8475C19.425 21.0074 20.1825 21.3074 20.9999 21.3074C21.8175 21.3074 22.575 21.0074 23.1525 20.5124H36.6075C37.9951 20.5124 39.1201 19.3874 39.1201 17.9994C39.12 16.6124 37.995 15.4874 36.6075 15.4874ZM22.8 18.5994L22.3574 17.9924L22.8 17.3924L23.55 17.9094C23.55 17.9394 23.5575 17.9694 23.5575 17.9994C23.5575 18.0224 23.55 18.0524 23.55 18.0824L22.8 18.5994ZM23.5275 18.3224C23.4975 18.5094 23.4601 18.6974 23.3926 18.8694L22.9726 18.7044L23.5275 18.3224ZM20.9999 19.1324L20.19 18.8024L19.8599 17.9924L20.19 17.1894L20.9999 16.8524L21.81 17.1894L22.14 17.9924L21.81 18.8024L20.9999 19.1324ZM21.7576 19.0274L21.66 19.6044L21.1874 19.2594L21.7576 19.0274ZM20.8124 19.2524L20.3325 19.5974L20.2426 19.0194L20.8124 19.2524ZM18.45 18.0824C18.45 18.0524 18.4425 18.0224 18.4425 17.9994C18.4425 17.9694 18.45 17.9394 18.45 17.9094L19.2 17.3924L19.6426 17.9924L19.2 18.5994L18.45 18.0824ZM19.0275 18.7044L18.615 18.8924C18.5474 18.7124 18.5026 18.5244 18.4725 18.3224L19.0275 18.7044ZM18.465 17.6774C18.4875 17.4824 18.5401 17.3024 18.6075 17.1224L19.0275 17.2794L18.465 17.6774ZM19.3875 17.3324L19.965 17.2424L19.7325 17.8044L19.3875 17.3324ZM19.74 18.1874L19.9725 18.7494L19.395 18.6594L19.74 18.1874ZM20.2426 16.9644L20.34 16.3794L20.8124 16.7324L20.2426 16.9644ZM21.1874 16.7324L21.6675 16.3874L21.7576 16.9644L21.1874 16.7324ZM22.0275 17.2424L22.605 17.3324L22.2675 17.8044L22.0275 17.2424ZM22.2676 18.1874L22.6126 18.6594L22.0276 18.7494L22.2676 18.1874ZM22.9725 17.2794L23.385 17.0994C23.4601 17.2874 23.5124 17.4744 23.535 17.6694L22.9725 17.2794ZM23.0251 16.4474C23.0701 16.5144 23.1225 16.5744 23.16 16.6494C23.2201 16.7324 23.2649 16.8294 23.31 16.9194L22.905 17.0994L23.0251 16.4474ZM22.8376 16.2374C22.8451 16.2444 22.8526 16.2524 22.8599 16.2594L22.7024 17.1524L21.9601 17.0324L21.8475 16.2974L22.1699 16.2374L22.7399 16.1324C22.7775 16.1624 22.8075 16.1994 22.8376 16.2374ZM22.05 15.6744C22.23 15.7574 22.395 15.8544 22.5524 15.9744L21.885 16.0944L22.05 15.6744ZM21.4425 15.4874C21.5925 15.5094 21.7349 15.5544 21.8701 15.5994L21.7126 16.0194L21.3376 15.4874L21.3226 15.4644C21.3599 15.4724 21.4049 15.4724 21.4425 15.4874ZM20.91 15.4494C20.94 15.4494 20.9701 15.4424 20.9999 15.4424C21.0299 15.4424 21.0525 15.4494 21.0825 15.4494L21.1125 15.4874L21.6074 16.1924L21.5473 16.2374L20.9998 16.6424L20.445 16.2374L20.3924 16.1994L20.8873 15.4874L20.91 15.4494ZM20.6549 15.4874L20.2799 16.0194L20.0999 15.6224C20.2799 15.5544 20.4601 15.5094 20.6549 15.4874ZM19.9275 15.6894L20.1075 16.0944L19.4626 15.9744C19.6125 15.8624 19.7625 15.7724 19.9275 15.6894ZM19.1625 16.2374C19.1925 16.1994 19.2151 16.1624 19.2526 16.1324L19.8226 16.2374L20.1526 16.2974L20.0402 17.0394L19.2975 17.1524L19.14 16.2674C19.1476 16.2594 19.1549 16.2444 19.1625 16.2374ZM18.9825 16.4624L19.0951 17.1074L18.6751 16.9424C18.7201 16.8374 18.7727 16.7394 18.8326 16.6424C18.8775 16.5744 18.9301 16.5224 18.9825 16.4624ZM5.39258 19.7624C4.42508 19.7624 3.62998 18.9744 3.62998 17.9994C3.62998 17.0244 4.42498 16.2374 5.39258 16.2374H18.2025C18.1952 16.2374 18.1952 16.2444 18.1952 16.2444C17.8651 16.7694 17.6926 17.3774 17.6926 17.9994C17.6926 18.6444 17.8801 19.2524 18.2102 19.7624H5.39258ZM18.975 19.5444C18.8626 19.3944 18.765 19.2374 18.6826 19.0724L19.0951 18.8924L18.975 19.5444ZM19.1549 19.7624L19.1326 19.7394L19.2974 18.8394L20.0401 18.9594L20.1525 19.6944L19.785 19.7624L19.2525 19.8594C19.2225 19.8294 19.185 19.7924 19.1549 19.7624ZM19.9425 20.3244C19.7625 20.2424 19.5975 20.1374 19.4476 20.0174L20.1075 19.8974L19.9425 20.3244ZM20.5951 20.5124C20.4301 20.4824 20.28 20.4524 20.13 20.3924L20.2875 19.9724L20.67 20.5124L20.6775 20.5274C20.6476 20.5194 20.6249 20.5194 20.5951 20.5124ZM21.0825 20.5494C21.0525 20.5494 21.0226 20.5574 20.9999 20.5574C20.9701 20.5574 20.9475 20.5494 20.9175 20.5494L20.895 20.5124L20.3926 19.7994L20.4452 19.7624L21 19.3494L21.5702 19.7624L21.6076 19.7924L21.1052 20.5124L21.0825 20.5494ZM21.4125 20.5124C21.39 20.5194 21.3599 20.5194 21.3376 20.5274L21.3451 20.5124L21.7201 19.9644L21.9076 20.3844C21.7499 20.4444 21.5851 20.4824 21.4125 20.5124ZM22.0801 20.3094L21.8926 19.8974L22.5525 20.0174C22.4025 20.1294 22.245 20.2274 22.0801 20.3094ZM22.8451 19.7624C22.8076 19.7924 22.7775 19.8294 22.7475 19.8594L22.215 19.7624L21.8475 19.6944L21.9601 18.9524L22.7024 18.8394L22.8676 19.7394C22.8599 19.7474 22.8526 19.7544 22.8451 19.7624ZM23.0251 19.5444L22.905 18.8844L23.325 19.0424C23.2426 19.2224 23.145 19.3874 23.0251 19.5444ZM36.6075 19.7624H23.7901C24.1201 19.2524 24.3076 18.6444 24.3076 17.9994C24.3076 17.3694 24.1276 16.7624 23.7975 16.2444C23.7975 16.2444 23.7975 16.2374 23.7902 16.2374H36.6076C37.5751 16.2374 38.3702 17.0244 38.3702 17.9994C38.37 18.9744 37.575 19.7624 36.6075 19.7624Z" fill="black"/>
</g>
</svg>
