<svg width="1280" height="90" viewBox="0 0 1280 90" fill="none" xmlns="http://www.w3.org/2000/svg">
<rect width="1280" height="90" fill="#F8F8F8"/>
<circle cx="264" cy="44.9998" r="9.00375" stroke="#A4AAAE" stroke-width="1.5" stroke-linecap="round" stroke-linejoin="round"/>
<path d="M264.5 41.499H267.501V44.5003" stroke="#A4AAAE" stroke-width="1.5" stroke-linecap="round" stroke-linejoin="round"/>
<path d="M263.499 48.5013H260.498V45.5" stroke="#A4AAAE" stroke-width="1.5" stroke-linecap="round" stroke-linejoin="round"/>
<path d="M289.232 51V40.57H295.672V41.62H290.352V45.246H295.252V46.296H290.352V51H289.232ZM297.367 51V40.57H300.951C301.632 40.57 302.229 40.7053 302.743 40.976C303.256 41.2373 303.653 41.6107 303.933 42.096C304.222 42.572 304.367 43.1273 304.367 43.762C304.367 44.4993 304.171 45.1293 303.779 45.652C303.396 46.1747 302.873 46.5433 302.211 46.758L304.647 51H303.331L300.783 46.506L301.539 46.94H298.487V51H297.367ZM298.487 45.89H301.007C301.455 45.89 301.847 45.806 302.183 45.638C302.519 45.4607 302.78 45.2133 302.967 44.896C303.153 44.5693 303.247 44.1867 303.247 43.748C303.247 43.3093 303.153 42.9313 302.967 42.614C302.78 42.2967 302.519 42.054 302.183 41.886C301.847 41.7087 301.455 41.62 301.007 41.62H298.487V45.89ZM306.336 51V40.57H313.056V41.62H307.456V45.246H312.776V46.296H307.456V49.95H313.056V51H306.336ZM314.908 51V40.57H321.628V41.62H316.028V45.246H321.348V46.296H316.028V49.95H321.628V51H314.908ZM325.859 51V40.57H329.443C330.124 40.57 330.722 40.7053 331.235 40.976C331.748 41.2373 332.145 41.6107 332.425 42.096C332.714 42.572 332.859 43.1273 332.859 43.762C332.859 44.4993 332.663 45.1293 332.271 45.652C331.888 46.1747 331.366 46.5433 330.703 46.758L333.139 51H331.823L329.275 46.506L330.031 46.94H326.979V51H325.859ZM326.979 45.89H329.499C329.947 45.89 330.339 45.806 330.675 45.638C331.011 45.4607 331.272 45.2133 331.459 44.896C331.646 44.5693 331.739 44.1867 331.739 43.748C331.739 43.3093 331.646 42.9313 331.459 42.614C331.272 42.2967 331.011 42.054 330.675 41.886C330.339 41.7087 329.947 41.62 329.499 41.62H326.979V45.89ZM334.828 51V40.57H341.548V41.62H335.948V45.246H341.268V46.296H335.948V49.95H341.548V51H334.828ZM346.914 51.168C346.251 51.168 345.649 51.042 345.108 50.79C344.567 50.538 344.109 50.202 343.736 49.782C343.363 49.3527 343.097 48.8813 342.938 48.368L343.946 47.99C344.189 48.6993 344.567 49.2407 345.08 49.614C345.593 49.978 346.205 50.16 346.914 50.16C347.362 50.16 347.754 50.09 348.09 49.95C348.435 49.8007 348.701 49.5953 348.888 49.334C349.075 49.0727 349.168 48.7693 349.168 48.424C349.168 47.9107 349.028 47.514 348.748 47.234C348.468 46.954 348.067 46.7393 347.544 46.59L345.668 46.03C344.931 45.8153 344.361 45.456 343.96 44.952C343.568 44.448 343.372 43.874 343.372 43.23C343.372 42.6793 343.507 42.194 343.778 41.774C344.049 41.3447 344.417 41.0087 344.884 40.766C345.36 40.5233 345.897 40.402 346.494 40.402C347.119 40.402 347.679 40.5187 348.174 40.752C348.678 40.976 349.103 41.2747 349.448 41.648C349.793 42.0213 350.041 42.4367 350.19 42.894L349.21 43.286C348.986 42.67 348.636 42.2033 348.16 41.886C347.693 41.5687 347.143 41.41 346.508 41.41C346.107 41.41 345.752 41.48 345.444 41.62C345.145 41.76 344.912 41.9607 344.744 42.222C344.576 42.4833 344.492 42.7913 344.492 43.146C344.492 43.5753 344.627 43.9627 344.898 44.308C345.169 44.644 345.584 44.896 346.144 45.064L347.796 45.554C348.617 45.7967 349.238 46.1467 349.658 46.604C350.078 47.0613 350.288 47.6353 350.288 48.326C350.288 48.886 350.143 49.3807 349.854 49.81C349.574 50.23 349.177 50.5613 348.664 50.804C348.16 51.0467 347.577 51.168 346.914 51.168ZM352.451 51V40.57H353.571V51H352.451ZM355.109 51V50.244L361.073 41.62H355.459V40.57H362.543V41.326L356.593 49.95H362.669V51H355.109ZM364.209 51V40.57H365.329V51H364.209ZM367.791 51V40.57H368.771L374.889 49.348H374.511V40.57H375.631V51H374.651L368.533 42.166H368.911V51H367.791ZM382.859 51.168C382.122 51.168 381.445 51.0373 380.829 50.776C380.213 50.5053 379.677 50.132 379.219 49.656C378.771 49.1707 378.421 48.6013 378.169 47.948C377.917 47.2947 377.791 46.576 377.791 45.792C377.791 45.008 377.917 44.2893 378.169 43.636C378.421 42.9827 378.771 42.4133 379.219 41.928C379.677 41.4427 380.213 41.0693 380.829 40.808C381.445 40.5373 382.122 40.402 382.859 40.402C383.569 40.402 384.203 40.528 384.763 40.78C385.333 41.032 385.809 41.3587 386.191 41.76C386.583 42.152 386.863 42.5673 387.031 43.006L386.023 43.496C385.762 42.8613 385.361 42.362 384.819 41.998C384.278 41.634 383.625 41.452 382.859 41.452C382.094 41.452 381.413 41.634 380.815 41.998C380.218 42.362 379.751 42.8707 379.415 43.524C379.079 44.168 378.911 44.924 378.911 45.792C378.911 46.6507 379.079 47.4067 379.415 48.06C379.751 48.7133 380.218 49.222 380.815 49.586C381.413 49.9407 382.094 50.118 382.859 50.118C383.541 50.118 384.152 49.9687 384.693 49.67C385.244 49.3713 385.678 48.9653 385.995 48.452C386.313 47.9293 386.471 47.332 386.471 46.66V46.086L386.975 46.59H382.859V45.61H387.591V46.478C387.591 47.1593 387.47 47.7893 387.227 48.368C386.985 48.9373 386.649 49.432 386.219 49.852C385.79 50.272 385.286 50.5987 384.707 50.832C384.138 51.056 383.522 51.168 382.859 51.168Z" fill="#1D1F1E"/>
<rect x="640" y="22" width="1" height="46" fill="#D9D9D9"/>
<path d="M730.15 37L727.154 26.57H728.288L730.878 35.908H730.64L733.3 26.57H734.49L737.136 35.908H736.884L739.488 26.57H740.622L737.626 37H736.436L733.762 27.62H734.014L731.34 37H730.15ZM744.715 37.168C744.015 37.168 743.38 37 742.811 36.664C742.251 36.3187 741.807 35.8473 741.481 35.25C741.154 34.6527 740.991 33.976 740.991 33.22C740.991 32.464 741.149 31.7967 741.467 31.218C741.784 30.63 742.213 30.168 742.755 29.832C743.305 29.496 743.921 29.328 744.603 29.328C745.144 29.328 745.625 29.4307 746.045 29.636C746.474 29.832 746.838 30.1027 747.137 30.448C747.435 30.784 747.664 31.1667 747.823 31.596C747.981 32.016 748.061 32.45 748.061 32.898C748.061 32.9913 748.056 33.0987 748.047 33.22C748.037 33.332 748.023 33.4487 748.005 33.57H741.663V32.59H747.403L746.899 33.01C746.983 32.4967 746.922 32.0393 746.717 31.638C746.521 31.2273 746.236 30.9053 745.863 30.672C745.489 30.4293 745.069 30.308 744.603 30.308C744.136 30.308 743.702 30.4293 743.301 30.672C742.909 30.9147 742.601 31.2553 742.377 31.694C742.153 32.1233 742.064 32.6367 742.111 33.234C742.064 33.8313 742.157 34.354 742.391 34.802C742.633 35.2407 742.96 35.5813 743.371 35.824C743.791 36.0667 744.239 36.188 744.715 36.188C745.265 36.188 745.727 36.0573 746.101 35.796C746.474 35.5347 746.777 35.208 747.011 34.816L747.907 35.292C747.757 35.628 747.529 35.9407 747.221 36.23C746.913 36.51 746.544 36.7387 746.115 36.916C745.695 37.084 745.228 37.168 744.715 37.168ZM755.805 37.168C755.096 37.168 754.452 37 753.873 36.664C753.294 36.3187 752.832 35.852 752.487 35.264C752.151 34.6667 751.983 33.99 751.983 33.234C751.983 32.4873 752.151 31.82 752.487 31.232C752.823 30.644 753.276 30.182 753.845 29.846C754.424 29.5007 755.077 29.328 755.805 29.328C756.533 29.328 757.182 29.496 757.751 29.832C758.33 30.168 758.782 30.63 759.109 31.218C759.445 31.806 759.613 32.478 759.613 33.234C759.613 33.9993 759.44 34.6807 759.095 35.278C758.75 35.866 758.288 36.328 757.709 36.664C757.14 37 756.505 37.168 755.805 37.168ZM755.805 36.118C756.309 36.118 756.762 35.992 757.163 35.74C757.574 35.488 757.896 35.1427 758.129 34.704C758.372 34.2653 758.493 33.7753 758.493 33.234C758.493 32.6927 758.372 32.2073 758.129 31.778C757.896 31.3487 757.574 31.008 757.163 30.756C756.762 30.504 756.309 30.378 755.805 30.378C755.301 30.378 754.844 30.504 754.433 30.756C754.032 31.008 753.71 31.3487 753.467 31.778C753.224 32.2073 753.103 32.6927 753.103 33.234C753.103 33.7753 753.224 34.2653 753.467 34.704C753.71 35.1427 754.032 35.488 754.433 35.74C754.844 35.992 755.301 36.118 755.805 36.118ZM761.961 37V30.546H760.463V29.496H761.961V28.824C761.961 28.3013 762.078 27.8627 762.311 27.508C762.545 27.144 762.853 26.8687 763.235 26.682C763.618 26.4953 764.029 26.402 764.467 26.402C764.561 26.402 764.668 26.4113 764.789 26.43C764.911 26.4393 765.009 26.4533 765.083 26.472V27.424C765.018 27.4053 764.929 27.396 764.817 27.396C764.705 27.3867 764.626 27.382 764.579 27.382C764.131 27.382 763.758 27.4893 763.459 27.704C763.161 27.9187 763.011 28.292 763.011 28.824V29.496H767.225V30.546H763.011V37H761.961ZM767.323 37V30.546H765.825V29.496H767.323V28.824C767.323 28.3013 767.44 27.8627 767.673 27.508C767.907 27.144 768.215 26.8687 768.597 26.682C768.98 26.4953 769.391 26.402 769.829 26.402C769.923 26.402 770.03 26.4113 770.151 26.43C770.273 26.4393 770.371 26.4533 770.445 26.472V27.424C770.38 27.4053 770.291 27.396 770.179 27.396C770.067 27.3867 769.988 27.382 769.941 27.382C769.493 27.382 769.12 27.4893 768.821 27.704C768.523 27.9187 768.373 28.292 768.373 28.824V29.496H770.207V30.546H768.373V37H767.323ZM775.053 37.168C774.353 37.168 773.718 37 773.149 36.664C772.589 36.3187 772.145 35.8473 771.819 35.25C771.492 34.6527 771.329 33.976 771.329 33.22C771.329 32.464 771.487 31.7967 771.805 31.218C772.122 30.63 772.551 30.168 773.093 29.832C773.643 29.496 774.259 29.328 774.941 29.328C775.482 29.328 775.963 29.4307 776.383 29.636C776.812 29.832 777.176 30.1027 777.475 30.448C777.773 30.784 778.002 31.1667 778.161 31.596C778.319 32.016 778.399 32.45 778.399 32.898C778.399 32.9913 778.394 33.0987 778.385 33.22C778.375 33.332 778.361 33.4487 778.343 33.57H772.001V32.59H777.741L777.237 33.01C777.321 32.4967 777.26 32.0393 777.055 31.638C776.859 31.2273 776.574 30.9053 776.201 30.672C775.827 30.4293 775.407 30.308 774.941 30.308C774.474 30.308 774.04 30.4293 773.639 30.672C773.247 30.9147 772.939 31.2553 772.715 31.694C772.491 32.1233 772.402 32.6367 772.449 33.234C772.402 33.8313 772.495 34.354 772.729 34.802C772.971 35.2407 773.298 35.5813 773.709 35.824C774.129 36.0667 774.577 36.188 775.053 36.188C775.603 36.188 776.065 36.0573 776.439 35.796C776.812 35.5347 777.115 35.208 777.349 34.816L778.245 35.292C778.095 35.628 777.867 35.9407 777.559 36.23C777.251 36.51 776.882 36.7387 776.453 36.916C776.033 37.084 775.566 37.168 775.053 37.168ZM780.25 37V29.496H781.3V30.728L781.16 30.546C781.337 30.1913 781.603 29.9113 781.958 29.706C782.322 29.5007 782.761 29.398 783.274 29.398H783.75V30.448H783.092C782.551 30.448 782.117 30.616 781.79 30.952C781.463 31.288 781.3 31.764 781.3 32.38V37H780.25ZM787.359 37V29.496H788.409V30.728L788.269 30.546C788.447 30.1913 788.713 29.9113 789.067 29.706C789.431 29.5007 789.87 29.398 790.383 29.398H790.859V30.448H790.201C789.66 30.448 789.226 30.616 788.899 30.952C788.573 31.288 788.409 31.764 788.409 32.38V37H787.359ZM795.506 37.168C794.806 37.168 794.171 37 793.602 36.664C793.042 36.3187 792.598 35.8473 792.272 35.25C791.945 34.6527 791.782 33.976 791.782 33.22C791.782 32.464 791.94 31.7967 792.258 31.218C792.575 30.63 793.004 30.168 793.546 29.832C794.096 29.496 794.712 29.328 795.394 29.328C795.935 29.328 796.416 29.4307 796.836 29.636C797.265 29.832 797.629 30.1027 797.928 30.448C798.226 30.784 798.455 31.1667 798.614 31.596C798.772 32.016 798.852 32.45 798.852 32.898C798.852 32.9913 798.847 33.0987 798.838 33.22C798.828 33.332 798.814 33.4487 798.796 33.57H792.454V32.59H798.194L797.69 33.01C797.774 32.4967 797.713 32.0393 797.508 31.638C797.312 31.2273 797.027 30.9053 796.654 30.672C796.28 30.4293 795.86 30.308 795.394 30.308C794.927 30.308 794.493 30.4293 794.092 30.672C793.7 30.9147 793.392 31.2553 793.168 31.694C792.944 32.1233 792.855 32.6367 792.902 33.234C792.855 33.8313 792.948 34.354 793.182 34.802C793.424 35.2407 793.751 35.5813 794.162 35.824C794.582 36.0667 795.03 36.188 795.506 36.188C796.056 36.188 796.518 36.0573 796.892 35.796C797.265 35.5347 797.568 35.208 797.802 34.816L798.698 35.292C798.548 35.628 798.32 35.9407 798.012 36.23C797.704 36.51 797.335 36.7387 796.906 36.916C796.486 37.084 796.019 37.168 795.506 37.168ZM803.307 37.168C802.588 37.168 801.958 36.986 801.417 36.622C800.876 36.258 800.484 35.7633 800.241 35.138L801.123 34.718C801.338 35.1753 801.636 35.5393 802.019 35.81C802.411 36.0807 802.84 36.216 803.307 36.216C803.755 36.216 804.133 36.1087 804.441 35.894C804.749 35.67 804.903 35.3807 804.903 35.026C804.903 34.7647 804.828 34.5593 804.679 34.41C804.53 34.2513 804.357 34.13 804.161 34.046C803.965 33.962 803.792 33.9013 803.643 33.864L802.565 33.556C801.874 33.36 801.375 33.0847 801.067 32.73C800.759 32.3753 800.605 31.9647 800.605 31.498C800.605 31.0593 800.717 30.6767 800.941 30.35C801.165 30.0233 801.468 29.7713 801.851 29.594C802.234 29.4167 802.658 29.328 803.125 29.328C803.76 29.328 804.334 29.496 804.847 29.832C805.37 30.1587 805.738 30.616 805.953 31.204L805.057 31.624C804.87 31.204 804.6 30.8773 804.245 30.644C803.9 30.4013 803.512 30.28 803.083 30.28C802.663 30.28 802.327 30.3873 802.075 30.602C801.823 30.8167 801.697 31.0873 801.697 31.414C801.697 31.666 801.762 31.8667 801.893 32.016C802.024 32.1653 802.173 32.2773 802.341 32.352C802.518 32.4267 802.672 32.4827 802.803 32.52L804.049 32.884C804.656 33.0613 805.127 33.3367 805.463 33.71C805.808 34.0833 805.981 34.522 805.981 35.026C805.981 35.4367 805.864 35.8053 805.631 36.132C805.407 36.4587 805.094 36.7153 804.693 36.902C804.292 37.0793 803.83 37.168 803.307 37.168ZM807.826 37V29.496H808.876V37H807.826ZM807.826 28.11V26.57H808.876V28.11H807.826ZM810.255 37V36.09L814.777 30.14L814.973 30.546H810.493V29.496H815.897V30.406L811.389 36.356L811.193 35.95H815.925V37H810.255ZM817.314 37V29.496H818.364V37H817.314ZM817.314 28.11V26.57H818.364V28.11H817.314ZM820.514 37V29.496H821.564V30.952L821.326 30.896C821.512 30.4107 821.816 30.028 822.236 29.748C822.665 29.468 823.16 29.328 823.72 29.328C824.252 29.328 824.728 29.4493 825.148 29.692C825.577 29.9347 825.913 30.2707 826.156 30.7C826.408 31.12 826.534 31.596 826.534 32.128V37H825.484V32.534C825.484 32.0767 825.4 31.6893 825.232 31.372C825.073 31.0547 824.844 30.812 824.546 30.644C824.256 30.4667 823.92 30.378 823.538 30.378C823.155 30.378 822.814 30.4667 822.516 30.644C822.217 30.812 821.984 31.0593 821.816 31.386C821.648 31.7033 821.564 32.086 821.564 32.534V37H820.514ZM832.095 40.08C831.582 40.08 831.106 40.0007 830.667 39.842C830.238 39.6833 829.864 39.464 829.547 39.184C829.239 38.9133 829.001 38.596 828.833 38.232L829.799 37.714C829.948 38.0687 830.214 38.3767 830.597 38.638C830.98 38.8993 831.47 39.03 832.067 39.03C832.524 39.03 832.944 38.9413 833.327 38.764C833.71 38.5867 834.018 38.3253 834.251 37.98C834.484 37.6347 834.601 37.21 834.601 36.706V35.04L834.769 35.194C834.508 35.7353 834.12 36.1553 833.607 36.454C833.094 36.7433 832.534 36.888 831.927 36.888C831.227 36.888 830.597 36.72 830.037 36.384C829.477 36.048 829.034 35.5953 828.707 35.026C828.39 34.4473 828.231 33.808 828.231 33.108C828.231 32.3987 828.39 31.7593 828.707 31.19C829.034 30.6207 829.472 30.168 830.023 29.832C830.583 29.496 831.218 29.328 831.927 29.328C832.534 29.328 833.084 29.468 833.579 29.748C834.083 30.028 834.48 30.406 834.769 30.882L834.601 31.176V29.496H835.651V36.706C835.651 37.35 835.497 37.924 835.189 38.428C834.89 38.9413 834.47 39.3427 833.929 39.632C833.397 39.9307 832.786 40.08 832.095 40.08ZM831.983 35.838C832.468 35.838 832.907 35.7167 833.299 35.474C833.691 35.222 834.004 34.8907 834.237 34.48C834.48 34.06 834.601 33.6027 834.601 33.108C834.601 32.6133 834.48 32.1607 834.237 31.75C834.004 31.33 833.691 30.9987 833.299 30.756C832.907 30.504 832.468 30.378 831.983 30.378C831.488 30.378 831.04 30.504 830.639 30.756C830.238 30.9987 829.92 31.3253 829.687 31.736C829.463 32.1467 829.351 32.604 829.351 33.108C829.351 33.6027 829.463 34.06 829.687 34.48C829.92 34.8907 830.233 35.222 830.625 35.474C831.026 35.7167 831.479 35.838 831.983 35.838ZM843.701 37.168C842.992 37.168 842.348 37 841.769 36.664C841.191 36.3187 840.729 35.852 840.383 35.264C840.047 34.6667 839.879 33.99 839.879 33.234C839.879 32.4873 840.047 31.82 840.383 31.232C840.719 30.644 841.172 30.182 841.741 29.846C842.32 29.5007 842.973 29.328 843.701 29.328C844.429 29.328 845.078 29.496 845.647 29.832C846.226 30.168 846.679 30.63 847.005 31.218C847.341 31.806 847.509 32.478 847.509 33.234C847.509 33.9993 847.337 34.6807 846.991 35.278C846.646 35.866 846.184 36.328 845.605 36.664C845.036 37 844.401 37.168 843.701 37.168ZM843.701 36.118C844.205 36.118 844.658 35.992 845.059 35.74C845.47 35.488 845.792 35.1427 846.025 34.704C846.268 34.2653 846.389 33.7753 846.389 33.234C846.389 32.6927 846.268 32.2073 846.025 31.778C845.792 31.3487 845.47 31.008 845.059 30.756C844.658 30.504 844.205 30.378 843.701 30.378C843.197 30.378 842.74 30.504 842.329 30.756C841.928 31.008 841.606 31.3487 841.363 31.778C841.121 32.2073 840.999 32.6927 840.999 33.234C840.999 33.7753 841.121 34.2653 841.363 34.704C841.606 35.1427 841.928 35.488 842.329 35.74C842.74 35.992 843.197 36.118 843.701 36.118ZM849.361 39.8V29.496H850.411V31.176L850.243 30.882C850.542 30.406 850.939 30.028 851.433 29.748C851.937 29.468 852.511 29.328 853.155 29.328C853.865 29.328 854.495 29.5007 855.045 29.846C855.605 30.182 856.044 30.644 856.361 31.232C856.688 31.82 856.851 32.492 856.851 33.248C856.851 33.9947 856.688 34.6667 856.361 35.264C856.044 35.852 855.605 36.3187 855.045 36.664C854.495 37 853.865 37.168 853.155 37.168C852.511 37.168 851.928 37.0233 851.405 36.734C850.892 36.4353 850.505 36.0153 850.243 35.474L850.411 35.32V39.8H849.361ZM853.099 36.118C853.603 36.118 854.051 35.992 854.443 35.74C854.845 35.488 855.157 35.1473 855.381 34.718C855.615 34.2793 855.731 33.7893 855.731 33.248C855.731 32.6973 855.615 32.2073 855.381 31.778C855.157 31.3487 854.845 31.008 854.443 30.756C854.051 30.504 853.603 30.378 853.099 30.378C852.595 30.378 852.138 30.504 851.727 30.756C851.326 31.008 851.004 31.3533 850.761 31.792C850.528 32.2213 850.411 32.7067 850.411 33.248C850.411 33.7893 850.528 34.2793 850.761 34.718C851.004 35.1473 851.326 35.488 851.727 35.74C852.138 35.992 852.595 36.118 853.099 36.118ZM861.432 37.084C860.76 37.084 860.242 36.888 859.878 36.496C859.514 36.104 859.332 35.544 859.332 34.816V30.546H857.946V29.496H858.296C858.614 29.496 858.866 29.3933 859.052 29.188C859.239 28.9733 859.332 28.7073 859.332 28.39V27.76H860.382V29.496H862.034V30.546H860.382V34.816C860.382 35.068 860.42 35.292 860.494 35.488C860.569 35.6747 860.695 35.824 860.872 35.936C861.059 36.048 861.306 36.104 861.614 36.104C861.689 36.104 861.778 36.0993 861.88 36.09C861.983 36.0807 862.072 36.0713 862.146 36.062V37C862.034 37.028 861.908 37.0467 861.768 37.056C861.628 37.0747 861.516 37.084 861.432 37.084ZM863.99 37V29.496H865.04V37H863.99ZM863.99 28.11V26.57H865.04V28.11H863.99ZM870.703 37.168C869.994 37.168 869.35 37 868.771 36.664C868.193 36.3187 867.731 35.852 867.385 35.264C867.049 34.6667 866.881 33.99 866.881 33.234C866.881 32.4873 867.049 31.82 867.385 31.232C867.721 30.644 868.174 30.182 868.743 29.846C869.322 29.5007 869.975 29.328 870.703 29.328C871.431 29.328 872.08 29.496 872.649 29.832C873.228 30.168 873.681 30.63 874.007 31.218C874.343 31.806 874.511 32.478 874.511 33.234C874.511 33.9993 874.339 34.6807 873.993 35.278C873.648 35.866 873.186 36.328 872.607 36.664C872.038 37 871.403 37.168 870.703 37.168ZM870.703 36.118C871.207 36.118 871.66 35.992 872.061 35.74C872.472 35.488 872.794 35.1427 873.027 34.704C873.27 34.2653 873.391 33.7753 873.391 33.234C873.391 32.6927 873.27 32.2073 873.027 31.778C872.794 31.3487 872.472 31.008 872.061 30.756C871.66 30.504 871.207 30.378 870.703 30.378C870.199 30.378 869.742 30.504 869.331 30.756C868.93 31.008 868.608 31.3487 868.365 31.778C868.123 32.2073 868.001 32.6927 868.001 33.234C868.001 33.7753 868.123 34.2653 868.365 34.704C868.608 35.1427 868.93 35.488 869.331 35.74C869.742 35.992 870.199 36.118 870.703 36.118ZM876.363 37V29.496H877.413V30.952L877.175 30.896C877.362 30.4107 877.665 30.028 878.085 29.748C878.514 29.468 879.009 29.328 879.569 29.328C880.101 29.328 880.577 29.4493 880.997 29.692C881.426 29.9347 881.762 30.2707 882.005 30.7C882.257 31.12 882.383 31.596 882.383 32.128V37H881.333V32.534C881.333 32.0767 881.249 31.6893 881.081 31.372C880.922 31.0547 880.694 30.812 880.395 30.644C880.106 30.4667 879.77 30.378 879.387 30.378C879.004 30.378 878.664 30.4667 878.365 30.644C878.066 30.812 877.833 31.0593 877.665 31.386C877.497 31.7033 877.413 32.086 877.413 32.534V37H876.363ZM886.993 37.168C886.274 37.168 885.644 36.986 885.103 36.622C884.561 36.258 884.169 35.7633 883.927 35.138L884.809 34.718C885.023 35.1753 885.322 35.5393 885.705 35.81C886.097 36.0807 886.526 36.216 886.993 36.216C887.441 36.216 887.819 36.1087 888.127 35.894C888.435 35.67 888.589 35.3807 888.589 35.026C888.589 34.7647 888.514 34.5593 888.365 34.41C888.215 34.2513 888.043 34.13 887.847 34.046C887.651 33.962 887.478 33.9013 887.329 33.864L886.251 33.556C885.56 33.36 885.061 33.0847 884.753 32.73C884.445 32.3753 884.291 31.9647 884.291 31.498C884.291 31.0593 884.403 30.6767 884.627 30.35C884.851 30.0233 885.154 29.7713 885.537 29.594C885.919 29.4167 886.344 29.328 886.811 29.328C887.445 29.328 888.019 29.496 888.533 29.832C889.055 30.1587 889.424 30.616 889.639 31.204L888.743 31.624C888.556 31.204 888.285 30.8773 887.931 30.644C887.585 30.4013 887.198 30.28 886.769 30.28C886.349 30.28 886.013 30.3873 885.761 30.602C885.509 30.8167 885.383 31.0873 885.383 31.414C885.383 31.666 885.448 31.8667 885.579 32.016C885.709 32.1653 885.859 32.2773 886.027 32.352C886.204 32.4267 886.358 32.4827 886.489 32.52L887.735 32.884C888.341 33.0613 888.813 33.3367 889.149 33.71C889.494 34.0833 889.667 34.522 889.667 35.026C889.667 35.4367 889.55 35.8053 889.317 36.132C889.093 36.4587 888.78 36.7153 888.379 36.902C887.977 37.0793 887.515 37.168 886.993 37.168ZM897.279 37.168C896.579 37.168 895.949 37 895.389 36.664C894.829 36.3187 894.385 35.852 894.059 35.264C893.741 34.6667 893.583 33.9947 893.583 33.248C893.583 32.492 893.741 31.82 894.059 31.232C894.385 30.644 894.824 30.182 895.375 29.846C895.935 29.5007 896.569 29.328 897.279 29.328C897.923 29.328 898.497 29.468 899.001 29.748C899.505 30.028 899.901 30.406 900.191 30.882L900.023 31.176V26.402H901.073V37H900.023V35.32L900.191 35.474C899.929 36.0153 899.537 36.4353 899.015 36.734C898.501 37.0233 897.923 37.168 897.279 37.168ZM897.335 36.118C897.839 36.118 898.291 35.992 898.693 35.74C899.103 35.488 899.425 35.1473 899.659 34.718C899.901 34.2793 900.023 33.7893 900.023 33.248C900.023 32.7067 899.901 32.2213 899.659 31.792C899.425 31.3533 899.103 31.008 898.693 30.756C898.291 30.504 897.839 30.378 897.335 30.378C896.84 30.378 896.392 30.504 895.991 30.756C895.589 31.008 895.272 31.3487 895.039 31.778C894.815 32.2073 894.703 32.6973 894.703 33.248C894.703 33.7893 894.815 34.2793 895.039 34.718C895.272 35.1473 895.585 35.488 895.977 35.74C896.378 35.992 896.831 36.118 897.335 36.118ZM906.644 37.168C905.944 37.168 905.31 37 904.74 36.664C904.18 36.3187 903.737 35.8473 903.41 35.25C903.084 34.6527 902.92 33.976 902.92 33.22C902.92 32.464 903.079 31.7967 903.396 31.218C903.714 30.63 904.143 30.168 904.684 29.832C905.235 29.496 905.851 29.328 906.532 29.328C907.074 29.328 907.554 29.4307 907.974 29.636C908.404 29.832 908.768 30.1027 909.066 30.448C909.365 30.784 909.594 31.1667 909.752 31.596C909.911 32.016 909.99 32.45 909.99 32.898C909.99 32.9913 909.986 33.0987 909.976 33.22C909.967 33.332 909.953 33.4487 909.934 33.57H903.592V32.59H909.332L908.828 33.01C908.912 32.4967 908.852 32.0393 908.646 31.638C908.45 31.2273 908.166 30.9053 907.792 30.672C907.419 30.4293 906.999 30.308 906.532 30.308C906.066 30.308 905.632 30.4293 905.23 30.672C904.838 30.9147 904.53 31.2553 904.306 31.694C904.082 32.1233 903.994 32.6367 904.04 33.234C903.994 33.8313 904.087 34.354 904.32 34.802C904.563 35.2407 904.89 35.5813 905.3 35.824C905.72 36.0667 906.168 36.188 906.644 36.188C907.195 36.188 907.657 36.0573 908.03 35.796C908.404 35.5347 908.707 35.208 908.94 34.816L909.836 35.292C909.687 35.628 909.458 35.9407 909.15 36.23C908.842 36.51 908.474 36.7387 908.044 36.916C907.624 37.084 907.158 37.168 906.644 37.168ZM911.842 39.8V29.496H912.892V31.176L912.724 30.882C913.022 30.406 913.419 30.028 913.914 29.748C914.418 29.468 914.992 29.328 915.636 29.328C916.345 29.328 916.975 29.5007 917.526 29.846C918.086 30.182 918.524 30.644 918.842 31.232C919.168 31.82 919.332 32.492 919.332 33.248C919.332 33.9947 919.168 34.6667 918.842 35.264C918.524 35.852 918.086 36.3187 917.526 36.664C916.975 37 916.345 37.168 915.636 37.168C914.992 37.168 914.408 37.0233 913.886 36.734C913.372 36.4353 912.985 36.0153 912.724 35.474L912.892 35.32V39.8H911.842ZM915.58 36.118C916.084 36.118 916.532 35.992 916.924 35.74C917.325 35.488 917.638 35.1473 917.862 34.718C918.095 34.2793 918.212 33.7893 918.212 33.248C918.212 32.6973 918.095 32.2073 917.862 31.778C917.638 31.3487 917.325 31.008 916.924 30.756C916.532 30.504 916.084 30.378 915.58 30.378C915.076 30.378 914.618 30.504 914.208 30.756C913.806 31.008 913.484 31.3533 913.242 31.792C913.008 32.2213 912.892 32.7067 912.892 33.248C912.892 33.7893 913.008 34.2793 913.242 34.718C913.484 35.1473 913.806 35.488 914.208 35.74C914.618 35.992 915.076 36.118 915.58 36.118ZM924.596 37.168C923.896 37.168 923.261 37 922.692 36.664C922.132 36.3187 921.688 35.8473 921.362 35.25C921.035 34.6527 920.872 33.976 920.872 33.22C920.872 32.464 921.03 31.7967 921.348 31.218C921.665 30.63 922.094 30.168 922.636 29.832C923.186 29.496 923.802 29.328 924.484 29.328C925.025 29.328 925.506 29.4307 925.926 29.636C926.355 29.832 926.719 30.1027 927.018 30.448C927.316 30.784 927.545 31.1667 927.704 31.596C927.862 32.016 927.942 32.45 927.942 32.898C927.942 32.9913 927.937 33.0987 927.928 33.22C927.918 33.332 927.904 33.4487 927.886 33.57H921.544V32.59H927.284L926.78 33.01C926.864 32.4967 926.803 32.0393 926.598 31.638C926.402 31.2273 926.117 30.9053 925.744 30.672C925.37 30.4293 924.95 30.308 924.484 30.308C924.017 30.308 923.583 30.4293 923.182 30.672C922.79 30.9147 922.482 31.2553 922.258 31.694C922.034 32.1233 921.945 32.6367 921.992 33.234C921.945 33.8313 922.038 34.354 922.272 34.802C922.514 35.2407 922.841 35.5813 923.252 35.824C923.672 36.0667 924.12 36.188 924.596 36.188C925.146 36.188 925.608 36.0573 925.982 35.796C926.355 35.5347 926.658 35.208 926.892 34.816L927.788 35.292C927.638 35.628 927.41 35.9407 927.102 36.23C926.794 36.51 926.425 36.7387 925.996 36.916C925.576 37.084 925.109 37.168 924.596 37.168ZM929.793 37V29.496H930.843V30.952L930.605 30.896C930.792 30.4107 931.095 30.028 931.515 29.748C931.944 29.468 932.439 29.328 932.999 29.328C933.531 29.328 934.007 29.4493 934.427 29.692C934.856 29.9347 935.192 30.2707 935.435 30.7C935.687 31.12 935.813 31.596 935.813 32.128V37H934.763V32.534C934.763 32.0767 934.679 31.6893 934.511 31.372C934.352 31.0547 934.124 30.812 933.825 30.644C933.536 30.4667 933.2 30.378 932.817 30.378C932.434 30.378 932.094 30.4667 931.795 30.644C931.496 30.812 931.263 31.0593 931.095 31.386C930.927 31.7033 930.843 32.086 930.843 32.534V37H929.793ZM941.206 37.168C940.506 37.168 939.876 37 939.316 36.664C938.756 36.3187 938.313 35.852 937.986 35.264C937.669 34.6667 937.51 33.9947 937.51 33.248C937.51 32.492 937.669 31.82 937.986 31.232C938.313 30.644 938.752 30.182 939.302 29.846C939.862 29.5007 940.497 29.328 941.206 29.328C941.85 29.328 942.424 29.468 942.928 29.748C943.432 30.028 943.829 30.406 944.118 30.882L943.95 31.176V26.402H945V37H943.95V35.32L944.118 35.474C943.857 36.0153 943.465 36.4353 942.942 36.734C942.429 37.0233 941.85 37.168 941.206 37.168ZM941.262 36.118C941.766 36.118 942.219 35.992 942.62 35.74C943.031 35.488 943.353 35.1473 943.586 34.718C943.829 34.2793 943.95 33.7893 943.95 33.248C943.95 32.7067 943.829 32.2213 943.586 31.792C943.353 31.3533 943.031 31.008 942.62 30.756C942.219 30.504 941.766 30.378 941.262 30.378C940.768 30.378 940.32 30.504 939.918 30.756C939.517 31.008 939.2 31.3487 938.966 31.778C938.742 32.2073 938.63 32.6973 938.63 33.248C938.63 33.7893 938.742 34.2793 938.966 34.718C939.2 35.1473 939.512 35.488 939.904 35.74C940.306 35.992 940.758 36.118 941.262 36.118ZM947.156 37V29.496H948.206V37H947.156ZM947.156 28.11V26.57H948.206V28.11H947.156ZM950.355 37V29.496H951.405V30.952L951.167 30.896C951.354 30.4107 951.657 30.028 952.077 29.748C952.507 29.468 953.001 29.328 953.561 29.328C954.093 29.328 954.569 29.4493 954.989 29.692C955.419 29.9347 955.755 30.2707 955.997 30.7C956.249 31.12 956.375 31.596 956.375 32.128V37H955.325V32.534C955.325 32.0767 955.241 31.6893 955.073 31.372C954.915 31.0547 954.686 30.812 954.387 30.644C954.098 30.4667 953.762 30.378 953.379 30.378C952.997 30.378 952.656 30.4667 952.357 30.644C952.059 30.812 951.825 31.0593 951.657 31.386C951.489 31.7033 951.405 32.086 951.405 32.534V37H950.355ZM961.937 40.08C961.423 40.08 960.947 40.0007 960.509 39.842C960.079 39.6833 959.706 39.464 959.389 39.184C959.081 38.9133 958.843 38.596 958.675 38.232L959.641 37.714C959.79 38.0687 960.056 38.3767 960.439 38.638C960.821 38.8993 961.311 39.03 961.909 39.03C962.366 39.03 962.786 38.9413 963.169 38.764C963.551 38.5867 963.859 38.3253 964.093 37.98C964.326 37.6347 964.443 37.21 964.443 36.706V35.04L964.611 35.194C964.349 35.7353 963.962 36.1553 963.449 36.454C962.935 36.7433 962.375 36.888 961.769 36.888C961.069 36.888 960.439 36.72 959.879 36.384C959.319 36.048 958.875 35.5953 958.549 35.026C958.231 34.4473 958.073 33.808 958.073 33.108C958.073 32.3987 958.231 31.7593 958.549 31.19C958.875 30.6207 959.314 30.168 959.865 29.832C960.425 29.496 961.059 29.328 961.769 29.328C962.375 29.328 962.926 29.468 963.421 29.748C963.925 30.028 964.321 30.406 964.611 30.882L964.443 31.176V29.496H965.493V36.706C965.493 37.35 965.339 37.924 965.031 38.428C964.732 38.9413 964.312 39.3427 963.771 39.632C963.239 39.9307 962.627 40.08 961.937 40.08ZM961.825 35.838C962.31 35.838 962.749 35.7167 963.141 35.474C963.533 35.222 963.845 34.8907 964.079 34.48C964.321 34.06 964.443 33.6027 964.443 33.108C964.443 32.6133 964.321 32.1607 964.079 31.75C963.845 31.33 963.533 30.9987 963.141 30.756C962.749 30.504 962.31 30.378 961.825 30.378C961.33 30.378 960.882 30.504 960.481 30.756C960.079 30.9987 959.762 31.3253 959.529 31.736C959.305 32.1467 959.193 32.604 959.193 33.108C959.193 33.6027 959.305 34.06 959.529 34.48C959.762 34.8907 960.075 35.222 960.467 35.474C960.868 35.7167 961.321 35.838 961.825 35.838ZM973.543 37.168C972.834 37.168 972.19 37 971.611 36.664C971.033 36.3187 970.571 35.852 970.225 35.264C969.889 34.6667 969.721 33.99 969.721 33.234C969.721 32.4873 969.889 31.82 970.225 31.232C970.561 30.644 971.014 30.182 971.583 29.846C972.162 29.5007 972.815 29.328 973.543 29.328C974.271 29.328 974.92 29.496 975.489 29.832C976.068 30.168 976.521 30.63 976.847 31.218C977.183 31.806 977.351 32.478 977.351 33.234C977.351 33.9993 977.179 34.6807 976.833 35.278C976.488 35.866 976.026 36.328 975.447 36.664C974.878 37 974.243 37.168 973.543 37.168ZM973.543 36.118C974.047 36.118 974.5 35.992 974.901 35.74C975.312 35.488 975.634 35.1427 975.867 34.704C976.11 34.2653 976.231 33.7753 976.231 33.234C976.231 32.6927 976.11 32.2073 975.867 31.778C975.634 31.3487 975.312 31.008 974.901 30.756C974.5 30.504 974.047 30.378 973.543 30.378C973.039 30.378 972.582 30.504 972.171 30.756C971.77 31.008 971.448 31.3487 971.205 31.778C970.963 32.2073 970.841 32.6927 970.841 33.234C970.841 33.7753 970.963 34.2653 971.205 34.704C971.448 35.1427 971.77 35.488 972.171 35.74C972.582 35.992 973.039 36.118 973.543 36.118ZM979.203 37V29.496H980.253V30.952L980.015 30.896C980.202 30.4107 980.505 30.028 980.925 29.748C981.354 29.468 981.849 29.328 982.409 29.328C982.941 29.328 983.417 29.4493 983.837 29.692C984.266 29.9347 984.602 30.2707 984.845 30.7C985.097 31.12 985.223 31.596 985.223 32.128V37H984.173V32.534C984.173 32.0767 984.089 31.6893 983.921 31.372C983.762 31.0547 983.534 30.812 983.235 30.644C982.946 30.4667 982.61 30.378 982.227 30.378C981.844 30.378 981.504 30.4667 981.205 30.644C980.906 30.812 980.673 31.0593 980.505 31.386C980.337 31.7033 980.253 32.086 980.253 32.534V37H979.203ZM989.761 40.08C989.612 40.08 989.458 40.066 989.299 40.038C989.15 40.0193 989.001 39.982 988.851 39.926V38.946C988.945 38.9553 989.061 38.9693 989.201 38.988C989.351 39.016 989.5 39.03 989.649 39.03C990.107 39.03 990.457 38.932 990.699 38.736C990.942 38.5493 991.18 38.1853 991.413 37.644L991.889 36.524L991.861 37.448L988.683 29.496H989.817L992.421 36.062H992.127L994.717 29.496H995.879L992.449 37.952C992.3 38.316 992.109 38.6613 991.875 38.988C991.651 39.3147 991.367 39.576 991.021 39.772C990.676 39.9773 990.256 40.08 989.761 40.08ZM1000.49 37.168C999.781 37.168 999.137 37 998.558 36.664C997.98 36.3187 997.518 35.852 997.172 35.264C996.836 34.6667 996.668 33.99 996.668 33.234C996.668 32.4873 996.836 31.82 997.172 31.232C997.508 30.644 997.961 30.182 998.53 29.846C999.109 29.5007 999.762 29.328 1000.49 29.328C1001.22 29.328 1001.87 29.496 1002.44 29.832C1003.02 30.168 1003.47 30.63 1003.79 31.218C1004.13 31.806 1004.3 32.478 1004.3 33.234C1004.3 33.9993 1004.13 34.6807 1003.78 35.278C1003.44 35.866 1002.97 36.328 1002.39 36.664C1001.83 37 1001.19 37.168 1000.49 37.168ZM1000.49 36.118C1000.99 36.118 1001.45 35.992 1001.85 35.74C1002.26 35.488 1002.58 35.1427 1002.81 34.704C1003.06 34.2653 1003.18 33.7753 1003.18 33.234C1003.18 32.6927 1003.06 32.2073 1002.81 31.778C1002.58 31.3487 1002.26 31.008 1001.85 30.756C1001.45 30.504 1000.99 30.378 1000.49 30.378C999.986 30.378 999.529 30.504 999.118 30.756C998.717 31.008 998.395 31.3487 998.152 31.778C997.91 32.2073 997.788 32.6927 997.788 33.234C997.788 33.7753 997.91 34.2653 998.152 34.704C998.395 35.1427 998.717 35.488 999.118 35.74C999.529 35.992 999.986 36.118 1000.49 36.118ZM1008.81 37.168C1008.29 37.168 1007.81 37.0467 1007.38 36.804C1006.95 36.552 1006.61 36.2067 1006.36 35.768C1006.12 35.32 1006 34.8067 1006 34.228V29.496H1007.05V34.102C1007.05 34.5033 1007.13 34.858 1007.28 35.166C1007.45 35.4647 1007.68 35.698 1007.97 35.866C1008.27 36.034 1008.61 36.118 1008.99 36.118C1009.37 36.118 1009.72 36.034 1010.01 35.866C1010.31 35.6887 1010.55 35.4413 1010.71 35.124C1010.88 34.7973 1010.97 34.41 1010.97 33.962V29.496H1012.02V37H1010.97V35.544L1011.2 35.6C1011.03 36.0853 1010.72 36.468 1010.29 36.748C1009.86 37.028 1009.37 37.168 1008.81 37.168ZM1014.18 37V29.496H1015.23V30.728L1015.09 30.546C1015.26 30.1913 1015.53 29.9113 1015.88 29.706C1016.25 29.5007 1016.69 29.398 1017.2 29.398H1017.68V30.448H1017.02C1016.48 30.448 1016.04 30.616 1015.72 30.952C1015.39 31.288 1015.23 31.764 1015.23 32.38V37H1014.18ZM1021.29 37V29.496H1022.34V30.728L1022.2 30.546C1022.37 30.1913 1022.64 29.9113 1022.99 29.706C1023.36 29.5007 1023.8 29.398 1024.31 29.398H1024.79V30.448H1024.13C1023.59 30.448 1023.15 30.616 1022.83 30.952C1022.5 31.288 1022.34 31.764 1022.34 32.38V37H1021.29ZM1026.02 37V29.496H1027.07V37H1026.02ZM1026.02 28.11V26.57H1027.07V28.11H1026.02ZM1029.21 37V29.496H1030.26V30.952L1030.03 30.896C1030.21 30.4107 1030.52 30.028 1030.94 29.748C1031.37 29.468 1031.86 29.328 1032.42 29.328C1032.95 29.328 1033.43 29.4493 1033.85 29.692C1034.28 29.9347 1034.61 30.2707 1034.86 30.7C1035.11 31.12 1035.23 31.596 1035.23 32.128V37H1034.18V32.534C1034.18 32.0767 1034.1 31.6893 1033.93 31.372C1033.77 31.0547 1033.55 30.812 1033.25 30.644C1032.96 30.4667 1032.62 30.378 1032.24 30.378C1031.86 30.378 1031.52 30.4667 1031.22 30.644C1030.92 30.812 1030.68 31.0593 1030.52 31.386C1030.35 31.7033 1030.26 32.086 1030.26 32.534V37H1029.21ZM1040.8 40.08C1040.28 40.08 1039.81 40.0007 1039.37 39.842C1038.94 39.6833 1038.57 39.464 1038.25 39.184C1037.94 38.9133 1037.7 38.596 1037.53 38.232L1038.5 37.714C1038.65 38.0687 1038.92 38.3767 1039.3 38.638C1039.68 38.8993 1040.17 39.03 1040.77 39.03C1041.23 39.03 1041.65 38.9413 1042.03 38.764C1042.41 38.5867 1042.72 38.3253 1042.95 37.98C1043.19 37.6347 1043.3 37.21 1043.3 36.706V35.04L1043.47 35.194C1043.21 35.7353 1042.82 36.1553 1042.31 36.454C1041.79 36.7433 1041.23 36.888 1040.63 36.888C1039.93 36.888 1039.3 36.72 1038.74 36.384C1038.18 36.048 1037.73 35.5953 1037.41 35.026C1037.09 34.4473 1036.93 33.808 1036.93 33.108C1036.93 32.3987 1037.09 31.7593 1037.41 31.19C1037.73 30.6207 1038.17 30.168 1038.72 29.832C1039.28 29.496 1039.92 29.328 1040.63 29.328C1041.23 29.328 1041.79 29.468 1042.28 29.748C1042.78 30.028 1043.18 30.406 1043.47 30.882L1043.3 31.176V29.496H1044.35V36.706C1044.35 37.35 1044.2 37.924 1043.89 38.428C1043.59 38.9413 1043.17 39.3427 1042.63 39.632C1042.1 39.9307 1041.49 40.08 1040.8 40.08ZM1040.68 35.838C1041.17 35.838 1041.61 35.7167 1042 35.474C1042.39 35.222 1042.7 34.8907 1042.94 34.48C1043.18 34.06 1043.3 33.6027 1043.3 33.108C1043.3 32.6133 1043.18 32.1607 1042.94 31.75C1042.7 31.33 1042.39 30.9987 1042 30.756C1041.61 30.504 1041.17 30.378 1040.68 30.378C1040.19 30.378 1039.74 30.504 1039.34 30.756C1038.94 30.9987 1038.62 31.3253 1038.39 31.736C1038.16 32.1467 1038.05 32.604 1038.05 33.108C1038.05 33.6027 1038.16 34.06 1038.39 34.48C1038.62 34.8907 1038.93 35.222 1039.33 35.474C1039.73 35.7167 1040.18 35.838 1040.68 35.838ZM1051.76 37.084C1051.09 37.084 1050.57 36.888 1050.2 36.496C1049.84 36.104 1049.66 35.544 1049.66 34.816V30.546H1048.27V29.496H1048.62C1048.94 29.496 1049.19 29.3933 1049.38 29.188C1049.57 28.9733 1049.66 28.7073 1049.66 28.39V27.76H1050.71V29.496H1052.36V30.546H1050.71V34.816C1050.71 35.068 1050.75 35.292 1050.82 35.488C1050.9 35.6747 1051.02 35.824 1051.2 35.936C1051.39 36.048 1051.63 36.104 1051.94 36.104C1052.02 36.104 1052.1 36.0993 1052.21 36.09C1052.31 36.0807 1052.4 36.0713 1052.47 36.062V37C1052.36 37.028 1052.23 37.0467 1052.09 37.056C1051.95 37.0747 1051.84 37.084 1051.76 37.084ZM1054.47 40.08C1054.32 40.08 1054.17 40.066 1054.01 40.038C1053.86 40.0193 1053.71 39.982 1053.56 39.926V38.946C1053.65 38.9553 1053.77 38.9693 1053.91 38.988C1054.06 39.016 1054.21 39.03 1054.36 39.03C1054.82 39.03 1055.17 38.932 1055.41 38.736C1055.65 38.5493 1055.89 38.1853 1056.12 37.644L1056.6 36.524L1056.57 37.448L1053.39 29.496H1054.53L1057.13 36.062H1056.84L1059.43 29.496H1060.59L1057.16 37.952C1057.01 38.316 1056.82 38.6613 1056.58 38.988C1056.36 39.3147 1056.08 39.576 1055.73 39.772C1055.38 39.9773 1054.96 40.08 1054.47 40.08ZM1061.82 39.8V29.496H1062.87V31.176L1062.7 30.882C1063 30.406 1063.4 30.028 1063.89 29.748C1064.4 29.468 1064.97 29.328 1065.62 29.328C1066.33 29.328 1066.96 29.5007 1067.51 29.846C1068.07 30.182 1068.5 30.644 1068.82 31.232C1069.15 31.82 1069.31 32.492 1069.31 33.248C1069.31 33.9947 1069.15 34.6667 1068.82 35.264C1068.5 35.852 1068.07 36.3187 1067.51 36.664C1066.96 37 1066.33 37.168 1065.62 37.168C1064.97 37.168 1064.39 37.0233 1063.87 36.734C1063.35 36.4353 1062.97 36.0153 1062.7 35.474L1062.87 35.32V39.8H1061.82ZM1065.56 36.118C1066.06 36.118 1066.51 35.992 1066.9 35.74C1067.31 35.488 1067.62 35.1473 1067.84 34.718C1068.08 34.2793 1068.19 33.7893 1068.19 33.248C1068.19 32.6973 1068.08 32.2073 1067.84 31.778C1067.62 31.3487 1067.31 31.008 1066.9 30.756C1066.51 30.504 1066.06 30.378 1065.56 30.378C1065.06 30.378 1064.6 30.504 1064.19 30.756C1063.79 31.008 1063.46 31.3533 1063.22 31.792C1062.99 32.2213 1062.87 32.7067 1062.87 33.248C1062.87 33.7893 1062.99 34.2793 1063.22 34.718C1063.46 35.1473 1063.79 35.488 1064.19 35.74C1064.6 35.992 1065.06 36.118 1065.56 36.118ZM1074.58 37.168C1073.88 37.168 1073.24 37 1072.67 36.664C1072.11 36.3187 1071.67 35.8473 1071.34 35.25C1071.02 34.6527 1070.85 33.976 1070.85 33.22C1070.85 32.464 1071.01 31.7967 1071.33 31.218C1071.65 30.63 1072.07 30.168 1072.62 29.832C1073.17 29.496 1073.78 29.328 1074.46 29.328C1075.01 29.328 1075.49 29.4307 1075.91 29.636C1076.34 29.832 1076.7 30.1027 1077 30.448C1077.3 30.784 1077.53 31.1667 1077.68 31.596C1077.84 32.016 1077.92 32.45 1077.92 32.898C1077.92 32.9913 1077.92 33.0987 1077.91 33.22C1077.9 33.332 1077.88 33.4487 1077.87 33.57H1071.52V32.59H1077.26L1076.76 33.01C1076.84 32.4967 1076.78 32.0393 1076.58 31.638C1076.38 31.2273 1076.1 30.9053 1075.72 30.672C1075.35 30.4293 1074.93 30.308 1074.46 30.308C1074 30.308 1073.56 30.4293 1073.16 30.672C1072.77 30.9147 1072.46 31.2553 1072.24 31.694C1072.01 32.1233 1071.93 32.6367 1071.97 33.234C1071.93 33.8313 1072.02 34.354 1072.25 34.802C1072.49 35.2407 1072.82 35.5813 1073.23 35.824C1073.65 36.0667 1074.1 36.188 1074.58 36.188C1075.13 36.188 1075.59 36.0573 1075.96 35.796C1076.34 35.5347 1076.64 35.208 1076.87 34.816L1077.77 35.292C1077.62 35.628 1077.39 35.9407 1077.08 36.23C1076.77 36.51 1076.41 36.7387 1075.98 36.916C1075.56 37.084 1075.09 37.168 1074.58 37.168Z" fill="#1D1F1E"/>
<path d="M728.078 61V50.57H729.73V59.53H734.238V61H728.078ZM739.027 61.168C738.271 61.168 737.599 60.9953 737.011 60.65C736.432 60.2953 735.98 59.8193 735.653 59.222C735.326 58.6153 735.163 57.9387 735.163 57.192C735.163 56.4267 735.326 55.75 735.653 55.162C735.989 54.574 736.437 54.112 736.997 53.776C737.557 53.4307 738.192 53.258 738.901 53.258C739.47 53.258 739.979 53.356 740.427 53.552C740.875 53.748 741.253 54.0187 741.561 54.364C741.869 54.7 742.102 55.0873 742.261 55.526C742.429 55.9647 742.513 56.4313 742.513 56.926C742.513 57.0473 742.508 57.1733 742.499 57.304C742.49 57.4347 742.471 57.556 742.443 57.668H736.409V56.408H741.547L740.791 56.982C740.884 56.5247 740.852 56.1187 740.693 55.764C740.544 55.4 740.31 55.1153 739.993 54.91C739.685 54.6953 739.321 54.588 738.901 54.588C738.481 54.588 738.108 54.6953 737.781 54.91C737.454 55.1153 737.202 55.414 737.025 55.806C736.848 56.1887 736.778 56.6553 736.815 57.206C736.768 57.7193 736.838 58.1673 737.025 58.55C737.221 58.9327 737.492 59.2313 737.837 59.446C738.192 59.6607 738.593 59.768 739.041 59.768C739.498 59.768 739.886 59.6653 740.203 59.46C740.53 59.2547 740.786 58.9887 740.973 58.662L742.261 59.292C742.112 59.6467 741.878 59.9687 741.561 60.258C741.253 60.538 740.88 60.762 740.441 60.93C740.012 61.0887 739.54 61.168 739.027 61.168ZM746.256 61.168C745.743 61.168 745.29 61.0793 744.898 60.902C744.516 60.7153 744.217 60.4633 744.002 60.146C743.788 59.8193 743.68 59.4367 743.68 58.998C743.68 58.5873 743.769 58.2187 743.946 57.892C744.133 57.5653 744.418 57.29 744.8 57.066C745.183 56.842 745.664 56.6833 746.242 56.59L748.874 56.156V57.402L746.55 57.808C746.13 57.8827 745.822 58.018 745.626 58.214C745.43 58.4007 745.332 58.6433 745.332 58.942C745.332 59.2313 745.44 59.4693 745.654 59.656C745.878 59.8333 746.163 59.922 746.508 59.922C746.938 59.922 747.311 59.8287 747.628 59.642C747.955 59.4553 748.207 59.208 748.384 58.9C748.562 58.5827 748.65 58.2327 748.65 57.85V55.904C748.65 55.5307 748.51 55.2273 748.23 54.994C747.96 54.7513 747.596 54.63 747.138 54.63C746.718 54.63 746.35 54.742 746.032 54.966C745.724 55.1807 745.496 55.4607 745.346 55.806L744.03 55.148C744.17 54.7747 744.399 54.448 744.716 54.168C745.034 53.8787 745.402 53.6547 745.822 53.496C746.252 53.3373 746.704 53.258 747.18 53.258C747.778 53.258 748.305 53.37 748.762 53.594C749.229 53.818 749.588 54.1307 749.84 54.532C750.102 54.924 750.232 55.3813 750.232 55.904V61H748.72V59.628L749.042 59.67C748.865 59.978 748.636 60.244 748.356 60.468C748.086 60.692 747.773 60.8647 747.418 60.986C747.073 61.1073 746.686 61.168 746.256 61.168ZM752.082 61V53.426H753.594V54.952L753.454 54.728C753.622 54.2333 753.893 53.8787 754.266 53.664C754.64 53.44 755.088 53.328 755.61 53.328H756.072V54.77H755.414C754.892 54.77 754.467 54.9333 754.14 55.26C753.823 55.5773 753.664 56.0347 753.664 56.632V61H752.082ZM757.154 61V53.426H758.666V54.91L758.484 54.714C758.671 54.238 758.97 53.8787 759.38 53.636C759.791 53.384 760.267 53.258 760.808 53.258C761.368 53.258 761.863 53.3793 762.292 53.622C762.722 53.8647 763.058 54.2007 763.3 54.63C763.543 55.0593 763.664 55.554 763.664 56.114V61H762.096V56.534C762.096 56.1513 762.026 55.8293 761.886 55.568C761.746 55.2973 761.546 55.092 761.284 54.952C761.032 54.8027 760.743 54.728 760.416 54.728C760.09 54.728 759.796 54.8027 759.534 54.952C759.282 55.092 759.086 55.2973 758.946 55.568C758.806 55.8387 758.736 56.1607 758.736 56.534V61H757.154ZM767.805 61V53.426H769.317V55.064L769.121 54.812C769.28 54.2987 769.569 53.9113 769.989 53.65C770.409 53.3887 770.89 53.258 771.431 53.258C772.038 53.258 772.574 53.4213 773.041 53.748C773.517 54.0653 773.834 54.49 773.993 55.022L773.545 55.064C773.769 54.4573 774.11 54.0047 774.567 53.706C775.034 53.4073 775.566 53.258 776.163 53.258C776.686 53.258 777.157 53.3793 777.577 53.622C778.006 53.8647 778.347 54.2007 778.599 54.63C778.851 55.0593 778.977 55.5493 778.977 56.1V61H777.395V56.534C777.395 56.1513 777.325 55.8293 777.185 55.568C777.054 55.2973 776.868 55.092 776.625 54.952C776.392 54.8027 776.116 54.728 775.799 54.728C775.482 54.728 775.202 54.8027 774.959 54.952C774.716 55.092 774.525 55.2973 774.385 55.568C774.245 55.8387 774.175 56.1607 774.175 56.534V61H772.607V56.534C772.607 56.1513 772.537 55.8293 772.397 55.568C772.266 55.2973 772.08 55.092 771.837 54.952C771.604 54.8027 771.324 54.728 770.997 54.728C770.68 54.728 770.4 54.8027 770.157 54.952C769.914 55.092 769.723 55.2973 769.583 55.568C769.452 55.8387 769.387 56.1607 769.387 56.534V61H767.805ZM784.324 61.168C783.596 61.168 782.929 60.9953 782.322 60.65C781.725 60.3047 781.249 59.8333 780.894 59.236C780.539 58.6387 780.362 57.962 780.362 57.206C780.362 56.4407 780.539 55.764 780.894 55.176C781.249 54.5787 781.725 54.112 782.322 53.776C782.919 53.4307 783.587 53.258 784.324 53.258C785.071 53.258 785.738 53.4307 786.326 53.776C786.923 54.112 787.395 54.5787 787.74 55.176C788.095 55.764 788.272 56.4407 788.272 57.206C788.272 57.9713 788.095 58.6527 787.74 59.25C787.385 59.8473 786.909 60.3187 786.312 60.664C785.715 61 785.052 61.168 784.324 61.168ZM784.324 59.698C784.772 59.698 785.169 59.5907 785.514 59.376C785.859 59.1613 786.13 58.8673 786.326 58.494C786.531 58.1113 786.634 57.682 786.634 57.206C786.634 56.73 786.531 56.3053 786.326 55.932C786.13 55.5587 785.859 55.2647 785.514 55.05C785.169 54.8353 784.772 54.728 784.324 54.728C783.885 54.728 783.489 54.8353 783.134 55.05C782.789 55.2647 782.513 55.5587 782.308 55.932C782.112 56.3053 782.014 56.73 782.014 57.206C782.014 57.682 782.112 58.1113 782.308 58.494C782.513 58.8673 782.789 59.1613 783.134 59.376C783.489 59.5907 783.885 59.698 784.324 59.698ZM789.817 61V53.426H791.329V54.952L791.189 54.728C791.357 54.2333 791.627 53.8787 792.001 53.664C792.374 53.44 792.822 53.328 793.345 53.328H793.807V54.77H793.149C792.626 54.77 792.201 54.9333 791.875 55.26C791.557 55.5773 791.399 56.0347 791.399 56.632V61H789.817ZM798.445 61.168C797.689 61.168 797.017 60.9953 796.429 60.65C795.85 60.2953 795.398 59.8193 795.071 59.222C794.744 58.6153 794.581 57.9387 794.581 57.192C794.581 56.4267 794.744 55.75 795.071 55.162C795.407 54.574 795.855 54.112 796.415 53.776C796.975 53.4307 797.61 53.258 798.319 53.258C798.888 53.258 799.397 53.356 799.845 53.552C800.293 53.748 800.671 54.0187 800.979 54.364C801.287 54.7 801.52 55.0873 801.679 55.526C801.847 55.9647 801.931 56.4313 801.931 56.926C801.931 57.0473 801.926 57.1733 801.917 57.304C801.908 57.4347 801.889 57.556 801.861 57.668H795.827V56.408H800.965L800.209 56.982C800.302 56.5247 800.27 56.1187 800.111 55.764C799.962 55.4 799.728 55.1153 799.411 54.91C799.103 54.6953 798.739 54.588 798.319 54.588C797.899 54.588 797.526 54.6953 797.199 54.91C796.872 55.1153 796.62 55.414 796.443 55.806C796.266 56.1887 796.196 56.6553 796.233 57.206C796.186 57.7193 796.256 58.1673 796.443 58.55C796.639 58.9327 796.91 59.2313 797.255 59.446C797.61 59.6607 798.011 59.768 798.459 59.768C798.916 59.768 799.304 59.6653 799.621 59.46C799.948 59.2547 800.204 58.9887 800.391 58.662L801.679 59.292C801.53 59.6467 801.296 59.9687 800.979 60.258C800.671 60.538 800.298 60.762 799.859 60.93C799.43 61.0887 798.958 61.168 798.445 61.168Z" fill="#1D1F1E"/>
<path d="M817 60L821 56L817 52" stroke="#1D1F1E" stroke-width="2" stroke-linecap="round" stroke-linejoin="round"/>
</svg>
