<svg width="137" height="24" viewBox="0 0 137 24" fill="none" xmlns="http://www.w3.org/2000/svg">
<circle cx="11.9998" cy="12.0001" r="9.00375" stroke="#A4AAAE" stroke-width="1.5" stroke-linecap="round" stroke-linejoin="round"/>
<path d="M12.5 8.49878H15.5013V11.5" stroke="#A4AAAE" stroke-width="1.5" stroke-linecap="round" stroke-linejoin="round"/>
<path d="M11.4993 15.5015H8.49805V12.5002" stroke="#A4AAAE" stroke-width="1.5" stroke-linecap="round" stroke-linejoin="round"/>
<path d="M37.232 18V7.57H43.672V8.62H38.352V12.246H43.252V13.296H38.352V18H37.232ZM45.3668 18V7.57H48.9508C49.6321 7.57 50.2294 7.70533 50.7428 7.976C51.2561 8.23733 51.6528 8.61067 51.9328 9.096C52.2221 9.572 52.3668 10.1273 52.3668 10.762C52.3668 11.4993 52.1708 12.1293 51.7788 12.652C51.3961 13.1747 50.8734 13.5433 50.2108 13.758L52.6468 18H51.3308L48.7828 13.506L49.5388 13.94H46.4868V18H45.3668ZM46.4868 12.89H49.0068C49.4548 12.89 49.8468 12.806 50.1828 12.638C50.5188 12.4607 50.7801 12.2133 50.9668 11.896C51.1534 11.5693 51.2468 11.1867 51.2468 10.748C51.2468 10.3093 51.1534 9.93133 50.9668 9.614C50.7801 9.29667 50.5188 9.054 50.1828 8.886C49.8468 8.70867 49.4548 8.62 49.0068 8.62H46.4868V12.89ZM54.3355 18V7.57H61.0555V8.62H55.4555V12.246H60.7755V13.296H55.4555V16.95H61.0555V18H54.3355ZM62.9078 18V7.57H69.6278V8.62H64.0278V12.246H69.3478V13.296H64.0278V16.95H69.6278V18H62.9078ZM73.859 18V7.57H77.443C78.1243 7.57 78.7216 7.70533 79.235 7.976C79.7483 8.23733 80.145 8.61067 80.425 9.096C80.7143 9.572 80.859 10.1273 80.859 10.762C80.859 11.4993 80.663 12.1293 80.271 12.652C79.8883 13.1747 79.3656 13.5433 78.703 13.758L81.139 18H79.823L77.275 13.506L78.031 13.94H74.979V18H73.859ZM74.979 12.89H77.499C77.947 12.89 78.339 12.806 78.675 12.638C79.011 12.4607 79.2723 12.2133 79.459 11.896C79.6456 11.5693 79.739 11.1867 79.739 10.748C79.739 10.3093 79.6456 9.93133 79.459 9.614C79.2723 9.29667 79.011 9.054 78.675 8.886C78.339 8.70867 77.947 8.62 77.499 8.62H74.979V12.89ZM82.8277 18V7.57H89.5477V8.62H83.9477V12.246H89.2677V13.296H83.9477V16.95H89.5477V18H82.8277ZM94.914 18.168C94.2513 18.168 93.6493 18.042 93.108 17.79C92.5666 17.538 92.1093 17.202 91.736 16.782C91.3626 16.3527 91.0966 15.8813 90.938 15.368L91.946 14.99C92.1886 15.6993 92.5666 16.2407 93.08 16.614C93.5933 16.978 94.2046 17.16 94.914 17.16C95.362 17.16 95.754 17.09 96.09 16.95C96.4353 16.8007 96.7013 16.5953 96.888 16.334C97.0746 16.0727 97.168 15.7693 97.168 15.424C97.168 14.9107 97.028 14.514 96.748 14.234C96.468 13.954 96.0666 13.7393 95.544 13.59L93.668 13.03C92.9306 12.8153 92.3613 12.456 91.96 11.952C91.568 11.448 91.372 10.874 91.372 10.23C91.372 9.67933 91.5073 9.194 91.778 8.774C92.0486 8.34467 92.4173 8.00867 92.884 7.766C93.36 7.52333 93.8966 7.402 94.494 7.402C95.1193 7.402 95.6793 7.51867 96.174 7.752C96.678 7.976 97.1026 8.27467 97.448 8.648C97.7933 9.02133 98.0406 9.43667 98.19 9.894L97.21 10.286C96.986 9.67 96.636 9.20333 96.16 8.886C95.6933 8.56867 95.1426 8.41 94.508 8.41C94.1066 8.41 93.752 8.48 93.444 8.62C93.1453 8.76 92.912 8.96067 92.744 9.222C92.576 9.48333 92.492 9.79133 92.492 10.146C92.492 10.5753 92.6273 10.9627 92.898 11.308C93.1686 11.644 93.584 11.896 94.144 12.064L95.796 12.554C96.6173 12.7967 97.238 13.1467 97.658 13.604C98.078 14.0613 98.288 14.6353 98.288 15.326C98.288 15.886 98.1433 16.3807 97.854 16.81C97.574 17.23 97.1773 17.5613 96.664 17.804C96.16 18.0467 95.5766 18.168 94.914 18.168ZM100.451 18V7.57H101.571V18H100.451ZM103.109 18V17.244L109.073 8.62H103.459V7.57H110.543V8.326L104.593 16.95H110.669V18H103.109ZM112.209 18V7.57H113.329V18H112.209ZM115.791 18V7.57H116.771L122.889 16.348H122.511V7.57H123.631V18H122.651L116.533 9.166H116.911V18H115.791ZM130.859 18.168C130.122 18.168 129.445 18.0373 128.829 17.776C128.213 17.5053 127.677 17.132 127.219 16.656C126.771 16.1707 126.421 15.6013 126.169 14.948C125.917 14.2947 125.791 13.576 125.791 12.792C125.791 12.008 125.917 11.2893 126.169 10.636C126.421 9.98267 126.771 9.41333 127.219 8.928C127.677 8.44267 128.213 8.06933 128.829 7.808C129.445 7.53733 130.122 7.402 130.859 7.402C131.569 7.402 132.203 7.528 132.763 7.78C133.333 8.032 133.809 8.35867 134.191 8.76C134.583 9.152 134.863 9.56733 135.031 10.006L134.023 10.496C133.762 9.86133 133.361 9.362 132.819 8.998C132.278 8.634 131.625 8.452 130.859 8.452C130.094 8.452 129.413 8.634 128.815 8.998C128.218 9.362 127.751 9.87067 127.415 10.524C127.079 11.168 126.911 11.924 126.911 12.792C126.911 13.6507 127.079 14.4067 127.415 15.06C127.751 15.7133 128.218 16.222 128.815 16.586C129.413 16.9407 130.094 17.118 130.859 17.118C131.541 17.118 132.152 16.9687 132.693 16.67C133.244 16.3713 133.678 15.9653 133.995 15.452C134.313 14.9293 134.471 14.332 134.471 13.66V13.086L134.975 13.59H130.859V12.61H135.591V13.478C135.591 14.1593 135.47 14.7893 135.227 15.368C134.985 15.9373 134.649 16.432 134.219 16.852C133.79 17.272 133.286 17.5987 132.707 17.832C132.138 18.056 131.522 18.168 130.859 18.168Z" fill="#1D1F1E"/>
</svg>
