<svg width="239" height="24" viewBox="0 0 239 24" fill="none" xmlns="http://www.w3.org/2000/svg">
<path d="M18.3164 12.521L19.8814 14.086L21.4454 12.521" stroke="#A4AAAE" stroke-width="1.5" stroke-linecap="round" stroke-linejoin="round"/>
<path d="M18.0453 17.215C16.5163 19.121 14.1713 20.344 11.5383 20.344C6.93031 20.344 3.19531 16.609 3.19531 12.001C3.19531 7.39296 6.93031 3.65796 11.5383 3.65796C16.1463 3.65796 19.8813 7.39196 19.8813 12V14.086" stroke="#A4AAAE" stroke-width="1.5" stroke-linecap="round" stroke-linejoin="round"/>
<path d="M9.81641 10.75V9.434C9.81641 8.504 10.5704 7.75 11.5004 7.75C12.4304 7.75 13.1844 8.504 13.1844 9.434V10.75" stroke="#A4AAAE" stroke-width="1.5" stroke-linecap="round" stroke-linejoin="round"/>
<path fill-rule="evenodd" clip-rule="evenodd" d="M13.5 15.75H9.5C8.948 15.75 8.5 15.302 8.5 14.75V11.75C8.5 11.198 8.948 10.75 9.5 10.75H13.5C14.052 10.75 14.5 11.198 14.5 11.75V14.75C14.5 15.302 14.052 15.75 13.5 15.75Z" stroke="#A4AAAE" stroke-width="1.5" stroke-linecap="round" stroke-linejoin="round"/>
<path d="M40.116 18.168C39.5747 18.168 39.0753 18.0747 38.618 17.888C38.1607 17.7013 37.7593 17.4353 37.414 17.09C37.078 16.7447 36.8213 16.334 36.644 15.858L37.54 15.438C37.7547 15.9793 38.0907 16.4087 38.548 16.726C39.0053 17.034 39.528 17.188 40.116 17.188C40.5827 17.188 40.998 17.0993 41.362 16.922C41.726 16.7353 42.0107 16.4693 42.216 16.124C42.4213 15.7787 42.524 15.3587 42.524 14.864C42.524 14.3693 42.4167 13.9493 42.202 13.604C41.9967 13.2587 41.712 12.9973 41.348 12.82C40.984 12.6427 40.5687 12.554 40.102 12.554C39.9807 12.554 39.8453 12.5587 39.696 12.568C39.556 12.5773 39.4393 12.5913 39.346 12.61L39.122 12.12L41.936 8.55H37.134V7.57H43.196V8.55L40.564 11.868L40.424 11.686C41.0493 11.7047 41.6047 11.854 42.09 12.134C42.5753 12.4047 42.9533 12.7733 43.224 13.24C43.504 13.7067 43.644 14.248 43.644 14.864C43.644 15.48 43.4947 16.04 43.196 16.544C42.8973 17.0387 42.482 17.4353 41.95 17.734C41.418 18.0233 40.8067 18.168 40.116 18.168ZM49.6693 18.168C48.8479 18.168 48.1246 17.944 47.4993 17.496C46.8833 17.0387 46.4026 16.4087 46.0573 15.606C45.7119 14.794 45.5393 13.8513 45.5393 12.778C45.5393 11.7047 45.7119 10.7667 46.0573 9.964C46.4026 9.152 46.8833 8.522 47.4993 8.074C48.1153 7.626 48.8339 7.402 49.6553 7.402C50.4766 7.402 51.1953 7.626 51.8113 8.074C52.4273 8.522 52.9079 9.152 53.2533 9.964C53.5986 10.7667 53.7713 11.7047 53.7713 12.778C53.7713 13.8513 53.5986 14.794 53.2533 15.606C52.9173 16.418 52.4413 17.048 51.8253 17.496C51.2093 17.944 50.4906 18.168 49.6693 18.168ZM49.6693 17.118C50.2666 17.118 50.7893 16.936 51.2373 16.572C51.6853 16.208 52.0353 15.704 52.2873 15.06C52.5393 14.4067 52.6653 13.646 52.6653 12.778C52.6653 11.91 52.5393 11.154 52.2873 10.51C52.0353 9.85667 51.6853 9.35267 51.2373 8.998C50.7893 8.634 50.2619 8.452 49.6553 8.452C49.0579 8.452 48.5353 8.634 48.0873 8.998C47.6393 9.35267 47.2893 9.85667 47.0373 10.51C46.7853 11.154 46.6593 11.91 46.6593 12.778C46.6593 13.6367 46.7853 14.3927 47.0373 15.046C47.2893 15.6993 47.6393 16.208 48.0873 16.572C48.5446 16.936 49.0719 17.118 49.6693 17.118ZM55.8772 15.018V13.968H62.1772V15.018H55.8772ZM64.5074 18V7.57H67.9374C68.9734 7.57 69.8741 7.78467 70.6394 8.214C71.4047 8.634 71.9974 9.236 72.4174 10.02C72.8374 10.7947 73.0474 11.714 73.0474 12.778C73.0474 13.8327 72.8374 14.752 72.4174 15.536C71.9974 16.32 71.4047 16.9267 70.6394 17.356C69.8741 17.7853 68.9734 18 67.9374 18H64.5074ZM65.6274 16.95H67.9374C68.7401 16.95 69.4354 16.782 70.0234 16.446C70.6114 16.1007 71.0641 15.6153 71.3814 14.99C71.7081 14.3647 71.8714 13.6273 71.8714 12.778C71.8714 11.9287 71.7081 11.196 71.3814 10.58C71.0547 9.95467 70.5974 9.474 70.0094 9.138C69.4214 8.79267 68.7307 8.62 67.9374 8.62H65.6274V16.95ZM73.3962 18L77.2042 7.57H78.4082L82.2162 18H81.0402L80.1442 15.452H75.4822L74.5722 18H73.3962ZM75.8462 14.402H79.7522L77.6382 8.41H77.9742L75.8462 14.402ZM85.1986 18V13.156L81.5446 7.57H82.7906L85.9826 12.428H85.5346L88.7126 7.57H89.9586L86.3186 13.156V18H85.1986ZM94.4355 18.168C93.7728 18.168 93.1708 18.042 92.6295 17.79C92.0881 17.538 91.6308 17.202 91.2575 16.782C90.8841 16.3527 90.6181 15.8813 90.4595 15.368L91.4675 14.99C91.7101 15.6993 92.0881 16.2407 92.6015 16.614C93.1148 16.978 93.7261 17.16 94.4355 17.16C94.8835 17.16 95.2755 17.09 95.6115 16.95C95.9568 16.8007 96.2228 16.5953 96.4095 16.334C96.5961 16.0727 96.6895 15.7693 96.6895 15.424C96.6895 14.9107 96.5495 14.514 96.2695 14.234C95.9895 13.954 95.5881 13.7393 95.0655 13.59L93.1895 13.03C92.4521 12.8153 91.8828 12.456 91.4815 11.952C91.0895 11.448 90.8935 10.874 90.8935 10.23C90.8935 9.67933 91.0288 9.194 91.2995 8.774C91.5701 8.34467 91.9388 8.00867 92.4055 7.766C92.8815 7.52333 93.4181 7.402 94.0155 7.402C94.6408 7.402 95.2008 7.51867 95.6955 7.752C96.1995 7.976 96.6241 8.27467 96.9695 8.648C97.3148 9.02133 97.5621 9.43667 97.7115 9.894L96.7315 10.286C96.5075 9.67 96.1575 9.20333 95.6815 8.886C95.2148 8.56867 94.6641 8.41 94.0295 8.41C93.6281 8.41 93.2735 8.48 92.9655 8.62C92.6668 8.76 92.4335 8.96067 92.2655 9.222C92.0975 9.48333 92.0135 9.79133 92.0135 10.146C92.0135 10.5753 92.1488 10.9627 92.4195 11.308C92.6901 11.644 93.1055 11.896 93.6655 12.064L95.3175 12.554C96.1388 12.7967 96.7595 13.1467 97.1795 13.604C97.5995 14.0613 97.8095 14.6353 97.8095 15.326C97.8095 15.886 97.6648 16.3807 97.3755 16.81C97.0955 17.23 96.6988 17.5613 96.1855 17.804C95.6815 18.0467 95.0981 18.168 94.4355 18.168ZM102.351 18V7.57H109.071V8.62H103.471V12.246H108.791V13.296H103.471V16.95H109.071V18H102.351ZM109.845 18L113.233 12.68L109.957 7.57H111.217L114.059 12.022H113.681L116.509 7.57H117.769L114.493 12.68L117.895 18H116.635L113.681 13.352H114.059L111.077 18H109.845ZM121.083 18V8.62H118.199V7.57H125.059V8.62H122.203V18H121.083ZM126.441 18V7.57H133.161V8.62H127.561V12.246H132.881V13.296H127.561V16.95H133.161V18H126.441ZM135.013 18V7.57H135.993L142.111 16.348H141.733V7.57H142.853V18H141.873L135.755 9.166H136.133V18H135.013ZM145.322 18V7.57H148.752C149.788 7.57 150.689 7.78467 151.454 8.214C152.219 8.634 152.812 9.236 153.232 10.02C153.652 10.7947 153.862 11.714 153.862 12.778C153.862 13.8327 153.652 14.752 153.232 15.536C152.812 16.32 152.219 16.9267 151.454 17.356C150.689 17.7853 149.788 18 148.752 18H145.322ZM146.442 16.95H148.752C149.555 16.95 150.25 16.782 150.838 16.446C151.426 16.1007 151.879 15.6153 152.196 14.99C152.523 14.3647 152.686 13.6273 152.686 12.778C152.686 11.9287 152.523 11.196 152.196 10.58C151.869 9.95467 151.412 9.474 150.824 9.138C150.236 8.79267 149.545 8.62 148.752 8.62H146.442V16.95ZM155.712 18V7.57H162.432V8.62H156.832V12.246H162.152V13.296H156.832V16.95H162.432V18H155.712ZM164.285 18V7.57H167.715C168.751 7.57 169.651 7.78467 170.417 8.214C171.182 8.634 171.775 9.236 172.195 10.02C172.615 10.7947 172.825 11.714 172.825 12.778C172.825 13.8327 172.615 14.752 172.195 15.536C171.775 16.32 171.182 16.9267 170.417 17.356C169.651 17.7853 168.751 18 167.715 18H164.285ZM165.405 16.95H167.715C168.517 16.95 169.213 16.782 169.801 16.446C170.389 16.1007 170.841 15.6153 171.159 14.99C171.485 14.3647 171.649 13.6273 171.649 12.778C171.649 11.9287 171.485 11.196 171.159 10.58C170.832 9.95467 170.375 9.474 169.787 9.138C169.199 8.79267 168.508 8.62 167.715 8.62H165.405V16.95ZM177.054 18V7.57H180.638C181.32 7.57 181.917 7.70533 182.43 7.976C182.944 8.23733 183.34 8.61067 183.62 9.096C183.91 9.572 184.054 10.1273 184.054 10.762C184.054 11.4993 183.858 12.1293 183.466 12.652C183.084 13.1747 182.561 13.5433 181.898 13.758L184.334 18H183.018L180.47 13.506L181.226 13.94H178.174V18H177.054ZM178.174 12.89H180.694C181.142 12.89 181.534 12.806 181.87 12.638C182.206 12.4607 182.468 12.2133 182.654 11.896C182.841 11.5693 182.934 11.1867 182.934 10.748C182.934 10.3093 182.841 9.93133 182.654 9.614C182.468 9.29667 182.206 9.054 181.87 8.886C181.534 8.70867 181.142 8.62 180.694 8.62H178.174V12.89ZM186.023 18V7.57H192.743V8.62H187.143V12.246H192.463V13.296H187.143V16.95H192.743V18H186.023ZM196.401 18V8.62H193.517V7.57H200.377V8.62H197.521V18H196.401ZM205.427 18.168C204.69 18.168 204.041 18.014 203.481 17.706C202.921 17.398 202.487 16.978 202.179 16.446C201.871 15.9047 201.717 15.2887 201.717 14.598V7.57H202.837V14.598C202.837 15.102 202.945 15.5453 203.159 15.928C203.383 16.3013 203.687 16.5953 204.069 16.81C204.461 17.0153 204.914 17.118 205.427 17.118C205.941 17.118 206.389 17.0153 206.771 16.81C207.163 16.5953 207.467 16.3013 207.681 15.928C207.905 15.5453 208.017 15.102 208.017 14.598V7.57H209.137V14.598C209.137 15.2887 208.983 15.9047 208.675 16.446C208.367 16.978 207.933 17.398 207.373 17.706C206.823 18.014 206.174 18.168 205.427 18.168ZM211.562 18V7.57H215.146C215.827 7.57 216.425 7.70533 216.938 7.976C217.451 8.23733 217.848 8.61067 218.128 9.096C218.417 9.572 218.562 10.1273 218.562 10.762C218.562 11.4993 218.366 12.1293 217.974 12.652C217.591 13.1747 217.069 13.5433 216.406 13.758L218.842 18H217.526L214.978 13.506L215.734 13.94H212.682V18H211.562ZM212.682 12.89H215.202C215.65 12.89 216.042 12.806 216.378 12.638C216.714 12.4607 216.975 12.2133 217.162 11.896C217.349 11.5693 217.442 11.1867 217.442 10.748C217.442 10.3093 217.349 9.93133 217.162 9.614C216.975 9.29667 216.714 9.054 216.378 8.886C216.042 8.70867 215.65 8.62 215.202 8.62H212.682V12.89ZM220.531 18V7.57H221.511L227.629 16.348H227.251V7.57H228.371V18H227.391L221.273 9.166H221.651V18H220.531ZM234.353 18.168C233.691 18.168 233.089 18.042 232.547 17.79C232.006 17.538 231.549 17.202 231.175 16.782C230.802 16.3527 230.536 15.8813 230.377 15.368L231.385 14.99C231.628 15.6993 232.006 16.2407 232.519 16.614C233.033 16.978 233.644 17.16 234.353 17.16C234.801 17.16 235.193 17.09 235.529 16.95C235.875 16.8007 236.141 16.5953 236.327 16.334C236.514 16.0727 236.607 15.7693 236.607 15.424C236.607 14.9107 236.467 14.514 236.187 14.234C235.907 13.954 235.506 13.7393 234.983 13.59L233.107 13.03C232.37 12.8153 231.801 12.456 231.399 11.952C231.007 11.448 230.811 10.874 230.811 10.23C230.811 9.67933 230.947 9.194 231.217 8.774C231.488 8.34467 231.857 8.00867 232.323 7.766C232.799 7.52333 233.336 7.402 233.933 7.402C234.559 7.402 235.119 7.51867 235.613 7.752C236.117 7.976 236.542 8.27467 236.887 8.648C237.233 9.02133 237.48 9.43667 237.629 9.894L236.649 10.286C236.425 9.67 236.075 9.20333 235.599 8.886C235.133 8.56867 234.582 8.41 233.947 8.41C233.546 8.41 233.191 8.48 232.883 8.62C232.585 8.76 232.351 8.96067 232.183 9.222C232.015 9.48333 231.931 9.79133 231.931 10.146C231.931 10.5753 232.067 10.9627 232.337 11.308C232.608 11.644 233.023 11.896 233.583 12.064L235.235 12.554C236.057 12.7967 236.677 13.1467 237.097 13.604C237.517 14.0613 237.727 14.6353 237.727 15.326C237.727 15.886 237.583 16.3807 237.293 16.81C237.013 17.23 236.617 17.5613 236.103 17.804C235.599 18.0467 235.016 18.168 234.353 18.168Z" fill="#1D1F1E"/>
</svg>
