<svg width="100" height="100" viewBox="0 0 100 100" fill="none" xmlns="http://www.w3.org/2000/svg">
<circle cx="50" cy="54" r="22" fill="#CCD0D4"/>
<path d="M51.7595 17.4791L52.1924 17.083L57.886 11.8724C58.2433 11.5452 58.2679 10.9906 57.9406 10.6329L57.9405 10.6328C57.6139 10.2753 57.0589 10.2505 56.7012 10.5778C56.7012 10.5778 56.7012 10.5778 56.7012 10.5779L49.0018 17.6239L49.0018 17.624C48.8288 17.7822 48.7262 18.0036 48.7171 18.2388L51.7595 17.4791ZM51.7595 17.4791L52.345 17.5169M51.7595 17.4791L52.345 17.5169M52.345 17.5169C60.8796 18.068 68.9259 21.6867 74.9995 27.7072L75 27.7077C80.0282 32.664 83.4735 38.9994 84.9009 45.9125C86.3283 52.8256 85.6731 60.0078 83.0189 66.549L83.2505 66.643L83.0189 66.549C80.3646 73.0909 75.8305 78.6982 69.9891 82.6628C64.1476 86.6273 57.262 88.7704 50.2022 88.8212L50.2007 88.8212C50.1135 88.8224 50.0259 88.8224 49.9366 88.8224C42.3144 88.8208 34.893 86.379 28.7591 81.8551C22.6246 77.3313 18.0997 70.9625 15.8458 63.6811C13.5925 56.4006 13.7284 48.5889 16.2348 41.3908L16.2348 41.3908C18.7406 34.1918 23.4847 27.9848 29.7727 23.6775C30.1722 23.4048 30.7173 23.5067 30.9906 23.9052L30.9907 23.9053C31.2647 24.3047 31.164 24.8493 30.7657 25.1242C26.1802 28.2643 22.436 32.482 19.8621 37.4077L19.8621 37.4078M52.345 17.5169L19.8621 37.4078M56.1385 26.4882L56.1385 26.4882C56.4712 26.841 57.0267 26.857 57.3788 26.5245C57.7313 26.1918 57.7477 25.6367 57.4152 25.284L52.1442 19.6974L51.7047 19.2316L52.3435 19.2764C69.8361 20.5043 83.7532 35.0609 83.8823 52.8829C84.0179 71.5962 68.9031 86.9313 50.1897 87.0663C50.1071 87.0669 50.0239 87.0675 49.9401 87.0675C31.3395 87.0675 16.1408 72.0053 16.0058 53.3751L56.1385 26.4882ZM56.1385 26.4882L48.9557 18.8734M56.1385 26.4882L48.9557 18.8734M19.8621 37.4078C17.2882 42.3347 15.9641 47.8175 16.0058 53.375L19.8621 37.4078ZM48.9557 18.8734C48.7946 18.7024 48.7087 18.4743 48.717 18.2393L48.9557 18.8734ZM49.9365 89.0724C50.0257 89.0724 50.1148 89.0724 50.204 89.0712L15.607 63.755C17.8767 71.0875 22.4332 77.5008 28.6107 82.0563C34.7876 86.6119 42.261 89.0708 49.9365 89.0724Z" fill="#1D1F1E" stroke="white" stroke-width="0.5"/>
<path d="M59.5029 46.2169L59.3842 46.3086C59.5433 46.5146 59.6141 46.7755 59.5802 47.0337C59.5463 47.2921 59.4111 47.5259 59.2037 47.6839L59.2028 47.6846L41.8895 61.0875L41.8895 61.0875C41.4627 61.4181 40.8489 61.3398 40.5188 60.9131L40.5143 60.9072C40.1889 60.4807 40.2683 59.8708 40.6933 59.5417C40.6933 59.5416 40.6933 59.5416 40.6933 59.5416L58.0066 46.1388L58.0074 46.1381C58.2119 45.9775 58.4728 45.9047 58.731 45.9366L58.731 45.9367C58.9897 45.9686 59.2246 46.1026 59.3843 46.3087L59.5029 46.2169ZM59.5029 46.2169C59.3188 45.9793 59.0479 45.8246 58.7494 45.7878L40.6014 59.423C40.1091 59.8044 40.0188 60.5124 40.4001 61.0048L40.4002 61.0048C40.781 61.4972 41.489 61.5875 41.9813 61.2061L59.2947 47.8032C59.5339 47.6209 59.6898 47.3512 59.7289 47.0532C59.768 46.7552 59.6864 46.4544 59.5029 46.2169Z" fill="#1D1F1E" stroke="white" stroke-width="0.3"/>
<path d="M44.0597 51.7324C45.3622 51.8982 46.6768 51.5403 47.7145 50.737C48.7523 49.9331 49.4283 48.7502 49.5931 47.4478L49.5931 47.4476C49.7589 46.1458 49.4005 44.8316 48.5972 43.7939L48.7158 43.7021L48.5972 43.7939C47.7938 42.7561 46.6109 42.08 45.309 41.9143L45.309 41.9143C44.0071 41.7485 42.6923 42.1069 41.6552 42.9102C40.6174 43.7141 39.9414 44.8965 39.7756 46.199L39.7756 46.199C39.6098 47.5008 39.9682 48.815 40.7715 49.8527L44.0597 51.7324ZM44.0597 51.7324L44.0597 51.7324M44.0597 51.7324L44.0597 51.7324M44.0597 51.7324C42.7578 51.5666 41.5755 50.8906 40.7715 49.8528L44.0597 51.7324ZM41.7148 46.4451L41.6988 46.5702L41.7017 46.5711C41.6399 47.317 41.8587 48.0607 42.319 48.6547C42.8046 49.2827 43.5197 49.692 44.3069 49.7931L44.3071 49.7931C45.0943 49.893 45.8893 49.6763 46.5172 49.1907L46.5173 49.1906C47.1451 48.7044 47.5545 47.9887 47.6544 47.2014C47.7549 46.4136 47.5381 45.6186 47.052 44.9907C46.5663 44.3627 45.8505 43.954 45.0628 43.8535C44.275 43.753 43.4799 43.9698 42.852 44.456L42.8519 44.456C42.224 44.9422 41.8153 45.6574 41.7148 46.4451Z" fill="#1D1F1E" stroke="white" stroke-width="0.3"/>
<path d="M55.791 55.4882C54.276 55.306 52.7611 55.8327 51.6862 56.9171C50.6032 58.0096 50.0895 59.5437 50.2967 61.0677L55.791 55.4882ZM55.791 55.4882L55.8251 55.4925C57.1265 55.6589 58.3088 56.3343 59.1127 57.3716C60.0545 58.5881 60.3772 60.1736 59.9853 61.6613L60.1304 61.6995L59.9853 61.6613C59.5934 63.1491 58.5321 64.37 57.1136 64.9645L57.1136 64.9645C55.6946 65.5596 54.08 65.4608 52.7447 64.6971L52.7447 64.6971C51.4087 63.9334 50.5043 62.5924 50.2967 61.0678L55.791 55.4882ZM52.3127 61.1877C52.5573 62.0858 53.2058 62.8185 54.0669 63.1709L54.1215 63.0373L54.0669 63.1709C54.928 63.5233 55.904 63.4555 56.7082 62.9868L56.7082 62.9868C57.4858 62.5333 58.0167 61.7543 58.1572 60.8683L58.1588 60.8677L58.1701 60.7789C58.27 59.9911 58.0532 59.1961 57.5676 58.5682L57.5675 58.5682C56.9977 57.8324 56.1184 57.4037 55.1878 57.4074L55.1877 57.4074C54.2571 57.4116 53.3815 57.8482 52.8183 58.5888C52.2546 59.3295 52.0681 60.2898 52.3127 61.1877ZM52.3127 61.1877L52.4575 61.1483M52.3127 61.1877C52.3127 61.1877 52.3127 61.1877 52.3127 61.1877L52.4575 61.1483M52.4575 61.1483C52.6898 62.0013 53.3058 62.6973 54.1237 63.032C54.9417 63.3668 55.8688 63.3024 56.6327 62.8572L52.4575 61.1483Z" fill="#1D1F1E" stroke="white" stroke-width="0.3"/>
<path d="M35.1372 68.4149L34.9604 68.5916C38.9337 72.5649 44.3227 74.797 49.9414 74.797C55.5602 74.797 60.9488 72.5647 64.9224 68.5917L64.7457 68.4149L64.9225 68.5916C68.8957 64.6184 71.1278 59.2293 71.1278 53.6106C71.1278 47.9919 68.8955 42.6033 64.9225 38.6296L64.7457 38.8064L64.9225 38.6296C61.0899 34.7971 55.9405 32.5846 50.5375 32.4327L50.5475 32.4227L49.942 32.4234C44.3242 32.4298 38.9391 34.6631 34.9672 38.6355C30.9954 42.6079 28.7615 47.9931 28.7551 53.6103V53.6106C28.7551 59.2293 30.9873 64.618 34.9604 68.5916L35.1372 68.4149ZM72.8829 53.6114C72.8829 66.2608 62.5909 76.5528 49.9414 76.5528C37.292 76.5528 27 66.2608 27 53.6114C27 40.9619 37.292 30.6699 49.9414 30.6699C62.5909 30.6699 72.8829 40.9619 72.8829 53.6114Z" fill="#1D1F1E" stroke="white" stroke-width="0.5"/>
</svg>
