<svg width="100" height="100" viewBox="0 0 100 100" fill="none" xmlns="http://www.w3.org/2000/svg">
<path fill-rule="evenodd" clip-rule="evenodd" d="M67.9974 14.3721C68.2029 14.109 68.1561 13.7291 67.893 13.5236C67.6298 13.3181 67.2499 13.3649 67.0444 13.628L57.9007 25.3392C56.8398 25.066 55.7567 24.848 54.6548 24.6883L58.1008 14.4349C58.2072 14.1184 58.0368 13.7756 57.7203 13.6692C57.4038 13.5629 57.061 13.7332 56.9547 14.0497L53.4304 24.5358C52.368 24.425 51.2896 24.3682 50.1979 24.3682C49.1007 24.3682 48.017 24.4256 46.9495 24.5374L43.4247 14.0497C43.3183 13.7332 42.9755 13.5629 42.659 13.6692C42.3425 13.7756 42.1722 14.1184 42.2786 14.4349L45.7254 24.6905C44.6513 24.8468 43.5951 25.0584 42.5599 25.3226L33.5352 13.7638C33.3297 13.5006 32.9498 13.4538 32.6866 13.6593C32.4234 13.8648 32.3767 14.2447 32.5821 14.5079L41.2995 25.673C28.6262 29.4908 19.3955 41.2527 19.3955 55.1706C19.3955 72.1822 33.1862 85.9729 50.1979 85.9729C67.2096 85.9729 81.0003 72.1822 81.0003 55.1706C81.0003 41.2758 71.8001 29.5298 59.1592 25.692L67.9974 14.3721ZM53.6473 25.7881C53.632 25.783 53.617 25.7773 53.6023 25.771C52.4852 25.6431 51.3492 25.5773 50.1979 25.5773C49.0388 25.5773 47.8952 25.644 46.7708 25.7736C46.7582 25.7788 46.7452 25.7837 46.7321 25.7881C46.6372 25.82 46.54 25.827 46.4474 25.8127C31.8743 27.6558 20.6046 40.0971 20.6046 55.1706C20.6046 71.5145 33.854 84.7638 50.1979 84.7638C66.5418 84.7638 79.7911 71.5145 79.7911 55.1706C79.7911 40.0939 68.5168 27.6506 53.9391 25.8115C53.8445 25.8274 53.7446 25.8208 53.6473 25.7881ZM25.3976 55.1704C25.3976 41.4726 36.5019 30.3683 50.1997 30.3683C63.8975 30.3683 75.0018 41.4726 75.0018 55.1704C75.0018 68.8683 63.8975 79.9725 50.1997 79.9725C36.5019 79.9725 25.3976 68.8683 25.3976 55.1704ZM50.1997 29.1592C35.8341 29.1592 24.1885 40.8048 24.1885 55.1704C24.1885 69.536 35.8341 81.1817 50.1997 81.1817C64.5653 81.1817 76.2109 69.536 76.2109 55.1704C76.2109 40.8048 64.5653 29.1592 50.1997 29.1592Z" fill="#1D1F1E"/>
<path opacity="0.2" d="M50 83C65.464 83 78 70.464 78 55C78 39.536 65.464 27 50 27C34.536 27 22 39.536 22 55C22 70.464 34.536 83 50 83Z" stroke="#2A3E52" stroke-width="4.2"/>
</svg>
