<svg width="26" height="26" viewBox="0 0 26 26" fill="none" xmlns="http://www.w3.org/2000/svg">
<path d="M13.1746 0.000983811C12.4028 -0.00828591 11.6292 0.0479364 10.8895 0.170252C8.10938 0.630106 5.68793 1.89239 3.69563 3.91982C3.01736 4.61001 2.58408 5.14806 2.08512 5.91986C0.765625 7.96096 0.0671848 10.2199 0.00450628 12.6479C-0.063202 15.2778 0.633046 17.7999 2.02889 19.9758C3.90899 22.907 6.86097 24.9786 10.1967 25.7046C10.693 25.8126 11.5843 25.9501 12.0292 25.9859H12.0294H12.046C12.5387 26.0232 14.1034 25.9815 14.5889 25.9186H14.5891C17.5471 25.5317 20.1032 24.2785 22.1972 22.1878C24.2638 20.1248 25.51 17.5794 25.9252 14.5813C26.0243 13.8663 26.0247 12.1258 25.926 11.408C25.8327 10.7279 25.6686 9.92491 25.5119 9.38665C24.1428 4.68271 20.2582 1.14661 15.4482 0.22578C14.7159 0.085525 13.9457 0.0107647 13.1737 0.00129326L13.1746 0.000983811ZM13.6742 0.548067C14.6215 0.604694 15.6387 0.773359 16.5123 1.02605C16.7416 1.09235 17.0673 1.20218 17.3349 1.29991C17.46 1.34545 17.568 1.38717 17.6514 1.42142C17.6277 1.48309 17.6027 1.54797 17.5652 1.64007C17.4683 1.87826 17.3306 2.20392 17.1771 2.55796C17.0231 2.91262 16.8805 3.23685 16.7747 3.4726C16.7497 3.52822 16.735 3.55945 16.7146 3.60439C16.6753 3.56631 16.6473 3.53991 16.5973 3.49114C16.3976 3.29587 16.1189 3.0194 15.8008 2.70139C15.1642 2.06522 14.3692 1.26159 13.7256 0.600603L13.6744 0.54801L13.6742 0.548067ZM12.319 0.551089L11.8458 1.018C11.3697 1.48792 10.615 2.23148 10.1692 2.67039C9.59513 3.23563 9.33601 3.48975 9.18827 3.62434C9.15905 3.55804 9.12862 3.48812 9.08832 3.39602C8.98574 3.16046 8.85355 2.85498 8.72257 2.55066C8.59159 2.24638 8.46181 1.94333 8.36408 1.7134C8.32076 1.61164 8.2869 1.53124 8.25889 1.46454C8.35118 1.4204 8.49103 1.36297 8.6599 1.30111C9.00449 1.17516 9.46311 1.03108 9.88669 0.923271C10.7151 0.71229 11.4587 0.601857 12.3188 0.55128L12.319 0.551089ZM13.0007 0.633309L14.6894 2.33832C15.1934 2.84734 15.6514 3.31286 15.9831 3.65261C16.131 3.80395 16.2424 3.91941 16.3327 4.01332C16.2608 4.04939 16.1947 4.08304 16.0931 4.13281C15.7955 4.27911 15.3838 4.4776 14.9314 4.693C14.0252 5.12444 13.1814 5.52567 13.0635 5.58108L12.9313 5.64314L12.6881 5.52727C12.2619 5.32394 11.4966 4.95496 10.4785 4.46246C10.065 4.26236 9.70834 4.09308 9.55904 4.02598C9.56025 4.02417 9.56106 4.02397 9.56247 4.02215C9.67612 3.90588 9.83431 3.74769 10.0082 3.57701C10.358 3.23384 11.2072 2.39855 11.8958 1.7207L13.0005 0.633133L13.0007 0.633309ZM18.1605 1.63844C18.175 1.64368 18.1734 1.64146 18.1915 1.64891C18.3253 1.70413 18.556 1.8204 18.9049 2.00801C19.8058 2.49265 20.7696 3.18002 21.4697 3.83028L19.4443 3.83149L17.2079 3.8327L17.2145 3.81698C17.411 3.35632 17.6557 2.79029 17.8545 2.33384C17.9539 2.10573 18.0419 1.90502 18.1066 1.7589C18.129 1.70832 18.1443 1.67427 18.1606 1.6382L18.1605 1.63844ZM7.76151 1.67269C7.76574 1.68156 7.76937 1.68579 7.7732 1.69506C7.82116 1.80993 8.06458 2.37256 8.32069 2.96096C8.44866 3.25517 8.56734 3.5278 8.65521 3.72992C8.67737 3.7809 8.67435 3.77425 8.69289 3.81657C8.63001 3.81859 8.59616 3.82181 8.50206 3.82342C8.13168 3.83007 7.50782 3.83209 6.51491 3.83148L4.54733 3.83027C5.11963 3.30532 5.80213 2.78182 6.44398 2.38805C6.6725 2.248 7.02614 2.05071 7.3286 1.89112C7.47974 1.81132 7.61858 1.74039 7.72175 1.69082C7.73848 1.68276 7.74694 1.67953 7.76165 1.67268L7.76151 1.67269ZM4.16634 4.35807H6.48292C7.17651 4.35807 7.80727 4.36069 8.26387 4.36411C8.46216 4.36593 8.60986 4.36754 8.73299 4.36976C8.68946 4.51344 8.63103 4.70306 8.56594 4.91225C8.43213 5.34248 8.28503 5.81766 8.23827 5.97159C8.0821 6.48364 7.93621 6.95036 7.82618 7.29212C7.77117 7.46301 7.72502 7.60306 7.69157 7.70079C7.67726 7.74251 7.66658 7.77193 7.65731 7.79651C7.63011 7.80881 7.58497 7.82795 7.49328 7.862C7.28935 7.93778 6.90307 8.07339 6.17517 8.3279C5.61777 8.52276 4.88368 8.7807 4.54311 8.90119C4.40164 8.95116 4.28215 8.99287 4.17595 9.02955C4.17434 8.90381 4.17252 8.7557 4.17131 8.55519C4.16829 8.08788 4.16628 7.44266 4.16628 6.73292L4.16634 4.35807ZM19.4336 4.35807H21.7687V5.23C21.7687 5.82588 21.7798 6.97045 21.7931 7.77831C21.8004 8.21599 21.8032 8.58152 21.8016 8.83523C21.8012 8.89124 21.8 8.91885 21.799 8.96339C21.6932 8.92913 21.5699 8.88883 21.4119 8.83603C21.0449 8.71351 20.5629 8.55008 20.0829 8.38585C19.6029 8.22162 19.1245 8.05638 18.7644 7.93003C18.5844 7.86695 18.4339 7.81335 18.3283 7.77486C18.29 7.76096 18.2652 7.75149 18.24 7.74202C18.2366 7.73315 18.235 7.72912 18.2312 7.71884C18.208 7.65577 18.1761 7.56408 18.1385 7.45264C18.0631 7.22937 17.9646 6.92568 17.8614 6.59722C17.6133 5.80747 17.4203 5.18987 17.2891 4.76727C17.2351 4.59296 17.1986 4.47346 17.1661 4.36747C17.2905 4.36565 17.4392 4.36404 17.6391 4.36283C18.0992 4.35981 18.7345 4.3582 19.4334 4.3582L19.4336 4.35807ZM9.2611 4.47474C9.34392 4.51243 9.43662 4.55535 9.54806 4.60855C10.612 5.11677 11.381 5.48553 11.8866 5.72954C12.0621 5.81418 12.1653 5.86476 12.2784 5.91997C12.0303 6.02154 11.2154 6.35484 10.131 6.79814C9.53494 7.04177 8.98925 7.26323 8.59027 7.42384C8.47078 7.47201 8.39562 7.50163 8.30514 7.5377C8.31763 7.4984 8.32509 7.47543 8.33919 7.4309C8.43048 7.14132 8.55401 6.74618 8.68801 6.3147C8.98081 5.37102 9.1396 4.85999 9.22627 4.5839C9.24441 4.52626 9.24864 4.51357 9.26113 4.47468L9.2611 4.47474ZM16.637 4.47656C16.6632 4.55817 16.6913 4.64542 16.7293 4.76533C16.8255 5.0684 16.9538 5.47527 17.0848 5.89096C17.3159 6.62469 17.5128 7.25539 17.5948 7.52344C17.3117 7.40999 16.709 7.16858 15.6418 6.74138C14.9986 6.48384 14.4053 6.24586 13.968 6.07033C13.8117 6.00746 13.7035 5.96413 13.5918 5.91899C13.7966 5.82247 14.1159 5.67073 14.5119 5.48131C15.2471 5.12967 15.8298 4.85297 16.2294 4.66561C16.4076 4.58218 16.5353 4.52314 16.6373 4.47679L16.637 4.47656ZM22.2962 4.68573C22.8008 5.25056 23.3332 5.95503 23.7311 6.61762C23.8508 6.81712 24.0241 7.1369 24.1751 7.43213C24.3143 7.70437 24.4235 7.94075 24.4646 8.04432C24.4634 8.04452 24.4634 8.04452 24.4616 8.04512C24.3977 8.07092 24.3117 8.10618 24.2089 8.1487C24.0034 8.23354 23.7313 8.34699 23.4422 8.4687C22.916 8.69037 22.4781 8.87253 22.3296 8.93319V8.14003C22.3296 7.53285 22.3204 6.38426 22.3091 5.58342L22.2962 4.68573ZM3.64015 4.76653L3.64055 6.55357H3.64035V6.76072C3.64055 7.46298 3.63995 8.10137 3.63834 8.56365C3.63793 8.74622 3.63713 8.87499 3.63632 8.99569C3.62705 8.99146 3.62302 8.98965 3.61355 8.98541C3.42413 8.89957 3.16377 8.78128 2.87864 8.6513C2.30757 8.39095 1.73949 8.13522 1.59582 8.07399L1.54161 8.05102C1.64499 7.79127 2.02927 7.03681 2.27312 6.62633C2.63846 6.01131 3.11461 5.37575 3.64039 4.76656L3.64015 4.76653ZM12.9223 6.23316C12.9281 6.23518 12.9315 6.23659 12.939 6.23921C12.9742 6.25231 13.026 6.27205 13.0921 6.29744C13.2239 6.34822 13.4121 6.42178 13.642 6.51226C14.1019 6.69322 14.7288 6.94249 15.4117 7.21596L17.8148 8.17817L18.7167 10.3954C19.231 11.6597 19.6846 12.7759 19.7181 12.8593L19.7525 12.9457L19.6443 13.1988C19.5657 13.3828 19.0976 14.4839 18.6031 15.6481L17.7367 17.6871L15.83 18.4817C14.7387 18.9365 13.6118 19.4052 13.3285 19.5219L12.8892 19.7031L11.7174 19.2247C10.1282 18.576 9.19763 18.1953 8.66061 17.9726C8.39219 17.8612 8.22192 17.7893 8.11894 17.7439C8.07683 17.7252 8.05264 17.7143 8.03209 17.7044C8.02705 17.6944 8.02343 17.6871 8.01698 17.673C7.99179 17.6194 7.95652 17.5418 7.91461 17.4471C7.83098 17.2579 7.72095 17.0006 7.60468 16.7227C7.37113 16.1645 6.91852 15.0858 6.59852 14.3249C6.43872 13.945 6.29363 13.5954 6.18865 13.3389C6.13605 13.2107 6.09374 13.1055 6.06472 13.0324C6.05686 13.0124 6.05283 13.0022 6.04719 12.9873C6.06049 12.9542 6.07741 12.9133 6.10079 12.8569C6.15379 12.7289 6.23076 12.5453 6.32608 12.3203C6.51651 11.8701 6.77908 11.2539 7.06806 10.5806L8.08572 8.20918L8.3894 8.08545C9.35548 7.69169 11.7906 6.69564 12.1255 6.55718C12.4946 6.40463 12.707 6.31778 12.8279 6.27204C12.9394 6.22972 12.9488 6.23516 12.9224 6.23314L12.9223 6.23316ZM18.4968 8.42645C18.5641 8.44821 18.6116 8.46312 18.6928 8.48952C19.0473 8.60479 19.5194 8.76015 19.9922 8.91673C20.4648 9.07351 20.9379 9.23149 21.2944 9.35179C21.4502 9.40439 21.5707 9.4459 21.6716 9.48076C21.663 9.49648 21.6589 9.50454 21.6495 9.52187C21.5652 9.67683 21.4473 9.89104 21.3162 10.128C21.0538 10.6022 20.7378 11.1684 20.5286 11.5364C20.4408 11.691 20.2638 12.0096 20.1331 12.2484C20.1147 12.2818 20.1022 12.3024 20.0847 12.3336C20.0821 12.3276 20.0809 12.3255 20.0784 12.3191C19.9795 12.0849 19.8453 11.7605 19.7004 11.4038C19.4098 10.6887 18.9838 9.64037 18.7537 9.07415C18.6517 8.82326 18.5665 8.60664 18.4967 8.42626L18.4968 8.42645ZM7.389 8.47158C7.36804 8.52196 7.36381 8.53466 7.33661 8.59935C7.15766 9.02454 6.83605 9.77497 6.27566 11.0769C6.08161 11.5279 5.90367 11.9394 5.77369 12.2385C5.75354 12.2848 5.74326 12.308 5.72553 12.3487C5.70901 12.3173 5.70276 12.3066 5.68382 12.2709C5.52059 11.9606 5.26991 11.4757 4.91708 10.7882C4.72927 10.4222 4.48564 9.95273 4.3736 9.74112C4.33632 9.67059 4.30932 9.61578 4.28091 9.55896C4.38126 9.52208 4.507 9.47674 4.66579 9.42032C5.01542 9.29578 5.47933 9.13256 5.94279 8.97054C6.40627 8.80872 6.86914 8.64832 7.21673 8.52963C7.28787 8.50524 7.32817 8.49214 7.38862 8.47159L7.389 8.47158ZM24.6687 8.53466C24.7041 8.64227 24.7531 8.78857 24.8355 9.03119C25.2001 10.1048 25.3865 11.0822 25.4664 12.3187C25.4106 12.2641 25.3739 12.2288 25.3068 12.1629C24.9874 11.8496 24.5493 11.4173 24.0694 10.9415L22.5407 9.42637C22.662 9.37398 22.8347 9.30002 23.0318 9.2172C23.2754 9.11503 23.7717 8.90586 24.1355 8.75211C24.316 8.67574 24.4851 8.60642 24.6108 8.55664C24.6348 8.54717 24.6479 8.54233 24.6685 8.53448L24.6687 8.53466ZM1.34658 8.54957C1.40925 8.57678 1.47373 8.60479 1.563 8.64408C1.79757 8.74746 2.10849 8.8859 2.41961 9.02534C2.73073 9.16479 3.04268 9.30524 3.27864 9.41285C3.34172 9.44167 3.38141 9.46 3.4322 9.48338C3.37658 9.54021 3.3391 9.5797 3.24197 9.67643C2.92459 9.993 2.36339 10.5454 1.40092 11.4904C0.998098 11.886 0.725645 12.1492 0.543903 12.3239C0.593475 11.5376 0.704711 10.744 0.867329 10.0639C0.924158 9.82652 1.05655 9.39208 1.17867 9.0255C1.23973 8.84212 1.29877 8.67447 1.34391 8.55597C1.34512 8.55295 1.34552 8.55215 1.34653 8.54953L1.34658 8.54957ZM22.1301 9.78504C22.2205 9.87229 22.3348 9.98333 22.4831 10.1282C22.8092 10.447 23.2563 10.8871 23.7456 11.3712L25.3759 12.9843L23.7471 14.5801C23.258 15.0591 22.8109 15.4946 22.4846 15.8101C22.3379 15.952 22.2256 16.0596 22.1353 16.1457C22.0852 16.059 22.0301 15.9637 21.9566 15.8343C21.7746 15.5139 21.5338 15.0849 21.2932 14.6536C21.0526 14.2224 20.812 13.7885 20.6307 13.4578C20.54 13.2926 20.4642 13.153 20.4108 13.053C20.3894 13.0131 20.3749 12.9847 20.3614 12.9587C20.3618 12.9587 20.3618 12.9587 20.3622 12.9543C20.3856 12.9021 20.4287 12.816 20.4936 12.6941C20.6234 12.4501 20.8406 12.0595 21.1778 11.4623C21.3841 11.0969 21.7092 10.5204 21.9004 10.1804C21.9877 10.0253 22.0661 9.89044 22.1297 9.78323L22.1301 9.78504ZM3.83051 9.86C3.83756 9.87269 3.84099 9.87833 3.84844 9.89224C3.93348 10.0488 4.04814 10.2671 4.17106 10.5066C4.41832 10.9889 4.81833 11.7649 5.06033 12.2318L5.45106 12.986L4.62726 14.6153C4.38787 15.0888 4.16761 15.5194 4.00558 15.831C3.94553 15.9462 3.90382 16.025 3.86211 16.1036C3.82543 16.0692 3.79964 16.045 3.75309 16.0008C3.56649 15.8235 3.30432 15.572 2.99904 15.2778C2.38866 14.6892 1.60577 13.929 0.905935 13.2435L0.640343 12.9831L1.16447 12.4677C2.2754 11.3753 2.98452 10.6792 3.41837 10.2571C3.61303 10.0676 3.73575 9.94955 3.83026 9.85968L3.83051 9.86ZM20.0722 13.564C20.1146 13.6386 20.1504 13.7017 20.2044 13.798C20.3846 14.119 20.6214 14.5438 20.8566 14.9678C21.0917 15.3915 21.3253 15.8145 21.499 16.1317C21.5703 16.2619 21.6229 16.3588 21.6699 16.4458C21.6302 16.4589 21.6029 16.4678 21.5542 16.4841C21.3426 16.5536 21.0516 16.6484 20.7326 16.7517C20.1045 16.9555 19.2624 17.2303 18.8279 17.3732H18.8271L18.7955 17.3839C18.6395 17.4353 18.5141 17.4756 18.3898 17.5155C18.4216 17.4401 18.4493 17.3748 18.4912 17.2759C18.6258 16.9581 18.8069 16.5313 19.0012 16.0736C19.3899 15.1588 19.8316 14.1214 20.0583 13.5924C20.0636 13.5799 20.0668 13.5753 20.0718 13.5642L20.0722 13.564ZM0.54285 13.6301C0.637761 13.7222 0.731871 13.8143 0.885622 13.964C1.75213 14.8076 2.66435 15.6946 3.19776 16.2127C3.31223 16.3239 3.41036 16.4215 3.49097 16.5031C3.40754 16.5496 3.32673 16.5944 3.14033 16.6939C2.72521 16.9156 2.62869 16.9682 1.82367 17.4095C1.6673 17.4951 1.52442 17.5727 1.41762 17.6295C1.39001 17.5618 1.3614 17.4913 1.32533 17.3928C1.23102 17.1344 1.11676 16.7941 1.02205 16.4787C0.773384 15.6513 0.611771 14.6767 0.542649 13.6303L0.54285 13.6301ZM5.7284 13.6345C5.78724 13.7724 5.8479 13.9146 5.92991 14.1085C6.14513 14.6167 6.42422 15.2803 6.68598 15.906C6.78794 16.1498 7.01042 16.6792 7.18049 17.083C7.24356 17.2329 7.29354 17.3549 7.3425 17.4744C7.14542 17.4038 6.34604 17.1225 5.55671 16.846C5.16174 16.7078 4.80142 16.5806 4.53925 16.4875C4.44797 16.4553 4.38691 16.4331 4.32222 16.41C4.36172 16.3289 4.40525 16.2401 4.46671 16.1159C4.61905 15.8094 4.83104 15.3875 5.06579 14.925C5.30055 14.4625 5.51536 14.0434 5.67215 13.7413C5.69572 13.696 5.70741 13.6744 5.72817 13.6345L5.7284 13.6345ZM25.4647 13.6493C25.378 15.0058 25.1616 16.0614 24.7033 17.3327C24.6646 17.4401 24.6276 17.5298 24.5951 17.6051C24.549 17.5824 24.5036 17.5602 24.4498 17.5312C24.2818 17.4409 23.7336 17.1566 23.2216 16.8938C22.9667 16.763 22.7347 16.6417 22.5677 16.5523C22.5507 16.5434 22.5437 16.5389 22.5282 16.5305C22.5397 16.5186 22.5449 16.5132 22.5576 16.5003C22.6884 16.3679 22.8697 16.1871 23.0692 15.9908C24.4109 14.6715 25.2121 13.8905 25.4646 13.649L25.4647 13.6493ZM4.21432 16.9486C4.30197 16.9782 4.38863 17.0075 4.51195 17.05C4.84969 17.1658 5.30067 17.3226 5.7551 17.4812C6.20951 17.64 6.66716 17.8006 7.01816 17.9254C7.19368 17.9876 7.3424 18.041 7.45041 18.0801C7.50441 18.0997 7.54814 18.1158 7.57938 18.1275C7.59147 18.1321 7.58683 18.1319 7.5959 18.1339C7.61283 18.1662 7.64446 18.2417 7.6898 18.3697C7.78008 18.6254 7.9286 19.0927 8.18936 19.927C8.34936 20.4391 8.49485 20.9076 8.60044 21.2498C8.64054 21.3801 8.66856 21.4716 8.69576 21.5605C8.57385 21.5649 8.42775 21.5659 8.23107 21.5679C7.77787 21.5732 7.15135 21.576 6.46261 21.576H4.16434L4.18752 19.2308C4.19457 18.5285 4.20183 17.8891 4.20767 17.4248C4.21029 17.2241 4.2123 17.0746 4.21432 16.9487L4.21432 16.9486ZM21.7937 16.9788C21.7957 17.1066 21.7981 17.2614 21.8008 17.4671C21.8068 17.9348 21.8141 18.5793 21.8211 19.2866L21.8447 21.6501H19.4539C18.7396 21.6501 18.0899 21.6457 17.62 21.6421C17.4096 21.6421 17.2504 21.6374 17.1228 21.6346C17.1254 21.6257 17.1263 21.6219 17.1289 21.6128C17.1752 21.4514 17.2391 21.232 17.3094 20.9942C17.4507 20.5168 17.7016 19.6606 17.8674 19.0905L18.138 18.1597L20.0421 17.5415C20.594 17.3622 21.0966 17.2004 21.4616 17.0841C21.6016 17.0395 21.6994 17.0089 21.7937 16.9793L21.7937 16.9788ZM3.67833 17.0099L3.65656 19.1928C3.64971 19.8893 3.64246 20.5236 3.63641 20.9843C3.6352 21.0849 3.6344 21.1399 3.63299 21.2227C3.49535 21.0651 3.3424 20.8878 3.23177 20.7502C2.93213 20.3768 2.57744 19.8637 2.29794 19.3982C2.18973 19.2179 2.00414 18.8728 1.84897 18.5704C1.77139 18.4193 1.70066 18.2778 1.65068 18.1724C1.64202 18.1545 1.63839 18.1452 1.63113 18.1293C1.67688 18.1011 1.71657 18.0757 1.81995 18.0176C2.10812 17.8558 2.64556 17.5654 3.62613 17.0377L3.67852 17.0097L3.67833 17.0099ZM22.3235 17.0286L22.4345 17.0873C22.6683 17.2108 23.238 17.5058 23.7047 17.745C23.9376 17.8643 24.1504 17.9737 24.3056 18.0537C24.343 18.0733 24.3646 18.0843 24.3948 18.1001C24.3696 18.1557 24.3445 18.2113 24.3082 18.2865C24.2086 18.4924 24.0772 18.7512 23.964 18.9595C23.6926 19.4597 23.1789 20.2371 22.8041 20.7151C22.6786 20.8751 22.5065 21.0738 22.3692 21.2287L22.3684 20.6734C22.3676 20.0708 22.3557 18.9276 22.3422 18.1287L22.3237 17.0284L22.3235 17.0286ZM17.5271 18.3604C17.3457 18.9758 16.8204 20.765 16.6989 21.1818C16.6585 21.3198 16.6223 21.4365 16.5908 21.534C16.4905 21.4854 16.3643 21.4238 16.2068 21.346C15.8622 21.1761 15.4072 20.9502 14.9542 20.7239C14.5012 20.4978 14.0504 20.2717 13.7136 20.1012C13.6427 20.0652 13.6028 20.0446 13.543 20.0142C13.5923 19.9934 13.6224 19.9803 13.6796 19.956C14.0022 19.8197 14.4435 19.6353 14.925 19.4363C15.2697 19.2936 15.7506 19.0941 15.9942 18.9925C16.2374 18.8912 16.7725 18.6679 17.1833 18.4966C17.3474 18.4281 17.424 18.4003 17.5271 18.3604L17.5271 18.3604ZM8.27233 18.4072C8.4948 18.4922 8.7882 18.6068 9.11346 18.736C9.78894 19.0046 10.5728 19.3239 10.9875 19.5032C11.0889 19.5469 11.4885 19.7111 11.8943 19.876C12.0275 19.9302 12.1295 19.9723 12.2387 20.0172C12.0301 20.1158 11.6513 20.2973 11.3293 20.4535C10.9851 20.6204 10.5373 20.8362 10.336 20.9323C10.1331 21.029 9.75525 21.2098 9.49592 21.3341C9.39254 21.3837 9.3073 21.4242 9.22851 21.4613C9.2009 21.3752 9.17108 21.2821 9.12956 21.1509C9.02579 20.8225 8.88372 20.3691 8.72855 19.8701C8.57339 19.371 8.43052 18.9122 8.32513 18.575C8.30316 18.5049 8.29087 18.4656 8.27233 18.4068L8.27233 18.4072ZM12.8989 20.3127C12.9275 20.3254 12.9634 20.3419 13.0111 20.3645C13.1177 20.4144 13.2666 20.486 13.4428 20.5712C13.795 20.7421 14.2569 20.969 14.7157 21.1963C15.1746 21.4236 15.6308 21.6515 15.9714 21.824C16.1088 21.8935 16.2098 21.9455 16.3016 21.9933C16.2573 22.04 16.2208 22.0787 16.1616 22.1406C15.9637 22.3469 15.6903 22.6291 15.3892 22.936C14.7864 23.5506 13.9697 24.3826 13.5748 24.7846L13.0017 25.3678L11.2429 23.6272C10.7187 23.1085 10.2423 22.6343 9.89735 22.2883C9.74158 22.1322 9.6233 22.0123 9.52899 21.9166C9.56244 21.8994 9.58239 21.8891 9.62209 21.869C9.82924 21.7652 10.1164 21.625 10.432 21.4734C11.0651 21.1697 11.8879 20.7748 12.2605 20.5954C12.4442 20.5071 12.6188 20.4277 12.7489 20.3725C12.8116 20.3457 12.8628 20.3256 12.8987 20.3125L12.8989 20.3127ZM6.4773 22.1027C7.46994 22.1027 8.09383 22.1027 8.46444 22.1108C8.56116 22.1108 8.59703 22.1154 8.66071 22.1176C8.45074 22.6272 7.79523 24.2122 7.75087 24.3169C7.69183 24.2901 7.62694 24.2605 7.55137 24.2228C6.36383 23.6298 5.32687 22.91 4.48997 22.1035H6.47727L6.4773 22.1027ZM17.1719 22.1753H21.4379C20.6223 22.9462 19.4886 23.7241 18.4005 24.25H18.3966C18.3128 24.2903 18.2411 24.3234 18.1758 24.3532C18.1546 24.3099 18.1367 24.2738 18.1089 24.2156C18.0178 24.0247 17.8955 23.7632 17.7655 23.4829C17.5372 22.99 17.3145 22.4971 17.1718 22.1712L17.1719 22.1753ZM9.14642 22.3344C9.24012 22.4219 9.35237 22.5279 9.50189 22.672C9.84587 23.0031 10.3176 23.4647 10.8333 23.976L11.1862 24.3256L12.3261 25.4556C12.1873 25.4484 12.1147 25.4488 11.7153 25.4109C10.9647 25.3398 10.0581 25.1556 9.30724 24.9214C9.13515 24.8676 8.83369 24.762 8.57475 24.6669C8.45264 24.622 8.34301 24.5805 8.25696 24.5466C8.28074 24.4817 8.30593 24.4134 8.3424 24.3185C8.43651 24.0741 8.56548 23.7478 8.69727 23.4208C8.82906 23.0937 8.96367 22.7653 9.06866 22.5158C9.09989 22.4414 9.12145 22.3927 9.14644 22.3346L9.14642 22.3344ZM16.6864 22.3864C16.7511 22.5329 16.9653 23.0079 17.185 23.4924C17.4082 23.9845 17.6263 24.4649 17.6756 24.5745L17.432 24.667C16.2915 25.1003 15.1418 25.3544 13.8907 25.4493C13.7897 25.4567 13.7587 25.4573 13.6648 25.4632C13.9664 25.148 14.678 24.4196 15.3986 23.6874C15.7838 23.2959 16.154 22.9211 16.4287 22.6444C16.5359 22.5366 16.6131 22.4594 16.6862 22.3865L16.6864 22.3864Z" fill="black"/>
</svg>
