<svg width="32" height="32" viewBox="0 0 32 32" fill="none" xmlns="http://www.w3.org/2000/svg">
<g clip-path="url(#clip0_4709_174359)">
<path d="M24.4558 7.51472C29.1421 12.201 29.1421 19.799 24.4558 24.4853C19.7696 29.1716 12.1716 29.1716 7.48528 24.4853C2.79899 19.799 2.79899 12.201 7.48528 7.51472C12.1716 2.82843 19.7696 2.82843 24.4558 7.51472Z" fill="#F3D7AD"/>
<path d="M24.4558 7.51472C29.1421 12.201 29.1421 19.799 24.4558 24.4853C19.7696 29.1716 12.1716 29.1716 7.48528 24.4853C2.79899 19.799 2.79899 12.201 7.48528 7.51472C12.1716 2.82843 19.7696 2.82843 24.4558 7.51472Z" fill="url(#paint0_angular_4709_174359)"/>
<circle cx="16" cy="16" r="15.5" stroke="#1D1F1E"/>
</g>
<defs>
<radialGradient id="paint0_angular_4709_174359" cx="0" cy="0" r="1" gradientUnits="userSpaceOnUse" gradientTransform="translate(15.9706 16) rotate(45) scale(12)">
<stop offset="0.043574" stop-color="#DCAC65"/>
<stop offset="0.255208" stop-color="white"/>
<stop offset="0.562355" stop-color="#DCAC65" stop-opacity="0.236842"/>
<stop offset="0.75" stop-color="white" stop-opacity="0.5"/>
<stop offset="0.97267" stop-color="#DCAC65"/>
</radialGradient>
<clipPath id="clip0_4709_174359">
<rect width="32" height="32" fill="white"/>
</clipPath>
</defs>
</svg>
