<svg width="24" height="24" viewBox="0 0 24 24" fill="none" xmlns="http://www.w3.org/2000/svg">
<path d="M12 24C18.6274 24 24 18.6274 24 12C24 5.37258 18.6274 0 12 0C5.37258 0 0 5.37258 0 12C0 18.6274 5.37258 24 12 24Z" fill="#E4E4E4"/>
<path d="M3.76538 8.84261L5.11206 11.9999L7.16939 7.57861L3.76538 8.84261Z" fill="white"/>
<path d="M3.13062 3.91716L8.66528 4.08252L7.42261 0.90918C5.77194 1.58785 4.31195 2.62249 3.13062 3.91716Z" fill="white"/>
<path d="M7.31323 16.6172L8.94926 19.9692L12.0693 18.6065L7.31323 16.6172Z" fill="white"/>
<path d="M3.62109 15.0587L7.31441 16.6174L5.11178 12L3.62109 15.0587Z" fill="#FCFCFC"/>
<path d="M3.13062 3.91748L3.7653 8.84285L7.16931 7.57886L8.66528 4.08285L3.13062 3.91748Z" fill="#F2F2F2"/>
<path d="M0 11.9998C0 12.0878 -2.92994e-06 12.1797 0.0053304 12.2677L3.76534 8.84245L0.871989 7.51172C0.309322 8.89972 0 10.4104 0 11.9998Z" fill="#59595B"/>
<path d="M0.866699 7.51213L3.76538 8.84285L3.1307 3.91748C2.17603 4.96148 1.40803 6.18013 0.866699 7.51213Z" fill="#8F8E93"/>
<path d="M0.00537109 12.2681L3.62138 15.0588L5.11206 12.0001L3.76538 8.84277L0.00537109 12.2681Z" fill="#8F8E93"/>
<path d="M0.97998 16.7506C1.55731 18.0826 2.368 19.2959 3.36267 20.3239L3.62667 15.0586L0.97998 16.7506Z" fill="#59595B"/>
<path d="M12.0691 18.6068L15.4784 19.8201L16.6597 16.6841L12.0691 18.6068Z" fill="white"/>
<path d="M0.00537109 12.2666C0.0360378 13.8559 0.381355 15.3719 0.980021 16.7506L3.62671 15.0586L0.00537109 12.2666Z" fill="#8F8E93"/>
<path d="M12.0691 5.53727L16.6851 7.48128L15.4784 4.22656L12.0691 5.53727Z" fill="white"/>
<path d="M7.16943 7.57853L12.0694 5.53719L8.66541 4.08252L7.16943 7.57853Z" fill="#FCFCFC"/>
<path d="M16.856 16.5507L20.3066 15.208L18.6053 12L16.856 16.5507Z" fill="#FCFCFC"/>
<path d="M16.6868 7.47998L18.6054 12L20.0961 8.84269L16.6868 7.47998Z" fill="#FCFCFC"/>
<path d="M20.3066 15.208L20.6426 20.3293C21.6373 19.296 22.448 18.088 23.0253 16.756L20.3066 15.208Z" fill="#59595B"/>
<path d="M20.0959 8.84285L24 12.0002C24 10.4735 23.716 9.01353 23.1906 7.66553L20.0959 8.84285Z" fill="#8F8E93"/>
<path d="M20.3066 15.208L23.02 16.7507C23.6493 15.296 24 13.6867 24 12L20.3066 15.208Z" fill="#8F8E93"/>
<path d="M18.6055 12.0001L20.3068 15.2081L24.0001 12.0001L20.0961 8.84277L18.6055 12.0001Z" fill="#F2F2F2"/>
<path d="M15.4788 19.82L20.6427 20.324L20.3068 15.2026L16.8507 16.5453L16.8254 16.612L16.6547 16.684L15.4788 19.82Z" fill="#8F8E93"/>
<path d="M3.35742 20.3239C3.35742 20.3292 3.35742 20.3292 3.35742 20.3239C4.45076 21.4599 5.76676 22.3799 7.2321 23.0186L8.94409 19.9692C8.94943 19.9692 3.45076 20.2466 3.35742 20.3239Z" fill="#8F8E93"/>
<path d="M7.41724 0.905355L8.66524 4.08268L12.0026 0C10.3773 0 8.83057 0.324021 7.41724 0.905355Z" fill="#F2F2F2"/>
<path d="M7.2356 23.0132C8.6956 23.6452 10.3103 23.9945 12.0023 23.9945L8.94893 19.9639L7.2356 23.0132Z" fill="#8B8B9E"/>
<path d="M12.0029 24.0003C13.7723 24.0003 15.4482 23.6203 16.9602 22.931L15.4789 19.8203L12.0029 24.0003Z" fill="#8B8B9E"/>
<path d="M15.4788 19.8198L16.9601 22.9305C18.3467 22.2985 19.5947 21.4132 20.6427 20.3292L15.4788 19.8198Z" fill="#8F8E93"/>
<path d="M15.4788 4.22664L20.8694 3.91732C19.7041 2.64265 18.2694 1.62004 16.6547 0.936035L15.4788 4.22664Z" fill="#FCFCFC"/>
<path d="M15.4788 4.22681L16.6868 7.48153L20.0961 8.84285L20.8694 3.91748L15.4788 4.22681Z" fill="white"/>
<path d="M12.0029 0L15.4843 4.22664L16.6602 0.936035C15.2269 0.334702 13.6536 0 12.0029 0Z" fill="#F2F2F2"/>
<path d="M20.0959 8.84285L23.1946 7.66553C22.6533 6.27219 21.864 5.00281 20.8746 3.91748L20.0959 8.84285Z" fill="#8F8E93"/>
<path d="M8.66528 4.08268L12.0693 5.53735L15.4786 4.22664L12.0026 0L8.66528 4.08268Z" fill="#59595B"/>
<path d="M16.6599 16.6841L16.8306 16.6174L16.8559 16.5508L16.6866 16.6174L16.6599 16.6841Z" fill="#59595B"/>
<path d="M3.35742 20.324C3.45076 20.252 8.94409 19.9693 8.94409 19.9693L7.30941 16.6174L3.61609 15.064L3.35742 20.324Z" fill="#F2F2F2"/>
<path d="M8.94922 19.9691L12.0026 23.9998L15.4786 19.8197L12.0692 18.6064L8.94922 19.9691Z" fill="#F2F2F2"/>
</svg>
