<svg width="42" height="36" viewBox="0 0 42 36" fill="none" xmlns="http://www.w3.org/2000/svg">
<g id="ring icons">
<path id="Vector" d="M39.1199 17.9436C39.1199 17.2743 38.6809 16.7135 38.0729 16.5167C38.2869 16.4486 38.4859 16.3377 38.6549 16.1736C38.9549 15.8886 39.1199 15.4986 39.1199 15.0861C39.1199 14.2761 38.4819 13.6086 37.6719 13.5786L37.5749 13.5711C36.2399 13.5111 34.9119 13.4661 33.5699 13.4286C33.5169 13.3161 33.4499 13.2036 33.3819 13.0986C32.7969 12.1386 31.7249 11.5386 30.5849 11.5386C29.4369 11.5386 28.3869 12.1236 27.7869 13.0911C27.7499 13.1511 27.7119 13.2186 27.6749 13.2861C19.9199 13.1511 12.1349 13.2486 4.42487 13.5711L4.32687 13.5786C3.51687 13.6086 2.87988 14.2761 2.87988 15.0861C2.87988 15.4986 3.04488 15.8886 3.34488 16.1736C3.51288 16.337 3.71187 16.4484 3.92587 16.5169C3.31887 16.7138 2.87988 17.2745 2.87988 17.9437C2.87988 18.6119 3.31789 19.1768 3.92389 19.3764C3.71089 19.4455 3.51188 19.5551 3.34488 19.7137C3.04488 19.9987 2.87988 20.3887 2.87988 20.8086C2.87988 21.6186 3.51787 22.2786 4.32687 22.3166H4.42487C9.58487 22.5336 14.7749 22.6536 19.9799 22.6616C20.5269 23.7336 21.6369 24.4616 22.9119 24.4616C24.2099 24.4616 25.3269 23.7186 25.8669 22.6316C29.7749 22.5866 33.6899 22.4816 37.5749 22.3166H37.6719C38.4819 22.2786 39.1199 21.6186 39.1199 20.8086C39.1199 20.3887 38.9549 20.0062 38.6549 19.7137C38.4879 19.5551 38.2889 19.4454 38.0759 19.3764C38.6819 19.1767 39.1199 18.6118 39.1199 17.9436ZM32.6249 18.7086H32.3999C32.4449 18.6636 32.4749 18.6111 32.5049 18.5586C32.5419 18.6111 32.5799 18.6636 32.6249 18.7086ZM32.2649 18.2436C32.1519 18.5211 31.8819 18.6936 31.5969 18.7086H31.5149C31.4249 18.7011 31.3419 18.6936 31.2599 18.6561C31.0649 18.5811 30.9219 18.4311 30.8399 18.2361C30.8249 18.2061 30.8169 18.1761 30.8099 18.1461C31.3419 18.1086 31.8449 17.9436 32.2799 17.6886C32.3399 17.8611 32.3399 18.0561 32.2649 18.2436ZM28.7849 18.7086H28.5599C28.6049 18.6636 28.6269 18.6036 28.6649 18.5511C28.7019 18.6036 28.7399 18.6561 28.7849 18.7086ZM30.5849 13.7061L31.3949 14.0361L31.4249 14.1186L31.7249 14.8461L31.4019 15.6411L31.3949 15.6486L30.5849 15.9861L29.7819 15.6486L29.7599 15.5961L29.4449 14.8461L29.7669 14.0736L29.7819 14.0361L30.5849 13.7061ZM29.8269 13.8111L29.9099 13.3236L29.9249 13.2336L30.0519 13.3311L30.3969 13.5786L29.8269 13.8111ZM30.7719 13.5861L31.0869 13.3536L31.2519 13.2336L31.2749 13.3611L31.3419 13.8186L30.7719 13.5861ZM32.9919 15.6786C32.9919 15.6936 32.9919 15.7011 32.9849 15.7161L32.8799 15.6786L32.5569 15.5586L33.1119 15.1686C33.0899 15.3486 33.0519 15.5211 32.9919 15.6786ZM32.9169 15.8961C32.8349 16.0761 32.7299 16.2411 32.6099 16.3911L32.4899 15.7311L32.9169 15.8961ZM32.3319 16.7061L31.4319 16.5411L31.4469 16.4361L31.4549 16.3911L31.5449 15.7986L32.2869 15.6861L32.4219 16.4136L32.4299 16.4361L32.4519 16.5861C32.4149 16.6236 32.3699 16.6686 32.3319 16.7061ZM29.9019 16.3461L29.8269 15.8736L30.3969 16.1061L30.0519 16.3536L29.9399 16.4361L29.9169 16.4511V16.4361L29.9019 16.3461ZM29.8719 16.8186L30.2619 17.3736L30.1269 17.3511C30.1199 17.3511 30.1199 17.3436 30.1199 17.3436C29.9769 17.3286 29.8419 17.2911 29.7149 17.2461L29.7369 17.1936L29.8719 16.8186ZM29.9849 16.6461L30.2699 16.4361L30.3669 16.3611L30.5849 16.1961L30.8249 16.3761L30.9069 16.4361L31.1919 16.6386L30.6669 17.3961C30.6369 17.3961 30.6149 17.4036 30.5849 17.4036C30.5549 17.4036 30.5319 17.3961 30.5019 17.3961L29.9849 16.6461ZM30.7719 16.1061L31.3419 15.8736L31.2599 16.3836L31.2519 16.4361L31.2449 16.4586L31.2149 16.4361L31.1399 16.3836L30.7719 16.1061ZM31.3049 16.8186L31.4699 17.1861L31.4919 17.2311C31.3569 17.2836 31.2219 17.3211 31.0799 17.3436C31.0269 17.3586 30.9749 17.3661 30.9219 17.3736L31.3049 16.8186ZM31.4849 16.7436L32.1369 16.8636C31.9949 16.9761 31.8369 17.0811 31.6649 17.1561L31.4849 16.7436ZM31.6119 15.5961L31.8519 15.0336L32.1969 15.5061L31.6119 15.5961ZM31.6269 14.1186L31.6119 14.0886L31.8749 14.1261L32.1969 14.1786L31.8519 14.6511L31.6269 14.1186ZM29.3169 14.6511L28.9719 14.1786L29.5499 14.0961L29.3169 14.6511ZM29.3249 15.0336L29.5569 15.5886V15.5961L29.4969 15.5886L28.9799 15.5061L29.3249 15.0336ZM29.6249 15.8061L29.7149 16.3461L29.7299 16.4361L29.7449 16.5411L28.8369 16.7061C28.7999 16.6686 28.7619 16.6311 28.7249 16.5861L28.7469 16.4361L28.7699 16.3236L28.8819 15.6861L29.6249 15.8061ZM29.6999 16.7436L29.5349 17.1711C29.3549 17.0886 29.1899 16.9836 29.0319 16.8636L29.6999 16.7436ZM28.5749 16.3161L28.5599 16.3911C28.5449 16.3686 28.5219 16.3461 28.5069 16.3161C28.4169 16.1961 28.3349 16.0611 28.2749 15.9186L28.6799 15.7386L28.5749 16.3161ZM28.5819 15.5736L28.1999 15.7386C28.1769 15.6861 28.1619 15.6261 28.1469 15.5661C28.1099 15.4386 28.0799 15.3111 28.0649 15.1761L28.6119 15.5586L28.5819 15.5736ZM28.0119 17.2311C28.4019 17.3961 28.5899 17.8461 28.4249 18.2436C28.3499 18.4311 28.1999 18.5811 28.0119 18.6561C27.9299 18.6936 27.8399 18.7011 27.7569 18.7086H27.6749C27.5849 18.7011 27.5019 18.6936 27.4199 18.6561C27.2319 18.5811 27.0819 18.4311 26.9999 18.2361C26.9249 18.0486 26.9249 17.8386 27.0069 17.6511C27.1119 17.3811 27.3599 17.2161 27.6299 17.1861H27.7799C27.8619 17.1936 27.9369 17.2011 28.0119 17.2311ZM28.9049 17.6961C29.3399 17.9511 29.8419 18.1161 30.3749 18.1461C30.3669 18.1761 30.3599 18.2136 30.3449 18.2436C30.2319 18.5211 29.9619 18.6936 29.6849 18.7086H29.5949C29.5119 18.7011 29.4219 18.6936 29.3399 18.6561C29.1449 18.5811 29.0019 18.4311 28.9199 18.2361C28.8519 18.0636 28.8449 17.8686 28.9049 17.6961ZM30.5849 18.5586C30.6219 18.6111 30.6599 18.6636 30.7049 18.7086H30.4869C30.5249 18.6636 30.5549 18.6111 30.5849 18.5586ZM32.7599 17.6511C32.8719 17.3811 33.1199 17.2161 33.3899 17.1861H33.5399C33.6149 17.1936 33.6969 17.2011 33.7719 17.2311C34.1619 17.3961 34.3499 17.8461 34.1849 18.2436C34.0719 18.5211 33.8019 18.6936 33.5169 18.7086H33.4349C33.3449 18.7011 33.2619 18.6936 33.1799 18.6561C32.7819 18.4911 32.5949 18.0411 32.7599 17.6511ZM34.4249 18.5586C34.4619 18.6111 34.4999 18.6636 34.5449 18.7086H34.3199C34.3649 18.6636 34.3949 18.6111 34.4249 18.5586ZM34.3269 17.1861H34.5449C34.5069 17.2311 34.4769 17.2911 34.4469 17.3361C34.4099 17.2836 34.3719 17.2311 34.3269 17.1861ZM34.6799 17.6511C34.7619 17.4561 34.9049 17.3136 35.0999 17.2311C35.1749 17.2011 35.2499 17.1936 35.3249 17.1861H35.4599C35.5349 17.1936 35.6169 17.2011 35.6919 17.2311C35.8799 17.3136 36.0299 17.4636 36.1049 17.6511C36.1869 17.8386 36.1869 18.0486 36.1049 18.2436C35.9849 18.5211 35.7219 18.6936 35.4369 18.7086H35.3549C35.2649 18.7011 35.1819 18.6936 35.0919 18.6561C34.7019 18.4911 34.5149 18.0411 34.6799 17.6511ZM36.2399 18.7086C36.2849 18.6636 36.3149 18.6111 36.3449 18.5586C36.3819 18.6111 36.4199 18.6636 36.4569 18.7086H36.2399ZM36.3599 17.3436C36.3299 17.2836 36.2919 17.2311 36.2469 17.1861H36.4649C36.4269 17.2311 36.3969 17.2911 36.3599 17.3436ZM37.0169 14.4274C37.1119 14.3886 37.2119 14.3688 37.3109 14.3688C37.4119 14.3688 37.5119 14.3886 37.6079 14.4281C38.0009 14.5922 38.1869 15.0448 38.0239 15.4381C37.9499 15.6161 37.8109 15.7521 37.6359 15.8342C37.6149 15.8347 37.5959 15.845 37.5749 15.8435C37.3729 15.8351 37.1699 15.83 36.9679 15.8219C36.6119 15.6405 36.4429 15.2189 36.5989 14.844C36.6779 14.6537 36.8269 14.5058 37.0169 14.4274ZM36.5659 14.2856C36.4999 14.3431 36.4489 14.4117 36.3979 14.4832C36.3579 14.4087 36.3109 14.3389 36.2549 14.2744C36.3589 14.2782 36.4619 14.2815 36.5659 14.2856ZM36.3059 15.6804C36.3279 15.7218 36.3499 15.7625 36.3779 15.801C36.3279 15.7991 36.2779 15.7976 36.2289 15.7957C36.2599 15.7619 36.2789 15.718 36.3059 15.6804ZM34.6799 14.7255C34.8429 14.3329 35.2959 14.1454 35.6889 14.3095C36.0819 14.4736 36.2679 14.9262 36.1049 15.3195C35.9989 15.5735 35.7679 15.7279 35.5149 15.7705C35.4169 15.767 35.3179 15.7634 35.2199 15.76C35.1779 15.7504 35.1359 15.7524 35.0959 15.7355C34.7029 15.5714 34.5159 15.1188 34.6799 14.7255ZM34.5809 14.2135C34.4779 14.3164 34.3929 14.4396 34.3329 14.5819C34.1679 14.9807 34.2489 15.418 34.4999 15.7344C34.2569 15.7267 34.0159 15.7157 33.7719 15.7085C33.7369 15.862 33.6839 16.0082 33.6219 16.15C33.6829 16.009 33.7369 15.8637 33.7719 15.7085C33.8549 15.4385 33.8919 15.146 33.8919 14.846C33.8919 14.621 33.8699 14.4035 33.8249 14.186C34.0779 14.1937 34.3279 14.2053 34.5809 14.2135ZM33.1419 14.8461C33.1419 14.8761 33.1349 14.8986 33.1349 14.9286L32.3849 15.4461L31.9419 14.8461L32.3849 14.2386L33.1419 14.7561V14.8461ZM33.0449 14.1636C33.0819 14.2761 33.1049 14.3961 33.1199 14.5236L32.5799 14.1486L32.5569 14.1336L32.9699 13.9461C32.9999 14.0211 33.0219 14.0886 33.0449 14.1636ZM32.5869 13.3986L32.6099 13.2936C32.6319 13.3311 32.6549 13.3611 32.6849 13.3986C32.7069 13.4286 32.7299 13.4661 32.7519 13.4961C32.8049 13.5861 32.8569 13.6761 32.9019 13.7661L32.4899 13.9461L32.5869 13.3986ZM32.4519 13.1136L32.3999 13.3911L32.2869 13.9986L31.5449 13.8786L31.4699 13.3686L31.4319 13.1436L32.3249 12.9786C32.3699 13.0236 32.4069 13.0686 32.4519 13.1136ZM31.6349 12.5211C31.8149 12.6036 31.9799 12.7011 32.1369 12.8211L31.4769 12.9411L31.6349 12.5211ZM31.4549 12.4461L31.2969 12.8661L30.9069 12.3111C31.1019 12.3336 31.2819 12.3861 31.4549 12.4461ZM30.5849 12.2886C30.6149 12.2886 30.6449 12.2961 30.6749 12.2961L31.1919 13.0386L30.7719 13.3461L30.5849 13.4886L30.3819 13.3386L29.9849 13.0461L30.4949 12.3036C30.5249 12.3036 30.5549 12.2886 30.5849 12.2886ZM30.2399 12.3336L29.8649 12.8736L29.6919 12.4686C29.8649 12.4086 30.0449 12.3636 30.2399 12.3336ZM29.5119 12.5436L29.6919 12.9411L29.0469 12.8286C29.1969 12.7161 29.3469 12.6186 29.5119 12.5436ZM28.8369 12.9786L29.7449 13.1436L29.7149 13.3236L29.6249 13.8861L28.8819 13.9986L28.7549 13.3011L28.7249 13.1211C28.7619 13.0761 28.7999 13.0236 28.8369 12.9786ZM28.4169 13.4886C28.4619 13.4211 28.5219 13.3761 28.5669 13.3086L28.6799 13.9536L28.2599 13.7961C28.3049 13.6911 28.3569 13.5861 28.4169 13.4886ZM28.1699 14.0436C28.1769 14.0211 28.1849 13.9911 28.1919 13.9686L28.3869 14.0436L28.6119 14.1336L28.0499 14.5236C28.0719 14.3586 28.1099 14.2011 28.1699 14.0436ZM28.0349 14.7561L28.7919 14.2386L29.2269 14.8461L28.7919 15.4461L28.0349 14.9286C28.0349 14.8986 28.0269 14.8761 28.0269 14.8461C28.0269 14.8161 28.0349 14.7861 28.0349 14.7561ZM27.6969 16.4361H14.3849C14.3619 16.3911 14.3399 16.3461 14.3099 16.3086C18.7419 16.2261 23.1899 16.2261 27.6219 16.3011C27.6449 16.3461 27.6669 16.3911 27.6969 16.4361ZM26.7599 17.3211C26.7299 17.2761 26.6919 17.2311 26.6549 17.1861H26.8649C26.8269 17.2311 26.7899 17.2686 26.7599 17.3211ZM26.8649 18.7086H26.6399C26.6849 18.6636 26.7149 18.6036 26.7449 18.5511C26.7819 18.6036 26.8199 18.6561 26.8649 18.7086ZM22.9199 22.2866L22.1099 21.9486L22.0949 21.9036L21.7799 21.1466L22.0869 20.3886L22.1099 20.3361L22.9199 20.0061L23.7219 20.3361L23.7449 20.3811L24.0599 21.1466L23.7449 21.8966L23.7219 21.9486L22.9199 22.2866ZM23.6769 22.1816L23.5949 22.6536L23.5799 22.7586L23.4369 22.6536L23.1069 22.4136L23.6769 22.1816ZM22.7319 22.4066L22.3799 22.6616L22.2519 22.7516L22.2369 22.6616L22.1619 22.1736L22.7319 22.4066ZM20.4899 20.3961C20.4969 20.3511 20.5119 20.3136 20.5269 20.2686L20.8499 20.3961L20.9469 20.4336L20.3849 20.8236C20.3999 20.6816 20.4369 20.5316 20.4899 20.3961ZM20.5949 20.0961C20.6399 19.9911 20.6919 19.8936 20.7519 19.7961C20.7899 19.7361 20.8349 19.6911 20.8719 19.6461C20.8799 19.6386 20.8869 19.6236 20.8949 19.6161L20.9019 19.6461L21.0149 20.2536L20.5949 20.0961ZM20.0849 18.7086H20.0019C19.9119 18.7011 19.8299 18.6936 19.7469 18.6561C19.3499 18.4911 19.1619 18.0411 19.3269 17.6511C19.4399 17.3811 19.6869 17.2161 19.9569 17.1861H20.1069C20.1819 17.1936 20.2569 17.2011 20.3399 17.2311C20.7299 17.3961 20.9169 17.8461 20.7519 18.2436C20.6399 18.5211 20.3699 18.6936 20.0849 18.7086ZM20.8949 17.1861H21.1049C21.0669 17.2311 21.0299 17.2686 20.9999 17.3211C20.9699 17.2686 20.9319 17.2311 20.8949 17.1861ZM21.2469 17.6511C21.3599 17.3811 21.6069 17.2161 21.8699 17.1861H22.0269C22.1019 17.1936 22.1769 17.2011 22.2519 17.2311C22.4469 17.3136 22.5969 17.4636 22.6719 17.6511C22.6949 17.7111 22.7169 17.7861 22.7249 17.8536C22.1999 17.8761 21.7049 18.0261 21.2699 18.2811C21.1719 18.0936 21.1569 17.8611 21.2469 17.6511ZM23.6319 19.1661L23.2419 18.6111C23.4299 18.6411 23.6099 18.6861 23.7899 18.7536L23.6319 19.1661ZM23.6769 20.1186L23.1069 19.8861L23.4599 19.6311L23.5869 19.5411L23.6019 19.6311L23.6769 20.1186ZM23.5269 19.3461L23.3699 19.4586L23.1299 19.6311L22.9199 19.7886L22.7099 19.6386L22.4619 19.4586L22.3119 19.3536L22.8299 18.6036C22.8519 18.6036 22.8749 18.5961 22.8899 18.5961C22.8969 18.5886 22.9049 18.5886 22.9119 18.5886H22.9349C22.9569 18.5886 22.9799 18.5961 23.0019 18.5961L23.5269 19.3461ZM22.2449 19.6386L22.2599 19.5336L22.4019 19.6386L22.7319 19.8786L22.1619 20.1111L22.2449 19.6386ZM22.0199 18.7761C22.1999 18.7086 22.3799 18.6636 22.5669 18.6336L22.1999 19.1736L22.0199 18.7761ZM22.9269 17.3361C22.8969 17.2836 22.8599 17.2311 22.8149 17.1861H23.0319C22.9949 17.2311 22.9649 17.2911 22.9269 17.3361ZM22.0199 19.2411L21.3819 19.1286C21.5249 19.0161 21.6819 18.9186 21.8469 18.8436L22.0199 19.2411ZM21.1719 19.2786L22.0719 19.4436V19.4586L22.0419 19.6386L21.9599 20.1861L21.2169 20.2986L21.0969 19.6461L21.0669 19.4586L21.0599 19.4211C21.0969 19.3761 21.1269 19.3236 21.1719 19.2786ZM21.8849 20.3961L21.6519 20.9586L21.3069 20.4866L21.8849 20.3961ZM21.6599 21.3336L21.8919 21.9036L21.3069 21.8066L21.6599 21.3336ZM23.9469 21.8966L24.1869 21.3336L24.5329 21.8066L23.9999 21.8966L23.9619 21.9036H23.9469V21.8966ZM23.9469 20.3886L24.5249 20.4866L24.1869 20.9586L23.9469 20.3886ZM23.8799 20.1786L23.7899 19.6311L23.7599 19.4586V19.4436L24.6599 19.2861C24.7049 19.3236 24.7419 19.3686 24.7799 19.4136L24.7719 19.4586L24.7419 19.6236L24.6219 20.2986L23.8799 20.1786ZM23.8049 19.2411L23.9699 18.8286C24.1499 18.9036 24.3149 19.0086 24.4719 19.1211L23.8049 19.2411ZM23.1149 17.8536C23.1219 17.7861 23.1449 17.7186 23.1669 17.6511C23.2419 17.4561 23.3919 17.3136 23.5869 17.2311C23.6549 17.2011 23.7369 17.1936 23.8119 17.1861H23.9399C24.0219 17.1936 24.0969 17.2011 24.1719 17.2311C24.3669 17.3136 24.5099 17.4636 24.5919 17.6511C24.6669 17.8386 24.6669 18.0486 24.5919 18.2436C24.5849 18.2586 24.5769 18.2736 24.5619 18.2886C24.1269 18.0336 23.6319 17.8761 23.1149 17.8536ZM24.7349 17.1861H24.9519C24.9069 17.2311 24.8849 17.2911 24.8469 17.3436C24.8169 17.2836 24.7719 17.2311 24.7349 17.1861ZM24.9299 19.6236L24.9369 19.6011C24.9449 19.6086 24.9519 19.6161 24.9519 19.6236C25.0049 19.6761 25.0499 19.7361 25.0799 19.7961C25.1399 19.8861 25.1849 19.9761 25.2299 20.0736L24.8249 20.2536L24.9299 19.6236ZM25.0199 20.3736L25.3049 20.2461C25.3199 20.2911 25.3349 20.3286 25.3419 20.3736C25.3949 20.5236 25.4319 20.6736 25.4549 20.8236L24.8919 20.4336L25.0199 20.3736ZM25.0869 18.2361C25.0049 18.0486 25.0049 17.8386 25.0869 17.6511C25.1619 17.4561 25.3119 17.3136 25.4999 17.2311C25.5749 17.2011 25.6569 17.1936 25.7319 17.1861H25.8599C25.9419 17.1936 26.0169 17.2011 26.0919 17.2311C26.2869 17.3136 26.4299 17.4636 26.5119 17.6511C26.5869 17.8386 26.5869 18.0486 26.5119 18.2436C26.4299 18.4311 26.2799 18.5811 26.0919 18.6561C26.0099 18.6936 25.9199 18.7011 25.8369 18.7086H25.7549C25.6719 18.7011 25.5819 18.6936 25.4999 18.6561C25.3119 18.5811 25.1619 18.4311 25.0869 18.2361ZM19.0719 18.5511C19.1019 18.6036 19.1469 18.6561 19.1919 18.7086H18.9669C19.0049 18.6636 19.0349 18.6036 19.0719 18.5511ZM18.9749 17.1861H19.1849C19.1469 17.2311 19.1099 17.2686 19.0799 17.3211C19.0499 17.2686 19.0119 17.2311 18.9749 17.1861ZM18.8319 18.2436C18.7569 18.4311 18.6069 18.5811 18.4119 18.6561C18.3299 18.6936 18.2469 18.7011 18.1649 18.7086H18.0819C17.9919 18.7011 17.9099 18.6936 17.8269 18.6561C17.6319 18.5811 17.4899 18.4311 17.4069 18.2361C17.3319 18.0486 17.3319 17.8386 17.4069 17.6511C17.5199 17.3811 17.7669 17.2161 18.0369 17.1861H18.1869C18.2619 17.1936 18.3449 17.2011 18.4199 17.2311C18.8099 17.3961 18.9969 17.8461 18.8319 18.2436ZM17.1599 17.3211C17.1299 17.2761 17.0919 17.2311 17.0549 17.1861H17.2719C17.2269 17.2311 17.1969 17.2686 17.1599 17.3211ZM17.2719 18.7086H17.0469C17.0849 18.6636 17.1149 18.6036 17.1519 18.5511C17.1819 18.6036 17.2269 18.6561 17.2719 18.7086ZM16.9119 18.2436C16.8369 18.4311 16.6869 18.5811 16.4999 18.6561C16.4169 18.6936 16.3269 18.7011 16.2449 18.7086H16.1619C16.0719 18.7011 15.9899 18.6936 15.9069 18.6561C15.7119 18.5811 15.5699 18.4311 15.4869 18.2361C15.4119 18.0486 15.4119 17.8386 15.4869 17.6511C15.5699 17.4561 15.7199 17.3136 15.9069 17.2311C15.9819 17.2011 16.0569 17.1936 16.1399 17.1861H16.2669C16.3419 17.1936 16.4249 17.2011 16.4999 17.2311C16.6869 17.3136 16.8369 17.4636 16.9119 17.6511C16.9949 17.8386 16.9949 18.0486 16.9119 18.2436ZM15.3519 18.7086H14.6549C14.7149 18.4611 14.7449 18.2061 14.7449 17.9436C14.7449 17.6886 14.7149 17.4336 14.6549 17.1861H15.3599C15.2699 17.2836 15.1949 17.3811 15.1429 17.5086C14.9699 17.9286 15.0669 18.3936 15.3519 18.7086ZM11.4369 20.5016C11.4069 20.5016 11.3849 20.4936 11.3619 20.4936L10.8369 19.7436L11.1449 19.5111L11.2199 19.4586L11.4369 19.2936L11.6619 19.4586L11.7599 19.5261H11.7669L12.0449 19.7361L11.5199 20.4936C11.4899 20.4936 11.4669 20.5016 11.4369 20.5016ZM9.69687 19.8036C9.65187 19.7661 9.61487 19.7286 9.57687 19.6836L9.61487 19.4736V19.4586L9.73486 18.7836L10.4849 18.9036L10.5669 19.4586L10.5749 19.4961L10.5969 19.6386L9.69687 19.8036ZM10.5519 19.8411L10.4019 20.2386L10.3869 20.2686C10.3649 20.2611 10.3419 20.2461 10.3199 20.2311C10.1619 20.1561 10.0199 20.0661 9.88489 19.9611L10.5519 19.8411ZM10.5969 16.2411L10.5749 16.3911L10.5669 16.4361L10.4849 16.9836L9.73486 17.0961L9.61487 16.4361V16.4136L9.57687 16.2186C9.62187 16.1736 9.65188 16.1211 9.68988 16.0761L10.5969 16.2411ZM9.90689 15.9261C10.0499 15.8136 10.1919 15.7161 10.3569 15.6486H10.3649L10.5449 16.0386L9.90689 15.9261ZM11.4369 15.3861C11.4669 15.3861 11.4969 15.3936 11.5269 15.3936L12.0449 16.1361L11.7449 16.3611L11.6399 16.4361L11.4369 16.5861L11.2349 16.4361L11.1519 16.3761L10.8369 16.1436L11.3549 15.4011C11.3769 15.4011 11.4069 15.3861 11.4369 15.3861ZM13.1769 16.0761C13.2219 16.1211 13.2599 16.1661 13.3049 16.2036L13.2819 16.3236L13.2599 16.4361L13.1399 17.0961L12.3969 16.9761L12.3149 16.4361L12.2999 16.3461L12.2849 16.2411L13.1769 16.0761ZM12.3299 16.0386L12.4869 15.6186C12.6669 15.7011 12.8399 15.7986 12.9899 15.9186L12.3299 16.0386ZM13.5599 18.7086L13.4169 18.6561L13.9649 18.2661C13.9499 18.4236 13.9119 18.5661 13.8669 18.7086C13.8599 18.7461 13.8519 18.7761 13.8369 18.8136L13.5599 18.7086ZM13.7699 18.9936C13.6949 19.1586 13.5969 19.3161 13.4849 19.4586C13.4769 19.4661 13.4699 19.4811 13.4619 19.4886L13.4549 19.4586L13.3419 18.8286L13.7699 18.9936ZM13.2369 18.5436L12.7949 17.9436L13.2369 17.3361L13.9949 17.8536V17.9436C13.9949 17.9736 13.9869 17.9961 13.9869 18.0261L13.2369 18.5436ZM11.4369 19.0836L10.6349 18.7461L10.6199 18.7086L10.2969 17.9436L10.6119 17.1861L10.6349 17.1336L11.4369 16.8036L12.2469 17.1336L12.2699 17.1861L12.5849 17.9436L12.2619 18.7086L12.2469 18.7461L11.4369 19.0836ZM12.1949 18.9711L12.1199 19.4586L12.1049 19.5411V19.5561L12.0819 19.5411H12.0749L11.9769 19.4586L11.6319 19.2036L12.1949 18.9711ZM11.2499 19.2036L10.8969 19.4586L10.8299 19.5036L10.7699 19.5486L10.7619 19.5036L10.7549 19.4586L10.6799 18.9711L11.2499 19.2036ZM9.53189 18.8361L9.42688 19.4586V19.4661L9.41989 19.4886C9.41189 19.4811 9.40488 19.4736 9.40488 19.4661L9.39688 19.4586C9.29188 19.3236 9.19486 19.1736 9.12686 19.0161L9.53189 18.8361ZM9.05188 18.8361C9.03688 18.7911 9.02186 18.7536 9.01486 18.7086C8.96186 18.5661 8.93187 18.4236 8.91687 18.2736L9.46487 18.6561L9.34488 18.7086L9.05188 18.8361ZM8.88687 18.0261C8.88687 17.9961 8.87988 17.9736 8.87988 17.9436C8.87988 17.9136 8.88687 17.8836 8.88687 17.8536L9.64487 17.3361L10.0869 17.9436L9.64487 18.5436L8.88687 18.0261ZM9.42688 16.4361L9.53189 17.0511L9.11188 16.8861C9.15688 16.7886 9.20989 16.6836 9.27689 16.5861C9.30689 16.5261 9.35188 16.4886 9.39688 16.4361C9.40488 16.4361 9.40488 16.4286 9.40488 16.4211H9.41187C9.41987 16.4136 9.41989 16.4061 9.41989 16.4061V16.4211L9.42688 16.4361ZM9.35187 17.1861L9.46487 17.2311L8.90189 17.6211C8.92489 17.4711 8.95487 17.3286 9.00687 17.1861C9.01487 17.1411 9.02989 17.1036 9.04489 17.0661L9.35187 17.1861ZM9.82489 17.2761L10.4019 17.1936L10.1699 17.7486L9.82489 17.2761ZM10.1769 18.1311L10.4099 18.6936L9.83188 18.6036L10.1769 18.1311ZM10.6799 16.9086L10.7619 16.4361L10.7769 16.3311L10.8449 16.3836L10.9199 16.4361L11.2499 16.6761L10.6799 16.9086ZM12.1199 16.4361L12.1949 16.9161L11.6319 16.6836L11.9619 16.4361L12.0819 16.3461L12.1049 16.3311V16.3461L12.1199 16.4361ZM12.4649 17.1861L13.0499 17.2761L12.7049 17.7486L12.4649 17.1861ZM12.7049 18.1311L13.0569 18.6036L12.4649 18.6936L12.7049 18.1311ZM13.3419 17.0436L13.4549 16.4361L13.4619 16.3911C13.4769 16.4061 13.4849 16.4211 13.4919 16.4361C13.5369 16.4886 13.5669 16.5411 13.6049 16.5936C13.6569 16.6836 13.7099 16.7736 13.7549 16.8636L13.3419 17.0436ZM13.8299 17.0436C13.8449 17.0886 13.8599 17.1411 13.8749 17.1861C13.9199 17.3286 13.9569 17.4711 13.9719 17.6211L13.4169 17.2311L13.5149 17.1861L13.8299 17.0436ZM12.2919 15.5811L12.1499 15.9636L11.7669 15.4086C11.8119 15.4161 11.8499 15.4236 11.8949 15.4311C12.0369 15.4536 12.1719 15.4986 12.3069 15.5436L12.2919 15.5811ZM10.7249 15.9711L10.5749 15.6336L10.5449 15.5661C10.6799 15.5211 10.8219 15.4836 10.9719 15.4536C11.0099 15.4461 11.0549 15.4386 11.0919 15.4311L10.7249 15.9711ZM8.21988 18.7086H7.44989C7.53689 18.6128 7.61486 18.5084 7.66586 18.3854C7.83986 17.9666 7.74288 17.5047 7.46088 17.1861H8.21988C8.25388 17.0368 8.30288 16.8933 8.35788 16.7524C8.30288 16.8926 8.25388 17.0353 8.21988 17.1861C8.15988 17.4336 8.12988 17.6886 8.12988 17.9436C8.12988 18.2061 8.15988 18.4611 8.21988 18.7086ZM7.31989 18.2418C7.24089 18.4322 7.09189 18.5802 6.90189 18.6585C6.81889 18.6919 6.73288 18.7039 6.64688 18.7085H6.56488C6.47888 18.7038 6.39288 18.6916 6.31088 18.6578C6.11988 18.578 5.97189 18.43 5.89389 18.2396C5.81489 18.0492 5.81487 17.839 5.89487 17.6485C6.00587 17.3818 6.25187 17.2173 6.52087 17.186H6.67188C6.74988 17.1925 6.82787 17.2009 6.90387 17.2325C7.29587 17.3966 7.48289 17.8485 7.31989 18.2418ZM5.77386 17.1861C5.73186 17.2315 5.68289 17.2676 5.64789 17.3201C5.61589 17.2704 5.56988 17.2306 5.52988 17.1861H5.77386ZM5.63687 18.5506C5.67287 18.6091 5.72487 18.657 5.77087 18.7086H5.50589C5.55089 18.6568 5.59987 18.6088 5.63687 18.5506ZM10.6049 20.2461L10.7249 19.9161L11.1149 20.4716C11.0769 20.4636 11.0399 20.4636 11.0019 20.4486C10.8519 20.4261 10.7019 20.3886 10.5669 20.3436L10.6049 20.2461ZM12.1569 19.9161L12.3299 20.2986L12.3449 20.3286C12.2099 20.3811 12.0669 20.4186 11.9169 20.4411C11.8719 20.4561 11.8199 20.4636 11.7749 20.4716L12.1569 19.9161ZM12.3369 19.8411L12.9969 19.9611C12.8469 20.0736 12.6899 20.1786 12.5169 20.2536L12.3369 19.8411ZM12.2849 19.6386L12.2999 19.5411L12.3149 19.4586L12.3969 18.8961L13.1399 18.7836L13.2669 19.4586L13.2819 19.5636L13.3049 19.6836C13.2669 19.7211 13.2299 19.7661 13.1849 19.8036L12.2849 19.6386ZM26.6849 14.0211C26.9169 14.0286 27.1499 14.0211 27.3819 14.0286C27.3149 14.2911 27.2769 14.5686 27.2769 14.8461C27.2769 15.0861 27.2999 15.3261 27.3519 15.5511C27.1049 15.5436 26.8569 15.5511 26.6099 15.5436C26.7149 15.4386 26.7969 15.3186 26.8569 15.1836C27.0219 14.7786 26.9399 14.3361 26.6849 14.0211ZM25.0869 14.4486C25.1619 14.2536 25.3119 14.1036 25.4999 14.0286C25.5299 14.0211 25.5599 14.0211 25.5819 14.0136H26.0319C26.0469 14.0211 26.0699 14.0211 26.0919 14.0286C26.2869 14.1111 26.4299 14.2536 26.5119 14.4486C26.5869 14.6361 26.5869 14.8461 26.5119 15.0411C26.4299 15.2286 26.2799 15.3786 26.0919 15.4536C25.8969 15.5361 25.6949 15.5361 25.4999 15.4536C25.3119 15.3711 25.1619 15.2286 25.0869 15.0336C25.0049 14.8461 25.0049 14.6361 25.0869 14.4486ZM24.9599 14.0061C24.9219 14.0511 24.8769 14.0886 24.8469 14.1336C24.8169 14.0886 24.7719 14.0511 24.7349 14.0061H24.9599ZM24.8319 15.3561C24.8699 15.4236 24.9299 15.4761 24.9819 15.5286H24.6899C24.7419 15.4761 24.7869 15.4236 24.8319 15.3561ZM23.1669 14.4486C23.2419 14.2536 23.3919 14.1036 23.5869 14.0286C23.6399 14.0061 23.6919 14.0061 23.7519 13.9911C23.8419 13.9986 23.9319 13.9986 24.0149 13.9986C24.0669 14.0061 24.1269 14.0061 24.1719 14.0286C24.3669 14.1111 24.5099 14.2536 24.5919 14.4486C24.6669 14.6361 24.6669 14.8461 24.5919 15.0411C24.4269 15.4311 23.9769 15.6186 23.5799 15.4536C23.1899 15.2886 23.0019 14.8386 23.1669 14.4486ZM23.0549 13.9911C23.0099 14.0361 22.9649 14.0811 22.9269 14.1336C22.8969 14.0811 22.8449 14.0361 22.7999 13.9836C22.8819 13.9836 22.9649 13.9911 23.0549 13.9911ZM22.9119 15.3561C22.9499 15.4161 23.0019 15.4611 23.0469 15.5136H22.7849C22.8299 15.4611 22.8749 15.4161 22.9119 15.3561ZM21.2469 14.4486C21.3599 14.1636 21.6219 13.9986 21.9069 13.9761H22.0049C22.0869 13.9836 22.1699 13.9911 22.2519 14.0286C22.4469 14.1111 22.5969 14.2536 22.6719 14.4486C22.7549 14.6361 22.7549 14.8461 22.6719 15.0411C22.5519 15.3186 22.2829 15.4911 21.9969 15.5061H21.9299C21.8399 15.5061 21.7499 15.4911 21.6599 15.4536C21.2699 15.2886 21.0819 14.8386 21.2469 14.4486ZM21.1269 13.9761C21.0899 14.0211 21.0369 14.0586 20.9999 14.1186C20.9699 14.0661 20.9169 14.0211 20.8799 13.9761H21.1269ZM20.9919 15.3561C21.0299 15.4086 21.0749 15.4536 21.1199 15.4986H20.8719C20.9169 15.4536 20.9619 15.4086 20.9919 15.3561ZM19.3269 14.4486C19.4399 14.1861 19.6799 14.0211 19.9419 13.9836H20.1069C20.1819 13.9911 20.2649 13.9986 20.3399 14.0286C20.7299 14.1936 20.9169 14.6436 20.7519 15.0411C20.6399 15.3186 20.3769 15.4836 20.0919 15.5061H19.9949C19.9119 15.4986 19.8299 15.4911 19.7469 15.4536C19.3499 15.2886 19.1619 14.8386 19.3269 14.4486ZM19.1999 13.9911C19.1619 14.0286 19.1169 14.0661 19.0799 14.1186C19.0499 14.0661 19.0049 14.0286 18.9669 13.9911H19.1999ZM19.0719 15.3486C19.1099 15.4086 19.1619 15.4536 19.2069 15.5061H18.9369C18.9819 15.4536 19.0349 15.4086 19.0719 15.3486ZM17.4069 14.4486C17.5049 14.2086 17.7149 14.0511 17.9469 13.9986C18.0449 13.9911 18.1419 13.9911 18.2399 13.9911C18.2999 14.0061 18.3599 14.0061 18.4199 14.0286C18.8099 14.1936 18.9969 14.6436 18.8319 15.0411C18.7569 15.2286 18.6069 15.3786 18.4119 15.4536C18.2249 15.5361 18.0149 15.5361 17.8269 15.4536C17.6319 15.3711 17.4899 15.2286 17.4069 15.0336C17.3319 14.8461 17.3319 14.6361 17.4069 14.4486ZM17.2719 13.9986C17.2349 14.0361 17.1899 14.0736 17.1599 14.1186C17.1369 14.0736 17.0919 14.0361 17.0619 13.9986H17.2719ZM17.1519 15.3486C17.1899 15.4086 17.2419 15.4611 17.2949 15.5211H17.0099C17.0549 15.4611 17.1069 15.4086 17.1519 15.3486ZM15.4869 14.4486C15.5699 14.2536 15.7199 14.1036 15.9069 14.0286C15.9449 14.0136 15.9819 14.0136 16.0199 14.0061H16.3719C16.4169 14.0136 16.4549 14.0136 16.4999 14.0286C16.6869 14.1111 16.8369 14.2536 16.9119 14.4486C16.9949 14.6361 16.9949 14.8461 16.9119 15.0411C16.8369 15.2286 16.6869 15.3786 16.4999 15.4536C16.3049 15.5361 16.0949 15.5361 15.9069 15.4536C15.7119 15.3711 15.5699 15.2286 15.4869 15.0336C15.4119 14.8461 15.4119 14.6361 15.4869 14.4486ZM15.3519 14.0136C15.3219 14.0586 15.2849 14.0961 15.2549 14.1336C15.2249 14.0961 15.1869 14.0586 15.1569 14.0211C15.2249 14.0211 15.2849 14.0211 15.3519 14.0136ZM15.2399 15.3561C15.2769 15.4236 15.3369 15.4836 15.3969 15.5436H15.0749C15.1349 15.4911 15.1869 15.4236 15.2399 15.3561ZM13.5669 14.4486C13.6499 14.2611 13.7849 14.1261 13.9649 14.0436C14.1669 14.0436 14.3769 14.0361 14.5869 14.0361C14.7749 14.1111 14.9169 14.2611 14.9999 14.4486C15.0749 14.6361 15.0749 14.8461 14.9919 15.0411C14.8349 15.4311 14.3769 15.6186 13.9869 15.4536C13.5969 15.2886 13.4099 14.8386 13.5669 14.4486ZM13.4019 14.0586C13.3719 14.0961 13.3349 14.1336 13.3119 14.1711C13.2819 14.1336 13.2369 14.0961 13.2069 14.0586H13.4019ZM11.6549 14.5236C11.7519 14.2836 11.9619 14.1336 12.1949 14.0811C12.2919 14.0811 12.3969 14.0736 12.4949 14.0736C12.5549 14.0811 12.6069 14.0811 12.6599 14.1036C12.8469 14.1861 12.9969 14.3361 13.0799 14.5236C13.1469 14.7111 13.1549 14.9061 13.0869 15.0861C12.6449 14.8236 12.1419 14.6736 11.6169 14.6511C11.6249 14.6136 11.6399 14.5686 11.6549 14.5236ZM11.4819 14.0961C11.4369 14.1486 11.3999 14.2011 11.3699 14.2611C11.3249 14.2011 11.2719 14.1561 11.2269 14.1036C11.3099 14.0961 11.3999 14.0961 11.4819 14.0961ZM9.73486 14.6136C9.85486 14.3136 10.1469 14.1336 10.4469 14.1336C10.5449 14.1336 10.6419 14.1561 10.7399 14.1936C10.9349 14.2761 11.0769 14.4261 11.1599 14.6136C11.1669 14.6286 11.1669 14.6361 11.1749 14.6511C10.6499 14.6886 10.1469 14.8536 9.71188 15.1311C9.65188 14.9586 9.65986 14.7786 9.73486 14.6136ZM9.62189 14.1411C9.56989 14.1936 9.51686 14.2386 9.47186 14.3061C9.43486 14.2461 9.38186 14.2011 9.32986 14.1486C9.42686 14.1486 9.52489 14.1411 9.62189 14.1411ZM7.81488 14.6511C7.93488 14.3586 8.21187 14.1861 8.51187 14.1786C8.51987 14.1786 8.52689 14.1786 8.52689 14.1786C8.62489 14.1786 8.72989 14.1936 8.81989 14.2386C9.21689 14.4036 9.40487 14.8536 9.23987 15.2436C9.14187 15.4836 8.93189 15.6336 8.69989 15.6861C8.60189 15.6936 8.50489 15.6936 8.40689 15.6936C8.34689 15.6861 8.28687 15.6861 8.22687 15.6636C7.83687 15.4986 7.64988 15.0486 7.81488 14.6511ZM7.46988 15.7311C7.50688 15.6861 7.55188 15.6411 7.58188 15.5961C7.61188 15.6411 7.65689 15.6786 7.69489 15.7236C7.61989 15.7236 7.54488 15.7311 7.46988 15.7311ZM7.67987 14.2086C7.63487 14.2611 7.58189 14.3061 7.54489 14.3661C7.50689 14.3136 7.45488 14.2686 7.40988 14.2161C7.49988 14.2161 7.58987 14.2086 7.67987 14.2086ZM5.89487 14.7261C6.05987 14.3361 6.50989 14.1486 6.90689 14.3061C7.29689 14.4711 7.48489 14.9286 7.31989 15.3186C7.23689 15.5136 7.09487 15.6561 6.89987 15.7386C6.86987 15.7461 6.83188 15.7461 6.80188 15.7536C6.68988 15.7611 6.58486 15.7611 6.47186 15.7686C6.41986 15.7611 6.36688 15.7536 6.30688 15.7386C5.91688 15.5736 5.72987 15.1161 5.89487 14.7261ZM5.58688 15.7986C5.61688 15.7611 5.65488 15.7311 5.67688 15.6861C5.70688 15.7236 5.74487 15.7611 5.77487 15.7911C5.71487 15.7986 5.65488 15.7986 5.58688 15.7986ZM5.74487 14.2761C5.69187 14.3361 5.64686 14.3961 5.60986 14.4636C5.56486 14.4036 5.50489 14.3436 5.43689 14.2836C5.54189 14.2836 5.64687 14.2836 5.74487 14.2761ZM3.97488 14.8461C4.05688 14.6511 4.19987 14.5086 4.39487 14.4261C4.49187 14.3886 4.58989 14.3661 4.68689 14.3661C4.78489 14.3661 4.88988 14.3886 4.98688 14.4261C5.37688 14.5911 5.56487 15.0411 5.39987 15.4386C5.33187 15.6111 5.19689 15.7386 5.03189 15.8211C4.82989 15.8286 4.62687 15.8361 4.42487 15.8436C4.40187 15.8436 4.38687 15.8361 4.36487 15.8361C3.98987 15.6561 3.81688 15.2286 3.97488 14.8461ZM3.97589 17.6486C4.05489 17.4582 4.20289 17.3102 4.39389 17.2319C4.46789 17.2016 4.54587 17.1929 4.62387 17.1862H4.75186C4.83086 17.1929 4.90989 17.2017 4.98389 17.2327C5.17489 17.3125 5.32289 17.4605 5.40189 17.6509C5.47989 17.8413 5.47987 18.0515 5.39987 18.242C5.32087 18.4324 5.17287 18.5804 4.98187 18.6587C4.89987 18.6921 4.81387 18.7041 4.72787 18.7087H4.64587C4.55987 18.704 4.47388 18.6918 4.39188 18.658C4.20188 18.5782 4.05288 18.4302 3.97488 18.2398C3.89588 18.0492 3.89589 17.839 3.97589 17.6486ZM4.39487 21.4616C3.99687 21.2966 3.80988 20.8466 3.97488 20.4486C4.04988 20.2686 4.19988 20.1261 4.37988 20.0436H4.42487C4.62687 20.0511 4.82187 20.0586 5.02487 20.0661C5.38487 20.2386 5.55687 20.6666 5.39987 21.0486C5.23487 21.4386 4.78487 21.6266 4.39487 21.4616ZM5.44489 21.5966C5.50489 21.5436 5.56488 21.4766 5.61688 21.4086C5.65488 21.4836 5.71488 21.5436 5.76688 21.6116C5.66188 21.6036 5.54989 21.6036 5.44489 21.5966ZM5.68488 20.1936C5.66188 20.1486 5.62488 20.1186 5.59488 20.0811C5.66188 20.0811 5.72989 20.0886 5.78989 20.0886C5.75989 20.1261 5.71488 20.1486 5.68488 20.1936ZM7.31989 21.1686C7.19989 21.4536 6.92189 21.6266 6.62189 21.6336H6.59189C6.49489 21.6336 6.40488 21.6186 6.30688 21.5816C6.11988 21.4986 5.96987 21.3566 5.89487 21.1616C5.81187 20.9736 5.81187 20.7636 5.89487 20.5686C5.99987 20.3136 6.23986 20.1486 6.50186 20.1111C6.57686 20.1111 6.64488 20.1186 6.71988 20.1186C6.77988 20.1261 6.84689 20.1336 6.90689 20.1561C7.29689 20.3211 7.48489 20.7716 7.31989 21.1686ZM7.40988 21.6636C7.46188 21.6116 7.50688 21.5586 7.55188 21.4986C7.58188 21.5666 7.63487 21.6186 7.67987 21.6716C7.58987 21.6716 7.49988 21.6636 7.40988 21.6636ZM7.58987 20.2836C7.55987 20.2311 7.51487 20.1861 7.47687 20.1411C7.55187 20.1486 7.63489 20.1486 7.71689 20.1486C7.67189 20.1936 7.62687 20.2311 7.58987 20.2836ZM9.23987 21.2366C9.12687 21.5136 8.86488 21.6786 8.58688 21.7016C8.54188 21.7016 8.49689 21.7016 8.44489 21.6936C8.37689 21.6866 8.30187 21.6866 8.22687 21.6566C8.03987 21.5736 7.88988 21.4236 7.81488 21.2366C7.73188 21.0416 7.73188 20.8316 7.81488 20.6436C7.92688 20.3661 8.18988 20.1936 8.47488 20.1786H8.57986C8.66186 20.1861 8.74489 20.1936 8.81989 20.2311C9.21689 20.3886 9.40487 20.8466 9.23987 21.2366ZM9.33688 21.7236C9.38188 21.6786 9.42687 21.6336 9.46487 21.5736C9.50187 21.6336 9.55488 21.6786 9.59988 21.7316C9.50988 21.7316 9.42688 21.7316 9.33688 21.7236ZM11.1599 21.2816C10.9949 21.6716 10.5449 21.8586 10.1469 21.6936C9.78688 21.5366 9.59988 21.1386 9.71188 20.7636C10.1399 21.0336 10.6419 21.1986 11.1749 21.2436C11.1669 21.2586 11.1669 21.2666 11.1599 21.2816ZM11.2419 21.7836C11.2869 21.7386 11.3319 21.6936 11.3699 21.6416C11.4069 21.6936 11.4599 21.7466 11.4969 21.7986C11.4149 21.7916 11.3249 21.7916 11.2419 21.7836ZM13.0799 21.3636C12.9669 21.6186 12.7419 21.7766 12.4869 21.8216C12.3969 21.8136 12.3149 21.8216 12.2319 21.8136C12.1799 21.8066 12.1199 21.8066 12.0669 21.7836C11.8349 21.6786 11.6699 21.4766 11.6169 21.2436C12.1499 21.2216 12.6519 21.0636 13.0869 20.8086C13.1549 20.9886 13.1469 21.1836 13.0799 21.3636ZM13.1999 21.8286C13.2369 21.7916 13.2749 21.7536 13.3049 21.7086C13.3269 21.7536 13.3649 21.7916 13.3949 21.8286H13.1999ZM15.0519 21.1536C15.0519 21.2516 15.0369 21.3486 14.9919 21.4466C14.9169 21.6336 14.7749 21.7686 14.6019 21.8436C14.3849 21.8436 14.1669 21.8366 13.9499 21.8366C13.7769 21.7536 13.6419 21.6186 13.5669 21.4466C13.4919 21.2516 13.4919 21.0416 13.5669 20.8536C13.6499 20.6586 13.7999 20.5166 13.9869 20.4336C14.0849 20.3961 14.1819 20.3736 14.2799 20.3736C14.3849 20.3736 14.4819 20.3961 14.5799 20.4336C14.7669 20.5166 14.9169 20.6666 14.9999 20.8536C15.0369 20.9516 15.0519 21.0486 15.0519 21.1466C15.0519 21.1466 15.0519 21.1466 15.0519 21.1536ZM15.1649 21.8516C15.1869 21.8136 15.2249 21.7836 15.2469 21.7466C15.2699 21.7836 15.3069 21.8136 15.3369 21.8516H15.1649ZM15.2549 20.5466C15.2019 20.4636 15.1419 20.3961 15.0749 20.3286C15.1869 20.3286 15.3069 20.3361 15.4269 20.3361C15.3669 20.3961 15.2999 20.4636 15.2549 20.5466ZM16.9719 21.1536C16.9719 21.2516 16.9569 21.3486 16.9119 21.4466C16.8369 21.6336 16.6869 21.7836 16.4999 21.8586C16.4919 21.8666 16.4849 21.8666 16.4769 21.8666C16.2899 21.8666 16.0949 21.8586 15.8999 21.8586C15.7119 21.7766 15.5699 21.6336 15.4869 21.4466C15.4119 21.2516 15.4119 21.0416 15.4869 20.8536C15.5699 20.6586 15.7199 20.5166 15.9069 20.4336C16.0049 20.3961 16.1019 20.3736 16.1999 20.3736C16.3049 20.3736 16.4019 20.3961 16.4999 20.4336C16.6869 20.5166 16.8369 20.6666 16.9119 20.8536C16.9569 20.9516 16.9719 21.0486 16.9719 21.1466C16.9719 21.1466 16.9719 21.1466 16.9719 21.1536ZM17.0549 21.8736C17.0919 21.8286 17.1299 21.7836 17.1599 21.7386C17.1899 21.7916 17.2349 21.8286 17.2719 21.8736H17.0549ZM17.1599 20.5236C17.1219 20.4636 17.0699 20.4111 17.0099 20.3511C17.1149 20.3586 17.2119 20.3586 17.3169 20.3586C17.2649 20.4111 17.2049 20.4561 17.1599 20.5236ZM18.8319 21.4466C18.7569 21.6336 18.6069 21.7836 18.4119 21.8586C18.3749 21.8816 18.3299 21.8816 18.2919 21.8886C18.1719 21.8886 18.0519 21.8816 17.9319 21.8816C17.8949 21.8736 17.8569 21.8736 17.8269 21.8586C17.6319 21.7836 17.4899 21.6336 17.4069 21.4466C17.3319 21.2516 17.3319 21.0416 17.4069 20.8536C17.5349 20.5536 17.8199 20.3736 18.1199 20.3736C18.2249 20.3736 18.3219 20.3961 18.4199 20.4336C18.8099 20.5986 18.9969 21.0486 18.8319 21.4466ZM18.9749 21.8966C19.0569 21.8066 19.1319 21.7086 19.1769 21.5886C19.3569 21.1686 19.2519 20.6966 18.9669 20.3811C19.2149 20.3811 19.4549 20.3886 19.7019 20.3886C19.6419 20.6366 19.6119 20.8916 19.6119 21.1466C19.6119 21.4086 19.6419 21.6636 19.7019 21.9036C19.4619 21.9036 19.2149 21.8966 18.9749 21.8966ZM19.9719 19.6386C18.0819 19.6386 16.1919 19.6161 14.3019 19.5786C14.3319 19.5411 14.3549 19.5036 14.3769 19.4586H20.0769C20.0399 19.5111 20.0099 19.5786 19.9719 19.6386ZM20.3619 21.1466C20.3619 21.1166 20.3619 21.0936 20.3699 21.0636L21.1199 20.5386L21.5619 21.1466L21.1199 21.7536L20.3699 21.2286C20.3699 21.2066 20.3619 21.1766 20.3619 21.1466ZM20.4899 21.9116C20.4449 21.7686 20.4149 21.6266 20.3919 21.4766L20.9469 21.8586L20.8269 21.9116L20.5269 22.0386C20.5119 21.9936 20.4969 21.9566 20.4899 21.9116ZM20.9019 22.6686L20.8949 22.6986C20.8869 22.6916 20.8799 22.6766 20.8719 22.6686C20.7669 22.5266 20.6769 22.3836 20.6019 22.2186L21.0149 22.0386L20.9019 22.6686ZM21.0519 22.8866L21.0899 22.6686L21.2169 21.9866L21.9599 22.1066L22.0419 22.6616L22.0719 22.8486L21.1719 23.0066C21.1349 22.9686 21.0899 22.9316 21.0519 22.8866ZM21.8619 23.4786C21.6819 23.3966 21.5169 23.2836 21.3669 23.1636L22.0269 23.0516L21.8619 23.4786ZM22.0419 23.5466L22.2069 23.1266L22.5899 23.6736C22.4019 23.6516 22.2219 23.6066 22.0419 23.5466ZM22.9119 23.7116C22.8899 23.7116 22.8669 23.7036 22.8369 23.7036L22.3119 22.9466L22.7019 22.6616L22.9199 22.4966L23.1369 22.6536L23.5269 22.9386L23.0019 23.6966C22.9719 23.7036 22.9419 23.7116 22.9119 23.7116ZM23.2569 23.6736L23.6399 23.1186L23.8269 23.5316C23.6399 23.6066 23.4519 23.6436 23.2569 23.6736ZM23.9999 23.4636L23.8119 23.0516L24.4719 23.1636C24.3219 23.2836 24.1649 23.3816 23.9999 23.4636ZM24.6599 23.0066L23.7599 22.8486L23.7899 22.6536L23.8799 22.1066L24.6219 21.9866L24.7349 22.6466L24.7799 22.8866C24.7419 22.9316 24.7049 22.9686 24.6599 23.0066ZM24.9819 22.6466C24.9669 22.6616 24.9599 22.6836 24.9449 22.6986L24.9369 22.6466L24.8249 22.0316L25.2449 22.1966C25.1699 22.3536 25.0799 22.5036 24.9819 22.6466ZM25.3569 21.8886C25.3419 21.9336 25.3269 21.9786 25.3119 22.0236L24.9749 21.8886L24.8919 21.8586L25.4469 21.4686C25.4249 21.6116 25.3949 21.7536 25.3569 21.8886ZM25.4699 21.2286L24.7119 21.7536L24.2769 21.1466L24.7119 20.5386L25.4699 21.0636C25.4699 21.0936 25.4769 21.1166 25.4769 21.1466C25.4769 21.1766 25.4699 21.2066 25.4699 21.2286ZM25.7549 19.4586H32.7849C30.4739 19.5274 28.1609 19.5819 25.8449 19.6086C25.8149 19.5636 25.7849 19.5111 25.7549 19.4586ZM32.5899 20.2178C32.5589 20.2562 32.5279 20.2954 32.5019 20.3383C32.4739 20.2979 32.4419 20.2609 32.4099 20.2241C32.4699 20.2223 32.5299 20.2196 32.5899 20.2178ZM26.6559 21.5856C26.6989 21.6896 26.7689 21.7746 26.8379 21.8596C26.6069 21.8636 26.3759 21.8706 26.1449 21.8736C26.1969 21.6406 26.2269 21.3936 26.2269 21.1456C26.2269 20.8756 26.1969 20.6136 26.1299 20.3585C26.3879 20.3555 26.6449 20.3466 26.9029 20.3429C26.8009 20.4453 26.7159 20.5676 26.6579 20.7086C26.5399 20.9906 26.5389 21.3026 26.6559 21.5856ZM28.4289 21.4456C28.3559 21.6206 28.2189 21.7546 28.0489 21.8366C27.8329 21.8396 27.6179 21.8456 27.4009 21.8486C27.2209 21.7676 27.0779 21.6266 27.0029 21.4426C26.9239 21.2526 26.9249 21.0426 27.0039 20.8526C27.1269 20.5566 27.4149 20.3769 27.7169 20.3769C27.8159 20.3769 27.9159 20.3959 28.0129 20.4362C28.4049 20.6006 28.5919 21.0526 28.4289 21.4456ZM28.6169 21.8256C28.6429 21.7906 28.6679 21.7546 28.6899 21.7166C28.7159 21.7536 28.7459 21.7876 28.7759 21.8226C28.7229 21.8236 28.6699 21.8246 28.6169 21.8256ZM28.6519 20.4906C28.6059 20.4257 28.5529 20.3661 28.4939 20.311C28.5919 20.3092 28.6899 20.3071 28.7879 20.3051C28.7369 20.3616 28.6919 20.4235 28.6519 20.4906ZM30.3479 21.3676C30.2529 21.5936 30.0599 21.7396 29.8399 21.8016C29.7159 21.8046 29.5929 21.8066 29.4689 21.8086C29.4249 21.7986 29.3809 21.8006 29.3389 21.7836C29.1489 21.7036 28.9999 21.5556 28.9219 21.3646C28.8429 21.1746 28.8429 20.9646 28.9229 20.7736C29.0459 20.4776 29.3339 20.2985 29.6359 20.2985C29.7349 20.2985 29.8349 20.3175 29.9319 20.3578C30.3239 20.5216 30.5109 20.9736 30.3479 21.3676ZM30.6639 20.2673C30.6279 20.3114 30.5959 20.358 30.5669 20.408C30.5339 20.3603 30.4979 20.3138 30.4569 20.2715C30.5259 20.2698 30.5949 20.269 30.6639 20.2673ZM30.5259 21.7876C30.5619 21.7436 30.5879 21.6886 30.6169 21.6376C30.6529 21.6886 30.6909 21.7386 30.7349 21.7836C30.6649 21.7856 30.5959 21.7866 30.5259 21.7876ZM32.2669 21.2786C32.1039 21.6716 31.6499 21.8576 31.2579 21.6946C30.8649 21.5306 30.6779 21.0776 30.8419 20.6846C30.9309 20.4726 31.1049 20.3233 31.3079 20.2544C31.4509 20.2506 31.5939 20.2497 31.7369 20.2458C31.7749 20.255 31.8139 20.2528 31.8509 20.2685C32.2439 20.4325 32.4309 20.8856 32.2669 21.2786ZM32.4049 21.7426C32.4549 21.6876 32.4929 21.6216 32.5319 21.5566C32.5709 21.6166 32.6009 21.6836 32.6499 21.7346C32.5689 21.7366 32.4869 21.7406 32.4049 21.7426ZM34.1859 21.2376C34.0689 21.5196 33.8009 21.6886 33.5139 21.7046C33.4929 21.7056 33.4719 21.7066 33.4509 21.7066C33.3589 21.7046 33.2659 21.6906 33.1759 21.6526C32.9859 21.5736 32.8379 21.4246 32.7599 21.2346C32.6809 21.0446 32.6809 20.8336 32.7609 20.6436C32.8609 20.4033 33.0699 20.2458 33.3069 20.1927C33.3889 20.1901 33.4709 20.1867 33.5539 20.1841C33.6259 20.1917 33.6989 20.198 33.7699 20.2274C34.1629 20.3915 34.3489 20.8446 34.1859 21.2376ZM34.5179 20.1504C34.4809 20.1957 34.4509 20.2458 34.4199 20.2969C34.3869 20.2477 34.3489 20.2016 34.3079 20.1578C34.3779 20.1554 34.4489 20.1528 34.5179 20.1504ZM34.3529 21.6756C34.3969 21.6236 34.4259 21.5596 34.4609 21.4986C34.4989 21.5546 34.5259 21.6196 34.5739 21.6686C34.4999 21.6706 34.4269 21.6736 34.3529 21.6756ZM36.1049 21.1646C35.9409 21.5566 35.4889 21.7436 35.0949 21.5806C34.9049 21.5016 34.7569 21.3526 34.6789 21.1616C34.5999 20.9716 34.6009 20.7616 34.6799 20.5706C34.7589 20.3804 34.9079 20.2325 35.0979 20.1542C35.1449 20.1349 35.1949 20.1348 35.2439 20.125C35.3279 20.1219 35.4119 20.1193 35.4959 20.1162C35.5609 20.1252 35.6259 20.1291 35.6889 20.1549C36.0819 20.319 36.2679 20.7716 36.1049 21.1646ZM36.4019 20.0846C36.3739 20.1232 36.3459 20.1614 36.3229 20.2037C36.2949 20.1643 36.2649 20.1263 36.2319 20.0905C36.2889 20.0884 36.3459 20.0868 36.4019 20.0846ZM36.2649 21.6106C36.3129 21.5536 36.3479 21.4846 36.3849 21.4176C36.4329 21.4846 36.4879 21.5446 36.5499 21.6006C36.4549 21.6036 36.3599 21.6066 36.2649 21.6106ZM38.0239 21.0466C37.8609 21.4386 37.4079 21.6246 37.0149 21.4626C36.6219 21.2986 36.4349 20.8456 36.5989 20.4523C36.6709 20.2785 36.8059 20.1471 36.9729 20.0646C37.1739 20.0565 37.3749 20.0519 37.5749 20.0436C37.5949 20.0429 37.6119 20.0519 37.6319 20.0527C38.0059 20.226 38.1839 20.6626 38.0239 21.0466ZM38.0249 18.2436C37.9419 18.4311 37.7999 18.5811 37.6049 18.6561C37.5219 18.6936 37.4399 18.7011 37.3499 18.7086H37.2669C37.1849 18.7011 37.0949 18.6936 37.0119 18.6561C36.8249 18.5811 36.6749 18.4311 36.5999 18.2361C36.5169 18.0486 36.5169 17.8386 36.5999 17.6511C36.6749 17.4561 36.8249 17.3136 37.0199 17.2311C37.0949 17.2011 37.1699 17.1936 37.2449 17.1861H37.3719C37.4549 17.1936 37.5299 17.2011 37.6049 17.2311C37.7999 17.3136 37.9499 17.4636 38.0249 17.6511C38.0999 17.8386 38.0999 18.0486 38.0249 18.2436Z" fill="black"/>
</g>
</svg>
