<svg width="43" height="16" viewBox="0 0 43 16" fill="none" xmlns="http://www.w3.org/2000/svg">
<g id="Group 25969">
<g id="Vector">
<path d="M22.4352 4.10179L19.7348 0.575793C19.6696 0.491793 19.5729 0.438797 19.4667 0.429797C19.359 0.420797 19.2564 0.457795 19.1795 0.530795L12.0736 7.2498H7.9156V4.7388C7.9156 4.5318 7.7477 4.3638 7.5406 4.3638C7.3335 4.3638 7.1656 4.5318 7.1656 4.7388V4.9148C6.8232 4.5218 6.3248 4.2668 5.763 4.2668C4.7339 4.2668 3.8968 5.10479 3.8968 6.13379C3.8968 6.55379 4.0415 6.9378 4.2766 7.2498H0.375C0.1678 7.2498 0 7.4178 0 7.6248C0 7.8318 0.1678 7.9998 0.375 7.9998H4.3237C4.0611 8.3218 3.8969 8.72679 3.8969 9.17279C3.8969 10.2028 4.734 11.0398 5.763 11.0398C6.3248 11.0398 6.8233 10.7858 7.1657 10.3918V10.6238C7.1657 10.8318 7.3336 10.9988 7.5407 10.9988C7.7478 10.9988 7.9157 10.8318 7.9157 10.6238V7.9998H12.0738L19.1876 14.7188C19.2572 14.7848 19.3495 14.8208 19.4447 14.8208C19.455 14.8208 19.4651 14.8208 19.4754 14.8198C19.5816 14.8108 19.6783 14.7578 19.7427 14.6728L22.4352 11.1398C22.4857 11.0748 22.5128 10.9938 22.5128 10.9118V4.3308C22.5128 4.2478 22.4857 4.16679 22.4352 4.10179ZM4.6469 6.13379C4.6469 5.51779 5.1478 5.0168 5.763 5.0168C6.379 5.0168 6.88 5.51779 6.88 6.13379C6.88 6.74779 6.3808 7.2478 5.7666 7.2498H5.7594C5.1459 7.2478 4.6469 6.74779 4.6469 6.13379ZM5.763 10.2898C5.1478 10.2898 4.6469 9.78879 4.6469 9.17279C4.6469 8.55779 5.1478 8.0568 5.763 8.0568C6.379 8.0568 6.88 8.55779 6.88 9.17279C6.88 9.78879 6.379 10.2898 5.763 10.2898ZM20.3587 5.7688L19.4667 7.0228V5.3568L20.3587 5.7688ZM19.4844 4.97679V3.7508L20.2545 5.3358L19.4844 4.97679ZM21.7628 7.6278L20.64 9.2128L19.5173 7.6248L20.64 6.03679L21.7628 7.6218V7.6278ZM20.3587 9.46579L19.4667 9.8788V8.2128L20.3587 9.46579ZM20.2531 9.9148L19.4843 11.5168V10.2748L20.2531 9.9148ZM19.4844 12.5288L20.3125 12.6508L19.4844 13.7358V12.5288ZM19.5643 12.2018L20.7326 9.7918L21.7629 10.3978V10.7458L20.5509 12.3358L19.5643 12.2018ZM20.8874 9.4798L21.7628 8.26079V9.9908L20.8874 9.4798ZM20.8874 5.77179L21.7628 5.26079V6.9888L20.8874 5.77179ZM21.7628 4.8528L20.7149 5.4578L19.5466 3.0488L20.5314 2.9158L21.7628 4.5038V4.8528ZM19.4844 2.7228V1.5158L20.3125 2.5988L19.4844 2.7228ZM12.7687 7.6248L12.8302 7.5658L14.3768 7.05179L18.1835 7.6248L14.3759 8.19879L12.8323 7.6848L12.7687 7.6248ZM15.2465 5.2818L17.7346 3.97679L14.2751 6.7368L13.4111 7.0168L15.2465 5.2818ZM13.4411 8.2598L14.2571 8.5298L17.5462 11.1558L15.0518 9.7808L13.4411 8.2598ZM15.3215 8.9068L19.1393 10.2898V11.9498L15.3215 8.9068ZM15.0576 8.4468L19.1392 7.82979V9.92079L15.0576 8.4468ZM15.0577 6.8048L19.1392 5.3308V7.4198L15.0577 6.8048ZM15.3026 6.34279L19.1392 3.3008V4.96179L15.3026 6.34279ZM16.1953 4.3848L19.1392 1.6008V2.8288L16.1953 4.3848ZM16.0301 10.7048L19.157 12.4388V13.6588L16.0301 10.7048Z" fill="#333335"/>
<path d="M22.4352 4.10179L19.7348 0.575793C19.6696 0.491793 19.5729 0.438797 19.4667 0.429797C19.359 0.420797 19.2564 0.457795 19.1795 0.530795L12.0736 7.2498H7.9156V4.7388C7.9156 4.5318 7.7477 4.3638 7.5406 4.3638C7.3335 4.3638 7.1656 4.5318 7.1656 4.7388V4.9148C6.8232 4.5218 6.3248 4.2668 5.763 4.2668C4.7339 4.2668 3.8968 5.10479 3.8968 6.13379C3.8968 6.55379 4.0415 6.9378 4.2766 7.2498H0.375C0.1678 7.2498 0 7.4178 0 7.6248C0 7.8318 0.1678 7.9998 0.375 7.9998H4.3237C4.0611 8.3218 3.8969 8.72679 3.8969 9.17279C3.8969 10.2028 4.734 11.0398 5.763 11.0398C6.3248 11.0398 6.8233 10.7858 7.1657 10.3918V10.6238C7.1657 10.8318 7.3336 10.9988 7.5407 10.9988C7.7478 10.9988 7.9157 10.8318 7.9157 10.6238V7.9998H12.0738L19.1876 14.7188C19.2572 14.7848 19.3495 14.8208 19.4447 14.8208C19.455 14.8208 19.4651 14.8208 19.4754 14.8198C19.5816 14.8108 19.6783 14.7578 19.7427 14.6728L22.4352 11.1398C22.4857 11.0748 22.5128 10.9938 22.5128 10.9118V4.3308C22.5128 4.2478 22.4857 4.16679 22.4352 4.10179ZM4.6469 6.13379C4.6469 5.51779 5.1478 5.0168 5.763 5.0168C6.379 5.0168 6.88 5.51779 6.88 6.13379C6.88 6.74779 6.3808 7.2478 5.7666 7.2498H5.7594C5.1459 7.2478 4.6469 6.74779 4.6469 6.13379ZM5.763 10.2898C5.1478 10.2898 4.6469 9.78879 4.6469 9.17279C4.6469 8.55779 5.1478 8.0568 5.763 8.0568C6.379 8.0568 6.88 8.55779 6.88 9.17279C6.88 9.78879 6.379 10.2898 5.763 10.2898ZM20.3587 5.7688L19.4667 7.0228V5.3568L20.3587 5.7688ZM19.4844 4.97679V3.7508L20.2545 5.3358L19.4844 4.97679ZM21.7628 7.6278L20.64 9.2128L19.5173 7.6248L20.64 6.03679L21.7628 7.6218V7.6278ZM20.3587 9.46579L19.4667 9.8788V8.2128L20.3587 9.46579ZM20.2531 9.9148L19.4843 11.5168V10.2748L20.2531 9.9148ZM19.4844 12.5288L20.3125 12.6508L19.4844 13.7358V12.5288ZM19.5643 12.2018L20.7326 9.7918L21.7629 10.3978V10.7458L20.5509 12.3358L19.5643 12.2018ZM20.8874 9.4798L21.7628 8.26079V9.9908L20.8874 9.4798ZM20.8874 5.77179L21.7628 5.26079V6.9888L20.8874 5.77179ZM21.7628 4.8528L20.7149 5.4578L19.5466 3.0488L20.5314 2.9158L21.7628 4.5038V4.8528ZM19.4844 2.7228V1.5158L20.3125 2.5988L19.4844 2.7228ZM12.7687 7.6248L12.8302 7.5658L14.3768 7.05179L18.1835 7.6248L14.3759 8.19879L12.8323 7.6848L12.7687 7.6248ZM15.2465 5.2818L17.7346 3.97679L14.2751 6.7368L13.4111 7.0168L15.2465 5.2818ZM13.4411 8.2598L14.2571 8.5298L17.5462 11.1558L15.0518 9.7808L13.4411 8.2598ZM15.3215 8.9068L19.1393 10.2898V11.9498L15.3215 8.9068ZM15.0576 8.4468L19.1392 7.82979V9.92079L15.0576 8.4468ZM15.0577 6.8048L19.1392 5.3308V7.4198L15.0577 6.8048ZM15.3026 6.34279L19.1392 3.3008V4.96179L15.3026 6.34279ZM16.1953 4.3848L19.1392 1.6008V2.8288L16.1953 4.3848ZM16.0301 10.7048L19.157 12.4388V13.6588L16.0301 10.7048Z" fill="black" fill-opacity="0.2"/>
<path d="M22.4352 4.10179L19.7348 0.575793C19.6696 0.491793 19.5729 0.438797 19.4667 0.429797C19.359 0.420797 19.2564 0.457795 19.1795 0.530795L12.0736 7.2498H7.9156V4.7388C7.9156 4.5318 7.7477 4.3638 7.5406 4.3638C7.3335 4.3638 7.1656 4.5318 7.1656 4.7388V4.9148C6.8232 4.5218 6.3248 4.2668 5.763 4.2668C4.7339 4.2668 3.8968 5.10479 3.8968 6.13379C3.8968 6.55379 4.0415 6.9378 4.2766 7.2498H0.375C0.1678 7.2498 0 7.4178 0 7.6248C0 7.8318 0.1678 7.9998 0.375 7.9998H4.3237C4.0611 8.3218 3.8969 8.72679 3.8969 9.17279C3.8969 10.2028 4.734 11.0398 5.763 11.0398C6.3248 11.0398 6.8233 10.7858 7.1657 10.3918V10.6238C7.1657 10.8318 7.3336 10.9988 7.5407 10.9988C7.7478 10.9988 7.9157 10.8318 7.9157 10.6238V7.9998H12.0738L19.1876 14.7188C19.2572 14.7848 19.3495 14.8208 19.4447 14.8208C19.455 14.8208 19.4651 14.8208 19.4754 14.8198C19.5816 14.8108 19.6783 14.7578 19.7427 14.6728L22.4352 11.1398C22.4857 11.0748 22.5128 10.9938 22.5128 10.9118V4.3308C22.5128 4.2478 22.4857 4.16679 22.4352 4.10179ZM4.6469 6.13379C4.6469 5.51779 5.1478 5.0168 5.763 5.0168C6.379 5.0168 6.88 5.51779 6.88 6.13379C6.88 6.74779 6.3808 7.2478 5.7666 7.2498H5.7594C5.1459 7.2478 4.6469 6.74779 4.6469 6.13379ZM5.763 10.2898C5.1478 10.2898 4.6469 9.78879 4.6469 9.17279C4.6469 8.55779 5.1478 8.0568 5.763 8.0568C6.379 8.0568 6.88 8.55779 6.88 9.17279C6.88 9.78879 6.379 10.2898 5.763 10.2898ZM20.3587 5.7688L19.4667 7.0228V5.3568L20.3587 5.7688ZM19.4844 4.97679V3.7508L20.2545 5.3358L19.4844 4.97679ZM21.7628 7.6278L20.64 9.2128L19.5173 7.6248L20.64 6.03679L21.7628 7.6218V7.6278ZM20.3587 9.46579L19.4667 9.8788V8.2128L20.3587 9.46579ZM20.2531 9.9148L19.4843 11.5168V10.2748L20.2531 9.9148ZM19.4844 12.5288L20.3125 12.6508L19.4844 13.7358V12.5288ZM19.5643 12.2018L20.7326 9.7918L21.7629 10.3978V10.7458L20.5509 12.3358L19.5643 12.2018ZM20.8874 9.4798L21.7628 8.26079V9.9908L20.8874 9.4798ZM20.8874 5.77179L21.7628 5.26079V6.9888L20.8874 5.77179ZM21.7628 4.8528L20.7149 5.4578L19.5466 3.0488L20.5314 2.9158L21.7628 4.5038V4.8528ZM19.4844 2.7228V1.5158L20.3125 2.5988L19.4844 2.7228ZM12.7687 7.6248L12.8302 7.5658L14.3768 7.05179L18.1835 7.6248L14.3759 8.19879L12.8323 7.6848L12.7687 7.6248ZM15.2465 5.2818L17.7346 3.97679L14.2751 6.7368L13.4111 7.0168L15.2465 5.2818ZM13.4411 8.2598L14.2571 8.5298L17.5462 11.1558L15.0518 9.7808L13.4411 8.2598ZM15.3215 8.9068L19.1393 10.2898V11.9498L15.3215 8.9068ZM15.0576 8.4468L19.1392 7.82979V9.92079L15.0576 8.4468ZM15.0577 6.8048L19.1392 5.3308V7.4198L15.0577 6.8048ZM15.3026 6.34279L19.1392 3.3008V4.96179L15.3026 6.34279ZM16.1953 4.3848L19.1392 1.6008V2.8288L16.1953 4.3848ZM16.0301 10.7048L19.157 12.4388V13.6588L16.0301 10.7048Z" fill="black" fill-opacity="0.2"/>
<path d="M22.4352 4.10179L19.7348 0.575793C19.6696 0.491793 19.5729 0.438797 19.4667 0.429797C19.359 0.420797 19.2564 0.457795 19.1795 0.530795L12.0736 7.2498H7.9156V4.7388C7.9156 4.5318 7.7477 4.3638 7.5406 4.3638C7.3335 4.3638 7.1656 4.5318 7.1656 4.7388V4.9148C6.8232 4.5218 6.3248 4.2668 5.763 4.2668C4.7339 4.2668 3.8968 5.10479 3.8968 6.13379C3.8968 6.55379 4.0415 6.9378 4.2766 7.2498H0.375C0.1678 7.2498 0 7.4178 0 7.6248C0 7.8318 0.1678 7.9998 0.375 7.9998H4.3237C4.0611 8.3218 3.8969 8.72679 3.8969 9.17279C3.8969 10.2028 4.734 11.0398 5.763 11.0398C6.3248 11.0398 6.8233 10.7858 7.1657 10.3918V10.6238C7.1657 10.8318 7.3336 10.9988 7.5407 10.9988C7.7478 10.9988 7.9157 10.8318 7.9157 10.6238V7.9998H12.0738L19.1876 14.7188C19.2572 14.7848 19.3495 14.8208 19.4447 14.8208C19.455 14.8208 19.4651 14.8208 19.4754 14.8198C19.5816 14.8108 19.6783 14.7578 19.7427 14.6728L22.4352 11.1398C22.4857 11.0748 22.5128 10.9938 22.5128 10.9118V4.3308C22.5128 4.2478 22.4857 4.16679 22.4352 4.10179ZM4.6469 6.13379C4.6469 5.51779 5.1478 5.0168 5.763 5.0168C6.379 5.0168 6.88 5.51779 6.88 6.13379C6.88 6.74779 6.3808 7.2478 5.7666 7.2498H5.7594C5.1459 7.2478 4.6469 6.74779 4.6469 6.13379ZM5.763 10.2898C5.1478 10.2898 4.6469 9.78879 4.6469 9.17279C4.6469 8.55779 5.1478 8.0568 5.763 8.0568C6.379 8.0568 6.88 8.55779 6.88 9.17279C6.88 9.78879 6.379 10.2898 5.763 10.2898ZM20.3587 5.7688L19.4667 7.0228V5.3568L20.3587 5.7688ZM19.4844 4.97679V3.7508L20.2545 5.3358L19.4844 4.97679ZM21.7628 7.6278L20.64 9.2128L19.5173 7.6248L20.64 6.03679L21.7628 7.6218V7.6278ZM20.3587 9.46579L19.4667 9.8788V8.2128L20.3587 9.46579ZM20.2531 9.9148L19.4843 11.5168V10.2748L20.2531 9.9148ZM19.4844 12.5288L20.3125 12.6508L19.4844 13.7358V12.5288ZM19.5643 12.2018L20.7326 9.7918L21.7629 10.3978V10.7458L20.5509 12.3358L19.5643 12.2018ZM20.8874 9.4798L21.7628 8.26079V9.9908L20.8874 9.4798ZM20.8874 5.77179L21.7628 5.26079V6.9888L20.8874 5.77179ZM21.7628 4.8528L20.7149 5.4578L19.5466 3.0488L20.5314 2.9158L21.7628 4.5038V4.8528ZM19.4844 2.7228V1.5158L20.3125 2.5988L19.4844 2.7228ZM12.7687 7.6248L12.8302 7.5658L14.3768 7.05179L18.1835 7.6248L14.3759 8.19879L12.8323 7.6848L12.7687 7.6248ZM15.2465 5.2818L17.7346 3.97679L14.2751 6.7368L13.4111 7.0168L15.2465 5.2818ZM13.4411 8.2598L14.2571 8.5298L17.5462 11.1558L15.0518 9.7808L13.4411 8.2598ZM15.3215 8.9068L19.1393 10.2898V11.9498L15.3215 8.9068ZM15.0576 8.4468L19.1392 7.82979V9.92079L15.0576 8.4468ZM15.0577 6.8048L19.1392 5.3308V7.4198L15.0577 6.8048ZM15.3026 6.34279L19.1392 3.3008V4.96179L15.3026 6.34279ZM16.1953 4.3848L19.1392 1.6008V2.8288L16.1953 4.3848ZM16.0301 10.7048L19.157 12.4388V13.6588L16.0301 10.7048Z" fill="black" fill-opacity="0.2"/>
<path d="M22.4352 4.10179L19.7348 0.575793C19.6696 0.491793 19.5729 0.438797 19.4667 0.429797C19.359 0.420797 19.2564 0.457795 19.1795 0.530795L12.0736 7.2498H7.9156V4.7388C7.9156 4.5318 7.7477 4.3638 7.5406 4.3638C7.3335 4.3638 7.1656 4.5318 7.1656 4.7388V4.9148C6.8232 4.5218 6.3248 4.2668 5.763 4.2668C4.7339 4.2668 3.8968 5.10479 3.8968 6.13379C3.8968 6.55379 4.0415 6.9378 4.2766 7.2498H0.375C0.1678 7.2498 0 7.4178 0 7.6248C0 7.8318 0.1678 7.9998 0.375 7.9998H4.3237C4.0611 8.3218 3.8969 8.72679 3.8969 9.17279C3.8969 10.2028 4.734 11.0398 5.763 11.0398C6.3248 11.0398 6.8233 10.7858 7.1657 10.3918V10.6238C7.1657 10.8318 7.3336 10.9988 7.5407 10.9988C7.7478 10.9988 7.9157 10.8318 7.9157 10.6238V7.9998H12.0738L19.1876 14.7188C19.2572 14.7848 19.3495 14.8208 19.4447 14.8208C19.455 14.8208 19.4651 14.8208 19.4754 14.8198C19.5816 14.8108 19.6783 14.7578 19.7427 14.6728L22.4352 11.1398C22.4857 11.0748 22.5128 10.9938 22.5128 10.9118V4.3308C22.5128 4.2478 22.4857 4.16679 22.4352 4.10179ZM4.6469 6.13379C4.6469 5.51779 5.1478 5.0168 5.763 5.0168C6.379 5.0168 6.88 5.51779 6.88 6.13379C6.88 6.74779 6.3808 7.2478 5.7666 7.2498H5.7594C5.1459 7.2478 4.6469 6.74779 4.6469 6.13379ZM5.763 10.2898C5.1478 10.2898 4.6469 9.78879 4.6469 9.17279C4.6469 8.55779 5.1478 8.0568 5.763 8.0568C6.379 8.0568 6.88 8.55779 6.88 9.17279C6.88 9.78879 6.379 10.2898 5.763 10.2898ZM20.3587 5.7688L19.4667 7.0228V5.3568L20.3587 5.7688ZM19.4844 4.97679V3.7508L20.2545 5.3358L19.4844 4.97679ZM21.7628 7.6278L20.64 9.2128L19.5173 7.6248L20.64 6.03679L21.7628 7.6218V7.6278ZM20.3587 9.46579L19.4667 9.8788V8.2128L20.3587 9.46579ZM20.2531 9.9148L19.4843 11.5168V10.2748L20.2531 9.9148ZM19.4844 12.5288L20.3125 12.6508L19.4844 13.7358V12.5288ZM19.5643 12.2018L20.7326 9.7918L21.7629 10.3978V10.7458L20.5509 12.3358L19.5643 12.2018ZM20.8874 9.4798L21.7628 8.26079V9.9908L20.8874 9.4798ZM20.8874 5.77179L21.7628 5.26079V6.9888L20.8874 5.77179ZM21.7628 4.8528L20.7149 5.4578L19.5466 3.0488L20.5314 2.9158L21.7628 4.5038V4.8528ZM19.4844 2.7228V1.5158L20.3125 2.5988L19.4844 2.7228ZM12.7687 7.6248L12.8302 7.5658L14.3768 7.05179L18.1835 7.6248L14.3759 8.19879L12.8323 7.6848L12.7687 7.6248ZM15.2465 5.2818L17.7346 3.97679L14.2751 6.7368L13.4111 7.0168L15.2465 5.2818ZM13.4411 8.2598L14.2571 8.5298L17.5462 11.1558L15.0518 9.7808L13.4411 8.2598ZM15.3215 8.9068L19.1393 10.2898V11.9498L15.3215 8.9068ZM15.0576 8.4468L19.1392 7.82979V9.92079L15.0576 8.4468ZM15.0577 6.8048L19.1392 5.3308V7.4198L15.0577 6.8048ZM15.3026 6.34279L19.1392 3.3008V4.96179L15.3026 6.34279ZM16.1953 4.3848L19.1392 1.6008V2.8288L16.1953 4.3848ZM16.0301 10.7048L19.157 12.4388V13.6588L16.0301 10.7048Z" fill="black" fill-opacity="0.2"/>
<path d="M22.4352 4.10179L19.7348 0.575793C19.6696 0.491793 19.5729 0.438797 19.4667 0.429797C19.359 0.420797 19.2564 0.457795 19.1795 0.530795L12.0736 7.2498H7.9156V4.7388C7.9156 4.5318 7.7477 4.3638 7.5406 4.3638C7.3335 4.3638 7.1656 4.5318 7.1656 4.7388V4.9148C6.8232 4.5218 6.3248 4.2668 5.763 4.2668C4.7339 4.2668 3.8968 5.10479 3.8968 6.13379C3.8968 6.55379 4.0415 6.9378 4.2766 7.2498H0.375C0.1678 7.2498 0 7.4178 0 7.6248C0 7.8318 0.1678 7.9998 0.375 7.9998H4.3237C4.0611 8.3218 3.8969 8.72679 3.8969 9.17279C3.8969 10.2028 4.734 11.0398 5.763 11.0398C6.3248 11.0398 6.8233 10.7858 7.1657 10.3918V10.6238C7.1657 10.8318 7.3336 10.9988 7.5407 10.9988C7.7478 10.9988 7.9157 10.8318 7.9157 10.6238V7.9998H12.0738L19.1876 14.7188C19.2572 14.7848 19.3495 14.8208 19.4447 14.8208C19.455 14.8208 19.4651 14.8208 19.4754 14.8198C19.5816 14.8108 19.6783 14.7578 19.7427 14.6728L22.4352 11.1398C22.4857 11.0748 22.5128 10.9938 22.5128 10.9118V4.3308C22.5128 4.2478 22.4857 4.16679 22.4352 4.10179ZM4.6469 6.13379C4.6469 5.51779 5.1478 5.0168 5.763 5.0168C6.379 5.0168 6.88 5.51779 6.88 6.13379C6.88 6.74779 6.3808 7.2478 5.7666 7.2498H5.7594C5.1459 7.2478 4.6469 6.74779 4.6469 6.13379ZM5.763 10.2898C5.1478 10.2898 4.6469 9.78879 4.6469 9.17279C4.6469 8.55779 5.1478 8.0568 5.763 8.0568C6.379 8.0568 6.88 8.55779 6.88 9.17279C6.88 9.78879 6.379 10.2898 5.763 10.2898ZM20.3587 5.7688L19.4667 7.0228V5.3568L20.3587 5.7688ZM19.4844 4.97679V3.7508L20.2545 5.3358L19.4844 4.97679ZM21.7628 7.6278L20.64 9.2128L19.5173 7.6248L20.64 6.03679L21.7628 7.6218V7.6278ZM20.3587 9.46579L19.4667 9.8788V8.2128L20.3587 9.46579ZM20.2531 9.9148L19.4843 11.5168V10.2748L20.2531 9.9148ZM19.4844 12.5288L20.3125 12.6508L19.4844 13.7358V12.5288ZM19.5643 12.2018L20.7326 9.7918L21.7629 10.3978V10.7458L20.5509 12.3358L19.5643 12.2018ZM20.8874 9.4798L21.7628 8.26079V9.9908L20.8874 9.4798ZM20.8874 5.77179L21.7628 5.26079V6.9888L20.8874 5.77179ZM21.7628 4.8528L20.7149 5.4578L19.5466 3.0488L20.5314 2.9158L21.7628 4.5038V4.8528ZM19.4844 2.7228V1.5158L20.3125 2.5988L19.4844 2.7228ZM12.7687 7.6248L12.8302 7.5658L14.3768 7.05179L18.1835 7.6248L14.3759 8.19879L12.8323 7.6848L12.7687 7.6248ZM15.2465 5.2818L17.7346 3.97679L14.2751 6.7368L13.4111 7.0168L15.2465 5.2818ZM13.4411 8.2598L14.2571 8.5298L17.5462 11.1558L15.0518 9.7808L13.4411 8.2598ZM15.3215 8.9068L19.1393 10.2898V11.9498L15.3215 8.9068ZM15.0576 8.4468L19.1392 7.82979V9.92079L15.0576 8.4468ZM15.0577 6.8048L19.1392 5.3308V7.4198L15.0577 6.8048ZM15.3026 6.34279L19.1392 3.3008V4.96179L15.3026 6.34279ZM16.1953 4.3848L19.1392 1.6008V2.8288L16.1953 4.3848ZM16.0301 10.7048L19.157 12.4388V13.6588L16.0301 10.7048Z" fill="black" fill-opacity="0.2"/>
<path d="M22.4352 4.10179L19.7348 0.575793C19.6696 0.491793 19.5729 0.438797 19.4667 0.429797C19.359 0.420797 19.2564 0.457795 19.1795 0.530795L12.0736 7.2498H7.9156V4.7388C7.9156 4.5318 7.7477 4.3638 7.5406 4.3638C7.3335 4.3638 7.1656 4.5318 7.1656 4.7388V4.9148C6.8232 4.5218 6.3248 4.2668 5.763 4.2668C4.7339 4.2668 3.8968 5.10479 3.8968 6.13379C3.8968 6.55379 4.0415 6.9378 4.2766 7.2498H0.375C0.1678 7.2498 0 7.4178 0 7.6248C0 7.8318 0.1678 7.9998 0.375 7.9998H4.3237C4.0611 8.3218 3.8969 8.72679 3.8969 9.17279C3.8969 10.2028 4.734 11.0398 5.763 11.0398C6.3248 11.0398 6.8233 10.7858 7.1657 10.3918V10.6238C7.1657 10.8318 7.3336 10.9988 7.5407 10.9988C7.7478 10.9988 7.9157 10.8318 7.9157 10.6238V7.9998H12.0738L19.1876 14.7188C19.2572 14.7848 19.3495 14.8208 19.4447 14.8208C19.455 14.8208 19.4651 14.8208 19.4754 14.8198C19.5816 14.8108 19.6783 14.7578 19.7427 14.6728L22.4352 11.1398C22.4857 11.0748 22.5128 10.9938 22.5128 10.9118V4.3308C22.5128 4.2478 22.4857 4.16679 22.4352 4.10179ZM4.6469 6.13379C4.6469 5.51779 5.1478 5.0168 5.763 5.0168C6.379 5.0168 6.88 5.51779 6.88 6.13379C6.88 6.74779 6.3808 7.2478 5.7666 7.2498H5.7594C5.1459 7.2478 4.6469 6.74779 4.6469 6.13379ZM5.763 10.2898C5.1478 10.2898 4.6469 9.78879 4.6469 9.17279C4.6469 8.55779 5.1478 8.0568 5.763 8.0568C6.379 8.0568 6.88 8.55779 6.88 9.17279C6.88 9.78879 6.379 10.2898 5.763 10.2898ZM20.3587 5.7688L19.4667 7.0228V5.3568L20.3587 5.7688ZM19.4844 4.97679V3.7508L20.2545 5.3358L19.4844 4.97679ZM21.7628 7.6278L20.64 9.2128L19.5173 7.6248L20.64 6.03679L21.7628 7.6218V7.6278ZM20.3587 9.46579L19.4667 9.8788V8.2128L20.3587 9.46579ZM20.2531 9.9148L19.4843 11.5168V10.2748L20.2531 9.9148ZM19.4844 12.5288L20.3125 12.6508L19.4844 13.7358V12.5288ZM19.5643 12.2018L20.7326 9.7918L21.7629 10.3978V10.7458L20.5509 12.3358L19.5643 12.2018ZM20.8874 9.4798L21.7628 8.26079V9.9908L20.8874 9.4798ZM20.8874 5.77179L21.7628 5.26079V6.9888L20.8874 5.77179ZM21.7628 4.8528L20.7149 5.4578L19.5466 3.0488L20.5314 2.9158L21.7628 4.5038V4.8528ZM19.4844 2.7228V1.5158L20.3125 2.5988L19.4844 2.7228ZM12.7687 7.6248L12.8302 7.5658L14.3768 7.05179L18.1835 7.6248L14.3759 8.19879L12.8323 7.6848L12.7687 7.6248ZM15.2465 5.2818L17.7346 3.97679L14.2751 6.7368L13.4111 7.0168L15.2465 5.2818ZM13.4411 8.2598L14.2571 8.5298L17.5462 11.1558L15.0518 9.7808L13.4411 8.2598ZM15.3215 8.9068L19.1393 10.2898V11.9498L15.3215 8.9068ZM15.0576 8.4468L19.1392 7.82979V9.92079L15.0576 8.4468ZM15.0577 6.8048L19.1392 5.3308V7.4198L15.0577 6.8048ZM15.3026 6.34279L19.1392 3.3008V4.96179L15.3026 6.34279ZM16.1953 4.3848L19.1392 1.6008V2.8288L16.1953 4.3848ZM16.0301 10.7048L19.157 12.4388V13.6588L16.0301 10.7048Z" fill="black" fill-opacity="0.2"/>
<path d="M22.4352 4.10179L19.7348 0.575793C19.6696 0.491793 19.5729 0.438797 19.4667 0.429797C19.359 0.420797 19.2564 0.457795 19.1795 0.530795L12.0736 7.2498H7.9156V4.7388C7.9156 4.5318 7.7477 4.3638 7.5406 4.3638C7.3335 4.3638 7.1656 4.5318 7.1656 4.7388V4.9148C6.8232 4.5218 6.3248 4.2668 5.763 4.2668C4.7339 4.2668 3.8968 5.10479 3.8968 6.13379C3.8968 6.55379 4.0415 6.9378 4.2766 7.2498H0.375C0.1678 7.2498 0 7.4178 0 7.6248C0 7.8318 0.1678 7.9998 0.375 7.9998H4.3237C4.0611 8.3218 3.8969 8.72679 3.8969 9.17279C3.8969 10.2028 4.734 11.0398 5.763 11.0398C6.3248 11.0398 6.8233 10.7858 7.1657 10.3918V10.6238C7.1657 10.8318 7.3336 10.9988 7.5407 10.9988C7.7478 10.9988 7.9157 10.8318 7.9157 10.6238V7.9998H12.0738L19.1876 14.7188C19.2572 14.7848 19.3495 14.8208 19.4447 14.8208C19.455 14.8208 19.4651 14.8208 19.4754 14.8198C19.5816 14.8108 19.6783 14.7578 19.7427 14.6728L22.4352 11.1398C22.4857 11.0748 22.5128 10.9938 22.5128 10.9118V4.3308C22.5128 4.2478 22.4857 4.16679 22.4352 4.10179ZM4.6469 6.13379C4.6469 5.51779 5.1478 5.0168 5.763 5.0168C6.379 5.0168 6.88 5.51779 6.88 6.13379C6.88 6.74779 6.3808 7.2478 5.7666 7.2498H5.7594C5.1459 7.2478 4.6469 6.74779 4.6469 6.13379ZM5.763 10.2898C5.1478 10.2898 4.6469 9.78879 4.6469 9.17279C4.6469 8.55779 5.1478 8.0568 5.763 8.0568C6.379 8.0568 6.88 8.55779 6.88 9.17279C6.88 9.78879 6.379 10.2898 5.763 10.2898ZM20.3587 5.7688L19.4667 7.0228V5.3568L20.3587 5.7688ZM19.4844 4.97679V3.7508L20.2545 5.3358L19.4844 4.97679ZM21.7628 7.6278L20.64 9.2128L19.5173 7.6248L20.64 6.03679L21.7628 7.6218V7.6278ZM20.3587 9.46579L19.4667 9.8788V8.2128L20.3587 9.46579ZM20.2531 9.9148L19.4843 11.5168V10.2748L20.2531 9.9148ZM19.4844 12.5288L20.3125 12.6508L19.4844 13.7358V12.5288ZM19.5643 12.2018L20.7326 9.7918L21.7629 10.3978V10.7458L20.5509 12.3358L19.5643 12.2018ZM20.8874 9.4798L21.7628 8.26079V9.9908L20.8874 9.4798ZM20.8874 5.77179L21.7628 5.26079V6.9888L20.8874 5.77179ZM21.7628 4.8528L20.7149 5.4578L19.5466 3.0488L20.5314 2.9158L21.7628 4.5038V4.8528ZM19.4844 2.7228V1.5158L20.3125 2.5988L19.4844 2.7228ZM12.7687 7.6248L12.8302 7.5658L14.3768 7.05179L18.1835 7.6248L14.3759 8.19879L12.8323 7.6848L12.7687 7.6248ZM15.2465 5.2818L17.7346 3.97679L14.2751 6.7368L13.4111 7.0168L15.2465 5.2818ZM13.4411 8.2598L14.2571 8.5298L17.5462 11.1558L15.0518 9.7808L13.4411 8.2598ZM15.3215 8.9068L19.1393 10.2898V11.9498L15.3215 8.9068ZM15.0576 8.4468L19.1392 7.82979V9.92079L15.0576 8.4468ZM15.0577 6.8048L19.1392 5.3308V7.4198L15.0577 6.8048ZM15.3026 6.34279L19.1392 3.3008V4.96179L15.3026 6.34279ZM16.1953 4.3848L19.1392 1.6008V2.8288L16.1953 4.3848ZM16.0301 10.7048L19.157 12.4388V13.6588L16.0301 10.7048Z" fill="black" fill-opacity="0.2"/>
<path d="M22.4352 4.10179L19.7348 0.575793C19.6696 0.491793 19.5729 0.438797 19.4667 0.429797C19.359 0.420797 19.2564 0.457795 19.1795 0.530795L12.0736 7.2498H7.9156V4.7388C7.9156 4.5318 7.7477 4.3638 7.5406 4.3638C7.3335 4.3638 7.1656 4.5318 7.1656 4.7388V4.9148C6.8232 4.5218 6.3248 4.2668 5.763 4.2668C4.7339 4.2668 3.8968 5.10479 3.8968 6.13379C3.8968 6.55379 4.0415 6.9378 4.2766 7.2498H0.375C0.1678 7.2498 0 7.4178 0 7.6248C0 7.8318 0.1678 7.9998 0.375 7.9998H4.3237C4.0611 8.3218 3.8969 8.72679 3.8969 9.17279C3.8969 10.2028 4.734 11.0398 5.763 11.0398C6.3248 11.0398 6.8233 10.7858 7.1657 10.3918V10.6238C7.1657 10.8318 7.3336 10.9988 7.5407 10.9988C7.7478 10.9988 7.9157 10.8318 7.9157 10.6238V7.9998H12.0738L19.1876 14.7188C19.2572 14.7848 19.3495 14.8208 19.4447 14.8208C19.455 14.8208 19.4651 14.8208 19.4754 14.8198C19.5816 14.8108 19.6783 14.7578 19.7427 14.6728L22.4352 11.1398C22.4857 11.0748 22.5128 10.9938 22.5128 10.9118V4.3308C22.5128 4.2478 22.4857 4.16679 22.4352 4.10179ZM4.6469 6.13379C4.6469 5.51779 5.1478 5.0168 5.763 5.0168C6.379 5.0168 6.88 5.51779 6.88 6.13379C6.88 6.74779 6.3808 7.2478 5.7666 7.2498H5.7594C5.1459 7.2478 4.6469 6.74779 4.6469 6.13379ZM5.763 10.2898C5.1478 10.2898 4.6469 9.78879 4.6469 9.17279C4.6469 8.55779 5.1478 8.0568 5.763 8.0568C6.379 8.0568 6.88 8.55779 6.88 9.17279C6.88 9.78879 6.379 10.2898 5.763 10.2898ZM20.3587 5.7688L19.4667 7.0228V5.3568L20.3587 5.7688ZM19.4844 4.97679V3.7508L20.2545 5.3358L19.4844 4.97679ZM21.7628 7.6278L20.64 9.2128L19.5173 7.6248L20.64 6.03679L21.7628 7.6218V7.6278ZM20.3587 9.46579L19.4667 9.8788V8.2128L20.3587 9.46579ZM20.2531 9.9148L19.4843 11.5168V10.2748L20.2531 9.9148ZM19.4844 12.5288L20.3125 12.6508L19.4844 13.7358V12.5288ZM19.5643 12.2018L20.7326 9.7918L21.7629 10.3978V10.7458L20.5509 12.3358L19.5643 12.2018ZM20.8874 9.4798L21.7628 8.26079V9.9908L20.8874 9.4798ZM20.8874 5.77179L21.7628 5.26079V6.9888L20.8874 5.77179ZM21.7628 4.8528L20.7149 5.4578L19.5466 3.0488L20.5314 2.9158L21.7628 4.5038V4.8528ZM19.4844 2.7228V1.5158L20.3125 2.5988L19.4844 2.7228ZM12.7687 7.6248L12.8302 7.5658L14.3768 7.05179L18.1835 7.6248L14.3759 8.19879L12.8323 7.6848L12.7687 7.6248ZM15.2465 5.2818L17.7346 3.97679L14.2751 6.7368L13.4111 7.0168L15.2465 5.2818ZM13.4411 8.2598L14.2571 8.5298L17.5462 11.1558L15.0518 9.7808L13.4411 8.2598ZM15.3215 8.9068L19.1393 10.2898V11.9498L15.3215 8.9068ZM15.0576 8.4468L19.1392 7.82979V9.92079L15.0576 8.4468ZM15.0577 6.8048L19.1392 5.3308V7.4198L15.0577 6.8048ZM15.3026 6.34279L19.1392 3.3008V4.96179L15.3026 6.34279ZM16.1953 4.3848L19.1392 1.6008V2.8288L16.1953 4.3848ZM16.0301 10.7048L19.157 12.4388V13.6588L16.0301 10.7048Z" fill="black" fill-opacity="0.2"/>
</g>
<g id="Vector_2">
<path d="M34.4996 0C32.4075 0 30.5105 0.847995 29.1314 2.217L29.1264 2.21799V2.22099C27.7369 3.60299 26.875 5.515 26.875 7.625C26.875 11.829 30.2954 15.25 34.4995 15.25C38.7043 15.25 42.1246 11.829 42.1246 7.625C42.1247 3.42 38.7044 0 34.4996 0ZM39.8283 11.961L39.4822 10.031L40.7306 10.512C40.4882 11.033 40.1876 11.521 39.8283 11.961ZM37.4788 13.811L36.9422 12.596L38.8526 12.941C38.4341 13.284 37.971 13.573 37.4788 13.811ZM35.1972 14.464L36.3167 12.84L36.8673 14.071C36.3369 14.266 35.7795 14.406 35.1972 14.464ZM32.2341 14.108L32.7059 12.864L33.828 14.466C33.274 14.412 32.742 14.286 32.2341 14.108ZM30.1466 12.941L32.0833 12.594L31.5988 13.849C31.077 13.605 30.5874 13.302 30.1466 12.941ZM27.6591 8.297L29.2715 9.416L28.0436 9.96399C27.851 9.43499 27.7157 8.878 27.6591 8.297ZM29.173 3.286L29.5176 5.20299L28.2756 4.724C28.5174 4.208 28.8163 3.723 29.173 3.286ZM31.5269 1.43599L32.0577 2.63699L30.1635 2.29599C30.5795 1.95699 31.0386 1.67099 31.5269 1.43599ZM33.7901 0.786987L32.6824 2.394L32.138 1.17699C32.663 0.983987 33.2145 0.845987 33.7901 0.786987ZM36.7599 1.14L36.2933 2.36899L35.1828 0.784988C35.7308 0.838988 36.2571 0.963999 36.7599 1.14ZM38.8363 2.29599L36.9165 2.64L37.3957 1.39799C37.9132 1.63999 38.3984 1.93899 38.8363 2.29599ZM40.6869 4.64699L39.4844 5.17699L39.8261 3.286C40.1652 3.701 40.4512 4.15999 40.6869 4.64699ZM35.9161 12.221L34.4996 14.269L33.0838 12.237L34.5003 11.19L35.9161 12.221ZM33.0838 3.013L34.4996 0.964996L35.9161 2.998L34.4989 4.04399L33.0838 3.013ZM38.4393 5.99699L37.756 6.94499L37.2755 5.80699L38.4393 5.99699ZM37.2755 9.42699L37.7567 8.28699L38.454 9.237L37.2755 9.42699ZM32.5111 5.631L34.4996 4.808L36.488 5.631L37.3113 7.61699L36.488 9.603L34.4996 10.425L32.5111 9.603L31.6885 7.61699L32.5111 5.631ZM31.7091 5.821L31.2418 6.94499L30.5466 5.998L31.7091 5.821ZM31.2572 8.28999L31.7252 9.42699L30.5621 9.237L31.2572 8.28999ZM38.7689 5.355L37.0278 5.075L36.7628 3.35199L39.212 2.90999L38.7689 5.355ZM35.1734 4.37799L36.1365 3.683L36.313 4.847L35.1734 4.37799ZM32.6876 4.82999L32.878 3.66699L33.8265 4.36099L32.6876 4.82999ZM31.9713 5.09099L30.2303 5.35599L29.7879 2.90999L32.2371 3.35199L31.9713 5.09099ZM29.8905 6.202L30.9239 7.61699L29.8905 9.03099L27.8405 7.61699L29.8905 6.202ZM30.2303 9.87799L31.9713 10.159L32.2364 11.882L29.7879 12.324L30.2303 9.87799ZM33.8258 10.855L32.8634 11.55L32.6862 10.387L33.8258 10.855ZM36.3116 10.404L36.1219 11.566L35.1727 10.872L36.3116 10.404ZM37.0278 10.143L38.7689 9.877L39.212 12.324L36.7628 11.882L37.0278 10.143ZM39.1087 9.03099L38.076 7.61699L39.1087 6.202L41.1595 7.61699L39.1087 9.03099ZM28.0233 5.34099L29.2642 5.823L27.6593 6.94699C27.7143 6.38799 27.8424 5.85199 28.0233 5.34099ZM28.3066 10.59L29.5155 10.057L29.1708 11.961C28.8298 11.542 28.5428 11.081 28.3066 10.59ZM40.9817 9.89499L39.7348 9.40999L41.3413 8.286C41.2877 8.845 41.1617 9.38199 40.9817 9.89499ZM41.3399 6.93599L39.7276 5.81799L40.951 5.271C41.1445 5.8 41.2818 6.35599 41.3399 6.93599Z" fill="#333335"/>
<path d="M34.4996 0C32.4075 0 30.5105 0.847995 29.1314 2.217L29.1264 2.21799V2.22099C27.7369 3.60299 26.875 5.515 26.875 7.625C26.875 11.829 30.2954 15.25 34.4995 15.25C38.7043 15.25 42.1246 11.829 42.1246 7.625C42.1247 3.42 38.7044 0 34.4996 0ZM39.8283 11.961L39.4822 10.031L40.7306 10.512C40.4882 11.033 40.1876 11.521 39.8283 11.961ZM37.4788 13.811L36.9422 12.596L38.8526 12.941C38.4341 13.284 37.971 13.573 37.4788 13.811ZM35.1972 14.464L36.3167 12.84L36.8673 14.071C36.3369 14.266 35.7795 14.406 35.1972 14.464ZM32.2341 14.108L32.7059 12.864L33.828 14.466C33.274 14.412 32.742 14.286 32.2341 14.108ZM30.1466 12.941L32.0833 12.594L31.5988 13.849C31.077 13.605 30.5874 13.302 30.1466 12.941ZM27.6591 8.297L29.2715 9.416L28.0436 9.96399C27.851 9.43499 27.7157 8.878 27.6591 8.297ZM29.173 3.286L29.5176 5.20299L28.2756 4.724C28.5174 4.208 28.8163 3.723 29.173 3.286ZM31.5269 1.43599L32.0577 2.63699L30.1635 2.29599C30.5795 1.95699 31.0386 1.67099 31.5269 1.43599ZM33.7901 0.786987L32.6824 2.394L32.138 1.17699C32.663 0.983987 33.2145 0.845987 33.7901 0.786987ZM36.7599 1.14L36.2933 2.36899L35.1828 0.784988C35.7308 0.838988 36.2571 0.963999 36.7599 1.14ZM38.8363 2.29599L36.9165 2.64L37.3957 1.39799C37.9132 1.63999 38.3984 1.93899 38.8363 2.29599ZM40.6869 4.64699L39.4844 5.17699L39.8261 3.286C40.1652 3.701 40.4512 4.15999 40.6869 4.64699ZM35.9161 12.221L34.4996 14.269L33.0838 12.237L34.5003 11.19L35.9161 12.221ZM33.0838 3.013L34.4996 0.964996L35.9161 2.998L34.4989 4.04399L33.0838 3.013ZM38.4393 5.99699L37.756 6.94499L37.2755 5.80699L38.4393 5.99699ZM37.2755 9.42699L37.7567 8.28699L38.454 9.237L37.2755 9.42699ZM32.5111 5.631L34.4996 4.808L36.488 5.631L37.3113 7.61699L36.488 9.603L34.4996 10.425L32.5111 9.603L31.6885 7.61699L32.5111 5.631ZM31.7091 5.821L31.2418 6.94499L30.5466 5.998L31.7091 5.821ZM31.2572 8.28999L31.7252 9.42699L30.5621 9.237L31.2572 8.28999ZM38.7689 5.355L37.0278 5.075L36.7628 3.35199L39.212 2.90999L38.7689 5.355ZM35.1734 4.37799L36.1365 3.683L36.313 4.847L35.1734 4.37799ZM32.6876 4.82999L32.878 3.66699L33.8265 4.36099L32.6876 4.82999ZM31.9713 5.09099L30.2303 5.35599L29.7879 2.90999L32.2371 3.35199L31.9713 5.09099ZM29.8905 6.202L30.9239 7.61699L29.8905 9.03099L27.8405 7.61699L29.8905 6.202ZM30.2303 9.87799L31.9713 10.159L32.2364 11.882L29.7879 12.324L30.2303 9.87799ZM33.8258 10.855L32.8634 11.55L32.6862 10.387L33.8258 10.855ZM36.3116 10.404L36.1219 11.566L35.1727 10.872L36.3116 10.404ZM37.0278 10.143L38.7689 9.877L39.212 12.324L36.7628 11.882L37.0278 10.143ZM39.1087 9.03099L38.076 7.61699L39.1087 6.202L41.1595 7.61699L39.1087 9.03099ZM28.0233 5.34099L29.2642 5.823L27.6593 6.94699C27.7143 6.38799 27.8424 5.85199 28.0233 5.34099ZM28.3066 10.59L29.5155 10.057L29.1708 11.961C28.8298 11.542 28.5428 11.081 28.3066 10.59ZM40.9817 9.89499L39.7348 9.40999L41.3413 8.286C41.2877 8.845 41.1617 9.38199 40.9817 9.89499ZM41.3399 6.93599L39.7276 5.81799L40.951 5.271C41.1445 5.8 41.2818 6.35599 41.3399 6.93599Z" fill="black" fill-opacity="0.2"/>
<path d="M34.4996 0C32.4075 0 30.5105 0.847995 29.1314 2.217L29.1264 2.21799V2.22099C27.7369 3.60299 26.875 5.515 26.875 7.625C26.875 11.829 30.2954 15.25 34.4995 15.25C38.7043 15.25 42.1246 11.829 42.1246 7.625C42.1247 3.42 38.7044 0 34.4996 0ZM39.8283 11.961L39.4822 10.031L40.7306 10.512C40.4882 11.033 40.1876 11.521 39.8283 11.961ZM37.4788 13.811L36.9422 12.596L38.8526 12.941C38.4341 13.284 37.971 13.573 37.4788 13.811ZM35.1972 14.464L36.3167 12.84L36.8673 14.071C36.3369 14.266 35.7795 14.406 35.1972 14.464ZM32.2341 14.108L32.7059 12.864L33.828 14.466C33.274 14.412 32.742 14.286 32.2341 14.108ZM30.1466 12.941L32.0833 12.594L31.5988 13.849C31.077 13.605 30.5874 13.302 30.1466 12.941ZM27.6591 8.297L29.2715 9.416L28.0436 9.96399C27.851 9.43499 27.7157 8.878 27.6591 8.297ZM29.173 3.286L29.5176 5.20299L28.2756 4.724C28.5174 4.208 28.8163 3.723 29.173 3.286ZM31.5269 1.43599L32.0577 2.63699L30.1635 2.29599C30.5795 1.95699 31.0386 1.67099 31.5269 1.43599ZM33.7901 0.786987L32.6824 2.394L32.138 1.17699C32.663 0.983987 33.2145 0.845987 33.7901 0.786987ZM36.7599 1.14L36.2933 2.36899L35.1828 0.784988C35.7308 0.838988 36.2571 0.963999 36.7599 1.14ZM38.8363 2.29599L36.9165 2.64L37.3957 1.39799C37.9132 1.63999 38.3984 1.93899 38.8363 2.29599ZM40.6869 4.64699L39.4844 5.17699L39.8261 3.286C40.1652 3.701 40.4512 4.15999 40.6869 4.64699ZM35.9161 12.221L34.4996 14.269L33.0838 12.237L34.5003 11.19L35.9161 12.221ZM33.0838 3.013L34.4996 0.964996L35.9161 2.998L34.4989 4.04399L33.0838 3.013ZM38.4393 5.99699L37.756 6.94499L37.2755 5.80699L38.4393 5.99699ZM37.2755 9.42699L37.7567 8.28699L38.454 9.237L37.2755 9.42699ZM32.5111 5.631L34.4996 4.808L36.488 5.631L37.3113 7.61699L36.488 9.603L34.4996 10.425L32.5111 9.603L31.6885 7.61699L32.5111 5.631ZM31.7091 5.821L31.2418 6.94499L30.5466 5.998L31.7091 5.821ZM31.2572 8.28999L31.7252 9.42699L30.5621 9.237L31.2572 8.28999ZM38.7689 5.355L37.0278 5.075L36.7628 3.35199L39.212 2.90999L38.7689 5.355ZM35.1734 4.37799L36.1365 3.683L36.313 4.847L35.1734 4.37799ZM32.6876 4.82999L32.878 3.66699L33.8265 4.36099L32.6876 4.82999ZM31.9713 5.09099L30.2303 5.35599L29.7879 2.90999L32.2371 3.35199L31.9713 5.09099ZM29.8905 6.202L30.9239 7.61699L29.8905 9.03099L27.8405 7.61699L29.8905 6.202ZM30.2303 9.87799L31.9713 10.159L32.2364 11.882L29.7879 12.324L30.2303 9.87799ZM33.8258 10.855L32.8634 11.55L32.6862 10.387L33.8258 10.855ZM36.3116 10.404L36.1219 11.566L35.1727 10.872L36.3116 10.404ZM37.0278 10.143L38.7689 9.877L39.212 12.324L36.7628 11.882L37.0278 10.143ZM39.1087 9.03099L38.076 7.61699L39.1087 6.202L41.1595 7.61699L39.1087 9.03099ZM28.0233 5.34099L29.2642 5.823L27.6593 6.94699C27.7143 6.38799 27.8424 5.85199 28.0233 5.34099ZM28.3066 10.59L29.5155 10.057L29.1708 11.961C28.8298 11.542 28.5428 11.081 28.3066 10.59ZM40.9817 9.89499L39.7348 9.40999L41.3413 8.286C41.2877 8.845 41.1617 9.38199 40.9817 9.89499ZM41.3399 6.93599L39.7276 5.81799L40.951 5.271C41.1445 5.8 41.2818 6.35599 41.3399 6.93599Z" fill="black" fill-opacity="0.2"/>
<path d="M34.4996 0C32.4075 0 30.5105 0.847995 29.1314 2.217L29.1264 2.21799V2.22099C27.7369 3.60299 26.875 5.515 26.875 7.625C26.875 11.829 30.2954 15.25 34.4995 15.25C38.7043 15.25 42.1246 11.829 42.1246 7.625C42.1247 3.42 38.7044 0 34.4996 0ZM39.8283 11.961L39.4822 10.031L40.7306 10.512C40.4882 11.033 40.1876 11.521 39.8283 11.961ZM37.4788 13.811L36.9422 12.596L38.8526 12.941C38.4341 13.284 37.971 13.573 37.4788 13.811ZM35.1972 14.464L36.3167 12.84L36.8673 14.071C36.3369 14.266 35.7795 14.406 35.1972 14.464ZM32.2341 14.108L32.7059 12.864L33.828 14.466C33.274 14.412 32.742 14.286 32.2341 14.108ZM30.1466 12.941L32.0833 12.594L31.5988 13.849C31.077 13.605 30.5874 13.302 30.1466 12.941ZM27.6591 8.297L29.2715 9.416L28.0436 9.96399C27.851 9.43499 27.7157 8.878 27.6591 8.297ZM29.173 3.286L29.5176 5.20299L28.2756 4.724C28.5174 4.208 28.8163 3.723 29.173 3.286ZM31.5269 1.43599L32.0577 2.63699L30.1635 2.29599C30.5795 1.95699 31.0386 1.67099 31.5269 1.43599ZM33.7901 0.786987L32.6824 2.394L32.138 1.17699C32.663 0.983987 33.2145 0.845987 33.7901 0.786987ZM36.7599 1.14L36.2933 2.36899L35.1828 0.784988C35.7308 0.838988 36.2571 0.963999 36.7599 1.14ZM38.8363 2.29599L36.9165 2.64L37.3957 1.39799C37.9132 1.63999 38.3984 1.93899 38.8363 2.29599ZM40.6869 4.64699L39.4844 5.17699L39.8261 3.286C40.1652 3.701 40.4512 4.15999 40.6869 4.64699ZM35.9161 12.221L34.4996 14.269L33.0838 12.237L34.5003 11.19L35.9161 12.221ZM33.0838 3.013L34.4996 0.964996L35.9161 2.998L34.4989 4.04399L33.0838 3.013ZM38.4393 5.99699L37.756 6.94499L37.2755 5.80699L38.4393 5.99699ZM37.2755 9.42699L37.7567 8.28699L38.454 9.237L37.2755 9.42699ZM32.5111 5.631L34.4996 4.808L36.488 5.631L37.3113 7.61699L36.488 9.603L34.4996 10.425L32.5111 9.603L31.6885 7.61699L32.5111 5.631ZM31.7091 5.821L31.2418 6.94499L30.5466 5.998L31.7091 5.821ZM31.2572 8.28999L31.7252 9.42699L30.5621 9.237L31.2572 8.28999ZM38.7689 5.355L37.0278 5.075L36.7628 3.35199L39.212 2.90999L38.7689 5.355ZM35.1734 4.37799L36.1365 3.683L36.313 4.847L35.1734 4.37799ZM32.6876 4.82999L32.878 3.66699L33.8265 4.36099L32.6876 4.82999ZM31.9713 5.09099L30.2303 5.35599L29.7879 2.90999L32.2371 3.35199L31.9713 5.09099ZM29.8905 6.202L30.9239 7.61699L29.8905 9.03099L27.8405 7.61699L29.8905 6.202ZM30.2303 9.87799L31.9713 10.159L32.2364 11.882L29.7879 12.324L30.2303 9.87799ZM33.8258 10.855L32.8634 11.55L32.6862 10.387L33.8258 10.855ZM36.3116 10.404L36.1219 11.566L35.1727 10.872L36.3116 10.404ZM37.0278 10.143L38.7689 9.877L39.212 12.324L36.7628 11.882L37.0278 10.143ZM39.1087 9.03099L38.076 7.61699L39.1087 6.202L41.1595 7.61699L39.1087 9.03099ZM28.0233 5.34099L29.2642 5.823L27.6593 6.94699C27.7143 6.38799 27.8424 5.85199 28.0233 5.34099ZM28.3066 10.59L29.5155 10.057L29.1708 11.961C28.8298 11.542 28.5428 11.081 28.3066 10.59ZM40.9817 9.89499L39.7348 9.40999L41.3413 8.286C41.2877 8.845 41.1617 9.38199 40.9817 9.89499ZM41.3399 6.93599L39.7276 5.81799L40.951 5.271C41.1445 5.8 41.2818 6.35599 41.3399 6.93599Z" fill="black" fill-opacity="0.2"/>
<path d="M34.4996 0C32.4075 0 30.5105 0.847995 29.1314 2.217L29.1264 2.21799V2.22099C27.7369 3.60299 26.875 5.515 26.875 7.625C26.875 11.829 30.2954 15.25 34.4995 15.25C38.7043 15.25 42.1246 11.829 42.1246 7.625C42.1247 3.42 38.7044 0 34.4996 0ZM39.8283 11.961L39.4822 10.031L40.7306 10.512C40.4882 11.033 40.1876 11.521 39.8283 11.961ZM37.4788 13.811L36.9422 12.596L38.8526 12.941C38.4341 13.284 37.971 13.573 37.4788 13.811ZM35.1972 14.464L36.3167 12.84L36.8673 14.071C36.3369 14.266 35.7795 14.406 35.1972 14.464ZM32.2341 14.108L32.7059 12.864L33.828 14.466C33.274 14.412 32.742 14.286 32.2341 14.108ZM30.1466 12.941L32.0833 12.594L31.5988 13.849C31.077 13.605 30.5874 13.302 30.1466 12.941ZM27.6591 8.297L29.2715 9.416L28.0436 9.96399C27.851 9.43499 27.7157 8.878 27.6591 8.297ZM29.173 3.286L29.5176 5.20299L28.2756 4.724C28.5174 4.208 28.8163 3.723 29.173 3.286ZM31.5269 1.43599L32.0577 2.63699L30.1635 2.29599C30.5795 1.95699 31.0386 1.67099 31.5269 1.43599ZM33.7901 0.786987L32.6824 2.394L32.138 1.17699C32.663 0.983987 33.2145 0.845987 33.7901 0.786987ZM36.7599 1.14L36.2933 2.36899L35.1828 0.784988C35.7308 0.838988 36.2571 0.963999 36.7599 1.14ZM38.8363 2.29599L36.9165 2.64L37.3957 1.39799C37.9132 1.63999 38.3984 1.93899 38.8363 2.29599ZM40.6869 4.64699L39.4844 5.17699L39.8261 3.286C40.1652 3.701 40.4512 4.15999 40.6869 4.64699ZM35.9161 12.221L34.4996 14.269L33.0838 12.237L34.5003 11.19L35.9161 12.221ZM33.0838 3.013L34.4996 0.964996L35.9161 2.998L34.4989 4.04399L33.0838 3.013ZM38.4393 5.99699L37.756 6.94499L37.2755 5.80699L38.4393 5.99699ZM37.2755 9.42699L37.7567 8.28699L38.454 9.237L37.2755 9.42699ZM32.5111 5.631L34.4996 4.808L36.488 5.631L37.3113 7.61699L36.488 9.603L34.4996 10.425L32.5111 9.603L31.6885 7.61699L32.5111 5.631ZM31.7091 5.821L31.2418 6.94499L30.5466 5.998L31.7091 5.821ZM31.2572 8.28999L31.7252 9.42699L30.5621 9.237L31.2572 8.28999ZM38.7689 5.355L37.0278 5.075L36.7628 3.35199L39.212 2.90999L38.7689 5.355ZM35.1734 4.37799L36.1365 3.683L36.313 4.847L35.1734 4.37799ZM32.6876 4.82999L32.878 3.66699L33.8265 4.36099L32.6876 4.82999ZM31.9713 5.09099L30.2303 5.35599L29.7879 2.90999L32.2371 3.35199L31.9713 5.09099ZM29.8905 6.202L30.9239 7.61699L29.8905 9.03099L27.8405 7.61699L29.8905 6.202ZM30.2303 9.87799L31.9713 10.159L32.2364 11.882L29.7879 12.324L30.2303 9.87799ZM33.8258 10.855L32.8634 11.55L32.6862 10.387L33.8258 10.855ZM36.3116 10.404L36.1219 11.566L35.1727 10.872L36.3116 10.404ZM37.0278 10.143L38.7689 9.877L39.212 12.324L36.7628 11.882L37.0278 10.143ZM39.1087 9.03099L38.076 7.61699L39.1087 6.202L41.1595 7.61699L39.1087 9.03099ZM28.0233 5.34099L29.2642 5.823L27.6593 6.94699C27.7143 6.38799 27.8424 5.85199 28.0233 5.34099ZM28.3066 10.59L29.5155 10.057L29.1708 11.961C28.8298 11.542 28.5428 11.081 28.3066 10.59ZM40.9817 9.89499L39.7348 9.40999L41.3413 8.286C41.2877 8.845 41.1617 9.38199 40.9817 9.89499ZM41.3399 6.93599L39.7276 5.81799L40.951 5.271C41.1445 5.8 41.2818 6.35599 41.3399 6.93599Z" fill="black" fill-opacity="0.2"/>
<path d="M34.4996 0C32.4075 0 30.5105 0.847995 29.1314 2.217L29.1264 2.21799V2.22099C27.7369 3.60299 26.875 5.515 26.875 7.625C26.875 11.829 30.2954 15.25 34.4995 15.25C38.7043 15.25 42.1246 11.829 42.1246 7.625C42.1247 3.42 38.7044 0 34.4996 0ZM39.8283 11.961L39.4822 10.031L40.7306 10.512C40.4882 11.033 40.1876 11.521 39.8283 11.961ZM37.4788 13.811L36.9422 12.596L38.8526 12.941C38.4341 13.284 37.971 13.573 37.4788 13.811ZM35.1972 14.464L36.3167 12.84L36.8673 14.071C36.3369 14.266 35.7795 14.406 35.1972 14.464ZM32.2341 14.108L32.7059 12.864L33.828 14.466C33.274 14.412 32.742 14.286 32.2341 14.108ZM30.1466 12.941L32.0833 12.594L31.5988 13.849C31.077 13.605 30.5874 13.302 30.1466 12.941ZM27.6591 8.297L29.2715 9.416L28.0436 9.96399C27.851 9.43499 27.7157 8.878 27.6591 8.297ZM29.173 3.286L29.5176 5.20299L28.2756 4.724C28.5174 4.208 28.8163 3.723 29.173 3.286ZM31.5269 1.43599L32.0577 2.63699L30.1635 2.29599C30.5795 1.95699 31.0386 1.67099 31.5269 1.43599ZM33.7901 0.786987L32.6824 2.394L32.138 1.17699C32.663 0.983987 33.2145 0.845987 33.7901 0.786987ZM36.7599 1.14L36.2933 2.36899L35.1828 0.784988C35.7308 0.838988 36.2571 0.963999 36.7599 1.14ZM38.8363 2.29599L36.9165 2.64L37.3957 1.39799C37.9132 1.63999 38.3984 1.93899 38.8363 2.29599ZM40.6869 4.64699L39.4844 5.17699L39.8261 3.286C40.1652 3.701 40.4512 4.15999 40.6869 4.64699ZM35.9161 12.221L34.4996 14.269L33.0838 12.237L34.5003 11.19L35.9161 12.221ZM33.0838 3.013L34.4996 0.964996L35.9161 2.998L34.4989 4.04399L33.0838 3.013ZM38.4393 5.99699L37.756 6.94499L37.2755 5.80699L38.4393 5.99699ZM37.2755 9.42699L37.7567 8.28699L38.454 9.237L37.2755 9.42699ZM32.5111 5.631L34.4996 4.808L36.488 5.631L37.3113 7.61699L36.488 9.603L34.4996 10.425L32.5111 9.603L31.6885 7.61699L32.5111 5.631ZM31.7091 5.821L31.2418 6.94499L30.5466 5.998L31.7091 5.821ZM31.2572 8.28999L31.7252 9.42699L30.5621 9.237L31.2572 8.28999ZM38.7689 5.355L37.0278 5.075L36.7628 3.35199L39.212 2.90999L38.7689 5.355ZM35.1734 4.37799L36.1365 3.683L36.313 4.847L35.1734 4.37799ZM32.6876 4.82999L32.878 3.66699L33.8265 4.36099L32.6876 4.82999ZM31.9713 5.09099L30.2303 5.35599L29.7879 2.90999L32.2371 3.35199L31.9713 5.09099ZM29.8905 6.202L30.9239 7.61699L29.8905 9.03099L27.8405 7.61699L29.8905 6.202ZM30.2303 9.87799L31.9713 10.159L32.2364 11.882L29.7879 12.324L30.2303 9.87799ZM33.8258 10.855L32.8634 11.55L32.6862 10.387L33.8258 10.855ZM36.3116 10.404L36.1219 11.566L35.1727 10.872L36.3116 10.404ZM37.0278 10.143L38.7689 9.877L39.212 12.324L36.7628 11.882L37.0278 10.143ZM39.1087 9.03099L38.076 7.61699L39.1087 6.202L41.1595 7.61699L39.1087 9.03099ZM28.0233 5.34099L29.2642 5.823L27.6593 6.94699C27.7143 6.38799 27.8424 5.85199 28.0233 5.34099ZM28.3066 10.59L29.5155 10.057L29.1708 11.961C28.8298 11.542 28.5428 11.081 28.3066 10.59ZM40.9817 9.89499L39.7348 9.40999L41.3413 8.286C41.2877 8.845 41.1617 9.38199 40.9817 9.89499ZM41.3399 6.93599L39.7276 5.81799L40.951 5.271C41.1445 5.8 41.2818 6.35599 41.3399 6.93599Z" fill="black" fill-opacity="0.2"/>
<path d="M34.4996 0C32.4075 0 30.5105 0.847995 29.1314 2.217L29.1264 2.21799V2.22099C27.7369 3.60299 26.875 5.515 26.875 7.625C26.875 11.829 30.2954 15.25 34.4995 15.25C38.7043 15.25 42.1246 11.829 42.1246 7.625C42.1247 3.42 38.7044 0 34.4996 0ZM39.8283 11.961L39.4822 10.031L40.7306 10.512C40.4882 11.033 40.1876 11.521 39.8283 11.961ZM37.4788 13.811L36.9422 12.596L38.8526 12.941C38.4341 13.284 37.971 13.573 37.4788 13.811ZM35.1972 14.464L36.3167 12.84L36.8673 14.071C36.3369 14.266 35.7795 14.406 35.1972 14.464ZM32.2341 14.108L32.7059 12.864L33.828 14.466C33.274 14.412 32.742 14.286 32.2341 14.108ZM30.1466 12.941L32.0833 12.594L31.5988 13.849C31.077 13.605 30.5874 13.302 30.1466 12.941ZM27.6591 8.297L29.2715 9.416L28.0436 9.96399C27.851 9.43499 27.7157 8.878 27.6591 8.297ZM29.173 3.286L29.5176 5.20299L28.2756 4.724C28.5174 4.208 28.8163 3.723 29.173 3.286ZM31.5269 1.43599L32.0577 2.63699L30.1635 2.29599C30.5795 1.95699 31.0386 1.67099 31.5269 1.43599ZM33.7901 0.786987L32.6824 2.394L32.138 1.17699C32.663 0.983987 33.2145 0.845987 33.7901 0.786987ZM36.7599 1.14L36.2933 2.36899L35.1828 0.784988C35.7308 0.838988 36.2571 0.963999 36.7599 1.14ZM38.8363 2.29599L36.9165 2.64L37.3957 1.39799C37.9132 1.63999 38.3984 1.93899 38.8363 2.29599ZM40.6869 4.64699L39.4844 5.17699L39.8261 3.286C40.1652 3.701 40.4512 4.15999 40.6869 4.64699ZM35.9161 12.221L34.4996 14.269L33.0838 12.237L34.5003 11.19L35.9161 12.221ZM33.0838 3.013L34.4996 0.964996L35.9161 2.998L34.4989 4.04399L33.0838 3.013ZM38.4393 5.99699L37.756 6.94499L37.2755 5.80699L38.4393 5.99699ZM37.2755 9.42699L37.7567 8.28699L38.454 9.237L37.2755 9.42699ZM32.5111 5.631L34.4996 4.808L36.488 5.631L37.3113 7.61699L36.488 9.603L34.4996 10.425L32.5111 9.603L31.6885 7.61699L32.5111 5.631ZM31.7091 5.821L31.2418 6.94499L30.5466 5.998L31.7091 5.821ZM31.2572 8.28999L31.7252 9.42699L30.5621 9.237L31.2572 8.28999ZM38.7689 5.355L37.0278 5.075L36.7628 3.35199L39.212 2.90999L38.7689 5.355ZM35.1734 4.37799L36.1365 3.683L36.313 4.847L35.1734 4.37799ZM32.6876 4.82999L32.878 3.66699L33.8265 4.36099L32.6876 4.82999ZM31.9713 5.09099L30.2303 5.35599L29.7879 2.90999L32.2371 3.35199L31.9713 5.09099ZM29.8905 6.202L30.9239 7.61699L29.8905 9.03099L27.8405 7.61699L29.8905 6.202ZM30.2303 9.87799L31.9713 10.159L32.2364 11.882L29.7879 12.324L30.2303 9.87799ZM33.8258 10.855L32.8634 11.55L32.6862 10.387L33.8258 10.855ZM36.3116 10.404L36.1219 11.566L35.1727 10.872L36.3116 10.404ZM37.0278 10.143L38.7689 9.877L39.212 12.324L36.7628 11.882L37.0278 10.143ZM39.1087 9.03099L38.076 7.61699L39.1087 6.202L41.1595 7.61699L39.1087 9.03099ZM28.0233 5.34099L29.2642 5.823L27.6593 6.94699C27.7143 6.38799 27.8424 5.85199 28.0233 5.34099ZM28.3066 10.59L29.5155 10.057L29.1708 11.961C28.8298 11.542 28.5428 11.081 28.3066 10.59ZM40.9817 9.89499L39.7348 9.40999L41.3413 8.286C41.2877 8.845 41.1617 9.38199 40.9817 9.89499ZM41.3399 6.93599L39.7276 5.81799L40.951 5.271C41.1445 5.8 41.2818 6.35599 41.3399 6.93599Z" fill="black" fill-opacity="0.2"/>
<path d="M34.4996 0C32.4075 0 30.5105 0.847995 29.1314 2.217L29.1264 2.21799V2.22099C27.7369 3.60299 26.875 5.515 26.875 7.625C26.875 11.829 30.2954 15.25 34.4995 15.25C38.7043 15.25 42.1246 11.829 42.1246 7.625C42.1247 3.42 38.7044 0 34.4996 0ZM39.8283 11.961L39.4822 10.031L40.7306 10.512C40.4882 11.033 40.1876 11.521 39.8283 11.961ZM37.4788 13.811L36.9422 12.596L38.8526 12.941C38.4341 13.284 37.971 13.573 37.4788 13.811ZM35.1972 14.464L36.3167 12.84L36.8673 14.071C36.3369 14.266 35.7795 14.406 35.1972 14.464ZM32.2341 14.108L32.7059 12.864L33.828 14.466C33.274 14.412 32.742 14.286 32.2341 14.108ZM30.1466 12.941L32.0833 12.594L31.5988 13.849C31.077 13.605 30.5874 13.302 30.1466 12.941ZM27.6591 8.297L29.2715 9.416L28.0436 9.96399C27.851 9.43499 27.7157 8.878 27.6591 8.297ZM29.173 3.286L29.5176 5.20299L28.2756 4.724C28.5174 4.208 28.8163 3.723 29.173 3.286ZM31.5269 1.43599L32.0577 2.63699L30.1635 2.29599C30.5795 1.95699 31.0386 1.67099 31.5269 1.43599ZM33.7901 0.786987L32.6824 2.394L32.138 1.17699C32.663 0.983987 33.2145 0.845987 33.7901 0.786987ZM36.7599 1.14L36.2933 2.36899L35.1828 0.784988C35.7308 0.838988 36.2571 0.963999 36.7599 1.14ZM38.8363 2.29599L36.9165 2.64L37.3957 1.39799C37.9132 1.63999 38.3984 1.93899 38.8363 2.29599ZM40.6869 4.64699L39.4844 5.17699L39.8261 3.286C40.1652 3.701 40.4512 4.15999 40.6869 4.64699ZM35.9161 12.221L34.4996 14.269L33.0838 12.237L34.5003 11.19L35.9161 12.221ZM33.0838 3.013L34.4996 0.964996L35.9161 2.998L34.4989 4.04399L33.0838 3.013ZM38.4393 5.99699L37.756 6.94499L37.2755 5.80699L38.4393 5.99699ZM37.2755 9.42699L37.7567 8.28699L38.454 9.237L37.2755 9.42699ZM32.5111 5.631L34.4996 4.808L36.488 5.631L37.3113 7.61699L36.488 9.603L34.4996 10.425L32.5111 9.603L31.6885 7.61699L32.5111 5.631ZM31.7091 5.821L31.2418 6.94499L30.5466 5.998L31.7091 5.821ZM31.2572 8.28999L31.7252 9.42699L30.5621 9.237L31.2572 8.28999ZM38.7689 5.355L37.0278 5.075L36.7628 3.35199L39.212 2.90999L38.7689 5.355ZM35.1734 4.37799L36.1365 3.683L36.313 4.847L35.1734 4.37799ZM32.6876 4.82999L32.878 3.66699L33.8265 4.36099L32.6876 4.82999ZM31.9713 5.09099L30.2303 5.35599L29.7879 2.90999L32.2371 3.35199L31.9713 5.09099ZM29.8905 6.202L30.9239 7.61699L29.8905 9.03099L27.8405 7.61699L29.8905 6.202ZM30.2303 9.87799L31.9713 10.159L32.2364 11.882L29.7879 12.324L30.2303 9.87799ZM33.8258 10.855L32.8634 11.55L32.6862 10.387L33.8258 10.855ZM36.3116 10.404L36.1219 11.566L35.1727 10.872L36.3116 10.404ZM37.0278 10.143L38.7689 9.877L39.212 12.324L36.7628 11.882L37.0278 10.143ZM39.1087 9.03099L38.076 7.61699L39.1087 6.202L41.1595 7.61699L39.1087 9.03099ZM28.0233 5.34099L29.2642 5.823L27.6593 6.94699C27.7143 6.38799 27.8424 5.85199 28.0233 5.34099ZM28.3066 10.59L29.5155 10.057L29.1708 11.961C28.8298 11.542 28.5428 11.081 28.3066 10.59ZM40.9817 9.89499L39.7348 9.40999L41.3413 8.286C41.2877 8.845 41.1617 9.38199 40.9817 9.89499ZM41.3399 6.93599L39.7276 5.81799L40.951 5.271C41.1445 5.8 41.2818 6.35599 41.3399 6.93599Z" fill="black" fill-opacity="0.2"/>
<path d="M34.4996 0C32.4075 0 30.5105 0.847995 29.1314 2.217L29.1264 2.21799V2.22099C27.7369 3.60299 26.875 5.515 26.875 7.625C26.875 11.829 30.2954 15.25 34.4995 15.25C38.7043 15.25 42.1246 11.829 42.1246 7.625C42.1247 3.42 38.7044 0 34.4996 0ZM39.8283 11.961L39.4822 10.031L40.7306 10.512C40.4882 11.033 40.1876 11.521 39.8283 11.961ZM37.4788 13.811L36.9422 12.596L38.8526 12.941C38.4341 13.284 37.971 13.573 37.4788 13.811ZM35.1972 14.464L36.3167 12.84L36.8673 14.071C36.3369 14.266 35.7795 14.406 35.1972 14.464ZM32.2341 14.108L32.7059 12.864L33.828 14.466C33.274 14.412 32.742 14.286 32.2341 14.108ZM30.1466 12.941L32.0833 12.594L31.5988 13.849C31.077 13.605 30.5874 13.302 30.1466 12.941ZM27.6591 8.297L29.2715 9.416L28.0436 9.96399C27.851 9.43499 27.7157 8.878 27.6591 8.297ZM29.173 3.286L29.5176 5.20299L28.2756 4.724C28.5174 4.208 28.8163 3.723 29.173 3.286ZM31.5269 1.43599L32.0577 2.63699L30.1635 2.29599C30.5795 1.95699 31.0386 1.67099 31.5269 1.43599ZM33.7901 0.786987L32.6824 2.394L32.138 1.17699C32.663 0.983987 33.2145 0.845987 33.7901 0.786987ZM36.7599 1.14L36.2933 2.36899L35.1828 0.784988C35.7308 0.838988 36.2571 0.963999 36.7599 1.14ZM38.8363 2.29599L36.9165 2.64L37.3957 1.39799C37.9132 1.63999 38.3984 1.93899 38.8363 2.29599ZM40.6869 4.64699L39.4844 5.17699L39.8261 3.286C40.1652 3.701 40.4512 4.15999 40.6869 4.64699ZM35.9161 12.221L34.4996 14.269L33.0838 12.237L34.5003 11.19L35.9161 12.221ZM33.0838 3.013L34.4996 0.964996L35.9161 2.998L34.4989 4.04399L33.0838 3.013ZM38.4393 5.99699L37.756 6.94499L37.2755 5.80699L38.4393 5.99699ZM37.2755 9.42699L37.7567 8.28699L38.454 9.237L37.2755 9.42699ZM32.5111 5.631L34.4996 4.808L36.488 5.631L37.3113 7.61699L36.488 9.603L34.4996 10.425L32.5111 9.603L31.6885 7.61699L32.5111 5.631ZM31.7091 5.821L31.2418 6.94499L30.5466 5.998L31.7091 5.821ZM31.2572 8.28999L31.7252 9.42699L30.5621 9.237L31.2572 8.28999ZM38.7689 5.355L37.0278 5.075L36.7628 3.35199L39.212 2.90999L38.7689 5.355ZM35.1734 4.37799L36.1365 3.683L36.313 4.847L35.1734 4.37799ZM32.6876 4.82999L32.878 3.66699L33.8265 4.36099L32.6876 4.82999ZM31.9713 5.09099L30.2303 5.35599L29.7879 2.90999L32.2371 3.35199L31.9713 5.09099ZM29.8905 6.202L30.9239 7.61699L29.8905 9.03099L27.8405 7.61699L29.8905 6.202ZM30.2303 9.87799L31.9713 10.159L32.2364 11.882L29.7879 12.324L30.2303 9.87799ZM33.8258 10.855L32.8634 11.55L32.6862 10.387L33.8258 10.855ZM36.3116 10.404L36.1219 11.566L35.1727 10.872L36.3116 10.404ZM37.0278 10.143L38.7689 9.877L39.212 12.324L36.7628 11.882L37.0278 10.143ZM39.1087 9.03099L38.076 7.61699L39.1087 6.202L41.1595 7.61699L39.1087 9.03099ZM28.0233 5.34099L29.2642 5.823L27.6593 6.94699C27.7143 6.38799 27.8424 5.85199 28.0233 5.34099ZM28.3066 10.59L29.5155 10.057L29.1708 11.961C28.8298 11.542 28.5428 11.081 28.3066 10.59ZM40.9817 9.89499L39.7348 9.40999L41.3413 8.286C41.2877 8.845 41.1617 9.38199 40.9817 9.89499ZM41.3399 6.93599L39.7276 5.81799L40.951 5.271C41.1445 5.8 41.2818 6.35599 41.3399 6.93599Z" fill="black" fill-opacity="0.2"/>
</g>
</g>
</svg>
