<svg width="100" height="100" viewBox="0 0 100 100" fill="none" xmlns="http://www.w3.org/2000/svg">
<path fill-rule="evenodd" clip-rule="evenodd" d="M36.5 60.3821C36.5 67.7609 42.5026 73.7641 49.8807 73.7641C57.2589 73.7641 63.2621 67.7609 63.2628 60.3821C63.2628 53.0032 57.2589 47 49.8807 47C42.5026 47 36.5 53.0039 36.5 60.3821ZM52.9653 56.1563L58.0065 56.8887C58.3549 56.9396 58.6441 57.1836 58.7558 57.5191C58.8641 57.8533 58.7738 58.2211 58.5215 58.4669L54.8728 62.022L55.7348 67.0444C55.7941 67.3909 55.6516 67.7413 55.367 67.9484C55.2063 68.0658 55.0147 68.1252 54.8231 68.1252C54.6759 68.1252 54.5282 68.0904 54.3933 68.0187L49.8832 65.6481L45.375 68.0187C45.064 68.1833 44.6865 68.1562 44.4 67.9484C44.1155 67.7419 43.9729 67.3916 44.0322 67.0444L44.893 62.0227L41.2442 58.4663C40.9919 58.2204 40.9016 57.8526 41.01 57.5184C41.1196 57.1829 41.4087 56.939 41.7571 56.8887L46.7984 56.1563L47.9255 53.8719L49.0527 51.5875C49.363 50.9552 50.3999 50.9552 50.7109 51.5875L52.9653 56.1563Z" fill="#CCD0D4"/>
<path d="M13.9253 14.6587H85.8791L85.8789 14.6598H86.0747C86.4975 14.6598 86.8391 15.002 86.8391 15.4242V78.9913C86.8391 79.414 86.497 79.7557 86.0747 79.7557H58.4553H58.2945V79.9166V87.6353C58.2945 87.8957 58.162 88.1383 57.9423 88.2798C57.8176 88.3592 57.6742 88.3997 57.5301 88.3997C57.4212 88.3997 57.3127 88.3768 57.2106 88.3295L57.2104 88.3293L49.5973 84.8155L49.5299 84.7844L49.4625 84.8155L41.8485 88.3292C41.8484 88.3292 41.8482 88.3293 41.8481 88.3293C41.6106 88.4381 41.3359 88.4193 41.1164 88.2793C40.8967 88.1385 40.764 87.896 40.764 87.6353V79.917V79.7562H40.6031H13.9253C13.5025 79.7562 13.1609 79.414 13.1609 78.9918V15.4231C13.1609 15.0003 13.503 14.6587 13.9253 14.6587Z" stroke="white" stroke-width="0.321739"/>
<path d="M57.9967 56.8774L57.9969 56.8775C58.3453 56.9284 58.6344 57.1723 58.746 57.5078M57.9967 56.8774L52.9555 56.1451L50.7012 51.5763C50.3902 50.944 49.3533 50.944 49.0429 51.5763L46.7886 56.1451L41.7474 56.8774C41.3989 56.9278 41.1099 57.1717 41.0002 57.5072M57.9967 56.8774L57.9725 57.0365L52.9324 56.3043L52.8487 56.2921L52.8113 56.2163L50.5569 51.6475L50.5568 51.6473C50.4347 51.3991 50.1633 51.2629 49.8718 51.2629C49.5803 51.2629 49.3091 51.3991 49.1874 51.6472L49.1872 51.6475L46.9329 56.2163L46.8954 56.2921L46.8117 56.3043L41.7705 57.0366L41.7704 57.0367C41.4829 57.0782 41.244 57.2794 41.1532 57.557M57.9967 56.8774L57.9939 56.8969L57.9777 57.0083L57.9736 57.0366L57.9736 57.0366C58.2611 57.0787 58.5004 57.2799 58.5931 57.558M41.0002 57.5072C40.8918 57.8414 40.9821 58.2092 41.2344 58.455L44.8832 62.0115L44.0225 67.0332M41.0002 57.5072L41.1531 57.5572C41.1531 57.5571 41.1531 57.5571 41.1532 57.557M41.0002 57.5072L41.1532 57.5568C41.1532 57.5569 41.1532 57.5569 41.1532 57.557M44.0225 67.0332C43.9631 67.3803 44.1057 67.7307 44.3903 67.9372M44.0225 67.0332L44.181 67.0603M44.0225 67.0332L44.181 67.0604L44.181 67.0603M44.3903 67.9372C44.6767 68.1449 45.0542 68.172 45.3652 68.0075L49.8734 65.6369L54.3836 68.0075C54.5184 68.0791 54.6662 68.114 54.8133 68.114C55.0049 68.114 55.1966 68.0546 55.3572 67.9372C55.6418 67.7301 55.7844 67.3797 55.725 67.0332M44.3903 67.9372L44.4847 67.807C44.4847 67.807 44.4847 67.807 44.4847 67.807M44.3903 67.9372L44.4847 67.807M55.725 67.0332L54.863 62.0108L58.5118 58.4557C58.764 58.2099 58.8544 57.8421 58.746 57.5078M55.725 67.0332L55.5665 67.0604M55.725 67.0332L55.5665 67.0604L55.5665 67.0604M58.746 57.5078L58.593 57.5575C58.593 57.5576 58.5931 57.5578 58.5931 57.558M58.746 57.5078L58.5933 57.5586C58.5933 57.5584 58.5932 57.5582 58.5931 57.558M58.5931 57.558C58.6824 57.834 58.6077 58.1376 58.3995 58.3405L54.7507 61.8956L54.6901 61.9546L54.7044 62.038L55.5665 67.0604M55.5665 67.0604C55.6155 67.3465 55.4977 67.6359 55.2626 67.8071L55.2623 67.8073C55.1301 67.9039 54.9719 67.9531 54.8133 67.9531C54.6916 67.9531 54.5698 67.9243 54.459 67.8654L54.4584 67.8651L49.9482 65.4945L49.8734 65.4551L49.7985 65.4945L45.2903 67.8651L45.29 67.8653C45.0335 68.001 44.7218 67.9789 44.4847 67.807M44.4847 67.807C44.2498 67.6365 44.132 67.3472 44.181 67.0603M44.181 67.0603L45.0418 62.0386L45.056 61.9553L44.9955 61.8963L41.3467 58.3398L41.3467 58.3398C41.1384 58.1368 41.0637 57.8331 41.1532 57.557M47.5346 57.9052L44.0677 58.4091L43.9794 58.323L43.8671 58.4382L43.8903 58.5974L44.0122 58.5797L46.5209 61.0256C46.739 61.2378 46.8383 61.5437 46.7867 61.8437L46.195 65.2979L46.086 65.3552L46.1608 65.4976L46.3194 65.5248L46.3402 65.4033L49.4404 63.773M47.5346 57.9052L53.2214 61.0256C53.004 61.2378 52.9046 61.5443 52.9556 61.8437L53.5485 65.2978L53.6576 65.3552L53.5828 65.4976L53.4242 65.5248L53.4034 65.4033L50.3012 63.773C50.1663 63.7014 50.0192 63.6665 49.8715 63.6665C49.7231 63.6665 49.5759 63.702 49.4404 63.773M47.5346 57.9052C47.8365 57.862 48.0966 57.6723 48.2308 57.3994L47.5346 57.9052ZM49.4404 63.773L49.5151 63.9155M49.4404 63.773L49.5153 63.9154L49.5151 63.9155M49.5151 63.9155L46.2357 65.64L45.9472 65.7917L46.0023 65.4704L46.6282 61.8165L46.6282 61.8164C46.6708 61.5686 46.5887 61.3161 46.4087 61.1408L46.4086 61.1407L43.7548 58.5534L43.5215 58.3259L43.844 58.279L47.5114 57.7461L47.5118 57.746C47.7609 57.7103 47.9756 57.5538 48.0864 57.3284L48.0865 57.3282L49.7267 54.004L49.8709 53.7116L50.0152 54.004L51.6553 57.3281M49.5151 63.9155C49.6275 63.8566 49.7489 63.8274 49.8715 63.8274C49.9938 63.8274 50.1149 63.8562 50.2257 63.9151L50.2263 63.9154L53.5079 65.64L53.7965 65.7916L53.7413 65.4704L53.1142 61.8167C53.1142 61.8166 53.1142 61.8166 53.1142 61.8165C53.0721 61.5692 53.1543 61.3159 53.3338 61.1407L55.987 58.5534L56.2204 58.3259L55.8979 58.279L52.2304 57.7461L52.2301 57.746C51.9817 57.7104 51.7669 57.5539 51.6553 57.3281M51.6553 57.3281L51.5111 57.3994L51.6554 57.3282L51.6553 57.3281Z" fill="black" stroke="white" stroke-width="0.321739"/>
<path d="M69.1277 27.2305H30.476C30.0533 27.2305 29.7117 26.8884 29.7117 26.4662C29.7117 26.0434 30.0538 25.7018 30.476 25.7018H69.1277C69.5504 25.7018 69.8921 26.0439 69.8921 26.4662C69.8921 26.8889 69.5499 27.2305 69.1277 27.2305Z" fill="black" stroke="white" stroke-width="0.321739"/>
<path d="M30.476 35.501H30.476L69.1277 35.5003C69.5504 35.5003 69.8921 35.8425 69.8921 36.2647C69.8921 36.6875 69.5499 37.0291 69.1277 37.0291H30.476C30.0531 37.0291 29.7117 36.6875 29.7117 36.2654C29.7117 35.8426 30.0538 35.501 30.476 35.501Z" fill="black" stroke="white" stroke-width="0.321739"/>
<path d="M13.9253 14.6587H85.8791L85.8789 14.6598H86.0747C86.4975 14.6598 86.8391 15.002 86.8391 15.4242V78.9913C86.8391 79.414 86.497 79.7557 86.0747 79.7557H58.4553H58.2945V79.9166V87.6353C58.2945 87.8957 58.162 88.1382 57.9423 88.2798C57.8176 88.3592 57.6742 88.3997 57.5301 88.3997C57.4212 88.3997 57.3127 88.3768 57.2106 88.3295L57.2104 88.3293L49.5973 84.8155L49.5299 84.7844L49.4625 84.8155L41.8485 88.3292C41.8484 88.3292 41.8482 88.3293 41.8481 88.3293C41.6106 88.4381 41.3359 88.4193 41.1164 88.2793C40.8967 88.1385 40.764 87.896 40.764 87.6353V79.917V79.7562H40.6031H13.9253C13.5025 79.7562 13.1609 79.414 13.1609 78.9918V15.4231C13.1609 15.0003 13.503 14.6587 13.9253 14.6587ZM48.6718 83.4966L48.7652 83.4535V83.3506V75.5388V75.3907L48.6176 75.3785C46.4221 75.1966 44.3602 74.5467 42.5315 73.5216L42.2919 73.3873V73.6619V86.1896V86.4411L42.5202 86.3357L48.6718 83.4966ZM56.5378 86.3357L56.7661 86.4411V86.1896V74.013V73.7538L56.5338 73.8689C54.6853 74.7849 52.6273 75.3294 50.4482 75.4124L50.2935 75.4183V75.5732V83.3501V83.453L50.3869 83.4961L56.5378 86.3357ZM85.1496 78.2271H85.3105V78.0662L85.3107 16.3491L85.3107 16.1882H85.1498H14.8501H14.6893V16.3491V78.0662V78.2271H14.8501H40.603H40.7639V78.0662V72.6772C40.7639 72.6431 40.771 72.6178 40.7829 72.5749C40.7884 72.5551 40.795 72.5316 40.8024 72.5017L40.8278 72.3993L40.744 72.3353C37.1399 69.5786 34.8014 65.2483 34.8014 60.3715C34.8014 52.0614 41.5617 45.3005 49.8711 45.3005C58.1812 45.3005 64.9421 52.0614 64.9421 60.3715C64.9421 65.5319 62.332 70.0921 58.3643 72.8103L58.2944 72.8582V72.943V78.0662V78.2271H58.4552H85.1496ZM36.3293 60.3708C36.3293 67.8385 42.4039 73.9138 49.8709 73.9138C57.338 73.9138 63.4132 67.8385 63.4139 60.3709C63.4139 52.9032 57.338 46.8279 49.8709 46.8279C42.4039 46.8279 36.3293 52.9039 36.3293 60.3708Z" fill="black" stroke="white" stroke-width="0.321739"/>
</svg>
