<svg width="22" height="23" viewBox="0 0 22 23" fill="none" xmlns="http://www.w3.org/2000/svg">
<path d="M11.7889 20.836C12.5913 21.3518 13.5463 21.5778 14.4952 21.4766C15.4441 21.3754 16.3297 20.9531 17.0048 20.2798L17.5929 19.6927C17.8538 19.4295 18.0001 19.0742 18.0001 18.7039C18.0001 18.3336 17.8538 17.9783 17.5929 17.7151L15.1166 15.2585C14.8555 14.999 14.5021 14.8533 14.1337 14.8533C13.7654 14.8533 13.412 14.999 13.1509 15.2585C12.8872 15.5189 12.5313 15.6649 12.1604 15.6649C11.7894 15.6649 11.4335 15.5189 11.1698 15.2585L7.22308 11.3186C6.96221 11.0554 6.81589 10.7001 6.81589 10.3298C6.81589 9.95952 6.96221 9.60419 7.22308 9.34097C7.48299 9.08037 7.62891 8.72761 7.62891 8.35987C7.62891 7.99214 7.48299 7.63937 7.22308 7.37877L4.83956 4.90672C4.57587 4.64631 4.21992 4.50024 3.849 4.50024C3.47808 4.50024 3.12214 4.64631 2.85845 4.90672L2.27031 5.49383C1.58374 6.15825 1.1462 7.03763 1.03072 7.9852C0.915232 8.93278 1.12878 9.89123 1.63573 10.7006C4.33458 14.7004 7.78215 18.1419 11.7889 20.836Z" stroke="#333335" stroke-width="1.5" stroke-linecap="round" stroke-linejoin="round"/>
<path d="M11.002 1.50024C12.3152 1.50024 13.6156 1.7589 14.8288 2.26145C16.0421 2.76401 17.1445 3.50061 18.0731 4.4292C19.0017 5.35779 19.7383 6.46019 20.2408 7.67346C20.7434 8.88672 21.002 10.1871 21.002 11.5003" stroke="#333335" stroke-width="1.5" stroke-linecap="round" stroke-linejoin="round"/>
<path d="M11.0021 5.50024C12.5934 5.50024 14.1195 6.13238 15.2447 7.2576C16.3699 8.38282 17.0021 9.90895 17.0021 11.5002" stroke="#333335" stroke-width="1.5" stroke-linecap="round" stroke-linejoin="round"/>
</svg>
