<svg width="50" height="34" viewBox="0 0 50 34" fill="none" xmlns="http://www.w3.org/2000/svg">
<g id="Clip path group">
<mask id="mask0_7306_31419" style="mask-type:luminance" maskUnits="userSpaceOnUse" x="0" y="0" width="50" height="34">
<g id="clip7_631_680">
<path id="Vector" d="M50 0H0V34H50V0Z" fill="white"/>
</g>
</mask>
<g mask="url(#mask0_7306_31419)">
<g id="Group">
<g id="Vector_2">
<path d="M40.0619 11.7H39.2839H30.2829H29.5059H20.5039H19.7269H10.7259H9.94893H0.169922V22.256H9.94893H10.7259H19.7269H20.5039H29.5059H30.2829H39.2839H40.0619H49.8399V11.7H40.0619ZM8.07993 17.816L8.50992 18.717L7.91693 18.812L8.07993 17.816ZM7.91693 15.165L8.50893 15.26L8.07993 16.152L7.91693 15.165ZM8.23492 16.978L8.62892 16.165V17.799L8.23492 16.978ZM7.82193 14.638L7.67493 13.751L9.67493 12.834L8.73093 14.783L7.82193 14.638ZM7.69592 17.025L7.38393 18.884L5.47493 19.19L5.44392 19.174L5.41292 19.19L3.51192 18.884L3.19992 17.007L3.20792 16.957L3.20093 16.943L3.51192 15.072L5.41292 14.767L5.44693 14.784L5.48293 14.767L7.39493 15.072L7.70592 16.933L7.67693 16.99L7.69592 17.025ZM7.29993 19.41L7.20293 19.989L6.29492 19.569L7.29993 19.41ZM6.27092 20.094H4.62492L5.44792 19.711L6.27092 20.094ZM4.60092 19.57L3.69193 19.99L3.58893 19.41L4.60092 19.57ZM3.59692 14.556L3.69392 13.978L4.60092 14.398L3.59692 14.556ZM4.62593 13.862H6.27792L5.44792 14.244L4.62593 13.862ZM6.29492 14.398L7.20293 13.978L7.29993 14.556L6.29492 14.398ZM9.06792 12.568L7.34993 13.364H3.54692L1.82793 12.568H9.06792ZM3.20993 13.752L3.06493 14.649L2.15393 14.794L1.21892 12.833L3.20993 13.752ZM2.81592 17.804L2.97992 18.791L2.38692 18.697L2.81592 17.804ZM2.26793 17.792V16.172L2.66193 16.978L2.26793 17.792ZM2.81592 16.15L2.38593 15.249L2.97992 15.155L2.81592 16.15ZM0.947922 13.423L1.76292 15.115V18.841L0.947922 20.533V13.423ZM2.16492 19.183L3.07492 19.327L3.22092 20.215L1.22092 21.133L2.16492 19.183ZM1.82793 21.399L3.54692 20.603H7.34993L9.06792 21.399H1.82793ZM7.68593 20.206L7.83192 19.327L8.74193 19.183L9.67592 21.131L7.68593 20.206ZM9.94893 20.535L9.13292 18.852V15.115L9.94893 13.423V20.535ZM17.8579 17.816L18.2889 18.717L17.6959 18.812L17.8579 17.816ZM17.6959 15.165L18.2879 15.26L17.8579 16.152L17.6959 15.165ZM18.0129 16.978L18.4069 16.165V17.799L18.0129 16.978ZM17.5999 14.638L17.4539 13.751L19.4539 12.834L18.5099 14.783L17.5999 14.638ZM17.4739 17.025L17.1629 18.884L15.2539 19.19L15.2219 19.174L15.1909 19.19L13.2909 18.884L12.9789 17.007L12.9869 16.957L12.9799 16.943L13.2909 15.072L15.1909 14.767L15.2259 14.784L15.2619 14.767L17.1729 15.072L17.4849 16.933L17.4549 16.99L17.4739 17.025ZM17.0779 19.41L16.9809 19.989L16.0739 19.569L17.0779 19.41ZM16.0499 20.094H14.4039L15.2259 19.711L16.0499 20.094ZM14.3789 19.57L13.4709 19.99L13.3679 19.41L14.3789 19.57ZM13.3759 14.556L13.4719 13.978L14.3789 14.398L13.3759 14.556ZM14.4049 13.862H16.0559L15.2269 14.244L14.4049 13.862ZM16.0739 14.398L16.9809 13.978L17.0779 14.556L16.0739 14.398ZM18.8459 12.568L17.1289 13.364H13.3249L11.6069 12.568H18.8459ZM12.9889 13.752L12.8429 14.649L11.9329 14.794L10.9969 12.833L12.9889 13.752ZM12.5949 17.804L12.7579 18.791L12.1659 18.697L12.5949 17.804ZM12.0459 17.792V16.172L12.4399 16.978L12.0459 17.792ZM12.5949 16.15L12.1649 15.249L12.7579 15.155L12.5949 16.15ZM10.7269 13.423L11.5419 15.115V18.841L10.7269 20.533V13.423ZM11.9439 19.183L12.8539 19.327L12.9999 20.215L10.9999 21.133L11.9439 19.183ZM11.6069 21.399L13.3249 20.603H17.1289L18.8459 21.399H11.6069ZM17.4639 20.206L17.6109 19.327L18.5209 19.183L19.4539 21.131L17.4639 20.206ZM19.7269 20.535L18.9109 18.852V15.115L19.7269 13.423V20.535ZM27.6369 17.816L28.0669 18.717L27.4739 18.812L27.6369 17.816ZM27.4739 15.165L28.0669 15.26L27.6369 16.152L27.4739 15.165ZM27.7919 16.978L28.1859 16.165V17.799L27.7919 16.978ZM27.3789 14.638L27.2319 13.751L29.2329 12.834L28.2879 14.783L27.3789 14.638ZM27.2529 17.025L26.9419 18.884L25.0319 19.19L25.0009 19.174L24.9699 19.19L23.0689 18.884L22.7569 17.007L22.7649 16.957L22.7579 16.943L23.0689 15.072L24.9699 14.767L25.0039 14.784L25.0399 14.767L26.9519 15.072L27.2629 16.933L27.2339 16.99L27.2529 17.025ZM26.8569 19.41L26.7599 19.989L25.8519 19.569L26.8569 19.41ZM25.8279 20.094H24.1829L25.0049 19.711L25.8279 20.094ZM24.1579 19.57L23.2489 19.99L23.1459 19.41L24.1579 19.57ZM23.1539 14.556L23.2509 13.978L24.1579 14.398L23.1539 14.556ZM24.1829 13.862H25.8349L25.0049 14.244L24.1829 13.862ZM25.8529 14.398L26.7599 13.978L26.8569 14.556L25.8529 14.398ZM28.6249 12.568L26.9069 13.364H23.1039L21.3849 12.568H28.6249ZM22.7679 13.752L22.6219 14.649L21.7109 14.794L20.7759 12.833L22.7679 13.752ZM22.3739 17.804L22.5369 18.791L21.9439 18.697L22.3739 17.804ZM21.8249 17.792V16.172L22.2189 16.978L21.8249 17.792ZM22.3739 16.15L21.9439 15.249L22.5369 15.155L22.3739 16.15ZM20.5049 13.423L21.3199 15.115V18.841L20.5049 20.533V13.423ZM21.7219 19.183L22.6319 19.327L22.7789 20.215L20.7779 21.133L21.7219 19.183ZM21.3849 21.399L23.1039 20.603H26.9069L28.6249 21.399H21.3849ZM27.2429 20.206L27.3889 19.327L28.2999 19.183L29.2329 21.131L27.2429 20.206ZM29.5059 20.535L28.6899 18.852V15.115L29.5059 13.423V20.535ZM37.4149 17.816L37.8459 18.717L37.2529 18.812L37.4149 17.816ZM37.2529 15.165L37.8449 15.26L37.4149 16.152L37.2529 15.165ZM37.5709 16.978L37.9649 16.165V17.799L37.5709 16.978ZM37.1569 14.638L37.0109 13.751L39.0109 12.834L38.0669 14.783L37.1569 14.638ZM37.0309 17.025L36.7199 18.884L34.8109 19.19L34.7789 19.174L34.7479 19.19L32.8479 18.884L32.5359 17.007L32.5439 16.957L32.5369 16.943L32.8479 15.072L34.7489 14.767L34.7829 14.784L34.8189 14.767L36.7299 15.072L37.0419 16.933L37.0119 16.99L37.0309 17.025ZM36.6349 19.41L36.5389 19.989L35.6309 19.569L36.6349 19.41ZM35.6069 20.094H33.9609L34.7839 19.711L35.6069 20.094ZM33.9359 19.57L33.0279 19.99L32.9249 19.41L33.9359 19.57ZM32.9329 14.556L33.0299 13.978L33.9359 14.398L32.9329 14.556ZM33.9619 13.862H35.6129L34.7839 14.244L33.9619 13.862ZM35.6309 14.398L36.5389 13.978L36.6349 14.556L35.6309 14.398ZM38.4029 12.568L36.6859 13.364H32.8819L31.1639 12.568H38.4029ZM32.5459 13.752L32.3999 14.649L31.4899 14.794L30.5549 12.833L32.5459 13.752ZM32.1519 17.804L32.3149 18.791L31.7229 18.697L32.1519 17.804ZM31.6029 17.792V16.172L31.9969 16.978L31.6029 17.792ZM32.1519 16.15L31.7219 15.249L32.3149 15.155L32.1519 16.15ZM30.2839 13.423L31.0989 15.115V18.841L30.2839 20.533V13.423ZM31.5009 19.183L32.4109 19.327L32.5569 20.215L30.5569 21.133L31.5009 19.183ZM31.1639 21.399L32.8819 20.603H36.6859L38.4029 21.399H31.1639ZM37.0209 20.206L37.1679 19.327L38.0779 19.183L39.0109 21.131L37.0209 20.206ZM39.2839 20.535L38.4689 18.852V15.115L39.2839 13.423V20.535ZM47.1939 17.816L47.6249 18.717L47.0309 18.812L47.1939 17.816ZM47.0309 15.165L47.6239 15.26L47.1939 16.152L47.0309 15.165ZM47.3489 16.978L47.7429 16.165V17.799L47.3489 16.978ZM46.9359 14.638L46.7899 13.751L48.7899 12.834L47.8459 14.783L46.9359 14.638ZM46.8099 17.025L46.4989 18.884L44.5889 19.19L44.5579 19.174L44.5269 19.19L42.6259 18.884L42.3139 17.007L42.3229 16.957L42.3149 16.943L42.6269 15.072L44.5269 14.767L44.5619 14.784L44.5969 14.767L46.5089 15.072L46.8199 16.933L46.7909 16.99L46.8099 17.025ZM46.4139 19.41L46.3169 19.989L45.4099 19.569L46.4139 19.41ZM45.3849 20.094H43.7399L44.5619 19.711L45.3849 20.094ZM43.7149 19.57L42.8069 19.99L42.7029 19.41L43.7149 19.57ZM42.7109 14.556L42.8079 13.978L43.7149 14.398L42.7109 14.556ZM43.7399 13.862H45.3919L44.5619 14.244L43.7399 13.862ZM45.4099 14.398L46.3169 13.978L46.4139 14.556L45.4099 14.398ZM48.1819 12.568L46.4639 13.364H42.6609L40.9429 12.568H48.1819ZM42.3249 13.752L42.1789 14.649L41.2679 14.794L40.3329 12.833L42.3249 13.752ZM41.9309 17.804L42.0939 18.791L41.5009 18.697L41.9309 17.804ZM41.3819 17.792V16.172L41.7759 16.978L41.3819 17.792ZM41.9309 16.15L41.5009 15.249L42.0939 15.155L41.9309 16.15ZM40.0619 13.423L40.8769 15.115V18.841L40.0619 20.533V13.423ZM41.2799 19.183L42.1889 19.327L42.3359 20.215L40.3359 21.133L41.2799 19.183ZM40.9429 21.399L42.6609 20.603H46.4639L48.1819 21.399H40.9429ZM46.7999 20.206L46.9459 19.327L47.8569 19.183L48.7899 21.131L46.7999 20.206ZM49.0629 20.535L48.2469 18.852V15.115L49.0629 13.423V20.535Z" fill="#333335"/>
<path d="M40.0619 11.7H39.2839H30.2829H29.5059H20.5039H19.7269H10.7259H9.94893H0.169922V22.256H9.94893H10.7259H19.7269H20.5039H29.5059H30.2829H39.2839H40.0619H49.8399V11.7H40.0619ZM8.07993 17.816L8.50992 18.717L7.91693 18.812L8.07993 17.816ZM7.91693 15.165L8.50893 15.26L8.07993 16.152L7.91693 15.165ZM8.23492 16.978L8.62892 16.165V17.799L8.23492 16.978ZM7.82193 14.638L7.67493 13.751L9.67493 12.834L8.73093 14.783L7.82193 14.638ZM7.69592 17.025L7.38393 18.884L5.47493 19.19L5.44392 19.174L5.41292 19.19L3.51192 18.884L3.19992 17.007L3.20792 16.957L3.20093 16.943L3.51192 15.072L5.41292 14.767L5.44693 14.784L5.48293 14.767L7.39493 15.072L7.70592 16.933L7.67693 16.99L7.69592 17.025ZM7.29993 19.41L7.20293 19.989L6.29492 19.569L7.29993 19.41ZM6.27092 20.094H4.62492L5.44792 19.711L6.27092 20.094ZM4.60092 19.57L3.69193 19.99L3.58893 19.41L4.60092 19.57ZM3.59692 14.556L3.69392 13.978L4.60092 14.398L3.59692 14.556ZM4.62593 13.862H6.27792L5.44792 14.244L4.62593 13.862ZM6.29492 14.398L7.20293 13.978L7.29993 14.556L6.29492 14.398ZM9.06792 12.568L7.34993 13.364H3.54692L1.82793 12.568H9.06792ZM3.20993 13.752L3.06493 14.649L2.15393 14.794L1.21892 12.833L3.20993 13.752ZM2.81592 17.804L2.97992 18.791L2.38692 18.697L2.81592 17.804ZM2.26793 17.792V16.172L2.66193 16.978L2.26793 17.792ZM2.81592 16.15L2.38593 15.249L2.97992 15.155L2.81592 16.15ZM0.947922 13.423L1.76292 15.115V18.841L0.947922 20.533V13.423ZM2.16492 19.183L3.07492 19.327L3.22092 20.215L1.22092 21.133L2.16492 19.183ZM1.82793 21.399L3.54692 20.603H7.34993L9.06792 21.399H1.82793ZM7.68593 20.206L7.83192 19.327L8.74193 19.183L9.67592 21.131L7.68593 20.206ZM9.94893 20.535L9.13292 18.852V15.115L9.94893 13.423V20.535ZM17.8579 17.816L18.2889 18.717L17.6959 18.812L17.8579 17.816ZM17.6959 15.165L18.2879 15.26L17.8579 16.152L17.6959 15.165ZM18.0129 16.978L18.4069 16.165V17.799L18.0129 16.978ZM17.5999 14.638L17.4539 13.751L19.4539 12.834L18.5099 14.783L17.5999 14.638ZM17.4739 17.025L17.1629 18.884L15.2539 19.19L15.2219 19.174L15.1909 19.19L13.2909 18.884L12.9789 17.007L12.9869 16.957L12.9799 16.943L13.2909 15.072L15.1909 14.767L15.2259 14.784L15.2619 14.767L17.1729 15.072L17.4849 16.933L17.4549 16.99L17.4739 17.025ZM17.0779 19.41L16.9809 19.989L16.0739 19.569L17.0779 19.41ZM16.0499 20.094H14.4039L15.2259 19.711L16.0499 20.094ZM14.3789 19.57L13.4709 19.99L13.3679 19.41L14.3789 19.57ZM13.3759 14.556L13.4719 13.978L14.3789 14.398L13.3759 14.556ZM14.4049 13.862H16.0559L15.2269 14.244L14.4049 13.862ZM16.0739 14.398L16.9809 13.978L17.0779 14.556L16.0739 14.398ZM18.8459 12.568L17.1289 13.364H13.3249L11.6069 12.568H18.8459ZM12.9889 13.752L12.8429 14.649L11.9329 14.794L10.9969 12.833L12.9889 13.752ZM12.5949 17.804L12.7579 18.791L12.1659 18.697L12.5949 17.804ZM12.0459 17.792V16.172L12.4399 16.978L12.0459 17.792ZM12.5949 16.15L12.1649 15.249L12.7579 15.155L12.5949 16.15ZM10.7269 13.423L11.5419 15.115V18.841L10.7269 20.533V13.423ZM11.9439 19.183L12.8539 19.327L12.9999 20.215L10.9999 21.133L11.9439 19.183ZM11.6069 21.399L13.3249 20.603H17.1289L18.8459 21.399H11.6069ZM17.4639 20.206L17.6109 19.327L18.5209 19.183L19.4539 21.131L17.4639 20.206ZM19.7269 20.535L18.9109 18.852V15.115L19.7269 13.423V20.535ZM27.6369 17.816L28.0669 18.717L27.4739 18.812L27.6369 17.816ZM27.4739 15.165L28.0669 15.26L27.6369 16.152L27.4739 15.165ZM27.7919 16.978L28.1859 16.165V17.799L27.7919 16.978ZM27.3789 14.638L27.2319 13.751L29.2329 12.834L28.2879 14.783L27.3789 14.638ZM27.2529 17.025L26.9419 18.884L25.0319 19.19L25.0009 19.174L24.9699 19.19L23.0689 18.884L22.7569 17.007L22.7649 16.957L22.7579 16.943L23.0689 15.072L24.9699 14.767L25.0039 14.784L25.0399 14.767L26.9519 15.072L27.2629 16.933L27.2339 16.99L27.2529 17.025ZM26.8569 19.41L26.7599 19.989L25.8519 19.569L26.8569 19.41ZM25.8279 20.094H24.1829L25.0049 19.711L25.8279 20.094ZM24.1579 19.57L23.2489 19.99L23.1459 19.41L24.1579 19.57ZM23.1539 14.556L23.2509 13.978L24.1579 14.398L23.1539 14.556ZM24.1829 13.862H25.8349L25.0049 14.244L24.1829 13.862ZM25.8529 14.398L26.7599 13.978L26.8569 14.556L25.8529 14.398ZM28.6249 12.568L26.9069 13.364H23.1039L21.3849 12.568H28.6249ZM22.7679 13.752L22.6219 14.649L21.7109 14.794L20.7759 12.833L22.7679 13.752ZM22.3739 17.804L22.5369 18.791L21.9439 18.697L22.3739 17.804ZM21.8249 17.792V16.172L22.2189 16.978L21.8249 17.792ZM22.3739 16.15L21.9439 15.249L22.5369 15.155L22.3739 16.15ZM20.5049 13.423L21.3199 15.115V18.841L20.5049 20.533V13.423ZM21.7219 19.183L22.6319 19.327L22.7789 20.215L20.7779 21.133L21.7219 19.183ZM21.3849 21.399L23.1039 20.603H26.9069L28.6249 21.399H21.3849ZM27.2429 20.206L27.3889 19.327L28.2999 19.183L29.2329 21.131L27.2429 20.206ZM29.5059 20.535L28.6899 18.852V15.115L29.5059 13.423V20.535ZM37.4149 17.816L37.8459 18.717L37.2529 18.812L37.4149 17.816ZM37.2529 15.165L37.8449 15.26L37.4149 16.152L37.2529 15.165ZM37.5709 16.978L37.9649 16.165V17.799L37.5709 16.978ZM37.1569 14.638L37.0109 13.751L39.0109 12.834L38.0669 14.783L37.1569 14.638ZM37.0309 17.025L36.7199 18.884L34.8109 19.19L34.7789 19.174L34.7479 19.19L32.8479 18.884L32.5359 17.007L32.5439 16.957L32.5369 16.943L32.8479 15.072L34.7489 14.767L34.7829 14.784L34.8189 14.767L36.7299 15.072L37.0419 16.933L37.0119 16.99L37.0309 17.025ZM36.6349 19.41L36.5389 19.989L35.6309 19.569L36.6349 19.41ZM35.6069 20.094H33.9609L34.7839 19.711L35.6069 20.094ZM33.9359 19.57L33.0279 19.99L32.9249 19.41L33.9359 19.57ZM32.9329 14.556L33.0299 13.978L33.9359 14.398L32.9329 14.556ZM33.9619 13.862H35.6129L34.7839 14.244L33.9619 13.862ZM35.6309 14.398L36.5389 13.978L36.6349 14.556L35.6309 14.398ZM38.4029 12.568L36.6859 13.364H32.8819L31.1639 12.568H38.4029ZM32.5459 13.752L32.3999 14.649L31.4899 14.794L30.5549 12.833L32.5459 13.752ZM32.1519 17.804L32.3149 18.791L31.7229 18.697L32.1519 17.804ZM31.6029 17.792V16.172L31.9969 16.978L31.6029 17.792ZM32.1519 16.15L31.7219 15.249L32.3149 15.155L32.1519 16.15ZM30.2839 13.423L31.0989 15.115V18.841L30.2839 20.533V13.423ZM31.5009 19.183L32.4109 19.327L32.5569 20.215L30.5569 21.133L31.5009 19.183ZM31.1639 21.399L32.8819 20.603H36.6859L38.4029 21.399H31.1639ZM37.0209 20.206L37.1679 19.327L38.0779 19.183L39.0109 21.131L37.0209 20.206ZM39.2839 20.535L38.4689 18.852V15.115L39.2839 13.423V20.535ZM47.1939 17.816L47.6249 18.717L47.0309 18.812L47.1939 17.816ZM47.0309 15.165L47.6239 15.26L47.1939 16.152L47.0309 15.165ZM47.3489 16.978L47.7429 16.165V17.799L47.3489 16.978ZM46.9359 14.638L46.7899 13.751L48.7899 12.834L47.8459 14.783L46.9359 14.638ZM46.8099 17.025L46.4989 18.884L44.5889 19.19L44.5579 19.174L44.5269 19.19L42.6259 18.884L42.3139 17.007L42.3229 16.957L42.3149 16.943L42.6269 15.072L44.5269 14.767L44.5619 14.784L44.5969 14.767L46.5089 15.072L46.8199 16.933L46.7909 16.99L46.8099 17.025ZM46.4139 19.41L46.3169 19.989L45.4099 19.569L46.4139 19.41ZM45.3849 20.094H43.7399L44.5619 19.711L45.3849 20.094ZM43.7149 19.57L42.8069 19.99L42.7029 19.41L43.7149 19.57ZM42.7109 14.556L42.8079 13.978L43.7149 14.398L42.7109 14.556ZM43.7399 13.862H45.3919L44.5619 14.244L43.7399 13.862ZM45.4099 14.398L46.3169 13.978L46.4139 14.556L45.4099 14.398ZM48.1819 12.568L46.4639 13.364H42.6609L40.9429 12.568H48.1819ZM42.3249 13.752L42.1789 14.649L41.2679 14.794L40.3329 12.833L42.3249 13.752ZM41.9309 17.804L42.0939 18.791L41.5009 18.697L41.9309 17.804ZM41.3819 17.792V16.172L41.7759 16.978L41.3819 17.792ZM41.9309 16.15L41.5009 15.249L42.0939 15.155L41.9309 16.15ZM40.0619 13.423L40.8769 15.115V18.841L40.0619 20.533V13.423ZM41.2799 19.183L42.1889 19.327L42.3359 20.215L40.3359 21.133L41.2799 19.183ZM40.9429 21.399L42.6609 20.603H46.4639L48.1819 21.399H40.9429ZM46.7999 20.206L46.9459 19.327L47.8569 19.183L48.7899 21.131L46.7999 20.206ZM49.0629 20.535L48.2469 18.852V15.115L49.0629 13.423V20.535Z" fill="black" fill-opacity="0.2"/>
<path d="M40.0619 11.7H39.2839H30.2829H29.5059H20.5039H19.7269H10.7259H9.94893H0.169922V22.256H9.94893H10.7259H19.7269H20.5039H29.5059H30.2829H39.2839H40.0619H49.8399V11.7H40.0619ZM8.07993 17.816L8.50992 18.717L7.91693 18.812L8.07993 17.816ZM7.91693 15.165L8.50893 15.26L8.07993 16.152L7.91693 15.165ZM8.23492 16.978L8.62892 16.165V17.799L8.23492 16.978ZM7.82193 14.638L7.67493 13.751L9.67493 12.834L8.73093 14.783L7.82193 14.638ZM7.69592 17.025L7.38393 18.884L5.47493 19.19L5.44392 19.174L5.41292 19.19L3.51192 18.884L3.19992 17.007L3.20792 16.957L3.20093 16.943L3.51192 15.072L5.41292 14.767L5.44693 14.784L5.48293 14.767L7.39493 15.072L7.70592 16.933L7.67693 16.99L7.69592 17.025ZM7.29993 19.41L7.20293 19.989L6.29492 19.569L7.29993 19.41ZM6.27092 20.094H4.62492L5.44792 19.711L6.27092 20.094ZM4.60092 19.57L3.69193 19.99L3.58893 19.41L4.60092 19.57ZM3.59692 14.556L3.69392 13.978L4.60092 14.398L3.59692 14.556ZM4.62593 13.862H6.27792L5.44792 14.244L4.62593 13.862ZM6.29492 14.398L7.20293 13.978L7.29993 14.556L6.29492 14.398ZM9.06792 12.568L7.34993 13.364H3.54692L1.82793 12.568H9.06792ZM3.20993 13.752L3.06493 14.649L2.15393 14.794L1.21892 12.833L3.20993 13.752ZM2.81592 17.804L2.97992 18.791L2.38692 18.697L2.81592 17.804ZM2.26793 17.792V16.172L2.66193 16.978L2.26793 17.792ZM2.81592 16.15L2.38593 15.249L2.97992 15.155L2.81592 16.15ZM0.947922 13.423L1.76292 15.115V18.841L0.947922 20.533V13.423ZM2.16492 19.183L3.07492 19.327L3.22092 20.215L1.22092 21.133L2.16492 19.183ZM1.82793 21.399L3.54692 20.603H7.34993L9.06792 21.399H1.82793ZM7.68593 20.206L7.83192 19.327L8.74193 19.183L9.67592 21.131L7.68593 20.206ZM9.94893 20.535L9.13292 18.852V15.115L9.94893 13.423V20.535ZM17.8579 17.816L18.2889 18.717L17.6959 18.812L17.8579 17.816ZM17.6959 15.165L18.2879 15.26L17.8579 16.152L17.6959 15.165ZM18.0129 16.978L18.4069 16.165V17.799L18.0129 16.978ZM17.5999 14.638L17.4539 13.751L19.4539 12.834L18.5099 14.783L17.5999 14.638ZM17.4739 17.025L17.1629 18.884L15.2539 19.19L15.2219 19.174L15.1909 19.19L13.2909 18.884L12.9789 17.007L12.9869 16.957L12.9799 16.943L13.2909 15.072L15.1909 14.767L15.2259 14.784L15.2619 14.767L17.1729 15.072L17.4849 16.933L17.4549 16.99L17.4739 17.025ZM17.0779 19.41L16.9809 19.989L16.0739 19.569L17.0779 19.41ZM16.0499 20.094H14.4039L15.2259 19.711L16.0499 20.094ZM14.3789 19.57L13.4709 19.99L13.3679 19.41L14.3789 19.57ZM13.3759 14.556L13.4719 13.978L14.3789 14.398L13.3759 14.556ZM14.4049 13.862H16.0559L15.2269 14.244L14.4049 13.862ZM16.0739 14.398L16.9809 13.978L17.0779 14.556L16.0739 14.398ZM18.8459 12.568L17.1289 13.364H13.3249L11.6069 12.568H18.8459ZM12.9889 13.752L12.8429 14.649L11.9329 14.794L10.9969 12.833L12.9889 13.752ZM12.5949 17.804L12.7579 18.791L12.1659 18.697L12.5949 17.804ZM12.0459 17.792V16.172L12.4399 16.978L12.0459 17.792ZM12.5949 16.15L12.1649 15.249L12.7579 15.155L12.5949 16.15ZM10.7269 13.423L11.5419 15.115V18.841L10.7269 20.533V13.423ZM11.9439 19.183L12.8539 19.327L12.9999 20.215L10.9999 21.133L11.9439 19.183ZM11.6069 21.399L13.3249 20.603H17.1289L18.8459 21.399H11.6069ZM17.4639 20.206L17.6109 19.327L18.5209 19.183L19.4539 21.131L17.4639 20.206ZM19.7269 20.535L18.9109 18.852V15.115L19.7269 13.423V20.535ZM27.6369 17.816L28.0669 18.717L27.4739 18.812L27.6369 17.816ZM27.4739 15.165L28.0669 15.26L27.6369 16.152L27.4739 15.165ZM27.7919 16.978L28.1859 16.165V17.799L27.7919 16.978ZM27.3789 14.638L27.2319 13.751L29.2329 12.834L28.2879 14.783L27.3789 14.638ZM27.2529 17.025L26.9419 18.884L25.0319 19.19L25.0009 19.174L24.9699 19.19L23.0689 18.884L22.7569 17.007L22.7649 16.957L22.7579 16.943L23.0689 15.072L24.9699 14.767L25.0039 14.784L25.0399 14.767L26.9519 15.072L27.2629 16.933L27.2339 16.99L27.2529 17.025ZM26.8569 19.41L26.7599 19.989L25.8519 19.569L26.8569 19.41ZM25.8279 20.094H24.1829L25.0049 19.711L25.8279 20.094ZM24.1579 19.57L23.2489 19.99L23.1459 19.41L24.1579 19.57ZM23.1539 14.556L23.2509 13.978L24.1579 14.398L23.1539 14.556ZM24.1829 13.862H25.8349L25.0049 14.244L24.1829 13.862ZM25.8529 14.398L26.7599 13.978L26.8569 14.556L25.8529 14.398ZM28.6249 12.568L26.9069 13.364H23.1039L21.3849 12.568H28.6249ZM22.7679 13.752L22.6219 14.649L21.7109 14.794L20.7759 12.833L22.7679 13.752ZM22.3739 17.804L22.5369 18.791L21.9439 18.697L22.3739 17.804ZM21.8249 17.792V16.172L22.2189 16.978L21.8249 17.792ZM22.3739 16.15L21.9439 15.249L22.5369 15.155L22.3739 16.15ZM20.5049 13.423L21.3199 15.115V18.841L20.5049 20.533V13.423ZM21.7219 19.183L22.6319 19.327L22.7789 20.215L20.7779 21.133L21.7219 19.183ZM21.3849 21.399L23.1039 20.603H26.9069L28.6249 21.399H21.3849ZM27.2429 20.206L27.3889 19.327L28.2999 19.183L29.2329 21.131L27.2429 20.206ZM29.5059 20.535L28.6899 18.852V15.115L29.5059 13.423V20.535ZM37.4149 17.816L37.8459 18.717L37.2529 18.812L37.4149 17.816ZM37.2529 15.165L37.8449 15.26L37.4149 16.152L37.2529 15.165ZM37.5709 16.978L37.9649 16.165V17.799L37.5709 16.978ZM37.1569 14.638L37.0109 13.751L39.0109 12.834L38.0669 14.783L37.1569 14.638ZM37.0309 17.025L36.7199 18.884L34.8109 19.19L34.7789 19.174L34.7479 19.19L32.8479 18.884L32.5359 17.007L32.5439 16.957L32.5369 16.943L32.8479 15.072L34.7489 14.767L34.7829 14.784L34.8189 14.767L36.7299 15.072L37.0419 16.933L37.0119 16.99L37.0309 17.025ZM36.6349 19.41L36.5389 19.989L35.6309 19.569L36.6349 19.41ZM35.6069 20.094H33.9609L34.7839 19.711L35.6069 20.094ZM33.9359 19.57L33.0279 19.99L32.9249 19.41L33.9359 19.57ZM32.9329 14.556L33.0299 13.978L33.9359 14.398L32.9329 14.556ZM33.9619 13.862H35.6129L34.7839 14.244L33.9619 13.862ZM35.6309 14.398L36.5389 13.978L36.6349 14.556L35.6309 14.398ZM38.4029 12.568L36.6859 13.364H32.8819L31.1639 12.568H38.4029ZM32.5459 13.752L32.3999 14.649L31.4899 14.794L30.5549 12.833L32.5459 13.752ZM32.1519 17.804L32.3149 18.791L31.7229 18.697L32.1519 17.804ZM31.6029 17.792V16.172L31.9969 16.978L31.6029 17.792ZM32.1519 16.15L31.7219 15.249L32.3149 15.155L32.1519 16.15ZM30.2839 13.423L31.0989 15.115V18.841L30.2839 20.533V13.423ZM31.5009 19.183L32.4109 19.327L32.5569 20.215L30.5569 21.133L31.5009 19.183ZM31.1639 21.399L32.8819 20.603H36.6859L38.4029 21.399H31.1639ZM37.0209 20.206L37.1679 19.327L38.0779 19.183L39.0109 21.131L37.0209 20.206ZM39.2839 20.535L38.4689 18.852V15.115L39.2839 13.423V20.535ZM47.1939 17.816L47.6249 18.717L47.0309 18.812L47.1939 17.816ZM47.0309 15.165L47.6239 15.26L47.1939 16.152L47.0309 15.165ZM47.3489 16.978L47.7429 16.165V17.799L47.3489 16.978ZM46.9359 14.638L46.7899 13.751L48.7899 12.834L47.8459 14.783L46.9359 14.638ZM46.8099 17.025L46.4989 18.884L44.5889 19.19L44.5579 19.174L44.5269 19.19L42.6259 18.884L42.3139 17.007L42.3229 16.957L42.3149 16.943L42.6269 15.072L44.5269 14.767L44.5619 14.784L44.5969 14.767L46.5089 15.072L46.8199 16.933L46.7909 16.99L46.8099 17.025ZM46.4139 19.41L46.3169 19.989L45.4099 19.569L46.4139 19.41ZM45.3849 20.094H43.7399L44.5619 19.711L45.3849 20.094ZM43.7149 19.57L42.8069 19.99L42.7029 19.41L43.7149 19.57ZM42.7109 14.556L42.8079 13.978L43.7149 14.398L42.7109 14.556ZM43.7399 13.862H45.3919L44.5619 14.244L43.7399 13.862ZM45.4099 14.398L46.3169 13.978L46.4139 14.556L45.4099 14.398ZM48.1819 12.568L46.4639 13.364H42.6609L40.9429 12.568H48.1819ZM42.3249 13.752L42.1789 14.649L41.2679 14.794L40.3329 12.833L42.3249 13.752ZM41.9309 17.804L42.0939 18.791L41.5009 18.697L41.9309 17.804ZM41.3819 17.792V16.172L41.7759 16.978L41.3819 17.792ZM41.9309 16.15L41.5009 15.249L42.0939 15.155L41.9309 16.15ZM40.0619 13.423L40.8769 15.115V18.841L40.0619 20.533V13.423ZM41.2799 19.183L42.1889 19.327L42.3359 20.215L40.3359 21.133L41.2799 19.183ZM40.9429 21.399L42.6609 20.603H46.4639L48.1819 21.399H40.9429ZM46.7999 20.206L46.9459 19.327L47.8569 19.183L48.7899 21.131L46.7999 20.206ZM49.0629 20.535L48.2469 18.852V15.115L49.0629 13.423V20.535Z" fill="black" fill-opacity="0.2"/>
<path d="M40.0619 11.7H39.2839H30.2829H29.5059H20.5039H19.7269H10.7259H9.94893H0.169922V22.256H9.94893H10.7259H19.7269H20.5039H29.5059H30.2829H39.2839H40.0619H49.8399V11.7H40.0619ZM8.07993 17.816L8.50992 18.717L7.91693 18.812L8.07993 17.816ZM7.91693 15.165L8.50893 15.26L8.07993 16.152L7.91693 15.165ZM8.23492 16.978L8.62892 16.165V17.799L8.23492 16.978ZM7.82193 14.638L7.67493 13.751L9.67493 12.834L8.73093 14.783L7.82193 14.638ZM7.69592 17.025L7.38393 18.884L5.47493 19.19L5.44392 19.174L5.41292 19.19L3.51192 18.884L3.19992 17.007L3.20792 16.957L3.20093 16.943L3.51192 15.072L5.41292 14.767L5.44693 14.784L5.48293 14.767L7.39493 15.072L7.70592 16.933L7.67693 16.99L7.69592 17.025ZM7.29993 19.41L7.20293 19.989L6.29492 19.569L7.29993 19.41ZM6.27092 20.094H4.62492L5.44792 19.711L6.27092 20.094ZM4.60092 19.57L3.69193 19.99L3.58893 19.41L4.60092 19.57ZM3.59692 14.556L3.69392 13.978L4.60092 14.398L3.59692 14.556ZM4.62593 13.862H6.27792L5.44792 14.244L4.62593 13.862ZM6.29492 14.398L7.20293 13.978L7.29993 14.556L6.29492 14.398ZM9.06792 12.568L7.34993 13.364H3.54692L1.82793 12.568H9.06792ZM3.20993 13.752L3.06493 14.649L2.15393 14.794L1.21892 12.833L3.20993 13.752ZM2.81592 17.804L2.97992 18.791L2.38692 18.697L2.81592 17.804ZM2.26793 17.792V16.172L2.66193 16.978L2.26793 17.792ZM2.81592 16.15L2.38593 15.249L2.97992 15.155L2.81592 16.15ZM0.947922 13.423L1.76292 15.115V18.841L0.947922 20.533V13.423ZM2.16492 19.183L3.07492 19.327L3.22092 20.215L1.22092 21.133L2.16492 19.183ZM1.82793 21.399L3.54692 20.603H7.34993L9.06792 21.399H1.82793ZM7.68593 20.206L7.83192 19.327L8.74193 19.183L9.67592 21.131L7.68593 20.206ZM9.94893 20.535L9.13292 18.852V15.115L9.94893 13.423V20.535ZM17.8579 17.816L18.2889 18.717L17.6959 18.812L17.8579 17.816ZM17.6959 15.165L18.2879 15.26L17.8579 16.152L17.6959 15.165ZM18.0129 16.978L18.4069 16.165V17.799L18.0129 16.978ZM17.5999 14.638L17.4539 13.751L19.4539 12.834L18.5099 14.783L17.5999 14.638ZM17.4739 17.025L17.1629 18.884L15.2539 19.19L15.2219 19.174L15.1909 19.19L13.2909 18.884L12.9789 17.007L12.9869 16.957L12.9799 16.943L13.2909 15.072L15.1909 14.767L15.2259 14.784L15.2619 14.767L17.1729 15.072L17.4849 16.933L17.4549 16.99L17.4739 17.025ZM17.0779 19.41L16.9809 19.989L16.0739 19.569L17.0779 19.41ZM16.0499 20.094H14.4039L15.2259 19.711L16.0499 20.094ZM14.3789 19.57L13.4709 19.99L13.3679 19.41L14.3789 19.57ZM13.3759 14.556L13.4719 13.978L14.3789 14.398L13.3759 14.556ZM14.4049 13.862H16.0559L15.2269 14.244L14.4049 13.862ZM16.0739 14.398L16.9809 13.978L17.0779 14.556L16.0739 14.398ZM18.8459 12.568L17.1289 13.364H13.3249L11.6069 12.568H18.8459ZM12.9889 13.752L12.8429 14.649L11.9329 14.794L10.9969 12.833L12.9889 13.752ZM12.5949 17.804L12.7579 18.791L12.1659 18.697L12.5949 17.804ZM12.0459 17.792V16.172L12.4399 16.978L12.0459 17.792ZM12.5949 16.15L12.1649 15.249L12.7579 15.155L12.5949 16.15ZM10.7269 13.423L11.5419 15.115V18.841L10.7269 20.533V13.423ZM11.9439 19.183L12.8539 19.327L12.9999 20.215L10.9999 21.133L11.9439 19.183ZM11.6069 21.399L13.3249 20.603H17.1289L18.8459 21.399H11.6069ZM17.4639 20.206L17.6109 19.327L18.5209 19.183L19.4539 21.131L17.4639 20.206ZM19.7269 20.535L18.9109 18.852V15.115L19.7269 13.423V20.535ZM27.6369 17.816L28.0669 18.717L27.4739 18.812L27.6369 17.816ZM27.4739 15.165L28.0669 15.26L27.6369 16.152L27.4739 15.165ZM27.7919 16.978L28.1859 16.165V17.799L27.7919 16.978ZM27.3789 14.638L27.2319 13.751L29.2329 12.834L28.2879 14.783L27.3789 14.638ZM27.2529 17.025L26.9419 18.884L25.0319 19.19L25.0009 19.174L24.9699 19.19L23.0689 18.884L22.7569 17.007L22.7649 16.957L22.7579 16.943L23.0689 15.072L24.9699 14.767L25.0039 14.784L25.0399 14.767L26.9519 15.072L27.2629 16.933L27.2339 16.99L27.2529 17.025ZM26.8569 19.41L26.7599 19.989L25.8519 19.569L26.8569 19.41ZM25.8279 20.094H24.1829L25.0049 19.711L25.8279 20.094ZM24.1579 19.57L23.2489 19.99L23.1459 19.41L24.1579 19.57ZM23.1539 14.556L23.2509 13.978L24.1579 14.398L23.1539 14.556ZM24.1829 13.862H25.8349L25.0049 14.244L24.1829 13.862ZM25.8529 14.398L26.7599 13.978L26.8569 14.556L25.8529 14.398ZM28.6249 12.568L26.9069 13.364H23.1039L21.3849 12.568H28.6249ZM22.7679 13.752L22.6219 14.649L21.7109 14.794L20.7759 12.833L22.7679 13.752ZM22.3739 17.804L22.5369 18.791L21.9439 18.697L22.3739 17.804ZM21.8249 17.792V16.172L22.2189 16.978L21.8249 17.792ZM22.3739 16.15L21.9439 15.249L22.5369 15.155L22.3739 16.15ZM20.5049 13.423L21.3199 15.115V18.841L20.5049 20.533V13.423ZM21.7219 19.183L22.6319 19.327L22.7789 20.215L20.7779 21.133L21.7219 19.183ZM21.3849 21.399L23.1039 20.603H26.9069L28.6249 21.399H21.3849ZM27.2429 20.206L27.3889 19.327L28.2999 19.183L29.2329 21.131L27.2429 20.206ZM29.5059 20.535L28.6899 18.852V15.115L29.5059 13.423V20.535ZM37.4149 17.816L37.8459 18.717L37.2529 18.812L37.4149 17.816ZM37.2529 15.165L37.8449 15.26L37.4149 16.152L37.2529 15.165ZM37.5709 16.978L37.9649 16.165V17.799L37.5709 16.978ZM37.1569 14.638L37.0109 13.751L39.0109 12.834L38.0669 14.783L37.1569 14.638ZM37.0309 17.025L36.7199 18.884L34.8109 19.19L34.7789 19.174L34.7479 19.19L32.8479 18.884L32.5359 17.007L32.5439 16.957L32.5369 16.943L32.8479 15.072L34.7489 14.767L34.7829 14.784L34.8189 14.767L36.7299 15.072L37.0419 16.933L37.0119 16.99L37.0309 17.025ZM36.6349 19.41L36.5389 19.989L35.6309 19.569L36.6349 19.41ZM35.6069 20.094H33.9609L34.7839 19.711L35.6069 20.094ZM33.9359 19.57L33.0279 19.99L32.9249 19.41L33.9359 19.57ZM32.9329 14.556L33.0299 13.978L33.9359 14.398L32.9329 14.556ZM33.9619 13.862H35.6129L34.7839 14.244L33.9619 13.862ZM35.6309 14.398L36.5389 13.978L36.6349 14.556L35.6309 14.398ZM38.4029 12.568L36.6859 13.364H32.8819L31.1639 12.568H38.4029ZM32.5459 13.752L32.3999 14.649L31.4899 14.794L30.5549 12.833L32.5459 13.752ZM32.1519 17.804L32.3149 18.791L31.7229 18.697L32.1519 17.804ZM31.6029 17.792V16.172L31.9969 16.978L31.6029 17.792ZM32.1519 16.15L31.7219 15.249L32.3149 15.155L32.1519 16.15ZM30.2839 13.423L31.0989 15.115V18.841L30.2839 20.533V13.423ZM31.5009 19.183L32.4109 19.327L32.5569 20.215L30.5569 21.133L31.5009 19.183ZM31.1639 21.399L32.8819 20.603H36.6859L38.4029 21.399H31.1639ZM37.0209 20.206L37.1679 19.327L38.0779 19.183L39.0109 21.131L37.0209 20.206ZM39.2839 20.535L38.4689 18.852V15.115L39.2839 13.423V20.535ZM47.1939 17.816L47.6249 18.717L47.0309 18.812L47.1939 17.816ZM47.0309 15.165L47.6239 15.26L47.1939 16.152L47.0309 15.165ZM47.3489 16.978L47.7429 16.165V17.799L47.3489 16.978ZM46.9359 14.638L46.7899 13.751L48.7899 12.834L47.8459 14.783L46.9359 14.638ZM46.8099 17.025L46.4989 18.884L44.5889 19.19L44.5579 19.174L44.5269 19.19L42.6259 18.884L42.3139 17.007L42.3229 16.957L42.3149 16.943L42.6269 15.072L44.5269 14.767L44.5619 14.784L44.5969 14.767L46.5089 15.072L46.8199 16.933L46.7909 16.99L46.8099 17.025ZM46.4139 19.41L46.3169 19.989L45.4099 19.569L46.4139 19.41ZM45.3849 20.094H43.7399L44.5619 19.711L45.3849 20.094ZM43.7149 19.57L42.8069 19.99L42.7029 19.41L43.7149 19.57ZM42.7109 14.556L42.8079 13.978L43.7149 14.398L42.7109 14.556ZM43.7399 13.862H45.3919L44.5619 14.244L43.7399 13.862ZM45.4099 14.398L46.3169 13.978L46.4139 14.556L45.4099 14.398ZM48.1819 12.568L46.4639 13.364H42.6609L40.9429 12.568H48.1819ZM42.3249 13.752L42.1789 14.649L41.2679 14.794L40.3329 12.833L42.3249 13.752ZM41.9309 17.804L42.0939 18.791L41.5009 18.697L41.9309 17.804ZM41.3819 17.792V16.172L41.7759 16.978L41.3819 17.792ZM41.9309 16.15L41.5009 15.249L42.0939 15.155L41.9309 16.15ZM40.0619 13.423L40.8769 15.115V18.841L40.0619 20.533V13.423ZM41.2799 19.183L42.1889 19.327L42.3359 20.215L40.3359 21.133L41.2799 19.183ZM40.9429 21.399L42.6609 20.603H46.4639L48.1819 21.399H40.9429ZM46.7999 20.206L46.9459 19.327L47.8569 19.183L48.7899 21.131L46.7999 20.206ZM49.0629 20.535L48.2469 18.852V15.115L49.0629 13.423V20.535Z" fill="black" fill-opacity="0.2"/>
<path d="M40.0619 11.7H39.2839H30.2829H29.5059H20.5039H19.7269H10.7259H9.94893H0.169922V22.256H9.94893H10.7259H19.7269H20.5039H29.5059H30.2829H39.2839H40.0619H49.8399V11.7H40.0619ZM8.07993 17.816L8.50992 18.717L7.91693 18.812L8.07993 17.816ZM7.91693 15.165L8.50893 15.26L8.07993 16.152L7.91693 15.165ZM8.23492 16.978L8.62892 16.165V17.799L8.23492 16.978ZM7.82193 14.638L7.67493 13.751L9.67493 12.834L8.73093 14.783L7.82193 14.638ZM7.69592 17.025L7.38393 18.884L5.47493 19.19L5.44392 19.174L5.41292 19.19L3.51192 18.884L3.19992 17.007L3.20792 16.957L3.20093 16.943L3.51192 15.072L5.41292 14.767L5.44693 14.784L5.48293 14.767L7.39493 15.072L7.70592 16.933L7.67693 16.99L7.69592 17.025ZM7.29993 19.41L7.20293 19.989L6.29492 19.569L7.29993 19.41ZM6.27092 20.094H4.62492L5.44792 19.711L6.27092 20.094ZM4.60092 19.57L3.69193 19.99L3.58893 19.41L4.60092 19.57ZM3.59692 14.556L3.69392 13.978L4.60092 14.398L3.59692 14.556ZM4.62593 13.862H6.27792L5.44792 14.244L4.62593 13.862ZM6.29492 14.398L7.20293 13.978L7.29993 14.556L6.29492 14.398ZM9.06792 12.568L7.34993 13.364H3.54692L1.82793 12.568H9.06792ZM3.20993 13.752L3.06493 14.649L2.15393 14.794L1.21892 12.833L3.20993 13.752ZM2.81592 17.804L2.97992 18.791L2.38692 18.697L2.81592 17.804ZM2.26793 17.792V16.172L2.66193 16.978L2.26793 17.792ZM2.81592 16.15L2.38593 15.249L2.97992 15.155L2.81592 16.15ZM0.947922 13.423L1.76292 15.115V18.841L0.947922 20.533V13.423ZM2.16492 19.183L3.07492 19.327L3.22092 20.215L1.22092 21.133L2.16492 19.183ZM1.82793 21.399L3.54692 20.603H7.34993L9.06792 21.399H1.82793ZM7.68593 20.206L7.83192 19.327L8.74193 19.183L9.67592 21.131L7.68593 20.206ZM9.94893 20.535L9.13292 18.852V15.115L9.94893 13.423V20.535ZM17.8579 17.816L18.2889 18.717L17.6959 18.812L17.8579 17.816ZM17.6959 15.165L18.2879 15.26L17.8579 16.152L17.6959 15.165ZM18.0129 16.978L18.4069 16.165V17.799L18.0129 16.978ZM17.5999 14.638L17.4539 13.751L19.4539 12.834L18.5099 14.783L17.5999 14.638ZM17.4739 17.025L17.1629 18.884L15.2539 19.19L15.2219 19.174L15.1909 19.19L13.2909 18.884L12.9789 17.007L12.9869 16.957L12.9799 16.943L13.2909 15.072L15.1909 14.767L15.2259 14.784L15.2619 14.767L17.1729 15.072L17.4849 16.933L17.4549 16.99L17.4739 17.025ZM17.0779 19.41L16.9809 19.989L16.0739 19.569L17.0779 19.41ZM16.0499 20.094H14.4039L15.2259 19.711L16.0499 20.094ZM14.3789 19.57L13.4709 19.99L13.3679 19.41L14.3789 19.57ZM13.3759 14.556L13.4719 13.978L14.3789 14.398L13.3759 14.556ZM14.4049 13.862H16.0559L15.2269 14.244L14.4049 13.862ZM16.0739 14.398L16.9809 13.978L17.0779 14.556L16.0739 14.398ZM18.8459 12.568L17.1289 13.364H13.3249L11.6069 12.568H18.8459ZM12.9889 13.752L12.8429 14.649L11.9329 14.794L10.9969 12.833L12.9889 13.752ZM12.5949 17.804L12.7579 18.791L12.1659 18.697L12.5949 17.804ZM12.0459 17.792V16.172L12.4399 16.978L12.0459 17.792ZM12.5949 16.15L12.1649 15.249L12.7579 15.155L12.5949 16.15ZM10.7269 13.423L11.5419 15.115V18.841L10.7269 20.533V13.423ZM11.9439 19.183L12.8539 19.327L12.9999 20.215L10.9999 21.133L11.9439 19.183ZM11.6069 21.399L13.3249 20.603H17.1289L18.8459 21.399H11.6069ZM17.4639 20.206L17.6109 19.327L18.5209 19.183L19.4539 21.131L17.4639 20.206ZM19.7269 20.535L18.9109 18.852V15.115L19.7269 13.423V20.535ZM27.6369 17.816L28.0669 18.717L27.4739 18.812L27.6369 17.816ZM27.4739 15.165L28.0669 15.26L27.6369 16.152L27.4739 15.165ZM27.7919 16.978L28.1859 16.165V17.799L27.7919 16.978ZM27.3789 14.638L27.2319 13.751L29.2329 12.834L28.2879 14.783L27.3789 14.638ZM27.2529 17.025L26.9419 18.884L25.0319 19.19L25.0009 19.174L24.9699 19.19L23.0689 18.884L22.7569 17.007L22.7649 16.957L22.7579 16.943L23.0689 15.072L24.9699 14.767L25.0039 14.784L25.0399 14.767L26.9519 15.072L27.2629 16.933L27.2339 16.99L27.2529 17.025ZM26.8569 19.41L26.7599 19.989L25.8519 19.569L26.8569 19.41ZM25.8279 20.094H24.1829L25.0049 19.711L25.8279 20.094ZM24.1579 19.57L23.2489 19.99L23.1459 19.41L24.1579 19.57ZM23.1539 14.556L23.2509 13.978L24.1579 14.398L23.1539 14.556ZM24.1829 13.862H25.8349L25.0049 14.244L24.1829 13.862ZM25.8529 14.398L26.7599 13.978L26.8569 14.556L25.8529 14.398ZM28.6249 12.568L26.9069 13.364H23.1039L21.3849 12.568H28.6249ZM22.7679 13.752L22.6219 14.649L21.7109 14.794L20.7759 12.833L22.7679 13.752ZM22.3739 17.804L22.5369 18.791L21.9439 18.697L22.3739 17.804ZM21.8249 17.792V16.172L22.2189 16.978L21.8249 17.792ZM22.3739 16.15L21.9439 15.249L22.5369 15.155L22.3739 16.15ZM20.5049 13.423L21.3199 15.115V18.841L20.5049 20.533V13.423ZM21.7219 19.183L22.6319 19.327L22.7789 20.215L20.7779 21.133L21.7219 19.183ZM21.3849 21.399L23.1039 20.603H26.9069L28.6249 21.399H21.3849ZM27.2429 20.206L27.3889 19.327L28.2999 19.183L29.2329 21.131L27.2429 20.206ZM29.5059 20.535L28.6899 18.852V15.115L29.5059 13.423V20.535ZM37.4149 17.816L37.8459 18.717L37.2529 18.812L37.4149 17.816ZM37.2529 15.165L37.8449 15.26L37.4149 16.152L37.2529 15.165ZM37.5709 16.978L37.9649 16.165V17.799L37.5709 16.978ZM37.1569 14.638L37.0109 13.751L39.0109 12.834L38.0669 14.783L37.1569 14.638ZM37.0309 17.025L36.7199 18.884L34.8109 19.19L34.7789 19.174L34.7479 19.19L32.8479 18.884L32.5359 17.007L32.5439 16.957L32.5369 16.943L32.8479 15.072L34.7489 14.767L34.7829 14.784L34.8189 14.767L36.7299 15.072L37.0419 16.933L37.0119 16.99L37.0309 17.025ZM36.6349 19.41L36.5389 19.989L35.6309 19.569L36.6349 19.41ZM35.6069 20.094H33.9609L34.7839 19.711L35.6069 20.094ZM33.9359 19.57L33.0279 19.99L32.9249 19.41L33.9359 19.57ZM32.9329 14.556L33.0299 13.978L33.9359 14.398L32.9329 14.556ZM33.9619 13.862H35.6129L34.7839 14.244L33.9619 13.862ZM35.6309 14.398L36.5389 13.978L36.6349 14.556L35.6309 14.398ZM38.4029 12.568L36.6859 13.364H32.8819L31.1639 12.568H38.4029ZM32.5459 13.752L32.3999 14.649L31.4899 14.794L30.5549 12.833L32.5459 13.752ZM32.1519 17.804L32.3149 18.791L31.7229 18.697L32.1519 17.804ZM31.6029 17.792V16.172L31.9969 16.978L31.6029 17.792ZM32.1519 16.15L31.7219 15.249L32.3149 15.155L32.1519 16.15ZM30.2839 13.423L31.0989 15.115V18.841L30.2839 20.533V13.423ZM31.5009 19.183L32.4109 19.327L32.5569 20.215L30.5569 21.133L31.5009 19.183ZM31.1639 21.399L32.8819 20.603H36.6859L38.4029 21.399H31.1639ZM37.0209 20.206L37.1679 19.327L38.0779 19.183L39.0109 21.131L37.0209 20.206ZM39.2839 20.535L38.4689 18.852V15.115L39.2839 13.423V20.535ZM47.1939 17.816L47.6249 18.717L47.0309 18.812L47.1939 17.816ZM47.0309 15.165L47.6239 15.26L47.1939 16.152L47.0309 15.165ZM47.3489 16.978L47.7429 16.165V17.799L47.3489 16.978ZM46.9359 14.638L46.7899 13.751L48.7899 12.834L47.8459 14.783L46.9359 14.638ZM46.8099 17.025L46.4989 18.884L44.5889 19.19L44.5579 19.174L44.5269 19.19L42.6259 18.884L42.3139 17.007L42.3229 16.957L42.3149 16.943L42.6269 15.072L44.5269 14.767L44.5619 14.784L44.5969 14.767L46.5089 15.072L46.8199 16.933L46.7909 16.99L46.8099 17.025ZM46.4139 19.41L46.3169 19.989L45.4099 19.569L46.4139 19.41ZM45.3849 20.094H43.7399L44.5619 19.711L45.3849 20.094ZM43.7149 19.57L42.8069 19.99L42.7029 19.41L43.7149 19.57ZM42.7109 14.556L42.8079 13.978L43.7149 14.398L42.7109 14.556ZM43.7399 13.862H45.3919L44.5619 14.244L43.7399 13.862ZM45.4099 14.398L46.3169 13.978L46.4139 14.556L45.4099 14.398ZM48.1819 12.568L46.4639 13.364H42.6609L40.9429 12.568H48.1819ZM42.3249 13.752L42.1789 14.649L41.2679 14.794L40.3329 12.833L42.3249 13.752ZM41.9309 17.804L42.0939 18.791L41.5009 18.697L41.9309 17.804ZM41.3819 17.792V16.172L41.7759 16.978L41.3819 17.792ZM41.9309 16.15L41.5009 15.249L42.0939 15.155L41.9309 16.15ZM40.0619 13.423L40.8769 15.115V18.841L40.0619 20.533V13.423ZM41.2799 19.183L42.1889 19.327L42.3359 20.215L40.3359 21.133L41.2799 19.183ZM40.9429 21.399L42.6609 20.603H46.4639L48.1819 21.399H40.9429ZM46.7999 20.206L46.9459 19.327L47.8569 19.183L48.7899 21.131L46.7999 20.206ZM49.0629 20.535L48.2469 18.852V15.115L49.0629 13.423V20.535Z" fill="black" fill-opacity="0.2"/>
<path d="M40.0619 11.7H39.2839H30.2829H29.5059H20.5039H19.7269H10.7259H9.94893H0.169922V22.256H9.94893H10.7259H19.7269H20.5039H29.5059H30.2829H39.2839H40.0619H49.8399V11.7H40.0619ZM8.07993 17.816L8.50992 18.717L7.91693 18.812L8.07993 17.816ZM7.91693 15.165L8.50893 15.26L8.07993 16.152L7.91693 15.165ZM8.23492 16.978L8.62892 16.165V17.799L8.23492 16.978ZM7.82193 14.638L7.67493 13.751L9.67493 12.834L8.73093 14.783L7.82193 14.638ZM7.69592 17.025L7.38393 18.884L5.47493 19.19L5.44392 19.174L5.41292 19.19L3.51192 18.884L3.19992 17.007L3.20792 16.957L3.20093 16.943L3.51192 15.072L5.41292 14.767L5.44693 14.784L5.48293 14.767L7.39493 15.072L7.70592 16.933L7.67693 16.99L7.69592 17.025ZM7.29993 19.41L7.20293 19.989L6.29492 19.569L7.29993 19.41ZM6.27092 20.094H4.62492L5.44792 19.711L6.27092 20.094ZM4.60092 19.57L3.69193 19.99L3.58893 19.41L4.60092 19.57ZM3.59692 14.556L3.69392 13.978L4.60092 14.398L3.59692 14.556ZM4.62593 13.862H6.27792L5.44792 14.244L4.62593 13.862ZM6.29492 14.398L7.20293 13.978L7.29993 14.556L6.29492 14.398ZM9.06792 12.568L7.34993 13.364H3.54692L1.82793 12.568H9.06792ZM3.20993 13.752L3.06493 14.649L2.15393 14.794L1.21892 12.833L3.20993 13.752ZM2.81592 17.804L2.97992 18.791L2.38692 18.697L2.81592 17.804ZM2.26793 17.792V16.172L2.66193 16.978L2.26793 17.792ZM2.81592 16.15L2.38593 15.249L2.97992 15.155L2.81592 16.15ZM0.947922 13.423L1.76292 15.115V18.841L0.947922 20.533V13.423ZM2.16492 19.183L3.07492 19.327L3.22092 20.215L1.22092 21.133L2.16492 19.183ZM1.82793 21.399L3.54692 20.603H7.34993L9.06792 21.399H1.82793ZM7.68593 20.206L7.83192 19.327L8.74193 19.183L9.67592 21.131L7.68593 20.206ZM9.94893 20.535L9.13292 18.852V15.115L9.94893 13.423V20.535ZM17.8579 17.816L18.2889 18.717L17.6959 18.812L17.8579 17.816ZM17.6959 15.165L18.2879 15.26L17.8579 16.152L17.6959 15.165ZM18.0129 16.978L18.4069 16.165V17.799L18.0129 16.978ZM17.5999 14.638L17.4539 13.751L19.4539 12.834L18.5099 14.783L17.5999 14.638ZM17.4739 17.025L17.1629 18.884L15.2539 19.19L15.2219 19.174L15.1909 19.19L13.2909 18.884L12.9789 17.007L12.9869 16.957L12.9799 16.943L13.2909 15.072L15.1909 14.767L15.2259 14.784L15.2619 14.767L17.1729 15.072L17.4849 16.933L17.4549 16.99L17.4739 17.025ZM17.0779 19.41L16.9809 19.989L16.0739 19.569L17.0779 19.41ZM16.0499 20.094H14.4039L15.2259 19.711L16.0499 20.094ZM14.3789 19.57L13.4709 19.99L13.3679 19.41L14.3789 19.57ZM13.3759 14.556L13.4719 13.978L14.3789 14.398L13.3759 14.556ZM14.4049 13.862H16.0559L15.2269 14.244L14.4049 13.862ZM16.0739 14.398L16.9809 13.978L17.0779 14.556L16.0739 14.398ZM18.8459 12.568L17.1289 13.364H13.3249L11.6069 12.568H18.8459ZM12.9889 13.752L12.8429 14.649L11.9329 14.794L10.9969 12.833L12.9889 13.752ZM12.5949 17.804L12.7579 18.791L12.1659 18.697L12.5949 17.804ZM12.0459 17.792V16.172L12.4399 16.978L12.0459 17.792ZM12.5949 16.15L12.1649 15.249L12.7579 15.155L12.5949 16.15ZM10.7269 13.423L11.5419 15.115V18.841L10.7269 20.533V13.423ZM11.9439 19.183L12.8539 19.327L12.9999 20.215L10.9999 21.133L11.9439 19.183ZM11.6069 21.399L13.3249 20.603H17.1289L18.8459 21.399H11.6069ZM17.4639 20.206L17.6109 19.327L18.5209 19.183L19.4539 21.131L17.4639 20.206ZM19.7269 20.535L18.9109 18.852V15.115L19.7269 13.423V20.535ZM27.6369 17.816L28.0669 18.717L27.4739 18.812L27.6369 17.816ZM27.4739 15.165L28.0669 15.26L27.6369 16.152L27.4739 15.165ZM27.7919 16.978L28.1859 16.165V17.799L27.7919 16.978ZM27.3789 14.638L27.2319 13.751L29.2329 12.834L28.2879 14.783L27.3789 14.638ZM27.2529 17.025L26.9419 18.884L25.0319 19.19L25.0009 19.174L24.9699 19.19L23.0689 18.884L22.7569 17.007L22.7649 16.957L22.7579 16.943L23.0689 15.072L24.9699 14.767L25.0039 14.784L25.0399 14.767L26.9519 15.072L27.2629 16.933L27.2339 16.99L27.2529 17.025ZM26.8569 19.41L26.7599 19.989L25.8519 19.569L26.8569 19.41ZM25.8279 20.094H24.1829L25.0049 19.711L25.8279 20.094ZM24.1579 19.57L23.2489 19.99L23.1459 19.41L24.1579 19.57ZM23.1539 14.556L23.2509 13.978L24.1579 14.398L23.1539 14.556ZM24.1829 13.862H25.8349L25.0049 14.244L24.1829 13.862ZM25.8529 14.398L26.7599 13.978L26.8569 14.556L25.8529 14.398ZM28.6249 12.568L26.9069 13.364H23.1039L21.3849 12.568H28.6249ZM22.7679 13.752L22.6219 14.649L21.7109 14.794L20.7759 12.833L22.7679 13.752ZM22.3739 17.804L22.5369 18.791L21.9439 18.697L22.3739 17.804ZM21.8249 17.792V16.172L22.2189 16.978L21.8249 17.792ZM22.3739 16.15L21.9439 15.249L22.5369 15.155L22.3739 16.15ZM20.5049 13.423L21.3199 15.115V18.841L20.5049 20.533V13.423ZM21.7219 19.183L22.6319 19.327L22.7789 20.215L20.7779 21.133L21.7219 19.183ZM21.3849 21.399L23.1039 20.603H26.9069L28.6249 21.399H21.3849ZM27.2429 20.206L27.3889 19.327L28.2999 19.183L29.2329 21.131L27.2429 20.206ZM29.5059 20.535L28.6899 18.852V15.115L29.5059 13.423V20.535ZM37.4149 17.816L37.8459 18.717L37.2529 18.812L37.4149 17.816ZM37.2529 15.165L37.8449 15.26L37.4149 16.152L37.2529 15.165ZM37.5709 16.978L37.9649 16.165V17.799L37.5709 16.978ZM37.1569 14.638L37.0109 13.751L39.0109 12.834L38.0669 14.783L37.1569 14.638ZM37.0309 17.025L36.7199 18.884L34.8109 19.19L34.7789 19.174L34.7479 19.19L32.8479 18.884L32.5359 17.007L32.5439 16.957L32.5369 16.943L32.8479 15.072L34.7489 14.767L34.7829 14.784L34.8189 14.767L36.7299 15.072L37.0419 16.933L37.0119 16.99L37.0309 17.025ZM36.6349 19.41L36.5389 19.989L35.6309 19.569L36.6349 19.41ZM35.6069 20.094H33.9609L34.7839 19.711L35.6069 20.094ZM33.9359 19.57L33.0279 19.99L32.9249 19.41L33.9359 19.57ZM32.9329 14.556L33.0299 13.978L33.9359 14.398L32.9329 14.556ZM33.9619 13.862H35.6129L34.7839 14.244L33.9619 13.862ZM35.6309 14.398L36.5389 13.978L36.6349 14.556L35.6309 14.398ZM38.4029 12.568L36.6859 13.364H32.8819L31.1639 12.568H38.4029ZM32.5459 13.752L32.3999 14.649L31.4899 14.794L30.5549 12.833L32.5459 13.752ZM32.1519 17.804L32.3149 18.791L31.7229 18.697L32.1519 17.804ZM31.6029 17.792V16.172L31.9969 16.978L31.6029 17.792ZM32.1519 16.15L31.7219 15.249L32.3149 15.155L32.1519 16.15ZM30.2839 13.423L31.0989 15.115V18.841L30.2839 20.533V13.423ZM31.5009 19.183L32.4109 19.327L32.5569 20.215L30.5569 21.133L31.5009 19.183ZM31.1639 21.399L32.8819 20.603H36.6859L38.4029 21.399H31.1639ZM37.0209 20.206L37.1679 19.327L38.0779 19.183L39.0109 21.131L37.0209 20.206ZM39.2839 20.535L38.4689 18.852V15.115L39.2839 13.423V20.535ZM47.1939 17.816L47.6249 18.717L47.0309 18.812L47.1939 17.816ZM47.0309 15.165L47.6239 15.26L47.1939 16.152L47.0309 15.165ZM47.3489 16.978L47.7429 16.165V17.799L47.3489 16.978ZM46.9359 14.638L46.7899 13.751L48.7899 12.834L47.8459 14.783L46.9359 14.638ZM46.8099 17.025L46.4989 18.884L44.5889 19.19L44.5579 19.174L44.5269 19.19L42.6259 18.884L42.3139 17.007L42.3229 16.957L42.3149 16.943L42.6269 15.072L44.5269 14.767L44.5619 14.784L44.5969 14.767L46.5089 15.072L46.8199 16.933L46.7909 16.99L46.8099 17.025ZM46.4139 19.41L46.3169 19.989L45.4099 19.569L46.4139 19.41ZM45.3849 20.094H43.7399L44.5619 19.711L45.3849 20.094ZM43.7149 19.57L42.8069 19.99L42.7029 19.41L43.7149 19.57ZM42.7109 14.556L42.8079 13.978L43.7149 14.398L42.7109 14.556ZM43.7399 13.862H45.3919L44.5619 14.244L43.7399 13.862ZM45.4099 14.398L46.3169 13.978L46.4139 14.556L45.4099 14.398ZM48.1819 12.568L46.4639 13.364H42.6609L40.9429 12.568H48.1819ZM42.3249 13.752L42.1789 14.649L41.2679 14.794L40.3329 12.833L42.3249 13.752ZM41.9309 17.804L42.0939 18.791L41.5009 18.697L41.9309 17.804ZM41.3819 17.792V16.172L41.7759 16.978L41.3819 17.792ZM41.9309 16.15L41.5009 15.249L42.0939 15.155L41.9309 16.15ZM40.0619 13.423L40.8769 15.115V18.841L40.0619 20.533V13.423ZM41.2799 19.183L42.1889 19.327L42.3359 20.215L40.3359 21.133L41.2799 19.183ZM40.9429 21.399L42.6609 20.603H46.4639L48.1819 21.399H40.9429ZM46.7999 20.206L46.9459 19.327L47.8569 19.183L48.7899 21.131L46.7999 20.206ZM49.0629 20.535L48.2469 18.852V15.115L49.0629 13.423V20.535Z" fill="black" fill-opacity="0.2"/>
<path d="M40.0619 11.7H39.2839H30.2829H29.5059H20.5039H19.7269H10.7259H9.94893H0.169922V22.256H9.94893H10.7259H19.7269H20.5039H29.5059H30.2829H39.2839H40.0619H49.8399V11.7H40.0619ZM8.07993 17.816L8.50992 18.717L7.91693 18.812L8.07993 17.816ZM7.91693 15.165L8.50893 15.26L8.07993 16.152L7.91693 15.165ZM8.23492 16.978L8.62892 16.165V17.799L8.23492 16.978ZM7.82193 14.638L7.67493 13.751L9.67493 12.834L8.73093 14.783L7.82193 14.638ZM7.69592 17.025L7.38393 18.884L5.47493 19.19L5.44392 19.174L5.41292 19.19L3.51192 18.884L3.19992 17.007L3.20792 16.957L3.20093 16.943L3.51192 15.072L5.41292 14.767L5.44693 14.784L5.48293 14.767L7.39493 15.072L7.70592 16.933L7.67693 16.99L7.69592 17.025ZM7.29993 19.41L7.20293 19.989L6.29492 19.569L7.29993 19.41ZM6.27092 20.094H4.62492L5.44792 19.711L6.27092 20.094ZM4.60092 19.57L3.69193 19.99L3.58893 19.41L4.60092 19.57ZM3.59692 14.556L3.69392 13.978L4.60092 14.398L3.59692 14.556ZM4.62593 13.862H6.27792L5.44792 14.244L4.62593 13.862ZM6.29492 14.398L7.20293 13.978L7.29993 14.556L6.29492 14.398ZM9.06792 12.568L7.34993 13.364H3.54692L1.82793 12.568H9.06792ZM3.20993 13.752L3.06493 14.649L2.15393 14.794L1.21892 12.833L3.20993 13.752ZM2.81592 17.804L2.97992 18.791L2.38692 18.697L2.81592 17.804ZM2.26793 17.792V16.172L2.66193 16.978L2.26793 17.792ZM2.81592 16.15L2.38593 15.249L2.97992 15.155L2.81592 16.15ZM0.947922 13.423L1.76292 15.115V18.841L0.947922 20.533V13.423ZM2.16492 19.183L3.07492 19.327L3.22092 20.215L1.22092 21.133L2.16492 19.183ZM1.82793 21.399L3.54692 20.603H7.34993L9.06792 21.399H1.82793ZM7.68593 20.206L7.83192 19.327L8.74193 19.183L9.67592 21.131L7.68593 20.206ZM9.94893 20.535L9.13292 18.852V15.115L9.94893 13.423V20.535ZM17.8579 17.816L18.2889 18.717L17.6959 18.812L17.8579 17.816ZM17.6959 15.165L18.2879 15.26L17.8579 16.152L17.6959 15.165ZM18.0129 16.978L18.4069 16.165V17.799L18.0129 16.978ZM17.5999 14.638L17.4539 13.751L19.4539 12.834L18.5099 14.783L17.5999 14.638ZM17.4739 17.025L17.1629 18.884L15.2539 19.19L15.2219 19.174L15.1909 19.19L13.2909 18.884L12.9789 17.007L12.9869 16.957L12.9799 16.943L13.2909 15.072L15.1909 14.767L15.2259 14.784L15.2619 14.767L17.1729 15.072L17.4849 16.933L17.4549 16.99L17.4739 17.025ZM17.0779 19.41L16.9809 19.989L16.0739 19.569L17.0779 19.41ZM16.0499 20.094H14.4039L15.2259 19.711L16.0499 20.094ZM14.3789 19.57L13.4709 19.99L13.3679 19.41L14.3789 19.57ZM13.3759 14.556L13.4719 13.978L14.3789 14.398L13.3759 14.556ZM14.4049 13.862H16.0559L15.2269 14.244L14.4049 13.862ZM16.0739 14.398L16.9809 13.978L17.0779 14.556L16.0739 14.398ZM18.8459 12.568L17.1289 13.364H13.3249L11.6069 12.568H18.8459ZM12.9889 13.752L12.8429 14.649L11.9329 14.794L10.9969 12.833L12.9889 13.752ZM12.5949 17.804L12.7579 18.791L12.1659 18.697L12.5949 17.804ZM12.0459 17.792V16.172L12.4399 16.978L12.0459 17.792ZM12.5949 16.15L12.1649 15.249L12.7579 15.155L12.5949 16.15ZM10.7269 13.423L11.5419 15.115V18.841L10.7269 20.533V13.423ZM11.9439 19.183L12.8539 19.327L12.9999 20.215L10.9999 21.133L11.9439 19.183ZM11.6069 21.399L13.3249 20.603H17.1289L18.8459 21.399H11.6069ZM17.4639 20.206L17.6109 19.327L18.5209 19.183L19.4539 21.131L17.4639 20.206ZM19.7269 20.535L18.9109 18.852V15.115L19.7269 13.423V20.535ZM27.6369 17.816L28.0669 18.717L27.4739 18.812L27.6369 17.816ZM27.4739 15.165L28.0669 15.26L27.6369 16.152L27.4739 15.165ZM27.7919 16.978L28.1859 16.165V17.799L27.7919 16.978ZM27.3789 14.638L27.2319 13.751L29.2329 12.834L28.2879 14.783L27.3789 14.638ZM27.2529 17.025L26.9419 18.884L25.0319 19.19L25.0009 19.174L24.9699 19.19L23.0689 18.884L22.7569 17.007L22.7649 16.957L22.7579 16.943L23.0689 15.072L24.9699 14.767L25.0039 14.784L25.0399 14.767L26.9519 15.072L27.2629 16.933L27.2339 16.99L27.2529 17.025ZM26.8569 19.41L26.7599 19.989L25.8519 19.569L26.8569 19.41ZM25.8279 20.094H24.1829L25.0049 19.711L25.8279 20.094ZM24.1579 19.57L23.2489 19.99L23.1459 19.41L24.1579 19.57ZM23.1539 14.556L23.2509 13.978L24.1579 14.398L23.1539 14.556ZM24.1829 13.862H25.8349L25.0049 14.244L24.1829 13.862ZM25.8529 14.398L26.7599 13.978L26.8569 14.556L25.8529 14.398ZM28.6249 12.568L26.9069 13.364H23.1039L21.3849 12.568H28.6249ZM22.7679 13.752L22.6219 14.649L21.7109 14.794L20.7759 12.833L22.7679 13.752ZM22.3739 17.804L22.5369 18.791L21.9439 18.697L22.3739 17.804ZM21.8249 17.792V16.172L22.2189 16.978L21.8249 17.792ZM22.3739 16.15L21.9439 15.249L22.5369 15.155L22.3739 16.15ZM20.5049 13.423L21.3199 15.115V18.841L20.5049 20.533V13.423ZM21.7219 19.183L22.6319 19.327L22.7789 20.215L20.7779 21.133L21.7219 19.183ZM21.3849 21.399L23.1039 20.603H26.9069L28.6249 21.399H21.3849ZM27.2429 20.206L27.3889 19.327L28.2999 19.183L29.2329 21.131L27.2429 20.206ZM29.5059 20.535L28.6899 18.852V15.115L29.5059 13.423V20.535ZM37.4149 17.816L37.8459 18.717L37.2529 18.812L37.4149 17.816ZM37.2529 15.165L37.8449 15.26L37.4149 16.152L37.2529 15.165ZM37.5709 16.978L37.9649 16.165V17.799L37.5709 16.978ZM37.1569 14.638L37.0109 13.751L39.0109 12.834L38.0669 14.783L37.1569 14.638ZM37.0309 17.025L36.7199 18.884L34.8109 19.19L34.7789 19.174L34.7479 19.19L32.8479 18.884L32.5359 17.007L32.5439 16.957L32.5369 16.943L32.8479 15.072L34.7489 14.767L34.7829 14.784L34.8189 14.767L36.7299 15.072L37.0419 16.933L37.0119 16.99L37.0309 17.025ZM36.6349 19.41L36.5389 19.989L35.6309 19.569L36.6349 19.41ZM35.6069 20.094H33.9609L34.7839 19.711L35.6069 20.094ZM33.9359 19.57L33.0279 19.99L32.9249 19.41L33.9359 19.57ZM32.9329 14.556L33.0299 13.978L33.9359 14.398L32.9329 14.556ZM33.9619 13.862H35.6129L34.7839 14.244L33.9619 13.862ZM35.6309 14.398L36.5389 13.978L36.6349 14.556L35.6309 14.398ZM38.4029 12.568L36.6859 13.364H32.8819L31.1639 12.568H38.4029ZM32.5459 13.752L32.3999 14.649L31.4899 14.794L30.5549 12.833L32.5459 13.752ZM32.1519 17.804L32.3149 18.791L31.7229 18.697L32.1519 17.804ZM31.6029 17.792V16.172L31.9969 16.978L31.6029 17.792ZM32.1519 16.15L31.7219 15.249L32.3149 15.155L32.1519 16.15ZM30.2839 13.423L31.0989 15.115V18.841L30.2839 20.533V13.423ZM31.5009 19.183L32.4109 19.327L32.5569 20.215L30.5569 21.133L31.5009 19.183ZM31.1639 21.399L32.8819 20.603H36.6859L38.4029 21.399H31.1639ZM37.0209 20.206L37.1679 19.327L38.0779 19.183L39.0109 21.131L37.0209 20.206ZM39.2839 20.535L38.4689 18.852V15.115L39.2839 13.423V20.535ZM47.1939 17.816L47.6249 18.717L47.0309 18.812L47.1939 17.816ZM47.0309 15.165L47.6239 15.26L47.1939 16.152L47.0309 15.165ZM47.3489 16.978L47.7429 16.165V17.799L47.3489 16.978ZM46.9359 14.638L46.7899 13.751L48.7899 12.834L47.8459 14.783L46.9359 14.638ZM46.8099 17.025L46.4989 18.884L44.5889 19.19L44.5579 19.174L44.5269 19.19L42.6259 18.884L42.3139 17.007L42.3229 16.957L42.3149 16.943L42.6269 15.072L44.5269 14.767L44.5619 14.784L44.5969 14.767L46.5089 15.072L46.8199 16.933L46.7909 16.99L46.8099 17.025ZM46.4139 19.41L46.3169 19.989L45.4099 19.569L46.4139 19.41ZM45.3849 20.094H43.7399L44.5619 19.711L45.3849 20.094ZM43.7149 19.57L42.8069 19.99L42.7029 19.41L43.7149 19.57ZM42.7109 14.556L42.8079 13.978L43.7149 14.398L42.7109 14.556ZM43.7399 13.862H45.3919L44.5619 14.244L43.7399 13.862ZM45.4099 14.398L46.3169 13.978L46.4139 14.556L45.4099 14.398ZM48.1819 12.568L46.4639 13.364H42.6609L40.9429 12.568H48.1819ZM42.3249 13.752L42.1789 14.649L41.2679 14.794L40.3329 12.833L42.3249 13.752ZM41.9309 17.804L42.0939 18.791L41.5009 18.697L41.9309 17.804ZM41.3819 17.792V16.172L41.7759 16.978L41.3819 17.792ZM41.9309 16.15L41.5009 15.249L42.0939 15.155L41.9309 16.15ZM40.0619 13.423L40.8769 15.115V18.841L40.0619 20.533V13.423ZM41.2799 19.183L42.1889 19.327L42.3359 20.215L40.3359 21.133L41.2799 19.183ZM40.9429 21.399L42.6609 20.603H46.4639L48.1819 21.399H40.9429ZM46.7999 20.206L46.9459 19.327L47.8569 19.183L48.7899 21.131L46.7999 20.206ZM49.0629 20.535L48.2469 18.852V15.115L49.0629 13.423V20.535Z" fill="black" fill-opacity="0.2"/>
<path d="M40.0619 11.7H39.2839H30.2829H29.5059H20.5039H19.7269H10.7259H9.94893H0.169922V22.256H9.94893H10.7259H19.7269H20.5039H29.5059H30.2829H39.2839H40.0619H49.8399V11.7H40.0619ZM8.07993 17.816L8.50992 18.717L7.91693 18.812L8.07993 17.816ZM7.91693 15.165L8.50893 15.26L8.07993 16.152L7.91693 15.165ZM8.23492 16.978L8.62892 16.165V17.799L8.23492 16.978ZM7.82193 14.638L7.67493 13.751L9.67493 12.834L8.73093 14.783L7.82193 14.638ZM7.69592 17.025L7.38393 18.884L5.47493 19.19L5.44392 19.174L5.41292 19.19L3.51192 18.884L3.19992 17.007L3.20792 16.957L3.20093 16.943L3.51192 15.072L5.41292 14.767L5.44693 14.784L5.48293 14.767L7.39493 15.072L7.70592 16.933L7.67693 16.99L7.69592 17.025ZM7.29993 19.41L7.20293 19.989L6.29492 19.569L7.29993 19.41ZM6.27092 20.094H4.62492L5.44792 19.711L6.27092 20.094ZM4.60092 19.57L3.69193 19.99L3.58893 19.41L4.60092 19.57ZM3.59692 14.556L3.69392 13.978L4.60092 14.398L3.59692 14.556ZM4.62593 13.862H6.27792L5.44792 14.244L4.62593 13.862ZM6.29492 14.398L7.20293 13.978L7.29993 14.556L6.29492 14.398ZM9.06792 12.568L7.34993 13.364H3.54692L1.82793 12.568H9.06792ZM3.20993 13.752L3.06493 14.649L2.15393 14.794L1.21892 12.833L3.20993 13.752ZM2.81592 17.804L2.97992 18.791L2.38692 18.697L2.81592 17.804ZM2.26793 17.792V16.172L2.66193 16.978L2.26793 17.792ZM2.81592 16.15L2.38593 15.249L2.97992 15.155L2.81592 16.15ZM0.947922 13.423L1.76292 15.115V18.841L0.947922 20.533V13.423ZM2.16492 19.183L3.07492 19.327L3.22092 20.215L1.22092 21.133L2.16492 19.183ZM1.82793 21.399L3.54692 20.603H7.34993L9.06792 21.399H1.82793ZM7.68593 20.206L7.83192 19.327L8.74193 19.183L9.67592 21.131L7.68593 20.206ZM9.94893 20.535L9.13292 18.852V15.115L9.94893 13.423V20.535ZM17.8579 17.816L18.2889 18.717L17.6959 18.812L17.8579 17.816ZM17.6959 15.165L18.2879 15.26L17.8579 16.152L17.6959 15.165ZM18.0129 16.978L18.4069 16.165V17.799L18.0129 16.978ZM17.5999 14.638L17.4539 13.751L19.4539 12.834L18.5099 14.783L17.5999 14.638ZM17.4739 17.025L17.1629 18.884L15.2539 19.19L15.2219 19.174L15.1909 19.19L13.2909 18.884L12.9789 17.007L12.9869 16.957L12.9799 16.943L13.2909 15.072L15.1909 14.767L15.2259 14.784L15.2619 14.767L17.1729 15.072L17.4849 16.933L17.4549 16.99L17.4739 17.025ZM17.0779 19.41L16.9809 19.989L16.0739 19.569L17.0779 19.41ZM16.0499 20.094H14.4039L15.2259 19.711L16.0499 20.094ZM14.3789 19.57L13.4709 19.99L13.3679 19.41L14.3789 19.57ZM13.3759 14.556L13.4719 13.978L14.3789 14.398L13.3759 14.556ZM14.4049 13.862H16.0559L15.2269 14.244L14.4049 13.862ZM16.0739 14.398L16.9809 13.978L17.0779 14.556L16.0739 14.398ZM18.8459 12.568L17.1289 13.364H13.3249L11.6069 12.568H18.8459ZM12.9889 13.752L12.8429 14.649L11.9329 14.794L10.9969 12.833L12.9889 13.752ZM12.5949 17.804L12.7579 18.791L12.1659 18.697L12.5949 17.804ZM12.0459 17.792V16.172L12.4399 16.978L12.0459 17.792ZM12.5949 16.15L12.1649 15.249L12.7579 15.155L12.5949 16.15ZM10.7269 13.423L11.5419 15.115V18.841L10.7269 20.533V13.423ZM11.9439 19.183L12.8539 19.327L12.9999 20.215L10.9999 21.133L11.9439 19.183ZM11.6069 21.399L13.3249 20.603H17.1289L18.8459 21.399H11.6069ZM17.4639 20.206L17.6109 19.327L18.5209 19.183L19.4539 21.131L17.4639 20.206ZM19.7269 20.535L18.9109 18.852V15.115L19.7269 13.423V20.535ZM27.6369 17.816L28.0669 18.717L27.4739 18.812L27.6369 17.816ZM27.4739 15.165L28.0669 15.26L27.6369 16.152L27.4739 15.165ZM27.7919 16.978L28.1859 16.165V17.799L27.7919 16.978ZM27.3789 14.638L27.2319 13.751L29.2329 12.834L28.2879 14.783L27.3789 14.638ZM27.2529 17.025L26.9419 18.884L25.0319 19.19L25.0009 19.174L24.9699 19.19L23.0689 18.884L22.7569 17.007L22.7649 16.957L22.7579 16.943L23.0689 15.072L24.9699 14.767L25.0039 14.784L25.0399 14.767L26.9519 15.072L27.2629 16.933L27.2339 16.99L27.2529 17.025ZM26.8569 19.41L26.7599 19.989L25.8519 19.569L26.8569 19.41ZM25.8279 20.094H24.1829L25.0049 19.711L25.8279 20.094ZM24.1579 19.57L23.2489 19.99L23.1459 19.41L24.1579 19.57ZM23.1539 14.556L23.2509 13.978L24.1579 14.398L23.1539 14.556ZM24.1829 13.862H25.8349L25.0049 14.244L24.1829 13.862ZM25.8529 14.398L26.7599 13.978L26.8569 14.556L25.8529 14.398ZM28.6249 12.568L26.9069 13.364H23.1039L21.3849 12.568H28.6249ZM22.7679 13.752L22.6219 14.649L21.7109 14.794L20.7759 12.833L22.7679 13.752ZM22.3739 17.804L22.5369 18.791L21.9439 18.697L22.3739 17.804ZM21.8249 17.792V16.172L22.2189 16.978L21.8249 17.792ZM22.3739 16.15L21.9439 15.249L22.5369 15.155L22.3739 16.15ZM20.5049 13.423L21.3199 15.115V18.841L20.5049 20.533V13.423ZM21.7219 19.183L22.6319 19.327L22.7789 20.215L20.7779 21.133L21.7219 19.183ZM21.3849 21.399L23.1039 20.603H26.9069L28.6249 21.399H21.3849ZM27.2429 20.206L27.3889 19.327L28.2999 19.183L29.2329 21.131L27.2429 20.206ZM29.5059 20.535L28.6899 18.852V15.115L29.5059 13.423V20.535ZM37.4149 17.816L37.8459 18.717L37.2529 18.812L37.4149 17.816ZM37.2529 15.165L37.8449 15.26L37.4149 16.152L37.2529 15.165ZM37.5709 16.978L37.9649 16.165V17.799L37.5709 16.978ZM37.1569 14.638L37.0109 13.751L39.0109 12.834L38.0669 14.783L37.1569 14.638ZM37.0309 17.025L36.7199 18.884L34.8109 19.19L34.7789 19.174L34.7479 19.19L32.8479 18.884L32.5359 17.007L32.5439 16.957L32.5369 16.943L32.8479 15.072L34.7489 14.767L34.7829 14.784L34.8189 14.767L36.7299 15.072L37.0419 16.933L37.0119 16.99L37.0309 17.025ZM36.6349 19.41L36.5389 19.989L35.6309 19.569L36.6349 19.41ZM35.6069 20.094H33.9609L34.7839 19.711L35.6069 20.094ZM33.9359 19.57L33.0279 19.99L32.9249 19.41L33.9359 19.57ZM32.9329 14.556L33.0299 13.978L33.9359 14.398L32.9329 14.556ZM33.9619 13.862H35.6129L34.7839 14.244L33.9619 13.862ZM35.6309 14.398L36.5389 13.978L36.6349 14.556L35.6309 14.398ZM38.4029 12.568L36.6859 13.364H32.8819L31.1639 12.568H38.4029ZM32.5459 13.752L32.3999 14.649L31.4899 14.794L30.5549 12.833L32.5459 13.752ZM32.1519 17.804L32.3149 18.791L31.7229 18.697L32.1519 17.804ZM31.6029 17.792V16.172L31.9969 16.978L31.6029 17.792ZM32.1519 16.15L31.7219 15.249L32.3149 15.155L32.1519 16.15ZM30.2839 13.423L31.0989 15.115V18.841L30.2839 20.533V13.423ZM31.5009 19.183L32.4109 19.327L32.5569 20.215L30.5569 21.133L31.5009 19.183ZM31.1639 21.399L32.8819 20.603H36.6859L38.4029 21.399H31.1639ZM37.0209 20.206L37.1679 19.327L38.0779 19.183L39.0109 21.131L37.0209 20.206ZM39.2839 20.535L38.4689 18.852V15.115L39.2839 13.423V20.535ZM47.1939 17.816L47.6249 18.717L47.0309 18.812L47.1939 17.816ZM47.0309 15.165L47.6239 15.26L47.1939 16.152L47.0309 15.165ZM47.3489 16.978L47.7429 16.165V17.799L47.3489 16.978ZM46.9359 14.638L46.7899 13.751L48.7899 12.834L47.8459 14.783L46.9359 14.638ZM46.8099 17.025L46.4989 18.884L44.5889 19.19L44.5579 19.174L44.5269 19.19L42.6259 18.884L42.3139 17.007L42.3229 16.957L42.3149 16.943L42.6269 15.072L44.5269 14.767L44.5619 14.784L44.5969 14.767L46.5089 15.072L46.8199 16.933L46.7909 16.99L46.8099 17.025ZM46.4139 19.41L46.3169 19.989L45.4099 19.569L46.4139 19.41ZM45.3849 20.094H43.7399L44.5619 19.711L45.3849 20.094ZM43.7149 19.57L42.8069 19.99L42.7029 19.41L43.7149 19.57ZM42.7109 14.556L42.8079 13.978L43.7149 14.398L42.7109 14.556ZM43.7399 13.862H45.3919L44.5619 14.244L43.7399 13.862ZM45.4099 14.398L46.3169 13.978L46.4139 14.556L45.4099 14.398ZM48.1819 12.568L46.4639 13.364H42.6609L40.9429 12.568H48.1819ZM42.3249 13.752L42.1789 14.649L41.2679 14.794L40.3329 12.833L42.3249 13.752ZM41.9309 17.804L42.0939 18.791L41.5009 18.697L41.9309 17.804ZM41.3819 17.792V16.172L41.7759 16.978L41.3819 17.792ZM41.9309 16.15L41.5009 15.249L42.0939 15.155L41.9309 16.15ZM40.0619 13.423L40.8769 15.115V18.841L40.0619 20.533V13.423ZM41.2799 19.183L42.1889 19.327L42.3359 20.215L40.3359 21.133L41.2799 19.183ZM40.9429 21.399L42.6609 20.603H46.4639L48.1819 21.399H40.9429ZM46.7999 20.206L46.9459 19.327L47.8569 19.183L48.7899 21.131L46.7999 20.206ZM49.0629 20.535L48.2469 18.852V15.115L49.0629 13.423V20.535Z" fill="black" fill-opacity="0.2"/>
<path d="M40.0619 11.7H39.2839H30.2829H29.5059H20.5039H19.7269H10.7259H9.94893H0.169922V22.256H9.94893H10.7259H19.7269H20.5039H29.5059H30.2829H39.2839H40.0619H49.8399V11.7H40.0619ZM8.07993 17.816L8.50992 18.717L7.91693 18.812L8.07993 17.816ZM7.91693 15.165L8.50893 15.26L8.07993 16.152L7.91693 15.165ZM8.23492 16.978L8.62892 16.165V17.799L8.23492 16.978ZM7.82193 14.638L7.67493 13.751L9.67493 12.834L8.73093 14.783L7.82193 14.638ZM7.69592 17.025L7.38393 18.884L5.47493 19.19L5.44392 19.174L5.41292 19.19L3.51192 18.884L3.19992 17.007L3.20792 16.957L3.20093 16.943L3.51192 15.072L5.41292 14.767L5.44693 14.784L5.48293 14.767L7.39493 15.072L7.70592 16.933L7.67693 16.99L7.69592 17.025ZM7.29993 19.41L7.20293 19.989L6.29492 19.569L7.29993 19.41ZM6.27092 20.094H4.62492L5.44792 19.711L6.27092 20.094ZM4.60092 19.57L3.69193 19.99L3.58893 19.41L4.60092 19.57ZM3.59692 14.556L3.69392 13.978L4.60092 14.398L3.59692 14.556ZM4.62593 13.862H6.27792L5.44792 14.244L4.62593 13.862ZM6.29492 14.398L7.20293 13.978L7.29993 14.556L6.29492 14.398ZM9.06792 12.568L7.34993 13.364H3.54692L1.82793 12.568H9.06792ZM3.20993 13.752L3.06493 14.649L2.15393 14.794L1.21892 12.833L3.20993 13.752ZM2.81592 17.804L2.97992 18.791L2.38692 18.697L2.81592 17.804ZM2.26793 17.792V16.172L2.66193 16.978L2.26793 17.792ZM2.81592 16.15L2.38593 15.249L2.97992 15.155L2.81592 16.15ZM0.947922 13.423L1.76292 15.115V18.841L0.947922 20.533V13.423ZM2.16492 19.183L3.07492 19.327L3.22092 20.215L1.22092 21.133L2.16492 19.183ZM1.82793 21.399L3.54692 20.603H7.34993L9.06792 21.399H1.82793ZM7.68593 20.206L7.83192 19.327L8.74193 19.183L9.67592 21.131L7.68593 20.206ZM9.94893 20.535L9.13292 18.852V15.115L9.94893 13.423V20.535ZM17.8579 17.816L18.2889 18.717L17.6959 18.812L17.8579 17.816ZM17.6959 15.165L18.2879 15.26L17.8579 16.152L17.6959 15.165ZM18.0129 16.978L18.4069 16.165V17.799L18.0129 16.978ZM17.5999 14.638L17.4539 13.751L19.4539 12.834L18.5099 14.783L17.5999 14.638ZM17.4739 17.025L17.1629 18.884L15.2539 19.19L15.2219 19.174L15.1909 19.19L13.2909 18.884L12.9789 17.007L12.9869 16.957L12.9799 16.943L13.2909 15.072L15.1909 14.767L15.2259 14.784L15.2619 14.767L17.1729 15.072L17.4849 16.933L17.4549 16.99L17.4739 17.025ZM17.0779 19.41L16.9809 19.989L16.0739 19.569L17.0779 19.41ZM16.0499 20.094H14.4039L15.2259 19.711L16.0499 20.094ZM14.3789 19.57L13.4709 19.99L13.3679 19.41L14.3789 19.57ZM13.3759 14.556L13.4719 13.978L14.3789 14.398L13.3759 14.556ZM14.4049 13.862H16.0559L15.2269 14.244L14.4049 13.862ZM16.0739 14.398L16.9809 13.978L17.0779 14.556L16.0739 14.398ZM18.8459 12.568L17.1289 13.364H13.3249L11.6069 12.568H18.8459ZM12.9889 13.752L12.8429 14.649L11.9329 14.794L10.9969 12.833L12.9889 13.752ZM12.5949 17.804L12.7579 18.791L12.1659 18.697L12.5949 17.804ZM12.0459 17.792V16.172L12.4399 16.978L12.0459 17.792ZM12.5949 16.15L12.1649 15.249L12.7579 15.155L12.5949 16.15ZM10.7269 13.423L11.5419 15.115V18.841L10.7269 20.533V13.423ZM11.9439 19.183L12.8539 19.327L12.9999 20.215L10.9999 21.133L11.9439 19.183ZM11.6069 21.399L13.3249 20.603H17.1289L18.8459 21.399H11.6069ZM17.4639 20.206L17.6109 19.327L18.5209 19.183L19.4539 21.131L17.4639 20.206ZM19.7269 20.535L18.9109 18.852V15.115L19.7269 13.423V20.535ZM27.6369 17.816L28.0669 18.717L27.4739 18.812L27.6369 17.816ZM27.4739 15.165L28.0669 15.26L27.6369 16.152L27.4739 15.165ZM27.7919 16.978L28.1859 16.165V17.799L27.7919 16.978ZM27.3789 14.638L27.2319 13.751L29.2329 12.834L28.2879 14.783L27.3789 14.638ZM27.2529 17.025L26.9419 18.884L25.0319 19.19L25.0009 19.174L24.9699 19.19L23.0689 18.884L22.7569 17.007L22.7649 16.957L22.7579 16.943L23.0689 15.072L24.9699 14.767L25.0039 14.784L25.0399 14.767L26.9519 15.072L27.2629 16.933L27.2339 16.99L27.2529 17.025ZM26.8569 19.41L26.7599 19.989L25.8519 19.569L26.8569 19.41ZM25.8279 20.094H24.1829L25.0049 19.711L25.8279 20.094ZM24.1579 19.57L23.2489 19.99L23.1459 19.41L24.1579 19.57ZM23.1539 14.556L23.2509 13.978L24.1579 14.398L23.1539 14.556ZM24.1829 13.862H25.8349L25.0049 14.244L24.1829 13.862ZM25.8529 14.398L26.7599 13.978L26.8569 14.556L25.8529 14.398ZM28.6249 12.568L26.9069 13.364H23.1039L21.3849 12.568H28.6249ZM22.7679 13.752L22.6219 14.649L21.7109 14.794L20.7759 12.833L22.7679 13.752ZM22.3739 17.804L22.5369 18.791L21.9439 18.697L22.3739 17.804ZM21.8249 17.792V16.172L22.2189 16.978L21.8249 17.792ZM22.3739 16.15L21.9439 15.249L22.5369 15.155L22.3739 16.15ZM20.5049 13.423L21.3199 15.115V18.841L20.5049 20.533V13.423ZM21.7219 19.183L22.6319 19.327L22.7789 20.215L20.7779 21.133L21.7219 19.183ZM21.3849 21.399L23.1039 20.603H26.9069L28.6249 21.399H21.3849ZM27.2429 20.206L27.3889 19.327L28.2999 19.183L29.2329 21.131L27.2429 20.206ZM29.5059 20.535L28.6899 18.852V15.115L29.5059 13.423V20.535ZM37.4149 17.816L37.8459 18.717L37.2529 18.812L37.4149 17.816ZM37.2529 15.165L37.8449 15.26L37.4149 16.152L37.2529 15.165ZM37.5709 16.978L37.9649 16.165V17.799L37.5709 16.978ZM37.1569 14.638L37.0109 13.751L39.0109 12.834L38.0669 14.783L37.1569 14.638ZM37.0309 17.025L36.7199 18.884L34.8109 19.19L34.7789 19.174L34.7479 19.19L32.8479 18.884L32.5359 17.007L32.5439 16.957L32.5369 16.943L32.8479 15.072L34.7489 14.767L34.7829 14.784L34.8189 14.767L36.7299 15.072L37.0419 16.933L37.0119 16.99L37.0309 17.025ZM36.6349 19.41L36.5389 19.989L35.6309 19.569L36.6349 19.41ZM35.6069 20.094H33.9609L34.7839 19.711L35.6069 20.094ZM33.9359 19.57L33.0279 19.99L32.9249 19.41L33.9359 19.57ZM32.9329 14.556L33.0299 13.978L33.9359 14.398L32.9329 14.556ZM33.9619 13.862H35.6129L34.7839 14.244L33.9619 13.862ZM35.6309 14.398L36.5389 13.978L36.6349 14.556L35.6309 14.398ZM38.4029 12.568L36.6859 13.364H32.8819L31.1639 12.568H38.4029ZM32.5459 13.752L32.3999 14.649L31.4899 14.794L30.5549 12.833L32.5459 13.752ZM32.1519 17.804L32.3149 18.791L31.7229 18.697L32.1519 17.804ZM31.6029 17.792V16.172L31.9969 16.978L31.6029 17.792ZM32.1519 16.15L31.7219 15.249L32.3149 15.155L32.1519 16.15ZM30.2839 13.423L31.0989 15.115V18.841L30.2839 20.533V13.423ZM31.5009 19.183L32.4109 19.327L32.5569 20.215L30.5569 21.133L31.5009 19.183ZM31.1639 21.399L32.8819 20.603H36.6859L38.4029 21.399H31.1639ZM37.0209 20.206L37.1679 19.327L38.0779 19.183L39.0109 21.131L37.0209 20.206ZM39.2839 20.535L38.4689 18.852V15.115L39.2839 13.423V20.535ZM47.1939 17.816L47.6249 18.717L47.0309 18.812L47.1939 17.816ZM47.0309 15.165L47.6239 15.26L47.1939 16.152L47.0309 15.165ZM47.3489 16.978L47.7429 16.165V17.799L47.3489 16.978ZM46.9359 14.638L46.7899 13.751L48.7899 12.834L47.8459 14.783L46.9359 14.638ZM46.8099 17.025L46.4989 18.884L44.5889 19.19L44.5579 19.174L44.5269 19.19L42.6259 18.884L42.3139 17.007L42.3229 16.957L42.3149 16.943L42.6269 15.072L44.5269 14.767L44.5619 14.784L44.5969 14.767L46.5089 15.072L46.8199 16.933L46.7909 16.99L46.8099 17.025ZM46.4139 19.41L46.3169 19.989L45.4099 19.569L46.4139 19.41ZM45.3849 20.094H43.7399L44.5619 19.711L45.3849 20.094ZM43.7149 19.57L42.8069 19.99L42.7029 19.41L43.7149 19.57ZM42.7109 14.556L42.8079 13.978L43.7149 14.398L42.7109 14.556ZM43.7399 13.862H45.3919L44.5619 14.244L43.7399 13.862ZM45.4099 14.398L46.3169 13.978L46.4139 14.556L45.4099 14.398ZM48.1819 12.568L46.4639 13.364H42.6609L40.9429 12.568H48.1819ZM42.3249 13.752L42.1789 14.649L41.2679 14.794L40.3329 12.833L42.3249 13.752ZM41.9309 17.804L42.0939 18.791L41.5009 18.697L41.9309 17.804ZM41.3819 17.792V16.172L41.7759 16.978L41.3819 17.792ZM41.9309 16.15L41.5009 15.249L42.0939 15.155L41.9309 16.15ZM40.0619 13.423L40.8769 15.115V18.841L40.0619 20.533V13.423ZM41.2799 19.183L42.1889 19.327L42.3359 20.215L40.3359 21.133L41.2799 19.183ZM40.9429 21.399L42.6609 20.603H46.4639L48.1819 21.399H40.9429ZM46.7999 20.206L46.9459 19.327L47.8569 19.183L48.7899 21.131L46.7999 20.206ZM49.0629 20.535L48.2469 18.852V15.115L49.0629 13.423V20.535Z" fill="black" fill-opacity="0.2"/>
</g>
</g>
</g>
</g>
</svg>
