<svg width="26" height="26" viewBox="0 0 26 26" fill="none" xmlns="http://www.w3.org/2000/svg">
<path d="M17.3995 20.149H8.78711" stroke="#1D1F1E" stroke-width="2" stroke-linecap="round" stroke-linejoin="round"/>
<path d="M20.6941 20.1493H22.8984C23.5059 20.1493 23.9983 19.6569 23.9983 19.0494V12.3238C23.9983 12.0441 23.9449 11.7669 23.841 11.5072L22.3509 7.78294C22.0168 6.94784 21.208 6.40027 20.3085 6.40027H16.2988" stroke="#1D1F1E" stroke-width="2" stroke-linecap="round" stroke-linejoin="round"/>
<path d="M23.9974 14.0998H20.1476C19.8439 14.0998 19.5977 13.8536 19.5977 13.5498V9.70007H23.1174" stroke="#1D1F1E" stroke-width="2" stroke-linecap="round" stroke-linejoin="round"/>
<path d="M20.2111 18.9872C20.6829 19.459 20.8241 20.1687 20.5688 20.7852C20.3135 21.4017 19.7119 21.8037 19.0446 21.8038C18.3772 21.8038 17.7756 21.4019 17.5202 20.7854C17.2648 20.1689 17.4059 19.4592 17.8778 18.9873L17.8779 18.9872C18.1873 18.6778 18.6069 18.504 19.0445 18.504C19.482 18.504 19.9017 18.6778 20.2111 18.9872V18.9872" stroke="#1D1F1E" stroke-width="2" stroke-linecap="round" stroke-linejoin="round"/>
<path d="M8.11145 18.9871C8.58334 19.459 8.72453 20.1686 8.46919 20.7851C8.21385 21.4017 7.61226 21.8037 6.94494 21.8037C6.27763 21.8038 5.676 21.4018 5.42059 20.7853C5.16519 20.1688 5.30631 19.4591 5.77815 18.9872L5.77848 18.9869C6.08786 18.6775 6.50748 18.5037 6.945 18.5038C7.38252 18.5038 7.8021 18.6777 8.11142 18.9871V18.9871" stroke="#1D1F1E" stroke-width="2" stroke-linecap="round" stroke-linejoin="round"/>
<path d="M5.29978 20.1491H3.09993C2.49245 20.1491 2 19.6566 2 19.0491V5.30006C2 4.69259 2.49245 4.20013 3.09993 4.20013H15.1991C15.8066 4.20013 16.299 4.69259 16.299 5.30006V15.1994" stroke="#1D1F1E" stroke-width="2" stroke-linecap="round" stroke-linejoin="round"/>
<path d="M16.299 15.1999H2" stroke="#1D1F1E" stroke-width="2" stroke-linecap="round" stroke-linejoin="round"/>
</svg>
