<svg width="38" height="16" viewBox="0 0 38 16" fill="none" xmlns="http://www.w3.org/2000/svg">
<mask id="mask0_3056_17226" style="mask-type:luminance" maskUnits="userSpaceOnUse" x="0" y="0" width="38" height="16">
<path d="M37.0258 0H0V15.1475H37.0258V0Z" fill="white"/>
</mask>
<g mask="url(#mask0_3056_17226)">
<path d="M36.021 5.98037C36.233 5.89837 36.449 5.85367 36.661 5.84777C36.864 5.84207 37.026 5.67587 37.026 5.47297V3.49967C37.026 3.29257 36.858 3.12467 36.651 3.12467C36.385 3.12467 36.127 3.14587 35.866 3.18917L35.717 3.21257C34.014 3.50507 32.71 4.55017 31.493 5.67777C31.054 5.13427 30.414 4.62047 29.535 4.10837C28.772 3.66307 27.978 3.36717 27.177 3.22877C27.112 3.21777 27.036 3.20897 27.026 3.21197C26.62 3.14827 25.99 3.14747 25.963 3.14747H24.689C24.459 2.82917 24.206 2.52597 23.923 2.23997L23.871 2.19497C23.166 1.50497 22.341 0.957473 21.426 0.567473L21.396 0.544973H21.343C19.461 -0.205027 17.398 -0.167526 15.598 0.574974L15.561 0.582474C14.683 0.949974 13.903 1.47497 13.213 2.15747L13.153 2.21747L13.146 2.22497C12.862 2.51647 12.602 2.82687 12.368 3.15477H11.061C9.339 3.16127 7.744 3.78677 6.186 5.06847C5.939 5.27137 5.69901 5.48387 5.46301 5.69827C4.18801 4.31637 2.79201 3.47447 1.27301 3.19937L1.15701 3.18107C0.894013 3.14367 0.632014 3.12467 0.377014 3.12467C0.170014 3.12467 0.00201416 3.29257 0.00201416 3.49967V5.47267C0.00201416 5.67557 0.162997 5.84177 0.365997 5.84787C0.958997 5.86467 1.58999 6.17747 2.01199 6.41037C2.53499 6.69897 2.99599 7.06147 3.38199 7.48407C3.40299 7.50817 3.42701 7.53317 3.44901 7.55717C2.78401 8.14397 2.08699 8.72347 1.23599 9.03527L1.005 9.11957C0.793005 9.20157 0.577014 9.24627 0.364014 9.25217C0.161014 9.25787 0 9.42387 0 9.62677V11.6003C0 11.8074 0.168 11.9753 0.375 11.9753C0.641 11.9753 0.899004 11.9541 1.16 11.9108L1.30899 11.8874C3.01199 11.5949 4.31599 10.5498 5.53299 9.42217C5.97199 9.96567 6.612 10.4795 7.491 10.9916C8.254 11.4369 9.048 11.7328 9.849 11.8712C9.914 11.8829 9.99199 11.8932 9.99899 11.888C10.406 11.9517 11.036 11.9525 11.062 11.9525H12.339C12.572 12.2808 12.831 12.5934 13.116 12.8899L13.161 12.9349L13.206 12.9649C13.911 13.6474 14.728 14.1874 15.643 14.5774C15.658 14.5924 15.681 14.5999 15.703 14.5999C16.603 14.9674 17.548 15.1474 18.508 15.1474C19.536 15.1474 20.526 14.9449 21.456 14.5549L21.493 14.5474C22.371 14.1724 23.158 13.6474 23.826 12.9799C23.863 12.9574 23.893 12.9349 23.916 12.8974C24.205 12.5932 24.468 12.2753 24.703 11.9452H25.965C27.687 11.9386 29.281 11.3131 30.84 10.0314C31.087 9.82847 31.327 9.61597 31.562 9.40167C32.838 10.7836 34.234 11.6255 35.753 11.9006L35.868 11.9189C36.131 11.9563 36.394 11.9753 36.648 11.9753C36.856 11.9753 37.023 11.8074 37.023 11.6003V9.62727C37.023 9.42437 36.862 9.25817 36.66 9.25207C36.066 9.23527 35.436 8.92247 35.013 8.68957C34.491 8.40097 34.029 8.03847 33.644 7.61587C33.623 7.59177 33.599 7.56677 33.576 7.54267C34.242 6.95587 34.938 6.37647 35.789 6.06457L36.021 5.98037ZM25.963 3.89737C25.969 3.89737 26.562 3.89807 26.968 3.95747C26.992 3.95747 27.02 3.96257 27.047 3.96777C27.762 4.09077 28.472 4.35597 29.157 4.75587C29.945 5.21587 30.535 5.68457 30.909 6.14817L30.943 6.19427C30.916 6.21967 30.889 6.24507 30.862 6.27047C30.671 6.45287 30.48 6.63447 30.29 6.81097C30.202 6.89247 30.112 6.97557 30.022 7.05857C29.831 6.86857 29.631 6.68637 29.392 6.49307C29.136 6.28507 28.861 6.09387 28.575 5.92397C27.568 5.32847 26.708 5.06847 25.963 5.11247H25.69C25.636 4.95407 25.585 4.79477 25.521 4.63997V4.60247C25.461 4.46747 25.401 4.33247 25.326 4.19747C25.273 4.09257 25.202 3.99947 25.145 3.89737H25.963ZM25.904 5.86187L25.987 5.86177C26.592 5.81707 27.332 6.06097 28.193 6.57007C28.448 6.72097 28.693 6.89087 28.92 7.07547C29.125 7.24197 29.298 7.39867 29.462 7.55937C28.769 8.15777 28.004 8.72057 27.124 9.02377L26.88 9.10197C26.589 9.20527 26.272 9.26017 25.963 9.26017H25.9C26.031 8.70107 26.106 8.13357 26.106 7.56497C26.106 6.98647 26.032 6.41727 25.904 5.86187ZM18.523 10.37L16.536 9.55247L15.711 7.56497L16.536 5.57747L18.523 4.75997L20.511 5.57747L21.336 7.56497L20.511 9.55247L18.523 10.37ZM20.338 10.355L20.241 10.9475L20.151 11.5175L19.371 10.9475L19.198 10.82L20.338 10.355ZM17.848 10.805L17.653 10.9475L16.888 11.495L16.806 10.9475L16.708 10.3325L17.848 10.805ZM11.863 7.56497L13.918 6.14747L14.953 7.56497L13.918 8.98247L11.863 7.56497ZM13.296 9.36497L12.028 9.92747C11.826 9.34997 11.706 8.78747 11.646 8.21747L13.296 9.36497ZM11.661 6.91247C11.706 6.36497 11.826 5.81747 12.013 5.27747L13.288 5.77247L11.661 6.91247ZM14.571 5.94497L15.733 5.77247L15.268 6.88997L14.571 5.94497ZM15.283 8.23997L15.748 9.37247L14.586 9.18497L15.283 8.23997ZM16.716 4.77497L16.806 4.19747L16.903 3.61247L17.706 4.19747L17.856 4.30997L16.716 4.77497ZM19.198 4.32497L19.378 4.19747L20.166 3.63497L20.248 4.19747L20.338 4.79747L19.198 4.32497ZM21.298 5.75747L22.468 5.94497L21.778 6.88997L21.298 5.75747ZM21.786 8.23247L22.483 9.18497L21.298 9.37247L21.786 8.23247ZM22.101 7.56497L23.136 6.14747L25.183 7.56497L23.136 8.98247L22.101 7.56497ZM25.386 8.21747C25.348 8.76497 25.228 9.31997 25.033 9.85247L23.758 9.35747L25.386 8.21747ZM23.751 5.76497L25.018 5.20247C25.221 5.77247 25.348 6.34247 25.401 6.90497L23.751 5.76497ZM23.676 4.19747L23.863 3.17747C24.118 3.49997 24.358 3.83747 24.561 4.19747C24.628 4.31747 24.696 4.44497 24.756 4.57247L23.511 5.12747L23.676 4.19747ZM23.001 4.19747L22.798 5.29997L21.051 5.02247L20.923 4.19747L20.788 3.29747L23.241 2.85497L23.001 4.19747ZM21.441 1.29497C21.981 1.56497 22.468 1.87247 22.911 2.23247L20.946 2.58497L21.441 1.29497ZM20.803 1.04747L20.316 2.31497L19.183 0.694974C19.716 0.754974 20.263 0.867474 20.803 1.04747ZM18.523 0.912474L19.941 2.94497L18.523 3.99497L17.113 2.95997L18.523 0.912474ZM17.856 0.679973L16.708 2.34497L16.138 1.07747C16.708 0.867474 17.286 0.739973 17.856 0.679973ZM15.531 1.33997L16.086 2.58497L14.136 2.23247C14.578 1.88747 15.043 1.58747 15.531 1.33997ZM16.266 3.29747L16.123 4.19747L15.996 5.03747L14.256 5.30747L14.053 4.19747L13.813 2.85497L16.266 3.29747ZM13.191 3.18497L13.371 4.19747L13.543 5.14997L12.246 4.65497C12.328 4.49747 12.411 4.34747 12.501 4.19747C12.703 3.83747 12.936 3.49997 13.191 3.18497ZM2.375 5.75407C1.964 5.52697 1.37701 5.23477 0.752014 5.13367V3.89007C0.852014 3.89817 0.952009 3.90987 1.05301 3.92377L1.17999 3.94427C2.49599 4.18307 3.75 4.94717 4.914 6.20857C4.831 6.28717 4.74499 6.36607 4.66299 6.44397C4.44599 6.64957 4.225 6.85077 4.005 7.05297L3.939 6.98237C3.496 6.49597 2.969 6.08217 2.375 5.75407ZM1.185 11.1476L1.04099 11.1703C0.942985 11.1864 0.847 11.1989 0.75 11.2077V9.96547C0.925 9.93547 1.09901 9.88707 1.26901 9.82187L1.49399 9.73987C2.56499 9.34657 3.371 8.63167 4.151 7.94027C4.5 7.63047 4.83899 7.30967 5.17899 6.98817C5.65599 6.53627 6.14999 6.06827 6.66199 5.64787C8.08199 4.48037 9.52199 3.91057 11.063 3.90467H11.919C11.864 4.00437 11.794 4.09497 11.743 4.19737C11.661 4.34737 11.586 4.50487 11.519 4.66237L11.496 4.69237V4.75237C11.451 4.86357 11.418 4.97727 11.378 5.08967H11.063C10.67 5.08967 10.266 5.15927 9.90601 5.28817L9.66501 5.36517C8.26201 5.84857 7.18001 6.85267 6.22601 7.73967C6.03301 7.91837 5.841 8.10147 5.647 8.28607C4.325 9.54287 2.957 10.843 1.185 11.1476ZM11.138 9.23807L11.038 9.23817C10.431 9.28067 9.69401 9.03897 8.83301 8.52997C8.57801 8.37977 8.33399 8.20987 8.10599 8.02457C7.89999 7.85807 7.728 7.70137 7.564 7.54067C8.256 6.94227 9.02201 6.37947 9.90201 6.07637L10.146 5.99797C10.437 5.89467 10.754 5.83977 11.062 5.83977H11.158C11.023 6.40847 10.948 6.98607 10.948 7.56497C10.948 8.13297 11.016 8.69217 11.138 9.23807ZM11.062 11.2026C11.057 11.2026 10.464 11.2019 10.058 11.1425C10.033 11.1425 10.006 11.1374 9.979 11.1322C9.264 11.0092 8.55399 10.744 7.86899 10.3441C7.07999 9.88407 6.49 9.41537 6.116 8.95177L6.08301 8.90537C6.11001 8.88007 6.13699 8.85477 6.16299 8.82947C6.35499 8.64707 6.54599 8.46547 6.73599 8.28897C6.82399 8.20747 6.914 8.12437 7.004 8.04137C7.194 8.23137 7.395 8.41357 7.633 8.60687C7.89 8.81487 8.16499 9.00677 8.45099 9.17597C9.37999 9.72457 10.185 9.99337 10.887 9.99337C10.946 9.99337 11.005 9.99117 11.062 9.98747H11.346C11.402 10.1562 11.458 10.3253 11.526 10.49L11.533 10.5275C11.593 10.67 11.661 10.8125 11.736 10.9475C11.78 11.0367 11.841 11.1155 11.889 11.2026H11.062ZM13.371 10.9475L13.191 11.9525C12.928 11.6375 12.703 11.3075 12.501 10.9475C12.433 10.82 12.366 10.6925 12.298 10.5575L13.543 10.0025L13.371 10.9475ZM14.053 10.9475L14.256 9.82247L15.996 10.1075L16.131 10.9475L16.266 11.8325L13.813 12.275L14.053 10.9475ZM15.613 13.835C15.066 13.565 14.586 13.2575 14.136 12.8975L16.108 12.545L15.613 13.835ZM16.251 14.0825L16.731 12.815L17.863 14.435C17.338 14.3825 16.791 14.2625 16.251 14.0825ZM17.113 12.185L18.523 11.135L19.941 12.17L18.523 14.2175L17.113 12.185ZM19.198 14.45L20.346 12.785L20.908 14.0525C20.338 14.2625 19.761 14.39 19.198 14.45ZM21.516 13.79L20.968 12.545L22.918 12.8975C22.506 13.2275 22.041 13.5275 21.516 13.79ZM20.788 11.8325L20.923 10.9475L21.051 10.0925L22.798 9.82247L23.001 10.9475L23.241 12.275L20.788 11.8325ZM23.863 11.945L23.683 10.9475L23.511 9.97997L24.801 10.475C24.718 10.64 24.636 10.7975 24.546 10.9475C24.343 11.3 24.118 11.6375 23.863 11.945ZM34.651 9.34587C35.062 9.57297 35.649 9.86517 36.274 9.96627V11.21C36.174 11.2019 36.074 11.1902 35.973 11.1763L35.846 11.1558C34.53 10.917 33.276 10.1529 32.112 8.89147C32.195 8.81287 32.281 8.73397 32.363 8.65597C32.58 8.45047 32.801 8.24927 33.021 8.04697L33.086 8.11767C33.53 8.60387 34.057 9.01777 34.651 9.34587ZM35.532 5.36007C34.46 5.75337 33.654 6.46827 32.875 7.15967C32.526 7.46947 32.186 7.79027 31.847 8.11177C31.37 8.56367 30.876 9.03167 30.364 9.45207C28.944 10.6196 27.504 11.1894 25.963 11.1953H25.167C25.212 11.1126 25.262 11.0315 25.303 10.9475C25.378 10.7975 25.446 10.6475 25.513 10.49L25.558 10.3775C25.606 10.2565 25.643 10.1328 25.685 10.0102H25.963C26.356 10.0102 26.76 9.94057 27.12 9.81167L27.361 9.73477C28.763 9.25137 29.845 8.24727 30.8 7.36027C30.992 7.18157 31.185 6.99847 31.379 6.81387C32.701 5.55707 34.068 4.25697 35.84 3.95227L35.984 3.92957C36.082 3.91347 36.179 3.90097 36.276 3.89217V5.13437C36.1 5.16437 35.926 5.21277 35.757 5.27797L35.532 5.36007Z" fill="#333335"/>
</g>
</svg>
