<svg width="23" height="24" viewBox="0 0 23 24" fill="none" xmlns="http://www.w3.org/2000/svg">
<path fill-rule="evenodd" clip-rule="evenodd" d="M18.5134 4.65842C20.3805 6.36485 21.5515 8.69512 21.8032 11.2053C22.0549 13.7154 21.3698 16.23 19.8784 18.2699C18.387 20.3098 16.1936 21.7325 13.7159 22.2669C11.2383 22.8012 8.64972 22.41 6.44332 21.1677L5.62931 21.4229L2.03702 22.5481L2.85175 18.8914L3.03639 18.0621C1.59764 15.9834 0.978256 13.4503 1.2964 10.9462C1.61455 8.44211 2.84795 6.14216 4.76134 4.48508C6.67474 2.82801 9.1342 1.92979 11.6706 1.96176C14.207 1.99373 16.6428 2.95365 18.5134 4.65842ZM20.3685 12.7518C20.3685 12.7325 20.3685 12.7125 20.3721 12.6932C20.3756 12.6739 20.3721 12.6396 20.3756 12.6124C20.3756 12.566 20.3792 12.5188 20.3807 12.4694C20.3807 12.4423 20.3807 12.4151 20.3807 12.3879C20.3807 12.3422 20.3807 12.2957 20.3807 12.25C20.3807 12.2435 20.3807 12.2371 20.3807 12.2314C20.3807 12.2042 20.3807 12.1778 20.3807 12.1513C20.3807 12.1127 20.3807 12.0734 20.3807 12.0348C20.3807 11.9962 20.3807 11.9511 20.3771 11.9097C20.3771 11.8818 20.3771 11.8532 20.3771 11.8246C20.3771 11.7738 20.3721 11.7224 20.3685 11.6716C20.3685 11.6545 20.3685 11.6366 20.3685 11.6194C20.3641 11.5584 20.3591 11.4976 20.3534 11.4371V11.4192C20.2273 10.0615 19.7866 8.7514 19.066 7.59167C18.3454 6.43195 17.3645 5.45422 16.2002 4.73525C15.0359 4.01627 13.72 3.57562 12.3557 3.4479C10.9915 3.32017 9.61605 3.50885 8.33742 3.99911C7.05879 4.48937 5.91177 5.26787 4.98641 6.27349C4.06105 7.27911 3.38255 8.48448 3.00417 9.79496C2.62579 11.1054 2.55783 12.4853 2.80563 13.8264C3.05343 15.1674 3.61024 16.433 4.43235 17.5238L4.42445 17.5617L4.20891 18.5218L4.13707 18.8321L3.71462 20.7251L5.57183 20.1439L6.19186 19.9502L6.8629 19.7407C8.16852 20.5423 9.66083 20.9931 11.194 21.049C12.7271 21.105 14.2486 20.7641 15.6097 20.0597C16.9708 19.3554 18.1249 18.3117 18.9593 17.0306C19.7936 15.7496 20.2797 14.275 20.3699 12.7511L20.3685 12.7518Z" fill="#1D1F1E" stroke="#1D1D1B" stroke-width="0.5" stroke-miterlimit="2.61"/>
<path fill-rule="evenodd" clip-rule="evenodd" d="M6.64629 7.71835C6.18314 8.29148 6.02043 9.01571 6.08323 9.81321C5.8092 12.9979 10.3058 17.9943 13.2453 17.6905C14.173 17.7775 15.0065 17.4578 15.591 16.5641C15.8557 15.9826 15.7951 15.6392 15.7123 15.4636C15.4711 14.95 13.8804 14.3883 13.3609 14.1624C13.0533 14.0281 12.3618 14.5188 12.1712 14.7898C11.9807 15.0607 11.6503 14.8722 11.6503 14.8722C10.9038 14.4723 8.92421 12.1393 8.62377 11.3037C8.62377 11.3037 8.48104 10.9335 8.75008 10.7572C9.01912 10.581 9.54435 9.89106 9.44944 9.54992C9.35453 9.20879 8.59308 7.04753 8.59308 7.04753C8.59308 7.04753 8.33474 6.58125 7.42772 6.94222C7.12479 7.14729 6.85987 7.41041 6.64629 7.71835Z" fill="#1D1F1E"/>
</svg>
