<svg width="58" height="58" viewBox="0 0 58 58" fill="none" xmlns="http://www.w3.org/2000/svg">
<path d="M55.8677 21.0454C54.6452 16.914 52.4951 13.1127 49.6542 10.0207C44.4483 4.37342 36.7296 1 29.0112 1C21.6548 1 14.4796 3.93131 9.30754 9.05891C2.57361 15.7139 -0.38036 25.5844 1.61154 34.8003C2.82253 40.3557 5.70846 45.5177 9.74881 49.3448C16.5054 55.75 26.3291 58.3999 35.3604 56.284C40.9172 54.9691 46.0666 51.9258 49.8581 47.7025C54.4302 42.5979 56.9652 35.9544 56.9994 28.9808C57.0106 26.2648 56.6259 23.6034 55.8677 21.0454ZM48.7941 10.9624L49.1791 11.4017C50.8314 13.3051 52.1781 15.3752 53.2984 17.7294L53.423 18.002L47.0172 20.8214L48.7941 10.9624ZM29.0112 40.2896L21.0097 36.9736L17.6937 28.9808L21.0097 20.9793L29.0112 17.6719L37.0127 20.9793L40.3287 28.9808L37.0127 36.9736L29.0112 40.2896ZM36.673 38.501L35.6093 45.044L30.2675 41.128L36.673 38.501ZM27.7663 41.0705L22.3565 44.9866L21.3494 38.4321L27.7663 41.0705ZM16.2792 28.9808L11.7407 35.208L2.70941 28.9808L11.7407 22.7564L16.2792 28.9808ZM12.929 22.3832L19.4818 21.387L16.8451 27.7262L12.929 22.3832ZM16.9128 30.2268L19.5498 36.632L12.9971 35.5697L16.9128 30.2268ZM21.3494 19.4606L22.4131 12.9204L27.7548 16.8365L21.3494 19.4606ZM30.2561 16.891L35.6659 12.975L36.673 19.518L30.2561 16.891ZM38.4726 21.3181L45.0253 22.3948L41.1776 27.7233L38.4726 21.3181ZM41.1776 30.2383L45.0934 35.5697L38.4726 36.632L41.1776 30.2383ZM41.7435 28.9808L46.2817 22.7564L55.313 28.9808L46.2817 35.208L41.7435 28.9808ZM45.6704 21.1602L38.0086 19.9256L36.843 12.3434L47.6173 10.3939L45.6704 21.1602ZM39.9666 4.53136C42.4337 5.73144 44.6067 7.13532 46.5986 8.8206L47.0514 9.21679L37.1485 10.9825L39.6836 4.39643L39.9666 4.53136ZM30.7993 2.31205C33.21 2.48144 35.6998 3.00401 38.1671 3.85383L38.4499 3.94284L35.9602 10.4973L30.1995 2.26903L30.7993 2.31205ZM35.247 11.6629L29.0112 16.2594L22.7754 11.7203L29.0112 2.70825L35.247 11.6629ZM19.414 3.97728C22.0057 3.00401 24.6088 2.42694 27.1666 2.25755L27.7548 2.21155L22.0172 10.5317L19.1424 4.07777L19.414 3.97728ZM11.4237 8.8206C13.3818 7.18126 15.5095 5.80031 17.7503 4.7122L18.0219 4.58875L20.84 10.994L10.9601 9.20532L11.4237 8.8206ZM21.1794 12.3405L20.0138 19.983L12.3519 21.1602L10.4054 10.3939L21.1794 12.3405ZM4.54283 18.0366C5.74262 15.5675 7.14596 13.3941 8.84359 11.4131L9.2283 10.9509L11.0052 20.853L4.40703 18.3064L4.54283 18.0366ZM2.38126 27.2036C2.50557 24.7145 3.01517 22.211 3.9204 19.7678L4.02232 19.495L10.5636 22.0416L2.35857 27.7807L2.38126 27.2036ZM3.97695 38.501C3.04905 35.9085 2.49437 33.3045 2.32469 30.758L2.27934 30.1693L10.5412 35.897L4.07887 38.7823L3.97695 38.501ZM9.2283 47.002L8.84359 46.5484C7.19104 44.6593 5.84425 42.5864 4.72399 40.2207L4.59939 39.9595L11.0052 37.1431L9.2283 47.002ZM12.3519 36.8013L20.0138 38.0359L21.1794 45.6211L10.4054 47.5676L12.3519 36.8013ZM18.056 53.4302C15.5887 52.2187 13.4156 50.8147 11.4237 49.1294L10.9713 48.7447L20.8739 46.9676L18.3388 53.5652L18.056 53.4302ZM27.2231 55.6495C24.8012 55.4686 22.3226 54.9576 19.8553 54.1107L19.5725 54.0187L22.0622 47.4643L27.8229 55.6839L27.2231 55.6495ZM22.7754 46.2986L29.0112 41.705L35.247 46.2441L29.0112 55.2533L22.7754 46.2986ZM38.6084 53.9843C36.0167 54.9576 33.4136 55.5347 30.8561 55.7069L30.2675 55.75L36.0055 47.4327L38.88 53.8838L38.6084 53.9843ZM46.5986 49.1294C44.8103 50.6913 42.6714 52.0722 40.2721 53.2493L40.0005 53.3728L37.1823 46.9676L47.0399 48.7447L46.5986 49.1294ZM36.843 45.6211L38.0086 37.9699L45.6704 36.8013L47.6173 47.5676L36.843 45.6211ZM53.4796 39.9279C52.2801 42.3941 50.8764 44.556 49.1791 46.5484L48.7941 47.002L47.0172 37.1086L53.6154 39.6437L53.4796 39.9279ZM55.6411 30.758C55.5168 33.2471 55.0072 35.7506 54.102 38.1938L54.0001 38.4666L47.4588 35.92L55.6638 30.1808L55.6411 30.758ZM47.4812 22.0531L53.9435 19.1792L54.0454 19.4606C54.9733 22.0531 55.528 24.6571 55.6977 27.1922L55.743 27.7807L47.4812 22.0531Z" fill="#333335"/>
<path d="M55.8677 21.0454C54.6452 16.914 52.4951 13.1127 49.6542 10.0207C44.4483 4.37342 36.7296 1 29.0112 1C21.6548 1 14.4796 3.93131 9.30754 9.05891C2.57361 15.7139 -0.38036 25.5844 1.61154 34.8003C2.82253 40.3557 5.70846 45.5177 9.74881 49.3448C16.5054 55.75 26.3291 58.3999 35.3604 56.284C40.9172 54.9691 46.0666 51.9258 49.8581 47.7025C54.4302 42.5979 56.9652 35.9544 56.9994 28.9808C57.0106 26.2648 56.6259 23.6034 55.8677 21.0454ZM48.7941 10.9624L49.1791 11.4017C50.8314 13.3051 52.1781 15.3752 53.2984 17.7294L53.423 18.002L47.0172 20.8214L48.7941 10.9624ZM29.0112 40.2896L21.0097 36.9736L17.6937 28.9808L21.0097 20.9793L29.0112 17.6719L37.0127 20.9793L40.3287 28.9808L37.0127 36.9736L29.0112 40.2896ZM36.673 38.501L35.6093 45.044L30.2675 41.128L36.673 38.501ZM27.7663 41.0705L22.3565 44.9866L21.3494 38.4321L27.7663 41.0705ZM16.2792 28.9808L11.7407 35.208L2.70941 28.9808L11.7407 22.7564L16.2792 28.9808ZM12.929 22.3832L19.4818 21.387L16.8451 27.7262L12.929 22.3832ZM16.9128 30.2268L19.5498 36.632L12.9971 35.5697L16.9128 30.2268ZM21.3494 19.4606L22.4131 12.9204L27.7548 16.8365L21.3494 19.4606ZM30.2561 16.891L35.6659 12.975L36.673 19.518L30.2561 16.891ZM38.4726 21.3181L45.0253 22.3948L41.1776 27.7233L38.4726 21.3181ZM41.1776 30.2383L45.0934 35.5697L38.4726 36.632L41.1776 30.2383ZM41.7435 28.9808L46.2817 22.7564L55.313 28.9808L46.2817 35.208L41.7435 28.9808ZM45.6704 21.1602L38.0086 19.9256L36.843 12.3434L47.6173 10.3939L45.6704 21.1602ZM39.9666 4.53136C42.4337 5.73144 44.6067 7.13532 46.5986 8.8206L47.0514 9.21679L37.1485 10.9825L39.6836 4.39643L39.9666 4.53136ZM30.7993 2.31205C33.21 2.48144 35.6998 3.00401 38.1671 3.85383L38.4499 3.94284L35.9602 10.4973L30.1995 2.26903L30.7993 2.31205ZM35.247 11.6629L29.0112 16.2594L22.7754 11.7203L29.0112 2.70825L35.247 11.6629ZM19.414 3.97728C22.0057 3.00401 24.6088 2.42694 27.1666 2.25755L27.7548 2.21155L22.0172 10.5317L19.1424 4.07777L19.414 3.97728ZM11.4237 8.8206C13.3818 7.18126 15.5095 5.80031 17.7503 4.7122L18.0219 4.58875L20.84 10.994L10.9601 9.20532L11.4237 8.8206ZM21.1794 12.3405L20.0138 19.983L12.3519 21.1602L10.4054 10.3939L21.1794 12.3405ZM4.54283 18.0366C5.74262 15.5675 7.14596 13.3941 8.84359 11.4131L9.2283 10.9509L11.0052 20.853L4.40703 18.3064L4.54283 18.0366ZM2.38126 27.2036C2.50557 24.7145 3.01517 22.211 3.9204 19.7678L4.02232 19.495L10.5636 22.0416L2.35857 27.7807L2.38126 27.2036ZM3.97695 38.501C3.04905 35.9085 2.49437 33.3045 2.32469 30.758L2.27934 30.1693L10.5412 35.897L4.07887 38.7823L3.97695 38.501ZM9.2283 47.002L8.84359 46.5484C7.19104 44.6593 5.84425 42.5864 4.72399 40.2207L4.59939 39.9595L11.0052 37.1431L9.2283 47.002ZM12.3519 36.8013L20.0138 38.0359L21.1794 45.6211L10.4054 47.5676L12.3519 36.8013ZM18.056 53.4302C15.5887 52.2187 13.4156 50.8147 11.4237 49.1294L10.9713 48.7447L20.8739 46.9676L18.3388 53.5652L18.056 53.4302ZM27.2231 55.6495C24.8012 55.4686 22.3226 54.9576 19.8553 54.1107L19.5725 54.0187L22.0622 47.4643L27.8229 55.6839L27.2231 55.6495ZM22.7754 46.2986L29.0112 41.705L35.247 46.2441L29.0112 55.2533L22.7754 46.2986ZM38.6084 53.9843C36.0167 54.9576 33.4136 55.5347 30.8561 55.7069L30.2675 55.75L36.0055 47.4327L38.88 53.8838L38.6084 53.9843ZM46.5986 49.1294C44.8103 50.6913 42.6714 52.0722 40.2721 53.2493L40.0005 53.3728L37.1823 46.9676L47.0399 48.7447L46.5986 49.1294ZM36.843 45.6211L38.0086 37.9699L45.6704 36.8013L47.6173 47.5676L36.843 45.6211ZM53.4796 39.9279C52.2801 42.3941 50.8764 44.556 49.1791 46.5484L48.7941 47.002L47.0172 37.1086L53.6154 39.6437L53.4796 39.9279ZM55.6411 30.758C55.5168 33.2471 55.0072 35.7506 54.102 38.1938L54.0001 38.4666L47.4588 35.92L55.6638 30.1808L55.6411 30.758ZM47.4812 22.0531L53.9435 19.1792L54.0454 19.4606C54.9733 22.0531 55.528 24.6571 55.6977 27.1922L55.743 27.7807L47.4812 22.0531Z" fill="black" fill-opacity="0.2"/>
<path d="M55.8677 21.0454C54.6452 16.914 52.4951 13.1127 49.6542 10.0207C44.4483 4.37342 36.7296 1 29.0112 1C21.6548 1 14.4796 3.93131 9.30754 9.05891C2.57361 15.7139 -0.38036 25.5844 1.61154 34.8003C2.82253 40.3557 5.70846 45.5177 9.74881 49.3448C16.5054 55.75 26.3291 58.3999 35.3604 56.284C40.9172 54.9691 46.0666 51.9258 49.8581 47.7025C54.4302 42.5979 56.9652 35.9544 56.9994 28.9808C57.0106 26.2648 56.6259 23.6034 55.8677 21.0454ZM48.7941 10.9624L49.1791 11.4017C50.8314 13.3051 52.1781 15.3752 53.2984 17.7294L53.423 18.002L47.0172 20.8214L48.7941 10.9624ZM29.0112 40.2896L21.0097 36.9736L17.6937 28.9808L21.0097 20.9793L29.0112 17.6719L37.0127 20.9793L40.3287 28.9808L37.0127 36.9736L29.0112 40.2896ZM36.673 38.501L35.6093 45.044L30.2675 41.128L36.673 38.501ZM27.7663 41.0705L22.3565 44.9866L21.3494 38.4321L27.7663 41.0705ZM16.2792 28.9808L11.7407 35.208L2.70941 28.9808L11.7407 22.7564L16.2792 28.9808ZM12.929 22.3832L19.4818 21.387L16.8451 27.7262L12.929 22.3832ZM16.9128 30.2268L19.5498 36.632L12.9971 35.5697L16.9128 30.2268ZM21.3494 19.4606L22.4131 12.9204L27.7548 16.8365L21.3494 19.4606ZM30.2561 16.891L35.6659 12.975L36.673 19.518L30.2561 16.891ZM38.4726 21.3181L45.0253 22.3948L41.1776 27.7233L38.4726 21.3181ZM41.1776 30.2383L45.0934 35.5697L38.4726 36.632L41.1776 30.2383ZM41.7435 28.9808L46.2817 22.7564L55.313 28.9808L46.2817 35.208L41.7435 28.9808ZM45.6704 21.1602L38.0086 19.9256L36.843 12.3434L47.6173 10.3939L45.6704 21.1602ZM39.9666 4.53136C42.4337 5.73144 44.6067 7.13532 46.5986 8.8206L47.0514 9.21679L37.1485 10.9825L39.6836 4.39643L39.9666 4.53136ZM30.7993 2.31205C33.21 2.48144 35.6998 3.00401 38.1671 3.85383L38.4499 3.94284L35.9602 10.4973L30.1995 2.26903L30.7993 2.31205ZM35.247 11.6629L29.0112 16.2594L22.7754 11.7203L29.0112 2.70825L35.247 11.6629ZM19.414 3.97728C22.0057 3.00401 24.6088 2.42694 27.1666 2.25755L27.7548 2.21155L22.0172 10.5317L19.1424 4.07777L19.414 3.97728ZM11.4237 8.8206C13.3818 7.18126 15.5095 5.80031 17.7503 4.7122L18.0219 4.58875L20.84 10.994L10.9601 9.20532L11.4237 8.8206ZM21.1794 12.3405L20.0138 19.983L12.3519 21.1602L10.4054 10.3939L21.1794 12.3405ZM4.54283 18.0366C5.74262 15.5675 7.14596 13.3941 8.84359 11.4131L9.2283 10.9509L11.0052 20.853L4.40703 18.3064L4.54283 18.0366ZM2.38126 27.2036C2.50557 24.7145 3.01517 22.211 3.9204 19.7678L4.02232 19.495L10.5636 22.0416L2.35857 27.7807L2.38126 27.2036ZM3.97695 38.501C3.04905 35.9085 2.49437 33.3045 2.32469 30.758L2.27934 30.1693L10.5412 35.897L4.07887 38.7823L3.97695 38.501ZM9.2283 47.002L8.84359 46.5484C7.19104 44.6593 5.84425 42.5864 4.72399 40.2207L4.59939 39.9595L11.0052 37.1431L9.2283 47.002ZM12.3519 36.8013L20.0138 38.0359L21.1794 45.6211L10.4054 47.5676L12.3519 36.8013ZM18.056 53.4302C15.5887 52.2187 13.4156 50.8147 11.4237 49.1294L10.9713 48.7447L20.8739 46.9676L18.3388 53.5652L18.056 53.4302ZM27.2231 55.6495C24.8012 55.4686 22.3226 54.9576 19.8553 54.1107L19.5725 54.0187L22.0622 47.4643L27.8229 55.6839L27.2231 55.6495ZM22.7754 46.2986L29.0112 41.705L35.247 46.2441L29.0112 55.2533L22.7754 46.2986ZM38.6084 53.9843C36.0167 54.9576 33.4136 55.5347 30.8561 55.7069L30.2675 55.75L36.0055 47.4327L38.88 53.8838L38.6084 53.9843ZM46.5986 49.1294C44.8103 50.6913 42.6714 52.0722 40.2721 53.2493L40.0005 53.3728L37.1823 46.9676L47.0399 48.7447L46.5986 49.1294ZM36.843 45.6211L38.0086 37.9699L45.6704 36.8013L47.6173 47.5676L36.843 45.6211ZM53.4796 39.9279C52.2801 42.3941 50.8764 44.556 49.1791 46.5484L48.7941 47.002L47.0172 37.1086L53.6154 39.6437L53.4796 39.9279ZM55.6411 30.758C55.5168 33.2471 55.0072 35.7506 54.102 38.1938L54.0001 38.4666L47.4588 35.92L55.6638 30.1808L55.6411 30.758ZM47.4812 22.0531L53.9435 19.1792L54.0454 19.4606C54.9733 22.0531 55.528 24.6571 55.6977 27.1922L55.743 27.7807L47.4812 22.0531Z" fill="black" fill-opacity="0.2"/>
<path d="M55.8677 21.0454C54.6452 16.914 52.4951 13.1127 49.6542 10.0207C44.4483 4.37342 36.7296 1 29.0112 1C21.6548 1 14.4796 3.93131 9.30754 9.05891C2.57361 15.7139 -0.38036 25.5844 1.61154 34.8003C2.82253 40.3557 5.70846 45.5177 9.74881 49.3448C16.5054 55.75 26.3291 58.3999 35.3604 56.284C40.9172 54.9691 46.0666 51.9258 49.8581 47.7025C54.4302 42.5979 56.9652 35.9544 56.9994 28.9808C57.0106 26.2648 56.6259 23.6034 55.8677 21.0454ZM48.7941 10.9624L49.1791 11.4017C50.8314 13.3051 52.1781 15.3752 53.2984 17.7294L53.423 18.002L47.0172 20.8214L48.7941 10.9624ZM29.0112 40.2896L21.0097 36.9736L17.6937 28.9808L21.0097 20.9793L29.0112 17.6719L37.0127 20.9793L40.3287 28.9808L37.0127 36.9736L29.0112 40.2896ZM36.673 38.501L35.6093 45.044L30.2675 41.128L36.673 38.501ZM27.7663 41.0705L22.3565 44.9866L21.3494 38.4321L27.7663 41.0705ZM16.2792 28.9808L11.7407 35.208L2.70941 28.9808L11.7407 22.7564L16.2792 28.9808ZM12.929 22.3832L19.4818 21.387L16.8451 27.7262L12.929 22.3832ZM16.9128 30.2268L19.5498 36.632L12.9971 35.5697L16.9128 30.2268ZM21.3494 19.4606L22.4131 12.9204L27.7548 16.8365L21.3494 19.4606ZM30.2561 16.891L35.6659 12.975L36.673 19.518L30.2561 16.891ZM38.4726 21.3181L45.0253 22.3948L41.1776 27.7233L38.4726 21.3181ZM41.1776 30.2383L45.0934 35.5697L38.4726 36.632L41.1776 30.2383ZM41.7435 28.9808L46.2817 22.7564L55.313 28.9808L46.2817 35.208L41.7435 28.9808ZM45.6704 21.1602L38.0086 19.9256L36.843 12.3434L47.6173 10.3939L45.6704 21.1602ZM39.9666 4.53136C42.4337 5.73144 44.6067 7.13532 46.5986 8.8206L47.0514 9.21679L37.1485 10.9825L39.6836 4.39643L39.9666 4.53136ZM30.7993 2.31205C33.21 2.48144 35.6998 3.00401 38.1671 3.85383L38.4499 3.94284L35.9602 10.4973L30.1995 2.26903L30.7993 2.31205ZM35.247 11.6629L29.0112 16.2594L22.7754 11.7203L29.0112 2.70825L35.247 11.6629ZM19.414 3.97728C22.0057 3.00401 24.6088 2.42694 27.1666 2.25755L27.7548 2.21155L22.0172 10.5317L19.1424 4.07777L19.414 3.97728ZM11.4237 8.8206C13.3818 7.18126 15.5095 5.80031 17.7503 4.7122L18.0219 4.58875L20.84 10.994L10.9601 9.20532L11.4237 8.8206ZM21.1794 12.3405L20.0138 19.983L12.3519 21.1602L10.4054 10.3939L21.1794 12.3405ZM4.54283 18.0366C5.74262 15.5675 7.14596 13.3941 8.84359 11.4131L9.2283 10.9509L11.0052 20.853L4.40703 18.3064L4.54283 18.0366ZM2.38126 27.2036C2.50557 24.7145 3.01517 22.211 3.9204 19.7678L4.02232 19.495L10.5636 22.0416L2.35857 27.7807L2.38126 27.2036ZM3.97695 38.501C3.04905 35.9085 2.49437 33.3045 2.32469 30.758L2.27934 30.1693L10.5412 35.897L4.07887 38.7823L3.97695 38.501ZM9.2283 47.002L8.84359 46.5484C7.19104 44.6593 5.84425 42.5864 4.72399 40.2207L4.59939 39.9595L11.0052 37.1431L9.2283 47.002ZM12.3519 36.8013L20.0138 38.0359L21.1794 45.6211L10.4054 47.5676L12.3519 36.8013ZM18.056 53.4302C15.5887 52.2187 13.4156 50.8147 11.4237 49.1294L10.9713 48.7447L20.8739 46.9676L18.3388 53.5652L18.056 53.4302ZM27.2231 55.6495C24.8012 55.4686 22.3226 54.9576 19.8553 54.1107L19.5725 54.0187L22.0622 47.4643L27.8229 55.6839L27.2231 55.6495ZM22.7754 46.2986L29.0112 41.705L35.247 46.2441L29.0112 55.2533L22.7754 46.2986ZM38.6084 53.9843C36.0167 54.9576 33.4136 55.5347 30.8561 55.7069L30.2675 55.75L36.0055 47.4327L38.88 53.8838L38.6084 53.9843ZM46.5986 49.1294C44.8103 50.6913 42.6714 52.0722 40.2721 53.2493L40.0005 53.3728L37.1823 46.9676L47.0399 48.7447L46.5986 49.1294ZM36.843 45.6211L38.0086 37.9699L45.6704 36.8013L47.6173 47.5676L36.843 45.6211ZM53.4796 39.9279C52.2801 42.3941 50.8764 44.556 49.1791 46.5484L48.7941 47.002L47.0172 37.1086L53.6154 39.6437L53.4796 39.9279ZM55.6411 30.758C55.5168 33.2471 55.0072 35.7506 54.102 38.1938L54.0001 38.4666L47.4588 35.92L55.6638 30.1808L55.6411 30.758ZM47.4812 22.0531L53.9435 19.1792L54.0454 19.4606C54.9733 22.0531 55.528 24.6571 55.6977 27.1922L55.743 27.7807L47.4812 22.0531Z" fill="black" fill-opacity="0.2"/>
<path d="M55.8677 21.0454C54.6452 16.914 52.4951 13.1127 49.6542 10.0207C44.4483 4.37342 36.7296 1 29.0112 1C21.6548 1 14.4796 3.93131 9.30754 9.05891C2.57361 15.7139 -0.38036 25.5844 1.61154 34.8003C2.82253 40.3557 5.70846 45.5177 9.74881 49.3448C16.5054 55.75 26.3291 58.3999 35.3604 56.284C40.9172 54.9691 46.0666 51.9258 49.8581 47.7025C54.4302 42.5979 56.9652 35.9544 56.9994 28.9808C57.0106 26.2648 56.6259 23.6034 55.8677 21.0454ZM48.7941 10.9624L49.1791 11.4017C50.8314 13.3051 52.1781 15.3752 53.2984 17.7294L53.423 18.002L47.0172 20.8214L48.7941 10.9624ZM29.0112 40.2896L21.0097 36.9736L17.6937 28.9808L21.0097 20.9793L29.0112 17.6719L37.0127 20.9793L40.3287 28.9808L37.0127 36.9736L29.0112 40.2896ZM36.673 38.501L35.6093 45.044L30.2675 41.128L36.673 38.501ZM27.7663 41.0705L22.3565 44.9866L21.3494 38.4321L27.7663 41.0705ZM16.2792 28.9808L11.7407 35.208L2.70941 28.9808L11.7407 22.7564L16.2792 28.9808ZM12.929 22.3832L19.4818 21.387L16.8451 27.7262L12.929 22.3832ZM16.9128 30.2268L19.5498 36.632L12.9971 35.5697L16.9128 30.2268ZM21.3494 19.4606L22.4131 12.9204L27.7548 16.8365L21.3494 19.4606ZM30.2561 16.891L35.6659 12.975L36.673 19.518L30.2561 16.891ZM38.4726 21.3181L45.0253 22.3948L41.1776 27.7233L38.4726 21.3181ZM41.1776 30.2383L45.0934 35.5697L38.4726 36.632L41.1776 30.2383ZM41.7435 28.9808L46.2817 22.7564L55.313 28.9808L46.2817 35.208L41.7435 28.9808ZM45.6704 21.1602L38.0086 19.9256L36.843 12.3434L47.6173 10.3939L45.6704 21.1602ZM39.9666 4.53136C42.4337 5.73144 44.6067 7.13532 46.5986 8.8206L47.0514 9.21679L37.1485 10.9825L39.6836 4.39643L39.9666 4.53136ZM30.7993 2.31205C33.21 2.48144 35.6998 3.00401 38.1671 3.85383L38.4499 3.94284L35.9602 10.4973L30.1995 2.26903L30.7993 2.31205ZM35.247 11.6629L29.0112 16.2594L22.7754 11.7203L29.0112 2.70825L35.247 11.6629ZM19.414 3.97728C22.0057 3.00401 24.6088 2.42694 27.1666 2.25755L27.7548 2.21155L22.0172 10.5317L19.1424 4.07777L19.414 3.97728ZM11.4237 8.8206C13.3818 7.18126 15.5095 5.80031 17.7503 4.7122L18.0219 4.58875L20.84 10.994L10.9601 9.20532L11.4237 8.8206ZM21.1794 12.3405L20.0138 19.983L12.3519 21.1602L10.4054 10.3939L21.1794 12.3405ZM4.54283 18.0366C5.74262 15.5675 7.14596 13.3941 8.84359 11.4131L9.2283 10.9509L11.0052 20.853L4.40703 18.3064L4.54283 18.0366ZM2.38126 27.2036C2.50557 24.7145 3.01517 22.211 3.9204 19.7678L4.02232 19.495L10.5636 22.0416L2.35857 27.7807L2.38126 27.2036ZM3.97695 38.501C3.04905 35.9085 2.49437 33.3045 2.32469 30.758L2.27934 30.1693L10.5412 35.897L4.07887 38.7823L3.97695 38.501ZM9.2283 47.002L8.84359 46.5484C7.19104 44.6593 5.84425 42.5864 4.72399 40.2207L4.59939 39.9595L11.0052 37.1431L9.2283 47.002ZM12.3519 36.8013L20.0138 38.0359L21.1794 45.6211L10.4054 47.5676L12.3519 36.8013ZM18.056 53.4302C15.5887 52.2187 13.4156 50.8147 11.4237 49.1294L10.9713 48.7447L20.8739 46.9676L18.3388 53.5652L18.056 53.4302ZM27.2231 55.6495C24.8012 55.4686 22.3226 54.9576 19.8553 54.1107L19.5725 54.0187L22.0622 47.4643L27.8229 55.6839L27.2231 55.6495ZM22.7754 46.2986L29.0112 41.705L35.247 46.2441L29.0112 55.2533L22.7754 46.2986ZM38.6084 53.9843C36.0167 54.9576 33.4136 55.5347 30.8561 55.7069L30.2675 55.75L36.0055 47.4327L38.88 53.8838L38.6084 53.9843ZM46.5986 49.1294C44.8103 50.6913 42.6714 52.0722 40.2721 53.2493L40.0005 53.3728L37.1823 46.9676L47.0399 48.7447L46.5986 49.1294ZM36.843 45.6211L38.0086 37.9699L45.6704 36.8013L47.6173 47.5676L36.843 45.6211ZM53.4796 39.9279C52.2801 42.3941 50.8764 44.556 49.1791 46.5484L48.7941 47.002L47.0172 37.1086L53.6154 39.6437L53.4796 39.9279ZM55.6411 30.758C55.5168 33.2471 55.0072 35.7506 54.102 38.1938L54.0001 38.4666L47.4588 35.92L55.6638 30.1808L55.6411 30.758ZM47.4812 22.0531L53.9435 19.1792L54.0454 19.4606C54.9733 22.0531 55.528 24.6571 55.6977 27.1922L55.743 27.7807L47.4812 22.0531Z" fill="black" fill-opacity="0.2"/>
<path d="M55.8677 21.0454C54.6452 16.914 52.4951 13.1127 49.6542 10.0207C44.4483 4.37342 36.7296 1 29.0112 1C21.6548 1 14.4796 3.93131 9.30754 9.05891C2.57361 15.7139 -0.38036 25.5844 1.61154 34.8003C2.82253 40.3557 5.70846 45.5177 9.74881 49.3448C16.5054 55.75 26.3291 58.3999 35.3604 56.284C40.9172 54.9691 46.0666 51.9258 49.8581 47.7025C54.4302 42.5979 56.9652 35.9544 56.9994 28.9808C57.0106 26.2648 56.6259 23.6034 55.8677 21.0454ZM48.7941 10.9624L49.1791 11.4017C50.8314 13.3051 52.1781 15.3752 53.2984 17.7294L53.423 18.002L47.0172 20.8214L48.7941 10.9624ZM29.0112 40.2896L21.0097 36.9736L17.6937 28.9808L21.0097 20.9793L29.0112 17.6719L37.0127 20.9793L40.3287 28.9808L37.0127 36.9736L29.0112 40.2896ZM36.673 38.501L35.6093 45.044L30.2675 41.128L36.673 38.501ZM27.7663 41.0705L22.3565 44.9866L21.3494 38.4321L27.7663 41.0705ZM16.2792 28.9808L11.7407 35.208L2.70941 28.9808L11.7407 22.7564L16.2792 28.9808ZM12.929 22.3832L19.4818 21.387L16.8451 27.7262L12.929 22.3832ZM16.9128 30.2268L19.5498 36.632L12.9971 35.5697L16.9128 30.2268ZM21.3494 19.4606L22.4131 12.9204L27.7548 16.8365L21.3494 19.4606ZM30.2561 16.891L35.6659 12.975L36.673 19.518L30.2561 16.891ZM38.4726 21.3181L45.0253 22.3948L41.1776 27.7233L38.4726 21.3181ZM41.1776 30.2383L45.0934 35.5697L38.4726 36.632L41.1776 30.2383ZM41.7435 28.9808L46.2817 22.7564L55.313 28.9808L46.2817 35.208L41.7435 28.9808ZM45.6704 21.1602L38.0086 19.9256L36.843 12.3434L47.6173 10.3939L45.6704 21.1602ZM39.9666 4.53136C42.4337 5.73144 44.6067 7.13532 46.5986 8.8206L47.0514 9.21679L37.1485 10.9825L39.6836 4.39643L39.9666 4.53136ZM30.7993 2.31205C33.21 2.48144 35.6998 3.00401 38.1671 3.85383L38.4499 3.94284L35.9602 10.4973L30.1995 2.26903L30.7993 2.31205ZM35.247 11.6629L29.0112 16.2594L22.7754 11.7203L29.0112 2.70825L35.247 11.6629ZM19.414 3.97728C22.0057 3.00401 24.6088 2.42694 27.1666 2.25755L27.7548 2.21155L22.0172 10.5317L19.1424 4.07777L19.414 3.97728ZM11.4237 8.8206C13.3818 7.18126 15.5095 5.80031 17.7503 4.7122L18.0219 4.58875L20.84 10.994L10.9601 9.20532L11.4237 8.8206ZM21.1794 12.3405L20.0138 19.983L12.3519 21.1602L10.4054 10.3939L21.1794 12.3405ZM4.54283 18.0366C5.74262 15.5675 7.14596 13.3941 8.84359 11.4131L9.2283 10.9509L11.0052 20.853L4.40703 18.3064L4.54283 18.0366ZM2.38126 27.2036C2.50557 24.7145 3.01517 22.211 3.9204 19.7678L4.02232 19.495L10.5636 22.0416L2.35857 27.7807L2.38126 27.2036ZM3.97695 38.501C3.04905 35.9085 2.49437 33.3045 2.32469 30.758L2.27934 30.1693L10.5412 35.897L4.07887 38.7823L3.97695 38.501ZM9.2283 47.002L8.84359 46.5484C7.19104 44.6593 5.84425 42.5864 4.72399 40.2207L4.59939 39.9595L11.0052 37.1431L9.2283 47.002ZM12.3519 36.8013L20.0138 38.0359L21.1794 45.6211L10.4054 47.5676L12.3519 36.8013ZM18.056 53.4302C15.5887 52.2187 13.4156 50.8147 11.4237 49.1294L10.9713 48.7447L20.8739 46.9676L18.3388 53.5652L18.056 53.4302ZM27.2231 55.6495C24.8012 55.4686 22.3226 54.9576 19.8553 54.1107L19.5725 54.0187L22.0622 47.4643L27.8229 55.6839L27.2231 55.6495ZM22.7754 46.2986L29.0112 41.705L35.247 46.2441L29.0112 55.2533L22.7754 46.2986ZM38.6084 53.9843C36.0167 54.9576 33.4136 55.5347 30.8561 55.7069L30.2675 55.75L36.0055 47.4327L38.88 53.8838L38.6084 53.9843ZM46.5986 49.1294C44.8103 50.6913 42.6714 52.0722 40.2721 53.2493L40.0005 53.3728L37.1823 46.9676L47.0399 48.7447L46.5986 49.1294ZM36.843 45.6211L38.0086 37.9699L45.6704 36.8013L47.6173 47.5676L36.843 45.6211ZM53.4796 39.9279C52.2801 42.3941 50.8764 44.556 49.1791 46.5484L48.7941 47.002L47.0172 37.1086L53.6154 39.6437L53.4796 39.9279ZM55.6411 30.758C55.5168 33.2471 55.0072 35.7506 54.102 38.1938L54.0001 38.4666L47.4588 35.92L55.6638 30.1808L55.6411 30.758ZM47.4812 22.0531L53.9435 19.1792L54.0454 19.4606C54.9733 22.0531 55.528 24.6571 55.6977 27.1922L55.743 27.7807L47.4812 22.0531Z" fill="black" fill-opacity="0.2"/>
<path d="M55.8677 21.0454C54.6452 16.914 52.4951 13.1127 49.6542 10.0207C44.4483 4.37342 36.7296 1 29.0112 1C21.6548 1 14.4796 3.93131 9.30754 9.05891C2.57361 15.7139 -0.38036 25.5844 1.61154 34.8003C2.82253 40.3557 5.70846 45.5177 9.74881 49.3448C16.5054 55.75 26.3291 58.3999 35.3604 56.284C40.9172 54.9691 46.0666 51.9258 49.8581 47.7025C54.4302 42.5979 56.9652 35.9544 56.9994 28.9808C57.0106 26.2648 56.6259 23.6034 55.8677 21.0454ZM48.7941 10.9624L49.1791 11.4017C50.8314 13.3051 52.1781 15.3752 53.2984 17.7294L53.423 18.002L47.0172 20.8214L48.7941 10.9624ZM29.0112 40.2896L21.0097 36.9736L17.6937 28.9808L21.0097 20.9793L29.0112 17.6719L37.0127 20.9793L40.3287 28.9808L37.0127 36.9736L29.0112 40.2896ZM36.673 38.501L35.6093 45.044L30.2675 41.128L36.673 38.501ZM27.7663 41.0705L22.3565 44.9866L21.3494 38.4321L27.7663 41.0705ZM16.2792 28.9808L11.7407 35.208L2.70941 28.9808L11.7407 22.7564L16.2792 28.9808ZM12.929 22.3832L19.4818 21.387L16.8451 27.7262L12.929 22.3832ZM16.9128 30.2268L19.5498 36.632L12.9971 35.5697L16.9128 30.2268ZM21.3494 19.4606L22.4131 12.9204L27.7548 16.8365L21.3494 19.4606ZM30.2561 16.891L35.6659 12.975L36.673 19.518L30.2561 16.891ZM38.4726 21.3181L45.0253 22.3948L41.1776 27.7233L38.4726 21.3181ZM41.1776 30.2383L45.0934 35.5697L38.4726 36.632L41.1776 30.2383ZM41.7435 28.9808L46.2817 22.7564L55.313 28.9808L46.2817 35.208L41.7435 28.9808ZM45.6704 21.1602L38.0086 19.9256L36.843 12.3434L47.6173 10.3939L45.6704 21.1602ZM39.9666 4.53136C42.4337 5.73144 44.6067 7.13532 46.5986 8.8206L47.0514 9.21679L37.1485 10.9825L39.6836 4.39643L39.9666 4.53136ZM30.7993 2.31205C33.21 2.48144 35.6998 3.00401 38.1671 3.85383L38.4499 3.94284L35.9602 10.4973L30.1995 2.26903L30.7993 2.31205ZM35.247 11.6629L29.0112 16.2594L22.7754 11.7203L29.0112 2.70825L35.247 11.6629ZM19.414 3.97728C22.0057 3.00401 24.6088 2.42694 27.1666 2.25755L27.7548 2.21155L22.0172 10.5317L19.1424 4.07777L19.414 3.97728ZM11.4237 8.8206C13.3818 7.18126 15.5095 5.80031 17.7503 4.7122L18.0219 4.58875L20.84 10.994L10.9601 9.20532L11.4237 8.8206ZM21.1794 12.3405L20.0138 19.983L12.3519 21.1602L10.4054 10.3939L21.1794 12.3405ZM4.54283 18.0366C5.74262 15.5675 7.14596 13.3941 8.84359 11.4131L9.2283 10.9509L11.0052 20.853L4.40703 18.3064L4.54283 18.0366ZM2.38126 27.2036C2.50557 24.7145 3.01517 22.211 3.9204 19.7678L4.02232 19.495L10.5636 22.0416L2.35857 27.7807L2.38126 27.2036ZM3.97695 38.501C3.04905 35.9085 2.49437 33.3045 2.32469 30.758L2.27934 30.1693L10.5412 35.897L4.07887 38.7823L3.97695 38.501ZM9.2283 47.002L8.84359 46.5484C7.19104 44.6593 5.84425 42.5864 4.72399 40.2207L4.59939 39.9595L11.0052 37.1431L9.2283 47.002ZM12.3519 36.8013L20.0138 38.0359L21.1794 45.6211L10.4054 47.5676L12.3519 36.8013ZM18.056 53.4302C15.5887 52.2187 13.4156 50.8147 11.4237 49.1294L10.9713 48.7447L20.8739 46.9676L18.3388 53.5652L18.056 53.4302ZM27.2231 55.6495C24.8012 55.4686 22.3226 54.9576 19.8553 54.1107L19.5725 54.0187L22.0622 47.4643L27.8229 55.6839L27.2231 55.6495ZM22.7754 46.2986L29.0112 41.705L35.247 46.2441L29.0112 55.2533L22.7754 46.2986ZM38.6084 53.9843C36.0167 54.9576 33.4136 55.5347 30.8561 55.7069L30.2675 55.75L36.0055 47.4327L38.88 53.8838L38.6084 53.9843ZM46.5986 49.1294C44.8103 50.6913 42.6714 52.0722 40.2721 53.2493L40.0005 53.3728L37.1823 46.9676L47.0399 48.7447L46.5986 49.1294ZM36.843 45.6211L38.0086 37.9699L45.6704 36.8013L47.6173 47.5676L36.843 45.6211ZM53.4796 39.9279C52.2801 42.3941 50.8764 44.556 49.1791 46.5484L48.7941 47.002L47.0172 37.1086L53.6154 39.6437L53.4796 39.9279ZM55.6411 30.758C55.5168 33.2471 55.0072 35.7506 54.102 38.1938L54.0001 38.4666L47.4588 35.92L55.6638 30.1808L55.6411 30.758ZM47.4812 22.0531L53.9435 19.1792L54.0454 19.4606C54.9733 22.0531 55.528 24.6571 55.6977 27.1922L55.743 27.7807L47.4812 22.0531Z" fill="black" fill-opacity="0.2"/>
<path d="M55.8677 21.0454C54.6452 16.914 52.4951 13.1127 49.6542 10.0207C44.4483 4.37342 36.7296 1 29.0112 1C21.6548 1 14.4796 3.93131 9.30754 9.05891C2.57361 15.7139 -0.38036 25.5844 1.61154 34.8003C2.82253 40.3557 5.70846 45.5177 9.74881 49.3448C16.5054 55.75 26.3291 58.3999 35.3604 56.284C40.9172 54.9691 46.0666 51.9258 49.8581 47.7025C54.4302 42.5979 56.9652 35.9544 56.9994 28.9808C57.0106 26.2648 56.6259 23.6034 55.8677 21.0454ZM48.7941 10.9624L49.1791 11.4017C50.8314 13.3051 52.1781 15.3752 53.2984 17.7294L53.423 18.002L47.0172 20.8214L48.7941 10.9624ZM29.0112 40.2896L21.0097 36.9736L17.6937 28.9808L21.0097 20.9793L29.0112 17.6719L37.0127 20.9793L40.3287 28.9808L37.0127 36.9736L29.0112 40.2896ZM36.673 38.501L35.6093 45.044L30.2675 41.128L36.673 38.501ZM27.7663 41.0705L22.3565 44.9866L21.3494 38.4321L27.7663 41.0705ZM16.2792 28.9808L11.7407 35.208L2.70941 28.9808L11.7407 22.7564L16.2792 28.9808ZM12.929 22.3832L19.4818 21.387L16.8451 27.7262L12.929 22.3832ZM16.9128 30.2268L19.5498 36.632L12.9971 35.5697L16.9128 30.2268ZM21.3494 19.4606L22.4131 12.9204L27.7548 16.8365L21.3494 19.4606ZM30.2561 16.891L35.6659 12.975L36.673 19.518L30.2561 16.891ZM38.4726 21.3181L45.0253 22.3948L41.1776 27.7233L38.4726 21.3181ZM41.1776 30.2383L45.0934 35.5697L38.4726 36.632L41.1776 30.2383ZM41.7435 28.9808L46.2817 22.7564L55.313 28.9808L46.2817 35.208L41.7435 28.9808ZM45.6704 21.1602L38.0086 19.9256L36.843 12.3434L47.6173 10.3939L45.6704 21.1602ZM39.9666 4.53136C42.4337 5.73144 44.6067 7.13532 46.5986 8.8206L47.0514 9.21679L37.1485 10.9825L39.6836 4.39643L39.9666 4.53136ZM30.7993 2.31205C33.21 2.48144 35.6998 3.00401 38.1671 3.85383L38.4499 3.94284L35.9602 10.4973L30.1995 2.26903L30.7993 2.31205ZM35.247 11.6629L29.0112 16.2594L22.7754 11.7203L29.0112 2.70825L35.247 11.6629ZM19.414 3.97728C22.0057 3.00401 24.6088 2.42694 27.1666 2.25755L27.7548 2.21155L22.0172 10.5317L19.1424 4.07777L19.414 3.97728ZM11.4237 8.8206C13.3818 7.18126 15.5095 5.80031 17.7503 4.7122L18.0219 4.58875L20.84 10.994L10.9601 9.20532L11.4237 8.8206ZM21.1794 12.3405L20.0138 19.983L12.3519 21.1602L10.4054 10.3939L21.1794 12.3405ZM4.54283 18.0366C5.74262 15.5675 7.14596 13.3941 8.84359 11.4131L9.2283 10.9509L11.0052 20.853L4.40703 18.3064L4.54283 18.0366ZM2.38126 27.2036C2.50557 24.7145 3.01517 22.211 3.9204 19.7678L4.02232 19.495L10.5636 22.0416L2.35857 27.7807L2.38126 27.2036ZM3.97695 38.501C3.04905 35.9085 2.49437 33.3045 2.32469 30.758L2.27934 30.1693L10.5412 35.897L4.07887 38.7823L3.97695 38.501ZM9.2283 47.002L8.84359 46.5484C7.19104 44.6593 5.84425 42.5864 4.72399 40.2207L4.59939 39.9595L11.0052 37.1431L9.2283 47.002ZM12.3519 36.8013L20.0138 38.0359L21.1794 45.6211L10.4054 47.5676L12.3519 36.8013ZM18.056 53.4302C15.5887 52.2187 13.4156 50.8147 11.4237 49.1294L10.9713 48.7447L20.8739 46.9676L18.3388 53.5652L18.056 53.4302ZM27.2231 55.6495C24.8012 55.4686 22.3226 54.9576 19.8553 54.1107L19.5725 54.0187L22.0622 47.4643L27.8229 55.6839L27.2231 55.6495ZM22.7754 46.2986L29.0112 41.705L35.247 46.2441L29.0112 55.2533L22.7754 46.2986ZM38.6084 53.9843C36.0167 54.9576 33.4136 55.5347 30.8561 55.7069L30.2675 55.75L36.0055 47.4327L38.88 53.8838L38.6084 53.9843ZM46.5986 49.1294C44.8103 50.6913 42.6714 52.0722 40.2721 53.2493L40.0005 53.3728L37.1823 46.9676L47.0399 48.7447L46.5986 49.1294ZM36.843 45.6211L38.0086 37.9699L45.6704 36.8013L47.6173 47.5676L36.843 45.6211ZM53.4796 39.9279C52.2801 42.3941 50.8764 44.556 49.1791 46.5484L48.7941 47.002L47.0172 37.1086L53.6154 39.6437L53.4796 39.9279ZM55.6411 30.758C55.5168 33.2471 55.0072 35.7506 54.102 38.1938L54.0001 38.4666L47.4588 35.92L55.6638 30.1808L55.6411 30.758ZM47.4812 22.0531L53.9435 19.1792L54.0454 19.4606C54.9733 22.0531 55.528 24.6571 55.6977 27.1922L55.743 27.7807L47.4812 22.0531Z" fill="black" fill-opacity="0.2"/>
<path d="M55.8677 21.0454C54.6452 16.914 52.4951 13.1127 49.6542 10.0207C44.4483 4.37342 36.7296 1 29.0112 1C21.6548 1 14.4796 3.93131 9.30754 9.05891C2.57361 15.7139 -0.38036 25.5844 1.61154 34.8003C2.82253 40.3557 5.70846 45.5177 9.74881 49.3448C16.5054 55.75 26.3291 58.3999 35.3604 56.284C40.9172 54.9691 46.0666 51.9258 49.8581 47.7025C54.4302 42.5979 56.9652 35.9544 56.9994 28.9808C57.0106 26.2648 56.6259 23.6034 55.8677 21.0454ZM48.7941 10.9624L49.1791 11.4017C50.8314 13.3051 52.1781 15.3752 53.2984 17.7294L53.423 18.002L47.0172 20.8214L48.7941 10.9624ZM29.0112 40.2896L21.0097 36.9736L17.6937 28.9808L21.0097 20.9793L29.0112 17.6719L37.0127 20.9793L40.3287 28.9808L37.0127 36.9736L29.0112 40.2896ZM36.673 38.501L35.6093 45.044L30.2675 41.128L36.673 38.501ZM27.7663 41.0705L22.3565 44.9866L21.3494 38.4321L27.7663 41.0705ZM16.2792 28.9808L11.7407 35.208L2.70941 28.9808L11.7407 22.7564L16.2792 28.9808ZM12.929 22.3832L19.4818 21.387L16.8451 27.7262L12.929 22.3832ZM16.9128 30.2268L19.5498 36.632L12.9971 35.5697L16.9128 30.2268ZM21.3494 19.4606L22.4131 12.9204L27.7548 16.8365L21.3494 19.4606ZM30.2561 16.891L35.6659 12.975L36.673 19.518L30.2561 16.891ZM38.4726 21.3181L45.0253 22.3948L41.1776 27.7233L38.4726 21.3181ZM41.1776 30.2383L45.0934 35.5697L38.4726 36.632L41.1776 30.2383ZM41.7435 28.9808L46.2817 22.7564L55.313 28.9808L46.2817 35.208L41.7435 28.9808ZM45.6704 21.1602L38.0086 19.9256L36.843 12.3434L47.6173 10.3939L45.6704 21.1602ZM39.9666 4.53136C42.4337 5.73144 44.6067 7.13532 46.5986 8.8206L47.0514 9.21679L37.1485 10.9825L39.6836 4.39643L39.9666 4.53136ZM30.7993 2.31205C33.21 2.48144 35.6998 3.00401 38.1671 3.85383L38.4499 3.94284L35.9602 10.4973L30.1995 2.26903L30.7993 2.31205ZM35.247 11.6629L29.0112 16.2594L22.7754 11.7203L29.0112 2.70825L35.247 11.6629ZM19.414 3.97728C22.0057 3.00401 24.6088 2.42694 27.1666 2.25755L27.7548 2.21155L22.0172 10.5317L19.1424 4.07777L19.414 3.97728ZM11.4237 8.8206C13.3818 7.18126 15.5095 5.80031 17.7503 4.7122L18.0219 4.58875L20.84 10.994L10.9601 9.20532L11.4237 8.8206ZM21.1794 12.3405L20.0138 19.983L12.3519 21.1602L10.4054 10.3939L21.1794 12.3405ZM4.54283 18.0366C5.74262 15.5675 7.14596 13.3941 8.84359 11.4131L9.2283 10.9509L11.0052 20.853L4.40703 18.3064L4.54283 18.0366ZM2.38126 27.2036C2.50557 24.7145 3.01517 22.211 3.9204 19.7678L4.02232 19.495L10.5636 22.0416L2.35857 27.7807L2.38126 27.2036ZM3.97695 38.501C3.04905 35.9085 2.49437 33.3045 2.32469 30.758L2.27934 30.1693L10.5412 35.897L4.07887 38.7823L3.97695 38.501ZM9.2283 47.002L8.84359 46.5484C7.19104 44.6593 5.84425 42.5864 4.72399 40.2207L4.59939 39.9595L11.0052 37.1431L9.2283 47.002ZM12.3519 36.8013L20.0138 38.0359L21.1794 45.6211L10.4054 47.5676L12.3519 36.8013ZM18.056 53.4302C15.5887 52.2187 13.4156 50.8147 11.4237 49.1294L10.9713 48.7447L20.8739 46.9676L18.3388 53.5652L18.056 53.4302ZM27.2231 55.6495C24.8012 55.4686 22.3226 54.9576 19.8553 54.1107L19.5725 54.0187L22.0622 47.4643L27.8229 55.6839L27.2231 55.6495ZM22.7754 46.2986L29.0112 41.705L35.247 46.2441L29.0112 55.2533L22.7754 46.2986ZM38.6084 53.9843C36.0167 54.9576 33.4136 55.5347 30.8561 55.7069L30.2675 55.75L36.0055 47.4327L38.88 53.8838L38.6084 53.9843ZM46.5986 49.1294C44.8103 50.6913 42.6714 52.0722 40.2721 53.2493L40.0005 53.3728L37.1823 46.9676L47.0399 48.7447L46.5986 49.1294ZM36.843 45.6211L38.0086 37.9699L45.6704 36.8013L47.6173 47.5676L36.843 45.6211ZM53.4796 39.9279C52.2801 42.3941 50.8764 44.556 49.1791 46.5484L48.7941 47.002L47.0172 37.1086L53.6154 39.6437L53.4796 39.9279ZM55.6411 30.758C55.5168 33.2471 55.0072 35.7506 54.102 38.1938L54.0001 38.4666L47.4588 35.92L55.6638 30.1808L55.6411 30.758ZM47.4812 22.0531L53.9435 19.1792L54.0454 19.4606C54.9733 22.0531 55.528 24.6571 55.6977 27.1922L55.743 27.7807L47.4812 22.0531Z" fill="black" fill-opacity="0.2"/>
<path d="M55.8677 21.0454C54.6452 16.914 52.4951 13.1127 49.6542 10.0207C44.4483 4.37342 36.7296 1 29.0112 1C21.6548 1 14.4796 3.93131 9.30754 9.05891C2.57361 15.7139 -0.38036 25.5844 1.61154 34.8003C2.82253 40.3557 5.70846 45.5177 9.74881 49.3448C16.5054 55.75 26.3291 58.3999 35.3604 56.284C40.9172 54.9691 46.0666 51.9258 49.8581 47.7025C54.4302 42.5979 56.9652 35.9544 56.9994 28.9808C57.0106 26.2648 56.6259 23.6034 55.8677 21.0454ZM48.7941 10.9624L49.1791 11.4017C50.8314 13.3051 52.1781 15.3752 53.2984 17.7294L53.423 18.002L47.0172 20.8214L48.7941 10.9624ZM29.0112 40.2896L21.0097 36.9736L17.6937 28.9808L21.0097 20.9793L29.0112 17.6719L37.0127 20.9793L40.3287 28.9808L37.0127 36.9736L29.0112 40.2896ZM36.673 38.501L35.6093 45.044L30.2675 41.128L36.673 38.501ZM27.7663 41.0705L22.3565 44.9866L21.3494 38.4321L27.7663 41.0705ZM16.2792 28.9808L11.7407 35.208L2.70941 28.9808L11.7407 22.7564L16.2792 28.9808ZM12.929 22.3832L19.4818 21.387L16.8451 27.7262L12.929 22.3832ZM16.9128 30.2268L19.5498 36.632L12.9971 35.5697L16.9128 30.2268ZM21.3494 19.4606L22.4131 12.9204L27.7548 16.8365L21.3494 19.4606ZM30.2561 16.891L35.6659 12.975L36.673 19.518L30.2561 16.891ZM38.4726 21.3181L45.0253 22.3948L41.1776 27.7233L38.4726 21.3181ZM41.1776 30.2383L45.0934 35.5697L38.4726 36.632L41.1776 30.2383ZM41.7435 28.9808L46.2817 22.7564L55.313 28.9808L46.2817 35.208L41.7435 28.9808ZM45.6704 21.1602L38.0086 19.9256L36.843 12.3434L47.6173 10.3939L45.6704 21.1602ZM39.9666 4.53136C42.4337 5.73144 44.6067 7.13532 46.5986 8.8206L47.0514 9.21679L37.1485 10.9825L39.6836 4.39643L39.9666 4.53136ZM30.7993 2.31205C33.21 2.48144 35.6998 3.00401 38.1671 3.85383L38.4499 3.94284L35.9602 10.4973L30.1995 2.26903L30.7993 2.31205ZM35.247 11.6629L29.0112 16.2594L22.7754 11.7203L29.0112 2.70825L35.247 11.6629ZM19.414 3.97728C22.0057 3.00401 24.6088 2.42694 27.1666 2.25755L27.7548 2.21155L22.0172 10.5317L19.1424 4.07777L19.414 3.97728ZM11.4237 8.8206C13.3818 7.18126 15.5095 5.80031 17.7503 4.7122L18.0219 4.58875L20.84 10.994L10.9601 9.20532L11.4237 8.8206ZM21.1794 12.3405L20.0138 19.983L12.3519 21.1602L10.4054 10.3939L21.1794 12.3405ZM4.54283 18.0366C5.74262 15.5675 7.14596 13.3941 8.84359 11.4131L9.2283 10.9509L11.0052 20.853L4.40703 18.3064L4.54283 18.0366ZM2.38126 27.2036C2.50557 24.7145 3.01517 22.211 3.9204 19.7678L4.02232 19.495L10.5636 22.0416L2.35857 27.7807L2.38126 27.2036ZM3.97695 38.501C3.04905 35.9085 2.49437 33.3045 2.32469 30.758L2.27934 30.1693L10.5412 35.897L4.07887 38.7823L3.97695 38.501ZM9.2283 47.002L8.84359 46.5484C7.19104 44.6593 5.84425 42.5864 4.72399 40.2207L4.59939 39.9595L11.0052 37.1431L9.2283 47.002ZM12.3519 36.8013L20.0138 38.0359L21.1794 45.6211L10.4054 47.5676L12.3519 36.8013ZM18.056 53.4302C15.5887 52.2187 13.4156 50.8147 11.4237 49.1294L10.9713 48.7447L20.8739 46.9676L18.3388 53.5652L18.056 53.4302ZM27.2231 55.6495C24.8012 55.4686 22.3226 54.9576 19.8553 54.1107L19.5725 54.0187L22.0622 47.4643L27.8229 55.6839L27.2231 55.6495ZM22.7754 46.2986L29.0112 41.705L35.247 46.2441L29.0112 55.2533L22.7754 46.2986ZM38.6084 53.9843C36.0167 54.9576 33.4136 55.5347 30.8561 55.7069L30.2675 55.75L36.0055 47.4327L38.88 53.8838L38.6084 53.9843ZM46.5986 49.1294C44.8103 50.6913 42.6714 52.0722 40.2721 53.2493L40.0005 53.3728L37.1823 46.9676L47.0399 48.7447L46.5986 49.1294ZM36.843 45.6211L38.0086 37.9699L45.6704 36.8013L47.6173 47.5676L36.843 45.6211ZM53.4796 39.9279C52.2801 42.3941 50.8764 44.556 49.1791 46.5484L48.7941 47.002L47.0172 37.1086L53.6154 39.6437L53.4796 39.9279ZM55.6411 30.758C55.5168 33.2471 55.0072 35.7506 54.102 38.1938L54.0001 38.4666L47.4588 35.92L55.6638 30.1808L55.6411 30.758ZM47.4812 22.0531L53.9435 19.1792L54.0454 19.4606C54.9733 22.0531 55.528 24.6571 55.6977 27.1922L55.743 27.7807L47.4812 22.0531Z" stroke="#333335" stroke-width="0.2"/>
<path d="M55.8677 21.0454C54.6452 16.914 52.4951 13.1127 49.6542 10.0207C44.4483 4.37342 36.7296 1 29.0112 1C21.6548 1 14.4796 3.93131 9.30754 9.05891C2.57361 15.7139 -0.38036 25.5844 1.61154 34.8003C2.82253 40.3557 5.70846 45.5177 9.74881 49.3448C16.5054 55.75 26.3291 58.3999 35.3604 56.284C40.9172 54.9691 46.0666 51.9258 49.8581 47.7025C54.4302 42.5979 56.9652 35.9544 56.9994 28.9808C57.0106 26.2648 56.6259 23.6034 55.8677 21.0454ZM48.7941 10.9624L49.1791 11.4017C50.8314 13.3051 52.1781 15.3752 53.2984 17.7294L53.423 18.002L47.0172 20.8214L48.7941 10.9624ZM29.0112 40.2896L21.0097 36.9736L17.6937 28.9808L21.0097 20.9793L29.0112 17.6719L37.0127 20.9793L40.3287 28.9808L37.0127 36.9736L29.0112 40.2896ZM36.673 38.501L35.6093 45.044L30.2675 41.128L36.673 38.501ZM27.7663 41.0705L22.3565 44.9866L21.3494 38.4321L27.7663 41.0705ZM16.2792 28.9808L11.7407 35.208L2.70941 28.9808L11.7407 22.7564L16.2792 28.9808ZM12.929 22.3832L19.4818 21.387L16.8451 27.7262L12.929 22.3832ZM16.9128 30.2268L19.5498 36.632L12.9971 35.5697L16.9128 30.2268ZM21.3494 19.4606L22.4131 12.9204L27.7548 16.8365L21.3494 19.4606ZM30.2561 16.891L35.6659 12.975L36.673 19.518L30.2561 16.891ZM38.4726 21.3181L45.0253 22.3948L41.1776 27.7233L38.4726 21.3181ZM41.1776 30.2383L45.0934 35.5697L38.4726 36.632L41.1776 30.2383ZM41.7435 28.9808L46.2817 22.7564L55.313 28.9808L46.2817 35.208L41.7435 28.9808ZM45.6704 21.1602L38.0086 19.9256L36.843 12.3434L47.6173 10.3939L45.6704 21.1602ZM39.9666 4.53136C42.4337 5.73144 44.6067 7.13532 46.5986 8.8206L47.0514 9.21679L37.1485 10.9825L39.6836 4.39643L39.9666 4.53136ZM30.7993 2.31205C33.21 2.48144 35.6998 3.00401 38.1671 3.85383L38.4499 3.94284L35.9602 10.4973L30.1995 2.26903L30.7993 2.31205ZM35.247 11.6629L29.0112 16.2594L22.7754 11.7203L29.0112 2.70825L35.247 11.6629ZM19.414 3.97728C22.0057 3.00401 24.6088 2.42694 27.1666 2.25755L27.7548 2.21155L22.0172 10.5317L19.1424 4.07777L19.414 3.97728ZM11.4237 8.8206C13.3818 7.18126 15.5095 5.80031 17.7503 4.7122L18.0219 4.58875L20.84 10.994L10.9601 9.20532L11.4237 8.8206ZM21.1794 12.3405L20.0138 19.983L12.3519 21.1602L10.4054 10.3939L21.1794 12.3405ZM4.54283 18.0366C5.74262 15.5675 7.14596 13.3941 8.84359 11.4131L9.2283 10.9509L11.0052 20.853L4.40703 18.3064L4.54283 18.0366ZM2.38126 27.2036C2.50557 24.7145 3.01517 22.211 3.9204 19.7678L4.02232 19.495L10.5636 22.0416L2.35857 27.7807L2.38126 27.2036ZM3.97695 38.501C3.04905 35.9085 2.49437 33.3045 2.32469 30.758L2.27934 30.1693L10.5412 35.897L4.07887 38.7823L3.97695 38.501ZM9.2283 47.002L8.84359 46.5484C7.19104 44.6593 5.84425 42.5864 4.72399 40.2207L4.59939 39.9595L11.0052 37.1431L9.2283 47.002ZM12.3519 36.8013L20.0138 38.0359L21.1794 45.6211L10.4054 47.5676L12.3519 36.8013ZM18.056 53.4302C15.5887 52.2187 13.4156 50.8147 11.4237 49.1294L10.9713 48.7447L20.8739 46.9676L18.3388 53.5652L18.056 53.4302ZM27.2231 55.6495C24.8012 55.4686 22.3226 54.9576 19.8553 54.1107L19.5725 54.0187L22.0622 47.4643L27.8229 55.6839L27.2231 55.6495ZM22.7754 46.2986L29.0112 41.705L35.247 46.2441L29.0112 55.2533L22.7754 46.2986ZM38.6084 53.9843C36.0167 54.9576 33.4136 55.5347 30.8561 55.7069L30.2675 55.75L36.0055 47.4327L38.88 53.8838L38.6084 53.9843ZM46.5986 49.1294C44.8103 50.6913 42.6714 52.0722 40.2721 53.2493L40.0005 53.3728L37.1823 46.9676L47.0399 48.7447L46.5986 49.1294ZM36.843 45.6211L38.0086 37.9699L45.6704 36.8013L47.6173 47.5676L36.843 45.6211ZM53.4796 39.9279C52.2801 42.3941 50.8764 44.556 49.1791 46.5484L48.7941 47.002L47.0172 37.1086L53.6154 39.6437L53.4796 39.9279ZM55.6411 30.758C55.5168 33.2471 55.0072 35.7506 54.102 38.1938L54.0001 38.4666L47.4588 35.92L55.6638 30.1808L55.6411 30.758ZM47.4812 22.0531L53.9435 19.1792L54.0454 19.4606C54.9733 22.0531 55.528 24.6571 55.6977 27.1922L55.743 27.7807L47.4812 22.0531Z" stroke="black" stroke-opacity="0.2" stroke-width="0.2"/>
<path d="M55.8677 21.0454C54.6452 16.914 52.4951 13.1127 49.6542 10.0207C44.4483 4.37342 36.7296 1 29.0112 1C21.6548 1 14.4796 3.93131 9.30754 9.05891C2.57361 15.7139 -0.38036 25.5844 1.61154 34.8003C2.82253 40.3557 5.70846 45.5177 9.74881 49.3448C16.5054 55.75 26.3291 58.3999 35.3604 56.284C40.9172 54.9691 46.0666 51.9258 49.8581 47.7025C54.4302 42.5979 56.9652 35.9544 56.9994 28.9808C57.0106 26.2648 56.6259 23.6034 55.8677 21.0454ZM48.7941 10.9624L49.1791 11.4017C50.8314 13.3051 52.1781 15.3752 53.2984 17.7294L53.423 18.002L47.0172 20.8214L48.7941 10.9624ZM29.0112 40.2896L21.0097 36.9736L17.6937 28.9808L21.0097 20.9793L29.0112 17.6719L37.0127 20.9793L40.3287 28.9808L37.0127 36.9736L29.0112 40.2896ZM36.673 38.501L35.6093 45.044L30.2675 41.128L36.673 38.501ZM27.7663 41.0705L22.3565 44.9866L21.3494 38.4321L27.7663 41.0705ZM16.2792 28.9808L11.7407 35.208L2.70941 28.9808L11.7407 22.7564L16.2792 28.9808ZM12.929 22.3832L19.4818 21.387L16.8451 27.7262L12.929 22.3832ZM16.9128 30.2268L19.5498 36.632L12.9971 35.5697L16.9128 30.2268ZM21.3494 19.4606L22.4131 12.9204L27.7548 16.8365L21.3494 19.4606ZM30.2561 16.891L35.6659 12.975L36.673 19.518L30.2561 16.891ZM38.4726 21.3181L45.0253 22.3948L41.1776 27.7233L38.4726 21.3181ZM41.1776 30.2383L45.0934 35.5697L38.4726 36.632L41.1776 30.2383ZM41.7435 28.9808L46.2817 22.7564L55.313 28.9808L46.2817 35.208L41.7435 28.9808ZM45.6704 21.1602L38.0086 19.9256L36.843 12.3434L47.6173 10.3939L45.6704 21.1602ZM39.9666 4.53136C42.4337 5.73144 44.6067 7.13532 46.5986 8.8206L47.0514 9.21679L37.1485 10.9825L39.6836 4.39643L39.9666 4.53136ZM30.7993 2.31205C33.21 2.48144 35.6998 3.00401 38.1671 3.85383L38.4499 3.94284L35.9602 10.4973L30.1995 2.26903L30.7993 2.31205ZM35.247 11.6629L29.0112 16.2594L22.7754 11.7203L29.0112 2.70825L35.247 11.6629ZM19.414 3.97728C22.0057 3.00401 24.6088 2.42694 27.1666 2.25755L27.7548 2.21155L22.0172 10.5317L19.1424 4.07777L19.414 3.97728ZM11.4237 8.8206C13.3818 7.18126 15.5095 5.80031 17.7503 4.7122L18.0219 4.58875L20.84 10.994L10.9601 9.20532L11.4237 8.8206ZM21.1794 12.3405L20.0138 19.983L12.3519 21.1602L10.4054 10.3939L21.1794 12.3405ZM4.54283 18.0366C5.74262 15.5675 7.14596 13.3941 8.84359 11.4131L9.2283 10.9509L11.0052 20.853L4.40703 18.3064L4.54283 18.0366ZM2.38126 27.2036C2.50557 24.7145 3.01517 22.211 3.9204 19.7678L4.02232 19.495L10.5636 22.0416L2.35857 27.7807L2.38126 27.2036ZM3.97695 38.501C3.04905 35.9085 2.49437 33.3045 2.32469 30.758L2.27934 30.1693L10.5412 35.897L4.07887 38.7823L3.97695 38.501ZM9.2283 47.002L8.84359 46.5484C7.19104 44.6593 5.84425 42.5864 4.72399 40.2207L4.59939 39.9595L11.0052 37.1431L9.2283 47.002ZM12.3519 36.8013L20.0138 38.0359L21.1794 45.6211L10.4054 47.5676L12.3519 36.8013ZM18.056 53.4302C15.5887 52.2187 13.4156 50.8147 11.4237 49.1294L10.9713 48.7447L20.8739 46.9676L18.3388 53.5652L18.056 53.4302ZM27.2231 55.6495C24.8012 55.4686 22.3226 54.9576 19.8553 54.1107L19.5725 54.0187L22.0622 47.4643L27.8229 55.6839L27.2231 55.6495ZM22.7754 46.2986L29.0112 41.705L35.247 46.2441L29.0112 55.2533L22.7754 46.2986ZM38.6084 53.9843C36.0167 54.9576 33.4136 55.5347 30.8561 55.7069L30.2675 55.75L36.0055 47.4327L38.88 53.8838L38.6084 53.9843ZM46.5986 49.1294C44.8103 50.6913 42.6714 52.0722 40.2721 53.2493L40.0005 53.3728L37.1823 46.9676L47.0399 48.7447L46.5986 49.1294ZM36.843 45.6211L38.0086 37.9699L45.6704 36.8013L47.6173 47.5676L36.843 45.6211ZM53.4796 39.9279C52.2801 42.3941 50.8764 44.556 49.1791 46.5484L48.7941 47.002L47.0172 37.1086L53.6154 39.6437L53.4796 39.9279ZM55.6411 30.758C55.5168 33.2471 55.0072 35.7506 54.102 38.1938L54.0001 38.4666L47.4588 35.92L55.6638 30.1808L55.6411 30.758ZM47.4812 22.0531L53.9435 19.1792L54.0454 19.4606C54.9733 22.0531 55.528 24.6571 55.6977 27.1922L55.743 27.7807L47.4812 22.0531Z" stroke="black" stroke-opacity="0.2" stroke-width="0.2"/>
<path d="M55.8677 21.0454C54.6452 16.914 52.4951 13.1127 49.6542 10.0207C44.4483 4.37342 36.7296 1 29.0112 1C21.6548 1 14.4796 3.93131 9.30754 9.05891C2.57361 15.7139 -0.38036 25.5844 1.61154 34.8003C2.82253 40.3557 5.70846 45.5177 9.74881 49.3448C16.5054 55.75 26.3291 58.3999 35.3604 56.284C40.9172 54.9691 46.0666 51.9258 49.8581 47.7025C54.4302 42.5979 56.9652 35.9544 56.9994 28.9808C57.0106 26.2648 56.6259 23.6034 55.8677 21.0454ZM48.7941 10.9624L49.1791 11.4017C50.8314 13.3051 52.1781 15.3752 53.2984 17.7294L53.423 18.002L47.0172 20.8214L48.7941 10.9624ZM29.0112 40.2896L21.0097 36.9736L17.6937 28.9808L21.0097 20.9793L29.0112 17.6719L37.0127 20.9793L40.3287 28.9808L37.0127 36.9736L29.0112 40.2896ZM36.673 38.501L35.6093 45.044L30.2675 41.128L36.673 38.501ZM27.7663 41.0705L22.3565 44.9866L21.3494 38.4321L27.7663 41.0705ZM16.2792 28.9808L11.7407 35.208L2.70941 28.9808L11.7407 22.7564L16.2792 28.9808ZM12.929 22.3832L19.4818 21.387L16.8451 27.7262L12.929 22.3832ZM16.9128 30.2268L19.5498 36.632L12.9971 35.5697L16.9128 30.2268ZM21.3494 19.4606L22.4131 12.9204L27.7548 16.8365L21.3494 19.4606ZM30.2561 16.891L35.6659 12.975L36.673 19.518L30.2561 16.891ZM38.4726 21.3181L45.0253 22.3948L41.1776 27.7233L38.4726 21.3181ZM41.1776 30.2383L45.0934 35.5697L38.4726 36.632L41.1776 30.2383ZM41.7435 28.9808L46.2817 22.7564L55.313 28.9808L46.2817 35.208L41.7435 28.9808ZM45.6704 21.1602L38.0086 19.9256L36.843 12.3434L47.6173 10.3939L45.6704 21.1602ZM39.9666 4.53136C42.4337 5.73144 44.6067 7.13532 46.5986 8.8206L47.0514 9.21679L37.1485 10.9825L39.6836 4.39643L39.9666 4.53136ZM30.7993 2.31205C33.21 2.48144 35.6998 3.00401 38.1671 3.85383L38.4499 3.94284L35.9602 10.4973L30.1995 2.26903L30.7993 2.31205ZM35.247 11.6629L29.0112 16.2594L22.7754 11.7203L29.0112 2.70825L35.247 11.6629ZM19.414 3.97728C22.0057 3.00401 24.6088 2.42694 27.1666 2.25755L27.7548 2.21155L22.0172 10.5317L19.1424 4.07777L19.414 3.97728ZM11.4237 8.8206C13.3818 7.18126 15.5095 5.80031 17.7503 4.7122L18.0219 4.58875L20.84 10.994L10.9601 9.20532L11.4237 8.8206ZM21.1794 12.3405L20.0138 19.983L12.3519 21.1602L10.4054 10.3939L21.1794 12.3405ZM4.54283 18.0366C5.74262 15.5675 7.14596 13.3941 8.84359 11.4131L9.2283 10.9509L11.0052 20.853L4.40703 18.3064L4.54283 18.0366ZM2.38126 27.2036C2.50557 24.7145 3.01517 22.211 3.9204 19.7678L4.02232 19.495L10.5636 22.0416L2.35857 27.7807L2.38126 27.2036ZM3.97695 38.501C3.04905 35.9085 2.49437 33.3045 2.32469 30.758L2.27934 30.1693L10.5412 35.897L4.07887 38.7823L3.97695 38.501ZM9.2283 47.002L8.84359 46.5484C7.19104 44.6593 5.84425 42.5864 4.72399 40.2207L4.59939 39.9595L11.0052 37.1431L9.2283 47.002ZM12.3519 36.8013L20.0138 38.0359L21.1794 45.6211L10.4054 47.5676L12.3519 36.8013ZM18.056 53.4302C15.5887 52.2187 13.4156 50.8147 11.4237 49.1294L10.9713 48.7447L20.8739 46.9676L18.3388 53.5652L18.056 53.4302ZM27.2231 55.6495C24.8012 55.4686 22.3226 54.9576 19.8553 54.1107L19.5725 54.0187L22.0622 47.4643L27.8229 55.6839L27.2231 55.6495ZM22.7754 46.2986L29.0112 41.705L35.247 46.2441L29.0112 55.2533L22.7754 46.2986ZM38.6084 53.9843C36.0167 54.9576 33.4136 55.5347 30.8561 55.7069L30.2675 55.75L36.0055 47.4327L38.88 53.8838L38.6084 53.9843ZM46.5986 49.1294C44.8103 50.6913 42.6714 52.0722 40.2721 53.2493L40.0005 53.3728L37.1823 46.9676L47.0399 48.7447L46.5986 49.1294ZM36.843 45.6211L38.0086 37.9699L45.6704 36.8013L47.6173 47.5676L36.843 45.6211ZM53.4796 39.9279C52.2801 42.3941 50.8764 44.556 49.1791 46.5484L48.7941 47.002L47.0172 37.1086L53.6154 39.6437L53.4796 39.9279ZM55.6411 30.758C55.5168 33.2471 55.0072 35.7506 54.102 38.1938L54.0001 38.4666L47.4588 35.92L55.6638 30.1808L55.6411 30.758ZM47.4812 22.0531L53.9435 19.1792L54.0454 19.4606C54.9733 22.0531 55.528 24.6571 55.6977 27.1922L55.743 27.7807L47.4812 22.0531Z" stroke="black" stroke-opacity="0.2" stroke-width="0.2"/>
<path d="M55.8677 21.0454C54.6452 16.914 52.4951 13.1127 49.6542 10.0207C44.4483 4.37342 36.7296 1 29.0112 1C21.6548 1 14.4796 3.93131 9.30754 9.05891C2.57361 15.7139 -0.38036 25.5844 1.61154 34.8003C2.82253 40.3557 5.70846 45.5177 9.74881 49.3448C16.5054 55.75 26.3291 58.3999 35.3604 56.284C40.9172 54.9691 46.0666 51.9258 49.8581 47.7025C54.4302 42.5979 56.9652 35.9544 56.9994 28.9808C57.0106 26.2648 56.6259 23.6034 55.8677 21.0454ZM48.7941 10.9624L49.1791 11.4017C50.8314 13.3051 52.1781 15.3752 53.2984 17.7294L53.423 18.002L47.0172 20.8214L48.7941 10.9624ZM29.0112 40.2896L21.0097 36.9736L17.6937 28.9808L21.0097 20.9793L29.0112 17.6719L37.0127 20.9793L40.3287 28.9808L37.0127 36.9736L29.0112 40.2896ZM36.673 38.501L35.6093 45.044L30.2675 41.128L36.673 38.501ZM27.7663 41.0705L22.3565 44.9866L21.3494 38.4321L27.7663 41.0705ZM16.2792 28.9808L11.7407 35.208L2.70941 28.9808L11.7407 22.7564L16.2792 28.9808ZM12.929 22.3832L19.4818 21.387L16.8451 27.7262L12.929 22.3832ZM16.9128 30.2268L19.5498 36.632L12.9971 35.5697L16.9128 30.2268ZM21.3494 19.4606L22.4131 12.9204L27.7548 16.8365L21.3494 19.4606ZM30.2561 16.891L35.6659 12.975L36.673 19.518L30.2561 16.891ZM38.4726 21.3181L45.0253 22.3948L41.1776 27.7233L38.4726 21.3181ZM41.1776 30.2383L45.0934 35.5697L38.4726 36.632L41.1776 30.2383ZM41.7435 28.9808L46.2817 22.7564L55.313 28.9808L46.2817 35.208L41.7435 28.9808ZM45.6704 21.1602L38.0086 19.9256L36.843 12.3434L47.6173 10.3939L45.6704 21.1602ZM39.9666 4.53136C42.4337 5.73144 44.6067 7.13532 46.5986 8.8206L47.0514 9.21679L37.1485 10.9825L39.6836 4.39643L39.9666 4.53136ZM30.7993 2.31205C33.21 2.48144 35.6998 3.00401 38.1671 3.85383L38.4499 3.94284L35.9602 10.4973L30.1995 2.26903L30.7993 2.31205ZM35.247 11.6629L29.0112 16.2594L22.7754 11.7203L29.0112 2.70825L35.247 11.6629ZM19.414 3.97728C22.0057 3.00401 24.6088 2.42694 27.1666 2.25755L27.7548 2.21155L22.0172 10.5317L19.1424 4.07777L19.414 3.97728ZM11.4237 8.8206C13.3818 7.18126 15.5095 5.80031 17.7503 4.7122L18.0219 4.58875L20.84 10.994L10.9601 9.20532L11.4237 8.8206ZM21.1794 12.3405L20.0138 19.983L12.3519 21.1602L10.4054 10.3939L21.1794 12.3405ZM4.54283 18.0366C5.74262 15.5675 7.14596 13.3941 8.84359 11.4131L9.2283 10.9509L11.0052 20.853L4.40703 18.3064L4.54283 18.0366ZM2.38126 27.2036C2.50557 24.7145 3.01517 22.211 3.9204 19.7678L4.02232 19.495L10.5636 22.0416L2.35857 27.7807L2.38126 27.2036ZM3.97695 38.501C3.04905 35.9085 2.49437 33.3045 2.32469 30.758L2.27934 30.1693L10.5412 35.897L4.07887 38.7823L3.97695 38.501ZM9.2283 47.002L8.84359 46.5484C7.19104 44.6593 5.84425 42.5864 4.72399 40.2207L4.59939 39.9595L11.0052 37.1431L9.2283 47.002ZM12.3519 36.8013L20.0138 38.0359L21.1794 45.6211L10.4054 47.5676L12.3519 36.8013ZM18.056 53.4302C15.5887 52.2187 13.4156 50.8147 11.4237 49.1294L10.9713 48.7447L20.8739 46.9676L18.3388 53.5652L18.056 53.4302ZM27.2231 55.6495C24.8012 55.4686 22.3226 54.9576 19.8553 54.1107L19.5725 54.0187L22.0622 47.4643L27.8229 55.6839L27.2231 55.6495ZM22.7754 46.2986L29.0112 41.705L35.247 46.2441L29.0112 55.2533L22.7754 46.2986ZM38.6084 53.9843C36.0167 54.9576 33.4136 55.5347 30.8561 55.7069L30.2675 55.75L36.0055 47.4327L38.88 53.8838L38.6084 53.9843ZM46.5986 49.1294C44.8103 50.6913 42.6714 52.0722 40.2721 53.2493L40.0005 53.3728L37.1823 46.9676L47.0399 48.7447L46.5986 49.1294ZM36.843 45.6211L38.0086 37.9699L45.6704 36.8013L47.6173 47.5676L36.843 45.6211ZM53.4796 39.9279C52.2801 42.3941 50.8764 44.556 49.1791 46.5484L48.7941 47.002L47.0172 37.1086L53.6154 39.6437L53.4796 39.9279ZM55.6411 30.758C55.5168 33.2471 55.0072 35.7506 54.102 38.1938L54.0001 38.4666L47.4588 35.92L55.6638 30.1808L55.6411 30.758ZM47.4812 22.0531L53.9435 19.1792L54.0454 19.4606C54.9733 22.0531 55.528 24.6571 55.6977 27.1922L55.743 27.7807L47.4812 22.0531Z" stroke="black" stroke-opacity="0.2" stroke-width="0.2"/>
<path d="M55.8677 21.0454C54.6452 16.914 52.4951 13.1127 49.6542 10.0207C44.4483 4.37342 36.7296 1 29.0112 1C21.6548 1 14.4796 3.93131 9.30754 9.05891C2.57361 15.7139 -0.38036 25.5844 1.61154 34.8003C2.82253 40.3557 5.70846 45.5177 9.74881 49.3448C16.5054 55.75 26.3291 58.3999 35.3604 56.284C40.9172 54.9691 46.0666 51.9258 49.8581 47.7025C54.4302 42.5979 56.9652 35.9544 56.9994 28.9808C57.0106 26.2648 56.6259 23.6034 55.8677 21.0454ZM48.7941 10.9624L49.1791 11.4017C50.8314 13.3051 52.1781 15.3752 53.2984 17.7294L53.423 18.002L47.0172 20.8214L48.7941 10.9624ZM29.0112 40.2896L21.0097 36.9736L17.6937 28.9808L21.0097 20.9793L29.0112 17.6719L37.0127 20.9793L40.3287 28.9808L37.0127 36.9736L29.0112 40.2896ZM36.673 38.501L35.6093 45.044L30.2675 41.128L36.673 38.501ZM27.7663 41.0705L22.3565 44.9866L21.3494 38.4321L27.7663 41.0705ZM16.2792 28.9808L11.7407 35.208L2.70941 28.9808L11.7407 22.7564L16.2792 28.9808ZM12.929 22.3832L19.4818 21.387L16.8451 27.7262L12.929 22.3832ZM16.9128 30.2268L19.5498 36.632L12.9971 35.5697L16.9128 30.2268ZM21.3494 19.4606L22.4131 12.9204L27.7548 16.8365L21.3494 19.4606ZM30.2561 16.891L35.6659 12.975L36.673 19.518L30.2561 16.891ZM38.4726 21.3181L45.0253 22.3948L41.1776 27.7233L38.4726 21.3181ZM41.1776 30.2383L45.0934 35.5697L38.4726 36.632L41.1776 30.2383ZM41.7435 28.9808L46.2817 22.7564L55.313 28.9808L46.2817 35.208L41.7435 28.9808ZM45.6704 21.1602L38.0086 19.9256L36.843 12.3434L47.6173 10.3939L45.6704 21.1602ZM39.9666 4.53136C42.4337 5.73144 44.6067 7.13532 46.5986 8.8206L47.0514 9.21679L37.1485 10.9825L39.6836 4.39643L39.9666 4.53136ZM30.7993 2.31205C33.21 2.48144 35.6998 3.00401 38.1671 3.85383L38.4499 3.94284L35.9602 10.4973L30.1995 2.26903L30.7993 2.31205ZM35.247 11.6629L29.0112 16.2594L22.7754 11.7203L29.0112 2.70825L35.247 11.6629ZM19.414 3.97728C22.0057 3.00401 24.6088 2.42694 27.1666 2.25755L27.7548 2.21155L22.0172 10.5317L19.1424 4.07777L19.414 3.97728ZM11.4237 8.8206C13.3818 7.18126 15.5095 5.80031 17.7503 4.7122L18.0219 4.58875L20.84 10.994L10.9601 9.20532L11.4237 8.8206ZM21.1794 12.3405L20.0138 19.983L12.3519 21.1602L10.4054 10.3939L21.1794 12.3405ZM4.54283 18.0366C5.74262 15.5675 7.14596 13.3941 8.84359 11.4131L9.2283 10.9509L11.0052 20.853L4.40703 18.3064L4.54283 18.0366ZM2.38126 27.2036C2.50557 24.7145 3.01517 22.211 3.9204 19.7678L4.02232 19.495L10.5636 22.0416L2.35857 27.7807L2.38126 27.2036ZM3.97695 38.501C3.04905 35.9085 2.49437 33.3045 2.32469 30.758L2.27934 30.1693L10.5412 35.897L4.07887 38.7823L3.97695 38.501ZM9.2283 47.002L8.84359 46.5484C7.19104 44.6593 5.84425 42.5864 4.72399 40.2207L4.59939 39.9595L11.0052 37.1431L9.2283 47.002ZM12.3519 36.8013L20.0138 38.0359L21.1794 45.6211L10.4054 47.5676L12.3519 36.8013ZM18.056 53.4302C15.5887 52.2187 13.4156 50.8147 11.4237 49.1294L10.9713 48.7447L20.8739 46.9676L18.3388 53.5652L18.056 53.4302ZM27.2231 55.6495C24.8012 55.4686 22.3226 54.9576 19.8553 54.1107L19.5725 54.0187L22.0622 47.4643L27.8229 55.6839L27.2231 55.6495ZM22.7754 46.2986L29.0112 41.705L35.247 46.2441L29.0112 55.2533L22.7754 46.2986ZM38.6084 53.9843C36.0167 54.9576 33.4136 55.5347 30.8561 55.7069L30.2675 55.75L36.0055 47.4327L38.88 53.8838L38.6084 53.9843ZM46.5986 49.1294C44.8103 50.6913 42.6714 52.0722 40.2721 53.2493L40.0005 53.3728L37.1823 46.9676L47.0399 48.7447L46.5986 49.1294ZM36.843 45.6211L38.0086 37.9699L45.6704 36.8013L47.6173 47.5676L36.843 45.6211ZM53.4796 39.9279C52.2801 42.3941 50.8764 44.556 49.1791 46.5484L48.7941 47.002L47.0172 37.1086L53.6154 39.6437L53.4796 39.9279ZM55.6411 30.758C55.5168 33.2471 55.0072 35.7506 54.102 38.1938L54.0001 38.4666L47.4588 35.92L55.6638 30.1808L55.6411 30.758ZM47.4812 22.0531L53.9435 19.1792L54.0454 19.4606C54.9733 22.0531 55.528 24.6571 55.6977 27.1922L55.743 27.7807L47.4812 22.0531Z" stroke="black" stroke-opacity="0.2" stroke-width="0.2"/>
<path d="M55.8677 21.0454C54.6452 16.914 52.4951 13.1127 49.6542 10.0207C44.4483 4.37342 36.7296 1 29.0112 1C21.6548 1 14.4796 3.93131 9.30754 9.05891C2.57361 15.7139 -0.38036 25.5844 1.61154 34.8003C2.82253 40.3557 5.70846 45.5177 9.74881 49.3448C16.5054 55.75 26.3291 58.3999 35.3604 56.284C40.9172 54.9691 46.0666 51.9258 49.8581 47.7025C54.4302 42.5979 56.9652 35.9544 56.9994 28.9808C57.0106 26.2648 56.6259 23.6034 55.8677 21.0454ZM48.7941 10.9624L49.1791 11.4017C50.8314 13.3051 52.1781 15.3752 53.2984 17.7294L53.423 18.002L47.0172 20.8214L48.7941 10.9624ZM29.0112 40.2896L21.0097 36.9736L17.6937 28.9808L21.0097 20.9793L29.0112 17.6719L37.0127 20.9793L40.3287 28.9808L37.0127 36.9736L29.0112 40.2896ZM36.673 38.501L35.6093 45.044L30.2675 41.128L36.673 38.501ZM27.7663 41.0705L22.3565 44.9866L21.3494 38.4321L27.7663 41.0705ZM16.2792 28.9808L11.7407 35.208L2.70941 28.9808L11.7407 22.7564L16.2792 28.9808ZM12.929 22.3832L19.4818 21.387L16.8451 27.7262L12.929 22.3832ZM16.9128 30.2268L19.5498 36.632L12.9971 35.5697L16.9128 30.2268ZM21.3494 19.4606L22.4131 12.9204L27.7548 16.8365L21.3494 19.4606ZM30.2561 16.891L35.6659 12.975L36.673 19.518L30.2561 16.891ZM38.4726 21.3181L45.0253 22.3948L41.1776 27.7233L38.4726 21.3181ZM41.1776 30.2383L45.0934 35.5697L38.4726 36.632L41.1776 30.2383ZM41.7435 28.9808L46.2817 22.7564L55.313 28.9808L46.2817 35.208L41.7435 28.9808ZM45.6704 21.1602L38.0086 19.9256L36.843 12.3434L47.6173 10.3939L45.6704 21.1602ZM39.9666 4.53136C42.4337 5.73144 44.6067 7.13532 46.5986 8.8206L47.0514 9.21679L37.1485 10.9825L39.6836 4.39643L39.9666 4.53136ZM30.7993 2.31205C33.21 2.48144 35.6998 3.00401 38.1671 3.85383L38.4499 3.94284L35.9602 10.4973L30.1995 2.26903L30.7993 2.31205ZM35.247 11.6629L29.0112 16.2594L22.7754 11.7203L29.0112 2.70825L35.247 11.6629ZM19.414 3.97728C22.0057 3.00401 24.6088 2.42694 27.1666 2.25755L27.7548 2.21155L22.0172 10.5317L19.1424 4.07777L19.414 3.97728ZM11.4237 8.8206C13.3818 7.18126 15.5095 5.80031 17.7503 4.7122L18.0219 4.58875L20.84 10.994L10.9601 9.20532L11.4237 8.8206ZM21.1794 12.3405L20.0138 19.983L12.3519 21.1602L10.4054 10.3939L21.1794 12.3405ZM4.54283 18.0366C5.74262 15.5675 7.14596 13.3941 8.84359 11.4131L9.2283 10.9509L11.0052 20.853L4.40703 18.3064L4.54283 18.0366ZM2.38126 27.2036C2.50557 24.7145 3.01517 22.211 3.9204 19.7678L4.02232 19.495L10.5636 22.0416L2.35857 27.7807L2.38126 27.2036ZM3.97695 38.501C3.04905 35.9085 2.49437 33.3045 2.32469 30.758L2.27934 30.1693L10.5412 35.897L4.07887 38.7823L3.97695 38.501ZM9.2283 47.002L8.84359 46.5484C7.19104 44.6593 5.84425 42.5864 4.72399 40.2207L4.59939 39.9595L11.0052 37.1431L9.2283 47.002ZM12.3519 36.8013L20.0138 38.0359L21.1794 45.6211L10.4054 47.5676L12.3519 36.8013ZM18.056 53.4302C15.5887 52.2187 13.4156 50.8147 11.4237 49.1294L10.9713 48.7447L20.8739 46.9676L18.3388 53.5652L18.056 53.4302ZM27.2231 55.6495C24.8012 55.4686 22.3226 54.9576 19.8553 54.1107L19.5725 54.0187L22.0622 47.4643L27.8229 55.6839L27.2231 55.6495ZM22.7754 46.2986L29.0112 41.705L35.247 46.2441L29.0112 55.2533L22.7754 46.2986ZM38.6084 53.9843C36.0167 54.9576 33.4136 55.5347 30.8561 55.7069L30.2675 55.75L36.0055 47.4327L38.88 53.8838L38.6084 53.9843ZM46.5986 49.1294C44.8103 50.6913 42.6714 52.0722 40.2721 53.2493L40.0005 53.3728L37.1823 46.9676L47.0399 48.7447L46.5986 49.1294ZM36.843 45.6211L38.0086 37.9699L45.6704 36.8013L47.6173 47.5676L36.843 45.6211ZM53.4796 39.9279C52.2801 42.3941 50.8764 44.556 49.1791 46.5484L48.7941 47.002L47.0172 37.1086L53.6154 39.6437L53.4796 39.9279ZM55.6411 30.758C55.5168 33.2471 55.0072 35.7506 54.102 38.1938L54.0001 38.4666L47.4588 35.92L55.6638 30.1808L55.6411 30.758ZM47.4812 22.0531L53.9435 19.1792L54.0454 19.4606C54.9733 22.0531 55.528 24.6571 55.6977 27.1922L55.743 27.7807L47.4812 22.0531Z" stroke="black" stroke-opacity="0.2" stroke-width="0.2"/>
<path d="M55.8677 21.0454C54.6452 16.914 52.4951 13.1127 49.6542 10.0207C44.4483 4.37342 36.7296 1 29.0112 1C21.6548 1 14.4796 3.93131 9.30754 9.05891C2.57361 15.7139 -0.38036 25.5844 1.61154 34.8003C2.82253 40.3557 5.70846 45.5177 9.74881 49.3448C16.5054 55.75 26.3291 58.3999 35.3604 56.284C40.9172 54.9691 46.0666 51.9258 49.8581 47.7025C54.4302 42.5979 56.9652 35.9544 56.9994 28.9808C57.0106 26.2648 56.6259 23.6034 55.8677 21.0454ZM48.7941 10.9624L49.1791 11.4017C50.8314 13.3051 52.1781 15.3752 53.2984 17.7294L53.423 18.002L47.0172 20.8214L48.7941 10.9624ZM29.0112 40.2896L21.0097 36.9736L17.6937 28.9808L21.0097 20.9793L29.0112 17.6719L37.0127 20.9793L40.3287 28.9808L37.0127 36.9736L29.0112 40.2896ZM36.673 38.501L35.6093 45.044L30.2675 41.128L36.673 38.501ZM27.7663 41.0705L22.3565 44.9866L21.3494 38.4321L27.7663 41.0705ZM16.2792 28.9808L11.7407 35.208L2.70941 28.9808L11.7407 22.7564L16.2792 28.9808ZM12.929 22.3832L19.4818 21.387L16.8451 27.7262L12.929 22.3832ZM16.9128 30.2268L19.5498 36.632L12.9971 35.5697L16.9128 30.2268ZM21.3494 19.4606L22.4131 12.9204L27.7548 16.8365L21.3494 19.4606ZM30.2561 16.891L35.6659 12.975L36.673 19.518L30.2561 16.891ZM38.4726 21.3181L45.0253 22.3948L41.1776 27.7233L38.4726 21.3181ZM41.1776 30.2383L45.0934 35.5697L38.4726 36.632L41.1776 30.2383ZM41.7435 28.9808L46.2817 22.7564L55.313 28.9808L46.2817 35.208L41.7435 28.9808ZM45.6704 21.1602L38.0086 19.9256L36.843 12.3434L47.6173 10.3939L45.6704 21.1602ZM39.9666 4.53136C42.4337 5.73144 44.6067 7.13532 46.5986 8.8206L47.0514 9.21679L37.1485 10.9825L39.6836 4.39643L39.9666 4.53136ZM30.7993 2.31205C33.21 2.48144 35.6998 3.00401 38.1671 3.85383L38.4499 3.94284L35.9602 10.4973L30.1995 2.26903L30.7993 2.31205ZM35.247 11.6629L29.0112 16.2594L22.7754 11.7203L29.0112 2.70825L35.247 11.6629ZM19.414 3.97728C22.0057 3.00401 24.6088 2.42694 27.1666 2.25755L27.7548 2.21155L22.0172 10.5317L19.1424 4.07777L19.414 3.97728ZM11.4237 8.8206C13.3818 7.18126 15.5095 5.80031 17.7503 4.7122L18.0219 4.58875L20.84 10.994L10.9601 9.20532L11.4237 8.8206ZM21.1794 12.3405L20.0138 19.983L12.3519 21.1602L10.4054 10.3939L21.1794 12.3405ZM4.54283 18.0366C5.74262 15.5675 7.14596 13.3941 8.84359 11.4131L9.2283 10.9509L11.0052 20.853L4.40703 18.3064L4.54283 18.0366ZM2.38126 27.2036C2.50557 24.7145 3.01517 22.211 3.9204 19.7678L4.02232 19.495L10.5636 22.0416L2.35857 27.7807L2.38126 27.2036ZM3.97695 38.501C3.04905 35.9085 2.49437 33.3045 2.32469 30.758L2.27934 30.1693L10.5412 35.897L4.07887 38.7823L3.97695 38.501ZM9.2283 47.002L8.84359 46.5484C7.19104 44.6593 5.84425 42.5864 4.72399 40.2207L4.59939 39.9595L11.0052 37.1431L9.2283 47.002ZM12.3519 36.8013L20.0138 38.0359L21.1794 45.6211L10.4054 47.5676L12.3519 36.8013ZM18.056 53.4302C15.5887 52.2187 13.4156 50.8147 11.4237 49.1294L10.9713 48.7447L20.8739 46.9676L18.3388 53.5652L18.056 53.4302ZM27.2231 55.6495C24.8012 55.4686 22.3226 54.9576 19.8553 54.1107L19.5725 54.0187L22.0622 47.4643L27.8229 55.6839L27.2231 55.6495ZM22.7754 46.2986L29.0112 41.705L35.247 46.2441L29.0112 55.2533L22.7754 46.2986ZM38.6084 53.9843C36.0167 54.9576 33.4136 55.5347 30.8561 55.7069L30.2675 55.75L36.0055 47.4327L38.88 53.8838L38.6084 53.9843ZM46.5986 49.1294C44.8103 50.6913 42.6714 52.0722 40.2721 53.2493L40.0005 53.3728L37.1823 46.9676L47.0399 48.7447L46.5986 49.1294ZM36.843 45.6211L38.0086 37.9699L45.6704 36.8013L47.6173 47.5676L36.843 45.6211ZM53.4796 39.9279C52.2801 42.3941 50.8764 44.556 49.1791 46.5484L48.7941 47.002L47.0172 37.1086L53.6154 39.6437L53.4796 39.9279ZM55.6411 30.758C55.5168 33.2471 55.0072 35.7506 54.102 38.1938L54.0001 38.4666L47.4588 35.92L55.6638 30.1808L55.6411 30.758ZM47.4812 22.0531L53.9435 19.1792L54.0454 19.4606C54.9733 22.0531 55.528 24.6571 55.6977 27.1922L55.743 27.7807L47.4812 22.0531Z" stroke="black" stroke-opacity="0.2" stroke-width="0.2"/>
<path d="M55.8677 21.0454C54.6452 16.914 52.4951 13.1127 49.6542 10.0207C44.4483 4.37342 36.7296 1 29.0112 1C21.6548 1 14.4796 3.93131 9.30754 9.05891C2.57361 15.7139 -0.38036 25.5844 1.61154 34.8003C2.82253 40.3557 5.70846 45.5177 9.74881 49.3448C16.5054 55.75 26.3291 58.3999 35.3604 56.284C40.9172 54.9691 46.0666 51.9258 49.8581 47.7025C54.4302 42.5979 56.9652 35.9544 56.9994 28.9808C57.0106 26.2648 56.6259 23.6034 55.8677 21.0454ZM48.7941 10.9624L49.1791 11.4017C50.8314 13.3051 52.1781 15.3752 53.2984 17.7294L53.423 18.002L47.0172 20.8214L48.7941 10.9624ZM29.0112 40.2896L21.0097 36.9736L17.6937 28.9808L21.0097 20.9793L29.0112 17.6719L37.0127 20.9793L40.3287 28.9808L37.0127 36.9736L29.0112 40.2896ZM36.673 38.501L35.6093 45.044L30.2675 41.128L36.673 38.501ZM27.7663 41.0705L22.3565 44.9866L21.3494 38.4321L27.7663 41.0705ZM16.2792 28.9808L11.7407 35.208L2.70941 28.9808L11.7407 22.7564L16.2792 28.9808ZM12.929 22.3832L19.4818 21.387L16.8451 27.7262L12.929 22.3832ZM16.9128 30.2268L19.5498 36.632L12.9971 35.5697L16.9128 30.2268ZM21.3494 19.4606L22.4131 12.9204L27.7548 16.8365L21.3494 19.4606ZM30.2561 16.891L35.6659 12.975L36.673 19.518L30.2561 16.891ZM38.4726 21.3181L45.0253 22.3948L41.1776 27.7233L38.4726 21.3181ZM41.1776 30.2383L45.0934 35.5697L38.4726 36.632L41.1776 30.2383ZM41.7435 28.9808L46.2817 22.7564L55.313 28.9808L46.2817 35.208L41.7435 28.9808ZM45.6704 21.1602L38.0086 19.9256L36.843 12.3434L47.6173 10.3939L45.6704 21.1602ZM39.9666 4.53136C42.4337 5.73144 44.6067 7.13532 46.5986 8.8206L47.0514 9.21679L37.1485 10.9825L39.6836 4.39643L39.9666 4.53136ZM30.7993 2.31205C33.21 2.48144 35.6998 3.00401 38.1671 3.85383L38.4499 3.94284L35.9602 10.4973L30.1995 2.26903L30.7993 2.31205ZM35.247 11.6629L29.0112 16.2594L22.7754 11.7203L29.0112 2.70825L35.247 11.6629ZM19.414 3.97728C22.0057 3.00401 24.6088 2.42694 27.1666 2.25755L27.7548 2.21155L22.0172 10.5317L19.1424 4.07777L19.414 3.97728ZM11.4237 8.8206C13.3818 7.18126 15.5095 5.80031 17.7503 4.7122L18.0219 4.58875L20.84 10.994L10.9601 9.20532L11.4237 8.8206ZM21.1794 12.3405L20.0138 19.983L12.3519 21.1602L10.4054 10.3939L21.1794 12.3405ZM4.54283 18.0366C5.74262 15.5675 7.14596 13.3941 8.84359 11.4131L9.2283 10.9509L11.0052 20.853L4.40703 18.3064L4.54283 18.0366ZM2.38126 27.2036C2.50557 24.7145 3.01517 22.211 3.9204 19.7678L4.02232 19.495L10.5636 22.0416L2.35857 27.7807L2.38126 27.2036ZM3.97695 38.501C3.04905 35.9085 2.49437 33.3045 2.32469 30.758L2.27934 30.1693L10.5412 35.897L4.07887 38.7823L3.97695 38.501ZM9.2283 47.002L8.84359 46.5484C7.19104 44.6593 5.84425 42.5864 4.72399 40.2207L4.59939 39.9595L11.0052 37.1431L9.2283 47.002ZM12.3519 36.8013L20.0138 38.0359L21.1794 45.6211L10.4054 47.5676L12.3519 36.8013ZM18.056 53.4302C15.5887 52.2187 13.4156 50.8147 11.4237 49.1294L10.9713 48.7447L20.8739 46.9676L18.3388 53.5652L18.056 53.4302ZM27.2231 55.6495C24.8012 55.4686 22.3226 54.9576 19.8553 54.1107L19.5725 54.0187L22.0622 47.4643L27.8229 55.6839L27.2231 55.6495ZM22.7754 46.2986L29.0112 41.705L35.247 46.2441L29.0112 55.2533L22.7754 46.2986ZM38.6084 53.9843C36.0167 54.9576 33.4136 55.5347 30.8561 55.7069L30.2675 55.75L36.0055 47.4327L38.88 53.8838L38.6084 53.9843ZM46.5986 49.1294C44.8103 50.6913 42.6714 52.0722 40.2721 53.2493L40.0005 53.3728L37.1823 46.9676L47.0399 48.7447L46.5986 49.1294ZM36.843 45.6211L38.0086 37.9699L45.6704 36.8013L47.6173 47.5676L36.843 45.6211ZM53.4796 39.9279C52.2801 42.3941 50.8764 44.556 49.1791 46.5484L48.7941 47.002L47.0172 37.1086L53.6154 39.6437L53.4796 39.9279ZM55.6411 30.758C55.5168 33.2471 55.0072 35.7506 54.102 38.1938L54.0001 38.4666L47.4588 35.92L55.6638 30.1808L55.6411 30.758ZM47.4812 22.0531L53.9435 19.1792L54.0454 19.4606C54.9733 22.0531 55.528 24.6571 55.6977 27.1922L55.743 27.7807L47.4812 22.0531Z" stroke="black" stroke-opacity="0.2" stroke-width="0.2"/>
</svg>
