<svg width="38" height="58" viewBox="0 0 38 58" fill="none" xmlns="http://www.w3.org/2000/svg">
<path d="M37.2127 7.53173L30.8304 1.12634C30.75 1.04596 30.6236 1 30.4801 1H7.93944C7.73272 1 7.64367 1.09767 7.63505 1.10628L1.18954 7.58623C1.16083 7.61206 1.00011 7.73838 1.00011 8.00539V49.9573C1.00011 50.1267 0.99143 50.2186 1.12637 50.342L7.62358 56.8651C7.70684 56.9569 7.82173 57 7.97676 57H30.4801C30.6954 57 30.8131 56.8938 30.8304 56.8651L30.9021 56.8048L37.3305 50.342C37.4367 50.2358 37.4568 50.1095 37.4568 49.986V8.05997C37.4568 7.86474 37.4194 7.73844 37.2127 7.53173ZM30.7242 2.694L35.8891 7.89061L32.2257 9.36916L29.2541 6.37754L30.7242 2.694ZM27.032 47.9505H11.4134L10.1903 46.6527V11.5914L11.488 10.2994H27.1037L28.3928 11.5914V46.6614L27.032 47.9505ZM27.7353 51.1775H10.7301L11.5483 49.1161H26.8339L27.7353 51.1775ZM9.03904 11.7349V46.4546L6.97766 47.359V10.9023L9.03904 11.7349ZM7.38245 9.83432L9.66778 7.54031L10.486 9.61037L9.44383 10.6583L7.38245 9.83432ZM9.44383 47.5916L10.486 48.6395L9.66778 50.7096L7.38245 48.4156L9.44383 47.5916ZM10.7301 7.13832H27.6636L26.8424 9.19979H11.5483L10.7301 7.13832ZM27.9679 9.61037L28.7861 7.54031L31.0744 9.83432L29.013 10.6583L27.9679 9.61037ZM29.013 47.5916L31.0744 48.4156L28.7861 50.7096L27.9679 48.6395L29.013 47.5916ZM29.481 46.5264V11.7349L31.5424 10.9023V47.27L29.481 46.5264ZM29.6503 2.28912L28.1947 5.97274H10.2621L8.80361 2.28912H29.6503ZM7.73275 2.694L9.19982 6.37754L6.22826 9.36916L2.56479 7.89061L7.73275 2.694ZM2.16 8.96436L5.82347 10.4343V47.7437L2.16 49.2223V8.96436ZM7.73275 55.5588L2.56479 50.3622L6.22826 48.8835L9.19982 51.8666L7.73275 55.5588ZM8.80361 56.0238L10.2621 52.3489H28.1201L29.5872 56.0238H8.80361ZM30.7242 55.5588L29.2541 51.8666L32.2257 48.8835L35.8891 50.3622L30.7242 55.5588ZM36.3658 49.2855L32.6937 47.8155V10.4343L36.3658 8.96436V49.2855Z" fill="#333335"/>
<path d="M37.2127 7.53173L30.8304 1.12634C30.75 1.04596 30.6236 1 30.4801 1H7.93944C7.73272 1 7.64367 1.09767 7.63505 1.10628L1.18954 7.58623C1.16083 7.61206 1.00011 7.73838 1.00011 8.00539V49.9573C1.00011 50.1267 0.99143 50.2186 1.12637 50.342L7.62358 56.8651C7.70684 56.9569 7.82173 57 7.97676 57H30.4801C30.6954 57 30.8131 56.8938 30.8304 56.8651L30.9021 56.8048L37.3305 50.342C37.4367 50.2358 37.4568 50.1095 37.4568 49.986V8.05997C37.4568 7.86474 37.4194 7.73844 37.2127 7.53173ZM30.7242 2.694L35.8891 7.89061L32.2257 9.36916L29.2541 6.37754L30.7242 2.694ZM27.032 47.9505H11.4134L10.1903 46.6527V11.5914L11.488 10.2994H27.1037L28.3928 11.5914V46.6614L27.032 47.9505ZM27.7353 51.1775H10.7301L11.5483 49.1161H26.8339L27.7353 51.1775ZM9.03904 11.7349V46.4546L6.97766 47.359V10.9023L9.03904 11.7349ZM7.38245 9.83432L9.66778 7.54031L10.486 9.61037L9.44383 10.6583L7.38245 9.83432ZM9.44383 47.5916L10.486 48.6395L9.66778 50.7096L7.38245 48.4156L9.44383 47.5916ZM10.7301 7.13832H27.6636L26.8424 9.19979H11.5483L10.7301 7.13832ZM27.9679 9.61037L28.7861 7.54031L31.0744 9.83432L29.013 10.6583L27.9679 9.61037ZM29.013 47.5916L31.0744 48.4156L28.7861 50.7096L27.9679 48.6395L29.013 47.5916ZM29.481 46.5264V11.7349L31.5424 10.9023V47.27L29.481 46.5264ZM29.6503 2.28912L28.1947 5.97274H10.2621L8.80361 2.28912H29.6503ZM7.73275 2.694L9.19982 6.37754L6.22826 9.36916L2.56479 7.89061L7.73275 2.694ZM2.16 8.96436L5.82347 10.4343V47.7437L2.16 49.2223V8.96436ZM7.73275 55.5588L2.56479 50.3622L6.22826 48.8835L9.19982 51.8666L7.73275 55.5588ZM8.80361 56.0238L10.2621 52.3489H28.1201L29.5872 56.0238H8.80361ZM30.7242 55.5588L29.2541 51.8666L32.2257 48.8835L35.8891 50.3622L30.7242 55.5588ZM36.3658 49.2855L32.6937 47.8155V10.4343L36.3658 8.96436V49.2855Z" fill="black" fill-opacity="0.2"/>
<path d="M37.2127 7.53173L30.8304 1.12634C30.75 1.04596 30.6236 1 30.4801 1H7.93944C7.73272 1 7.64367 1.09767 7.63505 1.10628L1.18954 7.58623C1.16083 7.61206 1.00011 7.73838 1.00011 8.00539V49.9573C1.00011 50.1267 0.99143 50.2186 1.12637 50.342L7.62358 56.8651C7.70684 56.9569 7.82173 57 7.97676 57H30.4801C30.6954 57 30.8131 56.8938 30.8304 56.8651L30.9021 56.8048L37.3305 50.342C37.4367 50.2358 37.4568 50.1095 37.4568 49.986V8.05997C37.4568 7.86474 37.4194 7.73844 37.2127 7.53173ZM30.7242 2.694L35.8891 7.89061L32.2257 9.36916L29.2541 6.37754L30.7242 2.694ZM27.032 47.9505H11.4134L10.1903 46.6527V11.5914L11.488 10.2994H27.1037L28.3928 11.5914V46.6614L27.032 47.9505ZM27.7353 51.1775H10.7301L11.5483 49.1161H26.8339L27.7353 51.1775ZM9.03904 11.7349V46.4546L6.97766 47.359V10.9023L9.03904 11.7349ZM7.38245 9.83432L9.66778 7.54031L10.486 9.61037L9.44383 10.6583L7.38245 9.83432ZM9.44383 47.5916L10.486 48.6395L9.66778 50.7096L7.38245 48.4156L9.44383 47.5916ZM10.7301 7.13832H27.6636L26.8424 9.19979H11.5483L10.7301 7.13832ZM27.9679 9.61037L28.7861 7.54031L31.0744 9.83432L29.013 10.6583L27.9679 9.61037ZM29.013 47.5916L31.0744 48.4156L28.7861 50.7096L27.9679 48.6395L29.013 47.5916ZM29.481 46.5264V11.7349L31.5424 10.9023V47.27L29.481 46.5264ZM29.6503 2.28912L28.1947 5.97274H10.2621L8.80361 2.28912H29.6503ZM7.73275 2.694L9.19982 6.37754L6.22826 9.36916L2.56479 7.89061L7.73275 2.694ZM2.16 8.96436L5.82347 10.4343V47.7437L2.16 49.2223V8.96436ZM7.73275 55.5588L2.56479 50.3622L6.22826 48.8835L9.19982 51.8666L7.73275 55.5588ZM8.80361 56.0238L10.2621 52.3489H28.1201L29.5872 56.0238H8.80361ZM30.7242 55.5588L29.2541 51.8666L32.2257 48.8835L35.8891 50.3622L30.7242 55.5588ZM36.3658 49.2855L32.6937 47.8155V10.4343L36.3658 8.96436V49.2855Z" fill="black" fill-opacity="0.2"/>
<path d="M37.2127 7.53173L30.8304 1.12634C30.75 1.04596 30.6236 1 30.4801 1H7.93944C7.73272 1 7.64367 1.09767 7.63505 1.10628L1.18954 7.58623C1.16083 7.61206 1.00011 7.73838 1.00011 8.00539V49.9573C1.00011 50.1267 0.99143 50.2186 1.12637 50.342L7.62358 56.8651C7.70684 56.9569 7.82173 57 7.97676 57H30.4801C30.6954 57 30.8131 56.8938 30.8304 56.8651L30.9021 56.8048L37.3305 50.342C37.4367 50.2358 37.4568 50.1095 37.4568 49.986V8.05997C37.4568 7.86474 37.4194 7.73844 37.2127 7.53173ZM30.7242 2.694L35.8891 7.89061L32.2257 9.36916L29.2541 6.37754L30.7242 2.694ZM27.032 47.9505H11.4134L10.1903 46.6527V11.5914L11.488 10.2994H27.1037L28.3928 11.5914V46.6614L27.032 47.9505ZM27.7353 51.1775H10.7301L11.5483 49.1161H26.8339L27.7353 51.1775ZM9.03904 11.7349V46.4546L6.97766 47.359V10.9023L9.03904 11.7349ZM7.38245 9.83432L9.66778 7.54031L10.486 9.61037L9.44383 10.6583L7.38245 9.83432ZM9.44383 47.5916L10.486 48.6395L9.66778 50.7096L7.38245 48.4156L9.44383 47.5916ZM10.7301 7.13832H27.6636L26.8424 9.19979H11.5483L10.7301 7.13832ZM27.9679 9.61037L28.7861 7.54031L31.0744 9.83432L29.013 10.6583L27.9679 9.61037ZM29.013 47.5916L31.0744 48.4156L28.7861 50.7096L27.9679 48.6395L29.013 47.5916ZM29.481 46.5264V11.7349L31.5424 10.9023V47.27L29.481 46.5264ZM29.6503 2.28912L28.1947 5.97274H10.2621L8.80361 2.28912H29.6503ZM7.73275 2.694L9.19982 6.37754L6.22826 9.36916L2.56479 7.89061L7.73275 2.694ZM2.16 8.96436L5.82347 10.4343V47.7437L2.16 49.2223V8.96436ZM7.73275 55.5588L2.56479 50.3622L6.22826 48.8835L9.19982 51.8666L7.73275 55.5588ZM8.80361 56.0238L10.2621 52.3489H28.1201L29.5872 56.0238H8.80361ZM30.7242 55.5588L29.2541 51.8666L32.2257 48.8835L35.8891 50.3622L30.7242 55.5588ZM36.3658 49.2855L32.6937 47.8155V10.4343L36.3658 8.96436V49.2855Z" fill="black" fill-opacity="0.2"/>
<path d="M37.2127 7.53173L30.8304 1.12634C30.75 1.04596 30.6236 1 30.4801 1H7.93944C7.73272 1 7.64367 1.09767 7.63505 1.10628L1.18954 7.58623C1.16083 7.61206 1.00011 7.73838 1.00011 8.00539V49.9573C1.00011 50.1267 0.99143 50.2186 1.12637 50.342L7.62358 56.8651C7.70684 56.9569 7.82173 57 7.97676 57H30.4801C30.6954 57 30.8131 56.8938 30.8304 56.8651L30.9021 56.8048L37.3305 50.342C37.4367 50.2358 37.4568 50.1095 37.4568 49.986V8.05997C37.4568 7.86474 37.4194 7.73844 37.2127 7.53173ZM30.7242 2.694L35.8891 7.89061L32.2257 9.36916L29.2541 6.37754L30.7242 2.694ZM27.032 47.9505H11.4134L10.1903 46.6527V11.5914L11.488 10.2994H27.1037L28.3928 11.5914V46.6614L27.032 47.9505ZM27.7353 51.1775H10.7301L11.5483 49.1161H26.8339L27.7353 51.1775ZM9.03904 11.7349V46.4546L6.97766 47.359V10.9023L9.03904 11.7349ZM7.38245 9.83432L9.66778 7.54031L10.486 9.61037L9.44383 10.6583L7.38245 9.83432ZM9.44383 47.5916L10.486 48.6395L9.66778 50.7096L7.38245 48.4156L9.44383 47.5916ZM10.7301 7.13832H27.6636L26.8424 9.19979H11.5483L10.7301 7.13832ZM27.9679 9.61037L28.7861 7.54031L31.0744 9.83432L29.013 10.6583L27.9679 9.61037ZM29.013 47.5916L31.0744 48.4156L28.7861 50.7096L27.9679 48.6395L29.013 47.5916ZM29.481 46.5264V11.7349L31.5424 10.9023V47.27L29.481 46.5264ZM29.6503 2.28912L28.1947 5.97274H10.2621L8.80361 2.28912H29.6503ZM7.73275 2.694L9.19982 6.37754L6.22826 9.36916L2.56479 7.89061L7.73275 2.694ZM2.16 8.96436L5.82347 10.4343V47.7437L2.16 49.2223V8.96436ZM7.73275 55.5588L2.56479 50.3622L6.22826 48.8835L9.19982 51.8666L7.73275 55.5588ZM8.80361 56.0238L10.2621 52.3489H28.1201L29.5872 56.0238H8.80361ZM30.7242 55.5588L29.2541 51.8666L32.2257 48.8835L35.8891 50.3622L30.7242 55.5588ZM36.3658 49.2855L32.6937 47.8155V10.4343L36.3658 8.96436V49.2855Z" fill="black" fill-opacity="0.2"/>
<path d="M37.2127 7.53173L30.8304 1.12634C30.75 1.04596 30.6236 1 30.4801 1H7.93944C7.73272 1 7.64367 1.09767 7.63505 1.10628L1.18954 7.58623C1.16083 7.61206 1.00011 7.73838 1.00011 8.00539V49.9573C1.00011 50.1267 0.99143 50.2186 1.12637 50.342L7.62358 56.8651C7.70684 56.9569 7.82173 57 7.97676 57H30.4801C30.6954 57 30.8131 56.8938 30.8304 56.8651L30.9021 56.8048L37.3305 50.342C37.4367 50.2358 37.4568 50.1095 37.4568 49.986V8.05997C37.4568 7.86474 37.4194 7.73844 37.2127 7.53173ZM30.7242 2.694L35.8891 7.89061L32.2257 9.36916L29.2541 6.37754L30.7242 2.694ZM27.032 47.9505H11.4134L10.1903 46.6527V11.5914L11.488 10.2994H27.1037L28.3928 11.5914V46.6614L27.032 47.9505ZM27.7353 51.1775H10.7301L11.5483 49.1161H26.8339L27.7353 51.1775ZM9.03904 11.7349V46.4546L6.97766 47.359V10.9023L9.03904 11.7349ZM7.38245 9.83432L9.66778 7.54031L10.486 9.61037L9.44383 10.6583L7.38245 9.83432ZM9.44383 47.5916L10.486 48.6395L9.66778 50.7096L7.38245 48.4156L9.44383 47.5916ZM10.7301 7.13832H27.6636L26.8424 9.19979H11.5483L10.7301 7.13832ZM27.9679 9.61037L28.7861 7.54031L31.0744 9.83432L29.013 10.6583L27.9679 9.61037ZM29.013 47.5916L31.0744 48.4156L28.7861 50.7096L27.9679 48.6395L29.013 47.5916ZM29.481 46.5264V11.7349L31.5424 10.9023V47.27L29.481 46.5264ZM29.6503 2.28912L28.1947 5.97274H10.2621L8.80361 2.28912H29.6503ZM7.73275 2.694L9.19982 6.37754L6.22826 9.36916L2.56479 7.89061L7.73275 2.694ZM2.16 8.96436L5.82347 10.4343V47.7437L2.16 49.2223V8.96436ZM7.73275 55.5588L2.56479 50.3622L6.22826 48.8835L9.19982 51.8666L7.73275 55.5588ZM8.80361 56.0238L10.2621 52.3489H28.1201L29.5872 56.0238H8.80361ZM30.7242 55.5588L29.2541 51.8666L32.2257 48.8835L35.8891 50.3622L30.7242 55.5588ZM36.3658 49.2855L32.6937 47.8155V10.4343L36.3658 8.96436V49.2855Z" fill="black" fill-opacity="0.2"/>
<path d="M37.2127 7.53173L30.8304 1.12634C30.75 1.04596 30.6236 1 30.4801 1H7.93944C7.73272 1 7.64367 1.09767 7.63505 1.10628L1.18954 7.58623C1.16083 7.61206 1.00011 7.73838 1.00011 8.00539V49.9573C1.00011 50.1267 0.99143 50.2186 1.12637 50.342L7.62358 56.8651C7.70684 56.9569 7.82173 57 7.97676 57H30.4801C30.6954 57 30.8131 56.8938 30.8304 56.8651L30.9021 56.8048L37.3305 50.342C37.4367 50.2358 37.4568 50.1095 37.4568 49.986V8.05997C37.4568 7.86474 37.4194 7.73844 37.2127 7.53173ZM30.7242 2.694L35.8891 7.89061L32.2257 9.36916L29.2541 6.37754L30.7242 2.694ZM27.032 47.9505H11.4134L10.1903 46.6527V11.5914L11.488 10.2994H27.1037L28.3928 11.5914V46.6614L27.032 47.9505ZM27.7353 51.1775H10.7301L11.5483 49.1161H26.8339L27.7353 51.1775ZM9.03904 11.7349V46.4546L6.97766 47.359V10.9023L9.03904 11.7349ZM7.38245 9.83432L9.66778 7.54031L10.486 9.61037L9.44383 10.6583L7.38245 9.83432ZM9.44383 47.5916L10.486 48.6395L9.66778 50.7096L7.38245 48.4156L9.44383 47.5916ZM10.7301 7.13832H27.6636L26.8424 9.19979H11.5483L10.7301 7.13832ZM27.9679 9.61037L28.7861 7.54031L31.0744 9.83432L29.013 10.6583L27.9679 9.61037ZM29.013 47.5916L31.0744 48.4156L28.7861 50.7096L27.9679 48.6395L29.013 47.5916ZM29.481 46.5264V11.7349L31.5424 10.9023V47.27L29.481 46.5264ZM29.6503 2.28912L28.1947 5.97274H10.2621L8.80361 2.28912H29.6503ZM7.73275 2.694L9.19982 6.37754L6.22826 9.36916L2.56479 7.89061L7.73275 2.694ZM2.16 8.96436L5.82347 10.4343V47.7437L2.16 49.2223V8.96436ZM7.73275 55.5588L2.56479 50.3622L6.22826 48.8835L9.19982 51.8666L7.73275 55.5588ZM8.80361 56.0238L10.2621 52.3489H28.1201L29.5872 56.0238H8.80361ZM30.7242 55.5588L29.2541 51.8666L32.2257 48.8835L35.8891 50.3622L30.7242 55.5588ZM36.3658 49.2855L32.6937 47.8155V10.4343L36.3658 8.96436V49.2855Z" fill="black" fill-opacity="0.2"/>
<path d="M37.2127 7.53173L30.8304 1.12634C30.75 1.04596 30.6236 1 30.4801 1H7.93944C7.73272 1 7.64367 1.09767 7.63505 1.10628L1.18954 7.58623C1.16083 7.61206 1.00011 7.73838 1.00011 8.00539V49.9573C1.00011 50.1267 0.99143 50.2186 1.12637 50.342L7.62358 56.8651C7.70684 56.9569 7.82173 57 7.97676 57H30.4801C30.6954 57 30.8131 56.8938 30.8304 56.8651L30.9021 56.8048L37.3305 50.342C37.4367 50.2358 37.4568 50.1095 37.4568 49.986V8.05997C37.4568 7.86474 37.4194 7.73844 37.2127 7.53173ZM30.7242 2.694L35.8891 7.89061L32.2257 9.36916L29.2541 6.37754L30.7242 2.694ZM27.032 47.9505H11.4134L10.1903 46.6527V11.5914L11.488 10.2994H27.1037L28.3928 11.5914V46.6614L27.032 47.9505ZM27.7353 51.1775H10.7301L11.5483 49.1161H26.8339L27.7353 51.1775ZM9.03904 11.7349V46.4546L6.97766 47.359V10.9023L9.03904 11.7349ZM7.38245 9.83432L9.66778 7.54031L10.486 9.61037L9.44383 10.6583L7.38245 9.83432ZM9.44383 47.5916L10.486 48.6395L9.66778 50.7096L7.38245 48.4156L9.44383 47.5916ZM10.7301 7.13832H27.6636L26.8424 9.19979H11.5483L10.7301 7.13832ZM27.9679 9.61037L28.7861 7.54031L31.0744 9.83432L29.013 10.6583L27.9679 9.61037ZM29.013 47.5916L31.0744 48.4156L28.7861 50.7096L27.9679 48.6395L29.013 47.5916ZM29.481 46.5264V11.7349L31.5424 10.9023V47.27L29.481 46.5264ZM29.6503 2.28912L28.1947 5.97274H10.2621L8.80361 2.28912H29.6503ZM7.73275 2.694L9.19982 6.37754L6.22826 9.36916L2.56479 7.89061L7.73275 2.694ZM2.16 8.96436L5.82347 10.4343V47.7437L2.16 49.2223V8.96436ZM7.73275 55.5588L2.56479 50.3622L6.22826 48.8835L9.19982 51.8666L7.73275 55.5588ZM8.80361 56.0238L10.2621 52.3489H28.1201L29.5872 56.0238H8.80361ZM30.7242 55.5588L29.2541 51.8666L32.2257 48.8835L35.8891 50.3622L30.7242 55.5588ZM36.3658 49.2855L32.6937 47.8155V10.4343L36.3658 8.96436V49.2855Z" fill="black" fill-opacity="0.2"/>
<path d="M37.2127 7.53173L30.8304 1.12634C30.75 1.04596 30.6236 1 30.4801 1H7.93944C7.73272 1 7.64367 1.09767 7.63505 1.10628L1.18954 7.58623C1.16083 7.61206 1.00011 7.73838 1.00011 8.00539V49.9573C1.00011 50.1267 0.99143 50.2186 1.12637 50.342L7.62358 56.8651C7.70684 56.9569 7.82173 57 7.97676 57H30.4801C30.6954 57 30.8131 56.8938 30.8304 56.8651L30.9021 56.8048L37.3305 50.342C37.4367 50.2358 37.4568 50.1095 37.4568 49.986V8.05997C37.4568 7.86474 37.4194 7.73844 37.2127 7.53173ZM30.7242 2.694L35.8891 7.89061L32.2257 9.36916L29.2541 6.37754L30.7242 2.694ZM27.032 47.9505H11.4134L10.1903 46.6527V11.5914L11.488 10.2994H27.1037L28.3928 11.5914V46.6614L27.032 47.9505ZM27.7353 51.1775H10.7301L11.5483 49.1161H26.8339L27.7353 51.1775ZM9.03904 11.7349V46.4546L6.97766 47.359V10.9023L9.03904 11.7349ZM7.38245 9.83432L9.66778 7.54031L10.486 9.61037L9.44383 10.6583L7.38245 9.83432ZM9.44383 47.5916L10.486 48.6395L9.66778 50.7096L7.38245 48.4156L9.44383 47.5916ZM10.7301 7.13832H27.6636L26.8424 9.19979H11.5483L10.7301 7.13832ZM27.9679 9.61037L28.7861 7.54031L31.0744 9.83432L29.013 10.6583L27.9679 9.61037ZM29.013 47.5916L31.0744 48.4156L28.7861 50.7096L27.9679 48.6395L29.013 47.5916ZM29.481 46.5264V11.7349L31.5424 10.9023V47.27L29.481 46.5264ZM29.6503 2.28912L28.1947 5.97274H10.2621L8.80361 2.28912H29.6503ZM7.73275 2.694L9.19982 6.37754L6.22826 9.36916L2.56479 7.89061L7.73275 2.694ZM2.16 8.96436L5.82347 10.4343V47.7437L2.16 49.2223V8.96436ZM7.73275 55.5588L2.56479 50.3622L6.22826 48.8835L9.19982 51.8666L7.73275 55.5588ZM8.80361 56.0238L10.2621 52.3489H28.1201L29.5872 56.0238H8.80361ZM30.7242 55.5588L29.2541 51.8666L32.2257 48.8835L35.8891 50.3622L30.7242 55.5588ZM36.3658 49.2855L32.6937 47.8155V10.4343L36.3658 8.96436V49.2855Z" fill="black" fill-opacity="0.2"/>
<path d="M37.2127 7.53173L30.8304 1.12634C30.75 1.04596 30.6236 1 30.4801 1H7.93944C7.73272 1 7.64367 1.09767 7.63505 1.10628L1.18954 7.58623C1.16083 7.61206 1.00011 7.73838 1.00011 8.00539V49.9573C1.00011 50.1267 0.99143 50.2186 1.12637 50.342L7.62358 56.8651C7.70684 56.9569 7.82173 57 7.97676 57H30.4801C30.6954 57 30.8131 56.8938 30.8304 56.8651L30.9021 56.8048L37.3305 50.342C37.4367 50.2358 37.4568 50.1095 37.4568 49.986V8.05997C37.4568 7.86474 37.4194 7.73844 37.2127 7.53173ZM30.7242 2.694L35.8891 7.89061L32.2257 9.36916L29.2541 6.37754L30.7242 2.694ZM27.032 47.9505H11.4134L10.1903 46.6527V11.5914L11.488 10.2994H27.1037L28.3928 11.5914V46.6614L27.032 47.9505ZM27.7353 51.1775H10.7301L11.5483 49.1161H26.8339L27.7353 51.1775ZM9.03904 11.7349V46.4546L6.97766 47.359V10.9023L9.03904 11.7349ZM7.38245 9.83432L9.66778 7.54031L10.486 9.61037L9.44383 10.6583L7.38245 9.83432ZM9.44383 47.5916L10.486 48.6395L9.66778 50.7096L7.38245 48.4156L9.44383 47.5916ZM10.7301 7.13832H27.6636L26.8424 9.19979H11.5483L10.7301 7.13832ZM27.9679 9.61037L28.7861 7.54031L31.0744 9.83432L29.013 10.6583L27.9679 9.61037ZM29.013 47.5916L31.0744 48.4156L28.7861 50.7096L27.9679 48.6395L29.013 47.5916ZM29.481 46.5264V11.7349L31.5424 10.9023V47.27L29.481 46.5264ZM29.6503 2.28912L28.1947 5.97274H10.2621L8.80361 2.28912H29.6503ZM7.73275 2.694L9.19982 6.37754L6.22826 9.36916L2.56479 7.89061L7.73275 2.694ZM2.16 8.96436L5.82347 10.4343V47.7437L2.16 49.2223V8.96436ZM7.73275 55.5588L2.56479 50.3622L6.22826 48.8835L9.19982 51.8666L7.73275 55.5588ZM8.80361 56.0238L10.2621 52.3489H28.1201L29.5872 56.0238H8.80361ZM30.7242 55.5588L29.2541 51.8666L32.2257 48.8835L35.8891 50.3622L30.7242 55.5588ZM36.3658 49.2855L32.6937 47.8155V10.4343L36.3658 8.96436V49.2855Z" stroke="#333335" stroke-width="0.25"/>
<path d="M37.2127 7.53173L30.8304 1.12634C30.75 1.04596 30.6236 1 30.4801 1H7.93944C7.73272 1 7.64367 1.09767 7.63505 1.10628L1.18954 7.58623C1.16083 7.61206 1.00011 7.73838 1.00011 8.00539V49.9573C1.00011 50.1267 0.99143 50.2186 1.12637 50.342L7.62358 56.8651C7.70684 56.9569 7.82173 57 7.97676 57H30.4801C30.6954 57 30.8131 56.8938 30.8304 56.8651L30.9021 56.8048L37.3305 50.342C37.4367 50.2358 37.4568 50.1095 37.4568 49.986V8.05997C37.4568 7.86474 37.4194 7.73844 37.2127 7.53173ZM30.7242 2.694L35.8891 7.89061L32.2257 9.36916L29.2541 6.37754L30.7242 2.694ZM27.032 47.9505H11.4134L10.1903 46.6527V11.5914L11.488 10.2994H27.1037L28.3928 11.5914V46.6614L27.032 47.9505ZM27.7353 51.1775H10.7301L11.5483 49.1161H26.8339L27.7353 51.1775ZM9.03904 11.7349V46.4546L6.97766 47.359V10.9023L9.03904 11.7349ZM7.38245 9.83432L9.66778 7.54031L10.486 9.61037L9.44383 10.6583L7.38245 9.83432ZM9.44383 47.5916L10.486 48.6395L9.66778 50.7096L7.38245 48.4156L9.44383 47.5916ZM10.7301 7.13832H27.6636L26.8424 9.19979H11.5483L10.7301 7.13832ZM27.9679 9.61037L28.7861 7.54031L31.0744 9.83432L29.013 10.6583L27.9679 9.61037ZM29.013 47.5916L31.0744 48.4156L28.7861 50.7096L27.9679 48.6395L29.013 47.5916ZM29.481 46.5264V11.7349L31.5424 10.9023V47.27L29.481 46.5264ZM29.6503 2.28912L28.1947 5.97274H10.2621L8.80361 2.28912H29.6503ZM7.73275 2.694L9.19982 6.37754L6.22826 9.36916L2.56479 7.89061L7.73275 2.694ZM2.16 8.96436L5.82347 10.4343V47.7437L2.16 49.2223V8.96436ZM7.73275 55.5588L2.56479 50.3622L6.22826 48.8835L9.19982 51.8666L7.73275 55.5588ZM8.80361 56.0238L10.2621 52.3489H28.1201L29.5872 56.0238H8.80361ZM30.7242 55.5588L29.2541 51.8666L32.2257 48.8835L35.8891 50.3622L30.7242 55.5588ZM36.3658 49.2855L32.6937 47.8155V10.4343L36.3658 8.96436V49.2855Z" stroke="black" stroke-opacity="0.2" stroke-width="0.25"/>
<path d="M37.2127 7.53173L30.8304 1.12634C30.75 1.04596 30.6236 1 30.4801 1H7.93944C7.73272 1 7.64367 1.09767 7.63505 1.10628L1.18954 7.58623C1.16083 7.61206 1.00011 7.73838 1.00011 8.00539V49.9573C1.00011 50.1267 0.99143 50.2186 1.12637 50.342L7.62358 56.8651C7.70684 56.9569 7.82173 57 7.97676 57H30.4801C30.6954 57 30.8131 56.8938 30.8304 56.8651L30.9021 56.8048L37.3305 50.342C37.4367 50.2358 37.4568 50.1095 37.4568 49.986V8.05997C37.4568 7.86474 37.4194 7.73844 37.2127 7.53173ZM30.7242 2.694L35.8891 7.89061L32.2257 9.36916L29.2541 6.37754L30.7242 2.694ZM27.032 47.9505H11.4134L10.1903 46.6527V11.5914L11.488 10.2994H27.1037L28.3928 11.5914V46.6614L27.032 47.9505ZM27.7353 51.1775H10.7301L11.5483 49.1161H26.8339L27.7353 51.1775ZM9.03904 11.7349V46.4546L6.97766 47.359V10.9023L9.03904 11.7349ZM7.38245 9.83432L9.66778 7.54031L10.486 9.61037L9.44383 10.6583L7.38245 9.83432ZM9.44383 47.5916L10.486 48.6395L9.66778 50.7096L7.38245 48.4156L9.44383 47.5916ZM10.7301 7.13832H27.6636L26.8424 9.19979H11.5483L10.7301 7.13832ZM27.9679 9.61037L28.7861 7.54031L31.0744 9.83432L29.013 10.6583L27.9679 9.61037ZM29.013 47.5916L31.0744 48.4156L28.7861 50.7096L27.9679 48.6395L29.013 47.5916ZM29.481 46.5264V11.7349L31.5424 10.9023V47.27L29.481 46.5264ZM29.6503 2.28912L28.1947 5.97274H10.2621L8.80361 2.28912H29.6503ZM7.73275 2.694L9.19982 6.37754L6.22826 9.36916L2.56479 7.89061L7.73275 2.694ZM2.16 8.96436L5.82347 10.4343V47.7437L2.16 49.2223V8.96436ZM7.73275 55.5588L2.56479 50.3622L6.22826 48.8835L9.19982 51.8666L7.73275 55.5588ZM8.80361 56.0238L10.2621 52.3489H28.1201L29.5872 56.0238H8.80361ZM30.7242 55.5588L29.2541 51.8666L32.2257 48.8835L35.8891 50.3622L30.7242 55.5588ZM36.3658 49.2855L32.6937 47.8155V10.4343L36.3658 8.96436V49.2855Z" stroke="black" stroke-opacity="0.2" stroke-width="0.25"/>
<path d="M37.2127 7.53173L30.8304 1.12634C30.75 1.04596 30.6236 1 30.4801 1H7.93944C7.73272 1 7.64367 1.09767 7.63505 1.10628L1.18954 7.58623C1.16083 7.61206 1.00011 7.73838 1.00011 8.00539V49.9573C1.00011 50.1267 0.99143 50.2186 1.12637 50.342L7.62358 56.8651C7.70684 56.9569 7.82173 57 7.97676 57H30.4801C30.6954 57 30.8131 56.8938 30.8304 56.8651L30.9021 56.8048L37.3305 50.342C37.4367 50.2358 37.4568 50.1095 37.4568 49.986V8.05997C37.4568 7.86474 37.4194 7.73844 37.2127 7.53173ZM30.7242 2.694L35.8891 7.89061L32.2257 9.36916L29.2541 6.37754L30.7242 2.694ZM27.032 47.9505H11.4134L10.1903 46.6527V11.5914L11.488 10.2994H27.1037L28.3928 11.5914V46.6614L27.032 47.9505ZM27.7353 51.1775H10.7301L11.5483 49.1161H26.8339L27.7353 51.1775ZM9.03904 11.7349V46.4546L6.97766 47.359V10.9023L9.03904 11.7349ZM7.38245 9.83432L9.66778 7.54031L10.486 9.61037L9.44383 10.6583L7.38245 9.83432ZM9.44383 47.5916L10.486 48.6395L9.66778 50.7096L7.38245 48.4156L9.44383 47.5916ZM10.7301 7.13832H27.6636L26.8424 9.19979H11.5483L10.7301 7.13832ZM27.9679 9.61037L28.7861 7.54031L31.0744 9.83432L29.013 10.6583L27.9679 9.61037ZM29.013 47.5916L31.0744 48.4156L28.7861 50.7096L27.9679 48.6395L29.013 47.5916ZM29.481 46.5264V11.7349L31.5424 10.9023V47.27L29.481 46.5264ZM29.6503 2.28912L28.1947 5.97274H10.2621L8.80361 2.28912H29.6503ZM7.73275 2.694L9.19982 6.37754L6.22826 9.36916L2.56479 7.89061L7.73275 2.694ZM2.16 8.96436L5.82347 10.4343V47.7437L2.16 49.2223V8.96436ZM7.73275 55.5588L2.56479 50.3622L6.22826 48.8835L9.19982 51.8666L7.73275 55.5588ZM8.80361 56.0238L10.2621 52.3489H28.1201L29.5872 56.0238H8.80361ZM30.7242 55.5588L29.2541 51.8666L32.2257 48.8835L35.8891 50.3622L30.7242 55.5588ZM36.3658 49.2855L32.6937 47.8155V10.4343L36.3658 8.96436V49.2855Z" stroke="black" stroke-opacity="0.2" stroke-width="0.25"/>
<path d="M37.2127 7.53173L30.8304 1.12634C30.75 1.04596 30.6236 1 30.4801 1H7.93944C7.73272 1 7.64367 1.09767 7.63505 1.10628L1.18954 7.58623C1.16083 7.61206 1.00011 7.73838 1.00011 8.00539V49.9573C1.00011 50.1267 0.99143 50.2186 1.12637 50.342L7.62358 56.8651C7.70684 56.9569 7.82173 57 7.97676 57H30.4801C30.6954 57 30.8131 56.8938 30.8304 56.8651L30.9021 56.8048L37.3305 50.342C37.4367 50.2358 37.4568 50.1095 37.4568 49.986V8.05997C37.4568 7.86474 37.4194 7.73844 37.2127 7.53173ZM30.7242 2.694L35.8891 7.89061L32.2257 9.36916L29.2541 6.37754L30.7242 2.694ZM27.032 47.9505H11.4134L10.1903 46.6527V11.5914L11.488 10.2994H27.1037L28.3928 11.5914V46.6614L27.032 47.9505ZM27.7353 51.1775H10.7301L11.5483 49.1161H26.8339L27.7353 51.1775ZM9.03904 11.7349V46.4546L6.97766 47.359V10.9023L9.03904 11.7349ZM7.38245 9.83432L9.66778 7.54031L10.486 9.61037L9.44383 10.6583L7.38245 9.83432ZM9.44383 47.5916L10.486 48.6395L9.66778 50.7096L7.38245 48.4156L9.44383 47.5916ZM10.7301 7.13832H27.6636L26.8424 9.19979H11.5483L10.7301 7.13832ZM27.9679 9.61037L28.7861 7.54031L31.0744 9.83432L29.013 10.6583L27.9679 9.61037ZM29.013 47.5916L31.0744 48.4156L28.7861 50.7096L27.9679 48.6395L29.013 47.5916ZM29.481 46.5264V11.7349L31.5424 10.9023V47.27L29.481 46.5264ZM29.6503 2.28912L28.1947 5.97274H10.2621L8.80361 2.28912H29.6503ZM7.73275 2.694L9.19982 6.37754L6.22826 9.36916L2.56479 7.89061L7.73275 2.694ZM2.16 8.96436L5.82347 10.4343V47.7437L2.16 49.2223V8.96436ZM7.73275 55.5588L2.56479 50.3622L6.22826 48.8835L9.19982 51.8666L7.73275 55.5588ZM8.80361 56.0238L10.2621 52.3489H28.1201L29.5872 56.0238H8.80361ZM30.7242 55.5588L29.2541 51.8666L32.2257 48.8835L35.8891 50.3622L30.7242 55.5588ZM36.3658 49.2855L32.6937 47.8155V10.4343L36.3658 8.96436V49.2855Z" stroke="black" stroke-opacity="0.2" stroke-width="0.25"/>
<path d="M37.2127 7.53173L30.8304 1.12634C30.75 1.04596 30.6236 1 30.4801 1H7.93944C7.73272 1 7.64367 1.09767 7.63505 1.10628L1.18954 7.58623C1.16083 7.61206 1.00011 7.73838 1.00011 8.00539V49.9573C1.00011 50.1267 0.99143 50.2186 1.12637 50.342L7.62358 56.8651C7.70684 56.9569 7.82173 57 7.97676 57H30.4801C30.6954 57 30.8131 56.8938 30.8304 56.8651L30.9021 56.8048L37.3305 50.342C37.4367 50.2358 37.4568 50.1095 37.4568 49.986V8.05997C37.4568 7.86474 37.4194 7.73844 37.2127 7.53173ZM30.7242 2.694L35.8891 7.89061L32.2257 9.36916L29.2541 6.37754L30.7242 2.694ZM27.032 47.9505H11.4134L10.1903 46.6527V11.5914L11.488 10.2994H27.1037L28.3928 11.5914V46.6614L27.032 47.9505ZM27.7353 51.1775H10.7301L11.5483 49.1161H26.8339L27.7353 51.1775ZM9.03904 11.7349V46.4546L6.97766 47.359V10.9023L9.03904 11.7349ZM7.38245 9.83432L9.66778 7.54031L10.486 9.61037L9.44383 10.6583L7.38245 9.83432ZM9.44383 47.5916L10.486 48.6395L9.66778 50.7096L7.38245 48.4156L9.44383 47.5916ZM10.7301 7.13832H27.6636L26.8424 9.19979H11.5483L10.7301 7.13832ZM27.9679 9.61037L28.7861 7.54031L31.0744 9.83432L29.013 10.6583L27.9679 9.61037ZM29.013 47.5916L31.0744 48.4156L28.7861 50.7096L27.9679 48.6395L29.013 47.5916ZM29.481 46.5264V11.7349L31.5424 10.9023V47.27L29.481 46.5264ZM29.6503 2.28912L28.1947 5.97274H10.2621L8.80361 2.28912H29.6503ZM7.73275 2.694L9.19982 6.37754L6.22826 9.36916L2.56479 7.89061L7.73275 2.694ZM2.16 8.96436L5.82347 10.4343V47.7437L2.16 49.2223V8.96436ZM7.73275 55.5588L2.56479 50.3622L6.22826 48.8835L9.19982 51.8666L7.73275 55.5588ZM8.80361 56.0238L10.2621 52.3489H28.1201L29.5872 56.0238H8.80361ZM30.7242 55.5588L29.2541 51.8666L32.2257 48.8835L35.8891 50.3622L30.7242 55.5588ZM36.3658 49.2855L32.6937 47.8155V10.4343L36.3658 8.96436V49.2855Z" stroke="black" stroke-opacity="0.2" stroke-width="0.25"/>
<path d="M37.2127 7.53173L30.8304 1.12634C30.75 1.04596 30.6236 1 30.4801 1H7.93944C7.73272 1 7.64367 1.09767 7.63505 1.10628L1.18954 7.58623C1.16083 7.61206 1.00011 7.73838 1.00011 8.00539V49.9573C1.00011 50.1267 0.99143 50.2186 1.12637 50.342L7.62358 56.8651C7.70684 56.9569 7.82173 57 7.97676 57H30.4801C30.6954 57 30.8131 56.8938 30.8304 56.8651L30.9021 56.8048L37.3305 50.342C37.4367 50.2358 37.4568 50.1095 37.4568 49.986V8.05997C37.4568 7.86474 37.4194 7.73844 37.2127 7.53173ZM30.7242 2.694L35.8891 7.89061L32.2257 9.36916L29.2541 6.37754L30.7242 2.694ZM27.032 47.9505H11.4134L10.1903 46.6527V11.5914L11.488 10.2994H27.1037L28.3928 11.5914V46.6614L27.032 47.9505ZM27.7353 51.1775H10.7301L11.5483 49.1161H26.8339L27.7353 51.1775ZM9.03904 11.7349V46.4546L6.97766 47.359V10.9023L9.03904 11.7349ZM7.38245 9.83432L9.66778 7.54031L10.486 9.61037L9.44383 10.6583L7.38245 9.83432ZM9.44383 47.5916L10.486 48.6395L9.66778 50.7096L7.38245 48.4156L9.44383 47.5916ZM10.7301 7.13832H27.6636L26.8424 9.19979H11.5483L10.7301 7.13832ZM27.9679 9.61037L28.7861 7.54031L31.0744 9.83432L29.013 10.6583L27.9679 9.61037ZM29.013 47.5916L31.0744 48.4156L28.7861 50.7096L27.9679 48.6395L29.013 47.5916ZM29.481 46.5264V11.7349L31.5424 10.9023V47.27L29.481 46.5264ZM29.6503 2.28912L28.1947 5.97274H10.2621L8.80361 2.28912H29.6503ZM7.73275 2.694L9.19982 6.37754L6.22826 9.36916L2.56479 7.89061L7.73275 2.694ZM2.16 8.96436L5.82347 10.4343V47.7437L2.16 49.2223V8.96436ZM7.73275 55.5588L2.56479 50.3622L6.22826 48.8835L9.19982 51.8666L7.73275 55.5588ZM8.80361 56.0238L10.2621 52.3489H28.1201L29.5872 56.0238H8.80361ZM30.7242 55.5588L29.2541 51.8666L32.2257 48.8835L35.8891 50.3622L30.7242 55.5588ZM36.3658 49.2855L32.6937 47.8155V10.4343L36.3658 8.96436V49.2855Z" stroke="black" stroke-opacity="0.2" stroke-width="0.25"/>
<path d="M37.2127 7.53173L30.8304 1.12634C30.75 1.04596 30.6236 1 30.4801 1H7.93944C7.73272 1 7.64367 1.09767 7.63505 1.10628L1.18954 7.58623C1.16083 7.61206 1.00011 7.73838 1.00011 8.00539V49.9573C1.00011 50.1267 0.99143 50.2186 1.12637 50.342L7.62358 56.8651C7.70684 56.9569 7.82173 57 7.97676 57H30.4801C30.6954 57 30.8131 56.8938 30.8304 56.8651L30.9021 56.8048L37.3305 50.342C37.4367 50.2358 37.4568 50.1095 37.4568 49.986V8.05997C37.4568 7.86474 37.4194 7.73844 37.2127 7.53173ZM30.7242 2.694L35.8891 7.89061L32.2257 9.36916L29.2541 6.37754L30.7242 2.694ZM27.032 47.9505H11.4134L10.1903 46.6527V11.5914L11.488 10.2994H27.1037L28.3928 11.5914V46.6614L27.032 47.9505ZM27.7353 51.1775H10.7301L11.5483 49.1161H26.8339L27.7353 51.1775ZM9.03904 11.7349V46.4546L6.97766 47.359V10.9023L9.03904 11.7349ZM7.38245 9.83432L9.66778 7.54031L10.486 9.61037L9.44383 10.6583L7.38245 9.83432ZM9.44383 47.5916L10.486 48.6395L9.66778 50.7096L7.38245 48.4156L9.44383 47.5916ZM10.7301 7.13832H27.6636L26.8424 9.19979H11.5483L10.7301 7.13832ZM27.9679 9.61037L28.7861 7.54031L31.0744 9.83432L29.013 10.6583L27.9679 9.61037ZM29.013 47.5916L31.0744 48.4156L28.7861 50.7096L27.9679 48.6395L29.013 47.5916ZM29.481 46.5264V11.7349L31.5424 10.9023V47.27L29.481 46.5264ZM29.6503 2.28912L28.1947 5.97274H10.2621L8.80361 2.28912H29.6503ZM7.73275 2.694L9.19982 6.37754L6.22826 9.36916L2.56479 7.89061L7.73275 2.694ZM2.16 8.96436L5.82347 10.4343V47.7437L2.16 49.2223V8.96436ZM7.73275 55.5588L2.56479 50.3622L6.22826 48.8835L9.19982 51.8666L7.73275 55.5588ZM8.80361 56.0238L10.2621 52.3489H28.1201L29.5872 56.0238H8.80361ZM30.7242 55.5588L29.2541 51.8666L32.2257 48.8835L35.8891 50.3622L30.7242 55.5588ZM36.3658 49.2855L32.6937 47.8155V10.4343L36.3658 8.96436V49.2855Z" stroke="black" stroke-opacity="0.2" stroke-width="0.25"/>
<path d="M37.2127 7.53173L30.8304 1.12634C30.75 1.04596 30.6236 1 30.4801 1H7.93944C7.73272 1 7.64367 1.09767 7.63505 1.10628L1.18954 7.58623C1.16083 7.61206 1.00011 7.73838 1.00011 8.00539V49.9573C1.00011 50.1267 0.99143 50.2186 1.12637 50.342L7.62358 56.8651C7.70684 56.9569 7.82173 57 7.97676 57H30.4801C30.6954 57 30.8131 56.8938 30.8304 56.8651L30.9021 56.8048L37.3305 50.342C37.4367 50.2358 37.4568 50.1095 37.4568 49.986V8.05997C37.4568 7.86474 37.4194 7.73844 37.2127 7.53173ZM30.7242 2.694L35.8891 7.89061L32.2257 9.36916L29.2541 6.37754L30.7242 2.694ZM27.032 47.9505H11.4134L10.1903 46.6527V11.5914L11.488 10.2994H27.1037L28.3928 11.5914V46.6614L27.032 47.9505ZM27.7353 51.1775H10.7301L11.5483 49.1161H26.8339L27.7353 51.1775ZM9.03904 11.7349V46.4546L6.97766 47.359V10.9023L9.03904 11.7349ZM7.38245 9.83432L9.66778 7.54031L10.486 9.61037L9.44383 10.6583L7.38245 9.83432ZM9.44383 47.5916L10.486 48.6395L9.66778 50.7096L7.38245 48.4156L9.44383 47.5916ZM10.7301 7.13832H27.6636L26.8424 9.19979H11.5483L10.7301 7.13832ZM27.9679 9.61037L28.7861 7.54031L31.0744 9.83432L29.013 10.6583L27.9679 9.61037ZM29.013 47.5916L31.0744 48.4156L28.7861 50.7096L27.9679 48.6395L29.013 47.5916ZM29.481 46.5264V11.7349L31.5424 10.9023V47.27L29.481 46.5264ZM29.6503 2.28912L28.1947 5.97274H10.2621L8.80361 2.28912H29.6503ZM7.73275 2.694L9.19982 6.37754L6.22826 9.36916L2.56479 7.89061L7.73275 2.694ZM2.16 8.96436L5.82347 10.4343V47.7437L2.16 49.2223V8.96436ZM7.73275 55.5588L2.56479 50.3622L6.22826 48.8835L9.19982 51.8666L7.73275 55.5588ZM8.80361 56.0238L10.2621 52.3489H28.1201L29.5872 56.0238H8.80361ZM30.7242 55.5588L29.2541 51.8666L32.2257 48.8835L35.8891 50.3622L30.7242 55.5588ZM36.3658 49.2855L32.6937 47.8155V10.4343L36.3658 8.96436V49.2855Z" stroke="black" stroke-opacity="0.2" stroke-width="0.25"/>
</svg>
