<svg width="58" height="58" viewBox="0 0 58 58" fill="none" xmlns="http://www.w3.org/2000/svg">
<path d="M1 1V57H57V1H1ZM29.0014 44.1377L37.428 48.1313H20.5726L29.0014 44.1377ZM18.2663 47.893L17.2901 42.2829L26.9058 43.8219L18.2663 47.893ZM31.0973 43.8219L40.6436 42.2829L39.7334 47.893L31.0973 43.8219ZM28.967 42.8601L28.944 42.8371L28.9239 42.8486L28.8349 42.8371L17.1462 40.9249L15.2054 29.0015L17.1462 17.0636L28.9239 15.1429L29.0014 15.1744L29.0789 15.1429L29.1679 15.1544L40.9221 17.0636L42.8399 28.7919L40.856 40.9249L28.967 42.8601ZM13.8635 29.0015L9.87127 37.4051V20.6524L13.8635 29.0015ZM10.1598 18.1948L15.771 17.2789L14.2298 26.897L10.1598 18.1948ZM14.2298 31.106L15.771 40.6522L10.1598 39.7363L14.2298 31.106ZM29.0014 13.8624L20.5726 9.85728H37.494L29.0014 13.8624ZM39.7334 10.153L40.6436 15.7745L31.0973 14.2241L39.7334 10.153ZM26.9058 14.2241L17.3567 15.7745L18.2663 10.153L26.9058 14.2241ZM42.2284 17.3363L47.8413 18.2522L43.7701 26.8855L42.2284 17.3363ZM43.7701 31.1605L47.8413 39.8598L42.2284 40.7671L43.7701 31.1605ZM44.1376 29.0015L48.1284 20.5835V37.4739L44.1376 29.0015ZM41.9528 15.9783L40.9106 9.55289L55.0706 2.92365L48.3725 17.0206L41.9528 15.9783ZM53.5518 2.25469L40.1325 8.60259L17.8112 8.56816L4.44898 2.25469H53.5518ZM17.0239 9.55289L15.9818 16.0472L9.56091 17.0751L2.94082 2.92365L17.0239 9.55289ZM2.27532 4.46257L8.59624 17.9249L8.57385 40.19L2.27532 53.5289V4.46257ZM9.62752 41.0254L16.0483 42.0677L17.0906 48.5046L2.92963 55.1224L9.62752 41.0254ZM4.44898 55.8028L17.9335 49.4549L40.1899 49.4778L53.5518 55.8028H4.44898ZM40.9766 48.4471L42.0188 42.0677L48.4385 41.0254L55.0591 55.1338L40.9766 48.4471ZM55.7252 53.5289L49.4031 40.1211L49.4261 17.8015L55.7252 4.46257V53.5289Z" fill="#333335"/>
<path d="M1 1V57H57V1H1ZM29.0014 44.1377L37.428 48.1313H20.5726L29.0014 44.1377ZM18.2663 47.893L17.2901 42.2829L26.9058 43.8219L18.2663 47.893ZM31.0973 43.8219L40.6436 42.2829L39.7334 47.893L31.0973 43.8219ZM28.967 42.8601L28.944 42.8371L28.9239 42.8486L28.8349 42.8371L17.1462 40.9249L15.2054 29.0015L17.1462 17.0636L28.9239 15.1429L29.0014 15.1744L29.0789 15.1429L29.1679 15.1544L40.9221 17.0636L42.8399 28.7919L40.856 40.9249L28.967 42.8601ZM13.8635 29.0015L9.87127 37.4051V20.6524L13.8635 29.0015ZM10.1598 18.1948L15.771 17.2789L14.2298 26.897L10.1598 18.1948ZM14.2298 31.106L15.771 40.6522L10.1598 39.7363L14.2298 31.106ZM29.0014 13.8624L20.5726 9.85728H37.494L29.0014 13.8624ZM39.7334 10.153L40.6436 15.7745L31.0973 14.2241L39.7334 10.153ZM26.9058 14.2241L17.3567 15.7745L18.2663 10.153L26.9058 14.2241ZM42.2284 17.3363L47.8413 18.2522L43.7701 26.8855L42.2284 17.3363ZM43.7701 31.1605L47.8413 39.8598L42.2284 40.7671L43.7701 31.1605ZM44.1376 29.0015L48.1284 20.5835V37.4739L44.1376 29.0015ZM41.9528 15.9783L40.9106 9.55289L55.0706 2.92365L48.3725 17.0206L41.9528 15.9783ZM53.5518 2.25469L40.1325 8.60259L17.8112 8.56816L4.44898 2.25469H53.5518ZM17.0239 9.55289L15.9818 16.0472L9.56091 17.0751L2.94082 2.92365L17.0239 9.55289ZM2.27532 4.46257L8.59624 17.9249L8.57385 40.19L2.27532 53.5289V4.46257ZM9.62752 41.0254L16.0483 42.0677L17.0906 48.5046L2.92963 55.1224L9.62752 41.0254ZM4.44898 55.8028L17.9335 49.4549L40.1899 49.4778L53.5518 55.8028H4.44898ZM40.9766 48.4471L42.0188 42.0677L48.4385 41.0254L55.0591 55.1338L40.9766 48.4471ZM55.7252 53.5289L49.4031 40.1211L49.4261 17.8015L55.7252 4.46257V53.5289Z" fill="black" fill-opacity="0.2"/>
<path d="M1 1V57H57V1H1ZM29.0014 44.1377L37.428 48.1313H20.5726L29.0014 44.1377ZM18.2663 47.893L17.2901 42.2829L26.9058 43.8219L18.2663 47.893ZM31.0973 43.8219L40.6436 42.2829L39.7334 47.893L31.0973 43.8219ZM28.967 42.8601L28.944 42.8371L28.9239 42.8486L28.8349 42.8371L17.1462 40.9249L15.2054 29.0015L17.1462 17.0636L28.9239 15.1429L29.0014 15.1744L29.0789 15.1429L29.1679 15.1544L40.9221 17.0636L42.8399 28.7919L40.856 40.9249L28.967 42.8601ZM13.8635 29.0015L9.87127 37.4051V20.6524L13.8635 29.0015ZM10.1598 18.1948L15.771 17.2789L14.2298 26.897L10.1598 18.1948ZM14.2298 31.106L15.771 40.6522L10.1598 39.7363L14.2298 31.106ZM29.0014 13.8624L20.5726 9.85728H37.494L29.0014 13.8624ZM39.7334 10.153L40.6436 15.7745L31.0973 14.2241L39.7334 10.153ZM26.9058 14.2241L17.3567 15.7745L18.2663 10.153L26.9058 14.2241ZM42.2284 17.3363L47.8413 18.2522L43.7701 26.8855L42.2284 17.3363ZM43.7701 31.1605L47.8413 39.8598L42.2284 40.7671L43.7701 31.1605ZM44.1376 29.0015L48.1284 20.5835V37.4739L44.1376 29.0015ZM41.9528 15.9783L40.9106 9.55289L55.0706 2.92365L48.3725 17.0206L41.9528 15.9783ZM53.5518 2.25469L40.1325 8.60259L17.8112 8.56816L4.44898 2.25469H53.5518ZM17.0239 9.55289L15.9818 16.0472L9.56091 17.0751L2.94082 2.92365L17.0239 9.55289ZM2.27532 4.46257L8.59624 17.9249L8.57385 40.19L2.27532 53.5289V4.46257ZM9.62752 41.0254L16.0483 42.0677L17.0906 48.5046L2.92963 55.1224L9.62752 41.0254ZM4.44898 55.8028L17.9335 49.4549L40.1899 49.4778L53.5518 55.8028H4.44898ZM40.9766 48.4471L42.0188 42.0677L48.4385 41.0254L55.0591 55.1338L40.9766 48.4471ZM55.7252 53.5289L49.4031 40.1211L49.4261 17.8015L55.7252 4.46257V53.5289Z" fill="black" fill-opacity="0.2"/>
<path d="M1 1V57H57V1H1ZM29.0014 44.1377L37.428 48.1313H20.5726L29.0014 44.1377ZM18.2663 47.893L17.2901 42.2829L26.9058 43.8219L18.2663 47.893ZM31.0973 43.8219L40.6436 42.2829L39.7334 47.893L31.0973 43.8219ZM28.967 42.8601L28.944 42.8371L28.9239 42.8486L28.8349 42.8371L17.1462 40.9249L15.2054 29.0015L17.1462 17.0636L28.9239 15.1429L29.0014 15.1744L29.0789 15.1429L29.1679 15.1544L40.9221 17.0636L42.8399 28.7919L40.856 40.9249L28.967 42.8601ZM13.8635 29.0015L9.87127 37.4051V20.6524L13.8635 29.0015ZM10.1598 18.1948L15.771 17.2789L14.2298 26.897L10.1598 18.1948ZM14.2298 31.106L15.771 40.6522L10.1598 39.7363L14.2298 31.106ZM29.0014 13.8624L20.5726 9.85728H37.494L29.0014 13.8624ZM39.7334 10.153L40.6436 15.7745L31.0973 14.2241L39.7334 10.153ZM26.9058 14.2241L17.3567 15.7745L18.2663 10.153L26.9058 14.2241ZM42.2284 17.3363L47.8413 18.2522L43.7701 26.8855L42.2284 17.3363ZM43.7701 31.1605L47.8413 39.8598L42.2284 40.7671L43.7701 31.1605ZM44.1376 29.0015L48.1284 20.5835V37.4739L44.1376 29.0015ZM41.9528 15.9783L40.9106 9.55289L55.0706 2.92365L48.3725 17.0206L41.9528 15.9783ZM53.5518 2.25469L40.1325 8.60259L17.8112 8.56816L4.44898 2.25469H53.5518ZM17.0239 9.55289L15.9818 16.0472L9.56091 17.0751L2.94082 2.92365L17.0239 9.55289ZM2.27532 4.46257L8.59624 17.9249L8.57385 40.19L2.27532 53.5289V4.46257ZM9.62752 41.0254L16.0483 42.0677L17.0906 48.5046L2.92963 55.1224L9.62752 41.0254ZM4.44898 55.8028L17.9335 49.4549L40.1899 49.4778L53.5518 55.8028H4.44898ZM40.9766 48.4471L42.0188 42.0677L48.4385 41.0254L55.0591 55.1338L40.9766 48.4471ZM55.7252 53.5289L49.4031 40.1211L49.4261 17.8015L55.7252 4.46257V53.5289Z" fill="black" fill-opacity="0.2"/>
<path d="M1 1V57H57V1H1ZM29.0014 44.1377L37.428 48.1313H20.5726L29.0014 44.1377ZM18.2663 47.893L17.2901 42.2829L26.9058 43.8219L18.2663 47.893ZM31.0973 43.8219L40.6436 42.2829L39.7334 47.893L31.0973 43.8219ZM28.967 42.8601L28.944 42.8371L28.9239 42.8486L28.8349 42.8371L17.1462 40.9249L15.2054 29.0015L17.1462 17.0636L28.9239 15.1429L29.0014 15.1744L29.0789 15.1429L29.1679 15.1544L40.9221 17.0636L42.8399 28.7919L40.856 40.9249L28.967 42.8601ZM13.8635 29.0015L9.87127 37.4051V20.6524L13.8635 29.0015ZM10.1598 18.1948L15.771 17.2789L14.2298 26.897L10.1598 18.1948ZM14.2298 31.106L15.771 40.6522L10.1598 39.7363L14.2298 31.106ZM29.0014 13.8624L20.5726 9.85728H37.494L29.0014 13.8624ZM39.7334 10.153L40.6436 15.7745L31.0973 14.2241L39.7334 10.153ZM26.9058 14.2241L17.3567 15.7745L18.2663 10.153L26.9058 14.2241ZM42.2284 17.3363L47.8413 18.2522L43.7701 26.8855L42.2284 17.3363ZM43.7701 31.1605L47.8413 39.8598L42.2284 40.7671L43.7701 31.1605ZM44.1376 29.0015L48.1284 20.5835V37.4739L44.1376 29.0015ZM41.9528 15.9783L40.9106 9.55289L55.0706 2.92365L48.3725 17.0206L41.9528 15.9783ZM53.5518 2.25469L40.1325 8.60259L17.8112 8.56816L4.44898 2.25469H53.5518ZM17.0239 9.55289L15.9818 16.0472L9.56091 17.0751L2.94082 2.92365L17.0239 9.55289ZM2.27532 4.46257L8.59624 17.9249L8.57385 40.19L2.27532 53.5289V4.46257ZM9.62752 41.0254L16.0483 42.0677L17.0906 48.5046L2.92963 55.1224L9.62752 41.0254ZM4.44898 55.8028L17.9335 49.4549L40.1899 49.4778L53.5518 55.8028H4.44898ZM40.9766 48.4471L42.0188 42.0677L48.4385 41.0254L55.0591 55.1338L40.9766 48.4471ZM55.7252 53.5289L49.4031 40.1211L49.4261 17.8015L55.7252 4.46257V53.5289Z" fill="black" fill-opacity="0.2"/>
<path d="M1 1V57H57V1H1ZM29.0014 44.1377L37.428 48.1313H20.5726L29.0014 44.1377ZM18.2663 47.893L17.2901 42.2829L26.9058 43.8219L18.2663 47.893ZM31.0973 43.8219L40.6436 42.2829L39.7334 47.893L31.0973 43.8219ZM28.967 42.8601L28.944 42.8371L28.9239 42.8486L28.8349 42.8371L17.1462 40.9249L15.2054 29.0015L17.1462 17.0636L28.9239 15.1429L29.0014 15.1744L29.0789 15.1429L29.1679 15.1544L40.9221 17.0636L42.8399 28.7919L40.856 40.9249L28.967 42.8601ZM13.8635 29.0015L9.87127 37.4051V20.6524L13.8635 29.0015ZM10.1598 18.1948L15.771 17.2789L14.2298 26.897L10.1598 18.1948ZM14.2298 31.106L15.771 40.6522L10.1598 39.7363L14.2298 31.106ZM29.0014 13.8624L20.5726 9.85728H37.494L29.0014 13.8624ZM39.7334 10.153L40.6436 15.7745L31.0973 14.2241L39.7334 10.153ZM26.9058 14.2241L17.3567 15.7745L18.2663 10.153L26.9058 14.2241ZM42.2284 17.3363L47.8413 18.2522L43.7701 26.8855L42.2284 17.3363ZM43.7701 31.1605L47.8413 39.8598L42.2284 40.7671L43.7701 31.1605ZM44.1376 29.0015L48.1284 20.5835V37.4739L44.1376 29.0015ZM41.9528 15.9783L40.9106 9.55289L55.0706 2.92365L48.3725 17.0206L41.9528 15.9783ZM53.5518 2.25469L40.1325 8.60259L17.8112 8.56816L4.44898 2.25469H53.5518ZM17.0239 9.55289L15.9818 16.0472L9.56091 17.0751L2.94082 2.92365L17.0239 9.55289ZM2.27532 4.46257L8.59624 17.9249L8.57385 40.19L2.27532 53.5289V4.46257ZM9.62752 41.0254L16.0483 42.0677L17.0906 48.5046L2.92963 55.1224L9.62752 41.0254ZM4.44898 55.8028L17.9335 49.4549L40.1899 49.4778L53.5518 55.8028H4.44898ZM40.9766 48.4471L42.0188 42.0677L48.4385 41.0254L55.0591 55.1338L40.9766 48.4471ZM55.7252 53.5289L49.4031 40.1211L49.4261 17.8015L55.7252 4.46257V53.5289Z" fill="black" fill-opacity="0.2"/>
<path d="M1 1V57H57V1H1ZM29.0014 44.1377L37.428 48.1313H20.5726L29.0014 44.1377ZM18.2663 47.893L17.2901 42.2829L26.9058 43.8219L18.2663 47.893ZM31.0973 43.8219L40.6436 42.2829L39.7334 47.893L31.0973 43.8219ZM28.967 42.8601L28.944 42.8371L28.9239 42.8486L28.8349 42.8371L17.1462 40.9249L15.2054 29.0015L17.1462 17.0636L28.9239 15.1429L29.0014 15.1744L29.0789 15.1429L29.1679 15.1544L40.9221 17.0636L42.8399 28.7919L40.856 40.9249L28.967 42.8601ZM13.8635 29.0015L9.87127 37.4051V20.6524L13.8635 29.0015ZM10.1598 18.1948L15.771 17.2789L14.2298 26.897L10.1598 18.1948ZM14.2298 31.106L15.771 40.6522L10.1598 39.7363L14.2298 31.106ZM29.0014 13.8624L20.5726 9.85728H37.494L29.0014 13.8624ZM39.7334 10.153L40.6436 15.7745L31.0973 14.2241L39.7334 10.153ZM26.9058 14.2241L17.3567 15.7745L18.2663 10.153L26.9058 14.2241ZM42.2284 17.3363L47.8413 18.2522L43.7701 26.8855L42.2284 17.3363ZM43.7701 31.1605L47.8413 39.8598L42.2284 40.7671L43.7701 31.1605ZM44.1376 29.0015L48.1284 20.5835V37.4739L44.1376 29.0015ZM41.9528 15.9783L40.9106 9.55289L55.0706 2.92365L48.3725 17.0206L41.9528 15.9783ZM53.5518 2.25469L40.1325 8.60259L17.8112 8.56816L4.44898 2.25469H53.5518ZM17.0239 9.55289L15.9818 16.0472L9.56091 17.0751L2.94082 2.92365L17.0239 9.55289ZM2.27532 4.46257L8.59624 17.9249L8.57385 40.19L2.27532 53.5289V4.46257ZM9.62752 41.0254L16.0483 42.0677L17.0906 48.5046L2.92963 55.1224L9.62752 41.0254ZM4.44898 55.8028L17.9335 49.4549L40.1899 49.4778L53.5518 55.8028H4.44898ZM40.9766 48.4471L42.0188 42.0677L48.4385 41.0254L55.0591 55.1338L40.9766 48.4471ZM55.7252 53.5289L49.4031 40.1211L49.4261 17.8015L55.7252 4.46257V53.5289Z" fill="black" fill-opacity="0.2"/>
<path d="M1 1V57H57V1H1ZM29.0014 44.1377L37.428 48.1313H20.5726L29.0014 44.1377ZM18.2663 47.893L17.2901 42.2829L26.9058 43.8219L18.2663 47.893ZM31.0973 43.8219L40.6436 42.2829L39.7334 47.893L31.0973 43.8219ZM28.967 42.8601L28.944 42.8371L28.9239 42.8486L28.8349 42.8371L17.1462 40.9249L15.2054 29.0015L17.1462 17.0636L28.9239 15.1429L29.0014 15.1744L29.0789 15.1429L29.1679 15.1544L40.9221 17.0636L42.8399 28.7919L40.856 40.9249L28.967 42.8601ZM13.8635 29.0015L9.87127 37.4051V20.6524L13.8635 29.0015ZM10.1598 18.1948L15.771 17.2789L14.2298 26.897L10.1598 18.1948ZM14.2298 31.106L15.771 40.6522L10.1598 39.7363L14.2298 31.106ZM29.0014 13.8624L20.5726 9.85728H37.494L29.0014 13.8624ZM39.7334 10.153L40.6436 15.7745L31.0973 14.2241L39.7334 10.153ZM26.9058 14.2241L17.3567 15.7745L18.2663 10.153L26.9058 14.2241ZM42.2284 17.3363L47.8413 18.2522L43.7701 26.8855L42.2284 17.3363ZM43.7701 31.1605L47.8413 39.8598L42.2284 40.7671L43.7701 31.1605ZM44.1376 29.0015L48.1284 20.5835V37.4739L44.1376 29.0015ZM41.9528 15.9783L40.9106 9.55289L55.0706 2.92365L48.3725 17.0206L41.9528 15.9783ZM53.5518 2.25469L40.1325 8.60259L17.8112 8.56816L4.44898 2.25469H53.5518ZM17.0239 9.55289L15.9818 16.0472L9.56091 17.0751L2.94082 2.92365L17.0239 9.55289ZM2.27532 4.46257L8.59624 17.9249L8.57385 40.19L2.27532 53.5289V4.46257ZM9.62752 41.0254L16.0483 42.0677L17.0906 48.5046L2.92963 55.1224L9.62752 41.0254ZM4.44898 55.8028L17.9335 49.4549L40.1899 49.4778L53.5518 55.8028H4.44898ZM40.9766 48.4471L42.0188 42.0677L48.4385 41.0254L55.0591 55.1338L40.9766 48.4471ZM55.7252 53.5289L49.4031 40.1211L49.4261 17.8015L55.7252 4.46257V53.5289Z" fill="black" fill-opacity="0.2"/>
<path d="M1 1V57H57V1H1ZM29.0014 44.1377L37.428 48.1313H20.5726L29.0014 44.1377ZM18.2663 47.893L17.2901 42.2829L26.9058 43.8219L18.2663 47.893ZM31.0973 43.8219L40.6436 42.2829L39.7334 47.893L31.0973 43.8219ZM28.967 42.8601L28.944 42.8371L28.9239 42.8486L28.8349 42.8371L17.1462 40.9249L15.2054 29.0015L17.1462 17.0636L28.9239 15.1429L29.0014 15.1744L29.0789 15.1429L29.1679 15.1544L40.9221 17.0636L42.8399 28.7919L40.856 40.9249L28.967 42.8601ZM13.8635 29.0015L9.87127 37.4051V20.6524L13.8635 29.0015ZM10.1598 18.1948L15.771 17.2789L14.2298 26.897L10.1598 18.1948ZM14.2298 31.106L15.771 40.6522L10.1598 39.7363L14.2298 31.106ZM29.0014 13.8624L20.5726 9.85728H37.494L29.0014 13.8624ZM39.7334 10.153L40.6436 15.7745L31.0973 14.2241L39.7334 10.153ZM26.9058 14.2241L17.3567 15.7745L18.2663 10.153L26.9058 14.2241ZM42.2284 17.3363L47.8413 18.2522L43.7701 26.8855L42.2284 17.3363ZM43.7701 31.1605L47.8413 39.8598L42.2284 40.7671L43.7701 31.1605ZM44.1376 29.0015L48.1284 20.5835V37.4739L44.1376 29.0015ZM41.9528 15.9783L40.9106 9.55289L55.0706 2.92365L48.3725 17.0206L41.9528 15.9783ZM53.5518 2.25469L40.1325 8.60259L17.8112 8.56816L4.44898 2.25469H53.5518ZM17.0239 9.55289L15.9818 16.0472L9.56091 17.0751L2.94082 2.92365L17.0239 9.55289ZM2.27532 4.46257L8.59624 17.9249L8.57385 40.19L2.27532 53.5289V4.46257ZM9.62752 41.0254L16.0483 42.0677L17.0906 48.5046L2.92963 55.1224L9.62752 41.0254ZM4.44898 55.8028L17.9335 49.4549L40.1899 49.4778L53.5518 55.8028H4.44898ZM40.9766 48.4471L42.0188 42.0677L48.4385 41.0254L55.0591 55.1338L40.9766 48.4471ZM55.7252 53.5289L49.4031 40.1211L49.4261 17.8015L55.7252 4.46257V53.5289Z" fill="black" fill-opacity="0.2"/>
<path d="M1 1V57H57V1H1ZM29.0014 44.1377L37.428 48.1313H20.5726L29.0014 44.1377ZM18.2663 47.893L17.2901 42.2829L26.9058 43.8219L18.2663 47.893ZM31.0973 43.8219L40.6436 42.2829L39.7334 47.893L31.0973 43.8219ZM28.967 42.8601L28.944 42.8371L28.9239 42.8486L28.8349 42.8371L17.1462 40.9249L15.2054 29.0015L17.1462 17.0636L28.9239 15.1429L29.0014 15.1744L29.0789 15.1429L29.1679 15.1544L40.9221 17.0636L42.8399 28.7919L40.856 40.9249L28.967 42.8601ZM13.8635 29.0015L9.87127 37.4051V20.6524L13.8635 29.0015ZM10.1598 18.1948L15.771 17.2789L14.2298 26.897L10.1598 18.1948ZM14.2298 31.106L15.771 40.6522L10.1598 39.7363L14.2298 31.106ZM29.0014 13.8624L20.5726 9.85728H37.494L29.0014 13.8624ZM39.7334 10.153L40.6436 15.7745L31.0973 14.2241L39.7334 10.153ZM26.9058 14.2241L17.3567 15.7745L18.2663 10.153L26.9058 14.2241ZM42.2284 17.3363L47.8413 18.2522L43.7701 26.8855L42.2284 17.3363ZM43.7701 31.1605L47.8413 39.8598L42.2284 40.7671L43.7701 31.1605ZM44.1376 29.0015L48.1284 20.5835V37.4739L44.1376 29.0015ZM41.9528 15.9783L40.9106 9.55289L55.0706 2.92365L48.3725 17.0206L41.9528 15.9783ZM53.5518 2.25469L40.1325 8.60259L17.8112 8.56816L4.44898 2.25469H53.5518ZM17.0239 9.55289L15.9818 16.0472L9.56091 17.0751L2.94082 2.92365L17.0239 9.55289ZM2.27532 4.46257L8.59624 17.9249L8.57385 40.19L2.27532 53.5289V4.46257ZM9.62752 41.0254L16.0483 42.0677L17.0906 48.5046L2.92963 55.1224L9.62752 41.0254ZM4.44898 55.8028L17.9335 49.4549L40.1899 49.4778L53.5518 55.8028H4.44898ZM40.9766 48.4471L42.0188 42.0677L48.4385 41.0254L55.0591 55.1338L40.9766 48.4471ZM55.7252 53.5289L49.4031 40.1211L49.4261 17.8015L55.7252 4.46257V53.5289Z" stroke="#333335" stroke-width="0.25"/>
<path d="M1 1V57H57V1H1ZM29.0014 44.1377L37.428 48.1313H20.5726L29.0014 44.1377ZM18.2663 47.893L17.2901 42.2829L26.9058 43.8219L18.2663 47.893ZM31.0973 43.8219L40.6436 42.2829L39.7334 47.893L31.0973 43.8219ZM28.967 42.8601L28.944 42.8371L28.9239 42.8486L28.8349 42.8371L17.1462 40.9249L15.2054 29.0015L17.1462 17.0636L28.9239 15.1429L29.0014 15.1744L29.0789 15.1429L29.1679 15.1544L40.9221 17.0636L42.8399 28.7919L40.856 40.9249L28.967 42.8601ZM13.8635 29.0015L9.87127 37.4051V20.6524L13.8635 29.0015ZM10.1598 18.1948L15.771 17.2789L14.2298 26.897L10.1598 18.1948ZM14.2298 31.106L15.771 40.6522L10.1598 39.7363L14.2298 31.106ZM29.0014 13.8624L20.5726 9.85728H37.494L29.0014 13.8624ZM39.7334 10.153L40.6436 15.7745L31.0973 14.2241L39.7334 10.153ZM26.9058 14.2241L17.3567 15.7745L18.2663 10.153L26.9058 14.2241ZM42.2284 17.3363L47.8413 18.2522L43.7701 26.8855L42.2284 17.3363ZM43.7701 31.1605L47.8413 39.8598L42.2284 40.7671L43.7701 31.1605ZM44.1376 29.0015L48.1284 20.5835V37.4739L44.1376 29.0015ZM41.9528 15.9783L40.9106 9.55289L55.0706 2.92365L48.3725 17.0206L41.9528 15.9783ZM53.5518 2.25469L40.1325 8.60259L17.8112 8.56816L4.44898 2.25469H53.5518ZM17.0239 9.55289L15.9818 16.0472L9.56091 17.0751L2.94082 2.92365L17.0239 9.55289ZM2.27532 4.46257L8.59624 17.9249L8.57385 40.19L2.27532 53.5289V4.46257ZM9.62752 41.0254L16.0483 42.0677L17.0906 48.5046L2.92963 55.1224L9.62752 41.0254ZM4.44898 55.8028L17.9335 49.4549L40.1899 49.4778L53.5518 55.8028H4.44898ZM40.9766 48.4471L42.0188 42.0677L48.4385 41.0254L55.0591 55.1338L40.9766 48.4471ZM55.7252 53.5289L49.4031 40.1211L49.4261 17.8015L55.7252 4.46257V53.5289Z" stroke="black" stroke-opacity="0.2" stroke-width="0.25"/>
<path d="M1 1V57H57V1H1ZM29.0014 44.1377L37.428 48.1313H20.5726L29.0014 44.1377ZM18.2663 47.893L17.2901 42.2829L26.9058 43.8219L18.2663 47.893ZM31.0973 43.8219L40.6436 42.2829L39.7334 47.893L31.0973 43.8219ZM28.967 42.8601L28.944 42.8371L28.9239 42.8486L28.8349 42.8371L17.1462 40.9249L15.2054 29.0015L17.1462 17.0636L28.9239 15.1429L29.0014 15.1744L29.0789 15.1429L29.1679 15.1544L40.9221 17.0636L42.8399 28.7919L40.856 40.9249L28.967 42.8601ZM13.8635 29.0015L9.87127 37.4051V20.6524L13.8635 29.0015ZM10.1598 18.1948L15.771 17.2789L14.2298 26.897L10.1598 18.1948ZM14.2298 31.106L15.771 40.6522L10.1598 39.7363L14.2298 31.106ZM29.0014 13.8624L20.5726 9.85728H37.494L29.0014 13.8624ZM39.7334 10.153L40.6436 15.7745L31.0973 14.2241L39.7334 10.153ZM26.9058 14.2241L17.3567 15.7745L18.2663 10.153L26.9058 14.2241ZM42.2284 17.3363L47.8413 18.2522L43.7701 26.8855L42.2284 17.3363ZM43.7701 31.1605L47.8413 39.8598L42.2284 40.7671L43.7701 31.1605ZM44.1376 29.0015L48.1284 20.5835V37.4739L44.1376 29.0015ZM41.9528 15.9783L40.9106 9.55289L55.0706 2.92365L48.3725 17.0206L41.9528 15.9783ZM53.5518 2.25469L40.1325 8.60259L17.8112 8.56816L4.44898 2.25469H53.5518ZM17.0239 9.55289L15.9818 16.0472L9.56091 17.0751L2.94082 2.92365L17.0239 9.55289ZM2.27532 4.46257L8.59624 17.9249L8.57385 40.19L2.27532 53.5289V4.46257ZM9.62752 41.0254L16.0483 42.0677L17.0906 48.5046L2.92963 55.1224L9.62752 41.0254ZM4.44898 55.8028L17.9335 49.4549L40.1899 49.4778L53.5518 55.8028H4.44898ZM40.9766 48.4471L42.0188 42.0677L48.4385 41.0254L55.0591 55.1338L40.9766 48.4471ZM55.7252 53.5289L49.4031 40.1211L49.4261 17.8015L55.7252 4.46257V53.5289Z" stroke="black" stroke-opacity="0.2" stroke-width="0.25"/>
<path d="M1 1V57H57V1H1ZM29.0014 44.1377L37.428 48.1313H20.5726L29.0014 44.1377ZM18.2663 47.893L17.2901 42.2829L26.9058 43.8219L18.2663 47.893ZM31.0973 43.8219L40.6436 42.2829L39.7334 47.893L31.0973 43.8219ZM28.967 42.8601L28.944 42.8371L28.9239 42.8486L28.8349 42.8371L17.1462 40.9249L15.2054 29.0015L17.1462 17.0636L28.9239 15.1429L29.0014 15.1744L29.0789 15.1429L29.1679 15.1544L40.9221 17.0636L42.8399 28.7919L40.856 40.9249L28.967 42.8601ZM13.8635 29.0015L9.87127 37.4051V20.6524L13.8635 29.0015ZM10.1598 18.1948L15.771 17.2789L14.2298 26.897L10.1598 18.1948ZM14.2298 31.106L15.771 40.6522L10.1598 39.7363L14.2298 31.106ZM29.0014 13.8624L20.5726 9.85728H37.494L29.0014 13.8624ZM39.7334 10.153L40.6436 15.7745L31.0973 14.2241L39.7334 10.153ZM26.9058 14.2241L17.3567 15.7745L18.2663 10.153L26.9058 14.2241ZM42.2284 17.3363L47.8413 18.2522L43.7701 26.8855L42.2284 17.3363ZM43.7701 31.1605L47.8413 39.8598L42.2284 40.7671L43.7701 31.1605ZM44.1376 29.0015L48.1284 20.5835V37.4739L44.1376 29.0015ZM41.9528 15.9783L40.9106 9.55289L55.0706 2.92365L48.3725 17.0206L41.9528 15.9783ZM53.5518 2.25469L40.1325 8.60259L17.8112 8.56816L4.44898 2.25469H53.5518ZM17.0239 9.55289L15.9818 16.0472L9.56091 17.0751L2.94082 2.92365L17.0239 9.55289ZM2.27532 4.46257L8.59624 17.9249L8.57385 40.19L2.27532 53.5289V4.46257ZM9.62752 41.0254L16.0483 42.0677L17.0906 48.5046L2.92963 55.1224L9.62752 41.0254ZM4.44898 55.8028L17.9335 49.4549L40.1899 49.4778L53.5518 55.8028H4.44898ZM40.9766 48.4471L42.0188 42.0677L48.4385 41.0254L55.0591 55.1338L40.9766 48.4471ZM55.7252 53.5289L49.4031 40.1211L49.4261 17.8015L55.7252 4.46257V53.5289Z" stroke="black" stroke-opacity="0.2" stroke-width="0.25"/>
<path d="M1 1V57H57V1H1ZM29.0014 44.1377L37.428 48.1313H20.5726L29.0014 44.1377ZM18.2663 47.893L17.2901 42.2829L26.9058 43.8219L18.2663 47.893ZM31.0973 43.8219L40.6436 42.2829L39.7334 47.893L31.0973 43.8219ZM28.967 42.8601L28.944 42.8371L28.9239 42.8486L28.8349 42.8371L17.1462 40.9249L15.2054 29.0015L17.1462 17.0636L28.9239 15.1429L29.0014 15.1744L29.0789 15.1429L29.1679 15.1544L40.9221 17.0636L42.8399 28.7919L40.856 40.9249L28.967 42.8601ZM13.8635 29.0015L9.87127 37.4051V20.6524L13.8635 29.0015ZM10.1598 18.1948L15.771 17.2789L14.2298 26.897L10.1598 18.1948ZM14.2298 31.106L15.771 40.6522L10.1598 39.7363L14.2298 31.106ZM29.0014 13.8624L20.5726 9.85728H37.494L29.0014 13.8624ZM39.7334 10.153L40.6436 15.7745L31.0973 14.2241L39.7334 10.153ZM26.9058 14.2241L17.3567 15.7745L18.2663 10.153L26.9058 14.2241ZM42.2284 17.3363L47.8413 18.2522L43.7701 26.8855L42.2284 17.3363ZM43.7701 31.1605L47.8413 39.8598L42.2284 40.7671L43.7701 31.1605ZM44.1376 29.0015L48.1284 20.5835V37.4739L44.1376 29.0015ZM41.9528 15.9783L40.9106 9.55289L55.0706 2.92365L48.3725 17.0206L41.9528 15.9783ZM53.5518 2.25469L40.1325 8.60259L17.8112 8.56816L4.44898 2.25469H53.5518ZM17.0239 9.55289L15.9818 16.0472L9.56091 17.0751L2.94082 2.92365L17.0239 9.55289ZM2.27532 4.46257L8.59624 17.9249L8.57385 40.19L2.27532 53.5289V4.46257ZM9.62752 41.0254L16.0483 42.0677L17.0906 48.5046L2.92963 55.1224L9.62752 41.0254ZM4.44898 55.8028L17.9335 49.4549L40.1899 49.4778L53.5518 55.8028H4.44898ZM40.9766 48.4471L42.0188 42.0677L48.4385 41.0254L55.0591 55.1338L40.9766 48.4471ZM55.7252 53.5289L49.4031 40.1211L49.4261 17.8015L55.7252 4.46257V53.5289Z" stroke="black" stroke-opacity="0.2" stroke-width="0.25"/>
<path d="M1 1V57H57V1H1ZM29.0014 44.1377L37.428 48.1313H20.5726L29.0014 44.1377ZM18.2663 47.893L17.2901 42.2829L26.9058 43.8219L18.2663 47.893ZM31.0973 43.8219L40.6436 42.2829L39.7334 47.893L31.0973 43.8219ZM28.967 42.8601L28.944 42.8371L28.9239 42.8486L28.8349 42.8371L17.1462 40.9249L15.2054 29.0015L17.1462 17.0636L28.9239 15.1429L29.0014 15.1744L29.0789 15.1429L29.1679 15.1544L40.9221 17.0636L42.8399 28.7919L40.856 40.9249L28.967 42.8601ZM13.8635 29.0015L9.87127 37.4051V20.6524L13.8635 29.0015ZM10.1598 18.1948L15.771 17.2789L14.2298 26.897L10.1598 18.1948ZM14.2298 31.106L15.771 40.6522L10.1598 39.7363L14.2298 31.106ZM29.0014 13.8624L20.5726 9.85728H37.494L29.0014 13.8624ZM39.7334 10.153L40.6436 15.7745L31.0973 14.2241L39.7334 10.153ZM26.9058 14.2241L17.3567 15.7745L18.2663 10.153L26.9058 14.2241ZM42.2284 17.3363L47.8413 18.2522L43.7701 26.8855L42.2284 17.3363ZM43.7701 31.1605L47.8413 39.8598L42.2284 40.7671L43.7701 31.1605ZM44.1376 29.0015L48.1284 20.5835V37.4739L44.1376 29.0015ZM41.9528 15.9783L40.9106 9.55289L55.0706 2.92365L48.3725 17.0206L41.9528 15.9783ZM53.5518 2.25469L40.1325 8.60259L17.8112 8.56816L4.44898 2.25469H53.5518ZM17.0239 9.55289L15.9818 16.0472L9.56091 17.0751L2.94082 2.92365L17.0239 9.55289ZM2.27532 4.46257L8.59624 17.9249L8.57385 40.19L2.27532 53.5289V4.46257ZM9.62752 41.0254L16.0483 42.0677L17.0906 48.5046L2.92963 55.1224L9.62752 41.0254ZM4.44898 55.8028L17.9335 49.4549L40.1899 49.4778L53.5518 55.8028H4.44898ZM40.9766 48.4471L42.0188 42.0677L48.4385 41.0254L55.0591 55.1338L40.9766 48.4471ZM55.7252 53.5289L49.4031 40.1211L49.4261 17.8015L55.7252 4.46257V53.5289Z" stroke="black" stroke-opacity="0.2" stroke-width="0.25"/>
<path d="M1 1V57H57V1H1ZM29.0014 44.1377L37.428 48.1313H20.5726L29.0014 44.1377ZM18.2663 47.893L17.2901 42.2829L26.9058 43.8219L18.2663 47.893ZM31.0973 43.8219L40.6436 42.2829L39.7334 47.893L31.0973 43.8219ZM28.967 42.8601L28.944 42.8371L28.9239 42.8486L28.8349 42.8371L17.1462 40.9249L15.2054 29.0015L17.1462 17.0636L28.9239 15.1429L29.0014 15.1744L29.0789 15.1429L29.1679 15.1544L40.9221 17.0636L42.8399 28.7919L40.856 40.9249L28.967 42.8601ZM13.8635 29.0015L9.87127 37.4051V20.6524L13.8635 29.0015ZM10.1598 18.1948L15.771 17.2789L14.2298 26.897L10.1598 18.1948ZM14.2298 31.106L15.771 40.6522L10.1598 39.7363L14.2298 31.106ZM29.0014 13.8624L20.5726 9.85728H37.494L29.0014 13.8624ZM39.7334 10.153L40.6436 15.7745L31.0973 14.2241L39.7334 10.153ZM26.9058 14.2241L17.3567 15.7745L18.2663 10.153L26.9058 14.2241ZM42.2284 17.3363L47.8413 18.2522L43.7701 26.8855L42.2284 17.3363ZM43.7701 31.1605L47.8413 39.8598L42.2284 40.7671L43.7701 31.1605ZM44.1376 29.0015L48.1284 20.5835V37.4739L44.1376 29.0015ZM41.9528 15.9783L40.9106 9.55289L55.0706 2.92365L48.3725 17.0206L41.9528 15.9783ZM53.5518 2.25469L40.1325 8.60259L17.8112 8.56816L4.44898 2.25469H53.5518ZM17.0239 9.55289L15.9818 16.0472L9.56091 17.0751L2.94082 2.92365L17.0239 9.55289ZM2.27532 4.46257L8.59624 17.9249L8.57385 40.19L2.27532 53.5289V4.46257ZM9.62752 41.0254L16.0483 42.0677L17.0906 48.5046L2.92963 55.1224L9.62752 41.0254ZM4.44898 55.8028L17.9335 49.4549L40.1899 49.4778L53.5518 55.8028H4.44898ZM40.9766 48.4471L42.0188 42.0677L48.4385 41.0254L55.0591 55.1338L40.9766 48.4471ZM55.7252 53.5289L49.4031 40.1211L49.4261 17.8015L55.7252 4.46257V53.5289Z" stroke="black" stroke-opacity="0.2" stroke-width="0.25"/>
<path d="M1 1V57H57V1H1ZM29.0014 44.1377L37.428 48.1313H20.5726L29.0014 44.1377ZM18.2663 47.893L17.2901 42.2829L26.9058 43.8219L18.2663 47.893ZM31.0973 43.8219L40.6436 42.2829L39.7334 47.893L31.0973 43.8219ZM28.967 42.8601L28.944 42.8371L28.9239 42.8486L28.8349 42.8371L17.1462 40.9249L15.2054 29.0015L17.1462 17.0636L28.9239 15.1429L29.0014 15.1744L29.0789 15.1429L29.1679 15.1544L40.9221 17.0636L42.8399 28.7919L40.856 40.9249L28.967 42.8601ZM13.8635 29.0015L9.87127 37.4051V20.6524L13.8635 29.0015ZM10.1598 18.1948L15.771 17.2789L14.2298 26.897L10.1598 18.1948ZM14.2298 31.106L15.771 40.6522L10.1598 39.7363L14.2298 31.106ZM29.0014 13.8624L20.5726 9.85728H37.494L29.0014 13.8624ZM39.7334 10.153L40.6436 15.7745L31.0973 14.2241L39.7334 10.153ZM26.9058 14.2241L17.3567 15.7745L18.2663 10.153L26.9058 14.2241ZM42.2284 17.3363L47.8413 18.2522L43.7701 26.8855L42.2284 17.3363ZM43.7701 31.1605L47.8413 39.8598L42.2284 40.7671L43.7701 31.1605ZM44.1376 29.0015L48.1284 20.5835V37.4739L44.1376 29.0015ZM41.9528 15.9783L40.9106 9.55289L55.0706 2.92365L48.3725 17.0206L41.9528 15.9783ZM53.5518 2.25469L40.1325 8.60259L17.8112 8.56816L4.44898 2.25469H53.5518ZM17.0239 9.55289L15.9818 16.0472L9.56091 17.0751L2.94082 2.92365L17.0239 9.55289ZM2.27532 4.46257L8.59624 17.9249L8.57385 40.19L2.27532 53.5289V4.46257ZM9.62752 41.0254L16.0483 42.0677L17.0906 48.5046L2.92963 55.1224L9.62752 41.0254ZM4.44898 55.8028L17.9335 49.4549L40.1899 49.4778L53.5518 55.8028H4.44898ZM40.9766 48.4471L42.0188 42.0677L48.4385 41.0254L55.0591 55.1338L40.9766 48.4471ZM55.7252 53.5289L49.4031 40.1211L49.4261 17.8015L55.7252 4.46257V53.5289Z" stroke="black" stroke-opacity="0.2" stroke-width="0.25"/>
<path d="M1 1V57H57V1H1ZM29.0014 44.1377L37.428 48.1313H20.5726L29.0014 44.1377ZM18.2663 47.893L17.2901 42.2829L26.9058 43.8219L18.2663 47.893ZM31.0973 43.8219L40.6436 42.2829L39.7334 47.893L31.0973 43.8219ZM28.967 42.8601L28.944 42.8371L28.9239 42.8486L28.8349 42.8371L17.1462 40.9249L15.2054 29.0015L17.1462 17.0636L28.9239 15.1429L29.0014 15.1744L29.0789 15.1429L29.1679 15.1544L40.9221 17.0636L42.8399 28.7919L40.856 40.9249L28.967 42.8601ZM13.8635 29.0015L9.87127 37.4051V20.6524L13.8635 29.0015ZM10.1598 18.1948L15.771 17.2789L14.2298 26.897L10.1598 18.1948ZM14.2298 31.106L15.771 40.6522L10.1598 39.7363L14.2298 31.106ZM29.0014 13.8624L20.5726 9.85728H37.494L29.0014 13.8624ZM39.7334 10.153L40.6436 15.7745L31.0973 14.2241L39.7334 10.153ZM26.9058 14.2241L17.3567 15.7745L18.2663 10.153L26.9058 14.2241ZM42.2284 17.3363L47.8413 18.2522L43.7701 26.8855L42.2284 17.3363ZM43.7701 31.1605L47.8413 39.8598L42.2284 40.7671L43.7701 31.1605ZM44.1376 29.0015L48.1284 20.5835V37.4739L44.1376 29.0015ZM41.9528 15.9783L40.9106 9.55289L55.0706 2.92365L48.3725 17.0206L41.9528 15.9783ZM53.5518 2.25469L40.1325 8.60259L17.8112 8.56816L4.44898 2.25469H53.5518ZM17.0239 9.55289L15.9818 16.0472L9.56091 17.0751L2.94082 2.92365L17.0239 9.55289ZM2.27532 4.46257L8.59624 17.9249L8.57385 40.19L2.27532 53.5289V4.46257ZM9.62752 41.0254L16.0483 42.0677L17.0906 48.5046L2.92963 55.1224L9.62752 41.0254ZM4.44898 55.8028L17.9335 49.4549L40.1899 49.4778L53.5518 55.8028H4.44898ZM40.9766 48.4471L42.0188 42.0677L48.4385 41.0254L55.0591 55.1338L40.9766 48.4471ZM55.7252 53.5289L49.4031 40.1211L49.4261 17.8015L55.7252 4.46257V53.5289Z" stroke="black" stroke-opacity="0.2" stroke-width="0.25"/>
</svg>
