<svg width="33" height="58" viewBox="0 0 33 58" fill="none" xmlns="http://www.w3.org/2000/svg">
<path d="M31.4041 21.243C30.6461 18.9404 29.5781 16.5718 28.223 14.2147C27.043 12.1562 25.9979 10.6058 24.9414 9.32247C24.2179 8.3492 23.3853 7.36438 22.3288 6.2332C21.8723 5.73652 21.3957 5.24849 20.9823 4.8408C20.4483 4.29818 19.8942 3.75559 19.3487 3.22445C18.8606 2.75935 18.3697 2.29417 17.8816 1.82907L17.4796 1.4645C17.4366 1.41856 17.3907 1.36396 17.3361 1.32089C17.2012 1.17447 17.0691 1.05388 16.9255 1.01082C16.7475 0.964883 16.6241 1.06538 16.38 1.30942L16.3025 1.37548C16.024 1.63961 15.7341 1.90664 15.4556 2.17077L15.3005 2.3057C14.577 2.95743 13.8565 3.65511 13.133 4.37573C12.82 4.6858 12.5214 5.00447 12.2199 5.32602C11.8984 5.68203 11.5768 6.03518 11.2409 6.36822L11.1405 6.48878C10.3739 7.36444 9.57283 8.28318 8.82924 9.29952L8.41876 9.86508C8.03978 10.3733 7.63781 10.9158 7.23874 11.4929L7.2043 11.5475C7.18421 11.5819 7.14969 11.648 7.08365 11.7026C6.97168 11.8145 6.87126 11.9896 6.78225 12.1562C6.7277 12.2337 6.68172 12.3227 6.62717 12.3887C6.46065 12.6557 6.29419 12.9083 6.12767 13.1753C5.78315 13.7179 5.45872 14.2807 5.13717 14.8348C4.46822 16.0291 3.86819 17.2494 3.35715 18.4322C2.25755 21.0334 1.55697 23.468 1.22106 25.8596C1.07751 26.9333 1 28.007 1 29.0578C1 32.3251 1.71199 35.7013 3.11305 39.0891L3.136 39.1868C3.136 39.1983 3.13605 39.2097 3.17911 39.2758L3.2365 39.3648C4.21265 41.7449 5.51613 44.1364 7.10381 46.4821L7.2043 46.5825L7.49423 46.9816C7.93923 47.6219 8.36127 48.2305 8.81776 48.7846C10.3078 50.7111 11.9415 52.56 13.6985 54.297C14.6 55.1813 15.5245 56.0224 16.4346 56.7976C16.6126 56.9526 16.7676 57.0101 16.9341 56.9986C17.1581 56.9756 17.3476 56.7977 17.5371 56.6225L17.6806 56.4876C17.9247 56.278 18.1687 56.0684 18.4042 55.8473C19.1162 55.1927 19.8367 54.4951 20.5487 53.7774C21.1172 53.2003 21.7948 52.5025 22.4407 51.7618C23.2188 50.8661 26.0094 47.3692 26.5549 46.594C27.4679 45.2647 28.3551 43.7603 29.202 42.1209C29.5896 41.3687 29.9456 40.5936 30.2786 39.8185C31.4156 37.1283 32.1362 34.6592 32.4721 32.2705C32.6157 31.1852 32.6932 30.1 32.6932 29.0578C32.6932 26.5141 32.2596 23.89 31.4041 21.243ZM27.29 15.1994C28.0881 16.5718 28.6336 17.6685 29.0786 18.7538L29.1561 18.9404L26.977 20.6917L26.7215 14.2377L27.29 15.1994ZM22.2513 8.10513L22.6188 8.53577C23.2188 9.26787 23.8418 10.0086 24.4648 10.8613L24.7749 11.3035H21.5737L22.2513 8.10513ZM25.3634 12.5667L25.6879 21.1108L22.0847 20.1032L21.4273 12.5667H25.3634ZM23.6064 26.9218L22.3948 21.4985L25.5329 22.3741L23.6064 26.9218ZM23.6179 31.1738L25.4639 35.733L22.3288 36.6086L23.6179 31.1738ZM19.2482 4.82932C19.5381 5.13939 19.8483 5.46953 20.1612 5.80257C20.4713 6.12412 20.7842 6.44573 21.0828 6.7759L21.1833 6.87631L20.5947 9.68705L18.2261 3.69811L19.2482 4.82932ZM20.7153 19.2734L17.6806 16.9709L20.2387 13.629L20.7153 19.2734ZM16.7906 3.52296L20.0378 11.8576L16.7791 16.0292L13.532 11.803L16.7906 3.52296ZM15.8891 16.9709L12.8544 19.2734L13.3339 13.629L15.8891 16.9709ZM12.4209 6.89935C13.0324 6.16724 13.7215 5.49256 14.3216 4.88391L15.246 3.97664L12.9979 9.84213L12.3319 7.00843L12.4209 6.89935ZM12.6305 20.8783L16.7906 17.7805L20.9392 20.8783L22.8083 28.9918L20.9392 37.1053L16.7906 40.206L12.6305 37.1053L10.7643 28.9918L12.6305 20.8783ZM20.7153 38.8337L20.2387 44.4781L17.6806 41.1477L20.7153 38.8337ZM15.8231 41.1362L13.3425 44.4896L12.7769 38.8337L15.8231 41.1362ZM11.1749 36.6086L8.03973 35.733L9.89729 31.1738L11.1749 36.6086ZM8.10579 22.3741L11.2409 21.4985L9.95187 26.9333L8.10579 22.3741ZM9.45228 10.4192C9.94035 9.78755 10.3968 9.20187 10.8964 8.60183L11.2409 8.18267L12.0103 11.3035H8.77185L9.45228 10.4192ZM8.1517 12.5667H12.1425L11.4879 20.1032L7.88473 21.1108L8.1517 12.5667ZM4.37919 18.9317C4.97062 17.5479 5.70272 16.1842 6.28266 15.1449L6.84823 14.1257L6.60422 20.7778L4.29018 19.1298L4.37919 18.9317ZM2.40108 26.1696C2.5676 24.5302 2.98965 22.7502 3.69018 20.7117L3.81363 20.3701L6.31429 22.0755L2.30058 27.1113L2.40108 26.1696ZM3.75905 37.6479C3.05852 35.733 2.57905 33.8065 2.33501 31.9374L2.21156 30.9642L6.30562 36.0775L3.89108 38.0154L3.75905 37.6479ZM6.28266 42.9076C5.48165 41.5353 4.93618 40.4385 4.49117 39.3533L4.41363 39.1667L6.59274 37.4154L6.84823 43.8694L6.28266 42.9076ZM7.02627 34.8803L2.32354 29.0578L7.02627 23.1694L9.38341 29.0578L7.02627 34.8803ZM11.3184 50.002L10.9539 49.5712C10.3509 48.8506 9.73078 48.0984 9.10777 47.2457L8.79481 46.8036H11.9989L11.3184 50.002ZM8.20629 45.5403L7.88473 37.0077L11.4879 38.0039L12.1425 45.5403H8.20629ZM14.3216 53.2778C14.0431 52.9677 13.7215 52.649 13.4114 52.3045C13.0985 51.9944 12.7884 51.6614 12.487 51.3427L12.3865 51.2307L12.9779 48.4315L15.3465 54.4176L14.3216 53.2778ZM16.7791 54.584L13.532 46.2495L16.7906 42.0779L20.0378 46.304L16.7791 54.584ZM21.1488 51.2077C20.5373 51.9398 19.8597 52.6145 19.2596 53.2117L18.3352 54.1304L20.5717 48.265L21.2378 51.0987L21.1488 51.2077ZM24.1089 47.6994C23.6294 48.3195 23.1729 48.9167 22.6848 49.5053L22.3288 49.9244L21.5622 46.8036H24.7979L24.1089 47.6994ZM25.4209 45.5403H21.4962L22.0847 38.0039L25.6879 37.0077L25.4209 45.5403ZM26.5435 34.9377L24.1863 29.0578L26.5435 23.2355L31.2462 29.0492L26.5435 34.9377ZM29.1905 39.1753C28.602 40.5591 27.867 41.9314 27.29 42.9621L26.7215 43.99L26.9655 37.3264L29.2796 38.9773L29.1905 39.1753ZM31.1687 31.9374C31.0021 33.5739 30.5801 35.3568 29.8796 37.4067L29.7561 37.7484L27.2554 36.0316L31.2692 30.9957L31.1687 31.9374ZM27.2669 22.0296L29.6786 20.1032L29.8136 20.4592C30.5141 22.3741 30.9907 24.3005 31.2376 26.1696L31.3582 27.1429L27.2669 22.0296Z" fill="#333335"/>
<path d="M31.4041 21.243C30.6461 18.9404 29.5781 16.5718 28.223 14.2147C27.043 12.1562 25.9979 10.6058 24.9414 9.32247C24.2179 8.3492 23.3853 7.36438 22.3288 6.2332C21.8723 5.73652 21.3957 5.24849 20.9823 4.8408C20.4483 4.29818 19.8942 3.75559 19.3487 3.22445C18.8606 2.75935 18.3697 2.29417 17.8816 1.82907L17.4796 1.4645C17.4366 1.41856 17.3907 1.36396 17.3361 1.32089C17.2012 1.17447 17.0691 1.05388 16.9255 1.01082C16.7475 0.964883 16.6241 1.06538 16.38 1.30942L16.3025 1.37548C16.024 1.63961 15.7341 1.90664 15.4556 2.17077L15.3005 2.3057C14.577 2.95743 13.8565 3.65511 13.133 4.37573C12.82 4.6858 12.5214 5.00447 12.2199 5.32602C11.8984 5.68203 11.5768 6.03518 11.2409 6.36822L11.1405 6.48878C10.3739 7.36444 9.57283 8.28318 8.82924 9.29952L8.41876 9.86508C8.03978 10.3733 7.63781 10.9158 7.23874 11.4929L7.2043 11.5475C7.18421 11.5819 7.14969 11.648 7.08365 11.7026C6.97168 11.8145 6.87126 11.9896 6.78225 12.1562C6.7277 12.2337 6.68172 12.3227 6.62717 12.3887C6.46065 12.6557 6.29419 12.9083 6.12767 13.1753C5.78315 13.7179 5.45872 14.2807 5.13717 14.8348C4.46822 16.0291 3.86819 17.2494 3.35715 18.4322C2.25755 21.0334 1.55697 23.468 1.22106 25.8596C1.07751 26.9333 1 28.007 1 29.0578C1 32.3251 1.71199 35.7013 3.11305 39.0891L3.136 39.1868C3.136 39.1983 3.13605 39.2097 3.17911 39.2758L3.2365 39.3648C4.21265 41.7449 5.51613 44.1364 7.10381 46.4821L7.2043 46.5825L7.49423 46.9816C7.93923 47.6219 8.36127 48.2305 8.81776 48.7846C10.3078 50.7111 11.9415 52.56 13.6985 54.297C14.6 55.1813 15.5245 56.0224 16.4346 56.7976C16.6126 56.9526 16.7676 57.0101 16.9341 56.9986C17.1581 56.9756 17.3476 56.7977 17.5371 56.6225L17.6806 56.4876C17.9247 56.278 18.1687 56.0684 18.4042 55.8473C19.1162 55.1927 19.8367 54.4951 20.5487 53.7774C21.1172 53.2003 21.7948 52.5025 22.4407 51.7618C23.2188 50.8661 26.0094 47.3692 26.5549 46.594C27.4679 45.2647 28.3551 43.7603 29.202 42.1209C29.5896 41.3687 29.9456 40.5936 30.2786 39.8185C31.4156 37.1283 32.1362 34.6592 32.4721 32.2705C32.6157 31.1852 32.6932 30.1 32.6932 29.0578C32.6932 26.5141 32.2596 23.89 31.4041 21.243ZM27.29 15.1994C28.0881 16.5718 28.6336 17.6685 29.0786 18.7538L29.1561 18.9404L26.977 20.6917L26.7215 14.2377L27.29 15.1994ZM22.2513 8.10513L22.6188 8.53577C23.2188 9.26787 23.8418 10.0086 24.4648 10.8613L24.7749 11.3035H21.5737L22.2513 8.10513ZM25.3634 12.5667L25.6879 21.1108L22.0847 20.1032L21.4273 12.5667H25.3634ZM23.6064 26.9218L22.3948 21.4985L25.5329 22.3741L23.6064 26.9218ZM23.6179 31.1738L25.4639 35.733L22.3288 36.6086L23.6179 31.1738ZM19.2482 4.82932C19.5381 5.13939 19.8483 5.46953 20.1612 5.80257C20.4713 6.12412 20.7842 6.44573 21.0828 6.7759L21.1833 6.87631L20.5947 9.68705L18.2261 3.69811L19.2482 4.82932ZM20.7153 19.2734L17.6806 16.9709L20.2387 13.629L20.7153 19.2734ZM16.7906 3.52296L20.0378 11.8576L16.7791 16.0292L13.532 11.803L16.7906 3.52296ZM15.8891 16.9709L12.8544 19.2734L13.3339 13.629L15.8891 16.9709ZM12.4209 6.89935C13.0324 6.16724 13.7215 5.49256 14.3216 4.88391L15.246 3.97664L12.9979 9.84213L12.3319 7.00843L12.4209 6.89935ZM12.6305 20.8783L16.7906 17.7805L20.9392 20.8783L22.8083 28.9918L20.9392 37.1053L16.7906 40.206L12.6305 37.1053L10.7643 28.9918L12.6305 20.8783ZM20.7153 38.8337L20.2387 44.4781L17.6806 41.1477L20.7153 38.8337ZM15.8231 41.1362L13.3425 44.4896L12.7769 38.8337L15.8231 41.1362ZM11.1749 36.6086L8.03973 35.733L9.89729 31.1738L11.1749 36.6086ZM8.10579 22.3741L11.2409 21.4985L9.95187 26.9333L8.10579 22.3741ZM9.45228 10.4192C9.94035 9.78755 10.3968 9.20187 10.8964 8.60183L11.2409 8.18267L12.0103 11.3035H8.77185L9.45228 10.4192ZM8.1517 12.5667H12.1425L11.4879 20.1032L7.88473 21.1108L8.1517 12.5667ZM4.37919 18.9317C4.97062 17.5479 5.70272 16.1842 6.28266 15.1449L6.84823 14.1257L6.60422 20.7778L4.29018 19.1298L4.37919 18.9317ZM2.40108 26.1696C2.5676 24.5302 2.98965 22.7502 3.69018 20.7117L3.81363 20.3701L6.31429 22.0755L2.30058 27.1113L2.40108 26.1696ZM3.75905 37.6479C3.05852 35.733 2.57905 33.8065 2.33501 31.9374L2.21156 30.9642L6.30562 36.0775L3.89108 38.0154L3.75905 37.6479ZM6.28266 42.9076C5.48165 41.5353 4.93618 40.4385 4.49117 39.3533L4.41363 39.1667L6.59274 37.4154L6.84823 43.8694L6.28266 42.9076ZM7.02627 34.8803L2.32354 29.0578L7.02627 23.1694L9.38341 29.0578L7.02627 34.8803ZM11.3184 50.002L10.9539 49.5712C10.3509 48.8506 9.73078 48.0984 9.10777 47.2457L8.79481 46.8036H11.9989L11.3184 50.002ZM8.20629 45.5403L7.88473 37.0077L11.4879 38.0039L12.1425 45.5403H8.20629ZM14.3216 53.2778C14.0431 52.9677 13.7215 52.649 13.4114 52.3045C13.0985 51.9944 12.7884 51.6614 12.487 51.3427L12.3865 51.2307L12.9779 48.4315L15.3465 54.4176L14.3216 53.2778ZM16.7791 54.584L13.532 46.2495L16.7906 42.0779L20.0378 46.304L16.7791 54.584ZM21.1488 51.2077C20.5373 51.9398 19.8597 52.6145 19.2596 53.2117L18.3352 54.1304L20.5717 48.265L21.2378 51.0987L21.1488 51.2077ZM24.1089 47.6994C23.6294 48.3195 23.1729 48.9167 22.6848 49.5053L22.3288 49.9244L21.5622 46.8036H24.7979L24.1089 47.6994ZM25.4209 45.5403H21.4962L22.0847 38.0039L25.6879 37.0077L25.4209 45.5403ZM26.5435 34.9377L24.1863 29.0578L26.5435 23.2355L31.2462 29.0492L26.5435 34.9377ZM29.1905 39.1753C28.602 40.5591 27.867 41.9314 27.29 42.9621L26.7215 43.99L26.9655 37.3264L29.2796 38.9773L29.1905 39.1753ZM31.1687 31.9374C31.0021 33.5739 30.5801 35.3568 29.8796 37.4067L29.7561 37.7484L27.2554 36.0316L31.2692 30.9957L31.1687 31.9374ZM27.2669 22.0296L29.6786 20.1032L29.8136 20.4592C30.5141 22.3741 30.9907 24.3005 31.2376 26.1696L31.3582 27.1429L27.2669 22.0296Z" fill="black" fill-opacity="0.2"/>
<path d="M31.4041 21.243C30.6461 18.9404 29.5781 16.5718 28.223 14.2147C27.043 12.1562 25.9979 10.6058 24.9414 9.32247C24.2179 8.3492 23.3853 7.36438 22.3288 6.2332C21.8723 5.73652 21.3957 5.24849 20.9823 4.8408C20.4483 4.29818 19.8942 3.75559 19.3487 3.22445C18.8606 2.75935 18.3697 2.29417 17.8816 1.82907L17.4796 1.4645C17.4366 1.41856 17.3907 1.36396 17.3361 1.32089C17.2012 1.17447 17.0691 1.05388 16.9255 1.01082C16.7475 0.964883 16.6241 1.06538 16.38 1.30942L16.3025 1.37548C16.024 1.63961 15.7341 1.90664 15.4556 2.17077L15.3005 2.3057C14.577 2.95743 13.8565 3.65511 13.133 4.37573C12.82 4.6858 12.5214 5.00447 12.2199 5.32602C11.8984 5.68203 11.5768 6.03518 11.2409 6.36822L11.1405 6.48878C10.3739 7.36444 9.57283 8.28318 8.82924 9.29952L8.41876 9.86508C8.03978 10.3733 7.63781 10.9158 7.23874 11.4929L7.2043 11.5475C7.18421 11.5819 7.14969 11.648 7.08365 11.7026C6.97168 11.8145 6.87126 11.9896 6.78225 12.1562C6.7277 12.2337 6.68172 12.3227 6.62717 12.3887C6.46065 12.6557 6.29419 12.9083 6.12767 13.1753C5.78315 13.7179 5.45872 14.2807 5.13717 14.8348C4.46822 16.0291 3.86819 17.2494 3.35715 18.4322C2.25755 21.0334 1.55697 23.468 1.22106 25.8596C1.07751 26.9333 1 28.007 1 29.0578C1 32.3251 1.71199 35.7013 3.11305 39.0891L3.136 39.1868C3.136 39.1983 3.13605 39.2097 3.17911 39.2758L3.2365 39.3648C4.21265 41.7449 5.51613 44.1364 7.10381 46.4821L7.2043 46.5825L7.49423 46.9816C7.93923 47.6219 8.36127 48.2305 8.81776 48.7846C10.3078 50.7111 11.9415 52.56 13.6985 54.297C14.6 55.1813 15.5245 56.0224 16.4346 56.7976C16.6126 56.9526 16.7676 57.0101 16.9341 56.9986C17.1581 56.9756 17.3476 56.7977 17.5371 56.6225L17.6806 56.4876C17.9247 56.278 18.1687 56.0684 18.4042 55.8473C19.1162 55.1927 19.8367 54.4951 20.5487 53.7774C21.1172 53.2003 21.7948 52.5025 22.4407 51.7618C23.2188 50.8661 26.0094 47.3692 26.5549 46.594C27.4679 45.2647 28.3551 43.7603 29.202 42.1209C29.5896 41.3687 29.9456 40.5936 30.2786 39.8185C31.4156 37.1283 32.1362 34.6592 32.4721 32.2705C32.6157 31.1852 32.6932 30.1 32.6932 29.0578C32.6932 26.5141 32.2596 23.89 31.4041 21.243ZM27.29 15.1994C28.0881 16.5718 28.6336 17.6685 29.0786 18.7538L29.1561 18.9404L26.977 20.6917L26.7215 14.2377L27.29 15.1994ZM22.2513 8.10513L22.6188 8.53577C23.2188 9.26787 23.8418 10.0086 24.4648 10.8613L24.7749 11.3035H21.5737L22.2513 8.10513ZM25.3634 12.5667L25.6879 21.1108L22.0847 20.1032L21.4273 12.5667H25.3634ZM23.6064 26.9218L22.3948 21.4985L25.5329 22.3741L23.6064 26.9218ZM23.6179 31.1738L25.4639 35.733L22.3288 36.6086L23.6179 31.1738ZM19.2482 4.82932C19.5381 5.13939 19.8483 5.46953 20.1612 5.80257C20.4713 6.12412 20.7842 6.44573 21.0828 6.7759L21.1833 6.87631L20.5947 9.68705L18.2261 3.69811L19.2482 4.82932ZM20.7153 19.2734L17.6806 16.9709L20.2387 13.629L20.7153 19.2734ZM16.7906 3.52296L20.0378 11.8576L16.7791 16.0292L13.532 11.803L16.7906 3.52296ZM15.8891 16.9709L12.8544 19.2734L13.3339 13.629L15.8891 16.9709ZM12.4209 6.89935C13.0324 6.16724 13.7215 5.49256 14.3216 4.88391L15.246 3.97664L12.9979 9.84213L12.3319 7.00843L12.4209 6.89935ZM12.6305 20.8783L16.7906 17.7805L20.9392 20.8783L22.8083 28.9918L20.9392 37.1053L16.7906 40.206L12.6305 37.1053L10.7643 28.9918L12.6305 20.8783ZM20.7153 38.8337L20.2387 44.4781L17.6806 41.1477L20.7153 38.8337ZM15.8231 41.1362L13.3425 44.4896L12.7769 38.8337L15.8231 41.1362ZM11.1749 36.6086L8.03973 35.733L9.89729 31.1738L11.1749 36.6086ZM8.10579 22.3741L11.2409 21.4985L9.95187 26.9333L8.10579 22.3741ZM9.45228 10.4192C9.94035 9.78755 10.3968 9.20187 10.8964 8.60183L11.2409 8.18267L12.0103 11.3035H8.77185L9.45228 10.4192ZM8.1517 12.5667H12.1425L11.4879 20.1032L7.88473 21.1108L8.1517 12.5667ZM4.37919 18.9317C4.97062 17.5479 5.70272 16.1842 6.28266 15.1449L6.84823 14.1257L6.60422 20.7778L4.29018 19.1298L4.37919 18.9317ZM2.40108 26.1696C2.5676 24.5302 2.98965 22.7502 3.69018 20.7117L3.81363 20.3701L6.31429 22.0755L2.30058 27.1113L2.40108 26.1696ZM3.75905 37.6479C3.05852 35.733 2.57905 33.8065 2.33501 31.9374L2.21156 30.9642L6.30562 36.0775L3.89108 38.0154L3.75905 37.6479ZM6.28266 42.9076C5.48165 41.5353 4.93618 40.4385 4.49117 39.3533L4.41363 39.1667L6.59274 37.4154L6.84823 43.8694L6.28266 42.9076ZM7.02627 34.8803L2.32354 29.0578L7.02627 23.1694L9.38341 29.0578L7.02627 34.8803ZM11.3184 50.002L10.9539 49.5712C10.3509 48.8506 9.73078 48.0984 9.10777 47.2457L8.79481 46.8036H11.9989L11.3184 50.002ZM8.20629 45.5403L7.88473 37.0077L11.4879 38.0039L12.1425 45.5403H8.20629ZM14.3216 53.2778C14.0431 52.9677 13.7215 52.649 13.4114 52.3045C13.0985 51.9944 12.7884 51.6614 12.487 51.3427L12.3865 51.2307L12.9779 48.4315L15.3465 54.4176L14.3216 53.2778ZM16.7791 54.584L13.532 46.2495L16.7906 42.0779L20.0378 46.304L16.7791 54.584ZM21.1488 51.2077C20.5373 51.9398 19.8597 52.6145 19.2596 53.2117L18.3352 54.1304L20.5717 48.265L21.2378 51.0987L21.1488 51.2077ZM24.1089 47.6994C23.6294 48.3195 23.1729 48.9167 22.6848 49.5053L22.3288 49.9244L21.5622 46.8036H24.7979L24.1089 47.6994ZM25.4209 45.5403H21.4962L22.0847 38.0039L25.6879 37.0077L25.4209 45.5403ZM26.5435 34.9377L24.1863 29.0578L26.5435 23.2355L31.2462 29.0492L26.5435 34.9377ZM29.1905 39.1753C28.602 40.5591 27.867 41.9314 27.29 42.9621L26.7215 43.99L26.9655 37.3264L29.2796 38.9773L29.1905 39.1753ZM31.1687 31.9374C31.0021 33.5739 30.5801 35.3568 29.8796 37.4067L29.7561 37.7484L27.2554 36.0316L31.2692 30.9957L31.1687 31.9374ZM27.2669 22.0296L29.6786 20.1032L29.8136 20.4592C30.5141 22.3741 30.9907 24.3005 31.2376 26.1696L31.3582 27.1429L27.2669 22.0296Z" fill="black" fill-opacity="0.2"/>
<path d="M31.4041 21.243C30.6461 18.9404 29.5781 16.5718 28.223 14.2147C27.043 12.1562 25.9979 10.6058 24.9414 9.32247C24.2179 8.3492 23.3853 7.36438 22.3288 6.2332C21.8723 5.73652 21.3957 5.24849 20.9823 4.8408C20.4483 4.29818 19.8942 3.75559 19.3487 3.22445C18.8606 2.75935 18.3697 2.29417 17.8816 1.82907L17.4796 1.4645C17.4366 1.41856 17.3907 1.36396 17.3361 1.32089C17.2012 1.17447 17.0691 1.05388 16.9255 1.01082C16.7475 0.964883 16.6241 1.06538 16.38 1.30942L16.3025 1.37548C16.024 1.63961 15.7341 1.90664 15.4556 2.17077L15.3005 2.3057C14.577 2.95743 13.8565 3.65511 13.133 4.37573C12.82 4.6858 12.5214 5.00447 12.2199 5.32602C11.8984 5.68203 11.5768 6.03518 11.2409 6.36822L11.1405 6.48878C10.3739 7.36444 9.57283 8.28318 8.82924 9.29952L8.41876 9.86508C8.03978 10.3733 7.63781 10.9158 7.23874 11.4929L7.2043 11.5475C7.18421 11.5819 7.14969 11.648 7.08365 11.7026C6.97168 11.8145 6.87126 11.9896 6.78225 12.1562C6.7277 12.2337 6.68172 12.3227 6.62717 12.3887C6.46065 12.6557 6.29419 12.9083 6.12767 13.1753C5.78315 13.7179 5.45872 14.2807 5.13717 14.8348C4.46822 16.0291 3.86819 17.2494 3.35715 18.4322C2.25755 21.0334 1.55697 23.468 1.22106 25.8596C1.07751 26.9333 1 28.007 1 29.0578C1 32.3251 1.71199 35.7013 3.11305 39.0891L3.136 39.1868C3.136 39.1983 3.13605 39.2097 3.17911 39.2758L3.2365 39.3648C4.21265 41.7449 5.51613 44.1364 7.10381 46.4821L7.2043 46.5825L7.49423 46.9816C7.93923 47.6219 8.36127 48.2305 8.81776 48.7846C10.3078 50.7111 11.9415 52.56 13.6985 54.297C14.6 55.1813 15.5245 56.0224 16.4346 56.7976C16.6126 56.9526 16.7676 57.0101 16.9341 56.9986C17.1581 56.9756 17.3476 56.7977 17.5371 56.6225L17.6806 56.4876C17.9247 56.278 18.1687 56.0684 18.4042 55.8473C19.1162 55.1927 19.8367 54.4951 20.5487 53.7774C21.1172 53.2003 21.7948 52.5025 22.4407 51.7618C23.2188 50.8661 26.0094 47.3692 26.5549 46.594C27.4679 45.2647 28.3551 43.7603 29.202 42.1209C29.5896 41.3687 29.9456 40.5936 30.2786 39.8185C31.4156 37.1283 32.1362 34.6592 32.4721 32.2705C32.6157 31.1852 32.6932 30.1 32.6932 29.0578C32.6932 26.5141 32.2596 23.89 31.4041 21.243ZM27.29 15.1994C28.0881 16.5718 28.6336 17.6685 29.0786 18.7538L29.1561 18.9404L26.977 20.6917L26.7215 14.2377L27.29 15.1994ZM22.2513 8.10513L22.6188 8.53577C23.2188 9.26787 23.8418 10.0086 24.4648 10.8613L24.7749 11.3035H21.5737L22.2513 8.10513ZM25.3634 12.5667L25.6879 21.1108L22.0847 20.1032L21.4273 12.5667H25.3634ZM23.6064 26.9218L22.3948 21.4985L25.5329 22.3741L23.6064 26.9218ZM23.6179 31.1738L25.4639 35.733L22.3288 36.6086L23.6179 31.1738ZM19.2482 4.82932C19.5381 5.13939 19.8483 5.46953 20.1612 5.80257C20.4713 6.12412 20.7842 6.44573 21.0828 6.7759L21.1833 6.87631L20.5947 9.68705L18.2261 3.69811L19.2482 4.82932ZM20.7153 19.2734L17.6806 16.9709L20.2387 13.629L20.7153 19.2734ZM16.7906 3.52296L20.0378 11.8576L16.7791 16.0292L13.532 11.803L16.7906 3.52296ZM15.8891 16.9709L12.8544 19.2734L13.3339 13.629L15.8891 16.9709ZM12.4209 6.89935C13.0324 6.16724 13.7215 5.49256 14.3216 4.88391L15.246 3.97664L12.9979 9.84213L12.3319 7.00843L12.4209 6.89935ZM12.6305 20.8783L16.7906 17.7805L20.9392 20.8783L22.8083 28.9918L20.9392 37.1053L16.7906 40.206L12.6305 37.1053L10.7643 28.9918L12.6305 20.8783ZM20.7153 38.8337L20.2387 44.4781L17.6806 41.1477L20.7153 38.8337ZM15.8231 41.1362L13.3425 44.4896L12.7769 38.8337L15.8231 41.1362ZM11.1749 36.6086L8.03973 35.733L9.89729 31.1738L11.1749 36.6086ZM8.10579 22.3741L11.2409 21.4985L9.95187 26.9333L8.10579 22.3741ZM9.45228 10.4192C9.94035 9.78755 10.3968 9.20187 10.8964 8.60183L11.2409 8.18267L12.0103 11.3035H8.77185L9.45228 10.4192ZM8.1517 12.5667H12.1425L11.4879 20.1032L7.88473 21.1108L8.1517 12.5667ZM4.37919 18.9317C4.97062 17.5479 5.70272 16.1842 6.28266 15.1449L6.84823 14.1257L6.60422 20.7778L4.29018 19.1298L4.37919 18.9317ZM2.40108 26.1696C2.5676 24.5302 2.98965 22.7502 3.69018 20.7117L3.81363 20.3701L6.31429 22.0755L2.30058 27.1113L2.40108 26.1696ZM3.75905 37.6479C3.05852 35.733 2.57905 33.8065 2.33501 31.9374L2.21156 30.9642L6.30562 36.0775L3.89108 38.0154L3.75905 37.6479ZM6.28266 42.9076C5.48165 41.5353 4.93618 40.4385 4.49117 39.3533L4.41363 39.1667L6.59274 37.4154L6.84823 43.8694L6.28266 42.9076ZM7.02627 34.8803L2.32354 29.0578L7.02627 23.1694L9.38341 29.0578L7.02627 34.8803ZM11.3184 50.002L10.9539 49.5712C10.3509 48.8506 9.73078 48.0984 9.10777 47.2457L8.79481 46.8036H11.9989L11.3184 50.002ZM8.20629 45.5403L7.88473 37.0077L11.4879 38.0039L12.1425 45.5403H8.20629ZM14.3216 53.2778C14.0431 52.9677 13.7215 52.649 13.4114 52.3045C13.0985 51.9944 12.7884 51.6614 12.487 51.3427L12.3865 51.2307L12.9779 48.4315L15.3465 54.4176L14.3216 53.2778ZM16.7791 54.584L13.532 46.2495L16.7906 42.0779L20.0378 46.304L16.7791 54.584ZM21.1488 51.2077C20.5373 51.9398 19.8597 52.6145 19.2596 53.2117L18.3352 54.1304L20.5717 48.265L21.2378 51.0987L21.1488 51.2077ZM24.1089 47.6994C23.6294 48.3195 23.1729 48.9167 22.6848 49.5053L22.3288 49.9244L21.5622 46.8036H24.7979L24.1089 47.6994ZM25.4209 45.5403H21.4962L22.0847 38.0039L25.6879 37.0077L25.4209 45.5403ZM26.5435 34.9377L24.1863 29.0578L26.5435 23.2355L31.2462 29.0492L26.5435 34.9377ZM29.1905 39.1753C28.602 40.5591 27.867 41.9314 27.29 42.9621L26.7215 43.99L26.9655 37.3264L29.2796 38.9773L29.1905 39.1753ZM31.1687 31.9374C31.0021 33.5739 30.5801 35.3568 29.8796 37.4067L29.7561 37.7484L27.2554 36.0316L31.2692 30.9957L31.1687 31.9374ZM27.2669 22.0296L29.6786 20.1032L29.8136 20.4592C30.5141 22.3741 30.9907 24.3005 31.2376 26.1696L31.3582 27.1429L27.2669 22.0296Z" fill="black" fill-opacity="0.2"/>
<path d="M31.4041 21.243C30.6461 18.9404 29.5781 16.5718 28.223 14.2147C27.043 12.1562 25.9979 10.6058 24.9414 9.32247C24.2179 8.3492 23.3853 7.36438 22.3288 6.2332C21.8723 5.73652 21.3957 5.24849 20.9823 4.8408C20.4483 4.29818 19.8942 3.75559 19.3487 3.22445C18.8606 2.75935 18.3697 2.29417 17.8816 1.82907L17.4796 1.4645C17.4366 1.41856 17.3907 1.36396 17.3361 1.32089C17.2012 1.17447 17.0691 1.05388 16.9255 1.01082C16.7475 0.964883 16.6241 1.06538 16.38 1.30942L16.3025 1.37548C16.024 1.63961 15.7341 1.90664 15.4556 2.17077L15.3005 2.3057C14.577 2.95743 13.8565 3.65511 13.133 4.37573C12.82 4.6858 12.5214 5.00447 12.2199 5.32602C11.8984 5.68203 11.5768 6.03518 11.2409 6.36822L11.1405 6.48878C10.3739 7.36444 9.57283 8.28318 8.82924 9.29952L8.41876 9.86508C8.03978 10.3733 7.63781 10.9158 7.23874 11.4929L7.2043 11.5475C7.18421 11.5819 7.14969 11.648 7.08365 11.7026C6.97168 11.8145 6.87126 11.9896 6.78225 12.1562C6.7277 12.2337 6.68172 12.3227 6.62717 12.3887C6.46065 12.6557 6.29419 12.9083 6.12767 13.1753C5.78315 13.7179 5.45872 14.2807 5.13717 14.8348C4.46822 16.0291 3.86819 17.2494 3.35715 18.4322C2.25755 21.0334 1.55697 23.468 1.22106 25.8596C1.07751 26.9333 1 28.007 1 29.0578C1 32.3251 1.71199 35.7013 3.11305 39.0891L3.136 39.1868C3.136 39.1983 3.13605 39.2097 3.17911 39.2758L3.2365 39.3648C4.21265 41.7449 5.51613 44.1364 7.10381 46.4821L7.2043 46.5825L7.49423 46.9816C7.93923 47.6219 8.36127 48.2305 8.81776 48.7846C10.3078 50.7111 11.9415 52.56 13.6985 54.297C14.6 55.1813 15.5245 56.0224 16.4346 56.7976C16.6126 56.9526 16.7676 57.0101 16.9341 56.9986C17.1581 56.9756 17.3476 56.7977 17.5371 56.6225L17.6806 56.4876C17.9247 56.278 18.1687 56.0684 18.4042 55.8473C19.1162 55.1927 19.8367 54.4951 20.5487 53.7774C21.1172 53.2003 21.7948 52.5025 22.4407 51.7618C23.2188 50.8661 26.0094 47.3692 26.5549 46.594C27.4679 45.2647 28.3551 43.7603 29.202 42.1209C29.5896 41.3687 29.9456 40.5936 30.2786 39.8185C31.4156 37.1283 32.1362 34.6592 32.4721 32.2705C32.6157 31.1852 32.6932 30.1 32.6932 29.0578C32.6932 26.5141 32.2596 23.89 31.4041 21.243ZM27.29 15.1994C28.0881 16.5718 28.6336 17.6685 29.0786 18.7538L29.1561 18.9404L26.977 20.6917L26.7215 14.2377L27.29 15.1994ZM22.2513 8.10513L22.6188 8.53577C23.2188 9.26787 23.8418 10.0086 24.4648 10.8613L24.7749 11.3035H21.5737L22.2513 8.10513ZM25.3634 12.5667L25.6879 21.1108L22.0847 20.1032L21.4273 12.5667H25.3634ZM23.6064 26.9218L22.3948 21.4985L25.5329 22.3741L23.6064 26.9218ZM23.6179 31.1738L25.4639 35.733L22.3288 36.6086L23.6179 31.1738ZM19.2482 4.82932C19.5381 5.13939 19.8483 5.46953 20.1612 5.80257C20.4713 6.12412 20.7842 6.44573 21.0828 6.7759L21.1833 6.87631L20.5947 9.68705L18.2261 3.69811L19.2482 4.82932ZM20.7153 19.2734L17.6806 16.9709L20.2387 13.629L20.7153 19.2734ZM16.7906 3.52296L20.0378 11.8576L16.7791 16.0292L13.532 11.803L16.7906 3.52296ZM15.8891 16.9709L12.8544 19.2734L13.3339 13.629L15.8891 16.9709ZM12.4209 6.89935C13.0324 6.16724 13.7215 5.49256 14.3216 4.88391L15.246 3.97664L12.9979 9.84213L12.3319 7.00843L12.4209 6.89935ZM12.6305 20.8783L16.7906 17.7805L20.9392 20.8783L22.8083 28.9918L20.9392 37.1053L16.7906 40.206L12.6305 37.1053L10.7643 28.9918L12.6305 20.8783ZM20.7153 38.8337L20.2387 44.4781L17.6806 41.1477L20.7153 38.8337ZM15.8231 41.1362L13.3425 44.4896L12.7769 38.8337L15.8231 41.1362ZM11.1749 36.6086L8.03973 35.733L9.89729 31.1738L11.1749 36.6086ZM8.10579 22.3741L11.2409 21.4985L9.95187 26.9333L8.10579 22.3741ZM9.45228 10.4192C9.94035 9.78755 10.3968 9.20187 10.8964 8.60183L11.2409 8.18267L12.0103 11.3035H8.77185L9.45228 10.4192ZM8.1517 12.5667H12.1425L11.4879 20.1032L7.88473 21.1108L8.1517 12.5667ZM4.37919 18.9317C4.97062 17.5479 5.70272 16.1842 6.28266 15.1449L6.84823 14.1257L6.60422 20.7778L4.29018 19.1298L4.37919 18.9317ZM2.40108 26.1696C2.5676 24.5302 2.98965 22.7502 3.69018 20.7117L3.81363 20.3701L6.31429 22.0755L2.30058 27.1113L2.40108 26.1696ZM3.75905 37.6479C3.05852 35.733 2.57905 33.8065 2.33501 31.9374L2.21156 30.9642L6.30562 36.0775L3.89108 38.0154L3.75905 37.6479ZM6.28266 42.9076C5.48165 41.5353 4.93618 40.4385 4.49117 39.3533L4.41363 39.1667L6.59274 37.4154L6.84823 43.8694L6.28266 42.9076ZM7.02627 34.8803L2.32354 29.0578L7.02627 23.1694L9.38341 29.0578L7.02627 34.8803ZM11.3184 50.002L10.9539 49.5712C10.3509 48.8506 9.73078 48.0984 9.10777 47.2457L8.79481 46.8036H11.9989L11.3184 50.002ZM8.20629 45.5403L7.88473 37.0077L11.4879 38.0039L12.1425 45.5403H8.20629ZM14.3216 53.2778C14.0431 52.9677 13.7215 52.649 13.4114 52.3045C13.0985 51.9944 12.7884 51.6614 12.487 51.3427L12.3865 51.2307L12.9779 48.4315L15.3465 54.4176L14.3216 53.2778ZM16.7791 54.584L13.532 46.2495L16.7906 42.0779L20.0378 46.304L16.7791 54.584ZM21.1488 51.2077C20.5373 51.9398 19.8597 52.6145 19.2596 53.2117L18.3352 54.1304L20.5717 48.265L21.2378 51.0987L21.1488 51.2077ZM24.1089 47.6994C23.6294 48.3195 23.1729 48.9167 22.6848 49.5053L22.3288 49.9244L21.5622 46.8036H24.7979L24.1089 47.6994ZM25.4209 45.5403H21.4962L22.0847 38.0039L25.6879 37.0077L25.4209 45.5403ZM26.5435 34.9377L24.1863 29.0578L26.5435 23.2355L31.2462 29.0492L26.5435 34.9377ZM29.1905 39.1753C28.602 40.5591 27.867 41.9314 27.29 42.9621L26.7215 43.99L26.9655 37.3264L29.2796 38.9773L29.1905 39.1753ZM31.1687 31.9374C31.0021 33.5739 30.5801 35.3568 29.8796 37.4067L29.7561 37.7484L27.2554 36.0316L31.2692 30.9957L31.1687 31.9374ZM27.2669 22.0296L29.6786 20.1032L29.8136 20.4592C30.5141 22.3741 30.9907 24.3005 31.2376 26.1696L31.3582 27.1429L27.2669 22.0296Z" fill="black" fill-opacity="0.2"/>
<path d="M31.4041 21.243C30.6461 18.9404 29.5781 16.5718 28.223 14.2147C27.043 12.1562 25.9979 10.6058 24.9414 9.32247C24.2179 8.3492 23.3853 7.36438 22.3288 6.2332C21.8723 5.73652 21.3957 5.24849 20.9823 4.8408C20.4483 4.29818 19.8942 3.75559 19.3487 3.22445C18.8606 2.75935 18.3697 2.29417 17.8816 1.82907L17.4796 1.4645C17.4366 1.41856 17.3907 1.36396 17.3361 1.32089C17.2012 1.17447 17.0691 1.05388 16.9255 1.01082C16.7475 0.964883 16.6241 1.06538 16.38 1.30942L16.3025 1.37548C16.024 1.63961 15.7341 1.90664 15.4556 2.17077L15.3005 2.3057C14.577 2.95743 13.8565 3.65511 13.133 4.37573C12.82 4.6858 12.5214 5.00447 12.2199 5.32602C11.8984 5.68203 11.5768 6.03518 11.2409 6.36822L11.1405 6.48878C10.3739 7.36444 9.57283 8.28318 8.82924 9.29952L8.41876 9.86508C8.03978 10.3733 7.63781 10.9158 7.23874 11.4929L7.2043 11.5475C7.18421 11.5819 7.14969 11.648 7.08365 11.7026C6.97168 11.8145 6.87126 11.9896 6.78225 12.1562C6.7277 12.2337 6.68172 12.3227 6.62717 12.3887C6.46065 12.6557 6.29419 12.9083 6.12767 13.1753C5.78315 13.7179 5.45872 14.2807 5.13717 14.8348C4.46822 16.0291 3.86819 17.2494 3.35715 18.4322C2.25755 21.0334 1.55697 23.468 1.22106 25.8596C1.07751 26.9333 1 28.007 1 29.0578C1 32.3251 1.71199 35.7013 3.11305 39.0891L3.136 39.1868C3.136 39.1983 3.13605 39.2097 3.17911 39.2758L3.2365 39.3648C4.21265 41.7449 5.51613 44.1364 7.10381 46.4821L7.2043 46.5825L7.49423 46.9816C7.93923 47.6219 8.36127 48.2305 8.81776 48.7846C10.3078 50.7111 11.9415 52.56 13.6985 54.297C14.6 55.1813 15.5245 56.0224 16.4346 56.7976C16.6126 56.9526 16.7676 57.0101 16.9341 56.9986C17.1581 56.9756 17.3476 56.7977 17.5371 56.6225L17.6806 56.4876C17.9247 56.278 18.1687 56.0684 18.4042 55.8473C19.1162 55.1927 19.8367 54.4951 20.5487 53.7774C21.1172 53.2003 21.7948 52.5025 22.4407 51.7618C23.2188 50.8661 26.0094 47.3692 26.5549 46.594C27.4679 45.2647 28.3551 43.7603 29.202 42.1209C29.5896 41.3687 29.9456 40.5936 30.2786 39.8185C31.4156 37.1283 32.1362 34.6592 32.4721 32.2705C32.6157 31.1852 32.6932 30.1 32.6932 29.0578C32.6932 26.5141 32.2596 23.89 31.4041 21.243ZM27.29 15.1994C28.0881 16.5718 28.6336 17.6685 29.0786 18.7538L29.1561 18.9404L26.977 20.6917L26.7215 14.2377L27.29 15.1994ZM22.2513 8.10513L22.6188 8.53577C23.2188 9.26787 23.8418 10.0086 24.4648 10.8613L24.7749 11.3035H21.5737L22.2513 8.10513ZM25.3634 12.5667L25.6879 21.1108L22.0847 20.1032L21.4273 12.5667H25.3634ZM23.6064 26.9218L22.3948 21.4985L25.5329 22.3741L23.6064 26.9218ZM23.6179 31.1738L25.4639 35.733L22.3288 36.6086L23.6179 31.1738ZM19.2482 4.82932C19.5381 5.13939 19.8483 5.46953 20.1612 5.80257C20.4713 6.12412 20.7842 6.44573 21.0828 6.7759L21.1833 6.87631L20.5947 9.68705L18.2261 3.69811L19.2482 4.82932ZM20.7153 19.2734L17.6806 16.9709L20.2387 13.629L20.7153 19.2734ZM16.7906 3.52296L20.0378 11.8576L16.7791 16.0292L13.532 11.803L16.7906 3.52296ZM15.8891 16.9709L12.8544 19.2734L13.3339 13.629L15.8891 16.9709ZM12.4209 6.89935C13.0324 6.16724 13.7215 5.49256 14.3216 4.88391L15.246 3.97664L12.9979 9.84213L12.3319 7.00843L12.4209 6.89935ZM12.6305 20.8783L16.7906 17.7805L20.9392 20.8783L22.8083 28.9918L20.9392 37.1053L16.7906 40.206L12.6305 37.1053L10.7643 28.9918L12.6305 20.8783ZM20.7153 38.8337L20.2387 44.4781L17.6806 41.1477L20.7153 38.8337ZM15.8231 41.1362L13.3425 44.4896L12.7769 38.8337L15.8231 41.1362ZM11.1749 36.6086L8.03973 35.733L9.89729 31.1738L11.1749 36.6086ZM8.10579 22.3741L11.2409 21.4985L9.95187 26.9333L8.10579 22.3741ZM9.45228 10.4192C9.94035 9.78755 10.3968 9.20187 10.8964 8.60183L11.2409 8.18267L12.0103 11.3035H8.77185L9.45228 10.4192ZM8.1517 12.5667H12.1425L11.4879 20.1032L7.88473 21.1108L8.1517 12.5667ZM4.37919 18.9317C4.97062 17.5479 5.70272 16.1842 6.28266 15.1449L6.84823 14.1257L6.60422 20.7778L4.29018 19.1298L4.37919 18.9317ZM2.40108 26.1696C2.5676 24.5302 2.98965 22.7502 3.69018 20.7117L3.81363 20.3701L6.31429 22.0755L2.30058 27.1113L2.40108 26.1696ZM3.75905 37.6479C3.05852 35.733 2.57905 33.8065 2.33501 31.9374L2.21156 30.9642L6.30562 36.0775L3.89108 38.0154L3.75905 37.6479ZM6.28266 42.9076C5.48165 41.5353 4.93618 40.4385 4.49117 39.3533L4.41363 39.1667L6.59274 37.4154L6.84823 43.8694L6.28266 42.9076ZM7.02627 34.8803L2.32354 29.0578L7.02627 23.1694L9.38341 29.0578L7.02627 34.8803ZM11.3184 50.002L10.9539 49.5712C10.3509 48.8506 9.73078 48.0984 9.10777 47.2457L8.79481 46.8036H11.9989L11.3184 50.002ZM8.20629 45.5403L7.88473 37.0077L11.4879 38.0039L12.1425 45.5403H8.20629ZM14.3216 53.2778C14.0431 52.9677 13.7215 52.649 13.4114 52.3045C13.0985 51.9944 12.7884 51.6614 12.487 51.3427L12.3865 51.2307L12.9779 48.4315L15.3465 54.4176L14.3216 53.2778ZM16.7791 54.584L13.532 46.2495L16.7906 42.0779L20.0378 46.304L16.7791 54.584ZM21.1488 51.2077C20.5373 51.9398 19.8597 52.6145 19.2596 53.2117L18.3352 54.1304L20.5717 48.265L21.2378 51.0987L21.1488 51.2077ZM24.1089 47.6994C23.6294 48.3195 23.1729 48.9167 22.6848 49.5053L22.3288 49.9244L21.5622 46.8036H24.7979L24.1089 47.6994ZM25.4209 45.5403H21.4962L22.0847 38.0039L25.6879 37.0077L25.4209 45.5403ZM26.5435 34.9377L24.1863 29.0578L26.5435 23.2355L31.2462 29.0492L26.5435 34.9377ZM29.1905 39.1753C28.602 40.5591 27.867 41.9314 27.29 42.9621L26.7215 43.99L26.9655 37.3264L29.2796 38.9773L29.1905 39.1753ZM31.1687 31.9374C31.0021 33.5739 30.5801 35.3568 29.8796 37.4067L29.7561 37.7484L27.2554 36.0316L31.2692 30.9957L31.1687 31.9374ZM27.2669 22.0296L29.6786 20.1032L29.8136 20.4592C30.5141 22.3741 30.9907 24.3005 31.2376 26.1696L31.3582 27.1429L27.2669 22.0296Z" fill="black" fill-opacity="0.2"/>
<path d="M31.4041 21.243C30.6461 18.9404 29.5781 16.5718 28.223 14.2147C27.043 12.1562 25.9979 10.6058 24.9414 9.32247C24.2179 8.3492 23.3853 7.36438 22.3288 6.2332C21.8723 5.73652 21.3957 5.24849 20.9823 4.8408C20.4483 4.29818 19.8942 3.75559 19.3487 3.22445C18.8606 2.75935 18.3697 2.29417 17.8816 1.82907L17.4796 1.4645C17.4366 1.41856 17.3907 1.36396 17.3361 1.32089C17.2012 1.17447 17.0691 1.05388 16.9255 1.01082C16.7475 0.964883 16.6241 1.06538 16.38 1.30942L16.3025 1.37548C16.024 1.63961 15.7341 1.90664 15.4556 2.17077L15.3005 2.3057C14.577 2.95743 13.8565 3.65511 13.133 4.37573C12.82 4.6858 12.5214 5.00447 12.2199 5.32602C11.8984 5.68203 11.5768 6.03518 11.2409 6.36822L11.1405 6.48878C10.3739 7.36444 9.57283 8.28318 8.82924 9.29952L8.41876 9.86508C8.03978 10.3733 7.63781 10.9158 7.23874 11.4929L7.2043 11.5475C7.18421 11.5819 7.14969 11.648 7.08365 11.7026C6.97168 11.8145 6.87126 11.9896 6.78225 12.1562C6.7277 12.2337 6.68172 12.3227 6.62717 12.3887C6.46065 12.6557 6.29419 12.9083 6.12767 13.1753C5.78315 13.7179 5.45872 14.2807 5.13717 14.8348C4.46822 16.0291 3.86819 17.2494 3.35715 18.4322C2.25755 21.0334 1.55697 23.468 1.22106 25.8596C1.07751 26.9333 1 28.007 1 29.0578C1 32.3251 1.71199 35.7013 3.11305 39.0891L3.136 39.1868C3.136 39.1983 3.13605 39.2097 3.17911 39.2758L3.2365 39.3648C4.21265 41.7449 5.51613 44.1364 7.10381 46.4821L7.2043 46.5825L7.49423 46.9816C7.93923 47.6219 8.36127 48.2305 8.81776 48.7846C10.3078 50.7111 11.9415 52.56 13.6985 54.297C14.6 55.1813 15.5245 56.0224 16.4346 56.7976C16.6126 56.9526 16.7676 57.0101 16.9341 56.9986C17.1581 56.9756 17.3476 56.7977 17.5371 56.6225L17.6806 56.4876C17.9247 56.278 18.1687 56.0684 18.4042 55.8473C19.1162 55.1927 19.8367 54.4951 20.5487 53.7774C21.1172 53.2003 21.7948 52.5025 22.4407 51.7618C23.2188 50.8661 26.0094 47.3692 26.5549 46.594C27.4679 45.2647 28.3551 43.7603 29.202 42.1209C29.5896 41.3687 29.9456 40.5936 30.2786 39.8185C31.4156 37.1283 32.1362 34.6592 32.4721 32.2705C32.6157 31.1852 32.6932 30.1 32.6932 29.0578C32.6932 26.5141 32.2596 23.89 31.4041 21.243ZM27.29 15.1994C28.0881 16.5718 28.6336 17.6685 29.0786 18.7538L29.1561 18.9404L26.977 20.6917L26.7215 14.2377L27.29 15.1994ZM22.2513 8.10513L22.6188 8.53577C23.2188 9.26787 23.8418 10.0086 24.4648 10.8613L24.7749 11.3035H21.5737L22.2513 8.10513ZM25.3634 12.5667L25.6879 21.1108L22.0847 20.1032L21.4273 12.5667H25.3634ZM23.6064 26.9218L22.3948 21.4985L25.5329 22.3741L23.6064 26.9218ZM23.6179 31.1738L25.4639 35.733L22.3288 36.6086L23.6179 31.1738ZM19.2482 4.82932C19.5381 5.13939 19.8483 5.46953 20.1612 5.80257C20.4713 6.12412 20.7842 6.44573 21.0828 6.7759L21.1833 6.87631L20.5947 9.68705L18.2261 3.69811L19.2482 4.82932ZM20.7153 19.2734L17.6806 16.9709L20.2387 13.629L20.7153 19.2734ZM16.7906 3.52296L20.0378 11.8576L16.7791 16.0292L13.532 11.803L16.7906 3.52296ZM15.8891 16.9709L12.8544 19.2734L13.3339 13.629L15.8891 16.9709ZM12.4209 6.89935C13.0324 6.16724 13.7215 5.49256 14.3216 4.88391L15.246 3.97664L12.9979 9.84213L12.3319 7.00843L12.4209 6.89935ZM12.6305 20.8783L16.7906 17.7805L20.9392 20.8783L22.8083 28.9918L20.9392 37.1053L16.7906 40.206L12.6305 37.1053L10.7643 28.9918L12.6305 20.8783ZM20.7153 38.8337L20.2387 44.4781L17.6806 41.1477L20.7153 38.8337ZM15.8231 41.1362L13.3425 44.4896L12.7769 38.8337L15.8231 41.1362ZM11.1749 36.6086L8.03973 35.733L9.89729 31.1738L11.1749 36.6086ZM8.10579 22.3741L11.2409 21.4985L9.95187 26.9333L8.10579 22.3741ZM9.45228 10.4192C9.94035 9.78755 10.3968 9.20187 10.8964 8.60183L11.2409 8.18267L12.0103 11.3035H8.77185L9.45228 10.4192ZM8.1517 12.5667H12.1425L11.4879 20.1032L7.88473 21.1108L8.1517 12.5667ZM4.37919 18.9317C4.97062 17.5479 5.70272 16.1842 6.28266 15.1449L6.84823 14.1257L6.60422 20.7778L4.29018 19.1298L4.37919 18.9317ZM2.40108 26.1696C2.5676 24.5302 2.98965 22.7502 3.69018 20.7117L3.81363 20.3701L6.31429 22.0755L2.30058 27.1113L2.40108 26.1696ZM3.75905 37.6479C3.05852 35.733 2.57905 33.8065 2.33501 31.9374L2.21156 30.9642L6.30562 36.0775L3.89108 38.0154L3.75905 37.6479ZM6.28266 42.9076C5.48165 41.5353 4.93618 40.4385 4.49117 39.3533L4.41363 39.1667L6.59274 37.4154L6.84823 43.8694L6.28266 42.9076ZM7.02627 34.8803L2.32354 29.0578L7.02627 23.1694L9.38341 29.0578L7.02627 34.8803ZM11.3184 50.002L10.9539 49.5712C10.3509 48.8506 9.73078 48.0984 9.10777 47.2457L8.79481 46.8036H11.9989L11.3184 50.002ZM8.20629 45.5403L7.88473 37.0077L11.4879 38.0039L12.1425 45.5403H8.20629ZM14.3216 53.2778C14.0431 52.9677 13.7215 52.649 13.4114 52.3045C13.0985 51.9944 12.7884 51.6614 12.487 51.3427L12.3865 51.2307L12.9779 48.4315L15.3465 54.4176L14.3216 53.2778ZM16.7791 54.584L13.532 46.2495L16.7906 42.0779L20.0378 46.304L16.7791 54.584ZM21.1488 51.2077C20.5373 51.9398 19.8597 52.6145 19.2596 53.2117L18.3352 54.1304L20.5717 48.265L21.2378 51.0987L21.1488 51.2077ZM24.1089 47.6994C23.6294 48.3195 23.1729 48.9167 22.6848 49.5053L22.3288 49.9244L21.5622 46.8036H24.7979L24.1089 47.6994ZM25.4209 45.5403H21.4962L22.0847 38.0039L25.6879 37.0077L25.4209 45.5403ZM26.5435 34.9377L24.1863 29.0578L26.5435 23.2355L31.2462 29.0492L26.5435 34.9377ZM29.1905 39.1753C28.602 40.5591 27.867 41.9314 27.29 42.9621L26.7215 43.99L26.9655 37.3264L29.2796 38.9773L29.1905 39.1753ZM31.1687 31.9374C31.0021 33.5739 30.5801 35.3568 29.8796 37.4067L29.7561 37.7484L27.2554 36.0316L31.2692 30.9957L31.1687 31.9374ZM27.2669 22.0296L29.6786 20.1032L29.8136 20.4592C30.5141 22.3741 30.9907 24.3005 31.2376 26.1696L31.3582 27.1429L27.2669 22.0296Z" fill="black" fill-opacity="0.2"/>
<path d="M31.4041 21.243C30.6461 18.9404 29.5781 16.5718 28.223 14.2147C27.043 12.1562 25.9979 10.6058 24.9414 9.32247C24.2179 8.3492 23.3853 7.36438 22.3288 6.2332C21.8723 5.73652 21.3957 5.24849 20.9823 4.8408C20.4483 4.29818 19.8942 3.75559 19.3487 3.22445C18.8606 2.75935 18.3697 2.29417 17.8816 1.82907L17.4796 1.4645C17.4366 1.41856 17.3907 1.36396 17.3361 1.32089C17.2012 1.17447 17.0691 1.05388 16.9255 1.01082C16.7475 0.964883 16.6241 1.06538 16.38 1.30942L16.3025 1.37548C16.024 1.63961 15.7341 1.90664 15.4556 2.17077L15.3005 2.3057C14.577 2.95743 13.8565 3.65511 13.133 4.37573C12.82 4.6858 12.5214 5.00447 12.2199 5.32602C11.8984 5.68203 11.5768 6.03518 11.2409 6.36822L11.1405 6.48878C10.3739 7.36444 9.57283 8.28318 8.82924 9.29952L8.41876 9.86508C8.03978 10.3733 7.63781 10.9158 7.23874 11.4929L7.2043 11.5475C7.18421 11.5819 7.14969 11.648 7.08365 11.7026C6.97168 11.8145 6.87126 11.9896 6.78225 12.1562C6.7277 12.2337 6.68172 12.3227 6.62717 12.3887C6.46065 12.6557 6.29419 12.9083 6.12767 13.1753C5.78315 13.7179 5.45872 14.2807 5.13717 14.8348C4.46822 16.0291 3.86819 17.2494 3.35715 18.4322C2.25755 21.0334 1.55697 23.468 1.22106 25.8596C1.07751 26.9333 1 28.007 1 29.0578C1 32.3251 1.71199 35.7013 3.11305 39.0891L3.136 39.1868C3.136 39.1983 3.13605 39.2097 3.17911 39.2758L3.2365 39.3648C4.21265 41.7449 5.51613 44.1364 7.10381 46.4821L7.2043 46.5825L7.49423 46.9816C7.93923 47.6219 8.36127 48.2305 8.81776 48.7846C10.3078 50.7111 11.9415 52.56 13.6985 54.297C14.6 55.1813 15.5245 56.0224 16.4346 56.7976C16.6126 56.9526 16.7676 57.0101 16.9341 56.9986C17.1581 56.9756 17.3476 56.7977 17.5371 56.6225L17.6806 56.4876C17.9247 56.278 18.1687 56.0684 18.4042 55.8473C19.1162 55.1927 19.8367 54.4951 20.5487 53.7774C21.1172 53.2003 21.7948 52.5025 22.4407 51.7618C23.2188 50.8661 26.0094 47.3692 26.5549 46.594C27.4679 45.2647 28.3551 43.7603 29.202 42.1209C29.5896 41.3687 29.9456 40.5936 30.2786 39.8185C31.4156 37.1283 32.1362 34.6592 32.4721 32.2705C32.6157 31.1852 32.6932 30.1 32.6932 29.0578C32.6932 26.5141 32.2596 23.89 31.4041 21.243ZM27.29 15.1994C28.0881 16.5718 28.6336 17.6685 29.0786 18.7538L29.1561 18.9404L26.977 20.6917L26.7215 14.2377L27.29 15.1994ZM22.2513 8.10513L22.6188 8.53577C23.2188 9.26787 23.8418 10.0086 24.4648 10.8613L24.7749 11.3035H21.5737L22.2513 8.10513ZM25.3634 12.5667L25.6879 21.1108L22.0847 20.1032L21.4273 12.5667H25.3634ZM23.6064 26.9218L22.3948 21.4985L25.5329 22.3741L23.6064 26.9218ZM23.6179 31.1738L25.4639 35.733L22.3288 36.6086L23.6179 31.1738ZM19.2482 4.82932C19.5381 5.13939 19.8483 5.46953 20.1612 5.80257C20.4713 6.12412 20.7842 6.44573 21.0828 6.7759L21.1833 6.87631L20.5947 9.68705L18.2261 3.69811L19.2482 4.82932ZM20.7153 19.2734L17.6806 16.9709L20.2387 13.629L20.7153 19.2734ZM16.7906 3.52296L20.0378 11.8576L16.7791 16.0292L13.532 11.803L16.7906 3.52296ZM15.8891 16.9709L12.8544 19.2734L13.3339 13.629L15.8891 16.9709ZM12.4209 6.89935C13.0324 6.16724 13.7215 5.49256 14.3216 4.88391L15.246 3.97664L12.9979 9.84213L12.3319 7.00843L12.4209 6.89935ZM12.6305 20.8783L16.7906 17.7805L20.9392 20.8783L22.8083 28.9918L20.9392 37.1053L16.7906 40.206L12.6305 37.1053L10.7643 28.9918L12.6305 20.8783ZM20.7153 38.8337L20.2387 44.4781L17.6806 41.1477L20.7153 38.8337ZM15.8231 41.1362L13.3425 44.4896L12.7769 38.8337L15.8231 41.1362ZM11.1749 36.6086L8.03973 35.733L9.89729 31.1738L11.1749 36.6086ZM8.10579 22.3741L11.2409 21.4985L9.95187 26.9333L8.10579 22.3741ZM9.45228 10.4192C9.94035 9.78755 10.3968 9.20187 10.8964 8.60183L11.2409 8.18267L12.0103 11.3035H8.77185L9.45228 10.4192ZM8.1517 12.5667H12.1425L11.4879 20.1032L7.88473 21.1108L8.1517 12.5667ZM4.37919 18.9317C4.97062 17.5479 5.70272 16.1842 6.28266 15.1449L6.84823 14.1257L6.60422 20.7778L4.29018 19.1298L4.37919 18.9317ZM2.40108 26.1696C2.5676 24.5302 2.98965 22.7502 3.69018 20.7117L3.81363 20.3701L6.31429 22.0755L2.30058 27.1113L2.40108 26.1696ZM3.75905 37.6479C3.05852 35.733 2.57905 33.8065 2.33501 31.9374L2.21156 30.9642L6.30562 36.0775L3.89108 38.0154L3.75905 37.6479ZM6.28266 42.9076C5.48165 41.5353 4.93618 40.4385 4.49117 39.3533L4.41363 39.1667L6.59274 37.4154L6.84823 43.8694L6.28266 42.9076ZM7.02627 34.8803L2.32354 29.0578L7.02627 23.1694L9.38341 29.0578L7.02627 34.8803ZM11.3184 50.002L10.9539 49.5712C10.3509 48.8506 9.73078 48.0984 9.10777 47.2457L8.79481 46.8036H11.9989L11.3184 50.002ZM8.20629 45.5403L7.88473 37.0077L11.4879 38.0039L12.1425 45.5403H8.20629ZM14.3216 53.2778C14.0431 52.9677 13.7215 52.649 13.4114 52.3045C13.0985 51.9944 12.7884 51.6614 12.487 51.3427L12.3865 51.2307L12.9779 48.4315L15.3465 54.4176L14.3216 53.2778ZM16.7791 54.584L13.532 46.2495L16.7906 42.0779L20.0378 46.304L16.7791 54.584ZM21.1488 51.2077C20.5373 51.9398 19.8597 52.6145 19.2596 53.2117L18.3352 54.1304L20.5717 48.265L21.2378 51.0987L21.1488 51.2077ZM24.1089 47.6994C23.6294 48.3195 23.1729 48.9167 22.6848 49.5053L22.3288 49.9244L21.5622 46.8036H24.7979L24.1089 47.6994ZM25.4209 45.5403H21.4962L22.0847 38.0039L25.6879 37.0077L25.4209 45.5403ZM26.5435 34.9377L24.1863 29.0578L26.5435 23.2355L31.2462 29.0492L26.5435 34.9377ZM29.1905 39.1753C28.602 40.5591 27.867 41.9314 27.29 42.9621L26.7215 43.99L26.9655 37.3264L29.2796 38.9773L29.1905 39.1753ZM31.1687 31.9374C31.0021 33.5739 30.5801 35.3568 29.8796 37.4067L29.7561 37.7484L27.2554 36.0316L31.2692 30.9957L31.1687 31.9374ZM27.2669 22.0296L29.6786 20.1032L29.8136 20.4592C30.5141 22.3741 30.9907 24.3005 31.2376 26.1696L31.3582 27.1429L27.2669 22.0296Z" fill="black" fill-opacity="0.2"/>
<path d="M31.4041 21.243C30.6461 18.9404 29.5781 16.5718 28.223 14.2147C27.043 12.1562 25.9979 10.6058 24.9414 9.32247C24.2179 8.3492 23.3853 7.36438 22.3288 6.2332C21.8723 5.73652 21.3957 5.24849 20.9823 4.8408C20.4483 4.29818 19.8942 3.75559 19.3487 3.22445C18.8606 2.75935 18.3697 2.29417 17.8816 1.82907L17.4796 1.4645C17.4366 1.41856 17.3907 1.36396 17.3361 1.32089C17.2012 1.17447 17.0691 1.05388 16.9255 1.01082C16.7475 0.964883 16.6241 1.06538 16.38 1.30942L16.3025 1.37548C16.024 1.63961 15.7341 1.90664 15.4556 2.17077L15.3005 2.3057C14.577 2.95743 13.8565 3.65511 13.133 4.37573C12.82 4.6858 12.5214 5.00447 12.2199 5.32602C11.8984 5.68203 11.5768 6.03518 11.2409 6.36822L11.1405 6.48878C10.3739 7.36444 9.57283 8.28318 8.82924 9.29952L8.41876 9.86508C8.03978 10.3733 7.63781 10.9158 7.23874 11.4929L7.2043 11.5475C7.18421 11.5819 7.14969 11.648 7.08365 11.7026C6.97168 11.8145 6.87126 11.9896 6.78225 12.1562C6.7277 12.2337 6.68172 12.3227 6.62717 12.3887C6.46065 12.6557 6.29419 12.9083 6.12767 13.1753C5.78315 13.7179 5.45872 14.2807 5.13717 14.8348C4.46822 16.0291 3.86819 17.2494 3.35715 18.4322C2.25755 21.0334 1.55697 23.468 1.22106 25.8596C1.07751 26.9333 1 28.007 1 29.0578C1 32.3251 1.71199 35.7013 3.11305 39.0891L3.136 39.1868C3.136 39.1983 3.13605 39.2097 3.17911 39.2758L3.2365 39.3648C4.21265 41.7449 5.51613 44.1364 7.10381 46.4821L7.2043 46.5825L7.49423 46.9816C7.93923 47.6219 8.36127 48.2305 8.81776 48.7846C10.3078 50.7111 11.9415 52.56 13.6985 54.297C14.6 55.1813 15.5245 56.0224 16.4346 56.7976C16.6126 56.9526 16.7676 57.0101 16.9341 56.9986C17.1581 56.9756 17.3476 56.7977 17.5371 56.6225L17.6806 56.4876C17.9247 56.278 18.1687 56.0684 18.4042 55.8473C19.1162 55.1927 19.8367 54.4951 20.5487 53.7774C21.1172 53.2003 21.7948 52.5025 22.4407 51.7618C23.2188 50.8661 26.0094 47.3692 26.5549 46.594C27.4679 45.2647 28.3551 43.7603 29.202 42.1209C29.5896 41.3687 29.9456 40.5936 30.2786 39.8185C31.4156 37.1283 32.1362 34.6592 32.4721 32.2705C32.6157 31.1852 32.6932 30.1 32.6932 29.0578C32.6932 26.5141 32.2596 23.89 31.4041 21.243ZM27.29 15.1994C28.0881 16.5718 28.6336 17.6685 29.0786 18.7538L29.1561 18.9404L26.977 20.6917L26.7215 14.2377L27.29 15.1994ZM22.2513 8.10513L22.6188 8.53577C23.2188 9.26787 23.8418 10.0086 24.4648 10.8613L24.7749 11.3035H21.5737L22.2513 8.10513ZM25.3634 12.5667L25.6879 21.1108L22.0847 20.1032L21.4273 12.5667H25.3634ZM23.6064 26.9218L22.3948 21.4985L25.5329 22.3741L23.6064 26.9218ZM23.6179 31.1738L25.4639 35.733L22.3288 36.6086L23.6179 31.1738ZM19.2482 4.82932C19.5381 5.13939 19.8483 5.46953 20.1612 5.80257C20.4713 6.12412 20.7842 6.44573 21.0828 6.7759L21.1833 6.87631L20.5947 9.68705L18.2261 3.69811L19.2482 4.82932ZM20.7153 19.2734L17.6806 16.9709L20.2387 13.629L20.7153 19.2734ZM16.7906 3.52296L20.0378 11.8576L16.7791 16.0292L13.532 11.803L16.7906 3.52296ZM15.8891 16.9709L12.8544 19.2734L13.3339 13.629L15.8891 16.9709ZM12.4209 6.89935C13.0324 6.16724 13.7215 5.49256 14.3216 4.88391L15.246 3.97664L12.9979 9.84213L12.3319 7.00843L12.4209 6.89935ZM12.6305 20.8783L16.7906 17.7805L20.9392 20.8783L22.8083 28.9918L20.9392 37.1053L16.7906 40.206L12.6305 37.1053L10.7643 28.9918L12.6305 20.8783ZM20.7153 38.8337L20.2387 44.4781L17.6806 41.1477L20.7153 38.8337ZM15.8231 41.1362L13.3425 44.4896L12.7769 38.8337L15.8231 41.1362ZM11.1749 36.6086L8.03973 35.733L9.89729 31.1738L11.1749 36.6086ZM8.10579 22.3741L11.2409 21.4985L9.95187 26.9333L8.10579 22.3741ZM9.45228 10.4192C9.94035 9.78755 10.3968 9.20187 10.8964 8.60183L11.2409 8.18267L12.0103 11.3035H8.77185L9.45228 10.4192ZM8.1517 12.5667H12.1425L11.4879 20.1032L7.88473 21.1108L8.1517 12.5667ZM4.37919 18.9317C4.97062 17.5479 5.70272 16.1842 6.28266 15.1449L6.84823 14.1257L6.60422 20.7778L4.29018 19.1298L4.37919 18.9317ZM2.40108 26.1696C2.5676 24.5302 2.98965 22.7502 3.69018 20.7117L3.81363 20.3701L6.31429 22.0755L2.30058 27.1113L2.40108 26.1696ZM3.75905 37.6479C3.05852 35.733 2.57905 33.8065 2.33501 31.9374L2.21156 30.9642L6.30562 36.0775L3.89108 38.0154L3.75905 37.6479ZM6.28266 42.9076C5.48165 41.5353 4.93618 40.4385 4.49117 39.3533L4.41363 39.1667L6.59274 37.4154L6.84823 43.8694L6.28266 42.9076ZM7.02627 34.8803L2.32354 29.0578L7.02627 23.1694L9.38341 29.0578L7.02627 34.8803ZM11.3184 50.002L10.9539 49.5712C10.3509 48.8506 9.73078 48.0984 9.10777 47.2457L8.79481 46.8036H11.9989L11.3184 50.002ZM8.20629 45.5403L7.88473 37.0077L11.4879 38.0039L12.1425 45.5403H8.20629ZM14.3216 53.2778C14.0431 52.9677 13.7215 52.649 13.4114 52.3045C13.0985 51.9944 12.7884 51.6614 12.487 51.3427L12.3865 51.2307L12.9779 48.4315L15.3465 54.4176L14.3216 53.2778ZM16.7791 54.584L13.532 46.2495L16.7906 42.0779L20.0378 46.304L16.7791 54.584ZM21.1488 51.2077C20.5373 51.9398 19.8597 52.6145 19.2596 53.2117L18.3352 54.1304L20.5717 48.265L21.2378 51.0987L21.1488 51.2077ZM24.1089 47.6994C23.6294 48.3195 23.1729 48.9167 22.6848 49.5053L22.3288 49.9244L21.5622 46.8036H24.7979L24.1089 47.6994ZM25.4209 45.5403H21.4962L22.0847 38.0039L25.6879 37.0077L25.4209 45.5403ZM26.5435 34.9377L24.1863 29.0578L26.5435 23.2355L31.2462 29.0492L26.5435 34.9377ZM29.1905 39.1753C28.602 40.5591 27.867 41.9314 27.29 42.9621L26.7215 43.99L26.9655 37.3264L29.2796 38.9773L29.1905 39.1753ZM31.1687 31.9374C31.0021 33.5739 30.5801 35.3568 29.8796 37.4067L29.7561 37.7484L27.2554 36.0316L31.2692 30.9957L31.1687 31.9374ZM27.2669 22.0296L29.6786 20.1032L29.8136 20.4592C30.5141 22.3741 30.9907 24.3005 31.2376 26.1696L31.3582 27.1429L27.2669 22.0296Z" fill="black" fill-opacity="0.2"/>
<path d="M31.4041 21.243C30.6461 18.9404 29.5781 16.5718 28.223 14.2147C27.043 12.1562 25.9979 10.6058 24.9414 9.32247C24.2179 8.3492 23.3853 7.36438 22.3288 6.2332C21.8723 5.73652 21.3957 5.24849 20.9823 4.8408C20.4483 4.29818 19.8942 3.75559 19.3487 3.22445C18.8606 2.75935 18.3697 2.29417 17.8816 1.82907L17.4796 1.4645C17.4366 1.41856 17.3907 1.36396 17.3361 1.32089C17.2012 1.17447 17.0691 1.05388 16.9255 1.01082C16.7475 0.964883 16.6241 1.06538 16.38 1.30942L16.3025 1.37548C16.024 1.63961 15.7341 1.90664 15.4556 2.17077L15.3005 2.3057C14.577 2.95743 13.8565 3.65511 13.133 4.37573C12.82 4.6858 12.5214 5.00447 12.2199 5.32602C11.8984 5.68203 11.5768 6.03518 11.2409 6.36822L11.1405 6.48878C10.3739 7.36444 9.57283 8.28318 8.82924 9.29952L8.41876 9.86508C8.03978 10.3733 7.63781 10.9158 7.23874 11.4929L7.2043 11.5475C7.18421 11.5819 7.14969 11.648 7.08365 11.7026C6.97168 11.8145 6.87126 11.9896 6.78225 12.1562C6.7277 12.2337 6.68172 12.3227 6.62717 12.3887C6.46065 12.6557 6.29419 12.9083 6.12767 13.1753C5.78315 13.7179 5.45872 14.2807 5.13717 14.8348C4.46822 16.0291 3.86819 17.2494 3.35715 18.4322C2.25755 21.0334 1.55697 23.468 1.22106 25.8596C1.07751 26.9333 1 28.007 1 29.0578C1 32.3251 1.71199 35.7013 3.11305 39.0891L3.136 39.1868C3.136 39.1983 3.13605 39.2097 3.17911 39.2758L3.2365 39.3648C4.21265 41.7449 5.51613 44.1364 7.10381 46.4821L7.2043 46.5825L7.49423 46.9816C7.93923 47.6219 8.36127 48.2305 8.81776 48.7846C10.3078 50.7111 11.9415 52.56 13.6985 54.297C14.6 55.1813 15.5245 56.0224 16.4346 56.7976C16.6126 56.9526 16.7676 57.0101 16.9341 56.9986C17.1581 56.9756 17.3476 56.7977 17.5371 56.6225L17.6806 56.4876C17.9247 56.278 18.1687 56.0684 18.4042 55.8473C19.1162 55.1927 19.8367 54.4951 20.5487 53.7774C21.1172 53.2003 21.7948 52.5025 22.4407 51.7618C23.2188 50.8661 26.0094 47.3692 26.5549 46.594C27.4679 45.2647 28.3551 43.7603 29.202 42.1209C29.5896 41.3687 29.9456 40.5936 30.2786 39.8185C31.4156 37.1283 32.1362 34.6592 32.4721 32.2705C32.6157 31.1852 32.6932 30.1 32.6932 29.0578C32.6932 26.5141 32.2596 23.89 31.4041 21.243ZM27.29 15.1994C28.0881 16.5718 28.6336 17.6685 29.0786 18.7538L29.1561 18.9404L26.977 20.6917L26.7215 14.2377L27.29 15.1994ZM22.2513 8.10513L22.6188 8.53577C23.2188 9.26787 23.8418 10.0086 24.4648 10.8613L24.7749 11.3035H21.5737L22.2513 8.10513ZM25.3634 12.5667L25.6879 21.1108L22.0847 20.1032L21.4273 12.5667H25.3634ZM23.6064 26.9218L22.3948 21.4985L25.5329 22.3741L23.6064 26.9218ZM23.6179 31.1738L25.4639 35.733L22.3288 36.6086L23.6179 31.1738ZM19.2482 4.82932C19.5381 5.13939 19.8483 5.46953 20.1612 5.80257C20.4713 6.12412 20.7842 6.44573 21.0828 6.7759L21.1833 6.87631L20.5947 9.68705L18.2261 3.69811L19.2482 4.82932ZM20.7153 19.2734L17.6806 16.9709L20.2387 13.629L20.7153 19.2734ZM16.7906 3.52296L20.0378 11.8576L16.7791 16.0292L13.532 11.803L16.7906 3.52296ZM15.8891 16.9709L12.8544 19.2734L13.3339 13.629L15.8891 16.9709ZM12.4209 6.89935C13.0324 6.16724 13.7215 5.49256 14.3216 4.88391L15.246 3.97664L12.9979 9.84213L12.3319 7.00843L12.4209 6.89935ZM12.6305 20.8783L16.7906 17.7805L20.9392 20.8783L22.8083 28.9918L20.9392 37.1053L16.7906 40.206L12.6305 37.1053L10.7643 28.9918L12.6305 20.8783ZM20.7153 38.8337L20.2387 44.4781L17.6806 41.1477L20.7153 38.8337ZM15.8231 41.1362L13.3425 44.4896L12.7769 38.8337L15.8231 41.1362ZM11.1749 36.6086L8.03973 35.733L9.89729 31.1738L11.1749 36.6086ZM8.10579 22.3741L11.2409 21.4985L9.95187 26.9333L8.10579 22.3741ZM9.45228 10.4192C9.94035 9.78755 10.3968 9.20187 10.8964 8.60183L11.2409 8.18267L12.0103 11.3035H8.77185L9.45228 10.4192ZM8.1517 12.5667H12.1425L11.4879 20.1032L7.88473 21.1108L8.1517 12.5667ZM4.37919 18.9317C4.97062 17.5479 5.70272 16.1842 6.28266 15.1449L6.84823 14.1257L6.60422 20.7778L4.29018 19.1298L4.37919 18.9317ZM2.40108 26.1696C2.5676 24.5302 2.98965 22.7502 3.69018 20.7117L3.81363 20.3701L6.31429 22.0755L2.30058 27.1113L2.40108 26.1696ZM3.75905 37.6479C3.05852 35.733 2.57905 33.8065 2.33501 31.9374L2.21156 30.9642L6.30562 36.0775L3.89108 38.0154L3.75905 37.6479ZM6.28266 42.9076C5.48165 41.5353 4.93618 40.4385 4.49117 39.3533L4.41363 39.1667L6.59274 37.4154L6.84823 43.8694L6.28266 42.9076ZM7.02627 34.8803L2.32354 29.0578L7.02627 23.1694L9.38341 29.0578L7.02627 34.8803ZM11.3184 50.002L10.9539 49.5712C10.3509 48.8506 9.73078 48.0984 9.10777 47.2457L8.79481 46.8036H11.9989L11.3184 50.002ZM8.20629 45.5403L7.88473 37.0077L11.4879 38.0039L12.1425 45.5403H8.20629ZM14.3216 53.2778C14.0431 52.9677 13.7215 52.649 13.4114 52.3045C13.0985 51.9944 12.7884 51.6614 12.487 51.3427L12.3865 51.2307L12.9779 48.4315L15.3465 54.4176L14.3216 53.2778ZM16.7791 54.584L13.532 46.2495L16.7906 42.0779L20.0378 46.304L16.7791 54.584ZM21.1488 51.2077C20.5373 51.9398 19.8597 52.6145 19.2596 53.2117L18.3352 54.1304L20.5717 48.265L21.2378 51.0987L21.1488 51.2077ZM24.1089 47.6994C23.6294 48.3195 23.1729 48.9167 22.6848 49.5053L22.3288 49.9244L21.5622 46.8036H24.7979L24.1089 47.6994ZM25.4209 45.5403H21.4962L22.0847 38.0039L25.6879 37.0077L25.4209 45.5403ZM26.5435 34.9377L24.1863 29.0578L26.5435 23.2355L31.2462 29.0492L26.5435 34.9377ZM29.1905 39.1753C28.602 40.5591 27.867 41.9314 27.29 42.9621L26.7215 43.99L26.9655 37.3264L29.2796 38.9773L29.1905 39.1753ZM31.1687 31.9374C31.0021 33.5739 30.5801 35.3568 29.8796 37.4067L29.7561 37.7484L27.2554 36.0316L31.2692 30.9957L31.1687 31.9374ZM27.2669 22.0296L29.6786 20.1032L29.8136 20.4592C30.5141 22.3741 30.9907 24.3005 31.2376 26.1696L31.3582 27.1429L27.2669 22.0296Z" stroke="#333335" stroke-width="0.22"/>
<path d="M31.4041 21.243C30.6461 18.9404 29.5781 16.5718 28.223 14.2147C27.043 12.1562 25.9979 10.6058 24.9414 9.32247C24.2179 8.3492 23.3853 7.36438 22.3288 6.2332C21.8723 5.73652 21.3957 5.24849 20.9823 4.8408C20.4483 4.29818 19.8942 3.75559 19.3487 3.22445C18.8606 2.75935 18.3697 2.29417 17.8816 1.82907L17.4796 1.4645C17.4366 1.41856 17.3907 1.36396 17.3361 1.32089C17.2012 1.17447 17.0691 1.05388 16.9255 1.01082C16.7475 0.964883 16.6241 1.06538 16.38 1.30942L16.3025 1.37548C16.024 1.63961 15.7341 1.90664 15.4556 2.17077L15.3005 2.3057C14.577 2.95743 13.8565 3.65511 13.133 4.37573C12.82 4.6858 12.5214 5.00447 12.2199 5.32602C11.8984 5.68203 11.5768 6.03518 11.2409 6.36822L11.1405 6.48878C10.3739 7.36444 9.57283 8.28318 8.82924 9.29952L8.41876 9.86508C8.03978 10.3733 7.63781 10.9158 7.23874 11.4929L7.2043 11.5475C7.18421 11.5819 7.14969 11.648 7.08365 11.7026C6.97168 11.8145 6.87126 11.9896 6.78225 12.1562C6.7277 12.2337 6.68172 12.3227 6.62717 12.3887C6.46065 12.6557 6.29419 12.9083 6.12767 13.1753C5.78315 13.7179 5.45872 14.2807 5.13717 14.8348C4.46822 16.0291 3.86819 17.2494 3.35715 18.4322C2.25755 21.0334 1.55697 23.468 1.22106 25.8596C1.07751 26.9333 1 28.007 1 29.0578C1 32.3251 1.71199 35.7013 3.11305 39.0891L3.136 39.1868C3.136 39.1983 3.13605 39.2097 3.17911 39.2758L3.2365 39.3648C4.21265 41.7449 5.51613 44.1364 7.10381 46.4821L7.2043 46.5825L7.49423 46.9816C7.93923 47.6219 8.36127 48.2305 8.81776 48.7846C10.3078 50.7111 11.9415 52.56 13.6985 54.297C14.6 55.1813 15.5245 56.0224 16.4346 56.7976C16.6126 56.9526 16.7676 57.0101 16.9341 56.9986C17.1581 56.9756 17.3476 56.7977 17.5371 56.6225L17.6806 56.4876C17.9247 56.278 18.1687 56.0684 18.4042 55.8473C19.1162 55.1927 19.8367 54.4951 20.5487 53.7774C21.1172 53.2003 21.7948 52.5025 22.4407 51.7618C23.2188 50.8661 26.0094 47.3692 26.5549 46.594C27.4679 45.2647 28.3551 43.7603 29.202 42.1209C29.5896 41.3687 29.9456 40.5936 30.2786 39.8185C31.4156 37.1283 32.1362 34.6592 32.4721 32.2705C32.6157 31.1852 32.6932 30.1 32.6932 29.0578C32.6932 26.5141 32.2596 23.89 31.4041 21.243ZM27.29 15.1994C28.0881 16.5718 28.6336 17.6685 29.0786 18.7538L29.1561 18.9404L26.977 20.6917L26.7215 14.2377L27.29 15.1994ZM22.2513 8.10513L22.6188 8.53577C23.2188 9.26787 23.8418 10.0086 24.4648 10.8613L24.7749 11.3035H21.5737L22.2513 8.10513ZM25.3634 12.5667L25.6879 21.1108L22.0847 20.1032L21.4273 12.5667H25.3634ZM23.6064 26.9218L22.3948 21.4985L25.5329 22.3741L23.6064 26.9218ZM23.6179 31.1738L25.4639 35.733L22.3288 36.6086L23.6179 31.1738ZM19.2482 4.82932C19.5381 5.13939 19.8483 5.46953 20.1612 5.80257C20.4713 6.12412 20.7842 6.44573 21.0828 6.7759L21.1833 6.87631L20.5947 9.68705L18.2261 3.69811L19.2482 4.82932ZM20.7153 19.2734L17.6806 16.9709L20.2387 13.629L20.7153 19.2734ZM16.7906 3.52296L20.0378 11.8576L16.7791 16.0292L13.532 11.803L16.7906 3.52296ZM15.8891 16.9709L12.8544 19.2734L13.3339 13.629L15.8891 16.9709ZM12.4209 6.89935C13.0324 6.16724 13.7215 5.49256 14.3216 4.88391L15.246 3.97664L12.9979 9.84213L12.3319 7.00843L12.4209 6.89935ZM12.6305 20.8783L16.7906 17.7805L20.9392 20.8783L22.8083 28.9918L20.9392 37.1053L16.7906 40.206L12.6305 37.1053L10.7643 28.9918L12.6305 20.8783ZM20.7153 38.8337L20.2387 44.4781L17.6806 41.1477L20.7153 38.8337ZM15.8231 41.1362L13.3425 44.4896L12.7769 38.8337L15.8231 41.1362ZM11.1749 36.6086L8.03973 35.733L9.89729 31.1738L11.1749 36.6086ZM8.10579 22.3741L11.2409 21.4985L9.95187 26.9333L8.10579 22.3741ZM9.45228 10.4192C9.94035 9.78755 10.3968 9.20187 10.8964 8.60183L11.2409 8.18267L12.0103 11.3035H8.77185L9.45228 10.4192ZM8.1517 12.5667H12.1425L11.4879 20.1032L7.88473 21.1108L8.1517 12.5667ZM4.37919 18.9317C4.97062 17.5479 5.70272 16.1842 6.28266 15.1449L6.84823 14.1257L6.60422 20.7778L4.29018 19.1298L4.37919 18.9317ZM2.40108 26.1696C2.5676 24.5302 2.98965 22.7502 3.69018 20.7117L3.81363 20.3701L6.31429 22.0755L2.30058 27.1113L2.40108 26.1696ZM3.75905 37.6479C3.05852 35.733 2.57905 33.8065 2.33501 31.9374L2.21156 30.9642L6.30562 36.0775L3.89108 38.0154L3.75905 37.6479ZM6.28266 42.9076C5.48165 41.5353 4.93618 40.4385 4.49117 39.3533L4.41363 39.1667L6.59274 37.4154L6.84823 43.8694L6.28266 42.9076ZM7.02627 34.8803L2.32354 29.0578L7.02627 23.1694L9.38341 29.0578L7.02627 34.8803ZM11.3184 50.002L10.9539 49.5712C10.3509 48.8506 9.73078 48.0984 9.10777 47.2457L8.79481 46.8036H11.9989L11.3184 50.002ZM8.20629 45.5403L7.88473 37.0077L11.4879 38.0039L12.1425 45.5403H8.20629ZM14.3216 53.2778C14.0431 52.9677 13.7215 52.649 13.4114 52.3045C13.0985 51.9944 12.7884 51.6614 12.487 51.3427L12.3865 51.2307L12.9779 48.4315L15.3465 54.4176L14.3216 53.2778ZM16.7791 54.584L13.532 46.2495L16.7906 42.0779L20.0378 46.304L16.7791 54.584ZM21.1488 51.2077C20.5373 51.9398 19.8597 52.6145 19.2596 53.2117L18.3352 54.1304L20.5717 48.265L21.2378 51.0987L21.1488 51.2077ZM24.1089 47.6994C23.6294 48.3195 23.1729 48.9167 22.6848 49.5053L22.3288 49.9244L21.5622 46.8036H24.7979L24.1089 47.6994ZM25.4209 45.5403H21.4962L22.0847 38.0039L25.6879 37.0077L25.4209 45.5403ZM26.5435 34.9377L24.1863 29.0578L26.5435 23.2355L31.2462 29.0492L26.5435 34.9377ZM29.1905 39.1753C28.602 40.5591 27.867 41.9314 27.29 42.9621L26.7215 43.99L26.9655 37.3264L29.2796 38.9773L29.1905 39.1753ZM31.1687 31.9374C31.0021 33.5739 30.5801 35.3568 29.8796 37.4067L29.7561 37.7484L27.2554 36.0316L31.2692 30.9957L31.1687 31.9374ZM27.2669 22.0296L29.6786 20.1032L29.8136 20.4592C30.5141 22.3741 30.9907 24.3005 31.2376 26.1696L31.3582 27.1429L27.2669 22.0296Z" stroke="black" stroke-opacity="0.2" stroke-width="0.22"/>
<path d="M31.4041 21.243C30.6461 18.9404 29.5781 16.5718 28.223 14.2147C27.043 12.1562 25.9979 10.6058 24.9414 9.32247C24.2179 8.3492 23.3853 7.36438 22.3288 6.2332C21.8723 5.73652 21.3957 5.24849 20.9823 4.8408C20.4483 4.29818 19.8942 3.75559 19.3487 3.22445C18.8606 2.75935 18.3697 2.29417 17.8816 1.82907L17.4796 1.4645C17.4366 1.41856 17.3907 1.36396 17.3361 1.32089C17.2012 1.17447 17.0691 1.05388 16.9255 1.01082C16.7475 0.964883 16.6241 1.06538 16.38 1.30942L16.3025 1.37548C16.024 1.63961 15.7341 1.90664 15.4556 2.17077L15.3005 2.3057C14.577 2.95743 13.8565 3.65511 13.133 4.37573C12.82 4.6858 12.5214 5.00447 12.2199 5.32602C11.8984 5.68203 11.5768 6.03518 11.2409 6.36822L11.1405 6.48878C10.3739 7.36444 9.57283 8.28318 8.82924 9.29952L8.41876 9.86508C8.03978 10.3733 7.63781 10.9158 7.23874 11.4929L7.2043 11.5475C7.18421 11.5819 7.14969 11.648 7.08365 11.7026C6.97168 11.8145 6.87126 11.9896 6.78225 12.1562C6.7277 12.2337 6.68172 12.3227 6.62717 12.3887C6.46065 12.6557 6.29419 12.9083 6.12767 13.1753C5.78315 13.7179 5.45872 14.2807 5.13717 14.8348C4.46822 16.0291 3.86819 17.2494 3.35715 18.4322C2.25755 21.0334 1.55697 23.468 1.22106 25.8596C1.07751 26.9333 1 28.007 1 29.0578C1 32.3251 1.71199 35.7013 3.11305 39.0891L3.136 39.1868C3.136 39.1983 3.13605 39.2097 3.17911 39.2758L3.2365 39.3648C4.21265 41.7449 5.51613 44.1364 7.10381 46.4821L7.2043 46.5825L7.49423 46.9816C7.93923 47.6219 8.36127 48.2305 8.81776 48.7846C10.3078 50.7111 11.9415 52.56 13.6985 54.297C14.6 55.1813 15.5245 56.0224 16.4346 56.7976C16.6126 56.9526 16.7676 57.0101 16.9341 56.9986C17.1581 56.9756 17.3476 56.7977 17.5371 56.6225L17.6806 56.4876C17.9247 56.278 18.1687 56.0684 18.4042 55.8473C19.1162 55.1927 19.8367 54.4951 20.5487 53.7774C21.1172 53.2003 21.7948 52.5025 22.4407 51.7618C23.2188 50.8661 26.0094 47.3692 26.5549 46.594C27.4679 45.2647 28.3551 43.7603 29.202 42.1209C29.5896 41.3687 29.9456 40.5936 30.2786 39.8185C31.4156 37.1283 32.1362 34.6592 32.4721 32.2705C32.6157 31.1852 32.6932 30.1 32.6932 29.0578C32.6932 26.5141 32.2596 23.89 31.4041 21.243ZM27.29 15.1994C28.0881 16.5718 28.6336 17.6685 29.0786 18.7538L29.1561 18.9404L26.977 20.6917L26.7215 14.2377L27.29 15.1994ZM22.2513 8.10513L22.6188 8.53577C23.2188 9.26787 23.8418 10.0086 24.4648 10.8613L24.7749 11.3035H21.5737L22.2513 8.10513ZM25.3634 12.5667L25.6879 21.1108L22.0847 20.1032L21.4273 12.5667H25.3634ZM23.6064 26.9218L22.3948 21.4985L25.5329 22.3741L23.6064 26.9218ZM23.6179 31.1738L25.4639 35.733L22.3288 36.6086L23.6179 31.1738ZM19.2482 4.82932C19.5381 5.13939 19.8483 5.46953 20.1612 5.80257C20.4713 6.12412 20.7842 6.44573 21.0828 6.7759L21.1833 6.87631L20.5947 9.68705L18.2261 3.69811L19.2482 4.82932ZM20.7153 19.2734L17.6806 16.9709L20.2387 13.629L20.7153 19.2734ZM16.7906 3.52296L20.0378 11.8576L16.7791 16.0292L13.532 11.803L16.7906 3.52296ZM15.8891 16.9709L12.8544 19.2734L13.3339 13.629L15.8891 16.9709ZM12.4209 6.89935C13.0324 6.16724 13.7215 5.49256 14.3216 4.88391L15.246 3.97664L12.9979 9.84213L12.3319 7.00843L12.4209 6.89935ZM12.6305 20.8783L16.7906 17.7805L20.9392 20.8783L22.8083 28.9918L20.9392 37.1053L16.7906 40.206L12.6305 37.1053L10.7643 28.9918L12.6305 20.8783ZM20.7153 38.8337L20.2387 44.4781L17.6806 41.1477L20.7153 38.8337ZM15.8231 41.1362L13.3425 44.4896L12.7769 38.8337L15.8231 41.1362ZM11.1749 36.6086L8.03973 35.733L9.89729 31.1738L11.1749 36.6086ZM8.10579 22.3741L11.2409 21.4985L9.95187 26.9333L8.10579 22.3741ZM9.45228 10.4192C9.94035 9.78755 10.3968 9.20187 10.8964 8.60183L11.2409 8.18267L12.0103 11.3035H8.77185L9.45228 10.4192ZM8.1517 12.5667H12.1425L11.4879 20.1032L7.88473 21.1108L8.1517 12.5667ZM4.37919 18.9317C4.97062 17.5479 5.70272 16.1842 6.28266 15.1449L6.84823 14.1257L6.60422 20.7778L4.29018 19.1298L4.37919 18.9317ZM2.40108 26.1696C2.5676 24.5302 2.98965 22.7502 3.69018 20.7117L3.81363 20.3701L6.31429 22.0755L2.30058 27.1113L2.40108 26.1696ZM3.75905 37.6479C3.05852 35.733 2.57905 33.8065 2.33501 31.9374L2.21156 30.9642L6.30562 36.0775L3.89108 38.0154L3.75905 37.6479ZM6.28266 42.9076C5.48165 41.5353 4.93618 40.4385 4.49117 39.3533L4.41363 39.1667L6.59274 37.4154L6.84823 43.8694L6.28266 42.9076ZM7.02627 34.8803L2.32354 29.0578L7.02627 23.1694L9.38341 29.0578L7.02627 34.8803ZM11.3184 50.002L10.9539 49.5712C10.3509 48.8506 9.73078 48.0984 9.10777 47.2457L8.79481 46.8036H11.9989L11.3184 50.002ZM8.20629 45.5403L7.88473 37.0077L11.4879 38.0039L12.1425 45.5403H8.20629ZM14.3216 53.2778C14.0431 52.9677 13.7215 52.649 13.4114 52.3045C13.0985 51.9944 12.7884 51.6614 12.487 51.3427L12.3865 51.2307L12.9779 48.4315L15.3465 54.4176L14.3216 53.2778ZM16.7791 54.584L13.532 46.2495L16.7906 42.0779L20.0378 46.304L16.7791 54.584ZM21.1488 51.2077C20.5373 51.9398 19.8597 52.6145 19.2596 53.2117L18.3352 54.1304L20.5717 48.265L21.2378 51.0987L21.1488 51.2077ZM24.1089 47.6994C23.6294 48.3195 23.1729 48.9167 22.6848 49.5053L22.3288 49.9244L21.5622 46.8036H24.7979L24.1089 47.6994ZM25.4209 45.5403H21.4962L22.0847 38.0039L25.6879 37.0077L25.4209 45.5403ZM26.5435 34.9377L24.1863 29.0578L26.5435 23.2355L31.2462 29.0492L26.5435 34.9377ZM29.1905 39.1753C28.602 40.5591 27.867 41.9314 27.29 42.9621L26.7215 43.99L26.9655 37.3264L29.2796 38.9773L29.1905 39.1753ZM31.1687 31.9374C31.0021 33.5739 30.5801 35.3568 29.8796 37.4067L29.7561 37.7484L27.2554 36.0316L31.2692 30.9957L31.1687 31.9374ZM27.2669 22.0296L29.6786 20.1032L29.8136 20.4592C30.5141 22.3741 30.9907 24.3005 31.2376 26.1696L31.3582 27.1429L27.2669 22.0296Z" stroke="black" stroke-opacity="0.2" stroke-width="0.22"/>
<path d="M31.4041 21.243C30.6461 18.9404 29.5781 16.5718 28.223 14.2147C27.043 12.1562 25.9979 10.6058 24.9414 9.32247C24.2179 8.3492 23.3853 7.36438 22.3288 6.2332C21.8723 5.73652 21.3957 5.24849 20.9823 4.8408C20.4483 4.29818 19.8942 3.75559 19.3487 3.22445C18.8606 2.75935 18.3697 2.29417 17.8816 1.82907L17.4796 1.4645C17.4366 1.41856 17.3907 1.36396 17.3361 1.32089C17.2012 1.17447 17.0691 1.05388 16.9255 1.01082C16.7475 0.964883 16.6241 1.06538 16.38 1.30942L16.3025 1.37548C16.024 1.63961 15.7341 1.90664 15.4556 2.17077L15.3005 2.3057C14.577 2.95743 13.8565 3.65511 13.133 4.37573C12.82 4.6858 12.5214 5.00447 12.2199 5.32602C11.8984 5.68203 11.5768 6.03518 11.2409 6.36822L11.1405 6.48878C10.3739 7.36444 9.57283 8.28318 8.82924 9.29952L8.41876 9.86508C8.03978 10.3733 7.63781 10.9158 7.23874 11.4929L7.2043 11.5475C7.18421 11.5819 7.14969 11.648 7.08365 11.7026C6.97168 11.8145 6.87126 11.9896 6.78225 12.1562C6.7277 12.2337 6.68172 12.3227 6.62717 12.3887C6.46065 12.6557 6.29419 12.9083 6.12767 13.1753C5.78315 13.7179 5.45872 14.2807 5.13717 14.8348C4.46822 16.0291 3.86819 17.2494 3.35715 18.4322C2.25755 21.0334 1.55697 23.468 1.22106 25.8596C1.07751 26.9333 1 28.007 1 29.0578C1 32.3251 1.71199 35.7013 3.11305 39.0891L3.136 39.1868C3.136 39.1983 3.13605 39.2097 3.17911 39.2758L3.2365 39.3648C4.21265 41.7449 5.51613 44.1364 7.10381 46.4821L7.2043 46.5825L7.49423 46.9816C7.93923 47.6219 8.36127 48.2305 8.81776 48.7846C10.3078 50.7111 11.9415 52.56 13.6985 54.297C14.6 55.1813 15.5245 56.0224 16.4346 56.7976C16.6126 56.9526 16.7676 57.0101 16.9341 56.9986C17.1581 56.9756 17.3476 56.7977 17.5371 56.6225L17.6806 56.4876C17.9247 56.278 18.1687 56.0684 18.4042 55.8473C19.1162 55.1927 19.8367 54.4951 20.5487 53.7774C21.1172 53.2003 21.7948 52.5025 22.4407 51.7618C23.2188 50.8661 26.0094 47.3692 26.5549 46.594C27.4679 45.2647 28.3551 43.7603 29.202 42.1209C29.5896 41.3687 29.9456 40.5936 30.2786 39.8185C31.4156 37.1283 32.1362 34.6592 32.4721 32.2705C32.6157 31.1852 32.6932 30.1 32.6932 29.0578C32.6932 26.5141 32.2596 23.89 31.4041 21.243ZM27.29 15.1994C28.0881 16.5718 28.6336 17.6685 29.0786 18.7538L29.1561 18.9404L26.977 20.6917L26.7215 14.2377L27.29 15.1994ZM22.2513 8.10513L22.6188 8.53577C23.2188 9.26787 23.8418 10.0086 24.4648 10.8613L24.7749 11.3035H21.5737L22.2513 8.10513ZM25.3634 12.5667L25.6879 21.1108L22.0847 20.1032L21.4273 12.5667H25.3634ZM23.6064 26.9218L22.3948 21.4985L25.5329 22.3741L23.6064 26.9218ZM23.6179 31.1738L25.4639 35.733L22.3288 36.6086L23.6179 31.1738ZM19.2482 4.82932C19.5381 5.13939 19.8483 5.46953 20.1612 5.80257C20.4713 6.12412 20.7842 6.44573 21.0828 6.7759L21.1833 6.87631L20.5947 9.68705L18.2261 3.69811L19.2482 4.82932ZM20.7153 19.2734L17.6806 16.9709L20.2387 13.629L20.7153 19.2734ZM16.7906 3.52296L20.0378 11.8576L16.7791 16.0292L13.532 11.803L16.7906 3.52296ZM15.8891 16.9709L12.8544 19.2734L13.3339 13.629L15.8891 16.9709ZM12.4209 6.89935C13.0324 6.16724 13.7215 5.49256 14.3216 4.88391L15.246 3.97664L12.9979 9.84213L12.3319 7.00843L12.4209 6.89935ZM12.6305 20.8783L16.7906 17.7805L20.9392 20.8783L22.8083 28.9918L20.9392 37.1053L16.7906 40.206L12.6305 37.1053L10.7643 28.9918L12.6305 20.8783ZM20.7153 38.8337L20.2387 44.4781L17.6806 41.1477L20.7153 38.8337ZM15.8231 41.1362L13.3425 44.4896L12.7769 38.8337L15.8231 41.1362ZM11.1749 36.6086L8.03973 35.733L9.89729 31.1738L11.1749 36.6086ZM8.10579 22.3741L11.2409 21.4985L9.95187 26.9333L8.10579 22.3741ZM9.45228 10.4192C9.94035 9.78755 10.3968 9.20187 10.8964 8.60183L11.2409 8.18267L12.0103 11.3035H8.77185L9.45228 10.4192ZM8.1517 12.5667H12.1425L11.4879 20.1032L7.88473 21.1108L8.1517 12.5667ZM4.37919 18.9317C4.97062 17.5479 5.70272 16.1842 6.28266 15.1449L6.84823 14.1257L6.60422 20.7778L4.29018 19.1298L4.37919 18.9317ZM2.40108 26.1696C2.5676 24.5302 2.98965 22.7502 3.69018 20.7117L3.81363 20.3701L6.31429 22.0755L2.30058 27.1113L2.40108 26.1696ZM3.75905 37.6479C3.05852 35.733 2.57905 33.8065 2.33501 31.9374L2.21156 30.9642L6.30562 36.0775L3.89108 38.0154L3.75905 37.6479ZM6.28266 42.9076C5.48165 41.5353 4.93618 40.4385 4.49117 39.3533L4.41363 39.1667L6.59274 37.4154L6.84823 43.8694L6.28266 42.9076ZM7.02627 34.8803L2.32354 29.0578L7.02627 23.1694L9.38341 29.0578L7.02627 34.8803ZM11.3184 50.002L10.9539 49.5712C10.3509 48.8506 9.73078 48.0984 9.10777 47.2457L8.79481 46.8036H11.9989L11.3184 50.002ZM8.20629 45.5403L7.88473 37.0077L11.4879 38.0039L12.1425 45.5403H8.20629ZM14.3216 53.2778C14.0431 52.9677 13.7215 52.649 13.4114 52.3045C13.0985 51.9944 12.7884 51.6614 12.487 51.3427L12.3865 51.2307L12.9779 48.4315L15.3465 54.4176L14.3216 53.2778ZM16.7791 54.584L13.532 46.2495L16.7906 42.0779L20.0378 46.304L16.7791 54.584ZM21.1488 51.2077C20.5373 51.9398 19.8597 52.6145 19.2596 53.2117L18.3352 54.1304L20.5717 48.265L21.2378 51.0987L21.1488 51.2077ZM24.1089 47.6994C23.6294 48.3195 23.1729 48.9167 22.6848 49.5053L22.3288 49.9244L21.5622 46.8036H24.7979L24.1089 47.6994ZM25.4209 45.5403H21.4962L22.0847 38.0039L25.6879 37.0077L25.4209 45.5403ZM26.5435 34.9377L24.1863 29.0578L26.5435 23.2355L31.2462 29.0492L26.5435 34.9377ZM29.1905 39.1753C28.602 40.5591 27.867 41.9314 27.29 42.9621L26.7215 43.99L26.9655 37.3264L29.2796 38.9773L29.1905 39.1753ZM31.1687 31.9374C31.0021 33.5739 30.5801 35.3568 29.8796 37.4067L29.7561 37.7484L27.2554 36.0316L31.2692 30.9957L31.1687 31.9374ZM27.2669 22.0296L29.6786 20.1032L29.8136 20.4592C30.5141 22.3741 30.9907 24.3005 31.2376 26.1696L31.3582 27.1429L27.2669 22.0296Z" stroke="black" stroke-opacity="0.2" stroke-width="0.22"/>
<path d="M31.4041 21.243C30.6461 18.9404 29.5781 16.5718 28.223 14.2147C27.043 12.1562 25.9979 10.6058 24.9414 9.32247C24.2179 8.3492 23.3853 7.36438 22.3288 6.2332C21.8723 5.73652 21.3957 5.24849 20.9823 4.8408C20.4483 4.29818 19.8942 3.75559 19.3487 3.22445C18.8606 2.75935 18.3697 2.29417 17.8816 1.82907L17.4796 1.4645C17.4366 1.41856 17.3907 1.36396 17.3361 1.32089C17.2012 1.17447 17.0691 1.05388 16.9255 1.01082C16.7475 0.964883 16.6241 1.06538 16.38 1.30942L16.3025 1.37548C16.024 1.63961 15.7341 1.90664 15.4556 2.17077L15.3005 2.3057C14.577 2.95743 13.8565 3.65511 13.133 4.37573C12.82 4.6858 12.5214 5.00447 12.2199 5.32602C11.8984 5.68203 11.5768 6.03518 11.2409 6.36822L11.1405 6.48878C10.3739 7.36444 9.57283 8.28318 8.82924 9.29952L8.41876 9.86508C8.03978 10.3733 7.63781 10.9158 7.23874 11.4929L7.2043 11.5475C7.18421 11.5819 7.14969 11.648 7.08365 11.7026C6.97168 11.8145 6.87126 11.9896 6.78225 12.1562C6.7277 12.2337 6.68172 12.3227 6.62717 12.3887C6.46065 12.6557 6.29419 12.9083 6.12767 13.1753C5.78315 13.7179 5.45872 14.2807 5.13717 14.8348C4.46822 16.0291 3.86819 17.2494 3.35715 18.4322C2.25755 21.0334 1.55697 23.468 1.22106 25.8596C1.07751 26.9333 1 28.007 1 29.0578C1 32.3251 1.71199 35.7013 3.11305 39.0891L3.136 39.1868C3.136 39.1983 3.13605 39.2097 3.17911 39.2758L3.2365 39.3648C4.21265 41.7449 5.51613 44.1364 7.10381 46.4821L7.2043 46.5825L7.49423 46.9816C7.93923 47.6219 8.36127 48.2305 8.81776 48.7846C10.3078 50.7111 11.9415 52.56 13.6985 54.297C14.6 55.1813 15.5245 56.0224 16.4346 56.7976C16.6126 56.9526 16.7676 57.0101 16.9341 56.9986C17.1581 56.9756 17.3476 56.7977 17.5371 56.6225L17.6806 56.4876C17.9247 56.278 18.1687 56.0684 18.4042 55.8473C19.1162 55.1927 19.8367 54.4951 20.5487 53.7774C21.1172 53.2003 21.7948 52.5025 22.4407 51.7618C23.2188 50.8661 26.0094 47.3692 26.5549 46.594C27.4679 45.2647 28.3551 43.7603 29.202 42.1209C29.5896 41.3687 29.9456 40.5936 30.2786 39.8185C31.4156 37.1283 32.1362 34.6592 32.4721 32.2705C32.6157 31.1852 32.6932 30.1 32.6932 29.0578C32.6932 26.5141 32.2596 23.89 31.4041 21.243ZM27.29 15.1994C28.0881 16.5718 28.6336 17.6685 29.0786 18.7538L29.1561 18.9404L26.977 20.6917L26.7215 14.2377L27.29 15.1994ZM22.2513 8.10513L22.6188 8.53577C23.2188 9.26787 23.8418 10.0086 24.4648 10.8613L24.7749 11.3035H21.5737L22.2513 8.10513ZM25.3634 12.5667L25.6879 21.1108L22.0847 20.1032L21.4273 12.5667H25.3634ZM23.6064 26.9218L22.3948 21.4985L25.5329 22.3741L23.6064 26.9218ZM23.6179 31.1738L25.4639 35.733L22.3288 36.6086L23.6179 31.1738ZM19.2482 4.82932C19.5381 5.13939 19.8483 5.46953 20.1612 5.80257C20.4713 6.12412 20.7842 6.44573 21.0828 6.7759L21.1833 6.87631L20.5947 9.68705L18.2261 3.69811L19.2482 4.82932ZM20.7153 19.2734L17.6806 16.9709L20.2387 13.629L20.7153 19.2734ZM16.7906 3.52296L20.0378 11.8576L16.7791 16.0292L13.532 11.803L16.7906 3.52296ZM15.8891 16.9709L12.8544 19.2734L13.3339 13.629L15.8891 16.9709ZM12.4209 6.89935C13.0324 6.16724 13.7215 5.49256 14.3216 4.88391L15.246 3.97664L12.9979 9.84213L12.3319 7.00843L12.4209 6.89935ZM12.6305 20.8783L16.7906 17.7805L20.9392 20.8783L22.8083 28.9918L20.9392 37.1053L16.7906 40.206L12.6305 37.1053L10.7643 28.9918L12.6305 20.8783ZM20.7153 38.8337L20.2387 44.4781L17.6806 41.1477L20.7153 38.8337ZM15.8231 41.1362L13.3425 44.4896L12.7769 38.8337L15.8231 41.1362ZM11.1749 36.6086L8.03973 35.733L9.89729 31.1738L11.1749 36.6086ZM8.10579 22.3741L11.2409 21.4985L9.95187 26.9333L8.10579 22.3741ZM9.45228 10.4192C9.94035 9.78755 10.3968 9.20187 10.8964 8.60183L11.2409 8.18267L12.0103 11.3035H8.77185L9.45228 10.4192ZM8.1517 12.5667H12.1425L11.4879 20.1032L7.88473 21.1108L8.1517 12.5667ZM4.37919 18.9317C4.97062 17.5479 5.70272 16.1842 6.28266 15.1449L6.84823 14.1257L6.60422 20.7778L4.29018 19.1298L4.37919 18.9317ZM2.40108 26.1696C2.5676 24.5302 2.98965 22.7502 3.69018 20.7117L3.81363 20.3701L6.31429 22.0755L2.30058 27.1113L2.40108 26.1696ZM3.75905 37.6479C3.05852 35.733 2.57905 33.8065 2.33501 31.9374L2.21156 30.9642L6.30562 36.0775L3.89108 38.0154L3.75905 37.6479ZM6.28266 42.9076C5.48165 41.5353 4.93618 40.4385 4.49117 39.3533L4.41363 39.1667L6.59274 37.4154L6.84823 43.8694L6.28266 42.9076ZM7.02627 34.8803L2.32354 29.0578L7.02627 23.1694L9.38341 29.0578L7.02627 34.8803ZM11.3184 50.002L10.9539 49.5712C10.3509 48.8506 9.73078 48.0984 9.10777 47.2457L8.79481 46.8036H11.9989L11.3184 50.002ZM8.20629 45.5403L7.88473 37.0077L11.4879 38.0039L12.1425 45.5403H8.20629ZM14.3216 53.2778C14.0431 52.9677 13.7215 52.649 13.4114 52.3045C13.0985 51.9944 12.7884 51.6614 12.487 51.3427L12.3865 51.2307L12.9779 48.4315L15.3465 54.4176L14.3216 53.2778ZM16.7791 54.584L13.532 46.2495L16.7906 42.0779L20.0378 46.304L16.7791 54.584ZM21.1488 51.2077C20.5373 51.9398 19.8597 52.6145 19.2596 53.2117L18.3352 54.1304L20.5717 48.265L21.2378 51.0987L21.1488 51.2077ZM24.1089 47.6994C23.6294 48.3195 23.1729 48.9167 22.6848 49.5053L22.3288 49.9244L21.5622 46.8036H24.7979L24.1089 47.6994ZM25.4209 45.5403H21.4962L22.0847 38.0039L25.6879 37.0077L25.4209 45.5403ZM26.5435 34.9377L24.1863 29.0578L26.5435 23.2355L31.2462 29.0492L26.5435 34.9377ZM29.1905 39.1753C28.602 40.5591 27.867 41.9314 27.29 42.9621L26.7215 43.99L26.9655 37.3264L29.2796 38.9773L29.1905 39.1753ZM31.1687 31.9374C31.0021 33.5739 30.5801 35.3568 29.8796 37.4067L29.7561 37.7484L27.2554 36.0316L31.2692 30.9957L31.1687 31.9374ZM27.2669 22.0296L29.6786 20.1032L29.8136 20.4592C30.5141 22.3741 30.9907 24.3005 31.2376 26.1696L31.3582 27.1429L27.2669 22.0296Z" stroke="black" stroke-opacity="0.2" stroke-width="0.22"/>
<path d="M31.4041 21.243C30.6461 18.9404 29.5781 16.5718 28.223 14.2147C27.043 12.1562 25.9979 10.6058 24.9414 9.32247C24.2179 8.3492 23.3853 7.36438 22.3288 6.2332C21.8723 5.73652 21.3957 5.24849 20.9823 4.8408C20.4483 4.29818 19.8942 3.75559 19.3487 3.22445C18.8606 2.75935 18.3697 2.29417 17.8816 1.82907L17.4796 1.4645C17.4366 1.41856 17.3907 1.36396 17.3361 1.32089C17.2012 1.17447 17.0691 1.05388 16.9255 1.01082C16.7475 0.964883 16.6241 1.06538 16.38 1.30942L16.3025 1.37548C16.024 1.63961 15.7341 1.90664 15.4556 2.17077L15.3005 2.3057C14.577 2.95743 13.8565 3.65511 13.133 4.37573C12.82 4.6858 12.5214 5.00447 12.2199 5.32602C11.8984 5.68203 11.5768 6.03518 11.2409 6.36822L11.1405 6.48878C10.3739 7.36444 9.57283 8.28318 8.82924 9.29952L8.41876 9.86508C8.03978 10.3733 7.63781 10.9158 7.23874 11.4929L7.2043 11.5475C7.18421 11.5819 7.14969 11.648 7.08365 11.7026C6.97168 11.8145 6.87126 11.9896 6.78225 12.1562C6.7277 12.2337 6.68172 12.3227 6.62717 12.3887C6.46065 12.6557 6.29419 12.9083 6.12767 13.1753C5.78315 13.7179 5.45872 14.2807 5.13717 14.8348C4.46822 16.0291 3.86819 17.2494 3.35715 18.4322C2.25755 21.0334 1.55697 23.468 1.22106 25.8596C1.07751 26.9333 1 28.007 1 29.0578C1 32.3251 1.71199 35.7013 3.11305 39.0891L3.136 39.1868C3.136 39.1983 3.13605 39.2097 3.17911 39.2758L3.2365 39.3648C4.21265 41.7449 5.51613 44.1364 7.10381 46.4821L7.2043 46.5825L7.49423 46.9816C7.93923 47.6219 8.36127 48.2305 8.81776 48.7846C10.3078 50.7111 11.9415 52.56 13.6985 54.297C14.6 55.1813 15.5245 56.0224 16.4346 56.7976C16.6126 56.9526 16.7676 57.0101 16.9341 56.9986C17.1581 56.9756 17.3476 56.7977 17.5371 56.6225L17.6806 56.4876C17.9247 56.278 18.1687 56.0684 18.4042 55.8473C19.1162 55.1927 19.8367 54.4951 20.5487 53.7774C21.1172 53.2003 21.7948 52.5025 22.4407 51.7618C23.2188 50.8661 26.0094 47.3692 26.5549 46.594C27.4679 45.2647 28.3551 43.7603 29.202 42.1209C29.5896 41.3687 29.9456 40.5936 30.2786 39.8185C31.4156 37.1283 32.1362 34.6592 32.4721 32.2705C32.6157 31.1852 32.6932 30.1 32.6932 29.0578C32.6932 26.5141 32.2596 23.89 31.4041 21.243ZM27.29 15.1994C28.0881 16.5718 28.6336 17.6685 29.0786 18.7538L29.1561 18.9404L26.977 20.6917L26.7215 14.2377L27.29 15.1994ZM22.2513 8.10513L22.6188 8.53577C23.2188 9.26787 23.8418 10.0086 24.4648 10.8613L24.7749 11.3035H21.5737L22.2513 8.10513ZM25.3634 12.5667L25.6879 21.1108L22.0847 20.1032L21.4273 12.5667H25.3634ZM23.6064 26.9218L22.3948 21.4985L25.5329 22.3741L23.6064 26.9218ZM23.6179 31.1738L25.4639 35.733L22.3288 36.6086L23.6179 31.1738ZM19.2482 4.82932C19.5381 5.13939 19.8483 5.46953 20.1612 5.80257C20.4713 6.12412 20.7842 6.44573 21.0828 6.7759L21.1833 6.87631L20.5947 9.68705L18.2261 3.69811L19.2482 4.82932ZM20.7153 19.2734L17.6806 16.9709L20.2387 13.629L20.7153 19.2734ZM16.7906 3.52296L20.0378 11.8576L16.7791 16.0292L13.532 11.803L16.7906 3.52296ZM15.8891 16.9709L12.8544 19.2734L13.3339 13.629L15.8891 16.9709ZM12.4209 6.89935C13.0324 6.16724 13.7215 5.49256 14.3216 4.88391L15.246 3.97664L12.9979 9.84213L12.3319 7.00843L12.4209 6.89935ZM12.6305 20.8783L16.7906 17.7805L20.9392 20.8783L22.8083 28.9918L20.9392 37.1053L16.7906 40.206L12.6305 37.1053L10.7643 28.9918L12.6305 20.8783ZM20.7153 38.8337L20.2387 44.4781L17.6806 41.1477L20.7153 38.8337ZM15.8231 41.1362L13.3425 44.4896L12.7769 38.8337L15.8231 41.1362ZM11.1749 36.6086L8.03973 35.733L9.89729 31.1738L11.1749 36.6086ZM8.10579 22.3741L11.2409 21.4985L9.95187 26.9333L8.10579 22.3741ZM9.45228 10.4192C9.94035 9.78755 10.3968 9.20187 10.8964 8.60183L11.2409 8.18267L12.0103 11.3035H8.77185L9.45228 10.4192ZM8.1517 12.5667H12.1425L11.4879 20.1032L7.88473 21.1108L8.1517 12.5667ZM4.37919 18.9317C4.97062 17.5479 5.70272 16.1842 6.28266 15.1449L6.84823 14.1257L6.60422 20.7778L4.29018 19.1298L4.37919 18.9317ZM2.40108 26.1696C2.5676 24.5302 2.98965 22.7502 3.69018 20.7117L3.81363 20.3701L6.31429 22.0755L2.30058 27.1113L2.40108 26.1696ZM3.75905 37.6479C3.05852 35.733 2.57905 33.8065 2.33501 31.9374L2.21156 30.9642L6.30562 36.0775L3.89108 38.0154L3.75905 37.6479ZM6.28266 42.9076C5.48165 41.5353 4.93618 40.4385 4.49117 39.3533L4.41363 39.1667L6.59274 37.4154L6.84823 43.8694L6.28266 42.9076ZM7.02627 34.8803L2.32354 29.0578L7.02627 23.1694L9.38341 29.0578L7.02627 34.8803ZM11.3184 50.002L10.9539 49.5712C10.3509 48.8506 9.73078 48.0984 9.10777 47.2457L8.79481 46.8036H11.9989L11.3184 50.002ZM8.20629 45.5403L7.88473 37.0077L11.4879 38.0039L12.1425 45.5403H8.20629ZM14.3216 53.2778C14.0431 52.9677 13.7215 52.649 13.4114 52.3045C13.0985 51.9944 12.7884 51.6614 12.487 51.3427L12.3865 51.2307L12.9779 48.4315L15.3465 54.4176L14.3216 53.2778ZM16.7791 54.584L13.532 46.2495L16.7906 42.0779L20.0378 46.304L16.7791 54.584ZM21.1488 51.2077C20.5373 51.9398 19.8597 52.6145 19.2596 53.2117L18.3352 54.1304L20.5717 48.265L21.2378 51.0987L21.1488 51.2077ZM24.1089 47.6994C23.6294 48.3195 23.1729 48.9167 22.6848 49.5053L22.3288 49.9244L21.5622 46.8036H24.7979L24.1089 47.6994ZM25.4209 45.5403H21.4962L22.0847 38.0039L25.6879 37.0077L25.4209 45.5403ZM26.5435 34.9377L24.1863 29.0578L26.5435 23.2355L31.2462 29.0492L26.5435 34.9377ZM29.1905 39.1753C28.602 40.5591 27.867 41.9314 27.29 42.9621L26.7215 43.99L26.9655 37.3264L29.2796 38.9773L29.1905 39.1753ZM31.1687 31.9374C31.0021 33.5739 30.5801 35.3568 29.8796 37.4067L29.7561 37.7484L27.2554 36.0316L31.2692 30.9957L31.1687 31.9374ZM27.2669 22.0296L29.6786 20.1032L29.8136 20.4592C30.5141 22.3741 30.9907 24.3005 31.2376 26.1696L31.3582 27.1429L27.2669 22.0296Z" stroke="black" stroke-opacity="0.2" stroke-width="0.22"/>
<path d="M31.4041 21.243C30.6461 18.9404 29.5781 16.5718 28.223 14.2147C27.043 12.1562 25.9979 10.6058 24.9414 9.32247C24.2179 8.3492 23.3853 7.36438 22.3288 6.2332C21.8723 5.73652 21.3957 5.24849 20.9823 4.8408C20.4483 4.29818 19.8942 3.75559 19.3487 3.22445C18.8606 2.75935 18.3697 2.29417 17.8816 1.82907L17.4796 1.4645C17.4366 1.41856 17.3907 1.36396 17.3361 1.32089C17.2012 1.17447 17.0691 1.05388 16.9255 1.01082C16.7475 0.964883 16.6241 1.06538 16.38 1.30942L16.3025 1.37548C16.024 1.63961 15.7341 1.90664 15.4556 2.17077L15.3005 2.3057C14.577 2.95743 13.8565 3.65511 13.133 4.37573C12.82 4.6858 12.5214 5.00447 12.2199 5.32602C11.8984 5.68203 11.5768 6.03518 11.2409 6.36822L11.1405 6.48878C10.3739 7.36444 9.57283 8.28318 8.82924 9.29952L8.41876 9.86508C8.03978 10.3733 7.63781 10.9158 7.23874 11.4929L7.2043 11.5475C7.18421 11.5819 7.14969 11.648 7.08365 11.7026C6.97168 11.8145 6.87126 11.9896 6.78225 12.1562C6.7277 12.2337 6.68172 12.3227 6.62717 12.3887C6.46065 12.6557 6.29419 12.9083 6.12767 13.1753C5.78315 13.7179 5.45872 14.2807 5.13717 14.8348C4.46822 16.0291 3.86819 17.2494 3.35715 18.4322C2.25755 21.0334 1.55697 23.468 1.22106 25.8596C1.07751 26.9333 1 28.007 1 29.0578C1 32.3251 1.71199 35.7013 3.11305 39.0891L3.136 39.1868C3.136 39.1983 3.13605 39.2097 3.17911 39.2758L3.2365 39.3648C4.21265 41.7449 5.51613 44.1364 7.10381 46.4821L7.2043 46.5825L7.49423 46.9816C7.93923 47.6219 8.36127 48.2305 8.81776 48.7846C10.3078 50.7111 11.9415 52.56 13.6985 54.297C14.6 55.1813 15.5245 56.0224 16.4346 56.7976C16.6126 56.9526 16.7676 57.0101 16.9341 56.9986C17.1581 56.9756 17.3476 56.7977 17.5371 56.6225L17.6806 56.4876C17.9247 56.278 18.1687 56.0684 18.4042 55.8473C19.1162 55.1927 19.8367 54.4951 20.5487 53.7774C21.1172 53.2003 21.7948 52.5025 22.4407 51.7618C23.2188 50.8661 26.0094 47.3692 26.5549 46.594C27.4679 45.2647 28.3551 43.7603 29.202 42.1209C29.5896 41.3687 29.9456 40.5936 30.2786 39.8185C31.4156 37.1283 32.1362 34.6592 32.4721 32.2705C32.6157 31.1852 32.6932 30.1 32.6932 29.0578C32.6932 26.5141 32.2596 23.89 31.4041 21.243ZM27.29 15.1994C28.0881 16.5718 28.6336 17.6685 29.0786 18.7538L29.1561 18.9404L26.977 20.6917L26.7215 14.2377L27.29 15.1994ZM22.2513 8.10513L22.6188 8.53577C23.2188 9.26787 23.8418 10.0086 24.4648 10.8613L24.7749 11.3035H21.5737L22.2513 8.10513ZM25.3634 12.5667L25.6879 21.1108L22.0847 20.1032L21.4273 12.5667H25.3634ZM23.6064 26.9218L22.3948 21.4985L25.5329 22.3741L23.6064 26.9218ZM23.6179 31.1738L25.4639 35.733L22.3288 36.6086L23.6179 31.1738ZM19.2482 4.82932C19.5381 5.13939 19.8483 5.46953 20.1612 5.80257C20.4713 6.12412 20.7842 6.44573 21.0828 6.7759L21.1833 6.87631L20.5947 9.68705L18.2261 3.69811L19.2482 4.82932ZM20.7153 19.2734L17.6806 16.9709L20.2387 13.629L20.7153 19.2734ZM16.7906 3.52296L20.0378 11.8576L16.7791 16.0292L13.532 11.803L16.7906 3.52296ZM15.8891 16.9709L12.8544 19.2734L13.3339 13.629L15.8891 16.9709ZM12.4209 6.89935C13.0324 6.16724 13.7215 5.49256 14.3216 4.88391L15.246 3.97664L12.9979 9.84213L12.3319 7.00843L12.4209 6.89935ZM12.6305 20.8783L16.7906 17.7805L20.9392 20.8783L22.8083 28.9918L20.9392 37.1053L16.7906 40.206L12.6305 37.1053L10.7643 28.9918L12.6305 20.8783ZM20.7153 38.8337L20.2387 44.4781L17.6806 41.1477L20.7153 38.8337ZM15.8231 41.1362L13.3425 44.4896L12.7769 38.8337L15.8231 41.1362ZM11.1749 36.6086L8.03973 35.733L9.89729 31.1738L11.1749 36.6086ZM8.10579 22.3741L11.2409 21.4985L9.95187 26.9333L8.10579 22.3741ZM9.45228 10.4192C9.94035 9.78755 10.3968 9.20187 10.8964 8.60183L11.2409 8.18267L12.0103 11.3035H8.77185L9.45228 10.4192ZM8.1517 12.5667H12.1425L11.4879 20.1032L7.88473 21.1108L8.1517 12.5667ZM4.37919 18.9317C4.97062 17.5479 5.70272 16.1842 6.28266 15.1449L6.84823 14.1257L6.60422 20.7778L4.29018 19.1298L4.37919 18.9317ZM2.40108 26.1696C2.5676 24.5302 2.98965 22.7502 3.69018 20.7117L3.81363 20.3701L6.31429 22.0755L2.30058 27.1113L2.40108 26.1696ZM3.75905 37.6479C3.05852 35.733 2.57905 33.8065 2.33501 31.9374L2.21156 30.9642L6.30562 36.0775L3.89108 38.0154L3.75905 37.6479ZM6.28266 42.9076C5.48165 41.5353 4.93618 40.4385 4.49117 39.3533L4.41363 39.1667L6.59274 37.4154L6.84823 43.8694L6.28266 42.9076ZM7.02627 34.8803L2.32354 29.0578L7.02627 23.1694L9.38341 29.0578L7.02627 34.8803ZM11.3184 50.002L10.9539 49.5712C10.3509 48.8506 9.73078 48.0984 9.10777 47.2457L8.79481 46.8036H11.9989L11.3184 50.002ZM8.20629 45.5403L7.88473 37.0077L11.4879 38.0039L12.1425 45.5403H8.20629ZM14.3216 53.2778C14.0431 52.9677 13.7215 52.649 13.4114 52.3045C13.0985 51.9944 12.7884 51.6614 12.487 51.3427L12.3865 51.2307L12.9779 48.4315L15.3465 54.4176L14.3216 53.2778ZM16.7791 54.584L13.532 46.2495L16.7906 42.0779L20.0378 46.304L16.7791 54.584ZM21.1488 51.2077C20.5373 51.9398 19.8597 52.6145 19.2596 53.2117L18.3352 54.1304L20.5717 48.265L21.2378 51.0987L21.1488 51.2077ZM24.1089 47.6994C23.6294 48.3195 23.1729 48.9167 22.6848 49.5053L22.3288 49.9244L21.5622 46.8036H24.7979L24.1089 47.6994ZM25.4209 45.5403H21.4962L22.0847 38.0039L25.6879 37.0077L25.4209 45.5403ZM26.5435 34.9377L24.1863 29.0578L26.5435 23.2355L31.2462 29.0492L26.5435 34.9377ZM29.1905 39.1753C28.602 40.5591 27.867 41.9314 27.29 42.9621L26.7215 43.99L26.9655 37.3264L29.2796 38.9773L29.1905 39.1753ZM31.1687 31.9374C31.0021 33.5739 30.5801 35.3568 29.8796 37.4067L29.7561 37.7484L27.2554 36.0316L31.2692 30.9957L31.1687 31.9374ZM27.2669 22.0296L29.6786 20.1032L29.8136 20.4592C30.5141 22.3741 30.9907 24.3005 31.2376 26.1696L31.3582 27.1429L27.2669 22.0296Z" stroke="black" stroke-opacity="0.2" stroke-width="0.22"/>
<path d="M31.4041 21.243C30.6461 18.9404 29.5781 16.5718 28.223 14.2147C27.043 12.1562 25.9979 10.6058 24.9414 9.32247C24.2179 8.3492 23.3853 7.36438 22.3288 6.2332C21.8723 5.73652 21.3957 5.24849 20.9823 4.8408C20.4483 4.29818 19.8942 3.75559 19.3487 3.22445C18.8606 2.75935 18.3697 2.29417 17.8816 1.82907L17.4796 1.4645C17.4366 1.41856 17.3907 1.36396 17.3361 1.32089C17.2012 1.17447 17.0691 1.05388 16.9255 1.01082C16.7475 0.964883 16.6241 1.06538 16.38 1.30942L16.3025 1.37548C16.024 1.63961 15.7341 1.90664 15.4556 2.17077L15.3005 2.3057C14.577 2.95743 13.8565 3.65511 13.133 4.37573C12.82 4.6858 12.5214 5.00447 12.2199 5.32602C11.8984 5.68203 11.5768 6.03518 11.2409 6.36822L11.1405 6.48878C10.3739 7.36444 9.57283 8.28318 8.82924 9.29952L8.41876 9.86508C8.03978 10.3733 7.63781 10.9158 7.23874 11.4929L7.2043 11.5475C7.18421 11.5819 7.14969 11.648 7.08365 11.7026C6.97168 11.8145 6.87126 11.9896 6.78225 12.1562C6.7277 12.2337 6.68172 12.3227 6.62717 12.3887C6.46065 12.6557 6.29419 12.9083 6.12767 13.1753C5.78315 13.7179 5.45872 14.2807 5.13717 14.8348C4.46822 16.0291 3.86819 17.2494 3.35715 18.4322C2.25755 21.0334 1.55697 23.468 1.22106 25.8596C1.07751 26.9333 1 28.007 1 29.0578C1 32.3251 1.71199 35.7013 3.11305 39.0891L3.136 39.1868C3.136 39.1983 3.13605 39.2097 3.17911 39.2758L3.2365 39.3648C4.21265 41.7449 5.51613 44.1364 7.10381 46.4821L7.2043 46.5825L7.49423 46.9816C7.93923 47.6219 8.36127 48.2305 8.81776 48.7846C10.3078 50.7111 11.9415 52.56 13.6985 54.297C14.6 55.1813 15.5245 56.0224 16.4346 56.7976C16.6126 56.9526 16.7676 57.0101 16.9341 56.9986C17.1581 56.9756 17.3476 56.7977 17.5371 56.6225L17.6806 56.4876C17.9247 56.278 18.1687 56.0684 18.4042 55.8473C19.1162 55.1927 19.8367 54.4951 20.5487 53.7774C21.1172 53.2003 21.7948 52.5025 22.4407 51.7618C23.2188 50.8661 26.0094 47.3692 26.5549 46.594C27.4679 45.2647 28.3551 43.7603 29.202 42.1209C29.5896 41.3687 29.9456 40.5936 30.2786 39.8185C31.4156 37.1283 32.1362 34.6592 32.4721 32.2705C32.6157 31.1852 32.6932 30.1 32.6932 29.0578C32.6932 26.5141 32.2596 23.89 31.4041 21.243ZM27.29 15.1994C28.0881 16.5718 28.6336 17.6685 29.0786 18.7538L29.1561 18.9404L26.977 20.6917L26.7215 14.2377L27.29 15.1994ZM22.2513 8.10513L22.6188 8.53577C23.2188 9.26787 23.8418 10.0086 24.4648 10.8613L24.7749 11.3035H21.5737L22.2513 8.10513ZM25.3634 12.5667L25.6879 21.1108L22.0847 20.1032L21.4273 12.5667H25.3634ZM23.6064 26.9218L22.3948 21.4985L25.5329 22.3741L23.6064 26.9218ZM23.6179 31.1738L25.4639 35.733L22.3288 36.6086L23.6179 31.1738ZM19.2482 4.82932C19.5381 5.13939 19.8483 5.46953 20.1612 5.80257C20.4713 6.12412 20.7842 6.44573 21.0828 6.7759L21.1833 6.87631L20.5947 9.68705L18.2261 3.69811L19.2482 4.82932ZM20.7153 19.2734L17.6806 16.9709L20.2387 13.629L20.7153 19.2734ZM16.7906 3.52296L20.0378 11.8576L16.7791 16.0292L13.532 11.803L16.7906 3.52296ZM15.8891 16.9709L12.8544 19.2734L13.3339 13.629L15.8891 16.9709ZM12.4209 6.89935C13.0324 6.16724 13.7215 5.49256 14.3216 4.88391L15.246 3.97664L12.9979 9.84213L12.3319 7.00843L12.4209 6.89935ZM12.6305 20.8783L16.7906 17.7805L20.9392 20.8783L22.8083 28.9918L20.9392 37.1053L16.7906 40.206L12.6305 37.1053L10.7643 28.9918L12.6305 20.8783ZM20.7153 38.8337L20.2387 44.4781L17.6806 41.1477L20.7153 38.8337ZM15.8231 41.1362L13.3425 44.4896L12.7769 38.8337L15.8231 41.1362ZM11.1749 36.6086L8.03973 35.733L9.89729 31.1738L11.1749 36.6086ZM8.10579 22.3741L11.2409 21.4985L9.95187 26.9333L8.10579 22.3741ZM9.45228 10.4192C9.94035 9.78755 10.3968 9.20187 10.8964 8.60183L11.2409 8.18267L12.0103 11.3035H8.77185L9.45228 10.4192ZM8.1517 12.5667H12.1425L11.4879 20.1032L7.88473 21.1108L8.1517 12.5667ZM4.37919 18.9317C4.97062 17.5479 5.70272 16.1842 6.28266 15.1449L6.84823 14.1257L6.60422 20.7778L4.29018 19.1298L4.37919 18.9317ZM2.40108 26.1696C2.5676 24.5302 2.98965 22.7502 3.69018 20.7117L3.81363 20.3701L6.31429 22.0755L2.30058 27.1113L2.40108 26.1696ZM3.75905 37.6479C3.05852 35.733 2.57905 33.8065 2.33501 31.9374L2.21156 30.9642L6.30562 36.0775L3.89108 38.0154L3.75905 37.6479ZM6.28266 42.9076C5.48165 41.5353 4.93618 40.4385 4.49117 39.3533L4.41363 39.1667L6.59274 37.4154L6.84823 43.8694L6.28266 42.9076ZM7.02627 34.8803L2.32354 29.0578L7.02627 23.1694L9.38341 29.0578L7.02627 34.8803ZM11.3184 50.002L10.9539 49.5712C10.3509 48.8506 9.73078 48.0984 9.10777 47.2457L8.79481 46.8036H11.9989L11.3184 50.002ZM8.20629 45.5403L7.88473 37.0077L11.4879 38.0039L12.1425 45.5403H8.20629ZM14.3216 53.2778C14.0431 52.9677 13.7215 52.649 13.4114 52.3045C13.0985 51.9944 12.7884 51.6614 12.487 51.3427L12.3865 51.2307L12.9779 48.4315L15.3465 54.4176L14.3216 53.2778ZM16.7791 54.584L13.532 46.2495L16.7906 42.0779L20.0378 46.304L16.7791 54.584ZM21.1488 51.2077C20.5373 51.9398 19.8597 52.6145 19.2596 53.2117L18.3352 54.1304L20.5717 48.265L21.2378 51.0987L21.1488 51.2077ZM24.1089 47.6994C23.6294 48.3195 23.1729 48.9167 22.6848 49.5053L22.3288 49.9244L21.5622 46.8036H24.7979L24.1089 47.6994ZM25.4209 45.5403H21.4962L22.0847 38.0039L25.6879 37.0077L25.4209 45.5403ZM26.5435 34.9377L24.1863 29.0578L26.5435 23.2355L31.2462 29.0492L26.5435 34.9377ZM29.1905 39.1753C28.602 40.5591 27.867 41.9314 27.29 42.9621L26.7215 43.99L26.9655 37.3264L29.2796 38.9773L29.1905 39.1753ZM31.1687 31.9374C31.0021 33.5739 30.5801 35.3568 29.8796 37.4067L29.7561 37.7484L27.2554 36.0316L31.2692 30.9957L31.1687 31.9374ZM27.2669 22.0296L29.6786 20.1032L29.8136 20.4592C30.5141 22.3741 30.9907 24.3005 31.2376 26.1696L31.3582 27.1429L27.2669 22.0296Z" stroke="black" stroke-opacity="0.2" stroke-width="0.22"/>
<path d="M31.4041 21.243C30.6461 18.9404 29.5781 16.5718 28.223 14.2147C27.043 12.1562 25.9979 10.6058 24.9414 9.32247C24.2179 8.3492 23.3853 7.36438 22.3288 6.2332C21.8723 5.73652 21.3957 5.24849 20.9823 4.8408C20.4483 4.29818 19.8942 3.75559 19.3487 3.22445C18.8606 2.75935 18.3697 2.29417 17.8816 1.82907L17.4796 1.4645C17.4366 1.41856 17.3907 1.36396 17.3361 1.32089C17.2012 1.17447 17.0691 1.05388 16.9255 1.01082C16.7475 0.964883 16.6241 1.06538 16.38 1.30942L16.3025 1.37548C16.024 1.63961 15.7341 1.90664 15.4556 2.17077L15.3005 2.3057C14.577 2.95743 13.8565 3.65511 13.133 4.37573C12.82 4.6858 12.5214 5.00447 12.2199 5.32602C11.8984 5.68203 11.5768 6.03518 11.2409 6.36822L11.1405 6.48878C10.3739 7.36444 9.57283 8.28318 8.82924 9.29952L8.41876 9.86508C8.03978 10.3733 7.63781 10.9158 7.23874 11.4929L7.2043 11.5475C7.18421 11.5819 7.14969 11.648 7.08365 11.7026C6.97168 11.8145 6.87126 11.9896 6.78225 12.1562C6.7277 12.2337 6.68172 12.3227 6.62717 12.3887C6.46065 12.6557 6.29419 12.9083 6.12767 13.1753C5.78315 13.7179 5.45872 14.2807 5.13717 14.8348C4.46822 16.0291 3.86819 17.2494 3.35715 18.4322C2.25755 21.0334 1.55697 23.468 1.22106 25.8596C1.07751 26.9333 1 28.007 1 29.0578C1 32.3251 1.71199 35.7013 3.11305 39.0891L3.136 39.1868C3.136 39.1983 3.13605 39.2097 3.17911 39.2758L3.2365 39.3648C4.21265 41.7449 5.51613 44.1364 7.10381 46.4821L7.2043 46.5825L7.49423 46.9816C7.93923 47.6219 8.36127 48.2305 8.81776 48.7846C10.3078 50.7111 11.9415 52.56 13.6985 54.297C14.6 55.1813 15.5245 56.0224 16.4346 56.7976C16.6126 56.9526 16.7676 57.0101 16.9341 56.9986C17.1581 56.9756 17.3476 56.7977 17.5371 56.6225L17.6806 56.4876C17.9247 56.278 18.1687 56.0684 18.4042 55.8473C19.1162 55.1927 19.8367 54.4951 20.5487 53.7774C21.1172 53.2003 21.7948 52.5025 22.4407 51.7618C23.2188 50.8661 26.0094 47.3692 26.5549 46.594C27.4679 45.2647 28.3551 43.7603 29.202 42.1209C29.5896 41.3687 29.9456 40.5936 30.2786 39.8185C31.4156 37.1283 32.1362 34.6592 32.4721 32.2705C32.6157 31.1852 32.6932 30.1 32.6932 29.0578C32.6932 26.5141 32.2596 23.89 31.4041 21.243ZM27.29 15.1994C28.0881 16.5718 28.6336 17.6685 29.0786 18.7538L29.1561 18.9404L26.977 20.6917L26.7215 14.2377L27.29 15.1994ZM22.2513 8.10513L22.6188 8.53577C23.2188 9.26787 23.8418 10.0086 24.4648 10.8613L24.7749 11.3035H21.5737L22.2513 8.10513ZM25.3634 12.5667L25.6879 21.1108L22.0847 20.1032L21.4273 12.5667H25.3634ZM23.6064 26.9218L22.3948 21.4985L25.5329 22.3741L23.6064 26.9218ZM23.6179 31.1738L25.4639 35.733L22.3288 36.6086L23.6179 31.1738ZM19.2482 4.82932C19.5381 5.13939 19.8483 5.46953 20.1612 5.80257C20.4713 6.12412 20.7842 6.44573 21.0828 6.7759L21.1833 6.87631L20.5947 9.68705L18.2261 3.69811L19.2482 4.82932ZM20.7153 19.2734L17.6806 16.9709L20.2387 13.629L20.7153 19.2734ZM16.7906 3.52296L20.0378 11.8576L16.7791 16.0292L13.532 11.803L16.7906 3.52296ZM15.8891 16.9709L12.8544 19.2734L13.3339 13.629L15.8891 16.9709ZM12.4209 6.89935C13.0324 6.16724 13.7215 5.49256 14.3216 4.88391L15.246 3.97664L12.9979 9.84213L12.3319 7.00843L12.4209 6.89935ZM12.6305 20.8783L16.7906 17.7805L20.9392 20.8783L22.8083 28.9918L20.9392 37.1053L16.7906 40.206L12.6305 37.1053L10.7643 28.9918L12.6305 20.8783ZM20.7153 38.8337L20.2387 44.4781L17.6806 41.1477L20.7153 38.8337ZM15.8231 41.1362L13.3425 44.4896L12.7769 38.8337L15.8231 41.1362ZM11.1749 36.6086L8.03973 35.733L9.89729 31.1738L11.1749 36.6086ZM8.10579 22.3741L11.2409 21.4985L9.95187 26.9333L8.10579 22.3741ZM9.45228 10.4192C9.94035 9.78755 10.3968 9.20187 10.8964 8.60183L11.2409 8.18267L12.0103 11.3035H8.77185L9.45228 10.4192ZM8.1517 12.5667H12.1425L11.4879 20.1032L7.88473 21.1108L8.1517 12.5667ZM4.37919 18.9317C4.97062 17.5479 5.70272 16.1842 6.28266 15.1449L6.84823 14.1257L6.60422 20.7778L4.29018 19.1298L4.37919 18.9317ZM2.40108 26.1696C2.5676 24.5302 2.98965 22.7502 3.69018 20.7117L3.81363 20.3701L6.31429 22.0755L2.30058 27.1113L2.40108 26.1696ZM3.75905 37.6479C3.05852 35.733 2.57905 33.8065 2.33501 31.9374L2.21156 30.9642L6.30562 36.0775L3.89108 38.0154L3.75905 37.6479ZM6.28266 42.9076C5.48165 41.5353 4.93618 40.4385 4.49117 39.3533L4.41363 39.1667L6.59274 37.4154L6.84823 43.8694L6.28266 42.9076ZM7.02627 34.8803L2.32354 29.0578L7.02627 23.1694L9.38341 29.0578L7.02627 34.8803ZM11.3184 50.002L10.9539 49.5712C10.3509 48.8506 9.73078 48.0984 9.10777 47.2457L8.79481 46.8036H11.9989L11.3184 50.002ZM8.20629 45.5403L7.88473 37.0077L11.4879 38.0039L12.1425 45.5403H8.20629ZM14.3216 53.2778C14.0431 52.9677 13.7215 52.649 13.4114 52.3045C13.0985 51.9944 12.7884 51.6614 12.487 51.3427L12.3865 51.2307L12.9779 48.4315L15.3465 54.4176L14.3216 53.2778ZM16.7791 54.584L13.532 46.2495L16.7906 42.0779L20.0378 46.304L16.7791 54.584ZM21.1488 51.2077C20.5373 51.9398 19.8597 52.6145 19.2596 53.2117L18.3352 54.1304L20.5717 48.265L21.2378 51.0987L21.1488 51.2077ZM24.1089 47.6994C23.6294 48.3195 23.1729 48.9167 22.6848 49.5053L22.3288 49.9244L21.5622 46.8036H24.7979L24.1089 47.6994ZM25.4209 45.5403H21.4962L22.0847 38.0039L25.6879 37.0077L25.4209 45.5403ZM26.5435 34.9377L24.1863 29.0578L26.5435 23.2355L31.2462 29.0492L26.5435 34.9377ZM29.1905 39.1753C28.602 40.5591 27.867 41.9314 27.29 42.9621L26.7215 43.99L26.9655 37.3264L29.2796 38.9773L29.1905 39.1753ZM31.1687 31.9374C31.0021 33.5739 30.5801 35.3568 29.8796 37.4067L29.7561 37.7484L27.2554 36.0316L31.2692 30.9957L31.1687 31.9374ZM27.2669 22.0296L29.6786 20.1032L29.8136 20.4592C30.5141 22.3741 30.9907 24.3005 31.2376 26.1696L31.3582 27.1429L27.2669 22.0296Z" stroke="black" stroke-opacity="0.2" stroke-width="0.22"/>
</svg>
