<svg width="42" height="58" viewBox="0 0 42 58" fill="none" xmlns="http://www.w3.org/2000/svg">
<path d="M40.6062 26.1241C39.8597 23.8071 38.7744 21.582 37.557 19.4803C36.4 17.4677 35.0592 15.4637 33.437 13.3677C32.1163 11.6307 30.6176 9.87362 29.0184 8.1366C27.7694 6.77857 26.4372 5.432 25.085 4.13713C24.2265 3.31599 23.6551 2.78771 22.5526 1.81153C22.4177 1.69956 21.9037 1.25165 21.7401 1.12819C21.2864 0.809497 20.8615 1.12819 20.3045 1.61054L20.2127 1.69088C19.8308 2.02106 19.4576 2.35992 19.0872 2.69009C17.9933 3.68637 16.8879 4.75439 15.794 5.85403C14.347 7.32404 12.9631 8.82564 11.674 10.3358C10.1035 12.1734 8.67941 14.0138 7.44196 15.8111C5.97482 17.9501 4.78908 19.9627 3.80716 21.9983C1.68541 26.3998 0.694858 31.0079 1.08246 35.883C1.35234 39.2796 2.12466 42.6588 3.6119 45.7395C5.45515 49.5581 8.36649 52.7278 12.1363 54.7203C14.9787 56.2219 18.1713 57 21.3898 57C25.8774 57 30.3046 55.4783 33.7758 52.633C37.0977 49.9141 39.3429 46.0812 40.543 42.0042C41.9269 37.2985 42.2169 32.096 40.9593 27.3328C40.8531 26.928 40.7325 26.526 40.6062 26.1241ZM38.2777 23.4281C39.3946 25.8111 40.1382 28.2688 40.477 30.7351L40.6119 31.7399L35.8516 25.2455L38.1227 23.098L38.2777 23.4281ZM21.3898 46.6841L14.235 43.2187L11.272 33.4167L15.2859 21.3092L21.3898 17.014L27.4909 21.3092L31.6397 33.9306L28.6767 43.1584L21.3898 46.6841ZM28.2346 44.6169L26.6957 49.2825L22.6474 47.2985L28.2346 44.6169ZM20.1294 47.2985L16.0811 49.2825L14.7001 44.6887L20.1294 47.2985ZM10.0317 33.3535L7.94731 39.7676L2.55819 33.0262L7.88413 26.3451L10.0317 33.3535ZM8.79428 25.4924L13.7383 22.2768L10.6834 31.5447L8.79428 25.4924ZM10.6318 35.2772L12.8196 42.5526L8.85456 40.6606L10.6318 35.2772ZM15.6591 19.7272L16.8564 13.8587L20.4481 16.3681L15.6591 19.7272ZM22.389 16.2962L25.9922 13.7984L27.1895 19.6555L22.389 16.2962ZM29.0586 22.1849L34.4477 25.4207L32.2914 32.05L29.0586 22.1849ZM32.3632 35.7481L33.9337 40.6606L30.1438 42.5095L32.3632 35.7481ZM32.88 33.8674L35.3061 26.3968L40.1468 33.0349L34.7692 39.7676L32.88 33.8674ZM34.4907 16.7987C35.7798 18.6592 36.7819 20.313 37.5456 21.8749L37.6288 22.0414L35.4296 24.1057L33.7787 15.7824L34.4907 16.7987ZM34.3156 24.054L28.493 20.6001L27.066 13.6347L32.4465 14.9296L34.3156 24.054ZM28.5848 9.3482C29.8539 10.7349 30.9191 11.9896 31.8378 13.1725L32.2914 13.7582L27.066 12.4719L28.2948 9.02944L28.5848 9.3482ZM23.8159 4.55052C24.9414 5.5755 26.1387 6.76991 27.2641 7.98151L27.3675 8.10497L26.242 11.3206L22.9172 3.72654L23.8159 4.55052ZM21.3898 2.99729L25.6735 12.7074L21.3898 15.7106L17.1033 12.7074L21.3898 2.99729ZM15.5155 7.98151C16.6496 6.76991 17.8383 5.5755 18.9724 4.55052L19.871 3.72654L16.5376 11.3206L15.4122 8.10497L15.5155 7.98151ZM11.3036 12.739C12.3028 11.5274 13.2445 10.3875 14.1919 9.3482L14.4934 9.02086L15.6476 12.4719L10.4566 13.7668L11.3036 12.739ZM15.7108 13.6347L14.2867 20.5914L8.95791 23.9937L10.3217 14.9296L15.7108 13.6347ZM5.24271 21.8662C6.18157 20.0258 7.32713 18.2487 8.42102 16.615L9.07278 15.6474L7.77215 24.1459L5.13932 22.0499L5.24271 21.8662ZM2.2998 30.9389C2.5582 28.5243 3.30181 25.9978 4.50767 23.4281L4.64265 23.1295L7.419 25.2972L2.20793 31.8118L2.2998 30.9389ZM3.50855 42.409C2.81661 40.2815 2.38307 37.8956 2.16486 35.1107L2.10458 34.278L7.3185 40.8041L3.60042 42.6961L3.50855 42.409ZM6.03799 47.7406L5.7078 47.1751C5.03596 46.0037 4.53065 44.9672 4.10572 43.9077L4.01385 43.6925L7.35872 41.9755L6.03799 47.7406ZM6.99694 48.7685L8.58754 41.7717L13.2732 44.0226L14.947 49.3974L6.99694 48.7685ZM13.3249 54.1864L13.0779 54.0629C11.2605 53.1355 9.56659 51.8636 8.18559 50.3821L7.72909 49.8998L14.8954 50.5056L13.3249 54.1864ZM19.4576 55.8286C17.8268 55.7052 16.1328 55.3146 14.5537 54.7203L14.3068 54.617L15.8228 51.031L20.0892 55.8803L19.4576 55.8286ZM16.6094 50.1869L21.3898 47.9273L26.1674 50.1869L21.3898 55.6449L16.6094 50.1869ZM28.2231 54.7203C26.6239 55.3261 24.95 55.7052 23.256 55.8286L22.6273 55.8803L26.8822 51.031L28.4815 54.617L28.2231 54.7203ZM34.7262 50.3936C33.2418 51.9153 31.5679 53.147 29.7706 54.0629L29.5237 54.1864L27.9561 50.5056L35.2028 49.8998L34.7262 50.3936ZM27.9044 49.4059L29.6385 43.9594L34.1893 41.7602L35.7081 48.7685L27.9044 49.4059ZM38.6825 43.8475C38.1973 45.1308 37.6489 46.242 37 47.2497L36.6584 47.7838L35.4296 41.9238L38.7629 43.6321L38.6825 43.8475ZM39.2797 42.3458L39.1879 42.633L35.4611 40.7323L40.6521 34.2494L40.6119 35.0504C40.477 37.6085 40.0348 40.0662 39.2797 42.3458Z" fill="#333335"/>
<path d="M40.6062 26.1241C39.8597 23.8071 38.7744 21.582 37.557 19.4803C36.4 17.4677 35.0592 15.4637 33.437 13.3677C32.1163 11.6307 30.6176 9.87362 29.0184 8.1366C27.7694 6.77857 26.4372 5.432 25.085 4.13713C24.2265 3.31599 23.6551 2.78771 22.5526 1.81153C22.4177 1.69956 21.9037 1.25165 21.7401 1.12819C21.2864 0.809497 20.8615 1.12819 20.3045 1.61054L20.2127 1.69088C19.8308 2.02106 19.4576 2.35992 19.0872 2.69009C17.9933 3.68637 16.8879 4.75439 15.794 5.85403C14.347 7.32404 12.9631 8.82564 11.674 10.3358C10.1035 12.1734 8.67941 14.0138 7.44196 15.8111C5.97482 17.9501 4.78908 19.9627 3.80716 21.9983C1.68541 26.3998 0.694858 31.0079 1.08246 35.883C1.35234 39.2796 2.12466 42.6588 3.6119 45.7395C5.45515 49.5581 8.36649 52.7278 12.1363 54.7203C14.9787 56.2219 18.1713 57 21.3898 57C25.8774 57 30.3046 55.4783 33.7758 52.633C37.0977 49.9141 39.3429 46.0812 40.543 42.0042C41.9269 37.2985 42.2169 32.096 40.9593 27.3328C40.8531 26.928 40.7325 26.526 40.6062 26.1241ZM38.2777 23.4281C39.3946 25.8111 40.1382 28.2688 40.477 30.7351L40.6119 31.7399L35.8516 25.2455L38.1227 23.098L38.2777 23.4281ZM21.3898 46.6841L14.235 43.2187L11.272 33.4167L15.2859 21.3092L21.3898 17.014L27.4909 21.3092L31.6397 33.9306L28.6767 43.1584L21.3898 46.6841ZM28.2346 44.6169L26.6957 49.2825L22.6474 47.2985L28.2346 44.6169ZM20.1294 47.2985L16.0811 49.2825L14.7001 44.6887L20.1294 47.2985ZM10.0317 33.3535L7.94731 39.7676L2.55819 33.0262L7.88413 26.3451L10.0317 33.3535ZM8.79428 25.4924L13.7383 22.2768L10.6834 31.5447L8.79428 25.4924ZM10.6318 35.2772L12.8196 42.5526L8.85456 40.6606L10.6318 35.2772ZM15.6591 19.7272L16.8564 13.8587L20.4481 16.3681L15.6591 19.7272ZM22.389 16.2962L25.9922 13.7984L27.1895 19.6555L22.389 16.2962ZM29.0586 22.1849L34.4477 25.4207L32.2914 32.05L29.0586 22.1849ZM32.3632 35.7481L33.9337 40.6606L30.1438 42.5095L32.3632 35.7481ZM32.88 33.8674L35.3061 26.3968L40.1468 33.0349L34.7692 39.7676L32.88 33.8674ZM34.4907 16.7987C35.7798 18.6592 36.7819 20.313 37.5456 21.8749L37.6288 22.0414L35.4296 24.1057L33.7787 15.7824L34.4907 16.7987ZM34.3156 24.054L28.493 20.6001L27.066 13.6347L32.4465 14.9296L34.3156 24.054ZM28.5848 9.3482C29.8539 10.7349 30.9191 11.9896 31.8378 13.1725L32.2914 13.7582L27.066 12.4719L28.2948 9.02944L28.5848 9.3482ZM23.8159 4.55052C24.9414 5.5755 26.1387 6.76991 27.2641 7.98151L27.3675 8.10497L26.242 11.3206L22.9172 3.72654L23.8159 4.55052ZM21.3898 2.99729L25.6735 12.7074L21.3898 15.7106L17.1033 12.7074L21.3898 2.99729ZM15.5155 7.98151C16.6496 6.76991 17.8383 5.5755 18.9724 4.55052L19.871 3.72654L16.5376 11.3206L15.4122 8.10497L15.5155 7.98151ZM11.3036 12.739C12.3028 11.5274 13.2445 10.3875 14.1919 9.3482L14.4934 9.02086L15.6476 12.4719L10.4566 13.7668L11.3036 12.739ZM15.7108 13.6347L14.2867 20.5914L8.95791 23.9937L10.3217 14.9296L15.7108 13.6347ZM5.24271 21.8662C6.18157 20.0258 7.32713 18.2487 8.42102 16.615L9.07278 15.6474L7.77215 24.1459L5.13932 22.0499L5.24271 21.8662ZM2.2998 30.9389C2.5582 28.5243 3.30181 25.9978 4.50767 23.4281L4.64265 23.1295L7.419 25.2972L2.20793 31.8118L2.2998 30.9389ZM3.50855 42.409C2.81661 40.2815 2.38307 37.8956 2.16486 35.1107L2.10458 34.278L7.3185 40.8041L3.60042 42.6961L3.50855 42.409ZM6.03799 47.7406L5.7078 47.1751C5.03596 46.0037 4.53065 44.9672 4.10572 43.9077L4.01385 43.6925L7.35872 41.9755L6.03799 47.7406ZM6.99694 48.7685L8.58754 41.7717L13.2732 44.0226L14.947 49.3974L6.99694 48.7685ZM13.3249 54.1864L13.0779 54.0629C11.2605 53.1355 9.56659 51.8636 8.18559 50.3821L7.72909 49.8998L14.8954 50.5056L13.3249 54.1864ZM19.4576 55.8286C17.8268 55.7052 16.1328 55.3146 14.5537 54.7203L14.3068 54.617L15.8228 51.031L20.0892 55.8803L19.4576 55.8286ZM16.6094 50.1869L21.3898 47.9273L26.1674 50.1869L21.3898 55.6449L16.6094 50.1869ZM28.2231 54.7203C26.6239 55.3261 24.95 55.7052 23.256 55.8286L22.6273 55.8803L26.8822 51.031L28.4815 54.617L28.2231 54.7203ZM34.7262 50.3936C33.2418 51.9153 31.5679 53.147 29.7706 54.0629L29.5237 54.1864L27.9561 50.5056L35.2028 49.8998L34.7262 50.3936ZM27.9044 49.4059L29.6385 43.9594L34.1893 41.7602L35.7081 48.7685L27.9044 49.4059ZM38.6825 43.8475C38.1973 45.1308 37.6489 46.242 37 47.2497L36.6584 47.7838L35.4296 41.9238L38.7629 43.6321L38.6825 43.8475ZM39.2797 42.3458L39.1879 42.633L35.4611 40.7323L40.6521 34.2494L40.6119 35.0504C40.477 37.6085 40.0348 40.0662 39.2797 42.3458Z" fill="black" fill-opacity="0.2"/>
<path d="M40.6062 26.1241C39.8597 23.8071 38.7744 21.582 37.557 19.4803C36.4 17.4677 35.0592 15.4637 33.437 13.3677C32.1163 11.6307 30.6176 9.87362 29.0184 8.1366C27.7694 6.77857 26.4372 5.432 25.085 4.13713C24.2265 3.31599 23.6551 2.78771 22.5526 1.81153C22.4177 1.69956 21.9037 1.25165 21.7401 1.12819C21.2864 0.809497 20.8615 1.12819 20.3045 1.61054L20.2127 1.69088C19.8308 2.02106 19.4576 2.35992 19.0872 2.69009C17.9933 3.68637 16.8879 4.75439 15.794 5.85403C14.347 7.32404 12.9631 8.82564 11.674 10.3358C10.1035 12.1734 8.67941 14.0138 7.44196 15.8111C5.97482 17.9501 4.78908 19.9627 3.80716 21.9983C1.68541 26.3998 0.694858 31.0079 1.08246 35.883C1.35234 39.2796 2.12466 42.6588 3.6119 45.7395C5.45515 49.5581 8.36649 52.7278 12.1363 54.7203C14.9787 56.2219 18.1713 57 21.3898 57C25.8774 57 30.3046 55.4783 33.7758 52.633C37.0977 49.9141 39.3429 46.0812 40.543 42.0042C41.9269 37.2985 42.2169 32.096 40.9593 27.3328C40.8531 26.928 40.7325 26.526 40.6062 26.1241ZM38.2777 23.4281C39.3946 25.8111 40.1382 28.2688 40.477 30.7351L40.6119 31.7399L35.8516 25.2455L38.1227 23.098L38.2777 23.4281ZM21.3898 46.6841L14.235 43.2187L11.272 33.4167L15.2859 21.3092L21.3898 17.014L27.4909 21.3092L31.6397 33.9306L28.6767 43.1584L21.3898 46.6841ZM28.2346 44.6169L26.6957 49.2825L22.6474 47.2985L28.2346 44.6169ZM20.1294 47.2985L16.0811 49.2825L14.7001 44.6887L20.1294 47.2985ZM10.0317 33.3535L7.94731 39.7676L2.55819 33.0262L7.88413 26.3451L10.0317 33.3535ZM8.79428 25.4924L13.7383 22.2768L10.6834 31.5447L8.79428 25.4924ZM10.6318 35.2772L12.8196 42.5526L8.85456 40.6606L10.6318 35.2772ZM15.6591 19.7272L16.8564 13.8587L20.4481 16.3681L15.6591 19.7272ZM22.389 16.2962L25.9922 13.7984L27.1895 19.6555L22.389 16.2962ZM29.0586 22.1849L34.4477 25.4207L32.2914 32.05L29.0586 22.1849ZM32.3632 35.7481L33.9337 40.6606L30.1438 42.5095L32.3632 35.7481ZM32.88 33.8674L35.3061 26.3968L40.1468 33.0349L34.7692 39.7676L32.88 33.8674ZM34.4907 16.7987C35.7798 18.6592 36.7819 20.313 37.5456 21.8749L37.6288 22.0414L35.4296 24.1057L33.7787 15.7824L34.4907 16.7987ZM34.3156 24.054L28.493 20.6001L27.066 13.6347L32.4465 14.9296L34.3156 24.054ZM28.5848 9.3482C29.8539 10.7349 30.9191 11.9896 31.8378 13.1725L32.2914 13.7582L27.066 12.4719L28.2948 9.02944L28.5848 9.3482ZM23.8159 4.55052C24.9414 5.5755 26.1387 6.76991 27.2641 7.98151L27.3675 8.10497L26.242 11.3206L22.9172 3.72654L23.8159 4.55052ZM21.3898 2.99729L25.6735 12.7074L21.3898 15.7106L17.1033 12.7074L21.3898 2.99729ZM15.5155 7.98151C16.6496 6.76991 17.8383 5.5755 18.9724 4.55052L19.871 3.72654L16.5376 11.3206L15.4122 8.10497L15.5155 7.98151ZM11.3036 12.739C12.3028 11.5274 13.2445 10.3875 14.1919 9.3482L14.4934 9.02086L15.6476 12.4719L10.4566 13.7668L11.3036 12.739ZM15.7108 13.6347L14.2867 20.5914L8.95791 23.9937L10.3217 14.9296L15.7108 13.6347ZM5.24271 21.8662C6.18157 20.0258 7.32713 18.2487 8.42102 16.615L9.07278 15.6474L7.77215 24.1459L5.13932 22.0499L5.24271 21.8662ZM2.2998 30.9389C2.5582 28.5243 3.30181 25.9978 4.50767 23.4281L4.64265 23.1295L7.419 25.2972L2.20793 31.8118L2.2998 30.9389ZM3.50855 42.409C2.81661 40.2815 2.38307 37.8956 2.16486 35.1107L2.10458 34.278L7.3185 40.8041L3.60042 42.6961L3.50855 42.409ZM6.03799 47.7406L5.7078 47.1751C5.03596 46.0037 4.53065 44.9672 4.10572 43.9077L4.01385 43.6925L7.35872 41.9755L6.03799 47.7406ZM6.99694 48.7685L8.58754 41.7717L13.2732 44.0226L14.947 49.3974L6.99694 48.7685ZM13.3249 54.1864L13.0779 54.0629C11.2605 53.1355 9.56659 51.8636 8.18559 50.3821L7.72909 49.8998L14.8954 50.5056L13.3249 54.1864ZM19.4576 55.8286C17.8268 55.7052 16.1328 55.3146 14.5537 54.7203L14.3068 54.617L15.8228 51.031L20.0892 55.8803L19.4576 55.8286ZM16.6094 50.1869L21.3898 47.9273L26.1674 50.1869L21.3898 55.6449L16.6094 50.1869ZM28.2231 54.7203C26.6239 55.3261 24.95 55.7052 23.256 55.8286L22.6273 55.8803L26.8822 51.031L28.4815 54.617L28.2231 54.7203ZM34.7262 50.3936C33.2418 51.9153 31.5679 53.147 29.7706 54.0629L29.5237 54.1864L27.9561 50.5056L35.2028 49.8998L34.7262 50.3936ZM27.9044 49.4059L29.6385 43.9594L34.1893 41.7602L35.7081 48.7685L27.9044 49.4059ZM38.6825 43.8475C38.1973 45.1308 37.6489 46.242 37 47.2497L36.6584 47.7838L35.4296 41.9238L38.7629 43.6321L38.6825 43.8475ZM39.2797 42.3458L39.1879 42.633L35.4611 40.7323L40.6521 34.2494L40.6119 35.0504C40.477 37.6085 40.0348 40.0662 39.2797 42.3458Z" fill="black" fill-opacity="0.2"/>
<path d="M40.6062 26.1241C39.8597 23.8071 38.7744 21.582 37.557 19.4803C36.4 17.4677 35.0592 15.4637 33.437 13.3677C32.1163 11.6307 30.6176 9.87362 29.0184 8.1366C27.7694 6.77857 26.4372 5.432 25.085 4.13713C24.2265 3.31599 23.6551 2.78771 22.5526 1.81153C22.4177 1.69956 21.9037 1.25165 21.7401 1.12819C21.2864 0.809497 20.8615 1.12819 20.3045 1.61054L20.2127 1.69088C19.8308 2.02106 19.4576 2.35992 19.0872 2.69009C17.9933 3.68637 16.8879 4.75439 15.794 5.85403C14.347 7.32404 12.9631 8.82564 11.674 10.3358C10.1035 12.1734 8.67941 14.0138 7.44196 15.8111C5.97482 17.9501 4.78908 19.9627 3.80716 21.9983C1.68541 26.3998 0.694858 31.0079 1.08246 35.883C1.35234 39.2796 2.12466 42.6588 3.6119 45.7395C5.45515 49.5581 8.36649 52.7278 12.1363 54.7203C14.9787 56.2219 18.1713 57 21.3898 57C25.8774 57 30.3046 55.4783 33.7758 52.633C37.0977 49.9141 39.3429 46.0812 40.543 42.0042C41.9269 37.2985 42.2169 32.096 40.9593 27.3328C40.8531 26.928 40.7325 26.526 40.6062 26.1241ZM38.2777 23.4281C39.3946 25.8111 40.1382 28.2688 40.477 30.7351L40.6119 31.7399L35.8516 25.2455L38.1227 23.098L38.2777 23.4281ZM21.3898 46.6841L14.235 43.2187L11.272 33.4167L15.2859 21.3092L21.3898 17.014L27.4909 21.3092L31.6397 33.9306L28.6767 43.1584L21.3898 46.6841ZM28.2346 44.6169L26.6957 49.2825L22.6474 47.2985L28.2346 44.6169ZM20.1294 47.2985L16.0811 49.2825L14.7001 44.6887L20.1294 47.2985ZM10.0317 33.3535L7.94731 39.7676L2.55819 33.0262L7.88413 26.3451L10.0317 33.3535ZM8.79428 25.4924L13.7383 22.2768L10.6834 31.5447L8.79428 25.4924ZM10.6318 35.2772L12.8196 42.5526L8.85456 40.6606L10.6318 35.2772ZM15.6591 19.7272L16.8564 13.8587L20.4481 16.3681L15.6591 19.7272ZM22.389 16.2962L25.9922 13.7984L27.1895 19.6555L22.389 16.2962ZM29.0586 22.1849L34.4477 25.4207L32.2914 32.05L29.0586 22.1849ZM32.3632 35.7481L33.9337 40.6606L30.1438 42.5095L32.3632 35.7481ZM32.88 33.8674L35.3061 26.3968L40.1468 33.0349L34.7692 39.7676L32.88 33.8674ZM34.4907 16.7987C35.7798 18.6592 36.7819 20.313 37.5456 21.8749L37.6288 22.0414L35.4296 24.1057L33.7787 15.7824L34.4907 16.7987ZM34.3156 24.054L28.493 20.6001L27.066 13.6347L32.4465 14.9296L34.3156 24.054ZM28.5848 9.3482C29.8539 10.7349 30.9191 11.9896 31.8378 13.1725L32.2914 13.7582L27.066 12.4719L28.2948 9.02944L28.5848 9.3482ZM23.8159 4.55052C24.9414 5.5755 26.1387 6.76991 27.2641 7.98151L27.3675 8.10497L26.242 11.3206L22.9172 3.72654L23.8159 4.55052ZM21.3898 2.99729L25.6735 12.7074L21.3898 15.7106L17.1033 12.7074L21.3898 2.99729ZM15.5155 7.98151C16.6496 6.76991 17.8383 5.5755 18.9724 4.55052L19.871 3.72654L16.5376 11.3206L15.4122 8.10497L15.5155 7.98151ZM11.3036 12.739C12.3028 11.5274 13.2445 10.3875 14.1919 9.3482L14.4934 9.02086L15.6476 12.4719L10.4566 13.7668L11.3036 12.739ZM15.7108 13.6347L14.2867 20.5914L8.95791 23.9937L10.3217 14.9296L15.7108 13.6347ZM5.24271 21.8662C6.18157 20.0258 7.32713 18.2487 8.42102 16.615L9.07278 15.6474L7.77215 24.1459L5.13932 22.0499L5.24271 21.8662ZM2.2998 30.9389C2.5582 28.5243 3.30181 25.9978 4.50767 23.4281L4.64265 23.1295L7.419 25.2972L2.20793 31.8118L2.2998 30.9389ZM3.50855 42.409C2.81661 40.2815 2.38307 37.8956 2.16486 35.1107L2.10458 34.278L7.3185 40.8041L3.60042 42.6961L3.50855 42.409ZM6.03799 47.7406L5.7078 47.1751C5.03596 46.0037 4.53065 44.9672 4.10572 43.9077L4.01385 43.6925L7.35872 41.9755L6.03799 47.7406ZM6.99694 48.7685L8.58754 41.7717L13.2732 44.0226L14.947 49.3974L6.99694 48.7685ZM13.3249 54.1864L13.0779 54.0629C11.2605 53.1355 9.56659 51.8636 8.18559 50.3821L7.72909 49.8998L14.8954 50.5056L13.3249 54.1864ZM19.4576 55.8286C17.8268 55.7052 16.1328 55.3146 14.5537 54.7203L14.3068 54.617L15.8228 51.031L20.0892 55.8803L19.4576 55.8286ZM16.6094 50.1869L21.3898 47.9273L26.1674 50.1869L21.3898 55.6449L16.6094 50.1869ZM28.2231 54.7203C26.6239 55.3261 24.95 55.7052 23.256 55.8286L22.6273 55.8803L26.8822 51.031L28.4815 54.617L28.2231 54.7203ZM34.7262 50.3936C33.2418 51.9153 31.5679 53.147 29.7706 54.0629L29.5237 54.1864L27.9561 50.5056L35.2028 49.8998L34.7262 50.3936ZM27.9044 49.4059L29.6385 43.9594L34.1893 41.7602L35.7081 48.7685L27.9044 49.4059ZM38.6825 43.8475C38.1973 45.1308 37.6489 46.242 37 47.2497L36.6584 47.7838L35.4296 41.9238L38.7629 43.6321L38.6825 43.8475ZM39.2797 42.3458L39.1879 42.633L35.4611 40.7323L40.6521 34.2494L40.6119 35.0504C40.477 37.6085 40.0348 40.0662 39.2797 42.3458Z" fill="black" fill-opacity="0.2"/>
<path d="M40.6062 26.1241C39.8597 23.8071 38.7744 21.582 37.557 19.4803C36.4 17.4677 35.0592 15.4637 33.437 13.3677C32.1163 11.6307 30.6176 9.87362 29.0184 8.1366C27.7694 6.77857 26.4372 5.432 25.085 4.13713C24.2265 3.31599 23.6551 2.78771 22.5526 1.81153C22.4177 1.69956 21.9037 1.25165 21.7401 1.12819C21.2864 0.809497 20.8615 1.12819 20.3045 1.61054L20.2127 1.69088C19.8308 2.02106 19.4576 2.35992 19.0872 2.69009C17.9933 3.68637 16.8879 4.75439 15.794 5.85403C14.347 7.32404 12.9631 8.82564 11.674 10.3358C10.1035 12.1734 8.67941 14.0138 7.44196 15.8111C5.97482 17.9501 4.78908 19.9627 3.80716 21.9983C1.68541 26.3998 0.694858 31.0079 1.08246 35.883C1.35234 39.2796 2.12466 42.6588 3.6119 45.7395C5.45515 49.5581 8.36649 52.7278 12.1363 54.7203C14.9787 56.2219 18.1713 57 21.3898 57C25.8774 57 30.3046 55.4783 33.7758 52.633C37.0977 49.9141 39.3429 46.0812 40.543 42.0042C41.9269 37.2985 42.2169 32.096 40.9593 27.3328C40.8531 26.928 40.7325 26.526 40.6062 26.1241ZM38.2777 23.4281C39.3946 25.8111 40.1382 28.2688 40.477 30.7351L40.6119 31.7399L35.8516 25.2455L38.1227 23.098L38.2777 23.4281ZM21.3898 46.6841L14.235 43.2187L11.272 33.4167L15.2859 21.3092L21.3898 17.014L27.4909 21.3092L31.6397 33.9306L28.6767 43.1584L21.3898 46.6841ZM28.2346 44.6169L26.6957 49.2825L22.6474 47.2985L28.2346 44.6169ZM20.1294 47.2985L16.0811 49.2825L14.7001 44.6887L20.1294 47.2985ZM10.0317 33.3535L7.94731 39.7676L2.55819 33.0262L7.88413 26.3451L10.0317 33.3535ZM8.79428 25.4924L13.7383 22.2768L10.6834 31.5447L8.79428 25.4924ZM10.6318 35.2772L12.8196 42.5526L8.85456 40.6606L10.6318 35.2772ZM15.6591 19.7272L16.8564 13.8587L20.4481 16.3681L15.6591 19.7272ZM22.389 16.2962L25.9922 13.7984L27.1895 19.6555L22.389 16.2962ZM29.0586 22.1849L34.4477 25.4207L32.2914 32.05L29.0586 22.1849ZM32.3632 35.7481L33.9337 40.6606L30.1438 42.5095L32.3632 35.7481ZM32.88 33.8674L35.3061 26.3968L40.1468 33.0349L34.7692 39.7676L32.88 33.8674ZM34.4907 16.7987C35.7798 18.6592 36.7819 20.313 37.5456 21.8749L37.6288 22.0414L35.4296 24.1057L33.7787 15.7824L34.4907 16.7987ZM34.3156 24.054L28.493 20.6001L27.066 13.6347L32.4465 14.9296L34.3156 24.054ZM28.5848 9.3482C29.8539 10.7349 30.9191 11.9896 31.8378 13.1725L32.2914 13.7582L27.066 12.4719L28.2948 9.02944L28.5848 9.3482ZM23.8159 4.55052C24.9414 5.5755 26.1387 6.76991 27.2641 7.98151L27.3675 8.10497L26.242 11.3206L22.9172 3.72654L23.8159 4.55052ZM21.3898 2.99729L25.6735 12.7074L21.3898 15.7106L17.1033 12.7074L21.3898 2.99729ZM15.5155 7.98151C16.6496 6.76991 17.8383 5.5755 18.9724 4.55052L19.871 3.72654L16.5376 11.3206L15.4122 8.10497L15.5155 7.98151ZM11.3036 12.739C12.3028 11.5274 13.2445 10.3875 14.1919 9.3482L14.4934 9.02086L15.6476 12.4719L10.4566 13.7668L11.3036 12.739ZM15.7108 13.6347L14.2867 20.5914L8.95791 23.9937L10.3217 14.9296L15.7108 13.6347ZM5.24271 21.8662C6.18157 20.0258 7.32713 18.2487 8.42102 16.615L9.07278 15.6474L7.77215 24.1459L5.13932 22.0499L5.24271 21.8662ZM2.2998 30.9389C2.5582 28.5243 3.30181 25.9978 4.50767 23.4281L4.64265 23.1295L7.419 25.2972L2.20793 31.8118L2.2998 30.9389ZM3.50855 42.409C2.81661 40.2815 2.38307 37.8956 2.16486 35.1107L2.10458 34.278L7.3185 40.8041L3.60042 42.6961L3.50855 42.409ZM6.03799 47.7406L5.7078 47.1751C5.03596 46.0037 4.53065 44.9672 4.10572 43.9077L4.01385 43.6925L7.35872 41.9755L6.03799 47.7406ZM6.99694 48.7685L8.58754 41.7717L13.2732 44.0226L14.947 49.3974L6.99694 48.7685ZM13.3249 54.1864L13.0779 54.0629C11.2605 53.1355 9.56659 51.8636 8.18559 50.3821L7.72909 49.8998L14.8954 50.5056L13.3249 54.1864ZM19.4576 55.8286C17.8268 55.7052 16.1328 55.3146 14.5537 54.7203L14.3068 54.617L15.8228 51.031L20.0892 55.8803L19.4576 55.8286ZM16.6094 50.1869L21.3898 47.9273L26.1674 50.1869L21.3898 55.6449L16.6094 50.1869ZM28.2231 54.7203C26.6239 55.3261 24.95 55.7052 23.256 55.8286L22.6273 55.8803L26.8822 51.031L28.4815 54.617L28.2231 54.7203ZM34.7262 50.3936C33.2418 51.9153 31.5679 53.147 29.7706 54.0629L29.5237 54.1864L27.9561 50.5056L35.2028 49.8998L34.7262 50.3936ZM27.9044 49.4059L29.6385 43.9594L34.1893 41.7602L35.7081 48.7685L27.9044 49.4059ZM38.6825 43.8475C38.1973 45.1308 37.6489 46.242 37 47.2497L36.6584 47.7838L35.4296 41.9238L38.7629 43.6321L38.6825 43.8475ZM39.2797 42.3458L39.1879 42.633L35.4611 40.7323L40.6521 34.2494L40.6119 35.0504C40.477 37.6085 40.0348 40.0662 39.2797 42.3458Z" fill="black" fill-opacity="0.2"/>
<path d="M40.6062 26.1241C39.8597 23.8071 38.7744 21.582 37.557 19.4803C36.4 17.4677 35.0592 15.4637 33.437 13.3677C32.1163 11.6307 30.6176 9.87362 29.0184 8.1366C27.7694 6.77857 26.4372 5.432 25.085 4.13713C24.2265 3.31599 23.6551 2.78771 22.5526 1.81153C22.4177 1.69956 21.9037 1.25165 21.7401 1.12819C21.2864 0.809497 20.8615 1.12819 20.3045 1.61054L20.2127 1.69088C19.8308 2.02106 19.4576 2.35992 19.0872 2.69009C17.9933 3.68637 16.8879 4.75439 15.794 5.85403C14.347 7.32404 12.9631 8.82564 11.674 10.3358C10.1035 12.1734 8.67941 14.0138 7.44196 15.8111C5.97482 17.9501 4.78908 19.9627 3.80716 21.9983C1.68541 26.3998 0.694858 31.0079 1.08246 35.883C1.35234 39.2796 2.12466 42.6588 3.6119 45.7395C5.45515 49.5581 8.36649 52.7278 12.1363 54.7203C14.9787 56.2219 18.1713 57 21.3898 57C25.8774 57 30.3046 55.4783 33.7758 52.633C37.0977 49.9141 39.3429 46.0812 40.543 42.0042C41.9269 37.2985 42.2169 32.096 40.9593 27.3328C40.8531 26.928 40.7325 26.526 40.6062 26.1241ZM38.2777 23.4281C39.3946 25.8111 40.1382 28.2688 40.477 30.7351L40.6119 31.7399L35.8516 25.2455L38.1227 23.098L38.2777 23.4281ZM21.3898 46.6841L14.235 43.2187L11.272 33.4167L15.2859 21.3092L21.3898 17.014L27.4909 21.3092L31.6397 33.9306L28.6767 43.1584L21.3898 46.6841ZM28.2346 44.6169L26.6957 49.2825L22.6474 47.2985L28.2346 44.6169ZM20.1294 47.2985L16.0811 49.2825L14.7001 44.6887L20.1294 47.2985ZM10.0317 33.3535L7.94731 39.7676L2.55819 33.0262L7.88413 26.3451L10.0317 33.3535ZM8.79428 25.4924L13.7383 22.2768L10.6834 31.5447L8.79428 25.4924ZM10.6318 35.2772L12.8196 42.5526L8.85456 40.6606L10.6318 35.2772ZM15.6591 19.7272L16.8564 13.8587L20.4481 16.3681L15.6591 19.7272ZM22.389 16.2962L25.9922 13.7984L27.1895 19.6555L22.389 16.2962ZM29.0586 22.1849L34.4477 25.4207L32.2914 32.05L29.0586 22.1849ZM32.3632 35.7481L33.9337 40.6606L30.1438 42.5095L32.3632 35.7481ZM32.88 33.8674L35.3061 26.3968L40.1468 33.0349L34.7692 39.7676L32.88 33.8674ZM34.4907 16.7987C35.7798 18.6592 36.7819 20.313 37.5456 21.8749L37.6288 22.0414L35.4296 24.1057L33.7787 15.7824L34.4907 16.7987ZM34.3156 24.054L28.493 20.6001L27.066 13.6347L32.4465 14.9296L34.3156 24.054ZM28.5848 9.3482C29.8539 10.7349 30.9191 11.9896 31.8378 13.1725L32.2914 13.7582L27.066 12.4719L28.2948 9.02944L28.5848 9.3482ZM23.8159 4.55052C24.9414 5.5755 26.1387 6.76991 27.2641 7.98151L27.3675 8.10497L26.242 11.3206L22.9172 3.72654L23.8159 4.55052ZM21.3898 2.99729L25.6735 12.7074L21.3898 15.7106L17.1033 12.7074L21.3898 2.99729ZM15.5155 7.98151C16.6496 6.76991 17.8383 5.5755 18.9724 4.55052L19.871 3.72654L16.5376 11.3206L15.4122 8.10497L15.5155 7.98151ZM11.3036 12.739C12.3028 11.5274 13.2445 10.3875 14.1919 9.3482L14.4934 9.02086L15.6476 12.4719L10.4566 13.7668L11.3036 12.739ZM15.7108 13.6347L14.2867 20.5914L8.95791 23.9937L10.3217 14.9296L15.7108 13.6347ZM5.24271 21.8662C6.18157 20.0258 7.32713 18.2487 8.42102 16.615L9.07278 15.6474L7.77215 24.1459L5.13932 22.0499L5.24271 21.8662ZM2.2998 30.9389C2.5582 28.5243 3.30181 25.9978 4.50767 23.4281L4.64265 23.1295L7.419 25.2972L2.20793 31.8118L2.2998 30.9389ZM3.50855 42.409C2.81661 40.2815 2.38307 37.8956 2.16486 35.1107L2.10458 34.278L7.3185 40.8041L3.60042 42.6961L3.50855 42.409ZM6.03799 47.7406L5.7078 47.1751C5.03596 46.0037 4.53065 44.9672 4.10572 43.9077L4.01385 43.6925L7.35872 41.9755L6.03799 47.7406ZM6.99694 48.7685L8.58754 41.7717L13.2732 44.0226L14.947 49.3974L6.99694 48.7685ZM13.3249 54.1864L13.0779 54.0629C11.2605 53.1355 9.56659 51.8636 8.18559 50.3821L7.72909 49.8998L14.8954 50.5056L13.3249 54.1864ZM19.4576 55.8286C17.8268 55.7052 16.1328 55.3146 14.5537 54.7203L14.3068 54.617L15.8228 51.031L20.0892 55.8803L19.4576 55.8286ZM16.6094 50.1869L21.3898 47.9273L26.1674 50.1869L21.3898 55.6449L16.6094 50.1869ZM28.2231 54.7203C26.6239 55.3261 24.95 55.7052 23.256 55.8286L22.6273 55.8803L26.8822 51.031L28.4815 54.617L28.2231 54.7203ZM34.7262 50.3936C33.2418 51.9153 31.5679 53.147 29.7706 54.0629L29.5237 54.1864L27.9561 50.5056L35.2028 49.8998L34.7262 50.3936ZM27.9044 49.4059L29.6385 43.9594L34.1893 41.7602L35.7081 48.7685L27.9044 49.4059ZM38.6825 43.8475C38.1973 45.1308 37.6489 46.242 37 47.2497L36.6584 47.7838L35.4296 41.9238L38.7629 43.6321L38.6825 43.8475ZM39.2797 42.3458L39.1879 42.633L35.4611 40.7323L40.6521 34.2494L40.6119 35.0504C40.477 37.6085 40.0348 40.0662 39.2797 42.3458Z" fill="black" fill-opacity="0.2"/>
<path d="M40.6062 26.1241C39.8597 23.8071 38.7744 21.582 37.557 19.4803C36.4 17.4677 35.0592 15.4637 33.437 13.3677C32.1163 11.6307 30.6176 9.87362 29.0184 8.1366C27.7694 6.77857 26.4372 5.432 25.085 4.13713C24.2265 3.31599 23.6551 2.78771 22.5526 1.81153C22.4177 1.69956 21.9037 1.25165 21.7401 1.12819C21.2864 0.809497 20.8615 1.12819 20.3045 1.61054L20.2127 1.69088C19.8308 2.02106 19.4576 2.35992 19.0872 2.69009C17.9933 3.68637 16.8879 4.75439 15.794 5.85403C14.347 7.32404 12.9631 8.82564 11.674 10.3358C10.1035 12.1734 8.67941 14.0138 7.44196 15.8111C5.97482 17.9501 4.78908 19.9627 3.80716 21.9983C1.68541 26.3998 0.694858 31.0079 1.08246 35.883C1.35234 39.2796 2.12466 42.6588 3.6119 45.7395C5.45515 49.5581 8.36649 52.7278 12.1363 54.7203C14.9787 56.2219 18.1713 57 21.3898 57C25.8774 57 30.3046 55.4783 33.7758 52.633C37.0977 49.9141 39.3429 46.0812 40.543 42.0042C41.9269 37.2985 42.2169 32.096 40.9593 27.3328C40.8531 26.928 40.7325 26.526 40.6062 26.1241ZM38.2777 23.4281C39.3946 25.8111 40.1382 28.2688 40.477 30.7351L40.6119 31.7399L35.8516 25.2455L38.1227 23.098L38.2777 23.4281ZM21.3898 46.6841L14.235 43.2187L11.272 33.4167L15.2859 21.3092L21.3898 17.014L27.4909 21.3092L31.6397 33.9306L28.6767 43.1584L21.3898 46.6841ZM28.2346 44.6169L26.6957 49.2825L22.6474 47.2985L28.2346 44.6169ZM20.1294 47.2985L16.0811 49.2825L14.7001 44.6887L20.1294 47.2985ZM10.0317 33.3535L7.94731 39.7676L2.55819 33.0262L7.88413 26.3451L10.0317 33.3535ZM8.79428 25.4924L13.7383 22.2768L10.6834 31.5447L8.79428 25.4924ZM10.6318 35.2772L12.8196 42.5526L8.85456 40.6606L10.6318 35.2772ZM15.6591 19.7272L16.8564 13.8587L20.4481 16.3681L15.6591 19.7272ZM22.389 16.2962L25.9922 13.7984L27.1895 19.6555L22.389 16.2962ZM29.0586 22.1849L34.4477 25.4207L32.2914 32.05L29.0586 22.1849ZM32.3632 35.7481L33.9337 40.6606L30.1438 42.5095L32.3632 35.7481ZM32.88 33.8674L35.3061 26.3968L40.1468 33.0349L34.7692 39.7676L32.88 33.8674ZM34.4907 16.7987C35.7798 18.6592 36.7819 20.313 37.5456 21.8749L37.6288 22.0414L35.4296 24.1057L33.7787 15.7824L34.4907 16.7987ZM34.3156 24.054L28.493 20.6001L27.066 13.6347L32.4465 14.9296L34.3156 24.054ZM28.5848 9.3482C29.8539 10.7349 30.9191 11.9896 31.8378 13.1725L32.2914 13.7582L27.066 12.4719L28.2948 9.02944L28.5848 9.3482ZM23.8159 4.55052C24.9414 5.5755 26.1387 6.76991 27.2641 7.98151L27.3675 8.10497L26.242 11.3206L22.9172 3.72654L23.8159 4.55052ZM21.3898 2.99729L25.6735 12.7074L21.3898 15.7106L17.1033 12.7074L21.3898 2.99729ZM15.5155 7.98151C16.6496 6.76991 17.8383 5.5755 18.9724 4.55052L19.871 3.72654L16.5376 11.3206L15.4122 8.10497L15.5155 7.98151ZM11.3036 12.739C12.3028 11.5274 13.2445 10.3875 14.1919 9.3482L14.4934 9.02086L15.6476 12.4719L10.4566 13.7668L11.3036 12.739ZM15.7108 13.6347L14.2867 20.5914L8.95791 23.9937L10.3217 14.9296L15.7108 13.6347ZM5.24271 21.8662C6.18157 20.0258 7.32713 18.2487 8.42102 16.615L9.07278 15.6474L7.77215 24.1459L5.13932 22.0499L5.24271 21.8662ZM2.2998 30.9389C2.5582 28.5243 3.30181 25.9978 4.50767 23.4281L4.64265 23.1295L7.419 25.2972L2.20793 31.8118L2.2998 30.9389ZM3.50855 42.409C2.81661 40.2815 2.38307 37.8956 2.16486 35.1107L2.10458 34.278L7.3185 40.8041L3.60042 42.6961L3.50855 42.409ZM6.03799 47.7406L5.7078 47.1751C5.03596 46.0037 4.53065 44.9672 4.10572 43.9077L4.01385 43.6925L7.35872 41.9755L6.03799 47.7406ZM6.99694 48.7685L8.58754 41.7717L13.2732 44.0226L14.947 49.3974L6.99694 48.7685ZM13.3249 54.1864L13.0779 54.0629C11.2605 53.1355 9.56659 51.8636 8.18559 50.3821L7.72909 49.8998L14.8954 50.5056L13.3249 54.1864ZM19.4576 55.8286C17.8268 55.7052 16.1328 55.3146 14.5537 54.7203L14.3068 54.617L15.8228 51.031L20.0892 55.8803L19.4576 55.8286ZM16.6094 50.1869L21.3898 47.9273L26.1674 50.1869L21.3898 55.6449L16.6094 50.1869ZM28.2231 54.7203C26.6239 55.3261 24.95 55.7052 23.256 55.8286L22.6273 55.8803L26.8822 51.031L28.4815 54.617L28.2231 54.7203ZM34.7262 50.3936C33.2418 51.9153 31.5679 53.147 29.7706 54.0629L29.5237 54.1864L27.9561 50.5056L35.2028 49.8998L34.7262 50.3936ZM27.9044 49.4059L29.6385 43.9594L34.1893 41.7602L35.7081 48.7685L27.9044 49.4059ZM38.6825 43.8475C38.1973 45.1308 37.6489 46.242 37 47.2497L36.6584 47.7838L35.4296 41.9238L38.7629 43.6321L38.6825 43.8475ZM39.2797 42.3458L39.1879 42.633L35.4611 40.7323L40.6521 34.2494L40.6119 35.0504C40.477 37.6085 40.0348 40.0662 39.2797 42.3458Z" fill="black" fill-opacity="0.2"/>
<path d="M40.6062 26.1241C39.8597 23.8071 38.7744 21.582 37.557 19.4803C36.4 17.4677 35.0592 15.4637 33.437 13.3677C32.1163 11.6307 30.6176 9.87362 29.0184 8.1366C27.7694 6.77857 26.4372 5.432 25.085 4.13713C24.2265 3.31599 23.6551 2.78771 22.5526 1.81153C22.4177 1.69956 21.9037 1.25165 21.7401 1.12819C21.2864 0.809497 20.8615 1.12819 20.3045 1.61054L20.2127 1.69088C19.8308 2.02106 19.4576 2.35992 19.0872 2.69009C17.9933 3.68637 16.8879 4.75439 15.794 5.85403C14.347 7.32404 12.9631 8.82564 11.674 10.3358C10.1035 12.1734 8.67941 14.0138 7.44196 15.8111C5.97482 17.9501 4.78908 19.9627 3.80716 21.9983C1.68541 26.3998 0.694858 31.0079 1.08246 35.883C1.35234 39.2796 2.12466 42.6588 3.6119 45.7395C5.45515 49.5581 8.36649 52.7278 12.1363 54.7203C14.9787 56.2219 18.1713 57 21.3898 57C25.8774 57 30.3046 55.4783 33.7758 52.633C37.0977 49.9141 39.3429 46.0812 40.543 42.0042C41.9269 37.2985 42.2169 32.096 40.9593 27.3328C40.8531 26.928 40.7325 26.526 40.6062 26.1241ZM38.2777 23.4281C39.3946 25.8111 40.1382 28.2688 40.477 30.7351L40.6119 31.7399L35.8516 25.2455L38.1227 23.098L38.2777 23.4281ZM21.3898 46.6841L14.235 43.2187L11.272 33.4167L15.2859 21.3092L21.3898 17.014L27.4909 21.3092L31.6397 33.9306L28.6767 43.1584L21.3898 46.6841ZM28.2346 44.6169L26.6957 49.2825L22.6474 47.2985L28.2346 44.6169ZM20.1294 47.2985L16.0811 49.2825L14.7001 44.6887L20.1294 47.2985ZM10.0317 33.3535L7.94731 39.7676L2.55819 33.0262L7.88413 26.3451L10.0317 33.3535ZM8.79428 25.4924L13.7383 22.2768L10.6834 31.5447L8.79428 25.4924ZM10.6318 35.2772L12.8196 42.5526L8.85456 40.6606L10.6318 35.2772ZM15.6591 19.7272L16.8564 13.8587L20.4481 16.3681L15.6591 19.7272ZM22.389 16.2962L25.9922 13.7984L27.1895 19.6555L22.389 16.2962ZM29.0586 22.1849L34.4477 25.4207L32.2914 32.05L29.0586 22.1849ZM32.3632 35.7481L33.9337 40.6606L30.1438 42.5095L32.3632 35.7481ZM32.88 33.8674L35.3061 26.3968L40.1468 33.0349L34.7692 39.7676L32.88 33.8674ZM34.4907 16.7987C35.7798 18.6592 36.7819 20.313 37.5456 21.8749L37.6288 22.0414L35.4296 24.1057L33.7787 15.7824L34.4907 16.7987ZM34.3156 24.054L28.493 20.6001L27.066 13.6347L32.4465 14.9296L34.3156 24.054ZM28.5848 9.3482C29.8539 10.7349 30.9191 11.9896 31.8378 13.1725L32.2914 13.7582L27.066 12.4719L28.2948 9.02944L28.5848 9.3482ZM23.8159 4.55052C24.9414 5.5755 26.1387 6.76991 27.2641 7.98151L27.3675 8.10497L26.242 11.3206L22.9172 3.72654L23.8159 4.55052ZM21.3898 2.99729L25.6735 12.7074L21.3898 15.7106L17.1033 12.7074L21.3898 2.99729ZM15.5155 7.98151C16.6496 6.76991 17.8383 5.5755 18.9724 4.55052L19.871 3.72654L16.5376 11.3206L15.4122 8.10497L15.5155 7.98151ZM11.3036 12.739C12.3028 11.5274 13.2445 10.3875 14.1919 9.3482L14.4934 9.02086L15.6476 12.4719L10.4566 13.7668L11.3036 12.739ZM15.7108 13.6347L14.2867 20.5914L8.95791 23.9937L10.3217 14.9296L15.7108 13.6347ZM5.24271 21.8662C6.18157 20.0258 7.32713 18.2487 8.42102 16.615L9.07278 15.6474L7.77215 24.1459L5.13932 22.0499L5.24271 21.8662ZM2.2998 30.9389C2.5582 28.5243 3.30181 25.9978 4.50767 23.4281L4.64265 23.1295L7.419 25.2972L2.20793 31.8118L2.2998 30.9389ZM3.50855 42.409C2.81661 40.2815 2.38307 37.8956 2.16486 35.1107L2.10458 34.278L7.3185 40.8041L3.60042 42.6961L3.50855 42.409ZM6.03799 47.7406L5.7078 47.1751C5.03596 46.0037 4.53065 44.9672 4.10572 43.9077L4.01385 43.6925L7.35872 41.9755L6.03799 47.7406ZM6.99694 48.7685L8.58754 41.7717L13.2732 44.0226L14.947 49.3974L6.99694 48.7685ZM13.3249 54.1864L13.0779 54.0629C11.2605 53.1355 9.56659 51.8636 8.18559 50.3821L7.72909 49.8998L14.8954 50.5056L13.3249 54.1864ZM19.4576 55.8286C17.8268 55.7052 16.1328 55.3146 14.5537 54.7203L14.3068 54.617L15.8228 51.031L20.0892 55.8803L19.4576 55.8286ZM16.6094 50.1869L21.3898 47.9273L26.1674 50.1869L21.3898 55.6449L16.6094 50.1869ZM28.2231 54.7203C26.6239 55.3261 24.95 55.7052 23.256 55.8286L22.6273 55.8803L26.8822 51.031L28.4815 54.617L28.2231 54.7203ZM34.7262 50.3936C33.2418 51.9153 31.5679 53.147 29.7706 54.0629L29.5237 54.1864L27.9561 50.5056L35.2028 49.8998L34.7262 50.3936ZM27.9044 49.4059L29.6385 43.9594L34.1893 41.7602L35.7081 48.7685L27.9044 49.4059ZM38.6825 43.8475C38.1973 45.1308 37.6489 46.242 37 47.2497L36.6584 47.7838L35.4296 41.9238L38.7629 43.6321L38.6825 43.8475ZM39.2797 42.3458L39.1879 42.633L35.4611 40.7323L40.6521 34.2494L40.6119 35.0504C40.477 37.6085 40.0348 40.0662 39.2797 42.3458Z" fill="black" fill-opacity="0.2"/>
<path d="M40.6062 26.1241C39.8597 23.8071 38.7744 21.582 37.557 19.4803C36.4 17.4677 35.0592 15.4637 33.437 13.3677C32.1163 11.6307 30.6176 9.87362 29.0184 8.1366C27.7694 6.77857 26.4372 5.432 25.085 4.13713C24.2265 3.31599 23.6551 2.78771 22.5526 1.81153C22.4177 1.69956 21.9037 1.25165 21.7401 1.12819C21.2864 0.809497 20.8615 1.12819 20.3045 1.61054L20.2127 1.69088C19.8308 2.02106 19.4576 2.35992 19.0872 2.69009C17.9933 3.68637 16.8879 4.75439 15.794 5.85403C14.347 7.32404 12.9631 8.82564 11.674 10.3358C10.1035 12.1734 8.67941 14.0138 7.44196 15.8111C5.97482 17.9501 4.78908 19.9627 3.80716 21.9983C1.68541 26.3998 0.694858 31.0079 1.08246 35.883C1.35234 39.2796 2.12466 42.6588 3.6119 45.7395C5.45515 49.5581 8.36649 52.7278 12.1363 54.7203C14.9787 56.2219 18.1713 57 21.3898 57C25.8774 57 30.3046 55.4783 33.7758 52.633C37.0977 49.9141 39.3429 46.0812 40.543 42.0042C41.9269 37.2985 42.2169 32.096 40.9593 27.3328C40.8531 26.928 40.7325 26.526 40.6062 26.1241ZM38.2777 23.4281C39.3946 25.8111 40.1382 28.2688 40.477 30.7351L40.6119 31.7399L35.8516 25.2455L38.1227 23.098L38.2777 23.4281ZM21.3898 46.6841L14.235 43.2187L11.272 33.4167L15.2859 21.3092L21.3898 17.014L27.4909 21.3092L31.6397 33.9306L28.6767 43.1584L21.3898 46.6841ZM28.2346 44.6169L26.6957 49.2825L22.6474 47.2985L28.2346 44.6169ZM20.1294 47.2985L16.0811 49.2825L14.7001 44.6887L20.1294 47.2985ZM10.0317 33.3535L7.94731 39.7676L2.55819 33.0262L7.88413 26.3451L10.0317 33.3535ZM8.79428 25.4924L13.7383 22.2768L10.6834 31.5447L8.79428 25.4924ZM10.6318 35.2772L12.8196 42.5526L8.85456 40.6606L10.6318 35.2772ZM15.6591 19.7272L16.8564 13.8587L20.4481 16.3681L15.6591 19.7272ZM22.389 16.2962L25.9922 13.7984L27.1895 19.6555L22.389 16.2962ZM29.0586 22.1849L34.4477 25.4207L32.2914 32.05L29.0586 22.1849ZM32.3632 35.7481L33.9337 40.6606L30.1438 42.5095L32.3632 35.7481ZM32.88 33.8674L35.3061 26.3968L40.1468 33.0349L34.7692 39.7676L32.88 33.8674ZM34.4907 16.7987C35.7798 18.6592 36.7819 20.313 37.5456 21.8749L37.6288 22.0414L35.4296 24.1057L33.7787 15.7824L34.4907 16.7987ZM34.3156 24.054L28.493 20.6001L27.066 13.6347L32.4465 14.9296L34.3156 24.054ZM28.5848 9.3482C29.8539 10.7349 30.9191 11.9896 31.8378 13.1725L32.2914 13.7582L27.066 12.4719L28.2948 9.02944L28.5848 9.3482ZM23.8159 4.55052C24.9414 5.5755 26.1387 6.76991 27.2641 7.98151L27.3675 8.10497L26.242 11.3206L22.9172 3.72654L23.8159 4.55052ZM21.3898 2.99729L25.6735 12.7074L21.3898 15.7106L17.1033 12.7074L21.3898 2.99729ZM15.5155 7.98151C16.6496 6.76991 17.8383 5.5755 18.9724 4.55052L19.871 3.72654L16.5376 11.3206L15.4122 8.10497L15.5155 7.98151ZM11.3036 12.739C12.3028 11.5274 13.2445 10.3875 14.1919 9.3482L14.4934 9.02086L15.6476 12.4719L10.4566 13.7668L11.3036 12.739ZM15.7108 13.6347L14.2867 20.5914L8.95791 23.9937L10.3217 14.9296L15.7108 13.6347ZM5.24271 21.8662C6.18157 20.0258 7.32713 18.2487 8.42102 16.615L9.07278 15.6474L7.77215 24.1459L5.13932 22.0499L5.24271 21.8662ZM2.2998 30.9389C2.5582 28.5243 3.30181 25.9978 4.50767 23.4281L4.64265 23.1295L7.419 25.2972L2.20793 31.8118L2.2998 30.9389ZM3.50855 42.409C2.81661 40.2815 2.38307 37.8956 2.16486 35.1107L2.10458 34.278L7.3185 40.8041L3.60042 42.6961L3.50855 42.409ZM6.03799 47.7406L5.7078 47.1751C5.03596 46.0037 4.53065 44.9672 4.10572 43.9077L4.01385 43.6925L7.35872 41.9755L6.03799 47.7406ZM6.99694 48.7685L8.58754 41.7717L13.2732 44.0226L14.947 49.3974L6.99694 48.7685ZM13.3249 54.1864L13.0779 54.0629C11.2605 53.1355 9.56659 51.8636 8.18559 50.3821L7.72909 49.8998L14.8954 50.5056L13.3249 54.1864ZM19.4576 55.8286C17.8268 55.7052 16.1328 55.3146 14.5537 54.7203L14.3068 54.617L15.8228 51.031L20.0892 55.8803L19.4576 55.8286ZM16.6094 50.1869L21.3898 47.9273L26.1674 50.1869L21.3898 55.6449L16.6094 50.1869ZM28.2231 54.7203C26.6239 55.3261 24.95 55.7052 23.256 55.8286L22.6273 55.8803L26.8822 51.031L28.4815 54.617L28.2231 54.7203ZM34.7262 50.3936C33.2418 51.9153 31.5679 53.147 29.7706 54.0629L29.5237 54.1864L27.9561 50.5056L35.2028 49.8998L34.7262 50.3936ZM27.9044 49.4059L29.6385 43.9594L34.1893 41.7602L35.7081 48.7685L27.9044 49.4059ZM38.6825 43.8475C38.1973 45.1308 37.6489 46.242 37 47.2497L36.6584 47.7838L35.4296 41.9238L38.7629 43.6321L38.6825 43.8475ZM39.2797 42.3458L39.1879 42.633L35.4611 40.7323L40.6521 34.2494L40.6119 35.0504C40.477 37.6085 40.0348 40.0662 39.2797 42.3458Z" fill="black" fill-opacity="0.2"/>
<path d="M40.6062 26.1241C39.8597 23.8071 38.7744 21.582 37.557 19.4803C36.4 17.4677 35.0592 15.4637 33.437 13.3677C32.1163 11.6307 30.6176 9.87362 29.0184 8.1366C27.7694 6.77857 26.4372 5.432 25.085 4.13713C24.2265 3.31599 23.6551 2.78771 22.5526 1.81153C22.4177 1.69956 21.9037 1.25165 21.7401 1.12819C21.2864 0.809497 20.8615 1.12819 20.3045 1.61054L20.2127 1.69088C19.8308 2.02106 19.4576 2.35992 19.0872 2.69009C17.9933 3.68637 16.8879 4.75439 15.794 5.85403C14.347 7.32404 12.9631 8.82564 11.674 10.3358C10.1035 12.1734 8.67941 14.0138 7.44196 15.8111C5.97482 17.9501 4.78908 19.9627 3.80716 21.9983C1.68541 26.3998 0.694858 31.0079 1.08246 35.883C1.35234 39.2796 2.12466 42.6588 3.6119 45.7395C5.45515 49.5581 8.36649 52.7278 12.1363 54.7203C14.9787 56.2219 18.1713 57 21.3898 57C25.8774 57 30.3046 55.4783 33.7758 52.633C37.0977 49.9141 39.3429 46.0812 40.543 42.0042C41.9269 37.2985 42.2169 32.096 40.9593 27.3328C40.8531 26.928 40.7325 26.526 40.6062 26.1241ZM38.2777 23.4281C39.3946 25.8111 40.1382 28.2688 40.477 30.7351L40.6119 31.7399L35.8516 25.2455L38.1227 23.098L38.2777 23.4281ZM21.3898 46.6841L14.235 43.2187L11.272 33.4167L15.2859 21.3092L21.3898 17.014L27.4909 21.3092L31.6397 33.9306L28.6767 43.1584L21.3898 46.6841ZM28.2346 44.6169L26.6957 49.2825L22.6474 47.2985L28.2346 44.6169ZM20.1294 47.2985L16.0811 49.2825L14.7001 44.6887L20.1294 47.2985ZM10.0317 33.3535L7.94731 39.7676L2.55819 33.0262L7.88413 26.3451L10.0317 33.3535ZM8.79428 25.4924L13.7383 22.2768L10.6834 31.5447L8.79428 25.4924ZM10.6318 35.2772L12.8196 42.5526L8.85456 40.6606L10.6318 35.2772ZM15.6591 19.7272L16.8564 13.8587L20.4481 16.3681L15.6591 19.7272ZM22.389 16.2962L25.9922 13.7984L27.1895 19.6555L22.389 16.2962ZM29.0586 22.1849L34.4477 25.4207L32.2914 32.05L29.0586 22.1849ZM32.3632 35.7481L33.9337 40.6606L30.1438 42.5095L32.3632 35.7481ZM32.88 33.8674L35.3061 26.3968L40.1468 33.0349L34.7692 39.7676L32.88 33.8674ZM34.4907 16.7987C35.7798 18.6592 36.7819 20.313 37.5456 21.8749L37.6288 22.0414L35.4296 24.1057L33.7787 15.7824L34.4907 16.7987ZM34.3156 24.054L28.493 20.6001L27.066 13.6347L32.4465 14.9296L34.3156 24.054ZM28.5848 9.3482C29.8539 10.7349 30.9191 11.9896 31.8378 13.1725L32.2914 13.7582L27.066 12.4719L28.2948 9.02944L28.5848 9.3482ZM23.8159 4.55052C24.9414 5.5755 26.1387 6.76991 27.2641 7.98151L27.3675 8.10497L26.242 11.3206L22.9172 3.72654L23.8159 4.55052ZM21.3898 2.99729L25.6735 12.7074L21.3898 15.7106L17.1033 12.7074L21.3898 2.99729ZM15.5155 7.98151C16.6496 6.76991 17.8383 5.5755 18.9724 4.55052L19.871 3.72654L16.5376 11.3206L15.4122 8.10497L15.5155 7.98151ZM11.3036 12.739C12.3028 11.5274 13.2445 10.3875 14.1919 9.3482L14.4934 9.02086L15.6476 12.4719L10.4566 13.7668L11.3036 12.739ZM15.7108 13.6347L14.2867 20.5914L8.95791 23.9937L10.3217 14.9296L15.7108 13.6347ZM5.24271 21.8662C6.18157 20.0258 7.32713 18.2487 8.42102 16.615L9.07278 15.6474L7.77215 24.1459L5.13932 22.0499L5.24271 21.8662ZM2.2998 30.9389C2.5582 28.5243 3.30181 25.9978 4.50767 23.4281L4.64265 23.1295L7.419 25.2972L2.20793 31.8118L2.2998 30.9389ZM3.50855 42.409C2.81661 40.2815 2.38307 37.8956 2.16486 35.1107L2.10458 34.278L7.3185 40.8041L3.60042 42.6961L3.50855 42.409ZM6.03799 47.7406L5.7078 47.1751C5.03596 46.0037 4.53065 44.9672 4.10572 43.9077L4.01385 43.6925L7.35872 41.9755L6.03799 47.7406ZM6.99694 48.7685L8.58754 41.7717L13.2732 44.0226L14.947 49.3974L6.99694 48.7685ZM13.3249 54.1864L13.0779 54.0629C11.2605 53.1355 9.56659 51.8636 8.18559 50.3821L7.72909 49.8998L14.8954 50.5056L13.3249 54.1864ZM19.4576 55.8286C17.8268 55.7052 16.1328 55.3146 14.5537 54.7203L14.3068 54.617L15.8228 51.031L20.0892 55.8803L19.4576 55.8286ZM16.6094 50.1869L21.3898 47.9273L26.1674 50.1869L21.3898 55.6449L16.6094 50.1869ZM28.2231 54.7203C26.6239 55.3261 24.95 55.7052 23.256 55.8286L22.6273 55.8803L26.8822 51.031L28.4815 54.617L28.2231 54.7203ZM34.7262 50.3936C33.2418 51.9153 31.5679 53.147 29.7706 54.0629L29.5237 54.1864L27.9561 50.5056L35.2028 49.8998L34.7262 50.3936ZM27.9044 49.4059L29.6385 43.9594L34.1893 41.7602L35.7081 48.7685L27.9044 49.4059ZM38.6825 43.8475C38.1973 45.1308 37.6489 46.242 37 47.2497L36.6584 47.7838L35.4296 41.9238L38.7629 43.6321L38.6825 43.8475ZM39.2797 42.3458L39.1879 42.633L35.4611 40.7323L40.6521 34.2494L40.6119 35.0504C40.477 37.6085 40.0348 40.0662 39.2797 42.3458Z" stroke="#333335" stroke-width="0.22"/>
<path d="M40.6062 26.1241C39.8597 23.8071 38.7744 21.582 37.557 19.4803C36.4 17.4677 35.0592 15.4637 33.437 13.3677C32.1163 11.6307 30.6176 9.87362 29.0184 8.1366C27.7694 6.77857 26.4372 5.432 25.085 4.13713C24.2265 3.31599 23.6551 2.78771 22.5526 1.81153C22.4177 1.69956 21.9037 1.25165 21.7401 1.12819C21.2864 0.809497 20.8615 1.12819 20.3045 1.61054L20.2127 1.69088C19.8308 2.02106 19.4576 2.35992 19.0872 2.69009C17.9933 3.68637 16.8879 4.75439 15.794 5.85403C14.347 7.32404 12.9631 8.82564 11.674 10.3358C10.1035 12.1734 8.67941 14.0138 7.44196 15.8111C5.97482 17.9501 4.78908 19.9627 3.80716 21.9983C1.68541 26.3998 0.694858 31.0079 1.08246 35.883C1.35234 39.2796 2.12466 42.6588 3.6119 45.7395C5.45515 49.5581 8.36649 52.7278 12.1363 54.7203C14.9787 56.2219 18.1713 57 21.3898 57C25.8774 57 30.3046 55.4783 33.7758 52.633C37.0977 49.9141 39.3429 46.0812 40.543 42.0042C41.9269 37.2985 42.2169 32.096 40.9593 27.3328C40.8531 26.928 40.7325 26.526 40.6062 26.1241ZM38.2777 23.4281C39.3946 25.8111 40.1382 28.2688 40.477 30.7351L40.6119 31.7399L35.8516 25.2455L38.1227 23.098L38.2777 23.4281ZM21.3898 46.6841L14.235 43.2187L11.272 33.4167L15.2859 21.3092L21.3898 17.014L27.4909 21.3092L31.6397 33.9306L28.6767 43.1584L21.3898 46.6841ZM28.2346 44.6169L26.6957 49.2825L22.6474 47.2985L28.2346 44.6169ZM20.1294 47.2985L16.0811 49.2825L14.7001 44.6887L20.1294 47.2985ZM10.0317 33.3535L7.94731 39.7676L2.55819 33.0262L7.88413 26.3451L10.0317 33.3535ZM8.79428 25.4924L13.7383 22.2768L10.6834 31.5447L8.79428 25.4924ZM10.6318 35.2772L12.8196 42.5526L8.85456 40.6606L10.6318 35.2772ZM15.6591 19.7272L16.8564 13.8587L20.4481 16.3681L15.6591 19.7272ZM22.389 16.2962L25.9922 13.7984L27.1895 19.6555L22.389 16.2962ZM29.0586 22.1849L34.4477 25.4207L32.2914 32.05L29.0586 22.1849ZM32.3632 35.7481L33.9337 40.6606L30.1438 42.5095L32.3632 35.7481ZM32.88 33.8674L35.3061 26.3968L40.1468 33.0349L34.7692 39.7676L32.88 33.8674ZM34.4907 16.7987C35.7798 18.6592 36.7819 20.313 37.5456 21.8749L37.6288 22.0414L35.4296 24.1057L33.7787 15.7824L34.4907 16.7987ZM34.3156 24.054L28.493 20.6001L27.066 13.6347L32.4465 14.9296L34.3156 24.054ZM28.5848 9.3482C29.8539 10.7349 30.9191 11.9896 31.8378 13.1725L32.2914 13.7582L27.066 12.4719L28.2948 9.02944L28.5848 9.3482ZM23.8159 4.55052C24.9414 5.5755 26.1387 6.76991 27.2641 7.98151L27.3675 8.10497L26.242 11.3206L22.9172 3.72654L23.8159 4.55052ZM21.3898 2.99729L25.6735 12.7074L21.3898 15.7106L17.1033 12.7074L21.3898 2.99729ZM15.5155 7.98151C16.6496 6.76991 17.8383 5.5755 18.9724 4.55052L19.871 3.72654L16.5376 11.3206L15.4122 8.10497L15.5155 7.98151ZM11.3036 12.739C12.3028 11.5274 13.2445 10.3875 14.1919 9.3482L14.4934 9.02086L15.6476 12.4719L10.4566 13.7668L11.3036 12.739ZM15.7108 13.6347L14.2867 20.5914L8.95791 23.9937L10.3217 14.9296L15.7108 13.6347ZM5.24271 21.8662C6.18157 20.0258 7.32713 18.2487 8.42102 16.615L9.07278 15.6474L7.77215 24.1459L5.13932 22.0499L5.24271 21.8662ZM2.2998 30.9389C2.5582 28.5243 3.30181 25.9978 4.50767 23.4281L4.64265 23.1295L7.419 25.2972L2.20793 31.8118L2.2998 30.9389ZM3.50855 42.409C2.81661 40.2815 2.38307 37.8956 2.16486 35.1107L2.10458 34.278L7.3185 40.8041L3.60042 42.6961L3.50855 42.409ZM6.03799 47.7406L5.7078 47.1751C5.03596 46.0037 4.53065 44.9672 4.10572 43.9077L4.01385 43.6925L7.35872 41.9755L6.03799 47.7406ZM6.99694 48.7685L8.58754 41.7717L13.2732 44.0226L14.947 49.3974L6.99694 48.7685ZM13.3249 54.1864L13.0779 54.0629C11.2605 53.1355 9.56659 51.8636 8.18559 50.3821L7.72909 49.8998L14.8954 50.5056L13.3249 54.1864ZM19.4576 55.8286C17.8268 55.7052 16.1328 55.3146 14.5537 54.7203L14.3068 54.617L15.8228 51.031L20.0892 55.8803L19.4576 55.8286ZM16.6094 50.1869L21.3898 47.9273L26.1674 50.1869L21.3898 55.6449L16.6094 50.1869ZM28.2231 54.7203C26.6239 55.3261 24.95 55.7052 23.256 55.8286L22.6273 55.8803L26.8822 51.031L28.4815 54.617L28.2231 54.7203ZM34.7262 50.3936C33.2418 51.9153 31.5679 53.147 29.7706 54.0629L29.5237 54.1864L27.9561 50.5056L35.2028 49.8998L34.7262 50.3936ZM27.9044 49.4059L29.6385 43.9594L34.1893 41.7602L35.7081 48.7685L27.9044 49.4059ZM38.6825 43.8475C38.1973 45.1308 37.6489 46.242 37 47.2497L36.6584 47.7838L35.4296 41.9238L38.7629 43.6321L38.6825 43.8475ZM39.2797 42.3458L39.1879 42.633L35.4611 40.7323L40.6521 34.2494L40.6119 35.0504C40.477 37.6085 40.0348 40.0662 39.2797 42.3458Z" stroke="black" stroke-opacity="0.2" stroke-width="0.22"/>
<path d="M40.6062 26.1241C39.8597 23.8071 38.7744 21.582 37.557 19.4803C36.4 17.4677 35.0592 15.4637 33.437 13.3677C32.1163 11.6307 30.6176 9.87362 29.0184 8.1366C27.7694 6.77857 26.4372 5.432 25.085 4.13713C24.2265 3.31599 23.6551 2.78771 22.5526 1.81153C22.4177 1.69956 21.9037 1.25165 21.7401 1.12819C21.2864 0.809497 20.8615 1.12819 20.3045 1.61054L20.2127 1.69088C19.8308 2.02106 19.4576 2.35992 19.0872 2.69009C17.9933 3.68637 16.8879 4.75439 15.794 5.85403C14.347 7.32404 12.9631 8.82564 11.674 10.3358C10.1035 12.1734 8.67941 14.0138 7.44196 15.8111C5.97482 17.9501 4.78908 19.9627 3.80716 21.9983C1.68541 26.3998 0.694858 31.0079 1.08246 35.883C1.35234 39.2796 2.12466 42.6588 3.6119 45.7395C5.45515 49.5581 8.36649 52.7278 12.1363 54.7203C14.9787 56.2219 18.1713 57 21.3898 57C25.8774 57 30.3046 55.4783 33.7758 52.633C37.0977 49.9141 39.3429 46.0812 40.543 42.0042C41.9269 37.2985 42.2169 32.096 40.9593 27.3328C40.8531 26.928 40.7325 26.526 40.6062 26.1241ZM38.2777 23.4281C39.3946 25.8111 40.1382 28.2688 40.477 30.7351L40.6119 31.7399L35.8516 25.2455L38.1227 23.098L38.2777 23.4281ZM21.3898 46.6841L14.235 43.2187L11.272 33.4167L15.2859 21.3092L21.3898 17.014L27.4909 21.3092L31.6397 33.9306L28.6767 43.1584L21.3898 46.6841ZM28.2346 44.6169L26.6957 49.2825L22.6474 47.2985L28.2346 44.6169ZM20.1294 47.2985L16.0811 49.2825L14.7001 44.6887L20.1294 47.2985ZM10.0317 33.3535L7.94731 39.7676L2.55819 33.0262L7.88413 26.3451L10.0317 33.3535ZM8.79428 25.4924L13.7383 22.2768L10.6834 31.5447L8.79428 25.4924ZM10.6318 35.2772L12.8196 42.5526L8.85456 40.6606L10.6318 35.2772ZM15.6591 19.7272L16.8564 13.8587L20.4481 16.3681L15.6591 19.7272ZM22.389 16.2962L25.9922 13.7984L27.1895 19.6555L22.389 16.2962ZM29.0586 22.1849L34.4477 25.4207L32.2914 32.05L29.0586 22.1849ZM32.3632 35.7481L33.9337 40.6606L30.1438 42.5095L32.3632 35.7481ZM32.88 33.8674L35.3061 26.3968L40.1468 33.0349L34.7692 39.7676L32.88 33.8674ZM34.4907 16.7987C35.7798 18.6592 36.7819 20.313 37.5456 21.8749L37.6288 22.0414L35.4296 24.1057L33.7787 15.7824L34.4907 16.7987ZM34.3156 24.054L28.493 20.6001L27.066 13.6347L32.4465 14.9296L34.3156 24.054ZM28.5848 9.3482C29.8539 10.7349 30.9191 11.9896 31.8378 13.1725L32.2914 13.7582L27.066 12.4719L28.2948 9.02944L28.5848 9.3482ZM23.8159 4.55052C24.9414 5.5755 26.1387 6.76991 27.2641 7.98151L27.3675 8.10497L26.242 11.3206L22.9172 3.72654L23.8159 4.55052ZM21.3898 2.99729L25.6735 12.7074L21.3898 15.7106L17.1033 12.7074L21.3898 2.99729ZM15.5155 7.98151C16.6496 6.76991 17.8383 5.5755 18.9724 4.55052L19.871 3.72654L16.5376 11.3206L15.4122 8.10497L15.5155 7.98151ZM11.3036 12.739C12.3028 11.5274 13.2445 10.3875 14.1919 9.3482L14.4934 9.02086L15.6476 12.4719L10.4566 13.7668L11.3036 12.739ZM15.7108 13.6347L14.2867 20.5914L8.95791 23.9937L10.3217 14.9296L15.7108 13.6347ZM5.24271 21.8662C6.18157 20.0258 7.32713 18.2487 8.42102 16.615L9.07278 15.6474L7.77215 24.1459L5.13932 22.0499L5.24271 21.8662ZM2.2998 30.9389C2.5582 28.5243 3.30181 25.9978 4.50767 23.4281L4.64265 23.1295L7.419 25.2972L2.20793 31.8118L2.2998 30.9389ZM3.50855 42.409C2.81661 40.2815 2.38307 37.8956 2.16486 35.1107L2.10458 34.278L7.3185 40.8041L3.60042 42.6961L3.50855 42.409ZM6.03799 47.7406L5.7078 47.1751C5.03596 46.0037 4.53065 44.9672 4.10572 43.9077L4.01385 43.6925L7.35872 41.9755L6.03799 47.7406ZM6.99694 48.7685L8.58754 41.7717L13.2732 44.0226L14.947 49.3974L6.99694 48.7685ZM13.3249 54.1864L13.0779 54.0629C11.2605 53.1355 9.56659 51.8636 8.18559 50.3821L7.72909 49.8998L14.8954 50.5056L13.3249 54.1864ZM19.4576 55.8286C17.8268 55.7052 16.1328 55.3146 14.5537 54.7203L14.3068 54.617L15.8228 51.031L20.0892 55.8803L19.4576 55.8286ZM16.6094 50.1869L21.3898 47.9273L26.1674 50.1869L21.3898 55.6449L16.6094 50.1869ZM28.2231 54.7203C26.6239 55.3261 24.95 55.7052 23.256 55.8286L22.6273 55.8803L26.8822 51.031L28.4815 54.617L28.2231 54.7203ZM34.7262 50.3936C33.2418 51.9153 31.5679 53.147 29.7706 54.0629L29.5237 54.1864L27.9561 50.5056L35.2028 49.8998L34.7262 50.3936ZM27.9044 49.4059L29.6385 43.9594L34.1893 41.7602L35.7081 48.7685L27.9044 49.4059ZM38.6825 43.8475C38.1973 45.1308 37.6489 46.242 37 47.2497L36.6584 47.7838L35.4296 41.9238L38.7629 43.6321L38.6825 43.8475ZM39.2797 42.3458L39.1879 42.633L35.4611 40.7323L40.6521 34.2494L40.6119 35.0504C40.477 37.6085 40.0348 40.0662 39.2797 42.3458Z" stroke="black" stroke-opacity="0.2" stroke-width="0.22"/>
<path d="M40.6062 26.1241C39.8597 23.8071 38.7744 21.582 37.557 19.4803C36.4 17.4677 35.0592 15.4637 33.437 13.3677C32.1163 11.6307 30.6176 9.87362 29.0184 8.1366C27.7694 6.77857 26.4372 5.432 25.085 4.13713C24.2265 3.31599 23.6551 2.78771 22.5526 1.81153C22.4177 1.69956 21.9037 1.25165 21.7401 1.12819C21.2864 0.809497 20.8615 1.12819 20.3045 1.61054L20.2127 1.69088C19.8308 2.02106 19.4576 2.35992 19.0872 2.69009C17.9933 3.68637 16.8879 4.75439 15.794 5.85403C14.347 7.32404 12.9631 8.82564 11.674 10.3358C10.1035 12.1734 8.67941 14.0138 7.44196 15.8111C5.97482 17.9501 4.78908 19.9627 3.80716 21.9983C1.68541 26.3998 0.694858 31.0079 1.08246 35.883C1.35234 39.2796 2.12466 42.6588 3.6119 45.7395C5.45515 49.5581 8.36649 52.7278 12.1363 54.7203C14.9787 56.2219 18.1713 57 21.3898 57C25.8774 57 30.3046 55.4783 33.7758 52.633C37.0977 49.9141 39.3429 46.0812 40.543 42.0042C41.9269 37.2985 42.2169 32.096 40.9593 27.3328C40.8531 26.928 40.7325 26.526 40.6062 26.1241ZM38.2777 23.4281C39.3946 25.8111 40.1382 28.2688 40.477 30.7351L40.6119 31.7399L35.8516 25.2455L38.1227 23.098L38.2777 23.4281ZM21.3898 46.6841L14.235 43.2187L11.272 33.4167L15.2859 21.3092L21.3898 17.014L27.4909 21.3092L31.6397 33.9306L28.6767 43.1584L21.3898 46.6841ZM28.2346 44.6169L26.6957 49.2825L22.6474 47.2985L28.2346 44.6169ZM20.1294 47.2985L16.0811 49.2825L14.7001 44.6887L20.1294 47.2985ZM10.0317 33.3535L7.94731 39.7676L2.55819 33.0262L7.88413 26.3451L10.0317 33.3535ZM8.79428 25.4924L13.7383 22.2768L10.6834 31.5447L8.79428 25.4924ZM10.6318 35.2772L12.8196 42.5526L8.85456 40.6606L10.6318 35.2772ZM15.6591 19.7272L16.8564 13.8587L20.4481 16.3681L15.6591 19.7272ZM22.389 16.2962L25.9922 13.7984L27.1895 19.6555L22.389 16.2962ZM29.0586 22.1849L34.4477 25.4207L32.2914 32.05L29.0586 22.1849ZM32.3632 35.7481L33.9337 40.6606L30.1438 42.5095L32.3632 35.7481ZM32.88 33.8674L35.3061 26.3968L40.1468 33.0349L34.7692 39.7676L32.88 33.8674ZM34.4907 16.7987C35.7798 18.6592 36.7819 20.313 37.5456 21.8749L37.6288 22.0414L35.4296 24.1057L33.7787 15.7824L34.4907 16.7987ZM34.3156 24.054L28.493 20.6001L27.066 13.6347L32.4465 14.9296L34.3156 24.054ZM28.5848 9.3482C29.8539 10.7349 30.9191 11.9896 31.8378 13.1725L32.2914 13.7582L27.066 12.4719L28.2948 9.02944L28.5848 9.3482ZM23.8159 4.55052C24.9414 5.5755 26.1387 6.76991 27.2641 7.98151L27.3675 8.10497L26.242 11.3206L22.9172 3.72654L23.8159 4.55052ZM21.3898 2.99729L25.6735 12.7074L21.3898 15.7106L17.1033 12.7074L21.3898 2.99729ZM15.5155 7.98151C16.6496 6.76991 17.8383 5.5755 18.9724 4.55052L19.871 3.72654L16.5376 11.3206L15.4122 8.10497L15.5155 7.98151ZM11.3036 12.739C12.3028 11.5274 13.2445 10.3875 14.1919 9.3482L14.4934 9.02086L15.6476 12.4719L10.4566 13.7668L11.3036 12.739ZM15.7108 13.6347L14.2867 20.5914L8.95791 23.9937L10.3217 14.9296L15.7108 13.6347ZM5.24271 21.8662C6.18157 20.0258 7.32713 18.2487 8.42102 16.615L9.07278 15.6474L7.77215 24.1459L5.13932 22.0499L5.24271 21.8662ZM2.2998 30.9389C2.5582 28.5243 3.30181 25.9978 4.50767 23.4281L4.64265 23.1295L7.419 25.2972L2.20793 31.8118L2.2998 30.9389ZM3.50855 42.409C2.81661 40.2815 2.38307 37.8956 2.16486 35.1107L2.10458 34.278L7.3185 40.8041L3.60042 42.6961L3.50855 42.409ZM6.03799 47.7406L5.7078 47.1751C5.03596 46.0037 4.53065 44.9672 4.10572 43.9077L4.01385 43.6925L7.35872 41.9755L6.03799 47.7406ZM6.99694 48.7685L8.58754 41.7717L13.2732 44.0226L14.947 49.3974L6.99694 48.7685ZM13.3249 54.1864L13.0779 54.0629C11.2605 53.1355 9.56659 51.8636 8.18559 50.3821L7.72909 49.8998L14.8954 50.5056L13.3249 54.1864ZM19.4576 55.8286C17.8268 55.7052 16.1328 55.3146 14.5537 54.7203L14.3068 54.617L15.8228 51.031L20.0892 55.8803L19.4576 55.8286ZM16.6094 50.1869L21.3898 47.9273L26.1674 50.1869L21.3898 55.6449L16.6094 50.1869ZM28.2231 54.7203C26.6239 55.3261 24.95 55.7052 23.256 55.8286L22.6273 55.8803L26.8822 51.031L28.4815 54.617L28.2231 54.7203ZM34.7262 50.3936C33.2418 51.9153 31.5679 53.147 29.7706 54.0629L29.5237 54.1864L27.9561 50.5056L35.2028 49.8998L34.7262 50.3936ZM27.9044 49.4059L29.6385 43.9594L34.1893 41.7602L35.7081 48.7685L27.9044 49.4059ZM38.6825 43.8475C38.1973 45.1308 37.6489 46.242 37 47.2497L36.6584 47.7838L35.4296 41.9238L38.7629 43.6321L38.6825 43.8475ZM39.2797 42.3458L39.1879 42.633L35.4611 40.7323L40.6521 34.2494L40.6119 35.0504C40.477 37.6085 40.0348 40.0662 39.2797 42.3458Z" stroke="black" stroke-opacity="0.2" stroke-width="0.22"/>
<path d="M40.6062 26.1241C39.8597 23.8071 38.7744 21.582 37.557 19.4803C36.4 17.4677 35.0592 15.4637 33.437 13.3677C32.1163 11.6307 30.6176 9.87362 29.0184 8.1366C27.7694 6.77857 26.4372 5.432 25.085 4.13713C24.2265 3.31599 23.6551 2.78771 22.5526 1.81153C22.4177 1.69956 21.9037 1.25165 21.7401 1.12819C21.2864 0.809497 20.8615 1.12819 20.3045 1.61054L20.2127 1.69088C19.8308 2.02106 19.4576 2.35992 19.0872 2.69009C17.9933 3.68637 16.8879 4.75439 15.794 5.85403C14.347 7.32404 12.9631 8.82564 11.674 10.3358C10.1035 12.1734 8.67941 14.0138 7.44196 15.8111C5.97482 17.9501 4.78908 19.9627 3.80716 21.9983C1.68541 26.3998 0.694858 31.0079 1.08246 35.883C1.35234 39.2796 2.12466 42.6588 3.6119 45.7395C5.45515 49.5581 8.36649 52.7278 12.1363 54.7203C14.9787 56.2219 18.1713 57 21.3898 57C25.8774 57 30.3046 55.4783 33.7758 52.633C37.0977 49.9141 39.3429 46.0812 40.543 42.0042C41.9269 37.2985 42.2169 32.096 40.9593 27.3328C40.8531 26.928 40.7325 26.526 40.6062 26.1241ZM38.2777 23.4281C39.3946 25.8111 40.1382 28.2688 40.477 30.7351L40.6119 31.7399L35.8516 25.2455L38.1227 23.098L38.2777 23.4281ZM21.3898 46.6841L14.235 43.2187L11.272 33.4167L15.2859 21.3092L21.3898 17.014L27.4909 21.3092L31.6397 33.9306L28.6767 43.1584L21.3898 46.6841ZM28.2346 44.6169L26.6957 49.2825L22.6474 47.2985L28.2346 44.6169ZM20.1294 47.2985L16.0811 49.2825L14.7001 44.6887L20.1294 47.2985ZM10.0317 33.3535L7.94731 39.7676L2.55819 33.0262L7.88413 26.3451L10.0317 33.3535ZM8.79428 25.4924L13.7383 22.2768L10.6834 31.5447L8.79428 25.4924ZM10.6318 35.2772L12.8196 42.5526L8.85456 40.6606L10.6318 35.2772ZM15.6591 19.7272L16.8564 13.8587L20.4481 16.3681L15.6591 19.7272ZM22.389 16.2962L25.9922 13.7984L27.1895 19.6555L22.389 16.2962ZM29.0586 22.1849L34.4477 25.4207L32.2914 32.05L29.0586 22.1849ZM32.3632 35.7481L33.9337 40.6606L30.1438 42.5095L32.3632 35.7481ZM32.88 33.8674L35.3061 26.3968L40.1468 33.0349L34.7692 39.7676L32.88 33.8674ZM34.4907 16.7987C35.7798 18.6592 36.7819 20.313 37.5456 21.8749L37.6288 22.0414L35.4296 24.1057L33.7787 15.7824L34.4907 16.7987ZM34.3156 24.054L28.493 20.6001L27.066 13.6347L32.4465 14.9296L34.3156 24.054ZM28.5848 9.3482C29.8539 10.7349 30.9191 11.9896 31.8378 13.1725L32.2914 13.7582L27.066 12.4719L28.2948 9.02944L28.5848 9.3482ZM23.8159 4.55052C24.9414 5.5755 26.1387 6.76991 27.2641 7.98151L27.3675 8.10497L26.242 11.3206L22.9172 3.72654L23.8159 4.55052ZM21.3898 2.99729L25.6735 12.7074L21.3898 15.7106L17.1033 12.7074L21.3898 2.99729ZM15.5155 7.98151C16.6496 6.76991 17.8383 5.5755 18.9724 4.55052L19.871 3.72654L16.5376 11.3206L15.4122 8.10497L15.5155 7.98151ZM11.3036 12.739C12.3028 11.5274 13.2445 10.3875 14.1919 9.3482L14.4934 9.02086L15.6476 12.4719L10.4566 13.7668L11.3036 12.739ZM15.7108 13.6347L14.2867 20.5914L8.95791 23.9937L10.3217 14.9296L15.7108 13.6347ZM5.24271 21.8662C6.18157 20.0258 7.32713 18.2487 8.42102 16.615L9.07278 15.6474L7.77215 24.1459L5.13932 22.0499L5.24271 21.8662ZM2.2998 30.9389C2.5582 28.5243 3.30181 25.9978 4.50767 23.4281L4.64265 23.1295L7.419 25.2972L2.20793 31.8118L2.2998 30.9389ZM3.50855 42.409C2.81661 40.2815 2.38307 37.8956 2.16486 35.1107L2.10458 34.278L7.3185 40.8041L3.60042 42.6961L3.50855 42.409ZM6.03799 47.7406L5.7078 47.1751C5.03596 46.0037 4.53065 44.9672 4.10572 43.9077L4.01385 43.6925L7.35872 41.9755L6.03799 47.7406ZM6.99694 48.7685L8.58754 41.7717L13.2732 44.0226L14.947 49.3974L6.99694 48.7685ZM13.3249 54.1864L13.0779 54.0629C11.2605 53.1355 9.56659 51.8636 8.18559 50.3821L7.72909 49.8998L14.8954 50.5056L13.3249 54.1864ZM19.4576 55.8286C17.8268 55.7052 16.1328 55.3146 14.5537 54.7203L14.3068 54.617L15.8228 51.031L20.0892 55.8803L19.4576 55.8286ZM16.6094 50.1869L21.3898 47.9273L26.1674 50.1869L21.3898 55.6449L16.6094 50.1869ZM28.2231 54.7203C26.6239 55.3261 24.95 55.7052 23.256 55.8286L22.6273 55.8803L26.8822 51.031L28.4815 54.617L28.2231 54.7203ZM34.7262 50.3936C33.2418 51.9153 31.5679 53.147 29.7706 54.0629L29.5237 54.1864L27.9561 50.5056L35.2028 49.8998L34.7262 50.3936ZM27.9044 49.4059L29.6385 43.9594L34.1893 41.7602L35.7081 48.7685L27.9044 49.4059ZM38.6825 43.8475C38.1973 45.1308 37.6489 46.242 37 47.2497L36.6584 47.7838L35.4296 41.9238L38.7629 43.6321L38.6825 43.8475ZM39.2797 42.3458L39.1879 42.633L35.4611 40.7323L40.6521 34.2494L40.6119 35.0504C40.477 37.6085 40.0348 40.0662 39.2797 42.3458Z" stroke="black" stroke-opacity="0.2" stroke-width="0.22"/>
<path d="M40.6062 26.1241C39.8597 23.8071 38.7744 21.582 37.557 19.4803C36.4 17.4677 35.0592 15.4637 33.437 13.3677C32.1163 11.6307 30.6176 9.87362 29.0184 8.1366C27.7694 6.77857 26.4372 5.432 25.085 4.13713C24.2265 3.31599 23.6551 2.78771 22.5526 1.81153C22.4177 1.69956 21.9037 1.25165 21.7401 1.12819C21.2864 0.809497 20.8615 1.12819 20.3045 1.61054L20.2127 1.69088C19.8308 2.02106 19.4576 2.35992 19.0872 2.69009C17.9933 3.68637 16.8879 4.75439 15.794 5.85403C14.347 7.32404 12.9631 8.82564 11.674 10.3358C10.1035 12.1734 8.67941 14.0138 7.44196 15.8111C5.97482 17.9501 4.78908 19.9627 3.80716 21.9983C1.68541 26.3998 0.694858 31.0079 1.08246 35.883C1.35234 39.2796 2.12466 42.6588 3.6119 45.7395C5.45515 49.5581 8.36649 52.7278 12.1363 54.7203C14.9787 56.2219 18.1713 57 21.3898 57C25.8774 57 30.3046 55.4783 33.7758 52.633C37.0977 49.9141 39.3429 46.0812 40.543 42.0042C41.9269 37.2985 42.2169 32.096 40.9593 27.3328C40.8531 26.928 40.7325 26.526 40.6062 26.1241ZM38.2777 23.4281C39.3946 25.8111 40.1382 28.2688 40.477 30.7351L40.6119 31.7399L35.8516 25.2455L38.1227 23.098L38.2777 23.4281ZM21.3898 46.6841L14.235 43.2187L11.272 33.4167L15.2859 21.3092L21.3898 17.014L27.4909 21.3092L31.6397 33.9306L28.6767 43.1584L21.3898 46.6841ZM28.2346 44.6169L26.6957 49.2825L22.6474 47.2985L28.2346 44.6169ZM20.1294 47.2985L16.0811 49.2825L14.7001 44.6887L20.1294 47.2985ZM10.0317 33.3535L7.94731 39.7676L2.55819 33.0262L7.88413 26.3451L10.0317 33.3535ZM8.79428 25.4924L13.7383 22.2768L10.6834 31.5447L8.79428 25.4924ZM10.6318 35.2772L12.8196 42.5526L8.85456 40.6606L10.6318 35.2772ZM15.6591 19.7272L16.8564 13.8587L20.4481 16.3681L15.6591 19.7272ZM22.389 16.2962L25.9922 13.7984L27.1895 19.6555L22.389 16.2962ZM29.0586 22.1849L34.4477 25.4207L32.2914 32.05L29.0586 22.1849ZM32.3632 35.7481L33.9337 40.6606L30.1438 42.5095L32.3632 35.7481ZM32.88 33.8674L35.3061 26.3968L40.1468 33.0349L34.7692 39.7676L32.88 33.8674ZM34.4907 16.7987C35.7798 18.6592 36.7819 20.313 37.5456 21.8749L37.6288 22.0414L35.4296 24.1057L33.7787 15.7824L34.4907 16.7987ZM34.3156 24.054L28.493 20.6001L27.066 13.6347L32.4465 14.9296L34.3156 24.054ZM28.5848 9.3482C29.8539 10.7349 30.9191 11.9896 31.8378 13.1725L32.2914 13.7582L27.066 12.4719L28.2948 9.02944L28.5848 9.3482ZM23.8159 4.55052C24.9414 5.5755 26.1387 6.76991 27.2641 7.98151L27.3675 8.10497L26.242 11.3206L22.9172 3.72654L23.8159 4.55052ZM21.3898 2.99729L25.6735 12.7074L21.3898 15.7106L17.1033 12.7074L21.3898 2.99729ZM15.5155 7.98151C16.6496 6.76991 17.8383 5.5755 18.9724 4.55052L19.871 3.72654L16.5376 11.3206L15.4122 8.10497L15.5155 7.98151ZM11.3036 12.739C12.3028 11.5274 13.2445 10.3875 14.1919 9.3482L14.4934 9.02086L15.6476 12.4719L10.4566 13.7668L11.3036 12.739ZM15.7108 13.6347L14.2867 20.5914L8.95791 23.9937L10.3217 14.9296L15.7108 13.6347ZM5.24271 21.8662C6.18157 20.0258 7.32713 18.2487 8.42102 16.615L9.07278 15.6474L7.77215 24.1459L5.13932 22.0499L5.24271 21.8662ZM2.2998 30.9389C2.5582 28.5243 3.30181 25.9978 4.50767 23.4281L4.64265 23.1295L7.419 25.2972L2.20793 31.8118L2.2998 30.9389ZM3.50855 42.409C2.81661 40.2815 2.38307 37.8956 2.16486 35.1107L2.10458 34.278L7.3185 40.8041L3.60042 42.6961L3.50855 42.409ZM6.03799 47.7406L5.7078 47.1751C5.03596 46.0037 4.53065 44.9672 4.10572 43.9077L4.01385 43.6925L7.35872 41.9755L6.03799 47.7406ZM6.99694 48.7685L8.58754 41.7717L13.2732 44.0226L14.947 49.3974L6.99694 48.7685ZM13.3249 54.1864L13.0779 54.0629C11.2605 53.1355 9.56659 51.8636 8.18559 50.3821L7.72909 49.8998L14.8954 50.5056L13.3249 54.1864ZM19.4576 55.8286C17.8268 55.7052 16.1328 55.3146 14.5537 54.7203L14.3068 54.617L15.8228 51.031L20.0892 55.8803L19.4576 55.8286ZM16.6094 50.1869L21.3898 47.9273L26.1674 50.1869L21.3898 55.6449L16.6094 50.1869ZM28.2231 54.7203C26.6239 55.3261 24.95 55.7052 23.256 55.8286L22.6273 55.8803L26.8822 51.031L28.4815 54.617L28.2231 54.7203ZM34.7262 50.3936C33.2418 51.9153 31.5679 53.147 29.7706 54.0629L29.5237 54.1864L27.9561 50.5056L35.2028 49.8998L34.7262 50.3936ZM27.9044 49.4059L29.6385 43.9594L34.1893 41.7602L35.7081 48.7685L27.9044 49.4059ZM38.6825 43.8475C38.1973 45.1308 37.6489 46.242 37 47.2497L36.6584 47.7838L35.4296 41.9238L38.7629 43.6321L38.6825 43.8475ZM39.2797 42.3458L39.1879 42.633L35.4611 40.7323L40.6521 34.2494L40.6119 35.0504C40.477 37.6085 40.0348 40.0662 39.2797 42.3458Z" stroke="black" stroke-opacity="0.2" stroke-width="0.22"/>
<path d="M40.6062 26.1241C39.8597 23.8071 38.7744 21.582 37.557 19.4803C36.4 17.4677 35.0592 15.4637 33.437 13.3677C32.1163 11.6307 30.6176 9.87362 29.0184 8.1366C27.7694 6.77857 26.4372 5.432 25.085 4.13713C24.2265 3.31599 23.6551 2.78771 22.5526 1.81153C22.4177 1.69956 21.9037 1.25165 21.7401 1.12819C21.2864 0.809497 20.8615 1.12819 20.3045 1.61054L20.2127 1.69088C19.8308 2.02106 19.4576 2.35992 19.0872 2.69009C17.9933 3.68637 16.8879 4.75439 15.794 5.85403C14.347 7.32404 12.9631 8.82564 11.674 10.3358C10.1035 12.1734 8.67941 14.0138 7.44196 15.8111C5.97482 17.9501 4.78908 19.9627 3.80716 21.9983C1.68541 26.3998 0.694858 31.0079 1.08246 35.883C1.35234 39.2796 2.12466 42.6588 3.6119 45.7395C5.45515 49.5581 8.36649 52.7278 12.1363 54.7203C14.9787 56.2219 18.1713 57 21.3898 57C25.8774 57 30.3046 55.4783 33.7758 52.633C37.0977 49.9141 39.3429 46.0812 40.543 42.0042C41.9269 37.2985 42.2169 32.096 40.9593 27.3328C40.8531 26.928 40.7325 26.526 40.6062 26.1241ZM38.2777 23.4281C39.3946 25.8111 40.1382 28.2688 40.477 30.7351L40.6119 31.7399L35.8516 25.2455L38.1227 23.098L38.2777 23.4281ZM21.3898 46.6841L14.235 43.2187L11.272 33.4167L15.2859 21.3092L21.3898 17.014L27.4909 21.3092L31.6397 33.9306L28.6767 43.1584L21.3898 46.6841ZM28.2346 44.6169L26.6957 49.2825L22.6474 47.2985L28.2346 44.6169ZM20.1294 47.2985L16.0811 49.2825L14.7001 44.6887L20.1294 47.2985ZM10.0317 33.3535L7.94731 39.7676L2.55819 33.0262L7.88413 26.3451L10.0317 33.3535ZM8.79428 25.4924L13.7383 22.2768L10.6834 31.5447L8.79428 25.4924ZM10.6318 35.2772L12.8196 42.5526L8.85456 40.6606L10.6318 35.2772ZM15.6591 19.7272L16.8564 13.8587L20.4481 16.3681L15.6591 19.7272ZM22.389 16.2962L25.9922 13.7984L27.1895 19.6555L22.389 16.2962ZM29.0586 22.1849L34.4477 25.4207L32.2914 32.05L29.0586 22.1849ZM32.3632 35.7481L33.9337 40.6606L30.1438 42.5095L32.3632 35.7481ZM32.88 33.8674L35.3061 26.3968L40.1468 33.0349L34.7692 39.7676L32.88 33.8674ZM34.4907 16.7987C35.7798 18.6592 36.7819 20.313 37.5456 21.8749L37.6288 22.0414L35.4296 24.1057L33.7787 15.7824L34.4907 16.7987ZM34.3156 24.054L28.493 20.6001L27.066 13.6347L32.4465 14.9296L34.3156 24.054ZM28.5848 9.3482C29.8539 10.7349 30.9191 11.9896 31.8378 13.1725L32.2914 13.7582L27.066 12.4719L28.2948 9.02944L28.5848 9.3482ZM23.8159 4.55052C24.9414 5.5755 26.1387 6.76991 27.2641 7.98151L27.3675 8.10497L26.242 11.3206L22.9172 3.72654L23.8159 4.55052ZM21.3898 2.99729L25.6735 12.7074L21.3898 15.7106L17.1033 12.7074L21.3898 2.99729ZM15.5155 7.98151C16.6496 6.76991 17.8383 5.5755 18.9724 4.55052L19.871 3.72654L16.5376 11.3206L15.4122 8.10497L15.5155 7.98151ZM11.3036 12.739C12.3028 11.5274 13.2445 10.3875 14.1919 9.3482L14.4934 9.02086L15.6476 12.4719L10.4566 13.7668L11.3036 12.739ZM15.7108 13.6347L14.2867 20.5914L8.95791 23.9937L10.3217 14.9296L15.7108 13.6347ZM5.24271 21.8662C6.18157 20.0258 7.32713 18.2487 8.42102 16.615L9.07278 15.6474L7.77215 24.1459L5.13932 22.0499L5.24271 21.8662ZM2.2998 30.9389C2.5582 28.5243 3.30181 25.9978 4.50767 23.4281L4.64265 23.1295L7.419 25.2972L2.20793 31.8118L2.2998 30.9389ZM3.50855 42.409C2.81661 40.2815 2.38307 37.8956 2.16486 35.1107L2.10458 34.278L7.3185 40.8041L3.60042 42.6961L3.50855 42.409ZM6.03799 47.7406L5.7078 47.1751C5.03596 46.0037 4.53065 44.9672 4.10572 43.9077L4.01385 43.6925L7.35872 41.9755L6.03799 47.7406ZM6.99694 48.7685L8.58754 41.7717L13.2732 44.0226L14.947 49.3974L6.99694 48.7685ZM13.3249 54.1864L13.0779 54.0629C11.2605 53.1355 9.56659 51.8636 8.18559 50.3821L7.72909 49.8998L14.8954 50.5056L13.3249 54.1864ZM19.4576 55.8286C17.8268 55.7052 16.1328 55.3146 14.5537 54.7203L14.3068 54.617L15.8228 51.031L20.0892 55.8803L19.4576 55.8286ZM16.6094 50.1869L21.3898 47.9273L26.1674 50.1869L21.3898 55.6449L16.6094 50.1869ZM28.2231 54.7203C26.6239 55.3261 24.95 55.7052 23.256 55.8286L22.6273 55.8803L26.8822 51.031L28.4815 54.617L28.2231 54.7203ZM34.7262 50.3936C33.2418 51.9153 31.5679 53.147 29.7706 54.0629L29.5237 54.1864L27.9561 50.5056L35.2028 49.8998L34.7262 50.3936ZM27.9044 49.4059L29.6385 43.9594L34.1893 41.7602L35.7081 48.7685L27.9044 49.4059ZM38.6825 43.8475C38.1973 45.1308 37.6489 46.242 37 47.2497L36.6584 47.7838L35.4296 41.9238L38.7629 43.6321L38.6825 43.8475ZM39.2797 42.3458L39.1879 42.633L35.4611 40.7323L40.6521 34.2494L40.6119 35.0504C40.477 37.6085 40.0348 40.0662 39.2797 42.3458Z" stroke="black" stroke-opacity="0.2" stroke-width="0.22"/>
<path d="M40.6062 26.1241C39.8597 23.8071 38.7744 21.582 37.557 19.4803C36.4 17.4677 35.0592 15.4637 33.437 13.3677C32.1163 11.6307 30.6176 9.87362 29.0184 8.1366C27.7694 6.77857 26.4372 5.432 25.085 4.13713C24.2265 3.31599 23.6551 2.78771 22.5526 1.81153C22.4177 1.69956 21.9037 1.25165 21.7401 1.12819C21.2864 0.809497 20.8615 1.12819 20.3045 1.61054L20.2127 1.69088C19.8308 2.02106 19.4576 2.35992 19.0872 2.69009C17.9933 3.68637 16.8879 4.75439 15.794 5.85403C14.347 7.32404 12.9631 8.82564 11.674 10.3358C10.1035 12.1734 8.67941 14.0138 7.44196 15.8111C5.97482 17.9501 4.78908 19.9627 3.80716 21.9983C1.68541 26.3998 0.694858 31.0079 1.08246 35.883C1.35234 39.2796 2.12466 42.6588 3.6119 45.7395C5.45515 49.5581 8.36649 52.7278 12.1363 54.7203C14.9787 56.2219 18.1713 57 21.3898 57C25.8774 57 30.3046 55.4783 33.7758 52.633C37.0977 49.9141 39.3429 46.0812 40.543 42.0042C41.9269 37.2985 42.2169 32.096 40.9593 27.3328C40.8531 26.928 40.7325 26.526 40.6062 26.1241ZM38.2777 23.4281C39.3946 25.8111 40.1382 28.2688 40.477 30.7351L40.6119 31.7399L35.8516 25.2455L38.1227 23.098L38.2777 23.4281ZM21.3898 46.6841L14.235 43.2187L11.272 33.4167L15.2859 21.3092L21.3898 17.014L27.4909 21.3092L31.6397 33.9306L28.6767 43.1584L21.3898 46.6841ZM28.2346 44.6169L26.6957 49.2825L22.6474 47.2985L28.2346 44.6169ZM20.1294 47.2985L16.0811 49.2825L14.7001 44.6887L20.1294 47.2985ZM10.0317 33.3535L7.94731 39.7676L2.55819 33.0262L7.88413 26.3451L10.0317 33.3535ZM8.79428 25.4924L13.7383 22.2768L10.6834 31.5447L8.79428 25.4924ZM10.6318 35.2772L12.8196 42.5526L8.85456 40.6606L10.6318 35.2772ZM15.6591 19.7272L16.8564 13.8587L20.4481 16.3681L15.6591 19.7272ZM22.389 16.2962L25.9922 13.7984L27.1895 19.6555L22.389 16.2962ZM29.0586 22.1849L34.4477 25.4207L32.2914 32.05L29.0586 22.1849ZM32.3632 35.7481L33.9337 40.6606L30.1438 42.5095L32.3632 35.7481ZM32.88 33.8674L35.3061 26.3968L40.1468 33.0349L34.7692 39.7676L32.88 33.8674ZM34.4907 16.7987C35.7798 18.6592 36.7819 20.313 37.5456 21.8749L37.6288 22.0414L35.4296 24.1057L33.7787 15.7824L34.4907 16.7987ZM34.3156 24.054L28.493 20.6001L27.066 13.6347L32.4465 14.9296L34.3156 24.054ZM28.5848 9.3482C29.8539 10.7349 30.9191 11.9896 31.8378 13.1725L32.2914 13.7582L27.066 12.4719L28.2948 9.02944L28.5848 9.3482ZM23.8159 4.55052C24.9414 5.5755 26.1387 6.76991 27.2641 7.98151L27.3675 8.10497L26.242 11.3206L22.9172 3.72654L23.8159 4.55052ZM21.3898 2.99729L25.6735 12.7074L21.3898 15.7106L17.1033 12.7074L21.3898 2.99729ZM15.5155 7.98151C16.6496 6.76991 17.8383 5.5755 18.9724 4.55052L19.871 3.72654L16.5376 11.3206L15.4122 8.10497L15.5155 7.98151ZM11.3036 12.739C12.3028 11.5274 13.2445 10.3875 14.1919 9.3482L14.4934 9.02086L15.6476 12.4719L10.4566 13.7668L11.3036 12.739ZM15.7108 13.6347L14.2867 20.5914L8.95791 23.9937L10.3217 14.9296L15.7108 13.6347ZM5.24271 21.8662C6.18157 20.0258 7.32713 18.2487 8.42102 16.615L9.07278 15.6474L7.77215 24.1459L5.13932 22.0499L5.24271 21.8662ZM2.2998 30.9389C2.5582 28.5243 3.30181 25.9978 4.50767 23.4281L4.64265 23.1295L7.419 25.2972L2.20793 31.8118L2.2998 30.9389ZM3.50855 42.409C2.81661 40.2815 2.38307 37.8956 2.16486 35.1107L2.10458 34.278L7.3185 40.8041L3.60042 42.6961L3.50855 42.409ZM6.03799 47.7406L5.7078 47.1751C5.03596 46.0037 4.53065 44.9672 4.10572 43.9077L4.01385 43.6925L7.35872 41.9755L6.03799 47.7406ZM6.99694 48.7685L8.58754 41.7717L13.2732 44.0226L14.947 49.3974L6.99694 48.7685ZM13.3249 54.1864L13.0779 54.0629C11.2605 53.1355 9.56659 51.8636 8.18559 50.3821L7.72909 49.8998L14.8954 50.5056L13.3249 54.1864ZM19.4576 55.8286C17.8268 55.7052 16.1328 55.3146 14.5537 54.7203L14.3068 54.617L15.8228 51.031L20.0892 55.8803L19.4576 55.8286ZM16.6094 50.1869L21.3898 47.9273L26.1674 50.1869L21.3898 55.6449L16.6094 50.1869ZM28.2231 54.7203C26.6239 55.3261 24.95 55.7052 23.256 55.8286L22.6273 55.8803L26.8822 51.031L28.4815 54.617L28.2231 54.7203ZM34.7262 50.3936C33.2418 51.9153 31.5679 53.147 29.7706 54.0629L29.5237 54.1864L27.9561 50.5056L35.2028 49.8998L34.7262 50.3936ZM27.9044 49.4059L29.6385 43.9594L34.1893 41.7602L35.7081 48.7685L27.9044 49.4059ZM38.6825 43.8475C38.1973 45.1308 37.6489 46.242 37 47.2497L36.6584 47.7838L35.4296 41.9238L38.7629 43.6321L38.6825 43.8475ZM39.2797 42.3458L39.1879 42.633L35.4611 40.7323L40.6521 34.2494L40.6119 35.0504C40.477 37.6085 40.0348 40.0662 39.2797 42.3458Z" stroke="black" stroke-opacity="0.2" stroke-width="0.22"/>
<path d="M40.6062 26.1241C39.8597 23.8071 38.7744 21.582 37.557 19.4803C36.4 17.4677 35.0592 15.4637 33.437 13.3677C32.1163 11.6307 30.6176 9.87362 29.0184 8.1366C27.7694 6.77857 26.4372 5.432 25.085 4.13713C24.2265 3.31599 23.6551 2.78771 22.5526 1.81153C22.4177 1.69956 21.9037 1.25165 21.7401 1.12819C21.2864 0.809497 20.8615 1.12819 20.3045 1.61054L20.2127 1.69088C19.8308 2.02106 19.4576 2.35992 19.0872 2.69009C17.9933 3.68637 16.8879 4.75439 15.794 5.85403C14.347 7.32404 12.9631 8.82564 11.674 10.3358C10.1035 12.1734 8.67941 14.0138 7.44196 15.8111C5.97482 17.9501 4.78908 19.9627 3.80716 21.9983C1.68541 26.3998 0.694858 31.0079 1.08246 35.883C1.35234 39.2796 2.12466 42.6588 3.6119 45.7395C5.45515 49.5581 8.36649 52.7278 12.1363 54.7203C14.9787 56.2219 18.1713 57 21.3898 57C25.8774 57 30.3046 55.4783 33.7758 52.633C37.0977 49.9141 39.3429 46.0812 40.543 42.0042C41.9269 37.2985 42.2169 32.096 40.9593 27.3328C40.8531 26.928 40.7325 26.526 40.6062 26.1241ZM38.2777 23.4281C39.3946 25.8111 40.1382 28.2688 40.477 30.7351L40.6119 31.7399L35.8516 25.2455L38.1227 23.098L38.2777 23.4281ZM21.3898 46.6841L14.235 43.2187L11.272 33.4167L15.2859 21.3092L21.3898 17.014L27.4909 21.3092L31.6397 33.9306L28.6767 43.1584L21.3898 46.6841ZM28.2346 44.6169L26.6957 49.2825L22.6474 47.2985L28.2346 44.6169ZM20.1294 47.2985L16.0811 49.2825L14.7001 44.6887L20.1294 47.2985ZM10.0317 33.3535L7.94731 39.7676L2.55819 33.0262L7.88413 26.3451L10.0317 33.3535ZM8.79428 25.4924L13.7383 22.2768L10.6834 31.5447L8.79428 25.4924ZM10.6318 35.2772L12.8196 42.5526L8.85456 40.6606L10.6318 35.2772ZM15.6591 19.7272L16.8564 13.8587L20.4481 16.3681L15.6591 19.7272ZM22.389 16.2962L25.9922 13.7984L27.1895 19.6555L22.389 16.2962ZM29.0586 22.1849L34.4477 25.4207L32.2914 32.05L29.0586 22.1849ZM32.3632 35.7481L33.9337 40.6606L30.1438 42.5095L32.3632 35.7481ZM32.88 33.8674L35.3061 26.3968L40.1468 33.0349L34.7692 39.7676L32.88 33.8674ZM34.4907 16.7987C35.7798 18.6592 36.7819 20.313 37.5456 21.8749L37.6288 22.0414L35.4296 24.1057L33.7787 15.7824L34.4907 16.7987ZM34.3156 24.054L28.493 20.6001L27.066 13.6347L32.4465 14.9296L34.3156 24.054ZM28.5848 9.3482C29.8539 10.7349 30.9191 11.9896 31.8378 13.1725L32.2914 13.7582L27.066 12.4719L28.2948 9.02944L28.5848 9.3482ZM23.8159 4.55052C24.9414 5.5755 26.1387 6.76991 27.2641 7.98151L27.3675 8.10497L26.242 11.3206L22.9172 3.72654L23.8159 4.55052ZM21.3898 2.99729L25.6735 12.7074L21.3898 15.7106L17.1033 12.7074L21.3898 2.99729ZM15.5155 7.98151C16.6496 6.76991 17.8383 5.5755 18.9724 4.55052L19.871 3.72654L16.5376 11.3206L15.4122 8.10497L15.5155 7.98151ZM11.3036 12.739C12.3028 11.5274 13.2445 10.3875 14.1919 9.3482L14.4934 9.02086L15.6476 12.4719L10.4566 13.7668L11.3036 12.739ZM15.7108 13.6347L14.2867 20.5914L8.95791 23.9937L10.3217 14.9296L15.7108 13.6347ZM5.24271 21.8662C6.18157 20.0258 7.32713 18.2487 8.42102 16.615L9.07278 15.6474L7.77215 24.1459L5.13932 22.0499L5.24271 21.8662ZM2.2998 30.9389C2.5582 28.5243 3.30181 25.9978 4.50767 23.4281L4.64265 23.1295L7.419 25.2972L2.20793 31.8118L2.2998 30.9389ZM3.50855 42.409C2.81661 40.2815 2.38307 37.8956 2.16486 35.1107L2.10458 34.278L7.3185 40.8041L3.60042 42.6961L3.50855 42.409ZM6.03799 47.7406L5.7078 47.1751C5.03596 46.0037 4.53065 44.9672 4.10572 43.9077L4.01385 43.6925L7.35872 41.9755L6.03799 47.7406ZM6.99694 48.7685L8.58754 41.7717L13.2732 44.0226L14.947 49.3974L6.99694 48.7685ZM13.3249 54.1864L13.0779 54.0629C11.2605 53.1355 9.56659 51.8636 8.18559 50.3821L7.72909 49.8998L14.8954 50.5056L13.3249 54.1864ZM19.4576 55.8286C17.8268 55.7052 16.1328 55.3146 14.5537 54.7203L14.3068 54.617L15.8228 51.031L20.0892 55.8803L19.4576 55.8286ZM16.6094 50.1869L21.3898 47.9273L26.1674 50.1869L21.3898 55.6449L16.6094 50.1869ZM28.2231 54.7203C26.6239 55.3261 24.95 55.7052 23.256 55.8286L22.6273 55.8803L26.8822 51.031L28.4815 54.617L28.2231 54.7203ZM34.7262 50.3936C33.2418 51.9153 31.5679 53.147 29.7706 54.0629L29.5237 54.1864L27.9561 50.5056L35.2028 49.8998L34.7262 50.3936ZM27.9044 49.4059L29.6385 43.9594L34.1893 41.7602L35.7081 48.7685L27.9044 49.4059ZM38.6825 43.8475C38.1973 45.1308 37.6489 46.242 37 47.2497L36.6584 47.7838L35.4296 41.9238L38.7629 43.6321L38.6825 43.8475ZM39.2797 42.3458L39.1879 42.633L35.4611 40.7323L40.6521 34.2494L40.6119 35.0504C40.477 37.6085 40.0348 40.0662 39.2797 42.3458Z" stroke="black" stroke-opacity="0.2" stroke-width="0.22"/>
</svg>
