<svg width="58" height="54" viewBox="0 0 58 54" fill="none" xmlns="http://www.w3.org/2000/svg">
<path d="M56.91 14.1475C55.951 6.64585 49.5029 1 41.9175 1C36.3473 1 29.4156 5.47886 29.1211 5.67066L28.9915 5.75986L28.8483 5.67066C28.5565 5.47886 21.6357 1 16.0655 1C7.76149 1 1 7.75069 1 16.0547C1 16.8894 1.07023 17.9349 1.19179 19.0695C1.37279 20.7173 1.67532 22.5029 2.09133 24.4019C2.54515 26.4523 3.29075 28.6404 4.30106 30.9311C5.22763 33.0084 6.34867 35.0399 7.63992 36.9281C8.94198 38.8245 10.4358 40.6533 12.1107 42.3605C13.7747 44.0678 15.6522 45.7049 17.6782 47.223C19.7177 48.7385 21.968 50.1755 24.3695 51.4992C25.2366 51.9719 26.1361 52.4447 27.0519 52.8958C27.214 52.9768 27.3869 53.066 27.5462 53.1687C27.9001 53.3578 28.2324 53.5388 28.5863 53.6387C29.0617 53.7792 29.4048 53.609 29.8694 53.3794L30.0801 53.2686C31.3309 52.6743 32.5626 52.0314 33.7323 51.3912C36.0636 50.0946 38.2626 48.6872 40.2399 47.2014C42.2281 45.7265 44.0651 44.1273 45.7102 42.4605C47.3445 40.7938 48.8168 39.0163 50.108 37.1577C51.3912 35.31 52.5095 33.3407 53.4387 31.312C54.368 29.2833 55.1352 27.133 55.7106 24.9233C56.1941 23.0458 56.5561 21.0684 56.7803 19.0586C56.91 17.9348 56.9694 16.8894 56.9694 16.0547C57.0424 15.4117 56.9694 14.7688 56.91 14.1475ZM49.6758 4.47398C52.6716 6.47298 54.7516 9.50661 55.5377 13.0319L55.6377 13.4749L44.4892 9.36615L49.5029 4.3659L49.6758 4.47398ZM43.8732 18.8992L47.5363 22.4731L42.6522 26.1308L43.8732 18.8992ZM42.9359 16.9002L35.8016 14.4987L42.9359 10.5224V16.9002ZM44.1164 17.4513V10.4008L55.4162 14.5285L48.3737 21.7114L44.1164 17.4513ZM38.4354 2.56683C39.8374 2.25618 40.9477 2.10493 41.9175 2.10493C44.0245 2.10493 46.1451 2.61812 48.2224 3.62032L48.5466 3.7716L43.5194 8.79345L38.0113 2.65595L38.4354 2.56683ZM42.6333 9.46607L34.378 14.0665L29.9289 12.5618L37.1144 3.32049L42.6333 9.46607ZM29.5749 6.67559L29.9991 6.4244C30.8878 5.90034 32.5411 4.92777 34.4996 4.00391L35.4477 3.56088L29.5749 11.1734V6.67559ZM29.5749 13.5748L33.0867 14.7689L29.5749 16.7382V13.5748ZM28.9915 18.1348C29.3346 18.1348 29.6452 17.943 29.9883 17.7539L34.0349 15.5225C34.3293 15.3334 34.4698 15.2524 34.6211 15.3037L42.9062 18.0834L41.3718 27.1438L41.3313 27.1951L35.0155 35.0587L28.9915 39.5592L22.9053 35.0075L16.6003 27.1438L15.066 18.0834L23.451 15.2632L27.5489 17.4918C27.6489 17.5432 27.7596 17.6026 27.8596 17.662C28.1432 17.8322 28.435 18.0051 28.7294 18.0942C28.8186 18.1239 28.8996 18.1348 28.9915 18.1348ZM41.7149 28.6106L42.8657 33.3704L36.8821 34.5968L41.7149 28.6106ZM34.5995 36.7768L33.4298 42.6415L29.9099 40.2913L34.5995 36.7768ZM28.0028 40.2319L24.4802 42.5712L23.3105 36.7147L28.0028 40.2319ZM21.1494 34.5968L15.1065 33.3704L16.3275 28.5512L21.1494 34.5968ZM14.0962 18.829L15.3172 26.0686L10.4439 22.4137L14.0962 18.829ZM9.59842 21.7114L2.62351 14.5285L13.8557 10.4008V17.4513L9.59842 21.7114ZM15.0363 16.8597V10.5224L22.1786 14.4987L15.0363 16.8597ZM24.934 14.7797L28.4647 13.5748V16.6679L24.934 14.7797ZM23.3996 4.00391C25.3987 4.85754 27.0924 5.86245 28.0028 6.40272L28.4647 6.67559V11.2355L22.492 3.61224L23.3996 4.00391ZM28.0433 12.5618L23.6022 14.0665L15.3388 9.46607L20.8577 3.32049L28.0433 12.5618ZM9.67674 3.69056C11.6649 2.62622 13.7639 2.10493 16.0655 2.10493C17.1136 2.10493 18.1942 2.27509 19.4962 2.63707L19.8798 2.74779L14.3906 8.86369L9.37419 3.85263L9.67674 3.69056ZM2.37228 13.0238C3.22051 9.50663 5.29785 6.47298 8.23422 4.47398L8.4071 4.3659L13.4208 9.36615L2.27232 13.4857L2.37228 13.0238ZM2.95846 23.3376C2.70453 21.9518 2.4425 20.4553 2.2426 18.929C2.12104 17.9349 2.05081 16.9299 2.05081 16.1871V15.5631L8.46654 22.203L3.0071 23.5996L2.95846 23.3376ZM4.90616 29.394C4.26054 27.8164 3.77427 26.3414 3.41229 24.9043L3.35017 24.6639L8.53677 23.3673L5.11684 29.8965L4.90616 29.394ZM9.76858 23.297L15.4388 27.5166L14.0475 33.1003L5.87325 30.8095L9.76858 23.297ZM9.39579 37.5197C8.15316 35.7719 7.15639 34.1538 6.33788 32.5789L6.07585 32.0656L13.3209 34.0836L9.56598 37.7601L9.39579 37.5197ZM14.1475 42.7927C12.8562 41.5663 11.7055 40.3021 10.5061 38.8245L10.3629 38.6434L14.0178 35.0695L14.623 43.2439L14.1475 42.7927ZM15.0768 34.4752L22.0976 35.8719L23.4699 43.0143L15.7629 43.9166L15.0768 34.4752ZM21.9382 48.7574C19.8879 47.4742 18.3859 46.4072 17.065 45.324L16.6111 44.943L23.4402 44.1893L22.23 48.9491L21.9382 48.7574ZM27.0627 51.6802C26.0551 51.1778 25.0853 50.6375 24.156 50.1134L23.1997 49.5813L24.3181 45.1132L27.738 52.0125L27.0627 51.6802ZM28.9915 51.953L24.853 43.6869L28.9915 40.945L33.1272 43.6869L28.9915 51.953ZM34.7319 49.611C33.2596 50.4647 32.017 51.1184 30.8365 51.6802L30.172 52.0017L33.7135 45.0727L34.9047 49.511L34.7319 49.611ZM40.8477 45.3834C39.4241 46.5477 37.8492 47.6633 36.1636 48.6979L35.8718 48.8789L34.5914 44.1893L41.3016 45.0132L40.8477 45.3834ZM42.139 43.9868L34.4996 43.0143L35.9421 35.8719L42.9656 34.4752L42.139 43.9868ZM47.4768 38.8137C46.4665 40.1211 45.2968 41.3962 43.7625 42.8522L43.2871 43.3141L43.9651 35.0777L47.6065 38.6434L47.4768 38.8137ZM51.6342 32.5168C50.6942 34.3348 49.646 36.0123 48.5142 37.5197L48.3332 37.7493L44.5891 34.0836L51.9044 31.9954L51.6342 32.5168ZM43.9246 33.1003L42.5307 27.5868L48.2035 23.3673L52.0368 30.8797L43.9246 33.1003ZM54.5598 24.9043C54.187 26.4117 53.6711 27.9866 53.066 29.4535L52.8634 29.9667L49.4435 23.3673L54.6193 24.6639L54.5598 24.9043ZM55.9321 16.2059C55.8619 16.9785 55.7998 17.8836 55.7295 18.9182V18.929C55.5377 20.3958 55.3459 21.9112 55.0137 23.3484L54.9623 23.5996L49.5029 22.203L55.9808 15.5036L55.9321 16.2059Z" fill="#333335"/>
<path d="M56.91 14.1475C55.951 6.64585 49.5029 1 41.9175 1C36.3473 1 29.4156 5.47886 29.1211 5.67066L28.9915 5.75986L28.8483 5.67066C28.5565 5.47886 21.6357 1 16.0655 1C7.76149 1 1 7.75069 1 16.0547C1 16.8894 1.07023 17.9349 1.19179 19.0695C1.37279 20.7173 1.67532 22.5029 2.09133 24.4019C2.54515 26.4523 3.29075 28.6404 4.30106 30.9311C5.22763 33.0084 6.34867 35.0399 7.63992 36.9281C8.94198 38.8245 10.4358 40.6533 12.1107 42.3605C13.7747 44.0678 15.6522 45.7049 17.6782 47.223C19.7177 48.7385 21.968 50.1755 24.3695 51.4992C25.2366 51.9719 26.1361 52.4447 27.0519 52.8958C27.214 52.9768 27.3869 53.066 27.5462 53.1687C27.9001 53.3578 28.2324 53.5388 28.5863 53.6387C29.0617 53.7792 29.4048 53.609 29.8694 53.3794L30.0801 53.2686C31.3309 52.6743 32.5626 52.0314 33.7323 51.3912C36.0636 50.0946 38.2626 48.6872 40.2399 47.2014C42.2281 45.7265 44.0651 44.1273 45.7102 42.4605C47.3445 40.7938 48.8168 39.0163 50.108 37.1577C51.3912 35.31 52.5095 33.3407 53.4387 31.312C54.368 29.2833 55.1352 27.133 55.7106 24.9233C56.1941 23.0458 56.5561 21.0684 56.7803 19.0586C56.91 17.9348 56.9694 16.8894 56.9694 16.0547C57.0424 15.4117 56.9694 14.7688 56.91 14.1475ZM49.6758 4.47398C52.6716 6.47298 54.7516 9.50661 55.5377 13.0319L55.6377 13.4749L44.4892 9.36615L49.5029 4.3659L49.6758 4.47398ZM43.8732 18.8992L47.5363 22.4731L42.6522 26.1308L43.8732 18.8992ZM42.9359 16.9002L35.8016 14.4987L42.9359 10.5224V16.9002ZM44.1164 17.4513V10.4008L55.4162 14.5285L48.3737 21.7114L44.1164 17.4513ZM38.4354 2.56683C39.8374 2.25618 40.9477 2.10493 41.9175 2.10493C44.0245 2.10493 46.1451 2.61812 48.2224 3.62032L48.5466 3.7716L43.5194 8.79345L38.0113 2.65595L38.4354 2.56683ZM42.6333 9.46607L34.378 14.0665L29.9289 12.5618L37.1144 3.32049L42.6333 9.46607ZM29.5749 6.67559L29.9991 6.4244C30.8878 5.90034 32.5411 4.92777 34.4996 4.00391L35.4477 3.56088L29.5749 11.1734V6.67559ZM29.5749 13.5748L33.0867 14.7689L29.5749 16.7382V13.5748ZM28.9915 18.1348C29.3346 18.1348 29.6452 17.943 29.9883 17.7539L34.0349 15.5225C34.3293 15.3334 34.4698 15.2524 34.6211 15.3037L42.9062 18.0834L41.3718 27.1438L41.3313 27.1951L35.0155 35.0587L28.9915 39.5592L22.9053 35.0075L16.6003 27.1438L15.066 18.0834L23.451 15.2632L27.5489 17.4918C27.6489 17.5432 27.7596 17.6026 27.8596 17.662C28.1432 17.8322 28.435 18.0051 28.7294 18.0942C28.8186 18.1239 28.8996 18.1348 28.9915 18.1348ZM41.7149 28.6106L42.8657 33.3704L36.8821 34.5968L41.7149 28.6106ZM34.5995 36.7768L33.4298 42.6415L29.9099 40.2913L34.5995 36.7768ZM28.0028 40.2319L24.4802 42.5712L23.3105 36.7147L28.0028 40.2319ZM21.1494 34.5968L15.1065 33.3704L16.3275 28.5512L21.1494 34.5968ZM14.0962 18.829L15.3172 26.0686L10.4439 22.4137L14.0962 18.829ZM9.59842 21.7114L2.62351 14.5285L13.8557 10.4008V17.4513L9.59842 21.7114ZM15.0363 16.8597V10.5224L22.1786 14.4987L15.0363 16.8597ZM24.934 14.7797L28.4647 13.5748V16.6679L24.934 14.7797ZM23.3996 4.00391C25.3987 4.85754 27.0924 5.86245 28.0028 6.40272L28.4647 6.67559V11.2355L22.492 3.61224L23.3996 4.00391ZM28.0433 12.5618L23.6022 14.0665L15.3388 9.46607L20.8577 3.32049L28.0433 12.5618ZM9.67674 3.69056C11.6649 2.62622 13.7639 2.10493 16.0655 2.10493C17.1136 2.10493 18.1942 2.27509 19.4962 2.63707L19.8798 2.74779L14.3906 8.86369L9.37419 3.85263L9.67674 3.69056ZM2.37228 13.0238C3.22051 9.50663 5.29785 6.47298 8.23422 4.47398L8.4071 4.3659L13.4208 9.36615L2.27232 13.4857L2.37228 13.0238ZM2.95846 23.3376C2.70453 21.9518 2.4425 20.4553 2.2426 18.929C2.12104 17.9349 2.05081 16.9299 2.05081 16.1871V15.5631L8.46654 22.203L3.0071 23.5996L2.95846 23.3376ZM4.90616 29.394C4.26054 27.8164 3.77427 26.3414 3.41229 24.9043L3.35017 24.6639L8.53677 23.3673L5.11684 29.8965L4.90616 29.394ZM9.76858 23.297L15.4388 27.5166L14.0475 33.1003L5.87325 30.8095L9.76858 23.297ZM9.39579 37.5197C8.15316 35.7719 7.15639 34.1538 6.33788 32.5789L6.07585 32.0656L13.3209 34.0836L9.56598 37.7601L9.39579 37.5197ZM14.1475 42.7927C12.8562 41.5663 11.7055 40.3021 10.5061 38.8245L10.3629 38.6434L14.0178 35.0695L14.623 43.2439L14.1475 42.7927ZM15.0768 34.4752L22.0976 35.8719L23.4699 43.0143L15.7629 43.9166L15.0768 34.4752ZM21.9382 48.7574C19.8879 47.4742 18.3859 46.4072 17.065 45.324L16.6111 44.943L23.4402 44.1893L22.23 48.9491L21.9382 48.7574ZM27.0627 51.6802C26.0551 51.1778 25.0853 50.6375 24.156 50.1134L23.1997 49.5813L24.3181 45.1132L27.738 52.0125L27.0627 51.6802ZM28.9915 51.953L24.853 43.6869L28.9915 40.945L33.1272 43.6869L28.9915 51.953ZM34.7319 49.611C33.2596 50.4647 32.017 51.1184 30.8365 51.6802L30.172 52.0017L33.7135 45.0727L34.9047 49.511L34.7319 49.611ZM40.8477 45.3834C39.4241 46.5477 37.8492 47.6633 36.1636 48.6979L35.8718 48.8789L34.5914 44.1893L41.3016 45.0132L40.8477 45.3834ZM42.139 43.9868L34.4996 43.0143L35.9421 35.8719L42.9656 34.4752L42.139 43.9868ZM47.4768 38.8137C46.4665 40.1211 45.2968 41.3962 43.7625 42.8522L43.2871 43.3141L43.9651 35.0777L47.6065 38.6434L47.4768 38.8137ZM51.6342 32.5168C50.6942 34.3348 49.646 36.0123 48.5142 37.5197L48.3332 37.7493L44.5891 34.0836L51.9044 31.9954L51.6342 32.5168ZM43.9246 33.1003L42.5307 27.5868L48.2035 23.3673L52.0368 30.8797L43.9246 33.1003ZM54.5598 24.9043C54.187 26.4117 53.6711 27.9866 53.066 29.4535L52.8634 29.9667L49.4435 23.3673L54.6193 24.6639L54.5598 24.9043ZM55.9321 16.2059C55.8619 16.9785 55.7998 17.8836 55.7295 18.9182V18.929C55.5377 20.3958 55.3459 21.9112 55.0137 23.3484L54.9623 23.5996L49.5029 22.203L55.9808 15.5036L55.9321 16.2059Z" fill="black" fill-opacity="0.2"/>
<path d="M56.91 14.1475C55.951 6.64585 49.5029 1 41.9175 1C36.3473 1 29.4156 5.47886 29.1211 5.67066L28.9915 5.75986L28.8483 5.67066C28.5565 5.47886 21.6357 1 16.0655 1C7.76149 1 1 7.75069 1 16.0547C1 16.8894 1.07023 17.9349 1.19179 19.0695C1.37279 20.7173 1.67532 22.5029 2.09133 24.4019C2.54515 26.4523 3.29075 28.6404 4.30106 30.9311C5.22763 33.0084 6.34867 35.0399 7.63992 36.9281C8.94198 38.8245 10.4358 40.6533 12.1107 42.3605C13.7747 44.0678 15.6522 45.7049 17.6782 47.223C19.7177 48.7385 21.968 50.1755 24.3695 51.4992C25.2366 51.9719 26.1361 52.4447 27.0519 52.8958C27.214 52.9768 27.3869 53.066 27.5462 53.1687C27.9001 53.3578 28.2324 53.5388 28.5863 53.6387C29.0617 53.7792 29.4048 53.609 29.8694 53.3794L30.0801 53.2686C31.3309 52.6743 32.5626 52.0314 33.7323 51.3912C36.0636 50.0946 38.2626 48.6872 40.2399 47.2014C42.2281 45.7265 44.0651 44.1273 45.7102 42.4605C47.3445 40.7938 48.8168 39.0163 50.108 37.1577C51.3912 35.31 52.5095 33.3407 53.4387 31.312C54.368 29.2833 55.1352 27.133 55.7106 24.9233C56.1941 23.0458 56.5561 21.0684 56.7803 19.0586C56.91 17.9348 56.9694 16.8894 56.9694 16.0547C57.0424 15.4117 56.9694 14.7688 56.91 14.1475ZM49.6758 4.47398C52.6716 6.47298 54.7516 9.50661 55.5377 13.0319L55.6377 13.4749L44.4892 9.36615L49.5029 4.3659L49.6758 4.47398ZM43.8732 18.8992L47.5363 22.4731L42.6522 26.1308L43.8732 18.8992ZM42.9359 16.9002L35.8016 14.4987L42.9359 10.5224V16.9002ZM44.1164 17.4513V10.4008L55.4162 14.5285L48.3737 21.7114L44.1164 17.4513ZM38.4354 2.56683C39.8374 2.25618 40.9477 2.10493 41.9175 2.10493C44.0245 2.10493 46.1451 2.61812 48.2224 3.62032L48.5466 3.7716L43.5194 8.79345L38.0113 2.65595L38.4354 2.56683ZM42.6333 9.46607L34.378 14.0665L29.9289 12.5618L37.1144 3.32049L42.6333 9.46607ZM29.5749 6.67559L29.9991 6.4244C30.8878 5.90034 32.5411 4.92777 34.4996 4.00391L35.4477 3.56088L29.5749 11.1734V6.67559ZM29.5749 13.5748L33.0867 14.7689L29.5749 16.7382V13.5748ZM28.9915 18.1348C29.3346 18.1348 29.6452 17.943 29.9883 17.7539L34.0349 15.5225C34.3293 15.3334 34.4698 15.2524 34.6211 15.3037L42.9062 18.0834L41.3718 27.1438L41.3313 27.1951L35.0155 35.0587L28.9915 39.5592L22.9053 35.0075L16.6003 27.1438L15.066 18.0834L23.451 15.2632L27.5489 17.4918C27.6489 17.5432 27.7596 17.6026 27.8596 17.662C28.1432 17.8322 28.435 18.0051 28.7294 18.0942C28.8186 18.1239 28.8996 18.1348 28.9915 18.1348ZM41.7149 28.6106L42.8657 33.3704L36.8821 34.5968L41.7149 28.6106ZM34.5995 36.7768L33.4298 42.6415L29.9099 40.2913L34.5995 36.7768ZM28.0028 40.2319L24.4802 42.5712L23.3105 36.7147L28.0028 40.2319ZM21.1494 34.5968L15.1065 33.3704L16.3275 28.5512L21.1494 34.5968ZM14.0962 18.829L15.3172 26.0686L10.4439 22.4137L14.0962 18.829ZM9.59842 21.7114L2.62351 14.5285L13.8557 10.4008V17.4513L9.59842 21.7114ZM15.0363 16.8597V10.5224L22.1786 14.4987L15.0363 16.8597ZM24.934 14.7797L28.4647 13.5748V16.6679L24.934 14.7797ZM23.3996 4.00391C25.3987 4.85754 27.0924 5.86245 28.0028 6.40272L28.4647 6.67559V11.2355L22.492 3.61224L23.3996 4.00391ZM28.0433 12.5618L23.6022 14.0665L15.3388 9.46607L20.8577 3.32049L28.0433 12.5618ZM9.67674 3.69056C11.6649 2.62622 13.7639 2.10493 16.0655 2.10493C17.1136 2.10493 18.1942 2.27509 19.4962 2.63707L19.8798 2.74779L14.3906 8.86369L9.37419 3.85263L9.67674 3.69056ZM2.37228 13.0238C3.22051 9.50663 5.29785 6.47298 8.23422 4.47398L8.4071 4.3659L13.4208 9.36615L2.27232 13.4857L2.37228 13.0238ZM2.95846 23.3376C2.70453 21.9518 2.4425 20.4553 2.2426 18.929C2.12104 17.9349 2.05081 16.9299 2.05081 16.1871V15.5631L8.46654 22.203L3.0071 23.5996L2.95846 23.3376ZM4.90616 29.394C4.26054 27.8164 3.77427 26.3414 3.41229 24.9043L3.35017 24.6639L8.53677 23.3673L5.11684 29.8965L4.90616 29.394ZM9.76858 23.297L15.4388 27.5166L14.0475 33.1003L5.87325 30.8095L9.76858 23.297ZM9.39579 37.5197C8.15316 35.7719 7.15639 34.1538 6.33788 32.5789L6.07585 32.0656L13.3209 34.0836L9.56598 37.7601L9.39579 37.5197ZM14.1475 42.7927C12.8562 41.5663 11.7055 40.3021 10.5061 38.8245L10.3629 38.6434L14.0178 35.0695L14.623 43.2439L14.1475 42.7927ZM15.0768 34.4752L22.0976 35.8719L23.4699 43.0143L15.7629 43.9166L15.0768 34.4752ZM21.9382 48.7574C19.8879 47.4742 18.3859 46.4072 17.065 45.324L16.6111 44.943L23.4402 44.1893L22.23 48.9491L21.9382 48.7574ZM27.0627 51.6802C26.0551 51.1778 25.0853 50.6375 24.156 50.1134L23.1997 49.5813L24.3181 45.1132L27.738 52.0125L27.0627 51.6802ZM28.9915 51.953L24.853 43.6869L28.9915 40.945L33.1272 43.6869L28.9915 51.953ZM34.7319 49.611C33.2596 50.4647 32.017 51.1184 30.8365 51.6802L30.172 52.0017L33.7135 45.0727L34.9047 49.511L34.7319 49.611ZM40.8477 45.3834C39.4241 46.5477 37.8492 47.6633 36.1636 48.6979L35.8718 48.8789L34.5914 44.1893L41.3016 45.0132L40.8477 45.3834ZM42.139 43.9868L34.4996 43.0143L35.9421 35.8719L42.9656 34.4752L42.139 43.9868ZM47.4768 38.8137C46.4665 40.1211 45.2968 41.3962 43.7625 42.8522L43.2871 43.3141L43.9651 35.0777L47.6065 38.6434L47.4768 38.8137ZM51.6342 32.5168C50.6942 34.3348 49.646 36.0123 48.5142 37.5197L48.3332 37.7493L44.5891 34.0836L51.9044 31.9954L51.6342 32.5168ZM43.9246 33.1003L42.5307 27.5868L48.2035 23.3673L52.0368 30.8797L43.9246 33.1003ZM54.5598 24.9043C54.187 26.4117 53.6711 27.9866 53.066 29.4535L52.8634 29.9667L49.4435 23.3673L54.6193 24.6639L54.5598 24.9043ZM55.9321 16.2059C55.8619 16.9785 55.7998 17.8836 55.7295 18.9182V18.929C55.5377 20.3958 55.3459 21.9112 55.0137 23.3484L54.9623 23.5996L49.5029 22.203L55.9808 15.5036L55.9321 16.2059Z" fill="black" fill-opacity="0.2"/>
<path d="M56.91 14.1475C55.951 6.64585 49.5029 1 41.9175 1C36.3473 1 29.4156 5.47886 29.1211 5.67066L28.9915 5.75986L28.8483 5.67066C28.5565 5.47886 21.6357 1 16.0655 1C7.76149 1 1 7.75069 1 16.0547C1 16.8894 1.07023 17.9349 1.19179 19.0695C1.37279 20.7173 1.67532 22.5029 2.09133 24.4019C2.54515 26.4523 3.29075 28.6404 4.30106 30.9311C5.22763 33.0084 6.34867 35.0399 7.63992 36.9281C8.94198 38.8245 10.4358 40.6533 12.1107 42.3605C13.7747 44.0678 15.6522 45.7049 17.6782 47.223C19.7177 48.7385 21.968 50.1755 24.3695 51.4992C25.2366 51.9719 26.1361 52.4447 27.0519 52.8958C27.214 52.9768 27.3869 53.066 27.5462 53.1687C27.9001 53.3578 28.2324 53.5388 28.5863 53.6387C29.0617 53.7792 29.4048 53.609 29.8694 53.3794L30.0801 53.2686C31.3309 52.6743 32.5626 52.0314 33.7323 51.3912C36.0636 50.0946 38.2626 48.6872 40.2399 47.2014C42.2281 45.7265 44.0651 44.1273 45.7102 42.4605C47.3445 40.7938 48.8168 39.0163 50.108 37.1577C51.3912 35.31 52.5095 33.3407 53.4387 31.312C54.368 29.2833 55.1352 27.133 55.7106 24.9233C56.1941 23.0458 56.5561 21.0684 56.7803 19.0586C56.91 17.9348 56.9694 16.8894 56.9694 16.0547C57.0424 15.4117 56.9694 14.7688 56.91 14.1475ZM49.6758 4.47398C52.6716 6.47298 54.7516 9.50661 55.5377 13.0319L55.6377 13.4749L44.4892 9.36615L49.5029 4.3659L49.6758 4.47398ZM43.8732 18.8992L47.5363 22.4731L42.6522 26.1308L43.8732 18.8992ZM42.9359 16.9002L35.8016 14.4987L42.9359 10.5224V16.9002ZM44.1164 17.4513V10.4008L55.4162 14.5285L48.3737 21.7114L44.1164 17.4513ZM38.4354 2.56683C39.8374 2.25618 40.9477 2.10493 41.9175 2.10493C44.0245 2.10493 46.1451 2.61812 48.2224 3.62032L48.5466 3.7716L43.5194 8.79345L38.0113 2.65595L38.4354 2.56683ZM42.6333 9.46607L34.378 14.0665L29.9289 12.5618L37.1144 3.32049L42.6333 9.46607ZM29.5749 6.67559L29.9991 6.4244C30.8878 5.90034 32.5411 4.92777 34.4996 4.00391L35.4477 3.56088L29.5749 11.1734V6.67559ZM29.5749 13.5748L33.0867 14.7689L29.5749 16.7382V13.5748ZM28.9915 18.1348C29.3346 18.1348 29.6452 17.943 29.9883 17.7539L34.0349 15.5225C34.3293 15.3334 34.4698 15.2524 34.6211 15.3037L42.9062 18.0834L41.3718 27.1438L41.3313 27.1951L35.0155 35.0587L28.9915 39.5592L22.9053 35.0075L16.6003 27.1438L15.066 18.0834L23.451 15.2632L27.5489 17.4918C27.6489 17.5432 27.7596 17.6026 27.8596 17.662C28.1432 17.8322 28.435 18.0051 28.7294 18.0942C28.8186 18.1239 28.8996 18.1348 28.9915 18.1348ZM41.7149 28.6106L42.8657 33.3704L36.8821 34.5968L41.7149 28.6106ZM34.5995 36.7768L33.4298 42.6415L29.9099 40.2913L34.5995 36.7768ZM28.0028 40.2319L24.4802 42.5712L23.3105 36.7147L28.0028 40.2319ZM21.1494 34.5968L15.1065 33.3704L16.3275 28.5512L21.1494 34.5968ZM14.0962 18.829L15.3172 26.0686L10.4439 22.4137L14.0962 18.829ZM9.59842 21.7114L2.62351 14.5285L13.8557 10.4008V17.4513L9.59842 21.7114ZM15.0363 16.8597V10.5224L22.1786 14.4987L15.0363 16.8597ZM24.934 14.7797L28.4647 13.5748V16.6679L24.934 14.7797ZM23.3996 4.00391C25.3987 4.85754 27.0924 5.86245 28.0028 6.40272L28.4647 6.67559V11.2355L22.492 3.61224L23.3996 4.00391ZM28.0433 12.5618L23.6022 14.0665L15.3388 9.46607L20.8577 3.32049L28.0433 12.5618ZM9.67674 3.69056C11.6649 2.62622 13.7639 2.10493 16.0655 2.10493C17.1136 2.10493 18.1942 2.27509 19.4962 2.63707L19.8798 2.74779L14.3906 8.86369L9.37419 3.85263L9.67674 3.69056ZM2.37228 13.0238C3.22051 9.50663 5.29785 6.47298 8.23422 4.47398L8.4071 4.3659L13.4208 9.36615L2.27232 13.4857L2.37228 13.0238ZM2.95846 23.3376C2.70453 21.9518 2.4425 20.4553 2.2426 18.929C2.12104 17.9349 2.05081 16.9299 2.05081 16.1871V15.5631L8.46654 22.203L3.0071 23.5996L2.95846 23.3376ZM4.90616 29.394C4.26054 27.8164 3.77427 26.3414 3.41229 24.9043L3.35017 24.6639L8.53677 23.3673L5.11684 29.8965L4.90616 29.394ZM9.76858 23.297L15.4388 27.5166L14.0475 33.1003L5.87325 30.8095L9.76858 23.297ZM9.39579 37.5197C8.15316 35.7719 7.15639 34.1538 6.33788 32.5789L6.07585 32.0656L13.3209 34.0836L9.56598 37.7601L9.39579 37.5197ZM14.1475 42.7927C12.8562 41.5663 11.7055 40.3021 10.5061 38.8245L10.3629 38.6434L14.0178 35.0695L14.623 43.2439L14.1475 42.7927ZM15.0768 34.4752L22.0976 35.8719L23.4699 43.0143L15.7629 43.9166L15.0768 34.4752ZM21.9382 48.7574C19.8879 47.4742 18.3859 46.4072 17.065 45.324L16.6111 44.943L23.4402 44.1893L22.23 48.9491L21.9382 48.7574ZM27.0627 51.6802C26.0551 51.1778 25.0853 50.6375 24.156 50.1134L23.1997 49.5813L24.3181 45.1132L27.738 52.0125L27.0627 51.6802ZM28.9915 51.953L24.853 43.6869L28.9915 40.945L33.1272 43.6869L28.9915 51.953ZM34.7319 49.611C33.2596 50.4647 32.017 51.1184 30.8365 51.6802L30.172 52.0017L33.7135 45.0727L34.9047 49.511L34.7319 49.611ZM40.8477 45.3834C39.4241 46.5477 37.8492 47.6633 36.1636 48.6979L35.8718 48.8789L34.5914 44.1893L41.3016 45.0132L40.8477 45.3834ZM42.139 43.9868L34.4996 43.0143L35.9421 35.8719L42.9656 34.4752L42.139 43.9868ZM47.4768 38.8137C46.4665 40.1211 45.2968 41.3962 43.7625 42.8522L43.2871 43.3141L43.9651 35.0777L47.6065 38.6434L47.4768 38.8137ZM51.6342 32.5168C50.6942 34.3348 49.646 36.0123 48.5142 37.5197L48.3332 37.7493L44.5891 34.0836L51.9044 31.9954L51.6342 32.5168ZM43.9246 33.1003L42.5307 27.5868L48.2035 23.3673L52.0368 30.8797L43.9246 33.1003ZM54.5598 24.9043C54.187 26.4117 53.6711 27.9866 53.066 29.4535L52.8634 29.9667L49.4435 23.3673L54.6193 24.6639L54.5598 24.9043ZM55.9321 16.2059C55.8619 16.9785 55.7998 17.8836 55.7295 18.9182V18.929C55.5377 20.3958 55.3459 21.9112 55.0137 23.3484L54.9623 23.5996L49.5029 22.203L55.9808 15.5036L55.9321 16.2059Z" fill="black" fill-opacity="0.2"/>
<path d="M56.91 14.1475C55.951 6.64585 49.5029 1 41.9175 1C36.3473 1 29.4156 5.47886 29.1211 5.67066L28.9915 5.75986L28.8483 5.67066C28.5565 5.47886 21.6357 1 16.0655 1C7.76149 1 1 7.75069 1 16.0547C1 16.8894 1.07023 17.9349 1.19179 19.0695C1.37279 20.7173 1.67532 22.5029 2.09133 24.4019C2.54515 26.4523 3.29075 28.6404 4.30106 30.9311C5.22763 33.0084 6.34867 35.0399 7.63992 36.9281C8.94198 38.8245 10.4358 40.6533 12.1107 42.3605C13.7747 44.0678 15.6522 45.7049 17.6782 47.223C19.7177 48.7385 21.968 50.1755 24.3695 51.4992C25.2366 51.9719 26.1361 52.4447 27.0519 52.8958C27.214 52.9768 27.3869 53.066 27.5462 53.1687C27.9001 53.3578 28.2324 53.5388 28.5863 53.6387C29.0617 53.7792 29.4048 53.609 29.8694 53.3794L30.0801 53.2686C31.3309 52.6743 32.5626 52.0314 33.7323 51.3912C36.0636 50.0946 38.2626 48.6872 40.2399 47.2014C42.2281 45.7265 44.0651 44.1273 45.7102 42.4605C47.3445 40.7938 48.8168 39.0163 50.108 37.1577C51.3912 35.31 52.5095 33.3407 53.4387 31.312C54.368 29.2833 55.1352 27.133 55.7106 24.9233C56.1941 23.0458 56.5561 21.0684 56.7803 19.0586C56.91 17.9348 56.9694 16.8894 56.9694 16.0547C57.0424 15.4117 56.9694 14.7688 56.91 14.1475ZM49.6758 4.47398C52.6716 6.47298 54.7516 9.50661 55.5377 13.0319L55.6377 13.4749L44.4892 9.36615L49.5029 4.3659L49.6758 4.47398ZM43.8732 18.8992L47.5363 22.4731L42.6522 26.1308L43.8732 18.8992ZM42.9359 16.9002L35.8016 14.4987L42.9359 10.5224V16.9002ZM44.1164 17.4513V10.4008L55.4162 14.5285L48.3737 21.7114L44.1164 17.4513ZM38.4354 2.56683C39.8374 2.25618 40.9477 2.10493 41.9175 2.10493C44.0245 2.10493 46.1451 2.61812 48.2224 3.62032L48.5466 3.7716L43.5194 8.79345L38.0113 2.65595L38.4354 2.56683ZM42.6333 9.46607L34.378 14.0665L29.9289 12.5618L37.1144 3.32049L42.6333 9.46607ZM29.5749 6.67559L29.9991 6.4244C30.8878 5.90034 32.5411 4.92777 34.4996 4.00391L35.4477 3.56088L29.5749 11.1734V6.67559ZM29.5749 13.5748L33.0867 14.7689L29.5749 16.7382V13.5748ZM28.9915 18.1348C29.3346 18.1348 29.6452 17.943 29.9883 17.7539L34.0349 15.5225C34.3293 15.3334 34.4698 15.2524 34.6211 15.3037L42.9062 18.0834L41.3718 27.1438L41.3313 27.1951L35.0155 35.0587L28.9915 39.5592L22.9053 35.0075L16.6003 27.1438L15.066 18.0834L23.451 15.2632L27.5489 17.4918C27.6489 17.5432 27.7596 17.6026 27.8596 17.662C28.1432 17.8322 28.435 18.0051 28.7294 18.0942C28.8186 18.1239 28.8996 18.1348 28.9915 18.1348ZM41.7149 28.6106L42.8657 33.3704L36.8821 34.5968L41.7149 28.6106ZM34.5995 36.7768L33.4298 42.6415L29.9099 40.2913L34.5995 36.7768ZM28.0028 40.2319L24.4802 42.5712L23.3105 36.7147L28.0028 40.2319ZM21.1494 34.5968L15.1065 33.3704L16.3275 28.5512L21.1494 34.5968ZM14.0962 18.829L15.3172 26.0686L10.4439 22.4137L14.0962 18.829ZM9.59842 21.7114L2.62351 14.5285L13.8557 10.4008V17.4513L9.59842 21.7114ZM15.0363 16.8597V10.5224L22.1786 14.4987L15.0363 16.8597ZM24.934 14.7797L28.4647 13.5748V16.6679L24.934 14.7797ZM23.3996 4.00391C25.3987 4.85754 27.0924 5.86245 28.0028 6.40272L28.4647 6.67559V11.2355L22.492 3.61224L23.3996 4.00391ZM28.0433 12.5618L23.6022 14.0665L15.3388 9.46607L20.8577 3.32049L28.0433 12.5618ZM9.67674 3.69056C11.6649 2.62622 13.7639 2.10493 16.0655 2.10493C17.1136 2.10493 18.1942 2.27509 19.4962 2.63707L19.8798 2.74779L14.3906 8.86369L9.37419 3.85263L9.67674 3.69056ZM2.37228 13.0238C3.22051 9.50663 5.29785 6.47298 8.23422 4.47398L8.4071 4.3659L13.4208 9.36615L2.27232 13.4857L2.37228 13.0238ZM2.95846 23.3376C2.70453 21.9518 2.4425 20.4553 2.2426 18.929C2.12104 17.9349 2.05081 16.9299 2.05081 16.1871V15.5631L8.46654 22.203L3.0071 23.5996L2.95846 23.3376ZM4.90616 29.394C4.26054 27.8164 3.77427 26.3414 3.41229 24.9043L3.35017 24.6639L8.53677 23.3673L5.11684 29.8965L4.90616 29.394ZM9.76858 23.297L15.4388 27.5166L14.0475 33.1003L5.87325 30.8095L9.76858 23.297ZM9.39579 37.5197C8.15316 35.7719 7.15639 34.1538 6.33788 32.5789L6.07585 32.0656L13.3209 34.0836L9.56598 37.7601L9.39579 37.5197ZM14.1475 42.7927C12.8562 41.5663 11.7055 40.3021 10.5061 38.8245L10.3629 38.6434L14.0178 35.0695L14.623 43.2439L14.1475 42.7927ZM15.0768 34.4752L22.0976 35.8719L23.4699 43.0143L15.7629 43.9166L15.0768 34.4752ZM21.9382 48.7574C19.8879 47.4742 18.3859 46.4072 17.065 45.324L16.6111 44.943L23.4402 44.1893L22.23 48.9491L21.9382 48.7574ZM27.0627 51.6802C26.0551 51.1778 25.0853 50.6375 24.156 50.1134L23.1997 49.5813L24.3181 45.1132L27.738 52.0125L27.0627 51.6802ZM28.9915 51.953L24.853 43.6869L28.9915 40.945L33.1272 43.6869L28.9915 51.953ZM34.7319 49.611C33.2596 50.4647 32.017 51.1184 30.8365 51.6802L30.172 52.0017L33.7135 45.0727L34.9047 49.511L34.7319 49.611ZM40.8477 45.3834C39.4241 46.5477 37.8492 47.6633 36.1636 48.6979L35.8718 48.8789L34.5914 44.1893L41.3016 45.0132L40.8477 45.3834ZM42.139 43.9868L34.4996 43.0143L35.9421 35.8719L42.9656 34.4752L42.139 43.9868ZM47.4768 38.8137C46.4665 40.1211 45.2968 41.3962 43.7625 42.8522L43.2871 43.3141L43.9651 35.0777L47.6065 38.6434L47.4768 38.8137ZM51.6342 32.5168C50.6942 34.3348 49.646 36.0123 48.5142 37.5197L48.3332 37.7493L44.5891 34.0836L51.9044 31.9954L51.6342 32.5168ZM43.9246 33.1003L42.5307 27.5868L48.2035 23.3673L52.0368 30.8797L43.9246 33.1003ZM54.5598 24.9043C54.187 26.4117 53.6711 27.9866 53.066 29.4535L52.8634 29.9667L49.4435 23.3673L54.6193 24.6639L54.5598 24.9043ZM55.9321 16.2059C55.8619 16.9785 55.7998 17.8836 55.7295 18.9182V18.929C55.5377 20.3958 55.3459 21.9112 55.0137 23.3484L54.9623 23.5996L49.5029 22.203L55.9808 15.5036L55.9321 16.2059Z" fill="black" fill-opacity="0.2"/>
<path d="M56.91 14.1475C55.951 6.64585 49.5029 1 41.9175 1C36.3473 1 29.4156 5.47886 29.1211 5.67066L28.9915 5.75986L28.8483 5.67066C28.5565 5.47886 21.6357 1 16.0655 1C7.76149 1 1 7.75069 1 16.0547C1 16.8894 1.07023 17.9349 1.19179 19.0695C1.37279 20.7173 1.67532 22.5029 2.09133 24.4019C2.54515 26.4523 3.29075 28.6404 4.30106 30.9311C5.22763 33.0084 6.34867 35.0399 7.63992 36.9281C8.94198 38.8245 10.4358 40.6533 12.1107 42.3605C13.7747 44.0678 15.6522 45.7049 17.6782 47.223C19.7177 48.7385 21.968 50.1755 24.3695 51.4992C25.2366 51.9719 26.1361 52.4447 27.0519 52.8958C27.214 52.9768 27.3869 53.066 27.5462 53.1687C27.9001 53.3578 28.2324 53.5388 28.5863 53.6387C29.0617 53.7792 29.4048 53.609 29.8694 53.3794L30.0801 53.2686C31.3309 52.6743 32.5626 52.0314 33.7323 51.3912C36.0636 50.0946 38.2626 48.6872 40.2399 47.2014C42.2281 45.7265 44.0651 44.1273 45.7102 42.4605C47.3445 40.7938 48.8168 39.0163 50.108 37.1577C51.3912 35.31 52.5095 33.3407 53.4387 31.312C54.368 29.2833 55.1352 27.133 55.7106 24.9233C56.1941 23.0458 56.5561 21.0684 56.7803 19.0586C56.91 17.9348 56.9694 16.8894 56.9694 16.0547C57.0424 15.4117 56.9694 14.7688 56.91 14.1475ZM49.6758 4.47398C52.6716 6.47298 54.7516 9.50661 55.5377 13.0319L55.6377 13.4749L44.4892 9.36615L49.5029 4.3659L49.6758 4.47398ZM43.8732 18.8992L47.5363 22.4731L42.6522 26.1308L43.8732 18.8992ZM42.9359 16.9002L35.8016 14.4987L42.9359 10.5224V16.9002ZM44.1164 17.4513V10.4008L55.4162 14.5285L48.3737 21.7114L44.1164 17.4513ZM38.4354 2.56683C39.8374 2.25618 40.9477 2.10493 41.9175 2.10493C44.0245 2.10493 46.1451 2.61812 48.2224 3.62032L48.5466 3.7716L43.5194 8.79345L38.0113 2.65595L38.4354 2.56683ZM42.6333 9.46607L34.378 14.0665L29.9289 12.5618L37.1144 3.32049L42.6333 9.46607ZM29.5749 6.67559L29.9991 6.4244C30.8878 5.90034 32.5411 4.92777 34.4996 4.00391L35.4477 3.56088L29.5749 11.1734V6.67559ZM29.5749 13.5748L33.0867 14.7689L29.5749 16.7382V13.5748ZM28.9915 18.1348C29.3346 18.1348 29.6452 17.943 29.9883 17.7539L34.0349 15.5225C34.3293 15.3334 34.4698 15.2524 34.6211 15.3037L42.9062 18.0834L41.3718 27.1438L41.3313 27.1951L35.0155 35.0587L28.9915 39.5592L22.9053 35.0075L16.6003 27.1438L15.066 18.0834L23.451 15.2632L27.5489 17.4918C27.6489 17.5432 27.7596 17.6026 27.8596 17.662C28.1432 17.8322 28.435 18.0051 28.7294 18.0942C28.8186 18.1239 28.8996 18.1348 28.9915 18.1348ZM41.7149 28.6106L42.8657 33.3704L36.8821 34.5968L41.7149 28.6106ZM34.5995 36.7768L33.4298 42.6415L29.9099 40.2913L34.5995 36.7768ZM28.0028 40.2319L24.4802 42.5712L23.3105 36.7147L28.0028 40.2319ZM21.1494 34.5968L15.1065 33.3704L16.3275 28.5512L21.1494 34.5968ZM14.0962 18.829L15.3172 26.0686L10.4439 22.4137L14.0962 18.829ZM9.59842 21.7114L2.62351 14.5285L13.8557 10.4008V17.4513L9.59842 21.7114ZM15.0363 16.8597V10.5224L22.1786 14.4987L15.0363 16.8597ZM24.934 14.7797L28.4647 13.5748V16.6679L24.934 14.7797ZM23.3996 4.00391C25.3987 4.85754 27.0924 5.86245 28.0028 6.40272L28.4647 6.67559V11.2355L22.492 3.61224L23.3996 4.00391ZM28.0433 12.5618L23.6022 14.0665L15.3388 9.46607L20.8577 3.32049L28.0433 12.5618ZM9.67674 3.69056C11.6649 2.62622 13.7639 2.10493 16.0655 2.10493C17.1136 2.10493 18.1942 2.27509 19.4962 2.63707L19.8798 2.74779L14.3906 8.86369L9.37419 3.85263L9.67674 3.69056ZM2.37228 13.0238C3.22051 9.50663 5.29785 6.47298 8.23422 4.47398L8.4071 4.3659L13.4208 9.36615L2.27232 13.4857L2.37228 13.0238ZM2.95846 23.3376C2.70453 21.9518 2.4425 20.4553 2.2426 18.929C2.12104 17.9349 2.05081 16.9299 2.05081 16.1871V15.5631L8.46654 22.203L3.0071 23.5996L2.95846 23.3376ZM4.90616 29.394C4.26054 27.8164 3.77427 26.3414 3.41229 24.9043L3.35017 24.6639L8.53677 23.3673L5.11684 29.8965L4.90616 29.394ZM9.76858 23.297L15.4388 27.5166L14.0475 33.1003L5.87325 30.8095L9.76858 23.297ZM9.39579 37.5197C8.15316 35.7719 7.15639 34.1538 6.33788 32.5789L6.07585 32.0656L13.3209 34.0836L9.56598 37.7601L9.39579 37.5197ZM14.1475 42.7927C12.8562 41.5663 11.7055 40.3021 10.5061 38.8245L10.3629 38.6434L14.0178 35.0695L14.623 43.2439L14.1475 42.7927ZM15.0768 34.4752L22.0976 35.8719L23.4699 43.0143L15.7629 43.9166L15.0768 34.4752ZM21.9382 48.7574C19.8879 47.4742 18.3859 46.4072 17.065 45.324L16.6111 44.943L23.4402 44.1893L22.23 48.9491L21.9382 48.7574ZM27.0627 51.6802C26.0551 51.1778 25.0853 50.6375 24.156 50.1134L23.1997 49.5813L24.3181 45.1132L27.738 52.0125L27.0627 51.6802ZM28.9915 51.953L24.853 43.6869L28.9915 40.945L33.1272 43.6869L28.9915 51.953ZM34.7319 49.611C33.2596 50.4647 32.017 51.1184 30.8365 51.6802L30.172 52.0017L33.7135 45.0727L34.9047 49.511L34.7319 49.611ZM40.8477 45.3834C39.4241 46.5477 37.8492 47.6633 36.1636 48.6979L35.8718 48.8789L34.5914 44.1893L41.3016 45.0132L40.8477 45.3834ZM42.139 43.9868L34.4996 43.0143L35.9421 35.8719L42.9656 34.4752L42.139 43.9868ZM47.4768 38.8137C46.4665 40.1211 45.2968 41.3962 43.7625 42.8522L43.2871 43.3141L43.9651 35.0777L47.6065 38.6434L47.4768 38.8137ZM51.6342 32.5168C50.6942 34.3348 49.646 36.0123 48.5142 37.5197L48.3332 37.7493L44.5891 34.0836L51.9044 31.9954L51.6342 32.5168ZM43.9246 33.1003L42.5307 27.5868L48.2035 23.3673L52.0368 30.8797L43.9246 33.1003ZM54.5598 24.9043C54.187 26.4117 53.6711 27.9866 53.066 29.4535L52.8634 29.9667L49.4435 23.3673L54.6193 24.6639L54.5598 24.9043ZM55.9321 16.2059C55.8619 16.9785 55.7998 17.8836 55.7295 18.9182V18.929C55.5377 20.3958 55.3459 21.9112 55.0137 23.3484L54.9623 23.5996L49.5029 22.203L55.9808 15.5036L55.9321 16.2059Z" fill="black" fill-opacity="0.2"/>
<path d="M56.91 14.1475C55.951 6.64585 49.5029 1 41.9175 1C36.3473 1 29.4156 5.47886 29.1211 5.67066L28.9915 5.75986L28.8483 5.67066C28.5565 5.47886 21.6357 1 16.0655 1C7.76149 1 1 7.75069 1 16.0547C1 16.8894 1.07023 17.9349 1.19179 19.0695C1.37279 20.7173 1.67532 22.5029 2.09133 24.4019C2.54515 26.4523 3.29075 28.6404 4.30106 30.9311C5.22763 33.0084 6.34867 35.0399 7.63992 36.9281C8.94198 38.8245 10.4358 40.6533 12.1107 42.3605C13.7747 44.0678 15.6522 45.7049 17.6782 47.223C19.7177 48.7385 21.968 50.1755 24.3695 51.4992C25.2366 51.9719 26.1361 52.4447 27.0519 52.8958C27.214 52.9768 27.3869 53.066 27.5462 53.1687C27.9001 53.3578 28.2324 53.5388 28.5863 53.6387C29.0617 53.7792 29.4048 53.609 29.8694 53.3794L30.0801 53.2686C31.3309 52.6743 32.5626 52.0314 33.7323 51.3912C36.0636 50.0946 38.2626 48.6872 40.2399 47.2014C42.2281 45.7265 44.0651 44.1273 45.7102 42.4605C47.3445 40.7938 48.8168 39.0163 50.108 37.1577C51.3912 35.31 52.5095 33.3407 53.4387 31.312C54.368 29.2833 55.1352 27.133 55.7106 24.9233C56.1941 23.0458 56.5561 21.0684 56.7803 19.0586C56.91 17.9348 56.9694 16.8894 56.9694 16.0547C57.0424 15.4117 56.9694 14.7688 56.91 14.1475ZM49.6758 4.47398C52.6716 6.47298 54.7516 9.50661 55.5377 13.0319L55.6377 13.4749L44.4892 9.36615L49.5029 4.3659L49.6758 4.47398ZM43.8732 18.8992L47.5363 22.4731L42.6522 26.1308L43.8732 18.8992ZM42.9359 16.9002L35.8016 14.4987L42.9359 10.5224V16.9002ZM44.1164 17.4513V10.4008L55.4162 14.5285L48.3737 21.7114L44.1164 17.4513ZM38.4354 2.56683C39.8374 2.25618 40.9477 2.10493 41.9175 2.10493C44.0245 2.10493 46.1451 2.61812 48.2224 3.62032L48.5466 3.7716L43.5194 8.79345L38.0113 2.65595L38.4354 2.56683ZM42.6333 9.46607L34.378 14.0665L29.9289 12.5618L37.1144 3.32049L42.6333 9.46607ZM29.5749 6.67559L29.9991 6.4244C30.8878 5.90034 32.5411 4.92777 34.4996 4.00391L35.4477 3.56088L29.5749 11.1734V6.67559ZM29.5749 13.5748L33.0867 14.7689L29.5749 16.7382V13.5748ZM28.9915 18.1348C29.3346 18.1348 29.6452 17.943 29.9883 17.7539L34.0349 15.5225C34.3293 15.3334 34.4698 15.2524 34.6211 15.3037L42.9062 18.0834L41.3718 27.1438L41.3313 27.1951L35.0155 35.0587L28.9915 39.5592L22.9053 35.0075L16.6003 27.1438L15.066 18.0834L23.451 15.2632L27.5489 17.4918C27.6489 17.5432 27.7596 17.6026 27.8596 17.662C28.1432 17.8322 28.435 18.0051 28.7294 18.0942C28.8186 18.1239 28.8996 18.1348 28.9915 18.1348ZM41.7149 28.6106L42.8657 33.3704L36.8821 34.5968L41.7149 28.6106ZM34.5995 36.7768L33.4298 42.6415L29.9099 40.2913L34.5995 36.7768ZM28.0028 40.2319L24.4802 42.5712L23.3105 36.7147L28.0028 40.2319ZM21.1494 34.5968L15.1065 33.3704L16.3275 28.5512L21.1494 34.5968ZM14.0962 18.829L15.3172 26.0686L10.4439 22.4137L14.0962 18.829ZM9.59842 21.7114L2.62351 14.5285L13.8557 10.4008V17.4513L9.59842 21.7114ZM15.0363 16.8597V10.5224L22.1786 14.4987L15.0363 16.8597ZM24.934 14.7797L28.4647 13.5748V16.6679L24.934 14.7797ZM23.3996 4.00391C25.3987 4.85754 27.0924 5.86245 28.0028 6.40272L28.4647 6.67559V11.2355L22.492 3.61224L23.3996 4.00391ZM28.0433 12.5618L23.6022 14.0665L15.3388 9.46607L20.8577 3.32049L28.0433 12.5618ZM9.67674 3.69056C11.6649 2.62622 13.7639 2.10493 16.0655 2.10493C17.1136 2.10493 18.1942 2.27509 19.4962 2.63707L19.8798 2.74779L14.3906 8.86369L9.37419 3.85263L9.67674 3.69056ZM2.37228 13.0238C3.22051 9.50663 5.29785 6.47298 8.23422 4.47398L8.4071 4.3659L13.4208 9.36615L2.27232 13.4857L2.37228 13.0238ZM2.95846 23.3376C2.70453 21.9518 2.4425 20.4553 2.2426 18.929C2.12104 17.9349 2.05081 16.9299 2.05081 16.1871V15.5631L8.46654 22.203L3.0071 23.5996L2.95846 23.3376ZM4.90616 29.394C4.26054 27.8164 3.77427 26.3414 3.41229 24.9043L3.35017 24.6639L8.53677 23.3673L5.11684 29.8965L4.90616 29.394ZM9.76858 23.297L15.4388 27.5166L14.0475 33.1003L5.87325 30.8095L9.76858 23.297ZM9.39579 37.5197C8.15316 35.7719 7.15639 34.1538 6.33788 32.5789L6.07585 32.0656L13.3209 34.0836L9.56598 37.7601L9.39579 37.5197ZM14.1475 42.7927C12.8562 41.5663 11.7055 40.3021 10.5061 38.8245L10.3629 38.6434L14.0178 35.0695L14.623 43.2439L14.1475 42.7927ZM15.0768 34.4752L22.0976 35.8719L23.4699 43.0143L15.7629 43.9166L15.0768 34.4752ZM21.9382 48.7574C19.8879 47.4742 18.3859 46.4072 17.065 45.324L16.6111 44.943L23.4402 44.1893L22.23 48.9491L21.9382 48.7574ZM27.0627 51.6802C26.0551 51.1778 25.0853 50.6375 24.156 50.1134L23.1997 49.5813L24.3181 45.1132L27.738 52.0125L27.0627 51.6802ZM28.9915 51.953L24.853 43.6869L28.9915 40.945L33.1272 43.6869L28.9915 51.953ZM34.7319 49.611C33.2596 50.4647 32.017 51.1184 30.8365 51.6802L30.172 52.0017L33.7135 45.0727L34.9047 49.511L34.7319 49.611ZM40.8477 45.3834C39.4241 46.5477 37.8492 47.6633 36.1636 48.6979L35.8718 48.8789L34.5914 44.1893L41.3016 45.0132L40.8477 45.3834ZM42.139 43.9868L34.4996 43.0143L35.9421 35.8719L42.9656 34.4752L42.139 43.9868ZM47.4768 38.8137C46.4665 40.1211 45.2968 41.3962 43.7625 42.8522L43.2871 43.3141L43.9651 35.0777L47.6065 38.6434L47.4768 38.8137ZM51.6342 32.5168C50.6942 34.3348 49.646 36.0123 48.5142 37.5197L48.3332 37.7493L44.5891 34.0836L51.9044 31.9954L51.6342 32.5168ZM43.9246 33.1003L42.5307 27.5868L48.2035 23.3673L52.0368 30.8797L43.9246 33.1003ZM54.5598 24.9043C54.187 26.4117 53.6711 27.9866 53.066 29.4535L52.8634 29.9667L49.4435 23.3673L54.6193 24.6639L54.5598 24.9043ZM55.9321 16.2059C55.8619 16.9785 55.7998 17.8836 55.7295 18.9182V18.929C55.5377 20.3958 55.3459 21.9112 55.0137 23.3484L54.9623 23.5996L49.5029 22.203L55.9808 15.5036L55.9321 16.2059Z" fill="black" fill-opacity="0.2"/>
<path d="M56.91 14.1475C55.951 6.64585 49.5029 1 41.9175 1C36.3473 1 29.4156 5.47886 29.1211 5.67066L28.9915 5.75986L28.8483 5.67066C28.5565 5.47886 21.6357 1 16.0655 1C7.76149 1 1 7.75069 1 16.0547C1 16.8894 1.07023 17.9349 1.19179 19.0695C1.37279 20.7173 1.67532 22.5029 2.09133 24.4019C2.54515 26.4523 3.29075 28.6404 4.30106 30.9311C5.22763 33.0084 6.34867 35.0399 7.63992 36.9281C8.94198 38.8245 10.4358 40.6533 12.1107 42.3605C13.7747 44.0678 15.6522 45.7049 17.6782 47.223C19.7177 48.7385 21.968 50.1755 24.3695 51.4992C25.2366 51.9719 26.1361 52.4447 27.0519 52.8958C27.214 52.9768 27.3869 53.066 27.5462 53.1687C27.9001 53.3578 28.2324 53.5388 28.5863 53.6387C29.0617 53.7792 29.4048 53.609 29.8694 53.3794L30.0801 53.2686C31.3309 52.6743 32.5626 52.0314 33.7323 51.3912C36.0636 50.0946 38.2626 48.6872 40.2399 47.2014C42.2281 45.7265 44.0651 44.1273 45.7102 42.4605C47.3445 40.7938 48.8168 39.0163 50.108 37.1577C51.3912 35.31 52.5095 33.3407 53.4387 31.312C54.368 29.2833 55.1352 27.133 55.7106 24.9233C56.1941 23.0458 56.5561 21.0684 56.7803 19.0586C56.91 17.9348 56.9694 16.8894 56.9694 16.0547C57.0424 15.4117 56.9694 14.7688 56.91 14.1475ZM49.6758 4.47398C52.6716 6.47298 54.7516 9.50661 55.5377 13.0319L55.6377 13.4749L44.4892 9.36615L49.5029 4.3659L49.6758 4.47398ZM43.8732 18.8992L47.5363 22.4731L42.6522 26.1308L43.8732 18.8992ZM42.9359 16.9002L35.8016 14.4987L42.9359 10.5224V16.9002ZM44.1164 17.4513V10.4008L55.4162 14.5285L48.3737 21.7114L44.1164 17.4513ZM38.4354 2.56683C39.8374 2.25618 40.9477 2.10493 41.9175 2.10493C44.0245 2.10493 46.1451 2.61812 48.2224 3.62032L48.5466 3.7716L43.5194 8.79345L38.0113 2.65595L38.4354 2.56683ZM42.6333 9.46607L34.378 14.0665L29.9289 12.5618L37.1144 3.32049L42.6333 9.46607ZM29.5749 6.67559L29.9991 6.4244C30.8878 5.90034 32.5411 4.92777 34.4996 4.00391L35.4477 3.56088L29.5749 11.1734V6.67559ZM29.5749 13.5748L33.0867 14.7689L29.5749 16.7382V13.5748ZM28.9915 18.1348C29.3346 18.1348 29.6452 17.943 29.9883 17.7539L34.0349 15.5225C34.3293 15.3334 34.4698 15.2524 34.6211 15.3037L42.9062 18.0834L41.3718 27.1438L41.3313 27.1951L35.0155 35.0587L28.9915 39.5592L22.9053 35.0075L16.6003 27.1438L15.066 18.0834L23.451 15.2632L27.5489 17.4918C27.6489 17.5432 27.7596 17.6026 27.8596 17.662C28.1432 17.8322 28.435 18.0051 28.7294 18.0942C28.8186 18.1239 28.8996 18.1348 28.9915 18.1348ZM41.7149 28.6106L42.8657 33.3704L36.8821 34.5968L41.7149 28.6106ZM34.5995 36.7768L33.4298 42.6415L29.9099 40.2913L34.5995 36.7768ZM28.0028 40.2319L24.4802 42.5712L23.3105 36.7147L28.0028 40.2319ZM21.1494 34.5968L15.1065 33.3704L16.3275 28.5512L21.1494 34.5968ZM14.0962 18.829L15.3172 26.0686L10.4439 22.4137L14.0962 18.829ZM9.59842 21.7114L2.62351 14.5285L13.8557 10.4008V17.4513L9.59842 21.7114ZM15.0363 16.8597V10.5224L22.1786 14.4987L15.0363 16.8597ZM24.934 14.7797L28.4647 13.5748V16.6679L24.934 14.7797ZM23.3996 4.00391C25.3987 4.85754 27.0924 5.86245 28.0028 6.40272L28.4647 6.67559V11.2355L22.492 3.61224L23.3996 4.00391ZM28.0433 12.5618L23.6022 14.0665L15.3388 9.46607L20.8577 3.32049L28.0433 12.5618ZM9.67674 3.69056C11.6649 2.62622 13.7639 2.10493 16.0655 2.10493C17.1136 2.10493 18.1942 2.27509 19.4962 2.63707L19.8798 2.74779L14.3906 8.86369L9.37419 3.85263L9.67674 3.69056ZM2.37228 13.0238C3.22051 9.50663 5.29785 6.47298 8.23422 4.47398L8.4071 4.3659L13.4208 9.36615L2.27232 13.4857L2.37228 13.0238ZM2.95846 23.3376C2.70453 21.9518 2.4425 20.4553 2.2426 18.929C2.12104 17.9349 2.05081 16.9299 2.05081 16.1871V15.5631L8.46654 22.203L3.0071 23.5996L2.95846 23.3376ZM4.90616 29.394C4.26054 27.8164 3.77427 26.3414 3.41229 24.9043L3.35017 24.6639L8.53677 23.3673L5.11684 29.8965L4.90616 29.394ZM9.76858 23.297L15.4388 27.5166L14.0475 33.1003L5.87325 30.8095L9.76858 23.297ZM9.39579 37.5197C8.15316 35.7719 7.15639 34.1538 6.33788 32.5789L6.07585 32.0656L13.3209 34.0836L9.56598 37.7601L9.39579 37.5197ZM14.1475 42.7927C12.8562 41.5663 11.7055 40.3021 10.5061 38.8245L10.3629 38.6434L14.0178 35.0695L14.623 43.2439L14.1475 42.7927ZM15.0768 34.4752L22.0976 35.8719L23.4699 43.0143L15.7629 43.9166L15.0768 34.4752ZM21.9382 48.7574C19.8879 47.4742 18.3859 46.4072 17.065 45.324L16.6111 44.943L23.4402 44.1893L22.23 48.9491L21.9382 48.7574ZM27.0627 51.6802C26.0551 51.1778 25.0853 50.6375 24.156 50.1134L23.1997 49.5813L24.3181 45.1132L27.738 52.0125L27.0627 51.6802ZM28.9915 51.953L24.853 43.6869L28.9915 40.945L33.1272 43.6869L28.9915 51.953ZM34.7319 49.611C33.2596 50.4647 32.017 51.1184 30.8365 51.6802L30.172 52.0017L33.7135 45.0727L34.9047 49.511L34.7319 49.611ZM40.8477 45.3834C39.4241 46.5477 37.8492 47.6633 36.1636 48.6979L35.8718 48.8789L34.5914 44.1893L41.3016 45.0132L40.8477 45.3834ZM42.139 43.9868L34.4996 43.0143L35.9421 35.8719L42.9656 34.4752L42.139 43.9868ZM47.4768 38.8137C46.4665 40.1211 45.2968 41.3962 43.7625 42.8522L43.2871 43.3141L43.9651 35.0777L47.6065 38.6434L47.4768 38.8137ZM51.6342 32.5168C50.6942 34.3348 49.646 36.0123 48.5142 37.5197L48.3332 37.7493L44.5891 34.0836L51.9044 31.9954L51.6342 32.5168ZM43.9246 33.1003L42.5307 27.5868L48.2035 23.3673L52.0368 30.8797L43.9246 33.1003ZM54.5598 24.9043C54.187 26.4117 53.6711 27.9866 53.066 29.4535L52.8634 29.9667L49.4435 23.3673L54.6193 24.6639L54.5598 24.9043ZM55.9321 16.2059C55.8619 16.9785 55.7998 17.8836 55.7295 18.9182V18.929C55.5377 20.3958 55.3459 21.9112 55.0137 23.3484L54.9623 23.5996L49.5029 22.203L55.9808 15.5036L55.9321 16.2059Z" fill="black" fill-opacity="0.2"/>
<path d="M56.91 14.1475C55.951 6.64585 49.5029 1 41.9175 1C36.3473 1 29.4156 5.47886 29.1211 5.67066L28.9915 5.75986L28.8483 5.67066C28.5565 5.47886 21.6357 1 16.0655 1C7.76149 1 1 7.75069 1 16.0547C1 16.8894 1.07023 17.9349 1.19179 19.0695C1.37279 20.7173 1.67532 22.5029 2.09133 24.4019C2.54515 26.4523 3.29075 28.6404 4.30106 30.9311C5.22763 33.0084 6.34867 35.0399 7.63992 36.9281C8.94198 38.8245 10.4358 40.6533 12.1107 42.3605C13.7747 44.0678 15.6522 45.7049 17.6782 47.223C19.7177 48.7385 21.968 50.1755 24.3695 51.4992C25.2366 51.9719 26.1361 52.4447 27.0519 52.8958C27.214 52.9768 27.3869 53.066 27.5462 53.1687C27.9001 53.3578 28.2324 53.5388 28.5863 53.6387C29.0617 53.7792 29.4048 53.609 29.8694 53.3794L30.0801 53.2686C31.3309 52.6743 32.5626 52.0314 33.7323 51.3912C36.0636 50.0946 38.2626 48.6872 40.2399 47.2014C42.2281 45.7265 44.0651 44.1273 45.7102 42.4605C47.3445 40.7938 48.8168 39.0163 50.108 37.1577C51.3912 35.31 52.5095 33.3407 53.4387 31.312C54.368 29.2833 55.1352 27.133 55.7106 24.9233C56.1941 23.0458 56.5561 21.0684 56.7803 19.0586C56.91 17.9348 56.9694 16.8894 56.9694 16.0547C57.0424 15.4117 56.9694 14.7688 56.91 14.1475ZM49.6758 4.47398C52.6716 6.47298 54.7516 9.50661 55.5377 13.0319L55.6377 13.4749L44.4892 9.36615L49.5029 4.3659L49.6758 4.47398ZM43.8732 18.8992L47.5363 22.4731L42.6522 26.1308L43.8732 18.8992ZM42.9359 16.9002L35.8016 14.4987L42.9359 10.5224V16.9002ZM44.1164 17.4513V10.4008L55.4162 14.5285L48.3737 21.7114L44.1164 17.4513ZM38.4354 2.56683C39.8374 2.25618 40.9477 2.10493 41.9175 2.10493C44.0245 2.10493 46.1451 2.61812 48.2224 3.62032L48.5466 3.7716L43.5194 8.79345L38.0113 2.65595L38.4354 2.56683ZM42.6333 9.46607L34.378 14.0665L29.9289 12.5618L37.1144 3.32049L42.6333 9.46607ZM29.5749 6.67559L29.9991 6.4244C30.8878 5.90034 32.5411 4.92777 34.4996 4.00391L35.4477 3.56088L29.5749 11.1734V6.67559ZM29.5749 13.5748L33.0867 14.7689L29.5749 16.7382V13.5748ZM28.9915 18.1348C29.3346 18.1348 29.6452 17.943 29.9883 17.7539L34.0349 15.5225C34.3293 15.3334 34.4698 15.2524 34.6211 15.3037L42.9062 18.0834L41.3718 27.1438L41.3313 27.1951L35.0155 35.0587L28.9915 39.5592L22.9053 35.0075L16.6003 27.1438L15.066 18.0834L23.451 15.2632L27.5489 17.4918C27.6489 17.5432 27.7596 17.6026 27.8596 17.662C28.1432 17.8322 28.435 18.0051 28.7294 18.0942C28.8186 18.1239 28.8996 18.1348 28.9915 18.1348ZM41.7149 28.6106L42.8657 33.3704L36.8821 34.5968L41.7149 28.6106ZM34.5995 36.7768L33.4298 42.6415L29.9099 40.2913L34.5995 36.7768ZM28.0028 40.2319L24.4802 42.5712L23.3105 36.7147L28.0028 40.2319ZM21.1494 34.5968L15.1065 33.3704L16.3275 28.5512L21.1494 34.5968ZM14.0962 18.829L15.3172 26.0686L10.4439 22.4137L14.0962 18.829ZM9.59842 21.7114L2.62351 14.5285L13.8557 10.4008V17.4513L9.59842 21.7114ZM15.0363 16.8597V10.5224L22.1786 14.4987L15.0363 16.8597ZM24.934 14.7797L28.4647 13.5748V16.6679L24.934 14.7797ZM23.3996 4.00391C25.3987 4.85754 27.0924 5.86245 28.0028 6.40272L28.4647 6.67559V11.2355L22.492 3.61224L23.3996 4.00391ZM28.0433 12.5618L23.6022 14.0665L15.3388 9.46607L20.8577 3.32049L28.0433 12.5618ZM9.67674 3.69056C11.6649 2.62622 13.7639 2.10493 16.0655 2.10493C17.1136 2.10493 18.1942 2.27509 19.4962 2.63707L19.8798 2.74779L14.3906 8.86369L9.37419 3.85263L9.67674 3.69056ZM2.37228 13.0238C3.22051 9.50663 5.29785 6.47298 8.23422 4.47398L8.4071 4.3659L13.4208 9.36615L2.27232 13.4857L2.37228 13.0238ZM2.95846 23.3376C2.70453 21.9518 2.4425 20.4553 2.2426 18.929C2.12104 17.9349 2.05081 16.9299 2.05081 16.1871V15.5631L8.46654 22.203L3.0071 23.5996L2.95846 23.3376ZM4.90616 29.394C4.26054 27.8164 3.77427 26.3414 3.41229 24.9043L3.35017 24.6639L8.53677 23.3673L5.11684 29.8965L4.90616 29.394ZM9.76858 23.297L15.4388 27.5166L14.0475 33.1003L5.87325 30.8095L9.76858 23.297ZM9.39579 37.5197C8.15316 35.7719 7.15639 34.1538 6.33788 32.5789L6.07585 32.0656L13.3209 34.0836L9.56598 37.7601L9.39579 37.5197ZM14.1475 42.7927C12.8562 41.5663 11.7055 40.3021 10.5061 38.8245L10.3629 38.6434L14.0178 35.0695L14.623 43.2439L14.1475 42.7927ZM15.0768 34.4752L22.0976 35.8719L23.4699 43.0143L15.7629 43.9166L15.0768 34.4752ZM21.9382 48.7574C19.8879 47.4742 18.3859 46.4072 17.065 45.324L16.6111 44.943L23.4402 44.1893L22.23 48.9491L21.9382 48.7574ZM27.0627 51.6802C26.0551 51.1778 25.0853 50.6375 24.156 50.1134L23.1997 49.5813L24.3181 45.1132L27.738 52.0125L27.0627 51.6802ZM28.9915 51.953L24.853 43.6869L28.9915 40.945L33.1272 43.6869L28.9915 51.953ZM34.7319 49.611C33.2596 50.4647 32.017 51.1184 30.8365 51.6802L30.172 52.0017L33.7135 45.0727L34.9047 49.511L34.7319 49.611ZM40.8477 45.3834C39.4241 46.5477 37.8492 47.6633 36.1636 48.6979L35.8718 48.8789L34.5914 44.1893L41.3016 45.0132L40.8477 45.3834ZM42.139 43.9868L34.4996 43.0143L35.9421 35.8719L42.9656 34.4752L42.139 43.9868ZM47.4768 38.8137C46.4665 40.1211 45.2968 41.3962 43.7625 42.8522L43.2871 43.3141L43.9651 35.0777L47.6065 38.6434L47.4768 38.8137ZM51.6342 32.5168C50.6942 34.3348 49.646 36.0123 48.5142 37.5197L48.3332 37.7493L44.5891 34.0836L51.9044 31.9954L51.6342 32.5168ZM43.9246 33.1003L42.5307 27.5868L48.2035 23.3673L52.0368 30.8797L43.9246 33.1003ZM54.5598 24.9043C54.187 26.4117 53.6711 27.9866 53.066 29.4535L52.8634 29.9667L49.4435 23.3673L54.6193 24.6639L54.5598 24.9043ZM55.9321 16.2059C55.8619 16.9785 55.7998 17.8836 55.7295 18.9182V18.929C55.5377 20.3958 55.3459 21.9112 55.0137 23.3484L54.9623 23.5996L49.5029 22.203L55.9808 15.5036L55.9321 16.2059Z" fill="black" fill-opacity="0.2"/>
<path d="M56.91 14.1475C55.951 6.64585 49.5029 1 41.9175 1C36.3473 1 29.4156 5.47886 29.1211 5.67066L28.9915 5.75986L28.8483 5.67066C28.5565 5.47886 21.6357 1 16.0655 1C7.76149 1 1 7.75069 1 16.0547C1 16.8894 1.07023 17.9349 1.19179 19.0695C1.37279 20.7173 1.67532 22.5029 2.09133 24.4019C2.54515 26.4523 3.29075 28.6404 4.30106 30.9311C5.22763 33.0084 6.34867 35.0399 7.63992 36.9281C8.94198 38.8245 10.4358 40.6533 12.1107 42.3605C13.7747 44.0678 15.6522 45.7049 17.6782 47.223C19.7177 48.7385 21.968 50.1755 24.3695 51.4992C25.2366 51.9719 26.1361 52.4447 27.0519 52.8958C27.214 52.9768 27.3869 53.066 27.5462 53.1687C27.9001 53.3578 28.2324 53.5388 28.5863 53.6387C29.0617 53.7792 29.4048 53.609 29.8694 53.3794L30.0801 53.2686C31.3309 52.6743 32.5626 52.0314 33.7323 51.3912C36.0636 50.0946 38.2626 48.6872 40.2399 47.2014C42.2281 45.7265 44.0651 44.1273 45.7102 42.4605C47.3445 40.7938 48.8168 39.0163 50.108 37.1577C51.3912 35.31 52.5095 33.3407 53.4387 31.312C54.368 29.2833 55.1352 27.133 55.7106 24.9233C56.1941 23.0458 56.5561 21.0684 56.7803 19.0586C56.91 17.9348 56.9694 16.8894 56.9694 16.0547C57.0424 15.4117 56.9694 14.7688 56.91 14.1475ZM49.6758 4.47398C52.6716 6.47298 54.7516 9.50661 55.5377 13.0319L55.6377 13.4749L44.4892 9.36615L49.5029 4.3659L49.6758 4.47398ZM43.8732 18.8992L47.5363 22.4731L42.6522 26.1308L43.8732 18.8992ZM42.9359 16.9002L35.8016 14.4987L42.9359 10.5224V16.9002ZM44.1164 17.4513V10.4008L55.4162 14.5285L48.3737 21.7114L44.1164 17.4513ZM38.4354 2.56683C39.8374 2.25618 40.9477 2.10493 41.9175 2.10493C44.0245 2.10493 46.1451 2.61812 48.2224 3.62032L48.5466 3.7716L43.5194 8.79345L38.0113 2.65595L38.4354 2.56683ZM42.6333 9.46607L34.378 14.0665L29.9289 12.5618L37.1144 3.32049L42.6333 9.46607ZM29.5749 6.67559L29.9991 6.4244C30.8878 5.90034 32.5411 4.92777 34.4996 4.00391L35.4477 3.56088L29.5749 11.1734V6.67559ZM29.5749 13.5748L33.0867 14.7689L29.5749 16.7382V13.5748ZM28.9915 18.1348C29.3346 18.1348 29.6452 17.943 29.9883 17.7539L34.0349 15.5225C34.3293 15.3334 34.4698 15.2524 34.6211 15.3037L42.9062 18.0834L41.3718 27.1438L41.3313 27.1951L35.0155 35.0587L28.9915 39.5592L22.9053 35.0075L16.6003 27.1438L15.066 18.0834L23.451 15.2632L27.5489 17.4918C27.6489 17.5432 27.7596 17.6026 27.8596 17.662C28.1432 17.8322 28.435 18.0051 28.7294 18.0942C28.8186 18.1239 28.8996 18.1348 28.9915 18.1348ZM41.7149 28.6106L42.8657 33.3704L36.8821 34.5968L41.7149 28.6106ZM34.5995 36.7768L33.4298 42.6415L29.9099 40.2913L34.5995 36.7768ZM28.0028 40.2319L24.4802 42.5712L23.3105 36.7147L28.0028 40.2319ZM21.1494 34.5968L15.1065 33.3704L16.3275 28.5512L21.1494 34.5968ZM14.0962 18.829L15.3172 26.0686L10.4439 22.4137L14.0962 18.829ZM9.59842 21.7114L2.62351 14.5285L13.8557 10.4008V17.4513L9.59842 21.7114ZM15.0363 16.8597V10.5224L22.1786 14.4987L15.0363 16.8597ZM24.934 14.7797L28.4647 13.5748V16.6679L24.934 14.7797ZM23.3996 4.00391C25.3987 4.85754 27.0924 5.86245 28.0028 6.40272L28.4647 6.67559V11.2355L22.492 3.61224L23.3996 4.00391ZM28.0433 12.5618L23.6022 14.0665L15.3388 9.46607L20.8577 3.32049L28.0433 12.5618ZM9.67674 3.69056C11.6649 2.62622 13.7639 2.10493 16.0655 2.10493C17.1136 2.10493 18.1942 2.27509 19.4962 2.63707L19.8798 2.74779L14.3906 8.86369L9.37419 3.85263L9.67674 3.69056ZM2.37228 13.0238C3.22051 9.50663 5.29785 6.47298 8.23422 4.47398L8.4071 4.3659L13.4208 9.36615L2.27232 13.4857L2.37228 13.0238ZM2.95846 23.3376C2.70453 21.9518 2.4425 20.4553 2.2426 18.929C2.12104 17.9349 2.05081 16.9299 2.05081 16.1871V15.5631L8.46654 22.203L3.0071 23.5996L2.95846 23.3376ZM4.90616 29.394C4.26054 27.8164 3.77427 26.3414 3.41229 24.9043L3.35017 24.6639L8.53677 23.3673L5.11684 29.8965L4.90616 29.394ZM9.76858 23.297L15.4388 27.5166L14.0475 33.1003L5.87325 30.8095L9.76858 23.297ZM9.39579 37.5197C8.15316 35.7719 7.15639 34.1538 6.33788 32.5789L6.07585 32.0656L13.3209 34.0836L9.56598 37.7601L9.39579 37.5197ZM14.1475 42.7927C12.8562 41.5663 11.7055 40.3021 10.5061 38.8245L10.3629 38.6434L14.0178 35.0695L14.623 43.2439L14.1475 42.7927ZM15.0768 34.4752L22.0976 35.8719L23.4699 43.0143L15.7629 43.9166L15.0768 34.4752ZM21.9382 48.7574C19.8879 47.4742 18.3859 46.4072 17.065 45.324L16.6111 44.943L23.4402 44.1893L22.23 48.9491L21.9382 48.7574ZM27.0627 51.6802C26.0551 51.1778 25.0853 50.6375 24.156 50.1134L23.1997 49.5813L24.3181 45.1132L27.738 52.0125L27.0627 51.6802ZM28.9915 51.953L24.853 43.6869L28.9915 40.945L33.1272 43.6869L28.9915 51.953ZM34.7319 49.611C33.2596 50.4647 32.017 51.1184 30.8365 51.6802L30.172 52.0017L33.7135 45.0727L34.9047 49.511L34.7319 49.611ZM40.8477 45.3834C39.4241 46.5477 37.8492 47.6633 36.1636 48.6979L35.8718 48.8789L34.5914 44.1893L41.3016 45.0132L40.8477 45.3834ZM42.139 43.9868L34.4996 43.0143L35.9421 35.8719L42.9656 34.4752L42.139 43.9868ZM47.4768 38.8137C46.4665 40.1211 45.2968 41.3962 43.7625 42.8522L43.2871 43.3141L43.9651 35.0777L47.6065 38.6434L47.4768 38.8137ZM51.6342 32.5168C50.6942 34.3348 49.646 36.0123 48.5142 37.5197L48.3332 37.7493L44.5891 34.0836L51.9044 31.9954L51.6342 32.5168ZM43.9246 33.1003L42.5307 27.5868L48.2035 23.3673L52.0368 30.8797L43.9246 33.1003ZM54.5598 24.9043C54.187 26.4117 53.6711 27.9866 53.066 29.4535L52.8634 29.9667L49.4435 23.3673L54.6193 24.6639L54.5598 24.9043ZM55.9321 16.2059C55.8619 16.9785 55.7998 17.8836 55.7295 18.9182V18.929C55.5377 20.3958 55.3459 21.9112 55.0137 23.3484L54.9623 23.5996L49.5029 22.203L55.9808 15.5036L55.9321 16.2059Z" stroke="#333335" stroke-width="0.25"/>
<path d="M56.91 14.1475C55.951 6.64585 49.5029 1 41.9175 1C36.3473 1 29.4156 5.47886 29.1211 5.67066L28.9915 5.75986L28.8483 5.67066C28.5565 5.47886 21.6357 1 16.0655 1C7.76149 1 1 7.75069 1 16.0547C1 16.8894 1.07023 17.9349 1.19179 19.0695C1.37279 20.7173 1.67532 22.5029 2.09133 24.4019C2.54515 26.4523 3.29075 28.6404 4.30106 30.9311C5.22763 33.0084 6.34867 35.0399 7.63992 36.9281C8.94198 38.8245 10.4358 40.6533 12.1107 42.3605C13.7747 44.0678 15.6522 45.7049 17.6782 47.223C19.7177 48.7385 21.968 50.1755 24.3695 51.4992C25.2366 51.9719 26.1361 52.4447 27.0519 52.8958C27.214 52.9768 27.3869 53.066 27.5462 53.1687C27.9001 53.3578 28.2324 53.5388 28.5863 53.6387C29.0617 53.7792 29.4048 53.609 29.8694 53.3794L30.0801 53.2686C31.3309 52.6743 32.5626 52.0314 33.7323 51.3912C36.0636 50.0946 38.2626 48.6872 40.2399 47.2014C42.2281 45.7265 44.0651 44.1273 45.7102 42.4605C47.3445 40.7938 48.8168 39.0163 50.108 37.1577C51.3912 35.31 52.5095 33.3407 53.4387 31.312C54.368 29.2833 55.1352 27.133 55.7106 24.9233C56.1941 23.0458 56.5561 21.0684 56.7803 19.0586C56.91 17.9348 56.9694 16.8894 56.9694 16.0547C57.0424 15.4117 56.9694 14.7688 56.91 14.1475ZM49.6758 4.47398C52.6716 6.47298 54.7516 9.50661 55.5377 13.0319L55.6377 13.4749L44.4892 9.36615L49.5029 4.3659L49.6758 4.47398ZM43.8732 18.8992L47.5363 22.4731L42.6522 26.1308L43.8732 18.8992ZM42.9359 16.9002L35.8016 14.4987L42.9359 10.5224V16.9002ZM44.1164 17.4513V10.4008L55.4162 14.5285L48.3737 21.7114L44.1164 17.4513ZM38.4354 2.56683C39.8374 2.25618 40.9477 2.10493 41.9175 2.10493C44.0245 2.10493 46.1451 2.61812 48.2224 3.62032L48.5466 3.7716L43.5194 8.79345L38.0113 2.65595L38.4354 2.56683ZM42.6333 9.46607L34.378 14.0665L29.9289 12.5618L37.1144 3.32049L42.6333 9.46607ZM29.5749 6.67559L29.9991 6.4244C30.8878 5.90034 32.5411 4.92777 34.4996 4.00391L35.4477 3.56088L29.5749 11.1734V6.67559ZM29.5749 13.5748L33.0867 14.7689L29.5749 16.7382V13.5748ZM28.9915 18.1348C29.3346 18.1348 29.6452 17.943 29.9883 17.7539L34.0349 15.5225C34.3293 15.3334 34.4698 15.2524 34.6211 15.3037L42.9062 18.0834L41.3718 27.1438L41.3313 27.1951L35.0155 35.0587L28.9915 39.5592L22.9053 35.0075L16.6003 27.1438L15.066 18.0834L23.451 15.2632L27.5489 17.4918C27.6489 17.5432 27.7596 17.6026 27.8596 17.662C28.1432 17.8322 28.435 18.0051 28.7294 18.0942C28.8186 18.1239 28.8996 18.1348 28.9915 18.1348ZM41.7149 28.6106L42.8657 33.3704L36.8821 34.5968L41.7149 28.6106ZM34.5995 36.7768L33.4298 42.6415L29.9099 40.2913L34.5995 36.7768ZM28.0028 40.2319L24.4802 42.5712L23.3105 36.7147L28.0028 40.2319ZM21.1494 34.5968L15.1065 33.3704L16.3275 28.5512L21.1494 34.5968ZM14.0962 18.829L15.3172 26.0686L10.4439 22.4137L14.0962 18.829ZM9.59842 21.7114L2.62351 14.5285L13.8557 10.4008V17.4513L9.59842 21.7114ZM15.0363 16.8597V10.5224L22.1786 14.4987L15.0363 16.8597ZM24.934 14.7797L28.4647 13.5748V16.6679L24.934 14.7797ZM23.3996 4.00391C25.3987 4.85754 27.0924 5.86245 28.0028 6.40272L28.4647 6.67559V11.2355L22.492 3.61224L23.3996 4.00391ZM28.0433 12.5618L23.6022 14.0665L15.3388 9.46607L20.8577 3.32049L28.0433 12.5618ZM9.67674 3.69056C11.6649 2.62622 13.7639 2.10493 16.0655 2.10493C17.1136 2.10493 18.1942 2.27509 19.4962 2.63707L19.8798 2.74779L14.3906 8.86369L9.37419 3.85263L9.67674 3.69056ZM2.37228 13.0238C3.22051 9.50663 5.29785 6.47298 8.23422 4.47398L8.4071 4.3659L13.4208 9.36615L2.27232 13.4857L2.37228 13.0238ZM2.95846 23.3376C2.70453 21.9518 2.4425 20.4553 2.2426 18.929C2.12104 17.9349 2.05081 16.9299 2.05081 16.1871V15.5631L8.46654 22.203L3.0071 23.5996L2.95846 23.3376ZM4.90616 29.394C4.26054 27.8164 3.77427 26.3414 3.41229 24.9043L3.35017 24.6639L8.53677 23.3673L5.11684 29.8965L4.90616 29.394ZM9.76858 23.297L15.4388 27.5166L14.0475 33.1003L5.87325 30.8095L9.76858 23.297ZM9.39579 37.5197C8.15316 35.7719 7.15639 34.1538 6.33788 32.5789L6.07585 32.0656L13.3209 34.0836L9.56598 37.7601L9.39579 37.5197ZM14.1475 42.7927C12.8562 41.5663 11.7055 40.3021 10.5061 38.8245L10.3629 38.6434L14.0178 35.0695L14.623 43.2439L14.1475 42.7927ZM15.0768 34.4752L22.0976 35.8719L23.4699 43.0143L15.7629 43.9166L15.0768 34.4752ZM21.9382 48.7574C19.8879 47.4742 18.3859 46.4072 17.065 45.324L16.6111 44.943L23.4402 44.1893L22.23 48.9491L21.9382 48.7574ZM27.0627 51.6802C26.0551 51.1778 25.0853 50.6375 24.156 50.1134L23.1997 49.5813L24.3181 45.1132L27.738 52.0125L27.0627 51.6802ZM28.9915 51.953L24.853 43.6869L28.9915 40.945L33.1272 43.6869L28.9915 51.953ZM34.7319 49.611C33.2596 50.4647 32.017 51.1184 30.8365 51.6802L30.172 52.0017L33.7135 45.0727L34.9047 49.511L34.7319 49.611ZM40.8477 45.3834C39.4241 46.5477 37.8492 47.6633 36.1636 48.6979L35.8718 48.8789L34.5914 44.1893L41.3016 45.0132L40.8477 45.3834ZM42.139 43.9868L34.4996 43.0143L35.9421 35.8719L42.9656 34.4752L42.139 43.9868ZM47.4768 38.8137C46.4665 40.1211 45.2968 41.3962 43.7625 42.8522L43.2871 43.3141L43.9651 35.0777L47.6065 38.6434L47.4768 38.8137ZM51.6342 32.5168C50.6942 34.3348 49.646 36.0123 48.5142 37.5197L48.3332 37.7493L44.5891 34.0836L51.9044 31.9954L51.6342 32.5168ZM43.9246 33.1003L42.5307 27.5868L48.2035 23.3673L52.0368 30.8797L43.9246 33.1003ZM54.5598 24.9043C54.187 26.4117 53.6711 27.9866 53.066 29.4535L52.8634 29.9667L49.4435 23.3673L54.6193 24.6639L54.5598 24.9043ZM55.9321 16.2059C55.8619 16.9785 55.7998 17.8836 55.7295 18.9182V18.929C55.5377 20.3958 55.3459 21.9112 55.0137 23.3484L54.9623 23.5996L49.5029 22.203L55.9808 15.5036L55.9321 16.2059Z" stroke="black" stroke-opacity="0.2" stroke-width="0.25"/>
<path d="M56.91 14.1475C55.951 6.64585 49.5029 1 41.9175 1C36.3473 1 29.4156 5.47886 29.1211 5.67066L28.9915 5.75986L28.8483 5.67066C28.5565 5.47886 21.6357 1 16.0655 1C7.76149 1 1 7.75069 1 16.0547C1 16.8894 1.07023 17.9349 1.19179 19.0695C1.37279 20.7173 1.67532 22.5029 2.09133 24.4019C2.54515 26.4523 3.29075 28.6404 4.30106 30.9311C5.22763 33.0084 6.34867 35.0399 7.63992 36.9281C8.94198 38.8245 10.4358 40.6533 12.1107 42.3605C13.7747 44.0678 15.6522 45.7049 17.6782 47.223C19.7177 48.7385 21.968 50.1755 24.3695 51.4992C25.2366 51.9719 26.1361 52.4447 27.0519 52.8958C27.214 52.9768 27.3869 53.066 27.5462 53.1687C27.9001 53.3578 28.2324 53.5388 28.5863 53.6387C29.0617 53.7792 29.4048 53.609 29.8694 53.3794L30.0801 53.2686C31.3309 52.6743 32.5626 52.0314 33.7323 51.3912C36.0636 50.0946 38.2626 48.6872 40.2399 47.2014C42.2281 45.7265 44.0651 44.1273 45.7102 42.4605C47.3445 40.7938 48.8168 39.0163 50.108 37.1577C51.3912 35.31 52.5095 33.3407 53.4387 31.312C54.368 29.2833 55.1352 27.133 55.7106 24.9233C56.1941 23.0458 56.5561 21.0684 56.7803 19.0586C56.91 17.9348 56.9694 16.8894 56.9694 16.0547C57.0424 15.4117 56.9694 14.7688 56.91 14.1475ZM49.6758 4.47398C52.6716 6.47298 54.7516 9.50661 55.5377 13.0319L55.6377 13.4749L44.4892 9.36615L49.5029 4.3659L49.6758 4.47398ZM43.8732 18.8992L47.5363 22.4731L42.6522 26.1308L43.8732 18.8992ZM42.9359 16.9002L35.8016 14.4987L42.9359 10.5224V16.9002ZM44.1164 17.4513V10.4008L55.4162 14.5285L48.3737 21.7114L44.1164 17.4513ZM38.4354 2.56683C39.8374 2.25618 40.9477 2.10493 41.9175 2.10493C44.0245 2.10493 46.1451 2.61812 48.2224 3.62032L48.5466 3.7716L43.5194 8.79345L38.0113 2.65595L38.4354 2.56683ZM42.6333 9.46607L34.378 14.0665L29.9289 12.5618L37.1144 3.32049L42.6333 9.46607ZM29.5749 6.67559L29.9991 6.4244C30.8878 5.90034 32.5411 4.92777 34.4996 4.00391L35.4477 3.56088L29.5749 11.1734V6.67559ZM29.5749 13.5748L33.0867 14.7689L29.5749 16.7382V13.5748ZM28.9915 18.1348C29.3346 18.1348 29.6452 17.943 29.9883 17.7539L34.0349 15.5225C34.3293 15.3334 34.4698 15.2524 34.6211 15.3037L42.9062 18.0834L41.3718 27.1438L41.3313 27.1951L35.0155 35.0587L28.9915 39.5592L22.9053 35.0075L16.6003 27.1438L15.066 18.0834L23.451 15.2632L27.5489 17.4918C27.6489 17.5432 27.7596 17.6026 27.8596 17.662C28.1432 17.8322 28.435 18.0051 28.7294 18.0942C28.8186 18.1239 28.8996 18.1348 28.9915 18.1348ZM41.7149 28.6106L42.8657 33.3704L36.8821 34.5968L41.7149 28.6106ZM34.5995 36.7768L33.4298 42.6415L29.9099 40.2913L34.5995 36.7768ZM28.0028 40.2319L24.4802 42.5712L23.3105 36.7147L28.0028 40.2319ZM21.1494 34.5968L15.1065 33.3704L16.3275 28.5512L21.1494 34.5968ZM14.0962 18.829L15.3172 26.0686L10.4439 22.4137L14.0962 18.829ZM9.59842 21.7114L2.62351 14.5285L13.8557 10.4008V17.4513L9.59842 21.7114ZM15.0363 16.8597V10.5224L22.1786 14.4987L15.0363 16.8597ZM24.934 14.7797L28.4647 13.5748V16.6679L24.934 14.7797ZM23.3996 4.00391C25.3987 4.85754 27.0924 5.86245 28.0028 6.40272L28.4647 6.67559V11.2355L22.492 3.61224L23.3996 4.00391ZM28.0433 12.5618L23.6022 14.0665L15.3388 9.46607L20.8577 3.32049L28.0433 12.5618ZM9.67674 3.69056C11.6649 2.62622 13.7639 2.10493 16.0655 2.10493C17.1136 2.10493 18.1942 2.27509 19.4962 2.63707L19.8798 2.74779L14.3906 8.86369L9.37419 3.85263L9.67674 3.69056ZM2.37228 13.0238C3.22051 9.50663 5.29785 6.47298 8.23422 4.47398L8.4071 4.3659L13.4208 9.36615L2.27232 13.4857L2.37228 13.0238ZM2.95846 23.3376C2.70453 21.9518 2.4425 20.4553 2.2426 18.929C2.12104 17.9349 2.05081 16.9299 2.05081 16.1871V15.5631L8.46654 22.203L3.0071 23.5996L2.95846 23.3376ZM4.90616 29.394C4.26054 27.8164 3.77427 26.3414 3.41229 24.9043L3.35017 24.6639L8.53677 23.3673L5.11684 29.8965L4.90616 29.394ZM9.76858 23.297L15.4388 27.5166L14.0475 33.1003L5.87325 30.8095L9.76858 23.297ZM9.39579 37.5197C8.15316 35.7719 7.15639 34.1538 6.33788 32.5789L6.07585 32.0656L13.3209 34.0836L9.56598 37.7601L9.39579 37.5197ZM14.1475 42.7927C12.8562 41.5663 11.7055 40.3021 10.5061 38.8245L10.3629 38.6434L14.0178 35.0695L14.623 43.2439L14.1475 42.7927ZM15.0768 34.4752L22.0976 35.8719L23.4699 43.0143L15.7629 43.9166L15.0768 34.4752ZM21.9382 48.7574C19.8879 47.4742 18.3859 46.4072 17.065 45.324L16.6111 44.943L23.4402 44.1893L22.23 48.9491L21.9382 48.7574ZM27.0627 51.6802C26.0551 51.1778 25.0853 50.6375 24.156 50.1134L23.1997 49.5813L24.3181 45.1132L27.738 52.0125L27.0627 51.6802ZM28.9915 51.953L24.853 43.6869L28.9915 40.945L33.1272 43.6869L28.9915 51.953ZM34.7319 49.611C33.2596 50.4647 32.017 51.1184 30.8365 51.6802L30.172 52.0017L33.7135 45.0727L34.9047 49.511L34.7319 49.611ZM40.8477 45.3834C39.4241 46.5477 37.8492 47.6633 36.1636 48.6979L35.8718 48.8789L34.5914 44.1893L41.3016 45.0132L40.8477 45.3834ZM42.139 43.9868L34.4996 43.0143L35.9421 35.8719L42.9656 34.4752L42.139 43.9868ZM47.4768 38.8137C46.4665 40.1211 45.2968 41.3962 43.7625 42.8522L43.2871 43.3141L43.9651 35.0777L47.6065 38.6434L47.4768 38.8137ZM51.6342 32.5168C50.6942 34.3348 49.646 36.0123 48.5142 37.5197L48.3332 37.7493L44.5891 34.0836L51.9044 31.9954L51.6342 32.5168ZM43.9246 33.1003L42.5307 27.5868L48.2035 23.3673L52.0368 30.8797L43.9246 33.1003ZM54.5598 24.9043C54.187 26.4117 53.6711 27.9866 53.066 29.4535L52.8634 29.9667L49.4435 23.3673L54.6193 24.6639L54.5598 24.9043ZM55.9321 16.2059C55.8619 16.9785 55.7998 17.8836 55.7295 18.9182V18.929C55.5377 20.3958 55.3459 21.9112 55.0137 23.3484L54.9623 23.5996L49.5029 22.203L55.9808 15.5036L55.9321 16.2059Z" stroke="black" stroke-opacity="0.2" stroke-width="0.25"/>
<path d="M56.91 14.1475C55.951 6.64585 49.5029 1 41.9175 1C36.3473 1 29.4156 5.47886 29.1211 5.67066L28.9915 5.75986L28.8483 5.67066C28.5565 5.47886 21.6357 1 16.0655 1C7.76149 1 1 7.75069 1 16.0547C1 16.8894 1.07023 17.9349 1.19179 19.0695C1.37279 20.7173 1.67532 22.5029 2.09133 24.4019C2.54515 26.4523 3.29075 28.6404 4.30106 30.9311C5.22763 33.0084 6.34867 35.0399 7.63992 36.9281C8.94198 38.8245 10.4358 40.6533 12.1107 42.3605C13.7747 44.0678 15.6522 45.7049 17.6782 47.223C19.7177 48.7385 21.968 50.1755 24.3695 51.4992C25.2366 51.9719 26.1361 52.4447 27.0519 52.8958C27.214 52.9768 27.3869 53.066 27.5462 53.1687C27.9001 53.3578 28.2324 53.5388 28.5863 53.6387C29.0617 53.7792 29.4048 53.609 29.8694 53.3794L30.0801 53.2686C31.3309 52.6743 32.5626 52.0314 33.7323 51.3912C36.0636 50.0946 38.2626 48.6872 40.2399 47.2014C42.2281 45.7265 44.0651 44.1273 45.7102 42.4605C47.3445 40.7938 48.8168 39.0163 50.108 37.1577C51.3912 35.31 52.5095 33.3407 53.4387 31.312C54.368 29.2833 55.1352 27.133 55.7106 24.9233C56.1941 23.0458 56.5561 21.0684 56.7803 19.0586C56.91 17.9348 56.9694 16.8894 56.9694 16.0547C57.0424 15.4117 56.9694 14.7688 56.91 14.1475ZM49.6758 4.47398C52.6716 6.47298 54.7516 9.50661 55.5377 13.0319L55.6377 13.4749L44.4892 9.36615L49.5029 4.3659L49.6758 4.47398ZM43.8732 18.8992L47.5363 22.4731L42.6522 26.1308L43.8732 18.8992ZM42.9359 16.9002L35.8016 14.4987L42.9359 10.5224V16.9002ZM44.1164 17.4513V10.4008L55.4162 14.5285L48.3737 21.7114L44.1164 17.4513ZM38.4354 2.56683C39.8374 2.25618 40.9477 2.10493 41.9175 2.10493C44.0245 2.10493 46.1451 2.61812 48.2224 3.62032L48.5466 3.7716L43.5194 8.79345L38.0113 2.65595L38.4354 2.56683ZM42.6333 9.46607L34.378 14.0665L29.9289 12.5618L37.1144 3.32049L42.6333 9.46607ZM29.5749 6.67559L29.9991 6.4244C30.8878 5.90034 32.5411 4.92777 34.4996 4.00391L35.4477 3.56088L29.5749 11.1734V6.67559ZM29.5749 13.5748L33.0867 14.7689L29.5749 16.7382V13.5748ZM28.9915 18.1348C29.3346 18.1348 29.6452 17.943 29.9883 17.7539L34.0349 15.5225C34.3293 15.3334 34.4698 15.2524 34.6211 15.3037L42.9062 18.0834L41.3718 27.1438L41.3313 27.1951L35.0155 35.0587L28.9915 39.5592L22.9053 35.0075L16.6003 27.1438L15.066 18.0834L23.451 15.2632L27.5489 17.4918C27.6489 17.5432 27.7596 17.6026 27.8596 17.662C28.1432 17.8322 28.435 18.0051 28.7294 18.0942C28.8186 18.1239 28.8996 18.1348 28.9915 18.1348ZM41.7149 28.6106L42.8657 33.3704L36.8821 34.5968L41.7149 28.6106ZM34.5995 36.7768L33.4298 42.6415L29.9099 40.2913L34.5995 36.7768ZM28.0028 40.2319L24.4802 42.5712L23.3105 36.7147L28.0028 40.2319ZM21.1494 34.5968L15.1065 33.3704L16.3275 28.5512L21.1494 34.5968ZM14.0962 18.829L15.3172 26.0686L10.4439 22.4137L14.0962 18.829ZM9.59842 21.7114L2.62351 14.5285L13.8557 10.4008V17.4513L9.59842 21.7114ZM15.0363 16.8597V10.5224L22.1786 14.4987L15.0363 16.8597ZM24.934 14.7797L28.4647 13.5748V16.6679L24.934 14.7797ZM23.3996 4.00391C25.3987 4.85754 27.0924 5.86245 28.0028 6.40272L28.4647 6.67559V11.2355L22.492 3.61224L23.3996 4.00391ZM28.0433 12.5618L23.6022 14.0665L15.3388 9.46607L20.8577 3.32049L28.0433 12.5618ZM9.67674 3.69056C11.6649 2.62622 13.7639 2.10493 16.0655 2.10493C17.1136 2.10493 18.1942 2.27509 19.4962 2.63707L19.8798 2.74779L14.3906 8.86369L9.37419 3.85263L9.67674 3.69056ZM2.37228 13.0238C3.22051 9.50663 5.29785 6.47298 8.23422 4.47398L8.4071 4.3659L13.4208 9.36615L2.27232 13.4857L2.37228 13.0238ZM2.95846 23.3376C2.70453 21.9518 2.4425 20.4553 2.2426 18.929C2.12104 17.9349 2.05081 16.9299 2.05081 16.1871V15.5631L8.46654 22.203L3.0071 23.5996L2.95846 23.3376ZM4.90616 29.394C4.26054 27.8164 3.77427 26.3414 3.41229 24.9043L3.35017 24.6639L8.53677 23.3673L5.11684 29.8965L4.90616 29.394ZM9.76858 23.297L15.4388 27.5166L14.0475 33.1003L5.87325 30.8095L9.76858 23.297ZM9.39579 37.5197C8.15316 35.7719 7.15639 34.1538 6.33788 32.5789L6.07585 32.0656L13.3209 34.0836L9.56598 37.7601L9.39579 37.5197ZM14.1475 42.7927C12.8562 41.5663 11.7055 40.3021 10.5061 38.8245L10.3629 38.6434L14.0178 35.0695L14.623 43.2439L14.1475 42.7927ZM15.0768 34.4752L22.0976 35.8719L23.4699 43.0143L15.7629 43.9166L15.0768 34.4752ZM21.9382 48.7574C19.8879 47.4742 18.3859 46.4072 17.065 45.324L16.6111 44.943L23.4402 44.1893L22.23 48.9491L21.9382 48.7574ZM27.0627 51.6802C26.0551 51.1778 25.0853 50.6375 24.156 50.1134L23.1997 49.5813L24.3181 45.1132L27.738 52.0125L27.0627 51.6802ZM28.9915 51.953L24.853 43.6869L28.9915 40.945L33.1272 43.6869L28.9915 51.953ZM34.7319 49.611C33.2596 50.4647 32.017 51.1184 30.8365 51.6802L30.172 52.0017L33.7135 45.0727L34.9047 49.511L34.7319 49.611ZM40.8477 45.3834C39.4241 46.5477 37.8492 47.6633 36.1636 48.6979L35.8718 48.8789L34.5914 44.1893L41.3016 45.0132L40.8477 45.3834ZM42.139 43.9868L34.4996 43.0143L35.9421 35.8719L42.9656 34.4752L42.139 43.9868ZM47.4768 38.8137C46.4665 40.1211 45.2968 41.3962 43.7625 42.8522L43.2871 43.3141L43.9651 35.0777L47.6065 38.6434L47.4768 38.8137ZM51.6342 32.5168C50.6942 34.3348 49.646 36.0123 48.5142 37.5197L48.3332 37.7493L44.5891 34.0836L51.9044 31.9954L51.6342 32.5168ZM43.9246 33.1003L42.5307 27.5868L48.2035 23.3673L52.0368 30.8797L43.9246 33.1003ZM54.5598 24.9043C54.187 26.4117 53.6711 27.9866 53.066 29.4535L52.8634 29.9667L49.4435 23.3673L54.6193 24.6639L54.5598 24.9043ZM55.9321 16.2059C55.8619 16.9785 55.7998 17.8836 55.7295 18.9182V18.929C55.5377 20.3958 55.3459 21.9112 55.0137 23.3484L54.9623 23.5996L49.5029 22.203L55.9808 15.5036L55.9321 16.2059Z" stroke="black" stroke-opacity="0.2" stroke-width="0.25"/>
<path d="M56.91 14.1475C55.951 6.64585 49.5029 1 41.9175 1C36.3473 1 29.4156 5.47886 29.1211 5.67066L28.9915 5.75986L28.8483 5.67066C28.5565 5.47886 21.6357 1 16.0655 1C7.76149 1 1 7.75069 1 16.0547C1 16.8894 1.07023 17.9349 1.19179 19.0695C1.37279 20.7173 1.67532 22.5029 2.09133 24.4019C2.54515 26.4523 3.29075 28.6404 4.30106 30.9311C5.22763 33.0084 6.34867 35.0399 7.63992 36.9281C8.94198 38.8245 10.4358 40.6533 12.1107 42.3605C13.7747 44.0678 15.6522 45.7049 17.6782 47.223C19.7177 48.7385 21.968 50.1755 24.3695 51.4992C25.2366 51.9719 26.1361 52.4447 27.0519 52.8958C27.214 52.9768 27.3869 53.066 27.5462 53.1687C27.9001 53.3578 28.2324 53.5388 28.5863 53.6387C29.0617 53.7792 29.4048 53.609 29.8694 53.3794L30.0801 53.2686C31.3309 52.6743 32.5626 52.0314 33.7323 51.3912C36.0636 50.0946 38.2626 48.6872 40.2399 47.2014C42.2281 45.7265 44.0651 44.1273 45.7102 42.4605C47.3445 40.7938 48.8168 39.0163 50.108 37.1577C51.3912 35.31 52.5095 33.3407 53.4387 31.312C54.368 29.2833 55.1352 27.133 55.7106 24.9233C56.1941 23.0458 56.5561 21.0684 56.7803 19.0586C56.91 17.9348 56.9694 16.8894 56.9694 16.0547C57.0424 15.4117 56.9694 14.7688 56.91 14.1475ZM49.6758 4.47398C52.6716 6.47298 54.7516 9.50661 55.5377 13.0319L55.6377 13.4749L44.4892 9.36615L49.5029 4.3659L49.6758 4.47398ZM43.8732 18.8992L47.5363 22.4731L42.6522 26.1308L43.8732 18.8992ZM42.9359 16.9002L35.8016 14.4987L42.9359 10.5224V16.9002ZM44.1164 17.4513V10.4008L55.4162 14.5285L48.3737 21.7114L44.1164 17.4513ZM38.4354 2.56683C39.8374 2.25618 40.9477 2.10493 41.9175 2.10493C44.0245 2.10493 46.1451 2.61812 48.2224 3.62032L48.5466 3.7716L43.5194 8.79345L38.0113 2.65595L38.4354 2.56683ZM42.6333 9.46607L34.378 14.0665L29.9289 12.5618L37.1144 3.32049L42.6333 9.46607ZM29.5749 6.67559L29.9991 6.4244C30.8878 5.90034 32.5411 4.92777 34.4996 4.00391L35.4477 3.56088L29.5749 11.1734V6.67559ZM29.5749 13.5748L33.0867 14.7689L29.5749 16.7382V13.5748ZM28.9915 18.1348C29.3346 18.1348 29.6452 17.943 29.9883 17.7539L34.0349 15.5225C34.3293 15.3334 34.4698 15.2524 34.6211 15.3037L42.9062 18.0834L41.3718 27.1438L41.3313 27.1951L35.0155 35.0587L28.9915 39.5592L22.9053 35.0075L16.6003 27.1438L15.066 18.0834L23.451 15.2632L27.5489 17.4918C27.6489 17.5432 27.7596 17.6026 27.8596 17.662C28.1432 17.8322 28.435 18.0051 28.7294 18.0942C28.8186 18.1239 28.8996 18.1348 28.9915 18.1348ZM41.7149 28.6106L42.8657 33.3704L36.8821 34.5968L41.7149 28.6106ZM34.5995 36.7768L33.4298 42.6415L29.9099 40.2913L34.5995 36.7768ZM28.0028 40.2319L24.4802 42.5712L23.3105 36.7147L28.0028 40.2319ZM21.1494 34.5968L15.1065 33.3704L16.3275 28.5512L21.1494 34.5968ZM14.0962 18.829L15.3172 26.0686L10.4439 22.4137L14.0962 18.829ZM9.59842 21.7114L2.62351 14.5285L13.8557 10.4008V17.4513L9.59842 21.7114ZM15.0363 16.8597V10.5224L22.1786 14.4987L15.0363 16.8597ZM24.934 14.7797L28.4647 13.5748V16.6679L24.934 14.7797ZM23.3996 4.00391C25.3987 4.85754 27.0924 5.86245 28.0028 6.40272L28.4647 6.67559V11.2355L22.492 3.61224L23.3996 4.00391ZM28.0433 12.5618L23.6022 14.0665L15.3388 9.46607L20.8577 3.32049L28.0433 12.5618ZM9.67674 3.69056C11.6649 2.62622 13.7639 2.10493 16.0655 2.10493C17.1136 2.10493 18.1942 2.27509 19.4962 2.63707L19.8798 2.74779L14.3906 8.86369L9.37419 3.85263L9.67674 3.69056ZM2.37228 13.0238C3.22051 9.50663 5.29785 6.47298 8.23422 4.47398L8.4071 4.3659L13.4208 9.36615L2.27232 13.4857L2.37228 13.0238ZM2.95846 23.3376C2.70453 21.9518 2.4425 20.4553 2.2426 18.929C2.12104 17.9349 2.05081 16.9299 2.05081 16.1871V15.5631L8.46654 22.203L3.0071 23.5996L2.95846 23.3376ZM4.90616 29.394C4.26054 27.8164 3.77427 26.3414 3.41229 24.9043L3.35017 24.6639L8.53677 23.3673L5.11684 29.8965L4.90616 29.394ZM9.76858 23.297L15.4388 27.5166L14.0475 33.1003L5.87325 30.8095L9.76858 23.297ZM9.39579 37.5197C8.15316 35.7719 7.15639 34.1538 6.33788 32.5789L6.07585 32.0656L13.3209 34.0836L9.56598 37.7601L9.39579 37.5197ZM14.1475 42.7927C12.8562 41.5663 11.7055 40.3021 10.5061 38.8245L10.3629 38.6434L14.0178 35.0695L14.623 43.2439L14.1475 42.7927ZM15.0768 34.4752L22.0976 35.8719L23.4699 43.0143L15.7629 43.9166L15.0768 34.4752ZM21.9382 48.7574C19.8879 47.4742 18.3859 46.4072 17.065 45.324L16.6111 44.943L23.4402 44.1893L22.23 48.9491L21.9382 48.7574ZM27.0627 51.6802C26.0551 51.1778 25.0853 50.6375 24.156 50.1134L23.1997 49.5813L24.3181 45.1132L27.738 52.0125L27.0627 51.6802ZM28.9915 51.953L24.853 43.6869L28.9915 40.945L33.1272 43.6869L28.9915 51.953ZM34.7319 49.611C33.2596 50.4647 32.017 51.1184 30.8365 51.6802L30.172 52.0017L33.7135 45.0727L34.9047 49.511L34.7319 49.611ZM40.8477 45.3834C39.4241 46.5477 37.8492 47.6633 36.1636 48.6979L35.8718 48.8789L34.5914 44.1893L41.3016 45.0132L40.8477 45.3834ZM42.139 43.9868L34.4996 43.0143L35.9421 35.8719L42.9656 34.4752L42.139 43.9868ZM47.4768 38.8137C46.4665 40.1211 45.2968 41.3962 43.7625 42.8522L43.2871 43.3141L43.9651 35.0777L47.6065 38.6434L47.4768 38.8137ZM51.6342 32.5168C50.6942 34.3348 49.646 36.0123 48.5142 37.5197L48.3332 37.7493L44.5891 34.0836L51.9044 31.9954L51.6342 32.5168ZM43.9246 33.1003L42.5307 27.5868L48.2035 23.3673L52.0368 30.8797L43.9246 33.1003ZM54.5598 24.9043C54.187 26.4117 53.6711 27.9866 53.066 29.4535L52.8634 29.9667L49.4435 23.3673L54.6193 24.6639L54.5598 24.9043ZM55.9321 16.2059C55.8619 16.9785 55.7998 17.8836 55.7295 18.9182V18.929C55.5377 20.3958 55.3459 21.9112 55.0137 23.3484L54.9623 23.5996L49.5029 22.203L55.9808 15.5036L55.9321 16.2059Z" stroke="black" stroke-opacity="0.2" stroke-width="0.25"/>
<path d="M56.91 14.1475C55.951 6.64585 49.5029 1 41.9175 1C36.3473 1 29.4156 5.47886 29.1211 5.67066L28.9915 5.75986L28.8483 5.67066C28.5565 5.47886 21.6357 1 16.0655 1C7.76149 1 1 7.75069 1 16.0547C1 16.8894 1.07023 17.9349 1.19179 19.0695C1.37279 20.7173 1.67532 22.5029 2.09133 24.4019C2.54515 26.4523 3.29075 28.6404 4.30106 30.9311C5.22763 33.0084 6.34867 35.0399 7.63992 36.9281C8.94198 38.8245 10.4358 40.6533 12.1107 42.3605C13.7747 44.0678 15.6522 45.7049 17.6782 47.223C19.7177 48.7385 21.968 50.1755 24.3695 51.4992C25.2366 51.9719 26.1361 52.4447 27.0519 52.8958C27.214 52.9768 27.3869 53.066 27.5462 53.1687C27.9001 53.3578 28.2324 53.5388 28.5863 53.6387C29.0617 53.7792 29.4048 53.609 29.8694 53.3794L30.0801 53.2686C31.3309 52.6743 32.5626 52.0314 33.7323 51.3912C36.0636 50.0946 38.2626 48.6872 40.2399 47.2014C42.2281 45.7265 44.0651 44.1273 45.7102 42.4605C47.3445 40.7938 48.8168 39.0163 50.108 37.1577C51.3912 35.31 52.5095 33.3407 53.4387 31.312C54.368 29.2833 55.1352 27.133 55.7106 24.9233C56.1941 23.0458 56.5561 21.0684 56.7803 19.0586C56.91 17.9348 56.9694 16.8894 56.9694 16.0547C57.0424 15.4117 56.9694 14.7688 56.91 14.1475ZM49.6758 4.47398C52.6716 6.47298 54.7516 9.50661 55.5377 13.0319L55.6377 13.4749L44.4892 9.36615L49.5029 4.3659L49.6758 4.47398ZM43.8732 18.8992L47.5363 22.4731L42.6522 26.1308L43.8732 18.8992ZM42.9359 16.9002L35.8016 14.4987L42.9359 10.5224V16.9002ZM44.1164 17.4513V10.4008L55.4162 14.5285L48.3737 21.7114L44.1164 17.4513ZM38.4354 2.56683C39.8374 2.25618 40.9477 2.10493 41.9175 2.10493C44.0245 2.10493 46.1451 2.61812 48.2224 3.62032L48.5466 3.7716L43.5194 8.79345L38.0113 2.65595L38.4354 2.56683ZM42.6333 9.46607L34.378 14.0665L29.9289 12.5618L37.1144 3.32049L42.6333 9.46607ZM29.5749 6.67559L29.9991 6.4244C30.8878 5.90034 32.5411 4.92777 34.4996 4.00391L35.4477 3.56088L29.5749 11.1734V6.67559ZM29.5749 13.5748L33.0867 14.7689L29.5749 16.7382V13.5748ZM28.9915 18.1348C29.3346 18.1348 29.6452 17.943 29.9883 17.7539L34.0349 15.5225C34.3293 15.3334 34.4698 15.2524 34.6211 15.3037L42.9062 18.0834L41.3718 27.1438L41.3313 27.1951L35.0155 35.0587L28.9915 39.5592L22.9053 35.0075L16.6003 27.1438L15.066 18.0834L23.451 15.2632L27.5489 17.4918C27.6489 17.5432 27.7596 17.6026 27.8596 17.662C28.1432 17.8322 28.435 18.0051 28.7294 18.0942C28.8186 18.1239 28.8996 18.1348 28.9915 18.1348ZM41.7149 28.6106L42.8657 33.3704L36.8821 34.5968L41.7149 28.6106ZM34.5995 36.7768L33.4298 42.6415L29.9099 40.2913L34.5995 36.7768ZM28.0028 40.2319L24.4802 42.5712L23.3105 36.7147L28.0028 40.2319ZM21.1494 34.5968L15.1065 33.3704L16.3275 28.5512L21.1494 34.5968ZM14.0962 18.829L15.3172 26.0686L10.4439 22.4137L14.0962 18.829ZM9.59842 21.7114L2.62351 14.5285L13.8557 10.4008V17.4513L9.59842 21.7114ZM15.0363 16.8597V10.5224L22.1786 14.4987L15.0363 16.8597ZM24.934 14.7797L28.4647 13.5748V16.6679L24.934 14.7797ZM23.3996 4.00391C25.3987 4.85754 27.0924 5.86245 28.0028 6.40272L28.4647 6.67559V11.2355L22.492 3.61224L23.3996 4.00391ZM28.0433 12.5618L23.6022 14.0665L15.3388 9.46607L20.8577 3.32049L28.0433 12.5618ZM9.67674 3.69056C11.6649 2.62622 13.7639 2.10493 16.0655 2.10493C17.1136 2.10493 18.1942 2.27509 19.4962 2.63707L19.8798 2.74779L14.3906 8.86369L9.37419 3.85263L9.67674 3.69056ZM2.37228 13.0238C3.22051 9.50663 5.29785 6.47298 8.23422 4.47398L8.4071 4.3659L13.4208 9.36615L2.27232 13.4857L2.37228 13.0238ZM2.95846 23.3376C2.70453 21.9518 2.4425 20.4553 2.2426 18.929C2.12104 17.9349 2.05081 16.9299 2.05081 16.1871V15.5631L8.46654 22.203L3.0071 23.5996L2.95846 23.3376ZM4.90616 29.394C4.26054 27.8164 3.77427 26.3414 3.41229 24.9043L3.35017 24.6639L8.53677 23.3673L5.11684 29.8965L4.90616 29.394ZM9.76858 23.297L15.4388 27.5166L14.0475 33.1003L5.87325 30.8095L9.76858 23.297ZM9.39579 37.5197C8.15316 35.7719 7.15639 34.1538 6.33788 32.5789L6.07585 32.0656L13.3209 34.0836L9.56598 37.7601L9.39579 37.5197ZM14.1475 42.7927C12.8562 41.5663 11.7055 40.3021 10.5061 38.8245L10.3629 38.6434L14.0178 35.0695L14.623 43.2439L14.1475 42.7927ZM15.0768 34.4752L22.0976 35.8719L23.4699 43.0143L15.7629 43.9166L15.0768 34.4752ZM21.9382 48.7574C19.8879 47.4742 18.3859 46.4072 17.065 45.324L16.6111 44.943L23.4402 44.1893L22.23 48.9491L21.9382 48.7574ZM27.0627 51.6802C26.0551 51.1778 25.0853 50.6375 24.156 50.1134L23.1997 49.5813L24.3181 45.1132L27.738 52.0125L27.0627 51.6802ZM28.9915 51.953L24.853 43.6869L28.9915 40.945L33.1272 43.6869L28.9915 51.953ZM34.7319 49.611C33.2596 50.4647 32.017 51.1184 30.8365 51.6802L30.172 52.0017L33.7135 45.0727L34.9047 49.511L34.7319 49.611ZM40.8477 45.3834C39.4241 46.5477 37.8492 47.6633 36.1636 48.6979L35.8718 48.8789L34.5914 44.1893L41.3016 45.0132L40.8477 45.3834ZM42.139 43.9868L34.4996 43.0143L35.9421 35.8719L42.9656 34.4752L42.139 43.9868ZM47.4768 38.8137C46.4665 40.1211 45.2968 41.3962 43.7625 42.8522L43.2871 43.3141L43.9651 35.0777L47.6065 38.6434L47.4768 38.8137ZM51.6342 32.5168C50.6942 34.3348 49.646 36.0123 48.5142 37.5197L48.3332 37.7493L44.5891 34.0836L51.9044 31.9954L51.6342 32.5168ZM43.9246 33.1003L42.5307 27.5868L48.2035 23.3673L52.0368 30.8797L43.9246 33.1003ZM54.5598 24.9043C54.187 26.4117 53.6711 27.9866 53.066 29.4535L52.8634 29.9667L49.4435 23.3673L54.6193 24.6639L54.5598 24.9043ZM55.9321 16.2059C55.8619 16.9785 55.7998 17.8836 55.7295 18.9182V18.929C55.5377 20.3958 55.3459 21.9112 55.0137 23.3484L54.9623 23.5996L49.5029 22.203L55.9808 15.5036L55.9321 16.2059Z" stroke="black" stroke-opacity="0.2" stroke-width="0.25"/>
<path d="M56.91 14.1475C55.951 6.64585 49.5029 1 41.9175 1C36.3473 1 29.4156 5.47886 29.1211 5.67066L28.9915 5.75986L28.8483 5.67066C28.5565 5.47886 21.6357 1 16.0655 1C7.76149 1 1 7.75069 1 16.0547C1 16.8894 1.07023 17.9349 1.19179 19.0695C1.37279 20.7173 1.67532 22.5029 2.09133 24.4019C2.54515 26.4523 3.29075 28.6404 4.30106 30.9311C5.22763 33.0084 6.34867 35.0399 7.63992 36.9281C8.94198 38.8245 10.4358 40.6533 12.1107 42.3605C13.7747 44.0678 15.6522 45.7049 17.6782 47.223C19.7177 48.7385 21.968 50.1755 24.3695 51.4992C25.2366 51.9719 26.1361 52.4447 27.0519 52.8958C27.214 52.9768 27.3869 53.066 27.5462 53.1687C27.9001 53.3578 28.2324 53.5388 28.5863 53.6387C29.0617 53.7792 29.4048 53.609 29.8694 53.3794L30.0801 53.2686C31.3309 52.6743 32.5626 52.0314 33.7323 51.3912C36.0636 50.0946 38.2626 48.6872 40.2399 47.2014C42.2281 45.7265 44.0651 44.1273 45.7102 42.4605C47.3445 40.7938 48.8168 39.0163 50.108 37.1577C51.3912 35.31 52.5095 33.3407 53.4387 31.312C54.368 29.2833 55.1352 27.133 55.7106 24.9233C56.1941 23.0458 56.5561 21.0684 56.7803 19.0586C56.91 17.9348 56.9694 16.8894 56.9694 16.0547C57.0424 15.4117 56.9694 14.7688 56.91 14.1475ZM49.6758 4.47398C52.6716 6.47298 54.7516 9.50661 55.5377 13.0319L55.6377 13.4749L44.4892 9.36615L49.5029 4.3659L49.6758 4.47398ZM43.8732 18.8992L47.5363 22.4731L42.6522 26.1308L43.8732 18.8992ZM42.9359 16.9002L35.8016 14.4987L42.9359 10.5224V16.9002ZM44.1164 17.4513V10.4008L55.4162 14.5285L48.3737 21.7114L44.1164 17.4513ZM38.4354 2.56683C39.8374 2.25618 40.9477 2.10493 41.9175 2.10493C44.0245 2.10493 46.1451 2.61812 48.2224 3.62032L48.5466 3.7716L43.5194 8.79345L38.0113 2.65595L38.4354 2.56683ZM42.6333 9.46607L34.378 14.0665L29.9289 12.5618L37.1144 3.32049L42.6333 9.46607ZM29.5749 6.67559L29.9991 6.4244C30.8878 5.90034 32.5411 4.92777 34.4996 4.00391L35.4477 3.56088L29.5749 11.1734V6.67559ZM29.5749 13.5748L33.0867 14.7689L29.5749 16.7382V13.5748ZM28.9915 18.1348C29.3346 18.1348 29.6452 17.943 29.9883 17.7539L34.0349 15.5225C34.3293 15.3334 34.4698 15.2524 34.6211 15.3037L42.9062 18.0834L41.3718 27.1438L41.3313 27.1951L35.0155 35.0587L28.9915 39.5592L22.9053 35.0075L16.6003 27.1438L15.066 18.0834L23.451 15.2632L27.5489 17.4918C27.6489 17.5432 27.7596 17.6026 27.8596 17.662C28.1432 17.8322 28.435 18.0051 28.7294 18.0942C28.8186 18.1239 28.8996 18.1348 28.9915 18.1348ZM41.7149 28.6106L42.8657 33.3704L36.8821 34.5968L41.7149 28.6106ZM34.5995 36.7768L33.4298 42.6415L29.9099 40.2913L34.5995 36.7768ZM28.0028 40.2319L24.4802 42.5712L23.3105 36.7147L28.0028 40.2319ZM21.1494 34.5968L15.1065 33.3704L16.3275 28.5512L21.1494 34.5968ZM14.0962 18.829L15.3172 26.0686L10.4439 22.4137L14.0962 18.829ZM9.59842 21.7114L2.62351 14.5285L13.8557 10.4008V17.4513L9.59842 21.7114ZM15.0363 16.8597V10.5224L22.1786 14.4987L15.0363 16.8597ZM24.934 14.7797L28.4647 13.5748V16.6679L24.934 14.7797ZM23.3996 4.00391C25.3987 4.85754 27.0924 5.86245 28.0028 6.40272L28.4647 6.67559V11.2355L22.492 3.61224L23.3996 4.00391ZM28.0433 12.5618L23.6022 14.0665L15.3388 9.46607L20.8577 3.32049L28.0433 12.5618ZM9.67674 3.69056C11.6649 2.62622 13.7639 2.10493 16.0655 2.10493C17.1136 2.10493 18.1942 2.27509 19.4962 2.63707L19.8798 2.74779L14.3906 8.86369L9.37419 3.85263L9.67674 3.69056ZM2.37228 13.0238C3.22051 9.50663 5.29785 6.47298 8.23422 4.47398L8.4071 4.3659L13.4208 9.36615L2.27232 13.4857L2.37228 13.0238ZM2.95846 23.3376C2.70453 21.9518 2.4425 20.4553 2.2426 18.929C2.12104 17.9349 2.05081 16.9299 2.05081 16.1871V15.5631L8.46654 22.203L3.0071 23.5996L2.95846 23.3376ZM4.90616 29.394C4.26054 27.8164 3.77427 26.3414 3.41229 24.9043L3.35017 24.6639L8.53677 23.3673L5.11684 29.8965L4.90616 29.394ZM9.76858 23.297L15.4388 27.5166L14.0475 33.1003L5.87325 30.8095L9.76858 23.297ZM9.39579 37.5197C8.15316 35.7719 7.15639 34.1538 6.33788 32.5789L6.07585 32.0656L13.3209 34.0836L9.56598 37.7601L9.39579 37.5197ZM14.1475 42.7927C12.8562 41.5663 11.7055 40.3021 10.5061 38.8245L10.3629 38.6434L14.0178 35.0695L14.623 43.2439L14.1475 42.7927ZM15.0768 34.4752L22.0976 35.8719L23.4699 43.0143L15.7629 43.9166L15.0768 34.4752ZM21.9382 48.7574C19.8879 47.4742 18.3859 46.4072 17.065 45.324L16.6111 44.943L23.4402 44.1893L22.23 48.9491L21.9382 48.7574ZM27.0627 51.6802C26.0551 51.1778 25.0853 50.6375 24.156 50.1134L23.1997 49.5813L24.3181 45.1132L27.738 52.0125L27.0627 51.6802ZM28.9915 51.953L24.853 43.6869L28.9915 40.945L33.1272 43.6869L28.9915 51.953ZM34.7319 49.611C33.2596 50.4647 32.017 51.1184 30.8365 51.6802L30.172 52.0017L33.7135 45.0727L34.9047 49.511L34.7319 49.611ZM40.8477 45.3834C39.4241 46.5477 37.8492 47.6633 36.1636 48.6979L35.8718 48.8789L34.5914 44.1893L41.3016 45.0132L40.8477 45.3834ZM42.139 43.9868L34.4996 43.0143L35.9421 35.8719L42.9656 34.4752L42.139 43.9868ZM47.4768 38.8137C46.4665 40.1211 45.2968 41.3962 43.7625 42.8522L43.2871 43.3141L43.9651 35.0777L47.6065 38.6434L47.4768 38.8137ZM51.6342 32.5168C50.6942 34.3348 49.646 36.0123 48.5142 37.5197L48.3332 37.7493L44.5891 34.0836L51.9044 31.9954L51.6342 32.5168ZM43.9246 33.1003L42.5307 27.5868L48.2035 23.3673L52.0368 30.8797L43.9246 33.1003ZM54.5598 24.9043C54.187 26.4117 53.6711 27.9866 53.066 29.4535L52.8634 29.9667L49.4435 23.3673L54.6193 24.6639L54.5598 24.9043ZM55.9321 16.2059C55.8619 16.9785 55.7998 17.8836 55.7295 18.9182V18.929C55.5377 20.3958 55.3459 21.9112 55.0137 23.3484L54.9623 23.5996L49.5029 22.203L55.9808 15.5036L55.9321 16.2059Z" stroke="black" stroke-opacity="0.2" stroke-width="0.25"/>
<path d="M56.91 14.1475C55.951 6.64585 49.5029 1 41.9175 1C36.3473 1 29.4156 5.47886 29.1211 5.67066L28.9915 5.75986L28.8483 5.67066C28.5565 5.47886 21.6357 1 16.0655 1C7.76149 1 1 7.75069 1 16.0547C1 16.8894 1.07023 17.9349 1.19179 19.0695C1.37279 20.7173 1.67532 22.5029 2.09133 24.4019C2.54515 26.4523 3.29075 28.6404 4.30106 30.9311C5.22763 33.0084 6.34867 35.0399 7.63992 36.9281C8.94198 38.8245 10.4358 40.6533 12.1107 42.3605C13.7747 44.0678 15.6522 45.7049 17.6782 47.223C19.7177 48.7385 21.968 50.1755 24.3695 51.4992C25.2366 51.9719 26.1361 52.4447 27.0519 52.8958C27.214 52.9768 27.3869 53.066 27.5462 53.1687C27.9001 53.3578 28.2324 53.5388 28.5863 53.6387C29.0617 53.7792 29.4048 53.609 29.8694 53.3794L30.0801 53.2686C31.3309 52.6743 32.5626 52.0314 33.7323 51.3912C36.0636 50.0946 38.2626 48.6872 40.2399 47.2014C42.2281 45.7265 44.0651 44.1273 45.7102 42.4605C47.3445 40.7938 48.8168 39.0163 50.108 37.1577C51.3912 35.31 52.5095 33.3407 53.4387 31.312C54.368 29.2833 55.1352 27.133 55.7106 24.9233C56.1941 23.0458 56.5561 21.0684 56.7803 19.0586C56.91 17.9348 56.9694 16.8894 56.9694 16.0547C57.0424 15.4117 56.9694 14.7688 56.91 14.1475ZM49.6758 4.47398C52.6716 6.47298 54.7516 9.50661 55.5377 13.0319L55.6377 13.4749L44.4892 9.36615L49.5029 4.3659L49.6758 4.47398ZM43.8732 18.8992L47.5363 22.4731L42.6522 26.1308L43.8732 18.8992ZM42.9359 16.9002L35.8016 14.4987L42.9359 10.5224V16.9002ZM44.1164 17.4513V10.4008L55.4162 14.5285L48.3737 21.7114L44.1164 17.4513ZM38.4354 2.56683C39.8374 2.25618 40.9477 2.10493 41.9175 2.10493C44.0245 2.10493 46.1451 2.61812 48.2224 3.62032L48.5466 3.7716L43.5194 8.79345L38.0113 2.65595L38.4354 2.56683ZM42.6333 9.46607L34.378 14.0665L29.9289 12.5618L37.1144 3.32049L42.6333 9.46607ZM29.5749 6.67559L29.9991 6.4244C30.8878 5.90034 32.5411 4.92777 34.4996 4.00391L35.4477 3.56088L29.5749 11.1734V6.67559ZM29.5749 13.5748L33.0867 14.7689L29.5749 16.7382V13.5748ZM28.9915 18.1348C29.3346 18.1348 29.6452 17.943 29.9883 17.7539L34.0349 15.5225C34.3293 15.3334 34.4698 15.2524 34.6211 15.3037L42.9062 18.0834L41.3718 27.1438L41.3313 27.1951L35.0155 35.0587L28.9915 39.5592L22.9053 35.0075L16.6003 27.1438L15.066 18.0834L23.451 15.2632L27.5489 17.4918C27.6489 17.5432 27.7596 17.6026 27.8596 17.662C28.1432 17.8322 28.435 18.0051 28.7294 18.0942C28.8186 18.1239 28.8996 18.1348 28.9915 18.1348ZM41.7149 28.6106L42.8657 33.3704L36.8821 34.5968L41.7149 28.6106ZM34.5995 36.7768L33.4298 42.6415L29.9099 40.2913L34.5995 36.7768ZM28.0028 40.2319L24.4802 42.5712L23.3105 36.7147L28.0028 40.2319ZM21.1494 34.5968L15.1065 33.3704L16.3275 28.5512L21.1494 34.5968ZM14.0962 18.829L15.3172 26.0686L10.4439 22.4137L14.0962 18.829ZM9.59842 21.7114L2.62351 14.5285L13.8557 10.4008V17.4513L9.59842 21.7114ZM15.0363 16.8597V10.5224L22.1786 14.4987L15.0363 16.8597ZM24.934 14.7797L28.4647 13.5748V16.6679L24.934 14.7797ZM23.3996 4.00391C25.3987 4.85754 27.0924 5.86245 28.0028 6.40272L28.4647 6.67559V11.2355L22.492 3.61224L23.3996 4.00391ZM28.0433 12.5618L23.6022 14.0665L15.3388 9.46607L20.8577 3.32049L28.0433 12.5618ZM9.67674 3.69056C11.6649 2.62622 13.7639 2.10493 16.0655 2.10493C17.1136 2.10493 18.1942 2.27509 19.4962 2.63707L19.8798 2.74779L14.3906 8.86369L9.37419 3.85263L9.67674 3.69056ZM2.37228 13.0238C3.22051 9.50663 5.29785 6.47298 8.23422 4.47398L8.4071 4.3659L13.4208 9.36615L2.27232 13.4857L2.37228 13.0238ZM2.95846 23.3376C2.70453 21.9518 2.4425 20.4553 2.2426 18.929C2.12104 17.9349 2.05081 16.9299 2.05081 16.1871V15.5631L8.46654 22.203L3.0071 23.5996L2.95846 23.3376ZM4.90616 29.394C4.26054 27.8164 3.77427 26.3414 3.41229 24.9043L3.35017 24.6639L8.53677 23.3673L5.11684 29.8965L4.90616 29.394ZM9.76858 23.297L15.4388 27.5166L14.0475 33.1003L5.87325 30.8095L9.76858 23.297ZM9.39579 37.5197C8.15316 35.7719 7.15639 34.1538 6.33788 32.5789L6.07585 32.0656L13.3209 34.0836L9.56598 37.7601L9.39579 37.5197ZM14.1475 42.7927C12.8562 41.5663 11.7055 40.3021 10.5061 38.8245L10.3629 38.6434L14.0178 35.0695L14.623 43.2439L14.1475 42.7927ZM15.0768 34.4752L22.0976 35.8719L23.4699 43.0143L15.7629 43.9166L15.0768 34.4752ZM21.9382 48.7574C19.8879 47.4742 18.3859 46.4072 17.065 45.324L16.6111 44.943L23.4402 44.1893L22.23 48.9491L21.9382 48.7574ZM27.0627 51.6802C26.0551 51.1778 25.0853 50.6375 24.156 50.1134L23.1997 49.5813L24.3181 45.1132L27.738 52.0125L27.0627 51.6802ZM28.9915 51.953L24.853 43.6869L28.9915 40.945L33.1272 43.6869L28.9915 51.953ZM34.7319 49.611C33.2596 50.4647 32.017 51.1184 30.8365 51.6802L30.172 52.0017L33.7135 45.0727L34.9047 49.511L34.7319 49.611ZM40.8477 45.3834C39.4241 46.5477 37.8492 47.6633 36.1636 48.6979L35.8718 48.8789L34.5914 44.1893L41.3016 45.0132L40.8477 45.3834ZM42.139 43.9868L34.4996 43.0143L35.9421 35.8719L42.9656 34.4752L42.139 43.9868ZM47.4768 38.8137C46.4665 40.1211 45.2968 41.3962 43.7625 42.8522L43.2871 43.3141L43.9651 35.0777L47.6065 38.6434L47.4768 38.8137ZM51.6342 32.5168C50.6942 34.3348 49.646 36.0123 48.5142 37.5197L48.3332 37.7493L44.5891 34.0836L51.9044 31.9954L51.6342 32.5168ZM43.9246 33.1003L42.5307 27.5868L48.2035 23.3673L52.0368 30.8797L43.9246 33.1003ZM54.5598 24.9043C54.187 26.4117 53.6711 27.9866 53.066 29.4535L52.8634 29.9667L49.4435 23.3673L54.6193 24.6639L54.5598 24.9043ZM55.9321 16.2059C55.8619 16.9785 55.7998 17.8836 55.7295 18.9182V18.929C55.5377 20.3958 55.3459 21.9112 55.0137 23.3484L54.9623 23.5996L49.5029 22.203L55.9808 15.5036L55.9321 16.2059Z" stroke="black" stroke-opacity="0.2" stroke-width="0.25"/>
<path d="M56.91 14.1475C55.951 6.64585 49.5029 1 41.9175 1C36.3473 1 29.4156 5.47886 29.1211 5.67066L28.9915 5.75986L28.8483 5.67066C28.5565 5.47886 21.6357 1 16.0655 1C7.76149 1 1 7.75069 1 16.0547C1 16.8894 1.07023 17.9349 1.19179 19.0695C1.37279 20.7173 1.67532 22.5029 2.09133 24.4019C2.54515 26.4523 3.29075 28.6404 4.30106 30.9311C5.22763 33.0084 6.34867 35.0399 7.63992 36.9281C8.94198 38.8245 10.4358 40.6533 12.1107 42.3605C13.7747 44.0678 15.6522 45.7049 17.6782 47.223C19.7177 48.7385 21.968 50.1755 24.3695 51.4992C25.2366 51.9719 26.1361 52.4447 27.0519 52.8958C27.214 52.9768 27.3869 53.066 27.5462 53.1687C27.9001 53.3578 28.2324 53.5388 28.5863 53.6387C29.0617 53.7792 29.4048 53.609 29.8694 53.3794L30.0801 53.2686C31.3309 52.6743 32.5626 52.0314 33.7323 51.3912C36.0636 50.0946 38.2626 48.6872 40.2399 47.2014C42.2281 45.7265 44.0651 44.1273 45.7102 42.4605C47.3445 40.7938 48.8168 39.0163 50.108 37.1577C51.3912 35.31 52.5095 33.3407 53.4387 31.312C54.368 29.2833 55.1352 27.133 55.7106 24.9233C56.1941 23.0458 56.5561 21.0684 56.7803 19.0586C56.91 17.9348 56.9694 16.8894 56.9694 16.0547C57.0424 15.4117 56.9694 14.7688 56.91 14.1475ZM49.6758 4.47398C52.6716 6.47298 54.7516 9.50661 55.5377 13.0319L55.6377 13.4749L44.4892 9.36615L49.5029 4.3659L49.6758 4.47398ZM43.8732 18.8992L47.5363 22.4731L42.6522 26.1308L43.8732 18.8992ZM42.9359 16.9002L35.8016 14.4987L42.9359 10.5224V16.9002ZM44.1164 17.4513V10.4008L55.4162 14.5285L48.3737 21.7114L44.1164 17.4513ZM38.4354 2.56683C39.8374 2.25618 40.9477 2.10493 41.9175 2.10493C44.0245 2.10493 46.1451 2.61812 48.2224 3.62032L48.5466 3.7716L43.5194 8.79345L38.0113 2.65595L38.4354 2.56683ZM42.6333 9.46607L34.378 14.0665L29.9289 12.5618L37.1144 3.32049L42.6333 9.46607ZM29.5749 6.67559L29.9991 6.4244C30.8878 5.90034 32.5411 4.92777 34.4996 4.00391L35.4477 3.56088L29.5749 11.1734V6.67559ZM29.5749 13.5748L33.0867 14.7689L29.5749 16.7382V13.5748ZM28.9915 18.1348C29.3346 18.1348 29.6452 17.943 29.9883 17.7539L34.0349 15.5225C34.3293 15.3334 34.4698 15.2524 34.6211 15.3037L42.9062 18.0834L41.3718 27.1438L41.3313 27.1951L35.0155 35.0587L28.9915 39.5592L22.9053 35.0075L16.6003 27.1438L15.066 18.0834L23.451 15.2632L27.5489 17.4918C27.6489 17.5432 27.7596 17.6026 27.8596 17.662C28.1432 17.8322 28.435 18.0051 28.7294 18.0942C28.8186 18.1239 28.8996 18.1348 28.9915 18.1348ZM41.7149 28.6106L42.8657 33.3704L36.8821 34.5968L41.7149 28.6106ZM34.5995 36.7768L33.4298 42.6415L29.9099 40.2913L34.5995 36.7768ZM28.0028 40.2319L24.4802 42.5712L23.3105 36.7147L28.0028 40.2319ZM21.1494 34.5968L15.1065 33.3704L16.3275 28.5512L21.1494 34.5968ZM14.0962 18.829L15.3172 26.0686L10.4439 22.4137L14.0962 18.829ZM9.59842 21.7114L2.62351 14.5285L13.8557 10.4008V17.4513L9.59842 21.7114ZM15.0363 16.8597V10.5224L22.1786 14.4987L15.0363 16.8597ZM24.934 14.7797L28.4647 13.5748V16.6679L24.934 14.7797ZM23.3996 4.00391C25.3987 4.85754 27.0924 5.86245 28.0028 6.40272L28.4647 6.67559V11.2355L22.492 3.61224L23.3996 4.00391ZM28.0433 12.5618L23.6022 14.0665L15.3388 9.46607L20.8577 3.32049L28.0433 12.5618ZM9.67674 3.69056C11.6649 2.62622 13.7639 2.10493 16.0655 2.10493C17.1136 2.10493 18.1942 2.27509 19.4962 2.63707L19.8798 2.74779L14.3906 8.86369L9.37419 3.85263L9.67674 3.69056ZM2.37228 13.0238C3.22051 9.50663 5.29785 6.47298 8.23422 4.47398L8.4071 4.3659L13.4208 9.36615L2.27232 13.4857L2.37228 13.0238ZM2.95846 23.3376C2.70453 21.9518 2.4425 20.4553 2.2426 18.929C2.12104 17.9349 2.05081 16.9299 2.05081 16.1871V15.5631L8.46654 22.203L3.0071 23.5996L2.95846 23.3376ZM4.90616 29.394C4.26054 27.8164 3.77427 26.3414 3.41229 24.9043L3.35017 24.6639L8.53677 23.3673L5.11684 29.8965L4.90616 29.394ZM9.76858 23.297L15.4388 27.5166L14.0475 33.1003L5.87325 30.8095L9.76858 23.297ZM9.39579 37.5197C8.15316 35.7719 7.15639 34.1538 6.33788 32.5789L6.07585 32.0656L13.3209 34.0836L9.56598 37.7601L9.39579 37.5197ZM14.1475 42.7927C12.8562 41.5663 11.7055 40.3021 10.5061 38.8245L10.3629 38.6434L14.0178 35.0695L14.623 43.2439L14.1475 42.7927ZM15.0768 34.4752L22.0976 35.8719L23.4699 43.0143L15.7629 43.9166L15.0768 34.4752ZM21.9382 48.7574C19.8879 47.4742 18.3859 46.4072 17.065 45.324L16.6111 44.943L23.4402 44.1893L22.23 48.9491L21.9382 48.7574ZM27.0627 51.6802C26.0551 51.1778 25.0853 50.6375 24.156 50.1134L23.1997 49.5813L24.3181 45.1132L27.738 52.0125L27.0627 51.6802ZM28.9915 51.953L24.853 43.6869L28.9915 40.945L33.1272 43.6869L28.9915 51.953ZM34.7319 49.611C33.2596 50.4647 32.017 51.1184 30.8365 51.6802L30.172 52.0017L33.7135 45.0727L34.9047 49.511L34.7319 49.611ZM40.8477 45.3834C39.4241 46.5477 37.8492 47.6633 36.1636 48.6979L35.8718 48.8789L34.5914 44.1893L41.3016 45.0132L40.8477 45.3834ZM42.139 43.9868L34.4996 43.0143L35.9421 35.8719L42.9656 34.4752L42.139 43.9868ZM47.4768 38.8137C46.4665 40.1211 45.2968 41.3962 43.7625 42.8522L43.2871 43.3141L43.9651 35.0777L47.6065 38.6434L47.4768 38.8137ZM51.6342 32.5168C50.6942 34.3348 49.646 36.0123 48.5142 37.5197L48.3332 37.7493L44.5891 34.0836L51.9044 31.9954L51.6342 32.5168ZM43.9246 33.1003L42.5307 27.5868L48.2035 23.3673L52.0368 30.8797L43.9246 33.1003ZM54.5598 24.9043C54.187 26.4117 53.6711 27.9866 53.066 29.4535L52.8634 29.9667L49.4435 23.3673L54.6193 24.6639L54.5598 24.9043ZM55.9321 16.2059C55.8619 16.9785 55.7998 17.8836 55.7295 18.9182V18.929C55.5377 20.3958 55.3459 21.9112 55.0137 23.3484L54.9623 23.5996L49.5029 22.203L55.9808 15.5036L55.9321 16.2059Z" stroke="black" stroke-opacity="0.2" stroke-width="0.25"/>
</svg>
