<svg width="58" height="58" viewBox="0 0 58 58" fill="none" xmlns="http://www.w3.org/2000/svg">
<path d="M56.8645 7.57764L50.3986 1.11198C50.3681 1.08039 50.2972 1 50.1361 1H7.84948C7.70823 1 7.6175 1.08039 7.58707 1.11198L1.12116 7.57764C1.09101 7.60922 1 7.68098 1 7.81018V50.0779C1 50.2416 1.10106 50.3219 1.10106 50.3305L7.58736 56.8077C7.60746 56.8278 7.74871 57 7.99074 57H49.9952C50.1666 57 50.3078 56.8996 50.4591 56.7589L56.8447 50.3708C56.8547 50.3621 56.9856 50.2301 56.9856 50.0377V7.83024C56.9853 7.72975 56.9452 7.66951 56.8645 7.57764ZM55.6136 7.94222L51.528 11.1722L46.8881 6.51817L50.0351 2.36088L55.6136 7.94222ZM39.4532 16.0243L42.2881 12.3924L45.6573 15.763L42.0257 18.5967L39.4532 16.0243ZM41.4004 19.5155V38.4759L38.4647 41.4016H19.5206L16.5853 38.4759V19.5155L19.5206 16.5899H38.4647L41.4004 19.5155ZM38.4245 15.5391H19.5608L16.6455 11.8067H41.3398L38.4245 15.5391ZM18.5321 16.0243L16.0202 18.5364L12.3886 15.7027L15.7682 12.3207L18.5321 16.0243ZM15.5462 19.5672V38.4243L11.8035 41.3413V16.6502L15.5462 19.5672ZM16.0303 39.4636L18.5321 41.9672L15.6975 45.6077L12.3183 42.2199L16.0303 39.4636ZM19.5608 42.5098H38.4245L41.3398 46.2537H16.6455L19.5608 42.5098ZM39.4532 41.9672L41.9651 39.455L45.5967 42.2887L42.2175 45.6709L39.4532 41.9672ZM42.5098 38.4243V19.5672L46.2424 16.6502V41.3413L42.5098 38.4243ZM42.9439 11.4937L46.1617 7.40827L50.6406 11.8871L46.5551 15.1056L42.9439 11.4937ZM42.167 10.6956H15.8184L12.9031 6.95459H45.0822L42.167 10.6956ZM15.0418 11.4937L11.5012 15.0452L6.96175 11.4937L11.5012 6.95459L15.0418 11.4937ZM10.6938 15.8119V42.1796L6.96175 45.0937V12.8977L10.6938 15.8119ZM11.5012 42.9462L15.0418 46.4977L11.5012 51.0368L6.96175 46.4977L11.5012 42.9462ZM15.8184 47.293H42.167L45.0822 51.0368H12.9031L15.8184 47.293ZM42.9439 46.4977L46.4842 42.9462L51.0239 46.4977L46.4842 51.0368L42.9439 46.4977ZM47.2915 42.1796V15.8119L51.0239 12.8977V45.0937L47.2915 42.1796ZM48.8347 2.11117L45.9194 5.84351H11.9953L9.09007 2.11117H48.8347ZM7.95026 2.37244L10.7748 6.00429L6.00339 10.7788L2.37179 7.94222L7.95026 2.37244ZM2.10967 9.15388L5.85209 12.0594V45.9924L2.10967 48.9094V9.15388ZM7.95026 55.6276L2.37179 50.0492L6.00339 47.2126L10.7748 51.9958L7.95026 55.6276ZM9.15065 55.9521L12.0659 52.2082H45.9901L48.8953 55.9521H9.15065ZM50.0351 55.6276L47.2108 51.9958L51.9822 47.2126L55.6136 50.0492L50.0351 55.6276ZM55.9363 48.8491L52.2039 45.9321V11.9991L55.9363 9.08204V48.8491Z" fill="#333335"/>
<path d="M56.8645 7.57764L50.3986 1.11198C50.3681 1.08039 50.2972 1 50.1361 1H7.84948C7.70823 1 7.6175 1.08039 7.58707 1.11198L1.12116 7.57764C1.09101 7.60922 1 7.68098 1 7.81018V50.0779C1 50.2416 1.10106 50.3219 1.10106 50.3305L7.58736 56.8077C7.60746 56.8278 7.74871 57 7.99074 57H49.9952C50.1666 57 50.3078 56.8996 50.4591 56.7589L56.8447 50.3708C56.8547 50.3621 56.9856 50.2301 56.9856 50.0377V7.83024C56.9853 7.72975 56.9452 7.66951 56.8645 7.57764ZM55.6136 7.94222L51.528 11.1722L46.8881 6.51817L50.0351 2.36088L55.6136 7.94222ZM39.4532 16.0243L42.2881 12.3924L45.6573 15.763L42.0257 18.5967L39.4532 16.0243ZM41.4004 19.5155V38.4759L38.4647 41.4016H19.5206L16.5853 38.4759V19.5155L19.5206 16.5899H38.4647L41.4004 19.5155ZM38.4245 15.5391H19.5608L16.6455 11.8067H41.3398L38.4245 15.5391ZM18.5321 16.0243L16.0202 18.5364L12.3886 15.7027L15.7682 12.3207L18.5321 16.0243ZM15.5462 19.5672V38.4243L11.8035 41.3413V16.6502L15.5462 19.5672ZM16.0303 39.4636L18.5321 41.9672L15.6975 45.6077L12.3183 42.2199L16.0303 39.4636ZM19.5608 42.5098H38.4245L41.3398 46.2537H16.6455L19.5608 42.5098ZM39.4532 41.9672L41.9651 39.455L45.5967 42.2887L42.2175 45.6709L39.4532 41.9672ZM42.5098 38.4243V19.5672L46.2424 16.6502V41.3413L42.5098 38.4243ZM42.9439 11.4937L46.1617 7.40827L50.6406 11.8871L46.5551 15.1056L42.9439 11.4937ZM42.167 10.6956H15.8184L12.9031 6.95459H45.0822L42.167 10.6956ZM15.0418 11.4937L11.5012 15.0452L6.96175 11.4937L11.5012 6.95459L15.0418 11.4937ZM10.6938 15.8119V42.1796L6.96175 45.0937V12.8977L10.6938 15.8119ZM11.5012 42.9462L15.0418 46.4977L11.5012 51.0368L6.96175 46.4977L11.5012 42.9462ZM15.8184 47.293H42.167L45.0822 51.0368H12.9031L15.8184 47.293ZM42.9439 46.4977L46.4842 42.9462L51.0239 46.4977L46.4842 51.0368L42.9439 46.4977ZM47.2915 42.1796V15.8119L51.0239 12.8977V45.0937L47.2915 42.1796ZM48.8347 2.11117L45.9194 5.84351H11.9953L9.09007 2.11117H48.8347ZM7.95026 2.37244L10.7748 6.00429L6.00339 10.7788L2.37179 7.94222L7.95026 2.37244ZM2.10967 9.15388L5.85209 12.0594V45.9924L2.10967 48.9094V9.15388ZM7.95026 55.6276L2.37179 50.0492L6.00339 47.2126L10.7748 51.9958L7.95026 55.6276ZM9.15065 55.9521L12.0659 52.2082H45.9901L48.8953 55.9521H9.15065ZM50.0351 55.6276L47.2108 51.9958L51.9822 47.2126L55.6136 50.0492L50.0351 55.6276ZM55.9363 48.8491L52.2039 45.9321V11.9991L55.9363 9.08204V48.8491Z" fill="black" fill-opacity="0.2"/>
<path d="M56.8645 7.57764L50.3986 1.11198C50.3681 1.08039 50.2972 1 50.1361 1H7.84948C7.70823 1 7.6175 1.08039 7.58707 1.11198L1.12116 7.57764C1.09101 7.60922 1 7.68098 1 7.81018V50.0779C1 50.2416 1.10106 50.3219 1.10106 50.3305L7.58736 56.8077C7.60746 56.8278 7.74871 57 7.99074 57H49.9952C50.1666 57 50.3078 56.8996 50.4591 56.7589L56.8447 50.3708C56.8547 50.3621 56.9856 50.2301 56.9856 50.0377V7.83024C56.9853 7.72975 56.9452 7.66951 56.8645 7.57764ZM55.6136 7.94222L51.528 11.1722L46.8881 6.51817L50.0351 2.36088L55.6136 7.94222ZM39.4532 16.0243L42.2881 12.3924L45.6573 15.763L42.0257 18.5967L39.4532 16.0243ZM41.4004 19.5155V38.4759L38.4647 41.4016H19.5206L16.5853 38.4759V19.5155L19.5206 16.5899H38.4647L41.4004 19.5155ZM38.4245 15.5391H19.5608L16.6455 11.8067H41.3398L38.4245 15.5391ZM18.5321 16.0243L16.0202 18.5364L12.3886 15.7027L15.7682 12.3207L18.5321 16.0243ZM15.5462 19.5672V38.4243L11.8035 41.3413V16.6502L15.5462 19.5672ZM16.0303 39.4636L18.5321 41.9672L15.6975 45.6077L12.3183 42.2199L16.0303 39.4636ZM19.5608 42.5098H38.4245L41.3398 46.2537H16.6455L19.5608 42.5098ZM39.4532 41.9672L41.9651 39.455L45.5967 42.2887L42.2175 45.6709L39.4532 41.9672ZM42.5098 38.4243V19.5672L46.2424 16.6502V41.3413L42.5098 38.4243ZM42.9439 11.4937L46.1617 7.40827L50.6406 11.8871L46.5551 15.1056L42.9439 11.4937ZM42.167 10.6956H15.8184L12.9031 6.95459H45.0822L42.167 10.6956ZM15.0418 11.4937L11.5012 15.0452L6.96175 11.4937L11.5012 6.95459L15.0418 11.4937ZM10.6938 15.8119V42.1796L6.96175 45.0937V12.8977L10.6938 15.8119ZM11.5012 42.9462L15.0418 46.4977L11.5012 51.0368L6.96175 46.4977L11.5012 42.9462ZM15.8184 47.293H42.167L45.0822 51.0368H12.9031L15.8184 47.293ZM42.9439 46.4977L46.4842 42.9462L51.0239 46.4977L46.4842 51.0368L42.9439 46.4977ZM47.2915 42.1796V15.8119L51.0239 12.8977V45.0937L47.2915 42.1796ZM48.8347 2.11117L45.9194 5.84351H11.9953L9.09007 2.11117H48.8347ZM7.95026 2.37244L10.7748 6.00429L6.00339 10.7788L2.37179 7.94222L7.95026 2.37244ZM2.10967 9.15388L5.85209 12.0594V45.9924L2.10967 48.9094V9.15388ZM7.95026 55.6276L2.37179 50.0492L6.00339 47.2126L10.7748 51.9958L7.95026 55.6276ZM9.15065 55.9521L12.0659 52.2082H45.9901L48.8953 55.9521H9.15065ZM50.0351 55.6276L47.2108 51.9958L51.9822 47.2126L55.6136 50.0492L50.0351 55.6276ZM55.9363 48.8491L52.2039 45.9321V11.9991L55.9363 9.08204V48.8491Z" fill="black" fill-opacity="0.2"/>
<path d="M56.8645 7.57764L50.3986 1.11198C50.3681 1.08039 50.2972 1 50.1361 1H7.84948C7.70823 1 7.6175 1.08039 7.58707 1.11198L1.12116 7.57764C1.09101 7.60922 1 7.68098 1 7.81018V50.0779C1 50.2416 1.10106 50.3219 1.10106 50.3305L7.58736 56.8077C7.60746 56.8278 7.74871 57 7.99074 57H49.9952C50.1666 57 50.3078 56.8996 50.4591 56.7589L56.8447 50.3708C56.8547 50.3621 56.9856 50.2301 56.9856 50.0377V7.83024C56.9853 7.72975 56.9452 7.66951 56.8645 7.57764ZM55.6136 7.94222L51.528 11.1722L46.8881 6.51817L50.0351 2.36088L55.6136 7.94222ZM39.4532 16.0243L42.2881 12.3924L45.6573 15.763L42.0257 18.5967L39.4532 16.0243ZM41.4004 19.5155V38.4759L38.4647 41.4016H19.5206L16.5853 38.4759V19.5155L19.5206 16.5899H38.4647L41.4004 19.5155ZM38.4245 15.5391H19.5608L16.6455 11.8067H41.3398L38.4245 15.5391ZM18.5321 16.0243L16.0202 18.5364L12.3886 15.7027L15.7682 12.3207L18.5321 16.0243ZM15.5462 19.5672V38.4243L11.8035 41.3413V16.6502L15.5462 19.5672ZM16.0303 39.4636L18.5321 41.9672L15.6975 45.6077L12.3183 42.2199L16.0303 39.4636ZM19.5608 42.5098H38.4245L41.3398 46.2537H16.6455L19.5608 42.5098ZM39.4532 41.9672L41.9651 39.455L45.5967 42.2887L42.2175 45.6709L39.4532 41.9672ZM42.5098 38.4243V19.5672L46.2424 16.6502V41.3413L42.5098 38.4243ZM42.9439 11.4937L46.1617 7.40827L50.6406 11.8871L46.5551 15.1056L42.9439 11.4937ZM42.167 10.6956H15.8184L12.9031 6.95459H45.0822L42.167 10.6956ZM15.0418 11.4937L11.5012 15.0452L6.96175 11.4937L11.5012 6.95459L15.0418 11.4937ZM10.6938 15.8119V42.1796L6.96175 45.0937V12.8977L10.6938 15.8119ZM11.5012 42.9462L15.0418 46.4977L11.5012 51.0368L6.96175 46.4977L11.5012 42.9462ZM15.8184 47.293H42.167L45.0822 51.0368H12.9031L15.8184 47.293ZM42.9439 46.4977L46.4842 42.9462L51.0239 46.4977L46.4842 51.0368L42.9439 46.4977ZM47.2915 42.1796V15.8119L51.0239 12.8977V45.0937L47.2915 42.1796ZM48.8347 2.11117L45.9194 5.84351H11.9953L9.09007 2.11117H48.8347ZM7.95026 2.37244L10.7748 6.00429L6.00339 10.7788L2.37179 7.94222L7.95026 2.37244ZM2.10967 9.15388L5.85209 12.0594V45.9924L2.10967 48.9094V9.15388ZM7.95026 55.6276L2.37179 50.0492L6.00339 47.2126L10.7748 51.9958L7.95026 55.6276ZM9.15065 55.9521L12.0659 52.2082H45.9901L48.8953 55.9521H9.15065ZM50.0351 55.6276L47.2108 51.9958L51.9822 47.2126L55.6136 50.0492L50.0351 55.6276ZM55.9363 48.8491L52.2039 45.9321V11.9991L55.9363 9.08204V48.8491Z" fill="black" fill-opacity="0.2"/>
<path d="M56.8645 7.57764L50.3986 1.11198C50.3681 1.08039 50.2972 1 50.1361 1H7.84948C7.70823 1 7.6175 1.08039 7.58707 1.11198L1.12116 7.57764C1.09101 7.60922 1 7.68098 1 7.81018V50.0779C1 50.2416 1.10106 50.3219 1.10106 50.3305L7.58736 56.8077C7.60746 56.8278 7.74871 57 7.99074 57H49.9952C50.1666 57 50.3078 56.8996 50.4591 56.7589L56.8447 50.3708C56.8547 50.3621 56.9856 50.2301 56.9856 50.0377V7.83024C56.9853 7.72975 56.9452 7.66951 56.8645 7.57764ZM55.6136 7.94222L51.528 11.1722L46.8881 6.51817L50.0351 2.36088L55.6136 7.94222ZM39.4532 16.0243L42.2881 12.3924L45.6573 15.763L42.0257 18.5967L39.4532 16.0243ZM41.4004 19.5155V38.4759L38.4647 41.4016H19.5206L16.5853 38.4759V19.5155L19.5206 16.5899H38.4647L41.4004 19.5155ZM38.4245 15.5391H19.5608L16.6455 11.8067H41.3398L38.4245 15.5391ZM18.5321 16.0243L16.0202 18.5364L12.3886 15.7027L15.7682 12.3207L18.5321 16.0243ZM15.5462 19.5672V38.4243L11.8035 41.3413V16.6502L15.5462 19.5672ZM16.0303 39.4636L18.5321 41.9672L15.6975 45.6077L12.3183 42.2199L16.0303 39.4636ZM19.5608 42.5098H38.4245L41.3398 46.2537H16.6455L19.5608 42.5098ZM39.4532 41.9672L41.9651 39.455L45.5967 42.2887L42.2175 45.6709L39.4532 41.9672ZM42.5098 38.4243V19.5672L46.2424 16.6502V41.3413L42.5098 38.4243ZM42.9439 11.4937L46.1617 7.40827L50.6406 11.8871L46.5551 15.1056L42.9439 11.4937ZM42.167 10.6956H15.8184L12.9031 6.95459H45.0822L42.167 10.6956ZM15.0418 11.4937L11.5012 15.0452L6.96175 11.4937L11.5012 6.95459L15.0418 11.4937ZM10.6938 15.8119V42.1796L6.96175 45.0937V12.8977L10.6938 15.8119ZM11.5012 42.9462L15.0418 46.4977L11.5012 51.0368L6.96175 46.4977L11.5012 42.9462ZM15.8184 47.293H42.167L45.0822 51.0368H12.9031L15.8184 47.293ZM42.9439 46.4977L46.4842 42.9462L51.0239 46.4977L46.4842 51.0368L42.9439 46.4977ZM47.2915 42.1796V15.8119L51.0239 12.8977V45.0937L47.2915 42.1796ZM48.8347 2.11117L45.9194 5.84351H11.9953L9.09007 2.11117H48.8347ZM7.95026 2.37244L10.7748 6.00429L6.00339 10.7788L2.37179 7.94222L7.95026 2.37244ZM2.10967 9.15388L5.85209 12.0594V45.9924L2.10967 48.9094V9.15388ZM7.95026 55.6276L2.37179 50.0492L6.00339 47.2126L10.7748 51.9958L7.95026 55.6276ZM9.15065 55.9521L12.0659 52.2082H45.9901L48.8953 55.9521H9.15065ZM50.0351 55.6276L47.2108 51.9958L51.9822 47.2126L55.6136 50.0492L50.0351 55.6276ZM55.9363 48.8491L52.2039 45.9321V11.9991L55.9363 9.08204V48.8491Z" fill="black" fill-opacity="0.2"/>
<path d="M56.8645 7.57764L50.3986 1.11198C50.3681 1.08039 50.2972 1 50.1361 1H7.84948C7.70823 1 7.6175 1.08039 7.58707 1.11198L1.12116 7.57764C1.09101 7.60922 1 7.68098 1 7.81018V50.0779C1 50.2416 1.10106 50.3219 1.10106 50.3305L7.58736 56.8077C7.60746 56.8278 7.74871 57 7.99074 57H49.9952C50.1666 57 50.3078 56.8996 50.4591 56.7589L56.8447 50.3708C56.8547 50.3621 56.9856 50.2301 56.9856 50.0377V7.83024C56.9853 7.72975 56.9452 7.66951 56.8645 7.57764ZM55.6136 7.94222L51.528 11.1722L46.8881 6.51817L50.0351 2.36088L55.6136 7.94222ZM39.4532 16.0243L42.2881 12.3924L45.6573 15.763L42.0257 18.5967L39.4532 16.0243ZM41.4004 19.5155V38.4759L38.4647 41.4016H19.5206L16.5853 38.4759V19.5155L19.5206 16.5899H38.4647L41.4004 19.5155ZM38.4245 15.5391H19.5608L16.6455 11.8067H41.3398L38.4245 15.5391ZM18.5321 16.0243L16.0202 18.5364L12.3886 15.7027L15.7682 12.3207L18.5321 16.0243ZM15.5462 19.5672V38.4243L11.8035 41.3413V16.6502L15.5462 19.5672ZM16.0303 39.4636L18.5321 41.9672L15.6975 45.6077L12.3183 42.2199L16.0303 39.4636ZM19.5608 42.5098H38.4245L41.3398 46.2537H16.6455L19.5608 42.5098ZM39.4532 41.9672L41.9651 39.455L45.5967 42.2887L42.2175 45.6709L39.4532 41.9672ZM42.5098 38.4243V19.5672L46.2424 16.6502V41.3413L42.5098 38.4243ZM42.9439 11.4937L46.1617 7.40827L50.6406 11.8871L46.5551 15.1056L42.9439 11.4937ZM42.167 10.6956H15.8184L12.9031 6.95459H45.0822L42.167 10.6956ZM15.0418 11.4937L11.5012 15.0452L6.96175 11.4937L11.5012 6.95459L15.0418 11.4937ZM10.6938 15.8119V42.1796L6.96175 45.0937V12.8977L10.6938 15.8119ZM11.5012 42.9462L15.0418 46.4977L11.5012 51.0368L6.96175 46.4977L11.5012 42.9462ZM15.8184 47.293H42.167L45.0822 51.0368H12.9031L15.8184 47.293ZM42.9439 46.4977L46.4842 42.9462L51.0239 46.4977L46.4842 51.0368L42.9439 46.4977ZM47.2915 42.1796V15.8119L51.0239 12.8977V45.0937L47.2915 42.1796ZM48.8347 2.11117L45.9194 5.84351H11.9953L9.09007 2.11117H48.8347ZM7.95026 2.37244L10.7748 6.00429L6.00339 10.7788L2.37179 7.94222L7.95026 2.37244ZM2.10967 9.15388L5.85209 12.0594V45.9924L2.10967 48.9094V9.15388ZM7.95026 55.6276L2.37179 50.0492L6.00339 47.2126L10.7748 51.9958L7.95026 55.6276ZM9.15065 55.9521L12.0659 52.2082H45.9901L48.8953 55.9521H9.15065ZM50.0351 55.6276L47.2108 51.9958L51.9822 47.2126L55.6136 50.0492L50.0351 55.6276ZM55.9363 48.8491L52.2039 45.9321V11.9991L55.9363 9.08204V48.8491Z" fill="black" fill-opacity="0.2"/>
<path d="M56.8645 7.57764L50.3986 1.11198C50.3681 1.08039 50.2972 1 50.1361 1H7.84948C7.70823 1 7.6175 1.08039 7.58707 1.11198L1.12116 7.57764C1.09101 7.60922 1 7.68098 1 7.81018V50.0779C1 50.2416 1.10106 50.3219 1.10106 50.3305L7.58736 56.8077C7.60746 56.8278 7.74871 57 7.99074 57H49.9952C50.1666 57 50.3078 56.8996 50.4591 56.7589L56.8447 50.3708C56.8547 50.3621 56.9856 50.2301 56.9856 50.0377V7.83024C56.9853 7.72975 56.9452 7.66951 56.8645 7.57764ZM55.6136 7.94222L51.528 11.1722L46.8881 6.51817L50.0351 2.36088L55.6136 7.94222ZM39.4532 16.0243L42.2881 12.3924L45.6573 15.763L42.0257 18.5967L39.4532 16.0243ZM41.4004 19.5155V38.4759L38.4647 41.4016H19.5206L16.5853 38.4759V19.5155L19.5206 16.5899H38.4647L41.4004 19.5155ZM38.4245 15.5391H19.5608L16.6455 11.8067H41.3398L38.4245 15.5391ZM18.5321 16.0243L16.0202 18.5364L12.3886 15.7027L15.7682 12.3207L18.5321 16.0243ZM15.5462 19.5672V38.4243L11.8035 41.3413V16.6502L15.5462 19.5672ZM16.0303 39.4636L18.5321 41.9672L15.6975 45.6077L12.3183 42.2199L16.0303 39.4636ZM19.5608 42.5098H38.4245L41.3398 46.2537H16.6455L19.5608 42.5098ZM39.4532 41.9672L41.9651 39.455L45.5967 42.2887L42.2175 45.6709L39.4532 41.9672ZM42.5098 38.4243V19.5672L46.2424 16.6502V41.3413L42.5098 38.4243ZM42.9439 11.4937L46.1617 7.40827L50.6406 11.8871L46.5551 15.1056L42.9439 11.4937ZM42.167 10.6956H15.8184L12.9031 6.95459H45.0822L42.167 10.6956ZM15.0418 11.4937L11.5012 15.0452L6.96175 11.4937L11.5012 6.95459L15.0418 11.4937ZM10.6938 15.8119V42.1796L6.96175 45.0937V12.8977L10.6938 15.8119ZM11.5012 42.9462L15.0418 46.4977L11.5012 51.0368L6.96175 46.4977L11.5012 42.9462ZM15.8184 47.293H42.167L45.0822 51.0368H12.9031L15.8184 47.293ZM42.9439 46.4977L46.4842 42.9462L51.0239 46.4977L46.4842 51.0368L42.9439 46.4977ZM47.2915 42.1796V15.8119L51.0239 12.8977V45.0937L47.2915 42.1796ZM48.8347 2.11117L45.9194 5.84351H11.9953L9.09007 2.11117H48.8347ZM7.95026 2.37244L10.7748 6.00429L6.00339 10.7788L2.37179 7.94222L7.95026 2.37244ZM2.10967 9.15388L5.85209 12.0594V45.9924L2.10967 48.9094V9.15388ZM7.95026 55.6276L2.37179 50.0492L6.00339 47.2126L10.7748 51.9958L7.95026 55.6276ZM9.15065 55.9521L12.0659 52.2082H45.9901L48.8953 55.9521H9.15065ZM50.0351 55.6276L47.2108 51.9958L51.9822 47.2126L55.6136 50.0492L50.0351 55.6276ZM55.9363 48.8491L52.2039 45.9321V11.9991L55.9363 9.08204V48.8491Z" fill="black" fill-opacity="0.2"/>
<path d="M56.8645 7.57764L50.3986 1.11198C50.3681 1.08039 50.2972 1 50.1361 1H7.84948C7.70823 1 7.6175 1.08039 7.58707 1.11198L1.12116 7.57764C1.09101 7.60922 1 7.68098 1 7.81018V50.0779C1 50.2416 1.10106 50.3219 1.10106 50.3305L7.58736 56.8077C7.60746 56.8278 7.74871 57 7.99074 57H49.9952C50.1666 57 50.3078 56.8996 50.4591 56.7589L56.8447 50.3708C56.8547 50.3621 56.9856 50.2301 56.9856 50.0377V7.83024C56.9853 7.72975 56.9452 7.66951 56.8645 7.57764ZM55.6136 7.94222L51.528 11.1722L46.8881 6.51817L50.0351 2.36088L55.6136 7.94222ZM39.4532 16.0243L42.2881 12.3924L45.6573 15.763L42.0257 18.5967L39.4532 16.0243ZM41.4004 19.5155V38.4759L38.4647 41.4016H19.5206L16.5853 38.4759V19.5155L19.5206 16.5899H38.4647L41.4004 19.5155ZM38.4245 15.5391H19.5608L16.6455 11.8067H41.3398L38.4245 15.5391ZM18.5321 16.0243L16.0202 18.5364L12.3886 15.7027L15.7682 12.3207L18.5321 16.0243ZM15.5462 19.5672V38.4243L11.8035 41.3413V16.6502L15.5462 19.5672ZM16.0303 39.4636L18.5321 41.9672L15.6975 45.6077L12.3183 42.2199L16.0303 39.4636ZM19.5608 42.5098H38.4245L41.3398 46.2537H16.6455L19.5608 42.5098ZM39.4532 41.9672L41.9651 39.455L45.5967 42.2887L42.2175 45.6709L39.4532 41.9672ZM42.5098 38.4243V19.5672L46.2424 16.6502V41.3413L42.5098 38.4243ZM42.9439 11.4937L46.1617 7.40827L50.6406 11.8871L46.5551 15.1056L42.9439 11.4937ZM42.167 10.6956H15.8184L12.9031 6.95459H45.0822L42.167 10.6956ZM15.0418 11.4937L11.5012 15.0452L6.96175 11.4937L11.5012 6.95459L15.0418 11.4937ZM10.6938 15.8119V42.1796L6.96175 45.0937V12.8977L10.6938 15.8119ZM11.5012 42.9462L15.0418 46.4977L11.5012 51.0368L6.96175 46.4977L11.5012 42.9462ZM15.8184 47.293H42.167L45.0822 51.0368H12.9031L15.8184 47.293ZM42.9439 46.4977L46.4842 42.9462L51.0239 46.4977L46.4842 51.0368L42.9439 46.4977ZM47.2915 42.1796V15.8119L51.0239 12.8977V45.0937L47.2915 42.1796ZM48.8347 2.11117L45.9194 5.84351H11.9953L9.09007 2.11117H48.8347ZM7.95026 2.37244L10.7748 6.00429L6.00339 10.7788L2.37179 7.94222L7.95026 2.37244ZM2.10967 9.15388L5.85209 12.0594V45.9924L2.10967 48.9094V9.15388ZM7.95026 55.6276L2.37179 50.0492L6.00339 47.2126L10.7748 51.9958L7.95026 55.6276ZM9.15065 55.9521L12.0659 52.2082H45.9901L48.8953 55.9521H9.15065ZM50.0351 55.6276L47.2108 51.9958L51.9822 47.2126L55.6136 50.0492L50.0351 55.6276ZM55.9363 48.8491L52.2039 45.9321V11.9991L55.9363 9.08204V48.8491Z" fill="black" fill-opacity="0.2"/>
<path d="M56.8645 7.57764L50.3986 1.11198C50.3681 1.08039 50.2972 1 50.1361 1H7.84948C7.70823 1 7.6175 1.08039 7.58707 1.11198L1.12116 7.57764C1.09101 7.60922 1 7.68098 1 7.81018V50.0779C1 50.2416 1.10106 50.3219 1.10106 50.3305L7.58736 56.8077C7.60746 56.8278 7.74871 57 7.99074 57H49.9952C50.1666 57 50.3078 56.8996 50.4591 56.7589L56.8447 50.3708C56.8547 50.3621 56.9856 50.2301 56.9856 50.0377V7.83024C56.9853 7.72975 56.9452 7.66951 56.8645 7.57764ZM55.6136 7.94222L51.528 11.1722L46.8881 6.51817L50.0351 2.36088L55.6136 7.94222ZM39.4532 16.0243L42.2881 12.3924L45.6573 15.763L42.0257 18.5967L39.4532 16.0243ZM41.4004 19.5155V38.4759L38.4647 41.4016H19.5206L16.5853 38.4759V19.5155L19.5206 16.5899H38.4647L41.4004 19.5155ZM38.4245 15.5391H19.5608L16.6455 11.8067H41.3398L38.4245 15.5391ZM18.5321 16.0243L16.0202 18.5364L12.3886 15.7027L15.7682 12.3207L18.5321 16.0243ZM15.5462 19.5672V38.4243L11.8035 41.3413V16.6502L15.5462 19.5672ZM16.0303 39.4636L18.5321 41.9672L15.6975 45.6077L12.3183 42.2199L16.0303 39.4636ZM19.5608 42.5098H38.4245L41.3398 46.2537H16.6455L19.5608 42.5098ZM39.4532 41.9672L41.9651 39.455L45.5967 42.2887L42.2175 45.6709L39.4532 41.9672ZM42.5098 38.4243V19.5672L46.2424 16.6502V41.3413L42.5098 38.4243ZM42.9439 11.4937L46.1617 7.40827L50.6406 11.8871L46.5551 15.1056L42.9439 11.4937ZM42.167 10.6956H15.8184L12.9031 6.95459H45.0822L42.167 10.6956ZM15.0418 11.4937L11.5012 15.0452L6.96175 11.4937L11.5012 6.95459L15.0418 11.4937ZM10.6938 15.8119V42.1796L6.96175 45.0937V12.8977L10.6938 15.8119ZM11.5012 42.9462L15.0418 46.4977L11.5012 51.0368L6.96175 46.4977L11.5012 42.9462ZM15.8184 47.293H42.167L45.0822 51.0368H12.9031L15.8184 47.293ZM42.9439 46.4977L46.4842 42.9462L51.0239 46.4977L46.4842 51.0368L42.9439 46.4977ZM47.2915 42.1796V15.8119L51.0239 12.8977V45.0937L47.2915 42.1796ZM48.8347 2.11117L45.9194 5.84351H11.9953L9.09007 2.11117H48.8347ZM7.95026 2.37244L10.7748 6.00429L6.00339 10.7788L2.37179 7.94222L7.95026 2.37244ZM2.10967 9.15388L5.85209 12.0594V45.9924L2.10967 48.9094V9.15388ZM7.95026 55.6276L2.37179 50.0492L6.00339 47.2126L10.7748 51.9958L7.95026 55.6276ZM9.15065 55.9521L12.0659 52.2082H45.9901L48.8953 55.9521H9.15065ZM50.0351 55.6276L47.2108 51.9958L51.9822 47.2126L55.6136 50.0492L50.0351 55.6276ZM55.9363 48.8491L52.2039 45.9321V11.9991L55.9363 9.08204V48.8491Z" fill="black" fill-opacity="0.2"/>
<path d="M56.8645 7.57764L50.3986 1.11198C50.3681 1.08039 50.2972 1 50.1361 1H7.84948C7.70823 1 7.6175 1.08039 7.58707 1.11198L1.12116 7.57764C1.09101 7.60922 1 7.68098 1 7.81018V50.0779C1 50.2416 1.10106 50.3219 1.10106 50.3305L7.58736 56.8077C7.60746 56.8278 7.74871 57 7.99074 57H49.9952C50.1666 57 50.3078 56.8996 50.4591 56.7589L56.8447 50.3708C56.8547 50.3621 56.9856 50.2301 56.9856 50.0377V7.83024C56.9853 7.72975 56.9452 7.66951 56.8645 7.57764ZM55.6136 7.94222L51.528 11.1722L46.8881 6.51817L50.0351 2.36088L55.6136 7.94222ZM39.4532 16.0243L42.2881 12.3924L45.6573 15.763L42.0257 18.5967L39.4532 16.0243ZM41.4004 19.5155V38.4759L38.4647 41.4016H19.5206L16.5853 38.4759V19.5155L19.5206 16.5899H38.4647L41.4004 19.5155ZM38.4245 15.5391H19.5608L16.6455 11.8067H41.3398L38.4245 15.5391ZM18.5321 16.0243L16.0202 18.5364L12.3886 15.7027L15.7682 12.3207L18.5321 16.0243ZM15.5462 19.5672V38.4243L11.8035 41.3413V16.6502L15.5462 19.5672ZM16.0303 39.4636L18.5321 41.9672L15.6975 45.6077L12.3183 42.2199L16.0303 39.4636ZM19.5608 42.5098H38.4245L41.3398 46.2537H16.6455L19.5608 42.5098ZM39.4532 41.9672L41.9651 39.455L45.5967 42.2887L42.2175 45.6709L39.4532 41.9672ZM42.5098 38.4243V19.5672L46.2424 16.6502V41.3413L42.5098 38.4243ZM42.9439 11.4937L46.1617 7.40827L50.6406 11.8871L46.5551 15.1056L42.9439 11.4937ZM42.167 10.6956H15.8184L12.9031 6.95459H45.0822L42.167 10.6956ZM15.0418 11.4937L11.5012 15.0452L6.96175 11.4937L11.5012 6.95459L15.0418 11.4937ZM10.6938 15.8119V42.1796L6.96175 45.0937V12.8977L10.6938 15.8119ZM11.5012 42.9462L15.0418 46.4977L11.5012 51.0368L6.96175 46.4977L11.5012 42.9462ZM15.8184 47.293H42.167L45.0822 51.0368H12.9031L15.8184 47.293ZM42.9439 46.4977L46.4842 42.9462L51.0239 46.4977L46.4842 51.0368L42.9439 46.4977ZM47.2915 42.1796V15.8119L51.0239 12.8977V45.0937L47.2915 42.1796ZM48.8347 2.11117L45.9194 5.84351H11.9953L9.09007 2.11117H48.8347ZM7.95026 2.37244L10.7748 6.00429L6.00339 10.7788L2.37179 7.94222L7.95026 2.37244ZM2.10967 9.15388L5.85209 12.0594V45.9924L2.10967 48.9094V9.15388ZM7.95026 55.6276L2.37179 50.0492L6.00339 47.2126L10.7748 51.9958L7.95026 55.6276ZM9.15065 55.9521L12.0659 52.2082H45.9901L48.8953 55.9521H9.15065ZM50.0351 55.6276L47.2108 51.9958L51.9822 47.2126L55.6136 50.0492L50.0351 55.6276ZM55.9363 48.8491L52.2039 45.9321V11.9991L55.9363 9.08204V48.8491Z" stroke="#333335" stroke-width="0.25"/>
<path d="M56.8645 7.57764L50.3986 1.11198C50.3681 1.08039 50.2972 1 50.1361 1H7.84948C7.70823 1 7.6175 1.08039 7.58707 1.11198L1.12116 7.57764C1.09101 7.60922 1 7.68098 1 7.81018V50.0779C1 50.2416 1.10106 50.3219 1.10106 50.3305L7.58736 56.8077C7.60746 56.8278 7.74871 57 7.99074 57H49.9952C50.1666 57 50.3078 56.8996 50.4591 56.7589L56.8447 50.3708C56.8547 50.3621 56.9856 50.2301 56.9856 50.0377V7.83024C56.9853 7.72975 56.9452 7.66951 56.8645 7.57764ZM55.6136 7.94222L51.528 11.1722L46.8881 6.51817L50.0351 2.36088L55.6136 7.94222ZM39.4532 16.0243L42.2881 12.3924L45.6573 15.763L42.0257 18.5967L39.4532 16.0243ZM41.4004 19.5155V38.4759L38.4647 41.4016H19.5206L16.5853 38.4759V19.5155L19.5206 16.5899H38.4647L41.4004 19.5155ZM38.4245 15.5391H19.5608L16.6455 11.8067H41.3398L38.4245 15.5391ZM18.5321 16.0243L16.0202 18.5364L12.3886 15.7027L15.7682 12.3207L18.5321 16.0243ZM15.5462 19.5672V38.4243L11.8035 41.3413V16.6502L15.5462 19.5672ZM16.0303 39.4636L18.5321 41.9672L15.6975 45.6077L12.3183 42.2199L16.0303 39.4636ZM19.5608 42.5098H38.4245L41.3398 46.2537H16.6455L19.5608 42.5098ZM39.4532 41.9672L41.9651 39.455L45.5967 42.2887L42.2175 45.6709L39.4532 41.9672ZM42.5098 38.4243V19.5672L46.2424 16.6502V41.3413L42.5098 38.4243ZM42.9439 11.4937L46.1617 7.40827L50.6406 11.8871L46.5551 15.1056L42.9439 11.4937ZM42.167 10.6956H15.8184L12.9031 6.95459H45.0822L42.167 10.6956ZM15.0418 11.4937L11.5012 15.0452L6.96175 11.4937L11.5012 6.95459L15.0418 11.4937ZM10.6938 15.8119V42.1796L6.96175 45.0937V12.8977L10.6938 15.8119ZM11.5012 42.9462L15.0418 46.4977L11.5012 51.0368L6.96175 46.4977L11.5012 42.9462ZM15.8184 47.293H42.167L45.0822 51.0368H12.9031L15.8184 47.293ZM42.9439 46.4977L46.4842 42.9462L51.0239 46.4977L46.4842 51.0368L42.9439 46.4977ZM47.2915 42.1796V15.8119L51.0239 12.8977V45.0937L47.2915 42.1796ZM48.8347 2.11117L45.9194 5.84351H11.9953L9.09007 2.11117H48.8347ZM7.95026 2.37244L10.7748 6.00429L6.00339 10.7788L2.37179 7.94222L7.95026 2.37244ZM2.10967 9.15388L5.85209 12.0594V45.9924L2.10967 48.9094V9.15388ZM7.95026 55.6276L2.37179 50.0492L6.00339 47.2126L10.7748 51.9958L7.95026 55.6276ZM9.15065 55.9521L12.0659 52.2082H45.9901L48.8953 55.9521H9.15065ZM50.0351 55.6276L47.2108 51.9958L51.9822 47.2126L55.6136 50.0492L50.0351 55.6276ZM55.9363 48.8491L52.2039 45.9321V11.9991L55.9363 9.08204V48.8491Z" stroke="black" stroke-opacity="0.2" stroke-width="0.25"/>
<path d="M56.8645 7.57764L50.3986 1.11198C50.3681 1.08039 50.2972 1 50.1361 1H7.84948C7.70823 1 7.6175 1.08039 7.58707 1.11198L1.12116 7.57764C1.09101 7.60922 1 7.68098 1 7.81018V50.0779C1 50.2416 1.10106 50.3219 1.10106 50.3305L7.58736 56.8077C7.60746 56.8278 7.74871 57 7.99074 57H49.9952C50.1666 57 50.3078 56.8996 50.4591 56.7589L56.8447 50.3708C56.8547 50.3621 56.9856 50.2301 56.9856 50.0377V7.83024C56.9853 7.72975 56.9452 7.66951 56.8645 7.57764ZM55.6136 7.94222L51.528 11.1722L46.8881 6.51817L50.0351 2.36088L55.6136 7.94222ZM39.4532 16.0243L42.2881 12.3924L45.6573 15.763L42.0257 18.5967L39.4532 16.0243ZM41.4004 19.5155V38.4759L38.4647 41.4016H19.5206L16.5853 38.4759V19.5155L19.5206 16.5899H38.4647L41.4004 19.5155ZM38.4245 15.5391H19.5608L16.6455 11.8067H41.3398L38.4245 15.5391ZM18.5321 16.0243L16.0202 18.5364L12.3886 15.7027L15.7682 12.3207L18.5321 16.0243ZM15.5462 19.5672V38.4243L11.8035 41.3413V16.6502L15.5462 19.5672ZM16.0303 39.4636L18.5321 41.9672L15.6975 45.6077L12.3183 42.2199L16.0303 39.4636ZM19.5608 42.5098H38.4245L41.3398 46.2537H16.6455L19.5608 42.5098ZM39.4532 41.9672L41.9651 39.455L45.5967 42.2887L42.2175 45.6709L39.4532 41.9672ZM42.5098 38.4243V19.5672L46.2424 16.6502V41.3413L42.5098 38.4243ZM42.9439 11.4937L46.1617 7.40827L50.6406 11.8871L46.5551 15.1056L42.9439 11.4937ZM42.167 10.6956H15.8184L12.9031 6.95459H45.0822L42.167 10.6956ZM15.0418 11.4937L11.5012 15.0452L6.96175 11.4937L11.5012 6.95459L15.0418 11.4937ZM10.6938 15.8119V42.1796L6.96175 45.0937V12.8977L10.6938 15.8119ZM11.5012 42.9462L15.0418 46.4977L11.5012 51.0368L6.96175 46.4977L11.5012 42.9462ZM15.8184 47.293H42.167L45.0822 51.0368H12.9031L15.8184 47.293ZM42.9439 46.4977L46.4842 42.9462L51.0239 46.4977L46.4842 51.0368L42.9439 46.4977ZM47.2915 42.1796V15.8119L51.0239 12.8977V45.0937L47.2915 42.1796ZM48.8347 2.11117L45.9194 5.84351H11.9953L9.09007 2.11117H48.8347ZM7.95026 2.37244L10.7748 6.00429L6.00339 10.7788L2.37179 7.94222L7.95026 2.37244ZM2.10967 9.15388L5.85209 12.0594V45.9924L2.10967 48.9094V9.15388ZM7.95026 55.6276L2.37179 50.0492L6.00339 47.2126L10.7748 51.9958L7.95026 55.6276ZM9.15065 55.9521L12.0659 52.2082H45.9901L48.8953 55.9521H9.15065ZM50.0351 55.6276L47.2108 51.9958L51.9822 47.2126L55.6136 50.0492L50.0351 55.6276ZM55.9363 48.8491L52.2039 45.9321V11.9991L55.9363 9.08204V48.8491Z" stroke="black" stroke-opacity="0.2" stroke-width="0.25"/>
<path d="M56.8645 7.57764L50.3986 1.11198C50.3681 1.08039 50.2972 1 50.1361 1H7.84948C7.70823 1 7.6175 1.08039 7.58707 1.11198L1.12116 7.57764C1.09101 7.60922 1 7.68098 1 7.81018V50.0779C1 50.2416 1.10106 50.3219 1.10106 50.3305L7.58736 56.8077C7.60746 56.8278 7.74871 57 7.99074 57H49.9952C50.1666 57 50.3078 56.8996 50.4591 56.7589L56.8447 50.3708C56.8547 50.3621 56.9856 50.2301 56.9856 50.0377V7.83024C56.9853 7.72975 56.9452 7.66951 56.8645 7.57764ZM55.6136 7.94222L51.528 11.1722L46.8881 6.51817L50.0351 2.36088L55.6136 7.94222ZM39.4532 16.0243L42.2881 12.3924L45.6573 15.763L42.0257 18.5967L39.4532 16.0243ZM41.4004 19.5155V38.4759L38.4647 41.4016H19.5206L16.5853 38.4759V19.5155L19.5206 16.5899H38.4647L41.4004 19.5155ZM38.4245 15.5391H19.5608L16.6455 11.8067H41.3398L38.4245 15.5391ZM18.5321 16.0243L16.0202 18.5364L12.3886 15.7027L15.7682 12.3207L18.5321 16.0243ZM15.5462 19.5672V38.4243L11.8035 41.3413V16.6502L15.5462 19.5672ZM16.0303 39.4636L18.5321 41.9672L15.6975 45.6077L12.3183 42.2199L16.0303 39.4636ZM19.5608 42.5098H38.4245L41.3398 46.2537H16.6455L19.5608 42.5098ZM39.4532 41.9672L41.9651 39.455L45.5967 42.2887L42.2175 45.6709L39.4532 41.9672ZM42.5098 38.4243V19.5672L46.2424 16.6502V41.3413L42.5098 38.4243ZM42.9439 11.4937L46.1617 7.40827L50.6406 11.8871L46.5551 15.1056L42.9439 11.4937ZM42.167 10.6956H15.8184L12.9031 6.95459H45.0822L42.167 10.6956ZM15.0418 11.4937L11.5012 15.0452L6.96175 11.4937L11.5012 6.95459L15.0418 11.4937ZM10.6938 15.8119V42.1796L6.96175 45.0937V12.8977L10.6938 15.8119ZM11.5012 42.9462L15.0418 46.4977L11.5012 51.0368L6.96175 46.4977L11.5012 42.9462ZM15.8184 47.293H42.167L45.0822 51.0368H12.9031L15.8184 47.293ZM42.9439 46.4977L46.4842 42.9462L51.0239 46.4977L46.4842 51.0368L42.9439 46.4977ZM47.2915 42.1796V15.8119L51.0239 12.8977V45.0937L47.2915 42.1796ZM48.8347 2.11117L45.9194 5.84351H11.9953L9.09007 2.11117H48.8347ZM7.95026 2.37244L10.7748 6.00429L6.00339 10.7788L2.37179 7.94222L7.95026 2.37244ZM2.10967 9.15388L5.85209 12.0594V45.9924L2.10967 48.9094V9.15388ZM7.95026 55.6276L2.37179 50.0492L6.00339 47.2126L10.7748 51.9958L7.95026 55.6276ZM9.15065 55.9521L12.0659 52.2082H45.9901L48.8953 55.9521H9.15065ZM50.0351 55.6276L47.2108 51.9958L51.9822 47.2126L55.6136 50.0492L50.0351 55.6276ZM55.9363 48.8491L52.2039 45.9321V11.9991L55.9363 9.08204V48.8491Z" stroke="black" stroke-opacity="0.2" stroke-width="0.25"/>
<path d="M56.8645 7.57764L50.3986 1.11198C50.3681 1.08039 50.2972 1 50.1361 1H7.84948C7.70823 1 7.6175 1.08039 7.58707 1.11198L1.12116 7.57764C1.09101 7.60922 1 7.68098 1 7.81018V50.0779C1 50.2416 1.10106 50.3219 1.10106 50.3305L7.58736 56.8077C7.60746 56.8278 7.74871 57 7.99074 57H49.9952C50.1666 57 50.3078 56.8996 50.4591 56.7589L56.8447 50.3708C56.8547 50.3621 56.9856 50.2301 56.9856 50.0377V7.83024C56.9853 7.72975 56.9452 7.66951 56.8645 7.57764ZM55.6136 7.94222L51.528 11.1722L46.8881 6.51817L50.0351 2.36088L55.6136 7.94222ZM39.4532 16.0243L42.2881 12.3924L45.6573 15.763L42.0257 18.5967L39.4532 16.0243ZM41.4004 19.5155V38.4759L38.4647 41.4016H19.5206L16.5853 38.4759V19.5155L19.5206 16.5899H38.4647L41.4004 19.5155ZM38.4245 15.5391H19.5608L16.6455 11.8067H41.3398L38.4245 15.5391ZM18.5321 16.0243L16.0202 18.5364L12.3886 15.7027L15.7682 12.3207L18.5321 16.0243ZM15.5462 19.5672V38.4243L11.8035 41.3413V16.6502L15.5462 19.5672ZM16.0303 39.4636L18.5321 41.9672L15.6975 45.6077L12.3183 42.2199L16.0303 39.4636ZM19.5608 42.5098H38.4245L41.3398 46.2537H16.6455L19.5608 42.5098ZM39.4532 41.9672L41.9651 39.455L45.5967 42.2887L42.2175 45.6709L39.4532 41.9672ZM42.5098 38.4243V19.5672L46.2424 16.6502V41.3413L42.5098 38.4243ZM42.9439 11.4937L46.1617 7.40827L50.6406 11.8871L46.5551 15.1056L42.9439 11.4937ZM42.167 10.6956H15.8184L12.9031 6.95459H45.0822L42.167 10.6956ZM15.0418 11.4937L11.5012 15.0452L6.96175 11.4937L11.5012 6.95459L15.0418 11.4937ZM10.6938 15.8119V42.1796L6.96175 45.0937V12.8977L10.6938 15.8119ZM11.5012 42.9462L15.0418 46.4977L11.5012 51.0368L6.96175 46.4977L11.5012 42.9462ZM15.8184 47.293H42.167L45.0822 51.0368H12.9031L15.8184 47.293ZM42.9439 46.4977L46.4842 42.9462L51.0239 46.4977L46.4842 51.0368L42.9439 46.4977ZM47.2915 42.1796V15.8119L51.0239 12.8977V45.0937L47.2915 42.1796ZM48.8347 2.11117L45.9194 5.84351H11.9953L9.09007 2.11117H48.8347ZM7.95026 2.37244L10.7748 6.00429L6.00339 10.7788L2.37179 7.94222L7.95026 2.37244ZM2.10967 9.15388L5.85209 12.0594V45.9924L2.10967 48.9094V9.15388ZM7.95026 55.6276L2.37179 50.0492L6.00339 47.2126L10.7748 51.9958L7.95026 55.6276ZM9.15065 55.9521L12.0659 52.2082H45.9901L48.8953 55.9521H9.15065ZM50.0351 55.6276L47.2108 51.9958L51.9822 47.2126L55.6136 50.0492L50.0351 55.6276ZM55.9363 48.8491L52.2039 45.9321V11.9991L55.9363 9.08204V48.8491Z" stroke="black" stroke-opacity="0.2" stroke-width="0.25"/>
<path d="M56.8645 7.57764L50.3986 1.11198C50.3681 1.08039 50.2972 1 50.1361 1H7.84948C7.70823 1 7.6175 1.08039 7.58707 1.11198L1.12116 7.57764C1.09101 7.60922 1 7.68098 1 7.81018V50.0779C1 50.2416 1.10106 50.3219 1.10106 50.3305L7.58736 56.8077C7.60746 56.8278 7.74871 57 7.99074 57H49.9952C50.1666 57 50.3078 56.8996 50.4591 56.7589L56.8447 50.3708C56.8547 50.3621 56.9856 50.2301 56.9856 50.0377V7.83024C56.9853 7.72975 56.9452 7.66951 56.8645 7.57764ZM55.6136 7.94222L51.528 11.1722L46.8881 6.51817L50.0351 2.36088L55.6136 7.94222ZM39.4532 16.0243L42.2881 12.3924L45.6573 15.763L42.0257 18.5967L39.4532 16.0243ZM41.4004 19.5155V38.4759L38.4647 41.4016H19.5206L16.5853 38.4759V19.5155L19.5206 16.5899H38.4647L41.4004 19.5155ZM38.4245 15.5391H19.5608L16.6455 11.8067H41.3398L38.4245 15.5391ZM18.5321 16.0243L16.0202 18.5364L12.3886 15.7027L15.7682 12.3207L18.5321 16.0243ZM15.5462 19.5672V38.4243L11.8035 41.3413V16.6502L15.5462 19.5672ZM16.0303 39.4636L18.5321 41.9672L15.6975 45.6077L12.3183 42.2199L16.0303 39.4636ZM19.5608 42.5098H38.4245L41.3398 46.2537H16.6455L19.5608 42.5098ZM39.4532 41.9672L41.9651 39.455L45.5967 42.2887L42.2175 45.6709L39.4532 41.9672ZM42.5098 38.4243V19.5672L46.2424 16.6502V41.3413L42.5098 38.4243ZM42.9439 11.4937L46.1617 7.40827L50.6406 11.8871L46.5551 15.1056L42.9439 11.4937ZM42.167 10.6956H15.8184L12.9031 6.95459H45.0822L42.167 10.6956ZM15.0418 11.4937L11.5012 15.0452L6.96175 11.4937L11.5012 6.95459L15.0418 11.4937ZM10.6938 15.8119V42.1796L6.96175 45.0937V12.8977L10.6938 15.8119ZM11.5012 42.9462L15.0418 46.4977L11.5012 51.0368L6.96175 46.4977L11.5012 42.9462ZM15.8184 47.293H42.167L45.0822 51.0368H12.9031L15.8184 47.293ZM42.9439 46.4977L46.4842 42.9462L51.0239 46.4977L46.4842 51.0368L42.9439 46.4977ZM47.2915 42.1796V15.8119L51.0239 12.8977V45.0937L47.2915 42.1796ZM48.8347 2.11117L45.9194 5.84351H11.9953L9.09007 2.11117H48.8347ZM7.95026 2.37244L10.7748 6.00429L6.00339 10.7788L2.37179 7.94222L7.95026 2.37244ZM2.10967 9.15388L5.85209 12.0594V45.9924L2.10967 48.9094V9.15388ZM7.95026 55.6276L2.37179 50.0492L6.00339 47.2126L10.7748 51.9958L7.95026 55.6276ZM9.15065 55.9521L12.0659 52.2082H45.9901L48.8953 55.9521H9.15065ZM50.0351 55.6276L47.2108 51.9958L51.9822 47.2126L55.6136 50.0492L50.0351 55.6276ZM55.9363 48.8491L52.2039 45.9321V11.9991L55.9363 9.08204V48.8491Z" stroke="black" stroke-opacity="0.2" stroke-width="0.25"/>
<path d="M56.8645 7.57764L50.3986 1.11198C50.3681 1.08039 50.2972 1 50.1361 1H7.84948C7.70823 1 7.6175 1.08039 7.58707 1.11198L1.12116 7.57764C1.09101 7.60922 1 7.68098 1 7.81018V50.0779C1 50.2416 1.10106 50.3219 1.10106 50.3305L7.58736 56.8077C7.60746 56.8278 7.74871 57 7.99074 57H49.9952C50.1666 57 50.3078 56.8996 50.4591 56.7589L56.8447 50.3708C56.8547 50.3621 56.9856 50.2301 56.9856 50.0377V7.83024C56.9853 7.72975 56.9452 7.66951 56.8645 7.57764ZM55.6136 7.94222L51.528 11.1722L46.8881 6.51817L50.0351 2.36088L55.6136 7.94222ZM39.4532 16.0243L42.2881 12.3924L45.6573 15.763L42.0257 18.5967L39.4532 16.0243ZM41.4004 19.5155V38.4759L38.4647 41.4016H19.5206L16.5853 38.4759V19.5155L19.5206 16.5899H38.4647L41.4004 19.5155ZM38.4245 15.5391H19.5608L16.6455 11.8067H41.3398L38.4245 15.5391ZM18.5321 16.0243L16.0202 18.5364L12.3886 15.7027L15.7682 12.3207L18.5321 16.0243ZM15.5462 19.5672V38.4243L11.8035 41.3413V16.6502L15.5462 19.5672ZM16.0303 39.4636L18.5321 41.9672L15.6975 45.6077L12.3183 42.2199L16.0303 39.4636ZM19.5608 42.5098H38.4245L41.3398 46.2537H16.6455L19.5608 42.5098ZM39.4532 41.9672L41.9651 39.455L45.5967 42.2887L42.2175 45.6709L39.4532 41.9672ZM42.5098 38.4243V19.5672L46.2424 16.6502V41.3413L42.5098 38.4243ZM42.9439 11.4937L46.1617 7.40827L50.6406 11.8871L46.5551 15.1056L42.9439 11.4937ZM42.167 10.6956H15.8184L12.9031 6.95459H45.0822L42.167 10.6956ZM15.0418 11.4937L11.5012 15.0452L6.96175 11.4937L11.5012 6.95459L15.0418 11.4937ZM10.6938 15.8119V42.1796L6.96175 45.0937V12.8977L10.6938 15.8119ZM11.5012 42.9462L15.0418 46.4977L11.5012 51.0368L6.96175 46.4977L11.5012 42.9462ZM15.8184 47.293H42.167L45.0822 51.0368H12.9031L15.8184 47.293ZM42.9439 46.4977L46.4842 42.9462L51.0239 46.4977L46.4842 51.0368L42.9439 46.4977ZM47.2915 42.1796V15.8119L51.0239 12.8977V45.0937L47.2915 42.1796ZM48.8347 2.11117L45.9194 5.84351H11.9953L9.09007 2.11117H48.8347ZM7.95026 2.37244L10.7748 6.00429L6.00339 10.7788L2.37179 7.94222L7.95026 2.37244ZM2.10967 9.15388L5.85209 12.0594V45.9924L2.10967 48.9094V9.15388ZM7.95026 55.6276L2.37179 50.0492L6.00339 47.2126L10.7748 51.9958L7.95026 55.6276ZM9.15065 55.9521L12.0659 52.2082H45.9901L48.8953 55.9521H9.15065ZM50.0351 55.6276L47.2108 51.9958L51.9822 47.2126L55.6136 50.0492L50.0351 55.6276ZM55.9363 48.8491L52.2039 45.9321V11.9991L55.9363 9.08204V48.8491Z" stroke="black" stroke-opacity="0.2" stroke-width="0.25"/>
<path d="M56.8645 7.57764L50.3986 1.11198C50.3681 1.08039 50.2972 1 50.1361 1H7.84948C7.70823 1 7.6175 1.08039 7.58707 1.11198L1.12116 7.57764C1.09101 7.60922 1 7.68098 1 7.81018V50.0779C1 50.2416 1.10106 50.3219 1.10106 50.3305L7.58736 56.8077C7.60746 56.8278 7.74871 57 7.99074 57H49.9952C50.1666 57 50.3078 56.8996 50.4591 56.7589L56.8447 50.3708C56.8547 50.3621 56.9856 50.2301 56.9856 50.0377V7.83024C56.9853 7.72975 56.9452 7.66951 56.8645 7.57764ZM55.6136 7.94222L51.528 11.1722L46.8881 6.51817L50.0351 2.36088L55.6136 7.94222ZM39.4532 16.0243L42.2881 12.3924L45.6573 15.763L42.0257 18.5967L39.4532 16.0243ZM41.4004 19.5155V38.4759L38.4647 41.4016H19.5206L16.5853 38.4759V19.5155L19.5206 16.5899H38.4647L41.4004 19.5155ZM38.4245 15.5391H19.5608L16.6455 11.8067H41.3398L38.4245 15.5391ZM18.5321 16.0243L16.0202 18.5364L12.3886 15.7027L15.7682 12.3207L18.5321 16.0243ZM15.5462 19.5672V38.4243L11.8035 41.3413V16.6502L15.5462 19.5672ZM16.0303 39.4636L18.5321 41.9672L15.6975 45.6077L12.3183 42.2199L16.0303 39.4636ZM19.5608 42.5098H38.4245L41.3398 46.2537H16.6455L19.5608 42.5098ZM39.4532 41.9672L41.9651 39.455L45.5967 42.2887L42.2175 45.6709L39.4532 41.9672ZM42.5098 38.4243V19.5672L46.2424 16.6502V41.3413L42.5098 38.4243ZM42.9439 11.4937L46.1617 7.40827L50.6406 11.8871L46.5551 15.1056L42.9439 11.4937ZM42.167 10.6956H15.8184L12.9031 6.95459H45.0822L42.167 10.6956ZM15.0418 11.4937L11.5012 15.0452L6.96175 11.4937L11.5012 6.95459L15.0418 11.4937ZM10.6938 15.8119V42.1796L6.96175 45.0937V12.8977L10.6938 15.8119ZM11.5012 42.9462L15.0418 46.4977L11.5012 51.0368L6.96175 46.4977L11.5012 42.9462ZM15.8184 47.293H42.167L45.0822 51.0368H12.9031L15.8184 47.293ZM42.9439 46.4977L46.4842 42.9462L51.0239 46.4977L46.4842 51.0368L42.9439 46.4977ZM47.2915 42.1796V15.8119L51.0239 12.8977V45.0937L47.2915 42.1796ZM48.8347 2.11117L45.9194 5.84351H11.9953L9.09007 2.11117H48.8347ZM7.95026 2.37244L10.7748 6.00429L6.00339 10.7788L2.37179 7.94222L7.95026 2.37244ZM2.10967 9.15388L5.85209 12.0594V45.9924L2.10967 48.9094V9.15388ZM7.95026 55.6276L2.37179 50.0492L6.00339 47.2126L10.7748 51.9958L7.95026 55.6276ZM9.15065 55.9521L12.0659 52.2082H45.9901L48.8953 55.9521H9.15065ZM50.0351 55.6276L47.2108 51.9958L51.9822 47.2126L55.6136 50.0492L50.0351 55.6276ZM55.9363 48.8491L52.2039 45.9321V11.9991L55.9363 9.08204V48.8491Z" stroke="black" stroke-opacity="0.2" stroke-width="0.25"/>
<path d="M56.8645 7.57764L50.3986 1.11198C50.3681 1.08039 50.2972 1 50.1361 1H7.84948C7.70823 1 7.6175 1.08039 7.58707 1.11198L1.12116 7.57764C1.09101 7.60922 1 7.68098 1 7.81018V50.0779C1 50.2416 1.10106 50.3219 1.10106 50.3305L7.58736 56.8077C7.60746 56.8278 7.74871 57 7.99074 57H49.9952C50.1666 57 50.3078 56.8996 50.4591 56.7589L56.8447 50.3708C56.8547 50.3621 56.9856 50.2301 56.9856 50.0377V7.83024C56.9853 7.72975 56.9452 7.66951 56.8645 7.57764ZM55.6136 7.94222L51.528 11.1722L46.8881 6.51817L50.0351 2.36088L55.6136 7.94222ZM39.4532 16.0243L42.2881 12.3924L45.6573 15.763L42.0257 18.5967L39.4532 16.0243ZM41.4004 19.5155V38.4759L38.4647 41.4016H19.5206L16.5853 38.4759V19.5155L19.5206 16.5899H38.4647L41.4004 19.5155ZM38.4245 15.5391H19.5608L16.6455 11.8067H41.3398L38.4245 15.5391ZM18.5321 16.0243L16.0202 18.5364L12.3886 15.7027L15.7682 12.3207L18.5321 16.0243ZM15.5462 19.5672V38.4243L11.8035 41.3413V16.6502L15.5462 19.5672ZM16.0303 39.4636L18.5321 41.9672L15.6975 45.6077L12.3183 42.2199L16.0303 39.4636ZM19.5608 42.5098H38.4245L41.3398 46.2537H16.6455L19.5608 42.5098ZM39.4532 41.9672L41.9651 39.455L45.5967 42.2887L42.2175 45.6709L39.4532 41.9672ZM42.5098 38.4243V19.5672L46.2424 16.6502V41.3413L42.5098 38.4243ZM42.9439 11.4937L46.1617 7.40827L50.6406 11.8871L46.5551 15.1056L42.9439 11.4937ZM42.167 10.6956H15.8184L12.9031 6.95459H45.0822L42.167 10.6956ZM15.0418 11.4937L11.5012 15.0452L6.96175 11.4937L11.5012 6.95459L15.0418 11.4937ZM10.6938 15.8119V42.1796L6.96175 45.0937V12.8977L10.6938 15.8119ZM11.5012 42.9462L15.0418 46.4977L11.5012 51.0368L6.96175 46.4977L11.5012 42.9462ZM15.8184 47.293H42.167L45.0822 51.0368H12.9031L15.8184 47.293ZM42.9439 46.4977L46.4842 42.9462L51.0239 46.4977L46.4842 51.0368L42.9439 46.4977ZM47.2915 42.1796V15.8119L51.0239 12.8977V45.0937L47.2915 42.1796ZM48.8347 2.11117L45.9194 5.84351H11.9953L9.09007 2.11117H48.8347ZM7.95026 2.37244L10.7748 6.00429L6.00339 10.7788L2.37179 7.94222L7.95026 2.37244ZM2.10967 9.15388L5.85209 12.0594V45.9924L2.10967 48.9094V9.15388ZM7.95026 55.6276L2.37179 50.0492L6.00339 47.2126L10.7748 51.9958L7.95026 55.6276ZM9.15065 55.9521L12.0659 52.2082H45.9901L48.8953 55.9521H9.15065ZM50.0351 55.6276L47.2108 51.9958L51.9822 47.2126L55.6136 50.0492L50.0351 55.6276ZM55.9363 48.8491L52.2039 45.9321V11.9991L55.9363 9.08204V48.8491Z" stroke="black" stroke-opacity="0.2" stroke-width="0.25"/>
</svg>
