<svg width="52" height="58" viewBox="0 0 52 58" fill="none" xmlns="http://www.w3.org/2000/svg">
<path d="M39.2224 1H13.1044C6.43205 1 1 6.3861 1 13.0039V44.9961C1 51.6168 6.43205 57 13.1044 57H39.2224C45.8947 57 51.3268 51.6168 51.3268 44.9961V13.0039C51.3268 6.3861 45.8947 1 39.2224 1ZM47.8499 6.48662L48.1658 6.94022C49.3946 8.74899 50.0549 10.842 50.0549 13.0039V13.7734H45.131L47.8499 6.48662ZM49.986 15.028V25.0853L45.2114 15.028H49.986ZM38.3812 2.25469H39.1535C41.815 2.25469 44.3128 3.20503 46.3943 5.00518L46.8364 5.37843L38.3812 7.01776V2.25469ZM38.3812 8.26377L46.4058 6.72494L43.7673 13.7734H38.3812V8.26377ZM38.3812 15.028H43.2103L38.3812 25.9582V15.028ZM38.3812 31.9873L43.2792 42.9031H38.3812V31.9873ZM38.3812 44.2267H43.7673L46.3369 51.2637L38.3812 49.7248V44.2267ZM15.1514 2.25469H23.6297L15.1514 6.71346V2.25469ZM26.162 2.33512L36.4949 7.75279L26.162 13.693L15.8204 7.75279L26.162 2.33512ZM15.1514 8.795L23.7876 13.7734H15.1514V8.795ZM15.1514 44.2267H23.7302L15.1514 49.1275V44.2267ZM5.86357 4.93623C7.84173 3.1734 10.3998 2.18862 13.0355 2.18862H13.8767V6.9517L5.43293 5.32096L5.86357 4.93623ZM8.49062 13.7734L5.92101 6.72494L13.8767 8.26377V13.7734H8.49062ZM13.8767 15.028V25.4815L9.03608 15.028H13.8767ZM2.2719 13.0039C2.2719 10.842 2.92073 8.74899 4.16103 6.94022L4.46537 6.48662L7.19287 13.7734H2.2719V13.0039ZM2.2719 15.028H7.10389L2.2719 25.9582V15.028ZM2.2719 31.9873L7.16128 42.9031H2.2719V31.9873ZM4.47685 51.5135L4.16103 51.0512C2.92073 49.2396 2.2719 47.1465 2.2719 44.9961V44.2267H7.12685L4.47685 51.5135ZM13.8767 55.7339H13.1044C10.4573 55.7339 7.81876 54.7376 5.86357 52.9834L5.43293 52.6102L13.8767 50.9708V55.7339ZM13.8767 49.7276L5.92101 51.2637L8.49062 44.2267H13.8767V49.7276ZM13.8767 42.9031H8.99017L13.8767 31.9873V42.9031ZM13.8537 28.9211L8.06856 41.9872L2.30634 29.0015L8.06856 15.9554L13.9571 28.6713L13.8537 28.9211ZM15.1514 55.7339V51.2751L23.6297 55.7339H15.1514ZM15.8204 50.1669L26.162 44.3071L36.4949 50.1669L26.162 55.6535L15.8204 50.1669ZM37.1093 55.7339H28.6971L37.1093 51.2751V55.7339ZM37.1093 49.1275L28.5277 44.2267H37.1093V49.1275ZM37.1093 42.9606H15.1514V15.028H37.1093V42.9606ZM37.1093 13.8279H28.5392L37.1093 8.85239V13.8279ZM37.1093 6.71346L28.6971 2.25469H37.1093V6.71346ZM46.3943 52.9949C44.3472 54.7606 41.7805 55.7339 39.1535 55.7339H38.3812V50.9708L46.8364 52.6102L46.3943 52.9949ZM49.986 44.9961C50.0549 47.1121 49.4175 49.2166 48.1658 51.0512L47.8499 51.502L45.131 44.2267H49.986V44.9961ZM50.0549 42.9606H45.154L50.0549 32.0448V42.9606ZM50.0319 28.9211L44.2468 41.9872L38.4845 29.0015L44.2353 15.9669L50.2358 28.4014L50.0319 28.9211Z" fill="#333335"/>
<path d="M39.2224 1H13.1044C6.43205 1 1 6.3861 1 13.0039V44.9961C1 51.6168 6.43205 57 13.1044 57H39.2224C45.8947 57 51.3268 51.6168 51.3268 44.9961V13.0039C51.3268 6.3861 45.8947 1 39.2224 1ZM47.8499 6.48662L48.1658 6.94022C49.3946 8.74899 50.0549 10.842 50.0549 13.0039V13.7734H45.131L47.8499 6.48662ZM49.986 15.028V25.0853L45.2114 15.028H49.986ZM38.3812 2.25469H39.1535C41.815 2.25469 44.3128 3.20503 46.3943 5.00518L46.8364 5.37843L38.3812 7.01776V2.25469ZM38.3812 8.26377L46.4058 6.72494L43.7673 13.7734H38.3812V8.26377ZM38.3812 15.028H43.2103L38.3812 25.9582V15.028ZM38.3812 31.9873L43.2792 42.9031H38.3812V31.9873ZM38.3812 44.2267H43.7673L46.3369 51.2637L38.3812 49.7248V44.2267ZM15.1514 2.25469H23.6297L15.1514 6.71346V2.25469ZM26.162 2.33512L36.4949 7.75279L26.162 13.693L15.8204 7.75279L26.162 2.33512ZM15.1514 8.795L23.7876 13.7734H15.1514V8.795ZM15.1514 44.2267H23.7302L15.1514 49.1275V44.2267ZM5.86357 4.93623C7.84173 3.1734 10.3998 2.18862 13.0355 2.18862H13.8767V6.9517L5.43293 5.32096L5.86357 4.93623ZM8.49062 13.7734L5.92101 6.72494L13.8767 8.26377V13.7734H8.49062ZM13.8767 15.028V25.4815L9.03608 15.028H13.8767ZM2.2719 13.0039C2.2719 10.842 2.92073 8.74899 4.16103 6.94022L4.46537 6.48662L7.19287 13.7734H2.2719V13.0039ZM2.2719 15.028H7.10389L2.2719 25.9582V15.028ZM2.2719 31.9873L7.16128 42.9031H2.2719V31.9873ZM4.47685 51.5135L4.16103 51.0512C2.92073 49.2396 2.2719 47.1465 2.2719 44.9961V44.2267H7.12685L4.47685 51.5135ZM13.8767 55.7339H13.1044C10.4573 55.7339 7.81876 54.7376 5.86357 52.9834L5.43293 52.6102L13.8767 50.9708V55.7339ZM13.8767 49.7276L5.92101 51.2637L8.49062 44.2267H13.8767V49.7276ZM13.8767 42.9031H8.99017L13.8767 31.9873V42.9031ZM13.8537 28.9211L8.06856 41.9872L2.30634 29.0015L8.06856 15.9554L13.9571 28.6713L13.8537 28.9211ZM15.1514 55.7339V51.2751L23.6297 55.7339H15.1514ZM15.8204 50.1669L26.162 44.3071L36.4949 50.1669L26.162 55.6535L15.8204 50.1669ZM37.1093 55.7339H28.6971L37.1093 51.2751V55.7339ZM37.1093 49.1275L28.5277 44.2267H37.1093V49.1275ZM37.1093 42.9606H15.1514V15.028H37.1093V42.9606ZM37.1093 13.8279H28.5392L37.1093 8.85239V13.8279ZM37.1093 6.71346L28.6971 2.25469H37.1093V6.71346ZM46.3943 52.9949C44.3472 54.7606 41.7805 55.7339 39.1535 55.7339H38.3812V50.9708L46.8364 52.6102L46.3943 52.9949ZM49.986 44.9961C50.0549 47.1121 49.4175 49.2166 48.1658 51.0512L47.8499 51.502L45.131 44.2267H49.986V44.9961ZM50.0549 42.9606H45.154L50.0549 32.0448V42.9606ZM50.0319 28.9211L44.2468 41.9872L38.4845 29.0015L44.2353 15.9669L50.2358 28.4014L50.0319 28.9211Z" fill="black" fill-opacity="0.2"/>
<path d="M39.2224 1H13.1044C6.43205 1 1 6.3861 1 13.0039V44.9961C1 51.6168 6.43205 57 13.1044 57H39.2224C45.8947 57 51.3268 51.6168 51.3268 44.9961V13.0039C51.3268 6.3861 45.8947 1 39.2224 1ZM47.8499 6.48662L48.1658 6.94022C49.3946 8.74899 50.0549 10.842 50.0549 13.0039V13.7734H45.131L47.8499 6.48662ZM49.986 15.028V25.0853L45.2114 15.028H49.986ZM38.3812 2.25469H39.1535C41.815 2.25469 44.3128 3.20503 46.3943 5.00518L46.8364 5.37843L38.3812 7.01776V2.25469ZM38.3812 8.26377L46.4058 6.72494L43.7673 13.7734H38.3812V8.26377ZM38.3812 15.028H43.2103L38.3812 25.9582V15.028ZM38.3812 31.9873L43.2792 42.9031H38.3812V31.9873ZM38.3812 44.2267H43.7673L46.3369 51.2637L38.3812 49.7248V44.2267ZM15.1514 2.25469H23.6297L15.1514 6.71346V2.25469ZM26.162 2.33512L36.4949 7.75279L26.162 13.693L15.8204 7.75279L26.162 2.33512ZM15.1514 8.795L23.7876 13.7734H15.1514V8.795ZM15.1514 44.2267H23.7302L15.1514 49.1275V44.2267ZM5.86357 4.93623C7.84173 3.1734 10.3998 2.18862 13.0355 2.18862H13.8767V6.9517L5.43293 5.32096L5.86357 4.93623ZM8.49062 13.7734L5.92101 6.72494L13.8767 8.26377V13.7734H8.49062ZM13.8767 15.028V25.4815L9.03608 15.028H13.8767ZM2.2719 13.0039C2.2719 10.842 2.92073 8.74899 4.16103 6.94022L4.46537 6.48662L7.19287 13.7734H2.2719V13.0039ZM2.2719 15.028H7.10389L2.2719 25.9582V15.028ZM2.2719 31.9873L7.16128 42.9031H2.2719V31.9873ZM4.47685 51.5135L4.16103 51.0512C2.92073 49.2396 2.2719 47.1465 2.2719 44.9961V44.2267H7.12685L4.47685 51.5135ZM13.8767 55.7339H13.1044C10.4573 55.7339 7.81876 54.7376 5.86357 52.9834L5.43293 52.6102L13.8767 50.9708V55.7339ZM13.8767 49.7276L5.92101 51.2637L8.49062 44.2267H13.8767V49.7276ZM13.8767 42.9031H8.99017L13.8767 31.9873V42.9031ZM13.8537 28.9211L8.06856 41.9872L2.30634 29.0015L8.06856 15.9554L13.9571 28.6713L13.8537 28.9211ZM15.1514 55.7339V51.2751L23.6297 55.7339H15.1514ZM15.8204 50.1669L26.162 44.3071L36.4949 50.1669L26.162 55.6535L15.8204 50.1669ZM37.1093 55.7339H28.6971L37.1093 51.2751V55.7339ZM37.1093 49.1275L28.5277 44.2267H37.1093V49.1275ZM37.1093 42.9606H15.1514V15.028H37.1093V42.9606ZM37.1093 13.8279H28.5392L37.1093 8.85239V13.8279ZM37.1093 6.71346L28.6971 2.25469H37.1093V6.71346ZM46.3943 52.9949C44.3472 54.7606 41.7805 55.7339 39.1535 55.7339H38.3812V50.9708L46.8364 52.6102L46.3943 52.9949ZM49.986 44.9961C50.0549 47.1121 49.4175 49.2166 48.1658 51.0512L47.8499 51.502L45.131 44.2267H49.986V44.9961ZM50.0549 42.9606H45.154L50.0549 32.0448V42.9606ZM50.0319 28.9211L44.2468 41.9872L38.4845 29.0015L44.2353 15.9669L50.2358 28.4014L50.0319 28.9211Z" fill="black" fill-opacity="0.2"/>
<path d="M39.2224 1H13.1044C6.43205 1 1 6.3861 1 13.0039V44.9961C1 51.6168 6.43205 57 13.1044 57H39.2224C45.8947 57 51.3268 51.6168 51.3268 44.9961V13.0039C51.3268 6.3861 45.8947 1 39.2224 1ZM47.8499 6.48662L48.1658 6.94022C49.3946 8.74899 50.0549 10.842 50.0549 13.0039V13.7734H45.131L47.8499 6.48662ZM49.986 15.028V25.0853L45.2114 15.028H49.986ZM38.3812 2.25469H39.1535C41.815 2.25469 44.3128 3.20503 46.3943 5.00518L46.8364 5.37843L38.3812 7.01776V2.25469ZM38.3812 8.26377L46.4058 6.72494L43.7673 13.7734H38.3812V8.26377ZM38.3812 15.028H43.2103L38.3812 25.9582V15.028ZM38.3812 31.9873L43.2792 42.9031H38.3812V31.9873ZM38.3812 44.2267H43.7673L46.3369 51.2637L38.3812 49.7248V44.2267ZM15.1514 2.25469H23.6297L15.1514 6.71346V2.25469ZM26.162 2.33512L36.4949 7.75279L26.162 13.693L15.8204 7.75279L26.162 2.33512ZM15.1514 8.795L23.7876 13.7734H15.1514V8.795ZM15.1514 44.2267H23.7302L15.1514 49.1275V44.2267ZM5.86357 4.93623C7.84173 3.1734 10.3998 2.18862 13.0355 2.18862H13.8767V6.9517L5.43293 5.32096L5.86357 4.93623ZM8.49062 13.7734L5.92101 6.72494L13.8767 8.26377V13.7734H8.49062ZM13.8767 15.028V25.4815L9.03608 15.028H13.8767ZM2.2719 13.0039C2.2719 10.842 2.92073 8.74899 4.16103 6.94022L4.46537 6.48662L7.19287 13.7734H2.2719V13.0039ZM2.2719 15.028H7.10389L2.2719 25.9582V15.028ZM2.2719 31.9873L7.16128 42.9031H2.2719V31.9873ZM4.47685 51.5135L4.16103 51.0512C2.92073 49.2396 2.2719 47.1465 2.2719 44.9961V44.2267H7.12685L4.47685 51.5135ZM13.8767 55.7339H13.1044C10.4573 55.7339 7.81876 54.7376 5.86357 52.9834L5.43293 52.6102L13.8767 50.9708V55.7339ZM13.8767 49.7276L5.92101 51.2637L8.49062 44.2267H13.8767V49.7276ZM13.8767 42.9031H8.99017L13.8767 31.9873V42.9031ZM13.8537 28.9211L8.06856 41.9872L2.30634 29.0015L8.06856 15.9554L13.9571 28.6713L13.8537 28.9211ZM15.1514 55.7339V51.2751L23.6297 55.7339H15.1514ZM15.8204 50.1669L26.162 44.3071L36.4949 50.1669L26.162 55.6535L15.8204 50.1669ZM37.1093 55.7339H28.6971L37.1093 51.2751V55.7339ZM37.1093 49.1275L28.5277 44.2267H37.1093V49.1275ZM37.1093 42.9606H15.1514V15.028H37.1093V42.9606ZM37.1093 13.8279H28.5392L37.1093 8.85239V13.8279ZM37.1093 6.71346L28.6971 2.25469H37.1093V6.71346ZM46.3943 52.9949C44.3472 54.7606 41.7805 55.7339 39.1535 55.7339H38.3812V50.9708L46.8364 52.6102L46.3943 52.9949ZM49.986 44.9961C50.0549 47.1121 49.4175 49.2166 48.1658 51.0512L47.8499 51.502L45.131 44.2267H49.986V44.9961ZM50.0549 42.9606H45.154L50.0549 32.0448V42.9606ZM50.0319 28.9211L44.2468 41.9872L38.4845 29.0015L44.2353 15.9669L50.2358 28.4014L50.0319 28.9211Z" fill="black" fill-opacity="0.2"/>
<path d="M39.2224 1H13.1044C6.43205 1 1 6.3861 1 13.0039V44.9961C1 51.6168 6.43205 57 13.1044 57H39.2224C45.8947 57 51.3268 51.6168 51.3268 44.9961V13.0039C51.3268 6.3861 45.8947 1 39.2224 1ZM47.8499 6.48662L48.1658 6.94022C49.3946 8.74899 50.0549 10.842 50.0549 13.0039V13.7734H45.131L47.8499 6.48662ZM49.986 15.028V25.0853L45.2114 15.028H49.986ZM38.3812 2.25469H39.1535C41.815 2.25469 44.3128 3.20503 46.3943 5.00518L46.8364 5.37843L38.3812 7.01776V2.25469ZM38.3812 8.26377L46.4058 6.72494L43.7673 13.7734H38.3812V8.26377ZM38.3812 15.028H43.2103L38.3812 25.9582V15.028ZM38.3812 31.9873L43.2792 42.9031H38.3812V31.9873ZM38.3812 44.2267H43.7673L46.3369 51.2637L38.3812 49.7248V44.2267ZM15.1514 2.25469H23.6297L15.1514 6.71346V2.25469ZM26.162 2.33512L36.4949 7.75279L26.162 13.693L15.8204 7.75279L26.162 2.33512ZM15.1514 8.795L23.7876 13.7734H15.1514V8.795ZM15.1514 44.2267H23.7302L15.1514 49.1275V44.2267ZM5.86357 4.93623C7.84173 3.1734 10.3998 2.18862 13.0355 2.18862H13.8767V6.9517L5.43293 5.32096L5.86357 4.93623ZM8.49062 13.7734L5.92101 6.72494L13.8767 8.26377V13.7734H8.49062ZM13.8767 15.028V25.4815L9.03608 15.028H13.8767ZM2.2719 13.0039C2.2719 10.842 2.92073 8.74899 4.16103 6.94022L4.46537 6.48662L7.19287 13.7734H2.2719V13.0039ZM2.2719 15.028H7.10389L2.2719 25.9582V15.028ZM2.2719 31.9873L7.16128 42.9031H2.2719V31.9873ZM4.47685 51.5135L4.16103 51.0512C2.92073 49.2396 2.2719 47.1465 2.2719 44.9961V44.2267H7.12685L4.47685 51.5135ZM13.8767 55.7339H13.1044C10.4573 55.7339 7.81876 54.7376 5.86357 52.9834L5.43293 52.6102L13.8767 50.9708V55.7339ZM13.8767 49.7276L5.92101 51.2637L8.49062 44.2267H13.8767V49.7276ZM13.8767 42.9031H8.99017L13.8767 31.9873V42.9031ZM13.8537 28.9211L8.06856 41.9872L2.30634 29.0015L8.06856 15.9554L13.9571 28.6713L13.8537 28.9211ZM15.1514 55.7339V51.2751L23.6297 55.7339H15.1514ZM15.8204 50.1669L26.162 44.3071L36.4949 50.1669L26.162 55.6535L15.8204 50.1669ZM37.1093 55.7339H28.6971L37.1093 51.2751V55.7339ZM37.1093 49.1275L28.5277 44.2267H37.1093V49.1275ZM37.1093 42.9606H15.1514V15.028H37.1093V42.9606ZM37.1093 13.8279H28.5392L37.1093 8.85239V13.8279ZM37.1093 6.71346L28.6971 2.25469H37.1093V6.71346ZM46.3943 52.9949C44.3472 54.7606 41.7805 55.7339 39.1535 55.7339H38.3812V50.9708L46.8364 52.6102L46.3943 52.9949ZM49.986 44.9961C50.0549 47.1121 49.4175 49.2166 48.1658 51.0512L47.8499 51.502L45.131 44.2267H49.986V44.9961ZM50.0549 42.9606H45.154L50.0549 32.0448V42.9606ZM50.0319 28.9211L44.2468 41.9872L38.4845 29.0015L44.2353 15.9669L50.2358 28.4014L50.0319 28.9211Z" fill="black" fill-opacity="0.2"/>
<path d="M39.2224 1H13.1044C6.43205 1 1 6.3861 1 13.0039V44.9961C1 51.6168 6.43205 57 13.1044 57H39.2224C45.8947 57 51.3268 51.6168 51.3268 44.9961V13.0039C51.3268 6.3861 45.8947 1 39.2224 1ZM47.8499 6.48662L48.1658 6.94022C49.3946 8.74899 50.0549 10.842 50.0549 13.0039V13.7734H45.131L47.8499 6.48662ZM49.986 15.028V25.0853L45.2114 15.028H49.986ZM38.3812 2.25469H39.1535C41.815 2.25469 44.3128 3.20503 46.3943 5.00518L46.8364 5.37843L38.3812 7.01776V2.25469ZM38.3812 8.26377L46.4058 6.72494L43.7673 13.7734H38.3812V8.26377ZM38.3812 15.028H43.2103L38.3812 25.9582V15.028ZM38.3812 31.9873L43.2792 42.9031H38.3812V31.9873ZM38.3812 44.2267H43.7673L46.3369 51.2637L38.3812 49.7248V44.2267ZM15.1514 2.25469H23.6297L15.1514 6.71346V2.25469ZM26.162 2.33512L36.4949 7.75279L26.162 13.693L15.8204 7.75279L26.162 2.33512ZM15.1514 8.795L23.7876 13.7734H15.1514V8.795ZM15.1514 44.2267H23.7302L15.1514 49.1275V44.2267ZM5.86357 4.93623C7.84173 3.1734 10.3998 2.18862 13.0355 2.18862H13.8767V6.9517L5.43293 5.32096L5.86357 4.93623ZM8.49062 13.7734L5.92101 6.72494L13.8767 8.26377V13.7734H8.49062ZM13.8767 15.028V25.4815L9.03608 15.028H13.8767ZM2.2719 13.0039C2.2719 10.842 2.92073 8.74899 4.16103 6.94022L4.46537 6.48662L7.19287 13.7734H2.2719V13.0039ZM2.2719 15.028H7.10389L2.2719 25.9582V15.028ZM2.2719 31.9873L7.16128 42.9031H2.2719V31.9873ZM4.47685 51.5135L4.16103 51.0512C2.92073 49.2396 2.2719 47.1465 2.2719 44.9961V44.2267H7.12685L4.47685 51.5135ZM13.8767 55.7339H13.1044C10.4573 55.7339 7.81876 54.7376 5.86357 52.9834L5.43293 52.6102L13.8767 50.9708V55.7339ZM13.8767 49.7276L5.92101 51.2637L8.49062 44.2267H13.8767V49.7276ZM13.8767 42.9031H8.99017L13.8767 31.9873V42.9031ZM13.8537 28.9211L8.06856 41.9872L2.30634 29.0015L8.06856 15.9554L13.9571 28.6713L13.8537 28.9211ZM15.1514 55.7339V51.2751L23.6297 55.7339H15.1514ZM15.8204 50.1669L26.162 44.3071L36.4949 50.1669L26.162 55.6535L15.8204 50.1669ZM37.1093 55.7339H28.6971L37.1093 51.2751V55.7339ZM37.1093 49.1275L28.5277 44.2267H37.1093V49.1275ZM37.1093 42.9606H15.1514V15.028H37.1093V42.9606ZM37.1093 13.8279H28.5392L37.1093 8.85239V13.8279ZM37.1093 6.71346L28.6971 2.25469H37.1093V6.71346ZM46.3943 52.9949C44.3472 54.7606 41.7805 55.7339 39.1535 55.7339H38.3812V50.9708L46.8364 52.6102L46.3943 52.9949ZM49.986 44.9961C50.0549 47.1121 49.4175 49.2166 48.1658 51.0512L47.8499 51.502L45.131 44.2267H49.986V44.9961ZM50.0549 42.9606H45.154L50.0549 32.0448V42.9606ZM50.0319 28.9211L44.2468 41.9872L38.4845 29.0015L44.2353 15.9669L50.2358 28.4014L50.0319 28.9211Z" fill="black" fill-opacity="0.2"/>
<path d="M39.2224 1H13.1044C6.43205 1 1 6.3861 1 13.0039V44.9961C1 51.6168 6.43205 57 13.1044 57H39.2224C45.8947 57 51.3268 51.6168 51.3268 44.9961V13.0039C51.3268 6.3861 45.8947 1 39.2224 1ZM47.8499 6.48662L48.1658 6.94022C49.3946 8.74899 50.0549 10.842 50.0549 13.0039V13.7734H45.131L47.8499 6.48662ZM49.986 15.028V25.0853L45.2114 15.028H49.986ZM38.3812 2.25469H39.1535C41.815 2.25469 44.3128 3.20503 46.3943 5.00518L46.8364 5.37843L38.3812 7.01776V2.25469ZM38.3812 8.26377L46.4058 6.72494L43.7673 13.7734H38.3812V8.26377ZM38.3812 15.028H43.2103L38.3812 25.9582V15.028ZM38.3812 31.9873L43.2792 42.9031H38.3812V31.9873ZM38.3812 44.2267H43.7673L46.3369 51.2637L38.3812 49.7248V44.2267ZM15.1514 2.25469H23.6297L15.1514 6.71346V2.25469ZM26.162 2.33512L36.4949 7.75279L26.162 13.693L15.8204 7.75279L26.162 2.33512ZM15.1514 8.795L23.7876 13.7734H15.1514V8.795ZM15.1514 44.2267H23.7302L15.1514 49.1275V44.2267ZM5.86357 4.93623C7.84173 3.1734 10.3998 2.18862 13.0355 2.18862H13.8767V6.9517L5.43293 5.32096L5.86357 4.93623ZM8.49062 13.7734L5.92101 6.72494L13.8767 8.26377V13.7734H8.49062ZM13.8767 15.028V25.4815L9.03608 15.028H13.8767ZM2.2719 13.0039C2.2719 10.842 2.92073 8.74899 4.16103 6.94022L4.46537 6.48662L7.19287 13.7734H2.2719V13.0039ZM2.2719 15.028H7.10389L2.2719 25.9582V15.028ZM2.2719 31.9873L7.16128 42.9031H2.2719V31.9873ZM4.47685 51.5135L4.16103 51.0512C2.92073 49.2396 2.2719 47.1465 2.2719 44.9961V44.2267H7.12685L4.47685 51.5135ZM13.8767 55.7339H13.1044C10.4573 55.7339 7.81876 54.7376 5.86357 52.9834L5.43293 52.6102L13.8767 50.9708V55.7339ZM13.8767 49.7276L5.92101 51.2637L8.49062 44.2267H13.8767V49.7276ZM13.8767 42.9031H8.99017L13.8767 31.9873V42.9031ZM13.8537 28.9211L8.06856 41.9872L2.30634 29.0015L8.06856 15.9554L13.9571 28.6713L13.8537 28.9211ZM15.1514 55.7339V51.2751L23.6297 55.7339H15.1514ZM15.8204 50.1669L26.162 44.3071L36.4949 50.1669L26.162 55.6535L15.8204 50.1669ZM37.1093 55.7339H28.6971L37.1093 51.2751V55.7339ZM37.1093 49.1275L28.5277 44.2267H37.1093V49.1275ZM37.1093 42.9606H15.1514V15.028H37.1093V42.9606ZM37.1093 13.8279H28.5392L37.1093 8.85239V13.8279ZM37.1093 6.71346L28.6971 2.25469H37.1093V6.71346ZM46.3943 52.9949C44.3472 54.7606 41.7805 55.7339 39.1535 55.7339H38.3812V50.9708L46.8364 52.6102L46.3943 52.9949ZM49.986 44.9961C50.0549 47.1121 49.4175 49.2166 48.1658 51.0512L47.8499 51.502L45.131 44.2267H49.986V44.9961ZM50.0549 42.9606H45.154L50.0549 32.0448V42.9606ZM50.0319 28.9211L44.2468 41.9872L38.4845 29.0015L44.2353 15.9669L50.2358 28.4014L50.0319 28.9211Z" fill="black" fill-opacity="0.2"/>
<path d="M39.2224 1H13.1044C6.43205 1 1 6.3861 1 13.0039V44.9961C1 51.6168 6.43205 57 13.1044 57H39.2224C45.8947 57 51.3268 51.6168 51.3268 44.9961V13.0039C51.3268 6.3861 45.8947 1 39.2224 1ZM47.8499 6.48662L48.1658 6.94022C49.3946 8.74899 50.0549 10.842 50.0549 13.0039V13.7734H45.131L47.8499 6.48662ZM49.986 15.028V25.0853L45.2114 15.028H49.986ZM38.3812 2.25469H39.1535C41.815 2.25469 44.3128 3.20503 46.3943 5.00518L46.8364 5.37843L38.3812 7.01776V2.25469ZM38.3812 8.26377L46.4058 6.72494L43.7673 13.7734H38.3812V8.26377ZM38.3812 15.028H43.2103L38.3812 25.9582V15.028ZM38.3812 31.9873L43.2792 42.9031H38.3812V31.9873ZM38.3812 44.2267H43.7673L46.3369 51.2637L38.3812 49.7248V44.2267ZM15.1514 2.25469H23.6297L15.1514 6.71346V2.25469ZM26.162 2.33512L36.4949 7.75279L26.162 13.693L15.8204 7.75279L26.162 2.33512ZM15.1514 8.795L23.7876 13.7734H15.1514V8.795ZM15.1514 44.2267H23.7302L15.1514 49.1275V44.2267ZM5.86357 4.93623C7.84173 3.1734 10.3998 2.18862 13.0355 2.18862H13.8767V6.9517L5.43293 5.32096L5.86357 4.93623ZM8.49062 13.7734L5.92101 6.72494L13.8767 8.26377V13.7734H8.49062ZM13.8767 15.028V25.4815L9.03608 15.028H13.8767ZM2.2719 13.0039C2.2719 10.842 2.92073 8.74899 4.16103 6.94022L4.46537 6.48662L7.19287 13.7734H2.2719V13.0039ZM2.2719 15.028H7.10389L2.2719 25.9582V15.028ZM2.2719 31.9873L7.16128 42.9031H2.2719V31.9873ZM4.47685 51.5135L4.16103 51.0512C2.92073 49.2396 2.2719 47.1465 2.2719 44.9961V44.2267H7.12685L4.47685 51.5135ZM13.8767 55.7339H13.1044C10.4573 55.7339 7.81876 54.7376 5.86357 52.9834L5.43293 52.6102L13.8767 50.9708V55.7339ZM13.8767 49.7276L5.92101 51.2637L8.49062 44.2267H13.8767V49.7276ZM13.8767 42.9031H8.99017L13.8767 31.9873V42.9031ZM13.8537 28.9211L8.06856 41.9872L2.30634 29.0015L8.06856 15.9554L13.9571 28.6713L13.8537 28.9211ZM15.1514 55.7339V51.2751L23.6297 55.7339H15.1514ZM15.8204 50.1669L26.162 44.3071L36.4949 50.1669L26.162 55.6535L15.8204 50.1669ZM37.1093 55.7339H28.6971L37.1093 51.2751V55.7339ZM37.1093 49.1275L28.5277 44.2267H37.1093V49.1275ZM37.1093 42.9606H15.1514V15.028H37.1093V42.9606ZM37.1093 13.8279H28.5392L37.1093 8.85239V13.8279ZM37.1093 6.71346L28.6971 2.25469H37.1093V6.71346ZM46.3943 52.9949C44.3472 54.7606 41.7805 55.7339 39.1535 55.7339H38.3812V50.9708L46.8364 52.6102L46.3943 52.9949ZM49.986 44.9961C50.0549 47.1121 49.4175 49.2166 48.1658 51.0512L47.8499 51.502L45.131 44.2267H49.986V44.9961ZM50.0549 42.9606H45.154L50.0549 32.0448V42.9606ZM50.0319 28.9211L44.2468 41.9872L38.4845 29.0015L44.2353 15.9669L50.2358 28.4014L50.0319 28.9211Z" fill="black" fill-opacity="0.2"/>
<path d="M39.2224 1H13.1044C6.43205 1 1 6.3861 1 13.0039V44.9961C1 51.6168 6.43205 57 13.1044 57H39.2224C45.8947 57 51.3268 51.6168 51.3268 44.9961V13.0039C51.3268 6.3861 45.8947 1 39.2224 1ZM47.8499 6.48662L48.1658 6.94022C49.3946 8.74899 50.0549 10.842 50.0549 13.0039V13.7734H45.131L47.8499 6.48662ZM49.986 15.028V25.0853L45.2114 15.028H49.986ZM38.3812 2.25469H39.1535C41.815 2.25469 44.3128 3.20503 46.3943 5.00518L46.8364 5.37843L38.3812 7.01776V2.25469ZM38.3812 8.26377L46.4058 6.72494L43.7673 13.7734H38.3812V8.26377ZM38.3812 15.028H43.2103L38.3812 25.9582V15.028ZM38.3812 31.9873L43.2792 42.9031H38.3812V31.9873ZM38.3812 44.2267H43.7673L46.3369 51.2637L38.3812 49.7248V44.2267ZM15.1514 2.25469H23.6297L15.1514 6.71346V2.25469ZM26.162 2.33512L36.4949 7.75279L26.162 13.693L15.8204 7.75279L26.162 2.33512ZM15.1514 8.795L23.7876 13.7734H15.1514V8.795ZM15.1514 44.2267H23.7302L15.1514 49.1275V44.2267ZM5.86357 4.93623C7.84173 3.1734 10.3998 2.18862 13.0355 2.18862H13.8767V6.9517L5.43293 5.32096L5.86357 4.93623ZM8.49062 13.7734L5.92101 6.72494L13.8767 8.26377V13.7734H8.49062ZM13.8767 15.028V25.4815L9.03608 15.028H13.8767ZM2.2719 13.0039C2.2719 10.842 2.92073 8.74899 4.16103 6.94022L4.46537 6.48662L7.19287 13.7734H2.2719V13.0039ZM2.2719 15.028H7.10389L2.2719 25.9582V15.028ZM2.2719 31.9873L7.16128 42.9031H2.2719V31.9873ZM4.47685 51.5135L4.16103 51.0512C2.92073 49.2396 2.2719 47.1465 2.2719 44.9961V44.2267H7.12685L4.47685 51.5135ZM13.8767 55.7339H13.1044C10.4573 55.7339 7.81876 54.7376 5.86357 52.9834L5.43293 52.6102L13.8767 50.9708V55.7339ZM13.8767 49.7276L5.92101 51.2637L8.49062 44.2267H13.8767V49.7276ZM13.8767 42.9031H8.99017L13.8767 31.9873V42.9031ZM13.8537 28.9211L8.06856 41.9872L2.30634 29.0015L8.06856 15.9554L13.9571 28.6713L13.8537 28.9211ZM15.1514 55.7339V51.2751L23.6297 55.7339H15.1514ZM15.8204 50.1669L26.162 44.3071L36.4949 50.1669L26.162 55.6535L15.8204 50.1669ZM37.1093 55.7339H28.6971L37.1093 51.2751V55.7339ZM37.1093 49.1275L28.5277 44.2267H37.1093V49.1275ZM37.1093 42.9606H15.1514V15.028H37.1093V42.9606ZM37.1093 13.8279H28.5392L37.1093 8.85239V13.8279ZM37.1093 6.71346L28.6971 2.25469H37.1093V6.71346ZM46.3943 52.9949C44.3472 54.7606 41.7805 55.7339 39.1535 55.7339H38.3812V50.9708L46.8364 52.6102L46.3943 52.9949ZM49.986 44.9961C50.0549 47.1121 49.4175 49.2166 48.1658 51.0512L47.8499 51.502L45.131 44.2267H49.986V44.9961ZM50.0549 42.9606H45.154L50.0549 32.0448V42.9606ZM50.0319 28.9211L44.2468 41.9872L38.4845 29.0015L44.2353 15.9669L50.2358 28.4014L50.0319 28.9211Z" fill="black" fill-opacity="0.2"/>
<path d="M39.2224 1H13.1044C6.43205 1 1 6.3861 1 13.0039V44.9961C1 51.6168 6.43205 57 13.1044 57H39.2224C45.8947 57 51.3268 51.6168 51.3268 44.9961V13.0039C51.3268 6.3861 45.8947 1 39.2224 1ZM47.8499 6.48662L48.1658 6.94022C49.3946 8.74899 50.0549 10.842 50.0549 13.0039V13.7734H45.131L47.8499 6.48662ZM49.986 15.028V25.0853L45.2114 15.028H49.986ZM38.3812 2.25469H39.1535C41.815 2.25469 44.3128 3.20503 46.3943 5.00518L46.8364 5.37843L38.3812 7.01776V2.25469ZM38.3812 8.26377L46.4058 6.72494L43.7673 13.7734H38.3812V8.26377ZM38.3812 15.028H43.2103L38.3812 25.9582V15.028ZM38.3812 31.9873L43.2792 42.9031H38.3812V31.9873ZM38.3812 44.2267H43.7673L46.3369 51.2637L38.3812 49.7248V44.2267ZM15.1514 2.25469H23.6297L15.1514 6.71346V2.25469ZM26.162 2.33512L36.4949 7.75279L26.162 13.693L15.8204 7.75279L26.162 2.33512ZM15.1514 8.795L23.7876 13.7734H15.1514V8.795ZM15.1514 44.2267H23.7302L15.1514 49.1275V44.2267ZM5.86357 4.93623C7.84173 3.1734 10.3998 2.18862 13.0355 2.18862H13.8767V6.9517L5.43293 5.32096L5.86357 4.93623ZM8.49062 13.7734L5.92101 6.72494L13.8767 8.26377V13.7734H8.49062ZM13.8767 15.028V25.4815L9.03608 15.028H13.8767ZM2.2719 13.0039C2.2719 10.842 2.92073 8.74899 4.16103 6.94022L4.46537 6.48662L7.19287 13.7734H2.2719V13.0039ZM2.2719 15.028H7.10389L2.2719 25.9582V15.028ZM2.2719 31.9873L7.16128 42.9031H2.2719V31.9873ZM4.47685 51.5135L4.16103 51.0512C2.92073 49.2396 2.2719 47.1465 2.2719 44.9961V44.2267H7.12685L4.47685 51.5135ZM13.8767 55.7339H13.1044C10.4573 55.7339 7.81876 54.7376 5.86357 52.9834L5.43293 52.6102L13.8767 50.9708V55.7339ZM13.8767 49.7276L5.92101 51.2637L8.49062 44.2267H13.8767V49.7276ZM13.8767 42.9031H8.99017L13.8767 31.9873V42.9031ZM13.8537 28.9211L8.06856 41.9872L2.30634 29.0015L8.06856 15.9554L13.9571 28.6713L13.8537 28.9211ZM15.1514 55.7339V51.2751L23.6297 55.7339H15.1514ZM15.8204 50.1669L26.162 44.3071L36.4949 50.1669L26.162 55.6535L15.8204 50.1669ZM37.1093 55.7339H28.6971L37.1093 51.2751V55.7339ZM37.1093 49.1275L28.5277 44.2267H37.1093V49.1275ZM37.1093 42.9606H15.1514V15.028H37.1093V42.9606ZM37.1093 13.8279H28.5392L37.1093 8.85239V13.8279ZM37.1093 6.71346L28.6971 2.25469H37.1093V6.71346ZM46.3943 52.9949C44.3472 54.7606 41.7805 55.7339 39.1535 55.7339H38.3812V50.9708L46.8364 52.6102L46.3943 52.9949ZM49.986 44.9961C50.0549 47.1121 49.4175 49.2166 48.1658 51.0512L47.8499 51.502L45.131 44.2267H49.986V44.9961ZM50.0549 42.9606H45.154L50.0549 32.0448V42.9606ZM50.0319 28.9211L44.2468 41.9872L38.4845 29.0015L44.2353 15.9669L50.2358 28.4014L50.0319 28.9211Z" stroke="#333335" stroke-width="0.2"/>
<path d="M39.2224 1H13.1044C6.43205 1 1 6.3861 1 13.0039V44.9961C1 51.6168 6.43205 57 13.1044 57H39.2224C45.8947 57 51.3268 51.6168 51.3268 44.9961V13.0039C51.3268 6.3861 45.8947 1 39.2224 1ZM47.8499 6.48662L48.1658 6.94022C49.3946 8.74899 50.0549 10.842 50.0549 13.0039V13.7734H45.131L47.8499 6.48662ZM49.986 15.028V25.0853L45.2114 15.028H49.986ZM38.3812 2.25469H39.1535C41.815 2.25469 44.3128 3.20503 46.3943 5.00518L46.8364 5.37843L38.3812 7.01776V2.25469ZM38.3812 8.26377L46.4058 6.72494L43.7673 13.7734H38.3812V8.26377ZM38.3812 15.028H43.2103L38.3812 25.9582V15.028ZM38.3812 31.9873L43.2792 42.9031H38.3812V31.9873ZM38.3812 44.2267H43.7673L46.3369 51.2637L38.3812 49.7248V44.2267ZM15.1514 2.25469H23.6297L15.1514 6.71346V2.25469ZM26.162 2.33512L36.4949 7.75279L26.162 13.693L15.8204 7.75279L26.162 2.33512ZM15.1514 8.795L23.7876 13.7734H15.1514V8.795ZM15.1514 44.2267H23.7302L15.1514 49.1275V44.2267ZM5.86357 4.93623C7.84173 3.1734 10.3998 2.18862 13.0355 2.18862H13.8767V6.9517L5.43293 5.32096L5.86357 4.93623ZM8.49062 13.7734L5.92101 6.72494L13.8767 8.26377V13.7734H8.49062ZM13.8767 15.028V25.4815L9.03608 15.028H13.8767ZM2.2719 13.0039C2.2719 10.842 2.92073 8.74899 4.16103 6.94022L4.46537 6.48662L7.19287 13.7734H2.2719V13.0039ZM2.2719 15.028H7.10389L2.2719 25.9582V15.028ZM2.2719 31.9873L7.16128 42.9031H2.2719V31.9873ZM4.47685 51.5135L4.16103 51.0512C2.92073 49.2396 2.2719 47.1465 2.2719 44.9961V44.2267H7.12685L4.47685 51.5135ZM13.8767 55.7339H13.1044C10.4573 55.7339 7.81876 54.7376 5.86357 52.9834L5.43293 52.6102L13.8767 50.9708V55.7339ZM13.8767 49.7276L5.92101 51.2637L8.49062 44.2267H13.8767V49.7276ZM13.8767 42.9031H8.99017L13.8767 31.9873V42.9031ZM13.8537 28.9211L8.06856 41.9872L2.30634 29.0015L8.06856 15.9554L13.9571 28.6713L13.8537 28.9211ZM15.1514 55.7339V51.2751L23.6297 55.7339H15.1514ZM15.8204 50.1669L26.162 44.3071L36.4949 50.1669L26.162 55.6535L15.8204 50.1669ZM37.1093 55.7339H28.6971L37.1093 51.2751V55.7339ZM37.1093 49.1275L28.5277 44.2267H37.1093V49.1275ZM37.1093 42.9606H15.1514V15.028H37.1093V42.9606ZM37.1093 13.8279H28.5392L37.1093 8.85239V13.8279ZM37.1093 6.71346L28.6971 2.25469H37.1093V6.71346ZM46.3943 52.9949C44.3472 54.7606 41.7805 55.7339 39.1535 55.7339H38.3812V50.9708L46.8364 52.6102L46.3943 52.9949ZM49.986 44.9961C50.0549 47.1121 49.4175 49.2166 48.1658 51.0512L47.8499 51.502L45.131 44.2267H49.986V44.9961ZM50.0549 42.9606H45.154L50.0549 32.0448V42.9606ZM50.0319 28.9211L44.2468 41.9872L38.4845 29.0015L44.2353 15.9669L50.2358 28.4014L50.0319 28.9211Z" stroke="black" stroke-opacity="0.2" stroke-width="0.2"/>
<path d="M39.2224 1H13.1044C6.43205 1 1 6.3861 1 13.0039V44.9961C1 51.6168 6.43205 57 13.1044 57H39.2224C45.8947 57 51.3268 51.6168 51.3268 44.9961V13.0039C51.3268 6.3861 45.8947 1 39.2224 1ZM47.8499 6.48662L48.1658 6.94022C49.3946 8.74899 50.0549 10.842 50.0549 13.0039V13.7734H45.131L47.8499 6.48662ZM49.986 15.028V25.0853L45.2114 15.028H49.986ZM38.3812 2.25469H39.1535C41.815 2.25469 44.3128 3.20503 46.3943 5.00518L46.8364 5.37843L38.3812 7.01776V2.25469ZM38.3812 8.26377L46.4058 6.72494L43.7673 13.7734H38.3812V8.26377ZM38.3812 15.028H43.2103L38.3812 25.9582V15.028ZM38.3812 31.9873L43.2792 42.9031H38.3812V31.9873ZM38.3812 44.2267H43.7673L46.3369 51.2637L38.3812 49.7248V44.2267ZM15.1514 2.25469H23.6297L15.1514 6.71346V2.25469ZM26.162 2.33512L36.4949 7.75279L26.162 13.693L15.8204 7.75279L26.162 2.33512ZM15.1514 8.795L23.7876 13.7734H15.1514V8.795ZM15.1514 44.2267H23.7302L15.1514 49.1275V44.2267ZM5.86357 4.93623C7.84173 3.1734 10.3998 2.18862 13.0355 2.18862H13.8767V6.9517L5.43293 5.32096L5.86357 4.93623ZM8.49062 13.7734L5.92101 6.72494L13.8767 8.26377V13.7734H8.49062ZM13.8767 15.028V25.4815L9.03608 15.028H13.8767ZM2.2719 13.0039C2.2719 10.842 2.92073 8.74899 4.16103 6.94022L4.46537 6.48662L7.19287 13.7734H2.2719V13.0039ZM2.2719 15.028H7.10389L2.2719 25.9582V15.028ZM2.2719 31.9873L7.16128 42.9031H2.2719V31.9873ZM4.47685 51.5135L4.16103 51.0512C2.92073 49.2396 2.2719 47.1465 2.2719 44.9961V44.2267H7.12685L4.47685 51.5135ZM13.8767 55.7339H13.1044C10.4573 55.7339 7.81876 54.7376 5.86357 52.9834L5.43293 52.6102L13.8767 50.9708V55.7339ZM13.8767 49.7276L5.92101 51.2637L8.49062 44.2267H13.8767V49.7276ZM13.8767 42.9031H8.99017L13.8767 31.9873V42.9031ZM13.8537 28.9211L8.06856 41.9872L2.30634 29.0015L8.06856 15.9554L13.9571 28.6713L13.8537 28.9211ZM15.1514 55.7339V51.2751L23.6297 55.7339H15.1514ZM15.8204 50.1669L26.162 44.3071L36.4949 50.1669L26.162 55.6535L15.8204 50.1669ZM37.1093 55.7339H28.6971L37.1093 51.2751V55.7339ZM37.1093 49.1275L28.5277 44.2267H37.1093V49.1275ZM37.1093 42.9606H15.1514V15.028H37.1093V42.9606ZM37.1093 13.8279H28.5392L37.1093 8.85239V13.8279ZM37.1093 6.71346L28.6971 2.25469H37.1093V6.71346ZM46.3943 52.9949C44.3472 54.7606 41.7805 55.7339 39.1535 55.7339H38.3812V50.9708L46.8364 52.6102L46.3943 52.9949ZM49.986 44.9961C50.0549 47.1121 49.4175 49.2166 48.1658 51.0512L47.8499 51.502L45.131 44.2267H49.986V44.9961ZM50.0549 42.9606H45.154L50.0549 32.0448V42.9606ZM50.0319 28.9211L44.2468 41.9872L38.4845 29.0015L44.2353 15.9669L50.2358 28.4014L50.0319 28.9211Z" stroke="black" stroke-opacity="0.2" stroke-width="0.2"/>
<path d="M39.2224 1H13.1044C6.43205 1 1 6.3861 1 13.0039V44.9961C1 51.6168 6.43205 57 13.1044 57H39.2224C45.8947 57 51.3268 51.6168 51.3268 44.9961V13.0039C51.3268 6.3861 45.8947 1 39.2224 1ZM47.8499 6.48662L48.1658 6.94022C49.3946 8.74899 50.0549 10.842 50.0549 13.0039V13.7734H45.131L47.8499 6.48662ZM49.986 15.028V25.0853L45.2114 15.028H49.986ZM38.3812 2.25469H39.1535C41.815 2.25469 44.3128 3.20503 46.3943 5.00518L46.8364 5.37843L38.3812 7.01776V2.25469ZM38.3812 8.26377L46.4058 6.72494L43.7673 13.7734H38.3812V8.26377ZM38.3812 15.028H43.2103L38.3812 25.9582V15.028ZM38.3812 31.9873L43.2792 42.9031H38.3812V31.9873ZM38.3812 44.2267H43.7673L46.3369 51.2637L38.3812 49.7248V44.2267ZM15.1514 2.25469H23.6297L15.1514 6.71346V2.25469ZM26.162 2.33512L36.4949 7.75279L26.162 13.693L15.8204 7.75279L26.162 2.33512ZM15.1514 8.795L23.7876 13.7734H15.1514V8.795ZM15.1514 44.2267H23.7302L15.1514 49.1275V44.2267ZM5.86357 4.93623C7.84173 3.1734 10.3998 2.18862 13.0355 2.18862H13.8767V6.9517L5.43293 5.32096L5.86357 4.93623ZM8.49062 13.7734L5.92101 6.72494L13.8767 8.26377V13.7734H8.49062ZM13.8767 15.028V25.4815L9.03608 15.028H13.8767ZM2.2719 13.0039C2.2719 10.842 2.92073 8.74899 4.16103 6.94022L4.46537 6.48662L7.19287 13.7734H2.2719V13.0039ZM2.2719 15.028H7.10389L2.2719 25.9582V15.028ZM2.2719 31.9873L7.16128 42.9031H2.2719V31.9873ZM4.47685 51.5135L4.16103 51.0512C2.92073 49.2396 2.2719 47.1465 2.2719 44.9961V44.2267H7.12685L4.47685 51.5135ZM13.8767 55.7339H13.1044C10.4573 55.7339 7.81876 54.7376 5.86357 52.9834L5.43293 52.6102L13.8767 50.9708V55.7339ZM13.8767 49.7276L5.92101 51.2637L8.49062 44.2267H13.8767V49.7276ZM13.8767 42.9031H8.99017L13.8767 31.9873V42.9031ZM13.8537 28.9211L8.06856 41.9872L2.30634 29.0015L8.06856 15.9554L13.9571 28.6713L13.8537 28.9211ZM15.1514 55.7339V51.2751L23.6297 55.7339H15.1514ZM15.8204 50.1669L26.162 44.3071L36.4949 50.1669L26.162 55.6535L15.8204 50.1669ZM37.1093 55.7339H28.6971L37.1093 51.2751V55.7339ZM37.1093 49.1275L28.5277 44.2267H37.1093V49.1275ZM37.1093 42.9606H15.1514V15.028H37.1093V42.9606ZM37.1093 13.8279H28.5392L37.1093 8.85239V13.8279ZM37.1093 6.71346L28.6971 2.25469H37.1093V6.71346ZM46.3943 52.9949C44.3472 54.7606 41.7805 55.7339 39.1535 55.7339H38.3812V50.9708L46.8364 52.6102L46.3943 52.9949ZM49.986 44.9961C50.0549 47.1121 49.4175 49.2166 48.1658 51.0512L47.8499 51.502L45.131 44.2267H49.986V44.9961ZM50.0549 42.9606H45.154L50.0549 32.0448V42.9606ZM50.0319 28.9211L44.2468 41.9872L38.4845 29.0015L44.2353 15.9669L50.2358 28.4014L50.0319 28.9211Z" stroke="black" stroke-opacity="0.2" stroke-width="0.2"/>
<path d="M39.2224 1H13.1044C6.43205 1 1 6.3861 1 13.0039V44.9961C1 51.6168 6.43205 57 13.1044 57H39.2224C45.8947 57 51.3268 51.6168 51.3268 44.9961V13.0039C51.3268 6.3861 45.8947 1 39.2224 1ZM47.8499 6.48662L48.1658 6.94022C49.3946 8.74899 50.0549 10.842 50.0549 13.0039V13.7734H45.131L47.8499 6.48662ZM49.986 15.028V25.0853L45.2114 15.028H49.986ZM38.3812 2.25469H39.1535C41.815 2.25469 44.3128 3.20503 46.3943 5.00518L46.8364 5.37843L38.3812 7.01776V2.25469ZM38.3812 8.26377L46.4058 6.72494L43.7673 13.7734H38.3812V8.26377ZM38.3812 15.028H43.2103L38.3812 25.9582V15.028ZM38.3812 31.9873L43.2792 42.9031H38.3812V31.9873ZM38.3812 44.2267H43.7673L46.3369 51.2637L38.3812 49.7248V44.2267ZM15.1514 2.25469H23.6297L15.1514 6.71346V2.25469ZM26.162 2.33512L36.4949 7.75279L26.162 13.693L15.8204 7.75279L26.162 2.33512ZM15.1514 8.795L23.7876 13.7734H15.1514V8.795ZM15.1514 44.2267H23.7302L15.1514 49.1275V44.2267ZM5.86357 4.93623C7.84173 3.1734 10.3998 2.18862 13.0355 2.18862H13.8767V6.9517L5.43293 5.32096L5.86357 4.93623ZM8.49062 13.7734L5.92101 6.72494L13.8767 8.26377V13.7734H8.49062ZM13.8767 15.028V25.4815L9.03608 15.028H13.8767ZM2.2719 13.0039C2.2719 10.842 2.92073 8.74899 4.16103 6.94022L4.46537 6.48662L7.19287 13.7734H2.2719V13.0039ZM2.2719 15.028H7.10389L2.2719 25.9582V15.028ZM2.2719 31.9873L7.16128 42.9031H2.2719V31.9873ZM4.47685 51.5135L4.16103 51.0512C2.92073 49.2396 2.2719 47.1465 2.2719 44.9961V44.2267H7.12685L4.47685 51.5135ZM13.8767 55.7339H13.1044C10.4573 55.7339 7.81876 54.7376 5.86357 52.9834L5.43293 52.6102L13.8767 50.9708V55.7339ZM13.8767 49.7276L5.92101 51.2637L8.49062 44.2267H13.8767V49.7276ZM13.8767 42.9031H8.99017L13.8767 31.9873V42.9031ZM13.8537 28.9211L8.06856 41.9872L2.30634 29.0015L8.06856 15.9554L13.9571 28.6713L13.8537 28.9211ZM15.1514 55.7339V51.2751L23.6297 55.7339H15.1514ZM15.8204 50.1669L26.162 44.3071L36.4949 50.1669L26.162 55.6535L15.8204 50.1669ZM37.1093 55.7339H28.6971L37.1093 51.2751V55.7339ZM37.1093 49.1275L28.5277 44.2267H37.1093V49.1275ZM37.1093 42.9606H15.1514V15.028H37.1093V42.9606ZM37.1093 13.8279H28.5392L37.1093 8.85239V13.8279ZM37.1093 6.71346L28.6971 2.25469H37.1093V6.71346ZM46.3943 52.9949C44.3472 54.7606 41.7805 55.7339 39.1535 55.7339H38.3812V50.9708L46.8364 52.6102L46.3943 52.9949ZM49.986 44.9961C50.0549 47.1121 49.4175 49.2166 48.1658 51.0512L47.8499 51.502L45.131 44.2267H49.986V44.9961ZM50.0549 42.9606H45.154L50.0549 32.0448V42.9606ZM50.0319 28.9211L44.2468 41.9872L38.4845 29.0015L44.2353 15.9669L50.2358 28.4014L50.0319 28.9211Z" stroke="black" stroke-opacity="0.2" stroke-width="0.2"/>
<path d="M39.2224 1H13.1044C6.43205 1 1 6.3861 1 13.0039V44.9961C1 51.6168 6.43205 57 13.1044 57H39.2224C45.8947 57 51.3268 51.6168 51.3268 44.9961V13.0039C51.3268 6.3861 45.8947 1 39.2224 1ZM47.8499 6.48662L48.1658 6.94022C49.3946 8.74899 50.0549 10.842 50.0549 13.0039V13.7734H45.131L47.8499 6.48662ZM49.986 15.028V25.0853L45.2114 15.028H49.986ZM38.3812 2.25469H39.1535C41.815 2.25469 44.3128 3.20503 46.3943 5.00518L46.8364 5.37843L38.3812 7.01776V2.25469ZM38.3812 8.26377L46.4058 6.72494L43.7673 13.7734H38.3812V8.26377ZM38.3812 15.028H43.2103L38.3812 25.9582V15.028ZM38.3812 31.9873L43.2792 42.9031H38.3812V31.9873ZM38.3812 44.2267H43.7673L46.3369 51.2637L38.3812 49.7248V44.2267ZM15.1514 2.25469H23.6297L15.1514 6.71346V2.25469ZM26.162 2.33512L36.4949 7.75279L26.162 13.693L15.8204 7.75279L26.162 2.33512ZM15.1514 8.795L23.7876 13.7734H15.1514V8.795ZM15.1514 44.2267H23.7302L15.1514 49.1275V44.2267ZM5.86357 4.93623C7.84173 3.1734 10.3998 2.18862 13.0355 2.18862H13.8767V6.9517L5.43293 5.32096L5.86357 4.93623ZM8.49062 13.7734L5.92101 6.72494L13.8767 8.26377V13.7734H8.49062ZM13.8767 15.028V25.4815L9.03608 15.028H13.8767ZM2.2719 13.0039C2.2719 10.842 2.92073 8.74899 4.16103 6.94022L4.46537 6.48662L7.19287 13.7734H2.2719V13.0039ZM2.2719 15.028H7.10389L2.2719 25.9582V15.028ZM2.2719 31.9873L7.16128 42.9031H2.2719V31.9873ZM4.47685 51.5135L4.16103 51.0512C2.92073 49.2396 2.2719 47.1465 2.2719 44.9961V44.2267H7.12685L4.47685 51.5135ZM13.8767 55.7339H13.1044C10.4573 55.7339 7.81876 54.7376 5.86357 52.9834L5.43293 52.6102L13.8767 50.9708V55.7339ZM13.8767 49.7276L5.92101 51.2637L8.49062 44.2267H13.8767V49.7276ZM13.8767 42.9031H8.99017L13.8767 31.9873V42.9031ZM13.8537 28.9211L8.06856 41.9872L2.30634 29.0015L8.06856 15.9554L13.9571 28.6713L13.8537 28.9211ZM15.1514 55.7339V51.2751L23.6297 55.7339H15.1514ZM15.8204 50.1669L26.162 44.3071L36.4949 50.1669L26.162 55.6535L15.8204 50.1669ZM37.1093 55.7339H28.6971L37.1093 51.2751V55.7339ZM37.1093 49.1275L28.5277 44.2267H37.1093V49.1275ZM37.1093 42.9606H15.1514V15.028H37.1093V42.9606ZM37.1093 13.8279H28.5392L37.1093 8.85239V13.8279ZM37.1093 6.71346L28.6971 2.25469H37.1093V6.71346ZM46.3943 52.9949C44.3472 54.7606 41.7805 55.7339 39.1535 55.7339H38.3812V50.9708L46.8364 52.6102L46.3943 52.9949ZM49.986 44.9961C50.0549 47.1121 49.4175 49.2166 48.1658 51.0512L47.8499 51.502L45.131 44.2267H49.986V44.9961ZM50.0549 42.9606H45.154L50.0549 32.0448V42.9606ZM50.0319 28.9211L44.2468 41.9872L38.4845 29.0015L44.2353 15.9669L50.2358 28.4014L50.0319 28.9211Z" stroke="black" stroke-opacity="0.2" stroke-width="0.2"/>
<path d="M39.2224 1H13.1044C6.43205 1 1 6.3861 1 13.0039V44.9961C1 51.6168 6.43205 57 13.1044 57H39.2224C45.8947 57 51.3268 51.6168 51.3268 44.9961V13.0039C51.3268 6.3861 45.8947 1 39.2224 1ZM47.8499 6.48662L48.1658 6.94022C49.3946 8.74899 50.0549 10.842 50.0549 13.0039V13.7734H45.131L47.8499 6.48662ZM49.986 15.028V25.0853L45.2114 15.028H49.986ZM38.3812 2.25469H39.1535C41.815 2.25469 44.3128 3.20503 46.3943 5.00518L46.8364 5.37843L38.3812 7.01776V2.25469ZM38.3812 8.26377L46.4058 6.72494L43.7673 13.7734H38.3812V8.26377ZM38.3812 15.028H43.2103L38.3812 25.9582V15.028ZM38.3812 31.9873L43.2792 42.9031H38.3812V31.9873ZM38.3812 44.2267H43.7673L46.3369 51.2637L38.3812 49.7248V44.2267ZM15.1514 2.25469H23.6297L15.1514 6.71346V2.25469ZM26.162 2.33512L36.4949 7.75279L26.162 13.693L15.8204 7.75279L26.162 2.33512ZM15.1514 8.795L23.7876 13.7734H15.1514V8.795ZM15.1514 44.2267H23.7302L15.1514 49.1275V44.2267ZM5.86357 4.93623C7.84173 3.1734 10.3998 2.18862 13.0355 2.18862H13.8767V6.9517L5.43293 5.32096L5.86357 4.93623ZM8.49062 13.7734L5.92101 6.72494L13.8767 8.26377V13.7734H8.49062ZM13.8767 15.028V25.4815L9.03608 15.028H13.8767ZM2.2719 13.0039C2.2719 10.842 2.92073 8.74899 4.16103 6.94022L4.46537 6.48662L7.19287 13.7734H2.2719V13.0039ZM2.2719 15.028H7.10389L2.2719 25.9582V15.028ZM2.2719 31.9873L7.16128 42.9031H2.2719V31.9873ZM4.47685 51.5135L4.16103 51.0512C2.92073 49.2396 2.2719 47.1465 2.2719 44.9961V44.2267H7.12685L4.47685 51.5135ZM13.8767 55.7339H13.1044C10.4573 55.7339 7.81876 54.7376 5.86357 52.9834L5.43293 52.6102L13.8767 50.9708V55.7339ZM13.8767 49.7276L5.92101 51.2637L8.49062 44.2267H13.8767V49.7276ZM13.8767 42.9031H8.99017L13.8767 31.9873V42.9031ZM13.8537 28.9211L8.06856 41.9872L2.30634 29.0015L8.06856 15.9554L13.9571 28.6713L13.8537 28.9211ZM15.1514 55.7339V51.2751L23.6297 55.7339H15.1514ZM15.8204 50.1669L26.162 44.3071L36.4949 50.1669L26.162 55.6535L15.8204 50.1669ZM37.1093 55.7339H28.6971L37.1093 51.2751V55.7339ZM37.1093 49.1275L28.5277 44.2267H37.1093V49.1275ZM37.1093 42.9606H15.1514V15.028H37.1093V42.9606ZM37.1093 13.8279H28.5392L37.1093 8.85239V13.8279ZM37.1093 6.71346L28.6971 2.25469H37.1093V6.71346ZM46.3943 52.9949C44.3472 54.7606 41.7805 55.7339 39.1535 55.7339H38.3812V50.9708L46.8364 52.6102L46.3943 52.9949ZM49.986 44.9961C50.0549 47.1121 49.4175 49.2166 48.1658 51.0512L47.8499 51.502L45.131 44.2267H49.986V44.9961ZM50.0549 42.9606H45.154L50.0549 32.0448V42.9606ZM50.0319 28.9211L44.2468 41.9872L38.4845 29.0015L44.2353 15.9669L50.2358 28.4014L50.0319 28.9211Z" stroke="black" stroke-opacity="0.2" stroke-width="0.2"/>
<path d="M39.2224 1H13.1044C6.43205 1 1 6.3861 1 13.0039V44.9961C1 51.6168 6.43205 57 13.1044 57H39.2224C45.8947 57 51.3268 51.6168 51.3268 44.9961V13.0039C51.3268 6.3861 45.8947 1 39.2224 1ZM47.8499 6.48662L48.1658 6.94022C49.3946 8.74899 50.0549 10.842 50.0549 13.0039V13.7734H45.131L47.8499 6.48662ZM49.986 15.028V25.0853L45.2114 15.028H49.986ZM38.3812 2.25469H39.1535C41.815 2.25469 44.3128 3.20503 46.3943 5.00518L46.8364 5.37843L38.3812 7.01776V2.25469ZM38.3812 8.26377L46.4058 6.72494L43.7673 13.7734H38.3812V8.26377ZM38.3812 15.028H43.2103L38.3812 25.9582V15.028ZM38.3812 31.9873L43.2792 42.9031H38.3812V31.9873ZM38.3812 44.2267H43.7673L46.3369 51.2637L38.3812 49.7248V44.2267ZM15.1514 2.25469H23.6297L15.1514 6.71346V2.25469ZM26.162 2.33512L36.4949 7.75279L26.162 13.693L15.8204 7.75279L26.162 2.33512ZM15.1514 8.795L23.7876 13.7734H15.1514V8.795ZM15.1514 44.2267H23.7302L15.1514 49.1275V44.2267ZM5.86357 4.93623C7.84173 3.1734 10.3998 2.18862 13.0355 2.18862H13.8767V6.9517L5.43293 5.32096L5.86357 4.93623ZM8.49062 13.7734L5.92101 6.72494L13.8767 8.26377V13.7734H8.49062ZM13.8767 15.028V25.4815L9.03608 15.028H13.8767ZM2.2719 13.0039C2.2719 10.842 2.92073 8.74899 4.16103 6.94022L4.46537 6.48662L7.19287 13.7734H2.2719V13.0039ZM2.2719 15.028H7.10389L2.2719 25.9582V15.028ZM2.2719 31.9873L7.16128 42.9031H2.2719V31.9873ZM4.47685 51.5135L4.16103 51.0512C2.92073 49.2396 2.2719 47.1465 2.2719 44.9961V44.2267H7.12685L4.47685 51.5135ZM13.8767 55.7339H13.1044C10.4573 55.7339 7.81876 54.7376 5.86357 52.9834L5.43293 52.6102L13.8767 50.9708V55.7339ZM13.8767 49.7276L5.92101 51.2637L8.49062 44.2267H13.8767V49.7276ZM13.8767 42.9031H8.99017L13.8767 31.9873V42.9031ZM13.8537 28.9211L8.06856 41.9872L2.30634 29.0015L8.06856 15.9554L13.9571 28.6713L13.8537 28.9211ZM15.1514 55.7339V51.2751L23.6297 55.7339H15.1514ZM15.8204 50.1669L26.162 44.3071L36.4949 50.1669L26.162 55.6535L15.8204 50.1669ZM37.1093 55.7339H28.6971L37.1093 51.2751V55.7339ZM37.1093 49.1275L28.5277 44.2267H37.1093V49.1275ZM37.1093 42.9606H15.1514V15.028H37.1093V42.9606ZM37.1093 13.8279H28.5392L37.1093 8.85239V13.8279ZM37.1093 6.71346L28.6971 2.25469H37.1093V6.71346ZM46.3943 52.9949C44.3472 54.7606 41.7805 55.7339 39.1535 55.7339H38.3812V50.9708L46.8364 52.6102L46.3943 52.9949ZM49.986 44.9961C50.0549 47.1121 49.4175 49.2166 48.1658 51.0512L47.8499 51.502L45.131 44.2267H49.986V44.9961ZM50.0549 42.9606H45.154L50.0549 32.0448V42.9606ZM50.0319 28.9211L44.2468 41.9872L38.4845 29.0015L44.2353 15.9669L50.2358 28.4014L50.0319 28.9211Z" stroke="black" stroke-opacity="0.2" stroke-width="0.2"/>
<path d="M39.2224 1H13.1044C6.43205 1 1 6.3861 1 13.0039V44.9961C1 51.6168 6.43205 57 13.1044 57H39.2224C45.8947 57 51.3268 51.6168 51.3268 44.9961V13.0039C51.3268 6.3861 45.8947 1 39.2224 1ZM47.8499 6.48662L48.1658 6.94022C49.3946 8.74899 50.0549 10.842 50.0549 13.0039V13.7734H45.131L47.8499 6.48662ZM49.986 15.028V25.0853L45.2114 15.028H49.986ZM38.3812 2.25469H39.1535C41.815 2.25469 44.3128 3.20503 46.3943 5.00518L46.8364 5.37843L38.3812 7.01776V2.25469ZM38.3812 8.26377L46.4058 6.72494L43.7673 13.7734H38.3812V8.26377ZM38.3812 15.028H43.2103L38.3812 25.9582V15.028ZM38.3812 31.9873L43.2792 42.9031H38.3812V31.9873ZM38.3812 44.2267H43.7673L46.3369 51.2637L38.3812 49.7248V44.2267ZM15.1514 2.25469H23.6297L15.1514 6.71346V2.25469ZM26.162 2.33512L36.4949 7.75279L26.162 13.693L15.8204 7.75279L26.162 2.33512ZM15.1514 8.795L23.7876 13.7734H15.1514V8.795ZM15.1514 44.2267H23.7302L15.1514 49.1275V44.2267ZM5.86357 4.93623C7.84173 3.1734 10.3998 2.18862 13.0355 2.18862H13.8767V6.9517L5.43293 5.32096L5.86357 4.93623ZM8.49062 13.7734L5.92101 6.72494L13.8767 8.26377V13.7734H8.49062ZM13.8767 15.028V25.4815L9.03608 15.028H13.8767ZM2.2719 13.0039C2.2719 10.842 2.92073 8.74899 4.16103 6.94022L4.46537 6.48662L7.19287 13.7734H2.2719V13.0039ZM2.2719 15.028H7.10389L2.2719 25.9582V15.028ZM2.2719 31.9873L7.16128 42.9031H2.2719V31.9873ZM4.47685 51.5135L4.16103 51.0512C2.92073 49.2396 2.2719 47.1465 2.2719 44.9961V44.2267H7.12685L4.47685 51.5135ZM13.8767 55.7339H13.1044C10.4573 55.7339 7.81876 54.7376 5.86357 52.9834L5.43293 52.6102L13.8767 50.9708V55.7339ZM13.8767 49.7276L5.92101 51.2637L8.49062 44.2267H13.8767V49.7276ZM13.8767 42.9031H8.99017L13.8767 31.9873V42.9031ZM13.8537 28.9211L8.06856 41.9872L2.30634 29.0015L8.06856 15.9554L13.9571 28.6713L13.8537 28.9211ZM15.1514 55.7339V51.2751L23.6297 55.7339H15.1514ZM15.8204 50.1669L26.162 44.3071L36.4949 50.1669L26.162 55.6535L15.8204 50.1669ZM37.1093 55.7339H28.6971L37.1093 51.2751V55.7339ZM37.1093 49.1275L28.5277 44.2267H37.1093V49.1275ZM37.1093 42.9606H15.1514V15.028H37.1093V42.9606ZM37.1093 13.8279H28.5392L37.1093 8.85239V13.8279ZM37.1093 6.71346L28.6971 2.25469H37.1093V6.71346ZM46.3943 52.9949C44.3472 54.7606 41.7805 55.7339 39.1535 55.7339H38.3812V50.9708L46.8364 52.6102L46.3943 52.9949ZM49.986 44.9961C50.0549 47.1121 49.4175 49.2166 48.1658 51.0512L47.8499 51.502L45.131 44.2267H49.986V44.9961ZM50.0549 42.9606H45.154L50.0549 32.0448V42.9606ZM50.0319 28.9211L44.2468 41.9872L38.4845 29.0015L44.2353 15.9669L50.2358 28.4014L50.0319 28.9211Z" stroke="black" stroke-opacity="0.2" stroke-width="0.2"/>
</svg>
