<svg width="41" height="58" viewBox="0 0 41 58" fill="none" xmlns="http://www.w3.org/2000/svg">
<path d="M38.6425 18.2063C38.0194 16.0472 37.2127 14.0203 36.2451 12.1885C32.8343 5.74013 27.4597 1.56565 21.8554 1.05748C21.4477 1.01154 21.0257 1 20.6065 1C16.0386 1 11.2066 3.58975 7.69531 7.92504C3.77344 12.7656 1.42206 19.5643 1.04596 27.0778C1.0115 27.698 1 28.3555 1 29.0015C1 36.3198 2.97817 43.2563 6.56986 48.5046C6.72777 48.7314 6.88855 48.9467 7.04646 49.1707C9.8199 52.9518 14.8787 57 20.7299 57C28.8464 57 33.8018 50.1784 35.5532 47.2499C36.1188 46.2996 36.6327 45.2919 37.0863 44.2726C37.7352 42.7797 38.3037 41.1949 38.7573 39.567C40.7125 32.5874 40.678 25.2117 38.6425 18.2063ZM37.7352 19.6791C38.3237 21.976 38.6884 24.3044 38.8147 26.6128L38.8606 27.3477L33.4602 21.953L37.6318 19.3059L37.7352 19.6791ZM20.5376 40.2675L15.229 37.0892L12.9005 29.0015L15.229 20.8993L20.5376 17.7211L25.8576 20.8993L28.1861 29.0015L25.8576 37.0892L20.5376 40.2675ZM25.5734 38.674L24.936 44.6574L21.5482 41.1059L25.5734 38.674ZM19.4695 41.1059L16.0817 44.6574L15.4472 38.674L19.4695 41.1059ZM11.4909 29.0015L8.45614 35.0077L2.46712 29.0015L8.45614 22.9808L11.4909 29.0015ZM9.61607 22.3492L13.7303 21.442L12.0593 27.2128L9.61607 22.3492ZM12.0593 30.7643L13.7303 36.6155L9.61607 35.6968L12.0593 30.7643ZM15.5132 19.3174L16.1391 13.3312L19.5384 16.8942L15.5132 19.3174ZM21.5482 16.8942L25.0049 13.3427L25.6308 19.3059L21.5482 16.8942ZM27.3563 21.3759L31.4706 22.2918L29.0158 27.2243L27.3563 21.3759ZM29.0158 30.7757L31.4706 35.6422L27.3563 36.5581L29.0158 30.7757ZM29.5958 29.0015L32.6304 22.9808L38.6195 29.0015L32.6304 35.0077L29.5958 29.0015ZM34.4277 11.4995L34.8584 12.2575C35.7915 13.9313 36.5638 15.7515 37.2213 17.8445L37.2787 18.0484L33.3023 20.618L34.4277 11.4995ZM31.8696 21.1261L26.9946 20.0409L26.1878 12.358L33.1645 10.5492L31.8696 21.1261ZM28.4244 4.85877C29.857 5.83206 31.2897 7.19868 32.6764 8.92993L32.9492 9.26866L26.4146 10.9569L28.0971 4.63193L28.4244 4.85877ZM22.0937 2.38103C23.6871 2.56191 25.2317 3.03564 26.6874 3.80508L26.8912 3.90838L25.3121 9.91467L21.5826 2.32355L22.0937 2.38103ZM24.6862 11.7694L20.5376 16.0817L16.4004 11.7149L20.549 3.16197L24.6862 11.7694ZM14.072 3.9974C15.6281 3.11599 17.3334 2.56191 18.9929 2.38103L19.504 2.32355L15.7314 10.0496L13.8652 4.11227L14.072 3.9974ZM8.46762 8.94141C9.69643 7.30203 11.0372 5.98994 12.467 5.03962L12.7857 4.82425L14.695 10.9684L8.21786 9.26866L8.46762 8.94141ZM14.9017 12.3034L14.026 20.0409L9.21697 21.1261L7.85324 10.4917L14.9017 12.3034ZM3.79641 18.2063C4.39933 16.1822 5.19461 14.2356 6.22819 12.2575L6.65025 11.4421L7.78718 20.6955L3.73902 18.4216L3.79641 18.2063ZM2.27475 26.6702C2.38672 24.5427 2.7169 22.3808 3.29686 20.0524L3.37724 19.6906L7.58049 22.0535L2.22884 27.4052L2.27475 26.6702ZM3.35429 38.3123C2.76285 36.0154 2.38672 33.6842 2.27475 31.3873L2.22884 30.6408L7.6264 36.0384L3.45474 38.6855L3.35429 38.3123ZM6.66173 46.5034L6.22819 45.734C5.29797 44.0573 4.52279 42.237 3.86532 40.144L3.79641 39.9402L7.78433 37.3735L6.66173 46.5034ZM9.21697 36.8624L14.0949 37.9506L14.9017 45.6306L7.92211 47.4423L9.21697 36.8624ZM12.6507 53.1327C11.2296 52.1594 9.79695 50.7899 8.41023 49.0587L8.13747 48.7199L14.672 47.0346L12.9924 53.3567L12.6507 53.1327ZM18.9929 55.6105C17.4023 55.4296 15.8549 54.953 14.3906 54.1835L14.1954 54.083L15.7745 48.0739L19.504 55.6764L18.9929 55.6105ZM20.5376 54.8295L16.4004 46.2192L20.549 41.9098L24.6862 46.2766L20.5376 54.8295ZM27.006 54.0026C25.4126 54.8295 23.7876 55.3722 22.1626 55.6105L21.6401 55.6879L25.3466 47.9274L27.2214 53.8906L27.006 54.0026ZM32.6764 49.1275C31.2897 50.8014 29.9604 52.056 28.6196 52.9518L28.3009 53.1643L26.4605 47.0805L32.9492 48.7888L32.6764 49.1275ZM26.1878 45.688L27.0606 37.9506L31.8696 36.8624L33.2334 47.4968L26.1878 45.688ZM37.3476 39.7938C36.6557 41.8983 35.846 43.8449 34.8584 45.734L34.4392 46.5465L33.3023 37.3046L37.4165 39.567L37.3476 39.7938ZM38.8147 31.3184C38.6999 33.4458 38.3582 35.6192 37.7898 37.939L37.7007 38.3123L33.5061 35.935L38.8606 30.5834L38.8147 31.3184Z" fill="#333335"/>
<path d="M38.6425 18.2063C38.0194 16.0472 37.2127 14.0203 36.2451 12.1885C32.8343 5.74013 27.4597 1.56565 21.8554 1.05748C21.4477 1.01154 21.0257 1 20.6065 1C16.0386 1 11.2066 3.58975 7.69531 7.92504C3.77344 12.7656 1.42206 19.5643 1.04596 27.0778C1.0115 27.698 1 28.3555 1 29.0015C1 36.3198 2.97817 43.2563 6.56986 48.5046C6.72777 48.7314 6.88855 48.9467 7.04646 49.1707C9.8199 52.9518 14.8787 57 20.7299 57C28.8464 57 33.8018 50.1784 35.5532 47.2499C36.1188 46.2996 36.6327 45.2919 37.0863 44.2726C37.7352 42.7797 38.3037 41.1949 38.7573 39.567C40.7125 32.5874 40.678 25.2117 38.6425 18.2063ZM37.7352 19.6791C38.3237 21.976 38.6884 24.3044 38.8147 26.6128L38.8606 27.3477L33.4602 21.953L37.6318 19.3059L37.7352 19.6791ZM20.5376 40.2675L15.229 37.0892L12.9005 29.0015L15.229 20.8993L20.5376 17.7211L25.8576 20.8993L28.1861 29.0015L25.8576 37.0892L20.5376 40.2675ZM25.5734 38.674L24.936 44.6574L21.5482 41.1059L25.5734 38.674ZM19.4695 41.1059L16.0817 44.6574L15.4472 38.674L19.4695 41.1059ZM11.4909 29.0015L8.45614 35.0077L2.46712 29.0015L8.45614 22.9808L11.4909 29.0015ZM9.61607 22.3492L13.7303 21.442L12.0593 27.2128L9.61607 22.3492ZM12.0593 30.7643L13.7303 36.6155L9.61607 35.6968L12.0593 30.7643ZM15.5132 19.3174L16.1391 13.3312L19.5384 16.8942L15.5132 19.3174ZM21.5482 16.8942L25.0049 13.3427L25.6308 19.3059L21.5482 16.8942ZM27.3563 21.3759L31.4706 22.2918L29.0158 27.2243L27.3563 21.3759ZM29.0158 30.7757L31.4706 35.6422L27.3563 36.5581L29.0158 30.7757ZM29.5958 29.0015L32.6304 22.9808L38.6195 29.0015L32.6304 35.0077L29.5958 29.0015ZM34.4277 11.4995L34.8584 12.2575C35.7915 13.9313 36.5638 15.7515 37.2213 17.8445L37.2787 18.0484L33.3023 20.618L34.4277 11.4995ZM31.8696 21.1261L26.9946 20.0409L26.1878 12.358L33.1645 10.5492L31.8696 21.1261ZM28.4244 4.85877C29.857 5.83206 31.2897 7.19868 32.6764 8.92993L32.9492 9.26866L26.4146 10.9569L28.0971 4.63193L28.4244 4.85877ZM22.0937 2.38103C23.6871 2.56191 25.2317 3.03564 26.6874 3.80508L26.8912 3.90838L25.3121 9.91467L21.5826 2.32355L22.0937 2.38103ZM24.6862 11.7694L20.5376 16.0817L16.4004 11.7149L20.549 3.16197L24.6862 11.7694ZM14.072 3.9974C15.6281 3.11599 17.3334 2.56191 18.9929 2.38103L19.504 2.32355L15.7314 10.0496L13.8652 4.11227L14.072 3.9974ZM8.46762 8.94141C9.69643 7.30203 11.0372 5.98994 12.467 5.03962L12.7857 4.82425L14.695 10.9684L8.21786 9.26866L8.46762 8.94141ZM14.9017 12.3034L14.026 20.0409L9.21697 21.1261L7.85324 10.4917L14.9017 12.3034ZM3.79641 18.2063C4.39933 16.1822 5.19461 14.2356 6.22819 12.2575L6.65025 11.4421L7.78718 20.6955L3.73902 18.4216L3.79641 18.2063ZM2.27475 26.6702C2.38672 24.5427 2.7169 22.3808 3.29686 20.0524L3.37724 19.6906L7.58049 22.0535L2.22884 27.4052L2.27475 26.6702ZM3.35429 38.3123C2.76285 36.0154 2.38672 33.6842 2.27475 31.3873L2.22884 30.6408L7.6264 36.0384L3.45474 38.6855L3.35429 38.3123ZM6.66173 46.5034L6.22819 45.734C5.29797 44.0573 4.52279 42.237 3.86532 40.144L3.79641 39.9402L7.78433 37.3735L6.66173 46.5034ZM9.21697 36.8624L14.0949 37.9506L14.9017 45.6306L7.92211 47.4423L9.21697 36.8624ZM12.6507 53.1327C11.2296 52.1594 9.79695 50.7899 8.41023 49.0587L8.13747 48.7199L14.672 47.0346L12.9924 53.3567L12.6507 53.1327ZM18.9929 55.6105C17.4023 55.4296 15.8549 54.953 14.3906 54.1835L14.1954 54.083L15.7745 48.0739L19.504 55.6764L18.9929 55.6105ZM20.5376 54.8295L16.4004 46.2192L20.549 41.9098L24.6862 46.2766L20.5376 54.8295ZM27.006 54.0026C25.4126 54.8295 23.7876 55.3722 22.1626 55.6105L21.6401 55.6879L25.3466 47.9274L27.2214 53.8906L27.006 54.0026ZM32.6764 49.1275C31.2897 50.8014 29.9604 52.056 28.6196 52.9518L28.3009 53.1643L26.4605 47.0805L32.9492 48.7888L32.6764 49.1275ZM26.1878 45.688L27.0606 37.9506L31.8696 36.8624L33.2334 47.4968L26.1878 45.688ZM37.3476 39.7938C36.6557 41.8983 35.846 43.8449 34.8584 45.734L34.4392 46.5465L33.3023 37.3046L37.4165 39.567L37.3476 39.7938ZM38.8147 31.3184C38.6999 33.4458 38.3582 35.6192 37.7898 37.939L37.7007 38.3123L33.5061 35.935L38.8606 30.5834L38.8147 31.3184Z" fill="black" fill-opacity="0.2"/>
<path d="M38.6425 18.2063C38.0194 16.0472 37.2127 14.0203 36.2451 12.1885C32.8343 5.74013 27.4597 1.56565 21.8554 1.05748C21.4477 1.01154 21.0257 1 20.6065 1C16.0386 1 11.2066 3.58975 7.69531 7.92504C3.77344 12.7656 1.42206 19.5643 1.04596 27.0778C1.0115 27.698 1 28.3555 1 29.0015C1 36.3198 2.97817 43.2563 6.56986 48.5046C6.72777 48.7314 6.88855 48.9467 7.04646 49.1707C9.8199 52.9518 14.8787 57 20.7299 57C28.8464 57 33.8018 50.1784 35.5532 47.2499C36.1188 46.2996 36.6327 45.2919 37.0863 44.2726C37.7352 42.7797 38.3037 41.1949 38.7573 39.567C40.7125 32.5874 40.678 25.2117 38.6425 18.2063ZM37.7352 19.6791C38.3237 21.976 38.6884 24.3044 38.8147 26.6128L38.8606 27.3477L33.4602 21.953L37.6318 19.3059L37.7352 19.6791ZM20.5376 40.2675L15.229 37.0892L12.9005 29.0015L15.229 20.8993L20.5376 17.7211L25.8576 20.8993L28.1861 29.0015L25.8576 37.0892L20.5376 40.2675ZM25.5734 38.674L24.936 44.6574L21.5482 41.1059L25.5734 38.674ZM19.4695 41.1059L16.0817 44.6574L15.4472 38.674L19.4695 41.1059ZM11.4909 29.0015L8.45614 35.0077L2.46712 29.0015L8.45614 22.9808L11.4909 29.0015ZM9.61607 22.3492L13.7303 21.442L12.0593 27.2128L9.61607 22.3492ZM12.0593 30.7643L13.7303 36.6155L9.61607 35.6968L12.0593 30.7643ZM15.5132 19.3174L16.1391 13.3312L19.5384 16.8942L15.5132 19.3174ZM21.5482 16.8942L25.0049 13.3427L25.6308 19.3059L21.5482 16.8942ZM27.3563 21.3759L31.4706 22.2918L29.0158 27.2243L27.3563 21.3759ZM29.0158 30.7757L31.4706 35.6422L27.3563 36.5581L29.0158 30.7757ZM29.5958 29.0015L32.6304 22.9808L38.6195 29.0015L32.6304 35.0077L29.5958 29.0015ZM34.4277 11.4995L34.8584 12.2575C35.7915 13.9313 36.5638 15.7515 37.2213 17.8445L37.2787 18.0484L33.3023 20.618L34.4277 11.4995ZM31.8696 21.1261L26.9946 20.0409L26.1878 12.358L33.1645 10.5492L31.8696 21.1261ZM28.4244 4.85877C29.857 5.83206 31.2897 7.19868 32.6764 8.92993L32.9492 9.26866L26.4146 10.9569L28.0971 4.63193L28.4244 4.85877ZM22.0937 2.38103C23.6871 2.56191 25.2317 3.03564 26.6874 3.80508L26.8912 3.90838L25.3121 9.91467L21.5826 2.32355L22.0937 2.38103ZM24.6862 11.7694L20.5376 16.0817L16.4004 11.7149L20.549 3.16197L24.6862 11.7694ZM14.072 3.9974C15.6281 3.11599 17.3334 2.56191 18.9929 2.38103L19.504 2.32355L15.7314 10.0496L13.8652 4.11227L14.072 3.9974ZM8.46762 8.94141C9.69643 7.30203 11.0372 5.98994 12.467 5.03962L12.7857 4.82425L14.695 10.9684L8.21786 9.26866L8.46762 8.94141ZM14.9017 12.3034L14.026 20.0409L9.21697 21.1261L7.85324 10.4917L14.9017 12.3034ZM3.79641 18.2063C4.39933 16.1822 5.19461 14.2356 6.22819 12.2575L6.65025 11.4421L7.78718 20.6955L3.73902 18.4216L3.79641 18.2063ZM2.27475 26.6702C2.38672 24.5427 2.7169 22.3808 3.29686 20.0524L3.37724 19.6906L7.58049 22.0535L2.22884 27.4052L2.27475 26.6702ZM3.35429 38.3123C2.76285 36.0154 2.38672 33.6842 2.27475 31.3873L2.22884 30.6408L7.6264 36.0384L3.45474 38.6855L3.35429 38.3123ZM6.66173 46.5034L6.22819 45.734C5.29797 44.0573 4.52279 42.237 3.86532 40.144L3.79641 39.9402L7.78433 37.3735L6.66173 46.5034ZM9.21697 36.8624L14.0949 37.9506L14.9017 45.6306L7.92211 47.4423L9.21697 36.8624ZM12.6507 53.1327C11.2296 52.1594 9.79695 50.7899 8.41023 49.0587L8.13747 48.7199L14.672 47.0346L12.9924 53.3567L12.6507 53.1327ZM18.9929 55.6105C17.4023 55.4296 15.8549 54.953 14.3906 54.1835L14.1954 54.083L15.7745 48.0739L19.504 55.6764L18.9929 55.6105ZM20.5376 54.8295L16.4004 46.2192L20.549 41.9098L24.6862 46.2766L20.5376 54.8295ZM27.006 54.0026C25.4126 54.8295 23.7876 55.3722 22.1626 55.6105L21.6401 55.6879L25.3466 47.9274L27.2214 53.8906L27.006 54.0026ZM32.6764 49.1275C31.2897 50.8014 29.9604 52.056 28.6196 52.9518L28.3009 53.1643L26.4605 47.0805L32.9492 48.7888L32.6764 49.1275ZM26.1878 45.688L27.0606 37.9506L31.8696 36.8624L33.2334 47.4968L26.1878 45.688ZM37.3476 39.7938C36.6557 41.8983 35.846 43.8449 34.8584 45.734L34.4392 46.5465L33.3023 37.3046L37.4165 39.567L37.3476 39.7938ZM38.8147 31.3184C38.6999 33.4458 38.3582 35.6192 37.7898 37.939L37.7007 38.3123L33.5061 35.935L38.8606 30.5834L38.8147 31.3184Z" fill="black" fill-opacity="0.2"/>
<path d="M38.6425 18.2063C38.0194 16.0472 37.2127 14.0203 36.2451 12.1885C32.8343 5.74013 27.4597 1.56565 21.8554 1.05748C21.4477 1.01154 21.0257 1 20.6065 1C16.0386 1 11.2066 3.58975 7.69531 7.92504C3.77344 12.7656 1.42206 19.5643 1.04596 27.0778C1.0115 27.698 1 28.3555 1 29.0015C1 36.3198 2.97817 43.2563 6.56986 48.5046C6.72777 48.7314 6.88855 48.9467 7.04646 49.1707C9.8199 52.9518 14.8787 57 20.7299 57C28.8464 57 33.8018 50.1784 35.5532 47.2499C36.1188 46.2996 36.6327 45.2919 37.0863 44.2726C37.7352 42.7797 38.3037 41.1949 38.7573 39.567C40.7125 32.5874 40.678 25.2117 38.6425 18.2063ZM37.7352 19.6791C38.3237 21.976 38.6884 24.3044 38.8147 26.6128L38.8606 27.3477L33.4602 21.953L37.6318 19.3059L37.7352 19.6791ZM20.5376 40.2675L15.229 37.0892L12.9005 29.0015L15.229 20.8993L20.5376 17.7211L25.8576 20.8993L28.1861 29.0015L25.8576 37.0892L20.5376 40.2675ZM25.5734 38.674L24.936 44.6574L21.5482 41.1059L25.5734 38.674ZM19.4695 41.1059L16.0817 44.6574L15.4472 38.674L19.4695 41.1059ZM11.4909 29.0015L8.45614 35.0077L2.46712 29.0015L8.45614 22.9808L11.4909 29.0015ZM9.61607 22.3492L13.7303 21.442L12.0593 27.2128L9.61607 22.3492ZM12.0593 30.7643L13.7303 36.6155L9.61607 35.6968L12.0593 30.7643ZM15.5132 19.3174L16.1391 13.3312L19.5384 16.8942L15.5132 19.3174ZM21.5482 16.8942L25.0049 13.3427L25.6308 19.3059L21.5482 16.8942ZM27.3563 21.3759L31.4706 22.2918L29.0158 27.2243L27.3563 21.3759ZM29.0158 30.7757L31.4706 35.6422L27.3563 36.5581L29.0158 30.7757ZM29.5958 29.0015L32.6304 22.9808L38.6195 29.0015L32.6304 35.0077L29.5958 29.0015ZM34.4277 11.4995L34.8584 12.2575C35.7915 13.9313 36.5638 15.7515 37.2213 17.8445L37.2787 18.0484L33.3023 20.618L34.4277 11.4995ZM31.8696 21.1261L26.9946 20.0409L26.1878 12.358L33.1645 10.5492L31.8696 21.1261ZM28.4244 4.85877C29.857 5.83206 31.2897 7.19868 32.6764 8.92993L32.9492 9.26866L26.4146 10.9569L28.0971 4.63193L28.4244 4.85877ZM22.0937 2.38103C23.6871 2.56191 25.2317 3.03564 26.6874 3.80508L26.8912 3.90838L25.3121 9.91467L21.5826 2.32355L22.0937 2.38103ZM24.6862 11.7694L20.5376 16.0817L16.4004 11.7149L20.549 3.16197L24.6862 11.7694ZM14.072 3.9974C15.6281 3.11599 17.3334 2.56191 18.9929 2.38103L19.504 2.32355L15.7314 10.0496L13.8652 4.11227L14.072 3.9974ZM8.46762 8.94141C9.69643 7.30203 11.0372 5.98994 12.467 5.03962L12.7857 4.82425L14.695 10.9684L8.21786 9.26866L8.46762 8.94141ZM14.9017 12.3034L14.026 20.0409L9.21697 21.1261L7.85324 10.4917L14.9017 12.3034ZM3.79641 18.2063C4.39933 16.1822 5.19461 14.2356 6.22819 12.2575L6.65025 11.4421L7.78718 20.6955L3.73902 18.4216L3.79641 18.2063ZM2.27475 26.6702C2.38672 24.5427 2.7169 22.3808 3.29686 20.0524L3.37724 19.6906L7.58049 22.0535L2.22884 27.4052L2.27475 26.6702ZM3.35429 38.3123C2.76285 36.0154 2.38672 33.6842 2.27475 31.3873L2.22884 30.6408L7.6264 36.0384L3.45474 38.6855L3.35429 38.3123ZM6.66173 46.5034L6.22819 45.734C5.29797 44.0573 4.52279 42.237 3.86532 40.144L3.79641 39.9402L7.78433 37.3735L6.66173 46.5034ZM9.21697 36.8624L14.0949 37.9506L14.9017 45.6306L7.92211 47.4423L9.21697 36.8624ZM12.6507 53.1327C11.2296 52.1594 9.79695 50.7899 8.41023 49.0587L8.13747 48.7199L14.672 47.0346L12.9924 53.3567L12.6507 53.1327ZM18.9929 55.6105C17.4023 55.4296 15.8549 54.953 14.3906 54.1835L14.1954 54.083L15.7745 48.0739L19.504 55.6764L18.9929 55.6105ZM20.5376 54.8295L16.4004 46.2192L20.549 41.9098L24.6862 46.2766L20.5376 54.8295ZM27.006 54.0026C25.4126 54.8295 23.7876 55.3722 22.1626 55.6105L21.6401 55.6879L25.3466 47.9274L27.2214 53.8906L27.006 54.0026ZM32.6764 49.1275C31.2897 50.8014 29.9604 52.056 28.6196 52.9518L28.3009 53.1643L26.4605 47.0805L32.9492 48.7888L32.6764 49.1275ZM26.1878 45.688L27.0606 37.9506L31.8696 36.8624L33.2334 47.4968L26.1878 45.688ZM37.3476 39.7938C36.6557 41.8983 35.846 43.8449 34.8584 45.734L34.4392 46.5465L33.3023 37.3046L37.4165 39.567L37.3476 39.7938ZM38.8147 31.3184C38.6999 33.4458 38.3582 35.6192 37.7898 37.939L37.7007 38.3123L33.5061 35.935L38.8606 30.5834L38.8147 31.3184Z" fill="black" fill-opacity="0.2"/>
<path d="M38.6425 18.2063C38.0194 16.0472 37.2127 14.0203 36.2451 12.1885C32.8343 5.74013 27.4597 1.56565 21.8554 1.05748C21.4477 1.01154 21.0257 1 20.6065 1C16.0386 1 11.2066 3.58975 7.69531 7.92504C3.77344 12.7656 1.42206 19.5643 1.04596 27.0778C1.0115 27.698 1 28.3555 1 29.0015C1 36.3198 2.97817 43.2563 6.56986 48.5046C6.72777 48.7314 6.88855 48.9467 7.04646 49.1707C9.8199 52.9518 14.8787 57 20.7299 57C28.8464 57 33.8018 50.1784 35.5532 47.2499C36.1188 46.2996 36.6327 45.2919 37.0863 44.2726C37.7352 42.7797 38.3037 41.1949 38.7573 39.567C40.7125 32.5874 40.678 25.2117 38.6425 18.2063ZM37.7352 19.6791C38.3237 21.976 38.6884 24.3044 38.8147 26.6128L38.8606 27.3477L33.4602 21.953L37.6318 19.3059L37.7352 19.6791ZM20.5376 40.2675L15.229 37.0892L12.9005 29.0015L15.229 20.8993L20.5376 17.7211L25.8576 20.8993L28.1861 29.0015L25.8576 37.0892L20.5376 40.2675ZM25.5734 38.674L24.936 44.6574L21.5482 41.1059L25.5734 38.674ZM19.4695 41.1059L16.0817 44.6574L15.4472 38.674L19.4695 41.1059ZM11.4909 29.0015L8.45614 35.0077L2.46712 29.0015L8.45614 22.9808L11.4909 29.0015ZM9.61607 22.3492L13.7303 21.442L12.0593 27.2128L9.61607 22.3492ZM12.0593 30.7643L13.7303 36.6155L9.61607 35.6968L12.0593 30.7643ZM15.5132 19.3174L16.1391 13.3312L19.5384 16.8942L15.5132 19.3174ZM21.5482 16.8942L25.0049 13.3427L25.6308 19.3059L21.5482 16.8942ZM27.3563 21.3759L31.4706 22.2918L29.0158 27.2243L27.3563 21.3759ZM29.0158 30.7757L31.4706 35.6422L27.3563 36.5581L29.0158 30.7757ZM29.5958 29.0015L32.6304 22.9808L38.6195 29.0015L32.6304 35.0077L29.5958 29.0015ZM34.4277 11.4995L34.8584 12.2575C35.7915 13.9313 36.5638 15.7515 37.2213 17.8445L37.2787 18.0484L33.3023 20.618L34.4277 11.4995ZM31.8696 21.1261L26.9946 20.0409L26.1878 12.358L33.1645 10.5492L31.8696 21.1261ZM28.4244 4.85877C29.857 5.83206 31.2897 7.19868 32.6764 8.92993L32.9492 9.26866L26.4146 10.9569L28.0971 4.63193L28.4244 4.85877ZM22.0937 2.38103C23.6871 2.56191 25.2317 3.03564 26.6874 3.80508L26.8912 3.90838L25.3121 9.91467L21.5826 2.32355L22.0937 2.38103ZM24.6862 11.7694L20.5376 16.0817L16.4004 11.7149L20.549 3.16197L24.6862 11.7694ZM14.072 3.9974C15.6281 3.11599 17.3334 2.56191 18.9929 2.38103L19.504 2.32355L15.7314 10.0496L13.8652 4.11227L14.072 3.9974ZM8.46762 8.94141C9.69643 7.30203 11.0372 5.98994 12.467 5.03962L12.7857 4.82425L14.695 10.9684L8.21786 9.26866L8.46762 8.94141ZM14.9017 12.3034L14.026 20.0409L9.21697 21.1261L7.85324 10.4917L14.9017 12.3034ZM3.79641 18.2063C4.39933 16.1822 5.19461 14.2356 6.22819 12.2575L6.65025 11.4421L7.78718 20.6955L3.73902 18.4216L3.79641 18.2063ZM2.27475 26.6702C2.38672 24.5427 2.7169 22.3808 3.29686 20.0524L3.37724 19.6906L7.58049 22.0535L2.22884 27.4052L2.27475 26.6702ZM3.35429 38.3123C2.76285 36.0154 2.38672 33.6842 2.27475 31.3873L2.22884 30.6408L7.6264 36.0384L3.45474 38.6855L3.35429 38.3123ZM6.66173 46.5034L6.22819 45.734C5.29797 44.0573 4.52279 42.237 3.86532 40.144L3.79641 39.9402L7.78433 37.3735L6.66173 46.5034ZM9.21697 36.8624L14.0949 37.9506L14.9017 45.6306L7.92211 47.4423L9.21697 36.8624ZM12.6507 53.1327C11.2296 52.1594 9.79695 50.7899 8.41023 49.0587L8.13747 48.7199L14.672 47.0346L12.9924 53.3567L12.6507 53.1327ZM18.9929 55.6105C17.4023 55.4296 15.8549 54.953 14.3906 54.1835L14.1954 54.083L15.7745 48.0739L19.504 55.6764L18.9929 55.6105ZM20.5376 54.8295L16.4004 46.2192L20.549 41.9098L24.6862 46.2766L20.5376 54.8295ZM27.006 54.0026C25.4126 54.8295 23.7876 55.3722 22.1626 55.6105L21.6401 55.6879L25.3466 47.9274L27.2214 53.8906L27.006 54.0026ZM32.6764 49.1275C31.2897 50.8014 29.9604 52.056 28.6196 52.9518L28.3009 53.1643L26.4605 47.0805L32.9492 48.7888L32.6764 49.1275ZM26.1878 45.688L27.0606 37.9506L31.8696 36.8624L33.2334 47.4968L26.1878 45.688ZM37.3476 39.7938C36.6557 41.8983 35.846 43.8449 34.8584 45.734L34.4392 46.5465L33.3023 37.3046L37.4165 39.567L37.3476 39.7938ZM38.8147 31.3184C38.6999 33.4458 38.3582 35.6192 37.7898 37.939L37.7007 38.3123L33.5061 35.935L38.8606 30.5834L38.8147 31.3184Z" fill="black" fill-opacity="0.2"/>
<path d="M38.6425 18.2063C38.0194 16.0472 37.2127 14.0203 36.2451 12.1885C32.8343 5.74013 27.4597 1.56565 21.8554 1.05748C21.4477 1.01154 21.0257 1 20.6065 1C16.0386 1 11.2066 3.58975 7.69531 7.92504C3.77344 12.7656 1.42206 19.5643 1.04596 27.0778C1.0115 27.698 1 28.3555 1 29.0015C1 36.3198 2.97817 43.2563 6.56986 48.5046C6.72777 48.7314 6.88855 48.9467 7.04646 49.1707C9.8199 52.9518 14.8787 57 20.7299 57C28.8464 57 33.8018 50.1784 35.5532 47.2499C36.1188 46.2996 36.6327 45.2919 37.0863 44.2726C37.7352 42.7797 38.3037 41.1949 38.7573 39.567C40.7125 32.5874 40.678 25.2117 38.6425 18.2063ZM37.7352 19.6791C38.3237 21.976 38.6884 24.3044 38.8147 26.6128L38.8606 27.3477L33.4602 21.953L37.6318 19.3059L37.7352 19.6791ZM20.5376 40.2675L15.229 37.0892L12.9005 29.0015L15.229 20.8993L20.5376 17.7211L25.8576 20.8993L28.1861 29.0015L25.8576 37.0892L20.5376 40.2675ZM25.5734 38.674L24.936 44.6574L21.5482 41.1059L25.5734 38.674ZM19.4695 41.1059L16.0817 44.6574L15.4472 38.674L19.4695 41.1059ZM11.4909 29.0015L8.45614 35.0077L2.46712 29.0015L8.45614 22.9808L11.4909 29.0015ZM9.61607 22.3492L13.7303 21.442L12.0593 27.2128L9.61607 22.3492ZM12.0593 30.7643L13.7303 36.6155L9.61607 35.6968L12.0593 30.7643ZM15.5132 19.3174L16.1391 13.3312L19.5384 16.8942L15.5132 19.3174ZM21.5482 16.8942L25.0049 13.3427L25.6308 19.3059L21.5482 16.8942ZM27.3563 21.3759L31.4706 22.2918L29.0158 27.2243L27.3563 21.3759ZM29.0158 30.7757L31.4706 35.6422L27.3563 36.5581L29.0158 30.7757ZM29.5958 29.0015L32.6304 22.9808L38.6195 29.0015L32.6304 35.0077L29.5958 29.0015ZM34.4277 11.4995L34.8584 12.2575C35.7915 13.9313 36.5638 15.7515 37.2213 17.8445L37.2787 18.0484L33.3023 20.618L34.4277 11.4995ZM31.8696 21.1261L26.9946 20.0409L26.1878 12.358L33.1645 10.5492L31.8696 21.1261ZM28.4244 4.85877C29.857 5.83206 31.2897 7.19868 32.6764 8.92993L32.9492 9.26866L26.4146 10.9569L28.0971 4.63193L28.4244 4.85877ZM22.0937 2.38103C23.6871 2.56191 25.2317 3.03564 26.6874 3.80508L26.8912 3.90838L25.3121 9.91467L21.5826 2.32355L22.0937 2.38103ZM24.6862 11.7694L20.5376 16.0817L16.4004 11.7149L20.549 3.16197L24.6862 11.7694ZM14.072 3.9974C15.6281 3.11599 17.3334 2.56191 18.9929 2.38103L19.504 2.32355L15.7314 10.0496L13.8652 4.11227L14.072 3.9974ZM8.46762 8.94141C9.69643 7.30203 11.0372 5.98994 12.467 5.03962L12.7857 4.82425L14.695 10.9684L8.21786 9.26866L8.46762 8.94141ZM14.9017 12.3034L14.026 20.0409L9.21697 21.1261L7.85324 10.4917L14.9017 12.3034ZM3.79641 18.2063C4.39933 16.1822 5.19461 14.2356 6.22819 12.2575L6.65025 11.4421L7.78718 20.6955L3.73902 18.4216L3.79641 18.2063ZM2.27475 26.6702C2.38672 24.5427 2.7169 22.3808 3.29686 20.0524L3.37724 19.6906L7.58049 22.0535L2.22884 27.4052L2.27475 26.6702ZM3.35429 38.3123C2.76285 36.0154 2.38672 33.6842 2.27475 31.3873L2.22884 30.6408L7.6264 36.0384L3.45474 38.6855L3.35429 38.3123ZM6.66173 46.5034L6.22819 45.734C5.29797 44.0573 4.52279 42.237 3.86532 40.144L3.79641 39.9402L7.78433 37.3735L6.66173 46.5034ZM9.21697 36.8624L14.0949 37.9506L14.9017 45.6306L7.92211 47.4423L9.21697 36.8624ZM12.6507 53.1327C11.2296 52.1594 9.79695 50.7899 8.41023 49.0587L8.13747 48.7199L14.672 47.0346L12.9924 53.3567L12.6507 53.1327ZM18.9929 55.6105C17.4023 55.4296 15.8549 54.953 14.3906 54.1835L14.1954 54.083L15.7745 48.0739L19.504 55.6764L18.9929 55.6105ZM20.5376 54.8295L16.4004 46.2192L20.549 41.9098L24.6862 46.2766L20.5376 54.8295ZM27.006 54.0026C25.4126 54.8295 23.7876 55.3722 22.1626 55.6105L21.6401 55.6879L25.3466 47.9274L27.2214 53.8906L27.006 54.0026ZM32.6764 49.1275C31.2897 50.8014 29.9604 52.056 28.6196 52.9518L28.3009 53.1643L26.4605 47.0805L32.9492 48.7888L32.6764 49.1275ZM26.1878 45.688L27.0606 37.9506L31.8696 36.8624L33.2334 47.4968L26.1878 45.688ZM37.3476 39.7938C36.6557 41.8983 35.846 43.8449 34.8584 45.734L34.4392 46.5465L33.3023 37.3046L37.4165 39.567L37.3476 39.7938ZM38.8147 31.3184C38.6999 33.4458 38.3582 35.6192 37.7898 37.939L37.7007 38.3123L33.5061 35.935L38.8606 30.5834L38.8147 31.3184Z" fill="black" fill-opacity="0.2"/>
<path d="M38.6425 18.2063C38.0194 16.0472 37.2127 14.0203 36.2451 12.1885C32.8343 5.74013 27.4597 1.56565 21.8554 1.05748C21.4477 1.01154 21.0257 1 20.6065 1C16.0386 1 11.2066 3.58975 7.69531 7.92504C3.77344 12.7656 1.42206 19.5643 1.04596 27.0778C1.0115 27.698 1 28.3555 1 29.0015C1 36.3198 2.97817 43.2563 6.56986 48.5046C6.72777 48.7314 6.88855 48.9467 7.04646 49.1707C9.8199 52.9518 14.8787 57 20.7299 57C28.8464 57 33.8018 50.1784 35.5532 47.2499C36.1188 46.2996 36.6327 45.2919 37.0863 44.2726C37.7352 42.7797 38.3037 41.1949 38.7573 39.567C40.7125 32.5874 40.678 25.2117 38.6425 18.2063ZM37.7352 19.6791C38.3237 21.976 38.6884 24.3044 38.8147 26.6128L38.8606 27.3477L33.4602 21.953L37.6318 19.3059L37.7352 19.6791ZM20.5376 40.2675L15.229 37.0892L12.9005 29.0015L15.229 20.8993L20.5376 17.7211L25.8576 20.8993L28.1861 29.0015L25.8576 37.0892L20.5376 40.2675ZM25.5734 38.674L24.936 44.6574L21.5482 41.1059L25.5734 38.674ZM19.4695 41.1059L16.0817 44.6574L15.4472 38.674L19.4695 41.1059ZM11.4909 29.0015L8.45614 35.0077L2.46712 29.0015L8.45614 22.9808L11.4909 29.0015ZM9.61607 22.3492L13.7303 21.442L12.0593 27.2128L9.61607 22.3492ZM12.0593 30.7643L13.7303 36.6155L9.61607 35.6968L12.0593 30.7643ZM15.5132 19.3174L16.1391 13.3312L19.5384 16.8942L15.5132 19.3174ZM21.5482 16.8942L25.0049 13.3427L25.6308 19.3059L21.5482 16.8942ZM27.3563 21.3759L31.4706 22.2918L29.0158 27.2243L27.3563 21.3759ZM29.0158 30.7757L31.4706 35.6422L27.3563 36.5581L29.0158 30.7757ZM29.5958 29.0015L32.6304 22.9808L38.6195 29.0015L32.6304 35.0077L29.5958 29.0015ZM34.4277 11.4995L34.8584 12.2575C35.7915 13.9313 36.5638 15.7515 37.2213 17.8445L37.2787 18.0484L33.3023 20.618L34.4277 11.4995ZM31.8696 21.1261L26.9946 20.0409L26.1878 12.358L33.1645 10.5492L31.8696 21.1261ZM28.4244 4.85877C29.857 5.83206 31.2897 7.19868 32.6764 8.92993L32.9492 9.26866L26.4146 10.9569L28.0971 4.63193L28.4244 4.85877ZM22.0937 2.38103C23.6871 2.56191 25.2317 3.03564 26.6874 3.80508L26.8912 3.90838L25.3121 9.91467L21.5826 2.32355L22.0937 2.38103ZM24.6862 11.7694L20.5376 16.0817L16.4004 11.7149L20.549 3.16197L24.6862 11.7694ZM14.072 3.9974C15.6281 3.11599 17.3334 2.56191 18.9929 2.38103L19.504 2.32355L15.7314 10.0496L13.8652 4.11227L14.072 3.9974ZM8.46762 8.94141C9.69643 7.30203 11.0372 5.98994 12.467 5.03962L12.7857 4.82425L14.695 10.9684L8.21786 9.26866L8.46762 8.94141ZM14.9017 12.3034L14.026 20.0409L9.21697 21.1261L7.85324 10.4917L14.9017 12.3034ZM3.79641 18.2063C4.39933 16.1822 5.19461 14.2356 6.22819 12.2575L6.65025 11.4421L7.78718 20.6955L3.73902 18.4216L3.79641 18.2063ZM2.27475 26.6702C2.38672 24.5427 2.7169 22.3808 3.29686 20.0524L3.37724 19.6906L7.58049 22.0535L2.22884 27.4052L2.27475 26.6702ZM3.35429 38.3123C2.76285 36.0154 2.38672 33.6842 2.27475 31.3873L2.22884 30.6408L7.6264 36.0384L3.45474 38.6855L3.35429 38.3123ZM6.66173 46.5034L6.22819 45.734C5.29797 44.0573 4.52279 42.237 3.86532 40.144L3.79641 39.9402L7.78433 37.3735L6.66173 46.5034ZM9.21697 36.8624L14.0949 37.9506L14.9017 45.6306L7.92211 47.4423L9.21697 36.8624ZM12.6507 53.1327C11.2296 52.1594 9.79695 50.7899 8.41023 49.0587L8.13747 48.7199L14.672 47.0346L12.9924 53.3567L12.6507 53.1327ZM18.9929 55.6105C17.4023 55.4296 15.8549 54.953 14.3906 54.1835L14.1954 54.083L15.7745 48.0739L19.504 55.6764L18.9929 55.6105ZM20.5376 54.8295L16.4004 46.2192L20.549 41.9098L24.6862 46.2766L20.5376 54.8295ZM27.006 54.0026C25.4126 54.8295 23.7876 55.3722 22.1626 55.6105L21.6401 55.6879L25.3466 47.9274L27.2214 53.8906L27.006 54.0026ZM32.6764 49.1275C31.2897 50.8014 29.9604 52.056 28.6196 52.9518L28.3009 53.1643L26.4605 47.0805L32.9492 48.7888L32.6764 49.1275ZM26.1878 45.688L27.0606 37.9506L31.8696 36.8624L33.2334 47.4968L26.1878 45.688ZM37.3476 39.7938C36.6557 41.8983 35.846 43.8449 34.8584 45.734L34.4392 46.5465L33.3023 37.3046L37.4165 39.567L37.3476 39.7938ZM38.8147 31.3184C38.6999 33.4458 38.3582 35.6192 37.7898 37.939L37.7007 38.3123L33.5061 35.935L38.8606 30.5834L38.8147 31.3184Z" fill="black" fill-opacity="0.2"/>
<path d="M38.6425 18.2063C38.0194 16.0472 37.2127 14.0203 36.2451 12.1885C32.8343 5.74013 27.4597 1.56565 21.8554 1.05748C21.4477 1.01154 21.0257 1 20.6065 1C16.0386 1 11.2066 3.58975 7.69531 7.92504C3.77344 12.7656 1.42206 19.5643 1.04596 27.0778C1.0115 27.698 1 28.3555 1 29.0015C1 36.3198 2.97817 43.2563 6.56986 48.5046C6.72777 48.7314 6.88855 48.9467 7.04646 49.1707C9.8199 52.9518 14.8787 57 20.7299 57C28.8464 57 33.8018 50.1784 35.5532 47.2499C36.1188 46.2996 36.6327 45.2919 37.0863 44.2726C37.7352 42.7797 38.3037 41.1949 38.7573 39.567C40.7125 32.5874 40.678 25.2117 38.6425 18.2063ZM37.7352 19.6791C38.3237 21.976 38.6884 24.3044 38.8147 26.6128L38.8606 27.3477L33.4602 21.953L37.6318 19.3059L37.7352 19.6791ZM20.5376 40.2675L15.229 37.0892L12.9005 29.0015L15.229 20.8993L20.5376 17.7211L25.8576 20.8993L28.1861 29.0015L25.8576 37.0892L20.5376 40.2675ZM25.5734 38.674L24.936 44.6574L21.5482 41.1059L25.5734 38.674ZM19.4695 41.1059L16.0817 44.6574L15.4472 38.674L19.4695 41.1059ZM11.4909 29.0015L8.45614 35.0077L2.46712 29.0015L8.45614 22.9808L11.4909 29.0015ZM9.61607 22.3492L13.7303 21.442L12.0593 27.2128L9.61607 22.3492ZM12.0593 30.7643L13.7303 36.6155L9.61607 35.6968L12.0593 30.7643ZM15.5132 19.3174L16.1391 13.3312L19.5384 16.8942L15.5132 19.3174ZM21.5482 16.8942L25.0049 13.3427L25.6308 19.3059L21.5482 16.8942ZM27.3563 21.3759L31.4706 22.2918L29.0158 27.2243L27.3563 21.3759ZM29.0158 30.7757L31.4706 35.6422L27.3563 36.5581L29.0158 30.7757ZM29.5958 29.0015L32.6304 22.9808L38.6195 29.0015L32.6304 35.0077L29.5958 29.0015ZM34.4277 11.4995L34.8584 12.2575C35.7915 13.9313 36.5638 15.7515 37.2213 17.8445L37.2787 18.0484L33.3023 20.618L34.4277 11.4995ZM31.8696 21.1261L26.9946 20.0409L26.1878 12.358L33.1645 10.5492L31.8696 21.1261ZM28.4244 4.85877C29.857 5.83206 31.2897 7.19868 32.6764 8.92993L32.9492 9.26866L26.4146 10.9569L28.0971 4.63193L28.4244 4.85877ZM22.0937 2.38103C23.6871 2.56191 25.2317 3.03564 26.6874 3.80508L26.8912 3.90838L25.3121 9.91467L21.5826 2.32355L22.0937 2.38103ZM24.6862 11.7694L20.5376 16.0817L16.4004 11.7149L20.549 3.16197L24.6862 11.7694ZM14.072 3.9974C15.6281 3.11599 17.3334 2.56191 18.9929 2.38103L19.504 2.32355L15.7314 10.0496L13.8652 4.11227L14.072 3.9974ZM8.46762 8.94141C9.69643 7.30203 11.0372 5.98994 12.467 5.03962L12.7857 4.82425L14.695 10.9684L8.21786 9.26866L8.46762 8.94141ZM14.9017 12.3034L14.026 20.0409L9.21697 21.1261L7.85324 10.4917L14.9017 12.3034ZM3.79641 18.2063C4.39933 16.1822 5.19461 14.2356 6.22819 12.2575L6.65025 11.4421L7.78718 20.6955L3.73902 18.4216L3.79641 18.2063ZM2.27475 26.6702C2.38672 24.5427 2.7169 22.3808 3.29686 20.0524L3.37724 19.6906L7.58049 22.0535L2.22884 27.4052L2.27475 26.6702ZM3.35429 38.3123C2.76285 36.0154 2.38672 33.6842 2.27475 31.3873L2.22884 30.6408L7.6264 36.0384L3.45474 38.6855L3.35429 38.3123ZM6.66173 46.5034L6.22819 45.734C5.29797 44.0573 4.52279 42.237 3.86532 40.144L3.79641 39.9402L7.78433 37.3735L6.66173 46.5034ZM9.21697 36.8624L14.0949 37.9506L14.9017 45.6306L7.92211 47.4423L9.21697 36.8624ZM12.6507 53.1327C11.2296 52.1594 9.79695 50.7899 8.41023 49.0587L8.13747 48.7199L14.672 47.0346L12.9924 53.3567L12.6507 53.1327ZM18.9929 55.6105C17.4023 55.4296 15.8549 54.953 14.3906 54.1835L14.1954 54.083L15.7745 48.0739L19.504 55.6764L18.9929 55.6105ZM20.5376 54.8295L16.4004 46.2192L20.549 41.9098L24.6862 46.2766L20.5376 54.8295ZM27.006 54.0026C25.4126 54.8295 23.7876 55.3722 22.1626 55.6105L21.6401 55.6879L25.3466 47.9274L27.2214 53.8906L27.006 54.0026ZM32.6764 49.1275C31.2897 50.8014 29.9604 52.056 28.6196 52.9518L28.3009 53.1643L26.4605 47.0805L32.9492 48.7888L32.6764 49.1275ZM26.1878 45.688L27.0606 37.9506L31.8696 36.8624L33.2334 47.4968L26.1878 45.688ZM37.3476 39.7938C36.6557 41.8983 35.846 43.8449 34.8584 45.734L34.4392 46.5465L33.3023 37.3046L37.4165 39.567L37.3476 39.7938ZM38.8147 31.3184C38.6999 33.4458 38.3582 35.6192 37.7898 37.939L37.7007 38.3123L33.5061 35.935L38.8606 30.5834L38.8147 31.3184Z" fill="black" fill-opacity="0.2"/>
<path d="M38.6425 18.2063C38.0194 16.0472 37.2127 14.0203 36.2451 12.1885C32.8343 5.74013 27.4597 1.56565 21.8554 1.05748C21.4477 1.01154 21.0257 1 20.6065 1C16.0386 1 11.2066 3.58975 7.69531 7.92504C3.77344 12.7656 1.42206 19.5643 1.04596 27.0778C1.0115 27.698 1 28.3555 1 29.0015C1 36.3198 2.97817 43.2563 6.56986 48.5046C6.72777 48.7314 6.88855 48.9467 7.04646 49.1707C9.8199 52.9518 14.8787 57 20.7299 57C28.8464 57 33.8018 50.1784 35.5532 47.2499C36.1188 46.2996 36.6327 45.2919 37.0863 44.2726C37.7352 42.7797 38.3037 41.1949 38.7573 39.567C40.7125 32.5874 40.678 25.2117 38.6425 18.2063ZM37.7352 19.6791C38.3237 21.976 38.6884 24.3044 38.8147 26.6128L38.8606 27.3477L33.4602 21.953L37.6318 19.3059L37.7352 19.6791ZM20.5376 40.2675L15.229 37.0892L12.9005 29.0015L15.229 20.8993L20.5376 17.7211L25.8576 20.8993L28.1861 29.0015L25.8576 37.0892L20.5376 40.2675ZM25.5734 38.674L24.936 44.6574L21.5482 41.1059L25.5734 38.674ZM19.4695 41.1059L16.0817 44.6574L15.4472 38.674L19.4695 41.1059ZM11.4909 29.0015L8.45614 35.0077L2.46712 29.0015L8.45614 22.9808L11.4909 29.0015ZM9.61607 22.3492L13.7303 21.442L12.0593 27.2128L9.61607 22.3492ZM12.0593 30.7643L13.7303 36.6155L9.61607 35.6968L12.0593 30.7643ZM15.5132 19.3174L16.1391 13.3312L19.5384 16.8942L15.5132 19.3174ZM21.5482 16.8942L25.0049 13.3427L25.6308 19.3059L21.5482 16.8942ZM27.3563 21.3759L31.4706 22.2918L29.0158 27.2243L27.3563 21.3759ZM29.0158 30.7757L31.4706 35.6422L27.3563 36.5581L29.0158 30.7757ZM29.5958 29.0015L32.6304 22.9808L38.6195 29.0015L32.6304 35.0077L29.5958 29.0015ZM34.4277 11.4995L34.8584 12.2575C35.7915 13.9313 36.5638 15.7515 37.2213 17.8445L37.2787 18.0484L33.3023 20.618L34.4277 11.4995ZM31.8696 21.1261L26.9946 20.0409L26.1878 12.358L33.1645 10.5492L31.8696 21.1261ZM28.4244 4.85877C29.857 5.83206 31.2897 7.19868 32.6764 8.92993L32.9492 9.26866L26.4146 10.9569L28.0971 4.63193L28.4244 4.85877ZM22.0937 2.38103C23.6871 2.56191 25.2317 3.03564 26.6874 3.80508L26.8912 3.90838L25.3121 9.91467L21.5826 2.32355L22.0937 2.38103ZM24.6862 11.7694L20.5376 16.0817L16.4004 11.7149L20.549 3.16197L24.6862 11.7694ZM14.072 3.9974C15.6281 3.11599 17.3334 2.56191 18.9929 2.38103L19.504 2.32355L15.7314 10.0496L13.8652 4.11227L14.072 3.9974ZM8.46762 8.94141C9.69643 7.30203 11.0372 5.98994 12.467 5.03962L12.7857 4.82425L14.695 10.9684L8.21786 9.26866L8.46762 8.94141ZM14.9017 12.3034L14.026 20.0409L9.21697 21.1261L7.85324 10.4917L14.9017 12.3034ZM3.79641 18.2063C4.39933 16.1822 5.19461 14.2356 6.22819 12.2575L6.65025 11.4421L7.78718 20.6955L3.73902 18.4216L3.79641 18.2063ZM2.27475 26.6702C2.38672 24.5427 2.7169 22.3808 3.29686 20.0524L3.37724 19.6906L7.58049 22.0535L2.22884 27.4052L2.27475 26.6702ZM3.35429 38.3123C2.76285 36.0154 2.38672 33.6842 2.27475 31.3873L2.22884 30.6408L7.6264 36.0384L3.45474 38.6855L3.35429 38.3123ZM6.66173 46.5034L6.22819 45.734C5.29797 44.0573 4.52279 42.237 3.86532 40.144L3.79641 39.9402L7.78433 37.3735L6.66173 46.5034ZM9.21697 36.8624L14.0949 37.9506L14.9017 45.6306L7.92211 47.4423L9.21697 36.8624ZM12.6507 53.1327C11.2296 52.1594 9.79695 50.7899 8.41023 49.0587L8.13747 48.7199L14.672 47.0346L12.9924 53.3567L12.6507 53.1327ZM18.9929 55.6105C17.4023 55.4296 15.8549 54.953 14.3906 54.1835L14.1954 54.083L15.7745 48.0739L19.504 55.6764L18.9929 55.6105ZM20.5376 54.8295L16.4004 46.2192L20.549 41.9098L24.6862 46.2766L20.5376 54.8295ZM27.006 54.0026C25.4126 54.8295 23.7876 55.3722 22.1626 55.6105L21.6401 55.6879L25.3466 47.9274L27.2214 53.8906L27.006 54.0026ZM32.6764 49.1275C31.2897 50.8014 29.9604 52.056 28.6196 52.9518L28.3009 53.1643L26.4605 47.0805L32.9492 48.7888L32.6764 49.1275ZM26.1878 45.688L27.0606 37.9506L31.8696 36.8624L33.2334 47.4968L26.1878 45.688ZM37.3476 39.7938C36.6557 41.8983 35.846 43.8449 34.8584 45.734L34.4392 46.5465L33.3023 37.3046L37.4165 39.567L37.3476 39.7938ZM38.8147 31.3184C38.6999 33.4458 38.3582 35.6192 37.7898 37.939L37.7007 38.3123L33.5061 35.935L38.8606 30.5834L38.8147 31.3184Z" fill="black" fill-opacity="0.2"/>
<path d="M38.6425 18.2063C38.0194 16.0472 37.2127 14.0203 36.2451 12.1885C32.8343 5.74013 27.4597 1.56565 21.8554 1.05748C21.4477 1.01154 21.0257 1 20.6065 1C16.0386 1 11.2066 3.58975 7.69531 7.92504C3.77344 12.7656 1.42206 19.5643 1.04596 27.0778C1.0115 27.698 1 28.3555 1 29.0015C1 36.3198 2.97817 43.2563 6.56986 48.5046C6.72777 48.7314 6.88855 48.9467 7.04646 49.1707C9.8199 52.9518 14.8787 57 20.7299 57C28.8464 57 33.8018 50.1784 35.5532 47.2499C36.1188 46.2996 36.6327 45.2919 37.0863 44.2726C37.7352 42.7797 38.3037 41.1949 38.7573 39.567C40.7125 32.5874 40.678 25.2117 38.6425 18.2063ZM37.7352 19.6791C38.3237 21.976 38.6884 24.3044 38.8147 26.6128L38.8606 27.3477L33.4602 21.953L37.6318 19.3059L37.7352 19.6791ZM20.5376 40.2675L15.229 37.0892L12.9005 29.0015L15.229 20.8993L20.5376 17.7211L25.8576 20.8993L28.1861 29.0015L25.8576 37.0892L20.5376 40.2675ZM25.5734 38.674L24.936 44.6574L21.5482 41.1059L25.5734 38.674ZM19.4695 41.1059L16.0817 44.6574L15.4472 38.674L19.4695 41.1059ZM11.4909 29.0015L8.45614 35.0077L2.46712 29.0015L8.45614 22.9808L11.4909 29.0015ZM9.61607 22.3492L13.7303 21.442L12.0593 27.2128L9.61607 22.3492ZM12.0593 30.7643L13.7303 36.6155L9.61607 35.6968L12.0593 30.7643ZM15.5132 19.3174L16.1391 13.3312L19.5384 16.8942L15.5132 19.3174ZM21.5482 16.8942L25.0049 13.3427L25.6308 19.3059L21.5482 16.8942ZM27.3563 21.3759L31.4706 22.2918L29.0158 27.2243L27.3563 21.3759ZM29.0158 30.7757L31.4706 35.6422L27.3563 36.5581L29.0158 30.7757ZM29.5958 29.0015L32.6304 22.9808L38.6195 29.0015L32.6304 35.0077L29.5958 29.0015ZM34.4277 11.4995L34.8584 12.2575C35.7915 13.9313 36.5638 15.7515 37.2213 17.8445L37.2787 18.0484L33.3023 20.618L34.4277 11.4995ZM31.8696 21.1261L26.9946 20.0409L26.1878 12.358L33.1645 10.5492L31.8696 21.1261ZM28.4244 4.85877C29.857 5.83206 31.2897 7.19868 32.6764 8.92993L32.9492 9.26866L26.4146 10.9569L28.0971 4.63193L28.4244 4.85877ZM22.0937 2.38103C23.6871 2.56191 25.2317 3.03564 26.6874 3.80508L26.8912 3.90838L25.3121 9.91467L21.5826 2.32355L22.0937 2.38103ZM24.6862 11.7694L20.5376 16.0817L16.4004 11.7149L20.549 3.16197L24.6862 11.7694ZM14.072 3.9974C15.6281 3.11599 17.3334 2.56191 18.9929 2.38103L19.504 2.32355L15.7314 10.0496L13.8652 4.11227L14.072 3.9974ZM8.46762 8.94141C9.69643 7.30203 11.0372 5.98994 12.467 5.03962L12.7857 4.82425L14.695 10.9684L8.21786 9.26866L8.46762 8.94141ZM14.9017 12.3034L14.026 20.0409L9.21697 21.1261L7.85324 10.4917L14.9017 12.3034ZM3.79641 18.2063C4.39933 16.1822 5.19461 14.2356 6.22819 12.2575L6.65025 11.4421L7.78718 20.6955L3.73902 18.4216L3.79641 18.2063ZM2.27475 26.6702C2.38672 24.5427 2.7169 22.3808 3.29686 20.0524L3.37724 19.6906L7.58049 22.0535L2.22884 27.4052L2.27475 26.6702ZM3.35429 38.3123C2.76285 36.0154 2.38672 33.6842 2.27475 31.3873L2.22884 30.6408L7.6264 36.0384L3.45474 38.6855L3.35429 38.3123ZM6.66173 46.5034L6.22819 45.734C5.29797 44.0573 4.52279 42.237 3.86532 40.144L3.79641 39.9402L7.78433 37.3735L6.66173 46.5034ZM9.21697 36.8624L14.0949 37.9506L14.9017 45.6306L7.92211 47.4423L9.21697 36.8624ZM12.6507 53.1327C11.2296 52.1594 9.79695 50.7899 8.41023 49.0587L8.13747 48.7199L14.672 47.0346L12.9924 53.3567L12.6507 53.1327ZM18.9929 55.6105C17.4023 55.4296 15.8549 54.953 14.3906 54.1835L14.1954 54.083L15.7745 48.0739L19.504 55.6764L18.9929 55.6105ZM20.5376 54.8295L16.4004 46.2192L20.549 41.9098L24.6862 46.2766L20.5376 54.8295ZM27.006 54.0026C25.4126 54.8295 23.7876 55.3722 22.1626 55.6105L21.6401 55.6879L25.3466 47.9274L27.2214 53.8906L27.006 54.0026ZM32.6764 49.1275C31.2897 50.8014 29.9604 52.056 28.6196 52.9518L28.3009 53.1643L26.4605 47.0805L32.9492 48.7888L32.6764 49.1275ZM26.1878 45.688L27.0606 37.9506L31.8696 36.8624L33.2334 47.4968L26.1878 45.688ZM37.3476 39.7938C36.6557 41.8983 35.846 43.8449 34.8584 45.734L34.4392 46.5465L33.3023 37.3046L37.4165 39.567L37.3476 39.7938ZM38.8147 31.3184C38.6999 33.4458 38.3582 35.6192 37.7898 37.939L37.7007 38.3123L33.5061 35.935L38.8606 30.5834L38.8147 31.3184Z" stroke="#333335" stroke-width="0.22302"/>
<path d="M38.6425 18.2063C38.0194 16.0472 37.2127 14.0203 36.2451 12.1885C32.8343 5.74013 27.4597 1.56565 21.8554 1.05748C21.4477 1.01154 21.0257 1 20.6065 1C16.0386 1 11.2066 3.58975 7.69531 7.92504C3.77344 12.7656 1.42206 19.5643 1.04596 27.0778C1.0115 27.698 1 28.3555 1 29.0015C1 36.3198 2.97817 43.2563 6.56986 48.5046C6.72777 48.7314 6.88855 48.9467 7.04646 49.1707C9.8199 52.9518 14.8787 57 20.7299 57C28.8464 57 33.8018 50.1784 35.5532 47.2499C36.1188 46.2996 36.6327 45.2919 37.0863 44.2726C37.7352 42.7797 38.3037 41.1949 38.7573 39.567C40.7125 32.5874 40.678 25.2117 38.6425 18.2063ZM37.7352 19.6791C38.3237 21.976 38.6884 24.3044 38.8147 26.6128L38.8606 27.3477L33.4602 21.953L37.6318 19.3059L37.7352 19.6791ZM20.5376 40.2675L15.229 37.0892L12.9005 29.0015L15.229 20.8993L20.5376 17.7211L25.8576 20.8993L28.1861 29.0015L25.8576 37.0892L20.5376 40.2675ZM25.5734 38.674L24.936 44.6574L21.5482 41.1059L25.5734 38.674ZM19.4695 41.1059L16.0817 44.6574L15.4472 38.674L19.4695 41.1059ZM11.4909 29.0015L8.45614 35.0077L2.46712 29.0015L8.45614 22.9808L11.4909 29.0015ZM9.61607 22.3492L13.7303 21.442L12.0593 27.2128L9.61607 22.3492ZM12.0593 30.7643L13.7303 36.6155L9.61607 35.6968L12.0593 30.7643ZM15.5132 19.3174L16.1391 13.3312L19.5384 16.8942L15.5132 19.3174ZM21.5482 16.8942L25.0049 13.3427L25.6308 19.3059L21.5482 16.8942ZM27.3563 21.3759L31.4706 22.2918L29.0158 27.2243L27.3563 21.3759ZM29.0158 30.7757L31.4706 35.6422L27.3563 36.5581L29.0158 30.7757ZM29.5958 29.0015L32.6304 22.9808L38.6195 29.0015L32.6304 35.0077L29.5958 29.0015ZM34.4277 11.4995L34.8584 12.2575C35.7915 13.9313 36.5638 15.7515 37.2213 17.8445L37.2787 18.0484L33.3023 20.618L34.4277 11.4995ZM31.8696 21.1261L26.9946 20.0409L26.1878 12.358L33.1645 10.5492L31.8696 21.1261ZM28.4244 4.85877C29.857 5.83206 31.2897 7.19868 32.6764 8.92993L32.9492 9.26866L26.4146 10.9569L28.0971 4.63193L28.4244 4.85877ZM22.0937 2.38103C23.6871 2.56191 25.2317 3.03564 26.6874 3.80508L26.8912 3.90838L25.3121 9.91467L21.5826 2.32355L22.0937 2.38103ZM24.6862 11.7694L20.5376 16.0817L16.4004 11.7149L20.549 3.16197L24.6862 11.7694ZM14.072 3.9974C15.6281 3.11599 17.3334 2.56191 18.9929 2.38103L19.504 2.32355L15.7314 10.0496L13.8652 4.11227L14.072 3.9974ZM8.46762 8.94141C9.69643 7.30203 11.0372 5.98994 12.467 5.03962L12.7857 4.82425L14.695 10.9684L8.21786 9.26866L8.46762 8.94141ZM14.9017 12.3034L14.026 20.0409L9.21697 21.1261L7.85324 10.4917L14.9017 12.3034ZM3.79641 18.2063C4.39933 16.1822 5.19461 14.2356 6.22819 12.2575L6.65025 11.4421L7.78718 20.6955L3.73902 18.4216L3.79641 18.2063ZM2.27475 26.6702C2.38672 24.5427 2.7169 22.3808 3.29686 20.0524L3.37724 19.6906L7.58049 22.0535L2.22884 27.4052L2.27475 26.6702ZM3.35429 38.3123C2.76285 36.0154 2.38672 33.6842 2.27475 31.3873L2.22884 30.6408L7.6264 36.0384L3.45474 38.6855L3.35429 38.3123ZM6.66173 46.5034L6.22819 45.734C5.29797 44.0573 4.52279 42.237 3.86532 40.144L3.79641 39.9402L7.78433 37.3735L6.66173 46.5034ZM9.21697 36.8624L14.0949 37.9506L14.9017 45.6306L7.92211 47.4423L9.21697 36.8624ZM12.6507 53.1327C11.2296 52.1594 9.79695 50.7899 8.41023 49.0587L8.13747 48.7199L14.672 47.0346L12.9924 53.3567L12.6507 53.1327ZM18.9929 55.6105C17.4023 55.4296 15.8549 54.953 14.3906 54.1835L14.1954 54.083L15.7745 48.0739L19.504 55.6764L18.9929 55.6105ZM20.5376 54.8295L16.4004 46.2192L20.549 41.9098L24.6862 46.2766L20.5376 54.8295ZM27.006 54.0026C25.4126 54.8295 23.7876 55.3722 22.1626 55.6105L21.6401 55.6879L25.3466 47.9274L27.2214 53.8906L27.006 54.0026ZM32.6764 49.1275C31.2897 50.8014 29.9604 52.056 28.6196 52.9518L28.3009 53.1643L26.4605 47.0805L32.9492 48.7888L32.6764 49.1275ZM26.1878 45.688L27.0606 37.9506L31.8696 36.8624L33.2334 47.4968L26.1878 45.688ZM37.3476 39.7938C36.6557 41.8983 35.846 43.8449 34.8584 45.734L34.4392 46.5465L33.3023 37.3046L37.4165 39.567L37.3476 39.7938ZM38.8147 31.3184C38.6999 33.4458 38.3582 35.6192 37.7898 37.939L37.7007 38.3123L33.5061 35.935L38.8606 30.5834L38.8147 31.3184Z" stroke="black" stroke-opacity="0.2" stroke-width="0.22302"/>
<path d="M38.6425 18.2063C38.0194 16.0472 37.2127 14.0203 36.2451 12.1885C32.8343 5.74013 27.4597 1.56565 21.8554 1.05748C21.4477 1.01154 21.0257 1 20.6065 1C16.0386 1 11.2066 3.58975 7.69531 7.92504C3.77344 12.7656 1.42206 19.5643 1.04596 27.0778C1.0115 27.698 1 28.3555 1 29.0015C1 36.3198 2.97817 43.2563 6.56986 48.5046C6.72777 48.7314 6.88855 48.9467 7.04646 49.1707C9.8199 52.9518 14.8787 57 20.7299 57C28.8464 57 33.8018 50.1784 35.5532 47.2499C36.1188 46.2996 36.6327 45.2919 37.0863 44.2726C37.7352 42.7797 38.3037 41.1949 38.7573 39.567C40.7125 32.5874 40.678 25.2117 38.6425 18.2063ZM37.7352 19.6791C38.3237 21.976 38.6884 24.3044 38.8147 26.6128L38.8606 27.3477L33.4602 21.953L37.6318 19.3059L37.7352 19.6791ZM20.5376 40.2675L15.229 37.0892L12.9005 29.0015L15.229 20.8993L20.5376 17.7211L25.8576 20.8993L28.1861 29.0015L25.8576 37.0892L20.5376 40.2675ZM25.5734 38.674L24.936 44.6574L21.5482 41.1059L25.5734 38.674ZM19.4695 41.1059L16.0817 44.6574L15.4472 38.674L19.4695 41.1059ZM11.4909 29.0015L8.45614 35.0077L2.46712 29.0015L8.45614 22.9808L11.4909 29.0015ZM9.61607 22.3492L13.7303 21.442L12.0593 27.2128L9.61607 22.3492ZM12.0593 30.7643L13.7303 36.6155L9.61607 35.6968L12.0593 30.7643ZM15.5132 19.3174L16.1391 13.3312L19.5384 16.8942L15.5132 19.3174ZM21.5482 16.8942L25.0049 13.3427L25.6308 19.3059L21.5482 16.8942ZM27.3563 21.3759L31.4706 22.2918L29.0158 27.2243L27.3563 21.3759ZM29.0158 30.7757L31.4706 35.6422L27.3563 36.5581L29.0158 30.7757ZM29.5958 29.0015L32.6304 22.9808L38.6195 29.0015L32.6304 35.0077L29.5958 29.0015ZM34.4277 11.4995L34.8584 12.2575C35.7915 13.9313 36.5638 15.7515 37.2213 17.8445L37.2787 18.0484L33.3023 20.618L34.4277 11.4995ZM31.8696 21.1261L26.9946 20.0409L26.1878 12.358L33.1645 10.5492L31.8696 21.1261ZM28.4244 4.85877C29.857 5.83206 31.2897 7.19868 32.6764 8.92993L32.9492 9.26866L26.4146 10.9569L28.0971 4.63193L28.4244 4.85877ZM22.0937 2.38103C23.6871 2.56191 25.2317 3.03564 26.6874 3.80508L26.8912 3.90838L25.3121 9.91467L21.5826 2.32355L22.0937 2.38103ZM24.6862 11.7694L20.5376 16.0817L16.4004 11.7149L20.549 3.16197L24.6862 11.7694ZM14.072 3.9974C15.6281 3.11599 17.3334 2.56191 18.9929 2.38103L19.504 2.32355L15.7314 10.0496L13.8652 4.11227L14.072 3.9974ZM8.46762 8.94141C9.69643 7.30203 11.0372 5.98994 12.467 5.03962L12.7857 4.82425L14.695 10.9684L8.21786 9.26866L8.46762 8.94141ZM14.9017 12.3034L14.026 20.0409L9.21697 21.1261L7.85324 10.4917L14.9017 12.3034ZM3.79641 18.2063C4.39933 16.1822 5.19461 14.2356 6.22819 12.2575L6.65025 11.4421L7.78718 20.6955L3.73902 18.4216L3.79641 18.2063ZM2.27475 26.6702C2.38672 24.5427 2.7169 22.3808 3.29686 20.0524L3.37724 19.6906L7.58049 22.0535L2.22884 27.4052L2.27475 26.6702ZM3.35429 38.3123C2.76285 36.0154 2.38672 33.6842 2.27475 31.3873L2.22884 30.6408L7.6264 36.0384L3.45474 38.6855L3.35429 38.3123ZM6.66173 46.5034L6.22819 45.734C5.29797 44.0573 4.52279 42.237 3.86532 40.144L3.79641 39.9402L7.78433 37.3735L6.66173 46.5034ZM9.21697 36.8624L14.0949 37.9506L14.9017 45.6306L7.92211 47.4423L9.21697 36.8624ZM12.6507 53.1327C11.2296 52.1594 9.79695 50.7899 8.41023 49.0587L8.13747 48.7199L14.672 47.0346L12.9924 53.3567L12.6507 53.1327ZM18.9929 55.6105C17.4023 55.4296 15.8549 54.953 14.3906 54.1835L14.1954 54.083L15.7745 48.0739L19.504 55.6764L18.9929 55.6105ZM20.5376 54.8295L16.4004 46.2192L20.549 41.9098L24.6862 46.2766L20.5376 54.8295ZM27.006 54.0026C25.4126 54.8295 23.7876 55.3722 22.1626 55.6105L21.6401 55.6879L25.3466 47.9274L27.2214 53.8906L27.006 54.0026ZM32.6764 49.1275C31.2897 50.8014 29.9604 52.056 28.6196 52.9518L28.3009 53.1643L26.4605 47.0805L32.9492 48.7888L32.6764 49.1275ZM26.1878 45.688L27.0606 37.9506L31.8696 36.8624L33.2334 47.4968L26.1878 45.688ZM37.3476 39.7938C36.6557 41.8983 35.846 43.8449 34.8584 45.734L34.4392 46.5465L33.3023 37.3046L37.4165 39.567L37.3476 39.7938ZM38.8147 31.3184C38.6999 33.4458 38.3582 35.6192 37.7898 37.939L37.7007 38.3123L33.5061 35.935L38.8606 30.5834L38.8147 31.3184Z" stroke="black" stroke-opacity="0.2" stroke-width="0.22302"/>
<path d="M38.6425 18.2063C38.0194 16.0472 37.2127 14.0203 36.2451 12.1885C32.8343 5.74013 27.4597 1.56565 21.8554 1.05748C21.4477 1.01154 21.0257 1 20.6065 1C16.0386 1 11.2066 3.58975 7.69531 7.92504C3.77344 12.7656 1.42206 19.5643 1.04596 27.0778C1.0115 27.698 1 28.3555 1 29.0015C1 36.3198 2.97817 43.2563 6.56986 48.5046C6.72777 48.7314 6.88855 48.9467 7.04646 49.1707C9.8199 52.9518 14.8787 57 20.7299 57C28.8464 57 33.8018 50.1784 35.5532 47.2499C36.1188 46.2996 36.6327 45.2919 37.0863 44.2726C37.7352 42.7797 38.3037 41.1949 38.7573 39.567C40.7125 32.5874 40.678 25.2117 38.6425 18.2063ZM37.7352 19.6791C38.3237 21.976 38.6884 24.3044 38.8147 26.6128L38.8606 27.3477L33.4602 21.953L37.6318 19.3059L37.7352 19.6791ZM20.5376 40.2675L15.229 37.0892L12.9005 29.0015L15.229 20.8993L20.5376 17.7211L25.8576 20.8993L28.1861 29.0015L25.8576 37.0892L20.5376 40.2675ZM25.5734 38.674L24.936 44.6574L21.5482 41.1059L25.5734 38.674ZM19.4695 41.1059L16.0817 44.6574L15.4472 38.674L19.4695 41.1059ZM11.4909 29.0015L8.45614 35.0077L2.46712 29.0015L8.45614 22.9808L11.4909 29.0015ZM9.61607 22.3492L13.7303 21.442L12.0593 27.2128L9.61607 22.3492ZM12.0593 30.7643L13.7303 36.6155L9.61607 35.6968L12.0593 30.7643ZM15.5132 19.3174L16.1391 13.3312L19.5384 16.8942L15.5132 19.3174ZM21.5482 16.8942L25.0049 13.3427L25.6308 19.3059L21.5482 16.8942ZM27.3563 21.3759L31.4706 22.2918L29.0158 27.2243L27.3563 21.3759ZM29.0158 30.7757L31.4706 35.6422L27.3563 36.5581L29.0158 30.7757ZM29.5958 29.0015L32.6304 22.9808L38.6195 29.0015L32.6304 35.0077L29.5958 29.0015ZM34.4277 11.4995L34.8584 12.2575C35.7915 13.9313 36.5638 15.7515 37.2213 17.8445L37.2787 18.0484L33.3023 20.618L34.4277 11.4995ZM31.8696 21.1261L26.9946 20.0409L26.1878 12.358L33.1645 10.5492L31.8696 21.1261ZM28.4244 4.85877C29.857 5.83206 31.2897 7.19868 32.6764 8.92993L32.9492 9.26866L26.4146 10.9569L28.0971 4.63193L28.4244 4.85877ZM22.0937 2.38103C23.6871 2.56191 25.2317 3.03564 26.6874 3.80508L26.8912 3.90838L25.3121 9.91467L21.5826 2.32355L22.0937 2.38103ZM24.6862 11.7694L20.5376 16.0817L16.4004 11.7149L20.549 3.16197L24.6862 11.7694ZM14.072 3.9974C15.6281 3.11599 17.3334 2.56191 18.9929 2.38103L19.504 2.32355L15.7314 10.0496L13.8652 4.11227L14.072 3.9974ZM8.46762 8.94141C9.69643 7.30203 11.0372 5.98994 12.467 5.03962L12.7857 4.82425L14.695 10.9684L8.21786 9.26866L8.46762 8.94141ZM14.9017 12.3034L14.026 20.0409L9.21697 21.1261L7.85324 10.4917L14.9017 12.3034ZM3.79641 18.2063C4.39933 16.1822 5.19461 14.2356 6.22819 12.2575L6.65025 11.4421L7.78718 20.6955L3.73902 18.4216L3.79641 18.2063ZM2.27475 26.6702C2.38672 24.5427 2.7169 22.3808 3.29686 20.0524L3.37724 19.6906L7.58049 22.0535L2.22884 27.4052L2.27475 26.6702ZM3.35429 38.3123C2.76285 36.0154 2.38672 33.6842 2.27475 31.3873L2.22884 30.6408L7.6264 36.0384L3.45474 38.6855L3.35429 38.3123ZM6.66173 46.5034L6.22819 45.734C5.29797 44.0573 4.52279 42.237 3.86532 40.144L3.79641 39.9402L7.78433 37.3735L6.66173 46.5034ZM9.21697 36.8624L14.0949 37.9506L14.9017 45.6306L7.92211 47.4423L9.21697 36.8624ZM12.6507 53.1327C11.2296 52.1594 9.79695 50.7899 8.41023 49.0587L8.13747 48.7199L14.672 47.0346L12.9924 53.3567L12.6507 53.1327ZM18.9929 55.6105C17.4023 55.4296 15.8549 54.953 14.3906 54.1835L14.1954 54.083L15.7745 48.0739L19.504 55.6764L18.9929 55.6105ZM20.5376 54.8295L16.4004 46.2192L20.549 41.9098L24.6862 46.2766L20.5376 54.8295ZM27.006 54.0026C25.4126 54.8295 23.7876 55.3722 22.1626 55.6105L21.6401 55.6879L25.3466 47.9274L27.2214 53.8906L27.006 54.0026ZM32.6764 49.1275C31.2897 50.8014 29.9604 52.056 28.6196 52.9518L28.3009 53.1643L26.4605 47.0805L32.9492 48.7888L32.6764 49.1275ZM26.1878 45.688L27.0606 37.9506L31.8696 36.8624L33.2334 47.4968L26.1878 45.688ZM37.3476 39.7938C36.6557 41.8983 35.846 43.8449 34.8584 45.734L34.4392 46.5465L33.3023 37.3046L37.4165 39.567L37.3476 39.7938ZM38.8147 31.3184C38.6999 33.4458 38.3582 35.6192 37.7898 37.939L37.7007 38.3123L33.5061 35.935L38.8606 30.5834L38.8147 31.3184Z" stroke="black" stroke-opacity="0.2" stroke-width="0.22302"/>
<path d="M38.6425 18.2063C38.0194 16.0472 37.2127 14.0203 36.2451 12.1885C32.8343 5.74013 27.4597 1.56565 21.8554 1.05748C21.4477 1.01154 21.0257 1 20.6065 1C16.0386 1 11.2066 3.58975 7.69531 7.92504C3.77344 12.7656 1.42206 19.5643 1.04596 27.0778C1.0115 27.698 1 28.3555 1 29.0015C1 36.3198 2.97817 43.2563 6.56986 48.5046C6.72777 48.7314 6.88855 48.9467 7.04646 49.1707C9.8199 52.9518 14.8787 57 20.7299 57C28.8464 57 33.8018 50.1784 35.5532 47.2499C36.1188 46.2996 36.6327 45.2919 37.0863 44.2726C37.7352 42.7797 38.3037 41.1949 38.7573 39.567C40.7125 32.5874 40.678 25.2117 38.6425 18.2063ZM37.7352 19.6791C38.3237 21.976 38.6884 24.3044 38.8147 26.6128L38.8606 27.3477L33.4602 21.953L37.6318 19.3059L37.7352 19.6791ZM20.5376 40.2675L15.229 37.0892L12.9005 29.0015L15.229 20.8993L20.5376 17.7211L25.8576 20.8993L28.1861 29.0015L25.8576 37.0892L20.5376 40.2675ZM25.5734 38.674L24.936 44.6574L21.5482 41.1059L25.5734 38.674ZM19.4695 41.1059L16.0817 44.6574L15.4472 38.674L19.4695 41.1059ZM11.4909 29.0015L8.45614 35.0077L2.46712 29.0015L8.45614 22.9808L11.4909 29.0015ZM9.61607 22.3492L13.7303 21.442L12.0593 27.2128L9.61607 22.3492ZM12.0593 30.7643L13.7303 36.6155L9.61607 35.6968L12.0593 30.7643ZM15.5132 19.3174L16.1391 13.3312L19.5384 16.8942L15.5132 19.3174ZM21.5482 16.8942L25.0049 13.3427L25.6308 19.3059L21.5482 16.8942ZM27.3563 21.3759L31.4706 22.2918L29.0158 27.2243L27.3563 21.3759ZM29.0158 30.7757L31.4706 35.6422L27.3563 36.5581L29.0158 30.7757ZM29.5958 29.0015L32.6304 22.9808L38.6195 29.0015L32.6304 35.0077L29.5958 29.0015ZM34.4277 11.4995L34.8584 12.2575C35.7915 13.9313 36.5638 15.7515 37.2213 17.8445L37.2787 18.0484L33.3023 20.618L34.4277 11.4995ZM31.8696 21.1261L26.9946 20.0409L26.1878 12.358L33.1645 10.5492L31.8696 21.1261ZM28.4244 4.85877C29.857 5.83206 31.2897 7.19868 32.6764 8.92993L32.9492 9.26866L26.4146 10.9569L28.0971 4.63193L28.4244 4.85877ZM22.0937 2.38103C23.6871 2.56191 25.2317 3.03564 26.6874 3.80508L26.8912 3.90838L25.3121 9.91467L21.5826 2.32355L22.0937 2.38103ZM24.6862 11.7694L20.5376 16.0817L16.4004 11.7149L20.549 3.16197L24.6862 11.7694ZM14.072 3.9974C15.6281 3.11599 17.3334 2.56191 18.9929 2.38103L19.504 2.32355L15.7314 10.0496L13.8652 4.11227L14.072 3.9974ZM8.46762 8.94141C9.69643 7.30203 11.0372 5.98994 12.467 5.03962L12.7857 4.82425L14.695 10.9684L8.21786 9.26866L8.46762 8.94141ZM14.9017 12.3034L14.026 20.0409L9.21697 21.1261L7.85324 10.4917L14.9017 12.3034ZM3.79641 18.2063C4.39933 16.1822 5.19461 14.2356 6.22819 12.2575L6.65025 11.4421L7.78718 20.6955L3.73902 18.4216L3.79641 18.2063ZM2.27475 26.6702C2.38672 24.5427 2.7169 22.3808 3.29686 20.0524L3.37724 19.6906L7.58049 22.0535L2.22884 27.4052L2.27475 26.6702ZM3.35429 38.3123C2.76285 36.0154 2.38672 33.6842 2.27475 31.3873L2.22884 30.6408L7.6264 36.0384L3.45474 38.6855L3.35429 38.3123ZM6.66173 46.5034L6.22819 45.734C5.29797 44.0573 4.52279 42.237 3.86532 40.144L3.79641 39.9402L7.78433 37.3735L6.66173 46.5034ZM9.21697 36.8624L14.0949 37.9506L14.9017 45.6306L7.92211 47.4423L9.21697 36.8624ZM12.6507 53.1327C11.2296 52.1594 9.79695 50.7899 8.41023 49.0587L8.13747 48.7199L14.672 47.0346L12.9924 53.3567L12.6507 53.1327ZM18.9929 55.6105C17.4023 55.4296 15.8549 54.953 14.3906 54.1835L14.1954 54.083L15.7745 48.0739L19.504 55.6764L18.9929 55.6105ZM20.5376 54.8295L16.4004 46.2192L20.549 41.9098L24.6862 46.2766L20.5376 54.8295ZM27.006 54.0026C25.4126 54.8295 23.7876 55.3722 22.1626 55.6105L21.6401 55.6879L25.3466 47.9274L27.2214 53.8906L27.006 54.0026ZM32.6764 49.1275C31.2897 50.8014 29.9604 52.056 28.6196 52.9518L28.3009 53.1643L26.4605 47.0805L32.9492 48.7888L32.6764 49.1275ZM26.1878 45.688L27.0606 37.9506L31.8696 36.8624L33.2334 47.4968L26.1878 45.688ZM37.3476 39.7938C36.6557 41.8983 35.846 43.8449 34.8584 45.734L34.4392 46.5465L33.3023 37.3046L37.4165 39.567L37.3476 39.7938ZM38.8147 31.3184C38.6999 33.4458 38.3582 35.6192 37.7898 37.939L37.7007 38.3123L33.5061 35.935L38.8606 30.5834L38.8147 31.3184Z" stroke="black" stroke-opacity="0.2" stroke-width="0.22302"/>
<path d="M38.6425 18.2063C38.0194 16.0472 37.2127 14.0203 36.2451 12.1885C32.8343 5.74013 27.4597 1.56565 21.8554 1.05748C21.4477 1.01154 21.0257 1 20.6065 1C16.0386 1 11.2066 3.58975 7.69531 7.92504C3.77344 12.7656 1.42206 19.5643 1.04596 27.0778C1.0115 27.698 1 28.3555 1 29.0015C1 36.3198 2.97817 43.2563 6.56986 48.5046C6.72777 48.7314 6.88855 48.9467 7.04646 49.1707C9.8199 52.9518 14.8787 57 20.7299 57C28.8464 57 33.8018 50.1784 35.5532 47.2499C36.1188 46.2996 36.6327 45.2919 37.0863 44.2726C37.7352 42.7797 38.3037 41.1949 38.7573 39.567C40.7125 32.5874 40.678 25.2117 38.6425 18.2063ZM37.7352 19.6791C38.3237 21.976 38.6884 24.3044 38.8147 26.6128L38.8606 27.3477L33.4602 21.953L37.6318 19.3059L37.7352 19.6791ZM20.5376 40.2675L15.229 37.0892L12.9005 29.0015L15.229 20.8993L20.5376 17.7211L25.8576 20.8993L28.1861 29.0015L25.8576 37.0892L20.5376 40.2675ZM25.5734 38.674L24.936 44.6574L21.5482 41.1059L25.5734 38.674ZM19.4695 41.1059L16.0817 44.6574L15.4472 38.674L19.4695 41.1059ZM11.4909 29.0015L8.45614 35.0077L2.46712 29.0015L8.45614 22.9808L11.4909 29.0015ZM9.61607 22.3492L13.7303 21.442L12.0593 27.2128L9.61607 22.3492ZM12.0593 30.7643L13.7303 36.6155L9.61607 35.6968L12.0593 30.7643ZM15.5132 19.3174L16.1391 13.3312L19.5384 16.8942L15.5132 19.3174ZM21.5482 16.8942L25.0049 13.3427L25.6308 19.3059L21.5482 16.8942ZM27.3563 21.3759L31.4706 22.2918L29.0158 27.2243L27.3563 21.3759ZM29.0158 30.7757L31.4706 35.6422L27.3563 36.5581L29.0158 30.7757ZM29.5958 29.0015L32.6304 22.9808L38.6195 29.0015L32.6304 35.0077L29.5958 29.0015ZM34.4277 11.4995L34.8584 12.2575C35.7915 13.9313 36.5638 15.7515 37.2213 17.8445L37.2787 18.0484L33.3023 20.618L34.4277 11.4995ZM31.8696 21.1261L26.9946 20.0409L26.1878 12.358L33.1645 10.5492L31.8696 21.1261ZM28.4244 4.85877C29.857 5.83206 31.2897 7.19868 32.6764 8.92993L32.9492 9.26866L26.4146 10.9569L28.0971 4.63193L28.4244 4.85877ZM22.0937 2.38103C23.6871 2.56191 25.2317 3.03564 26.6874 3.80508L26.8912 3.90838L25.3121 9.91467L21.5826 2.32355L22.0937 2.38103ZM24.6862 11.7694L20.5376 16.0817L16.4004 11.7149L20.549 3.16197L24.6862 11.7694ZM14.072 3.9974C15.6281 3.11599 17.3334 2.56191 18.9929 2.38103L19.504 2.32355L15.7314 10.0496L13.8652 4.11227L14.072 3.9974ZM8.46762 8.94141C9.69643 7.30203 11.0372 5.98994 12.467 5.03962L12.7857 4.82425L14.695 10.9684L8.21786 9.26866L8.46762 8.94141ZM14.9017 12.3034L14.026 20.0409L9.21697 21.1261L7.85324 10.4917L14.9017 12.3034ZM3.79641 18.2063C4.39933 16.1822 5.19461 14.2356 6.22819 12.2575L6.65025 11.4421L7.78718 20.6955L3.73902 18.4216L3.79641 18.2063ZM2.27475 26.6702C2.38672 24.5427 2.7169 22.3808 3.29686 20.0524L3.37724 19.6906L7.58049 22.0535L2.22884 27.4052L2.27475 26.6702ZM3.35429 38.3123C2.76285 36.0154 2.38672 33.6842 2.27475 31.3873L2.22884 30.6408L7.6264 36.0384L3.45474 38.6855L3.35429 38.3123ZM6.66173 46.5034L6.22819 45.734C5.29797 44.0573 4.52279 42.237 3.86532 40.144L3.79641 39.9402L7.78433 37.3735L6.66173 46.5034ZM9.21697 36.8624L14.0949 37.9506L14.9017 45.6306L7.92211 47.4423L9.21697 36.8624ZM12.6507 53.1327C11.2296 52.1594 9.79695 50.7899 8.41023 49.0587L8.13747 48.7199L14.672 47.0346L12.9924 53.3567L12.6507 53.1327ZM18.9929 55.6105C17.4023 55.4296 15.8549 54.953 14.3906 54.1835L14.1954 54.083L15.7745 48.0739L19.504 55.6764L18.9929 55.6105ZM20.5376 54.8295L16.4004 46.2192L20.549 41.9098L24.6862 46.2766L20.5376 54.8295ZM27.006 54.0026C25.4126 54.8295 23.7876 55.3722 22.1626 55.6105L21.6401 55.6879L25.3466 47.9274L27.2214 53.8906L27.006 54.0026ZM32.6764 49.1275C31.2897 50.8014 29.9604 52.056 28.6196 52.9518L28.3009 53.1643L26.4605 47.0805L32.9492 48.7888L32.6764 49.1275ZM26.1878 45.688L27.0606 37.9506L31.8696 36.8624L33.2334 47.4968L26.1878 45.688ZM37.3476 39.7938C36.6557 41.8983 35.846 43.8449 34.8584 45.734L34.4392 46.5465L33.3023 37.3046L37.4165 39.567L37.3476 39.7938ZM38.8147 31.3184C38.6999 33.4458 38.3582 35.6192 37.7898 37.939L37.7007 38.3123L33.5061 35.935L38.8606 30.5834L38.8147 31.3184Z" stroke="black" stroke-opacity="0.2" stroke-width="0.22302"/>
<path d="M38.6425 18.2063C38.0194 16.0472 37.2127 14.0203 36.2451 12.1885C32.8343 5.74013 27.4597 1.56565 21.8554 1.05748C21.4477 1.01154 21.0257 1 20.6065 1C16.0386 1 11.2066 3.58975 7.69531 7.92504C3.77344 12.7656 1.42206 19.5643 1.04596 27.0778C1.0115 27.698 1 28.3555 1 29.0015C1 36.3198 2.97817 43.2563 6.56986 48.5046C6.72777 48.7314 6.88855 48.9467 7.04646 49.1707C9.8199 52.9518 14.8787 57 20.7299 57C28.8464 57 33.8018 50.1784 35.5532 47.2499C36.1188 46.2996 36.6327 45.2919 37.0863 44.2726C37.7352 42.7797 38.3037 41.1949 38.7573 39.567C40.7125 32.5874 40.678 25.2117 38.6425 18.2063ZM37.7352 19.6791C38.3237 21.976 38.6884 24.3044 38.8147 26.6128L38.8606 27.3477L33.4602 21.953L37.6318 19.3059L37.7352 19.6791ZM20.5376 40.2675L15.229 37.0892L12.9005 29.0015L15.229 20.8993L20.5376 17.7211L25.8576 20.8993L28.1861 29.0015L25.8576 37.0892L20.5376 40.2675ZM25.5734 38.674L24.936 44.6574L21.5482 41.1059L25.5734 38.674ZM19.4695 41.1059L16.0817 44.6574L15.4472 38.674L19.4695 41.1059ZM11.4909 29.0015L8.45614 35.0077L2.46712 29.0015L8.45614 22.9808L11.4909 29.0015ZM9.61607 22.3492L13.7303 21.442L12.0593 27.2128L9.61607 22.3492ZM12.0593 30.7643L13.7303 36.6155L9.61607 35.6968L12.0593 30.7643ZM15.5132 19.3174L16.1391 13.3312L19.5384 16.8942L15.5132 19.3174ZM21.5482 16.8942L25.0049 13.3427L25.6308 19.3059L21.5482 16.8942ZM27.3563 21.3759L31.4706 22.2918L29.0158 27.2243L27.3563 21.3759ZM29.0158 30.7757L31.4706 35.6422L27.3563 36.5581L29.0158 30.7757ZM29.5958 29.0015L32.6304 22.9808L38.6195 29.0015L32.6304 35.0077L29.5958 29.0015ZM34.4277 11.4995L34.8584 12.2575C35.7915 13.9313 36.5638 15.7515 37.2213 17.8445L37.2787 18.0484L33.3023 20.618L34.4277 11.4995ZM31.8696 21.1261L26.9946 20.0409L26.1878 12.358L33.1645 10.5492L31.8696 21.1261ZM28.4244 4.85877C29.857 5.83206 31.2897 7.19868 32.6764 8.92993L32.9492 9.26866L26.4146 10.9569L28.0971 4.63193L28.4244 4.85877ZM22.0937 2.38103C23.6871 2.56191 25.2317 3.03564 26.6874 3.80508L26.8912 3.90838L25.3121 9.91467L21.5826 2.32355L22.0937 2.38103ZM24.6862 11.7694L20.5376 16.0817L16.4004 11.7149L20.549 3.16197L24.6862 11.7694ZM14.072 3.9974C15.6281 3.11599 17.3334 2.56191 18.9929 2.38103L19.504 2.32355L15.7314 10.0496L13.8652 4.11227L14.072 3.9974ZM8.46762 8.94141C9.69643 7.30203 11.0372 5.98994 12.467 5.03962L12.7857 4.82425L14.695 10.9684L8.21786 9.26866L8.46762 8.94141ZM14.9017 12.3034L14.026 20.0409L9.21697 21.1261L7.85324 10.4917L14.9017 12.3034ZM3.79641 18.2063C4.39933 16.1822 5.19461 14.2356 6.22819 12.2575L6.65025 11.4421L7.78718 20.6955L3.73902 18.4216L3.79641 18.2063ZM2.27475 26.6702C2.38672 24.5427 2.7169 22.3808 3.29686 20.0524L3.37724 19.6906L7.58049 22.0535L2.22884 27.4052L2.27475 26.6702ZM3.35429 38.3123C2.76285 36.0154 2.38672 33.6842 2.27475 31.3873L2.22884 30.6408L7.6264 36.0384L3.45474 38.6855L3.35429 38.3123ZM6.66173 46.5034L6.22819 45.734C5.29797 44.0573 4.52279 42.237 3.86532 40.144L3.79641 39.9402L7.78433 37.3735L6.66173 46.5034ZM9.21697 36.8624L14.0949 37.9506L14.9017 45.6306L7.92211 47.4423L9.21697 36.8624ZM12.6507 53.1327C11.2296 52.1594 9.79695 50.7899 8.41023 49.0587L8.13747 48.7199L14.672 47.0346L12.9924 53.3567L12.6507 53.1327ZM18.9929 55.6105C17.4023 55.4296 15.8549 54.953 14.3906 54.1835L14.1954 54.083L15.7745 48.0739L19.504 55.6764L18.9929 55.6105ZM20.5376 54.8295L16.4004 46.2192L20.549 41.9098L24.6862 46.2766L20.5376 54.8295ZM27.006 54.0026C25.4126 54.8295 23.7876 55.3722 22.1626 55.6105L21.6401 55.6879L25.3466 47.9274L27.2214 53.8906L27.006 54.0026ZM32.6764 49.1275C31.2897 50.8014 29.9604 52.056 28.6196 52.9518L28.3009 53.1643L26.4605 47.0805L32.9492 48.7888L32.6764 49.1275ZM26.1878 45.688L27.0606 37.9506L31.8696 36.8624L33.2334 47.4968L26.1878 45.688ZM37.3476 39.7938C36.6557 41.8983 35.846 43.8449 34.8584 45.734L34.4392 46.5465L33.3023 37.3046L37.4165 39.567L37.3476 39.7938ZM38.8147 31.3184C38.6999 33.4458 38.3582 35.6192 37.7898 37.939L37.7007 38.3123L33.5061 35.935L38.8606 30.5834L38.8147 31.3184Z" stroke="black" stroke-opacity="0.2" stroke-width="0.22302"/>
<path d="M38.6425 18.2063C38.0194 16.0472 37.2127 14.0203 36.2451 12.1885C32.8343 5.74013 27.4597 1.56565 21.8554 1.05748C21.4477 1.01154 21.0257 1 20.6065 1C16.0386 1 11.2066 3.58975 7.69531 7.92504C3.77344 12.7656 1.42206 19.5643 1.04596 27.0778C1.0115 27.698 1 28.3555 1 29.0015C1 36.3198 2.97817 43.2563 6.56986 48.5046C6.72777 48.7314 6.88855 48.9467 7.04646 49.1707C9.8199 52.9518 14.8787 57 20.7299 57C28.8464 57 33.8018 50.1784 35.5532 47.2499C36.1188 46.2996 36.6327 45.2919 37.0863 44.2726C37.7352 42.7797 38.3037 41.1949 38.7573 39.567C40.7125 32.5874 40.678 25.2117 38.6425 18.2063ZM37.7352 19.6791C38.3237 21.976 38.6884 24.3044 38.8147 26.6128L38.8606 27.3477L33.4602 21.953L37.6318 19.3059L37.7352 19.6791ZM20.5376 40.2675L15.229 37.0892L12.9005 29.0015L15.229 20.8993L20.5376 17.7211L25.8576 20.8993L28.1861 29.0015L25.8576 37.0892L20.5376 40.2675ZM25.5734 38.674L24.936 44.6574L21.5482 41.1059L25.5734 38.674ZM19.4695 41.1059L16.0817 44.6574L15.4472 38.674L19.4695 41.1059ZM11.4909 29.0015L8.45614 35.0077L2.46712 29.0015L8.45614 22.9808L11.4909 29.0015ZM9.61607 22.3492L13.7303 21.442L12.0593 27.2128L9.61607 22.3492ZM12.0593 30.7643L13.7303 36.6155L9.61607 35.6968L12.0593 30.7643ZM15.5132 19.3174L16.1391 13.3312L19.5384 16.8942L15.5132 19.3174ZM21.5482 16.8942L25.0049 13.3427L25.6308 19.3059L21.5482 16.8942ZM27.3563 21.3759L31.4706 22.2918L29.0158 27.2243L27.3563 21.3759ZM29.0158 30.7757L31.4706 35.6422L27.3563 36.5581L29.0158 30.7757ZM29.5958 29.0015L32.6304 22.9808L38.6195 29.0015L32.6304 35.0077L29.5958 29.0015ZM34.4277 11.4995L34.8584 12.2575C35.7915 13.9313 36.5638 15.7515 37.2213 17.8445L37.2787 18.0484L33.3023 20.618L34.4277 11.4995ZM31.8696 21.1261L26.9946 20.0409L26.1878 12.358L33.1645 10.5492L31.8696 21.1261ZM28.4244 4.85877C29.857 5.83206 31.2897 7.19868 32.6764 8.92993L32.9492 9.26866L26.4146 10.9569L28.0971 4.63193L28.4244 4.85877ZM22.0937 2.38103C23.6871 2.56191 25.2317 3.03564 26.6874 3.80508L26.8912 3.90838L25.3121 9.91467L21.5826 2.32355L22.0937 2.38103ZM24.6862 11.7694L20.5376 16.0817L16.4004 11.7149L20.549 3.16197L24.6862 11.7694ZM14.072 3.9974C15.6281 3.11599 17.3334 2.56191 18.9929 2.38103L19.504 2.32355L15.7314 10.0496L13.8652 4.11227L14.072 3.9974ZM8.46762 8.94141C9.69643 7.30203 11.0372 5.98994 12.467 5.03962L12.7857 4.82425L14.695 10.9684L8.21786 9.26866L8.46762 8.94141ZM14.9017 12.3034L14.026 20.0409L9.21697 21.1261L7.85324 10.4917L14.9017 12.3034ZM3.79641 18.2063C4.39933 16.1822 5.19461 14.2356 6.22819 12.2575L6.65025 11.4421L7.78718 20.6955L3.73902 18.4216L3.79641 18.2063ZM2.27475 26.6702C2.38672 24.5427 2.7169 22.3808 3.29686 20.0524L3.37724 19.6906L7.58049 22.0535L2.22884 27.4052L2.27475 26.6702ZM3.35429 38.3123C2.76285 36.0154 2.38672 33.6842 2.27475 31.3873L2.22884 30.6408L7.6264 36.0384L3.45474 38.6855L3.35429 38.3123ZM6.66173 46.5034L6.22819 45.734C5.29797 44.0573 4.52279 42.237 3.86532 40.144L3.79641 39.9402L7.78433 37.3735L6.66173 46.5034ZM9.21697 36.8624L14.0949 37.9506L14.9017 45.6306L7.92211 47.4423L9.21697 36.8624ZM12.6507 53.1327C11.2296 52.1594 9.79695 50.7899 8.41023 49.0587L8.13747 48.7199L14.672 47.0346L12.9924 53.3567L12.6507 53.1327ZM18.9929 55.6105C17.4023 55.4296 15.8549 54.953 14.3906 54.1835L14.1954 54.083L15.7745 48.0739L19.504 55.6764L18.9929 55.6105ZM20.5376 54.8295L16.4004 46.2192L20.549 41.9098L24.6862 46.2766L20.5376 54.8295ZM27.006 54.0026C25.4126 54.8295 23.7876 55.3722 22.1626 55.6105L21.6401 55.6879L25.3466 47.9274L27.2214 53.8906L27.006 54.0026ZM32.6764 49.1275C31.2897 50.8014 29.9604 52.056 28.6196 52.9518L28.3009 53.1643L26.4605 47.0805L32.9492 48.7888L32.6764 49.1275ZM26.1878 45.688L27.0606 37.9506L31.8696 36.8624L33.2334 47.4968L26.1878 45.688ZM37.3476 39.7938C36.6557 41.8983 35.846 43.8449 34.8584 45.734L34.4392 46.5465L33.3023 37.3046L37.4165 39.567L37.3476 39.7938ZM38.8147 31.3184C38.6999 33.4458 38.3582 35.6192 37.7898 37.939L37.7007 38.3123L33.5061 35.935L38.8606 30.5834L38.8147 31.3184Z" stroke="black" stroke-opacity="0.2" stroke-width="0.22302"/>
<path d="M38.6425 18.2063C38.0194 16.0472 37.2127 14.0203 36.2451 12.1885C32.8343 5.74013 27.4597 1.56565 21.8554 1.05748C21.4477 1.01154 21.0257 1 20.6065 1C16.0386 1 11.2066 3.58975 7.69531 7.92504C3.77344 12.7656 1.42206 19.5643 1.04596 27.0778C1.0115 27.698 1 28.3555 1 29.0015C1 36.3198 2.97817 43.2563 6.56986 48.5046C6.72777 48.7314 6.88855 48.9467 7.04646 49.1707C9.8199 52.9518 14.8787 57 20.7299 57C28.8464 57 33.8018 50.1784 35.5532 47.2499C36.1188 46.2996 36.6327 45.2919 37.0863 44.2726C37.7352 42.7797 38.3037 41.1949 38.7573 39.567C40.7125 32.5874 40.678 25.2117 38.6425 18.2063ZM37.7352 19.6791C38.3237 21.976 38.6884 24.3044 38.8147 26.6128L38.8606 27.3477L33.4602 21.953L37.6318 19.3059L37.7352 19.6791ZM20.5376 40.2675L15.229 37.0892L12.9005 29.0015L15.229 20.8993L20.5376 17.7211L25.8576 20.8993L28.1861 29.0015L25.8576 37.0892L20.5376 40.2675ZM25.5734 38.674L24.936 44.6574L21.5482 41.1059L25.5734 38.674ZM19.4695 41.1059L16.0817 44.6574L15.4472 38.674L19.4695 41.1059ZM11.4909 29.0015L8.45614 35.0077L2.46712 29.0015L8.45614 22.9808L11.4909 29.0015ZM9.61607 22.3492L13.7303 21.442L12.0593 27.2128L9.61607 22.3492ZM12.0593 30.7643L13.7303 36.6155L9.61607 35.6968L12.0593 30.7643ZM15.5132 19.3174L16.1391 13.3312L19.5384 16.8942L15.5132 19.3174ZM21.5482 16.8942L25.0049 13.3427L25.6308 19.3059L21.5482 16.8942ZM27.3563 21.3759L31.4706 22.2918L29.0158 27.2243L27.3563 21.3759ZM29.0158 30.7757L31.4706 35.6422L27.3563 36.5581L29.0158 30.7757ZM29.5958 29.0015L32.6304 22.9808L38.6195 29.0015L32.6304 35.0077L29.5958 29.0015ZM34.4277 11.4995L34.8584 12.2575C35.7915 13.9313 36.5638 15.7515 37.2213 17.8445L37.2787 18.0484L33.3023 20.618L34.4277 11.4995ZM31.8696 21.1261L26.9946 20.0409L26.1878 12.358L33.1645 10.5492L31.8696 21.1261ZM28.4244 4.85877C29.857 5.83206 31.2897 7.19868 32.6764 8.92993L32.9492 9.26866L26.4146 10.9569L28.0971 4.63193L28.4244 4.85877ZM22.0937 2.38103C23.6871 2.56191 25.2317 3.03564 26.6874 3.80508L26.8912 3.90838L25.3121 9.91467L21.5826 2.32355L22.0937 2.38103ZM24.6862 11.7694L20.5376 16.0817L16.4004 11.7149L20.549 3.16197L24.6862 11.7694ZM14.072 3.9974C15.6281 3.11599 17.3334 2.56191 18.9929 2.38103L19.504 2.32355L15.7314 10.0496L13.8652 4.11227L14.072 3.9974ZM8.46762 8.94141C9.69643 7.30203 11.0372 5.98994 12.467 5.03962L12.7857 4.82425L14.695 10.9684L8.21786 9.26866L8.46762 8.94141ZM14.9017 12.3034L14.026 20.0409L9.21697 21.1261L7.85324 10.4917L14.9017 12.3034ZM3.79641 18.2063C4.39933 16.1822 5.19461 14.2356 6.22819 12.2575L6.65025 11.4421L7.78718 20.6955L3.73902 18.4216L3.79641 18.2063ZM2.27475 26.6702C2.38672 24.5427 2.7169 22.3808 3.29686 20.0524L3.37724 19.6906L7.58049 22.0535L2.22884 27.4052L2.27475 26.6702ZM3.35429 38.3123C2.76285 36.0154 2.38672 33.6842 2.27475 31.3873L2.22884 30.6408L7.6264 36.0384L3.45474 38.6855L3.35429 38.3123ZM6.66173 46.5034L6.22819 45.734C5.29797 44.0573 4.52279 42.237 3.86532 40.144L3.79641 39.9402L7.78433 37.3735L6.66173 46.5034ZM9.21697 36.8624L14.0949 37.9506L14.9017 45.6306L7.92211 47.4423L9.21697 36.8624ZM12.6507 53.1327C11.2296 52.1594 9.79695 50.7899 8.41023 49.0587L8.13747 48.7199L14.672 47.0346L12.9924 53.3567L12.6507 53.1327ZM18.9929 55.6105C17.4023 55.4296 15.8549 54.953 14.3906 54.1835L14.1954 54.083L15.7745 48.0739L19.504 55.6764L18.9929 55.6105ZM20.5376 54.8295L16.4004 46.2192L20.549 41.9098L24.6862 46.2766L20.5376 54.8295ZM27.006 54.0026C25.4126 54.8295 23.7876 55.3722 22.1626 55.6105L21.6401 55.6879L25.3466 47.9274L27.2214 53.8906L27.006 54.0026ZM32.6764 49.1275C31.2897 50.8014 29.9604 52.056 28.6196 52.9518L28.3009 53.1643L26.4605 47.0805L32.9492 48.7888L32.6764 49.1275ZM26.1878 45.688L27.0606 37.9506L31.8696 36.8624L33.2334 47.4968L26.1878 45.688ZM37.3476 39.7938C36.6557 41.8983 35.846 43.8449 34.8584 45.734L34.4392 46.5465L33.3023 37.3046L37.4165 39.567L37.3476 39.7938ZM38.8147 31.3184C38.6999 33.4458 38.3582 35.6192 37.7898 37.939L37.7007 38.3123L33.5061 35.935L38.8606 30.5834L38.8147 31.3184Z" stroke="black" stroke-opacity="0.2" stroke-width="0.22302"/>
</svg>
