<svg width="67" height="17" viewBox="0 0 67 17" fill="none" xmlns="http://www.w3.org/2000/svg">
<g id="logo">
<path id="Vector" d="M17.6036 4.58496H24.3864V5.91209H21.7194V13.3726H20.2529V5.91209H17.5977L17.6036 4.58496ZM24.0967 7.00977H25.3504V8.23767H25.374C25.4154 8.06403 25.4923 7.89659 25.6046 7.73535C25.717 7.57411 25.853 7.41907 26.0127 7.28884C26.1723 7.1524 26.3497 7.04698 26.5449 6.96015C26.74 6.87953 26.9411 6.83612 27.1422 6.83612C27.2959 6.83612 27.4083 6.84233 27.4674 6.84853C27.5265 6.85473 27.5857 6.86713 27.6507 6.87333V8.22527C27.5561 8.20667 27.4615 8.19426 27.361 8.18186C27.2604 8.16946 27.1658 8.16326 27.0712 8.16326C26.8465 8.16326 26.6336 8.21287 26.4325 8.30589C26.2315 8.39891 26.06 8.54155 25.9121 8.7214C25.7643 8.90744 25.646 9.1307 25.5573 9.40357C25.4686 9.67643 25.4272 9.98651 25.4272 10.34V13.3664H24.0908L24.0967 7.00977ZM33.7949 13.3726H32.4821V12.4857H32.4585C32.2929 12.8082 32.0504 13.0625 31.7252 13.2547C31.3999 13.447 31.0688 13.5462 30.7317 13.5462C29.9334 13.5462 29.3538 13.3415 28.999 12.926C28.6442 12.5105 28.4668 11.8842 28.4668 11.047V7.00977H29.8033V10.9105C29.8033 11.4687 29.9038 11.8656 30.1108 12.095C30.3118 12.3245 30.6016 12.4423 30.9682 12.4423C31.2521 12.4423 31.4827 12.3989 31.672 12.3059C31.8612 12.2129 32.0149 12.095 32.1273 11.94C32.2456 11.7912 32.3284 11.6051 32.3816 11.3943C32.4348 11.1834 32.4585 10.954 32.4585 10.7059V7.01597H33.7949V13.3726ZM36.0717 11.3322C36.1131 11.7415 36.2609 12.0268 36.5152 12.1943C36.7754 12.3555 37.0829 12.4423 37.4436 12.4423C37.5678 12.4423 37.7097 12.4299 37.8694 12.4113C38.0291 12.3927 38.1828 12.3493 38.3188 12.2935C38.4607 12.2377 38.5731 12.1509 38.6677 12.0392C38.7564 11.9276 38.7978 11.785 38.7919 11.6051C38.786 11.4253 38.7209 11.2764 38.6027 11.1648C38.4844 11.047 38.3366 10.9602 38.1532 10.8857C37.9699 10.8175 37.7629 10.7555 37.5264 10.7059C37.2899 10.6563 37.0533 10.6005 36.8109 10.5447C36.5625 10.4888 36.32 10.4144 36.0894 10.3338C35.8588 10.2532 35.6518 10.1415 35.4685 9.99891C35.2852 9.86248 35.1373 9.68263 35.0309 9.46558C34.9185 9.24853 34.8653 8.98186 34.8653 8.65938C34.8653 8.31209 34.9481 8.02682 35.1077 7.79116C35.2674 7.5555 35.4744 7.36946 35.7168 7.22682C35.9652 7.08419 36.2372 6.98496 36.5388 6.92295C36.8404 6.86713 37.1302 6.83612 37.4022 6.83612C37.7156 6.83612 38.0172 6.87333 38.3011 6.94155C38.5849 7.00977 38.8451 7.1214 39.0758 7.28264C39.3064 7.43767 39.4956 7.64232 39.6494 7.89039C39.8031 8.13845 39.8977 8.44232 39.9391 8.79581H38.5435C38.4785 8.46093 38.3366 8.23147 38.1059 8.11984C37.8753 8.00202 37.6092 7.9462 37.3135 7.9462C37.2189 7.9462 37.1065 7.9524 36.9764 7.97101C36.8463 7.98961 36.7281 8.02062 36.6098 8.06403C36.4974 8.10744 36.4028 8.17566 36.32 8.26248C36.2432 8.3493 36.2018 8.46093 36.2018 8.60356C36.2018 8.77721 36.2609 8.91364 36.3732 9.01907C36.4856 9.1245 36.6334 9.21132 36.8168 9.28574C37.0001 9.35395 37.2071 9.41597 37.4436 9.46558C37.6802 9.51519 37.9226 9.57101 38.171 9.62682C38.4134 9.68263 38.65 9.75705 38.8865 9.83767C39.1231 9.91829 39.33 10.0299 39.5134 10.1726C39.6967 10.3152 39.8445 10.4888 39.9569 10.6997C40.0692 10.9105 40.1284 11.1772 40.1284 11.4873C40.1284 11.8656 40.0456 12.1819 39.88 12.4485C39.7144 12.709 39.5015 12.926 39.2413 13.0873C38.9811 13.2485 38.6855 13.3726 38.3661 13.447C38.0468 13.5214 37.7275 13.5586 37.414 13.5586C37.0297 13.5586 36.6748 13.5152 36.3496 13.4222C36.0244 13.3291 35.7405 13.1927 35.504 13.0129C35.2674 12.8268 35.0782 12.5974 34.9422 12.3245C34.8062 12.0516 34.7352 11.7229 34.7234 11.3447H36.0717V11.3322ZM40.4832 7.00977H41.4944V5.09969H42.8309V7.00977H44.0372V8.05783H42.8309V11.4563C42.8309 11.6051 42.8368 11.7291 42.8486 11.8408C42.8604 11.9462 42.89 12.0392 42.9314 12.1136C42.9728 12.1881 43.0378 12.2439 43.1266 12.2811C43.2153 12.3183 43.3276 12.3369 43.4814 12.3369C43.576 12.3369 43.6706 12.3369 43.7652 12.3307C43.8598 12.3245 43.9545 12.3121 44.0491 12.2873V13.3726C43.9012 13.3912 43.7534 13.4036 43.6174 13.4222C43.4755 13.4408 43.3335 13.447 43.1857 13.447C42.8309 13.447 42.547 13.4098 42.3341 13.3415C42.1212 13.2733 41.9498 13.1679 41.8315 13.0315C41.7073 12.895 41.6304 12.7276 41.5831 12.5229C41.5417 12.3183 41.5121 12.0826 41.5062 11.8222V8.07023H40.495V7.00977H40.4832ZM44.9834 7.00977H46.2489V7.87178H46.2726C46.4618 7.49969 46.722 7.23922 47.0591 7.07798C47.3962 6.91674 47.7569 6.83612 48.1531 6.83612C48.6321 6.83612 49.046 6.92295 49.4009 7.10279C49.7557 7.27643 50.0513 7.51829 50.2879 7.82837C50.5244 8.13845 50.6959 8.49814 50.8142 8.90744C50.9325 9.31674 50.9916 9.75705 50.9916 10.2222C50.9916 10.6501 50.9384 11.0656 50.8319 11.4625C50.7255 11.8656 50.5658 12.2191 50.3529 12.5291C50.14 12.8392 49.868 13.0811 49.5369 13.2671C49.2057 13.4532 48.8213 13.5462 48.3719 13.5462C48.1767 13.5462 47.9816 13.5276 47.7864 13.4904C47.5913 13.4532 47.4021 13.3912 47.2247 13.3105C47.0472 13.2299 46.8758 13.1245 46.7279 12.9943C46.5742 12.864 46.45 12.7152 46.3435 12.5478H46.3199V15.7229H44.9834V7.00977ZM49.6551 10.1974C49.6551 9.91209 49.6197 9.63302 49.5487 9.36015C49.4777 9.08729 49.3713 8.85163 49.2294 8.64077C49.0874 8.42992 48.91 8.26248 48.7031 8.13845C48.4902 8.01442 48.2477 7.9462 47.9757 7.9462C47.4139 7.9462 46.9881 8.15085 46.7043 8.56015C46.4204 8.96946 46.2785 9.51519 46.2785 10.1974C46.2785 10.5198 46.314 10.8175 46.3908 11.0904C46.4677 11.3633 46.5742 11.5989 46.7279 11.7974C46.8758 11.9958 47.0532 12.1509 47.2601 12.2625C47.4671 12.3803 47.7096 12.4361 47.9816 12.4361C48.2891 12.4361 48.5434 12.3679 48.7563 12.2377C48.9692 12.1074 49.1407 11.9338 49.2767 11.7291C49.4127 11.5183 49.5132 11.2826 49.5723 11.016C49.6256 10.7493 49.6551 10.4764 49.6551 10.1974ZM52.0147 4.58496H53.3511V5.91209H52.0147V4.58496ZM52.0147 7.00977H53.3511V13.3726H52.0147V7.00977ZM54.5457 4.58496H55.8821V13.3726H54.5457V4.58496ZM59.9802 13.5462C59.4953 13.5462 59.0636 13.4594 58.6852 13.2919C58.3067 13.1245 57.9874 12.8888 57.7212 12.5974C57.4611 12.2997 57.26 11.9462 57.124 11.5369C56.988 11.1276 56.917 10.6749 56.917 10.185C56.917 9.70124 56.988 9.25473 57.124 8.84543C57.26 8.43612 57.4611 8.08263 57.7212 7.78496C57.9814 7.48729 58.3067 7.25783 58.6852 7.09039C59.0636 6.92295 59.4953 6.83612 59.9802 6.83612C60.4651 6.83612 60.8968 6.92295 61.2753 7.09039C61.6538 7.25783 61.9731 7.49349 62.2392 7.78496C62.4994 8.08263 62.7005 8.43612 62.8365 8.84543C62.9725 9.25473 63.0435 9.70124 63.0435 10.185C63.0435 10.6749 62.9725 11.1276 62.8365 11.5369C62.7005 11.9462 62.4994 12.2997 62.2392 12.5974C61.979 12.895 61.6538 13.1245 61.2753 13.2919C60.8968 13.4594 60.4651 13.5462 59.9802 13.5462ZM59.9802 12.4361C60.2759 12.4361 60.5361 12.3679 60.7549 12.2377C60.9737 12.1074 61.1511 11.9338 61.293 11.7229C61.435 11.5121 61.5355 11.2702 61.6065 11.0036C61.6715 10.7369 61.707 10.464 61.707 10.185C61.707 9.91209 61.6715 9.64543 61.6065 9.37256C61.5414 9.09969 61.435 8.86403 61.293 8.65318C61.1511 8.44232 60.9737 8.27488 60.7549 8.14465C60.5361 8.01442 60.2759 7.9462 59.9802 7.9462C59.6846 7.9462 59.4244 8.01442 59.2056 8.14465C58.9868 8.27488 58.8093 8.44853 58.6674 8.65318C58.5255 8.86403 58.425 9.09969 58.354 9.37256C58.289 9.64543 58.2535 9.91209 58.2535 10.185C58.2535 10.464 58.289 10.7369 58.354 11.0036C58.419 11.2702 58.5255 11.5121 58.6674 11.7229C58.8093 11.9338 58.9868 12.1074 59.2056 12.2377C59.4244 12.3741 59.6846 12.4361 59.9802 12.4361ZM63.4338 7.00977H64.445V5.09969H65.7815V7.00977H66.9878V8.05783H65.7815V11.4563C65.7815 11.6051 65.7874 11.7291 65.7992 11.8408C65.811 11.9462 65.8406 12.0392 65.882 12.1136C65.9234 12.1881 65.9884 12.2439 66.0771 12.2811C66.1658 12.3183 66.2782 12.3369 66.4319 12.3369C66.5266 12.3369 66.6212 12.3369 66.7158 12.3307C66.8104 12.3245 66.905 12.3121 66.9996 12.2873V13.3726C66.8518 13.3912 66.704 13.4036 66.568 13.4222C66.426 13.4408 66.2841 13.447 66.1363 13.447C65.7815 13.447 65.4976 13.4098 65.2847 13.3415C65.0718 13.2733 64.9003 13.1679 64.7821 13.0315C64.6579 12.895 64.581 12.7276 64.5337 12.5229C64.4923 12.3183 64.4627 12.0826 64.4568 11.8222V8.07023H63.4456V7.00977H63.4338Z" fill="#FFFCF6"/>
<path id="Vector_2" d="M16.0435 6.61473H9.91706L8.02472 0.5L6.12646 6.61473L0 6.60853L4.96149 10.3915L3.06323 16.5L8.02472 12.7233L12.9803 16.5L11.088 10.3915L16.0435 6.61473Z" fill="#00B67A"/>
<path id="Vector_3" d="M11.5144 11.7745L11.0886 10.3916L8.02539 12.7234L11.5144 11.7745Z" fill="#005128"/>
</g>
</svg>
